*
*
G04 PADS 9.5 Build Number: 522968 generated Gerber (RS-274-X) file*
G04 PC Version=2.1*
*
%IN "BMON_1.pcb"*%
*
%MOIN*%
*
%FSLAX35Y35*%
*
*
*
*
G04 PC Standard Apertures*
*
*
G04 Thermal Relief Aperture macro.*
%AMTER*
1,1,$1,0,0*
1,0,$1-$2,0,0*
21,0,$3,$4,0,0,45*
21,0,$3,$4,0,0,135*
%
*
*
G04 Annular Aperture macro.*
%AMANN*
1,1,$1,0,0*
1,0,$2,0,0*
%
*
*
G04 Odd Aperture macro.*
%AMODD*
1,1,$1,0,0*
1,0,$1-0.005,0,0*
%
*
*
G04 PC Custom Aperture Macros*
*
*
*
*
*
*
G04 PC Aperture Table*
*
%ADD011C,0.01*%
%ADD012C,0.006*%
%ADD015C,0.00591*%
%ADD016C,0.008*%
%ADD033C,0.001*%
%ADD057C,0.01181*%
%ADD083C,0.00394*%
%ADD084C,0.015*%
%ADD085C,0.00472*%
%ADD086C,0.05118*%
*
*
*
*
G04 PC Circuitry*
G04 Layer Name BMON_1.pcb - circuitry*
%LPD*%
*
*
G04 PC Custom Flashes*
G04 Layer Name BMON_1.pcb - flashes*
%LPD*%
*
*
G04 PC Circuitry*
G04 Layer Name BMON_1.pcb - circuitry*
%LPD*%
*
G54D11*
G01X1825002Y1686209D02*
X1829226D01*
Y1687461*
X1824966Y1698815D02*
X1829191D01*
Y1697563*
X1818368Y1686240D02*
X1817080D01*
Y1687492*
X1818297Y1698846D02*
X1817045D01*
Y1697594*
X1884486Y1716639D02*
G75*
G03X1884486I-8268J0D01*
G01X1725037D02*
G03X1725037I-8268J0D01*
G01X2006156Y1674773D02*
X2005701Y1675398D01*
X2005019Y1675711*
X2004110*
X2003429Y1675398*
X2002974Y1674773*
Y1674148*
X2003201Y1673523*
X2003429Y1673211*
X2003883Y1672898*
X2005247Y1672273*
X2005701Y1671961*
X2005929Y1671648*
X2006156Y1671023*
Y1670086*
X2005701Y1669461*
X2005019Y1669148*
X2004110*
X2003429Y1669461*
X2002974Y1670086*
X2008201Y1675711D02*
Y1669148D01*
X2010247Y1675711D02*
Y1669148D01*
X2012974*
X2015019Y1675711D02*
Y1669148D01*
X2018201Y1675711D02*
X2015019Y1671336D01*
X2016156Y1672898D02*
X2018201Y1669148D01*
X2023429Y1674773D02*
X2022974Y1675398D01*
X2022292Y1675711*
X2021383*
X2020701Y1675398*
X2020247Y1674773*
Y1674148*
X2020474Y1673523*
X2020701Y1673211*
X2021156Y1672898*
X2022519Y1672273*
X2022974Y1671961*
X2023201Y1671648*
X2023429Y1671023*
Y1670086*
X2022974Y1669461*
X2022292Y1669148*
X2021383*
X2020701Y1669461*
X2020247Y1670086*
X2028883Y1674148D02*
X2028656Y1674773D01*
X2028201Y1675398*
X2027747Y1675711*
X2026838*
X2026383Y1675398*
X2025929Y1674773*
X2025701Y1674148*
X2025474Y1673211*
Y1671648*
X2025701Y1670711*
X2025929Y1670086*
X2026383Y1669461*
X2026838Y1669148*
X2027747*
X2028201Y1669461*
X2028656Y1670086*
X2028883Y1670711*
X2030929Y1675711D02*
Y1669148D01*
Y1675711D02*
X2032974D01*
X2033656Y1675398*
X2033883Y1675086*
X2034110Y1674461*
Y1673836*
X2033883Y1673211*
X2033656Y1672898*
X2032974Y1672586*
X2030929*
X2032519D02*
X2034110Y1669148D01*
X2036156Y1675711D02*
Y1669148D01*
Y1675711D02*
X2039110D01*
X2036156Y1672586D02*
X2037974D01*
X2036156Y1669148D02*
X2039110D01*
X2041156Y1675711D02*
Y1669148D01*
Y1675711D02*
X2044110D01*
X2041156Y1672586D02*
X2042974D01*
X2041156Y1669148D02*
X2044110D01*
X2046156Y1675711D02*
Y1669148D01*
Y1675711D02*
X2049338Y1669148D01*
Y1675711D02*
Y1669148D01*
X2058201Y1675711D02*
Y1669148D01*
X2056610Y1675711D02*
X2059792D01*
X2063201D02*
X2062747Y1675398D01*
X2062292Y1674773*
X2062065Y1674148*
X2061838Y1673211*
Y1671648*
X2062065Y1670711*
X2062292Y1670086*
X2062747Y1669461*
X2063201Y1669148*
X2064110*
X2064565Y1669461*
X2065019Y1670086*
X2065247Y1670711*
X2065474Y1671648*
Y1673211*
X2065247Y1674148*
X2065019Y1674773*
X2064565Y1675398*
X2064110Y1675711*
X2063201*
X2067519D02*
Y1669148D01*
Y1675711D02*
X2069565D01*
X2070247Y1675398*
X2070474Y1675086*
X2070701Y1674461*
Y1673523*
X2070474Y1672898*
X2070247Y1672586*
X2069565Y1672273*
X2067519*
G54D12*
X1839880Y1712808D02*
X1844604D01*
Y1723726*
X1839880*
Y1712808*
X1829880D02*
X1834604D01*
Y1723726*
X1829880*
Y1712808*
X1819880D02*
X1824604D01*
Y1723726*
X1819880*
Y1712808*
X1809880D02*
X1814604D01*
Y1723726*
X1809880*
Y1712808*
X1777990Y1702860D02*
G03X1777990I-11024J0D01*
G54D15*
G01X1881139Y1702269D02*
X1896887D01*
Y1680616*
X1881139*
Y1702269*
X1859486D02*
X1875234D01*
Y1680616*
X1859486*
Y1702269*
X1837832D02*
X1853580D01*
Y1680616*
X1837832*
Y1702269*
X1744525Y1722151D02*
Y1725301D01*
X1789407*
Y1722151*
X1744525Y1683569D02*
Y1680419D01*
X1789407*
Y1683569*
X1744525Y1713096D02*
Y1692624D01*
X1789407Y1713096D02*
Y1692624D01*
X1837594Y1706855D02*
X1838596Y1703238D01*
X1839598Y1706855D02*
X1838596Y1703238D01*
X1840725Y1706855D02*
Y1703238D01*
Y1706855D02*
X1841853D01*
X1842229Y1706683*
X1842354Y1706510*
X1842479Y1706166*
Y1705821*
X1842354Y1705477*
X1842229Y1705305*
X1841853Y1705132*
X1840725D02*
X1841853D01*
X1842229Y1704960*
X1842354Y1704788*
X1842479Y1704444*
Y1703927*
X1842354Y1703582*
X1842229Y1703410*
X1841853Y1703238*
X1840725*
X1844609Y1706855D02*
X1843607Y1703238D01*
X1844609Y1706855D02*
X1845611Y1703238D01*
X1843982Y1704444D02*
X1845235D01*
X1847615Y1706855D02*
Y1703238D01*
X1846738Y1706855D02*
X1848492D01*
X1850496D02*
Y1703238D01*
X1849619Y1706855D02*
X1851373D01*
X1859973Y1705994D02*
X1859847Y1706338D01*
X1859597Y1706683*
X1859346Y1706855*
X1858845*
X1858595Y1706683*
X1858344Y1706338*
X1858219Y1705994*
X1858094Y1705477*
Y1704616*
X1858219Y1704099*
X1858344Y1703755*
X1858595Y1703410*
X1858845Y1703238*
X1859346*
X1859597Y1703410*
X1859847Y1703755*
X1859973Y1704099*
Y1704616*
X1859346D02*
X1859973D01*
X1861100Y1706855D02*
Y1703238D01*
Y1706855D02*
X1862854Y1703238D01*
Y1706855D02*
Y1703238D01*
X1863981Y1706855D02*
Y1703238D01*
Y1706855D02*
X1864858D01*
X1865234Y1706683*
X1865485Y1706338*
X1865610Y1705994*
X1865735Y1705477*
Y1704616*
X1865610Y1704099*
X1865485Y1703755*
X1865234Y1703410*
X1864858Y1703238*
X1863981*
X1888973Y1706694D02*
X1888847Y1707038D01*
X1888597Y1707383*
X1888346Y1707555*
X1887845*
X1887595Y1707383*
X1887344Y1707038*
X1887219Y1706694*
X1887094Y1706177*
Y1705316*
X1887219Y1704799*
X1887344Y1704455*
X1887595Y1704110*
X1887845Y1703938*
X1888346*
X1888597Y1704110*
X1888847Y1704455*
X1888973Y1704799*
X1890100Y1707555D02*
Y1703938D01*
X1891854Y1707555D02*
Y1703938D01*
X1890100Y1705832D02*
X1891854D01*
X1893983Y1707555D02*
X1892981Y1703938D01*
X1893983Y1707555D02*
X1894986Y1703938D01*
X1893357Y1705144D02*
X1894610D01*
X1896113Y1707555D02*
Y1703938D01*
Y1707555D02*
X1897240D01*
X1897616Y1707383*
X1897742Y1707210*
X1897867Y1706866*
Y1706521*
X1897742Y1706177*
X1897616Y1706005*
X1897240Y1705832*
X1896113*
X1896990D02*
X1897867Y1703938D01*
X1900873Y1706694D02*
X1900748Y1707038D01*
X1900497Y1707383*
X1900247Y1707555*
X1899746*
X1899495Y1707383*
X1899245Y1707038*
X1899119Y1706694*
X1898994Y1706177*
Y1705316*
X1899119Y1704799*
X1899245Y1704455*
X1899495Y1704110*
X1899746Y1703938*
X1900247*
X1900497Y1704110*
X1900748Y1704455*
X1900873Y1704799*
Y1705316*
X1900247D02*
X1900873D01*
X1902001Y1707555D02*
Y1703938D01*
Y1707555D02*
X1903629D01*
X1902001Y1705832D02*
X1903003D01*
X1902001Y1703938D02*
X1903629D01*
X1679794Y1728213D02*
Y1724338D01*
Y1728213D02*
X1681002D01*
X1681404Y1728029*
X1681539Y1727844*
X1681673Y1727475*
Y1727106*
X1681539Y1726737*
X1681404Y1726552*
X1681002Y1726368*
X1679794D02*
X1681002D01*
X1681404Y1726183*
X1681539Y1725999*
X1681673Y1725630*
Y1725076*
X1681539Y1724707*
X1681404Y1724522*
X1681002Y1724338*
X1679794*
X1682881Y1728213D02*
Y1724338D01*
Y1728213D02*
X1683954Y1724338D01*
X1685028Y1728213D02*
X1683954Y1724338D01*
X1685028Y1728213D02*
Y1724338D01*
X1687041Y1728213D02*
X1686773Y1728029D01*
X1686505Y1727660*
X1686370Y1727291*
X1686236Y1726737*
Y1725814*
X1686370Y1725261*
X1686505Y1724891*
X1686773Y1724522*
X1687041Y1724338*
X1687578*
X1687847Y1724522*
X1688115Y1724891*
X1688249Y1725261*
X1688384Y1725814*
Y1726737*
X1688249Y1727291*
X1688115Y1727660*
X1687847Y1728029*
X1687578Y1728213*
X1687041*
X1689591D02*
Y1724338D01*
Y1728213D02*
X1691471Y1724338D01*
Y1728213D02*
Y1724338D01*
X1692678Y1723600D02*
X1695497D01*
X1696302Y1727475D02*
X1696571Y1727660D01*
X1696973Y1728213*
Y1724338*
X1683928Y1710891D02*
Y1711075D01*
X1684062Y1711444*
X1684196Y1711629*
X1684465Y1711813*
X1685002*
X1685270Y1711629*
X1685404Y1711444*
X1685539Y1711075*
Y1710706*
X1685404Y1710337*
X1685136Y1709783*
X1683794Y1707938*
X1685673*
X1687686Y1711813D02*
X1687283Y1711629D01*
X1687015Y1711075*
X1686881Y1710152*
Y1709599*
X1687015Y1708676*
X1687283Y1708122*
X1687686Y1707938*
X1687954*
X1688357Y1708122*
X1688625Y1708676*
X1688760Y1709599*
Y1710152*
X1688625Y1711075*
X1688357Y1711629*
X1687954Y1711813*
X1687686*
X1689968Y1711075D02*
X1690236Y1711260D01*
X1690639Y1711813*
Y1707938*
X1693189Y1711813D02*
X1691847Y1709230D01*
X1693860*
X1693189Y1711813D02*
Y1707938D01*
X1670294Y1727138D02*
Y1727122D01*
X1670359*
Y1727107*
X1670434*
Y1727092*
X1670493*
Y1727078*
X1670538*
Y1727063*
X1670568*
Y1727048*
X1670613*
Y1727033*
X1670643*
Y1727018*
X1670672*
Y1727003*
X1670702*
Y1726988*
X1670717*
Y1726973*
X1670747*
Y1726958*
X1670777*
Y1726943*
X1670792*
Y1726928*
X1670807*
Y1726913*
X1670837*
Y1726898*
X1670852*
Y1726883*
X1670867*
Y1726868*
X1670882*
Y1726854*
X1670896*
Y1726839*
X1670911*
Y1726824*
X1670926*
Y1726809*
X1670941*
Y1726794*
X1670956*
Y1726779*
X1670971*
Y1726764*
X1670986*
Y1726734*
X1671001*
Y1726719*
X1671016*
Y1726689*
X1671031*
Y1726674*
X1671046*
Y1726645*
X1671061*
Y1726615*
X1671076*
Y1726585*
X1671091*
Y1726555*
X1671105*
Y1726510*
X1671120*
Y1726465*
X1671135*
Y1726406*
X1671150*
Y1714281*
X1671135*
Y1714222*
X1671120*
Y1714177*
X1671105*
Y1714132*
X1671091*
Y1714102*
X1671076*
Y1714072*
X1671061*
Y1714042*
X1671046*
Y1714012*
X1671046D02*
X1671031D01*
X1671031D02*
Y1713998D01*
X1671016*
Y1713968*
X1671001*
Y1713953*
X1670986*
Y1713923*
X1670971*
Y1713908*
X1670956*
Y1713893*
X1670941*
Y1713878*
X1670926*
Y1713863*
X1670911*
Y1713848*
X1670896*
Y1713833*
X1670882*
Y1713818*
X1670867*
Y1713803*
X1670852*
Y1713789*
X1670837*
Y1713774*
X1670807*
Y1713759*
X1670792*
Y1713744*
X1670777*
Y1713729*
X1670747*
Y1713714*
X1670717*
Y1713699*
X1670702*
Y1713684*
X1670672*
Y1713669*
X1670643*
Y1713654*
X1670613*
Y1713639*
X1670568*
Y1713624*
X1670538*
Y1713609*
X1670478*
Y1713594*
X1670344*
Y1713579*
X1654920*
Y1726391*
X1654935*
Y1726465*
X1654950*
Y1726510*
X1654965*
Y1726555*
X1654979*
Y1726585*
X1654994*
Y1726615*
X1655009*
Y1726645*
X1655024*
Y1726674*
X1655039*
Y1726689*
X1655054*
Y1726719*
X1655069*
Y1726734*
X1655084*
Y1726749*
X1655099*
Y1726779*
X1655114*
Y1726794*
X1655129*
Y1726809*
X1655144*
Y1726824*
X1655159*
Y1726839*
X1655174*
Y1726854*
X1655189*
Y1726868*
X1655203*
Y1726883*
X1655218*
Y1726898*
X1655233*
Y1726913*
X1655263*
Y1726928*
X1655278*
Y1726943*
X1655308*
Y1726958*
X1655323*
Y1726973*
X1655353*
Y1726988*
X1655368*
Y1727003*
X1655398*
Y1727018*
X1655427*
Y1727033*
X1655457*
Y1727048*
X1655502*
Y1727063*
X1655532*
Y1727078*
X1655592*
Y1727092*
X1655636*
Y1727107*
X1655711*
Y1727122*
X1655775*
Y1727137*
X1670294Y1727138*
X1670299Y1726928D02*
X1655771D01*
Y1726913*
X1655696*
Y1726898*
X1655636*
Y1726883*
X1655592*
Y1726868*
X1655562*
Y1726854*
X1655517*
Y1726839*
X1655502*
Y1726824*
X1655472*
Y1726809*
X1655442*
Y1726794*
X1655427*
Y1726779*
X1655398*
Y1726764*
X1655383*
Y1726749*
X1655368*
Y1726734*
X1655338*
Y1726719*
X1655323*
Y1726704*
X1655308*
Y1726689*
X1655293*
Y1726674*
X1655278*
Y1726659*
X1655263*
Y1726630*
X1655248*
Y1726615*
X1655233*
Y1726600*
X1655218*
Y1726570*
X1655203*
Y1726555*
X1655189*
Y1726525*
X1655174*
Y1726495*
X1655159*
Y1726450*
X1655144*
Y1726406*
X1655129*
Y1726346*
X1655114*
Y1713759*
X1670299*
Y1713774*
X1670374*
Y1713789*
X1670434*
Y1713803*
X1670478*
Y1713818*
X1670508*
Y1713833*
X1670553*
Y1713848*
X1670583*
Y1713863*
X1670598*
Y1713878*
X1670628*
Y1713893*
X1670658*
Y1713908*
X1670672*
Y1713923*
X1670687*
Y1713938*
X1670717*
Y1713953*
X1670732*
Y1713968*
X1670747*
Y1713983*
X1670762*
Y1713998*
X1670777*
Y1714012*
X1670777D02*
X1670792D01*
X1670792D02*
Y1714027D01*
X1670807*
Y1714057*
X1670822*
Y1714072*
X1670837*
Y1714087*
X1670852*
Y1714117*
X1670867*
Y1714132*
X1670882*
Y1714162*
X1670896*
Y1714192*
X1670911*
Y1714236*
X1670926*
Y1714281*
X1670941*
Y1714341*
X1670956*
Y1726346*
X1670941*
Y1726406*
X1670926*
Y1726450*
X1670911*
Y1726495*
X1670896*
Y1726525*
X1670882*
Y1726555*
X1670867*
Y1726570*
X1670852*
Y1726600*
X1670837*
Y1726615*
X1670822*
Y1726630*
X1670807*
Y1726659*
X1670792*
Y1726674*
X1670777*
Y1726689*
X1670762*
Y1726704*
X1670747*
Y1726719*
X1670732*
Y1726734*
X1670717*
Y1726749*
X1670687*
Y1726764*
X1670672*
Y1726779*
X1670658*
Y1726794*
X1670628*
Y1726809*
X1670598*
Y1726824*
X1670583*
Y1726839*
X1670553*
Y1726854*
X1670508*
Y1726868*
X1670478*
Y1726883*
X1670434*
Y1726898*
X1670374*
Y1726913*
X1670299*
Y1726928*
X1658309Y1725435D02*
Y1725420D01*
X1658384*
Y1725405*
X1658444*
Y1725390*
X1658488*
Y1725375*
X1658518*
Y1725360*
X1658563*
Y1725345*
X1658593*
Y1725331*
X1658623*
Y1725316*
X1658653*
Y1725301*
X1658682*
X1658682D02*
Y1725286D01*
X1658682D02*
X1658697D01*
Y1725271*
X1658727*
Y1725256*
X1658742*
Y1725241*
X1658757*
Y1725226*
X1658787*
Y1725211*
X1658802*
Y1725196*
X1658817*
Y1725181*
X1658832*
Y1725166*
X1658847*
Y1725151*
X1658862*
Y1725136*
X1658877*
Y1725122*
X1658892*
Y1725107*
X1658906*
Y1725092*
X1658921*
Y1725077*
X1658936*
Y1725062*
X1658951*
Y1725047*
X1658966*
Y1725032*
X1658981*
Y1725002*
X1658996*
Y1724987*
X1659011*
Y1724972*
X1659026*
Y1724942*
X1659041*
Y1724927*
X1659056*
Y1724898*
X1659071*
Y1724868*
X1659086*
Y1724838*
X1659101*
Y1724808*
X1659116*
Y1724778*
X1659130*
Y1724733*
X1659145*
Y1724688*
X1659145D02*
X1659160D01*
X1659160D02*
Y1724629D01*
X1659175*
Y1724554*
X1659190*
Y1724420*
X1659205*
Y1724285*
X1659190*
Y1724136*
X1659175*
Y1724061*
X1659160*
Y1724017*
X1659145*
Y1723972*
X1659130*
Y1723927*
X1659116*
Y1723897*
X1659101*
Y1723852*
X1659086*
Y1723822*
X1659071*
Y1723808*
X1659056*
Y1723778*
X1659041*
Y1723748*
X1659026*
Y1723733*
X1659011*
Y1723703*
X1658996*
Y1723688*
X1658981*
Y1723673*
X1658966*
Y1723643*
X1658951*
Y1723628*
X1658936*
Y1723613*
X1658921*
Y1723598*
X1658921D02*
X1658906D01*
X1658906D02*
Y1723584D01*
X1658892*
Y1723569*
X1658877*
Y1723554*
X1658862*
Y1723539*
X1658847*
Y1723524*
X1658832*
Y1723509*
X1658817*
Y1723494*
X1658787*
Y1723479*
X1658772*
Y1723464*
X1658757*
Y1723449*
X1658742*
Y1723434*
X1658712*
Y1723419*
X1658697*
Y1723404*
X1658668*
Y1723389*
X1658638*
Y1723375*
X1658608*
Y1723360*
X1658578*
Y1723345*
X1658548*
Y1723330*
X1658518*
Y1723315*
X1658473*
Y1723300*
X1658414*
Y1723285*
X1658354*
Y1723270*
X1658264*
Y1723255*
X1657981*
Y1723270*
X1657891*
Y1723285*
X1657816*
Y1723300*
X1657772*
Y1723315*
X1657727*
Y1723330*
X1657697*
Y1723345*
X1657667*
Y1723360*
X1657637*
Y1723375*
X1657607*
Y1723389*
X1657578*
Y1723404*
X1657548*
Y1723419*
X1657533*
Y1723434*
X1657503*
Y1723449*
X1657488*
Y1723464*
X1657473*
Y1723479*
X1657443*
Y1723494*
X1657428*
Y1723509*
X1657413*
Y1723524*
X1657398*
Y1723539*
X1657383*
Y1723554*
X1657369*
Y1723569*
X1657354*
Y1723584*
X1657339*
Y1723598*
X1657339D02*
X1657324D01*
X1657324D02*
Y1723613D01*
X1657309*
Y1723628*
X1657294*
Y1723643*
X1657279*
Y1723658*
X1657264*
Y1723688*
X1657249*
Y1723703*
X1657234*
Y1723718*
X1657219*
Y1723748*
X1657204*
Y1723763*
X1657189*
Y1723793*
X1657174*
Y1723822*
X1657159*
Y1723852*
X1657145*
Y1723882*
X1657130*
Y1723912*
X1657115*
Y1723942*
X1657100*
Y1723987*
X1657085*
Y1724046*
X1657070*
Y1724106*
X1657055*
Y1724196*
X1657040*
Y1724509*
X1657055*
Y1724599*
X1657070*
Y1724659*
X1657085*
Y1724703*
X1657100*
Y1724748*
X1657115*
Y1724793*
X1657130*
Y1724823*
X1657145*
Y1724853*
X1657159*
Y1724883*
X1657174*
Y1724912*
X1657189*
Y1724927*
X1657204*
Y1724957*
X1657219*
Y1724972*
X1657234*
Y1725002*
X1657249*
Y1725017*
X1657264*
Y1725032*
X1657279*
Y1725047*
X1657294*
Y1725062*
X1657309*
Y1725092*
X1657324*
Y1725107*
X1657339*
Y1725122*
X1657354*
Y1725136*
X1657369*
Y1725151*
X1657383*
Y1725166*
X1657398*
Y1725181*
X1657428*
Y1725196*
X1657443*
Y1725211*
X1657458*
Y1725226*
X1657473*
Y1725241*
X1657503*
Y1725256*
X1657518*
Y1725271*
X1657548*
Y1725286*
X1657563*
Y1725301*
X1657593*
X1657593D02*
Y1725316D01*
X1657593D02*
X1657622D01*
Y1725331*
X1657652*
Y1725345*
X1657682*
Y1725360*
X1657712*
Y1725375*
X1657757*
Y1725390*
X1657802*
Y1725405*
X1657861*
Y1725420*
X1657936*
Y1725435*
X1658309*
X1662191D02*
Y1725420D01*
X1662281*
Y1725405*
X1662341*
Y1725390*
X1662386*
X1662386D02*
Y1725375D01*
X1662386D02*
X1662415D01*
Y1725360*
X1662460*
Y1725345*
X1662490*
Y1725331*
X1662520*
Y1725316*
X1662550*
Y1725301*
X1662565*
Y1725286*
X1662595*
Y1725271*
X1662624*
Y1725256*
X1662639*
Y1725241*
X1662654*
Y1725226*
X1662684*
Y1725211*
X1662699*
Y1725196*
X1662714*
Y1725181*
X1662729*
Y1725166*
X1662744*
Y1725151*
X1662759*
Y1725136*
X1662774*
Y1725122*
X1662789*
Y1725107*
X1662804*
Y1725092*
X1662819*
Y1725077*
X1662833*
Y1725062*
X1662848*
Y1725047*
X1662863*
Y1725032*
X1662878*
Y1725002*
X1662893*
Y1724987*
X1662908*
Y1724957*
X1662923*
Y1724942*
X1662938*
Y1724912*
X1662953*
Y1724898*
X1662968*
Y1724868*
X1662983*
Y1724838*
X1662998*
Y1724808*
X1663013*
Y1724763*
X1663028*
Y1724733*
X1663042*
Y1724688*
X1663042D02*
X1663057D01*
X1663057D02*
Y1724629D01*
X1663072*
Y1724554*
X1663087*
Y1724151*
X1663072*
Y1724076*
X1663057*
Y1724017*
X1663042*
Y1723972*
X1663028*
Y1723927*
X1663013*
Y1723897*
X1662998*
Y1723867*
X1662983*
Y1723837*
X1662968*
Y1723808*
X1662953*
Y1723778*
X1662938*
Y1723748*
X1662923*
Y1723733*
X1662908*
Y1723718*
X1662893*
Y1723688*
X1662878*
Y1723673*
X1662863*
Y1723658*
X1662848*
Y1723628*
X1662833*
Y1723613*
X1662819*
Y1723598*
X1662819D02*
X1662804D01*
X1662804D02*
Y1723584D01*
X1662789*
Y1723569*
X1662774*
Y1723554*
X1662759*
Y1723539*
X1662744*
Y1723524*
X1662729*
Y1723509*
X1662714*
Y1723494*
X1662684*
Y1723479*
X1662669*
Y1723464*
X1662654*
Y1723449*
X1662624*
Y1723434*
X1662609*
Y1723419*
X1662580*
Y1723404*
X1662565*
Y1723389*
X1662535*
Y1723375*
X1662505*
Y1723360*
X1662475*
Y1723345*
X1662445*
Y1723330*
X1662400*
Y1723315*
X1662371*
Y1723300*
X1662311*
Y1723285*
X1662251*
Y1723270*
X1662162*
Y1723255*
X1661878*
Y1723270*
X1661773*
Y1723285*
X1661714*
Y1723300*
X1661669*
Y1723315*
X1661624*
Y1723330*
X1661594*
Y1723345*
X1661549*
Y1723360*
X1661519*
Y1723375*
X1661505*
Y1723389*
X1661475*
Y1723404*
X1661445*
Y1723419*
X1661430*
Y1723434*
X1661400*
Y1723449*
X1661385*
Y1723464*
X1661355*
Y1723479*
X1661340*
Y1723494*
X1661325*
Y1723509*
X1661310*
Y1723524*
X1661296*
Y1723539*
X1661281*
Y1723554*
X1661266*
Y1723569*
X1661251*
Y1723584*
X1661236*
Y1723598*
X1661236D02*
X1661221D01*
X1661221D02*
Y1723613D01*
X1661206*
Y1723628*
X1661191*
Y1723643*
X1661176*
Y1723658*
X1661161*
Y1723673*
X1661146*
Y1723703*
X1661131*
Y1723718*
X1661116*
Y1723748*
X1661101*
Y1723763*
X1661086*
Y1723793*
X1661072*
Y1723808*
X1661057*
Y1723837*
X1661042*
Y1723867*
X1661027*
Y1723912*
X1661012*
Y1723942*
X1660997*
Y1723987*
X1660982*
Y1724032*
X1660967*
Y1724091*
X1660952*
Y1724181*
X1660937*
Y1724524*
X1660952*
Y1724614*
X1660967*
Y1724674*
X1660982*
Y1724718*
X1660997*
Y1724763*
X1661012*
Y1724793*
X1661027*
Y1724823*
X1661042*
Y1724853*
X1661057*
Y1724883*
X1661072*
Y1724912*
X1661086*
Y1724927*
X1661101*
Y1724957*
X1661116*
Y1724972*
X1661131*
Y1725002*
X1661146*
Y1725017*
X1661161*
Y1725032*
X1661176*
Y1725062*
X1661191*
Y1725077*
X1661206*
Y1725092*
X1661221*
Y1725107*
X1661236*
Y1725122*
X1661251*
Y1725136*
X1661266*
Y1725151*
X1661281*
Y1725166*
X1661296*
Y1725181*
X1661310*
Y1725196*
X1661340*
Y1725211*
X1661355*
Y1725226*
X1661370*
Y1725241*
X1661400*
Y1725256*
X1661415*
Y1725271*
X1661445*
Y1725286*
X1661460*
Y1725301*
X1661490*
Y1725316*
X1661519*
Y1725331*
X1661549*
Y1725345*
X1661579*
Y1725360*
X1661609*
Y1725375*
X1661654*
Y1725390*
X1661699*
Y1725405*
X1661758*
Y1725420*
X1661833*
Y1725435*
X1662191*
X1663042Y1722718D02*
Y1715312D01*
X1660982*
Y1722718*
X1663042*
X1659145D02*
Y1715312D01*
X1657085*
Y1722718*
X1659145*
X1667089Y1725017D02*
Y1722568D01*
X1669030*
Y1721419*
X1667089*
Y1717477*
X1667104*
Y1717312*
X1667119*
Y1717208*
X1667134*
Y1717148*
X1667149*
Y1717088*
X1667164*
Y1717029*
X1667179*
X1667179D02*
Y1716984D01*
X1667179D02*
X1667193D01*
Y1716954*
X1667208*
Y1716924*
X1667223*
Y1716894*
X1667238*
Y1716864*
X1667253*
Y1716835*
X1667268*
Y1716820*
X1667283*
Y1716790*
X1667298*
Y1716775*
X1667313*
Y1716760*
X1667328*
Y1716745*
X1667343*
Y1716730*
X1667358*
Y1716715*
X1667373*
Y1716700*
X1667388*
Y1716685*
X1667417*
Y1716670*
X1667432*
Y1716655*
X1667462*
Y1716640*
X1667492*
Y1716626*
X1667522*
Y1716611*
X1667552*
Y1716596*
X1667597*
Y1716581*
X1667656*
Y1716566*
X1667716*
Y1716551*
X1667821*
Y1716536*
X1668268*
X1668268D02*
Y1716551D01*
X1668268D02*
X1668403D01*
Y1716566*
X1668507*
Y1716581*
X1668582*
Y1716596*
X1668657*
Y1716611*
X1668731*
Y1716626*
X1668791*
Y1716640*
X1668851*
Y1716655*
X1668896*
Y1716670*
X1668955*
Y1716685*
X1668970*
Y1715506*
X1668940*
Y1715491*
X1668911*
Y1715476*
X1668866*
Y1715461*
X1668821*
Y1715446*
X1668776*
Y1715431*
X1668731*
Y1715416*
X1668672*
Y1715401*
X1668612*
Y1715386*
X1668552*
Y1715371*
X1668478*
Y1715356*
X1668403*
Y1715341*
X1668328*
Y1715326*
X1668239*
Y1715312*
X1668119*
Y1715297*
X1668000*
Y1715282*
X1667850*
Y1715267*
X1667641*
Y1715252*
X1666955*
Y1715267*
X1666820*
Y1715282*
X1666731*
Y1715297*
X1666656*
Y1715312*
X1666596*
Y1715326*
X1666536*
Y1715341*
X1666492*
Y1715356*
X1666447*
Y1715371*
X1666402*
Y1715386*
X1666357*
Y1715401*
X1666327*
Y1715416*
X1666283*
Y1715431*
X1666253*
Y1715446*
X1666223*
Y1715461*
X1666193*
Y1715476*
X1666163*
Y1715491*
X1666133*
Y1715506*
X1666103*
Y1715521*
X1666074*
Y1715536*
X1666059*
Y1715550*
X1666029*
Y1715565*
X1666014*
Y1715580*
X1665984*
Y1715595*
X1665969*
Y1715610*
X1665939*
Y1715625*
X1665924*
Y1715640*
X1665894*
Y1715655*
X1665879*
Y1715670*
X1665865*
Y1715685*
X1665850*
Y1715700*
X1665820*
Y1715715*
X1665805*
Y1715730*
X1665790*
Y1715745*
X1665775*
Y1715759*
X1665760*
Y1715774*
X1665745*
Y1715789*
X1665730*
Y1715804*
X1665715*
Y1715819*
X1665700*
Y1715834*
X1665685*
Y1715849*
X1665670*
Y1715864*
X1665655*
Y1715879*
X1665641*
Y1715894*
X1665626*
Y1715909*
X1665611*
Y1715924*
X1665596*
Y1715939*
X1665581*
Y1715954*
X1665566*
Y1715983*
X1665551*
Y1715998*
X1665536*
Y1716013*
X1665521*
Y1716043*
X1665506*
Y1716058*
X1665491*
Y1716073*
X1665476*
Y1716103*
X1665461*
Y1716118*
X1665446*
Y1716148*
X1665432*
Y1716163*
X1665417*
Y1716192*
X1665402*
Y1716222*
X1665387*
Y1716237*
X1665372*
Y1716267*
X1665357*
Y1716297*
X1665342*
Y1716327*
X1665327*
Y1716357*
X1665312*
Y1716387*
X1665297*
Y1716416*
X1665282*
Y1716461*
X1665267*
Y1716491*
X1665252*
Y1716521*
X1665237*
Y1716566*
X1665222*
Y1716611*
X1665208*
Y1716655*
X1665193*
Y1716700*
X1665178*
Y1716745*
X1665163*
Y1716805*
X1665148*
Y1716864*
X1665133*
Y1716924*
X1665118*
Y1716999*
X1665103*
Y1717073*
X1665088*
Y1717163*
X1665073*
Y1717282*
X1665058*
Y1717447*
X1665043*
Y1721433*
X1664162*
Y1722547*
X1665118Y1722553*
Y1722583*
X1665133*
Y1722643*
X1665148*
Y1722703*
X1665163*
Y1722747*
X1665178*
Y1722807*
X1665193*
Y1722852*
X1665208*
Y1722912*
X1665222*
Y1722971*
X1665237*
Y1723016*
X1665252*
Y1723076*
X1665267*
Y1723121*
X1665282*
Y1723180*
X1665297*
Y1723240*
X1665312*
Y1723285*
X1665327*
Y1723345*
X1665342*
Y1723389*
X1665357*
Y1723449*
X1665372*
Y1723509*
X1665387*
Y1723554*
X1665402*
Y1723613*
X1665417*
Y1723658*
X1665432*
Y1723718*
X1665446*
Y1723778*
X1665461*
Y1723822*
X1665476*
Y1723882*
X1665491*
Y1723927*
X1665506*
Y1723987*
X1665521*
Y1724046*
X1665536*
Y1724091*
X1665551*
Y1724151*
X1665566*
Y1724196*
X1665581*
Y1724255*
X1665596*
Y1724315*
X1665611*
Y1724360*
X1665626*
Y1724420*
X1665641*
Y1724465*
X1665655*
Y1724524*
X1665670*
Y1724584*
X1665685*
Y1724629*
X1665700*
Y1724688*
X1665700D02*
X1665715D01*
X1665715D02*
Y1724748D01*
X1665730*
Y1724793*
X1665745*
Y1724853*
X1665760*
Y1724898*
X1665775*
Y1724957*
X1665790*
Y1725017*
X1667089*
G54D16*
X1763494Y1720275D02*
Y1716338D01*
Y1720275D02*
X1764721D01*
X1765130Y1720088*
X1765266Y1719900*
X1765403Y1719525*
Y1718963*
X1765266Y1718588*
X1765130Y1718400*
X1764721Y1718213*
X1763494*
X1766630Y1720275D02*
Y1716338D01*
Y1720275D02*
X1767857D01*
X1768266Y1720088*
X1768403Y1719900*
X1768539Y1719525*
Y1719150*
X1768403Y1718775*
X1768266Y1718588*
X1767857Y1718400*
X1766630D02*
X1767857D01*
X1768266Y1718213*
X1768403Y1718025*
X1768539Y1717650*
Y1717088*
X1768403Y1716713*
X1768266Y1716525*
X1767857Y1716338*
X1766630*
X1769766Y1719525D02*
X1770039Y1719713D01*
X1770448Y1720275*
Y1716338*
G54D33*
G54D57*
X1577094Y1788838D02*
Y1811082D01*
X1603275*
X1575394Y1597638D02*
Y1575394D01*
X1601575*
X2149094Y1791238D02*
Y1813482D01*
X2122913*
X2147394Y1600038D02*
Y1577794D01*
X2121213*
G54D83*
X1813111Y1681668D02*
X1813938D01*
X1813111Y1683637D02*
X1813938D01*
X1815436Y1701555D02*
X1816262D01*
X1815436Y1703523D02*
X1816262D01*
X1861691Y1719002D02*
Y1719828D01*
X1859722Y1719002D02*
Y1719828D01*
X1857754Y1719002D02*
Y1719828D01*
X1855785Y1719002D02*
Y1719828D01*
X1853817Y1719002D02*
Y1719828D01*
X1851848Y1719002D02*
Y1719828D01*
X1849880Y1719002D02*
Y1719828D01*
X1847911Y1719002D02*
Y1719828D01*
G54D84*
X1840273Y1712900D02*
X1844210D01*
X1830273D02*
X1834210D01*
X1820273D02*
X1824210D01*
X1810273D02*
X1814210D01*
G54D85*
X1806604Y1683700D02*
X1806497Y1683995D01*
X1806282Y1684291*
X1806067Y1684438*
X1805638*
X1805423Y1684291*
X1805208Y1683995*
X1805101Y1683700*
X1804994Y1683257*
Y1682519*
X1805101Y1682076*
X1805208Y1681781*
X1805423Y1681485*
X1805638Y1681338*
X1806067*
X1806282Y1681485*
X1806497Y1681781*
X1806604Y1682076*
X1807571Y1683848D02*
X1807785Y1683995D01*
X1808108Y1684438*
Y1681338*
X1810094Y1700738D02*
Y1698524D01*
X1810201Y1698081*
X1810416Y1697785*
X1810738Y1697638*
X1810953*
X1811275Y1697785*
X1811490Y1698081*
X1811597Y1698524*
Y1700738*
X1812563Y1700148D02*
X1812778Y1700295D01*
X1813100Y1700738*
Y1697638*
X1815281Y1706790D02*
X1815174Y1707086D01*
X1814959Y1707381*
X1814744Y1707528*
X1814315*
X1814100Y1707381*
X1813885Y1707086*
X1813778Y1706790*
X1813671Y1706347*
Y1705609*
X1813778Y1705166*
X1813885Y1704871*
X1814100Y1704576*
X1814315Y1704428*
X1814744*
X1814959Y1704576*
X1815174Y1704871*
X1815281Y1705166*
X1816462Y1707528D02*
X1817643D01*
X1816999Y1706347*
X1817321*
X1817536Y1706200*
X1817643Y1706052*
X1817751Y1705609*
Y1705314*
X1817643Y1704871*
X1817429Y1704576*
X1817107Y1704428*
X1816785*
X1816462Y1704576*
X1816355Y1704723*
X1816248Y1705019*
X1861994Y1714638D02*
X1858894D01*
X1861994D02*
Y1713671D01*
X1861846Y1713349*
X1861699Y1713242*
X1861404Y1713135*
X1861108*
X1860813Y1713242*
X1860665Y1713349*
X1860518Y1713671*
Y1714638*
Y1713886D02*
X1858894Y1713135D01*
X1861404Y1712168D02*
X1861551Y1711953D01*
X1861994Y1711631*
X1858894*
X1861256Y1710558D02*
X1861404D01*
X1861699Y1710450*
X1861846Y1710343*
X1861994Y1710128*
Y1709699*
X1861846Y1709484*
X1861699Y1709377*
X1861404Y1709269*
X1861108*
X1860813Y1709377*
X1860370Y1709591*
X1858894Y1710665*
Y1709162*
X1857994Y1714638D02*
X1854894D01*
X1857994D02*
Y1713671D01*
X1857846Y1713349*
X1857699Y1713242*
X1857404Y1713135*
X1857108*
X1856813Y1713242*
X1856665Y1713349*
X1856518Y1713671*
Y1714638*
Y1713886D02*
X1854894Y1713135D01*
X1857404Y1712168D02*
X1857551Y1711953D01*
X1857994Y1711631*
X1854894*
X1857994Y1710450D02*
Y1709269D01*
X1856813Y1709913*
Y1709591*
X1856665Y1709377*
X1856518Y1709269*
X1856075Y1709162*
X1855780*
X1855337Y1709269*
X1855041Y1709484*
X1854894Y1709806*
Y1710128*
X1855041Y1710450*
X1855189Y1710558*
X1855484Y1710665*
X1854194Y1714538D02*
X1851094D01*
X1854194D02*
Y1713571D01*
X1854046Y1713249*
X1853899Y1713142*
X1853604Y1713035*
X1853308*
X1853013Y1713142*
X1852865Y1713249*
X1852718Y1713571*
Y1714538*
Y1713786D02*
X1851094Y1713035D01*
X1853604Y1712068D02*
X1853751Y1711853D01*
X1854194Y1711531*
X1851094*
X1854194Y1709491D02*
X1852127Y1710565D01*
Y1708954*
X1854194Y1709491D02*
X1851094D01*
X1849894Y1714538D02*
X1846794D01*
X1849894D02*
Y1713571D01*
X1849746Y1713249*
X1849599Y1713142*
X1849304Y1713035*
X1849008*
X1848713Y1713142*
X1848565Y1713249*
X1848418Y1713571*
Y1714538*
Y1713786D02*
X1846794Y1713035D01*
X1849304Y1712068D02*
X1849451Y1711853D01*
X1849894Y1711531*
X1846794*
X1849894Y1709169D02*
Y1710243D01*
X1848565Y1710350*
X1848713Y1710243*
X1848861Y1709921*
Y1709599*
X1848713Y1709277*
X1848418Y1709062*
X1847975Y1708954*
X1847680Y1709062*
X1847237Y1709169*
X1846941Y1709384*
X1846794Y1709706*
Y1710028*
X1846941Y1710350*
X1847089Y1710458*
X1847384Y1710565*
X1839194Y1728455D02*
Y1724838D01*
Y1728455D02*
X1840071D01*
X1840446Y1728283*
X1840697Y1727938*
X1840822Y1727594*
X1840947Y1727077*
Y1726216*
X1840822Y1725699*
X1840697Y1725355*
X1840446Y1725010*
X1840071Y1724838*
X1839194*
X1842075Y1728455D02*
Y1724838D01*
X1843578*
X1845958Y1728455D02*
X1844706Y1726044D01*
X1846585*
X1845958Y1728455D02*
Y1724838D01*
X1829194Y1728455D02*
Y1724838D01*
Y1728455D02*
X1830071D01*
X1830446Y1728283*
X1830697Y1727938*
X1830822Y1727594*
X1830947Y1727077*
Y1726216*
X1830822Y1725699*
X1830697Y1725355*
X1830446Y1725010*
X1830071Y1724838*
X1829194*
X1832075Y1728455D02*
Y1724838D01*
X1833578*
X1834956Y1728455D02*
X1836334D01*
X1835582Y1727077*
X1835958*
X1836209Y1726905*
X1836334Y1726732*
X1836459Y1726216*
Y1725871*
X1836334Y1725355*
X1836083Y1725010*
X1835708Y1724838*
X1835332*
X1834956Y1725010*
X1834831Y1725182*
X1834706Y1725527*
X1819194Y1728455D02*
Y1724838D01*
Y1728455D02*
X1820071D01*
X1820446Y1728283*
X1820697Y1727938*
X1820822Y1727594*
X1820947Y1727077*
Y1726216*
X1820822Y1725699*
X1820697Y1725355*
X1820446Y1725010*
X1820071Y1724838*
X1819194*
X1822075Y1728455D02*
Y1724838D01*
X1823578*
X1824831Y1727594D02*
Y1727766D01*
X1824956Y1728110*
X1825081Y1728283*
X1825332Y1728455*
X1825833*
X1826083Y1728283*
X1826209Y1728110*
X1826334Y1727766*
Y1727421*
X1826209Y1727077*
X1825958Y1726560*
X1824706Y1724838*
X1826459*
X1809194Y1728455D02*
Y1724838D01*
Y1728455D02*
X1810071D01*
X1810446Y1728283*
X1810697Y1727938*
X1810822Y1727594*
X1810947Y1727077*
Y1726216*
X1810822Y1725699*
X1810697Y1725355*
X1810446Y1725010*
X1810071Y1724838*
X1809194*
X1812075Y1728455D02*
Y1724838D01*
X1813578*
X1814706Y1727766D02*
X1814956Y1727938D01*
X1815332Y1728455*
Y1724838*
X1681326Y1693297D02*
X1682606D01*
X1681908Y1692017*
X1682257*
X1682490Y1691857*
X1682606Y1691697*
X1682722Y1691217*
Y1690897*
X1682606Y1690418*
X1682373Y1690098*
X1682024Y1689938*
X1681675*
X1681326Y1690098*
X1681210Y1690258*
X1681094Y1690578*
X1683885Y1690258D02*
X1683769Y1690098D01*
X1683885Y1689938*
X1684002Y1690098*
X1683885Y1690258*
X1685281Y1693297D02*
X1686561D01*
X1685863Y1692017*
X1686212*
X1686444Y1691857*
X1686561Y1691697*
X1686677Y1691217*
Y1690897*
X1686561Y1690418*
X1686328Y1690098*
X1685979Y1689938*
X1685630*
X1685281Y1690098*
X1685165Y1690258*
X1685049Y1690578*
X1687724Y1693297D02*
X1688655Y1689938D01*
X1689585Y1693297D02*
X1688655Y1689938D01*
X1691694Y1693197D02*
Y1689838D01*
Y1693197D02*
X1692624Y1689838D01*
X1693555Y1693197D02*
X1692624Y1689838D01*
X1693555Y1693197D02*
Y1689838D01*
X1696347Y1692397D02*
X1696230Y1692717D01*
X1695998Y1693037*
X1695765Y1693197*
X1695300*
X1695067Y1693037*
X1694834Y1692717*
X1694718Y1692397*
X1694602Y1691917*
Y1691117*
X1694718Y1690638*
X1694718D02*
X1694834Y1690318D01*
X1695067Y1689998*
X1695300Y1689838*
X1695765*
X1695998Y1689998*
X1696230Y1690318*
X1696347Y1690638*
X1697393Y1693197D02*
Y1689838D01*
X1698789*
X1699836Y1693197D02*
Y1689838D01*
Y1693197D02*
X1700883D01*
X1701232Y1693037*
X1701348Y1692877*
X1701465Y1692557*
Y1692237*
X1701348Y1691917*
X1701232Y1691757*
X1700883Y1691597*
X1699836*
X1700650D02*
X1701465Y1689838D01*
X1704094Y1693297D02*
Y1689938D01*
Y1693297D02*
X1705141D01*
X1705490Y1693137*
X1705606Y1692977*
X1705722Y1692657*
Y1692177*
X1705606Y1691857*
X1705490Y1691697*
X1705141Y1691537*
X1704094*
X1708514Y1692497D02*
X1708398Y1692817D01*
X1708165Y1693137*
X1707932Y1693297*
X1707467*
X1707234Y1693137*
X1707002Y1692817*
X1706885Y1692497*
X1706769Y1692017*
Y1691217*
X1706885Y1690738*
X1706885D02*
X1707002Y1690418D01*
X1707234Y1690098*
X1707467Y1689938*
X1707932*
X1708165Y1690098*
X1708398Y1690418*
X1708514Y1690738*
X1708514D02*
Y1691217D01*
X1707932D02*
X1708514D01*
X1711306Y1692497D02*
X1711189Y1692817D01*
X1710957Y1693137*
X1710724Y1693297*
X1710259*
X1710026Y1693137*
X1709793Y1692817*
X1709677Y1692497*
X1709561Y1692017*
Y1691217*
X1709677Y1690738*
X1709677D02*
X1709793Y1690418D01*
X1710026Y1690098*
X1710259Y1689938*
X1710724*
X1710957Y1690098*
X1711189Y1690418*
X1711306Y1690738*
X1714394Y1693397D02*
Y1690038D01*
Y1693397D02*
X1715441D01*
X1715790Y1693237*
X1715906Y1693077*
X1716022Y1692757*
Y1692277*
X1715906Y1691957*
X1715790Y1691797*
X1715441Y1691637*
X1714394*
X1718814Y1692597D02*
X1718698Y1692917D01*
X1718465Y1693237*
X1718232Y1693397*
X1717767*
X1717534Y1693237*
X1717302Y1692917*
X1717185Y1692597*
X1717069Y1692117*
Y1691317*
X1717185Y1690838*
X1717185D02*
X1717302Y1690518D01*
X1717534Y1690198*
X1717767Y1690038*
X1718232*
X1718465Y1690198*
X1718698Y1690518*
X1718814Y1690838*
X1718814D02*
Y1691317D01*
X1718232D02*
X1718814D01*
X1719861Y1693397D02*
Y1690038D01*
Y1693397D02*
X1720675D01*
X1721024Y1693237*
X1721257Y1692917*
X1721373Y1692597*
X1721489Y1692117*
Y1691317*
X1721373Y1690838*
X1721373D02*
X1721257Y1690518D01*
X1721024Y1690198*
X1720675Y1690038*
X1719861*
X1725239Y1692497D02*
X1725122Y1692817D01*
X1724890Y1693137*
X1724657Y1693297*
X1724192*
X1723959Y1693137*
X1723726Y1692817*
X1723610Y1692497*
X1723494Y1692017*
Y1691217*
X1723610Y1690738*
X1723610D02*
X1723726Y1690418D01*
X1723959Y1690098*
X1724192Y1689938*
X1724657*
X1724890Y1690098*
X1725122Y1690418*
X1725239Y1690738*
X1725239D02*
Y1691217D01*
X1724657D02*
X1725239D01*
X1726285Y1693297D02*
Y1689938D01*
Y1693297D02*
X1727914Y1689938D01*
Y1693297D02*
Y1689938D01*
X1728961Y1693297D02*
Y1689938D01*
Y1693297D02*
X1729775D01*
X1730124Y1693137*
X1730357Y1692817*
X1730473Y1692497*
X1730589Y1692017*
Y1691217*
X1730473Y1690738*
X1730473D02*
X1730357Y1690418D01*
X1730124Y1690098*
X1729775Y1689938*
X1728961*
G54D86*
X1680694Y1719938D02*
X1696294D01*
Y1715438*
X1680694*
Y1719938*
G74*
X0Y0D02*
M02*
