*
*
G04 PADS 9.5 Build Number: 522968 generated Gerber (RS-274-X) file*
G04 PC Version=2.1*
*
%IN "BMON_1.pcb"*%
*
%MOIN*%
*
%FSLAX35Y35*%
*
*
*
*
G04 PC Standard Apertures*
*
*
G04 Thermal Relief Aperture macro.*
%AMTER*
1,1,$1,0,0*
1,0,$1-$2,0,0*
21,0,$3,$4,0,0,45*
21,0,$3,$4,0,0,135*
%
*
*
G04 Annular Aperture macro.*
%AMANN*
1,1,$1,0,0*
1,0,$2,0,0*
%
*
*
G04 Odd Aperture macro.*
%AMODD*
1,1,$1,0,0*
1,0,$1-0.005,0,0*
%
*
*
G04 PC Custom Aperture Macros*
*
*
*
*
*
*
G04 PC Aperture Table*
*
%ADD011C,0.01*%
%ADD033C,0.001*%
%ADD057C,0.01181*%
%ADD102R,0.035X0.03*%
%ADD104C,0.07*%
%ADD106R,0.16748X0.22654*%
%ADD107R,0.042X0.042*%
%ADD108R,0.03X0.035*%
%ADD109C,0.17535*%
%ADD110R,0.06X0.0415*%
%ADD111R,0.02181X0.04346*%
%ADD112R,0.04346X0.02181*%
%ADD123R,0.20449X0.08874*%
*
*
*
*
G04 PC Circuitry*
G04 Layer Name BMON_1.pcb - circuitry*
%LPD*%
*
*
G04 PC Custom Flashes*
G04 Layer Name BMON_1.pcb - flashes*
%LPD*%
*
*
G04 PC Circuitry*
G04 Layer Name BMON_1.pcb - circuitry*
%LPD*%
*
G54D11*
G01X2006156Y1643277D02*
X2005701Y1643902D01*
X2005019Y1644214*
X2004110*
X2003429Y1643902*
X2002974Y1643277*
Y1642652*
X2003201Y1642027*
X2003429Y1641714*
X2003883Y1641402*
X2005247Y1640777*
X2005701Y1640464*
X2005929Y1640152*
X2006156Y1639527*
Y1638589*
X2005701Y1637964*
X2005019Y1637652*
X2004110*
X2003429Y1637964*
X2002974Y1638589*
X2009565Y1644214D02*
X2009110Y1643902D01*
X2008656Y1643277*
X2008429Y1642652*
X2008201Y1641714*
Y1640152*
X2008429Y1639214*
X2008656Y1638589*
X2009110Y1637964*
X2009565Y1637652*
X2010474*
X2010929Y1637964*
X2011383Y1638589*
X2011610Y1639214*
X2011838Y1640152*
Y1641714*
X2011610Y1642652*
X2011383Y1643277*
X2010929Y1643902*
X2010474Y1644214*
X2009565*
X2013883D02*
Y1637652D01*
X2016610*
X2018656Y1644214D02*
Y1637652D01*
Y1644214D02*
X2020247D01*
X2020929Y1643902*
X2021383Y1643277*
X2021610Y1642652*
X2021838Y1641714*
Y1640152*
X2021610Y1639214*
X2021383Y1638589*
X2020929Y1637964*
X2020247Y1637652*
X2018656*
X2023883Y1644214D02*
Y1637652D01*
Y1644214D02*
X2026838D01*
X2023883Y1641089D02*
X2025701D01*
X2023883Y1637652D02*
X2026838D01*
X2028883Y1644214D02*
Y1637652D01*
Y1644214D02*
X2030929D01*
X2031610Y1643902*
X2031838Y1643589*
X2032065Y1642964*
Y1642339*
X2031838Y1641714*
X2031610Y1641402*
X2030929Y1641089*
X2028883*
X2030474D02*
X2032065Y1637652D01*
X2039338Y1644214D02*
Y1637652D01*
Y1644214D02*
X2041156Y1637652D01*
X2042974Y1644214D02*
X2041156Y1637652D01*
X2042974Y1644214D02*
Y1637652D01*
X2046838Y1644214D02*
X2045019Y1637652D01*
X2046838Y1644214D02*
X2048656Y1637652D01*
X2045701Y1639839D02*
X2047974D01*
X2053883Y1643277D02*
X2053429Y1643902D01*
X2052747Y1644214*
X2051838*
X2051156Y1643902*
X2050701Y1643277*
Y1642652*
X2050929Y1642027*
X2051156Y1641714*
X2051610Y1641402*
X2052974Y1640777*
X2053429Y1640464*
X2053656Y1640152*
X2053883Y1639527*
Y1638589*
X2053429Y1637964*
X2052747Y1637652*
X2051838*
X2051156Y1637964*
X2050701Y1638589*
X2055929Y1644214D02*
Y1637652D01*
X2059110Y1644214D02*
X2055929Y1639839D01*
X2057065Y1641402D02*
X2059110Y1637652D01*
X2067974Y1644214D02*
Y1637652D01*
X2066383Y1644214D02*
X2069565D01*
X2072974D02*
X2072519Y1643902D01*
X2072065Y1643277*
X2071838Y1642652*
X2071610Y1641714*
Y1640152*
X2071838Y1639214*
X2072065Y1638589*
X2072519Y1637964*
X2072974Y1637652*
X2073883*
X2074338Y1637964*
X2074792Y1638589*
X2075019Y1639214*
X2075247Y1640152*
Y1641714*
X2075019Y1642652*
X2074792Y1643277*
X2074338Y1643902*
X2073883Y1644214*
X2072974*
X2077292D02*
Y1637652D01*
Y1644214D02*
X2079338D01*
X2080019Y1643902*
X2080247Y1643589*
X2080474Y1642964*
Y1642027*
X2080247Y1641402*
X2080019Y1641089*
X2079338Y1640777*
X2077292*
G54D33*
G54D57*
X1577094Y1788838D02*
Y1811082D01*
X1603275*
X1575394Y1597638D02*
Y1575394D01*
X1601575*
X2149094Y1791238D02*
Y1813482D01*
X2122913*
X2147394Y1600038D02*
Y1577794D01*
X2121213*
G54D102*
X1815473Y1682692D03*
X1811536D03*
X1817798Y1702578D03*
X1813861D03*
G54D104*
X1727175Y1684394D03*
X1717175D03*
X1707175D03*
X1697175D03*
X1687175D03*
G54D106*
X1889013Y1691443D03*
X1867360D03*
X1845706D03*
G54D107*
X1842242Y1715608D03*
Y1721608D03*
X1832242Y1715608D03*
Y1721608D03*
X1822242Y1715608D03*
Y1721608D03*
X1812242Y1715608D03*
Y1721608D03*
G54D108*
X1860667Y1721364D03*
Y1717427D03*
X1856730Y1721364D03*
Y1717427D03*
X1852793Y1721364D03*
Y1717427D03*
X1848856Y1721364D03*
Y1717427D03*
G54D109*
X1876218Y1716639D03*
X1716769D03*
G54D110*
X1828628Y1690524D03*
X1828628D03*
Y1694461D03*
X1828628D03*
G54D111*
X1822781Y1698201D03*
X1820813D03*
Y1686783D03*
X1822781D03*
G54D112*
X1818057Y1695445D03*
Y1693476D03*
Y1691508D03*
Y1689539D03*
G54D123*
X1790706Y1717624D03*
X1743226D03*
X1790706Y1688096D03*
X1743226D03*
X0Y0D02*
M02*
