*
*
G04 PADS 9.3 Build Number: 433611 generated Gerber (RS-274-X) file*
G04 PC Version=2.1*
*
%IN "NEI2_2.pcb"*%
*
%MOIN*%
*
%FSLAX35Y35*%
*
*
*
*
G04 PC Standard Apertures*
*
*
G04 Thermal Relief Aperture macro.*
%AMTER*
1,1,$1,0,0*
1,0,$1-$2,0,0*
21,0,$3,$4,0,0,45*
21,0,$3,$4,0,0,135*
%
*
*
G04 Annular Aperture macro.*
%AMANN*
1,1,$1,0,0*
1,0,$2,0,0*
%
*
*
G04 Odd Aperture macro.*
%AMODD*
1,1,$1,0,0*
1,0,$1-0.005,0,0*
%
*
*
G04 PC Custom Aperture Macros*
*
*
*
*
*
*
G04 PC Aperture Table*
*
%ADD010C,0.00394*%
%ADD016C,0.01*%
%ADD028C,0.001*%
%ADD037C,0.01181*%
%ADD053R,0.04137X0.01696*%
%ADD054R,0.062X0.032*%
%ADD055C,0.042*%
%ADD056C,0.07287*%
%ADD057R,0.02365X0.02365*%
%ADD058C,0.052*%
*
*
*
*
G04 PC Circuitry*
G04 Layer Name NEI2_2.pcb - circuitry*
%LPD*%
*
*
G04 PC Custom Flashes*
G04 Layer Name NEI2_2.pcb - flashes*
%LPD*%
*
*
G04 PC Circuitry*
G04 Layer Name NEI2_2.pcb - circuitry*
%LPD*%
*
G54D10*
G01X40157Y110433D02*
X87125D01*
X87111Y43450D02*
G75*
G03Y110487I-135443J33519D01*
G01X87125Y43504D02*
X40157D01*
Y110433*
G54D16*
X81989Y90418D02*
X87161Y90961D01*
X86931Y93149*
X81759Y92606*
X81989Y90418*
X81931Y90969D02*
X87160D01*
X81826Y91969D02*
X87055D01*
X85210Y92969D02*
X86950D01*
X82504Y90472D02*
Y92684D01*
X83504Y90577D02*
Y92789D01*
X84504Y90682D02*
Y92894D01*
X85504Y90787D02*
Y92999D01*
X86504Y90892D02*
Y93104D01*
X82503Y83152D02*
X87696Y83424D01*
X87581Y85621*
X82388Y85349*
X82503Y83152*
X82460Y83969D02*
X87667D01*
X82408Y84969D02*
X87615D01*
X82504Y83152D02*
Y85355D01*
X83504Y83204D02*
Y85407D01*
X84504Y83256D02*
Y85460D01*
X85504Y83309D02*
Y85512D01*
X86504Y83361D02*
Y85564D01*
X87504Y83414D02*
Y85617D01*
X82388Y68588D02*
X87581Y68316D01*
X87696Y70513*
X82503Y70785*
X82388Y68588*
X87581Y68316D02*
X87581D01*
X82426Y69316D02*
X87633D01*
X82479Y70316D02*
X87686D01*
X82504Y68582D02*
Y70785D01*
X83504Y68530D02*
Y70733D01*
X84504Y68477D02*
Y70681D01*
X85504Y68425D02*
Y70628D01*
X86504Y68373D02*
Y70576D01*
X87504Y68320D02*
Y70523D01*
X81759Y61331D02*
X86931Y60788D01*
X87161Y62976*
X81989Y63519*
X81759Y61331*
X86931Y60788D02*
X86931D01*
X81807Y61788D02*
X87036D01*
X81912Y62788D02*
X87141D01*
X82504Y61253D02*
Y63465D01*
X83504Y61148D02*
Y63360D01*
X84504Y61043D02*
Y63255D01*
X85504Y60938D02*
Y63150D01*
X86504Y60833D02*
Y63045D01*
X124834Y91024D02*
Y91336D01*
X125061Y91961*
X125288Y92274*
X125743Y92586*
X126652*
X127106Y92274*
X127334Y91961*
X127561Y91336*
Y90711*
X127334Y90086*
X126879Y89149*
X124606Y86024*
X127788*
X135061Y88836D02*
X139152D01*
X149606Y91649D02*
X149152Y92274D01*
X148470Y92586*
X147561*
X146879Y92274*
X146424Y91649*
Y91024*
X146652Y90399*
X146879Y90086*
X147334Y89774*
X148697Y89149*
X149152Y88836*
X149379Y88524*
X149606Y87899*
Y86961*
X149152Y86336*
X148470Y86024*
X147561*
X146879Y86336*
X146424Y86961*
X152788Y90399D02*
X152334Y90086D01*
X151879Y89461*
X151652Y88524*
Y87899*
X151879Y86961*
X152334Y86336*
X152788Y86024*
X153470*
X153924Y86336*
X154379Y86961*
X154606Y87899*
Y88524*
X154379Y89461*
X153924Y90086*
X153470Y90399*
X152788*
X156652Y92586D02*
Y86024D01*
X161424Y92586D02*
Y86024D01*
Y89461D02*
X160970Y90086D01*
X160515Y90399*
X159834*
X159379Y90086*
X158924Y89461*
X158697Y88524*
Y87899*
X158924Y86961*
X159379Y86336*
X159834Y86024*
X160515*
X160970Y86336*
X161424Y86961*
X163470Y88524D02*
X166197D01*
Y89149*
X165970Y89774*
X165743Y90086*
X165288Y90399*
X164606*
X164152Y90086*
X163697Y89461*
X163470Y88524*
Y87899*
X163697Y86961*
X164152Y86336*
X164606Y86024*
X165288*
X165743Y86336*
X166197Y86961*
X168243Y90399D02*
Y86024D01*
Y88524D02*
X168470Y89461D01*
X168924Y90086*
X169379Y90399*
X170061*
X172106D02*
Y86024D01*
Y89149D02*
X172788Y90086D01*
X173243Y90399*
X173924*
X174379Y90086*
X174606Y89149*
Y86024*
Y89149D02*
X175288Y90086D01*
X175743Y90399*
X176424*
X176879Y90086*
X177106Y89149*
Y86024*
X181879Y90399D02*
Y86024D01*
Y89461D02*
X181424Y90086D01*
X180970Y90399*
X180288*
X179834Y90086*
X179379Y89461*
X179152Y88524*
Y87899*
X179379Y86961*
X179834Y86336*
X180288Y86024*
X180970*
X181424Y86336*
X181879Y86961*
X186424Y89461D02*
X186197Y90086D01*
X185515Y90399*
X184834*
X184152Y90086*
X183924Y89461*
X184152Y88836*
X184606Y88524*
X185743Y88211*
X186197Y87899*
X186424Y87274*
Y86961*
X186197Y86336*
X185515Y86024*
X184834*
X184152Y86336*
X183924Y86961*
X188470Y92586D02*
Y86024D01*
X190743Y90399D02*
X188470Y87274D01*
X189379Y88524D02*
X190970Y86024D01*
X199834Y92586D02*
Y86024D01*
X198243Y92586D02*
X201424D01*
X204834D02*
X204379Y92274D01*
X203924Y91649*
X203697Y91024*
X203470Y90086*
Y88524*
X203697Y87586*
X203924Y86961*
X204379Y86336*
X204834Y86024*
X205743*
X206197Y86336*
X206652Y86961*
X206879Y87586*
X207106Y88524*
Y90086*
X206879Y91024*
X206652Y91649*
X206197Y92274*
X205743Y92586*
X204834*
X209152D02*
Y86024D01*
Y92586D02*
X211197D01*
X211879Y92274*
X212106Y91961*
X212334Y91336*
Y90399*
X212106Y89774*
X211879Y89461*
X211197Y89149*
X209152*
X14370Y20145D02*
Y13583D01*
Y20145D02*
X17552Y13583D01*
Y20145D02*
Y13583D01*
X19597Y20145D02*
Y13583D01*
Y20145D02*
X22552D01*
X19597Y17020D02*
X21416D01*
X19597Y13583D02*
X22552D01*
X24597Y20145D02*
Y13583D01*
X26870Y18583D02*
Y18895D01*
X27097Y19520*
X27325Y19833*
X27779Y20145*
X28688*
X29143Y19833*
X29370Y19520*
X29597Y18895*
Y18270*
X29370Y17645*
X28916Y16708*
X26643Y13583*
X29825*
X37097Y16395D02*
X41188D01*
X48461Y20145D02*
Y13583D01*
Y20145D02*
X50506D01*
X51188Y19833*
X51416Y19520*
X51643Y18895*
Y18270*
X51416Y17645*
X51188Y17333*
X50506Y17020*
X48461D02*
X50506D01*
X51188Y16708*
X51416Y16395*
X51643Y15770*
Y14833*
X51416Y14208*
X51188Y13895*
X50506Y13583*
X48461*
X55052Y20145D02*
X54597Y19833D01*
X54143Y19208*
X53916Y18583*
X53688Y17645*
Y16083*
X53916Y15145*
X54143Y14520*
X54597Y13895*
X55052Y13583*
X55961*
X56416Y13895*
X56870Y14520*
X57097Y15145*
X57325Y16083*
Y17645*
X57097Y18583*
X56870Y19208*
X56416Y19833*
X55961Y20145*
X55052*
X61188D02*
X59370Y13583D01*
X61188Y20145D02*
X63006Y13583D01*
X60052Y15770D02*
X62325D01*
X65052Y20145D02*
Y13583D01*
Y20145D02*
X67097D01*
X67779Y19833*
X68006Y19520*
X68234Y18895*
Y18270*
X68006Y17645*
X67779Y17333*
X67097Y17020*
X65052*
X66643D02*
X68234Y13583D01*
X70279Y20145D02*
Y13583D01*
Y20145D02*
X71870D01*
X72552Y19833*
X73006Y19208*
X73234Y18583*
X73461Y17645*
Y16083*
X73234Y15145*
X73006Y14520*
X72552Y13895*
X71870Y13583*
X70279*
X82325Y20145D02*
Y13583D01*
X80734Y20145D02*
X83916D01*
X85961D02*
Y13583D01*
X89143Y20145D02*
Y13583D01*
X85961Y17020D02*
X89143D01*
X91188Y20145D02*
Y13583D01*
X96643Y18583D02*
X96416Y19208D01*
X95961Y19833*
X95506Y20145*
X94597*
X94143Y19833*
X93688Y19208*
X93461Y18583*
X93234Y17645*
Y16083*
X93461Y15145*
X93688Y14520*
X94143Y13895*
X94597Y13583*
X95506*
X95961Y13895*
X96416Y14520*
X96643Y15145*
X98688Y20145D02*
Y13583D01*
X101870Y20145D02*
X98688Y15770D01*
X99825Y17333D02*
X101870Y13583D01*
X103916Y20145D02*
Y13583D01*
Y20145D02*
X107097Y13583D01*
Y20145D02*
Y13583D01*
X109143Y20145D02*
Y13583D01*
Y20145D02*
X112097D01*
X109143Y17020D02*
X110961D01*
X109143Y13583D02*
X112097D01*
X117325Y19208D02*
X116870Y19833D01*
X116188Y20145*
X115279*
X114597Y19833*
X114143Y19208*
Y18583*
X114370Y17958*
X114597Y17645*
X115052Y17333*
X116416Y16708*
X116870Y16395*
X117097Y16083*
X117325Y15458*
Y14520*
X116870Y13895*
X116188Y13583*
X115279*
X114597Y13895*
X114143Y14520*
X122552Y19208D02*
X122097Y19833D01*
X121416Y20145*
X120506*
X119825Y19833*
X119370Y19208*
Y18583*
X119597Y17958*
X119825Y17645*
X120279Y17333*
X121643Y16708*
X122097Y16395*
X122325Y16083*
X122552Y15458*
Y14520*
X122097Y13895*
X121416Y13583*
X120506*
X119825Y13895*
X119370Y14520*
X131188Y20145D02*
X130506Y19833D01*
X130052Y18895*
X129825Y17333*
Y16395*
X130052Y14833*
X130506Y13895*
X131188Y13583*
X131643*
X132325Y13895*
X132779Y14833*
X133006Y16395*
Y17333*
X132779Y18895*
X132325Y19833*
X131643Y20145*
X131188*
X135279Y14208D02*
X135052Y13895D01*
X135279Y13583*
X135506Y13895*
X135279Y14208*
X138688Y20145D02*
X138006Y19833D01*
X137779Y19208*
Y18583*
X138006Y17958*
X138461Y17645*
X139370Y17333*
X140052Y17020*
X140506Y16395*
X140734Y15770*
Y14833*
X140506Y14208*
X140279Y13895*
X139597Y13583*
X138688*
X138006Y13895*
X137779Y14208*
X137552Y14833*
Y15770*
X137779Y16395*
X138234Y17020*
X138916Y17333*
X139825Y17645*
X140279Y17958*
X140506Y18583*
Y19208*
X140279Y19833*
X139597Y20145*
X138688*
X142779Y17958D02*
Y13583D01*
Y16708D02*
X143461Y17645D01*
X143916Y17958*
X144597*
X145052Y17645*
X145279Y16708*
Y13583*
Y16708D02*
X145961Y17645D01*
X146416Y17958*
X147097*
X147552Y17645*
X147779Y16708*
Y13583*
X149825Y17958D02*
Y13583D01*
Y16708D02*
X150506Y17645D01*
X150961Y17958*
X151643*
X152097Y17645*
X152325Y16708*
Y13583*
Y16708D02*
X153006Y17645D01*
X153461Y17958*
X154143*
X154597Y17645*
X154825Y16708*
Y13583*
X157325Y13895D02*
X157097Y13583D01*
X156870Y13895*
X157097Y14208*
X157325Y13895*
Y13270*
X157097Y12645*
X156870Y12333*
X164597Y20145D02*
Y13583D01*
Y20145D02*
X166643D01*
X167325Y19833*
X167552Y19520*
X167779Y18895*
Y18270*
X167552Y17645*
X167325Y17333*
X166643Y17020*
X164597*
X166188D02*
X167779Y13583D01*
X169825Y20145D02*
Y13583D01*
X173006Y20145D02*
Y13583D01*
X169825Y17020D02*
X173006D01*
X176416Y20145D02*
X175961Y19833D01*
X175506Y19208*
X175279Y18583*
X175052Y17645*
Y16083*
X175279Y15145*
X175506Y14520*
X175961Y13895*
X176416Y13583*
X177325*
X177779Y13895*
X178234Y14520*
X178461Y15145*
X178688Y16083*
Y17645*
X178461Y18583*
X178234Y19208*
X177779Y19833*
X177325Y20145*
X176416*
X183916Y19208D02*
X183461Y19833D01*
X182779Y20145*
X181870*
X181188Y19833*
X180734Y19208*
Y18583*
X180961Y17958*
X181188Y17645*
X181643Y17333*
X183006Y16708*
X183461Y16395*
X183688Y16083*
X183916Y15458*
Y14520*
X183461Y13895*
X182779Y13583*
X181870*
X181188Y13895*
X180734Y14520*
X193006Y20145D02*
X192552D01*
X192097Y19833*
X191870Y18895*
Y13583*
X191188Y17958D02*
X192779D01*
X195052Y20145D02*
X195279Y19833D01*
X195506Y20145*
X195279Y20458*
X195052Y20145*
X195279Y17958D02*
Y13583D01*
X197552Y17958D02*
Y13583D01*
Y16708D02*
X198234Y17645D01*
X198688Y17958*
X199370*
X199825Y17645*
X200052Y16708*
Y13583*
X202097Y20145D02*
X202325Y19833D01*
X202552Y20145*
X202325Y20458*
X202097Y20145*
X202325Y17958D02*
Y13583D01*
X207097Y17020D02*
X206870Y17645D01*
X206188Y17958*
X205506*
X204825Y17645*
X204597Y17020*
X204825Y16395*
X205279Y16083*
X206416Y15770*
X206870Y15458*
X207097Y14833*
Y14520*
X206870Y13895*
X206188Y13583*
X205506*
X204825Y13895*
X204597Y14520*
X209143Y20145D02*
Y13583D01*
Y16708D02*
X209825Y17645D01*
X210279Y17958*
X210961*
X211416Y17645*
X211643Y16708*
Y13583*
X213688Y20145D02*
X213916Y19833D01*
X214143Y20145*
X213916Y20458*
X213688Y20145*
X213916Y17958D02*
Y13583D01*
X216188Y17958D02*
Y13583D01*
Y16708D02*
X216870Y17645D01*
X217325Y17958*
X218006*
X218461Y17645*
X218688Y16708*
Y13583*
X223461Y17958D02*
Y12958D01*
X223234Y12020*
X223006Y11708*
X222552Y11395*
X221870*
X221416Y11708*
X223461Y17020D02*
X223006Y17645D01*
X222552Y17958*
X221870*
X221416Y17645*
X220961Y17020*
X220734Y16083*
Y15458*
X220961Y14520*
X221416Y13895*
X221870Y13583*
X222552*
X223006Y13895*
X223461Y14520*
G54D28*
G54D37*
X591Y126181D02*
Y165551D01*
Y165945D02*
X39961D01*
X214370Y163976D02*
X252953D01*
Y124606*
X984Y39961D02*
Y591D01*
X39567*
X252165Y40354D02*
Y591D01*
X212795*
G54D53*
X44882Y88465D03*
Y85906D03*
Y83346D03*
Y80787D03*
Y78228D03*
Y75669D03*
Y73110D03*
Y70551D03*
Y67992D03*
Y65433D03*
X68504D03*
Y67992D03*
Y70551D03*
Y73110D03*
Y75669D03*
Y78228D03*
Y80787D03*
Y83346D03*
Y85906D03*
Y88465D03*
G54D54*
X85236Y76969D03*
G54D55*
X82087Y48819D03*
X45276Y48031D03*
G54D56*
X70894Y104046D03*
Y49891D03*
G54D57*
X72441Y93307D03*
X68898D03*
X60236D03*
X63780D03*
X75591Y81299D03*
X79134D03*
X75591Y73228D03*
X79134D03*
X75591Y85236D03*
X79134D03*
X75591Y76969D03*
X79134D03*
X75591Y68898D03*
X79134D03*
G54D58*
X48063Y103243D03*
X48188Y95427D03*
X58268Y60433D03*
G74*
X0Y0D02*
M02*
