%
T1C.016F095S3
X011312Y009829
X010394Y009832
X010837Y009835
X012435Y010696
X011146Y01167
X010449Y013041
X011621Y013507
X012685Y013613
X011618Y015143
X011169Y015155
X012051Y015257
X014851Y01541
X014289Y015278
X01354Y015179
X013327Y013807
X013855Y01368
X014777Y013012
X014339Y012992
X014397Y012537
X013188Y010373
X017121Y009447
X017435Y010205
X016872Y010857
X016511Y011687
X017334Y01414
X017714Y014143
X016775Y015105
X018873Y015183
X018545Y014556
X018833Y014296
X018404Y014176
X018701Y013034
X018713Y012329
X018355Y011962
X018914Y011826
X019869Y011284
X018142Y011174
X018646Y010644
X020737Y009455
X021739Y009455
X022741Y009458
X021867Y01028
X021487Y010318
X022412Y010348
X022828Y010443
X022047Y01065
X022438Y010823
X022406Y011202
X022417Y011582
X021044Y011776
X022457Y01196
X021843Y013016
X021063Y013048
X021947Y013432
X022292Y013747
X021971Y014189
X021969Y014568
X022551Y015231
X022165Y015246
X022921Y015021
X024705Y014964
X025253Y01472
X024755Y014402
X025125Y013329
X02515Y010294
X024254Y01027
X023874Y010204
X025116Y009701
X025516Y009991
X026587Y010643
X025942Y010669
X027455Y010886
X026915Y010919
X02684Y011472
X027692Y011946
X027321Y012034
X026808Y012965
X026253Y013004
X029043Y013216
X028164Y013156
X028519Y012954
X029974Y011934
X03028Y010714
X028573Y010176
X029917Y010174
X029688Y009865
X030739Y009627
X030494Y010041
X031808Y010602
X030683Y010619
X032315Y010879
X031785Y011048
X031412Y012055
X031296Y012504
X031716Y012762
X031207Y013241
X031896Y013547
T2C.03937F197S55
X020236Y009646
X019236Y009646
X023236Y009646
X022236Y009646
X021236Y009646
T3C.0748F081S55
X032638Y009921
M30
