*
%LPD*%
%LNmais-r-002drill*%
%FSLAX24Y24*%
%MOIN*%
%SRX1Y1I0.0J0.0*%
%AD*%
%ADD11C,0.010000*%
%ADD14C,0.008000*%
G54D11*
G1X32604Y34649D2*
G1X32604Y41109D1*
G1X48364Y41109D1*
G1X48604Y39379D1*
G1X55954Y39379D1*
G1X55954Y34649D1*
G1X32604Y34649D1*
G1X31804Y34649D2*
G1X8464Y34649D1*
G1X8464Y39369D1*
G1X15804Y39369D1*
G1X16044Y41109D1*
G1X31804Y41109D1*
G1X31804Y34649D1*
G1X31794Y27389D2*
G1X8454Y27389D1*
G1X8454Y32109D1*
G1X15794Y32109D1*
G1X16034Y33849D1*
G1X31794Y33849D1*
G1X31794Y27389D1*
G1X32594Y27389D2*
G1X32594Y33849D1*
G1X48354Y33849D1*
G1X48594Y32119D1*
G1X55944Y32119D1*
G1X55944Y27389D1*
G1X32594Y27389D1*
G1X31804Y20129D2*
G1X8464Y20129D1*
G1X8464Y24849D1*
G1X15804Y24849D1*
G1X16044Y26589D1*
G1X31804Y26589D1*
G1X31804Y20129D1*
G1X32604Y20129D2*
G1X32604Y26589D1*
G1X48364Y26589D1*
G1X48604Y24859D1*
G1X55954Y24859D1*
G1X55954Y20129D1*
G1X32604Y20129D1*
G1X31794Y12869D2*
G1X8454Y12869D1*
G1X8454Y17589D1*
G1X15794Y17589D1*
G1X16034Y19329D1*
G1X31794Y19329D1*
G1X31794Y12869D1*
G1X32594Y12869D2*
G1X32594Y19329D1*
G1X48354Y19329D1*
G1X48594Y17599D1*
G1X55944Y17599D1*
G1X55944Y12869D1*
G1X32594Y12869D1*
G1X31794Y5599D2*
G1X8454Y5599D1*
G1X8454Y10319D1*
G1X15794Y10319D1*
G1X16034Y12059D1*
G1X31794Y12059D1*
G1X31794Y5599D1*
G1X32594Y5599D2*
G1X32594Y12059D1*
G1X48354Y12059D1*
G1X48594Y10329D1*
G1X55944Y10329D1*
G1X55944Y5599D1*
G1X32594Y5599D1*
G1X7644Y5609D2*
G1X5644Y5609D1*
G1X5644Y39369D1*
G1X7644Y39369D1*
G1X7644Y5609D1*
G1X58744Y5599D2*
G1X56744Y5599D1*
G1X56744Y39359D1*
G1X58744Y39359D1*
G1X58744Y5599D1*
G1X7664Y8643D2*
G75*
G3X8452Y8643I394J0D1*
G74*
G1X8452Y7462D2*
G75*
G3X7664Y7462I-394J0D1*
G74*
G1X7664Y15943D2*
G75*
G3X8452Y15943I394J0D1*
G74*
G1X8452Y14762D2*
G75*
G3X7664Y14762I-394J0D1*
G74*
G1X7664Y23413D2*
G75*
G3X8452Y23413I394J0D1*
G74*
G1X8452Y22232D2*
G75*
G3X7664Y22232I-394J0D1*
G74*
G1X7674Y30613D2*
G75*
G3X8462Y30613I394J0D1*
G74*
G1X8462Y29432D2*
G75*
G3X7674Y29432I-394J0D1*
G74*
G1X7674Y37563D2*
G75*
G3X8462Y37563I394J0D1*
G74*
G1X8462Y36382D2*
G75*
G3X7674Y36382I-394J0D1*
G74*
G1X55954Y8643D2*
G75*
G3X56742Y8643I394J0D1*
G74*
G1X56742Y7462D2*
G75*
G3X55954Y7462I-394J0D1*
G74*
G1X55954Y15943D2*
G75*
G3X56742Y15943I394J0D1*
G74*
G1X56742Y14762D2*
G75*
G3X55954Y14762I-394J0D1*
G74*
G1X55954Y23413D2*
G75*
G3X56742Y23413I394J0D1*
G74*
G1X56742Y22232D2*
G75*
G3X55954Y22232I-394J0D1*
G74*
G1X55964Y30613D2*
G75*
G3X56752Y30613I394J0D1*
G74*
G1X56752Y29432D2*
G75*
G3X55964Y29432I-394J0D1*
G74*
G1X56752Y36382D2*
G75*
G3X55964Y36382I-394J0D1*
G74*
G1X55964Y37563D2*
G75*
G3X56752Y37563I394J0D1*
G74*
G1X31804Y8643D2*
G75*
G3X32592Y8643I394J0D1*
G74*
G1X32592Y7462D2*
G75*
G3X31804Y7462I-394J0D1*
G74*
G1X31804Y15943D2*
G75*
G3X32592Y15943I394J0D1*
G74*
G1X32592Y14762D2*
G75*
G3X31804Y14762I-394J0D1*
G74*
G1X31804Y23413D2*
G75*
G3X32592Y23413I394J0D1*
G74*
G1X32592Y22232D2*
G75*
G3X31804Y22232I-394J0D1*
G74*
G1X31814Y30613D2*
G75*
G3X32602Y30613I394J0D1*
G74*
G1X32602Y29432D2*
G75*
G3X31814Y29432I-394J0D1*
G74*
G1X32602Y36382D2*
G75*
G3X31814Y36382I-394J0D1*
G74*
G1X31814Y37563D2*
G75*
G3X32602Y37563I394J0D1*
G74*
G1X17844Y34647D2*
G75*
G3X17844Y33859I0J-394D1*
G74*
G1X16663Y33859D2*
G75*
G3X16663Y34647I0J394D1*
G74*
G1X28054Y34647D2*
G75*
G3X28054Y33859I0J-394D1*
G74*
G1X26873Y33859D2*
G75*
G3X26873Y34647I0J394D1*
G74*
G1X46294Y33862D2*
G75*
G3X46294Y34649I0J394D1*
G74*
G1X47475Y34649D2*
G75*
G3X47475Y33862I0J-394D1*
G74*
G1X36084Y33862D2*
G75*
G3X36084Y34649I0J394D1*
G74*
G1X37265Y34649D2*
G75*
G3X37265Y33862I0J-394D1*
G74*
G1X17844Y27387D2*
G75*
G3X17844Y26599I0J-394D1*
G74*
G1X16663Y26599D2*
G75*
G3X16663Y27387I0J394D1*
G74*
G1X28054Y27387D2*
G75*
G3X28054Y26599I0J-394D1*
G74*
G1X26873Y26599D2*
G75*
G3X26873Y27387I0J394D1*
G74*
G1X46294Y26602D2*
G75*
G3X46294Y27389I0J394D1*
G74*
G1X47475Y27389D2*
G75*
G3X47475Y26602I0J-394D1*
G74*
G1X36084Y26602D2*
G75*
G3X36084Y27389I0J394D1*
G74*
G1X37265Y27389D2*
G75*
G3X37265Y26602I0J-394D1*
G74*
G1X17844Y20137D2*
G75*
G3X17844Y19349I0J-394D1*
G74*
G1X16663Y19349D2*
G75*
G3X16663Y20137I0J394D1*
G74*
G1X28054Y20137D2*
G75*
G3X28054Y19349I0J-394D1*
G74*
G1X26873Y19349D2*
G75*
G3X26873Y20137I0J394D1*
G74*
G1X46294Y19352D2*
G75*
G3X46294Y20139I0J394D1*
G74*
G1X47475Y20139D2*
G75*
G3X47475Y19352I0J-394D1*
G74*
G1X36084Y19352D2*
G75*
G3X36084Y20139I0J394D1*
G74*
G1X37265Y20139D2*
G75*
G3X37265Y19352I0J-394D1*
G74*
G1X17844Y12867D2*
G75*
G3X17844Y12079I0J-394D1*
G74*
G1X16663Y12079D2*
G75*
G3X16663Y12867I0J394D1*
G74*
G1X28054Y12867D2*
G75*
G3X28054Y12079I0J-394D1*
G74*
G1X26873Y12079D2*
G75*
G3X26873Y12867I0J394D1*
G74*
G1X46294Y12082D2*
G75*
G3X46294Y12869I0J394D1*
G74*
G1X47475Y12869D2*
G75*
G3X47475Y12082I0J-394D1*
G74*
G1X36084Y12082D2*
G75*
G3X36084Y12869I0J394D1*
G74*
G1X37265Y12869D2*
G75*
G3X37265Y12082I0J-394D1*
G74*
G1X31805Y34650D2*
G1X31805Y41107D1*
G1X16043Y41107D1*
G1X15807Y39375D1*
G1X8459Y39375D1*
G1X8459Y34650D1*
G1X31805Y34650D1*
G1X21261Y34780D2*
G54D14*
G1X21861Y35380D1*
G1X21261Y35380D2*
G1X21861Y34780D1*
G1X19261Y34780D2*
G1X19861Y35380D1*
G1X19261Y35380D2*
G1X19861Y34780D1*
G1X20261Y34780D2*
G1X20861Y35380D1*
G1X20261Y35380D2*
G1X20861Y34780D1*
G1X22271Y34780D2*
G1X22871Y35380D1*
G1X22271Y35380D2*
G1X22871Y34780D1*
G1X18261Y34780D2*
G1X18861Y35380D1*
G1X18261Y35380D2*
G1X18861Y34780D1*
G1X8861Y35060D2*
G1X9461Y35060D1*
G1X9461Y35660D1*
G1X8861Y35660D1*
G1X8861Y35060D1*
G1X9161Y35360D2*
G1X9161Y35660D1*
G1X17671Y34950D2*
G1X18271Y34950D1*
G1X17971Y34650D2*
G1X17971Y35250D1*
G1X8731Y37352D2*
G1X9331Y37352D1*
G1X9031Y37052D2*
G1X9031Y37652D1*
G1X8721Y37982D2*
G1X9321Y37982D1*
G1X9021Y37682D2*
G1X9021Y38282D1*
G1X11261Y35480D2*
G1X11861Y35480D1*
G1X11561Y35180D2*
G1X11561Y35780D1*
G1X12561Y37380D2*
G1X13161Y37380D1*
G1X12861Y37080D2*
G1X12861Y37680D1*
G1X12231Y38800D2*
G1X12831Y38800D1*
G1X12531Y38500D2*
G1X12531Y39100D1*
G1X9627Y36640D2*
G1X10227Y36640D1*
G1X9927Y36340D2*
G1X9927Y36940D1*
G1X10731Y35860D2*
G1X11331Y35860D1*
G1X11031Y35560D2*
G1X11031Y36160D1*
G1X11671Y36740D2*
G1X12271Y36740D1*
G1X11971Y36440D2*
G1X11971Y37040D1*
G1X11411Y36428D2*
G1X12011Y36428D1*
G1X11711Y36128D2*
G1X11711Y36728D1*
G1X9661Y38360D2*
G1X10261Y38360D1*
G1X9961Y38060D2*
G1X9961Y38660D1*
G1X12131Y38430D2*
G1X12731Y38430D1*
G1X12431Y38130D2*
G1X12431Y38730D1*
G1X10631Y38760D2*
G1X11231Y38760D1*
G1X10931Y38460D2*
G1X10931Y39060D1*
G1X11081Y37230D2*
G1X11681Y37230D1*
G1X11381Y36930D2*
G1X11381Y37530D1*
G1X12741Y38900D2*
G1X13341Y38900D1*
G1X13041Y38600D2*
G1X13041Y39200D1*
G1X13341Y38800D2*
G1X13941Y38800D1*
G1X13641Y38500D2*
G1X13641Y39100D1*
G1X14271Y36980D2*
G1X14871Y36980D1*
G1X14571Y36680D2*
G1X14571Y37280D1*
G1X12921Y36460D2*
G1X13521Y36460D1*
G1X13221Y36160D2*
G1X13221Y36760D1*
G1X13711Y36930D2*
G1X14311Y36930D1*
G1X14011Y36630D2*
G1X14011Y37230D1*
G1X15511Y38230D2*
G1X16111Y38230D1*
G1X15811Y37930D2*
G1X15811Y38530D1*
G1X16181Y36730D2*
G1X16781Y36730D1*
G1X16481Y36430D2*
G1X16481Y37030D1*
G1X13291Y36560D2*
G1X13891Y36560D1*
G1X13591Y36260D2*
G1X13591Y36860D1*
G1X16071Y38150D2*
G1X16671Y38150D1*
G1X16371Y37850D2*
G1X16371Y38450D1*
G1X13741Y36570D2*
G1X14341Y36570D1*
G1X14041Y36270D2*
G1X14041Y36870D1*
G1X15801Y37760D2*
G1X16401Y37760D1*
G1X16101Y37460D2*
G1X16101Y38060D1*
G1X13111Y36940D2*
G1X13711Y36940D1*
G1X13411Y36640D2*
G1X13411Y37240D1*
G1X15511Y37200D2*
G1X16111Y37200D1*
G1X15811Y36900D2*
G1X15811Y37500D1*
G1X12981Y35560D2*
G1X13581Y35560D1*
G1X13281Y35260D2*
G1X13281Y35860D1*
G1X15551Y36120D2*
G1X16151Y36120D1*
G1X15851Y35820D2*
G1X15851Y36420D1*
G1X14611Y38410D2*
G1X15211Y38410D1*
G1X14911Y38110D2*
G1X14911Y38710D1*
G1X17201Y36460D2*
G1X17801Y36460D1*
G1X17501Y36160D2*
G1X17501Y36760D1*
G1X18241Y36100D2*
G1X18841Y36100D1*
G1X18541Y35800D2*
G1X18541Y36400D1*
G1X20531Y36720D2*
G1X21131Y36720D1*
G1X20831Y36420D2*
G1X20831Y37020D1*
G1X20251Y36490D2*
G1X20851Y36490D1*
G1X20551Y36190D2*
G1X20551Y36790D1*
G1X19881Y36410D2*
G1X20481Y36410D1*
G1X20181Y36110D2*
G1X20181Y36710D1*
G1X19921Y38910D2*
G1X20521Y38910D1*
G1X20221Y38610D2*
G1X20221Y39210D1*
G1X18621Y36460D2*
G1X19221Y36460D1*
G1X18921Y36160D2*
G1X18921Y36760D1*
G1X19391Y36060D2*
G1X19991Y36060D1*
G1X19691Y35760D2*
G1X19691Y36360D1*
G1X20521Y37770D2*
G1X21121Y37770D1*
G1X20821Y37470D2*
G1X20821Y38070D1*
G1X18251Y36470D2*
G1X18851Y36470D1*
G1X18551Y36170D2*
G1X18551Y36770D1*
G1X20141Y37890D2*
G1X20741Y37890D1*
G1X20441Y37590D2*
G1X20441Y38190D1*
G1X18301Y37330D2*
G1X18901Y37330D1*
G1X18601Y37030D2*
G1X18601Y37630D1*
G1X18981Y38050D2*
G1X19581Y38050D1*
G1X19281Y37750D2*
G1X19281Y38350D1*
G1X20321Y38950D2*
G1X20921Y38950D1*
G1X20621Y38650D2*
G1X20621Y39250D1*
G1X18171Y38870D2*
G1X18771Y38870D1*
G1X18471Y38570D2*
G1X18471Y39170D1*
G1X24561Y38250D2*
G1X25161Y38250D1*
G1X24861Y37950D2*
G1X24861Y38550D1*
G1X24281Y36782D2*
G1X24881Y36782D1*
G1X24581Y36482D2*
G1X24581Y37082D1*
G1X22231Y38210D2*
G1X22831Y38210D1*
G1X22531Y37910D2*
G1X22531Y38510D1*
G1X23731Y39100D2*
G1X24331Y39100D1*
G1X24031Y38800D2*
G1X24031Y39400D1*
G1X23371Y39120D2*
G1X23971Y39120D1*
G1X23671Y38820D2*
G1X23671Y39420D1*
G1X20891Y39000D2*
G1X21491Y39000D1*
G1X21191Y38700D2*
G1X21191Y39300D1*
G1X23031Y36810D2*
G1X23631Y36810D1*
G1X23331Y36510D2*
G1X23331Y37110D1*
G1X21431Y37470D2*
G1X22031Y37470D1*
G1X21731Y37170D2*
G1X21731Y37770D1*
G1X22576Y36425D2*
G1X23176Y36425D1*
G1X22876Y36125D2*
G1X22876Y36725D1*
G1X20781Y35510D2*
G1X21381Y35510D1*
G1X21081Y35210D2*
G1X21081Y35810D1*
G1X23331Y38060D2*
G1X23931Y38060D1*
G1X23631Y37760D2*
G1X23631Y38360D1*
G1X26251Y37650D2*
G1X26851Y37650D1*
G1X26551Y37350D2*
G1X26551Y37950D1*
G1X25871Y37650D2*
G1X26471Y37650D1*
G1X26171Y37350D2*
G1X26171Y37950D1*
G1X27891Y39220D2*
G1X28491Y39220D1*
G1X28191Y38920D2*
G1X28191Y39520D1*
G1X28721Y37353D2*
G1X29321Y37353D1*
G1X29021Y37053D2*
G1X29021Y37653D1*
G1X26716Y36265D2*
G1X27316Y36265D1*
G1X27016Y35965D2*
G1X27016Y36565D1*
G1X27441Y36490D2*
G1X28041Y36490D1*
G1X27741Y36190D2*
G1X27741Y36790D1*
G1X26831Y38910D2*
G1X27431Y38910D1*
G1X27131Y38610D2*
G1X27131Y39210D1*
G1X27111Y37070D2*
G1X27711Y37070D1*
G1X27411Y36770D2*
G1X27411Y37370D1*
G1X27041Y36460D2*
G1X27641Y36460D1*
G1X27341Y36160D2*
G1X27341Y36760D1*
G1X30331Y37052D2*
G1X30931Y37052D1*
G1X30631Y36752D2*
G1X30631Y37352D1*
G1X29511Y35710D2*
G1X30111Y35710D1*
G1X29811Y35410D2*
G1X29811Y36010D1*
G1X29761Y36090D2*
G1X30361Y36090D1*
G1X30061Y35790D2*
G1X30061Y36390D1*
G1X30241Y38570D2*
G1X30841Y38570D1*
G1X30541Y38270D2*
G1X30541Y38870D1*
G1X30281Y37850D2*
G1X30881Y37850D1*
G1X30581Y37550D2*
G1X30581Y38150D1*
G1X28971Y38380D2*
G1X29571Y38380D1*
G1X29271Y38080D2*
G1X29271Y38680D1*
G1X16553Y40720D2*
G1X17153Y40720D1*
G1X16853Y40420D2*
G1X16853Y41020D1*
G1X16071Y40640D2*
G1X16671Y40640D1*
G1X16371Y40340D2*
G1X16371Y40940D1*
G1X18818Y40790D2*
G1X19418Y40790D1*
G1X19118Y40490D2*
G1X19118Y41090D1*
G1X19330Y40790D2*
G1X19930Y40790D1*
G1X19630Y40490D2*
G1X19630Y41090D1*
G1X19711Y40780D2*
G1X20311Y40780D1*
G1X20011Y40480D2*
G1X20011Y41080D1*
G1X17031Y40660D2*
G1X17631Y40660D1*
G1X17331Y40360D2*
G1X17331Y40960D1*
G1X17419Y40510D2*
G1X18019Y40510D1*
G1X17719Y40210D2*
G1X17719Y40810D1*
G1X20121Y40790D2*
G1X20721Y40790D1*
G1X20421Y40490D2*
G1X20421Y41090D1*
G1X20521Y40780D2*
G1X21121Y40780D1*
G1X20821Y40480D2*
G1X20821Y41080D1*
G1X18307Y40790D2*
G1X18907Y40790D1*
G1X18607Y40490D2*
G1X18607Y41090D1*
G1X17745Y40790D2*
G1X18345Y40790D1*
G1X18045Y40490D2*
G1X18045Y41090D1*
G1X24271Y39290D2*
G1X24871Y39290D1*
G1X24571Y38990D2*
G1X24571Y39590D1*
G1X21391Y40770D2*
G1X21991Y40770D1*
G1X21691Y40470D2*
G1X21691Y41070D1*
G1X24101Y39620D2*
G1X24701Y39620D1*
G1X24401Y39320D2*
G1X24401Y39920D1*
G1X23371Y39610D2*
G1X23971Y39610D1*
G1X23671Y39310D2*
G1X23671Y39910D1*
G1X22681Y39990D2*
G1X23281Y39990D1*
G1X22981Y39690D2*
G1X22981Y40290D1*
G1X20871Y39550D2*
G1X21471Y39550D1*
G1X21171Y39250D2*
G1X21171Y39850D1*
G1X22681Y39630D2*
G1X23281Y39630D1*
G1X22981Y39330D2*
G1X22981Y39930D1*
G1X20871Y40070D2*
G1X21471Y40070D1*
G1X21171Y39770D2*
G1X21171Y40370D1*
G1X21011Y40760D2*
G1X21611Y40760D1*
G1X21311Y40460D2*
G1X21311Y41060D1*
G1X26531Y40230D2*
G1X27131Y40230D1*
G1X26831Y39930D2*
G1X26831Y40530D1*
G1X27891Y39620D2*
G1X28491Y39620D1*
G1X28191Y39320D2*
G1X28191Y39920D1*
G1X27881Y40017D2*
G1X28481Y40017D1*
G1X28181Y39717D2*
G1X28181Y40317D1*
G1X27871Y40450D2*
G1X28471Y40450D1*
G1X28171Y40150D2*
G1X28171Y40750D1*
G1X29201Y40332D2*
G1X29801Y40332D1*
G1X29501Y40032D2*
G1X29501Y40632D1*
G1X31794Y27389D2*
G54D11*
G1X31794Y33846D1*
G1X16032Y33846D1*
G1X15796Y32114D1*
G1X8448Y32114D1*
G1X8448Y27389D1*
G1X31794Y27389D1*
G1X21250Y27519D2*
G54D14*
G1X21850Y28119D1*
G1X21250Y28119D2*
G1X21850Y27519D1*
G1X19250Y27519D2*
G1X19850Y28119D1*
G1X19250Y28119D2*
G1X19850Y27519D1*
G1X20250Y27519D2*
G1X20850Y28119D1*
G1X20250Y28119D2*
G1X20850Y27519D1*
G1X22260Y27519D2*
G1X22860Y28119D1*
G1X22260Y28119D2*
G1X22860Y27519D1*
G1X18250Y27519D2*
G1X18850Y28119D1*
G1X18250Y28119D2*
G1X18850Y27519D1*
G1X8850Y27799D2*
G1X9450Y27799D1*
G1X9450Y28399D1*
G1X8850Y28399D1*
G1X8850Y27799D1*
G1X9150Y28099D2*
G1X9150Y28399D1*
G1X17660Y27689D2*
G1X18260Y27689D1*
G1X17960Y27389D2*
G1X17960Y27989D1*
G1X8720Y30091D2*
G1X9320Y30091D1*
G1X9020Y29791D2*
G1X9020Y30391D1*
G1X8710Y30721D2*
G1X9310Y30721D1*
G1X9010Y30421D2*
G1X9010Y31021D1*
G1X11250Y28219D2*
G1X11850Y28219D1*
G1X11550Y27919D2*
G1X11550Y28519D1*
G1X12550Y30119D2*
G1X13150Y30119D1*
G1X12850Y29819D2*
G1X12850Y30419D1*
G1X12220Y31539D2*
G1X12820Y31539D1*
G1X12520Y31239D2*
G1X12520Y31839D1*
G1X9616Y29379D2*
G1X10216Y29379D1*
G1X9916Y29079D2*
G1X9916Y29679D1*
G1X10720Y28599D2*
G1X11320Y28599D1*
G1X11020Y28299D2*
G1X11020Y28899D1*
G1X11660Y29479D2*
G1X12260Y29479D1*
G1X11960Y29179D2*
G1X11960Y29779D1*
G1X11400Y29167D2*
G1X12000Y29167D1*
G1X11700Y28867D2*
G1X11700Y29467D1*
G1X9650Y31099D2*
G1X10250Y31099D1*
G1X9950Y30799D2*
G1X9950Y31399D1*
G1X12120Y31169D2*
G1X12720Y31169D1*
G1X12420Y30869D2*
G1X12420Y31469D1*
G1X10620Y31499D2*
G1X11220Y31499D1*
G1X10920Y31199D2*
G1X10920Y31799D1*
G1X11070Y29969D2*
G1X11670Y29969D1*
G1X11370Y29669D2*
G1X11370Y30269D1*
G1X12730Y31639D2*
G1X13330Y31639D1*
G1X13030Y31339D2*
G1X13030Y31939D1*
G1X13330Y31539D2*
G1X13930Y31539D1*
G1X13630Y31239D2*
G1X13630Y31839D1*
G1X14260Y29719D2*
G1X14860Y29719D1*
G1X14560Y29419D2*
G1X14560Y30019D1*
G1X12910Y29199D2*
G1X13510Y29199D1*
G1X13210Y28899D2*
G1X13210Y29499D1*
G1X13700Y29669D2*
G1X14300Y29669D1*
G1X14000Y29369D2*
G1X14000Y29969D1*
G1X15500Y30969D2*
G1X16100Y30969D1*
G1X15800Y30669D2*
G1X15800Y31269D1*
G1X16170Y29469D2*
G1X16770Y29469D1*
G1X16470Y29169D2*
G1X16470Y29769D1*
G1X13280Y29299D2*
G1X13880Y29299D1*
G1X13580Y28999D2*
G1X13580Y29599D1*
G1X16060Y30889D2*
G1X16660Y30889D1*
G1X16360Y30589D2*
G1X16360Y31189D1*
G1X13730Y29309D2*
G1X14330Y29309D1*
G1X14030Y29009D2*
G1X14030Y29609D1*
G1X15790Y30499D2*
G1X16390Y30499D1*
G1X16090Y30199D2*
G1X16090Y30799D1*
G1X13100Y29679D2*
G1X13700Y29679D1*
G1X13400Y29379D2*
G1X13400Y29979D1*
G1X15500Y29939D2*
G1X16100Y29939D1*
G1X15800Y29639D2*
G1X15800Y30239D1*
G1X12970Y28299D2*
G1X13570Y28299D1*
G1X13270Y27999D2*
G1X13270Y28599D1*
G1X15540Y28859D2*
G1X16140Y28859D1*
G1X15840Y28559D2*
G1X15840Y29159D1*
G1X14600Y31149D2*
G1X15200Y31149D1*
G1X14900Y30849D2*
G1X14900Y31449D1*
G1X17190Y29199D2*
G1X17790Y29199D1*
G1X17490Y28899D2*
G1X17490Y29499D1*
G1X18230Y28839D2*
G1X18830Y28839D1*
G1X18530Y28539D2*
G1X18530Y29139D1*
G1X20520Y29459D2*
G1X21120Y29459D1*
G1X20820Y29159D2*
G1X20820Y29759D1*
G1X20240Y29229D2*
G1X20840Y29229D1*
G1X20540Y28929D2*
G1X20540Y29529D1*
G1X19870Y29149D2*
G1X20470Y29149D1*
G1X20170Y28849D2*
G1X20170Y29449D1*
G1X19910Y31649D2*
G1X20510Y31649D1*
G1X20210Y31349D2*
G1X20210Y31949D1*
G1X18610Y29199D2*
G1X19210Y29199D1*
G1X18910Y28899D2*
G1X18910Y29499D1*
G1X19380Y28799D2*
G1X19980Y28799D1*
G1X19680Y28499D2*
G1X19680Y29099D1*
G1X20510Y30509D2*
G1X21110Y30509D1*
G1X20810Y30209D2*
G1X20810Y30809D1*
G1X18240Y29209D2*
G1X18840Y29209D1*
G1X18540Y28909D2*
G1X18540Y29509D1*
G1X20130Y30629D2*
G1X20730Y30629D1*
G1X20430Y30329D2*
G1X20430Y30929D1*
G1X18290Y30069D2*
G1X18890Y30069D1*
G1X18590Y29769D2*
G1X18590Y30369D1*
G1X18970Y30789D2*
G1X19570Y30789D1*
G1X19270Y30489D2*
G1X19270Y31089D1*
G1X20310Y31689D2*
G1X20910Y31689D1*
G1X20610Y31389D2*
G1X20610Y31989D1*
G1X18160Y31609D2*
G1X18760Y31609D1*
G1X18460Y31309D2*
G1X18460Y31909D1*
G1X24550Y30989D2*
G1X25150Y30989D1*
G1X24850Y30689D2*
G1X24850Y31289D1*
G1X24270Y29521D2*
G1X24870Y29521D1*
G1X24570Y29221D2*
G1X24570Y29821D1*
G1X22220Y30949D2*
G1X22820Y30949D1*
G1X22520Y30649D2*
G1X22520Y31249D1*
G1X23720Y31839D2*
G1X24320Y31839D1*
G1X24020Y31539D2*
G1X24020Y32139D1*
G1X23360Y31859D2*
G1X23960Y31859D1*
G1X23660Y31559D2*
G1X23660Y32159D1*
G1X20880Y31739D2*
G1X21480Y31739D1*
G1X21180Y31439D2*
G1X21180Y32039D1*
G1X23020Y29549D2*
G1X23620Y29549D1*
G1X23320Y29249D2*
G1X23320Y29849D1*
G1X21420Y30209D2*
G1X22020Y30209D1*
G1X21720Y29909D2*
G1X21720Y30509D1*
G1X22565Y29164D2*
G1X23165Y29164D1*
G1X22865Y28864D2*
G1X22865Y29464D1*
G1X20770Y28249D2*
G1X21370Y28249D1*
G1X21070Y27949D2*
G1X21070Y28549D1*
G1X23320Y30799D2*
G1X23920Y30799D1*
G1X23620Y30499D2*
G1X23620Y31099D1*
G1X26240Y30389D2*
G1X26840Y30389D1*
G1X26540Y30089D2*
G1X26540Y30689D1*
G1X25860Y30389D2*
G1X26460Y30389D1*
G1X26160Y30089D2*
G1X26160Y30689D1*
G1X27880Y31959D2*
G1X28480Y31959D1*
G1X28180Y31659D2*
G1X28180Y32259D1*
G1X28710Y30092D2*
G1X29310Y30092D1*
G1X29010Y29792D2*
G1X29010Y30392D1*
G1X26705Y29004D2*
G1X27305Y29004D1*
G1X27005Y28704D2*
G1X27005Y29304D1*
G1X27430Y29229D2*
G1X28030Y29229D1*
G1X27730Y28929D2*
G1X27730Y29529D1*
G1X26820Y31649D2*
G1X27420Y31649D1*
G1X27120Y31349D2*
G1X27120Y31949D1*
G1X27100Y29809D2*
G1X27700Y29809D1*
G1X27400Y29509D2*
G1X27400Y30109D1*
G1X27030Y29199D2*
G1X27630Y29199D1*
G1X27330Y28899D2*
G1X27330Y29499D1*
G1X30320Y29790D2*
G1X30920Y29790D1*
G1X30620Y29490D2*
G1X30620Y30090D1*
G1X29500Y28449D2*
G1X30100Y28449D1*
G1X29800Y28149D2*
G1X29800Y28749D1*
G1X29750Y28829D2*
G1X30350Y28829D1*
G1X30050Y28529D2*
G1X30050Y29129D1*
G1X30230Y31309D2*
G1X30830Y31309D1*
G1X30530Y31009D2*
G1X30530Y31609D1*
G1X30270Y30589D2*
G1X30870Y30589D1*
G1X30570Y30289D2*
G1X30570Y30889D1*
G1X28960Y31119D2*
G1X29560Y31119D1*
G1X29260Y30819D2*
G1X29260Y31419D1*
G1X16543Y33459D2*
G1X17143Y33459D1*
G1X16843Y33159D2*
G1X16843Y33759D1*
G1X16060Y33379D2*
G1X16660Y33379D1*
G1X16360Y33079D2*
G1X16360Y33679D1*
G1X18808Y33529D2*
G1X19408Y33529D1*
G1X19108Y33229D2*
G1X19108Y33829D1*
G1X19319Y33529D2*
G1X19919Y33529D1*
G1X19619Y33229D2*
G1X19619Y33829D1*
G1X19700Y33519D2*
G1X20300Y33519D1*
G1X20000Y33219D2*
G1X20000Y33819D1*
G1X17020Y33399D2*
G1X17620Y33399D1*
G1X17320Y33099D2*
G1X17320Y33699D1*
G1X17408Y33249D2*
G1X18008Y33249D1*
G1X17708Y32949D2*
G1X17708Y33549D1*
G1X20110Y33529D2*
G1X20710Y33529D1*
G1X20410Y33229D2*
G1X20410Y33829D1*
G1X20510Y33519D2*
G1X21110Y33519D1*
G1X20810Y33219D2*
G1X20810Y33819D1*
G1X18296Y33529D2*
G1X18896Y33529D1*
G1X18596Y33229D2*
G1X18596Y33829D1*
G1X17734Y33529D2*
G1X18334Y33529D1*
G1X18034Y33229D2*
G1X18034Y33829D1*
G1X24260Y32029D2*
G1X24860Y32029D1*
G1X24560Y31729D2*
G1X24560Y32329D1*
G1X21380Y33509D2*
G1X21980Y33509D1*
G1X21680Y33209D2*
G1X21680Y33809D1*
G1X24090Y32359D2*
G1X24690Y32359D1*
G1X24390Y32059D2*
G1X24390Y32659D1*
G1X23360Y32349D2*
G1X23960Y32349D1*
G1X23660Y32049D2*
G1X23660Y32649D1*
G1X22670Y32729D2*
G1X23270Y32729D1*
G1X22970Y32429D2*
G1X22970Y33029D1*
G1X20860Y32289D2*
G1X21460Y32289D1*
G1X21160Y31989D2*
G1X21160Y32589D1*
G1X22670Y32369D2*
G1X23270Y32369D1*
G1X22970Y32069D2*
G1X22970Y32669D1*
G1X20860Y32809D2*
G1X21460Y32809D1*
G1X21160Y32509D2*
G1X21160Y33109D1*
G1X21000Y33499D2*
G1X21600Y33499D1*
G1X21300Y33199D2*
G1X21300Y33799D1*
G1X26520Y32969D2*
G1X27120Y32969D1*
G1X26820Y32669D2*
G1X26820Y33269D1*
G1X27880Y32359D2*
G1X28480Y32359D1*
G1X28180Y32059D2*
G1X28180Y32659D1*
G1X27870Y32756D2*
G1X28470Y32756D1*
G1X28170Y32456D2*
G1X28170Y33056D1*
G1X27860Y33189D2*
G1X28460Y33189D1*
G1X28160Y32889D2*
G1X28160Y33489D1*
G1X29190Y33071D2*
G1X29790Y33071D1*
G1X29490Y32771D2*
G1X29490Y33371D1*
G1X31805Y20129D2*
G54D11*
G1X31805Y26586D1*
G1X16043Y26586D1*
G1X15806Y24854D1*
G1X8458Y24854D1*
G1X8458Y20129D1*
G1X31805Y20129D1*
G1X21260Y20259D2*
G54D14*
G1X21860Y20859D1*
G1X21260Y20859D2*
G1X21860Y20259D1*
G1X19260Y20259D2*
G1X19860Y20859D1*
G1X19260Y20859D2*
G1X19860Y20259D1*
G1X20260Y20259D2*
G1X20860Y20859D1*
G1X20260Y20859D2*
G1X20860Y20259D1*
G1X22270Y20259D2*
G1X22870Y20859D1*
G1X22270Y20859D2*
G1X22870Y20259D1*
G1X18260Y20259D2*
G1X18860Y20859D1*
G1X18260Y20859D2*
G1X18860Y20259D1*
G1X8860Y20539D2*
G1X9460Y20539D1*
G1X9460Y21139D1*
G1X8860Y21139D1*
G1X8860Y20539D1*
G1X9160Y20839D2*
G1X9160Y21139D1*
G1X17670Y20429D2*
G1X18270Y20429D1*
G1X17970Y20129D2*
G1X17970Y20729D1*
G1X8730Y22831D2*
G1X9330Y22831D1*
G1X9030Y22531D2*
G1X9030Y23131D1*
G1X8720Y23461D2*
G1X9320Y23461D1*
G1X9020Y23161D2*
G1X9020Y23761D1*
G1X11260Y20959D2*
G1X11860Y20959D1*
G1X11560Y20659D2*
G1X11560Y21259D1*
G1X12560Y22859D2*
G1X13160Y22859D1*
G1X12860Y22559D2*
G1X12860Y23159D1*
G1X12230Y24279D2*
G1X12830Y24279D1*
G1X12530Y23979D2*
G1X12530Y24579D1*
G1X9626Y22119D2*
G1X10226Y22119D1*
G1X9926Y21819D2*
G1X9926Y22419D1*
G1X10730Y21339D2*
G1X11330Y21339D1*
G1X11030Y21039D2*
G1X11030Y21639D1*
G1X11670Y22219D2*
G1X12270Y22219D1*
G1X11970Y21919D2*
G1X11970Y22519D1*
G1X11410Y21907D2*
G1X12010Y21907D1*
G1X11710Y21607D2*
G1X11710Y22207D1*
G1X9660Y23839D2*
G1X10260Y23839D1*
G1X9960Y23539D2*
G1X9960Y24139D1*
G1X12131Y23909D2*
G1X12731Y23909D1*
G1X12431Y23609D2*
G1X12431Y24209D1*
G1X10630Y24239D2*
G1X11230Y24239D1*
G1X10930Y23939D2*
G1X10930Y24539D1*
G1X11080Y22709D2*
G1X11680Y22709D1*
G1X11380Y22409D2*
G1X11380Y23009D1*
G1X12740Y24379D2*
G1X13340Y24379D1*
G1X13040Y24079D2*
G1X13040Y24679D1*
G1X13340Y24279D2*
G1X13940Y24279D1*
G1X13640Y23979D2*
G1X13640Y24579D1*
G1X14270Y22459D2*
G1X14870Y22459D1*
G1X14570Y22159D2*
G1X14570Y22759D1*
G1X12920Y21939D2*
G1X13520Y21939D1*
G1X13220Y21639D2*
G1X13220Y22239D1*
G1X13710Y22409D2*
G1X14310Y22409D1*
G1X14010Y22109D2*
G1X14010Y22709D1*
G1X15510Y23709D2*
G1X16110Y23709D1*
G1X15810Y23409D2*
G1X15810Y24009D1*
G1X16180Y22209D2*
G1X16780Y22209D1*
G1X16480Y21909D2*
G1X16480Y22509D1*
G1X13290Y22039D2*
G1X13890Y22039D1*
G1X13590Y21739D2*
G1X13590Y22339D1*
G1X16070Y23629D2*
G1X16670Y23629D1*
G1X16370Y23329D2*
G1X16370Y23929D1*
G1X13740Y22049D2*
G1X14340Y22049D1*
G1X14040Y21749D2*
G1X14040Y22349D1*
G1X15800Y23239D2*
G1X16400Y23239D1*
G1X16100Y22939D2*
G1X16100Y23539D1*
G1X13110Y22419D2*
G1X13710Y22419D1*
G1X13410Y22119D2*
G1X13410Y22719D1*
G1X15510Y22679D2*
G1X16110Y22679D1*
G1X15810Y22379D2*
G1X15810Y22979D1*
G1X12980Y21039D2*
G1X13580Y21039D1*
G1X13280Y20739D2*
G1X13280Y21339D1*
G1X15550Y21599D2*
G1X16150Y21599D1*
G1X15850Y21299D2*
G1X15850Y21899D1*
G1X14610Y23889D2*
G1X15210Y23889D1*
G1X14910Y23589D2*
G1X14910Y24189D1*
G1X17200Y21939D2*
G1X17800Y21939D1*
G1X17500Y21639D2*
G1X17500Y22239D1*
G1X18240Y21579D2*
G1X18840Y21579D1*
G1X18540Y21279D2*
G1X18540Y21879D1*
G1X20530Y22199D2*
G1X21130Y22199D1*
G1X20830Y21899D2*
G1X20830Y22499D1*
G1X20250Y21969D2*
G1X20850Y21969D1*
G1X20550Y21669D2*
G1X20550Y22269D1*
G1X19880Y21889D2*
G1X20480Y21889D1*
G1X20180Y21589D2*
G1X20180Y22189D1*
G1X19920Y24389D2*
G1X20520Y24389D1*
G1X20220Y24089D2*
G1X20220Y24689D1*
G1X18620Y21939D2*
G1X19220Y21939D1*
G1X18920Y21639D2*
G1X18920Y22239D1*
G1X19390Y21539D2*
G1X19990Y21539D1*
G1X19690Y21239D2*
G1X19690Y21839D1*
G1X20520Y23249D2*
G1X21120Y23249D1*
G1X20820Y22949D2*
G1X20820Y23549D1*
G1X18250Y21949D2*
G1X18850Y21949D1*
G1X18550Y21649D2*
G1X18550Y22249D1*
G1X20140Y23369D2*
G1X20740Y23369D1*
G1X20440Y23069D2*
G1X20440Y23669D1*
G1X18300Y22809D2*
G1X18900Y22809D1*
G1X18600Y22509D2*
G1X18600Y23109D1*
G1X18980Y23529D2*
G1X19580Y23529D1*
G1X19280Y23229D2*
G1X19280Y23829D1*
G1X20320Y24429D2*
G1X20920Y24429D1*
G1X20620Y24129D2*
G1X20620Y24729D1*
G1X18170Y24349D2*
G1X18770Y24349D1*
G1X18470Y24049D2*
G1X18470Y24649D1*
G1X24560Y23729D2*
G1X25160Y23729D1*
G1X24860Y23429D2*
G1X24860Y24029D1*
G1X24280Y22261D2*
G1X24880Y22261D1*
G1X24580Y21961D2*
G1X24580Y22561D1*
G1X22230Y23689D2*
G1X22830Y23689D1*
G1X22530Y23389D2*
G1X22530Y23989D1*
G1X23730Y24579D2*
G1X24330Y24579D1*
G1X24030Y24279D2*
G1X24030Y24879D1*
G1X23370Y24599D2*
G1X23970Y24599D1*
G1X23670Y24299D2*
G1X23670Y24899D1*
G1X20890Y24479D2*
G1X21490Y24479D1*
G1X21190Y24179D2*
G1X21190Y24779D1*
G1X23030Y22289D2*
G1X23630Y22289D1*
G1X23330Y21989D2*
G1X23330Y22589D1*
G1X21430Y22949D2*
G1X22030Y22949D1*
G1X21730Y22649D2*
G1X21730Y23249D1*
G1X22575Y21904D2*
G1X23175Y21904D1*
G1X22875Y21604D2*
G1X22875Y22204D1*
G1X20780Y20989D2*
G1X21380Y20989D1*
G1X21080Y20689D2*
G1X21080Y21289D1*
G1X23330Y23539D2*
G1X23930Y23539D1*
G1X23630Y23239D2*
G1X23630Y23839D1*
G1X26250Y23129D2*
G1X26850Y23129D1*
G1X26550Y22829D2*
G1X26550Y23429D1*
G1X25870Y23129D2*
G1X26470Y23129D1*
G1X26170Y22829D2*
G1X26170Y23429D1*
G1X27890Y24699D2*
G1X28490Y24699D1*
G1X28190Y24399D2*
G1X28190Y24999D1*
G1X28720Y22832D2*
G1X29320Y22832D1*
G1X29020Y22532D2*
G1X29020Y23132D1*
G1X26715Y21744D2*
G1X27315Y21744D1*
G1X27015Y21444D2*
G1X27015Y22044D1*
G1X27440Y21969D2*
G1X28040Y21969D1*
G1X27740Y21669D2*
G1X27740Y22269D1*
G1X26830Y24389D2*
G1X27430Y24389D1*
G1X27130Y24089D2*
G1X27130Y24689D1*
G1X27110Y22549D2*
G1X27710Y22549D1*
G1X27410Y22249D2*
G1X27410Y22849D1*
G1X27040Y21939D2*
G1X27640Y21939D1*
G1X27340Y21639D2*
G1X27340Y22239D1*
G1X30330Y22531D2*
G1X30930Y22531D1*
G1X30630Y22231D2*
G1X30630Y22831D1*
G1X29510Y21189D2*
G1X30110Y21189D1*
G1X29810Y20889D2*
G1X29810Y21489D1*
G1X29760Y21569D2*
G1X30360Y21569D1*
G1X30060Y21269D2*
G1X30060Y21869D1*
G1X30240Y24049D2*
G1X30840Y24049D1*
G1X30540Y23749D2*
G1X30540Y24349D1*
G1X30280Y23329D2*
G1X30880Y23329D1*
G1X30580Y23029D2*
G1X30580Y23629D1*
G1X28970Y23859D2*
G1X29570Y23859D1*
G1X29270Y23559D2*
G1X29270Y24159D1*
G1X16553Y26199D2*
G1X17153Y26199D1*
G1X16853Y25899D2*
G1X16853Y26499D1*
G1X16070Y26119D2*
G1X16670Y26119D1*
G1X16370Y25819D2*
G1X16370Y26419D1*
G1X18818Y26269D2*
G1X19418Y26269D1*
G1X19118Y25969D2*
G1X19118Y26569D1*
G1X19330Y26269D2*
G1X19930Y26269D1*
G1X19630Y25969D2*
G1X19630Y26569D1*
G1X19710Y26259D2*
G1X20310Y26259D1*
G1X20010Y25959D2*
G1X20010Y26559D1*
G1X17030Y26139D2*
G1X17630Y26139D1*
G1X17330Y25839D2*
G1X17330Y26439D1*
G1X17418Y25989D2*
G1X18018Y25989D1*
G1X17718Y25689D2*
G1X17718Y26289D1*
G1X20120Y26269D2*
G1X20720Y26269D1*
G1X20420Y25969D2*
G1X20420Y26569D1*
G1X20520Y26259D2*
G1X21120Y26259D1*
G1X20820Y25959D2*
G1X20820Y26559D1*
G1X18306Y26269D2*
G1X18906Y26269D1*
G1X18606Y25969D2*
G1X18606Y26569D1*
G1X17744Y26269D2*
G1X18344Y26269D1*
G1X18044Y25969D2*
G1X18044Y26569D1*
G1X24270Y24769D2*
G1X24870Y24769D1*
G1X24570Y24469D2*
G1X24570Y25069D1*
G1X21390Y26249D2*
G1X21990Y26249D1*
G1X21690Y25949D2*
G1X21690Y26549D1*
G1X24100Y25099D2*
G1X24700Y25099D1*
G1X24400Y24799D2*
G1X24400Y25399D1*
G1X23370Y25089D2*
G1X23970Y25089D1*
G1X23670Y24789D2*
G1X23670Y25389D1*
G1X22680Y25469D2*
G1X23280Y25469D1*
G1X22980Y25169D2*
G1X22980Y25769D1*
G1X20870Y25029D2*
G1X21470Y25029D1*
G1X21170Y24729D2*
G1X21170Y25329D1*
G1X22680Y25109D2*
G1X23280Y25109D1*
G1X22980Y24809D2*
G1X22980Y25409D1*
G1X20870Y25549D2*
G1X21470Y25549D1*
G1X21170Y25249D2*
G1X21170Y25849D1*
G1X21010Y26239D2*
G1X21610Y26239D1*
G1X21310Y25939D2*
G1X21310Y26539D1*
G1X26530Y25709D2*
G1X27130Y25709D1*
G1X26830Y25409D2*
G1X26830Y26009D1*
G1X27890Y25099D2*
G1X28490Y25099D1*
G1X28190Y24799D2*
G1X28190Y25399D1*
G1X27880Y25496D2*
G1X28480Y25496D1*
G1X28180Y25196D2*
G1X28180Y25796D1*
G1X27870Y25929D2*
G1X28470Y25929D1*
G1X28170Y25629D2*
G1X28170Y26229D1*
G1X29200Y25811D2*
G1X29800Y25811D1*
G1X29500Y25511D2*
G1X29500Y26111D1*
G1X31795Y12869D2*
G54D11*
G1X31795Y19326D1*
G1X16033Y19326D1*
G1X15796Y17594D1*
G1X8448Y17594D1*
G1X8448Y12869D1*
G1X31795Y12869D1*
G1X21250Y12999D2*
G54D14*
G1X21850Y13599D1*
G1X21250Y13599D2*
G1X21850Y12999D1*
G1X19250Y12999D2*
G1X19850Y13599D1*
G1X19250Y13599D2*
G1X19850Y12999D1*
G1X20250Y12999D2*
G1X20850Y13599D1*
G1X20250Y13599D2*
G1X20850Y12999D1*
G1X22260Y12999D2*
G1X22860Y13599D1*
G1X22260Y13599D2*
G1X22860Y12999D1*
G1X18250Y12999D2*
G1X18850Y13599D1*
G1X18250Y13599D2*
G1X18850Y12999D1*
G1X8850Y13279D2*
G1X9450Y13279D1*
G1X9450Y13879D1*
G1X8850Y13879D1*
G1X8850Y13279D1*
G1X9150Y13579D2*
G1X9150Y13879D1*
G1X17660Y13169D2*
G1X18260Y13169D1*
G1X17960Y12869D2*
G1X17960Y13469D1*
G1X8720Y15571D2*
G1X9320Y15571D1*
G1X9020Y15271D2*
G1X9020Y15871D1*
G1X8710Y16201D2*
G1X9310Y16201D1*
G1X9010Y15901D2*
G1X9010Y16501D1*
G1X11250Y13699D2*
G1X11850Y13699D1*
G1X11550Y13399D2*
G1X11550Y13999D1*
G1X12550Y15599D2*
G1X13150Y15599D1*
G1X12850Y15299D2*
G1X12850Y15899D1*
G1X12220Y17019D2*
G1X12820Y17019D1*
G1X12520Y16719D2*
G1X12520Y17319D1*
G1X9616Y14859D2*
G1X10216Y14859D1*
G1X9916Y14559D2*
G1X9916Y15159D1*
G1X10720Y14079D2*
G1X11320Y14079D1*
G1X11020Y13779D2*
G1X11020Y14379D1*
G1X11660Y14959D2*
G1X12260Y14959D1*
G1X11960Y14659D2*
G1X11960Y15259D1*
G1X11400Y14647D2*
G1X12000Y14647D1*
G1X11700Y14347D2*
G1X11700Y14947D1*
G1X9650Y16579D2*
G1X10250Y16579D1*
G1X9950Y16279D2*
G1X9950Y16879D1*
G1X12121Y16649D2*
G1X12721Y16649D1*
G1X12421Y16349D2*
G1X12421Y16949D1*
G1X10620Y16979D2*
G1X11220Y16979D1*
G1X10920Y16679D2*
G1X10920Y17279D1*
G1X11070Y15449D2*
G1X11670Y15449D1*
G1X11370Y15149D2*
G1X11370Y15749D1*
G1X12730Y17119D2*
G1X13330Y17119D1*
G1X13030Y16819D2*
G1X13030Y17419D1*
G1X13330Y17019D2*
G1X13930Y17019D1*
G1X13630Y16719D2*
G1X13630Y17319D1*
G1X14260Y15199D2*
G1X14860Y15199D1*
G1X14560Y14899D2*
G1X14560Y15499D1*
G1X12910Y14679D2*
G1X13510Y14679D1*
G1X13210Y14379D2*
G1X13210Y14979D1*
G1X13700Y15149D2*
G1X14300Y15149D1*
G1X14000Y14849D2*
G1X14000Y15449D1*
G1X15500Y16449D2*
G1X16100Y16449D1*
G1X15800Y16149D2*
G1X15800Y16749D1*
G1X16170Y14949D2*
G1X16770Y14949D1*
G1X16470Y14649D2*
G1X16470Y15249D1*
G1X13280Y14779D2*
G1X13880Y14779D1*
G1X13580Y14479D2*
G1X13580Y15079D1*
G1X16060Y16369D2*
G1X16660Y16369D1*
G1X16360Y16069D2*
G1X16360Y16669D1*
G1X13730Y14789D2*
G1X14330Y14789D1*
G1X14030Y14489D2*
G1X14030Y15089D1*
G1X15790Y15979D2*
G1X16390Y15979D1*
G1X16090Y15679D2*
G1X16090Y16279D1*
G1X13100Y15159D2*
G1X13700Y15159D1*
G1X13400Y14859D2*
G1X13400Y15459D1*
G1X15500Y15419D2*
G1X16100Y15419D1*
G1X15800Y15119D2*
G1X15800Y15719D1*
G1X12970Y13779D2*
G1X13570Y13779D1*
G1X13270Y13479D2*
G1X13270Y14079D1*
G1X15540Y14339D2*
G1X16140Y14339D1*
G1X15840Y14039D2*
G1X15840Y14639D1*
G1X14600Y16629D2*
G1X15200Y16629D1*
G1X14900Y16329D2*
G1X14900Y16929D1*
G1X17190Y14679D2*
G1X17790Y14679D1*
G1X17490Y14379D2*
G1X17490Y14979D1*
G1X18230Y14319D2*
G1X18830Y14319D1*
G1X18530Y14019D2*
G1X18530Y14619D1*
G1X20520Y14939D2*
G1X21120Y14939D1*
G1X20820Y14639D2*
G1X20820Y15239D1*
G1X20240Y14709D2*
G1X20840Y14709D1*
G1X20540Y14409D2*
G1X20540Y15009D1*
G1X19870Y14629D2*
G1X20470Y14629D1*
G1X20170Y14329D2*
G1X20170Y14929D1*
G1X19910Y17129D2*
G1X20510Y17129D1*
G1X20210Y16829D2*
G1X20210Y17429D1*
G1X18610Y14679D2*
G1X19210Y14679D1*
G1X18910Y14379D2*
G1X18910Y14979D1*
G1X19380Y14279D2*
G1X19980Y14279D1*
G1X19680Y13979D2*
G1X19680Y14579D1*
G1X20510Y15989D2*
G1X21110Y15989D1*
G1X20810Y15689D2*
G1X20810Y16289D1*
G1X18240Y14689D2*
G1X18840Y14689D1*
G1X18540Y14389D2*
G1X18540Y14989D1*
G1X20130Y16109D2*
G1X20730Y16109D1*
G1X20430Y15809D2*
G1X20430Y16409D1*
G1X18290Y15549D2*
G1X18890Y15549D1*
G1X18590Y15249D2*
G1X18590Y15849D1*
G1X18970Y16269D2*
G1X19570Y16269D1*
G1X19270Y15969D2*
G1X19270Y16569D1*
G1X20310Y17169D2*
G1X20910Y17169D1*
G1X20610Y16869D2*
G1X20610Y17469D1*
G1X18160Y17089D2*
G1X18760Y17089D1*
G1X18460Y16789D2*
G1X18460Y17389D1*
G1X24550Y16469D2*
G1X25150Y16469D1*
G1X24850Y16169D2*
G1X24850Y16769D1*
G1X24270Y15001D2*
G1X24870Y15001D1*
G1X24570Y14701D2*
G1X24570Y15301D1*
G1X22220Y16429D2*
G1X22820Y16429D1*
G1X22520Y16129D2*
G1X22520Y16729D1*
G1X23720Y17319D2*
G1X24320Y17319D1*
G1X24020Y17019D2*
G1X24020Y17619D1*
G1X23360Y17339D2*
G1X23960Y17339D1*
G1X23660Y17039D2*
G1X23660Y17639D1*
G1X20880Y17219D2*
G1X21480Y17219D1*
G1X21180Y16919D2*
G1X21180Y17519D1*
G1X23020Y15029D2*
G1X23620Y15029D1*
G1X23320Y14729D2*
G1X23320Y15329D1*
G1X21420Y15689D2*
G1X22020Y15689D1*
G1X21720Y15389D2*
G1X21720Y15989D1*
G1X22565Y14644D2*
G1X23165Y14644D1*
G1X22865Y14344D2*
G1X22865Y14944D1*
G1X20770Y13729D2*
G1X21370Y13729D1*
G1X21070Y13429D2*
G1X21070Y14029D1*
G1X23320Y16279D2*
G1X23920Y16279D1*
G1X23620Y15979D2*
G1X23620Y16579D1*
G1X26240Y15869D2*
G1X26840Y15869D1*
G1X26540Y15569D2*
G1X26540Y16169D1*
G1X25860Y15869D2*
G1X26460Y15869D1*
G1X26160Y15569D2*
G1X26160Y16169D1*
G1X27880Y17439D2*
G1X28480Y17439D1*
G1X28180Y17139D2*
G1X28180Y17739D1*
G1X28710Y15572D2*
G1X29310Y15572D1*
G1X29010Y15272D2*
G1X29010Y15872D1*
G1X26705Y14484D2*
G1X27305Y14484D1*
G1X27005Y14184D2*
G1X27005Y14784D1*
G1X27430Y14709D2*
G1X28030Y14709D1*
G1X27730Y14409D2*
G1X27730Y15009D1*
G1X26820Y17129D2*
G1X27420Y17129D1*
G1X27120Y16829D2*
G1X27120Y17429D1*
G1X27100Y15289D2*
G1X27700Y15289D1*
G1X27400Y14989D2*
G1X27400Y15589D1*
G1X27030Y14679D2*
G1X27630Y14679D1*
G1X27330Y14379D2*
G1X27330Y14979D1*
G1X30320Y15271D2*
G1X30920Y15271D1*
G1X30620Y14971D2*
G1X30620Y15571D1*
G1X29500Y13929D2*
G1X30100Y13929D1*
G1X29800Y13629D2*
G1X29800Y14229D1*
G1X29750Y14309D2*
G1X30350Y14309D1*
G1X30050Y14009D2*
G1X30050Y14609D1*
G1X30230Y16789D2*
G1X30830Y16789D1*
G1X30530Y16489D2*
G1X30530Y17089D1*
G1X30270Y16069D2*
G1X30870Y16069D1*
G1X30570Y15769D2*
G1X30570Y16369D1*
G1X28960Y16599D2*
G1X29560Y16599D1*
G1X29260Y16299D2*
G1X29260Y16899D1*
G1X16543Y18939D2*
G1X17143Y18939D1*
G1X16843Y18639D2*
G1X16843Y19239D1*
G1X16060Y18859D2*
G1X16660Y18859D1*
G1X16360Y18559D2*
G1X16360Y19159D1*
G1X18808Y19009D2*
G1X19408Y19009D1*
G1X19108Y18709D2*
G1X19108Y19309D1*
G1X19320Y19009D2*
G1X19920Y19009D1*
G1X19620Y18709D2*
G1X19620Y19309D1*
G1X19700Y18999D2*
G1X20300Y18999D1*
G1X20000Y18699D2*
G1X20000Y19299D1*
G1X17020Y18879D2*
G1X17620Y18879D1*
G1X17320Y18579D2*
G1X17320Y19179D1*
G1X17408Y18729D2*
G1X18008Y18729D1*
G1X17708Y18429D2*
G1X17708Y19029D1*
G1X20110Y19009D2*
G1X20710Y19009D1*
G1X20410Y18709D2*
G1X20410Y19309D1*
G1X20510Y18999D2*
G1X21110Y18999D1*
G1X20810Y18699D2*
G1X20810Y19299D1*
G1X18296Y19009D2*
G1X18896Y19009D1*
G1X18596Y18709D2*
G1X18596Y19309D1*
G1X17734Y19009D2*
G1X18334Y19009D1*
G1X18034Y18709D2*
G1X18034Y19309D1*
G1X24260Y17509D2*
G1X24860Y17509D1*
G1X24560Y17209D2*
G1X24560Y17809D1*
G1X21380Y18989D2*
G1X21980Y18989D1*
G1X21680Y18689D2*
G1X21680Y19289D1*
G1X24090Y17839D2*
G1X24690Y17839D1*
G1X24390Y17539D2*
G1X24390Y18139D1*
G1X23360Y17829D2*
G1X23960Y17829D1*
G1X23660Y17529D2*
G1X23660Y18129D1*
G1X22670Y18209D2*
G1X23270Y18209D1*
G1X22970Y17909D2*
G1X22970Y18509D1*
G1X20860Y17769D2*
G1X21460Y17769D1*
G1X21160Y17469D2*
G1X21160Y18069D1*
G1X22670Y17849D2*
G1X23270Y17849D1*
G1X22970Y17549D2*
G1X22970Y18149D1*
G1X20860Y18289D2*
G1X21460Y18289D1*
G1X21160Y17989D2*
G1X21160Y18589D1*
G1X21000Y18979D2*
G1X21600Y18979D1*
G1X21300Y18679D2*
G1X21300Y19279D1*
G1X26520Y18449D2*
G1X27120Y18449D1*
G1X26820Y18149D2*
G1X26820Y18749D1*
G1X27880Y17839D2*
G1X28480Y17839D1*
G1X28180Y17539D2*
G1X28180Y18139D1*
G1X27870Y18236D2*
G1X28470Y18236D1*
G1X28170Y17936D2*
G1X28170Y18536D1*
G1X27860Y18669D2*
G1X28460Y18669D1*
G1X28160Y18369D2*
G1X28160Y18969D1*
G1X29190Y18551D2*
G1X29790Y18551D1*
G1X29490Y18251D2*
G1X29490Y18851D1*
G1X31794Y5601D2*
G54D11*
G1X31794Y12057D1*
G1X16032Y12057D1*
G1X15796Y10326D1*
G1X8448Y10326D1*
G1X8448Y5601D1*
G1X31794Y5601D1*
G1X21250Y5730D2*
G54D14*
G1X21850Y6330D1*
G1X21250Y6330D2*
G1X21850Y5730D1*
G1X19250Y5730D2*
G1X19850Y6330D1*
G1X19250Y6330D2*
G1X19850Y5730D1*
G1X20250Y5730D2*
G1X20850Y6330D1*
G1X20250Y6330D2*
G1X20850Y5730D1*
G1X22260Y5730D2*
G1X22860Y6330D1*
G1X22260Y6330D2*
G1X22860Y5730D1*
G1X18250Y5730D2*
G1X18850Y6330D1*
G1X18250Y6330D2*
G1X18850Y5730D1*
G1X8850Y6010D2*
G1X9450Y6010D1*
G1X9450Y6610D1*
G1X8850Y6610D1*
G1X8850Y6010D1*
G1X9150Y6310D2*
G1X9150Y6610D1*
G1X17660Y5900D2*
G1X18260Y5900D1*
G1X17960Y5600D2*
G1X17960Y6200D1*
G1X8720Y8303D2*
G1X9320Y8303D1*
G1X9020Y8003D2*
G1X9020Y8603D1*
G1X8710Y8933D2*
G1X9310Y8933D1*
G1X9010Y8633D2*
G1X9010Y9233D1*
G1X11250Y6430D2*
G1X11850Y6430D1*
G1X11550Y6130D2*
G1X11550Y6730D1*
G1X12550Y8330D2*
G1X13150Y8330D1*
G1X12850Y8030D2*
G1X12850Y8630D1*
G1X12220Y9750D2*
G1X12820Y9750D1*
G1X12520Y9450D2*
G1X12520Y10050D1*
G1X9616Y7590D2*
G1X10216Y7590D1*
G1X9916Y7290D2*
G1X9916Y7890D1*
G1X10720Y6810D2*
G1X11320Y6810D1*
G1X11020Y6510D2*
G1X11020Y7110D1*
G1X11660Y7690D2*
G1X12260Y7690D1*
G1X11960Y7390D2*
G1X11960Y7990D1*
G1X11400Y7379D2*
G1X12000Y7379D1*
G1X11700Y7079D2*
G1X11700Y7679D1*
G1X9650Y9310D2*
G1X10250Y9310D1*
G1X9950Y9010D2*
G1X9950Y9610D1*
G1X12120Y9380D2*
G1X12720Y9380D1*
G1X12420Y9080D2*
G1X12420Y9680D1*
G1X10620Y9710D2*
G1X11220Y9710D1*
G1X10920Y9410D2*
G1X10920Y10010D1*
G1X11070Y8180D2*
G1X11670Y8180D1*
G1X11370Y7880D2*
G1X11370Y8480D1*
G1X12730Y9850D2*
G1X13330Y9850D1*
G1X13030Y9550D2*
G1X13030Y10150D1*
G1X13330Y9750D2*
G1X13930Y9750D1*
G1X13630Y9450D2*
G1X13630Y10050D1*
G1X14260Y7930D2*
G1X14860Y7930D1*
G1X14560Y7630D2*
G1X14560Y8230D1*
G1X12910Y7410D2*
G1X13510Y7410D1*
G1X13210Y7110D2*
G1X13210Y7710D1*
G1X13700Y7880D2*
G1X14300Y7880D1*
G1X14000Y7580D2*
G1X14000Y8180D1*
G1X15500Y9180D2*
G1X16100Y9180D1*
G1X15800Y8880D2*
G1X15800Y9480D1*
G1X16170Y7680D2*
G1X16770Y7680D1*
G1X16470Y7380D2*
G1X16470Y7980D1*
G1X13280Y7510D2*
G1X13880Y7510D1*
G1X13580Y7210D2*
G1X13580Y7810D1*
G1X16060Y9100D2*
G1X16660Y9100D1*
G1X16360Y8800D2*
G1X16360Y9400D1*
G1X13730Y7520D2*
G1X14330Y7520D1*
G1X14030Y7220D2*
G1X14030Y7820D1*
G1X15790Y8710D2*
G1X16390Y8710D1*
G1X16090Y8410D2*
G1X16090Y9010D1*
G1X13100Y7890D2*
G1X13700Y7890D1*
G1X13400Y7590D2*
G1X13400Y8190D1*
G1X15500Y8150D2*
G1X16100Y8150D1*
G1X15800Y7850D2*
G1X15800Y8450D1*
G1X12970Y6510D2*
G1X13570Y6510D1*
G1X13270Y6210D2*
G1X13270Y6810D1*
G1X15540Y7070D2*
G1X16140Y7070D1*
G1X15840Y6770D2*
G1X15840Y7370D1*
G1X14600Y9360D2*
G1X15200Y9360D1*
G1X14900Y9060D2*
G1X14900Y9660D1*
G1X17190Y7410D2*
G1X17790Y7410D1*
G1X17490Y7110D2*
G1X17490Y7710D1*
G1X18230Y7050D2*
G1X18830Y7050D1*
G1X18530Y6750D2*
G1X18530Y7350D1*
G1X20520Y7670D2*
G1X21120Y7670D1*
G1X20820Y7370D2*
G1X20820Y7970D1*
G1X20240Y7440D2*
G1X20840Y7440D1*
G1X20540Y7140D2*
G1X20540Y7740D1*
G1X19870Y7360D2*
G1X20470Y7360D1*
G1X20170Y7060D2*
G1X20170Y7660D1*
G1X19910Y9860D2*
G1X20510Y9860D1*
G1X20210Y9560D2*
G1X20210Y10160D1*
G1X18610Y7410D2*
G1X19210Y7410D1*
G1X18910Y7110D2*
G1X18910Y7710D1*
G1X19380Y7010D2*
G1X19980Y7010D1*
G1X19680Y6710D2*
G1X19680Y7310D1*
G1X20510Y8720D2*
G1X21110Y8720D1*
G1X20810Y8420D2*
G1X20810Y9020D1*
G1X18240Y7420D2*
G1X18840Y7420D1*
G1X18540Y7120D2*
G1X18540Y7720D1*
G1X20130Y8840D2*
G1X20730Y8840D1*
G1X20430Y8540D2*
G1X20430Y9140D1*
G1X18290Y8280D2*
G1X18890Y8280D1*
G1X18590Y7980D2*
G1X18590Y8580D1*
G1X18970Y9000D2*
G1X19570Y9000D1*
G1X19270Y8700D2*
G1X19270Y9300D1*
G1X20310Y9900D2*
G1X20910Y9900D1*
G1X20610Y9600D2*
G1X20610Y10200D1*
G1X18160Y9820D2*
G1X18760Y9820D1*
G1X18460Y9520D2*
G1X18460Y10120D1*
G1X24550Y9200D2*
G1X25150Y9200D1*
G1X24850Y8900D2*
G1X24850Y9500D1*
G1X24270Y7732D2*
G1X24870Y7732D1*
G1X24570Y7432D2*
G1X24570Y8032D1*
G1X22220Y9160D2*
G1X22820Y9160D1*
G1X22520Y8860D2*
G1X22520Y9460D1*
G1X23720Y10050D2*
G1X24320Y10050D1*
G1X24020Y9750D2*
G1X24020Y10350D1*
G1X23360Y10070D2*
G1X23960Y10070D1*
G1X23660Y9770D2*
G1X23660Y10370D1*
G1X20880Y9950D2*
G1X21480Y9950D1*
G1X21180Y9650D2*
G1X21180Y10250D1*
G1X23020Y7760D2*
G1X23620Y7760D1*
G1X23320Y7460D2*
G1X23320Y8060D1*
G1X21420Y8420D2*
G1X22020Y8420D1*
G1X21720Y8120D2*
G1X21720Y8720D1*
G1X22565Y7375D2*
G1X23165Y7375D1*
G1X22865Y7075D2*
G1X22865Y7675D1*
G1X20770Y6460D2*
G1X21370Y6460D1*
G1X21070Y6160D2*
G1X21070Y6760D1*
G1X23320Y9010D2*
G1X23920Y9010D1*
G1X23620Y8710D2*
G1X23620Y9310D1*
G1X26240Y8600D2*
G1X26840Y8600D1*
G1X26540Y8300D2*
G1X26540Y8900D1*
G1X25860Y8600D2*
G1X26460Y8600D1*
G1X26160Y8300D2*
G1X26160Y8900D1*
G1X27880Y10170D2*
G1X28480Y10170D1*
G1X28180Y9870D2*
G1X28180Y10470D1*
G1X28710Y8304D2*
G1X29310Y8304D1*
G1X29010Y8004D2*
G1X29010Y8604D1*
G1X26705Y7215D2*
G1X27305Y7215D1*
G1X27005Y6915D2*
G1X27005Y7515D1*
G1X27430Y7440D2*
G1X28030Y7440D1*
G1X27730Y7140D2*
G1X27730Y7740D1*
G1X26820Y9860D2*
G1X27420Y9860D1*
G1X27120Y9560D2*
G1X27120Y10160D1*
G1X27100Y8020D2*
G1X27700Y8020D1*
G1X27400Y7720D2*
G1X27400Y8320D1*
G1X27030Y7410D2*
G1X27630Y7410D1*
G1X27330Y7110D2*
G1X27330Y7710D1*
G1X30320Y8002D2*
G1X30920Y8002D1*
G1X30620Y7702D2*
G1X30620Y8302D1*
G1X29500Y6660D2*
G1X30100Y6660D1*
G1X29800Y6360D2*
G1X29800Y6960D1*
G1X29750Y7040D2*
G1X30350Y7040D1*
G1X30050Y6740D2*
G1X30050Y7340D1*
G1X30230Y9520D2*
G1X30830Y9520D1*
G1X30530Y9220D2*
G1X30530Y9820D1*
G1X30270Y8800D2*
G1X30870Y8800D1*
G1X30570Y8500D2*
G1X30570Y9100D1*
G1X28960Y9330D2*
G1X29560Y9330D1*
G1X29260Y9030D2*
G1X29260Y9630D1*
G1X16543Y11670D2*
G1X17143Y11670D1*
G1X16843Y11370D2*
G1X16843Y11970D1*
G1X16060Y11590D2*
G1X16660Y11590D1*
G1X16360Y11290D2*
G1X16360Y11890D1*
G1X18807Y11740D2*
G1X19407Y11740D1*
G1X19107Y11440D2*
G1X19107Y12040D1*
G1X19319Y11740D2*
G1X19919Y11740D1*
G1X19619Y11440D2*
G1X19619Y12040D1*
G1X19700Y11730D2*
G1X20300Y11730D1*
G1X20000Y11430D2*
G1X20000Y12030D1*
G1X17020Y11610D2*
G1X17620Y11610D1*
G1X17320Y11310D2*
G1X17320Y11910D1*
G1X17408Y11460D2*
G1X18008Y11460D1*
G1X17708Y11160D2*
G1X17708Y11760D1*
G1X20110Y11740D2*
G1X20710Y11740D1*
G1X20410Y11440D2*
G1X20410Y12040D1*
G1X20510Y11730D2*
G1X21110Y11730D1*
G1X20810Y11430D2*
G1X20810Y12030D1*
G1X18296Y11740D2*
G1X18896Y11740D1*
G1X18596Y11440D2*
G1X18596Y12040D1*
G1X17734Y11740D2*
G1X18334Y11740D1*
G1X18034Y11440D2*
G1X18034Y12040D1*
G1X24260Y10240D2*
G1X24860Y10240D1*
G1X24560Y9940D2*
G1X24560Y10540D1*
G1X21380Y11720D2*
G1X21980Y11720D1*
G1X21680Y11420D2*
G1X21680Y12020D1*
G1X24090Y10570D2*
G1X24690Y10570D1*
G1X24390Y10270D2*
G1X24390Y10870D1*
G1X23360Y10560D2*
G1X23960Y10560D1*
G1X23660Y10260D2*
G1X23660Y10860D1*
G1X22670Y10940D2*
G1X23270Y10940D1*
G1X22970Y10640D2*
G1X22970Y11240D1*
G1X20860Y10500D2*
G1X21460Y10500D1*
G1X21160Y10200D2*
G1X21160Y10800D1*
G1X22670Y10580D2*
G1X23270Y10580D1*
G1X22970Y10280D2*
G1X22970Y10880D1*
G1X20860Y11020D2*
G1X21460Y11020D1*
G1X21160Y10720D2*
G1X21160Y11320D1*
G1X21000Y11710D2*
G1X21600Y11710D1*
G1X21300Y11410D2*
G1X21300Y12010D1*
G1X26520Y11180D2*
G1X27120Y11180D1*
G1X26820Y10880D2*
G1X26820Y11480D1*
G1X27880Y10570D2*
G1X28480Y10570D1*
G1X28180Y10270D2*
G1X28180Y10870D1*
G1X27870Y10968D2*
G1X28470Y10968D1*
G1X28170Y10668D2*
G1X28170Y11268D1*
G1X27860Y11400D2*
G1X28460Y11400D1*
G1X28160Y11100D2*
G1X28160Y11700D1*
G1X29190Y11283D2*
G1X29790Y11283D1*
G1X29490Y10983D2*
G1X29490Y11583D1*
G1X5874Y53661D2*
G54D11*
G1X31674Y53661D1*
G1X5874Y51261D2*
G1X31674Y51261D1*
G1X5874Y48861D2*
G1X31674Y48861D1*
G1X5874Y46461D2*
G1X31674Y46461D1*
G1X5874Y44061D2*
G1X31674Y44061D1*
G1X5874Y53661D2*
G1X5874Y44061D1*
G1X14274Y53661D2*
G1X14274Y44061D1*
G1X17874Y53661D2*
G1X17874Y44061D1*
G1X21474Y53661D2*
G1X21474Y44061D1*
G1X26874Y53661D2*
G1X26874Y44061D1*
G1X31674Y53661D2*
G1X31674Y44061D1*
G1X9434Y52536D2*
G54D14*
G1X9380Y52611D1*
G1X9298Y52649D1*
G1X9189Y52649D1*
G1X9107Y52611D1*
G1X9052Y52536D1*
G1X9052Y52461D1*
G1X9080Y52386D1*
G1X9107Y52349D1*
G1X9161Y52311D1*
G1X9325Y52236D1*
G1X9380Y52199D1*
G1X9407Y52161D1*
G1X9434Y52086D1*
G1X9434Y51974D1*
G1X9380Y51899D1*
G1X9298Y51861D1*
G1X9189Y51861D1*
G1X9107Y51899D1*
G1X9052Y51974D1*
G1X9680Y52649D2*
G1X9680Y51861D1*
G1X10307Y52649D2*
G1X9925Y51861D1*
G1X9925Y52649D2*
G1X10307Y52649D1*
G1X9925Y51861D2*
G1X10307Y51861D1*
G1X10552Y52649D2*
G1X10552Y51861D1*
G1X10552Y52649D2*
G1X10907Y52649D1*
G1X10552Y52274D2*
G1X10771Y52274D1*
G1X10552Y51861D2*
G1X10907Y51861D1*
G1X15271Y52649D2*
G1X15216Y52611D1*
G1X15161Y52536D1*
G1X15134Y52461D1*
G1X15107Y52349D1*
G1X15107Y52161D1*
G1X15134Y52049D1*
G1X15161Y51974D1*
G1X15216Y51899D1*
G1X15271Y51861D1*
G1X15380Y51861D1*
G1X15434Y51899D1*
G1X15489Y51974D1*
G1X15516Y52049D1*
G1X15543Y52161D1*
G1X15543Y52349D1*
G1X15516Y52461D1*
G1X15489Y52536D1*
G1X15434Y52611D1*
G1X15380Y52649D1*
G1X15271Y52649D1*
G1X15352Y52011D2*
G1X15516Y51786D1*
G1X15980Y52649D2*
G1X15980Y51861D1*
G1X15789Y52649D2*
G1X16171Y52649D1*
G1X16416Y52649D2*
G1X16634Y52274D1*
G1X16634Y51861D1*
G1X16852Y52649D2*
G1X16634Y52274D1*
G1X19089Y52536D2*
G1X19034Y52611D1*
G1X18952Y52649D1*
G1X18843Y52649D1*
G1X18761Y52611D1*
G1X18707Y52536D1*
G1X18707Y52461D1*
G1X18734Y52386D1*
G1X18761Y52349D1*
G1X18816Y52311D1*
G1X18980Y52236D1*
G1X19034Y52199D1*
G1X19061Y52161D1*
G1X19089Y52086D1*
G1X19089Y51974D1*
G1X19034Y51899D1*
G1X18952Y51861D1*
G1X18843Y51861D1*
G1X18761Y51899D1*
G1X18707Y51974D1*
G1X19334Y52649D2*
G1X19552Y52274D1*
G1X19552Y51861D1*
G1X19771Y52649D2*
G1X19552Y52274D1*
G1X20016Y52649D2*
G1X20016Y51861D1*
G1X20016Y52649D2*
G1X20234Y51861D1*
G1X20452Y52649D1*
G1X20452Y51861D1*
G1X22634Y52649D2*
G1X22634Y51861D1*
G1X22634Y52649D2*
G1X22880Y52649D1*
G1X22961Y52611D1*
G1X22989Y52574D1*
G1X23016Y52499D1*
G1X23016Y52386D1*
G1X22989Y52311D1*
G1X22961Y52274D1*
G1X22880Y52236D1*
G1X22634Y52236D1*
G1X23261Y52649D2*
G1X23261Y51861D1*
G1X23589Y51861D1*
G1X24052Y52649D2*
G1X23834Y51861D1*
G1X24052Y52649D2*
G1X24271Y51861D1*
G1X23916Y52124D2*
G1X24189Y52124D1*
G1X24707Y52649D2*
G1X24707Y51861D1*
G1X24516Y52649D2*
G1X24898Y52649D1*
G1X25143Y52649D2*
G1X25143Y51861D1*
G1X25143Y52649D2*
G1X25498Y52649D1*
G1X25143Y52274D2*
G1X25361Y52274D1*
G1X25143Y51861D2*
G1X25498Y51861D1*
G1X25743Y52649D2*
G1X25743Y51861D1*
G1X25743Y52649D2*
G1X25934Y52649D1*
G1X26016Y52611D1*
G1X26071Y52536D1*
G1X26098Y52461D1*
G1X26125Y52349D1*
G1X26125Y52161D1*
G1X26098Y52049D1*
G1X26071Y51974D1*
G1X26016Y51899D1*
G1X25934Y51861D1*
G1X25743Y51861D1*
G1X28552Y52649D2*
G1X28552Y51861D1*
G1X28361Y52649D2*
G1X28743Y52649D1*
G1X29152Y52649D2*
G1X29098Y52611D1*
G1X29043Y52536D1*
G1X29016Y52461D1*
G1X28989Y52349D1*
G1X28989Y52161D1*
G1X29016Y52049D1*
G1X29043Y51974D1*
G1X29098Y51899D1*
G1X29152Y51861D1*
G1X29261Y51861D1*
G1X29316Y51899D1*
G1X29371Y51974D1*
G1X29398Y52049D1*
G1X29425Y52161D1*
G1X29425Y52349D1*
G1X29398Y52461D1*
G1X29371Y52536D1*
G1X29316Y52611D1*
G1X29261Y52649D1*
G1X29152Y52649D1*
G1X29671Y52649D2*
G1X29671Y51861D1*
G1X29998Y51861D1*
G1X6474Y50099D2*
G1X6529Y50136D1*
G1X6611Y50249D1*
G1X6611Y49461D1*
G1X7183Y50136D2*
G1X7156Y50211D1*
G1X7074Y50249D1*
G1X7020Y50249D1*
G1X6938Y50211D1*
G1X6883Y50099D1*
G1X6856Y49911D1*
G1X6856Y49724D1*
G1X6883Y49574D1*
G1X6938Y49499D1*
G1X7020Y49461D1*
G1X7047Y49461D1*
G1X7129Y49499D1*
G1X7183Y49574D1*
G1X7211Y49686D1*
G1X7211Y49724D1*
G1X7183Y49836D1*
G1X7129Y49911D1*
G1X7047Y49949D1*
G1X7020Y49949D1*
G1X6938Y49911D1*
G1X6883Y49836D1*
G1X6856Y49724D1*
G1X15857Y49986D2*
G1X15830Y49874D1*
G1X15775Y49799D1*
G1X15693Y49761D1*
G1X15666Y49761D1*
G1X15584Y49799D1*
G1X15530Y49874D1*
G1X15502Y49986D1*
G1X15502Y50024D1*
G1X15530Y50136D1*
G1X15584Y50211D1*
G1X15666Y50249D1*
G1X15693Y50249D1*
G1X15775Y50211D1*
G1X15830Y50136D1*
G1X15857Y49986D1*
G1X15857Y49799D1*
G1X15830Y49611D1*
G1X15775Y49499D1*
G1X15693Y49461D1*
G1X15639Y49461D1*
G1X15557Y49499D1*
G1X15530Y49574D1*
G1X16430Y50136D2*
G1X16402Y50211D1*
G1X16321Y50249D1*
G1X16266Y50249D1*
G1X16184Y50211D1*
G1X16130Y50099D1*
G1X16102Y49911D1*
G1X16102Y49724D1*
G1X16130Y49574D1*
G1X16184Y49499D1*
G1X16266Y49461D1*
G1X16293Y49461D1*
G1X16375Y49499D1*
G1X16430Y49574D1*
G1X16457Y49686D1*
G1X16457Y49724D1*
G1X16430Y49836D1*
G1X16375Y49911D1*
G1X16293Y49949D1*
G1X16266Y49949D1*
G1X16184Y49911D1*
G1X16130Y49836D1*
G1X16102Y49724D1*
G1X19074Y50061D2*
G1X20274Y50061D1*
G1X19674Y49461D2*
G1X19674Y50661D1*
G1X22348Y50249D2*
G1X22566Y49874D1*
G1X22566Y49461D1*
G1X22784Y50249D2*
G1X22566Y49874D1*
G1X23030Y50249D2*
G1X23030Y49461D1*
G1X23030Y50249D2*
G1X23384Y50249D1*
G1X23030Y49874D2*
G1X23248Y49874D1*
G1X23030Y49461D2*
G1X23384Y49461D1*
G1X24011Y50136D2*
G1X23957Y50211D1*
G1X23875Y50249D1*
G1X23766Y50249D1*
G1X23684Y50211D1*
G1X23630Y50136D1*
G1X23630Y50061D1*
G1X23657Y49986D1*
G1X23684Y49949D1*
G1X23739Y49911D1*
G1X23902Y49836D1*
G1X23957Y49799D1*
G1X23984Y49761D1*
G1X24011Y49686D1*
G1X24011Y49574D1*
G1X23957Y49499D1*
G1X23875Y49461D1*
G1X23766Y49461D1*
G1X23684Y49499D1*
G1X23630Y49574D1*
G1X28130Y50136D2*
G1X28130Y49461D1*
G1X27884Y49799D2*
G1X28375Y49799D1*
G1X29111Y50399D2*
G1X28621Y49199D1*
G1X29357Y49799D2*
G1X29848Y49799D1*
G1X30121Y50061D2*
G1X30121Y50099D1*
G1X30148Y50174D1*
G1X30175Y50211D1*
G1X30230Y50249D1*
G1X30339Y50249D1*
G1X30393Y50211D1*
G1X30421Y50174D1*
G1X30448Y50099D1*
G1X30448Y50024D1*
G1X30421Y49949D1*
G1X30366Y49836D1*
G1X30093Y49461D1*
G1X30475Y49461D1*
G1X6529Y47849D2*
G1X6829Y47849D1*
G1X6665Y47549D1*
G1X6747Y47549D1*
G1X6801Y47511D1*
G1X6829Y47474D1*
G1X6856Y47361D1*
G1X6856Y47286D1*
G1X6829Y47174D1*
G1X6774Y47099D1*
G1X6692Y47061D1*
G1X6611Y47061D1*
G1X6529Y47099D1*
G1X6501Y47136D1*
G1X6474Y47211D1*
G1X7456Y47586D2*
G1X7429Y47474D1*
G1X7374Y47399D1*
G1X7292Y47361D1*
G1X7265Y47361D1*
G1X7183Y47399D1*
G1X7129Y47474D1*
G1X7101Y47586D1*
G1X7101Y47624D1*
G1X7129Y47736D1*
G1X7183Y47811D1*
G1X7265Y47849D1*
G1X7292Y47849D1*
G1X7374Y47811D1*
G1X7429Y47736D1*
G1X7456Y47586D1*
G1X7456Y47399D1*
G1X7429Y47211D1*
G1X7374Y47099D1*
G1X7292Y47061D1*
G1X7238Y47061D1*
G1X7156Y47099D1*
G1X7129Y47174D1*
G1X7729Y47136D2*
G1X7701Y47099D1*
G1X7729Y47061D1*
G1X7756Y47099D1*
G1X7729Y47136D1*
G1X8056Y47849D2*
G1X8356Y47849D1*
G1X8192Y47549D1*
G1X8274Y47549D1*
G1X8329Y47511D1*
G1X8356Y47474D1*
G1X8383Y47361D1*
G1X8383Y47286D1*
G1X8356Y47174D1*
G1X8301Y47099D1*
G1X8220Y47061D1*
G1X8138Y47061D1*
G1X8056Y47099D1*
G1X8029Y47136D1*
G1X8001Y47211D1*
G1X9011Y47849D2*
G1X8738Y47061D1*
G1X8629Y47849D2*
G1X9011Y47849D1*
G1X16130Y47849D2*
G1X15857Y47849D1*
G1X15830Y47511D1*
G1X15857Y47549D1*
G1X15939Y47586D1*
G1X16021Y47586D1*
G1X16102Y47549D1*
G1X16157Y47474D1*
G1X16184Y47361D1*
G1X16157Y47286D1*
G1X16130Y47174D1*
G1X16075Y47099D1*
G1X15993Y47061D1*
G1X15911Y47061D1*
G1X15830Y47099D1*
G1X15802Y47136D1*
G1X15775Y47211D1*
G1X19074Y47061D2*
G1X20274Y48261D1*
G1X19074Y48261D2*
G1X20274Y47061D1*
G1X22348Y47849D2*
G1X22566Y47474D1*
G1X22566Y47061D1*
G1X22784Y47849D2*
G1X22566Y47474D1*
G1X23030Y47849D2*
G1X23030Y47061D1*
G1X23030Y47849D2*
G1X23384Y47849D1*
G1X23030Y47474D2*
G1X23248Y47474D1*
G1X23030Y47061D2*
G1X23384Y47061D1*
G1X24011Y47736D2*
G1X23957Y47811D1*
G1X23875Y47849D1*
G1X23766Y47849D1*
G1X23684Y47811D1*
G1X23630Y47736D1*
G1X23630Y47661D1*
G1X23657Y47586D1*
G1X23684Y47549D1*
G1X23739Y47511D1*
G1X23902Y47436D1*
G1X23957Y47399D1*
G1X23984Y47361D1*
G1X24011Y47286D1*
G1X24011Y47174D1*
G1X23957Y47099D1*
G1X23875Y47061D1*
G1X23766Y47061D1*
G1X23684Y47099D1*
G1X23630Y47174D1*
G1X28130Y47736D2*
G1X28130Y47061D1*
G1X27884Y47399D2*
G1X28375Y47399D1*
G1X29111Y47999D2*
G1X28621Y46799D1*
G1X29357Y47399D2*
G1X29848Y47399D1*
G1X30121Y47661D2*
G1X30121Y47699D1*
G1X30148Y47774D1*
G1X30175Y47811D1*
G1X30230Y47849D1*
G1X30339Y47849D1*
G1X30393Y47811D1*
G1X30421Y47774D1*
G1X30448Y47699D1*
G1X30448Y47624D1*
G1X30421Y47549D1*
G1X30366Y47436D1*
G1X30093Y47061D1*
G1X30475Y47061D1*
G1X6856Y45449D2*
G1X6583Y44661D1*
G1X6474Y45449D2*
G1X6856Y45449D1*
G1X7374Y45449D2*
G1X7101Y44924D1*
G1X7511Y44924D1*
G1X7374Y45449D2*
G1X7374Y44661D1*
G1X7783Y44736D2*
G1X7756Y44699D1*
G1X7783Y44661D1*
G1X7811Y44699D1*
G1X7783Y44736D1*
G1X8192Y45449D2*
G1X8111Y45411D1*
G1X8083Y45336D1*
G1X8083Y45261D1*
G1X8111Y45186D1*
G1X8165Y45149D1*
G1X8274Y45111D1*
G1X8356Y45074D1*
G1X8411Y44999D1*
G1X8438Y44924D1*
G1X8438Y44811D1*
G1X8411Y44736D1*
G1X8383Y44699D1*
G1X8301Y44661D1*
G1X8192Y44661D1*
G1X8111Y44699D1*
G1X8083Y44736D1*
G1X8056Y44811D1*
G1X8056Y44924D1*
G1X8083Y44999D1*
G1X8138Y45074D1*
G1X8220Y45111D1*
G1X8329Y45149D1*
G1X8383Y45186D1*
G1X8411Y45261D1*
G1X8411Y45336D1*
G1X8383Y45411D1*
G1X8301Y45449D1*
G1X8192Y45449D1*
G1X15911Y45299D2*
G1X15966Y45336D1*
G1X16048Y45449D1*
G1X16048Y44661D1*
G1X19074Y44661D2*
G1X20274Y44661D1*
G1X20274Y45861D1*
G1X19074Y45861D1*
G1X19074Y44661D1*
G1X19674Y45261D2*
G1X19674Y45861D1*
G1X22348Y45449D2*
G1X22566Y45074D1*
G1X22566Y44661D1*
G1X22784Y45449D2*
G1X22566Y45074D1*
G1X23030Y45449D2*
G1X23030Y44661D1*
G1X23030Y45449D2*
G1X23384Y45449D1*
G1X23030Y45074D2*
G1X23248Y45074D1*
G1X23030Y44661D2*
G1X23384Y44661D1*
G1X24011Y45336D2*
G1X23957Y45411D1*
G1X23875Y45449D1*
G1X23766Y45449D1*
G1X23684Y45411D1*
G1X23630Y45336D1*
G1X23630Y45261D1*
G1X23657Y45186D1*
G1X23684Y45149D1*
G1X23739Y45111D1*
G1X23902Y45036D1*
G1X23957Y44999D1*
G1X23984Y44961D1*
G1X24011Y44886D1*
G1X24011Y44774D1*
G1X23957Y44699D1*
G1X23875Y44661D1*
G1X23766Y44661D1*
G1X23684Y44699D1*
G1X23630Y44774D1*
G1X28130Y45336D2*
G1X28130Y44661D1*
G1X27884Y44999D2*
G1X28375Y44999D1*
G1X29111Y45599D2*
G1X28621Y44399D1*
G1X29357Y44999D2*
G1X29848Y44999D1*
G1X30121Y45261D2*
G1X30121Y45299D1*
G1X30148Y45374D1*
G1X30175Y45411D1*
G1X30230Y45449D1*
G1X30339Y45449D1*
G1X30393Y45411D1*
G1X30421Y45374D1*
G1X30448Y45299D1*
G1X30448Y45224D1*
G1X30421Y45149D1*
G1X30366Y45036D1*
G1X30093Y44661D1*
G1X30475Y44661D1*
M2*
