*
*
G04 PADS VX.2.8 Build Number: 19810023 generated Gerber (RS-274-X) file*
G04 PC Version=2.1*
*
%IN "FT2R_2.pcb"*%
*
%MOIN*%
*
%FSLAX35Y35*%
*
*
*
*
G04 PC Standard Apertures*
*
*
G04 Thermal Relief Aperture macro.*
%AMTER*
1,1,$1,0,0*
1,0,$1-$2,0,0*
21,0,$3,$4,0,0,45*
21,0,$3,$4,0,0,135*
%
*
*
G04 Annular Aperture macro.*
%AMANN*
1,1,$1,0,0*
1,0,$2,0,0*
%
*
*
G04 Odd Aperture macro.*
%AMODD*
1,1,$1,0,0*
1,0,$1-0.005,0,0*
%
*
*
G04 PC Custom Aperture Macros*
*
*
*
*
*
*
G04 PC Aperture Table*
*
%ADD010C,0.001*%
%ADD013C,0.00394*%
%ADD014C,0.01*%
%ADD105C,0*%
*
*
*
*
G04 PC Circuitry*
G04 Layer Name FT2R_2.pcb - circuitry*
%LPD*%
*
*
G04 PC Custom Flashes*
G04 Layer Name FT2R_2.pcb - flashes*
%LPD*%
*
*
G04 PC Circuitry*
G04 Layer Name FT2R_2.pcb - circuitry*
%LPD*%
*
G54D10*
G01X393823Y458236D02*
X393825D01*
X477197Y396642D02*
X477199D01*
X403657Y362181D02*
X403660D01*
X411654Y470173D02*
X411656D01*
G54D13*
X419601Y490581D02*
Y490893D01*
X419828Y491518*
X420055Y491831*
X420510Y492143*
X421419*
X421873Y491831*
X422101Y491518*
X422328Y490893*
Y490268*
X422101Y489643*
X421646Y488706*
X419373Y485581*
X422555*
X424601Y490893D02*
X425055Y491206D01*
X425737Y492143*
Y485581*
X428010Y486206D02*
X427783Y485893D01*
X428010Y485581*
X428237Y485893*
X428010Y486206*
X430283Y490893D02*
X430737Y491206D01*
X431419Y492143*
Y485581*
X434601Y492143D02*
X433919Y491831D01*
X433692Y491206*
Y490581*
X433919Y489956*
X434373Y489643*
X435283Y489331*
X435964Y489018*
X436419Y488393*
X436646Y487768*
Y486831*
X436419Y486206*
X436192Y485893*
X435510Y485581*
X434601*
X433919Y485893*
X433692Y486206*
X433464Y486831*
Y487768*
X433692Y488393*
X434146Y489018*
X434828Y489331*
X435737Y489643*
X436192Y489956*
X436419Y490581*
Y491206*
X436192Y491831*
X435510Y492143*
X434601*
X438692Y489956D02*
Y485581D01*
Y488706D02*
X439373Y489643D01*
X439828Y489956*
X440510*
X440964Y489643*
X441192Y488706*
Y485581*
Y488706D02*
X441873Y489643D01*
X442328Y489956*
X443010*
X443464Y489643*
X443692Y488706*
Y485581*
X445737Y489956D02*
Y485581D01*
Y488706D02*
X446419Y489643D01*
X446873Y489956*
X447555*
X448010Y489643*
X448237Y488706*
Y485581*
Y488706D02*
X448919Y489643D01*
X449373Y489956*
X450055*
X450510Y489643*
X450737Y488706*
Y485581*
X478507Y417427D02*
Y417740D01*
X478734Y418365*
X478961Y418677*
X479416Y418990*
X480325*
X480779Y418677*
X481007Y418365*
X481234Y417740*
Y417115*
X481007Y416490*
X480552Y415552*
X478279Y412427*
X481461*
X486688Y418990D02*
X484416Y412427D01*
X483507Y418990D02*
X486688D01*
X488961Y413052D02*
X488734Y412740D01*
X488961Y412427*
X489188Y412740*
X488961Y413052*
X493507Y418990D02*
X491234Y414615D01*
X494643*
X493507Y418990D02*
Y412427D01*
X497143Y418990D02*
X499643D01*
X498279Y416490*
X498961*
X499416Y416177*
X499643Y415865*
X499870Y414927*
Y414302*
X499643Y413365*
X499188Y412740*
X498507Y412427*
X497825*
X497143Y412740*
X496916Y413052*
X496688Y413677*
X501916Y416802D02*
Y412427D01*
Y415552D02*
X502598Y416490D01*
X503052Y416802*
X503734*
X504188Y416490*
X504416Y415552*
Y412427*
Y415552D02*
X505098Y416490D01*
X505552Y416802*
X506234*
X506688Y416490*
X506916Y415552*
Y412427*
X508961Y416802D02*
Y412427D01*
Y415552D02*
X509643Y416490D01*
X510098Y416802*
X510779*
X511234Y416490*
X511461Y415552*
Y412427*
Y415552D02*
X512143Y416490D01*
X512598Y416802*
X513279*
X513734Y416490*
X513961Y415552*
Y412427*
X393823Y489331D02*
X416373D01*
X393823D02*
X403823Y491831D01*
Y486831*
X393823Y489331*
X477197D02*
X454646D01*
X477197D02*
X467197Y486831D01*
Y491831*
X477197Y489331*
X393823Y463236D02*
Y494331D01*
X477197Y401642D02*
Y494331D01*
X496575Y362181D02*
Y409427D01*
Y362181D02*
X494075Y372181D01*
X499075*
X496575Y362181*
Y470173D02*
Y422927D01*
Y470173D02*
X499075Y460173D01*
X494075*
X496575Y470173*
X408657Y362181D02*
X501575D01*
X416654Y470173D02*
X501575D01*
G54D14*
X403087Y364961D02*
X411087D01*
X407087Y360961D02*
Y368961D01*
X395213Y370276D02*
X403213D01*
X399213Y366276D02*
Y374276D01*
X402142Y370079D02*
X410142D01*
X406142Y366079D02*
Y374079D01*
X395803Y364961D02*
X403803D01*
X399803Y360961D02*
Y368961D01*
X413520Y369882D02*
X421520D01*
X417520Y365882D02*
Y373882D01*
X426764Y373382D02*
X434764D01*
X430764Y369382D02*
Y377382D01*
X406630Y381412D02*
X414630D01*
X410630Y377412D02*
Y385412D01*
X404031Y375512D02*
X412031D01*
X408031Y371512D02*
Y379512D01*
X400409Y386063D02*
X408409D01*
X404409Y382063D02*
Y390063D01*
X422102Y369449D02*
X430102D01*
X426102Y365449D02*
Y373449D01*
X424937Y373386D02*
X432937D01*
X428937Y369386D02*
Y377386D01*
X424937Y379331D02*
X432937D01*
X428937Y375331D02*
Y383331D01*
X431748Y376535D02*
X439748D01*
X435748Y372535D02*
Y380535D01*
X415488Y371181D02*
X423488D01*
X419488Y367181D02*
Y375181D01*
X415724Y378268D02*
X423724D01*
X419724Y374268D02*
Y382268D01*
X409228Y373307D02*
X417228D01*
X413228Y369307D02*
Y377307D01*
X444819Y398661D02*
X452819D01*
X448819Y394661D02*
Y402661D01*
X430764Y411772D02*
X438764D01*
X434764Y407772D02*
Y415772D01*
X413047Y410787D02*
X421047D01*
X417047Y406787D02*
Y414787D01*
X408520Y446220D02*
X416520D01*
X412520Y442220D02*
Y450220D01*
X410646Y428661D02*
X418646D01*
X414646Y424661D02*
Y432661D01*
X398008Y408701D02*
X406008D01*
X402008Y404701D02*
Y412701D01*
X399701Y427559D02*
X407701D01*
X403701Y423559D02*
Y431559D01*
X438323Y418701D02*
X446323D01*
X442323Y414701D02*
Y422701D01*
X447575Y425827D02*
X455575D01*
X451575Y421827D02*
Y429827D01*
X404071Y463268D02*
X412071D01*
X408071Y459268D02*
Y467268D01*
X402063Y448110D02*
X410063D01*
X406063Y444110D02*
Y452110D01*
X433071Y599181D02*
X691071D01*
X433071Y575181D02*
X691071D01*
X433071Y551181D02*
X691071D01*
X433071Y599181D02*
Y551181D01*
X517071Y599181D02*
Y551181D01*
X553071Y599181D02*
Y551181D01*
X589071Y599181D02*
Y551181D01*
X643071Y599181D02*
Y551181D01*
X691071Y599181D02*
Y551181D01*
X468571Y587931D02*
X468025Y588681D01*
X467207Y589056*
X466116*
X465298Y588681*
X464753Y587931*
Y587181*
X465025Y586431*
X465298Y586056*
X465844Y585681*
X467480Y584931*
X468025Y584556*
X468298Y584181*
X468571Y583431*
Y582306*
X468025Y581556*
X467207Y581181*
X466116*
X465298Y581556*
X464753Y582306*
X471025Y589056D02*
Y581181D01*
X477298Y589056D02*
X473480Y581181D01*
Y589056D02*
X477298D01*
X473480Y581181D02*
X477298D01*
X479753Y589056D02*
Y581181D01*
Y589056D02*
X483298D01*
X479753Y585306D02*
X481935D01*
X479753Y581181D02*
X483298D01*
X526935Y589056D02*
X526389Y588681D01*
X525844Y587931*
X525571Y587181*
X525298Y586056*
Y584181*
X525571Y583056*
X525844Y582306*
X526389Y581556*
X526935Y581181*
X528025*
X528571Y581556*
X529116Y582306*
X529389Y583056*
X529662Y584181*
Y586056*
X529389Y587181*
X529116Y587931*
X528571Y588681*
X528025Y589056*
X526935*
X527753Y582681D02*
X529389Y580431D01*
X534025Y589056D02*
Y581181D01*
X532116Y589056D02*
X535935D01*
X538389D02*
X540571Y585306D01*
Y581181*
X542753Y589056D02*
X540571Y585306D01*
X565116Y587931D02*
X564571Y588681D01*
X563753Y589056*
X562662*
X561844Y588681*
X561298Y587931*
Y587181*
X561571Y586431*
X561844Y586056*
X562389Y585681*
X564025Y584931*
X564571Y584556*
X564844Y584181*
X565116Y583431*
Y582306*
X564571Y581556*
X563753Y581181*
X562662*
X561844Y581556*
X561298Y582306*
X567571Y589056D02*
X569753Y585306D01*
Y581181*
X571935Y589056D02*
X569753Y585306D01*
X574389Y589056D02*
Y581181D01*
Y589056D02*
X576571Y581181D01*
X578753Y589056D02*
X576571Y581181D01*
X578753Y589056D02*
Y581181D01*
X600571Y589056D02*
Y581181D01*
Y589056D02*
X603025D01*
X603844Y588681*
X604116Y588306*
X604389Y587556*
Y586431*
X604116Y585681*
X603844Y585306*
X603025Y584931*
X600571*
X606844Y589056D02*
Y581181D01*
X610116*
X614753Y589056D02*
X612571Y581181D01*
X614753Y589056D02*
X616935Y581181D01*
X613389Y583806D02*
X616116D01*
X621298Y589056D02*
Y581181D01*
X619389Y589056D02*
X623207D01*
X625662D02*
Y581181D01*
Y589056D02*
X629207D01*
X625662Y585306D02*
X627844D01*
X625662Y581181D02*
X629207D01*
X631662Y589056D02*
Y581181D01*
Y589056D02*
X633571D01*
X634389Y588681*
X634935Y587931*
X634935D02*
X635207Y587181D01*
X635480Y586056*
Y584181*
X635207Y583056*
X634935Y582306*
X634935D02*
X634389Y581556D01*
X633571Y581181*
X631662*
X659753Y589056D02*
Y581181D01*
X657844Y589056D02*
X661662D01*
X665753D02*
X665207Y588681D01*
X664662Y587931*
X664389Y587181*
X664116Y586056*
Y584181*
X664389Y583056*
X664662Y582306*
X665207Y581556*
X665753Y581181*
X666844*
X667389Y581556*
X667935Y582306*
X667935D02*
X668207Y583056D01*
X668480Y584181*
Y586056*
X668207Y587181*
X667935Y587931*
X667935D02*
X667389Y588681D01*
X666844Y589056*
X665753*
X670935D02*
Y581181D01*
X670935D02*
X674207D01*
X440707Y565056D02*
X439889Y564681D01*
X439344Y563556*
X439071Y561681*
Y560556*
X439344Y558681*
X439889Y557556*
X440707Y557181*
X441253*
X442071Y557556*
X442616Y558681*
X442889Y560556*
Y561681*
X442616Y563556*
X442071Y564681*
X441253Y565056*
X440707*
X445616Y557931D02*
X445344Y557556D01*
X445616Y557181*
X445889Y557556*
X445616Y557931*
X448344Y563556D02*
X448889Y563931D01*
X449707Y565056*
Y557181*
X455707Y565056D02*
X452980D01*
X452707Y561681*
X452980Y562056*
X453798Y562431*
X454616*
X455435Y562056*
X455435D02*
X455980Y561306D01*
X456253Y560181*
X455980Y559431*
X455707Y558306*
X455162Y557556*
X454344Y557181*
X453525*
X452707Y557556*
X452435Y557931*
X452435D02*
X452162Y558681D01*
X529253Y563181D02*
Y563556D01*
X529525Y564306*
X529798Y564681*
X530344Y565056*
X531435*
X531980Y564681*
X532253Y564306*
X532525Y563556*
Y562806*
X532253Y562056*
X531707Y560931*
X528980Y557181*
X532798*
X539071Y565056D02*
X536344Y557181D01*
X535253Y565056D02*
X539071D01*
X565071Y563181D02*
X577071D01*
X571071Y557181D02*
Y569181D01*
X597707Y565056D02*
X599889Y561306D01*
Y557181*
X602071Y565056D02*
X599889Y561306D01*
X604525Y565056D02*
Y557181D01*
Y565056D02*
X608071D01*
X604525Y561306D02*
X606707D01*
X604525Y557181D02*
X608071D01*
X614344Y563931D02*
X613798Y564681D01*
X612980Y565056*
X611889*
X611071Y564681*
X610525Y563931*
Y563181*
X610798Y562431*
X611071Y562056*
X611616Y561681*
X613253Y560931*
X613798Y560556*
X614071Y560181*
X614344Y559431*
Y558306*
X613798Y557556*
X612980Y557181*
X611889*
X611071Y557556*
X610525Y558306*
X657025Y565056D02*
Y557181D01*
Y565056D02*
X660844Y557181D01*
Y565056D02*
Y557181D01*
X668207Y566556D02*
X663298Y554556D01*
X672844Y565056D02*
X670662Y557181D01*
X672844Y565056D02*
X675025Y557181D01*
X671480Y559806D02*
X674207D01*
G54D105*
X457760Y405575D02*
G75*
G03X445949I-5906J-0D01*
G01X445154Y404609D02*
G03X445949Y405575I-190J966D01*
G01X444996Y404591D02*
G03X445154Y404609I0J684D01*
G01X444996Y404591D02*
X443179D01*
X442194Y405575D02*
G03X443179Y404591I985J-0D01*
G01X447182Y417710D02*
G03X442194Y405575I12267J-12135D01*
G01X447894Y418389D02*
G03X447182Y417710I-359J-336D01*
G01X459449Y422830D02*
G03X447894Y418389I0J-17255D01*
G01X459449Y422830D02*
Y437287D01*
G03X459152Y437996I-1005J-5*
X458449Y438271I-680J-703*
X436955Y429325I1000J-32696*
G01X436251Y428637D02*
G03X436955Y429325I349J347D01*
G01X436251Y428637D02*
G03X426738Y405575I23198J-23062D01*
G01X425753Y404591D02*
G03X426738Y405575I0J984D01*
G01X425753Y404591D02*
X423551D01*
X422567Y405575D02*
G03X423551Y404591I984J-0D01*
G01X422647Y405970D02*
G03X422567Y405575I882J-384D01*
G01X422869Y406286D02*
G03X422647Y405970I710J-735D01*
G01X423182Y406496D02*
G03X422869Y406286I398J-932D01*
G01X423551Y406567D02*
G03X423182Y406496I-11J-938D01*
G01X423551Y406567D02*
X424535D01*
Y432265*
X424181Y432416D02*
G03X424535Y432265I349J325D01*
G01X424043Y432761D02*
G03X424181Y432416I474J-10D01*
G01X424189Y433113D02*
G03X424043Y432761I335J-345D01*
G01X424535Y433257D02*
G03X424189Y433113I-7J-472D01*
G01X424535Y433257D02*
Y469192D01*
G03X423551Y470177I-984J0*
G01X394811*
G03X393827Y469192I0J-985*
G01Y465551*
Y464566D02*
G03Y465551I-0J492D01*
G01Y464566D02*
Y433257D01*
X394181Y433105D02*
G03X393827Y433257I-349J-326D01*
G01X394319Y432761D02*
G03X394181Y433105I-475J9D01*
G01X394173Y432409D02*
G03X394319Y432761I-335J344D01*
G01X393827Y432265D02*
G03X394173Y432409I7J471D01*
G01X393827Y432265D02*
Y400161D01*
Y399177D02*
G03Y400161I-0J492D01*
G01Y399177D02*
Y398488D01*
G03X394811Y397504I984J0*
G01X397567*
X398551Y396520D02*
G03X397567Y397504I-984J-0D01*
G01X398551Y396520D02*
Y383247D01*
G03X399535Y382263I984J0*
G01X401701*
Y374389D02*
G03Y382263I-0J3937D01*
G01Y374389D02*
X395598D01*
G03X394614Y373405I0J-984*
G01Y363168*
G03X395598Y362184I984J0*
G01X408984*
G03X409969Y363168I0J984*
G01Y364743*
X410953Y365727D02*
G03X409969Y364743I-0J-984D01*
G01X410953Y365727D02*
X425323D01*
G03X427134Y366283I-132J3658*
G01X437921Y372504*
G03X438709Y373685I-629J1272*
G01Y383173*
G03X437921Y384197I-1282J-171*
G01X427126Y390399*
G03X426634Y390531I-492J-853*
G01X424142*
X420992Y393680D02*
G03X424142Y390531I3150J0D01*
G01X420992Y393680D02*
Y396520D01*
X422961D02*
G03X420992I-985J-0D01*
G01X422961D02*
Y395535D01*
G03X423945Y394551I984J0*
G01X434429*
X435413D02*
G03X434429I-492J0D01*
G01X435413D02*
X468295D01*
X469280D02*
G03X468295I-493J0D01*
G01X469280D02*
X476213D01*
G03X477198Y395535I0J984*
G01Y403606*
G03X476213Y404591I-985J0*
G01X458712*
X458555Y404609D02*
G03X458712Y404591I157J666D01*
G01X457760Y405575D02*
G03X458555Y404609I984J-0D01*
G74*
G01X0Y0D02*
M02*
