*
*
G04 PADS 9.4.1 Build Number: 494907 generated Gerber (RS-274-X) file*
G04 PC Version=2.1*
*
%IN "MMSP_R_1.pcb"*%
*
%MOIN*%
*
%FSLAX35Y35*%
*
*
*
*
G04 PC Standard Apertures*
*
*
G04 Thermal Relief Aperture macro.*
%AMTER*
1,1,$1,0,0*
1,0,$1-$2,0,0*
21,0,$3,$4,0,0,45*
21,0,$3,$4,0,0,135*
%
*
*
G04 Annular Aperture macro.*
%AMANN*
1,1,$1,0,0*
1,0,$2,0,0*
%
*
*
G04 Odd Aperture macro.*
%AMODD*
1,1,$1,0,0*
1,0,$1-0.005,0,0*
%
*
*
G04 PC Custom Aperture Macros*
*
*
*
*
*
*
G04 PC Aperture Table*
*
%ADD010C,0.001*%
%ADD013C,0.01*%
*
*
*
*
G04 PC Circuitry*
G04 Layer Name MMSP_R_1.pcb - circuitry*
%LPD*%
*
*
G04 PC Custom Flashes*
G04 Layer Name MMSP_R_1.pcb - flashes*
%LPD*%
*
*
G04 PC Circuitry*
G04 Layer Name MMSP_R_1.pcb - circuitry*
%LPD*%
*
G54D10*
G01X1084338Y879416D02*
G75*
G03X1091450Y870727I6795J-1694D01*
G01X1084337Y879411D02*
X1084469Y879661D01*
X1084449Y879640*
X1099338Y910590*
X1101338Y925590*
X1099000Y945000*
X1086000Y959000*
X1043000Y982000*
X1010098*
X994098Y996000*
X979772Y1024917*
X985282Y1034748D02*
G03X979774Y1024913I607J-6800D01*
G01X985288Y1034748D02*
X985335Y1034744D01*
X986024Y1034055*
X986021Y1034056D02*
G03X994094Y1034883I3373J6886D01*
G01X994091Y1034881D02*
X994565Y1035356D01*
X1015000Y1037000*
X1057000Y1039000*
X1110433*
G03X1113187Y1034052I5045J-433*
G01X1113191Y1034049D02*
G03X1121065I3937J4610D01*
G01X1121067Y1034051D02*
X1124016Y1037000D01*
X1134000*
X1200197Y1028298*
X1201353*
G03X1209173Y1027455I4431J4416*
G01X1209174D02*
X1209247Y1027530D01*
X1214758Y1026365*
X1215407Y1024033D02*
G03X1214757Y1026366I-2399J589D01*
G01X1215407Y1024032D02*
X1208068Y994095D01*
X1203663Y972687*
X1195353Y936537*
X1196877Y932972*
X1193429Y918301D02*
G03X1196877Y932946I-27976J14316D01*
G01X1193432Y918307D02*
X1191535D01*
X1188000Y905000*
X1178563Y871588*
X1175919Y863986*
X1173588Y862205D02*
G03X1175920Y863988I-330J2848D01*
G01X1173585Y862205D02*
X1158055D01*
X1138351Y864223D02*
G03X1158054Y862204I11040J10587D01*
G01X1138356Y864218D02*
X1132826Y870374D01*
X1118110*
X1116978Y869242*
X1110236*
X1107677Y870727*
X1091453*
X847441Y776772D02*
Y725000D01*
X899213*
X847441Y776772*
X899213Y1106102D02*
X847441D01*
Y1054331*
X899213Y1106102*
X1323819Y725197D02*
X1375591D01*
Y776969*
X1323819Y725197*
G54D13*
X1287615Y1004988D02*
Y998425D01*
X1286024Y1004988D02*
X1289205D01*
X1292387Y1002800D02*
X1291933Y1002488D01*
X1291478Y1001863*
X1291251Y1000925*
Y1000300*
X1291478Y999363*
X1291933Y998738*
X1292387Y998425*
X1293069*
X1293524Y998738*
X1293978Y999363*
X1294205Y1000300*
Y1000925*
X1293978Y1001863*
X1293524Y1002488*
X1293069Y1002800*
X1292387*
X1296251D02*
Y996238D01*
Y1001863D02*
X1296705Y1002488D01*
X1297160Y1002800*
X1297842*
X1298296Y1002488*
X1298751Y1001863*
X1298978Y1000925*
Y1000300*
X1298751Y999363*
X1298296Y998738*
X1297842Y998425*
X1297160*
X1296705Y998738*
X1296251Y999363*
X1306251Y1004988D02*
Y998425D01*
X1311024Y1002800D02*
Y998425D01*
Y1001863D02*
X1310569Y1002488D01*
X1310115Y1002800*
X1309433*
X1308978Y1002488*
X1308524Y1001863*
X1308296Y1000925*
Y1000300*
X1308524Y999363*
X1308978Y998738*
X1309433Y998425*
X1310115*
X1310569Y998738*
X1311024Y999363*
X1313296Y1002800D02*
X1314660Y998425D01*
X1316024Y1002800D02*
X1314660Y998425D01*
X1314205Y997175*
X1313751Y996550*
X1313296Y996238*
X1313069*
X1318069Y1000925D02*
X1320796D01*
Y1001550*
X1320569Y1002175*
X1320342Y1002488*
X1319887Y1002800*
X1319205*
X1318751Y1002488*
X1318296Y1001863*
X1318069Y1000925*
Y1000300*
X1318296Y999363*
X1318751Y998738*
X1319205Y998425*
X1319887*
X1320342Y998738*
X1320796Y999363*
X1322842Y1002800D02*
Y998425D01*
Y1000925D02*
X1323069Y1001863D01*
X1323524Y1002488*
X1323978Y1002800*
X1324660*
X1289674Y912665D02*
X1287402Y908290D01*
X1290811*
X1289674Y912665D02*
Y906102D01*
X1298083Y912665D02*
Y906102D01*
X1300811*
X1305583Y910477D02*
Y906102D01*
Y909540D02*
X1305129Y910165D01*
X1304674Y910477*
X1303992*
X1303538Y910165*
X1303083Y909540*
X1302856Y908602*
Y907977*
X1303083Y907040*
X1303538Y906415*
X1303992Y906102*
X1304674*
X1305129Y906415*
X1305583Y907040*
X1307856Y910477D02*
X1309220Y906102D01*
X1310583Y910477D02*
X1309220Y906102D01*
X1308765Y904852*
X1308311Y904227*
X1307856Y903915*
X1307629*
X1312629Y908602D02*
X1315356D01*
Y909227*
X1315129Y909852*
X1314902Y910165*
X1314447Y910477*
X1313765*
X1313311Y910165*
X1312856Y909540*
X1312629Y908602*
Y907977*
X1312856Y907040*
X1313311Y906415*
X1313765Y906102*
X1314447*
X1314902Y906415*
X1315356Y907040*
X1317402Y910477D02*
Y906102D01*
Y908602D02*
X1317629Y909540D01*
X1318083Y910165*
X1318538Y910477*
X1319220*
X1326492Y912665D02*
Y906102D01*
Y912665D02*
X1329447D01*
X1326492Y909540D02*
X1328311D01*
X1331492Y912665D02*
Y906102D01*
X1333538Y908602D02*
X1336265D01*
Y909227*
X1336038Y909852*
X1335811Y910165*
X1335356Y910477*
X1334674*
X1334220Y910165*
X1333765Y909540*
X1333538Y908602*
Y907977*
X1333765Y907040*
X1334220Y906415*
X1334674Y906102*
X1335356*
X1335811Y906415*
X1336265Y907040*
X1338311Y910477D02*
X1340811Y906102D01*
Y910477D02*
X1338311Y906102D01*
X1342856Y912665D02*
X1343083Y912352D01*
X1343311Y912665*
X1343083Y912977*
X1342856Y912665*
X1343083Y910477D02*
Y906102D01*
X1345356Y912665D02*
Y906102D01*
Y909540D02*
X1345811Y910165D01*
X1346265Y910477*
X1346947*
X1347402Y910165*
X1347856Y909540*
X1348083Y908602*
Y907977*
X1347856Y907040*
X1347402Y906415*
X1346947Y906102*
X1346265*
X1345811Y906415*
X1345356Y907040*
X1350129Y912665D02*
Y906102D01*
X1352174Y908602D02*
X1354902D01*
Y909227*
X1354674Y909852*
X1354447Y910165*
X1353992Y910477*
X1353311*
X1352856Y910165*
X1352402Y909540*
X1352174Y908602*
Y907977*
X1352402Y907040*
X1352856Y906415*
X1353311Y906102*
X1353992*
X1354447Y906415*
X1354902Y907040*
X1362174Y912665D02*
Y906102D01*
Y912665D02*
X1364220D01*
X1364902Y912352*
X1365129Y912040*
X1365356Y911415*
Y910477*
X1365129Y909852*
X1364902Y909540*
X1364220Y909227*
X1362174*
X1370811Y911102D02*
X1370583Y911727D01*
X1370129Y912352*
X1369674Y912665*
X1368765*
X1368311Y912352*
X1367856Y911727*
X1367629Y911102*
X1367402Y910165*
Y908602*
X1367629Y907665*
X1367856Y907040*
X1368311Y906415*
X1368765Y906102*
X1369674*
X1370129Y906415*
X1370583Y907040*
X1370811Y907665*
X1372856Y912665D02*
Y906102D01*
Y912665D02*
X1374902D01*
X1375583Y912352*
X1375811Y912040*
X1376038Y911415*
Y910790*
X1375811Y910165*
X1375583Y909852*
X1374902Y909540*
X1372856D02*
X1374902D01*
X1375583Y909227*
X1375811Y908915*
X1376038Y908290*
Y907352*
X1375811Y906727*
X1375583Y906415*
X1374902Y906102*
X1372856*
X1378538Y906415D02*
X1378311Y906102D01*
X1378083Y906415*
X1378311Y906727*
X1378538Y906415*
Y905790*
X1378311Y905165*
X1378083Y904852*
X1392629Y912665D02*
Y906102D01*
X1391038Y912665D02*
X1394220D01*
X1396265D02*
X1396492Y912352D01*
X1396720Y912665*
X1396492Y912977*
X1396265Y912665*
X1396492Y910477D02*
Y906102D01*
X1401492Y909540D02*
X1401038Y910165D01*
X1400583Y910477*
X1399902*
X1399447Y910165*
X1398992Y909540*
X1398765Y908602*
Y907977*
X1398992Y907040*
X1399447Y906415*
X1399902Y906102*
X1400583*
X1401038Y906415*
X1401492Y907040*
X1403538Y912665D02*
Y906102D01*
X1405811Y910477D02*
X1403538Y907352D01*
X1404447Y908602D02*
X1406038Y906102D01*
X1408083Y910477D02*
Y906102D01*
Y909227D02*
X1408765Y910165D01*
X1409220Y910477*
X1409902*
X1410356Y910165*
X1410583Y909227*
Y906102*
X1412629Y908602D02*
X1415356D01*
Y909227*
X1415129Y909852*
X1414902Y910165*
X1414447Y910477*
X1413765*
X1413311Y910165*
X1412856Y909540*
X1412629Y908602*
Y907977*
X1412856Y907040*
X1413311Y906415*
X1413765Y906102*
X1414447*
X1414902Y906415*
X1415356Y907040*
X1419902Y909540D02*
X1419674Y910165D01*
X1418992Y910477*
X1418311*
X1417629Y910165*
X1417402Y909540*
X1417629Y908915*
X1418083Y908602*
X1419220Y908290*
X1419674Y907977*
X1419902Y907352*
Y907040*
X1419674Y906415*
X1418992Y906102*
X1418311*
X1417629Y906415*
X1417402Y907040*
X1424447Y909540D02*
X1424220Y910165D01*
X1423538Y910477*
X1422856*
X1422174Y910165*
X1421947Y909540*
X1422174Y908915*
X1422629Y908602*
X1423765Y908290*
X1424220Y907977*
X1424447Y907352*
Y907040*
X1424220Y906415*
X1423538Y906102*
X1422856*
X1422174Y906415*
X1421947Y907040*
X1433083Y912665D02*
X1432402Y912352D01*
X1431947Y911415*
X1431720Y909852*
Y908915*
X1431947Y907352*
X1432402Y906415*
X1433083Y906102*
X1433538*
X1434220Y906415*
X1434674Y907352*
X1434902Y908915*
Y909852*
X1434674Y911415*
X1434220Y912352*
X1433538Y912665*
X1433083*
X1437174Y906727D02*
X1436947Y906415D01*
X1437174Y906102*
X1437402Y906415*
X1437174Y906727*
X1439674Y911102D02*
Y911415D01*
X1439902Y912040*
X1440129Y912352*
X1440583Y912665*
X1441492*
X1441947Y912352*
X1442174Y912040*
X1442402Y911415*
Y910790*
X1442174Y910165*
X1441720Y909227*
X1439447Y906102*
X1442629*
X1447629Y912665D02*
X1445356D01*
X1445129Y909852*
X1445356Y910165*
X1446038Y910477*
X1446720*
X1447402Y910165*
X1447856Y909540*
X1448083Y908602*
X1447856Y907977*
X1447629Y907040*
X1447174Y906415*
X1446492Y906102*
X1445811*
X1445129Y906415*
X1444902Y906727*
X1444674Y907352*
X1450129Y910477D02*
Y906102D01*
Y909227D02*
X1450811Y910165D01*
X1451265Y910477*
X1451947*
X1452402Y910165*
X1452629Y909227*
Y906102*
Y909227D02*
X1453311Y910165D01*
X1453765Y910477*
X1454447*
X1454902Y910165*
X1455129Y909227*
Y906102*
X1457174Y910477D02*
Y906102D01*
Y909227D02*
X1457856Y910165D01*
X1458311Y910477*
X1458992*
X1459447Y910165*
X1459674Y909227*
Y906102*
Y909227D02*
X1460356Y910165D01*
X1460811Y910477*
X1461492*
X1461947Y910165*
X1462174Y909227*
Y906102*
X1469447Y912665D02*
Y906102D01*
Y912665D02*
X1472402D01*
X1469447Y909540D02*
X1471265D01*
X1474447Y912665D02*
X1474674Y912352D01*
X1474902Y912665*
X1474674Y912977*
X1474447Y912665*
X1474674Y910477D02*
Y906102D01*
X1476947Y910477D02*
Y906102D01*
Y909227D02*
X1477629Y910165D01*
X1478083Y910477*
X1478765*
X1479220Y910165*
X1479447Y909227*
Y906102*
X1481492Y912665D02*
X1481720Y912352D01*
X1481947Y912665*
X1481720Y912977*
X1481492Y912665*
X1481720Y910477D02*
Y906102D01*
X1486492Y909540D02*
X1486265Y910165D01*
X1485583Y910477*
X1484902*
X1484220Y910165*
X1483992Y909540*
X1484220Y908915*
X1484674Y908602*
X1485811Y908290*
X1486265Y907977*
X1486492Y907352*
Y907040*
X1486265Y906415*
X1485583Y906102*
X1484902*
X1484220Y906415*
X1483992Y907040*
X1488538Y912665D02*
Y906102D01*
Y909227D02*
X1489220Y910165D01*
X1489674Y910477*
X1490356*
X1490811Y910165*
X1491038Y909227*
Y906102*
X1493083Y912665D02*
X1493311Y912352D01*
X1493538Y912665*
X1493311Y912977*
X1493083Y912665*
X1493311Y910477D02*
Y906102D01*
X1495583Y910477D02*
Y906102D01*
Y909227D02*
X1496265Y910165D01*
X1496720Y910477*
X1497402*
X1497856Y910165*
X1498083Y909227*
Y906102*
X1502856Y910477D02*
Y905477D01*
X1502629Y904540*
X1502402Y904227*
X1501947Y903915*
X1501265*
X1500811Y904227*
X1502856Y909540D02*
X1502402Y910165D01*
X1501947Y910477*
X1501265*
X1500811Y910165*
X1500356Y909540*
X1500129Y908602*
Y907977*
X1500356Y907040*
X1500811Y906415*
X1501265Y906102*
X1501947*
X1502402Y906415*
X1502856Y907040*
X1513538Y911102D02*
X1513311Y911727D01*
X1512856Y912352*
X1512402Y912665*
X1511492*
X1511038Y912352*
X1510583Y911727*
X1510356Y911102*
X1510129Y910165*
Y908602*
X1510356Y907665*
X1510583Y907040*
X1511038Y906415*
X1511492Y906102*
X1512402*
X1512856Y906415*
X1513311Y907040*
X1513538Y907665*
Y908602*
X1512402D02*
X1513538D01*
X1516947Y912665D02*
X1516492Y912352D01*
X1516038Y911727*
X1515811Y911102*
X1515583Y910165*
Y908602*
X1515811Y907665*
X1516038Y907040*
X1516492Y906415*
X1516947Y906102*
X1517856*
X1518311Y906415*
X1518765Y907040*
X1518992Y907665*
X1519220Y908602*
Y910165*
X1518992Y911102*
X1518765Y911727*
X1518311Y912352*
X1517856Y912665*
X1516947*
X1521265D02*
Y906102D01*
X1523992*
X1526038Y912665D02*
Y906102D01*
Y912665D02*
X1527629D01*
X1528311Y912352*
X1528765Y911727*
X1528992Y911102*
X1529220Y910165*
Y908602*
X1528992Y907665*
X1528765Y907040*
X1528311Y906415*
X1527629Y906102*
X1526038*
X1001906Y999803D02*
X1009906D01*
X1005906Y995803D02*
Y1003803D01*
X1191079Y989567D02*
X1199079D01*
X1195079Y985567D02*
Y993567D01*
X1109780Y878543D02*
X1117780D01*
X1113780Y874543D02*
Y882543D01*
X1093638Y891866D02*
X1101638Y899866D01*
X1093638D02*
X1101638Y891866D01*
X1091782Y888323D02*
X1099782Y896323D01*
X1091782D02*
X1099782Y888323D01*
X1089926Y884779D02*
X1097926Y892779D01*
X1089926D02*
X1097926Y884779D01*
X1088070Y881236D02*
X1096070Y889236D01*
X1088070D02*
X1096070Y881236D01*
X1134976Y863717D02*
X1142976D01*
Y871717*
X1134976*
Y863717*
X1138976Y867717D02*
Y871717D01*
X1138323Y862142D02*
X1146323D01*
Y870142*
X1138323*
Y862142*
X1142323Y866142D02*
Y870142D01*
X1151118Y861748D02*
X1159118D01*
Y869748*
X1151118*
Y861748*
X1155118Y865748D02*
Y869748D01*
X1134189Y871591D02*
X1142189D01*
Y879591*
X1134189*
Y871591*
X1138189Y875591D02*
Y879591D01*
X1122969Y868244D02*
X1130969D01*
Y876244*
X1122969*
Y868244*
X1126969Y872244D02*
Y876244D01*
X1129465Y872772D02*
X1137465D01*
Y880772*
X1129465*
Y872772*
X1133465Y876772D02*
Y880772D01*
X1127102Y883402D02*
X1135102D01*
Y891402*
X1127102*
Y883402*
X1131102Y887402D02*
Y891402D01*
X1147575Y883205D02*
X1155575D01*
Y891205*
X1147575*
Y883205*
X1151575Y887205D02*
Y891205D01*
X1152102Y870213D02*
X1160102D01*
Y878213*
X1152102*
Y870213*
X1156102Y874213D02*
Y878213D01*
X1142457Y873953D02*
X1150457D01*
Y881953*
X1142457*
Y873953*
X1146457Y877953D02*
Y881953D01*
X1151118Y867260D02*
X1159118D01*
Y875260*
X1151118*
Y867260*
X1155118Y871260D02*
Y875260D01*
X1154071Y867260D02*
X1162071D01*
Y875260*
X1154071*
Y867260*
X1158071Y871260D02*
Y875260D01*
X1175724Y880252D02*
X1183724D01*
Y888252*
X1175724*
Y880252*
X1179724Y884252D02*
Y888252D01*
X1115882Y891669D02*
X1123882D01*
Y899669*
X1115882*
Y891669*
X1119882Y895669D02*
Y899669D01*
X1115685Y903874D02*
X1123685D01*
Y911874*
X1115685*
Y903874*
X1119685Y907874D02*
Y911874D01*
X1097181Y887732D02*
X1105181D01*
Y895732*
X1097181*
Y887732*
X1101181Y891732D02*
Y895732D01*
X1120016Y902496D02*
X1128016D01*
Y910496*
X1120016*
Y902496*
X1124016Y906496D02*
Y910496D01*
X1121394Y884583D02*
X1129394D01*
Y892583*
X1121394*
Y884583*
X1125394Y888583D02*
Y892583D01*
X1122181Y890291D02*
X1130181D01*
Y898291*
X1122181*
Y890291*
X1126181Y894291D02*
Y898291D01*
X1136748Y903480D02*
X1144748D01*
Y911480*
X1136748*
Y903480*
X1140748Y907480D02*
Y911480D01*
X1138717Y900724D02*
X1146717D01*
Y908724*
X1138717*
Y900724*
X1142717Y904724D02*
Y908724D01*
X1149937Y889898D02*
X1157937D01*
Y897898*
X1149937*
Y889898*
X1153937Y893898D02*
Y897898D01*
X1153283Y889701D02*
X1161283D01*
Y897701*
X1153283*
Y889701*
X1157283Y893701D02*
Y897701D01*
X1169031Y897969D02*
X1177031D01*
Y905969*
X1169031*
Y897969*
X1173031Y901969D02*
Y905969D01*
X1110370Y904465D02*
X1118370D01*
Y912465*
X1110370*
Y904465*
X1114370Y908465D02*
Y912465D01*
X1115488Y911945D02*
X1123488D01*
Y919945*
X1115488*
Y911945*
X1119488Y915945D02*
Y919945D01*
X1112339Y915685D02*
X1120339D01*
Y923685*
X1112339*
Y915685*
X1116339Y919685D02*
Y923685D01*
X1099346Y909189D02*
X1107346D01*
Y917189*
X1099346*
Y909189*
X1103346Y913189D02*
Y917189D01*
X1102299Y909386D02*
X1110299D01*
Y917386*
X1102299*
Y909386*
X1106299Y913386D02*
Y917386D01*
X1133992Y910370D02*
X1141992D01*
Y918370*
X1133992*
Y910370*
X1137992Y914370D02*
Y918370D01*
X1135370Y913126D02*
X1143370D01*
Y921126*
X1135370*
Y913126*
X1139370Y917126D02*
Y921126D01*
X1135961Y917457D02*
X1143961D01*
Y925457*
X1135961*
Y917457*
X1139961Y921457D02*
Y925457D01*
X1133008Y906827D02*
X1141008D01*
Y914827*
X1133008*
Y906827*
X1137008Y910827D02*
Y914827D01*
X1136354Y924150D02*
X1144354D01*
Y932150*
X1136354*
Y924150*
X1140354Y928150D02*
Y932150D01*
X1129268Y909386D02*
X1137268D01*
Y917386*
X1129268*
Y909386*
X1133268Y913386D02*
Y917386D01*
X1122181Y908992D02*
X1130181D01*
Y916992*
X1122181*
Y908992*
X1126181Y912992D02*
Y916992D01*
X1118835Y908992D02*
X1126835D01*
Y916992*
X1118835*
Y908992*
X1122835Y912992D02*
Y916992D01*
X1139701Y915882D02*
X1147701D01*
Y923882*
X1139701*
Y915882*
X1143701Y919882D02*
Y923882D01*
X1154071Y909780D02*
X1162071D01*
Y917780*
X1154071*
Y909780*
X1158071Y913780D02*
Y917780D01*
X1168835Y904858D02*
X1176835D01*
Y912858*
X1168835*
Y904858*
X1172835Y908858D02*
Y912858D01*
X1112929Y937732D02*
X1120929D01*
Y945732*
X1112929*
Y937732*
X1116929Y941732D02*
Y945732D01*
X1109780Y929071D02*
X1117780D01*
Y937071*
X1109780*
Y929071*
X1113780Y933071D02*
Y937071D01*
X1099937Y929071D02*
X1107937D01*
Y937071*
X1099937*
Y929071*
X1103937Y933071D02*
Y937071D01*
X1115094Y926315D02*
X1123094D01*
Y934315*
X1115094*
Y926315*
X1119094Y930315D02*
Y934315D01*
X1132417Y939110D02*
X1140417D01*
Y947110*
X1132417*
Y939110*
X1136417Y943110D02*
Y947110D01*
X1134386Y928677D02*
X1142386D01*
Y936677*
X1134386*
Y928677*
X1138386Y932677D02*
Y936677D01*
X1117654Y930055D02*
X1125654D01*
Y938055*
X1117654*
Y930055*
X1121654Y934055D02*
Y938055D01*
X1152102Y942850D02*
X1160102D01*
Y950850*
X1152102*
Y942850*
X1156102Y946850D02*
Y950850D01*
X1156236Y941472D02*
X1164236D01*
Y949472*
X1156236*
Y941472*
X1160236Y945472D02*
Y949472D01*
X1154661Y935567D02*
X1162661D01*
Y943567*
X1154661*
Y935567*
X1158661Y939567D02*
Y943567D01*
X1137929Y931433D02*
X1145929D01*
Y939433*
X1137929*
Y931433*
X1141929Y935433D02*
Y939433D01*
X1169819Y927693D02*
X1177819D01*
Y935693*
X1169819*
Y927693*
X1173819Y931693D02*
Y935693D01*
X1172772Y926315D02*
X1180772D01*
Y934315*
X1172772*
Y926315*
X1176772Y930315D02*
Y934315D01*
X1183598Y931630D02*
X1191598D01*
Y939630*
X1183598*
Y931630*
X1187598Y935630D02*
Y939630D01*
X1187732Y935567D02*
X1195732D01*
Y943567*
X1187732*
Y935567*
X1191732Y939567D02*
Y943567D01*
X1177102Y934976D02*
X1185102D01*
Y942976*
X1177102*
Y934976*
X1181102Y938976D02*
Y942976D01*
X1090488Y952890D02*
X1098488D01*
Y960890*
X1090488*
Y952890*
X1094488Y956890D02*
Y960890D01*
X1090488Y949937D02*
X1098488D01*
Y957937*
X1090488*
Y949937*
X1094488Y953937D02*
Y957937D01*
X1087142Y955843D02*
X1095142D01*
Y963843*
X1087142*
Y955843*
X1091142Y959843D02*
Y963843D01*
X1081236Y961945D02*
X1089236D01*
Y969945*
X1081236*
Y961945*
X1085236Y965945D02*
Y969945D01*
X1109189Y960173D02*
X1117189D01*
Y968173*
X1109189*
Y960173*
X1113189Y964173D02*
Y968173D01*
X1126315Y955646D02*
X1134315D01*
Y963646*
X1126315*
Y955646*
X1130315Y959646D02*
Y963646D01*
X1129465Y952496D02*
X1137465D01*
Y960496*
X1129465*
Y952496*
X1133465Y956496D02*
Y960496D01*
X1132614Y952693D02*
X1140614D01*
Y960693*
X1132614*
Y952693*
X1136614Y956693D02*
Y960693D01*
X1152693Y948953D02*
X1160693D01*
Y956953*
X1152693*
Y948953*
X1156693Y952953D02*
Y956953D01*
X1151118Y952102D02*
X1159118D01*
Y960102*
X1151118*
Y952102*
X1155118Y956102D02*
Y960102D01*
X1147575Y964110D02*
X1155575D01*
Y972110*
X1147575*
Y964110*
X1151575Y968110D02*
Y972110D01*
X1148165Y950724D02*
X1156165D01*
Y958724*
X1148165*
Y950724*
X1152165Y954724D02*
Y958724D01*
X1174937Y952890D02*
X1182937D01*
Y960890*
X1174937*
Y952890*
X1178937Y956890D02*
Y960890D01*
X1170803Y957024D02*
X1178803D01*
Y965024*
X1170803*
Y957024*
X1174803Y961024D02*
Y965024D01*
X1161157Y953677D02*
X1169157D01*
Y961677*
X1161157*
Y953677*
X1165157Y957677D02*
Y961677D01*
X1172181Y954071D02*
X1180181D01*
Y962071*
X1172181*
Y954071*
X1176181Y958071D02*
Y962071D01*
X1178283Y958205D02*
X1186283D01*
Y966205*
X1178283*
Y958205*
X1182283Y962205D02*
Y966205D01*
X1179268Y946984D02*
X1187268D01*
Y954984*
X1179268*
Y946984*
X1183268Y950984D02*
Y954984D01*
X1185961Y955055D02*
X1193961D01*
Y963055*
X1185961*
Y955055*
X1189961Y959055D02*
Y963055D01*
X1192850Y954661D02*
X1200850D01*
Y962661*
X1192850*
Y954661*
X1196850Y958661D02*
Y962661D01*
X1029858Y982024D02*
X1037858D01*
Y990024*
X1029858*
Y982024*
X1033858Y986024D02*
Y990024D01*
X1038126Y981236D02*
X1046126D01*
Y989236*
X1038126*
Y981236*
X1042126Y985236D02*
Y989236D01*
X1074150Y981630D02*
X1082150D01*
Y989630*
X1074150*
Y981630*
X1078150Y985630D02*
Y989630D01*
X1063323Y982811D02*
X1071323D01*
Y990811*
X1063323*
Y982811*
X1067323Y986811D02*
Y990811D01*
X1073756Y966276D02*
X1081756D01*
Y974276*
X1073756*
Y966276*
X1077756Y970276D02*
Y974276D01*
X1067850Y973362D02*
X1075850D01*
Y981362*
X1067850*
Y973362*
X1071850Y977362D02*
Y981362D01*
X1067850Y977102D02*
X1075850D01*
Y985102*
X1067850*
Y977102*
X1071850Y981102D02*
Y985102D01*
X1131236Y965882D02*
X1139236D01*
Y973882*
X1131236*
Y965882*
X1135236Y969882D02*
Y973882D01*
X1149740Y975331D02*
X1157740D01*
Y983331*
X1149740*
Y975331*
X1153740Y979331D02*
Y983331D01*
X1150724Y968441D02*
X1158724D01*
Y976441*
X1150724*
Y968441*
X1154724Y972441D02*
Y976441D01*
X1166276Y969819D02*
X1174276D01*
Y977819*
X1166276*
Y969819*
X1170276Y973819D02*
Y977819D01*
X1172181Y974346D02*
X1180181D01*
Y982346*
X1172181*
Y974346*
X1176181Y978346D02*
Y982346D01*
X1026512Y1003677D02*
X1034512D01*
Y1011677*
X1026512*
Y1003677*
X1030512Y1007677D02*
Y1011677D01*
X1025528Y988323D02*
X1033528D01*
Y996323*
X1025528*
Y988323*
X1029528Y992323D02*
Y996323D01*
X1049543Y991276D02*
X1057543D01*
Y999276*
X1049543*
Y991276*
X1053543Y995276D02*
Y999276D01*
X1047772Y986354D02*
X1055772D01*
Y994354*
X1047772*
Y986354*
X1051772Y990354D02*
Y994354D01*
X1050921Y995213D02*
X1058921D01*
Y1003213*
X1050921*
Y995213*
X1054921Y999213D02*
Y1003213D01*
X1054268Y992063D02*
X1062268D01*
Y1000063*
X1054268*
Y992063*
X1058268Y996063D02*
Y1000063D01*
X1065488Y984976D02*
X1073488D01*
Y992976*
X1065488*
Y984976*
X1069488Y988976D02*
Y992976D01*
X1062535Y987142D02*
X1070535D01*
Y995142*
X1062535*
Y987142*
X1066535Y991142D02*
Y995142D01*
X1080646Y999937D02*
X1088646D01*
Y1007937*
X1080646*
Y999937*
X1084646Y1003937D02*
Y1007937D01*
X1090094Y993835D02*
X1098094D01*
Y1001835*
X1090094*
Y993835*
X1094094Y997835D02*
Y1001835D01*
X1092260Y998362D02*
X1100260D01*
Y1006362*
X1092260*
Y998362*
X1096260Y1002362D02*
Y1006362D01*
X1108205Y1003283D02*
X1116205D01*
Y1011283*
X1108205*
Y1003283*
X1112205Y1007283D02*
Y1011283D01*
X1108598Y984976D02*
X1116598D01*
Y992976*
X1108598*
Y984976*
X1112598Y988976D02*
Y992976D01*
X1128480Y1000331D02*
X1136480D01*
Y1008331*
X1128480*
Y1000331*
X1132480Y1004331D02*
Y1008331D01*
X1126906Y986945D02*
X1134906D01*
Y994945*
X1126906*
Y986945*
X1130906Y990945D02*
Y994945D01*
X1129858Y993047D02*
X1137858D01*
Y1001047*
X1129858*
Y993047*
X1133858Y997047D02*
Y1001047D01*
X1134386Y991079D02*
X1142386D01*
Y999079*
X1134386*
Y991079*
X1138386Y995079D02*
Y999079D01*
X1133205Y987732D02*
X1141205D01*
Y995732*
X1133205*
Y987732*
X1137205Y991732D02*
Y995732D01*
X1153874Y1003874D02*
X1161874D01*
Y1011874*
X1153874*
Y1003874*
X1157874Y1007874D02*
Y1011874D01*
X1152496Y990291D02*
X1160496D01*
Y998291*
X1152496*
Y990291*
X1156496Y994291D02*
Y998291D01*
X1173953Y997378D02*
X1181953D01*
Y1005378*
X1173953*
Y997378*
X1177953Y1001378D02*
Y1005378D01*
X1157220Y1001118D02*
X1165220D01*
Y1009118*
X1157220*
Y1001118*
X1161220Y1005118D02*
Y1009118D01*
X1196000Y1003087D02*
X1204000D01*
Y1011087*
X1196000*
Y1003087*
X1200000Y1007087D02*
Y1011087D01*
X1177299Y1001709D02*
X1185299D01*
Y1009709*
X1177299*
Y1001709*
X1181299Y1005709D02*
Y1009709D01*
X1006630Y1019425D02*
X1014630D01*
Y1027425*
X1006630*
Y1019425*
X1010630Y1023425D02*
Y1027425D01*
X1022378Y1012732D02*
X1030378D01*
Y1020732*
X1022378*
Y1012732*
X1026378Y1016732D02*
Y1020732D01*
X1049937Y1005252D02*
X1057937D01*
Y1013252*
X1049937*
Y1005252*
X1053937Y1009252D02*
Y1013252D01*
X1044425Y1006039D02*
X1052425D01*
Y1014039*
X1044425*
Y1006039*
X1048425Y1010039D02*
Y1014039D01*
X1047378Y1016866D02*
X1055378D01*
Y1024866*
X1047378*
Y1016866*
X1051378Y1020866D02*
Y1024866D01*
X1053677Y1009780D02*
X1061677D01*
Y1017780*
X1053677*
Y1009780*
X1057677Y1013780D02*
Y1017780D01*
X1047772Y1009386D02*
X1055772D01*
Y1017386*
X1047772*
Y1009386*
X1051772Y1013386D02*
Y1017386D01*
X1070409Y1007417D02*
X1078409D01*
Y1015417*
X1070409*
Y1007417*
X1074409Y1011417D02*
Y1015417D01*
X1073362Y1006630D02*
X1081362D01*
Y1014630*
X1073362*
Y1006630*
X1077362Y1010630D02*
Y1014630D01*
X1074346Y1016472D02*
X1082346D01*
Y1024472*
X1074346*
Y1016472*
X1078346Y1020472D02*
Y1024472D01*
X1060961Y1019622D02*
X1068961D01*
Y1027622*
X1060961*
Y1019622*
X1064961Y1023622D02*
Y1027622D01*
X1088323Y1009386D02*
X1096323D01*
Y1017386*
X1088323*
Y1009386*
X1092323Y1013386D02*
Y1017386D01*
X1091276Y1009189D02*
X1099276D01*
Y1017189*
X1091276*
Y1009189*
X1095276Y1013189D02*
Y1017189D01*
X1106236Y1014307D02*
X1114236D01*
Y1022307*
X1106236*
Y1014307*
X1110236Y1018307D02*
Y1022307D01*
X1130646Y1004661D02*
X1138646D01*
Y1012661*
X1130646*
Y1004661*
X1134646Y1008661D02*
Y1012661D01*
X1128677Y1018047D02*
X1136677D01*
Y1026047*
X1128677*
Y1018047*
X1132677Y1022047D02*
Y1026047D01*
X1133598Y1012929D02*
X1141598D01*
Y1020929*
X1133598*
Y1012929*
X1137598Y1016929D02*
Y1020929D01*
X1127299Y1008992D02*
X1135299D01*
Y1016992*
X1127299*
Y1008992*
X1131299Y1012992D02*
Y1016992D01*
X1133008Y1008598D02*
X1141008D01*
Y1016598*
X1133008*
Y1008598*
X1137008Y1012598D02*
Y1016598D01*
X1143047Y1012929D02*
X1151047D01*
Y1020929*
X1143047*
Y1012929*
X1147047Y1016929D02*
Y1020929D01*
X1137339Y1010370D02*
X1145339D01*
Y1018370*
X1137339*
Y1010370*
X1141339Y1014370D02*
Y1018370D01*
X1155449Y1014504D02*
X1163449D01*
Y1022504*
X1155449*
Y1014504*
X1159449Y1018504D02*
Y1022504D01*
X1150331Y1009189D02*
X1158331D01*
Y1017189*
X1150331*
Y1009189*
X1154331Y1013189D02*
Y1017189D01*
X1175134Y1010764D02*
X1183134D01*
Y1018764*
X1175134*
Y1010764*
X1179134Y1014764D02*
Y1018764D01*
X1172181Y1007614D02*
X1180181D01*
Y1015614*
X1172181*
Y1007614*
X1176181Y1011614D02*
Y1015614D01*
X1169031Y1006236D02*
X1177031D01*
Y1014236*
X1169031*
Y1006236*
X1173031Y1010236D02*
Y1014236D01*
X1199346Y1005843D02*
X1207346D01*
Y1013843*
X1199346*
Y1005843*
X1203346Y1009843D02*
Y1013843D01*
X1064110Y1030646D02*
X1072110D01*
Y1038646*
X1064110*
Y1030646*
X1068110Y1034646D02*
Y1038646D01*
X1070016Y1028087D02*
X1078016D01*
Y1036087*
X1070016*
Y1028087*
X1074016Y1032087D02*
Y1036087D01*
X1132024Y1027299D02*
X1140024D01*
Y1035299*
X1132024*
Y1027299*
X1136024Y1031299D02*
Y1035299D01*
X1152890Y1027496D02*
X1160890D01*
Y1035496*
X1152890*
Y1027496*
X1156890Y1031496D02*
Y1035496D01*
X1393701Y1194425D02*
X1651701D01*
X1393701Y1170425D02*
X1651701D01*
X1393701Y1146425D02*
X1651701D01*
X1393701Y1122425D02*
X1651701D01*
X1393701Y1098425D02*
X1651701D01*
X1393701Y1194425D02*
Y1098425D01*
X1477701Y1194425D02*
Y1098425D01*
X1513701Y1194425D02*
Y1098425D01*
X1549701Y1194425D02*
Y1098425D01*
X1603701Y1194425D02*
Y1098425D01*
X1651701Y1194425D02*
Y1098425D01*
X1429201Y1183175D02*
X1428655Y1183925D01*
X1427837Y1184300*
X1426746*
X1425928Y1183925*
X1425383Y1183175*
Y1182425*
X1425655Y1181675*
X1425928Y1181300*
X1426474Y1180925*
X1428110Y1180175*
X1428655Y1179800*
X1428928Y1179425*
X1429201Y1178675*
Y1177550*
X1428655Y1176800*
X1427837Y1176425*
X1426746*
X1425928Y1176800*
X1425383Y1177550*
X1431655Y1184300D02*
Y1176425D01*
X1437928Y1184300D02*
X1434110Y1176425D01*
Y1184300D02*
X1437928D01*
X1434110Y1176425D02*
X1437928D01*
X1440383Y1184300D02*
Y1176425D01*
Y1184300D02*
X1443928D01*
X1440383Y1180550D02*
X1442564D01*
X1440383Y1176425D02*
X1443928D01*
X1487564Y1184300D02*
X1487019Y1183925D01*
X1486474Y1183175*
X1486201Y1182425*
X1485928Y1181300*
Y1179425*
X1486201Y1178300*
X1486474Y1177550*
X1487019Y1176800*
X1487564Y1176425*
X1488655*
X1489201Y1176800*
X1489746Y1177550*
X1490019Y1178300*
X1490292Y1179425*
Y1181300*
X1490019Y1182425*
X1489746Y1183175*
X1489201Y1183925*
X1488655Y1184300*
X1487564*
X1488383Y1177925D02*
X1490019Y1175675D01*
X1494655Y1184300D02*
Y1176425D01*
X1492746Y1184300D02*
X1496564D01*
X1499019D02*
X1501201Y1180550D01*
Y1176425*
X1503383Y1184300D02*
X1501201Y1180550D01*
X1525746Y1183175D02*
X1525201Y1183925D01*
X1524383Y1184300*
X1523292*
X1522474Y1183925*
X1521928Y1183175*
Y1182425*
X1522201Y1181675*
X1522474Y1181300*
X1523019Y1180925*
X1524655Y1180175*
X1525201Y1179800*
X1525474Y1179425*
X1525746Y1178675*
Y1177550*
X1525201Y1176800*
X1524383Y1176425*
X1523292*
X1522474Y1176800*
X1521928Y1177550*
X1528201Y1184300D02*
X1530383Y1180550D01*
Y1176425*
X1532564Y1184300D02*
X1530383Y1180550D01*
X1535019Y1184300D02*
Y1176425D01*
Y1184300D02*
X1537201Y1176425D01*
X1539383Y1184300D02*
X1537201Y1176425D01*
X1539383Y1184300D02*
Y1176425D01*
X1561201Y1184300D02*
Y1176425D01*
Y1184300D02*
X1563655D01*
X1564474Y1183925*
X1564746Y1183550*
X1565019Y1182800*
Y1181675*
X1564746Y1180925*
X1564474Y1180550*
X1563655Y1180175*
X1561201*
X1567474Y1184300D02*
Y1176425D01*
X1570746*
X1575383Y1184300D02*
X1573201Y1176425D01*
X1575383Y1184300D02*
X1577564Y1176425D01*
X1574019Y1179050D02*
X1576746D01*
X1581928Y1184300D02*
Y1176425D01*
X1580019Y1184300D02*
X1583837D01*
X1586292D02*
Y1176425D01*
Y1184300D02*
X1589837D01*
X1586292Y1180550D02*
X1588474D01*
X1586292Y1176425D02*
X1589837D01*
X1592292Y1184300D02*
Y1176425D01*
Y1184300D02*
X1594201D01*
X1595019Y1183925*
X1595564Y1183175*
X1595837Y1182425*
X1596110Y1181300*
Y1179425*
X1595837Y1178300*
X1595564Y1177550*
X1595019Y1176800*
X1594201Y1176425*
X1592292*
X1620383Y1184300D02*
Y1176425D01*
X1618474Y1184300D02*
X1622292D01*
X1626383D02*
X1625837Y1183925D01*
X1625292Y1183175*
X1625019Y1182425*
X1624746Y1181300*
Y1179425*
X1625019Y1178300*
X1625292Y1177550*
X1625837Y1176800*
X1626383Y1176425*
X1627474*
X1628019Y1176800*
X1628564Y1177550*
X1628837Y1178300*
X1629110Y1179425*
Y1181300*
X1628837Y1182425*
X1628564Y1183175*
X1628019Y1183925*
X1627474Y1184300*
X1626383*
X1631564D02*
Y1176425D01*
X1634837*
X1402428Y1160300D02*
X1399701Y1155050D01*
X1403792*
X1402428Y1160300D02*
Y1152425D01*
X1406519Y1153175D02*
X1406246Y1152800D01*
X1406519Y1152425*
X1406792Y1152800*
X1406519Y1153175*
X1409246Y1158800D02*
X1409792Y1159175D01*
X1410610Y1160300*
Y1152425*
X1493292Y1160300D02*
X1496292D01*
X1494655Y1157300*
X1495474*
X1496019Y1156925*
X1496292Y1156550*
X1496564Y1155425*
Y1154675*
X1496292Y1153550*
X1495746Y1152800*
X1494928Y1152425*
X1494110*
X1493292Y1152800*
X1493019Y1153175*
X1492746Y1153925*
X1525701Y1158425D02*
X1537701D01*
X1531701Y1152425D02*
Y1164425D01*
X1561337Y1160300D02*
Y1152425D01*
Y1160300D02*
X1565155Y1152425D01*
Y1160300D02*
Y1152425D01*
X1569246Y1160300D02*
X1568701Y1159925D01*
X1568155Y1159175*
X1567883Y1158425*
X1567610Y1157300*
Y1155425*
X1567883Y1154300*
X1568155Y1153550*
X1568701Y1152800*
X1569246Y1152425*
X1570337*
X1570883Y1152800*
X1571428Y1153550*
X1571701Y1154300*
X1571974Y1155425*
Y1157300*
X1571701Y1158425*
X1571428Y1159175*
X1570883Y1159925*
X1570337Y1160300*
X1569246*
X1611519Y1159175D02*
Y1152425D01*
X1609064Y1155800D02*
X1613974D01*
X1621337Y1161800D02*
X1616428Y1149800D01*
X1623792Y1155800D02*
X1628701D01*
X1632792Y1160300D02*
X1631974Y1159925D01*
X1631428Y1158800*
X1631155Y1156925*
Y1155800*
X1631428Y1153925*
X1631974Y1152800*
X1632792Y1152425*
X1633337*
X1634155Y1152800*
X1634701Y1153925*
X1634974Y1155800*
Y1156925*
X1634701Y1158800*
X1634155Y1159925*
X1633337Y1160300*
X1632792*
X1637701Y1153175D02*
X1637428Y1152800D01*
X1637701Y1152425*
X1637974Y1152800*
X1637701Y1153175*
X1642064Y1160300D02*
X1641246Y1159925D01*
X1640701Y1158800*
X1640428Y1156925*
Y1155800*
X1640701Y1153925*
X1641246Y1152800*
X1642064Y1152425*
X1642610*
X1643428Y1152800*
X1643974Y1153925*
X1644246Y1155800*
Y1156925*
X1643974Y1158800*
X1643428Y1159925*
X1642610Y1160300*
X1642064*
X1401337Y1136300D02*
X1400519Y1135925D01*
X1399974Y1134800*
X1399701Y1132925*
Y1131800*
X1399974Y1129925*
X1400519Y1128800*
X1401337Y1128425*
X1401883*
X1402701Y1128800*
X1403246Y1129925*
X1403519Y1131800*
Y1132925*
X1403246Y1134800*
X1402701Y1135925*
X1401883Y1136300*
X1401337*
X1406246Y1129175D02*
X1405974Y1128800D01*
X1406246Y1128425*
X1406519Y1128800*
X1406246Y1129175*
X1409519Y1136300D02*
X1412519D01*
X1410883Y1133300*
X1411701*
X1412246Y1132925*
X1412519Y1132550*
X1412792Y1131425*
Y1130675*
X1412519Y1129550*
X1411974Y1128800*
X1411155Y1128425*
X1410337*
X1409519Y1128800*
X1409246Y1129175*
X1408974Y1129925*
X1416610Y1136300D02*
X1415792Y1135925D01*
X1415519Y1135175*
Y1134425*
X1415792Y1133675*
X1416337Y1133300*
X1417428Y1132925*
X1418246Y1132550*
X1418792Y1131800*
X1419064Y1131050*
Y1129925*
X1418792Y1129175*
X1418519Y1128800*
X1417701Y1128425*
X1416610*
X1415792Y1128800*
X1415519Y1129175*
X1415246Y1129925*
Y1131050*
X1415519Y1131800*
X1416064Y1132550*
X1416883Y1132925*
X1417974Y1133300*
X1418519Y1133675*
X1418792Y1134425*
Y1135175*
X1418519Y1135925*
X1417701Y1136300*
X1416610*
X1421519Y1134800D02*
X1422064Y1135175D01*
X1422883Y1136300*
Y1128425*
X1495337Y1136300D02*
X1492610Y1131050D01*
X1496701*
X1495337Y1136300D02*
Y1128425D01*
X1525701D02*
X1537701Y1140425D01*
X1525701D02*
X1537701Y1128425D01*
X1558337Y1136300D02*
X1560519Y1132550D01*
Y1128425*
X1562701Y1136300D02*
X1560519Y1132550D01*
X1565155Y1136300D02*
Y1128425D01*
Y1136300D02*
X1568701D01*
X1565155Y1132550D02*
X1567337D01*
X1565155Y1128425D02*
X1568701D01*
X1574974Y1135175D02*
X1574428Y1135925D01*
X1573610Y1136300*
X1572519*
X1571701Y1135925*
X1571155Y1135175*
Y1134425*
X1571428Y1133675*
X1571701Y1133300*
X1572246Y1132925*
X1573883Y1132175*
X1574428Y1131800*
X1574701Y1131425*
X1574974Y1130675*
Y1129550*
X1574428Y1128800*
X1573610Y1128425*
X1572519*
X1571701Y1128800*
X1571155Y1129550*
X1611519Y1135175D02*
Y1128425D01*
X1609064Y1131800D02*
X1613974D01*
X1621337Y1137800D02*
X1616428Y1125800D01*
X1623792Y1131800D02*
X1628701D01*
X1632792Y1136300D02*
X1631974Y1135925D01*
X1631428Y1134800*
X1631155Y1132925*
Y1131800*
X1631428Y1129925*
X1631974Y1128800*
X1632792Y1128425*
X1633337*
X1634155Y1128800*
X1634701Y1129925*
X1634974Y1131800*
Y1132925*
X1634701Y1134800*
X1634155Y1135925*
X1633337Y1136300*
X1632792*
X1637701Y1129175D02*
X1637428Y1128800D01*
X1637701Y1128425*
X1637974Y1128800*
X1637701Y1129175*
X1642064Y1136300D02*
X1641246Y1135925D01*
X1640701Y1134800*
X1640428Y1132925*
Y1131800*
X1640701Y1129925*
X1641246Y1128800*
X1642064Y1128425*
X1642610*
X1643428Y1128800*
X1643974Y1129925*
X1644246Y1131800*
Y1132925*
X1643974Y1134800*
X1643428Y1135925*
X1642610Y1136300*
X1642064*
X1401337Y1112300D02*
X1400519Y1111925D01*
X1399974Y1110800*
X1399701Y1108925*
Y1107800*
X1399974Y1105925*
X1400519Y1104800*
X1401337Y1104425*
X1401883*
X1402701Y1104800*
X1403246Y1105925*
X1403519Y1107800*
Y1108925*
X1403246Y1110800*
X1402701Y1111925*
X1401883Y1112300*
X1401337*
X1406246Y1105175D02*
X1405974Y1104800D01*
X1406246Y1104425*
X1406519Y1104800*
X1406246Y1105175*
X1409519Y1112300D02*
X1412519D01*
X1410883Y1109300*
X1411701*
X1412246Y1108925*
X1412519Y1108550*
X1412792Y1107425*
Y1106675*
X1412519Y1105550*
X1411974Y1104800*
X1411155Y1104425*
X1410337*
X1409519Y1104800*
X1409246Y1105175*
X1408974Y1105925*
X1487564Y1110800D02*
X1488110Y1111175D01*
X1488928Y1112300*
Y1104425*
X1494110Y1112300D02*
X1491383Y1107050D01*
X1495474*
X1494110Y1112300D02*
Y1104425D01*
X1498474Y1112300D02*
X1501474D01*
X1499837Y1109300*
X1500655*
X1501201Y1108925*
X1501474Y1108550*
X1501746Y1107425*
Y1106675*
X1501474Y1105550*
X1500928Y1104800*
X1500110Y1104425*
X1499292*
X1498474Y1104800*
X1498201Y1105175*
X1497928Y1105925*
X1525701Y1104425D02*
X1537701D01*
Y1116425*
X1525701*
Y1104425*
X1531701Y1110425D02*
Y1116425D01*
X1558337Y1112300D02*
X1560519Y1108550D01*
Y1104425*
X1562701Y1112300D02*
X1560519Y1108550D01*
X1565155Y1112300D02*
Y1104425D01*
Y1112300D02*
X1568701D01*
X1565155Y1108550D02*
X1567337D01*
X1565155Y1104425D02*
X1568701D01*
X1574974Y1111175D02*
X1574428Y1111925D01*
X1573610Y1112300*
X1572519*
X1571701Y1111925*
X1571155Y1111175*
Y1110425*
X1571428Y1109675*
X1571701Y1109300*
X1572246Y1108925*
X1573883Y1108175*
X1574428Y1107800*
X1574701Y1107425*
X1574974Y1106675*
Y1105550*
X1574428Y1104800*
X1573610Y1104425*
X1572519*
X1571701Y1104800*
X1571155Y1105550*
X1611519Y1111175D02*
Y1104425D01*
X1609064Y1107800D02*
X1613974D01*
X1621337Y1113800D02*
X1616428Y1101800D01*
X1623792Y1107800D02*
X1628701D01*
X1632792Y1112300D02*
X1631974Y1111925D01*
X1631428Y1110800*
X1631155Y1108925*
Y1107800*
X1631428Y1105925*
X1631974Y1104800*
X1632792Y1104425*
X1633337*
X1634155Y1104800*
X1634701Y1105925*
X1634974Y1107800*
Y1108925*
X1634701Y1110800*
X1634155Y1111925*
X1633337Y1112300*
X1632792*
X1637701Y1105175D02*
X1637428Y1104800D01*
X1637701Y1104425*
X1637974Y1104800*
X1637701Y1105175*
X1642064Y1112300D02*
X1641246Y1111925D01*
X1640701Y1110800*
X1640428Y1108925*
Y1107800*
X1640701Y1105925*
X1641246Y1104800*
X1642064Y1104425*
X1642610*
X1643428Y1104800*
X1643974Y1105925*
X1644246Y1107800*
Y1108925*
X1643974Y1110800*
X1643428Y1111925*
X1642610Y1112300*
X1642064*
G74*
X0Y0D02*
M02*
