0
SECTION
2
HEADER
999
*** POWERPCB  HEADER ***
9
$EXTMIN
10
1.0377743832
20
0.6790408136
9
$EXTMAX
10
3.3824200525
20
1.334710105
9
$FILLMODE
70
0
9
$GRIDMODE
70
1
9
$GRIDUNIT
10
1
20
1
9
$INSBASE
10
-1.0590551181
20
4.2913385827
9
$LIMCHECK
70
0
9
$PLINEWID
40
0.004
9
$SNAPMODE
70
1
9
$SNAPUNIT
10
0.005
20
0.005
9
$TEXTSIZE
40
0.1
9
$TEXTSTYLE
7
W0$01
9
$USERI1
70
102
9
$USERI2
70
0
9
$USERI5
70
150
9
$VIEWCTR
10
2.7344213123
20
0.8938874541
0
ENDSEC
0
SECTION
2
TABLES
999
*** POWERPCB  LTYPE ***
0
TABLE
2
LTYPE
70
22
0
LTYPE
2
CONTINUOUS
70
64
3
---
72
65
73
0
40
0
0
LTYPE
2
POUR_00_-1_0_000000
70
64
3
---
72
65
73
2
40
2
49
1
49
1
0
LTYPE
2
SIG_12
70
64
3
+5V:=402 0 0
72
65
73
2
40
2
49
1
49
1
0
LTYPE
2
CON_158
70
64
3
12 3 17 33 1
72
65
73
2
40
2
49
1
49
1
0
LTYPE
2
CON_159
70
64
3
12 3 19 33 1
72
65
73
2
40
2
49
1
49
1
0
LTYPE
2
CON_160
70
64
3
12 4 15 4 17
72
65
73
2
40
2
49
1
49
1
0
LTYPE
2
CON_161
70
64
3
12 4 17 33 1
72
65
73
2
40
2
49
1
49
1
0
LTYPE
2
CON_162
70
64
3
12 4 19 33 1
72
65
73
2
40
2
49
1
49
1
0
LTYPE
2
CON_163
70
64
3
12 5 15 5 17
72
65
73
2
40
2
49
1
49
1
0
LTYPE
2
CON_164
70
64
3
12 5 17 4 15
72
65
73
2
40
2
49
1
49
1
0
LTYPE
2
CON_165
70
64
3
12 5 19 5 17
72
65
73
2
40
2
49
1
49
1
0
LTYPE
2
CON_166
70
64
3
12 6 15 33 1
72
65
73
2
40
2
49
1
49
1
0
LTYPE
2
CON_167
70
64
3
12 6 17 33 1
72
65
73
2
40
2
49
1
49
1
0
LTYPE
2
CON_168
70
64
3
12 6 19 33 1
72
65
73
2
40
2
49
1
49
1
0
LTYPE
2
CON_169
70
64
3
12 7 15 33 1
72
65
73
2
40
2
49
1
49
1
0
LTYPE
2
CON_170
70
64
3
12 7 17 33 1
72
65
73
2
40
2
49
1
49
1
0
LTYPE
2
CON_171
70
64
3
12 7 19 33 1
72
65
73
2
40
2
49
1
49
1
0
LTYPE
2
CON_172
70
64
3
12 33 1 9 2
72
65
73
2
40
2
49
1
49
1
0
LTYPE
2
CON_173
70
64
3
12 11 4 21 1
72
65
73
2
40
2
49
1
49
1
0
LTYPE
2
CON_174
70
64
3
12 11 5 11 4
72
65
73
2
40
2
49
1
49
1
0
LTYPE
2
CON_175
70
64
3
12 21 1 6 17
72
65
73
2
40
2
49
1
49
1
0
LTYPE
2
CON_176
70
64
3
12 6 17 25 1
72
65
73
2
40
2
49
1
49
1
0
LTYPE
2
CON_177
70
64
3
12 3 15 33 1
72
65
73
2
40
2
49
1
49
1
0
ENDTAB
999
*** POWERPCB  LAYER ***
0
TABLE
2
LAYER
70
7
0
LAYER
2
DBLAYERS
70
1
62
-5
6
CONTINUOUS
0
LAYER
2
BOARD_OUTLINE_00
70
0
62
5
6
CONTINUOUS
0
LAYER
2
POUR_HEADER_01
70
1
62
-3
6
CONTINUOUS
0
LAYER
2
POUR_OUTLINE_01
70
0
62
3
6
CONTINUOUS
0
LAYER
2
POUR_PADTHERM_01
70
0
62
3
6
CONTINUOUS
0
LAYER
2
POUR_VIATHERM_01
70
0
62
3
6
CONTINUOUS
0
LAYER
2
PCB_PARAMS
70
1
62
-5
6
CONTINUOUS
0
ENDTAB
999
*** POWERPCB  TEXT STYLE ***
0
TABLE
2
STYLE
70
1
0
STYLE
2
W0$01
70
64
40
0
41
0.75
42
0
50
0
71
0
3
simplex
0
ENDTAB
0
ENDSEC
0
SECTION
2
BLOCKS
999
*** POWERPCB  DBLAYER ***
0
BLOCK
2
DBLAYERS
8
0
10
0
20
0
3
DBLAYERS
70
64
0
TEXT
8
DBLAYERS
10
0
20
-0.12
40
0.07
1
__It__Is__Job__Name__:=P2007_0000_RBCS_RC_MAIS_R_002.pcb
999
 *  1.Number             2.Type                  3.RouteColor
999
 *  4.ViaColor           5.PadColor              6.CopperColor
999
 *  7.2DLineColor        8.TextColor             9.ErrorColor
999
 * 10.TopComponentColor 11.BottomComponentColor 12.RoutingDirection
999
 * 13.LayerThickness    14.CopperThickness      15.Dielectric
999
 * 16.IsRouteable       17.IsVisible            18.IsSelectable
999
 * 19.IsPrepreg         20.AssSilkScreen        21.AssPasteMask
999
 * 22.AssSolderMask     23.AssAssembly
0
TEXT
8
DBLAYERS
10
0
20
-0.24
40
0.07
1
Top:=1 1 10 10 10 10 10 10 14 8 0 0 304800 38100 3.7999999523 1 1 1 0 26 23 21 27 0 0 1 13 0 0 13 
0
ENDBLK
999
*** POWERPCB  BOARD ***
0
BLOCK
2
BOARD_1
8
0
10
0
20
0
3
BOARD_1
70
64
0
POLYLINE
8
BOARD_OUTLINE_00
66
1
40
0.01
41
0.01
70
1
0
VERTEX
8
BOARD_OUTLINE_00
10
2.3349390814
20
0.0000069291
0
VERTEX
8
BOARD_OUTLINE_00
10
2.3349390814
20
0.6456762205
0
VERTEX
8
BOARD_OUTLINE_00
10
0.7587252493
20
0.6456762205
0
VERTEX
8
BOARD_OUTLINE_00
10
0.7351032021
20
0.4724989501
0
VERTEX
8
BOARD_OUTLINE_00
10
0.0002934121
20
0.4724989501
0
VERTEX
8
BOARD_OUTLINE_00
10
0.0002934121
20
0.0000069291
0
SEQEND
0
INSERT
2
SMOOTH_0$01
8
BOARD_OUTLINE_00
10
2.3349390814
20
0.0000069291
0
INSERT
2
SMOOTH_0$01
8
BOARD_OUTLINE_00
10
2.3349390814
20
0.6456762205
0
INSERT
2
SMOOTH_0$01
8
BOARD_OUTLINE_00
10
0.7587252493
20
0.6456762205
0
INSERT
2
SMOOTH_0$01
8
BOARD_OUTLINE_00
10
0.7351032021
20
0.4724989501
0
INSERT
2
SMOOTH_0$01
8
BOARD_OUTLINE_00
10
0.0002934121
20
0.4724989501
0
INSERT
2
SMOOTH_0$01
8
BOARD_OUTLINE_00
10
0.0002934121
20
0.0000069291
0
ENDBLK
999
*** POWERPCB  COPPER POUR ***
0
BLOCK
2
POUR_HEADER_2
8
0
10
0
20
0
3
POUR_HEADER_2
70
64
0
POLYLINE
8
POUR_HEADER_01
6
POUR_00_-1_0_000000
66
1
40
0.008
41
0.008
70
1
0
VERTEX
8
POUR_HEADER_01
10
0.0000119685
20
0
0
VERTEX
8
POUR_HEADER_01
10
0.07
20
0
0
VERTEX
8
POUR_HEADER_01
10
0.0885
20
0.0185
0
VERTEX
8
POUR_HEADER_01
10
0.266
20
0.0185
0
VERTEX
8
POUR_HEADER_01
10
0.29975
20
-0.01525
0
VERTEX
8
POUR_HEADER_01
10
0.29975
20
-0.086
0
VERTEX
8
POUR_HEADER_01
10
0.3103750131
20
-0.0966250131
0
VERTEX
8
POUR_HEADER_01
10
0.392
20
-0.0966250131
0
VERTEX
8
POUR_HEADER_01
10
0.4683125197
20
-0.0203125197
0
VERTEX
8
POUR_HEADER_01
10
0.4683125197
20
-0.003
0
VERTEX
8
POUR_HEADER_01
10
0.471656273
20
0.000343727
0
VERTEX
8
POUR_HEADER_01
10
0.574
20
0.000343727
0
VERTEX
8
POUR_HEADER_01
10
0.6831718635
20
-0.1088281365
0
VERTEX
8
POUR_HEADER_01
10
0.8261718635
20
-0.1088281365
0
VERTEX
8
POUR_HEADER_01
10
0.8909140682
20
-0.0440859318
0
VERTEX
8
POUR_HEADER_01
10
0.8909140682
20
-0.005
0
VERTEX
8
POUR_HEADER_01
10
0.8974570341
20
0.0015429659
0
VERTEX
8
POUR_HEADER_01
10
0.954
20
0.0015429659
0
VERTEX
8
POUR_HEADER_01
10
0.9592714961
20
-0.0037285302
0
VERTEX
8
POUR_HEADER_01
10
0.9592714961
20
-0.062
0
VERTEX
8
POUR_HEADER_01
10
0.995635748
20
-0.098364252
0
VERTEX
8
POUR_HEADER_01
10
1.249
20
-0.098364252
0
VERTEX
8
POUR_HEADER_01
10
1.285182126
20
-0.062182126
0
VERTEX
8
POUR_HEADER_01
10
1.285182126
20
-0.037
0
VERTEX
8
POUR_HEADER_01
10
1.3235910761
20
0.0014089501
0
VERTEX
8
POUR_HEADER_01
10
1.426
20
0.0014089501
0
VERTEX
8
POUR_HEADER_01
10
1.4417044882
20
-0.0142955118
0
VERTEX
8
POUR_HEADER_01
10
1.4417044882
20
-0.076
0
VERTEX
8
POUR_HEADER_01
10
1.4573522572
20
-0.0916477428
0
VERTEX
8
POUR_HEADER_01
10
1.502
20
-0.0916477428
0
VERTEX
8
POUR_HEADER_01
10
1.502
20
-0.127
0
VERTEX
8
POUR_HEADER_01
10
1.4095
20
-0.127
0
VERTEX
8
POUR_HEADER_01
10
1.399
20
-0.1165
0
VERTEX
8
POUR_HEADER_01
10
1.399
20
-0.066
0
VERTEX
8
POUR_HEADER_01
10
1.3805000262
20
-0.0475
0
VERTEX
8
POUR_HEADER_01
10
1.3530000262
20
-0.0474999738
0
VERTEX
8
POUR_HEADER_01
10
1.34175
20
-0.05875
0
VERTEX
8
POUR_HEADER_01
10
1.34175
20
-0.07025
0
VERTEX
8
POUR_HEADER_01
10
1.2861250131
20
-0.1258749869
0
VERTEX
8
POUR_HEADER_01
10
1.266
20
-0.1258749869
0
VERTEX
8
POUR_HEADER_01
10
1.2579374803
20
-0.1339375066
0
VERTEX
8
POUR_HEADER_01
10
0.993
20
-0.1339375066
0
VERTEX
8
POUR_HEADER_01
10
0.9354687402
20
-0.1914687402
0
VERTEX
8
POUR_HEADER_01
10
0.703
20
-0.1914687402
0
VERTEX
8
POUR_HEADER_01
10
0.6407656168
20
-0.1292343832
0
VERTEX
8
POUR_HEADER_01
10
0.527
20
-0.1292343832
0
VERTEX
8
POUR_HEADER_01
10
0.4963828084
20
-0.0986171916
0
VERTEX
8
POUR_HEADER_01
10
0.453
20
-0.0986171916
0
VERTEX
8
POUR_HEADER_01
10
0.4208085827
20
-0.1308085827
0
VERTEX
8
POUR_HEADER_01
10
0.287
20
-0.1308085827
0
VERTEX
8
POUR_HEADER_01
10
0.2740956955
20
-0.1179043045
0
VERTEX
8
POUR_HEADER_01
10
0.2740956955
20
-0.022
0
VERTEX
8
POUR_HEADER_01
10
0.2650478478
20
-0.0129521522
0
VERTEX
8
POUR_HEADER_01
10
0.1070478478
20
-0.0129521522
0
VERTEX
8
POUR_HEADER_01
10
0.0640239108
20
-0.055976063
0
VERTEX
8
POUR_HEADER_01
10
0.008
20
-0.055976063
0
VERTEX
8
POUR_HEADER_01
10
0.0000119685
20
-0.0479880315
0
SEQEND
0
INSERT
2
POUR_OUTLINE_8
8
0
10
-0.7769448819
20
-5.1923385827
0
INSERT
2
POUR_PADTHERM_9
8
0
10
-0.7769448819
20
-5.1923385827
0
INSERT
2
POUR_PADTHERM_10
8
0
10
-0.7769448819
20
-5.1923385827
0
INSERT
2
POUR_PADTHERM_11
8
0
10
-0.7769448819
20
-5.1923385827
0
INSERT
2
POUR_PADTHERM_12
8
0
10
-0.7769448819
20
-5.1923385827
0
INSERT
2
POUR_PADTHERM_13
8
0
10
-0.7769448819
20
-5.1923385827
0
INSERT
2
POUR_PADTHERM_14
8
0
10
-0.7769448819
20
-5.1923385827
0
INSERT
2
POUR_PADTHERM_15
8
0
10
-0.7769448819
20
-5.1923385827
0
INSERT
2
POUR_PADTHERM_16
8
0
10
-0.7769448819
20
-5.1923385827
0
INSERT
2
POUR_PADTHERM_17
8
0
10
-0.7769448819
20
-5.1923385827
0
INSERT
2
POUR_PADTHERM_18
8
0
10
-0.7769448819
20
-5.1923385827
0
INSERT
2
POUR_PADTHERM_19
8
0
10
-0.7769448819
20
-5.1923385827
0
INSERT
2
POUR_PADTHERM_20
8
0
10
-0.7769448819
20
-5.1923385827
0
INSERT
2
POUR_PADTHERM_21
8
0
10
-0.7769448819
20
-5.1923385827
0
INSERT
2
POUR_VIATHERM_22
8
0
10
-0.7769448819
20
-5.1923385827
0
ENDBLK
0
BLOCK
2
POUR_OUTLINE_8
8
0
10
0
20
0
3
POUR_OUTLINE_8
70
64
0
POLYLINE
8
POUR_OUTLINE_01
66
1
40
0.008
41
0.008
70
1
0
VERTEX
8
POUR_OUTLINE_01
10
2.2749448819
20
5.0694105774
0
VERTEX
8
POUR_OUTLINE_01
10
2.2749448819
20
5.0966188451
42
0.4142135624
0
VERTEX
8
POUR_OUTLINE_01
10
2.2748728871
20
5.0966908399
0
VERTEX
8
POUR_OUTLINE_01
10
2.232640315
20
5.0966908399
0
VERTEX
8
POUR_OUTLINE_01
10
2.2146493701
20
5.1146817585
0
VERTEX
8
POUR_OUTLINE_01
10
2.2146493701
20
5.1763564042
42
0.1989123674
0
VERTEX
8
POUR_OUTLINE_01
10
2.214628294
20
5.1764073228
0
VERTEX
8
POUR_OUTLINE_01
10
2.2013091339
20
5.1897264567
42
0.1989123674
0
VERTEX
8
POUR_OUTLINE_01
10
2.2012582152
20
5.1897475328
0
VERTEX
8
POUR_OUTLINE_01
10
2.1022226509
20
5.1897475328
42
0.1989123674
0
VERTEX
8
POUR_OUTLINE_01
10
2.1021717323
20
5.1897264567
0
VERTEX
8
POUR_OUTLINE_01
10
2.066148084
20
5.1537028084
42
0.1989123674
0
VERTEX
8
POUR_OUTLINE_01
10
2.0661270079
20
5.1536518898
0
VERTEX
8
POUR_OUTLINE_01
10
2.0661270079
20
5.1284996063
0
VERTEX
8
POUR_OUTLINE_01
10
2.0276017323
20
5.0899743307
0
VERTEX
8
POUR_OUTLINE_01
10
2.0171274803
20
5.0899743307
42
0.0755655069
0
VERTEX
8
POUR_OUTLINE_01
10
2.0171060892
20
5.0899710761
42
-0.075589629
0
VERTEX
8
POUR_OUTLINE_01
10
2.0129448819
20
5.0893383727
0
VERTEX
8
POUR_OUTLINE_01
10
1.8349448819
20
5.0893383727
42
-0.075589629
0
VERTEX
8
POUR_OUTLINE_01
10
1.8307836745
20
5.0899710761
42
0.0755655069
0
VERTEX
8
POUR_OUTLINE_01
10
1.8307622835
20
5.0899743307
0
VERTEX
8
POUR_OUTLINE_01
10
1.7709237795
20
5.0899743307
0
VERTEX
8
POUR_OUTLINE_01
10
1.732216378
20
5.1286817323
0
VERTEX
8
POUR_OUTLINE_01
10
1.732216378
20
5.1869233596
42
0.1989123674
0
VERTEX
8
POUR_OUTLINE_01
10
1.7321953018
20
5.1869742782
0
VERTEX
8
POUR_OUTLINE_01
10
1.7293091076
20
5.1898604724
42
0.1989123674
0
VERTEX
8
POUR_OUTLINE_01
10
1.729258189
20
5.1898815486
0
VERTEX
8
POUR_OUTLINE_01
10
1.6760886089
20
5.1898815486
42
0.1989123674
0
VERTEX
8
POUR_OUTLINE_01
10
1.6760376903
20
5.1898604724
0
VERTEX
8
POUR_OUTLINE_01
10
1.6718800262
20
5.1857028084
42
0.1989123674
0
VERTEX
8
POUR_OUTLINE_01
10
1.6718589501
20
5.1856518898
0
VERTEX
8
POUR_OUTLINE_01
10
1.6718589501
20
5.1465958005
0
VERTEX
8
POUR_OUTLINE_01
10
1.6047735958
20
5.0795104462
0
VERTEX
8
POUR_OUTLINE_01
10
1.458459895
20
5.0795104462
0
VERTEX
8
POUR_OUTLINE_01
10
1.3493091076
20
5.1886612336
42
0.1989123674
0
VERTEX
8
POUR_OUTLINE_01
10
1.349258189
20
5.1886823097
0
VERTEX
8
POUR_OUTLINE_01
10
1.2502877953
20
5.1886823097
42
0.1989123674
0
VERTEX
8
POUR_OUTLINE_01
10
1.2502368766
20
5.1886612336
0
VERTEX
8
POUR_OUTLINE_01
10
1.2492784777
20
5.1877028346
42
0.1989123674
0
VERTEX
8
POUR_OUTLINE_01
10
1.2492574016
20
5.187651916
0
VERTEX
8
POUR_OUTLINE_01
10
1.2492574016
20
5.1703692126
0
VERTEX
8
POUR_OUTLINE_01
10
1.170601706
20
5.0917135696
0
VERTEX
8
POUR_OUTLINE_01
10
1.1112661417
20
5.0917135696
42
0.0433520107
0
VERTEX
8
POUR_OUTLINE_01
10
1.111253727
20
5.0917124934
42
-0.0868258434
0
VERTEX
8
POUR_OUTLINE_01
10
1.1026360367
20
5.0917124934
42
0.0433520107
0
VERTEX
8
POUR_OUTLINE_01
10
1.102623622
20
5.0917135696
0
VERTEX
8
POUR_OUTLINE_01
10
1.0856630446
20
5.0917135696
0
VERTEX
8
POUR_OUTLINE_01
10
1.0726948819
20
5.1046817323
0
VERTEX
8
POUR_OUTLINE_01
10
1.0726948819
20
5.1754018898
42
0.1989123674
0
VERTEX
8
POUR_OUTLINE_01
10
1.0726738058
20
5.1754528084
0
VERTEX
8
POUR_OUTLINE_01
10
1.0413091076
20
5.2068175066
42
0.1989123674
0
VERTEX
8
POUR_OUTLINE_01
10
1.041258189
20
5.2068385827
0
VERTEX
8
POUR_OUTLINE_01
10
0.8671315748
20
5.2068385827
42
0.1989123674
0
VERTEX
8
POUR_OUTLINE_01
10
0.8670806562
20
5.2068175066
0
VERTEX
8
POUR_OUTLINE_01
10
0.8486017323
20
5.1883385827
0
VERTEX
8
POUR_OUTLINE_01
10
0.7810288451
20
5.1883385827
42
0.4142135624
0
VERTEX
8
POUR_OUTLINE_01
10
0.7809568504
20
5.1882665879
0
VERTEX
8
POUR_OUTLINE_01
10
0.7809568504
20
5.1460372441
42
0.1989123674
0
VERTEX
8
POUR_OUTLINE_01
10
0.7809779265
20
5.1459863255
0
VERTEX
8
POUR_OUTLINE_01
10
0.7865806562
20
5.1403835958
42
0.1989123674
0
VERTEX
8
POUR_OUTLINE_01
10
0.7866315748
20
5.1403625197
0
VERTEX
8
POUR_OUTLINE_01
10
0.8392820997
20
5.1403625197
42
0.1989123674
0
VERTEX
8
POUR_OUTLINE_01
10
0.8393330184
20
5.1403835958
0
VERTEX
8
POUR_OUTLINE_01
10
0.8648323097
20
5.1658828609
42
0.0984588541
0
VERTEX
8
POUR_OUTLINE_01
10
0.8648479003
20
5.1659062205
42
-0.1989017114
0
VERTEX
8
POUR_OUTLINE_01
10
0.8783772441
20
5.1794355643
42
0.0984588541
0
VERTEX
8
POUR_OUTLINE_01
10
0.8784006037
20
5.1794511549
0
VERTEX
8
POUR_OUTLINE_01
10
0.8823358793
20
5.1833864304
0
VERTEX
8
POUR_OUTLINE_01
10
1.0436495801
20
5.1833864304
0
VERTEX
8
POUR_OUTLINE_01
10
1.0550405774
20
5.1719954593
0
VERTEX
8
POUR_OUTLINE_01
10
1.0550405774
20
5.0761209711
42
0.1989123674
0
VERTEX
8
POUR_OUTLINE_01
10
1.0550616535
20
5.0760700525
0
VERTEX
8
POUR_OUTLINE_01
10
1.0655806037
20
5.0655510761
42
0.1989123674
0
VERTEX
8
POUR_OUTLINE_01
10
1.0656315223
20
5.06553
0
VERTEX
8
POUR_OUTLINE_01
10
1.1960667717
20
5.06553
42
0.1989123674
0
VERTEX
8
POUR_OUTLINE_01
10
1.1961176903
20
5.0655510761
0
VERTEX
8
POUR_OUTLINE_01
10
1.2282880315
20
5.0977213911
0
VERTEX
8
POUR_OUTLINE_01
10
1.2749845407
20
5.0977213911
0
VERTEX
8
POUR_OUTLINE_01
10
1.3055806562
20
5.0671252756
42
0.1989123674
0
VERTEX
8
POUR_OUTLINE_01
10
1.3056315748
20
5.0671041995
0
VERTEX
8
POUR_OUTLINE_01
10
1.4193673228
20
5.0671041995
0
VERTEX
8
POUR_OUTLINE_01
10
1.4481116535
20
5.0383598688
42
0.1989123674
0
VERTEX
8
POUR_OUTLINE_01
10
1.4481625722
20
5.0383387927
0
VERTEX
8
POUR_OUTLINE_01
10
1.6016306824
20
5.0383387927
42
0.1989123674
0
VERTEX
8
POUR_OUTLINE_01
10
1.601681601
20
5.0383598688
0
VERTEX
8
POUR_OUTLINE_01
10
1.6088025984
20
5.0454808661
42
-0.1989123674
0
VERTEX
8
POUR_OUTLINE_01
10
1.6229448819
20
5.0513387927
0
VERTEX
8
POUR_OUTLINE_01
10
1.7571959055
20
5.0513387927
42
0.1989123674
0
VERTEX
8
POUR_OUTLINE_01
10
1.7572468241
20
5.0513598688
0
VERTEX
8
POUR_OUTLINE_01
10
1.7682880315
20
5.0624010761
0
VERTEX
8
POUR_OUTLINE_01
10
2.0331956693
20
5.0624010761
42
0.1989123674
0
VERTEX
8
POUR_OUTLINE_01
10
2.0332465879
20
5.0624221522
0
VERTEX
8
POUR_OUTLINE_01
10
2.0412880315
20
5.0704635958
0
VERTEX
8
POUR_OUTLINE_01
10
2.0613832021
20
5.0704635958
42
0.1989123674
0
VERTEX
8
POUR_OUTLINE_01
10
2.0614341207
20
5.0704846719
0
VERTEX
8
POUR_OUTLINE_01
10
2.1146738058
20
5.123724357
42
0.1989123674
0
VERTEX
8
POUR_OUTLINE_01
10
2.1146948819
20
5.1237752756
0
VERTEX
8
POUR_OUTLINE_01
10
2.1146948819
20
5.1352454331
0
VERTEX
8
POUR_OUTLINE_01
10
2.1282880315
20
5.1488386089
0
VERTEX
8
POUR_OUTLINE_01
10
2.1591017585
20
5.1488385564
0
VERTEX
8
POUR_OUTLINE_01
10
2.1799448819
20
5.1279954068
0
VERTEX
8
POUR_OUTLINE_01
10
2.1799448819
20
5.0775252756
42
0.1989123674
0
VERTEX
8
POUR_OUTLINE_01
10
2.179965958
20
5.077474357
0
VERTEX
8
POUR_OUTLINE_01
10
2.1880806562
20
5.0693596588
42
0.1989123674
0
VERTEX
8
POUR_OUTLINE_01
10
2.1881315748
20
5.0693385827
0
VERTEX
8
POUR_OUTLINE_01
10
2.2748728871
20
5.0693385827
42
0.4142135624
0
SEQEND
0
ENDBLK
0
BLOCK
2
POUR_PADTHERM_9
8
0
10
0
20
0
3
POUR_PADTHERM_9
70
64
0
POLYLINE
8
POUR_PADTHERM_01
66
1
0
VERTEX
8
POUR_PADTHERM_01
10
1.7079606299
20
5.1629527559
0
VERTEX
8
POUR_PADTHERM_01
10
1.7079606299
20
5.1629527559
42
1
0
VERTEX
8
POUR_PADTHERM_01
10
1.7079606299
20
5.1629527559
0
VERTEX
8
POUR_PADTHERM_01
10
1.7079606299
20
5.1629527559
42
1
0
VERTEX
8
POUR_PADTHERM_01
10
1.7079606299
20
5.1629527559
0
SEQEND
0
POLYLINE
8
POUR_PADTHERM_01
66
1
0
VERTEX
8
POUR_PADTHERM_01
10
1.7276456693
20
5.1688582677
0
VERTEX
8
POUR_PADTHERM_01
10
1.7276456693
20
5.1688582677
42
1
0
VERTEX
8
POUR_PADTHERM_01
10
1.7276456693
20
5.1688582677
0
VERTEX
8
POUR_PADTHERM_01
10
1.7276456693
20
5.1688582677
42
1
0
VERTEX
8
POUR_PADTHERM_01
10
1.7276456693
20
5.1688582677
0
SEQEND
0
POLYLINE
8
POUR_PADTHERM_01
66
1
0
VERTEX
8
POUR_PADTHERM_01
10
1.7079606299
20
5.1747637795
0
VERTEX
8
POUR_PADTHERM_01
10
1.7079606299
20
5.1747637795
42
1
0
VERTEX
8
POUR_PADTHERM_01
10
1.7079606299
20
5.1747637795
0
VERTEX
8
POUR_PADTHERM_01
10
1.7079606299
20
5.1747637795
42
1
0
VERTEX
8
POUR_PADTHERM_01
10
1.7079606299
20
5.1747637795
0
SEQEND
0
POLYLINE
8
POUR_PADTHERM_01
66
1
0
VERTEX
8
POUR_PADTHERM_01
10
1.6882755906
20
5.1688582677
0
VERTEX
8
POUR_PADTHERM_01
10
1.6882755906
20
5.1688582677
42
1
0
VERTEX
8
POUR_PADTHERM_01
10
1.6882755906
20
5.1688582677
0
VERTEX
8
POUR_PADTHERM_01
10
1.6882755906
20
5.1688582677
42
1
0
VERTEX
8
POUR_PADTHERM_01
10
1.6882755906
20
5.1688582677
0
SEQEND
0
ENDBLK
0
BLOCK
2
POUR_PADTHERM_10
8
0
10
0
20
0
3
POUR_PADTHERM_10
70
64
0
POLYLINE
8
POUR_PADTHERM_01
66
1
0
VERTEX
8
POUR_PADTHERM_01
10
2.1989448819
20
5.1083385827
0
VERTEX
8
POUR_PADTHERM_01
10
2.1989448819
20
5.1083385827
42
1
0
VERTEX
8
POUR_PADTHERM_01
10
2.1989448819
20
5.1083385827
0
VERTEX
8
POUR_PADTHERM_01
10
2.1989448819
20
5.1083385827
42
1
0
VERTEX
8
POUR_PADTHERM_01
10
2.1989448819
20
5.1083385827
0
SEQEND
0
POLYLINE
8
POUR_PADTHERM_01
66
1
0
VERTEX
8
POUR_PADTHERM_01
10
2.2239448819
20
5.0833385827
0
VERTEX
8
POUR_PADTHERM_01
10
2.2239448819
20
5.0833385827
42
1
0
VERTEX
8
POUR_PADTHERM_01
10
2.2239448819
20
5.0833385827
0
VERTEX
8
POUR_PADTHERM_01
10
2.2239448819
20
5.0833385827
42
1
0
VERTEX
8
POUR_PADTHERM_01
10
2.2239448819
20
5.0833385827
0
SEQEND
0
ENDBLK
0
BLOCK
2
POUR_PADTHERM_11
8
0
10
0
20
0
3
POUR_PADTHERM_11
70
64
0
POLYLINE
8
POUR_PADTHERM_01
66
1
0
VERTEX
8
POUR_PADTHERM_01
10
2.1686456693
20
5.1491732283
0
VERTEX
8
POUR_PADTHERM_01
10
2.1686456693
20
5.1491732283
42
1
0
VERTEX
8
POUR_PADTHERM_01
10
2.1686456693
20
5.1491732283
0
VERTEX
8
POUR_PADTHERM_01
10
2.1686456693
20
5.1491732283
42
1
0
VERTEX
8
POUR_PADTHERM_01
10
2.1686456693
20
5.1491732283
0
SEQEND
0
POLYLINE
8
POUR_PADTHERM_01
66
1
0
VERTEX
8
POUR_PADTHERM_01
10
2.1489606299
20
5.1550787402
0
VERTEX
8
POUR_PADTHERM_01
10
2.1489606299
20
5.1550787402
42
1
0
VERTEX
8
POUR_PADTHERM_01
10
2.1489606299
20
5.1550787402
0
VERTEX
8
POUR_PADTHERM_01
10
2.1489606299
20
5.1550787402
42
1
0
VERTEX
8
POUR_PADTHERM_01
10
2.1489606299
20
5.1550787402
0
SEQEND
0
POLYLINE
8
POUR_PADTHERM_01
66
1
0
VERTEX
8
POUR_PADTHERM_01
10
2.1292755906
20
5.1491732283
0
VERTEX
8
POUR_PADTHERM_01
10
2.1292755906
20
5.1491732283
42
1
0
VERTEX
8
POUR_PADTHERM_01
10
2.1292755906
20
5.1491732283
0
VERTEX
8
POUR_PADTHERM_01
10
2.1292755906
20
5.1491732283
42
1
0
VERTEX
8
POUR_PADTHERM_01
10
2.1292755906
20
5.1491732283
0
SEQEND
0
ENDBLK
0
BLOCK
2
POUR_PADTHERM_12
8
0
10
0
20
0
3
POUR_PADTHERM_12
70
64
0
POLYLINE
8
POUR_PADTHERM_01
66
1
0
VERTEX
8
POUR_PADTHERM_01
10
1.2669606299
20
5.1826377953
0
VERTEX
8
POUR_PADTHERM_01
10
1.2669606299
20
5.1826377953
42
1
0
VERTEX
8
POUR_PADTHERM_01
10
1.2669606299
20
5.1826377953
0
VERTEX
8
POUR_PADTHERM_01
10
1.2669606299
20
5.1826377953
42
1
0
VERTEX
8
POUR_PADTHERM_01
10
1.2669606299
20
5.1826377953
0
SEQEND
0
POLYLINE
8
POUR_PADTHERM_01
66
1
0
VERTEX
8
POUR_PADTHERM_01
10
1.2866456693
20
5.1885433071
0
VERTEX
8
POUR_PADTHERM_01
10
1.2866456693
20
5.1885433071
42
1
0
VERTEX
8
POUR_PADTHERM_01
10
1.2866456693
20
5.1885433071
0
VERTEX
8
POUR_PADTHERM_01
10
1.2866456693
20
5.1885433071
42
1
0
VERTEX
8
POUR_PADTHERM_01
10
1.2866456693
20
5.1885433071
0
SEQEND
0
POLYLINE
8
POUR_PADTHERM_01
66
1
0
VERTEX
8
POUR_PADTHERM_01
10
1.2472755906
20
5.1885433071
0
VERTEX
8
POUR_PADTHERM_01
10
1.2472755906
20
5.1885433071
42
1
0
VERTEX
8
POUR_PADTHERM_01
10
1.2472755906
20
5.1885433071
0
VERTEX
8
POUR_PADTHERM_01
10
1.2472755906
20
5.1885433071
42
1
0
VERTEX
8
POUR_PADTHERM_01
10
1.2472755906
20
5.1885433071
0
SEQEND
0
ENDBLK
0
BLOCK
2
POUR_PADTHERM_13
8
0
10
0
20
0
3
POUR_PADTHERM_13
70
64
0
POLYLINE
8
POUR_PADTHERM_01
66
1
0
VERTEX
8
POUR_PADTHERM_01
10
1.2669606299
20
5.1629527559
0
VERTEX
8
POUR_PADTHERM_01
10
1.2669606299
20
5.1629527559
42
1
0
VERTEX
8
POUR_PADTHERM_01
10
1.2669606299
20
5.1629527559
0
VERTEX
8
POUR_PADTHERM_01
10
1.2669606299
20
5.1629527559
42
1
0
VERTEX
8
POUR_PADTHERM_01
10
1.2669606299
20
5.1629527559
0
SEQEND
0
POLYLINE
8
POUR_PADTHERM_01
66
1
0
VERTEX
8
POUR_PADTHERM_01
10
1.2866456693
20
5.1688582677
0
VERTEX
8
POUR_PADTHERM_01
10
1.2866456693
20
5.1688582677
42
1
0
VERTEX
8
POUR_PADTHERM_01
10
1.2866456693
20
5.1688582677
0
VERTEX
8
POUR_PADTHERM_01
10
1.2866456693
20
5.1688582677
42
1
0
VERTEX
8
POUR_PADTHERM_01
10
1.2866456693
20
5.1688582677
0
SEQEND
0
POLYLINE
8
POUR_PADTHERM_01
66
1
0
VERTEX
8
POUR_PADTHERM_01
10
1.2669606299
20
5.1747637795
0
VERTEX
8
POUR_PADTHERM_01
10
1.2669606299
20
5.1747637795
42
1
0
VERTEX
8
POUR_PADTHERM_01
10
1.2669606299
20
5.1747637795
0
VERTEX
8
POUR_PADTHERM_01
10
1.2669606299
20
5.1747637795
42
1
0
VERTEX
8
POUR_PADTHERM_01
10
1.2669606299
20
5.1747637795
0
SEQEND
0
POLYLINE
8
POUR_PADTHERM_01
66
1
0
VERTEX
8
POUR_PADTHERM_01
10
1.2472755906
20
5.1688582677
0
VERTEX
8
POUR_PADTHERM_01
10
1.2472755906
20
5.1688582677
42
1
0
VERTEX
8
POUR_PADTHERM_01
10
1.2472755906
20
5.1688582677
0
VERTEX
8
POUR_PADTHERM_01
10
1.2472755906
20
5.1688582677
42
1
0
VERTEX
8
POUR_PADTHERM_01
10
1.2472755906
20
5.1688582677
0
SEQEND
0
ENDBLK
0
BLOCK
2
POUR_PADTHERM_14
8
0
10
0
20
0
3
POUR_PADTHERM_14
70
64
0
POLYLINE
8
POUR_PADTHERM_01
66
1
0
VERTEX
8
POUR_PADTHERM_01
10
1.2669606299
20
5.1432677165
0
VERTEX
8
POUR_PADTHERM_01
10
1.2669606299
20
5.1432677165
42
1
0
VERTEX
8
POUR_PADTHERM_01
10
1.2669606299
20
5.1432677165
0
VERTEX
8
POUR_PADTHERM_01
10
1.2669606299
20
5.1432677165
42
1
0
VERTEX
8
POUR_PADTHERM_01
10
1.2669606299
20
5.1432677165
0
SEQEND
0
POLYLINE
8
POUR_PADTHERM_01
66
1
0
VERTEX
8
POUR_PADTHERM_01
10
1.2866456693
20
5.1491732283
0
VERTEX
8
POUR_PADTHERM_01
10
1.2866456693
20
5.1491732283
42
1
0
VERTEX
8
POUR_PADTHERM_01
10
1.2866456693
20
5.1491732283
0
VERTEX
8
POUR_PADTHERM_01
10
1.2866456693
20
5.1491732283
42
1
0
VERTEX
8
POUR_PADTHERM_01
10
1.2866456693
20
5.1491732283
0
SEQEND
0
POLYLINE
8
POUR_PADTHERM_01
66
1
0
VERTEX
8
POUR_PADTHERM_01
10
1.2669606299
20
5.1550787402
0
VERTEX
8
POUR_PADTHERM_01
10
1.2669606299
20
5.1550787402
42
1
0
VERTEX
8
POUR_PADTHERM_01
10
1.2669606299
20
5.1550787402
0
VERTEX
8
POUR_PADTHERM_01
10
1.2669606299
20
5.1550787402
42
1
0
VERTEX
8
POUR_PADTHERM_01
10
1.2669606299
20
5.1550787402
0
SEQEND
0
POLYLINE
8
POUR_PADTHERM_01
66
1
0
VERTEX
8
POUR_PADTHERM_01
10
1.2472755906
20
5.1491732283
0
VERTEX
8
POUR_PADTHERM_01
10
1.2472755906
20
5.1491732283
42
1
0
VERTEX
8
POUR_PADTHERM_01
10
1.2472755906
20
5.1491732283
0
VERTEX
8
POUR_PADTHERM_01
10
1.2472755906
20
5.1491732283
42
1
0
VERTEX
8
POUR_PADTHERM_01
10
1.2472755906
20
5.1491732283
0
SEQEND
0
ENDBLK
0
BLOCK
2
POUR_PADTHERM_15
8
0
10
0
20
0
3
POUR_PADTHERM_15
70
64
0
POLYLINE
8
POUR_PADTHERM_01
66
1
0
VERTEX
8
POUR_PADTHERM_01
10
2.1489606299
20
5.1629527559
0
VERTEX
8
POUR_PADTHERM_01
10
2.1489606299
20
5.1629527559
42
1
0
VERTEX
8
POUR_PADTHERM_01
10
2.1489606299
20
5.1629527559
0
VERTEX
8
POUR_PADTHERM_01
10
2.1489606299
20
5.1629527559
42
1
0
VERTEX
8
POUR_PADTHERM_01
10
2.1489606299
20
5.1629527559
0
SEQEND
0
POLYLINE
8
POUR_PADTHERM_01
66
1
0
VERTEX
8
POUR_PADTHERM_01
10
2.1686456693
20
5.1688582677
0
VERTEX
8
POUR_PADTHERM_01
10
2.1686456693
20
5.1688582677
42
1
0
VERTEX
8
POUR_PADTHERM_01
10
2.1686456693
20
5.1688582677
0
VERTEX
8
POUR_PADTHERM_01
10
2.1686456693
20
5.1688582677
42
1
0
VERTEX
8
POUR_PADTHERM_01
10
2.1686456693
20
5.1688582677
0
SEQEND
0
POLYLINE
8
POUR_PADTHERM_01
66
1
0
VERTEX
8
POUR_PADTHERM_01
10
2.1489606299
20
5.1747637795
0
VERTEX
8
POUR_PADTHERM_01
10
2.1489606299
20
5.1747637795
42
1
0
VERTEX
8
POUR_PADTHERM_01
10
2.1489606299
20
5.1747637795
0
VERTEX
8
POUR_PADTHERM_01
10
2.1489606299
20
5.1747637795
42
1
0
VERTEX
8
POUR_PADTHERM_01
10
2.1489606299
20
5.1747637795
0
SEQEND
0
POLYLINE
8
POUR_PADTHERM_01
66
1
0
VERTEX
8
POUR_PADTHERM_01
10
2.1292755906
20
5.1688582677
0
VERTEX
8
POUR_PADTHERM_01
10
2.1292755906
20
5.1688582677
42
1
0
VERTEX
8
POUR_PADTHERM_01
10
2.1292755906
20
5.1688582677
0
VERTEX
8
POUR_PADTHERM_01
10
2.1292755906
20
5.1688582677
42
1
0
VERTEX
8
POUR_PADTHERM_01
10
2.1292755906
20
5.1688582677
0
SEQEND
0
ENDBLK
0
BLOCK
2
POUR_PADTHERM_16
8
0
10
0
20
0
3
POUR_PADTHERM_16
70
64
0
POLYLINE
8
POUR_PADTHERM_01
66
1
0
VERTEX
8
POUR_PADTHERM_01
10
2.2559448819
20
5.100511811
0
VERTEX
8
POUR_PADTHERM_01
10
2.2559448819
20
5.100511811
42
1
0
VERTEX
8
POUR_PADTHERM_01
10
2.2559448819
20
5.100511811
0
VERTEX
8
POUR_PADTHERM_01
10
2.2559448819
20
5.100511811
42
1
0
VERTEX
8
POUR_PADTHERM_01
10
2.2559448819
20
5.100511811
0
SEQEND
0
POLYLINE
8
POUR_PADTHERM_01
66
1
0
VERTEX
8
POUR_PADTHERM_01
10
2.2319291339
20
5.0825984252
0
VERTEX
8
POUR_PADTHERM_01
10
2.2319291339
20
5.0825984252
42
1
0
VERTEX
8
POUR_PADTHERM_01
10
2.2319291339
20
5.0825984252
0
VERTEX
8
POUR_PADTHERM_01
10
2.2319291339
20
5.0825984252
42
1
0
VERTEX
8
POUR_PADTHERM_01
10
2.2319291339
20
5.0825984252
0
SEQEND
0
ENDBLK
0
BLOCK
2
POUR_PADTHERM_17
8
0
10
0
20
0
3
POUR_PADTHERM_17
70
64
0
POLYLINE
8
POUR_PADTHERM_01
66
1
0
VERTEX
8
POUR_PADTHERM_01
10
2.1489606299
20
5.1826377953
0
VERTEX
8
POUR_PADTHERM_01
10
2.1489606299
20
5.1826377953
42
1
0
VERTEX
8
POUR_PADTHERM_01
10
2.1489606299
20
5.1826377953
0
VERTEX
8
POUR_PADTHERM_01
10
2.1489606299
20
5.1826377953
42
1
0
VERTEX
8
POUR_PADTHERM_01
10
2.1489606299
20
5.1826377953
0
SEQEND
0
POLYLINE
8
POUR_PADTHERM_01
66
1
0
VERTEX
8
POUR_PADTHERM_01
10
2.1686456693
20
5.1885433071
0
VERTEX
8
POUR_PADTHERM_01
10
2.1686456693
20
5.1885433071
42
1
0
VERTEX
8
POUR_PADTHERM_01
10
2.1686456693
20
5.1885433071
0
VERTEX
8
POUR_PADTHERM_01
10
2.1686456693
20
5.1885433071
42
1
0
VERTEX
8
POUR_PADTHERM_01
10
2.1686456693
20
5.1885433071
0
SEQEND
0
POLYLINE
8
POUR_PADTHERM_01
66
1
0
VERTEX
8
POUR_PADTHERM_01
10
2.1292755906
20
5.1885433071
0
VERTEX
8
POUR_PADTHERM_01
10
2.1292755906
20
5.1885433071
42
1
0
VERTEX
8
POUR_PADTHERM_01
10
2.1292755906
20
5.1885433071
0
VERTEX
8
POUR_PADTHERM_01
10
2.1292755906
20
5.1885433071
42
1
0
VERTEX
8
POUR_PADTHERM_01
10
2.1292755906
20
5.1885433071
0
SEQEND
0
ENDBLK
0
BLOCK
2
POUR_PADTHERM_18
8
0
10
0
20
0
3
POUR_PADTHERM_18
70
64
0
POLYLINE
8
POUR_PADTHERM_01
66
1
0
VERTEX
8
POUR_PADTHERM_01
10
0.8269606299
20
5.1432677165
0
VERTEX
8
POUR_PADTHERM_01
10
0.8269606299
20
5.1432677165
42
1
0
VERTEX
8
POUR_PADTHERM_01
10
0.8269606299
20
5.1432677165
0
VERTEX
8
POUR_PADTHERM_01
10
0.8269606299
20
5.1432677165
42
1
0
VERTEX
8
POUR_PADTHERM_01
10
0.8269606299
20
5.1432677165
0
SEQEND
0
POLYLINE
8
POUR_PADTHERM_01
66
1
0
VERTEX
8
POUR_PADTHERM_01
10
0.8466456693
20
5.1491732283
0
VERTEX
8
POUR_PADTHERM_01
10
0.8466456693
20
5.1491732283
42
1
0
VERTEX
8
POUR_PADTHERM_01
10
0.8466456693
20
5.1491732283
0
VERTEX
8
POUR_PADTHERM_01
10
0.8466456693
20
5.1491732283
42
1
0
VERTEX
8
POUR_PADTHERM_01
10
0.8466456693
20
5.1491732283
0
SEQEND
0
POLYLINE
8
POUR_PADTHERM_01
66
1
0
VERTEX
8
POUR_PADTHERM_01
10
0.8269606299
20
5.1550787402
0
VERTEX
8
POUR_PADTHERM_01
10
0.8269606299
20
5.1550787402
42
1
0
VERTEX
8
POUR_PADTHERM_01
10
0.8269606299
20
5.1550787402
0
VERTEX
8
POUR_PADTHERM_01
10
0.8269606299
20
5.1550787402
42
1
0
VERTEX
8
POUR_PADTHERM_01
10
0.8269606299
20
5.1550787402
0
SEQEND
0
POLYLINE
8
POUR_PADTHERM_01
66
1
0
VERTEX
8
POUR_PADTHERM_01
10
0.8072755906
20
5.1491732283
0
VERTEX
8
POUR_PADTHERM_01
10
0.8072755906
20
5.1491732283
42
1
0
VERTEX
8
POUR_PADTHERM_01
10
0.8072755906
20
5.1491732283
0
VERTEX
8
POUR_PADTHERM_01
10
0.8072755906
20
5.1491732283
42
1
0
VERTEX
8
POUR_PADTHERM_01
10
0.8072755906
20
5.1491732283
0
SEQEND
0
ENDBLK
0
BLOCK
2
POUR_PADTHERM_19
8
0
10
0
20
0
3
POUR_PADTHERM_19
70
64
0
POLYLINE
8
POUR_PADTHERM_01
66
1
0
VERTEX
8
POUR_PADTHERM_01
10
0.8269606299
20
5.1629527559
0
VERTEX
8
POUR_PADTHERM_01
10
0.8269606299
20
5.1629527559
42
1
0
VERTEX
8
POUR_PADTHERM_01
10
0.8269606299
20
5.1629527559
0
VERTEX
8
POUR_PADTHERM_01
10
0.8269606299
20
5.1629527559
42
1
0
VERTEX
8
POUR_PADTHERM_01
10
0.8269606299
20
5.1629527559
0
SEQEND
0
POLYLINE
8
POUR_PADTHERM_01
66
1
0
VERTEX
8
POUR_PADTHERM_01
10
0.8466456693
20
5.1688582677
0
VERTEX
8
POUR_PADTHERM_01
10
0.8466456693
20
5.1688582677
42
1
0
VERTEX
8
POUR_PADTHERM_01
10
0.8466456693
20
5.1688582677
0
VERTEX
8
POUR_PADTHERM_01
10
0.8466456693
20
5.1688582677
42
1
0
VERTEX
8
POUR_PADTHERM_01
10
0.8466456693
20
5.1688582677
0
SEQEND
0
POLYLINE
8
POUR_PADTHERM_01
66
1
0
VERTEX
8
POUR_PADTHERM_01
10
0.8269606299
20
5.1747637795
0
VERTEX
8
POUR_PADTHERM_01
10
0.8269606299
20
5.1747637795
42
1
0
VERTEX
8
POUR_PADTHERM_01
10
0.8269606299
20
5.1747637795
0
VERTEX
8
POUR_PADTHERM_01
10
0.8269606299
20
5.1747637795
42
1
0
VERTEX
8
POUR_PADTHERM_01
10
0.8269606299
20
5.1747637795
0
SEQEND
0
POLYLINE
8
POUR_PADTHERM_01
66
1
0
VERTEX
8
POUR_PADTHERM_01
10
0.8072755906
20
5.1688582677
0
VERTEX
8
POUR_PADTHERM_01
10
0.8072755906
20
5.1688582677
42
1
0
VERTEX
8
POUR_PADTHERM_01
10
0.8072755906
20
5.1688582677
0
VERTEX
8
POUR_PADTHERM_01
10
0.8072755906
20
5.1688582677
42
1
0
VERTEX
8
POUR_PADTHERM_01
10
0.8072755906
20
5.1688582677
0
SEQEND
0
ENDBLK
0
BLOCK
2
POUR_PADTHERM_20
8
0
10
0
20
0
3
POUR_PADTHERM_20
70
64
0
POLYLINE
8
POUR_PADTHERM_01
66
1
0
VERTEX
8
POUR_PADTHERM_01
10
1.7079606299
20
5.1432677165
0
VERTEX
8
POUR_PADTHERM_01
10
1.7079606299
20
5.1432677165
42
1
0
VERTEX
8
POUR_PADTHERM_01
10
1.7079606299
20
5.1432677165
0
VERTEX
8
POUR_PADTHERM_01
10
1.7079606299
20
5.1432677165
42
1
0
VERTEX
8
POUR_PADTHERM_01
10
1.7079606299
20
5.1432677165
0
SEQEND
0
POLYLINE
8
POUR_PADTHERM_01
66
1
0
VERTEX
8
POUR_PADTHERM_01
10
1.7276456693
20
5.1491732283
0
VERTEX
8
POUR_PADTHERM_01
10
1.7276456693
20
5.1491732283
42
1
0
VERTEX
8
POUR_PADTHERM_01
10
1.7276456693
20
5.1491732283
0
VERTEX
8
POUR_PADTHERM_01
10
1.7276456693
20
5.1491732283
42
1
0
VERTEX
8
POUR_PADTHERM_01
10
1.7276456693
20
5.1491732283
0
SEQEND
0
POLYLINE
8
POUR_PADTHERM_01
66
1
0
VERTEX
8
POUR_PADTHERM_01
10
1.7079606299
20
5.1550787402
0
VERTEX
8
POUR_PADTHERM_01
10
1.7079606299
20
5.1550787402
42
1
0
VERTEX
8
POUR_PADTHERM_01
10
1.7079606299
20
5.1550787402
0
VERTEX
8
POUR_PADTHERM_01
10
1.7079606299
20
5.1550787402
42
1
0
VERTEX
8
POUR_PADTHERM_01
10
1.7079606299
20
5.1550787402
0
SEQEND
0
POLYLINE
8
POUR_PADTHERM_01
66
1
0
VERTEX
8
POUR_PADTHERM_01
10
1.6882755906
20
5.1491732283
0
VERTEX
8
POUR_PADTHERM_01
10
1.6882755906
20
5.1491732283
42
1
0
VERTEX
8
POUR_PADTHERM_01
10
1.6882755906
20
5.1491732283
0
VERTEX
8
POUR_PADTHERM_01
10
1.6882755906
20
5.1491732283
42
1
0
VERTEX
8
POUR_PADTHERM_01
10
1.6882755906
20
5.1491732283
0
SEQEND
0
ENDBLK
0
BLOCK
2
POUR_PADTHERM_21
8
0
10
0
20
0
3
POUR_PADTHERM_21
70
64
0
POLYLINE
8
POUR_PADTHERM_01
66
1
0
VERTEX
8
POUR_PADTHERM_01
10
1.7079606299
20
5.1826377953
0
VERTEX
8
POUR_PADTHERM_01
10
1.7079606299
20
5.1826377953
42
1
0
VERTEX
8
POUR_PADTHERM_01
10
1.7079606299
20
5.1826377953
0
VERTEX
8
POUR_PADTHERM_01
10
1.7079606299
20
5.1826377953
42
1
0
VERTEX
8
POUR_PADTHERM_01
10
1.7079606299
20
5.1826377953
0
SEQEND
0
POLYLINE
8
POUR_PADTHERM_01
66
1
0
VERTEX
8
POUR_PADTHERM_01
10
1.7276456693
20
5.1885433071
0
VERTEX
8
POUR_PADTHERM_01
10
1.7276456693
20
5.1885433071
42
1
0
VERTEX
8
POUR_PADTHERM_01
10
1.7276456693
20
5.1885433071
0
VERTEX
8
POUR_PADTHERM_01
10
1.7276456693
20
5.1885433071
42
1
0
VERTEX
8
POUR_PADTHERM_01
10
1.7276456693
20
5.1885433071
0
SEQEND
0
POLYLINE
8
POUR_PADTHERM_01
66
1
0
VERTEX
8
POUR_PADTHERM_01
10
1.6882755906
20
5.1885433071
0
VERTEX
8
POUR_PADTHERM_01
10
1.6882755906
20
5.1885433071
42
1
0
VERTEX
8
POUR_PADTHERM_01
10
1.6882755906
20
5.1885433071
0
VERTEX
8
POUR_PADTHERM_01
10
1.6882755906
20
5.1885433071
42
1
0
VERTEX
8
POUR_PADTHERM_01
10
1.6882755906
20
5.1885433071
0
SEQEND
0
ENDBLK
0
BLOCK
2
POUR_VIATHERM_22
8
0
10
0
20
0
3
POUR_VIATHERM_22
70
64
0
POLYLINE
8
POUR_VIATHERM_01
66
1
0
VERTEX
8
POUR_VIATHERM_01
10
0.8009448819
20
5.1833385827
0
VERTEX
8
POUR_VIATHERM_01
10
0.8009448819
20
5.1833385827
0
SEQEND
0
POLYLINE
8
POUR_VIATHERM_01
66
1
0
VERTEX
8
POUR_VIATHERM_01
10
0.7859448819
20
5.1683385827
0
VERTEX
8
POUR_VIATHERM_01
10
0.7859448819
20
5.1683385827
0
SEQEND
0
ENDBLK
0
BLOCK
2
POUR_HEADER_3
8
0
10
0
20
0
3
POUR_HEADER_3
70
64
0
POLYLINE
8
POUR_HEADER_01
6
POUR_00_-1_0_000000
66
1
40
0.008
41
0.008
70
1
0
VERTEX
8
POUR_HEADER_01
10
-0.00375
20
0
0
VERTEX
8
POUR_HEADER_01
10
0.063
20
0
0
VERTEX
8
POUR_HEADER_01
10
0.071
20
-0.008
0
VERTEX
8
POUR_HEADER_01
10
0.071
20
-0.069
0
VERTEX
8
POUR_HEADER_01
10
0.062
20
-0.078
0
VERTEX
8
POUR_HEADER_01
10
-0.056
20
-0.078
0
VERTEX
8
POUR_HEADER_01
10
-0.066
20
-0.068
0
VERTEX
8
POUR_HEADER_01
10
-0.066
20
-0.036
0
VERTEX
8
POUR_HEADER_01
10
-0.0595
20
-0.0295
0
VERTEX
8
POUR_HEADER_01
10
-0.01
20
-0.0295
0
VERTEX
8
POUR_HEADER_01
10
-0.00375
20
-0.02325
0
SEQEND
0
INSERT
2
POUR_OUTLINE_7
8
0
10
-0.3619448819
20
-5.1923385827
0
INSERT
2
POUR_PADTHERM_23
8
0
10
-0.3619448819
20
-5.1923385827
0
INSERT
2
POUR_VIATHERM_24
8
0
10
-0.3619448819
20
-5.1923385827
0
INSERT
2
POUR_PADTHERM_25
8
0
10
-0.3619448819
20
-5.1923385827
0
ENDBLK
0
BLOCK
2
POUR_OUTLINE_7
8
0
10
0
20
0
3
POUR_OUTLINE_7
70
64
0
POLYLINE
8
POUR_OUTLINE_01
66
1
40
0.008
41
0.008
70
1
0
VERTEX
8
POUR_OUTLINE_01
10
0.4289448819
20
5.1250252756
0
VERTEX
8
POUR_OUTLINE_01
10
0.4289448819
20
5.1826518898
42
0.1989123674
0
VERTEX
8
POUR_OUTLINE_01
10
0.4289238058
20
5.1827028084
0
VERTEX
8
POUR_OUTLINE_01
10
0.4233091076
20
5.1883175066
42
0.1989123674
0
VERTEX
8
POUR_OUTLINE_01
10
0.423258189
20
5.1883385827
0
VERTEX
8
POUR_OUTLINE_01
10
0.3622668766
20
5.1883385827
42
0.4142135624
0
VERTEX
8
POUR_OUTLINE_01
10
0.3621948819
20
5.1882665879
0
VERTEX
8
POUR_OUTLINE_01
10
0.3621948819
20
5.1674317323
0
VERTEX
8
POUR_OUTLINE_01
10
0.3536017585
20
5.1588385827
0
VERTEX
8
POUR_OUTLINE_01
10
0.3041315748
20
5.1588385827
42
0.1989123674
0
VERTEX
8
POUR_OUTLINE_01
10
0.3040806562
20
5.1588175066
0
VERTEX
8
POUR_OUTLINE_01
10
0.299965958
20
5.1547028084
42
0.1989123674
0
VERTEX
8
POUR_OUTLINE_01
10
0.2999448819
20
5.1546518898
0
VERTEX
8
POUR_OUTLINE_01
10
0.2999448819
20
5.1260252756
42
0.1989123674
0
VERTEX
8
POUR_OUTLINE_01
10
0.299965958
20
5.125974357
0
VERTEX
8
POUR_OUTLINE_01
10
0.3075806562
20
5.1183596588
42
0.1989123674
0
VERTEX
8
POUR_OUTLINE_01
10
0.3076315748
20
5.1183385827
0
VERTEX
8
POUR_OUTLINE_01
10
0.422258189
20
5.1183385827
42
0.1989123674
0
VERTEX
8
POUR_OUTLINE_01
10
0.4223091076
20
5.1183596588
0
VERTEX
8
POUR_OUTLINE_01
10
0.4289238058
20
5.124974357
42
0.1989123674
0
SEQEND
0
ENDBLK
0
BLOCK
2
POUR_PADTHERM_23
8
0
10
0
20
0
3
POUR_PADTHERM_23
70
64
0
POLYLINE
8
POUR_PADTHERM_01
66
1
0
VERTEX
8
POUR_PADTHERM_01
10
0.3809606299
20
5.1629527559
0
VERTEX
8
POUR_PADTHERM_01
10
0.3809606299
20
5.1629527559
42
1
0
VERTEX
8
POUR_PADTHERM_01
10
0.3809606299
20
5.1629527559
0
VERTEX
8
POUR_PADTHERM_01
10
0.3809606299
20
5.1629527559
42
1
0
VERTEX
8
POUR_PADTHERM_01
10
0.3809606299
20
5.1629527559
0
SEQEND
0
POLYLINE
8
POUR_PADTHERM_01
66
1
0
VERTEX
8
POUR_PADTHERM_01
10
0.4006456693
20
5.1688582677
0
VERTEX
8
POUR_PADTHERM_01
10
0.4006456693
20
5.1688582677
42
1
0
VERTEX
8
POUR_PADTHERM_01
10
0.4006456693
20
5.1688582677
0
VERTEX
8
POUR_PADTHERM_01
10
0.4006456693
20
5.1688582677
42
1
0
VERTEX
8
POUR_PADTHERM_01
10
0.4006456693
20
5.1688582677
0
SEQEND
0
POLYLINE
8
POUR_PADTHERM_01
66
1
0
VERTEX
8
POUR_PADTHERM_01
10
0.3809606299
20
5.1747637795
0
VERTEX
8
POUR_PADTHERM_01
10
0.3809606299
20
5.1747637795
42
1
0
VERTEX
8
POUR_PADTHERM_01
10
0.3809606299
20
5.1747637795
0
VERTEX
8
POUR_PADTHERM_01
10
0.3809606299
20
5.1747637795
42
1
0
VERTEX
8
POUR_PADTHERM_01
10
0.3809606299
20
5.1747637795
0
SEQEND
0
POLYLINE
8
POUR_PADTHERM_01
66
1
0
VERTEX
8
POUR_PADTHERM_01
10
0.3612755906
20
5.1688582677
0
VERTEX
8
POUR_PADTHERM_01
10
0.3612755906
20
5.1688582677
42
1
0
VERTEX
8
POUR_PADTHERM_01
10
0.3612755906
20
5.1688582677
0
VERTEX
8
POUR_PADTHERM_01
10
0.3612755906
20
5.1688582677
42
1
0
VERTEX
8
POUR_PADTHERM_01
10
0.3612755906
20
5.1688582677
0
SEQEND
0
ENDBLK
0
BLOCK
2
POUR_VIATHERM_24
8
0
10
0
20
0
3
POUR_VIATHERM_24
70
64
0
POLYLINE
8
POUR_VIATHERM_01
66
1
0
VERTEX
8
POUR_VIATHERM_01
10
0.3239448819
20
5.1531732283
0
VERTEX
8
POUR_VIATHERM_01
10
0.3239448819
20
5.1531732283
0
SEQEND
0
POLYLINE
8
POUR_VIATHERM_01
66
1
0
VERTEX
8
POUR_VIATHERM_01
10
0.3089448819
20
5.1381732283
0
VERTEX
8
POUR_VIATHERM_01
10
0.3089448819
20
5.1381732283
0
SEQEND
0
ENDBLK
0
BLOCK
2
POUR_PADTHERM_25
8
0
10
0
20
0
3
POUR_PADTHERM_25
70
64
0
POLYLINE
8
POUR_PADTHERM_01
66
1
0
VERTEX
8
POUR_PADTHERM_01
10
0.3809606299
20
5.1432677165
0
VERTEX
8
POUR_PADTHERM_01
10
0.3809606299
20
5.1432677165
42
1
0
VERTEX
8
POUR_PADTHERM_01
10
0.3809606299
20
5.1432677165
0
VERTEX
8
POUR_PADTHERM_01
10
0.3809606299
20
5.1432677165
42
1
0
VERTEX
8
POUR_PADTHERM_01
10
0.3809606299
20
5.1432677165
0
SEQEND
0
POLYLINE
8
POUR_PADTHERM_01
66
1
0
VERTEX
8
POUR_PADTHERM_01
10
0.4006456693
20
5.1491732283
0
VERTEX
8
POUR_PADTHERM_01
10
0.4006456693
20
5.1491732283
42
1
0
VERTEX
8
POUR_PADTHERM_01
10
0.4006456693
20
5.1491732283
0
VERTEX
8
POUR_PADTHERM_01
10
0.4006456693
20
5.1491732283
42
1
0
VERTEX
8
POUR_PADTHERM_01
10
0.4006456693
20
5.1491732283
0
SEQEND
0
POLYLINE
8
POUR_PADTHERM_01
66
1
0
VERTEX
8
POUR_PADTHERM_01
10
0.3809606299
20
5.1550787402
0
VERTEX
8
POUR_PADTHERM_01
10
0.3809606299
20
5.1550787402
42
1
0
VERTEX
8
POUR_PADTHERM_01
10
0.3809606299
20
5.1550787402
0
VERTEX
8
POUR_PADTHERM_01
10
0.3809606299
20
5.1550787402
42
1
0
VERTEX
8
POUR_PADTHERM_01
10
0.3809606299
20
5.1550787402
0
SEQEND
0
POLYLINE
8
POUR_PADTHERM_01
66
1
0
VERTEX
8
POUR_PADTHERM_01
10
0.3612755906
20
5.1491732283
0
VERTEX
8
POUR_PADTHERM_01
10
0.3612755906
20
5.1491732283
42
1
0
VERTEX
8
POUR_PADTHERM_01
10
0.3612755906
20
5.1491732283
0
VERTEX
8
POUR_PADTHERM_01
10
0.3612755906
20
5.1491732283
42
1
0
VERTEX
8
POUR_PADTHERM_01
10
0.3612755906
20
5.1491732283
0
SEQEND
0
ENDBLK
999
*** POWERPCB  PCB PARAMETER ***
0
BLOCK
2
PCB_PARAMS
8
0
10
0
20
0
3
PCB_PARAMS
70
64
999
 *  1.Job name           2.Backupfile name       3.CursorType
999
 *  4.TearDropFlag       5.HighlighNetsFlag      6.HatchDisplayFlag
999
 *  7.PadsFlag           8.TracksFlag            9.ViasFlag
999
 * 10.CopperFlag        11.LinesFlag            12.TextFlag
999
 * 13.TopComponentFlag  14.BottomComponentFlag  16.ObjectSnapFlags
0
TEXT
8
PCB_PARAMS
10
0
20
-0.12
40
0.07
1
A:=P2007_0000_RBCS_RC_MAIS_R_002.pcb <> 3 0 1 1 1 1 1 1 1 1 1 1 0 502 0
999
 *  1.RefDesHeight       2.RefDesWidth           3.DefaultWidth
999
 *  4.VGX                5.VGY                   6.OVR
999
 *  7.HatchGrid          8.ObjectSnapRadius
0
TEXT
8
PCB_PARAMS
10
0
20
-0.24
40
0.07
1
B:=0.1 0.01 0.01 0.005 0.005 0.003 0.007 0.005
999
 *  1.ScaleFactor        2.NetAttributeFlags     3.BackupInterval
999
 *  4.WorkingLevel       5.HatchMode             6.HatchDirection
999
 *  7.ConnectionColor    8.BackgroundColor       9.ForegroundColor
999
 * 10.BoardOutlineColor
0
TEXT
8
PCB_PARAMS
10
0
20
-0.36
40
0.07
1
C:=11.1200141907 10002 20 1 0 0 0 0 9 9
999
 * MitreAngle0 - MitreAngle6
0
TEXT
8
PCB_PARAMS
10
0
20
-0.48
40
0.07
1
D:=324000000 324000000 324000000 324000000 324000000 324000000 162000000
999
 * Hatch & Keepout Parameters
0
TEXT
8
PCB_PARAMS
10
0
20
-0.6
40
0.07
1
E:=0.009 0 0 0.1 0 1
999
 * Fanout Parameters
0
TEXT
8
PCB_PARAMS
10
0
20
-0.72
40
0.07
1
F:=0.025 0.025 0.25 1 2 0 1 1 0 0 1 1 1 1
999
 * Pad Entry Parameters
0
TEXT
8
PCB_PARAMS
10
0
20
-0.84
40
0.07
1
P:= 1 1 1 1
999
 * DFF Parameters
0
TEXT
8
PCB_PARAMS
10
0
20
-0.96
40
0.07
1
Q:=89.9999 3967 114300 114300 114300 5 4 114300 114300 114300 114300 1 114300 1 114300 1 114300 0
0
ENDBLK
999
*** POWERPCB  SMOOTH CIRCLE ***
0
BLOCK
2
SMOOTH_0$01
8
0
10
0
20
0
3
SMOOTH_0$01
70
64
0
POLYLINE
8
0
66
1
40
0.005
41
0.005
70
1
0
VERTEX
8
0
10
-0.0025
20
0
42
1
0
VERTEX
8
0
10
0.0025
20
0
42
1
0
SEQEND
0
ENDBLK
0
ENDSEC
0
SECTION
2
ENTITIES
999
*** POWERPCB  DBLAYER ***
0
INSERT
2
DBLAYERS
8
0
10
0
20
0
999
*** POWERPCB  BOARD ***
0
INSERT
2
BOARD_1
8
0
10
1.0424809711
20
0.6840338845
999
*** POWERPCB  COPPER POUR ***
0
INSERT
2
POUR_HEADER_2
8
0
10
1.836
20
0.901
6
SIG_12
0
INSERT
2
POUR_HEADER_3
8
0
10
1.421
20
0.901
6
SIG_12
999
*** POWERPCB  PCB PARAMETER ***
0
INSERT
2
PCB_PARAMS
8
0
10
0
20
0
0
ENDSEC
0
EOF
