*
*
G04 PADS 9.5 Build Number: 522968 generated Gerber (RS-274-X) file*
G04 PC Version=2.1*
*
%IN "MC4-PLUS_REV2_1.pcb"*%
*
%MOIN*%
*
%FSLAX35Y35*%
*
*
*
*
G04 PC Standard Apertures*
*
*
G04 Thermal Relief Aperture macro.*
%AMTER*
1,1,$1,0,0*
1,0,$1-$2,0,0*
21,0,$3,$4,0,0,45*
21,0,$3,$4,0,0,135*
%
*
*
G04 Annular Aperture macro.*
%AMANN*
1,1,$1,0,0*
1,0,$2,0,0*
%
*
*
G04 Odd Aperture macro.*
%AMODD*
1,1,$1,0,0*
1,0,$1-0.005,0,0*
%
*
*
G04 PC Custom Aperture Macros*
*
*
*
*
*
*
G04 PC Aperture Table*
*
%ADD010C,0.001*%
%ADD011C,0.01*%
%ADD012C,0.004*%
%ADD013C,0.006*%
%ADD014C,0.00913*%
%ADD021C,0.008*%
%ADD024C,0.016*%
%ADD025R,0.06299X0.02756*%
%ADD026R,0.11811X0.08268*%
%ADD030R,0.035X0.024*%
%ADD031R,0.05709X0.04331*%
%ADD032R,0.024X0.035*%
%ADD033R,0.063X0.106*%
%ADD037R,0.01969X0.01969*%
%ADD041R,0.175X0.175*%
%ADD042C,0.2*%
%ADD043R,0.02756X0.01378*%
%ADD046R,0.005X0.005*%
%ADD051R,0.07008X0.01575*%
%ADD052R,0.11811X0.11811*%
%ADD054R,0.074X0.1*%
%ADD056R,0.02756X0.02559*%
%ADD057R,0.02559X0.02756*%
%ADD059R,0.01181X0.01378*%
%ADD060R,0.01378X0.01378*%
%ADD064C,0.05*%
%ADD065C,0.02*%
%ADD066C,0.012*%
%ADD068R,0.016X0.016*%
%ADD071R,0.01969X0.00906*%
%ADD072R,0.03937X0.03937*%
%ADD073R,0.02756X0.06299*%
%ADD074R,0.08268X0.11811*%
%ADD075R,0.04331X0.05709*%
%ADD076R,0.063X0.07*%
%ADD077R,0.01575X0.03543*%
%ADD079R,0.01969X0.02756*%
%ADD081R,0.025X0.05*%
%ADD135R,0.01378X0.01575*%
%ADD136R,0.01575X0.01378*%
%ADD141R,0.19685X0.0787*%
*
*
*
*
G04 PC Circuitry*
G04 Layer Name MC4-PLUS_REV2_1.pcb - circuitry*
%LPD*%
*
*
G04 PC Custom Flashes*
G04 Layer Name MC4-PLUS_REV2_1.pcb - flashes*
%LPD*%
*
*
G04 PC Circuitry*
G04 Layer Name MC4-PLUS_REV2_1.pcb - circuitry*
%LPD*%
*
G54D10*
G54D11*
G01X2025000Y1486563D02*
Y1480000D01*
X2022273*
X2018409Y1486563D02*
X2020227Y1480000D01*
X2018409Y1486563D02*
X2016591Y1480000D01*
X2019545Y1482188D02*
X2017273D01*
X2012955Y1486563D02*
Y1480000D01*
X2014545Y1486563D02*
X2011364D01*
X2007955D02*
X2008409Y1486250D01*
X2008864Y1485625*
X2009091Y1485000*
X2009318Y1484063*
X2009318D02*
Y1482500D01*
X2009091Y1481563*
X2009091D02*
X2008864Y1480938D01*
X2008864D02*
X2008409Y1480313D01*
X2008409D02*
X2007955Y1480000D01*
X2007045*
X2006591Y1480313*
X2006591D02*
X2006136Y1480938D01*
X2006136D02*
X2005909Y1481563D01*
X2005909D02*
X2005682Y1482500D01*
Y1484063*
X2005682D02*
X2005909Y1485000D01*
X2006136Y1485625*
X2006591Y1486250*
X2007045Y1486563*
X2007045D02*
X2007955D01*
X1995227Y1485625D02*
X1995682Y1486250D01*
X1996364Y1486563*
X1996364D02*
X1997273D01*
X1997273D02*
X1997955Y1486250D01*
X1998409Y1485625*
Y1485000*
X1998182Y1484375*
X1997955Y1484063*
X1997955D02*
X1997500Y1483750D01*
X1996136Y1483125*
X1995682Y1482813*
X1995682D02*
X1995455Y1482500D01*
X1995227Y1481875*
Y1480938*
X1995227D02*
X1995682Y1480313D01*
X1995682D02*
X1996364Y1480000D01*
X1997273*
X1997955Y1480313*
X1997955D02*
X1998409Y1480938D01*
X1991364Y1486563D02*
X1993182Y1480000D01*
X1991364Y1486563D02*
X1989545Y1480000D01*
X1992500Y1482188D02*
X1990227D01*
X1987500Y1486563D02*
Y1480000D01*
X1984773*
X1982727Y1486563D02*
Y1480000D01*
Y1486563D02*
X1981136D01*
X1981136D02*
X1980455Y1486250D01*
X1980000Y1485625*
X1979773Y1485000*
X1979545Y1484063*
X1979545D02*
Y1482500D01*
X1979773Y1481563*
X1979773D02*
X1980000Y1480938D01*
X1980000D02*
X1980455Y1480313D01*
X1980455D02*
X1981136Y1480000D01*
X1982727*
X1975682Y1486563D02*
X1977500Y1480000D01*
X1975682Y1486563D02*
X1973864Y1480000D01*
X1976818Y1482188D02*
X1974545D01*
X1970227Y1486563D02*
Y1480000D01*
X1971818Y1486563D02*
X1968636D01*
X1966591D02*
Y1481875D01*
X1966364Y1480938*
X1966364D02*
X1965909Y1480313D01*
X1965909D02*
X1965227Y1480000D01*
X1964773*
X1964091Y1480313*
X1964091D02*
X1963636Y1480938D01*
X1963636D02*
X1963409Y1481875D01*
Y1486563*
X1961364D02*
Y1480000D01*
Y1486563D02*
X1959318D01*
X1959318D02*
X1958636Y1486250D01*
X1958409Y1485938*
X1958409D02*
X1958182Y1485313D01*
X1958182D02*
Y1484688D01*
X1958182D02*
X1958409Y1484063D01*
X1958409D02*
X1958636Y1483750D01*
X1959318Y1483438*
X1959318D02*
X1961364D01*
X1959773D02*
X1958182Y1480000D01*
X1956136Y1486563D02*
Y1480000D01*
Y1486563D02*
X1953182D01*
X1956136Y1483438D02*
X1954318D01*
X1956136Y1480000D02*
X1953182D01*
X1440945Y1447520D02*
X1559055D01*
Y1762480*
X1440945*
Y1447520*
X1360000Y1415000D02*
Y1395000D01*
X1380000*
X2640000Y1785000D02*
Y1805000D01*
X2620000*
X1380000D02*
X1360000D01*
Y1785000*
X2620000Y1395000D02*
X2640000D01*
Y1415000*
X1559065Y1515931D02*
G75*
G03X1566855Y1515924I3895J-163D01*
G01X1566817Y1497121D02*
G03X1559055Y1497128I-3881J163D01*
G01X1566817Y1595546D02*
G03X1559055Y1595553I-3881J163D01*
G01X1559065Y1614356D02*
G03X1566855Y1614349I3895J-163D01*
G01X1566817Y1693971D02*
G03X1559055Y1693978I-3881J163D01*
G01X1559065Y1712781D02*
G03X1566855Y1712775I3895J-163D01*
G01X1685049Y1712781D02*
G03X1692839Y1712775I3895J-163D01*
G01X1692802Y1693971D02*
G03X1685039Y1693978I-3881J163D01*
G01X1685049Y1614356D02*
G03X1692839Y1614349I3895J-163D01*
G01X1692802Y1595546D02*
G03X1685039Y1595553I-3881J163D01*
G01X1685049Y1515931D02*
G03X1692839Y1515924I3895J-163D01*
G01X1692802Y1497121D02*
G03X1685039Y1497128I-3881J163D01*
G01X1811033Y1712781D02*
G03X1818824Y1712775I3895J-163D01*
G01X1818786Y1693971D02*
G03X1811024Y1693978I-3881J163D01*
G01X1811033Y1614356D02*
G03X1818824Y1614349I3895J-163D01*
G01X1818786Y1595546D02*
G03X1811024Y1595553I-3881J163D01*
G01X1811033Y1515931D02*
G03X1818824Y1515924I3895J-163D01*
G01X1818786Y1497121D02*
G03X1811024Y1497128I-3881J163D01*
G01X1566929Y1455394D02*
Y1447520D01*
X1574803*
X1692913Y1455394D02*
Y1447520D01*
X1700787*
X1818898Y1455394D02*
Y1447520D01*
X1826772*
X1937008Y1754606D02*
Y1762480D01*
X1929134*
G54D12*
X1458500Y1678500D02*
Y1678600D01*
X1456500Y1678500D02*
Y1678600D01*
X1443583Y1717200D02*
X1556617D01*
X1557300Y1716517*
Y1700183*
X1556817Y1699700*
X1541383*
X1541100Y1699983*
Y1702283*
X1540483Y1702900*
X1525883*
X1524183Y1704600*
X1512217*
X1510517Y1702900*
X1502083*
X1501900Y1703083*
Y1703517*
X1504100Y1705717*
Y1706583*
X1503483Y1707200*
X1498617*
X1498000Y1706583*
Y1703283*
X1497717Y1703000*
X1490583*
X1488983Y1704600*
X1476117*
X1474417Y1702900*
X1464217*
X1457717Y1696400*
X1455783*
X1454800Y1697383*
Y1702117*
X1457000Y1704317*
Y1707783*
X1456383Y1708400*
X1454417*
X1453900Y1707883*
Y1705583*
X1452517Y1704200*
X1443483*
X1442600Y1705083*
Y1716217*
X1443583Y1717200*
X1450083Y1676200D02*
X1448500Y1677783D01*
Y1688717*
X1449583Y1689800*
X1556517*
X1557200Y1689117*
Y1676483*
X1556417Y1675700*
X1531183*
X1527283Y1679600*
X1471317*
X1467917Y1676200*
X1450083*
X1465983Y1473200D02*
X1465100Y1474083D01*
Y1479917*
X1470200Y1485017*
Y1501200*
X1483417*
X1484300Y1500317*
Y1480683*
X1483100Y1479483*
Y1474283*
X1481917Y1473100*
X1481817Y1473200*
X1465983*
X1489600Y1488000D02*
Y1497917D01*
X1491700Y1500017*
Y1508600*
X1504900*
Y1495900*
X1502000*
Y1488000*
X1489600*
X1442600Y1716199D02*
X1557300D01*
X1442600Y1715839D02*
X1557300D01*
X1442600Y1715479D02*
X1557300D01*
X1442600Y1715119D02*
X1557300D01*
X1442600Y1714759D02*
X1557300D01*
X1442600Y1714399D02*
X1557300D01*
X1442600Y1714039D02*
X1557300D01*
X1442600Y1713679D02*
X1557300D01*
X1442600Y1713319D02*
X1557300D01*
X1442600Y1712959D02*
X1557300D01*
X1442600Y1712599D02*
X1557300D01*
X1442600Y1712239D02*
X1557300D01*
X1442600Y1711879D02*
X1557300D01*
X1442600Y1711519D02*
X1557300D01*
X1442600Y1711159D02*
X1557300D01*
X1442600Y1710799D02*
X1557300D01*
X1442600Y1710439D02*
X1557300D01*
X1442600Y1710079D02*
X1557300D01*
X1442600Y1709719D02*
X1557300D01*
X1442600Y1709359D02*
X1557300D01*
X1442600Y1708999D02*
X1557300D01*
X1442600Y1708639D02*
X1557300D01*
X1456504Y1708279D02*
X1557300D01*
X1456864Y1707919D02*
X1557300D01*
X1457000Y1707559D02*
X1557300D01*
X1503484Y1707199D02*
X1557300D01*
X1503844Y1706839D02*
X1557300D01*
X1504100Y1706479D02*
X1557300D01*
X1504100Y1706119D02*
X1557300D01*
X1504100Y1705759D02*
X1557300D01*
X1503782Y1705399D02*
X1557300D01*
X1503422Y1705039D02*
X1557300D01*
X1503062Y1704679D02*
X1557300D01*
X1524464Y1704319D02*
X1557300D01*
X1524824Y1703959D02*
X1557300D01*
X1525184Y1703599D02*
X1557300D01*
X1525544Y1703239D02*
X1557300D01*
X1540504Y1702879D02*
X1557300D01*
X1540864Y1702519D02*
X1557300D01*
X1541100Y1702159D02*
X1557300D01*
X1541100Y1701799D02*
X1557300D01*
X1541100Y1701439D02*
X1557300D01*
X1541100Y1701079D02*
X1557300D01*
X1541100Y1700719D02*
X1557300D01*
X1541100Y1700359D02*
X1557300D01*
X1442942Y1716559D02*
X1557258D01*
X1541100Y1699999D02*
X1557116D01*
X1443302Y1716919D02*
X1556898D01*
X1502702Y1704319D02*
X1511936D01*
X1502342Y1703959D02*
X1511576D01*
X1501982Y1703599D02*
X1511216D01*
X1501900Y1703239D02*
X1510856D01*
X1457000Y1707199D02*
X1498616D01*
X1457000Y1706839D02*
X1498256D01*
X1457000Y1706479D02*
X1498000D01*
X1457000Y1706119D02*
X1498000D01*
X1457000Y1705759D02*
X1498000D01*
X1457000Y1705399D02*
X1498000D01*
X1457000Y1705039D02*
X1498000D01*
X1457000Y1704679D02*
X1498000D01*
X1489264Y1704319D02*
X1498000D01*
X1489624Y1703959D02*
X1498000D01*
X1489984Y1703599D02*
X1498000D01*
X1490344Y1703239D02*
X1497956D01*
X1457000Y1704319D02*
X1475836D01*
X1456642Y1703959D02*
X1475476D01*
X1456282Y1703599D02*
X1475116D01*
X1455922Y1703239D02*
X1474756D01*
X1455562Y1702879D02*
X1464196D01*
X1455202Y1702519D02*
X1463836D01*
X1454842Y1702159D02*
X1463476D01*
X1454800Y1701799D02*
X1463116D01*
X1454800Y1701439D02*
X1462756D01*
X1454800Y1701079D02*
X1462396D01*
X1454800Y1700719D02*
X1462036D01*
X1454800Y1700359D02*
X1461676D01*
X1454800Y1699999D02*
X1461316D01*
X1454800Y1699639D02*
X1460956D01*
X1454800Y1699279D02*
X1460596D01*
X1454800Y1698919D02*
X1460236D01*
X1454800Y1698559D02*
X1459876D01*
X1454800Y1698199D02*
X1459516D01*
X1454800Y1697839D02*
X1459156D01*
X1454800Y1697479D02*
X1458796D01*
X1455064Y1697119D02*
X1458436D01*
X1455424Y1696759D02*
X1458076D01*
X1442600Y1708279D02*
X1454296D01*
X1442600Y1707919D02*
X1453936D01*
X1442600Y1707559D02*
X1453900D01*
X1442600Y1707199D02*
X1453900D01*
X1442600Y1706839D02*
X1453900D01*
X1442600Y1706479D02*
X1453900D01*
X1442600Y1706119D02*
X1453900D01*
X1442600Y1705759D02*
X1453900D01*
X1442600Y1705399D02*
X1453716D01*
X1442644Y1705039D02*
X1453356D01*
X1443004Y1704679D02*
X1452996D01*
X1443364Y1704319D02*
X1452636D01*
X1448802Y1689019D02*
X1557200D01*
X1448500Y1688659D02*
X1557200D01*
X1448500Y1688299D02*
X1557200D01*
X1448500Y1687939D02*
X1557200D01*
X1448500Y1687579D02*
X1557200D01*
X1448500Y1687219D02*
X1557200D01*
X1448500Y1686859D02*
X1557200D01*
X1448500Y1686499D02*
X1557200D01*
X1448500Y1686139D02*
X1557200D01*
X1448500Y1685779D02*
X1557200D01*
X1448500Y1685419D02*
X1557200D01*
X1448500Y1685059D02*
X1557200D01*
X1448500Y1684699D02*
X1557200D01*
X1448500Y1684339D02*
X1557200D01*
X1448500Y1683979D02*
X1557200D01*
X1448500Y1683619D02*
X1557200D01*
X1448500Y1683259D02*
X1557200D01*
X1448500Y1682899D02*
X1557200D01*
X1448500Y1682539D02*
X1557200D01*
X1448500Y1682179D02*
X1557200D01*
X1448500Y1681819D02*
X1557200D01*
X1448500Y1681459D02*
X1557200D01*
X1448500Y1681099D02*
X1557200D01*
X1448500Y1680739D02*
X1557200D01*
X1448500Y1680379D02*
X1557200D01*
X1448500Y1680019D02*
X1557200D01*
X1448500Y1679659D02*
X1557200D01*
X1527584Y1679299D02*
X1557200D01*
X1527944Y1678939D02*
X1557200D01*
X1528304Y1678579D02*
X1557200D01*
X1528664Y1678219D02*
X1557200D01*
X1529024Y1677859D02*
X1557200D01*
X1529384Y1677499D02*
X1557200D01*
X1529744Y1677139D02*
X1557200D01*
X1530104Y1676779D02*
X1557200D01*
X1530464Y1676419D02*
X1557136D01*
X1449162Y1689379D02*
X1556938D01*
X1530824Y1676059D02*
X1556776D01*
X1449522Y1689739D02*
X1556578D01*
X1448500Y1679299D02*
X1471016D01*
X1448500Y1678939D02*
X1470656D01*
X1448500Y1678579D02*
X1470296D01*
X1448500Y1678219D02*
X1469936D01*
X1448500Y1677859D02*
X1469576D01*
X1448784Y1677499D02*
X1469216D01*
X1449144Y1677139D02*
X1468856D01*
X1449504Y1676779D02*
X1468496D01*
X1449864Y1676419D02*
X1468136D01*
X1470200Y1500099D02*
X1484300D01*
X1470200Y1499739D02*
X1484300D01*
X1470200Y1499379D02*
X1484300D01*
X1470200Y1499019D02*
X1484300D01*
X1470200Y1498659D02*
X1484300D01*
X1470200Y1498299D02*
X1484300D01*
X1470200Y1497939D02*
X1484300D01*
X1470200Y1497579D02*
X1484300D01*
X1470200Y1497219D02*
X1484300D01*
X1470200Y1496859D02*
X1484300D01*
X1470200Y1496499D02*
X1484300D01*
X1470200Y1496139D02*
X1484300D01*
X1470200Y1495779D02*
X1484300D01*
X1470200Y1495419D02*
X1484300D01*
X1470200Y1495059D02*
X1484300D01*
X1470200Y1494699D02*
X1484300D01*
X1470200Y1494339D02*
X1484300D01*
X1470200Y1493979D02*
X1484300D01*
X1470200Y1493619D02*
X1484300D01*
X1470200Y1493259D02*
X1484300D01*
X1470200Y1492899D02*
X1484300D01*
X1470200Y1492539D02*
X1484300D01*
X1470200Y1492179D02*
X1484300D01*
X1470200Y1491819D02*
X1484300D01*
X1470200Y1491459D02*
X1484300D01*
X1470200Y1491099D02*
X1484300D01*
X1470200Y1490739D02*
X1484300D01*
X1470200Y1490379D02*
X1484300D01*
X1470200Y1490019D02*
X1484300D01*
X1470200Y1489659D02*
X1484300D01*
X1470200Y1489299D02*
X1484300D01*
X1470200Y1488939D02*
X1484300D01*
X1470200Y1488579D02*
X1484300D01*
X1470200Y1488219D02*
X1484300D01*
X1470200Y1487859D02*
X1484300D01*
X1470200Y1487499D02*
X1484300D01*
X1470200Y1487139D02*
X1484300D01*
X1470200Y1486779D02*
X1484300D01*
X1470200Y1486419D02*
X1484300D01*
X1470200Y1486059D02*
X1484300D01*
X1470200Y1485699D02*
X1484300D01*
X1470200Y1485339D02*
X1484300D01*
X1470162Y1484979D02*
X1484300D01*
X1469802Y1484619D02*
X1484300D01*
X1469442Y1484259D02*
X1484300D01*
X1469082Y1483899D02*
X1484300D01*
X1468722Y1483539D02*
X1484300D01*
X1468362Y1483179D02*
X1484300D01*
X1468002Y1482819D02*
X1484300D01*
X1467642Y1482459D02*
X1484300D01*
X1467282Y1482099D02*
X1484300D01*
X1466922Y1481739D02*
X1484300D01*
X1466562Y1481379D02*
X1484300D01*
X1466202Y1481019D02*
X1484300D01*
X1465842Y1480659D02*
X1484276D01*
X1470200Y1500459D02*
X1484158D01*
X1465482Y1480299D02*
X1483916D01*
X1470200Y1500819D02*
X1483798D01*
X1465122Y1479939D02*
X1483556D01*
X1470200Y1501179D02*
X1483438D01*
X1465100Y1479579D02*
X1483196D01*
X1465100Y1479219D02*
X1483100D01*
X1465100Y1478859D02*
X1483100D01*
X1465100Y1478499D02*
X1483100D01*
X1465100Y1478139D02*
X1483100D01*
X1465100Y1477779D02*
X1483100D01*
X1465100Y1477419D02*
X1483100D01*
X1465100Y1477059D02*
X1483100D01*
X1465100Y1476699D02*
X1483100D01*
X1465100Y1476339D02*
X1483100D01*
X1465100Y1475979D02*
X1483100D01*
X1465100Y1475619D02*
X1483100D01*
X1465100Y1475259D02*
X1483100D01*
X1465100Y1474899D02*
X1483100D01*
X1465100Y1474539D02*
X1483100D01*
X1465100Y1474179D02*
X1482996D01*
X1465364Y1473819D02*
X1482636D01*
X1465724Y1473459D02*
X1482276D01*
X1491700Y1508519D02*
X1504900D01*
X1491700Y1508159D02*
X1504900D01*
X1491700Y1507799D02*
X1504900D01*
X1491700Y1507439D02*
X1504900D01*
X1491700Y1507079D02*
X1504900D01*
X1491700Y1506719D02*
X1504900D01*
X1491700Y1506359D02*
X1504900D01*
X1491700Y1505999D02*
X1504900D01*
X1491700Y1505639D02*
X1504900D01*
X1491700Y1505279D02*
X1504900D01*
X1491700Y1504919D02*
X1504900D01*
X1491700Y1504559D02*
X1504900D01*
X1491700Y1504199D02*
X1504900D01*
X1491700Y1503839D02*
X1504900D01*
X1491700Y1503479D02*
X1504900D01*
X1491700Y1503119D02*
X1504900D01*
X1491700Y1502759D02*
X1504900D01*
X1491700Y1502399D02*
X1504900D01*
X1491700Y1502039D02*
X1504900D01*
X1491700Y1501679D02*
X1504900D01*
X1491700Y1501319D02*
X1504900D01*
X1491700Y1500959D02*
X1504900D01*
X1491700Y1500599D02*
X1504900D01*
X1491700Y1500239D02*
X1504900D01*
X1491562Y1499879D02*
X1504900D01*
X1491202Y1499519D02*
X1504900D01*
X1490842Y1499159D02*
X1504900D01*
X1490482Y1498799D02*
X1504900D01*
X1490122Y1498439D02*
X1504900D01*
X1489762Y1498079D02*
X1504900D01*
X1489600Y1497719D02*
X1504900D01*
X1489600Y1497359D02*
X1504900D01*
X1489600Y1496999D02*
X1504900D01*
X1489600Y1496639D02*
X1504900D01*
X1489600Y1496279D02*
X1504900D01*
X1489600Y1495919D02*
X1504900D01*
X1489600Y1495559D02*
X1502000D01*
X1489600Y1495199D02*
X1502000D01*
X1489600Y1494839D02*
X1502000D01*
X1489600Y1494479D02*
X1502000D01*
X1489600Y1494119D02*
X1502000D01*
X1489600Y1493759D02*
X1502000D01*
X1489600Y1493399D02*
X1502000D01*
X1489600Y1493039D02*
X1502000D01*
X1489600Y1492679D02*
X1502000D01*
X1489600Y1492319D02*
X1502000D01*
X1489600Y1491959D02*
X1502000D01*
X1489600Y1491599D02*
X1502000D01*
X1489600Y1491239D02*
X1502000D01*
X1489600Y1490879D02*
X1502000D01*
X1489600Y1490519D02*
X1502000D01*
X1489600Y1490159D02*
X1502000D01*
X1489600Y1489799D02*
X1502000D01*
X1489600Y1489439D02*
X1502000D01*
X1489600Y1489079D02*
X1502000D01*
X1489600Y1488719D02*
X1502000D01*
X1489600Y1488359D02*
X1502000D01*
X1491800Y1514204D02*
Y1515296D01*
G03X1491796Y1515300I-4J0*
G01X1484884*
G03X1484882Y1515299I0J-4*
G01X1481201Y1511618*
G03X1481200Y1511616I3J-2*
G01Y1504417*
X1480083Y1503300*
X1465084*
G03X1465082Y1503299I0J-4*
G01X1464583Y1502800*
X1462084*
G03X1462082Y1502799I0J-4*
G01X1457583Y1498300*
X1445704*
G03X1445700Y1498296I-0J-4*
G01Y1495700*
X1445642*
G03X1445639Y1495694I-0J-4*
G01X1447332Y1494001*
G03X1447334Y1494000I2J3*
G01X1477296*
G03X1477300Y1494004I0J4*
G01Y1499200*
X1481416*
G03X1481418Y1499201I-0J4*
G01X1483299Y1501082*
G03X1483300Y1501084I-3J2*
G01Y1512083*
X1485417Y1514200*
X1491796*
G03X1491800Y1514204I0J4*
G01Y1519204D02*
Y1520296D01*
G03X1491796Y1520300I-4J0*
G01X1481084*
G03X1481082Y1520299I0J-4*
G01X1478083Y1517300*
X1468704*
G03X1468700Y1517296I-0J-4*
G01Y1508204*
G03X1468704Y1508200I4J-0*
G01X1475296*
G03X1475300Y1508204I0J4*
G01Y1511783*
X1482717Y1519200*
X1491796*
G03X1491800Y1519204I0J4*
G01Y1516704D02*
Y1517796D01*
G03X1491796Y1517800I-4J0*
G01X1483084*
G03X1483082Y1517799I0J-4*
G01X1477401Y1512118*
G03X1477400Y1512116I3J-2*
G01Y1504704*
G03X1477404Y1504700I4J-0*
G01X1479416*
G03X1479418Y1504701I-0J4*
G01X1479799Y1505082*
G03X1479800Y1505084I-3J2*
G01Y1512183*
X1484317Y1516700*
X1491796*
G03X1491800Y1516704I0J4*
G01Y1522204D02*
Y1525296D01*
G03X1491796Y1525300I-4J0*
G01X1485232*
X1484326Y1526206*
G03X1484323Y1526208I-3J-2*
G01X1479923*
X1478598Y1527412*
Y1532427*
G03X1478597Y1532429I-4J-0*
G01X1477881Y1533299*
G03X1477878Y1533300I-3J-3*
G01X1466084*
G03X1466082Y1533299I0J-4*
G01X1463083Y1530300*
X1445084*
G03X1445082Y1530299I0J-4*
G01X1443701Y1528918*
G03X1443700Y1528916I3J-2*
G01Y1513704*
G03X1443704Y1513700I4J-0*
G01X1463796*
G03X1463800Y1513704I0J4*
G01Y1519583*
X1467917Y1523700*
X1475416*
G03X1475418Y1523701I-0J4*
G01X1476417Y1524700*
X1479583*
X1482082Y1522201*
G03X1482084Y1522200I2J3*
G01X1491796*
G03X1491800Y1522204I0J4*
G01X1504800Y1496004D02*
Y1506096D01*
G03X1504796Y1506100I-4J0*
G01X1498904*
G03X1498900Y1506096I-0J-4*
G01Y1491800*
X1496704*
G03X1496700Y1491796I-0J-4*
G01Y1482404*
G03X1496704Y1482400I4J-0*
G01X1504796*
G03X1504800Y1482404I0J4*
G01Y1492496*
G03X1504796Y1492500I-4J0*
G01X1502100*
Y1496000*
X1504796*
G03X1504800Y1496004I0J4*
G01X1534800Y1494508D02*
Y1519916D01*
G03X1534799Y1519918I-4J-0*
G01X1534776Y1519941*
X1534775Y1519942*
X1534163Y1520270D02*
G03X1534775Y1519942I849J848D01*
G01X1534163Y1520270D02*
X1530334Y1524099D01*
G03X1530331Y1524100I-3J-3*
G01X1518797*
G03X1518794Y1524099I-0J-4*
G01X1518744Y1524049*
X1517896Y1523697D02*
G03X1518744Y1524049I-0J1200D01*
G01X1517896Y1523697D02*
X1517782D01*
G03X1517779Y1523696I-0J-3*
G01X1516983Y1522900*
X1509704*
G03X1509700Y1522896I-0J-4*
G01Y1521804*
G03X1509704Y1521800I4J-0*
G01X1519483*
X1520082Y1521201*
G03X1520084Y1521200I2J3*
G01X1528783*
X1531700Y1518283*
Y1507008*
X1531700*
Y1506992D02*
G03Y1507008I-1700J8D01*
G01Y1506992D02*
X1531700D01*
Y1503008*
X1531700*
Y1502992D02*
G03Y1503008I-1700J8D01*
G01Y1502992D02*
X1531700D01*
Y1491117*
X1530183Y1489600*
X1519517*
X1515800Y1493317*
Y1505796*
G03X1515796Y1505800I-4J0*
G01X1510204*
G03X1510200Y1505796I-0J-4*
G01Y1483204*
G03X1510204Y1483200I4J-0*
G01X1532916*
G03X1532918Y1483201I-0J4*
G01X1534799Y1485082*
G03X1534800Y1485084I-3J2*
G01Y1494492*
X1534800*
Y1494508D02*
G03Y1494492I1700J-8D01*
G01Y1494508D02*
X1534800D01*
X1506300Y1508584D02*
Y1523796D01*
G03X1506296Y1523800I-4J0*
G01X1495704*
G03X1495700Y1523796I-0J-4*
G01Y1512417*
X1493083Y1509800*
X1491704*
G03X1491700Y1509796I-0J-4*
G01Y1499704*
G03X1491704Y1499700I4J-0*
G01X1497296*
G03X1497300Y1499704I0J4*
G01Y1507700*
X1505416*
G03X1505418Y1507701I-0J4*
G01X1506299Y1508582*
G03X1506300Y1508584I-3J2*
G01X1476800Y1474584D02*
Y1491096D01*
G03X1476796Y1491100I-4J0*
G01X1471084*
G03X1471082Y1491099I0J-4*
G01X1470201Y1490218*
G03X1470200Y1490216I3J-2*
G01Y1484917*
X1465201Y1479918*
G03X1465200Y1479916I3J-2*
G01Y1474084*
G03X1465201Y1474082I4J0*
G01X1466082Y1473201*
G03X1466084Y1473200I2J3*
G01X1475416*
G03X1475418Y1473201I-0J4*
G01X1476799Y1474582*
G03X1476800Y1474584I-3J2*
G01X1498200Y1691184D02*
Y1691916D01*
G03X1498199Y1691918I-4J-0*
G01X1498018Y1692099*
G03X1498016Y1692100I-2J-3*
G01X1496217*
X1495500Y1692817*
Y1696516*
G03X1495499Y1696518I-4J-0*
G01X1494918Y1697099*
G03X1494916Y1697100I-2J-3*
G01X1487508*
X1487508*
X1487492D02*
G03X1487508I8J1400D01*
G01X1487492D02*
X1487492D01*
X1485008*
X1485008*
X1484992D02*
G03X1485008I8J1400D01*
G01X1484992D02*
X1484992D01*
X1482508*
X1482508*
X1482492D02*
G03X1482508I8J1400D01*
G01X1482492D02*
X1482492D01*
X1480008*
X1480008*
X1479992D02*
G03X1480008I8J1400D01*
G01X1479992D02*
X1479992D01*
X1477508*
X1477508*
X1477492D02*
G03X1477508I8J1400D01*
G01X1477492D02*
X1477492D01*
X1476217*
X1475318Y1697999*
G03X1475316Y1698000I-2J-3*
G01X1461159*
G03X1461157Y1697999I0J-4*
G01X1458558Y1695400*
X1446884*
G03X1446882Y1695399I0J-4*
G01X1442801Y1691318*
G03X1442800Y1691316I3J-2*
G01Y1630584*
G03X1442801Y1630582I4J0*
G01X1443882Y1629501*
G03X1443884Y1629500I2J3*
G01X1455866*
G03X1455868Y1629501I-0J4*
G01X1456999Y1630632*
G03X1457000Y1630634I-3J2*
G01Y1632416*
G03X1456999Y1632418I-4J-0*
G01X1456618Y1632799*
G03X1456616Y1632800I-2J-3*
G01X1448017*
X1446500Y1634317*
Y1688583*
X1449317Y1691400*
X1460116*
G03X1460118Y1691401I-0J4*
G01X1465817Y1697100*
X1467783*
X1469382Y1695501*
G03X1469384Y1695500I2J3*
G01X1488683*
X1493182Y1691001*
G03X1493184Y1691000I2J3*
G01X1498016*
G03X1498018Y1691001I-0J4*
G01X1498199Y1691182*
G03X1498200Y1691184I-3J2*
G01X1498000Y1703284D02*
Y1705216D01*
G03X1497999Y1705218I-4J-0*
G01X1497018Y1706199*
G03X1497016Y1706200I-2J-3*
G01X1479117*
X1478600Y1706717*
Y1709696*
G03X1478596Y1709700I-4J0*
G01X1477000*
Y1714596*
G03X1476996Y1714600I-4J0*
G01X1457904*
G03X1457900Y1714596I-0J-4*
G01Y1705144*
X1454801Y1702117*
G03X1454800Y1702114I3J-3*
G01Y1697384*
G03X1454801Y1697382I4J0*
G01X1455782Y1696401*
G03X1455784Y1696400I2J3*
G01X1457716*
G03X1457718Y1696401I-0J4*
G01X1464217Y1702900*
X1466692*
X1466692*
X1466708D02*
G03X1466692I-8J-1400D01*
G01X1466708D02*
X1466708D01*
X1474416*
G03X1474418Y1702901I-0J4*
G01X1476117Y1704600*
X1488983*
X1490582Y1703001*
G03X1490584Y1703000I2J3*
G01X1497716*
G03X1497718Y1703001I-0J4*
G01X1497999Y1703282*
G03X1498000Y1703284I-3J2*
G01X1545600Y1700384D02*
Y1714216D01*
G03X1545599Y1714218I-4J-0*
G01X1545218Y1714599*
G03X1545216Y1714600I-2J-3*
G01X1523004*
G03X1523000Y1714596I-0J-4*
G01Y1709600*
X1521404*
G03X1521400Y1709596I-0J-4*
G01Y1706717*
X1520883Y1706200*
X1504584*
G03X1504582Y1706199I0J-4*
G01X1501901Y1703518*
G03X1501900Y1703516I3J-2*
G01Y1703084*
G03X1501901Y1703082I4J0*
G01X1502082Y1702901*
G03X1502084Y1702900I2J3*
G01X1502692*
X1502692*
X1502708D02*
G03X1502692I-8J-1400D01*
G01X1502708D02*
X1502708D01*
X1510516*
G03X1510518Y1702901I-0J4*
G01X1512217Y1704600*
X1524183*
X1525882Y1702901*
G03X1525884Y1702900I2J3*
G01X1533292*
X1533292*
X1533308D02*
G03X1533292I-8J-1400D01*
G01X1533308D02*
X1533308D01*
X1540483*
X1541100Y1702283*
Y1699984*
G03X1541101Y1699982I4J0*
G01X1541382Y1699701*
G03X1541384Y1699700I2J3*
G01X1544916*
G03X1544918Y1699701I-0J4*
G01X1545599Y1700382*
G03X1545600Y1700384I-3J2*
G01X1557300Y1708184D02*
Y1716516D01*
G03X1557299Y1716518I-4J-0*
G01X1556618Y1717199*
G03X1556616Y1717200I-2J-3*
G01X1443584*
G03X1443582Y1717199I0J-4*
G01X1442601Y1716218*
G03X1442600Y1716216I3J-2*
G01Y1705084*
G03X1442601Y1705082I4J0*
G01X1443482Y1704201*
G03X1443484Y1704200I2J3*
G01X1452516*
G03X1452518Y1704201I-0J4*
G01X1453899Y1705582*
G03X1453900Y1705584I-3J2*
G01Y1706425*
Y1706426*
Y1707574D02*
G03Y1706426I1600J-574D01*
G01Y1707574D02*
Y1707575D01*
Y1714883*
X1454717Y1715700*
X1457401*
X1457402*
X1457657Y1715737D02*
G03X1457403Y1715700I0J-900D01*
G01X1457657Y1715737D02*
X1477343D01*
X1477597Y1715700D02*
G03X1477343Y1715737I-254J-863D01*
G01X1477598Y1715700D02*
X1477599*
X1478200D01*
Y1715111*
Y1715110*
X1478243Y1714837D02*
G03X1478200Y1715110I-900J0D01*
G01X1478243Y1714837D02*
Y1712404D01*
G03X1478246Y1712400I3J-0*
G01X1478754*
G03X1478757Y1712404I-0J4*
G01Y1714837*
X1478800Y1715110D02*
G03X1478757Y1714837I857J-273D01*
G01X1478800Y1715110D02*
Y1715111*
Y1715700D01*
X1479401*
X1479402*
X1479657Y1715737D02*
G03X1479403Y1715700I0J-900D01*
G01X1479657Y1715737D02*
X1499343D01*
X1499597Y1715700D02*
G03X1499343Y1715737I-254J-863D01*
G01X1499598Y1715700D02*
X1499599*
X1500401D01*
X1500402*
X1500657Y1715737D02*
G03X1500403Y1715700I0J-900D01*
G01X1500657Y1715737D02*
X1520343D01*
X1520597Y1715700D02*
G03X1520343Y1715737I-254J-863D01*
G01X1520598Y1715700D02*
X1520599*
X1521200D01*
Y1715111*
Y1715110*
X1521243Y1714837D02*
G03X1521200Y1715110I-900J0D01*
G01X1521243Y1714837D02*
Y1712404D01*
G03X1521246Y1712400I3J-0*
G01X1521696*
G03X1521700Y1712404I0J4*
G01Y1715700*
X1522401*
X1522402*
X1522657Y1715737D02*
G03X1522403Y1715700I0J-900D01*
G01X1522657Y1715737D02*
X1542343D01*
X1542597Y1715700D02*
G03X1542343Y1715737I-254J-863D01*
G01X1542597Y1715700D02*
X1542598D01*
X1545217*
X1545224D02*
G03X1545217I-7J-1100D01*
G01X1545224D02*
X1545224D01*
X1546183*
X1546800Y1715083*
Y1707984*
G03X1546801Y1707982I4J0*
G01X1547182Y1707601*
G03X1547184Y1707600I2J3*
G01X1556716*
G03X1556718Y1707601I-0J4*
G01X1557299Y1708182*
G03X1557300Y1708184I-3J2*
G01X1557200Y1676484D02*
Y1680316D01*
G03X1557199Y1680318I-4J-0*
G01X1556318Y1681199*
G03X1556316Y1681200I-2J-3*
G01X1521800*
Y1684596*
G03X1521796Y1684600I-4J0*
G01X1521204*
G03X1521200Y1684596I-0J-4*
G01Y1681200*
X1478800*
Y1684596*
G03X1478796Y1684600I-4J0*
G01X1478204*
G03X1478200Y1684596I-0J-4*
G01Y1681200*
X1448584*
G03X1448582Y1681199I0J-4*
G01X1448501Y1681118*
G03X1448500Y1681116I3J-2*
G01Y1677784*
G03X1448501Y1677782I4J0*
G01X1448882Y1677401*
G03X1448884Y1677400I2J3*
G01X1469116*
G03X1469118Y1677401I-0J4*
G01X1469804Y1678087*
X1469805Y1678088*
X1470812Y1679095D02*
G03X1469805Y1678088I588J-1595D01*
G01X1470812Y1679095D02*
X1470813Y1679096*
X1471317Y1679600D01*
X1473331*
X1473332*
X1473622Y1679648D02*
G03X1473332Y1679600I0J-900D01*
G01X1473622Y1679648D02*
X1476378D01*
X1476668Y1679600D02*
G03X1476378Y1679648I-290J-852D01*
G01X1476668Y1679600D02*
X1476669*
X1477331D01*
X1477332*
X1477622Y1679648D02*
G03X1477332Y1679600I0J-900D01*
G01X1477622Y1679648D02*
X1480378D01*
X1480668Y1679600D02*
G03X1480378Y1679648I-290J-852D01*
G01X1480668Y1679600D02*
X1480669*
X1481331D01*
X1481332*
X1481622Y1679648D02*
G03X1481332Y1679600I0J-900D01*
G01X1481622Y1679648D02*
X1484378D01*
X1484668Y1679600D02*
G03X1484378Y1679648I-290J-852D01*
G01X1484668Y1679600D02*
X1484669*
X1495492D01*
X1495492*
X1495508D02*
G03X1495492I-8J-1700D01*
G01X1495508D02*
X1495508D01*
X1497992*
X1497992*
X1498008D02*
G03X1497992I-8J-1700D01*
G01X1498008D02*
X1498008D01*
X1502992*
X1502992*
X1503008D02*
G03X1502992I-8J-1700D01*
G01X1503008D02*
X1503008D01*
X1503331*
X1503332*
X1503622Y1679648D02*
G03X1503332Y1679600I0J-900D01*
G01X1503622Y1679648D02*
X1506378D01*
X1506668Y1679600D02*
G03X1506378Y1679648I-290J-852D01*
G01X1506668Y1679600D02*
X1506669*
X1507331D01*
X1507332*
X1507622Y1679648D02*
G03X1507332Y1679600I0J-900D01*
G01X1507622Y1679648D02*
X1510378D01*
X1510668Y1679600D02*
G03X1510378Y1679648I-290J-852D01*
G01X1510668Y1679600D02*
X1510669*
X1513892D01*
X1513892*
X1513908D02*
G03X1513892I-8J-1700D01*
G01X1513908D02*
X1513908D01*
X1515331*
X1515332*
X1515622Y1679648D02*
G03X1515332Y1679600I0J-900D01*
G01X1515622Y1679648D02*
X1518378D01*
X1518668Y1679600D02*
G03X1518378Y1679648I-290J-852D01*
G01X1518668Y1679600D02*
X1518669*
X1519331D01*
X1519332*
X1519622Y1679648D02*
G03X1519332Y1679600I0J-900D01*
G01X1519622Y1679648D02*
X1522378D01*
X1522668Y1679600D02*
G03X1522378Y1679648I-290J-852D01*
G01X1522668Y1679600D02*
X1522669*
X1523331D01*
X1523332*
X1523622Y1679648D02*
G03X1523332Y1679600I0J-900D01*
G01X1523622Y1679648D02*
X1526378D01*
X1526668Y1679600D02*
G03X1526378Y1679648I-290J-852D01*
G01X1526668Y1679600D02*
X1526669*
X1527283D01*
X1530264Y1676619*
X1531018Y1675865D02*
G03X1530265Y1676618I-1518J-765D01*
G01X1531018Y1675865D02*
X1531019Y1675864D01*
X1531182Y1675701*
G03X1531184Y1675700I2J3*
G01X1534492*
X1534492*
X1534508D02*
G03X1534492I-8J-1700D01*
G01X1534508D02*
X1534508D01*
X1556416*
G03X1556418Y1675701I-0J4*
G01X1557199Y1676482*
G03X1557200Y1676484I-3J2*
G01X1544600Y1682784D02*
Y1689316D01*
G03X1544599Y1689318I-4J-0*
G01X1544118Y1689799*
G03X1544116Y1689800I-2J-3*
G01X1521304*
G03X1521300Y1689796I-0J-4*
G01Y1687304*
G03X1521304Y1687300I4J-0*
G01X1523100*
Y1682404*
G03X1523104Y1682400I4J-0*
G01X1544216*
G03X1544218Y1682401I-0J4*
G01X1544599Y1682782*
G03X1544600Y1682784I-3J2*
G01X1478700Y1687404D02*
Y1689696D01*
G03X1478696Y1689700I-4J0*
G01X1456584*
G03X1456582Y1689699I0J-4*
G01X1456001Y1689118*
G03X1456000Y1689116I3J-2*
G01Y1682884*
G03X1456001Y1682882I4J0*
G01X1456382Y1682501*
G03X1456384Y1682500I2J3*
G01X1476996*
G03X1477000Y1682504I0J4*
G01Y1687400*
X1478696*
G03X1478700Y1687404I0J4*
G01X1519000Y1659904D02*
Y1663016D01*
G03X1518999Y1663018I-4J-0*
G01X1515618Y1666399*
G03X1515616Y1666400I-2J-3*
G01X1512653*
G03X1512650Y1666399I-0J-4*
G01X1506501Y1660250*
G03X1506500Y1660247I3J-3*
G01Y1659284*
G03X1506501Y1659282I4J0*
G01X1506582Y1659201*
G03X1506584Y1659200I2J3*
G01X1507716*
G03X1507718Y1659201I-0J4*
G01X1509117Y1660600*
X1512983*
X1513682Y1659901*
G03X1513684Y1659900I2J3*
G01X1518996*
G03X1519000Y1659904I0J4*
G01X1518900Y1652284D02*
Y1658096D01*
G03X1518896Y1658100I-4J0*
G01X1513384*
G03X1513382Y1658099I0J-4*
G01X1512783Y1657500*
X1508084*
G03X1508082Y1657499I0J-4*
G01X1507201Y1656618*
G03X1507200Y1656616I3J-2*
G01Y1652284*
G03X1507201Y1652282I4J0*
G01X1507682Y1651801*
G03X1507684Y1651800I2J3*
G01X1512500*
X1512506D02*
G03X1512500I-6J-900D01*
G01X1512506D02*
X1512506D01*
X1518416*
G03X1518418Y1651801I-0J4*
G01X1518899Y1652282*
G03X1518900Y1652284I-3J2*
G01X1542800Y1546584D02*
Y1559416D01*
G03X1542799Y1559418I-4J-0*
G01X1541918Y1560299*
G03X1541916Y1560300I-2J-3*
G01X1534144*
G03X1534141Y1560298I0J-4*
G01X1533465Y1559682D02*
G03X1534141Y1560298I-765J1518D01*
G01X1533465Y1559682D02*
X1533464Y1559681D01*
X1533201Y1559418*
G03X1533200Y1559416I3J-2*
G01Y1546584*
G03X1533201Y1546582I4J0*
G01X1533582Y1546201*
G03X1533584Y1546200I2J3*
G01X1542416*
G03X1542418Y1546201I-0J4*
G01X1542799Y1546582*
G03X1542800Y1546584I-3J2*
G01X1529800Y1547084D02*
Y1559416D01*
G03X1529799Y1559418I-4J-0*
G01X1528918Y1560299*
G03X1528916Y1560300I-2J-3*
G01X1521584*
G03X1521582Y1560299I0J-4*
G01X1520701Y1559418*
G03X1520700Y1559416I3J-2*
G01Y1547084*
G03X1520701Y1547082I4J0*
G01X1521582Y1546201*
G03X1521584Y1546200I2J3*
G01X1528916*
G03X1528918Y1546201I-0J4*
G01X1529799Y1547082*
G03X1529800Y1547084I-3J2*
G01X1484822Y1515239D02*
X1491800D01*
X1484462Y1514879D02*
X1491800D01*
X1484102Y1514519D02*
X1491800D01*
X1483742Y1514159D02*
X1485376D01*
X1483382Y1513799D02*
X1485016D01*
X1483022Y1513439D02*
X1484656D01*
X1482662Y1513079D02*
X1484296D01*
X1482302Y1512719D02*
X1483936D01*
X1481942Y1512359D02*
X1483576D01*
X1481582Y1511999D02*
X1483300D01*
X1481222Y1511639D02*
X1483300D01*
X1481200Y1511279D02*
X1483300D01*
X1481200Y1510919D02*
X1483300D01*
X1481200Y1510559D02*
X1483300D01*
X1481200Y1510199D02*
X1483300D01*
X1481200Y1509839D02*
X1483300D01*
X1481200Y1509479D02*
X1483300D01*
X1481200Y1509119D02*
X1483300D01*
X1481200Y1508759D02*
X1483300D01*
X1481200Y1508399D02*
X1483300D01*
X1481200Y1508039D02*
X1483300D01*
X1481200Y1507679D02*
X1483300D01*
X1481200Y1507319D02*
X1483300D01*
X1481200Y1506959D02*
X1483300D01*
X1481200Y1506599D02*
X1483300D01*
X1481200Y1506239D02*
X1483300D01*
X1481200Y1505879D02*
X1483300D01*
X1481200Y1505519D02*
X1483300D01*
X1481200Y1505159D02*
X1483300D01*
X1481200Y1504799D02*
X1483300D01*
X1481200Y1504439D02*
X1483300D01*
X1480862Y1504079D02*
X1483300D01*
X1480502Y1503719D02*
X1483300D01*
X1480142Y1503359D02*
X1483300D01*
X1464782Y1502999D02*
X1483300D01*
X1461922Y1502639D02*
X1483300D01*
X1461562Y1502279D02*
X1483300D01*
X1461202Y1501919D02*
X1483300D01*
X1460842Y1501559D02*
X1483300D01*
X1460482Y1501199D02*
X1483300D01*
X1460122Y1500839D02*
X1483056D01*
X1459762Y1500479D02*
X1482696D01*
X1459402Y1500119D02*
X1482336D01*
X1459042Y1499759D02*
X1481976D01*
X1458682Y1499399D02*
X1481616D01*
X1458322Y1499039D02*
X1477300D01*
X1457962Y1498679D02*
X1477300D01*
X1457602Y1498319D02*
X1477300D01*
X1445700Y1497959D02*
X1477300D01*
X1445700Y1497599D02*
X1477300D01*
X1445700Y1497239D02*
X1477300D01*
X1445700Y1496879D02*
X1477300D01*
X1445700Y1496519D02*
X1477300D01*
X1445700Y1496159D02*
X1477300D01*
X1445700Y1495799D02*
X1477300D01*
X1445894Y1495439D02*
X1477300D01*
X1446254Y1495079D02*
X1477300D01*
X1446614Y1494719D02*
X1477300D01*
X1446974Y1494359D02*
X1477300D01*
X1480862Y1520079D02*
X1491800D01*
X1480502Y1519719D02*
X1491800D01*
X1480142Y1519359D02*
X1491800D01*
X1479782Y1518999D02*
X1482516D01*
X1479422Y1518639D02*
X1482156D01*
X1479062Y1518279D02*
X1481796D01*
X1478702Y1517919D02*
X1481436D01*
X1478342Y1517559D02*
X1481076D01*
X1468700Y1517199D02*
X1480716D01*
X1468700Y1516839D02*
X1480356D01*
X1468700Y1516479D02*
X1479996D01*
X1468700Y1516119D02*
X1479636D01*
X1468700Y1515759D02*
X1479276D01*
X1468700Y1515399D02*
X1478916D01*
X1468700Y1515039D02*
X1478556D01*
X1468700Y1514679D02*
X1478196D01*
X1468700Y1514319D02*
X1477836D01*
X1468700Y1513959D02*
X1477476D01*
X1468700Y1513599D02*
X1477116D01*
X1468700Y1513239D02*
X1476756D01*
X1468700Y1512879D02*
X1476396D01*
X1468700Y1512519D02*
X1476036D01*
X1468700Y1512159D02*
X1475676D01*
X1468700Y1511799D02*
X1475316D01*
X1468700Y1511439D02*
X1475300D01*
X1468700Y1511079D02*
X1475300D01*
X1468700Y1510719D02*
X1475300D01*
X1468700Y1510359D02*
X1475300D01*
X1468700Y1509999D02*
X1475300D01*
X1468700Y1509639D02*
X1475300D01*
X1468700Y1509279D02*
X1475300D01*
X1468700Y1508919D02*
X1475300D01*
X1468700Y1508559D02*
X1475300D01*
X1482942Y1517659D02*
X1491800D01*
X1482582Y1517299D02*
X1491800D01*
X1482222Y1516939D02*
X1491800D01*
X1481862Y1516579D02*
X1484196D01*
X1481502Y1516219D02*
X1483836D01*
X1481142Y1515859D02*
X1483476D01*
X1480782Y1515499D02*
X1483116D01*
X1480422Y1515139D02*
X1482756D01*
X1480062Y1514779D02*
X1482396D01*
X1479702Y1514419D02*
X1482036D01*
X1479342Y1514059D02*
X1481676D01*
X1478982Y1513699D02*
X1481316D01*
X1478622Y1513339D02*
X1480956D01*
X1478262Y1512979D02*
X1480596D01*
X1477902Y1512619D02*
X1480236D01*
X1477542Y1512259D02*
X1479876D01*
X1477400Y1511899D02*
X1479800D01*
X1477400Y1511539D02*
X1479800D01*
X1477400Y1511179D02*
X1479800D01*
X1477400Y1510819D02*
X1479800D01*
X1477400Y1510459D02*
X1479800D01*
X1477400Y1510099D02*
X1479800D01*
X1477400Y1509739D02*
X1479800D01*
X1477400Y1509379D02*
X1479800D01*
X1477400Y1509019D02*
X1479800D01*
X1477400Y1508659D02*
X1479800D01*
X1477400Y1508299D02*
X1479800D01*
X1477400Y1507939D02*
X1479800D01*
X1477400Y1507579D02*
X1479800D01*
X1477400Y1507219D02*
X1479800D01*
X1477400Y1506859D02*
X1479800D01*
X1477400Y1506499D02*
X1479800D01*
X1477400Y1506139D02*
X1479800D01*
X1477400Y1505779D02*
X1479800D01*
X1477400Y1505419D02*
X1479800D01*
X1477400Y1505059D02*
X1479776D01*
X1443700Y1525219D02*
X1491800D01*
X1443700Y1524859D02*
X1491800D01*
X1479784Y1524499D02*
X1491800D01*
X1480144Y1524139D02*
X1491800D01*
X1480504Y1523779D02*
X1491800D01*
X1480864Y1523419D02*
X1491800D01*
X1481224Y1523059D02*
X1491800D01*
X1481584Y1522699D02*
X1491800D01*
X1481944Y1522339D02*
X1491800D01*
X1443700Y1525579D02*
X1484954D01*
X1443700Y1525939D02*
X1484594D01*
X1443700Y1526299D02*
X1479822D01*
X1443700Y1526659D02*
X1479426D01*
X1443700Y1527019D02*
X1479030D01*
X1443700Y1527379D02*
X1478634D01*
X1465202Y1532419D02*
X1478598D01*
X1464842Y1532059D02*
X1478598D01*
X1464482Y1531699D02*
X1478598D01*
X1464122Y1531339D02*
X1478598D01*
X1463762Y1530979D02*
X1478598D01*
X1463402Y1530619D02*
X1478598D01*
X1445042Y1530259D02*
X1478598D01*
X1444682Y1529899D02*
X1478598D01*
X1444322Y1529539D02*
X1478598D01*
X1443962Y1529179D02*
X1478598D01*
X1443700Y1528819D02*
X1478598D01*
X1443700Y1528459D02*
X1478598D01*
X1443700Y1528099D02*
X1478598D01*
X1443700Y1527739D02*
X1478598D01*
X1465562Y1532779D02*
X1478309D01*
X1465922Y1533139D02*
X1478013D01*
X1443700Y1524499D02*
X1476216D01*
X1443700Y1524139D02*
X1475856D01*
X1443700Y1523779D02*
X1475496D01*
X1443700Y1523419D02*
X1467636D01*
X1443700Y1523059D02*
X1467276D01*
X1443700Y1522699D02*
X1466916D01*
X1443700Y1522339D02*
X1466556D01*
X1443700Y1521979D02*
X1466196D01*
X1443700Y1521619D02*
X1465836D01*
X1443700Y1521259D02*
X1465476D01*
X1443700Y1520899D02*
X1465116D01*
X1443700Y1520539D02*
X1464756D01*
X1443700Y1520179D02*
X1464396D01*
X1443700Y1519819D02*
X1464036D01*
X1443700Y1519459D02*
X1463800D01*
X1443700Y1519099D02*
X1463800D01*
X1443700Y1518739D02*
X1463800D01*
X1443700Y1518379D02*
X1463800D01*
X1443700Y1518019D02*
X1463800D01*
X1443700Y1517659D02*
X1463800D01*
X1443700Y1517299D02*
X1463800D01*
X1443700Y1516939D02*
X1463800D01*
X1443700Y1516579D02*
X1463800D01*
X1443700Y1516219D02*
X1463800D01*
X1443700Y1515859D02*
X1463800D01*
X1443700Y1515499D02*
X1463800D01*
X1443700Y1515139D02*
X1463800D01*
X1443700Y1514779D02*
X1463800D01*
X1443700Y1514419D02*
X1463800D01*
X1443700Y1514059D02*
X1463800D01*
X1498900Y1505799D02*
X1504800D01*
X1498900Y1505439D02*
X1504800D01*
X1498900Y1505079D02*
X1504800D01*
X1498900Y1504719D02*
X1504800D01*
X1498900Y1504359D02*
X1504800D01*
X1498900Y1503999D02*
X1504800D01*
X1498900Y1503639D02*
X1504800D01*
X1498900Y1503279D02*
X1504800D01*
X1498900Y1502919D02*
X1504800D01*
X1498900Y1502559D02*
X1504800D01*
X1498900Y1502199D02*
X1504800D01*
X1498900Y1501839D02*
X1504800D01*
X1498900Y1501479D02*
X1504800D01*
X1498900Y1501119D02*
X1504800D01*
X1498900Y1500759D02*
X1504800D01*
X1498900Y1500399D02*
X1504800D01*
X1498900Y1500039D02*
X1504800D01*
X1498900Y1499679D02*
X1504800D01*
X1498900Y1499319D02*
X1504800D01*
X1498900Y1498959D02*
X1504800D01*
X1498900Y1498599D02*
X1504800D01*
X1498900Y1498239D02*
X1504800D01*
X1498900Y1497879D02*
X1504800D01*
X1498900Y1497519D02*
X1504800D01*
X1498900Y1497159D02*
X1504800D01*
X1498900Y1496799D02*
X1504800D01*
X1498900Y1496439D02*
X1504800D01*
X1498900Y1496079D02*
X1504800D01*
X1498900Y1492479D02*
X1504800D01*
X1498900Y1492119D02*
X1504800D01*
X1496700Y1491759D02*
X1504800D01*
X1496700Y1491399D02*
X1504800D01*
X1496700Y1491039D02*
X1504800D01*
X1496700Y1490679D02*
X1504800D01*
X1496700Y1490319D02*
X1504800D01*
X1496700Y1489959D02*
X1504800D01*
X1496700Y1489599D02*
X1504800D01*
X1496700Y1489239D02*
X1504800D01*
X1496700Y1488879D02*
X1504800D01*
X1496700Y1488519D02*
X1504800D01*
X1496700Y1488159D02*
X1504800D01*
X1496700Y1487799D02*
X1504800D01*
X1496700Y1487439D02*
X1504800D01*
X1496700Y1487079D02*
X1504800D01*
X1496700Y1486719D02*
X1504800D01*
X1496700Y1486359D02*
X1504800D01*
X1496700Y1485999D02*
X1504800D01*
X1496700Y1485639D02*
X1504800D01*
X1496700Y1485279D02*
X1504800D01*
X1496700Y1484919D02*
X1504800D01*
X1496700Y1484559D02*
X1504800D01*
X1496700Y1484199D02*
X1504800D01*
X1496700Y1483839D02*
X1504800D01*
X1496700Y1483479D02*
X1504800D01*
X1496700Y1483119D02*
X1504800D01*
X1496700Y1482759D02*
X1504800D01*
X1498900Y1495719D02*
X1502100D01*
X1498900Y1495359D02*
X1502100D01*
X1498900Y1494999D02*
X1502100D01*
X1498900Y1494639D02*
X1502100D01*
X1498900Y1494279D02*
X1502100D01*
X1498900Y1493919D02*
X1502100D01*
X1498900Y1493559D02*
X1502100D01*
X1498900Y1493199D02*
X1502100D01*
X1498900Y1492839D02*
X1502100D01*
X1530424Y1519559D02*
X1534800D01*
X1530784Y1519199D02*
X1534800D01*
X1531144Y1518839D02*
X1534800D01*
X1531504Y1518479D02*
X1534800D01*
X1531700Y1518119D02*
X1534800D01*
X1531700Y1517759D02*
X1534800D01*
X1531700Y1517399D02*
X1534800D01*
X1531700Y1517039D02*
X1534800D01*
X1531700Y1516679D02*
X1534800D01*
X1531700Y1516319D02*
X1534800D01*
X1531700Y1515959D02*
X1534800D01*
X1531700Y1515599D02*
X1534800D01*
X1531700Y1515239D02*
X1534800D01*
X1531700Y1514879D02*
X1534800D01*
X1531700Y1514519D02*
X1534800D01*
X1531700Y1514159D02*
X1534800D01*
X1531700Y1513799D02*
X1534800D01*
X1531700Y1513439D02*
X1534800D01*
X1531700Y1513079D02*
X1534800D01*
X1531700Y1512719D02*
X1534800D01*
X1531700Y1512359D02*
X1534800D01*
X1531700Y1511999D02*
X1534800D01*
X1531700Y1511639D02*
X1534800D01*
X1531700Y1511279D02*
X1534800D01*
X1531700Y1510919D02*
X1534800D01*
X1531700Y1510559D02*
X1534800D01*
X1531700Y1510199D02*
X1534800D01*
X1531700Y1509839D02*
X1534800D01*
X1531700Y1509479D02*
X1534800D01*
X1531700Y1509119D02*
X1534800D01*
X1531700Y1508759D02*
X1534800D01*
X1531700Y1508399D02*
X1534800D01*
X1531700Y1508039D02*
X1534800D01*
X1531700Y1507679D02*
X1534800D01*
X1531700Y1507319D02*
X1534800D01*
X1531700Y1506959D02*
X1534800D01*
X1531700Y1506599D02*
X1534800D01*
X1531700Y1506239D02*
X1534800D01*
X1531700Y1505879D02*
X1534800D01*
X1531700Y1505519D02*
X1534800D01*
X1531700Y1505159D02*
X1534800D01*
X1531700Y1504799D02*
X1534800D01*
X1531700Y1504439D02*
X1534800D01*
X1531700Y1504079D02*
X1534800D01*
X1531700Y1503719D02*
X1534800D01*
X1531700Y1503359D02*
X1534800D01*
X1531700Y1502999D02*
X1534800D01*
X1531700Y1502639D02*
X1534800D01*
X1531700Y1502279D02*
X1534800D01*
X1531700Y1501919D02*
X1534800D01*
X1531700Y1501559D02*
X1534800D01*
X1531700Y1501199D02*
X1534800D01*
X1531700Y1500839D02*
X1534800D01*
X1531700Y1500479D02*
X1534800D01*
X1531700Y1500119D02*
X1534800D01*
X1531700Y1499759D02*
X1534800D01*
X1531700Y1499399D02*
X1534800D01*
X1531700Y1499039D02*
X1534800D01*
X1531700Y1498679D02*
X1534800D01*
X1531700Y1498319D02*
X1534800D01*
X1531700Y1497959D02*
X1534800D01*
X1531700Y1497599D02*
X1534800D01*
X1531700Y1497239D02*
X1534800D01*
X1531700Y1496879D02*
X1534800D01*
X1531700Y1496519D02*
X1534800D01*
X1531700Y1496159D02*
X1534800D01*
X1531700Y1495799D02*
X1534800D01*
X1531700Y1495439D02*
X1534800D01*
X1531700Y1495079D02*
X1534800D01*
X1531700Y1494719D02*
X1534800D01*
X1531700Y1494359D02*
X1534800D01*
X1531700Y1493999D02*
X1534800D01*
X1531700Y1493639D02*
X1534800D01*
X1531700Y1493279D02*
X1534800D01*
X1531700Y1492919D02*
X1534800D01*
X1531700Y1492559D02*
X1534800D01*
X1531700Y1492199D02*
X1534800D01*
X1531700Y1491839D02*
X1534800D01*
X1531700Y1491479D02*
X1534800D01*
X1531700Y1491119D02*
X1534800D01*
X1531342Y1490759D02*
X1534800D01*
X1530982Y1490399D02*
X1534800D01*
X1530622Y1490039D02*
X1534800D01*
X1530262Y1489679D02*
X1534800D01*
X1510200Y1489319D02*
X1534800D01*
X1510200Y1488959D02*
X1534800D01*
X1510200Y1488599D02*
X1534800D01*
X1510200Y1488239D02*
X1534800D01*
X1510200Y1487879D02*
X1534800D01*
X1510200Y1487519D02*
X1534800D01*
X1510200Y1487159D02*
X1534800D01*
X1510200Y1486799D02*
X1534800D01*
X1510200Y1486439D02*
X1534800D01*
X1510200Y1486079D02*
X1534800D01*
X1510200Y1485719D02*
X1534800D01*
X1510200Y1485359D02*
X1534800D01*
X1530064Y1519919D02*
X1534798D01*
X1510200Y1484999D02*
X1534716D01*
X1510200Y1484639D02*
X1534356D01*
X1529704Y1520279D02*
X1534154D01*
X1510200Y1484279D02*
X1533996D01*
X1529344Y1520639D02*
X1533794D01*
X1510200Y1483919D02*
X1533636D01*
X1528984Y1520999D02*
X1533434D01*
X1510200Y1483559D02*
X1533276D01*
X1519924Y1521359D02*
X1533074D01*
X1519564Y1521719D02*
X1532714D01*
X1509700Y1522079D02*
X1532354D01*
X1509700Y1522439D02*
X1531994D01*
X1509700Y1522799D02*
X1531634D01*
X1517242Y1523159D02*
X1531274D01*
X1517602Y1523519D02*
X1530914D01*
X1518530Y1523879D02*
X1530554D01*
X1510200Y1489679D02*
X1519438D01*
X1510200Y1490039D02*
X1519078D01*
X1510200Y1490399D02*
X1518718D01*
X1510200Y1490759D02*
X1518358D01*
X1510200Y1491119D02*
X1517998D01*
X1510200Y1491479D02*
X1517638D01*
X1510200Y1491839D02*
X1517278D01*
X1510200Y1492199D02*
X1516918D01*
X1510200Y1492559D02*
X1516558D01*
X1510200Y1492919D02*
X1516198D01*
X1510200Y1493279D02*
X1515838D01*
X1510200Y1505519D02*
X1515800D01*
X1510200Y1505159D02*
X1515800D01*
X1510200Y1504799D02*
X1515800D01*
X1510200Y1504439D02*
X1515800D01*
X1510200Y1504079D02*
X1515800D01*
X1510200Y1503719D02*
X1515800D01*
X1510200Y1503359D02*
X1515800D01*
X1510200Y1502999D02*
X1515800D01*
X1510200Y1502639D02*
X1515800D01*
X1510200Y1502279D02*
X1515800D01*
X1510200Y1501919D02*
X1515800D01*
X1510200Y1501559D02*
X1515800D01*
X1510200Y1501199D02*
X1515800D01*
X1510200Y1500839D02*
X1515800D01*
X1510200Y1500479D02*
X1515800D01*
X1510200Y1500119D02*
X1515800D01*
X1510200Y1499759D02*
X1515800D01*
X1510200Y1499399D02*
X1515800D01*
X1510200Y1499039D02*
X1515800D01*
X1510200Y1498679D02*
X1515800D01*
X1510200Y1498319D02*
X1515800D01*
X1510200Y1497959D02*
X1515800D01*
X1510200Y1497599D02*
X1515800D01*
X1510200Y1497239D02*
X1515800D01*
X1510200Y1496879D02*
X1515800D01*
X1510200Y1496519D02*
X1515800D01*
X1510200Y1496159D02*
X1515800D01*
X1510200Y1495799D02*
X1515800D01*
X1510200Y1495439D02*
X1515800D01*
X1510200Y1495079D02*
X1515800D01*
X1510200Y1494719D02*
X1515800D01*
X1510200Y1494359D02*
X1515800D01*
X1510200Y1493999D02*
X1515800D01*
X1510200Y1493639D02*
X1515800D01*
X1495700Y1523459D02*
X1506300D01*
X1495700Y1523099D02*
X1506300D01*
X1495700Y1522739D02*
X1506300D01*
X1495700Y1522379D02*
X1506300D01*
X1495700Y1522019D02*
X1506300D01*
X1495700Y1521659D02*
X1506300D01*
X1495700Y1521299D02*
X1506300D01*
X1495700Y1520939D02*
X1506300D01*
X1495700Y1520579D02*
X1506300D01*
X1495700Y1520219D02*
X1506300D01*
X1495700Y1519859D02*
X1506300D01*
X1495700Y1519499D02*
X1506300D01*
X1495700Y1519139D02*
X1506300D01*
X1495700Y1518779D02*
X1506300D01*
X1495700Y1518419D02*
X1506300D01*
X1495700Y1518059D02*
X1506300D01*
X1495700Y1517699D02*
X1506300D01*
X1495700Y1517339D02*
X1506300D01*
X1495700Y1516979D02*
X1506300D01*
X1495700Y1516619D02*
X1506300D01*
X1495700Y1516259D02*
X1506300D01*
X1495700Y1515899D02*
X1506300D01*
X1495700Y1515539D02*
X1506300D01*
X1495700Y1515179D02*
X1506300D01*
X1495700Y1514819D02*
X1506300D01*
X1495700Y1514459D02*
X1506300D01*
X1495700Y1514099D02*
X1506300D01*
X1495700Y1513739D02*
X1506300D01*
X1495700Y1513379D02*
X1506300D01*
X1495700Y1513019D02*
X1506300D01*
X1495700Y1512659D02*
X1506300D01*
X1495582Y1512299D02*
X1506300D01*
X1495222Y1511939D02*
X1506300D01*
X1494862Y1511579D02*
X1506300D01*
X1494502Y1511219D02*
X1506300D01*
X1494142Y1510859D02*
X1506300D01*
X1493782Y1510499D02*
X1506300D01*
X1493422Y1510139D02*
X1506300D01*
X1491700Y1509779D02*
X1506300D01*
X1491700Y1509419D02*
X1506300D01*
X1491700Y1509059D02*
X1506300D01*
X1491700Y1508699D02*
X1506300D01*
X1491700Y1508339D02*
X1506056D01*
X1491700Y1507979D02*
X1505696D01*
X1491700Y1507619D02*
X1497300D01*
X1491700Y1507259D02*
X1497300D01*
X1491700Y1506899D02*
X1497300D01*
X1491700Y1506539D02*
X1497300D01*
X1491700Y1506179D02*
X1497300D01*
X1491700Y1505819D02*
X1497300D01*
X1491700Y1505459D02*
X1497300D01*
X1491700Y1505099D02*
X1497300D01*
X1491700Y1504739D02*
X1497300D01*
X1491700Y1504379D02*
X1497300D01*
X1491700Y1504019D02*
X1497300D01*
X1491700Y1503659D02*
X1497300D01*
X1491700Y1503299D02*
X1497300D01*
X1491700Y1502939D02*
X1497300D01*
X1491700Y1502579D02*
X1497300D01*
X1491700Y1502219D02*
X1497300D01*
X1491700Y1501859D02*
X1497300D01*
X1491700Y1501499D02*
X1497300D01*
X1491700Y1501139D02*
X1497300D01*
X1491700Y1500779D02*
X1497300D01*
X1491700Y1500419D02*
X1497300D01*
X1491700Y1500059D02*
X1497300D01*
X1470822Y1490839D02*
X1476800D01*
X1470462Y1490479D02*
X1476800D01*
X1470200Y1490119D02*
X1476800D01*
X1470200Y1489759D02*
X1476800D01*
X1470200Y1489399D02*
X1476800D01*
X1470200Y1489039D02*
X1476800D01*
X1470200Y1488679D02*
X1476800D01*
X1470200Y1488319D02*
X1476800D01*
X1470200Y1487959D02*
X1476800D01*
X1470200Y1487599D02*
X1476800D01*
X1470200Y1487239D02*
X1476800D01*
X1470200Y1486879D02*
X1476800D01*
X1470200Y1486519D02*
X1476800D01*
X1470200Y1486159D02*
X1476800D01*
X1470200Y1485799D02*
X1476800D01*
X1470200Y1485439D02*
X1476800D01*
X1470200Y1485079D02*
X1476800D01*
X1470002Y1484719D02*
X1476800D01*
X1469642Y1484359D02*
X1476800D01*
X1469282Y1483999D02*
X1476800D01*
X1468922Y1483639D02*
X1476800D01*
X1468562Y1483279D02*
X1476800D01*
X1468202Y1482919D02*
X1476800D01*
X1467842Y1482559D02*
X1476800D01*
X1467482Y1482199D02*
X1476800D01*
X1467122Y1481839D02*
X1476800D01*
X1466762Y1481479D02*
X1476800D01*
X1466402Y1481119D02*
X1476800D01*
X1466042Y1480759D02*
X1476800D01*
X1465682Y1480399D02*
X1476800D01*
X1465322Y1480039D02*
X1476800D01*
X1465200Y1479679D02*
X1476800D01*
X1465200Y1479319D02*
X1476800D01*
X1465200Y1478959D02*
X1476800D01*
X1465200Y1478599D02*
X1476800D01*
X1465200Y1478239D02*
X1476800D01*
X1465200Y1477879D02*
X1476800D01*
X1465200Y1477519D02*
X1476800D01*
X1465200Y1477159D02*
X1476800D01*
X1465200Y1476799D02*
X1476800D01*
X1465200Y1476439D02*
X1476800D01*
X1465200Y1476079D02*
X1476800D01*
X1465200Y1475719D02*
X1476800D01*
X1465200Y1475359D02*
X1476800D01*
X1465200Y1474999D02*
X1476800D01*
X1465200Y1474639D02*
X1476800D01*
X1465200Y1474279D02*
X1476496D01*
X1465364Y1473919D02*
X1476136D01*
X1465724Y1473559D02*
X1475776D01*
X1492404Y1691779D02*
X1498200D01*
X1492764Y1691419D02*
X1498200D01*
X1493124Y1691059D02*
X1498076D01*
X1492044Y1692139D02*
X1496178D01*
X1491684Y1692499D02*
X1495818D01*
X1468424Y1696459D02*
X1495500D01*
X1468784Y1696099D02*
X1495500D01*
X1469144Y1695739D02*
X1495500D01*
X1488804Y1695379D02*
X1495500D01*
X1489164Y1695019D02*
X1495500D01*
X1489524Y1694659D02*
X1495500D01*
X1489884Y1694299D02*
X1495500D01*
X1490244Y1693939D02*
X1495500D01*
X1490604Y1693579D02*
X1495500D01*
X1490964Y1693219D02*
X1495500D01*
X1491324Y1692859D02*
X1495500D01*
X1468064Y1696819D02*
X1495198D01*
X1460337Y1697179D02*
X1476138D01*
X1460697Y1697539D02*
X1475778D01*
X1461057Y1697899D02*
X1475418D01*
X1459977Y1696819D02*
X1465536D01*
X1459617Y1696459D02*
X1465176D01*
X1459257Y1696099D02*
X1464816D01*
X1458897Y1695739D02*
X1464456D01*
X1446862Y1695379D02*
X1464096D01*
X1446502Y1695019D02*
X1463736D01*
X1446142Y1694659D02*
X1463376D01*
X1445782Y1694299D02*
X1463016D01*
X1445422Y1693939D02*
X1462656D01*
X1445062Y1693579D02*
X1462296D01*
X1444702Y1693219D02*
X1461936D01*
X1444342Y1692859D02*
X1461576D01*
X1443982Y1692499D02*
X1461216D01*
X1443622Y1692139D02*
X1460856D01*
X1443262Y1691779D02*
X1460496D01*
X1442902Y1691419D02*
X1460136D01*
X1442800Y1632379D02*
X1457000D01*
X1442800Y1632019D02*
X1457000D01*
X1442800Y1631659D02*
X1457000D01*
X1442800Y1631299D02*
X1457000D01*
X1442800Y1630939D02*
X1457000D01*
X1442804Y1630579D02*
X1456946D01*
X1442800Y1632739D02*
X1456678D01*
X1443164Y1630219D02*
X1456586D01*
X1443524Y1629859D02*
X1456226D01*
X1442800Y1691059D02*
X1448976D01*
X1442800Y1690699D02*
X1448616D01*
X1442800Y1690339D02*
X1448256D01*
X1442800Y1689979D02*
X1447896D01*
X1442800Y1633099D02*
X1447718D01*
X1442800Y1689619D02*
X1447536D01*
X1442800Y1633459D02*
X1447358D01*
X1442800Y1689259D02*
X1447176D01*
X1442800Y1633819D02*
X1446998D01*
X1442800Y1688899D02*
X1446816D01*
X1442800Y1634179D02*
X1446638D01*
X1442800Y1688539D02*
X1446500D01*
X1442800Y1688179D02*
X1446500D01*
X1442800Y1687819D02*
X1446500D01*
X1442800Y1687459D02*
X1446500D01*
X1442800Y1687099D02*
X1446500D01*
X1442800Y1686739D02*
X1446500D01*
X1442800Y1686379D02*
X1446500D01*
X1442800Y1686019D02*
X1446500D01*
X1442800Y1685659D02*
X1446500D01*
X1442800Y1685299D02*
X1446500D01*
X1442800Y1684939D02*
X1446500D01*
X1442800Y1684579D02*
X1446500D01*
X1442800Y1684219D02*
X1446500D01*
X1442800Y1683859D02*
X1446500D01*
X1442800Y1683499D02*
X1446500D01*
X1442800Y1683139D02*
X1446500D01*
X1442800Y1682779D02*
X1446500D01*
X1442800Y1682419D02*
X1446500D01*
X1442800Y1682059D02*
X1446500D01*
X1442800Y1681699D02*
X1446500D01*
X1442800Y1681339D02*
X1446500D01*
X1442800Y1680979D02*
X1446500D01*
X1442800Y1680619D02*
X1446500D01*
X1442800Y1680259D02*
X1446500D01*
X1442800Y1679899D02*
X1446500D01*
X1442800Y1679539D02*
X1446500D01*
X1442800Y1679179D02*
X1446500D01*
X1442800Y1678819D02*
X1446500D01*
X1442800Y1678459D02*
X1446500D01*
X1442800Y1678099D02*
X1446500D01*
X1442800Y1677739D02*
X1446500D01*
X1442800Y1677379D02*
X1446500D01*
X1442800Y1677019D02*
X1446500D01*
X1442800Y1676659D02*
X1446500D01*
X1442800Y1676299D02*
X1446500D01*
X1442800Y1675939D02*
X1446500D01*
X1442800Y1675579D02*
X1446500D01*
X1442800Y1675219D02*
X1446500D01*
X1442800Y1674859D02*
X1446500D01*
X1442800Y1674499D02*
X1446500D01*
X1442800Y1674139D02*
X1446500D01*
X1442800Y1673779D02*
X1446500D01*
X1442800Y1673419D02*
X1446500D01*
X1442800Y1673059D02*
X1446500D01*
X1442800Y1672699D02*
X1446500D01*
X1442800Y1672339D02*
X1446500D01*
X1442800Y1671979D02*
X1446500D01*
X1442800Y1671619D02*
X1446500D01*
X1442800Y1671259D02*
X1446500D01*
X1442800Y1670899D02*
X1446500D01*
X1442800Y1670539D02*
X1446500D01*
X1442800Y1670179D02*
X1446500D01*
X1442800Y1669819D02*
X1446500D01*
X1442800Y1669459D02*
X1446500D01*
X1442800Y1669099D02*
X1446500D01*
X1442800Y1668739D02*
X1446500D01*
X1442800Y1668379D02*
X1446500D01*
X1442800Y1668019D02*
X1446500D01*
X1442800Y1667659D02*
X1446500D01*
X1442800Y1667299D02*
X1446500D01*
X1442800Y1666939D02*
X1446500D01*
X1442800Y1666579D02*
X1446500D01*
X1442800Y1666219D02*
X1446500D01*
X1442800Y1665859D02*
X1446500D01*
X1442800Y1665499D02*
X1446500D01*
X1442800Y1665139D02*
X1446500D01*
X1442800Y1664779D02*
X1446500D01*
X1442800Y1664419D02*
X1446500D01*
X1442800Y1664059D02*
X1446500D01*
X1442800Y1663699D02*
X1446500D01*
X1442800Y1663339D02*
X1446500D01*
X1442800Y1662979D02*
X1446500D01*
X1442800Y1662619D02*
X1446500D01*
X1442800Y1662259D02*
X1446500D01*
X1442800Y1661899D02*
X1446500D01*
X1442800Y1661539D02*
X1446500D01*
X1442800Y1661179D02*
X1446500D01*
X1442800Y1660819D02*
X1446500D01*
X1442800Y1660459D02*
X1446500D01*
X1442800Y1660099D02*
X1446500D01*
X1442800Y1659739D02*
X1446500D01*
X1442800Y1659379D02*
X1446500D01*
X1442800Y1659019D02*
X1446500D01*
X1442800Y1658659D02*
X1446500D01*
X1442800Y1658299D02*
X1446500D01*
X1442800Y1657939D02*
X1446500D01*
X1442800Y1657579D02*
X1446500D01*
X1442800Y1657219D02*
X1446500D01*
X1442800Y1656859D02*
X1446500D01*
X1442800Y1656499D02*
X1446500D01*
X1442800Y1656139D02*
X1446500D01*
X1442800Y1655779D02*
X1446500D01*
X1442800Y1655419D02*
X1446500D01*
X1442800Y1655059D02*
X1446500D01*
X1442800Y1654699D02*
X1446500D01*
X1442800Y1654339D02*
X1446500D01*
X1442800Y1653979D02*
X1446500D01*
X1442800Y1653619D02*
X1446500D01*
X1442800Y1653259D02*
X1446500D01*
X1442800Y1652899D02*
X1446500D01*
X1442800Y1652539D02*
X1446500D01*
X1442800Y1652179D02*
X1446500D01*
X1442800Y1651819D02*
X1446500D01*
X1442800Y1651459D02*
X1446500D01*
X1442800Y1651099D02*
X1446500D01*
X1442800Y1650739D02*
X1446500D01*
X1442800Y1650379D02*
X1446500D01*
X1442800Y1650019D02*
X1446500D01*
X1442800Y1649659D02*
X1446500D01*
X1442800Y1649299D02*
X1446500D01*
X1442800Y1648939D02*
X1446500D01*
X1442800Y1648579D02*
X1446500D01*
X1442800Y1648219D02*
X1446500D01*
X1442800Y1647859D02*
X1446500D01*
X1442800Y1647499D02*
X1446500D01*
X1442800Y1647139D02*
X1446500D01*
X1442800Y1646779D02*
X1446500D01*
X1442800Y1646419D02*
X1446500D01*
X1442800Y1646059D02*
X1446500D01*
X1442800Y1645699D02*
X1446500D01*
X1442800Y1645339D02*
X1446500D01*
X1442800Y1644979D02*
X1446500D01*
X1442800Y1644619D02*
X1446500D01*
X1442800Y1644259D02*
X1446500D01*
X1442800Y1643899D02*
X1446500D01*
X1442800Y1643539D02*
X1446500D01*
X1442800Y1643179D02*
X1446500D01*
X1442800Y1642819D02*
X1446500D01*
X1442800Y1642459D02*
X1446500D01*
X1442800Y1642099D02*
X1446500D01*
X1442800Y1641739D02*
X1446500D01*
X1442800Y1641379D02*
X1446500D01*
X1442800Y1641019D02*
X1446500D01*
X1442800Y1640659D02*
X1446500D01*
X1442800Y1640299D02*
X1446500D01*
X1442800Y1639939D02*
X1446500D01*
X1442800Y1639579D02*
X1446500D01*
X1442800Y1639219D02*
X1446500D01*
X1442800Y1638859D02*
X1446500D01*
X1442800Y1638499D02*
X1446500D01*
X1442800Y1638139D02*
X1446500D01*
X1442800Y1637779D02*
X1446500D01*
X1442800Y1637419D02*
X1446500D01*
X1442800Y1637059D02*
X1446500D01*
X1442800Y1636699D02*
X1446500D01*
X1442800Y1636339D02*
X1446500D01*
X1442800Y1635979D02*
X1446500D01*
X1442800Y1635619D02*
X1446500D01*
X1442800Y1635259D02*
X1446500D01*
X1442800Y1634899D02*
X1446500D01*
X1442800Y1634539D02*
X1446500D01*
X1457792Y1705039D02*
X1498000D01*
X1457424Y1704679D02*
X1498000D01*
X1489264Y1704319D02*
X1498000D01*
X1489624Y1703959D02*
X1498000D01*
X1489984Y1703599D02*
X1498000D01*
X1490344Y1703239D02*
X1497956D01*
X1457900Y1705399D02*
X1497818D01*
X1457900Y1705759D02*
X1497458D01*
X1457900Y1706119D02*
X1497098D01*
X1457900Y1706479D02*
X1478838D01*
X1457900Y1709359D02*
X1478600D01*
X1457900Y1708999D02*
X1478600D01*
X1457900Y1708639D02*
X1478600D01*
X1457900Y1708279D02*
X1478600D01*
X1457900Y1707919D02*
X1478600D01*
X1457900Y1707559D02*
X1478600D01*
X1457900Y1707199D02*
X1478600D01*
X1457900Y1706839D02*
X1478600D01*
X1457900Y1714399D02*
X1477000D01*
X1457900Y1714039D02*
X1477000D01*
X1457900Y1713679D02*
X1477000D01*
X1457900Y1713319D02*
X1477000D01*
X1457900Y1712959D02*
X1477000D01*
X1457900Y1712599D02*
X1477000D01*
X1457900Y1712239D02*
X1477000D01*
X1457900Y1711879D02*
X1477000D01*
X1457900Y1711519D02*
X1477000D01*
X1457900Y1711159D02*
X1477000D01*
X1457900Y1710799D02*
X1477000D01*
X1457900Y1710439D02*
X1477000D01*
X1457900Y1710079D02*
X1477000D01*
X1457900Y1709719D02*
X1477000D01*
X1457055Y1704319D02*
X1475836D01*
X1456687Y1703959D02*
X1475476D01*
X1456318Y1703599D02*
X1475116D01*
X1455950Y1703239D02*
X1474756D01*
X1455581Y1702879D02*
X1464196D01*
X1455212Y1702519D02*
X1463836D01*
X1454844Y1702159D02*
X1463476D01*
X1454800Y1701799D02*
X1463116D01*
X1454800Y1701439D02*
X1462756D01*
X1454800Y1701079D02*
X1462396D01*
X1454800Y1700719D02*
X1462036D01*
X1454800Y1700359D02*
X1461676D01*
X1454800Y1699999D02*
X1461316D01*
X1454800Y1699639D02*
X1460956D01*
X1454800Y1699279D02*
X1460596D01*
X1454800Y1698919D02*
X1460236D01*
X1454800Y1698559D02*
X1459876D01*
X1454800Y1698199D02*
X1459516D01*
X1454800Y1697839D02*
X1459156D01*
X1454800Y1697479D02*
X1458796D01*
X1455064Y1697119D02*
X1458436D01*
X1455424Y1696759D02*
X1458076D01*
X1523000Y1714099D02*
X1545600D01*
X1523000Y1713739D02*
X1545600D01*
X1523000Y1713379D02*
X1545600D01*
X1523000Y1713019D02*
X1545600D01*
X1523000Y1712659D02*
X1545600D01*
X1523000Y1712299D02*
X1545600D01*
X1523000Y1711939D02*
X1545600D01*
X1523000Y1711579D02*
X1545600D01*
X1523000Y1711219D02*
X1545600D01*
X1523000Y1710859D02*
X1545600D01*
X1523000Y1710499D02*
X1545600D01*
X1523000Y1710139D02*
X1545600D01*
X1523000Y1709779D02*
X1545600D01*
X1521400Y1709419D02*
X1545600D01*
X1521400Y1709059D02*
X1545600D01*
X1521400Y1708699D02*
X1545600D01*
X1521400Y1708339D02*
X1545600D01*
X1521400Y1707979D02*
X1545600D01*
X1521400Y1707619D02*
X1545600D01*
X1521400Y1707259D02*
X1545600D01*
X1521400Y1706899D02*
X1545600D01*
X1521222Y1706539D02*
X1545600D01*
X1504562Y1706179D02*
X1545600D01*
X1504202Y1705819D02*
X1545600D01*
X1503842Y1705459D02*
X1545600D01*
X1503482Y1705099D02*
X1545600D01*
X1503122Y1704739D02*
X1545600D01*
X1524404Y1704379D02*
X1545600D01*
X1524764Y1704019D02*
X1545600D01*
X1525124Y1703659D02*
X1545600D01*
X1525484Y1703299D02*
X1545600D01*
X1525844Y1702939D02*
X1545600D01*
X1540804Y1702579D02*
X1545600D01*
X1541100Y1702219D02*
X1545600D01*
X1541100Y1701859D02*
X1545600D01*
X1541100Y1701499D02*
X1545600D01*
X1541100Y1701139D02*
X1545600D01*
X1541100Y1700779D02*
X1545600D01*
X1541100Y1700419D02*
X1545600D01*
X1523000Y1714459D02*
X1545358D01*
X1541100Y1700059D02*
X1545276D01*
X1502762Y1704379D02*
X1511996D01*
X1502402Y1704019D02*
X1511636D01*
X1502042Y1703659D02*
X1511276D01*
X1501900Y1703299D02*
X1510916D01*
X1502044Y1702939D02*
X1510556D01*
X1442822Y1716439D02*
X1557300D01*
X1442600Y1716079D02*
X1557300D01*
X1542523Y1715719D02*
X1557300D01*
X1546524Y1715359D02*
X1557300D01*
X1546800Y1714999D02*
X1557300D01*
X1546800Y1714639D02*
X1557300D01*
X1546800Y1714279D02*
X1557300D01*
X1546800Y1713919D02*
X1557300D01*
X1546800Y1713559D02*
X1557300D01*
X1546800Y1713199D02*
X1557300D01*
X1546800Y1712839D02*
X1557300D01*
X1546800Y1712479D02*
X1557300D01*
X1546800Y1712119D02*
X1557300D01*
X1546800Y1711759D02*
X1557300D01*
X1546800Y1711399D02*
X1557300D01*
X1546800Y1711039D02*
X1557300D01*
X1546800Y1710679D02*
X1557300D01*
X1546800Y1710319D02*
X1557300D01*
X1546800Y1709959D02*
X1557300D01*
X1546800Y1709599D02*
X1557300D01*
X1546800Y1709239D02*
X1557300D01*
X1546800Y1708879D02*
X1557300D01*
X1546800Y1708519D02*
X1557300D01*
X1546800Y1708159D02*
X1557276D01*
X1443182Y1716799D02*
X1557018D01*
X1546984Y1707799D02*
X1556916D01*
X1443542Y1717159D02*
X1556658D01*
X1520523Y1715719D02*
X1522477D01*
X1521200Y1715359D02*
X1521700D01*
X1521228Y1714999D02*
X1521700D01*
X1521243Y1714639D02*
X1521700D01*
X1521243Y1714279D02*
X1521700D01*
X1521243Y1713919D02*
X1521700D01*
X1521243Y1713559D02*
X1521700D01*
X1521243Y1713199D02*
X1521700D01*
X1521243Y1712839D02*
X1521700D01*
X1521243Y1712479D02*
X1521700D01*
X1499523Y1715719D02*
X1500477D01*
X1477523D02*
X1479477D01*
X1478200Y1715359D02*
X1478800D01*
X1478228Y1714999D02*
X1478772D01*
X1478243Y1714639D02*
X1478757D01*
X1478243Y1714279D02*
X1478757D01*
X1478243Y1713919D02*
X1478757D01*
X1478243Y1713559D02*
X1478757D01*
X1478243Y1713199D02*
X1478757D01*
X1478243Y1712839D02*
X1478757D01*
X1478243Y1712479D02*
X1478757D01*
X1442600Y1715719D02*
X1457477D01*
X1442600Y1715359D02*
X1454376D01*
X1442600Y1714999D02*
X1454016D01*
X1442600Y1714639D02*
X1453900D01*
X1442600Y1714279D02*
X1453900D01*
X1442600Y1713919D02*
X1453900D01*
X1442600Y1713559D02*
X1453900D01*
X1442600Y1713199D02*
X1453900D01*
X1442600Y1712839D02*
X1453900D01*
X1442600Y1712479D02*
X1453900D01*
X1442600Y1712119D02*
X1453900D01*
X1442600Y1711759D02*
X1453900D01*
X1442600Y1711399D02*
X1453900D01*
X1442600Y1711039D02*
X1453900D01*
X1442600Y1710679D02*
X1453900D01*
X1442600Y1710319D02*
X1453900D01*
X1442600Y1709959D02*
X1453900D01*
X1442600Y1709599D02*
X1453900D01*
X1442600Y1709239D02*
X1453900D01*
X1442600Y1708879D02*
X1453900D01*
X1442600Y1708519D02*
X1453900D01*
X1442600Y1708159D02*
X1453900D01*
X1442600Y1707799D02*
X1453900D01*
X1442600Y1706359D02*
X1453900D01*
X1442600Y1705999D02*
X1453900D01*
X1442600Y1705639D02*
X1453900D01*
X1442600Y1707439D02*
X1453858D01*
X1442600Y1706719D02*
X1453823D01*
X1442600Y1707079D02*
X1453802D01*
X1442600Y1705279D02*
X1453596D01*
X1442764Y1704919D02*
X1453236D01*
X1443124Y1704559D02*
X1452876D01*
X1448500Y1680019D02*
X1557200D01*
X1448500Y1679659D02*
X1557200D01*
X1527584Y1679299D02*
X1557200D01*
X1527944Y1678939D02*
X1557200D01*
X1528304Y1678579D02*
X1557200D01*
X1528664Y1678219D02*
X1557200D01*
X1529024Y1677859D02*
X1557200D01*
X1529384Y1677499D02*
X1557200D01*
X1529744Y1677139D02*
X1557200D01*
X1530104Y1676779D02*
X1557200D01*
X1448500Y1680379D02*
X1557138D01*
X1530573Y1676419D02*
X1557136D01*
X1448500Y1680739D02*
X1556778D01*
X1530904Y1676059D02*
X1556776D01*
X1448500Y1681099D02*
X1556418D01*
X1521200Y1684339D02*
X1521800D01*
X1521200Y1683979D02*
X1521800D01*
X1521200Y1683619D02*
X1521800D01*
X1521200Y1683259D02*
X1521800D01*
X1521200Y1682899D02*
X1521800D01*
X1521200Y1682539D02*
X1521800D01*
X1521200Y1682179D02*
X1521800D01*
X1521200Y1681819D02*
X1521800D01*
X1521200Y1681459D02*
X1521800D01*
X1478200Y1684339D02*
X1478800D01*
X1478200Y1683979D02*
X1478800D01*
X1478200Y1683619D02*
X1478800D01*
X1478200Y1683259D02*
X1478800D01*
X1478200Y1682899D02*
X1478800D01*
X1478200Y1682539D02*
X1478800D01*
X1478200Y1682179D02*
X1478800D01*
X1478200Y1681819D02*
X1478800D01*
X1478200Y1681459D02*
X1478800D01*
X1448500Y1679299D02*
X1471016D01*
X1448500Y1678939D02*
X1470494D01*
X1448500Y1678579D02*
X1470086D01*
X1448500Y1678219D02*
X1469859D01*
X1448500Y1677859D02*
X1469576D01*
X1448784Y1677499D02*
X1469216D01*
X1521300Y1689239D02*
X1544600D01*
X1521300Y1688879D02*
X1544600D01*
X1521300Y1688519D02*
X1544600D01*
X1521300Y1688159D02*
X1544600D01*
X1521300Y1687799D02*
X1544600D01*
X1521300Y1687439D02*
X1544600D01*
X1523100Y1687079D02*
X1544600D01*
X1523100Y1686719D02*
X1544600D01*
X1523100Y1686359D02*
X1544600D01*
X1523100Y1685999D02*
X1544600D01*
X1523100Y1685639D02*
X1544600D01*
X1523100Y1685279D02*
X1544600D01*
X1523100Y1684919D02*
X1544600D01*
X1523100Y1684559D02*
X1544600D01*
X1523100Y1684199D02*
X1544600D01*
X1523100Y1683839D02*
X1544600D01*
X1523100Y1683479D02*
X1544600D01*
X1523100Y1683119D02*
X1544600D01*
X1523100Y1682759D02*
X1544576D01*
X1521300Y1689599D02*
X1544318D01*
X1456222Y1689339D02*
X1478700D01*
X1456000Y1688979D02*
X1478700D01*
X1456000Y1688619D02*
X1478700D01*
X1456000Y1688259D02*
X1478700D01*
X1456000Y1687899D02*
X1478700D01*
X1456000Y1687539D02*
X1478700D01*
X1456582Y1689699D02*
X1478699D01*
X1456000Y1687179D02*
X1477000D01*
X1456000Y1686819D02*
X1477000D01*
X1456000Y1686459D02*
X1477000D01*
X1456000Y1686099D02*
X1477000D01*
X1456000Y1685739D02*
X1477000D01*
X1456000Y1685379D02*
X1477000D01*
X1456000Y1685019D02*
X1477000D01*
X1456000Y1684659D02*
X1477000D01*
X1456000Y1684299D02*
X1477000D01*
X1456000Y1683939D02*
X1477000D01*
X1456000Y1683579D02*
X1477000D01*
X1456000Y1683219D02*
X1477000D01*
X1456024Y1682859D02*
X1477000D01*
X1509050Y1662799D02*
X1519000D01*
X1508690Y1662439D02*
X1519000D01*
X1508330Y1662079D02*
X1519000D01*
X1507970Y1661719D02*
X1519000D01*
X1507610Y1661359D02*
X1519000D01*
X1507250Y1660999D02*
X1519000D01*
X1506890Y1660639D02*
X1519000D01*
X1513304Y1660279D02*
X1519000D01*
X1513664Y1659919D02*
X1519000D01*
X1509410Y1663159D02*
X1518858D01*
X1509770Y1663519D02*
X1518498D01*
X1510130Y1663879D02*
X1518138D01*
X1510490Y1664239D02*
X1517778D01*
X1510850Y1664599D02*
X1517418D01*
X1511210Y1664959D02*
X1517058D01*
X1511570Y1665319D02*
X1516698D01*
X1511930Y1665679D02*
X1516338D01*
X1512290Y1666039D02*
X1515978D01*
X1512650Y1666399D02*
X1515618D01*
X1506530Y1660279D02*
X1508796D01*
X1506500Y1659919D02*
X1508436D01*
X1506500Y1659559D02*
X1508076D01*
X1513202Y1657919D02*
X1518900D01*
X1512842Y1657559D02*
X1518900D01*
X1507782Y1657199D02*
X1518900D01*
X1507422Y1656839D02*
X1518900D01*
X1507200Y1656479D02*
X1518900D01*
X1507200Y1656119D02*
X1518900D01*
X1507200Y1655759D02*
X1518900D01*
X1507200Y1655399D02*
X1518900D01*
X1507200Y1655039D02*
X1518900D01*
X1507200Y1654679D02*
X1518900D01*
X1507200Y1654319D02*
X1518900D01*
X1507200Y1653959D02*
X1518900D01*
X1507200Y1653599D02*
X1518900D01*
X1507200Y1653239D02*
X1518900D01*
X1507200Y1652879D02*
X1518900D01*
X1507200Y1652519D02*
X1518900D01*
X1507324Y1652159D02*
X1518776D01*
X1533200Y1559159D02*
X1542800D01*
X1533200Y1558799D02*
X1542800D01*
X1533200Y1558439D02*
X1542800D01*
X1533200Y1558079D02*
X1542800D01*
X1533200Y1557719D02*
X1542800D01*
X1533200Y1557359D02*
X1542800D01*
X1533200Y1556999D02*
X1542800D01*
X1533200Y1556639D02*
X1542800D01*
X1533200Y1556279D02*
X1542800D01*
X1533200Y1555919D02*
X1542800D01*
X1533200Y1555559D02*
X1542800D01*
X1533200Y1555199D02*
X1542800D01*
X1533200Y1554839D02*
X1542800D01*
X1533200Y1554479D02*
X1542800D01*
X1533200Y1554119D02*
X1542800D01*
X1533200Y1553759D02*
X1542800D01*
X1533200Y1553399D02*
X1542800D01*
X1533200Y1553039D02*
X1542800D01*
X1533200Y1552679D02*
X1542800D01*
X1533200Y1552319D02*
X1542800D01*
X1533200Y1551959D02*
X1542800D01*
X1533200Y1551599D02*
X1542800D01*
X1533200Y1551239D02*
X1542800D01*
X1533200Y1550879D02*
X1542800D01*
X1533200Y1550519D02*
X1542800D01*
X1533200Y1550159D02*
X1542800D01*
X1533200Y1549799D02*
X1542800D01*
X1533200Y1549439D02*
X1542800D01*
X1533200Y1549079D02*
X1542800D01*
X1533200Y1548719D02*
X1542800D01*
X1533200Y1548359D02*
X1542800D01*
X1533200Y1547999D02*
X1542800D01*
X1533200Y1547639D02*
X1542800D01*
X1533200Y1547279D02*
X1542800D01*
X1533200Y1546919D02*
X1542800D01*
X1533224Y1546559D02*
X1542776D01*
X1533302Y1559519D02*
X1542698D01*
X1533770Y1559879D02*
X1542338D01*
X1534102Y1560239D02*
X1541978D01*
X1520700Y1559159D02*
X1529800D01*
X1520700Y1558799D02*
X1529800D01*
X1520700Y1558439D02*
X1529800D01*
X1520700Y1558079D02*
X1529800D01*
X1520700Y1557719D02*
X1529800D01*
X1520700Y1557359D02*
X1529800D01*
X1520700Y1556999D02*
X1529800D01*
X1520700Y1556639D02*
X1529800D01*
X1520700Y1556279D02*
X1529800D01*
X1520700Y1555919D02*
X1529800D01*
X1520700Y1555559D02*
X1529800D01*
X1520700Y1555199D02*
X1529800D01*
X1520700Y1554839D02*
X1529800D01*
X1520700Y1554479D02*
X1529800D01*
X1520700Y1554119D02*
X1529800D01*
X1520700Y1553759D02*
X1529800D01*
X1520700Y1553399D02*
X1529800D01*
X1520700Y1553039D02*
X1529800D01*
X1520700Y1552679D02*
X1529800D01*
X1520700Y1552319D02*
X1529800D01*
X1520700Y1551959D02*
X1529800D01*
X1520700Y1551599D02*
X1529800D01*
X1520700Y1551239D02*
X1529800D01*
X1520700Y1550879D02*
X1529800D01*
X1520700Y1550519D02*
X1529800D01*
X1520700Y1550159D02*
X1529800D01*
X1520700Y1549799D02*
X1529800D01*
X1520700Y1549439D02*
X1529800D01*
X1520700Y1549079D02*
X1529800D01*
X1520700Y1548719D02*
X1529800D01*
X1520700Y1548359D02*
X1529800D01*
X1520700Y1547999D02*
X1529800D01*
X1520700Y1547639D02*
X1529800D01*
X1520700Y1547279D02*
X1529800D01*
X1520802Y1559519D02*
X1529698D01*
X1520864Y1546919D02*
X1529636D01*
X1521162Y1559879D02*
X1529338D01*
X1521224Y1546559D02*
X1529276D01*
X1521522Y1560239D02*
X1528978D01*
G54D13*
X1468500Y1460800D02*
X1470300D01*
X1470600Y1460500*
X1476621*
X1480843Y1464721*
Y1468500*
X1466000Y1464500D02*
Y1468500D01*
X1466079*
X1472000Y1462000D02*
X1473554Y1463554D01*
Y1464362*
X1475921Y1466728*
Y1468500*
X1471000Y1464500D02*
Y1468500D01*
X1524000Y1463800D02*
Y1468500D01*
X1524079*
X1519157D02*
Y1466728D01*
X1521600Y1464286*
Y1464079*
X1523379Y1462300*
X1524700*
X1525400Y1463000*
X1526500*
X1529000Y1463900D02*
Y1468500D01*
X1533921D02*
X1534000D01*
Y1464500*
X1538843Y1468500D02*
X1539000D01*
Y1464500*
X1485100Y1510618D02*
X1485549Y1511067D01*
X1485555*
X1486591Y1512102*
X1486591D02*
X1489307D01*
X1485100Y1510618D02*
Y1508469D01*
X1485769Y1507800*
X1485770*
X1487520Y1506050*
Y1505500*
X1476500Y1492500D02*
X1477000Y1493000D01*
X1481500*
X1454000Y1496945D02*
X1456175D01*
X1456620Y1496500*
X1492500Y1493000D02*
X1497000D01*
X1522520Y1503000D02*
Y1507500D01*
X1527480Y1512000D02*
Y1516500D01*
X1522520Y1507500D02*
Y1512000D01*
X1512693Y1509543D02*
X1515409D01*
X1515409D02*
X1517900Y1507053D01*
Y1499165*
X1519465Y1497600*
X1519470*
X1522520Y1494550*
Y1494000*
X1512693Y1512102D02*
X1515409D01*
X1515409D02*
X1516445Y1511067D01*
X1516451*
X1519700Y1507818*
Y1501865*
X1521100Y1500465*
X1521105*
X1522520Y1499050*
Y1498500*
X1445543Y1552500D02*
X1446828D01*
X1451000Y1556672*
Y1579998*
X1445543Y1549350D02*
Y1549400D01*
X1448500*
X1445543Y1546201D02*
X1447422D01*
X1452000Y1550779*
Y1591200*
X1445543Y1543051D02*
X1447651D01*
X1448500Y1543900*
X1445543Y1541476D02*
Y1541600D01*
X1448500*
X1487500Y1541000D02*
Y1542400D01*
X1488600Y1543500*
X1471000Y1542500D02*
Y1546500D01*
X1471050*
X1485700Y1538200D02*
X1486739Y1539239D01*
X1487860*
X1490550Y1541929*
Y1546500*
X1485700Y1542500D02*
Y1546500D01*
X1486650*
X1466000Y1540131D02*
X1473269D01*
X1475200Y1538200*
X1483000Y1538031D02*
X1483098D01*
X1486030Y1535100*
X1489500*
X1479000Y1538031D02*
X1483000D01*
X1481500Y1529980D02*
X1487871D01*
X1489307Y1528544*
Y1527456*
X1458457Y1541476D02*
Y1541500D01*
X1460900*
X1458457Y1544626D02*
X1461407D01*
X1465902Y1540131*
X1466000*
X1458457Y1546201D02*
X1463769D01*
X1465902Y1544069*
X1466000*
X1458457Y1547776D02*
Y1547928D01*
X1459141*
X1460800Y1548100*
X1458457Y1550925D02*
X1460075D01*
X1460100Y1550900*
X1461600*
X1474950Y1546500D02*
X1475000D01*
Y1542500*
X1478850Y1546500D02*
X1479000D01*
Y1541969*
X1482750Y1546500D02*
X1483000D01*
Y1541969*
X1492000Y1533500D02*
Y1539666D01*
X1492500Y1540166*
X1510000Y1542500D02*
Y1546500D01*
X1521500Y1526969D02*
Y1527031D01*
X1525000*
X1506000Y1538031D02*
X1506098D01*
X1508067Y1540000*
X1510000*
X1506000Y1541969D02*
X1506150D01*
Y1546500*
X1494450D02*
Y1545350D01*
X1496200Y1543600*
Y1542500*
X1498350Y1546500D02*
X1498500D01*
Y1542500*
X1513950Y1546500D02*
X1514000D01*
Y1542500*
X1512693Y1514661D02*
X1520408D01*
X1520408D02*
X1522520Y1512550D01*
Y1512000*
X1512693Y1517220D02*
X1518398D01*
X1518398D02*
X1519119Y1516500D01*
X1522520*
X1512693Y1524897D02*
X1517896D01*
X1517896D02*
X1518392Y1525394D01*
X1519827*
X1521402Y1526969*
X1521500*
X1512693Y1527456D02*
Y1528623D01*
X1515020Y1530950*
Y1531500*
X1502000Y1538031D02*
X1506000D01*
X1502000Y1541969D02*
X1502250D01*
Y1546500*
X1534800Y1543800D02*
Y1538810D01*
X1537728Y1535882*
X1539500*
X1544500Y1519000D02*
Y1521000D01*
X1546000Y1522500*
X1534500Y1528500D02*
X1535600D01*
X1538061Y1526039*
X1539500*
X1529000Y1527031D02*
X1529098D01*
X1535012Y1521118*
X1539500*
Y1521031*
X1541358*
X1544413Y1524087*
X1544500Y1524000*
X1539500Y1530961D02*
Y1531153D01*
X1541464*
X1544308Y1528308*
X1544500Y1528500*
X1539500Y1535882D02*
X1541272D01*
X1546000Y1531154*
Y1522500*
X1445543Y1561949D02*
X1446828D01*
X1448300Y1563421*
Y1596400*
X1452000Y1600100*
X1445543Y1558799D02*
Y1558700D01*
X1448500*
X1445543Y1555650D02*
X1447571D01*
X1450000Y1558079*
Y1569453*
X1454500Y1590200D02*
Y1615300D01*
X1456600Y1617400*
X1454500Y1590200D02*
X1458566Y1586134D01*
Y1586035*
X1450500Y1591900D02*
X1452000Y1593400D01*
Y1594600*
X1450500Y1591900D02*
Y1580498D01*
X1451000Y1579998*
X1460800Y1571400D02*
Y1570200D01*
X1461200Y1569800*
X1460800Y1573700D02*
X1462300Y1572200D01*
X1474000Y1585700D02*
X1476400Y1583300D01*
X1487400Y1562000D02*
Y1556746D01*
X1492500Y1551646*
Y1540166*
X1485800Y1555500D02*
X1488600Y1552700D01*
Y1543500*
X1484400Y1583900D02*
X1485900Y1585400D01*
X1487500Y1583900D02*
X1489000Y1585400D01*
Y1598700*
X1490500Y1600200*
X1459925Y1591000D02*
Y1590606D01*
X1462031Y1588500*
X1463716*
X1466116Y1586100*
X1466521*
X1469200Y1583421*
Y1580679*
X1471979Y1577900*
X1474721*
X1476400Y1579579*
Y1583300*
X1458457Y1554075D02*
X1460547D01*
X1468600Y1546021*
Y1542100*
X1458457Y1555650D02*
X1472650D01*
X1476000Y1552300*
X1458457Y1557224D02*
X1460824D01*
X1461900Y1558300*
X1458457Y1560374D02*
X1459741D01*
X1462300Y1562933*
Y1572200*
X1458457Y1563524D02*
X1458988D01*
X1459965Y1564500*
X1460462*
X1461200Y1565238*
Y1569800*
X1462503Y1586035D02*
X1464465D01*
X1467000Y1583500*
X1458566Y1586035D02*
Y1584034D01*
X1458633Y1583967*
Y1581996*
X1518800Y1579079D02*
X1531779Y1566100D01*
X1544100*
X1546000Y1568000*
X1518800Y1579079D02*
Y1583514D01*
X1523485Y1588199*
X1522000Y1593221D02*
X1523285Y1591936D01*
X1523485*
Y1592136*
X1522000Y1593221D02*
Y1595100D01*
X1522100Y1595200*
Y1596500*
X1516200Y1564450D02*
X1518000Y1562650D01*
Y1529540*
X1518740Y1528800*
X1519570*
X1521402Y1526969*
X1521500*
X1516200Y1564450D02*
Y1600171D01*
X1522700Y1606671*
X1522052Y1580527D02*
X1524279Y1578300D01*
X1542778*
X1543350Y1578871*
Y1583383*
X1522052Y1580527D02*
Y1584168D01*
X1523584Y1585700*
X1526712*
X1528700Y1587688*
Y1588684*
X1530285Y1590269*
Y1590168*
X1530485*
X1496800Y1584100D02*
X1498500Y1585800D01*
Y1600200*
X1500000Y1587300D02*
X1509400D01*
X1511300Y1589200*
X1499900Y1584000D02*
X1502100Y1586200D01*
X1509714*
X1514000Y1590486*
Y1600200*
X1526941Y1590168D02*
X1527141D01*
Y1590066*
X1528232Y1591157*
Y1595115*
X1520330Y1592136D02*
X1519941D01*
X1520330*
Y1594105*
Y1590168D02*
X1519941D01*
X1520330*
Y1592136*
X1519941Y1588199D02*
X1520330D01*
Y1590168*
X1523485Y1588199D02*
X1526941D01*
X1523485Y1590168D02*
X1526941D01*
X1523485Y1592136D02*
X1526941D01*
X1534177Y1590608D02*
X1536069Y1592500D01*
X1544000*
Y1592200*
X1534177Y1590608D02*
X1534215D01*
Y1590473*
X1532969Y1575500D02*
X1535240D01*
X1535358Y1575618*
X1539500*
X1534076Y1580642D02*
Y1580539D01*
X1539500*
X1530485Y1588199D02*
Y1588101D01*
X1531886Y1586699*
Y1586670*
X1533977Y1584579*
X1534076*
X1530485Y1592136D02*
X1530684D01*
Y1592237*
X1532000Y1590922*
Y1589040*
X1532640Y1588400*
X1535870*
X1537852Y1590382*
X1539500*
Y1585461D02*
X1541272D01*
X1543350Y1583383*
X1474200Y1593800D02*
X1479000Y1589000D01*
X1485000*
X1485900Y1588100*
Y1585400*
X1474200Y1593800D02*
Y1599500D01*
X1474900Y1600200*
X1475000*
X1486500Y1600000D02*
X1487400Y1599100D01*
Y1587200*
X1486500Y1600000D02*
Y1600100D01*
X1486600Y1600200*
X1470200Y1631679D02*
Y1642450D01*
X1470300Y1642550*
X1470200Y1631679D02*
X1471079Y1630800D01*
X1472750*
X1473050Y1631100*
X1475096*
X1476296Y1629900*
X1477836*
X1483000Y1624736*
Y1623479*
X1484679Y1621800*
X1495302*
X1496402Y1622900*
X1498636*
X1500511Y1621024*
Y1620689*
X1501500Y1619700*
X1452000Y1597700D02*
X1449500Y1595200D01*
Y1569953*
X1450000Y1569453*
X1471700Y1632300D02*
X1473800D01*
X1474500Y1633000*
X1477650*
X1478050Y1633400*
X1480071*
X1484671Y1628800*
X1504821*
X1512900Y1620721*
Y1619000*
X1474100Y1629600D02*
Y1629500D01*
X1475200*
X1475900Y1628800*
X1477521*
X1480200Y1626121*
Y1624864*
X1484264Y1620800*
X1495798*
X1496898Y1621900*
X1498221*
X1499300Y1620821*
Y1619779*
X1500879Y1618200*
X1505100*
X1506500Y1619600*
X1510500*
X1471700Y1627200D02*
X1474900Y1624000D01*
X1478121*
X1480000Y1622121*
Y1615364*
X1484880Y1610484*
X1519370*
X1477800Y1622200D02*
Y1616150D01*
X1484850Y1609100*
X1510765*
X1511349Y1608516*
X1519370*
X1471000Y1600200D02*
X1472900Y1598300D01*
Y1593000*
X1478800Y1587100*
X1484300*
X1471000Y1600200D02*
Y1603500D01*
X1471050*
X1486600Y1600200D02*
Y1603500D01*
X1486650*
X1474400Y1627300D02*
X1476300Y1625400D01*
X1478136*
X1481600Y1621936*
Y1615179*
X1484779Y1612000*
X1497547*
X1499547Y1614000*
X1513800*
X1515200Y1612600*
X1452100Y1602600D02*
Y1624460D01*
X1458140Y1630500*
X1464800*
X1467500Y1633200*
X1459531Y1595000D02*
Y1593169D01*
X1459925Y1592775*
Y1591000*
X1474950Y1603500D02*
X1475000D01*
Y1600200*
X1459020Y1599500D02*
Y1597280D01*
X1459531Y1596769*
Y1595000*
X1460724Y1607904D02*
Y1608026D01*
X1464084*
Y1604089D02*
X1464183D01*
X1467500Y1600772*
Y1599500*
X1464084Y1608026D02*
X1464363D01*
X1466300Y1610400*
X1456782Y1604316D02*
Y1604217D01*
X1459020Y1601980*
Y1599500*
X1460719Y1604316D02*
X1461699D01*
X1461699D02*
Y1603238D01*
X1461700Y1602000*
X1527852Y1597300D02*
Y1595495D01*
X1528232Y1595115*
X1527852Y1597300D02*
X1529080Y1598528D01*
Y1598748*
X1522000Y1601564D02*
Y1599464D01*
X1523764Y1597700*
X1525547*
X1525947Y1597300*
X1527852*
X1522000Y1601564D02*
X1523700Y1603264D01*
Y1613174*
X1529741Y1619215*
X1530630*
Y1619016*
X1523000Y1599879D02*
X1524052Y1598826D01*
X1526912*
Y1598748*
X1523000Y1599879D02*
Y1601136D01*
X1527600Y1605736*
Y1608543*
X1529741Y1610684*
X1530630*
Y1610484*
X1489800Y1623800D02*
X1491700Y1625700D01*
X1500900*
X1502500Y1627300*
X1509000Y1632400D02*
X1516716D01*
X1521500Y1627616*
Y1620057*
X1489300Y1614000D02*
X1491500D01*
Y1614031*
X1502400Y1631600D02*
X1503800Y1633000D01*
X1506596*
X1507496Y1633900*
X1517804*
X1523904Y1627800*
X1528921*
X1531900Y1630779*
Y1632600*
X1535100Y1635800*
Y1637900*
X1494400Y1600200D02*
Y1589400D01*
X1496700Y1587100*
X1494400Y1600200D02*
Y1603500D01*
X1494450*
X1510000Y1600200D02*
X1510100D01*
X1511300Y1599000*
Y1589200*
X1510000Y1600200D02*
Y1603500D01*
X1510050*
X1490500Y1600200D02*
Y1603500D01*
X1490550*
X1508500Y1630100D02*
X1509726D01*
X1510326Y1629500*
X1512031*
X1522000Y1615800D02*
Y1614700D01*
X1522700Y1614000*
Y1606671*
X1525500Y1620500D02*
X1527500D01*
X1527984Y1620984*
X1530630*
X1517700Y1594000D02*
X1519941D01*
Y1594105*
X1528000Y1613500D02*
Y1615106D01*
X1529941Y1617047*
X1530630*
X1525100Y1596000D02*
X1526941Y1594211D01*
Y1594105*
X1524500Y1600500D02*
X1529673D01*
X1531049Y1599125*
Y1598748*
X1495500Y1614031D02*
X1495598D01*
X1498667Y1617100*
X1504150*
X1506250Y1615000*
X1514500*
X1514800Y1614700*
X1516200*
X1519370Y1619016D02*
Y1618816D01*
X1520259*
X1521500Y1620057*
X1513950Y1603500D02*
X1514000D01*
Y1600200*
X1498350Y1603500D02*
X1498500D01*
Y1600200*
X1519941Y1594105D02*
X1520330D01*
X1523485D02*
X1526941D01*
X1536000Y1607206D02*
X1533540Y1604745D01*
X1535051Y1603234*
Y1602902*
X1537728Y1600224*
X1539500*
X1533500Y1620600D02*
X1535117Y1618983D01*
X1536251*
X1533500Y1620600D02*
X1533700Y1620800D01*
X1534300Y1616700D02*
X1535951D01*
X1536251Y1617000*
Y1617014*
X1532100Y1626500D02*
X1532989Y1627389D01*
Y1627910*
X1535779Y1630700*
X1538070*
X1541902Y1634531*
X1542000*
X1534600Y1627400D02*
X1536349D01*
X1537249Y1626500*
X1541616*
X1548100Y1632984*
Y1645369*
X1534500Y1623800D02*
X1535843Y1623309D01*
X1536251*
Y1622920*
X1535000Y1597000D02*
X1536650Y1596381D01*
X1539500*
Y1595303*
X1529500Y1596000D02*
X1530194Y1594494D01*
Y1594105*
X1530485*
X1531500Y1596000D02*
X1533137Y1595389D01*
X1534215*
Y1594410*
X1530630Y1617047D02*
X1531319D01*
X1532366Y1616000*
X1532850*
X1533650Y1615200*
X1535121*
X1536000Y1614321*
Y1607206*
X1530630Y1620984D02*
Y1620785D01*
X1531519*
X1533034Y1622300*
X1534483*
X1536032Y1620752*
X1536251*
Y1620951*
X1530630Y1606547D02*
X1531319D01*
X1532466Y1605400*
X1532885*
X1533540Y1604745*
X1530630Y1608516D02*
Y1608500D01*
X1533500*
X1530630Y1610484D02*
Y1610500D01*
X1530830Y1610700*
X1533500*
X1539500Y1600224D02*
Y1603900D01*
X1542500Y1606900*
X1528881Y1598748D02*
X1529080D01*
X1530849D02*
X1531049D01*
X1532818D02*
Y1599000D01*
X1534500*
X1488026Y1666774D02*
X1489452Y1668200D01*
X1491031*
X1488026Y1666774D02*
X1488200Y1666600D01*
X1486700Y1665979D02*
Y1668187D01*
X1487000Y1668487*
Y1671031*
X1486700Y1665979D02*
X1488979Y1663700D01*
X1493020*
X1466600Y1668579D02*
Y1670300D01*
X1468200Y1671900*
X1466600Y1668579D02*
X1473779Y1661400D01*
X1490651*
X1490851Y1661200*
X1495900*
X1501700Y1655400*
X1471700Y1634900D02*
X1473800D01*
X1475000Y1636100*
X1479035*
X1485235Y1629900*
X1505857*
X1514773Y1620984*
X1519370*
X1455600Y1645200D02*
X1458000D01*
Y1644469*
X1466400Y1656300D02*
X1470300Y1652400D01*
Y1642550*
X1456300Y1655300D02*
X1457422Y1654178D01*
Y1652500*
X1458031*
X1453000Y1646400D02*
Y1648531D01*
X1454000*
X1462000Y1667031D02*
Y1667224D01*
X1462291*
X1464807Y1664707*
X1465000Y1664900*
X1462000Y1661969D02*
Y1662000D01*
X1465000*
X1451000Y1640469D02*
Y1642048D01*
X1451537Y1642585*
X1451785*
X1453100Y1643900*
X1451000Y1640469D02*
X1454500D01*
X1478969Y1670000D02*
Y1669300D01*
X1481200*
X1478969Y1670000D02*
X1479000D01*
Y1673531*
X1449000Y1658469D02*
X1451281D01*
X1451719Y1658031*
X1454000*
X1449000Y1654531D02*
X1451355D01*
X1452123Y1655300*
X1453900*
X1458000Y1640531D02*
X1461500D01*
X1454000Y1652469D02*
X1456069D01*
X1456100Y1652500*
X1458031*
X1454000Y1648531D02*
X1456049D01*
X1456081Y1648500*
X1458031*
X1458000Y1661969D02*
X1462000D01*
X1458000Y1667031D02*
X1462000D01*
X1458000Y1670969D02*
X1458098D01*
X1461630Y1674500*
X1467321*
X1468200Y1673621*
Y1671900*
X1454500Y1640469D02*
Y1640531D01*
X1458000*
X1454000Y1658031D02*
X1458000D01*
X1454000Y1670969D02*
X1458000D01*
X1461000Y1633650D02*
Y1633600D01*
X1465200*
X1482650Y1665000D02*
Y1664200D01*
X1485700*
X1505600Y1660621D02*
Y1657800D01*
X1505700Y1657700*
X1505600Y1660621D02*
X1512979Y1668000D01*
X1519253*
X1519353Y1667900*
X1526516*
X1530900Y1672284*
Y1673600*
X1499100Y1644400D02*
X1500400D01*
X1501300Y1643500*
X1505698*
X1506498Y1644300*
X1514749*
X1516049Y1643000*
X1519946*
X1523500Y1646554*
Y1651953*
X1528031Y1656485*
Y1658500*
X1499200Y1641900D02*
X1500700Y1640400D01*
X1504200*
X1507100Y1643300*
X1511929*
X1513229Y1642000*
X1520360*
X1528031Y1649672*
Y1652500*
X1496600Y1642800D02*
X1497539Y1641861D01*
Y1641440*
X1499579Y1639400*
X1521530*
X1528031Y1645902*
Y1646000*
X1499100Y1647000D02*
X1505698D01*
X1506598Y1647900*
X1511900*
X1512400Y1647400*
X1519200*
X1497300Y1654700D02*
Y1652579D01*
X1501779Y1648100*
X1505021*
X1505900Y1648979*
Y1650021*
X1506779Y1650900*
X1512500*
X1513600Y1649800*
X1519200*
X1502100Y1634700D02*
X1503500Y1636100D01*
X1521500*
X1528300Y1629300*
X1504600Y1634600D02*
X1506200D01*
X1506500Y1634900*
X1520100*
X1525700Y1629300*
X1499600Y1634500D02*
Y1636621D01*
X1501379Y1638400*
X1526700*
X1528300Y1636800*
X1502000Y1636900D02*
Y1637200D01*
X1523000*
X1523300Y1636900*
X1525600*
X1497600Y1668700D02*
X1500700D01*
X1501500Y1667900*
X1506869*
X1507428Y1668459*
X1508969Y1669730*
Y1670000*
X1517500Y1669500D02*
X1518800D01*
X1519300Y1670000*
X1521031*
X1504400Y1649600D02*
Y1652100D01*
X1505700Y1653400*
Y1657700*
X1489300Y1659900D02*
X1495000Y1654200D01*
Y1651469*
X1496700Y1644900D02*
X1497100Y1646000D01*
X1508969Y1670000D02*
X1509000D01*
Y1673531*
X1491000Y1671231D02*
X1491031D01*
Y1668200*
X1495000Y1651469D02*
X1495098D01*
X1497100Y1649467*
Y1646000*
X1545400Y1655700D02*
Y1658031D01*
X1546000*
X1534500Y1666900D02*
X1535369Y1666031D01*
X1538000*
X1535400Y1640800D02*
X1536922Y1639448D01*
X1538000*
Y1638469*
X1535400Y1644500D02*
X1538000D01*
Y1643531*
X1534600Y1662800D02*
X1536070D01*
X1537902Y1660969*
X1538000*
X1541969Y1653000D02*
Y1653300D01*
X1544500*
X1541969Y1653000D02*
Y1655049D01*
X1542000Y1655081*
Y1657031*
X1538000Y1643531D02*
X1542000D01*
X1538000Y1638469D02*
X1542000D01*
X1546000Y1661969D02*
Y1666031D01*
X1538000D02*
X1542000D01*
X1531969Y1658500D02*
X1532000D01*
Y1661600*
X1531969Y1646000D02*
Y1646700D01*
X1534200*
X1542000Y1666031D02*
X1546000D01*
X1538000Y1660969D02*
X1542000D01*
Y1647469D02*
X1546000D01*
X1542000Y1634531D02*
X1546000D01*
X1531969Y1652500D02*
X1534000D01*
X1546000Y1647469D02*
X1546270D01*
X1547541Y1645928*
X1548100Y1645369*
X1461000Y1686098D02*
X1467500D01*
X1471400Y1677500D02*
X1472895D01*
X1472927Y1677469*
X1475000*
X1479000D02*
X1483000D01*
X1487000Y1674969D02*
X1488900D01*
X1489100Y1675169*
X1491000*
X1487000Y1674969D02*
X1487500D01*
Y1677600*
X1475000Y1677469D02*
X1479000D01*
X1467500Y1686098D02*
Y1687500D01*
X1478500*
Y1686000D02*
X1489500D01*
Y1686098*
X1478500Y1711000D02*
X1489500D01*
Y1710902*
X1502700Y1701500D02*
X1525650D01*
X1529150Y1698000*
X1534700*
X1536200Y1699500*
X1538000*
X1503000Y1677900D02*
X1505000D01*
Y1677469*
X1513900Y1677900D02*
X1517000D01*
Y1677469*
X1491000Y1675169D02*
X1495000D01*
X1509000Y1677469D02*
X1509098D01*
X1510597Y1675970*
X1511400*
X1512902Y1674469*
X1513000*
X1521000Y1677469D02*
X1525000D01*
X1521000Y1673531D02*
X1521031D01*
Y1670000*
X1517000Y1677469D02*
X1521000D01*
X1505000D02*
X1509000D01*
X1510500Y1710902D02*
Y1711000D01*
X1521500*
X1510500Y1686098D02*
Y1686000D01*
X1521500*
Y1687500D02*
X1532500D01*
Y1686098*
Y1710700D02*
Y1710902D01*
X1445531Y1719500D02*
Y1721331D01*
X1446000Y1721799*
Y1723531*
X1449500*
X1471300Y1729700D02*
Y1726700D01*
X1472220Y1725780*
Y1721976*
X1449900Y1746900D02*
X1452031Y1749031D01*
X1454500*
X1451900Y1742000D02*
X1454500D01*
Y1742469*
X1451100Y1731700D02*
X1452422Y1731511D01*
X1453500*
Y1730531*
X1449100Y1732200D02*
Y1734531D01*
X1450000*
X1473200Y1728300D02*
Y1726700D01*
X1474780Y1725120*
Y1721976*
X1466300Y1753300D02*
X1468500D01*
Y1752969*
X1477339Y1739024D02*
X1479096D01*
X1479152Y1738969*
X1481500*
X1474780Y1739024D02*
Y1740008D01*
X1475800Y1741028*
Y1742109*
X1476000Y1742309*
Y1749031*
X1472220Y1739024D02*
Y1743154D01*
X1473969Y1744902*
Y1745000*
X1462500Y1752969D02*
X1462598D01*
X1466400Y1749167*
Y1741100*
X1462500Y1738531D02*
Y1738500D01*
X1465400*
X1449500Y1723531D02*
X1451178D01*
X1451822Y1722887*
Y1722531*
X1453500*
X1468500Y1752969D02*
X1472000D01*
X1476000*
X1449469Y1719500D02*
X1452113D01*
X1452813Y1718800*
X1455121*
X1456400Y1720079*
Y1721300*
X1453500Y1722531D02*
X1454500D01*
Y1720300*
X1450000Y1734531D02*
Y1734469D01*
X1453500*
Y1730531D02*
Y1730340D01*
X1453790*
X1457110Y1733660*
X1457400*
Y1733469*
X1458500Y1738531D02*
X1462500D01*
X1480000Y1752969D02*
X1483500D01*
X1487500D02*
X1487598D01*
X1489600Y1750967*
Y1747156*
X1487500Y1749031D02*
Y1745186D01*
X1491244Y1741442*
Y1741043*
X1492280Y1740008*
Y1739024*
X1458500Y1752969D02*
X1462500D01*
X1454500Y1742469D02*
X1458500D01*
X1454500Y1749031D02*
X1458500D01*
X1483969Y1745000D02*
Y1744902D01*
X1486170Y1742700*
X1487034*
X1488700Y1741034*
Y1741028*
X1489720Y1740008*
Y1739024*
X1483500Y1752969D02*
X1487500D01*
X1488900Y1729700D02*
Y1726700D01*
X1489720Y1725880*
Y1721976*
X1523900Y1729700D02*
Y1726374D01*
X1524720Y1725553*
Y1721976*
X1506400Y1729700D02*
Y1726324D01*
X1507220Y1725503*
Y1721976*
X1490700Y1728300D02*
Y1726700D01*
X1492280Y1725120*
Y1721976*
X1525600Y1728300D02*
X1527280Y1726620D01*
Y1721976*
X1508000Y1728300D02*
X1509780Y1726520D01*
Y1721976*
X1489000Y1746200D02*
X1489600Y1747156D01*
X1494839Y1739024D02*
X1496596D01*
X1496652Y1738969*
X1499000*
X1512339Y1739024D02*
X1514540D01*
X1514595Y1738969*
X1516500*
X1509780Y1739024D02*
Y1740008D01*
X1510800Y1741028*
Y1741034*
X1511266Y1741500*
X1514295*
X1514595Y1741200*
X1516721*
X1518000Y1742479*
Y1743630*
X1519902Y1745531*
X1520000*
X1507220Y1739024D02*
Y1740008D01*
X1508256Y1741043*
Y1741626*
X1511531Y1744902*
Y1745000*
X1527280Y1739024D02*
Y1740008D01*
X1528300Y1741028*
Y1741109*
X1531500Y1744309*
Y1748531*
X1524720Y1739024D02*
Y1741154D01*
X1527969Y1744402*
Y1744500*
X1516000Y1752969D02*
X1518731D01*
X1520000Y1751700*
X1527500Y1752969D02*
X1529250D01*
X1529750Y1752469*
X1531500*
X1512500Y1752969D02*
X1516000D01*
X1520000Y1749469D02*
Y1751700D01*
X1524000Y1752969D02*
X1527500D01*
X1535100Y1730800D02*
X1537200Y1732900D01*
Y1735984*
X1539000Y1737784*
Y1740531*
X1533500Y1746000D02*
X1535281Y1748031D01*
X1535500*
X1534900Y1726500D02*
X1537531D01*
X1547100Y1730800D02*
X1549500D01*
Y1730531*
X1547000Y1737900D02*
X1549016D01*
X1553500Y1742384*
Y1745870*
X1545000Y1744000D02*
X1547531D01*
X1529839Y1739024D02*
X1531596D01*
X1531652Y1738969*
X1534000*
X1549469Y1722000D02*
X1549500D01*
Y1719300*
X1549469Y1722000D02*
Y1726500D01*
X1537531Y1722000D02*
Y1726500D01*
X1535500Y1748031D02*
X1539000D01*
Y1744469*
X1547531Y1744000D02*
Y1748000D01*
X1551469Y1752000D02*
Y1748000D01*
Y1747902*
X1553500Y1745870*
X1545531Y1726500D02*
Y1729231D01*
X1547100Y1730800*
X1531500Y1752469D02*
Y1754500D01*
X1539000Y1748031D02*
X1543000D01*
X1540500Y1730531D02*
Y1728952D01*
X1540852Y1728600*
X1541046*
X1541469Y1728178*
Y1726500*
X1540500Y1730531D02*
X1542605D01*
X1542873Y1730800*
X1544400*
G54D14*
X1444024Y1516370D02*
X1463976D01*
Y1509409*
X1460948*
X1460902Y1509556*
X1460752Y1509846*
X1460405Y1510401*
X1460012Y1510924*
X1459576Y1511413*
X1459101Y1511863*
X1458589Y1512271*
X1458046Y1512635*
X1457473Y1512952*
X1456876Y1513219*
X1456258Y1513436*
X1455624Y1513599*
X1454979Y1513709*
X1454327Y1513764*
X1453673*
X1453021Y1513709*
X1452376Y1513599*
X1451742Y1513436*
X1451124Y1513219*
X1450527Y1512952*
X1449954Y1512635*
X1449411Y1512271*
X1448899Y1511863*
X1448424Y1511413*
X1447988Y1510924*
X1447595Y1510401*
X1447248Y1509846*
X1447098Y1509556*
X1447052Y1509409*
X1444024*
Y1516370*
X1444409Y1509409D02*
Y1516370D01*
X1444866Y1509409D02*
Y1516370D01*
X1445323Y1509409D02*
Y1516370D01*
X1445780Y1509409D02*
Y1516370D01*
X1446236Y1509409D02*
Y1516370D01*
X1446693Y1509409D02*
Y1516370D01*
X1447150Y1509656D02*
Y1516370D01*
X1447606Y1510416D02*
Y1516370D01*
X1448063Y1511008D02*
Y1516370D01*
X1448520Y1511503D02*
Y1516370D01*
X1448976Y1511924D02*
Y1516370D01*
X1449433Y1512286D02*
Y1516370D01*
X1449890Y1512592D02*
Y1516370D01*
X1450346Y1512852D02*
Y1516370D01*
X1450803Y1513075D02*
Y1516370D01*
X1451260Y1513267D02*
Y1516370D01*
X1451717Y1513427D02*
Y1516370D01*
X1452173Y1513547D02*
Y1516370D01*
X1452630Y1513643D02*
Y1516370D01*
X1453087Y1513715D02*
Y1516370D01*
X1453543Y1513753D02*
Y1516370D01*
X1454000Y1513764D02*
Y1516370D01*
X1454457Y1513753D02*
Y1516370D01*
X1454913Y1513715D02*
Y1516370D01*
X1455370Y1513643D02*
Y1516370D01*
X1455827Y1513547D02*
Y1516370D01*
X1456283Y1513427D02*
Y1516370D01*
X1456740Y1513267D02*
Y1516370D01*
X1457197Y1513075D02*
Y1516370D01*
X1457654Y1512852D02*
Y1516370D01*
X1458110Y1512592D02*
Y1516370D01*
X1458567Y1512286D02*
Y1516370D01*
X1459024Y1511924D02*
Y1516370D01*
X1459480Y1511503D02*
Y1516370D01*
X1459937Y1511008D02*
Y1516370D01*
X1460394Y1510416D02*
Y1516370D01*
X1460850Y1509656D02*
Y1516370D01*
X1461307Y1509409D02*
Y1516370D01*
X1461764Y1509409D02*
Y1516370D01*
X1462220Y1509409D02*
Y1516370D01*
X1462677Y1509409D02*
Y1516370D01*
X1463134Y1509409D02*
Y1516370D01*
X1463591Y1509409D02*
Y1516370D01*
X1444024Y1502591D02*
X1447052D01*
X1447098Y1502444*
X1447248Y1502154*
X1447595Y1501599*
X1447988Y1501076*
X1448424Y1500587*
X1448899Y1500137*
X1449411Y1499729*
X1449954Y1499365*
X1450527Y1499048*
X1451124Y1498781*
X1451742Y1498564*
X1452376Y1498401*
X1453021Y1498291*
X1453673Y1498236*
X1454327*
X1454979Y1498291*
X1455624Y1498401*
X1456258Y1498564*
X1456876Y1498781*
X1457473Y1499048*
X1458046Y1499365*
X1458589Y1499729*
X1459101Y1500137*
X1459576Y1500587*
X1460012Y1501076*
X1460405Y1501599*
X1460752Y1502154*
X1460902Y1502444*
X1460948Y1502591*
X1463976*
Y1495630*
X1444024*
Y1502591*
X1444409Y1495630D02*
Y1502591D01*
X1444866Y1495630D02*
Y1502591D01*
X1445323Y1495630D02*
Y1502591D01*
X1445780Y1495630D02*
Y1502591D01*
X1446236Y1495630D02*
Y1502591D01*
X1446693Y1495630D02*
Y1502591D01*
X1447150Y1495630D02*
Y1502344D01*
X1447606Y1495630D02*
Y1501584D01*
X1448063Y1495630D02*
Y1500992D01*
X1448520Y1495630D02*
Y1500497D01*
X1448976Y1495630D02*
Y1500076D01*
X1449433Y1495630D02*
Y1499714D01*
X1449890Y1495630D02*
Y1499408D01*
X1450346Y1495630D02*
Y1499148D01*
X1450803Y1495630D02*
Y1498925D01*
X1451260Y1495630D02*
Y1498733D01*
X1451717Y1495630D02*
Y1498573D01*
X1452173Y1495630D02*
Y1498453D01*
X1452630Y1495630D02*
Y1498357D01*
X1453087Y1495630D02*
Y1498285D01*
X1453543Y1495630D02*
Y1498247D01*
X1454000Y1495630D02*
Y1498236D01*
X1454457Y1495630D02*
Y1498247D01*
X1454913Y1495630D02*
Y1498285D01*
X1455370Y1495630D02*
Y1498357D01*
X1455827Y1495630D02*
Y1498453D01*
X1456283Y1495630D02*
Y1498573D01*
X1456740Y1495630D02*
Y1498733D01*
X1457197Y1495630D02*
Y1498925D01*
X1457654Y1495630D02*
Y1499148D01*
X1458110Y1495630D02*
Y1499408D01*
X1458567Y1495630D02*
Y1499714D01*
X1459024Y1495630D02*
Y1500076D01*
X1459480Y1495630D02*
Y1500497D01*
X1459937Y1495630D02*
Y1500992D01*
X1460394Y1495630D02*
Y1501584D01*
X1460850Y1495630D02*
Y1502344D01*
X1461307Y1495630D02*
Y1502591D01*
X1461764Y1495630D02*
Y1502591D01*
X1462220Y1495630D02*
Y1502591D01*
X1462677Y1495630D02*
Y1502591D01*
X1463134Y1495630D02*
Y1502591D01*
X1463591Y1495630D02*
Y1502591D01*
G54D21*
X1443759Y1550900D02*
Y1547800D01*
X1445543*
Y1547776*
X1443759Y1554100D02*
Y1550900D01*
X1445543*
Y1550925*
Y1544626D02*
X1443759D01*
Y1547800*
X1444400Y1538600D02*
X1443551Y1539449D01*
Y1541533*
X1443759Y1541741*
Y1544626*
X1456400Y1552500D02*
Y1549350D01*
X1458457*
X1456400Y1555650D02*
Y1552500D01*
X1458457*
Y1546201D02*
X1456400D01*
Y1549350*
Y1546201D02*
Y1543724D01*
X1457072Y1543051*
X1458457*
X1443759Y1560400D02*
Y1562700D01*
X1444000Y1563524*
X1443759Y1560400D02*
X1445543D01*
Y1560374*
X1443759Y1557200D02*
X1445543D01*
Y1557224*
X1443759Y1560400D02*
Y1557200D01*
Y1554100*
X1445543*
Y1554075*
X1444000Y1563524D02*
Y1564600D01*
X1444400Y1565000*
Y1566400*
X1444000Y1563524D02*
X1445543D01*
X1456400Y1558799D02*
Y1555650D01*
X1458457*
X1456400Y1558799D02*
Y1561276D01*
X1457072Y1561949*
X1458457*
X1456400Y1558799D02*
X1458457D01*
X1519370Y1617047D02*
Y1615713D01*
X1521600Y1613483*
X1519370Y1606547D02*
Y1606277D01*
X1520329*
X1521600Y1607547*
Y1613483*
X1480300Y1722100D02*
Y1729605D01*
X1481500Y1730805*
Y1735031*
X1483000Y1725969D02*
X1483098D01*
X1487161Y1730031*
Y1739024*
X1515200Y1722000D02*
Y1728076D01*
X1515600Y1728476*
Y1735031*
X1516500*
X1497800Y1721531D02*
Y1727892D01*
X1498100Y1728192*
Y1735031*
X1499000*
X1502616Y1738984D02*
X1504661D01*
Y1739024*
X1500500Y1725469D02*
X1501100D01*
Y1727400*
X1502616Y1728916*
Y1738984*
X1518000Y1725469D02*
X1518098D01*
X1522161Y1729531*
Y1739024*
X1532100Y1722000D02*
Y1730757D01*
X1534000Y1732657*
Y1735031*
X1529839Y1721976D02*
Y1722000D01*
X1532100*
G54D24*
X1459600Y1536500D03*
Y1538600D03*
Y1566400D03*
Y1568500D03*
X1444400Y1536400D03*
Y1538600D03*
Y1566400D03*
Y1568500D03*
X1485500Y1467500D03*
Y1469500D03*
Y1471500D03*
X1477500Y1463500D03*
X1460000Y1459500D03*
X1473200Y1458800D03*
X1468500Y1460800D03*
X1466000Y1464500D03*
X1472000Y1462000D03*
X1471000Y1464500D03*
X1498500Y1451500D03*
X1501500D03*
X1514500Y1471500D03*
Y1469500D03*
Y1467500D03*
X1526500Y1463000D03*
X1524000Y1463800D03*
X1532100Y1458500D03*
X1529000Y1463900D03*
X1534000Y1464500D03*
X1539000D03*
X1485500Y1473500D03*
Y1475500D03*
Y1477500D03*
Y1479500D03*
X1471000D03*
X1514500D03*
Y1477500D03*
Y1475500D03*
Y1473500D03*
X1492300Y1483500D03*
X1541000Y1505000D03*
X1536500Y1494500D03*
X1530000Y1503000D03*
Y1507000D03*
X1448500Y1549400D03*
X1468600Y1542100D03*
X1460800Y1548100D03*
X1448500Y1543900D03*
X1487500Y1541000D03*
X1461600Y1550900D03*
X1475200Y1538200D03*
X1476000Y1552300D03*
X1482860Y1552440D03*
X1448500Y1541600D03*
X1460900Y1541500D03*
X1478700Y1552300D03*
X1471000Y1542500D03*
X1485700Y1538200D03*
X1475000Y1542500D03*
X1485700D03*
X1492000Y1533500D03*
X1494500Y1551900D03*
X1493500Y1535500D03*
X1516500Y1553000D03*
X1527000Y1547000D03*
X1524500D03*
Y1549500D03*
Y1552000D03*
X1489500Y1535100D03*
X1510000Y1540000D03*
X1514000Y1542500D03*
X1510000D03*
X1498500D03*
X1496200D03*
X1544500Y1528500D03*
Y1524000D03*
X1534800Y1543800D03*
X1544500Y1519000D03*
X1534500Y1528500D03*
X1541500Y1552000D03*
Y1549500D03*
X1539500Y1552000D03*
Y1549500D03*
Y1544000D03*
X1532000Y1528000D03*
X1531500Y1531500D03*
X1467000Y1583500D03*
X1460800Y1571400D03*
Y1573700D03*
X1448500Y1558700D03*
X1461900Y1558300D03*
X1452000Y1591200D03*
X1474000Y1585700D03*
X1487400Y1562000D03*
X1485800Y1555500D03*
X1474900Y1581300D03*
X1472630Y1574630D03*
X1474700Y1563600D03*
X1472730Y1571480D03*
X1484300Y1587100D03*
X1484400Y1583900D03*
X1487400Y1587200D03*
X1487500Y1583900D03*
X1481000Y1562100D03*
X1481600Y1555700D03*
X1472800Y1565200D03*
Y1568350D03*
X1474500Y1576200D03*
X1471300Y1580700D03*
X1474100Y1579400D03*
X1487300Y1568400D03*
Y1574700D03*
X1462600Y1581000D03*
X1474500Y1573100D03*
X1520300Y1582000D03*
X1497600Y1555500D03*
X1496700Y1587100D03*
X1496800Y1584100D03*
X1500000Y1587300D03*
X1499900Y1584000D03*
X1502300Y1590100D03*
X1496400Y1553800D03*
X1492100Y1555600D03*
X1508700Y1577800D03*
X1506500Y1573100D03*
X1518800Y1573000D03*
X1509680Y1567600D03*
X1524900Y1579800D03*
X1493500Y1568400D03*
X1527000Y1557000D03*
X1524500Y1554500D03*
Y1557000D03*
X1495200Y1555700D03*
X1490400Y1568400D03*
X1490500Y1574700D03*
X1493600D03*
X1523000Y1577000D03*
X1527900Y1580000D03*
X1508200Y1570280D03*
X1496900Y1562000D03*
X1544000Y1592200D03*
X1532000Y1571400D03*
X1541500Y1554500D03*
X1539500D03*
X1534400Y1568000D03*
X1535300Y1563000D03*
X1544500Y1571000D03*
X1546000Y1568000D03*
X1530500Y1580000D03*
X1532700Y1561200D03*
X1467500Y1599500D03*
X1456600Y1617400D03*
X1484500Y1624100D03*
X1486000Y1613600D03*
X1452000Y1600100D03*
X1476200Y1621000D03*
X1471700Y1632300D03*
X1474100Y1629600D03*
X1471700Y1627200D03*
X1477800Y1622200D03*
X1464200Y1623300D03*
X1466500Y1629300D03*
X1456400Y1624100D03*
X1484100Y1614800D03*
X1487500Y1623300D03*
X1486500Y1626900D03*
X1471000Y1600200D03*
X1475000D03*
X1486600D03*
X1474400Y1627300D03*
X1479200Y1631900D03*
X1476900Y1631500D03*
Y1627300D03*
X1480800Y1607300D03*
X1454000Y1631500D03*
X1456300Y1631900D03*
X1472600Y1622200D03*
X1452000Y1597700D03*
X1470600Y1621300D03*
X1452000Y1594600D03*
X1452100Y1602600D03*
X1461700Y1602000D03*
X1467500Y1633200D03*
X1482400Y1599000D03*
X1458200Y1612200D03*
X1480200Y1599600D03*
X1474200Y1620900D03*
X1486700Y1632000D03*
X1466300Y1610400D03*
X1466700Y1607500D03*
X1476700Y1613720D03*
X1470800Y1597000D03*
X1456000Y1599000D03*
X1499900Y1627300D03*
X1502500D03*
X1489800Y1623800D03*
X1504600Y1626900D03*
X1506000Y1622700D03*
X1503000Y1622600D03*
X1512900Y1619000D03*
X1510500Y1619600D03*
X1512800Y1612500D03*
X1509000Y1632400D03*
X1489300Y1614000D03*
X1528300Y1629300D03*
X1525700D03*
X1502400Y1631600D03*
X1495500Y1624200D03*
X1501500Y1619700D03*
X1489900Y1627300D03*
X1510600Y1612400D03*
X1494400Y1600200D03*
X1498500D03*
X1510000D03*
X1514000D03*
X1490500D03*
X1515200Y1612600D03*
X1494800Y1627300D03*
X1500200Y1612100D03*
X1492200Y1627200D03*
X1500200Y1615600D03*
X1504200Y1607200D03*
X1497400Y1631500D03*
X1499900Y1631600D03*
X1505100Y1631500D03*
X1510100Y1616600D03*
X1517300Y1604000D03*
X1516100Y1622500D03*
X1489320Y1632060D03*
X1491820Y1632040D03*
X1497600Y1620400D03*
X1518200Y1614700D03*
X1494100Y1632300D03*
X1508500Y1630100D03*
X1522000Y1615800D03*
X1500900Y1624100D03*
X1504700Y1599600D03*
X1516200Y1614700D03*
X1520000Y1625000D03*
X1522800Y1618800D03*
X1521400Y1603100D03*
X1525500Y1620500D03*
X1517700Y1594000D03*
X1528000Y1613500D03*
X1525100Y1596000D03*
X1497300Y1627200D03*
X1525200Y1608000D03*
X1524500Y1600500D03*
X1522100Y1596500D03*
X1530600Y1604500D03*
X1534300Y1616700D03*
X1540300Y1628000D03*
X1538200D03*
X1532100Y1626500D03*
X1534600Y1627400D03*
X1542500Y1603500D03*
X1557000D03*
X1536800Y1625000D03*
X1532400Y1614300D03*
X1528500Y1604500D03*
X1539800Y1612800D03*
X1533700Y1620800D03*
X1542500Y1606900D03*
X1534500Y1599000D03*
X1538800Y1611000D03*
X1533500Y1610700D03*
X1534500Y1613700D03*
Y1623800D03*
X1535000Y1597000D03*
X1529500Y1596000D03*
X1531500D03*
X1533500Y1608500D03*
X1535500Y1633000D03*
X1471700Y1634900D03*
X1471800Y1644400D03*
X1465000Y1673000D03*
X1466700D03*
X1474400Y1637600D03*
X1465200Y1633600D03*
X1485700Y1664200D03*
X1468300Y1635200D03*
X1473900Y1655000D03*
X1476900Y1657300D03*
X1471400Y1660200D03*
X1474300Y1659800D03*
X1453900Y1655300D03*
X1479400Y1659800D03*
X1481200Y1669300D03*
X1479400Y1657400D03*
X1488200Y1666600D03*
X1455600Y1645200D03*
X1453100Y1643900D03*
X1465000Y1664900D03*
Y1662000D03*
X1466400Y1656300D03*
X1474300Y1651900D03*
X1476800Y1652100D03*
X1466300Y1658500D03*
X1466400Y1654100D03*
X1468400Y1643500D03*
X1467400Y1640900D03*
X1456300Y1655300D03*
X1453000Y1646400D03*
X1476600Y1634600D03*
X1468800Y1650100D03*
X1471800Y1641800D03*
X1476900Y1659800D03*
X1484000Y1670200D03*
X1474000Y1647300D03*
X1468100Y1669200D03*
X1486480Y1645020D03*
X1454000Y1664500D03*
X1464900Y1647700D03*
X1484350Y1644970D03*
X1484410Y1642570D03*
X1486470Y1642640D03*
X1479200Y1637900D03*
X1451000Y1649500D03*
X1465000Y1670500D03*
X1464700Y1652400D03*
X1454500Y1634500D03*
X1497000D03*
X1507900Y1646400D03*
X1499100Y1644400D03*
X1499200Y1641900D03*
X1496600Y1642800D03*
X1499100Y1647000D03*
X1519200Y1647400D03*
X1497300Y1654700D03*
X1519200Y1649800D03*
X1502100Y1634700D03*
X1504600Y1634600D03*
X1499600Y1634500D03*
X1528300Y1636800D03*
X1502000Y1636900D03*
X1525600D03*
X1494800Y1657200D03*
X1501500Y1663400D03*
X1501700Y1655400D03*
X1497600Y1668700D03*
X1517500Y1669500D03*
X1507400Y1649400D03*
X1502100Y1645000D03*
X1504400Y1649600D03*
X1490400Y1665500D03*
X1519200Y1644800D03*
X1507000Y1665700D03*
X1499800Y1654700D03*
X1507100Y1660000D03*
X1494800Y1659700D03*
X1497200Y1657000D03*
X1503600Y1663600D03*
X1499800Y1652200D03*
X1502300D03*
X1489300Y1659900D03*
X1496700Y1644900D03*
X1497200Y1637100D03*
X1524800Y1661800D03*
X1515600Y1670500D03*
X1491800Y1654800D03*
X1500100Y1659900D03*
X1502400Y1641900D03*
X1527400Y1672400D03*
X1520500Y1654500D03*
X1494270Y1644910D03*
X1489520Y1645020D03*
X1497900Y1671100D03*
X1489300Y1655000D03*
X1492030Y1644970D03*
X1489580Y1642520D03*
X1492130Y1642510D03*
X1494150Y1642470D03*
X1518500Y1666500D03*
X1504200Y1655500D03*
X1508900Y1641800D03*
X1508200Y1655000D03*
X1518000Y1654500D03*
X1532000Y1661600D03*
X1534000Y1652500D03*
X1534200Y1646700D03*
X1535100Y1637900D03*
X1545400Y1655700D03*
X1534500Y1666900D03*
X1535400Y1640800D03*
Y1644500D03*
X1544500Y1653300D03*
X1534600Y1662800D03*
X1544700Y1641000D03*
X1534900Y1660600D03*
X1534500Y1672000D03*
X1549500Y1672500D03*
X1535000Y1649000D03*
X1545300Y1672200D03*
X1466700Y1699500D03*
Y1701500D03*
Y1693600D03*
X1470900Y1673850D03*
X1457000Y1683000D03*
Y1685000D03*
Y1687000D03*
X1466700Y1695600D03*
X1464300Y1700500D03*
X1471400Y1677500D03*
X1487500Y1677600D03*
X1466700Y1703500D03*
Y1705300D03*
X1457300Y1697000D03*
X1452000Y1711000D03*
X1450000D03*
X1452000Y1705000D03*
X1450000D03*
X1452000Y1707000D03*
X1450000D03*
Y1709000D03*
X1452000D03*
X1462500Y1680500D03*
X1460500D03*
X1458500D03*
X1456500D03*
X1460500Y1678500D03*
X1462500D03*
X1458500D03*
X1456500D03*
X1455500Y1707000D03*
Y1705000D03*
X1466700Y1691500D03*
X1465000D03*
X1487500Y1698500D03*
X1482500Y1703000D03*
X1480000D03*
X1477500Y1698500D03*
X1487500Y1703000D03*
X1482500Y1694000D03*
X1487500D03*
X1477500Y1703000D03*
X1480000Y1698500D03*
X1482500D03*
X1485000Y1694000D03*
X1480000D03*
X1485000Y1703000D03*
Y1698500D03*
X1477500Y1694000D03*
X1502300Y1675500D03*
X1502700Y1693600D03*
X1497300D03*
X1495500Y1677900D03*
X1502700Y1699500D03*
Y1701500D03*
X1497300D03*
X1501600Y1673500D03*
X1503000Y1677900D03*
X1501800Y1705600D03*
X1502700Y1695600D03*
X1513900Y1677900D03*
X1498000D03*
X1502700Y1703500D03*
X1497300Y1695600D03*
X1499800Y1705600D03*
X1493000Y1677800D03*
X1497300Y1703500D03*
Y1691600D03*
Y1699500D03*
X1513000Y1703000D03*
Y1698500D03*
X1523000D03*
X1520500D03*
Y1703000D03*
X1515500D03*
Y1698500D03*
X1520500Y1694000D03*
X1515500D03*
X1513000D03*
X1523000D03*
X1518000Y1698500D03*
X1523000Y1703000D03*
X1518000Y1694000D03*
Y1703000D03*
X1502700Y1691600D03*
X1533300Y1693600D03*
X1529500Y1675100D03*
X1538000Y1699500D03*
X1530900Y1673600D03*
X1533300Y1695600D03*
X1539600Y1700900D03*
X1541900Y1700500D03*
X1533300Y1703500D03*
Y1705400D03*
X1549500Y1712500D03*
X1547500D03*
Y1710500D03*
X1549500D03*
Y1708500D03*
X1547500D03*
X1533300Y1699500D03*
Y1701500D03*
X1538200Y1677600D03*
X1535500Y1677500D03*
X1533500D03*
X1537500Y1679500D03*
X1535500D03*
X1533500D03*
X1531500D03*
Y1677500D03*
X1533400Y1691600D03*
X1543000Y1683000D03*
Y1685000D03*
Y1687000D03*
X1534500Y1674000D03*
X1471300Y1729700D03*
X1456400Y1721300D03*
X1454500Y1720300D03*
X1480300Y1722100D03*
X1466000Y1725000D03*
X1466400Y1741100D03*
X1465400Y1738500D03*
X1449900Y1746900D03*
X1451900Y1742000D03*
X1451100Y1731700D03*
X1449100Y1732200D03*
X1473200Y1728300D03*
X1466300Y1753300D03*
X1449400Y1740700D03*
X1456000Y1726000D03*
X1464300Y1745300D03*
X1449500Y1729900D03*
X1470000Y1742500D03*
X1484700Y1741900D03*
X1499700Y1732300D03*
Y1728500D03*
Y1730400D03*
X1488900Y1729700D03*
X1523900D03*
X1506400D03*
X1517300Y1728400D03*
Y1732300D03*
Y1730400D03*
X1515200Y1722000D03*
X1497800Y1721531D03*
X1490700Y1728300D03*
X1525600D03*
X1508000D03*
X1489000Y1746200D03*
X1520000Y1751700D03*
X1516100Y1742700D03*
X1502616Y1738984D03*
X1522161Y1742200D03*
X1535100Y1730800D03*
X1533500Y1746000D03*
X1532100Y1722000D03*
X1534900Y1726500D03*
X1549500Y1719300D03*
X1544400Y1730800D03*
X1547100D03*
X1547000Y1737900D03*
X1545000Y1744000D03*
X1549500Y1714500D03*
X1547500D03*
X1535000Y1743100D03*
X1532600D03*
X1543300Y1733400D03*
X1534100Y1720600D03*
X1476000Y1760000D03*
X1473200Y1756000D03*
X1480100D03*
X1524500Y1759000D03*
X1511000Y1758000D03*
X1511500Y1756000D03*
X1531500Y1754500D03*
X1541500D03*
X1534800Y1754300D03*
G54D25*
X1539500Y1600224D03*
Y1595303D03*
Y1590382D03*
Y1585461D03*
Y1580539D03*
Y1575618D03*
Y1570697D03*
Y1540803D03*
Y1535882D03*
Y1530961D03*
Y1526039D03*
Y1521118D03*
Y1516197D03*
G54D26*
X1550917Y1560657D03*
Y1610264D03*
Y1550843D03*
Y1506157D03*
G54D30*
X1511000Y1661480D03*
Y1656520D03*
X1470500Y1617480D03*
Y1612520D03*
X1461500Y1727520D03*
Y1732480D03*
X1481500Y1529980D03*
Y1525020D03*
G54D31*
X1461000Y1633650D03*
Y1627350D03*
G54D32*
X1459020Y1599500D03*
X1463980D03*
X1493020Y1663700D03*
X1497980D03*
X1522520Y1516500D03*
X1527480D03*
X1522520Y1494000D03*
X1527480D03*
X1487520Y1505500D03*
X1492480D03*
X1515020Y1531500D03*
X1519980D03*
X1527480Y1507500D03*
X1522520D03*
Y1498500D03*
X1527480D03*
Y1512000D03*
X1522520D03*
Y1503000D03*
X1527480D03*
G54D33*
X1513000Y1487500D03*
X1502000D03*
X1513000Y1501000D03*
X1502000D03*
X1481500Y1493000D03*
X1492500D03*
G54D37*
X1454000Y1515055D03*
Y1496945D03*
G54D41*
X1500000Y1752500D03*
G54D42*
X1547500Y1482500D03*
X1452500D03*
G54D43*
X1519370Y1606547D03*
Y1608516D03*
Y1610484D03*
Y1612453D03*
X1530630D03*
Y1610484D03*
Y1608516D03*
Y1606547D03*
X1519370Y1617047D03*
Y1619016D03*
Y1620984D03*
Y1622953D03*
X1530630D03*
Y1620984D03*
Y1619016D03*
Y1617047D03*
G54D46*
X1478500Y1712500D03*
Y1711000D03*
Y1709500D03*
X1521500Y1712500D03*
Y1711000D03*
Y1709500D03*
X1476500Y1491000D03*
Y1492500D03*
Y1494000D03*
X1497000Y1494500D03*
Y1493000D03*
Y1491500D03*
X1478500Y1684500D03*
Y1686000D03*
Y1687500D03*
X1521500Y1684500D03*
Y1686000D03*
Y1687500D03*
G54D51*
X1512693Y1527456D03*
Y1524897D03*
Y1522338D03*
Y1519779D03*
Y1517220D03*
Y1514661D03*
Y1512102D03*
Y1509543D03*
X1489307D03*
Y1512102D03*
Y1514661D03*
Y1517220D03*
Y1519779D03*
Y1522338D03*
Y1524897D03*
Y1527456D03*
G54D52*
X1501000Y1518500D03*
G54D54*
X1472000Y1512600D03*
Y1528400D03*
G54D56*
X1464084Y1608026D03*
Y1604089D03*
X1516500Y1735031D03*
Y1738969D03*
X1502000Y1541969D03*
Y1538031D03*
X1534215Y1594410D03*
Y1590473D03*
X1534076Y1584579D03*
Y1580642D03*
X1482500Y1640469D03*
Y1636531D03*
X1485500Y1640469D03*
Y1636531D03*
X1488500Y1640469D03*
Y1636531D03*
X1491500Y1640469D03*
Y1636531D03*
X1494500Y1640469D03*
Y1636531D03*
X1483000Y1647531D03*
Y1651469D03*
X1486000Y1647531D03*
Y1651469D03*
X1489000Y1647531D03*
Y1651469D03*
X1492000Y1647531D03*
Y1651469D03*
X1495000Y1647531D03*
Y1651469D03*
X1475000Y1640531D03*
Y1644469D03*
X1479000Y1641031D03*
Y1644969D03*
X1482500Y1655031D03*
Y1658969D03*
X1483500Y1749031D03*
Y1752969D03*
X1515000Y1657031D03*
Y1660969D03*
X1499000Y1735031D03*
Y1738969D03*
X1454500Y1749031D03*
Y1752969D03*
X1454000Y1670969D03*
Y1667031D03*
Y1658031D03*
Y1661969D03*
X1454500Y1742469D03*
Y1738531D03*
X1495000Y1675169D03*
Y1671231D03*
X1465500Y1731969D03*
Y1728031D03*
X1475000Y1677469D03*
Y1673531D03*
X1454500Y1636531D03*
Y1640469D03*
X1446000Y1727469D03*
Y1723531D03*
X1534000Y1735031D03*
Y1738969D03*
X1518000Y1725469D03*
Y1721531D03*
X1540500Y1730531D03*
Y1734469D03*
X1546000Y1634531D03*
Y1638469D03*
X1549500Y1730531D03*
Y1734469D03*
X1546000Y1647469D03*
Y1643531D03*
X1525000Y1677469D03*
Y1673531D03*
X1500500Y1725469D03*
Y1721531D03*
X1505000Y1677469D03*
Y1673531D03*
X1539000Y1751969D03*
Y1748031D03*
X1495500Y1614031D03*
Y1617969D03*
X1479000Y1541969D03*
Y1538031D03*
X1483000Y1541969D03*
Y1538031D03*
X1506000Y1541969D03*
Y1538031D03*
X1458000Y1670969D03*
Y1667031D03*
X1458500Y1749031D03*
Y1752969D03*
X1487500Y1749031D03*
Y1752969D03*
X1480000D03*
Y1749031D03*
X1458000Y1658031D03*
Y1661969D03*
X1458500Y1742469D03*
Y1738531D03*
X1487000Y1671031D03*
Y1674969D03*
X1454000Y1648531D03*
Y1652469D03*
X1453500Y1734469D03*
Y1730531D03*
X1450000Y1734531D03*
Y1738469D03*
X1483000Y1673531D03*
Y1677469D03*
X1479000Y1673531D03*
Y1677469D03*
X1461500Y1644469D03*
Y1640531D03*
X1453500Y1726469D03*
Y1722531D03*
X1458000Y1640531D03*
Y1644469D03*
X1542000Y1634531D03*
Y1638469D03*
X1531500Y1748531D03*
Y1752469D03*
X1524000Y1752969D03*
Y1749031D03*
X1542000Y1647469D03*
Y1643531D03*
Y1660969D03*
Y1657031D03*
X1538000Y1660969D03*
Y1657031D03*
X1520000Y1745531D03*
Y1749469D03*
X1517000Y1673531D03*
Y1677469D03*
X1512500Y1752969D03*
Y1749031D03*
X1521000Y1673531D03*
Y1677469D03*
X1513000Y1670531D03*
Y1674469D03*
X1509000Y1673531D03*
Y1677469D03*
X1543000Y1751969D03*
Y1748031D03*
X1539000Y1744469D03*
Y1740531D03*
X1535500Y1748031D03*
Y1751969D03*
X1466000Y1544069D03*
Y1540131D03*
X1472000Y1749031D03*
Y1752969D03*
X1527500Y1749031D03*
Y1752969D03*
X1516000Y1749031D03*
Y1752969D03*
X1486000Y1655031D03*
Y1658969D03*
X1483000Y1725969D03*
Y1722031D03*
X1481500Y1735031D03*
Y1738969D03*
X1542000Y1669969D03*
Y1666031D03*
X1529000Y1530969D03*
Y1527031D03*
X1491500Y1617969D03*
Y1614031D03*
X1449000Y1654531D03*
Y1658469D03*
X1476000Y1749031D03*
Y1752969D03*
X1468500D03*
Y1749031D03*
X1491000Y1671231D03*
Y1675169D03*
X1451000Y1640469D03*
Y1636531D03*
X1449500Y1723531D03*
Y1727469D03*
X1538000Y1669969D03*
Y1666031D03*
X1546000Y1661969D03*
Y1658031D03*
Y1666031D03*
Y1669969D03*
X1521500Y1523031D03*
Y1526969D03*
X1525000Y1527031D03*
Y1530969D03*
X1462000Y1661969D03*
Y1658031D03*
X1462500Y1738531D03*
Y1742469D03*
Y1752969D03*
Y1749031D03*
X1462000Y1667031D03*
Y1670969D03*
X1457400Y1733469D03*
Y1729531D03*
X1538000Y1638469D03*
Y1634531D03*
Y1643531D03*
Y1647469D03*
G54D57*
X1460719Y1604316D03*
X1456782D03*
X1460724Y1607904D03*
X1456787D03*
X1461031Y1722000D03*
X1464969D03*
X1458633Y1581996D03*
X1462570D03*
X1458566Y1586035D03*
X1462503D03*
X1480031Y1745000D03*
X1483969D03*
X1524031Y1744500D03*
X1527969D03*
Y1582500D03*
X1524031D03*
X1478469Y1610500D03*
X1474531D03*
X1521969Y1661000D03*
X1518031D03*
X1521969Y1657000D03*
X1518031D03*
X1515969Y1629500D03*
X1512031D03*
X1528031Y1652500D03*
X1531969D03*
X1458031Y1648500D03*
X1461969D03*
X1491031Y1668200D03*
X1494969D03*
X1445531Y1719500D03*
X1449469D03*
X1541469Y1726500D03*
X1537531D03*
X1545531D03*
X1549469D03*
X1547531Y1748000D03*
X1551469D03*
X1547531Y1744000D03*
X1551469D03*
X1521031Y1670000D03*
X1524969D03*
X1470031Y1745000D03*
X1473969D03*
X1515469D03*
X1511531D03*
X1529031Y1575500D03*
X1532969D03*
X1528031Y1646000D03*
X1531969D03*
X1463469Y1595000D03*
X1459531D03*
X1528031Y1658500D03*
X1531969D03*
X1478969Y1670000D03*
X1475031D03*
X1508969D03*
X1505031D03*
X1458031Y1652500D03*
X1461969D03*
X1537531Y1722000D03*
X1541469D03*
X1549469D03*
X1545531D03*
X1551469Y1752000D03*
X1547531D03*
X1541969Y1653000D03*
X1538031D03*
G54D59*
X1526941Y1588199D03*
Y1590168D03*
Y1592136D03*
Y1594105D03*
X1530485D03*
Y1592136D03*
Y1590168D03*
Y1588199D03*
G54D60*
X1523485Y1594105D03*
Y1592136D03*
Y1590168D03*
Y1588199D03*
X1519941D03*
Y1590168D03*
Y1592136D03*
Y1594105D03*
G54D64*
X1461000Y1758500D03*
X1446000Y1469000D03*
X1554000D03*
G54D65*
X1559843Y1602244D03*
Y1607756D03*
X1566142Y1602244D03*
Y1607756D03*
X1818110Y1705787D03*
Y1700276D03*
Y1607756D03*
Y1602244D03*
Y1509331D03*
Y1503819D03*
X1811811Y1705787D03*
Y1700276D03*
Y1607756D03*
Y1602244D03*
Y1509331D03*
Y1503819D03*
X1692126Y1705787D03*
Y1700276D03*
Y1607756D03*
Y1602244D03*
Y1509331D03*
Y1503819D03*
X1685827Y1705787D03*
Y1700276D03*
Y1607756D03*
Y1602244D03*
Y1509331D03*
Y1503819D03*
X1566142Y1705787D03*
Y1700276D03*
Y1509331D03*
Y1503819D03*
X1559843Y1705787D03*
Y1700276D03*
Y1509331D03*
Y1503819D03*
X1460000Y1459500D02*
Y1462246D01*
X1461157Y1463404*
Y1468500*
X1519157D02*
Y1472650D01*
X1523776Y1477268*
Y1477500*
X1533224D02*
Y1479557D01*
X1547500Y1482500*
X1539500Y1516197D02*
X1545091D01*
X1547900Y1519006*
Y1534339*
X1539500Y1540803D02*
Y1540885D01*
X1541354*
X1547900Y1534339*
X1539500Y1540803D02*
Y1544000D01*
X1534400Y1568000D02*
X1537831Y1570697D01*
X1539500*
X1542500Y1603500D02*
X1557000D01*
G54D66*
X1526880Y1503000D02*
Y1498500D01*
X1527480*
X1526880Y1503000D02*
X1527480D01*
Y1498500D02*
X1526880D01*
Y1494000*
X1527480*
X1497000Y1494500D02*
Y1496800D01*
X1497300Y1497100*
Y1500100*
X1527480Y1503000D02*
X1530000D01*
X1527480Y1507500D02*
Y1507000D01*
X1530000*
X1489307Y1509543D02*
X1490374D01*
X1490374D02*
Y1508156D01*
X1492480Y1506050*
Y1505500*
X1444400Y1538600D02*
X1444411Y1538611D01*
X1445493Y1537529*
X1445504*
Y1537539*
X1444400Y1538600D02*
X1445390Y1539590D01*
X1458610*
X1459600Y1538600*
X1444400Y1536400D02*
X1451900D01*
X1452000Y1536500*
X1459600*
X1458496Y1537520D02*
Y1537514D01*
X1458502*
X1459594Y1538606*
X1459600Y1538600*
X1525000Y1530969D02*
X1529000D01*
X1519980Y1531500D02*
X1522135D01*
X1522667Y1530969*
X1525000*
X1529000D02*
Y1531500D01*
X1531500*
X1444400Y1568500D02*
X1445504D01*
Y1567461*
X1444400Y1566400D02*
X1445504D01*
Y1567461*
X1463075Y1591000D02*
X1463277D01*
Y1590809*
X1465686Y1588400*
X1466060*
X1471300Y1583160*
Y1580700*
X1463075Y1591000D02*
Y1595000D01*
X1463469*
X1458496Y1567461D02*
Y1567444D01*
X1458512*
X1459584Y1568516*
X1459600Y1568500*
X1462570Y1581996D02*
X1462600D01*
Y1581000*
X1523000Y1577000D02*
X1525026D01*
X1526526Y1575500*
X1529031*
X1527900Y1580000D02*
Y1582500D01*
X1527969*
X1524031D02*
X1524711D01*
Y1581722*
X1524900Y1579800*
X1456400Y1612946D02*
Y1610862D01*
X1456787Y1610475*
Y1607904*
X1456400Y1612946D02*
X1457454Y1614000D01*
X1462800*
X1464280Y1612520*
X1470500*
X1480800Y1607300D02*
X1482750Y1604450D01*
Y1603500*
X1474200Y1620900D02*
X1474267Y1620833D01*
X1466700Y1607500D02*
X1468805Y1609605D01*
X1469385*
X1470500Y1610720*
Y1612520*
X1474531Y1610500D02*
X1475211D01*
Y1611278*
X1476700Y1613720*
X1478469Y1610500D02*
X1479148D01*
Y1609722*
X1480800Y1607300*
X1461000Y1627350D02*
Y1621470D01*
X1469950Y1612520*
X1470500*
Y1617480D02*
X1470915D01*
X1474267Y1620833*
X1478850Y1603500D02*
Y1604450D01*
X1480800Y1607300*
X1463980Y1599500D02*
Y1598950D01*
X1465930Y1597000*
X1470800*
X1517392Y1617047D02*
Y1616088D01*
X1518490Y1614990*
X1517392Y1617047D02*
X1519370D01*
X1520093Y1625093D02*
X1515876Y1629309D01*
Y1629500*
X1515969*
X1504200Y1607200D02*
X1506150Y1604500D01*
Y1603500*
X1518200Y1614700D02*
X1518490Y1614990D01*
X1516200Y1614700D02*
Y1614150D01*
X1517200Y1613150*
Y1612645*
X1517392Y1612453*
X1519370*
X1520000Y1625000D02*
X1520093Y1625093D01*
X1491500Y1617969D02*
X1495500D01*
X1495765*
X1497600Y1620400*
X1519370Y1622953D02*
X1520000D01*
Y1625000*
X1502250Y1603500D02*
Y1604500D01*
X1504200Y1607200*
X1502250Y1603500D02*
Y1595950D01*
X1502300Y1595900*
Y1590100*
X1526912Y1602291D02*
Y1602182D01*
X1528881*
Y1602291*
X1539794Y1617014D02*
X1539775D01*
X1539800Y1616989*
Y1612800*
X1528500Y1604500D02*
X1528800D01*
Y1602291*
X1528881*
X1535500Y1633000D02*
X1537222Y1633852D01*
X1538000*
Y1634531*
X1530630Y1622953D02*
X1531319D01*
X1532600Y1624234*
Y1624446*
X1533754Y1625600*
X1535420*
X1536800Y1625000*
X1530630Y1612453D02*
X1531358D01*
X1531408Y1612542*
X1532400Y1613534*
Y1614300*
X1539794Y1617014D02*
X1540061D01*
Y1618983*
X1539794*
X1540061*
Y1620951*
X1539794*
X1540061*
Y1622920*
X1539794D02*
X1540061D01*
X1530849Y1602291D02*
Y1602182D01*
X1532818*
Y1602291*
X1528881D02*
Y1602182D01*
X1530849*
Y1602291*
X1484000Y1670200D02*
X1486222Y1670352D01*
X1487000*
Y1671031*
X1474000Y1647300D02*
X1474292Y1644469D01*
X1475000*
X1468100Y1669200D02*
X1470900D01*
X1471700Y1670000*
X1475031*
X1454000Y1664500D02*
Y1667031D01*
X1464700Y1652400D02*
X1466700Y1650400D01*
X1454500Y1634500D02*
Y1636531D01*
X1461969Y1652500D02*
Y1652400D01*
X1464700*
X1461969Y1652500D02*
Y1655299D01*
X1462000Y1655331*
Y1658031*
Y1670969D02*
Y1670500D01*
X1465000*
X1451000Y1636531D02*
Y1637211D01*
X1454500*
Y1636531*
X1475031Y1670000D02*
Y1665000D01*
X1476350*
X1486000Y1658969D02*
Y1659648D01*
X1486778*
X1489300Y1659900*
X1486000Y1655031D02*
Y1655000D01*
X1489300*
X1461500Y1644469D02*
X1464214D01*
X1466700Y1646954*
Y1650400*
X1461969Y1648500D02*
Y1647729D01*
X1464900Y1647700*
X1454000Y1661969D02*
Y1664500D01*
X1482500Y1658969D02*
Y1658289D01*
X1486000*
Y1658969*
X1482500Y1655031D02*
Y1654352D01*
X1486000*
Y1655031*
X1479000Y1644969D02*
Y1647638D01*
X1482866Y1651504*
X1483000*
Y1651469*
X1479000Y1641031D02*
X1479200D01*
Y1637900*
X1475000Y1644469D02*
Y1644969D01*
X1479000*
X1475000Y1640531D02*
Y1641031D01*
X1479000*
X1486000Y1651469D02*
Y1650789D01*
X1489000*
Y1651469*
X1486000Y1647531D02*
Y1646852D01*
X1489000*
Y1647531*
X1486000D02*
X1486480D01*
Y1645020*
X1483000Y1651469D02*
Y1650789D01*
X1486000*
Y1651469*
X1483000Y1647531D02*
Y1645652D01*
X1484016Y1644636*
X1484350Y1644970*
X1483000Y1647531D02*
Y1646852D01*
X1486000*
Y1647531*
X1485500Y1636531D02*
Y1633200D01*
X1486700Y1632000*
X1485500Y1636531D02*
Y1637211D01*
X1488500*
Y1636531*
X1485500Y1640469D02*
X1486048D01*
Y1642640*
X1486470*
X1485500Y1640469D02*
Y1641148D01*
X1488500*
Y1640469*
X1482500Y1636531D02*
Y1637211D01*
X1485500*
Y1636531*
X1482500Y1640469D02*
Y1642348D01*
X1482722Y1642570*
X1484410*
X1482500Y1640469D02*
Y1641148D01*
X1485500*
Y1640469*
X1518000Y1656969D02*
X1518031Y1657000D01*
X1494759Y1667892D02*
X1498190Y1664460D01*
Y1663700*
X1494759Y1667892D02*
Y1668200D01*
X1494969*
X1515600Y1670500D02*
X1516402Y1673531D01*
X1517000*
X1520500Y1654500D02*
X1521289Y1656222D01*
Y1657000*
X1521969*
X1494270Y1644910D02*
Y1647531D01*
X1495000*
X1497900Y1671100D02*
X1500400D01*
X1501500Y1670000*
X1505031*
X1494150Y1642470D02*
Y1640469D01*
X1494500*
X1518500Y1666500D02*
X1529254D01*
X1532723Y1669969*
X1538000*
X1513000Y1670531D02*
Y1670500D01*
X1515600*
X1524969Y1670000D02*
X1525000D01*
Y1673531*
X1494969Y1668200D02*
X1495000D01*
Y1671231*
X1521969Y1661000D02*
Y1661771D01*
X1524800Y1661800*
X1495000Y1671231D02*
Y1671100D01*
X1497900*
X1492000Y1651469D02*
Y1650789D01*
X1495000*
Y1651469*
X1492000Y1647531D02*
X1492030D01*
Y1644970*
X1492000Y1647531D02*
Y1646852D01*
X1495000*
Y1647531*
X1489000Y1651469D02*
Y1650789D01*
X1492000*
Y1651469*
X1489000Y1647531D02*
Y1646852D01*
X1492000*
Y1647531*
X1494500Y1636531D02*
Y1637100D01*
X1497200*
X1491500Y1636531D02*
Y1637211D01*
X1494500*
Y1636531*
X1491500D02*
Y1634206D01*
X1491820Y1633886*
Y1632040*
X1491500Y1640469D02*
X1492130D01*
Y1642510*
X1491500Y1640469D02*
X1494500D01*
X1488500Y1636531D02*
Y1637211D01*
X1491500*
Y1636531*
X1488500D02*
X1488963D01*
Y1632060*
X1489320*
X1488500Y1640469D02*
X1489128D01*
X1489580Y1642520*
X1488500Y1640469D02*
X1491500D01*
X1497980Y1663700D02*
X1498190D01*
X1511000Y1661480D02*
X1511080Y1661400D01*
X1537996Y1670071D02*
X1538000D01*
Y1669969*
X1537996Y1670071D02*
X1541925Y1674000D01*
X1546300*
X1547800Y1672500*
X1549500*
X1534598Y1660298D02*
X1537883Y1657013D01*
X1538000*
Y1657031*
X1534598Y1660298D02*
X1534900Y1660600D01*
X1544700Y1641000D02*
X1545414Y1638469D01*
X1546000*
X1544700Y1641000D02*
X1545414Y1643531D01*
X1546000*
X1535000Y1649000D02*
X1537222Y1648148D01*
X1538000*
Y1647469*
X1545300Y1672200D02*
Y1669969D01*
X1546000*
X1538000Y1647469D02*
Y1650169D01*
X1538031Y1650201*
Y1653000*
X1542000Y1669969D02*
X1546000D01*
X1483000Y1673531D02*
X1483565D01*
Y1670200*
X1484000*
X1475000Y1673531D02*
X1475031D01*
Y1670000*
X1505000Y1673531D02*
X1505031D01*
Y1670000*
X1525000Y1673531D02*
Y1672852D01*
X1525778*
X1527400Y1672400*
X1448100Y1747646D02*
Y1744800D01*
X1449400Y1743500*
Y1740700*
X1448100Y1747646D02*
X1451254Y1750800D01*
X1452162*
X1454366Y1753004*
X1454500*
Y1752969*
X1446000Y1727469D02*
Y1728148D01*
X1449500*
Y1727469*
X1455598Y1726000D02*
Y1727828D01*
X1457302Y1729531*
X1457400*
X1455598Y1726000D02*
X1456000D01*
X1479996Y1744866D02*
Y1745000D01*
X1480031*
X1479996Y1744866D02*
X1482500Y1742362D01*
Y1742317*
X1482917Y1741900*
X1484700*
X1469996Y1745134D02*
Y1745000D01*
X1470031*
X1469996Y1745134D02*
X1472000Y1747138D01*
Y1749031*
X1480300Y1722100D02*
X1483000D01*
Y1722031*
X1449400Y1740700D02*
Y1738469D01*
X1450000*
X1456000Y1726000D02*
X1457400D01*
X1459328Y1724072*
Y1723802*
X1461031Y1722098*
Y1722000*
X1464300Y1745300D02*
X1464302D01*
Y1747328*
X1470000Y1742500D02*
Y1745000D01*
X1470031*
X1484700Y1741900D02*
X1487161Y1740055D01*
Y1739024*
X1469661D02*
X1469849D01*
Y1740195*
X1470000Y1742500*
X1477339Y1721976D02*
Y1722100D01*
X1480300*
X1462500Y1749031D02*
X1462598D01*
X1464302Y1747328*
X1462500Y1742469D02*
X1462955D01*
X1464300Y1745300*
X1449500Y1727469D02*
Y1729900D01*
X1468500Y1749031D02*
Y1749711D01*
X1472000*
Y1749031*
X1483000Y1722031D02*
Y1721976D01*
X1487161*
X1453500Y1726469D02*
Y1726000D01*
X1455598*
X1450000Y1738469D02*
Y1738531D01*
X1454500*
X1480000Y1749031D02*
Y1749711D01*
X1483500*
Y1749031*
X1480000D02*
X1480031D01*
Y1745000*
X1465500Y1728031D02*
X1466000D01*
Y1725000*
X1465500Y1731969D02*
Y1733878D01*
X1469661Y1738039*
Y1739024*
X1461500Y1732480D02*
Y1731969D01*
X1465500*
X1461500Y1727520D02*
Y1728031D01*
X1465500*
X1464969Y1722000D02*
X1467549D01*
X1467573Y1721976*
X1469661*
X1464969Y1722000D02*
X1465648D01*
Y1722778*
X1466000Y1725000*
X1516000Y1745000D02*
X1516100D01*
Y1742700*
X1516000Y1745000D02*
Y1749031D01*
X1515200Y1722000D02*
X1518000D01*
Y1721531*
X1497800D02*
X1500500D01*
X1522161Y1742200D02*
X1523352Y1743722D01*
Y1744500*
X1524031*
X1494839Y1721976D02*
Y1721531D01*
X1497800*
X1512339Y1721976D02*
Y1722000D01*
X1515200*
X1522161Y1739024D02*
Y1742200D01*
X1515469Y1745000D02*
X1516000D01*
X1512500Y1749031D02*
Y1749711D01*
X1516000*
Y1749031*
X1524000D02*
X1524031D01*
Y1744500*
X1524000Y1749031D02*
Y1749711D01*
X1527500*
Y1749031*
X1500500Y1721531D02*
Y1721976D01*
X1504661*
X1518000Y1721531D02*
Y1721976D01*
X1522161*
X1543300Y1733901D02*
Y1736746D01*
X1547254Y1740700*
X1548383*
X1549800Y1742117*
Y1742162*
X1551504Y1743866*
Y1744000*
X1543300Y1733400D02*
X1545600D01*
X1546669Y1734469*
X1549500*
X1543300Y1733400D02*
Y1733901D01*
X1534100Y1720600D02*
X1535100Y1719600D01*
X1539283*
X1539800Y1720117*
Y1720162*
X1541504Y1721866*
Y1722000*
X1545531D02*
X1541469D01*
X1541504*
X1535500Y1751969D02*
Y1751289D01*
X1539000*
Y1751969*
X1543000D02*
Y1752000D01*
X1547531*
X1551469Y1744000D02*
X1551504D01*
X1540500Y1734469D02*
Y1733901D01*
X1543300*
X1541500Y1754500D02*
X1542487Y1751969D01*
X1543000*
X1534800Y1754300D02*
Y1751969D01*
X1535500*
G54D68*
X1478000Y1507500D03*
Y1505500D03*
X1468000Y1489000D03*
X1466000D03*
X1468000Y1491000D03*
X1466000D03*
X1501500Y1494300D03*
X1499500D03*
X1527500Y1488000D03*
Y1486000D03*
X1525500D03*
Y1488000D03*
X1497000Y1505500D03*
X1506000Y1494200D03*
X1504000D03*
X1478000Y1522500D03*
Y1520500D03*
X1505500Y1517000D03*
X1502500D03*
X1499500D03*
X1505500Y1520000D03*
X1502500D03*
X1499500D03*
X1505500Y1523000D03*
X1502500D03*
X1499500D03*
X1505500Y1514000D03*
X1502500D03*
X1499500D03*
X1496500D03*
Y1517000D03*
Y1520000D03*
Y1523000D03*
G54D71*
X1445543Y1541476D03*
Y1543051D03*
Y1544626D03*
Y1546201D03*
Y1547776D03*
Y1549350D03*
Y1550925D03*
Y1552500D03*
Y1554075D03*
Y1555650D03*
Y1557224D03*
Y1558799D03*
Y1560374D03*
Y1561949D03*
Y1563524D03*
X1458457D03*
Y1561949D03*
Y1560374D03*
Y1558799D03*
Y1557224D03*
Y1555650D03*
Y1554075D03*
Y1552500D03*
Y1550925D03*
Y1549350D03*
Y1547776D03*
Y1546201D03*
Y1544626D03*
Y1543051D03*
Y1541476D03*
G54D72*
X1458496Y1537520D03*
X1445504Y1537539D03*
X1458496Y1567461D03*
X1445504D03*
G54D73*
X1480843Y1468500D03*
X1475921D03*
X1471000D03*
X1466079D03*
X1461157D03*
X1538843D03*
X1533921D03*
X1529000D03*
X1524079D03*
X1519157D03*
G54D74*
X1490882Y1457083D03*
X1451118D03*
X1548882D03*
X1509118D03*
G54D75*
X1482650Y1665000D03*
X1476350D03*
X1534650Y1552000D03*
X1528350D03*
G54D76*
X1523776Y1477500D03*
X1533224D03*
G54D77*
X1529839Y1721976D03*
X1527280D03*
X1524720D03*
X1522161D03*
Y1739024D03*
X1524720D03*
X1527280D03*
X1529839D03*
X1512339Y1721976D03*
X1509780D03*
X1507220D03*
X1504661D03*
Y1739024D03*
X1507220D03*
X1509780D03*
X1512339D03*
X1494839Y1721976D03*
X1492280D03*
X1489720D03*
X1487161D03*
Y1739024D03*
X1489720D03*
X1492280D03*
X1494839D03*
X1477339Y1721976D03*
X1474780D03*
X1472220D03*
X1469661D03*
Y1739024D03*
X1472220D03*
X1474780D03*
X1477339D03*
G54D79*
X1459925Y1591000D03*
X1463075D03*
G54D81*
X1471050Y1603500D03*
X1474950D03*
X1478850D03*
X1482750D03*
X1486650D03*
X1490550D03*
X1494450D03*
X1498350D03*
X1502250D03*
X1506150D03*
X1510050D03*
X1513950D03*
Y1546500D03*
X1510000D03*
X1506150D03*
X1502250D03*
X1498350D03*
X1494450D03*
X1490550D03*
X1486650D03*
X1482750D03*
X1478850D03*
X1474950D03*
X1471050D03*
G54D135*
X1526912Y1602370D03*
X1528881D03*
X1530849D03*
X1532818D03*
Y1598826D03*
X1530849D03*
X1528881D03*
X1526912D03*
G54D136*
X1539873Y1622920D03*
Y1620951D03*
Y1618983D03*
Y1617014D03*
X1536330D03*
Y1618983D03*
Y1620951D03*
Y1622920D03*
G54D141*
X1467500Y1686098D03*
Y1710902D03*
X1489500Y1686098D03*
Y1710902D03*
X1532500Y1686098D03*
Y1710902D03*
X1510500Y1686098D03*
Y1710902D03*
G74*
X0Y0D02*
M02*
