*
*
G04 PADS Layout (Build Number 2008.43.1) generated Gerber (RS-274-X) file*
G04 PC Version=2.1*
*
%IN "P2007_0000_RBCS_RC_MAIS"*%
*
%MOIN*%
*
%FSLAX35Y35*%
*
*
*
*
G04 PC Standard Apertures*
*
*
G04 Thermal Relief Aperture macro.*
%AMTER*
1,1,$1,0,0*
1,0,$1-$2,0,0*
21,0,$3,$4,0,0,45*
21,0,$3,$4,0,0,135*
%
*
*
G04 Annular Aperture macro.*
%AMANN*
1,1,$1,0,0*
1,0,$2,0,0*
%
*
*
G04 Odd Aperture macro.*
%AMODD*
1,1,$1,0,0*
1,0,$1-0.005,0,0*
%
*
*
G04 PC Custom Aperture Macros*
*
*
*
*
*
*
G04 PC Aperture Table*
*
%ADD010C,0.01*%
%ADD031C,0.008*%
%ADD040C,0.001*%
%ADD083C,0.00787*%
%ADD091C,0.01181*%
%ADD149R,0.01181X0.01181*%
%ADD156C,0.00614*%
%ADD160C,0.02795*%
*
*
*
*
G04 PC Circuitry*
G04 Layer Name P2007_0000_RBCS_RC_MAIS - circuitry*
%LPD*%
*
*
G04 PC Custom Flashes*
G04 Layer Name P2007_0000_RBCS_RC_MAIS - flashes*
%LPD*%
*
*
G04 PC Circuitry*
G04 Layer Name P2007_0000_RBCS_RC_MAIS - circuitry*
%LPD*%
*
G54D10*
G01X511417Y440421D02*
Y433858D01*
X514145*
X519372Y439483D02*
X518917Y440108D01*
X518236Y440421*
X517326*
X516645Y440108*
X516190Y439483*
Y438858*
X516417Y438233*
X516645Y437921*
X517099Y437608*
X518463Y436983*
X518917Y436671*
X519145Y436358*
X519372Y435733*
Y434796*
X518917Y434171*
X518236Y433858*
X517326*
X516645Y434171*
X516190Y434796*
X526645Y436671D02*
X530736D01*
X538008Y440421D02*
Y433858D01*
X540736*
X545508Y438233D02*
Y433858D01*
Y437296D02*
X545054Y437921D01*
X544599Y438233*
X543917*
X543463Y437921*
X543008Y437296*
X542781Y436358*
Y435733*
X543008Y434796*
X543463Y434171*
X543917Y433858*
X544599*
X545054Y434171*
X545508Y434796*
X548236Y440421D02*
Y435108D01*
X548463Y434171*
X548917Y433858*
X549372*
X547554Y438233D02*
X549145D01*
X552554D02*
X552099Y437921D01*
X551645Y437296*
X551417Y436358*
Y435733*
X551645Y434796*
X552099Y434171*
X552554Y433858*
X553236*
X553690Y434171*
X554145Y434796*
X554372Y435733*
Y436358*
X554145Y437296*
X553690Y437921*
X553236Y438233*
X552554*
X564145Y437296D02*
X563917Y437921D01*
X563236Y438233*
X562554*
X561872Y437921*
X561645Y437296*
X561872Y436671*
X562326Y436358*
X563463Y436046*
X563917Y435733*
X564145Y435108*
Y434796*
X563917Y434171*
X563236Y433858*
X562554*
X561872Y434171*
X561645Y434796*
X568917Y438233D02*
Y433858D01*
Y437296D02*
X568463Y437921D01*
X568008Y438233*
X567326*
X566872Y437921*
X566417Y437296*
X566190Y436358*
Y435733*
X566417Y434796*
X566872Y434171*
X567326Y433858*
X568008*
X568463Y434171*
X568917Y434796*
X570963Y440421D02*
Y433858D01*
X575736Y440421D02*
Y433858D01*
Y437296D02*
X575281Y437921D01*
X574826Y438233*
X574145*
X573690Y437921*
X573236Y437296*
X573008Y436358*
Y435733*
X573236Y434796*
X573690Y434171*
X574145Y433858*
X574826*
X575281Y434171*
X575736Y434796*
X580508Y438233D02*
Y433858D01*
Y437296D02*
X580054Y437921D01*
X579599Y438233*
X578917*
X578463Y437921*
X578008Y437296*
X577781Y436358*
Y435733*
X578008Y434796*
X578463Y434171*
X578917Y433858*
X579599*
X580054Y434171*
X580508Y434796*
X583236Y440421D02*
Y435108D01*
X583463Y434171*
X583917Y433858*
X584372*
X582554Y438233D02*
X584145D01*
X586417D02*
Y435108D01*
X586645Y434171*
X587099Y433858*
X587781*
X588236Y434171*
X588917Y435108*
Y438233D02*
Y433858D01*
X590963Y438233D02*
Y433858D01*
Y436358D02*
X591190Y437296D01*
X591645Y437921*
X592099Y438233*
X592781*
X594826Y436358D02*
X597554D01*
Y436983*
X597326Y437608*
X597099Y437921*
X596645Y438233*
X595963*
X595508Y437921*
X595054Y437296*
X594826Y436358*
Y435733*
X595054Y434796*
X595508Y434171*
X595963Y433858*
X596645*
X597099Y434171*
X597554Y434796*
X409843Y415354D02*
Y423228D01*
X422835Y436220*
X402559Y424213D02*
X407283D01*
X408268Y425197*
Y428346*
X429528Y425197D02*
Y439370D01*
X427559Y441339*
X400394Y431102D02*
Y438386D01*
X401575Y439567*
Y446850*
X404331Y440945D02*
X409055D01*
X410630Y442520*
X415354*
X401575Y446850D02*
X413386D01*
X413780Y447244*
X425591*
X423228Y441339D02*
X427559D01*
G54D31*
X431883Y410994D02*
Y424367D01*
X431197Y423339D02*
G75*
G03X431883Y424367I-1669J1858D01*
G01X430723Y422408D02*
G03X431197Y423339I-1195J1195D01*
G01X430723Y422408D02*
X429364Y421049D01*
X428169Y420554D02*
G03X429364Y421049I-0J1690D01*
G01X428169Y420554D02*
X427478D01*
Y419685*
X427405Y419291D02*
G03X427478Y419685I-1027J394D01*
G01Y418898D02*
G03X427405Y419291I-1100J-0D01*
G01X427478Y418898D02*
Y417717D01*
X427405Y417323D02*
G03X427478Y417717I-1027J394D01*
G01Y416929D02*
G03X427405Y417323I-1100J0D01*
G01X427478Y416929D02*
Y415748D01*
X427405Y415354D02*
G03X427478Y415748I-1027J394D01*
G01Y414961D02*
G03X427405Y415354I-1100J-0D01*
G01X427478Y414961D02*
Y413780D01*
X427405Y413386D02*
G03X427478Y413780I-1027J394D01*
G01Y412992D02*
G03X427405Y413386I-1100J0D01*
G01X427478Y412992D02*
Y411811D01*
X427405Y411417D02*
G03X427478Y411811I-1027J394D01*
G01Y411024D02*
G03X427405Y411417I-1100J-0D01*
G01X427478Y411024D02*
Y409967D01*
X431883Y410994D02*
G03X427478Y409967I-1962J-1545D01*
G01X431883Y426026D02*
Y451568D01*
X394888*
Y411066*
X395554Y412075D02*
G03X394888Y411066I1690J-1839D01*
G01X395554Y412075D02*
Y420885D01*
X396049Y422080D02*
G03X395554Y420885I1195J-1195D01*
G01X396049Y422080D02*
X397408Y423440D01*
X398603Y423935D02*
G03X397408Y423440I0J-1691D01*
G01X398603Y423935D02*
X399294D01*
Y424803*
X399367Y425197D02*
G03X399294Y424803I1027J-394D01*
G01Y425591D02*
G03X399367Y425197I1100J-0D01*
G01X399294Y425591D02*
Y426772D01*
X400394Y427872D02*
G03X399294Y426772I-0J-1100D01*
G01X400394Y427872D02*
X404724D01*
X405824Y426772D02*
G03X404724Y427872I-1100J-0D01*
G01X405824Y426772D02*
Y425813D01*
X406621*
X406668Y425860*
Y426429*
X409868D02*
G03X406668I-1600J1917D01*
G01X409868D02*
Y425516D01*
X420347Y435996*
X422610Y433733D02*
G03X420347Y435996I225J2487D01*
G01X422610Y433733D02*
X411443Y422566D01*
Y417272*
X410640Y412987D02*
G03X411443Y417272I-797J2367D01*
G01X405820Y411709D02*
G03X410640Y412987I2448J496D01*
G01X405752Y411417D02*
G03X405820Y411709I-1028J394D01*
G01X405824Y411024D02*
G03X405752Y411417I-1100J-0D01*
G01X405824Y411024D02*
Y409843D01*
X405805Y409639D02*
G03X405824Y409843I-1081J204D01*
G01X405805Y409639D02*
X408723Y408532D01*
X407524Y405371D02*
G03X408723Y408532I2319J928D01*
G01X407524Y405371D02*
X403824Y406774D01*
X402559*
X400394*
X399294Y407874D02*
G03X400394Y406774I1100J0D01*
G01X399294Y407874D02*
Y408809D01*
X394888Y409407D02*
G03X399294Y408809I2356J829D01*
G01X394888Y409407D02*
Y394888D01*
X431883*
Y407903*
X431394Y407431D02*
G03X431883Y407903I-1473J2018D01*
G01X430315Y406971D02*
G03X431394Y407431I-0J1494D01*
G01X430315Y406971D02*
X430234D01*
X429608D02*
G03X430234I313J2478D01*
G01X429608D02*
X427006D01*
X426378Y406774D02*
G03X427006Y406971I-0J1100D01*
G01X426378Y406774D02*
X422047D01*
X420947Y407874D02*
G03X422047Y406774I1100J0D01*
G01X420947Y407874D02*
Y409055D01*
X421020Y409449D02*
G03X420947Y409055I1027J-394D01*
G01Y409843D02*
G03X421020Y409449I1100J-0D01*
G01X420947Y409843D02*
Y411024D01*
X421020Y411417D02*
G03X420947Y411024I1027J-393D01*
G01Y411811D02*
G03X421020Y411417I1100J0D01*
G01X420947Y411811D02*
Y412992D01*
X421020Y413386D02*
G03X420947Y412992I1027J-394D01*
G01Y413780D02*
G03X421020Y413386I1100J-0D01*
G01X420947Y413780D02*
Y414961D01*
X421020Y415354D02*
G03X420947Y414961I1027J-393D01*
G01Y415748D02*
G03X421020Y415354I1100J0D01*
G01X420947Y415748D02*
Y416929D01*
X421020Y417323D02*
G03X420947Y416929I1027J-394D01*
G01Y417717D02*
G03X421020Y417323I1100J-0D01*
G01X420947Y417717D02*
Y418898D01*
X421020Y419291D02*
G03X420947Y418898I1027J-393D01*
G01Y419685D02*
G03X421020Y419291I1100J0D01*
G01X420947Y419685D02*
Y420866D01*
X421020Y421260D02*
G03X420947Y420866I1027J-394D01*
G01Y421654D02*
G03X421020Y421260I1100J-0D01*
G01X420947Y421654D02*
Y422512D01*
X419407Y420972*
Y419949*
X416026D02*
G03X419407I1691J-1839D01*
G01X416026D02*
Y421672D01*
X416521Y422868D02*
G03X416026Y421672I1196J-1196D01*
G01X416521Y422868D02*
X419061Y425408D01*
X420257Y425903D02*
G03X419061Y425408I-0J-1690D01*
G01X420257Y425903D02*
X420947D01*
Y426772*
X422047Y427872D02*
G03X420947Y426772I0J-1100D01*
G01X422047Y427872D02*
X426378D01*
X427478Y426772D02*
G03X426378Y427872I-1100J-0D01*
G01X427478Y426772D02*
Y426624D01*
X427928Y427115D02*
G03X427478Y426624I1600J-1918D01*
G01X427928Y427115D02*
Y438707D01*
X426896Y439739*
X425146*
Y442939D02*
G03Y439739I-1918J-1600D01*
G01Y442939D02*
X427559D01*
X428690Y442470D02*
G03X427559Y442939I-1131J-1131D01*
G01X428690Y442470D02*
X430659Y440501D01*
X431128Y439370D02*
G03X430659Y440501I-1600J0D01*
G01X431128Y439370D02*
Y427115D01*
X431883Y426026D02*
G03X431128Y427115I-2355J-829D01*
G01X399367Y419291D02*
G03X399294Y418898I1027J-393D01*
G01Y419685D02*
G03X399367Y419291I1100J0D01*
G01X399294Y419685D02*
Y420544D01*
X398935Y420185*
Y412075*
X399306Y411645D02*
G03X398935Y412075I-2062J-1409D01*
G01X399294Y411811D02*
G03X399306Y411645I1100J0D01*
G01X399294Y411811D02*
Y412992D01*
X399367Y413386D02*
G03X399294Y412992I1027J-394D01*
G01Y413780D02*
G03X399367Y413386I1100J-0D01*
G01X399294Y413780D02*
Y414961D01*
X399367Y415354D02*
G03X399294Y414961I1027J-393D01*
G01Y415748D02*
G03X399367Y415354I1100J0D01*
G01X399294Y415748D02*
Y416929D01*
X399367Y417323D02*
G03X399294Y416929I1027J-394D01*
G01Y417717D02*
G03X399367Y417323I1100J-0D01*
G01X399294Y417717D02*
Y418898D01*
X408242Y420774D02*
Y422932D01*
X407283Y422613D02*
G03X408242Y422932I0J1600D01*
G01X407283Y422613D02*
X405824D01*
Y421966*
X406515*
X407710Y421471D02*
G03X406515Y421966I-1195J-1195D01*
G01X407710Y421471D02*
X407888Y421293D01*
X408242Y420774D02*
G03X407888Y421293I-1549J-676D01*
G01X423673Y445644D02*
G03Y448844I1918J1600D01*
G01Y445644D02*
X414437D01*
X413386Y445250D02*
G03X414437Y445644I-0J1600D01*
G01X413386Y445250D02*
X403493D01*
X403175Y444933D02*
G03X403493Y445250I-1600J1917D01*
G01X403175Y444933D02*
Y443159D01*
X406249Y442545D02*
G03X403175Y443159I-1918J-1600D01*
G01X406249Y442545D02*
X408392D01*
X409499Y443651*
X410630Y444120D02*
G03X409499Y443651I-0J-1600D01*
G01X410630Y444120D02*
X413436D01*
Y440920D02*
G03Y444120I1918J1600D01*
G01Y440920D02*
X411293D01*
X410187Y439813*
X409055Y439345D02*
G03X410187Y439813I0J1600D01*
G01X409055Y439345D02*
X406249D01*
X402997Y438833D02*
G03X406249Y439345I1334J2112D01*
G01X402706Y438436D02*
G03X402997Y438833I-1131J1131D01*
G01X402706Y438436D02*
X401994Y437723D01*
Y433020*
X398794D02*
G03X401994I1600J-1918D01*
G01X398794D02*
Y438386D01*
X399262Y439517D02*
G03X398794Y438386I1132J-1131D01*
G01X399262Y439517D02*
X399975Y440230D01*
Y444933*
X403493Y448450D02*
G03X399975Y444933I-1918J-1600D01*
G01X403493Y448450D02*
X412728D01*
X413780Y448844D02*
G03X412728Y448450I-0J-1600D01*
G01X413780Y448844D02*
X423673D01*
X405824Y422525D02*
X408242D01*
X407654Y421525D02*
X408242D01*
X398935Y413525D02*
X399324D01*
X398935Y415525D02*
X399317D01*
X398935Y417525D02*
X399311D01*
X398935Y419525D02*
X399305D01*
X399275Y420525D02*
X399294D01*
X398935Y418525D02*
X399294D01*
X398935Y416525D02*
X399294D01*
X398935Y414525D02*
X399294D01*
X398935Y412525D02*
X399294D01*
X394888Y451525D02*
X431883D01*
X394888Y450525D02*
X431883D01*
X426609Y449525D02*
X431883D01*
X427735Y448525D02*
X431883D01*
X428072Y447525D02*
X431883D01*
X427982Y446525D02*
X431883D01*
X427402Y445525D02*
X431883D01*
X416844Y444525D02*
X431883D01*
X424436Y443525D02*
X431883D01*
X428633Y442525D02*
X431883D01*
X429636Y441525D02*
X431883D01*
X430636Y440525D02*
X431883D01*
X431120Y439525D02*
X431883D01*
X431128Y438525D02*
X431883D01*
X431128Y437525D02*
X431883D01*
X431128Y436525D02*
X431883D01*
X431128Y435525D02*
X431883D01*
X431128Y434525D02*
X431883D01*
X431128Y433525D02*
X431883D01*
X431128Y432525D02*
X431883D01*
X431128Y431525D02*
X431883D01*
X431128Y430525D02*
X431883D01*
X431128Y429525D02*
X431883D01*
X431128Y428525D02*
X431883D01*
X431128Y427525D02*
X431883D01*
X431643Y426525D02*
X431883D01*
X431514Y407525D02*
X431883D01*
X412330Y406525D02*
X431883D01*
X412217Y405525D02*
X431883D01*
X411600Y404525D02*
X431883D01*
X394888Y403525D02*
X431883D01*
X394888Y402525D02*
X431883D01*
X394888Y401525D02*
X431883D01*
X394888Y400525D02*
X431883D01*
X394888Y399525D02*
X431883D01*
X394888Y398525D02*
X431883D01*
X394888Y397525D02*
X431883D01*
X394888Y396525D02*
X431883D01*
X394888Y395525D02*
X431883D01*
X423798Y438525D02*
X427928D01*
X424965Y437525D02*
X427928D01*
X425314Y436525D02*
X427928D01*
X425233Y435525D02*
X427928D01*
X424668Y434525D02*
X427928D01*
X422402Y433525D02*
X427928D01*
X421402Y432525D02*
X427928D01*
X420402Y431525D02*
X427928D01*
X419402Y430525D02*
X427928D01*
X418402Y429525D02*
X427928D01*
X417402Y428525D02*
X427928D01*
X427180Y427525D02*
X427928D01*
X424945Y439525D02*
X427110D01*
X394888Y449525D02*
X424572D01*
X414282Y445525D02*
X423779D01*
X417641Y443525D02*
X422020D01*
X404948Y438525D02*
X421871D01*
X409792Y439525D02*
X421511D01*
X416402Y427525D02*
X421245D01*
X417852Y442525D02*
X421030D01*
X412019Y407525D02*
X421004D01*
X406106Y409525D02*
X420994D01*
X410671Y411525D02*
X420985D01*
X411543Y413525D02*
X420977D01*
X412334Y415525D02*
X420970D01*
X420145Y417525D02*
X420964D01*
X419775Y419525D02*
X420959D01*
X419960Y421525D02*
X420955D01*
X415402Y426525D02*
X420947D01*
X419407Y420525D02*
X420947D01*
X420180Y418525D02*
X420947D01*
X419646Y416525D02*
X420947D01*
X412198Y414525D02*
X420947D01*
X410745Y412525D02*
X420947D01*
X410116Y410525D02*
X420947D01*
X410976Y408525D02*
X420947D01*
X416857Y440525D02*
X420867D01*
X417645Y441525D02*
X420738D01*
X401994Y437525D02*
X420705D01*
X401994Y436525D02*
X420356D01*
X401994Y435525D02*
X419876D01*
X414402Y425525D02*
X419191D01*
X401994Y434525D02*
X418876D01*
X413402Y424525D02*
X418178D01*
X401994Y433525D02*
X417876D01*
X412402Y423525D02*
X417178D01*
X402447Y432525D02*
X416876D01*
X411443Y422525D02*
X416256D01*
X411443Y421525D02*
X416026D01*
X411443Y420525D02*
X416026D01*
X402855Y431525D02*
X415876D01*
X412049Y416525D02*
X415787D01*
X411443Y419525D02*
X415658D01*
X411443Y417525D02*
X415288D01*
X411443Y418525D02*
X415254D01*
X409490Y430525D02*
X414876D01*
X410470Y429525D02*
X413876D01*
X403175Y444525D02*
X413865D01*
X410898Y440525D02*
X413852D01*
X410759Y428525D02*
X412876D01*
X403428Y448525D02*
X412820D01*
X410626Y427525D02*
X411876D01*
X409976Y426525D02*
X410876D01*
X409868Y425525D02*
X409876D01*
X403175Y443525D02*
X409372D01*
X394888Y404525D02*
X408085D01*
X394888Y405525D02*
X407118D01*
X402824Y430525D02*
X407046D01*
X405824Y426525D02*
X406559D01*
X405824Y410525D02*
X406420D01*
X402330Y429525D02*
X406065D01*
X405526Y427525D02*
X405909D01*
X405787Y411525D02*
X405864D01*
X394888Y428525D02*
X405776D01*
X394888Y406525D02*
X404481D01*
X402789Y438525D02*
X403714D01*
X394888Y444525D02*
X399975D01*
X394888Y443525D02*
X399975D01*
X394888Y442525D02*
X399975D01*
X394888Y441525D02*
X399975D01*
X394888Y440525D02*
X399975D01*
X394888Y448525D02*
X399721D01*
X394888Y427525D02*
X399592D01*
X394888Y445525D02*
X399458D01*
X394888Y407525D02*
X399351D01*
X394888Y425525D02*
X399296D01*
X394888Y426525D02*
X399294D01*
X394888Y424525D02*
X399294D01*
X399063Y408525D02*
X399294D01*
X394888Y439525D02*
X399270D01*
X394888Y447525D02*
X399170D01*
X394888Y446525D02*
X399098D01*
X394888Y438525D02*
X398800D01*
X394888Y437525D02*
X398794D01*
X394888Y436525D02*
X398794D01*
X394888Y435525D02*
X398794D01*
X394888Y434525D02*
X398794D01*
X394888Y433525D02*
X398794D01*
X394888Y429525D02*
X398457D01*
X394888Y432525D02*
X398341D01*
X394888Y430525D02*
X397964D01*
X394888Y431525D02*
X397932D01*
X394888Y423525D02*
X397499D01*
X394888Y422525D02*
X396493D01*
X394888Y421525D02*
X395679D01*
X394888Y420525D02*
X395554D01*
X394888Y419525D02*
X395554D01*
X394888Y418525D02*
X395554D01*
X394888Y417525D02*
X395554D01*
X394888Y416525D02*
X395554D01*
X394888Y415525D02*
X395554D01*
X394888Y414525D02*
X395554D01*
X394888Y413525D02*
X395554D01*
X394888Y412525D02*
X395554D01*
X394888Y408525D02*
X395425D01*
X394888Y411525D02*
X395104D01*
X431383Y423525D02*
X431883D01*
X430829Y422525D02*
X431883D01*
X429840Y421525D02*
X431883D01*
X427478Y420525D02*
X431883D01*
X427466Y419525D02*
X431883D01*
X427478Y418525D02*
X431883D01*
X427461Y417525D02*
X431883D01*
X427478Y416525D02*
X431883D01*
X427455Y415525D02*
X431883D01*
X427478Y414525D02*
X431883D01*
X427448Y413525D02*
X431883D01*
X427478Y412525D02*
X431883D01*
X431310Y411525D02*
X431883D01*
X427440D02*
X428532D01*
X427478Y410525D02*
X427667D01*
X407888Y421293D02*
Y422731D01*
X406888Y421924D02*
Y422613D01*
X405888Y421966D02*
Y422613D01*
X430888Y440212D02*
Y451568D01*
Y394888D02*
Y407085D01*
X429888Y441272D02*
Y451568D01*
Y394888D02*
Y406951D01*
X428888Y442272D02*
Y451568D01*
Y394888D02*
Y406971D01*
X427888Y448223D02*
Y451568D01*
Y442904D02*
Y446265D01*
Y427081D02*
Y438747D01*
Y394888D02*
Y406971D01*
X426888Y449378D02*
Y451568D01*
Y442939D02*
Y445110D01*
Y427746D02*
Y439739D01*
Y394888D02*
Y406899D01*
X425888Y449724D02*
Y451568D01*
Y442939D02*
Y444764D01*
Y427872D02*
Y439739D01*
Y394888D02*
Y406774D01*
X424888Y449641D02*
Y451568D01*
Y443205D02*
Y444847D01*
Y437642D02*
Y439472D01*
Y427872D02*
Y434799D01*
Y394888D02*
Y406774D01*
X423888Y449072D02*
Y451568D01*
Y443747D02*
Y445416D01*
Y438485D02*
Y438930D01*
Y427872D02*
Y433956D01*
Y394888D02*
Y406774D01*
X422888Y448844D02*
Y451568D01*
Y443813D02*
Y445644D01*
Y438718D02*
Y438864D01*
Y427872D02*
Y433723D01*
Y394888D02*
Y406774D01*
X421888Y448844D02*
Y451568D01*
Y443446D02*
Y445644D01*
Y438532D02*
Y439231D01*
Y427860D02*
Y433011D01*
Y394888D02*
Y406786D01*
X420888Y448844D02*
Y451568D01*
Y442212D02*
Y445644D01*
Y437786D02*
Y440466D01*
Y425903D02*
Y432011D01*
Y394888D02*
Y422453D01*
X419888Y448844D02*
Y451568D01*
Y435537D02*
Y445644D01*
Y425863D02*
Y431011D01*
Y419344D02*
Y421453D01*
Y394888D02*
Y416876D01*
X418888Y448844D02*
Y451568D01*
Y434537D02*
Y445644D01*
Y425235D02*
Y430011D01*
Y394888D02*
Y415904D01*
X417888Y448844D02*
Y451568D01*
Y433537D02*
Y445644D01*
Y424235D02*
Y429011D01*
Y394888D02*
Y415618D01*
X416888Y448844D02*
Y451568D01*
Y444491D02*
Y445644D01*
Y432537D02*
Y440549D01*
Y423235D02*
Y428011D01*
Y394888D02*
Y415754D01*
X415888Y448844D02*
Y451568D01*
Y444960D02*
Y445644D01*
Y431537D02*
Y440080D01*
Y419812D02*
Y427011D01*
Y394888D02*
Y416409D01*
X414888Y448844D02*
Y451568D01*
Y444973D02*
Y445644D01*
Y430537D02*
Y440066D01*
Y394888D02*
Y426011D01*
X413888Y448844D02*
Y451568D01*
Y444542D02*
Y445331D01*
Y429537D02*
Y440498D01*
Y394888D02*
Y425011D01*
X412888Y448573D02*
Y451568D01*
Y444120D02*
Y445250D01*
Y428537D02*
Y440920D01*
Y394888D02*
Y424011D01*
X411888Y448450D02*
Y451568D01*
Y444120D02*
Y445250D01*
Y427537D02*
Y440920D01*
Y416787D02*
Y423011D01*
Y407732D02*
Y413921D01*
Y394888D02*
Y404866D01*
X410888Y448450D02*
Y451568D01*
Y444120D02*
Y445250D01*
Y426537D02*
Y440515D01*
Y408567D02*
Y413086D01*
Y394888D02*
Y404031D01*
X409888Y448450D02*
Y451568D01*
Y443937D02*
Y445250D01*
Y430247D02*
Y439579D01*
Y425537D02*
Y426446D01*
Y408796D02*
Y410304D01*
Y394888D02*
Y403802D01*
X408888Y448450D02*
Y451568D01*
Y443041D02*
Y445250D01*
Y430766D02*
Y439345D01*
Y408607D02*
Y409785D01*
Y394888D02*
Y403991D01*
X407888Y448450D02*
Y451568D01*
Y442545D02*
Y445250D01*
Y430815D02*
Y439345D01*
Y408849D02*
Y409736D01*
Y394888D02*
Y404744D01*
X406888Y448450D02*
Y451568D01*
Y442545D02*
Y445250D01*
Y430429D02*
Y439345D01*
Y409228D02*
Y410123D01*
Y394888D02*
Y405612D01*
X405888Y448450D02*
Y451568D01*
Y442897D02*
Y445250D01*
Y429106D02*
Y438992D01*
Y425813D02*
Y427587D01*
Y409607D02*
Y411446D01*
Y394888D02*
Y405991D01*
X404888Y448450D02*
Y451568D01*
Y443380D02*
Y445250D01*
Y427859D02*
Y438510D01*
Y394888D02*
Y406370D01*
X403888Y448450D02*
Y451568D01*
Y443403D02*
Y445250D01*
Y427872D02*
Y438487D01*
Y394888D02*
Y406750D01*
X402888Y448975D02*
Y451568D01*
Y431228D02*
Y438653D01*
Y427872D02*
Y430977D01*
Y394888D02*
Y406774D01*
X401888Y449328D02*
Y451568D01*
Y427872D02*
Y429101D01*
Y394888D02*
Y406774D01*
X400888Y449252D02*
Y451568D01*
Y427872D02*
Y428654D01*
Y394888D02*
Y406774D01*
X399888Y448693D02*
Y451568D01*
Y440143D02*
Y445008D01*
Y427749D02*
Y428656D01*
Y394888D02*
Y406897D01*
X398888Y438928D02*
Y451568D01*
Y423935D02*
Y429109D01*
Y394888D02*
Y408356D01*
X397888Y423776D02*
Y451568D01*
Y394888D02*
Y407823D01*
X396888Y422920D02*
Y451568D01*
Y394888D02*
Y407764D01*
X395888Y421895D02*
Y451568D01*
Y394888D02*
Y408139D01*
X430888Y411752D02*
Y422600D01*
X429888Y411946D02*
Y421573D01*
X428888Y411723D02*
Y420714D01*
X427888Y410900D02*
Y420554D01*
G54D40*
X654331Y303150D02*
X694488D01*
Y340157*
X692126Y483858D02*
Y524016D01*
X655118*
X316142Y349606D02*
Y309449D01*
X353150*
X361811Y531496D02*
X321654D01*
Y494488*
G54D83*
X430315Y408661D02*
X429921Y409449D01*
X424213Y408465D02*
X430315D01*
Y408661*
G54D91*
X409843Y406299D02*
X404134Y408465D01*
X397244Y410236D02*
Y420885D01*
X398603Y422244*
X402559*
X408268Y412205D02*
X406693Y413780D01*
Y420098*
X406515Y420276*
X402559Y408465D02*
X404134D01*
X417717Y418110D02*
Y421672D01*
X420257Y424213*
X424213*
X402559Y420276D02*
X406515D01*
X424213Y422244D02*
X428169D01*
X429528Y423603*
Y425197*
G54D149*
X425787Y426181D02*
X422638D01*
X404134D02*
X400984D01*
X425787Y424213D02*
X422638D01*
X404134D02*
X400984D01*
X425787Y422244D02*
X422638D01*
X404134D02*
X400984D01*
X425787Y420276D02*
X422638D01*
X404134D02*
X400984D01*
X425787Y418307D02*
X422638D01*
X404134D02*
X400984D01*
X425787Y416339D02*
X422638D01*
X404134D02*
X400984D01*
X425787Y414370D02*
X422638D01*
X404134D02*
X400984D01*
X425787Y412402D02*
X422638D01*
X404134D02*
X400984D01*
X425787Y410433D02*
X422638D01*
X404134D02*
X400984D01*
X425787Y408465D02*
X422638D01*
X404134D02*
X400984D01*
G54D156*
X402559D02*
Y410433D01*
Y412402*
X424213Y408465D02*
Y410433D01*
Y412402*
G54D160*
X409843Y406299D03*
X397244Y410236D03*
X408268Y412205D03*
X409843Y415354D03*
X417717Y418110D03*
X429921Y409449D03*
X408268Y428346D03*
X429528Y425197D03*
X400394Y431102D03*
X422835Y436220D03*
X404331Y440945D03*
X401575Y446850D03*
X415354Y442520D03*
X425591Y447244D03*
X423228Y441339D03*
G74*
X0Y0D02*
M02*
