*
*
G04 PADS Layout (Build Number 2008.43.1) generated Gerber (RS-274-X) file*
G04 PC Version=2.1*
*
%IN "P2007_0000_RBCS_RC_MAIS"*%
*
%MOIN*%
*
%FSLAX35Y35*%
*
*
*
*
G04 PC Standard Apertures*
*
*
G04 Thermal Relief Aperture macro.*
%AMTER*
1,1,$1,0,0*
1,0,$1-$2,0,0*
21,0,$3,$4,0,0,45*
21,0,$3,$4,0,0,135*
%
*
*
G04 Annular Aperture macro.*
%AMANN*
1,1,$1,0,0*
1,0,$2,0,0*
%
*
*
G04 Odd Aperture macro.*
%AMODD*
1,1,$1,0,0*
1,0,$1-0.005,0,0*
%
*
*
G04 PC Custom Aperture Macros*
*
*
*
*
*
*
G04 PC Aperture Table*
*
%ADD010C,0.01*%
%ADD040C,0.001*%
%ADD071R,0.05906X0.05906*%
%ADD155R,0.0315X0.0315*%
*
*
*
*
G04 PC Circuitry*
G04 Layer Name P2007_0000_RBCS_RC_MAIS - circuitry*
%LPD*%
*
*
G04 PC Custom Flashes*
G04 Layer Name P2007_0000_RBCS_RC_MAIS - flashes*
%LPD*%
*
*
G04 PC Circuitry*
G04 Layer Name P2007_0000_RBCS_RC_MAIS - circuitry*
%LPD*%
*
G54D10*
G01X402548Y423588D02*
X406306Y420435D01*
X407688Y422081*
X403930Y425235*
X402548Y423588*
X405989Y420701D02*
X406529D01*
X404797Y421701D02*
X407369D01*
X403606Y422701D02*
X406950D01*
X402643Y423701D02*
X405758D01*
X403482Y424701D02*
X404566D01*
X402701Y423460D02*
Y423770D01*
X403701Y422621D02*
Y424961D01*
X404701Y421782D02*
Y424588D01*
X405701Y420943D02*
Y423749D01*
X406701Y420905D02*
Y422910D01*
X423629Y425235D02*
X419871Y422081D01*
X421253Y420435*
X425011Y423588*
X423629Y425235*
X421030Y420701D02*
X421570D01*
X420191Y421701D02*
X422762D01*
X420609Y422701D02*
X423954D01*
X421801Y423701D02*
X424916D01*
X422993Y424701D02*
X424077D01*
X420701Y421093D02*
Y422778D01*
X421701Y420811D02*
Y423617D01*
X422701Y421650D02*
Y424456D01*
X423701Y422489D02*
Y425149D01*
X424701Y423328D02*
Y423957D01*
X401367Y417682D02*
X405125Y414529D01*
X406507Y416176*
X402749Y419329*
X401367Y417682*
X404921Y414701D02*
X405269D01*
X403729Y415701D02*
X406108D01*
X402537Y416701D02*
X405881D01*
X401383Y417701D02*
X404689D01*
X402222Y418701D02*
X403498D01*
X401701Y417402D02*
Y418080D01*
X402701Y416563D02*
Y419272D01*
X403701Y415724D02*
Y418530D01*
X404701Y414885D02*
Y417691D01*
X405701Y415215D02*
Y416852D01*
X424810Y419329D02*
X421052Y416176D01*
X422434Y414529*
X426192Y417682*
X424810Y419329*
X422290Y414701D02*
X422639D01*
X421451Y415701D02*
X423830D01*
X421678Y416701D02*
X425022D01*
X422870Y417701D02*
X426176D01*
X424061Y418701D02*
X425337D01*
X421701Y415403D02*
Y416720D01*
X422701Y414753D02*
Y417559D01*
X423701Y415592D02*
Y418398D01*
X424701Y416431D02*
Y419237D01*
X425701Y417270D02*
Y418268D01*
X400186Y411777D02*
X403944Y408624D01*
X405326Y410270*
X401568Y413424*
X400186Y411777*
X403852Y408701D02*
X404009D01*
X402660Y409701D02*
X404848D01*
X401469Y410701D02*
X404813D01*
X400277Y411701D02*
X403621D01*
X400961Y412701D02*
X402429D01*
X400701Y411345D02*
Y412390D01*
X401701Y410506D02*
Y413312D01*
X402701Y409667D02*
Y412473D01*
X403701Y408828D02*
Y411634D01*
X404701Y409526D02*
Y410795D01*
X425991Y413424D02*
X422233Y410270D01*
X423615Y408624*
X427373Y411777*
X425991Y413424*
X423550Y408701D02*
X423707D01*
X422711Y409701D02*
X424899D01*
X422746Y410701D02*
X426091D01*
X423938Y411701D02*
X427282D01*
X425130Y412701D02*
X426598D01*
X422701Y409713D02*
Y410663D01*
X423701Y408696D02*
Y411502D01*
X424701Y409535D02*
Y412341D01*
X425701Y410374D02*
Y413180D01*
X426701Y411213D02*
Y412578D01*
X399005Y405871D02*
X402763Y402718D01*
X404145Y404365*
X400387Y407518*
X399005Y405871*
X401592Y403701D02*
X403587D01*
X400400Y404701D02*
X403744D01*
X399208Y405701D02*
X402552D01*
X399701Y406701D02*
X401361D01*
X399701Y405288D02*
Y406701D01*
X400701Y404448D02*
Y407255D01*
X401701Y403609D02*
Y406415D01*
X402701Y402770D02*
Y405576D01*
X403701Y403836D02*
Y404737D01*
X427172Y407518D02*
X423414Y404365D01*
X424796Y402718*
X428554Y405871*
X427172Y407518*
X423972Y403701D02*
X425967D01*
X423815Y404701D02*
X427159D01*
X425007Y405701D02*
X428351D01*
X426198Y406701D02*
X427858D01*
X423701Y404024D02*
Y404605D01*
X424701Y402832D02*
Y405444D01*
X425701Y403477D02*
Y406283D01*
X426701Y404316D02*
Y407122D01*
X427701Y405155D02*
Y406888D01*
X397824Y399966D02*
X401582Y396813D01*
X402963Y398459*
X399206Y401613*
X397824Y399966*
X400523Y397701D02*
X402327D01*
X399332Y398701D02*
X402676D01*
X398140Y399701D02*
X401484D01*
X398441Y400701D02*
X400292D01*
X398701Y399230D02*
Y401011D01*
X399701Y398391D02*
Y401197D01*
X400701Y397552D02*
Y400358D01*
X401701Y396955D02*
Y399519D01*
X402701Y398146D02*
Y398680D01*
X428353Y401613D02*
X424596Y398459D01*
X425977Y396813*
X429735Y399966*
X428353Y401613*
X425232Y397701D02*
X427036D01*
X424883Y398701D02*
X428228D01*
X426075Y399701D02*
X429419D01*
X427267Y400701D02*
X429118D01*
X424701Y398334D02*
Y398548D01*
X425701Y397142D02*
Y399387D01*
X426701Y397420D02*
Y400226D01*
X427701Y398259D02*
Y401065D01*
X428701Y399098D02*
Y401199D01*
X429701Y399937D02*
Y400007D01*
X505906Y479397D02*
Y472835D01*
Y479397D02*
X507951D01*
X508633Y479085*
X508860Y478772*
X509087Y478147*
Y477210*
X508860Y476585*
X508633Y476272*
X507951Y475960*
X505906*
X511133Y479397D02*
Y472835D01*
Y479397D02*
X512951Y472835D01*
X514769Y479397D02*
X512951Y472835D01*
X514769Y479397D02*
Y472835D01*
X518406Y479397D02*
Y472835D01*
X516815Y479397D02*
X519996D01*
X527269Y475647D02*
X531360D01*
X538633Y479397D02*
Y472835D01*
Y479397D02*
X540678D01*
X541360Y479085*
X541587Y478772*
X541815Y478147*
Y477210*
X541587Y476585*
X541360Y476272*
X540678Y475960*
X538633*
X546587Y477210D02*
Y472835D01*
Y476272D02*
X546133Y476897D01*
X545678Y477210*
X544996*
X544542Y476897*
X544087Y476272*
X543860Y475335*
Y474710*
X544087Y473772*
X544542Y473147*
X544996Y472835*
X545678*
X546133Y473147*
X546587Y473772*
X551133Y476272D02*
X550906Y476897D01*
X550224Y477210*
X549542*
X548860Y476897*
X548633Y476272*
X548860Y475647*
X549315Y475335*
X550451Y475022*
X550906Y474710*
X551133Y474085*
Y473772*
X550906Y473147*
X550224Y472835*
X549542*
X548860Y473147*
X548633Y473772*
X553860Y479397D02*
Y474085D01*
X554087Y473147*
X554542Y472835*
X554996*
X553178Y477210D02*
X554769D01*
X559769D02*
Y472835D01*
Y476272D02*
X559315Y476897D01*
X558860Y477210*
X558178*
X557724Y476897*
X557269Y476272*
X557042Y475335*
Y474710*
X557269Y473772*
X557724Y473147*
X558178Y472835*
X558860*
X559315Y473147*
X559769Y473772*
X567042Y479397D02*
Y472835D01*
X571815Y477210D02*
Y472835D01*
Y476272D02*
X571360Y476897D01*
X570906Y477210*
X570224*
X569769Y476897*
X569315Y476272*
X569087Y475335*
Y474710*
X569315Y473772*
X569769Y473147*
X570224Y472835*
X570906*
X571360Y473147*
X571815Y473772*
X574542Y479397D02*
Y474085D01*
X574769Y473147*
X575224Y472835*
X575678*
X573860Y477210D02*
X575451D01*
X578860D02*
X578406Y476897D01*
X577951Y476272*
X577724Y475335*
Y474710*
X577951Y473772*
X578406Y473147*
X578860Y472835*
X579542*
X579996Y473147*
X580451Y473772*
X580678Y474710*
Y475335*
X580451Y476272*
X579996Y476897*
X579542Y477210*
X578860*
X590678Y476272D02*
X590224Y476897D01*
X589769Y477210*
X589087*
X588633Y476897*
X588178Y476272*
X587951Y475335*
Y474710*
X588178Y473772*
X588633Y473147*
X589087Y472835*
X589769*
X590224Y473147*
X590678Y473772*
X593860Y477210D02*
X593406Y476897D01*
X592951Y476272*
X592724Y475335*
Y474710*
X592951Y473772*
X593406Y473147*
X593860Y472835*
X594542*
X594996Y473147*
X595451Y473772*
X595678Y474710*
Y475335*
X595451Y476272*
X594996Y476897*
X594542Y477210*
X593860*
X597724D02*
Y472835D01*
Y475960D02*
X598406Y476897D01*
X598860Y477210*
X599542*
X599996Y476897*
X600224Y475960*
Y472835*
Y475960D02*
X600906Y476897D01*
X601360Y477210*
X602042*
X602496Y476897*
X602724Y475960*
Y472835*
X604769Y477210D02*
Y470647D01*
Y476272D02*
X605224Y476897D01*
X605678Y477210*
X606360*
X606815Y476897*
X607269Y476272*
X607496Y475335*
Y474710*
X607269Y473772*
X606815Y473147*
X606360Y472835*
X605678*
X605224Y473147*
X604769Y473772*
X610678Y477210D02*
X610224Y476897D01*
X609769Y476272*
X609542Y475335*
Y474710*
X609769Y473772*
X610224Y473147*
X610678Y472835*
X611360*
X611815Y473147*
X612269Y473772*
X612496Y474710*
Y475335*
X612269Y476272*
X611815Y476897*
X611360Y477210*
X610678*
X614542D02*
Y472835D01*
Y475960D02*
X615224Y476897D01*
X615678Y477210*
X616360*
X616815Y476897*
X617042Y475960*
Y472835*
X619087Y475335D02*
X621815D01*
Y475960*
X621587Y476585*
X621360Y476897*
X620906Y477210*
X620224*
X619769Y476897*
X619315Y476272*
X619087Y475335*
Y474710*
X619315Y473772*
X619769Y473147*
X620224Y472835*
X620906*
X621360Y473147*
X621815Y473772*
X623860Y477210D02*
Y472835D01*
Y475960D02*
X624542Y476897D01*
X624996Y477210*
X625678*
X626133Y476897*
X626360Y475960*
Y472835*
X629087Y479397D02*
Y474085D01*
X629315Y473147*
X629769Y472835*
X630224*
X628406Y477210D02*
X629996D01*
X632269Y479397D02*
X632496Y479085D01*
X632724Y479397*
X632496Y479710*
X632269Y479397*
X632496Y477210D02*
Y472835D01*
G54D40*
G54D71*
X412795Y400394D02*
X414764D01*
X399813Y448599D02*
X399419D01*
X427372D02*
X426978D01*
G54D155*
X399705Y431399D02*
X396949D01*
X399705Y436124D02*
X396949D01*
X399705Y440848D02*
X396949D01*
X427110Y441170D02*
X429866D01*
X427110Y436446D02*
X429866D01*
X427110Y431722D02*
X429866D01*
X406309Y447221D02*
Y449977D01*
X411033Y447221D02*
Y449977D01*
X415758Y447221D02*
Y449977D01*
X420482Y447221D02*
Y449977D01*
X0Y0D02*
M02*
