*
*
G04 PADS VX.0 Build Number: 635560 generated Gerber (RS-274-X) file*
G04 PC Version=2.1*
*
%IN "JOG_v1.pcb"*%
*
%MOIN*%
*
%FSLAX35Y35*%
*
*
*
*
G04 PC Standard Apertures*
*
*
G04 Thermal Relief Aperture macro.*
%AMTER*
1,1,$1,0,0*
1,0,$1-$2,0,0*
21,0,$3,$4,0,0,45*
21,0,$3,$4,0,0,135*
%
*
*
G04 Annular Aperture macro.*
%AMANN*
1,1,$1,0,0*
1,0,$2,0,0*
%
*
*
G04 Odd Aperture macro.*
%AMODD*
1,1,$1,0,0*
1,0,$1-0.005,0,0*
%
*
*
G04 PC Custom Aperture Macros*
*
*
*
*
*
*
G04 PC Aperture Table*
*
%ADD010C,0.001*%
%ADD012C,0.01*%
*
*
*
*
G04 PC Circuitry*
G04 Layer Name JOG_v1.pcb - circuitry*
%LPD*%
*
*
G04 PC Custom Flashes*
G04 Layer Name JOG_v1.pcb - flashes*
%LPD*%
*
*
G04 PC Circuitry*
G04 Layer Name JOG_v1.pcb - circuitry*
%LPD*%
*
G54D10*
G01X1537382Y1581606D02*
X1537384D01*
X2086771Y1583710D02*
X2086773D01*
X1811978Y1446142D02*
X1811981D01*
X1811978Y1717795D02*
X1811981D01*
G54D12*
X1907063Y1499622D02*
X1915063D01*
Y1507622*
X1907063*
Y1499622*
X1911063Y1503622D02*
Y1507622D01*
X1915724Y1499622D02*
X1923724D01*
Y1507622*
X1915724*
Y1499622*
X1919724Y1503622D02*
Y1507622D01*
X1911063Y1505591D02*
G75*
G03Y1501654I-0J-1969D01*
G01X1919724*
G03Y1505591I0J1968*
G01X1911063*
X1891709Y1483087D02*
X1899709D01*
Y1491087*
X1891709*
Y1483087*
X1895709Y1487087D02*
Y1491087D01*
X1891709Y1491748D02*
X1899709D01*
Y1499748*
X1891709*
Y1491748*
X1895709Y1495748D02*
Y1499748D01*
X1893740Y1487087D02*
G03X1897677I1969J-0D01*
G01Y1495748*
G03X1893740I-1968J0*
G01Y1487087*
X1907063Y1475213D02*
X1915063D01*
Y1483213*
X1907063*
Y1475213*
X1911063Y1479213D02*
Y1483213D01*
X1915724Y1475213D02*
X1923724D01*
Y1483213*
X1915724*
Y1475213*
X1919724Y1479213D02*
Y1483213D01*
X1911063Y1481181D02*
G03Y1477244I-0J-1968D01*
G01X1919724*
G03Y1481181I0J1969*
G01X1911063*
X2387500Y1686563D02*
Y1680000D01*
Y1686563D02*
X2389091D01*
X2389091D02*
X2389773Y1686250D01*
X2390227Y1685625*
X2390455Y1685000*
X2390682Y1684063*
X2390682D02*
Y1682500D01*
X2390455Y1681563*
X2390455D02*
X2390227Y1680938D01*
X2390227D02*
X2389773Y1680313D01*
X2389773D02*
X2389091Y1680000D01*
X2387500*
X2392727Y1686563D02*
Y1680000D01*
Y1686563D02*
X2394773D01*
X2394773D02*
X2395455Y1686250D01*
X2395682Y1685938*
X2395682D02*
X2395909Y1685313D01*
X2395909D02*
Y1684688D01*
X2395909D02*
X2395682Y1684063D01*
X2395682D02*
X2395455Y1683750D01*
X2394773Y1683438*
X2394773D02*
X2392727D01*
X2394318D02*
X2395909Y1680000D01*
X2397955Y1686563D02*
Y1680000D01*
X2400000Y1686563D02*
Y1680000D01*
X2402727*
X2404773Y1686563D02*
Y1680000D01*
X2407500*
X2414773Y1686563D02*
Y1680000D01*
Y1686563D02*
X2416364D01*
X2416364D02*
X2417045Y1686250D01*
X2417500Y1685625*
X2417727Y1685000*
X2417955Y1684063*
X2417955D02*
Y1682500D01*
X2417727Y1681563*
X2417727D02*
X2417500Y1680938D01*
X2417500D02*
X2417045Y1680313D01*
X2417045D02*
X2416364Y1680000D01*
X2414773*
X2420000Y1686563D02*
Y1680000D01*
Y1686563D02*
X2422045D01*
X2422045D02*
X2422727Y1686250D01*
X2422955Y1685938*
X2422955D02*
X2423182Y1685313D01*
X2423182D02*
Y1684688D01*
X2423182D02*
X2422955Y1684063D01*
X2422955D02*
X2422727Y1683750D01*
X2422045Y1683438*
X2422045D02*
X2420000D01*
X2421591D02*
X2423182Y1680000D01*
X2427045Y1686563D02*
X2425227Y1680000D01*
X2427045Y1686563D02*
X2428864Y1680000D01*
X2425909Y1682188D02*
X2428182D01*
X2430909Y1686563D02*
X2432045Y1680000D01*
X2433182Y1686563D02*
X2432045Y1680000D01*
X2433182Y1686563D02*
X2434318Y1680000D01*
X2435455Y1686563D02*
X2434318Y1680000D01*
X2437500Y1686563D02*
Y1680000D01*
X2439545Y1686563D02*
Y1680000D01*
Y1686563D02*
X2442727Y1680000D01*
Y1686563D02*
Y1680000D01*
X2448182Y1685000D02*
X2447955Y1685625D01*
X2447500Y1686250*
X2447045Y1686563*
X2447045D02*
X2446136D01*
X2446136D02*
X2445682Y1686250D01*
X2445227Y1685625*
X2445000Y1685000*
X2444773Y1684063*
X2444773D02*
Y1682500D01*
X2445000Y1681563*
X2445000D02*
X2445227Y1680938D01*
X2445227D02*
X2445682Y1680313D01*
X2445682D02*
X2446136Y1680000D01*
X2447045*
X2447500Y1680313*
X2447500D02*
X2447955Y1680938D01*
X2447955D02*
X2448182Y1681563D01*
X2448182D02*
Y1682500D01*
X2447045D02*
X2448182D01*
X2390909Y1712500D02*
X2390682Y1713125D01*
X2390227Y1713750*
X2389773Y1714063*
X2389773D02*
X2388864D01*
X2388864D02*
X2388409Y1713750D01*
X2387955Y1713125*
X2387727Y1712500*
X2387500Y1711563*
X2387500D02*
Y1710000D01*
X2387727Y1709063*
X2387727D02*
X2387955Y1708438D01*
X2387955D02*
X2388409Y1707813D01*
X2388409D02*
X2388864Y1707500D01*
X2389773*
X2390227Y1707813*
X2390227D02*
X2390682Y1708438D01*
X2390682D02*
X2390909Y1709063D01*
X2394318Y1714063D02*
X2393864Y1713750D01*
X2393409Y1713125*
X2393182Y1712500*
X2392955Y1711563*
X2392955D02*
Y1710000D01*
X2393182Y1709063*
X2393182D02*
X2393409Y1708438D01*
X2393409D02*
X2393864Y1707813D01*
X2393864D02*
X2394318Y1707500D01*
X2395227*
X2395682Y1707813*
X2395682D02*
X2396136Y1708438D01*
X2396136D02*
X2396364Y1709063D01*
X2396364D02*
X2396591Y1710000D01*
Y1711563*
X2396591D02*
X2396364Y1712500D01*
X2396136Y1713125*
X2395682Y1713750*
X2395227Y1714063*
X2395227D02*
X2394318D01*
X2398636D02*
Y1707500D01*
Y1714063D02*
X2400682D01*
X2400682D02*
X2401364Y1713750D01*
X2401591Y1713438*
X2401591D02*
X2401818Y1712813D01*
X2401818D02*
Y1711875D01*
X2401591Y1711250*
X2401364Y1710938*
X2401364D02*
X2400682Y1710625D01*
X2398636*
X2403864Y1714063D02*
Y1707500D01*
Y1714063D02*
X2405909D01*
X2405909D02*
X2406591Y1713750D01*
X2406818Y1713438*
X2406818D02*
X2407045Y1712813D01*
X2407045D02*
Y1711875D01*
X2406818Y1711250*
X2406591Y1710938*
X2406591D02*
X2405909Y1710625D01*
X2403864*
X2409091Y1714063D02*
Y1707500D01*
Y1714063D02*
X2412045D01*
X2409091Y1710938D02*
X2410909D01*
X2409091Y1707500D02*
X2412045D01*
X2414091Y1714063D02*
Y1707500D01*
Y1714063D02*
X2416136D01*
X2416136D02*
X2416818Y1713750D01*
X2417045Y1713438*
X2417045D02*
X2417273Y1712813D01*
X2417273D02*
Y1712188D01*
X2417273D02*
X2417045Y1711563D01*
X2417045D02*
X2416818Y1711250D01*
X2416136Y1710938*
X2416136D02*
X2414091D01*
X2415682D02*
X2417273Y1707500D01*
X2426136Y1714063D02*
Y1707500D01*
X2424545Y1714063D02*
X2427727D01*
X2429773D02*
Y1707500D01*
X2432955Y1714063D02*
Y1707500D01*
X2429773Y1710938D02*
X2432955D01*
X2435000Y1714063D02*
Y1707500D01*
X2440455Y1712500D02*
X2440227Y1713125D01*
X2439773Y1713750*
X2439318Y1714063*
X2439318D02*
X2438409D01*
X2438409D02*
X2437955Y1713750D01*
X2437500Y1713125*
X2437273Y1712500*
X2437045Y1711563*
X2437045D02*
Y1710000D01*
X2437273Y1709063*
X2437273D02*
X2437500Y1708438D01*
X2437500D02*
X2437955Y1707813D01*
X2437955D02*
X2438409Y1707500D01*
X2439318*
X2439773Y1707813*
X2439773D02*
X2440227Y1708438D01*
X2440227D02*
X2440455Y1709063D01*
X2442500Y1714063D02*
Y1707500D01*
X2445682Y1714063D02*
X2442500Y1709688D01*
X2443636Y1711250D02*
X2445682Y1707500D01*
X2447727Y1714063D02*
Y1707500D01*
Y1714063D02*
X2450909Y1707500D01*
Y1714063D02*
Y1707500D01*
X2452955Y1714063D02*
Y1707500D01*
Y1714063D02*
X2455909D01*
X2452955Y1710938D02*
X2454773D01*
X2452955Y1707500D02*
X2455909D01*
X2461136Y1713125D02*
X2460682Y1713750D01*
X2460000Y1714063*
X2460000D02*
X2459091D01*
X2459091D02*
X2458409Y1713750D01*
X2457955Y1713125*
Y1712500*
X2458182Y1711875*
X2458409Y1711563*
X2458409D02*
X2458864Y1711250D01*
X2460227Y1710625*
X2460682Y1710313*
X2460682D02*
X2460909Y1710000D01*
X2461136Y1709375*
Y1708438*
X2461136D02*
X2460682Y1707813D01*
X2460682D02*
X2460000Y1707500D01*
X2459091*
X2458409Y1707813*
X2458409D02*
X2457955Y1708438D01*
X2466364Y1713125D02*
X2465909Y1713750D01*
X2465227Y1714063*
X2465227D02*
X2464318D01*
X2464318D02*
X2463636Y1713750D01*
X2463182Y1713125*
Y1712500*
X2463409Y1711875*
X2463636Y1711563*
X2463636D02*
X2464091Y1711250D01*
X2465455Y1710625*
X2465909Y1710313*
X2465909D02*
X2466136Y1710000D01*
X2466364Y1709375*
Y1708438*
X2466364D02*
X2465909Y1707813D01*
X2465909D02*
X2465227Y1707500D01*
X2464318*
X2463636Y1707813*
X2463636D02*
X2463182Y1708438D01*
X2473636Y1712813D02*
X2474091Y1713125D01*
X2474773Y1714063*
X2474773D02*
Y1707500D01*
X2480000Y1714063D02*
X2477727Y1707500D01*
X2476818Y1714063D02*
X2480000D01*
X2482045Y1711875D02*
Y1708750D01*
X2482273Y1707813*
X2482273D02*
X2482727Y1707500D01*
X2483409*
X2483864Y1707813*
X2483864D02*
X2484545Y1708750D01*
Y1711875D02*
Y1707500D01*
X2486591Y1711875D02*
Y1707500D01*
Y1710625D02*
X2487273Y1711563D01*
X2487273D02*
X2487727Y1711875D01*
X2488409*
X2488864Y1711563*
X2488864D02*
X2489091Y1710625D01*
Y1707500*
Y1710625D02*
X2489773Y1711563D01*
X2489773D02*
X2490227Y1711875D01*
X2490909*
X2491364Y1711563*
X2491364D02*
X2491591Y1710625D01*
Y1707500*
X2387500Y1729063D02*
Y1722500D01*
Y1729063D02*
X2389545D01*
X2389545D02*
X2390227Y1728750D01*
X2390455Y1728438*
X2390455D02*
X2390682Y1727813D01*
X2390682D02*
Y1727188D01*
X2390682D02*
X2390455Y1726563D01*
X2390455D02*
X2390227Y1726250D01*
X2389545Y1725938*
X2387500D02*
X2389545D01*
X2389545D02*
X2390227Y1725625D01*
X2390455Y1725313*
X2390455D02*
X2390682Y1724688D01*
X2390682D02*
Y1723750D01*
X2390455Y1723125*
X2390227Y1722813*
X2390227D02*
X2389545Y1722500D01*
X2387500*
X2394091Y1729063D02*
X2393636Y1728750D01*
X2393182Y1728125*
X2392955Y1727500*
X2392727Y1726563*
X2392727D02*
Y1725000D01*
X2392955Y1724063*
X2392955D02*
X2393182Y1723438D01*
X2393182D02*
X2393636Y1722813D01*
X2393636D02*
X2394091Y1722500D01*
X2395000*
X2395455Y1722813*
X2395455D02*
X2395909Y1723438D01*
X2395909D02*
X2396136Y1724063D01*
X2396136D02*
X2396364Y1725000D01*
Y1726563*
X2396364D02*
X2396136Y1727500D01*
X2395909Y1728125*
X2395455Y1728750*
X2395000Y1729063*
X2395000D02*
X2394091D01*
X2400227D02*
X2398409Y1722500D01*
X2400227Y1729063D02*
X2402045Y1722500D01*
X2399091Y1724688D02*
X2401364D01*
X2404091Y1729063D02*
Y1722500D01*
Y1729063D02*
X2406136D01*
X2406136D02*
X2406818Y1728750D01*
X2407045Y1728438*
X2407045D02*
X2407273Y1727813D01*
X2407273D02*
Y1727188D01*
X2407273D02*
X2407045Y1726563D01*
X2407045D02*
X2406818Y1726250D01*
X2406136Y1725938*
X2406136D02*
X2404091D01*
X2405682D02*
X2407273Y1722500D01*
X2409318Y1729063D02*
Y1722500D01*
Y1729063D02*
X2410909D01*
X2410909D02*
X2411591Y1728750D01*
X2412045Y1728125*
X2412273Y1727500*
X2412500Y1726563*
X2412500D02*
Y1725000D01*
X2412273Y1724063*
X2412273D02*
X2412045Y1723438D01*
X2412045D02*
X2411591Y1722813D01*
X2411591D02*
X2410909Y1722500D01*
X2409318*
X2421364Y1729063D02*
Y1722500D01*
X2419773Y1729063D02*
X2422955D01*
X2425000D02*
Y1722500D01*
X2428182Y1729063D02*
Y1722500D01*
X2425000Y1725938D02*
X2428182D01*
X2430227Y1729063D02*
Y1722500D01*
X2435682Y1727500D02*
X2435455Y1728125D01*
X2435000Y1728750*
X2434545Y1729063*
X2434545D02*
X2433636D01*
X2433636D02*
X2433182Y1728750D01*
X2432727Y1728125*
X2432500Y1727500*
X2432273Y1726563*
X2432273D02*
Y1725000D01*
X2432500Y1724063*
X2432500D02*
X2432727Y1723438D01*
X2432727D02*
X2433182Y1722813D01*
X2433182D02*
X2433636Y1722500D01*
X2434545*
X2435000Y1722813*
X2435000D02*
X2435455Y1723438D01*
X2435455D02*
X2435682Y1724063D01*
X2437727Y1729063D02*
Y1722500D01*
X2440909Y1729063D02*
X2437727Y1724688D01*
X2438864Y1726250D02*
X2440909Y1722500D01*
X2442955Y1729063D02*
Y1722500D01*
Y1729063D02*
X2446136Y1722500D01*
Y1729063D02*
Y1722500D01*
X2448182Y1729063D02*
Y1722500D01*
Y1729063D02*
X2451136D01*
X2448182Y1725938D02*
X2450000D01*
X2448182Y1722500D02*
X2451136D01*
X2456364Y1728125D02*
X2455909Y1728750D01*
X2455227Y1729063*
X2455227D02*
X2454318D01*
X2454318D02*
X2453636Y1728750D01*
X2453182Y1728125*
Y1727500*
X2453409Y1726875*
X2453636Y1726563*
X2453636D02*
X2454091Y1726250D01*
X2455455Y1725625*
X2455909Y1725313*
X2455909D02*
X2456136Y1725000D01*
X2456364Y1724375*
Y1723438*
X2456364D02*
X2455909Y1722813D01*
X2455909D02*
X2455227Y1722500D01*
X2454318*
X2453636Y1722813*
X2453636D02*
X2453182Y1723438D01*
X2461591Y1728125D02*
X2461136Y1728750D01*
X2460455Y1729063*
X2460455D02*
X2459545D01*
X2459545D02*
X2458864Y1728750D01*
X2458409Y1728125*
Y1727500*
X2458636Y1726875*
X2458864Y1726563*
X2458864D02*
X2459318Y1726250D01*
X2460682Y1725625*
X2461136Y1725313*
X2461136D02*
X2461364Y1725000D01*
X2461591Y1724375*
Y1723438*
X2461591D02*
X2461136Y1722813D01*
X2461136D02*
X2460455Y1722500D01*
X2459545*
X2458864Y1722813*
X2458864D02*
X2458409Y1723438D01*
X2468864Y1727813D02*
X2469318Y1728125D01*
X2470000Y1729063*
X2470000D02*
Y1722500D01*
X2472273Y1723125D02*
X2472045Y1722813D01*
X2472045D02*
X2472273Y1722500D01*
X2472500Y1722813*
X2472500D02*
X2472273Y1723125D01*
X2477273Y1728125D02*
X2477045Y1728750D01*
X2476364Y1729063*
X2476364D02*
X2475909D01*
X2475909D02*
X2475227Y1728750D01*
X2474773Y1727813*
X2474773D02*
X2474545Y1726250D01*
Y1724688*
X2474545D02*
X2474773Y1723438D01*
X2474773D02*
X2475227Y1722813D01*
X2475227D02*
X2475909Y1722500D01*
X2476136*
X2476818Y1722813*
X2476818D02*
X2477273Y1723438D01*
X2477273D02*
X2477500Y1724375D01*
Y1724688*
X2477500D02*
X2477273Y1725625D01*
X2476818Y1726250*
X2476136Y1726563*
X2476136D02*
X2475909D01*
X2475909D02*
X2475227Y1726250D01*
X2474773Y1725625*
X2474545Y1724688*
X2390682Y1698125D02*
X2390227Y1698750D01*
X2389545Y1699063*
X2389545D02*
X2388636D01*
X2388636D02*
X2387955Y1698750D01*
X2387500Y1698125*
Y1697500*
X2387727Y1696875*
X2387955Y1696563*
X2387955D02*
X2388409Y1696250D01*
X2389773Y1695625*
X2390227Y1695313*
X2390227D02*
X2390455Y1695000D01*
X2390682Y1694375*
Y1693438*
X2390682D02*
X2390227Y1692813D01*
X2390227D02*
X2389545Y1692500D01*
X2388636*
X2387955Y1692813*
X2387955D02*
X2387500Y1693438D01*
X2392727Y1699063D02*
Y1694375D01*
X2392955Y1693438*
X2392955D02*
X2393409Y1692813D01*
X2393409D02*
X2394091Y1692500D01*
X2394545*
X2395227Y1692813*
X2395227D02*
X2395682Y1693438D01*
X2395682D02*
X2395909Y1694375D01*
Y1699063*
X2397955D02*
Y1692500D01*
Y1699063D02*
X2400000D01*
X2400000D02*
X2400682Y1698750D01*
X2400909Y1698438*
X2400909D02*
X2401136Y1697813D01*
X2401136D02*
Y1696875D01*
X2400909Y1696250*
X2400682Y1695938*
X2400682D02*
X2400000Y1695625D01*
X2397955*
X2403182Y1699063D02*
Y1692500D01*
Y1699063D02*
X2406136D01*
X2403182Y1695938D02*
X2405000D01*
X2403182Y1692500D02*
X2406136D01*
X2408182Y1699063D02*
Y1692500D01*
Y1699063D02*
X2410227D01*
X2410227D02*
X2410909Y1698750D01*
X2411136Y1698438*
X2411136D02*
X2411364Y1697813D01*
X2411364D02*
Y1697188D01*
X2411364D02*
X2411136Y1696563D01*
X2411136D02*
X2410909Y1696250D01*
X2410227Y1695938*
X2410227D02*
X2408182D01*
X2409773D02*
X2411364Y1692500D01*
X2413409Y1699063D02*
Y1692500D01*
Y1699063D02*
X2416364D01*
X2413409Y1695938D02*
X2415227D01*
X2418409Y1699063D02*
Y1692500D01*
X2423864Y1697500D02*
X2423636Y1698125D01*
X2423182Y1698750*
X2422727Y1699063*
X2422727D02*
X2421818D01*
X2421818D02*
X2421364Y1698750D01*
X2420909Y1698125*
X2420682Y1697500*
X2420455Y1696563*
X2420455D02*
Y1695000D01*
X2420682Y1694063*
X2420682D02*
X2420909Y1693438D01*
X2420909D02*
X2421364Y1692813D01*
X2421364D02*
X2421818Y1692500D01*
X2422727*
X2423182Y1692813*
X2423182D02*
X2423636Y1693438D01*
X2423636D02*
X2423864Y1694063D01*
X2425909Y1699063D02*
Y1692500D01*
X2429773Y1699063D02*
X2427955Y1692500D01*
X2429773Y1699063D02*
X2431591Y1692500D01*
X2428636Y1694688D02*
X2430909D01*
X2433636Y1699063D02*
Y1692500D01*
X2436364*
X2443636Y1699063D02*
Y1692500D01*
Y1699063D02*
X2446591D01*
X2443636Y1695938D02*
X2445455D01*
X2448636Y1699063D02*
Y1692500D01*
X2450682Y1699063D02*
Y1692500D01*
Y1699063D02*
X2453864Y1692500D01*
Y1699063D02*
Y1692500D01*
X2455909Y1699063D02*
Y1692500D01*
X2461136Y1698125D02*
X2460682Y1698750D01*
X2460000Y1699063*
X2460000D02*
X2459091D01*
X2459091D02*
X2458409Y1698750D01*
X2457955Y1698125*
Y1697500*
X2458182Y1696875*
X2458409Y1696563*
X2458409D02*
X2458864Y1696250D01*
X2460227Y1695625*
X2460682Y1695313*
X2460682D02*
X2460909Y1695000D01*
X2461136Y1694375*
Y1693438*
X2461136D02*
X2460682Y1692813D01*
X2460682D02*
X2460000Y1692500D01*
X2459091*
X2458409Y1692813*
X2458409D02*
X2457955Y1693438D01*
X2463182Y1699063D02*
Y1692500D01*
X2466364Y1699063D02*
Y1692500D01*
X2463182Y1695938D02*
X2466364D01*
X2468409Y1699063D02*
Y1692500D01*
X2470455Y1699063D02*
Y1692500D01*
Y1699063D02*
X2473636Y1692500D01*
Y1699063D02*
Y1692500D01*
X2479091Y1697500D02*
X2478864Y1698125D01*
X2478409Y1698750*
X2477955Y1699063*
X2477955D02*
X2477045D01*
X2477045D02*
X2476591Y1698750D01*
X2476136Y1698125*
X2475909Y1697500*
X2475682Y1696563*
X2475682D02*
Y1695000D01*
X2475909Y1694063*
X2475909D02*
X2476136Y1693438D01*
X2476136D02*
X2476591Y1692813D01*
X2476591D02*
X2477045Y1692500D01*
X2477955*
X2478409Y1692813*
X2478409D02*
X2478864Y1693438D01*
X2478864D02*
X2479091Y1694063D01*
X2479091D02*
Y1695000D01*
X2477955D02*
X2479091D01*
X2486364Y1699063D02*
Y1692500D01*
Y1699063D02*
X2489318D01*
X2486364Y1695938D02*
X2488182D01*
X2486364Y1692500D02*
X2489318D01*
X2491364Y1699063D02*
Y1692500D01*
Y1699063D02*
X2494545Y1692500D01*
Y1699063D02*
Y1692500D01*
X2496591Y1699063D02*
Y1692500D01*
X2502045Y1697500D02*
X2501818Y1698125D01*
X2501364Y1698750*
X2500909Y1699063*
X2500909D02*
X2500000D01*
X2500000D02*
X2499545Y1698750D01*
X2499091Y1698125*
X2498864Y1697500*
X2498636Y1696563*
X2498636D02*
Y1695000D01*
X2498864Y1694063*
X2498864D02*
X2499091Y1693438D01*
X2499091D02*
X2499545Y1692813D01*
X2499545D02*
X2500000Y1692500D01*
X2500909*
X2501364Y1692813*
X2501364D02*
X2501818Y1693438D01*
X2501818D02*
X2502045Y1694063D01*
X2502045D02*
Y1695000D01*
X2500909D02*
X2502045D01*
X1827338Y1634464D02*
X1835338Y1642464D01*
Y1634464*
X1827338Y1642464*
Y1634464*
Y1624464D02*
X1835338Y1632464D01*
Y1624464*
X1827338Y1632464*
Y1624464*
X1837338Y1634464D02*
X1845338Y1642464D01*
Y1634464*
X1837338Y1642464*
Y1634464*
Y1624464D02*
X1845338Y1632464D01*
Y1624464*
X1837338Y1632464*
Y1624464*
X1847338Y1634464D02*
X1855338Y1642464D01*
Y1634464*
X1847338Y1642464*
Y1634464*
Y1624464D02*
X1855338Y1632464D01*
Y1624464*
X1847338Y1632464*
Y1624464*
X1857338Y1634464D02*
X1865338Y1642464D01*
Y1634464*
X1857338Y1642464*
Y1634464*
Y1624464D02*
X1865338Y1632464D01*
Y1624464*
X1857338Y1632464*
Y1624464*
X1867338Y1634464D02*
X1875338Y1642464D01*
Y1634464*
X1867338Y1642464*
Y1634464*
Y1624464D02*
X1875338Y1632464D01*
Y1624464*
X1867338Y1632464*
Y1624464*
X1731275Y1523638D02*
X1739275Y1531638D01*
X1731275D02*
X1739275Y1523638D01*
X1731275Y1631905D02*
X1739275Y1639905D01*
X1731275D02*
X1739275Y1631905D01*
X1886787D02*
X1894787Y1639905D01*
X1886787D02*
X1894787Y1631905D01*
X1886787Y1523638D02*
X1894787Y1531638D01*
X1886787D02*
X1894787Y1523638D01*
X1669267Y1698047D02*
X1677267Y1706047D01*
X1669267D02*
X1677267Y1698047D01*
X1669267Y1457496D02*
X1677267Y1465496D01*
X1669267D02*
X1677267Y1457496D01*
X1948795Y1698047D02*
X1956795Y1706047D01*
X1948795D02*
X1956795Y1698047D01*
X1948795Y1457496D02*
X1956795Y1465496D01*
X1948795D02*
X1956795Y1457496D01*
X1554402Y1590500D02*
X1562402D01*
X1558402Y1586500D02*
Y1594500D01*
X1561311Y1595781D02*
X1560402Y1592500D01*
X1561311Y1595781D02*
X1562220Y1592500D01*
X1560742Y1593594D02*
X1561879D01*
X1554402Y1580500D02*
X1562402D01*
X1558402Y1576500D02*
Y1584500D01*
X1561311Y1585781D02*
X1560402Y1582500D01*
X1561311Y1585781D02*
X1562220Y1582500D01*
X1560742Y1583594D02*
X1561879D01*
X1554402Y1570500D02*
X1562402D01*
X1558402Y1566500D02*
Y1574500D01*
X1561311Y1575781D02*
X1560402Y1572500D01*
X1561311Y1575781D02*
X1562220Y1572500D01*
X1560742Y1573594D02*
X1561879D01*
X1582000Y1541327D02*
X1590000D01*
X1586000Y1537327D02*
Y1545327D01*
X1588909Y1546608D02*
X1588000Y1543327D01*
X1588909Y1546608D02*
X1589818Y1543327D01*
X1588341Y1544421D02*
X1589477D01*
X1592000Y1541327D02*
X1600000D01*
X1596000Y1537327D02*
Y1545327D01*
X1598909Y1546608D02*
X1598000Y1543327D01*
X1598909Y1546608D02*
X1599818Y1543327D01*
X1598341Y1544421D02*
X1599477D01*
X1602000Y1541327D02*
X1610000D01*
X1606000Y1537327D02*
Y1545327D01*
X1608909Y1546608D02*
X1608000Y1543327D01*
X1608909Y1546608D02*
X1609818Y1543327D01*
X1608341Y1544421D02*
X1609477D01*
X1580031Y1608209D02*
X1588031Y1616209D01*
Y1608209*
X1580031Y1616209*
Y1608209*
X1603969D02*
X1611969Y1616209D01*
Y1608209*
X1603969Y1616209*
Y1608209*
Y1626909D02*
X1611969Y1634909D01*
Y1626909*
X1603969Y1634909*
Y1626909*
X1580031D02*
X1588031Y1634909D01*
Y1626909*
X1580031Y1634909*
Y1626909*
X1561488Y1606681D02*
X1569488D01*
X1565488Y1602681D02*
Y1610681D01*
X1567488Y1611962D02*
Y1608681D01*
Y1611962D02*
X1568511D01*
X1568852Y1611806*
X1568965Y1611650*
X1569079Y1611337*
Y1611025*
X1568965Y1610712*
X1568852Y1610556*
X1568511Y1610400*
X1567488D02*
X1568511D01*
X1568852Y1610244*
X1568965Y1610087*
X1569079Y1609775*
Y1609306*
X1568965Y1608994*
X1568852Y1608837*
X1568511Y1608681*
X1567488*
X1622512Y1606681D02*
X1630512D01*
X1626512Y1602681D02*
Y1610681D01*
X1628512Y1611962D02*
Y1608681D01*
Y1611962D02*
X1629535D01*
X1629875Y1611806*
X1629989Y1611650*
X1630103Y1611337*
Y1611025*
X1629989Y1610712*
X1629875Y1610556*
X1629535Y1610400*
X1628512D02*
X1629535D01*
X1629875Y1610244*
X1629989Y1610087*
X1630103Y1609775*
Y1609306*
X1629989Y1608994*
X1629875Y1608837*
X1629535Y1608681*
X1628512*
X1622512Y1554319D02*
X1630512D01*
X1626512Y1550319D02*
Y1558319D01*
X1628512Y1559600D02*
Y1556319D01*
Y1559600D02*
X1629535D01*
X1629875Y1559444*
X1629989Y1559288*
X1630103Y1558975*
Y1558663*
X1629989Y1558350*
X1629875Y1558194*
X1629535Y1558038*
X1628512D02*
X1629535D01*
X1629875Y1557881*
X1629989Y1557725*
X1630103Y1557413*
Y1556944*
X1629989Y1556631*
X1629875Y1556475*
X1629535Y1556319*
X1628512*
X1561488Y1554319D02*
X1569488D01*
X1565488Y1550319D02*
Y1558319D01*
X1567488Y1559600D02*
Y1556319D01*
Y1559600D02*
X1568511D01*
X1568852Y1559444*
X1568965Y1559288*
X1569079Y1558975*
Y1558663*
X1568965Y1558350*
X1568852Y1558194*
X1568511Y1558038*
X1567488D02*
X1568511D01*
X1568852Y1557881*
X1568965Y1557725*
X1569079Y1557413*
Y1556944*
X1568965Y1556631*
X1568852Y1556475*
X1568511Y1556319*
X1567488*
X1987402Y1590500D02*
X1995402D01*
X1991402Y1586500D02*
Y1594500D01*
X1994311Y1595781D02*
X1993402Y1592500D01*
X1994311Y1595781D02*
X1995220Y1592500D01*
X1993742Y1593594D02*
X1994879D01*
X1987402Y1580500D02*
X1995402D01*
X1991402Y1576500D02*
Y1584500D01*
X1994311Y1585781D02*
X1993402Y1582500D01*
X1994311Y1585781D02*
X1995220Y1582500D01*
X1993742Y1583594D02*
X1994879D01*
X1987402Y1570500D02*
X1995402D01*
X1991402Y1566500D02*
Y1574500D01*
X1994311Y1575781D02*
X1993402Y1572500D01*
X1994311Y1575781D02*
X1995220Y1572500D01*
X1993742Y1573594D02*
X1994879D01*
X2015000Y1541327D02*
X2023000D01*
X2019000Y1537327D02*
Y1545327D01*
X2021909Y1546608D02*
X2021000Y1543327D01*
X2021909Y1546608D02*
X2022818Y1543327D01*
X2021341Y1544421D02*
X2022477D01*
X2025000Y1541327D02*
X2033000D01*
X2029000Y1537327D02*
Y1545327D01*
X2031909Y1546608D02*
X2031000Y1543327D01*
X2031909Y1546608D02*
X2032818Y1543327D01*
X2031341Y1544421D02*
X2032477D01*
X2035000Y1541327D02*
X2043000D01*
X2039000Y1537327D02*
Y1545327D01*
X2041909Y1546608D02*
X2041000Y1543327D01*
X2041909Y1546608D02*
X2042818Y1543327D01*
X2041341Y1544421D02*
X2042477D01*
X2013031Y1608209D02*
X2021031Y1616209D01*
Y1608209*
X2013031Y1616209*
Y1608209*
X2036969D02*
X2044969Y1616209D01*
Y1608209*
X2036969Y1616209*
Y1608209*
Y1626909D02*
X2044969Y1634909D01*
Y1626909*
X2036969Y1634909*
Y1626909*
X2013031D02*
X2021031Y1634909D01*
Y1626909*
X2013031Y1634909*
Y1626909*
X1994488Y1606681D02*
X2002488D01*
X1998488Y1602681D02*
Y1610681D01*
X2000488Y1611962D02*
Y1608681D01*
Y1611962D02*
X2001511D01*
X2001852Y1611806*
X2001965Y1611650*
X2002079Y1611337*
Y1611025*
X2001965Y1610712*
X2001852Y1610556*
X2001511Y1610400*
X2000488D02*
X2001511D01*
X2001852Y1610244*
X2001965Y1610087*
X2002079Y1609775*
Y1609306*
X2001965Y1608994*
X2001852Y1608837*
X2001511Y1608681*
X2000488*
X2055512Y1606681D02*
X2063512D01*
X2059512Y1602681D02*
Y1610681D01*
X2061512Y1611962D02*
Y1608681D01*
Y1611962D02*
X2062535D01*
X2062875Y1611806*
X2062989Y1611650*
X2063103Y1611337*
Y1611025*
X2062989Y1610712*
X2062875Y1610556*
X2062535Y1610400*
X2061512D02*
X2062535D01*
X2062875Y1610244*
X2062989Y1610087*
X2063103Y1609775*
Y1609306*
X2062989Y1608994*
X2062875Y1608837*
X2062535Y1608681*
X2061512*
X2055512Y1554319D02*
X2063512D01*
X2059512Y1550319D02*
Y1558319D01*
X2061512Y1559600D02*
Y1556319D01*
Y1559600D02*
X2062535D01*
X2062875Y1559444*
X2062989Y1559288*
X2063103Y1558975*
Y1558663*
X2062989Y1558350*
X2062875Y1558194*
X2062535Y1558038*
X2061512D02*
X2062535D01*
X2062875Y1557881*
X2062989Y1557725*
X2063103Y1557413*
Y1556944*
X2062989Y1556631*
X2062875Y1556475*
X2062535Y1556319*
X2061512*
X1994488Y1554319D02*
X2002488D01*
X1998488Y1550319D02*
Y1558319D01*
X2000488Y1559600D02*
Y1556319D01*
Y1559600D02*
X2001511D01*
X2001852Y1559444*
X2001965Y1559288*
X2002079Y1558975*
Y1558663*
X2001965Y1558350*
X2001852Y1558194*
X2001511Y1558038*
X2000488D02*
X2001511D01*
X2001852Y1557881*
X2001965Y1557725*
X2002079Y1557413*
Y1556944*
X2001965Y1556631*
X2001852Y1556475*
X2001511Y1556319*
X2000488*
X1694500Y1452000D02*
X1702500D01*
X1698500Y1448000D02*
Y1456000D01*
X1702205Y1456500D02*
X1702091Y1456813D01*
X1702091D02*
X1701864Y1457125D01*
X1701636Y1457281*
X1701182*
X1700955Y1457125*
X1700727Y1456813*
X1700727D02*
X1700614Y1456500D01*
X1700500Y1456031*
Y1455250*
X1700614Y1454781*
X1700727Y1454469*
X1700955Y1454156*
X1701182Y1454000*
X1701636*
X1701864Y1454156*
X1702091Y1454469*
X1702205Y1454781*
X1690000Y1452000D02*
X1698000D01*
X1694000Y1448000D02*
Y1456000D01*
X1697705Y1456500D02*
X1697591Y1456813D01*
X1697591D02*
X1697364Y1457125D01*
X1697136Y1457281*
X1696682*
X1696455Y1457125*
X1696227Y1456813*
X1696227D02*
X1696114Y1456500D01*
X1696000Y1456031*
Y1455250*
X1696114Y1454781*
X1696227Y1454469*
X1696455Y1454156*
X1696682Y1454000*
X1697136*
X1697364Y1454156*
X1697591Y1454469*
X1697705Y1454781*
X1734500Y1452000D02*
X1742500D01*
X1738500Y1448000D02*
Y1456000D01*
X1742205Y1456500D02*
X1742091Y1456813D01*
X1742091D02*
X1741864Y1457125D01*
X1741636Y1457281*
X1741182*
X1740955Y1457125*
X1740727Y1456813*
X1740727D02*
X1740614Y1456500D01*
X1740500Y1456031*
Y1455250*
X1740614Y1454781*
X1740727Y1454469*
X1740955Y1454156*
X1741182Y1454000*
X1741636*
X1741864Y1454156*
X1742091Y1454469*
X1742205Y1454781*
X1739000Y1452500D02*
X1747000D01*
X1743000Y1448500D02*
Y1456500D01*
X1746705Y1457000D02*
X1746591Y1457313D01*
X1746591D02*
X1746364Y1457625D01*
X1746136Y1457781*
X1745682*
X1745455Y1457625*
X1745227Y1457313*
X1745227D02*
X1745114Y1457000D01*
X1745000Y1456531*
Y1455750*
X1745114Y1455281*
X1745227Y1454969*
X1745455Y1454656*
X1745682Y1454500*
X1746136*
X1746364Y1454656*
X1746591Y1454969*
X1746705Y1455281*
X1728000Y1471500D02*
X1736000D01*
X1732000Y1467500D02*
Y1475500D01*
X1735705Y1476000D02*
X1735591Y1476313D01*
X1735591D02*
X1735364Y1476625D01*
X1735136Y1476781*
X1734682*
X1734455Y1476625*
X1734227Y1476313*
X1734227D02*
X1734114Y1476000D01*
X1734000Y1475531*
Y1474750*
X1734114Y1474281*
X1734227Y1473969*
X1734455Y1473656*
X1734682Y1473500*
X1735136*
X1735364Y1473656*
X1735591Y1473969*
X1735705Y1474281*
X1855500Y1472500D02*
X1863500D01*
X1859500Y1468500D02*
Y1476500D01*
X1863205Y1477000D02*
X1863091Y1477313D01*
X1863091D02*
X1862864Y1477625D01*
X1862636Y1477781*
X1862182*
X1861955Y1477625*
X1861727Y1477313*
X1861727D02*
X1861614Y1477000D01*
X1861500Y1476531*
Y1475750*
X1861614Y1475281*
X1861727Y1474969*
X1861955Y1474656*
X1862182Y1474500*
X1862636*
X1862864Y1474656*
X1863091Y1474969*
X1863205Y1475281*
X1700500Y1476000D02*
X1708500D01*
X1704500Y1472000D02*
Y1480000D01*
X1708205Y1480500D02*
X1708091Y1480813D01*
X1708091D02*
X1707864Y1481125D01*
X1707636Y1481281*
X1707182*
X1706955Y1481125*
X1706727Y1480813*
X1706727D02*
X1706614Y1480500D01*
X1706500Y1480031*
Y1479250*
X1706614Y1478781*
X1706727Y1478469*
X1706955Y1478156*
X1707182Y1478000*
X1707636*
X1707864Y1478156*
X1708091Y1478469*
X1708205Y1478781*
X1840000Y1480500D02*
X1848000D01*
X1844000Y1476500D02*
Y1484500D01*
X1847705Y1485000D02*
X1847591Y1485313D01*
X1847591D02*
X1847364Y1485625D01*
X1847136Y1485781*
X1846682*
X1846455Y1485625*
X1846227Y1485313*
X1846227D02*
X1846114Y1485000D01*
X1846000Y1484531*
Y1483750*
X1846114Y1483281*
X1846227Y1482969*
X1846455Y1482656*
X1846682Y1482500*
X1847136*
X1847364Y1482656*
X1847591Y1482969*
X1847705Y1483281*
X1776500Y1528500D02*
X1784500D01*
X1780500Y1524500D02*
Y1532500D01*
X1784205Y1533000D02*
X1784091Y1533313D01*
X1784091D02*
X1783864Y1533625D01*
X1783636Y1533781*
X1783182*
X1782955Y1533625*
X1782727Y1533313*
X1782727D02*
X1782614Y1533000D01*
X1782500Y1532531*
Y1531750*
X1782614Y1531281*
X1782727Y1530969*
X1782955Y1530656*
X1783182Y1530500*
X1783636*
X1783864Y1530656*
X1784091Y1530969*
X1784205Y1531281*
X1795500Y1524000D02*
X1803500D01*
X1799500Y1520000D02*
Y1528000D01*
X1803205Y1528500D02*
X1803091Y1528813D01*
X1803091D02*
X1802864Y1529125D01*
X1802636Y1529281*
X1802182*
X1801955Y1529125*
X1801727Y1528813*
X1801727D02*
X1801614Y1528500D01*
X1801500Y1528031*
Y1527250*
X1801614Y1526781*
X1801727Y1526469*
X1801955Y1526156*
X1802182Y1526000*
X1802636*
X1802864Y1526156*
X1803091Y1526469*
X1803205Y1526781*
X1793000Y1545500D02*
X1801000D01*
X1797000Y1541500D02*
Y1549500D01*
X1800705Y1550000D02*
X1800591Y1550313D01*
X1800591D02*
X1800364Y1550625D01*
X1800136Y1550781*
X1799682*
X1799455Y1550625*
X1799227Y1550313*
X1799227D02*
X1799114Y1550000D01*
X1799000Y1549531*
Y1548750*
X1799114Y1548281*
X1799227Y1547969*
X1799455Y1547656*
X1799682Y1547500*
X1800136*
X1800364Y1547656*
X1800591Y1547969*
X1800705Y1548281*
X1793500Y1541500D02*
X1801500D01*
X1797500Y1537500D02*
Y1545500D01*
X1801205Y1546000D02*
X1801091Y1546313D01*
X1801091D02*
X1800864Y1546625D01*
X1800636Y1546781*
X1800182*
X1799955Y1546625*
X1799727Y1546313*
X1799727D02*
X1799614Y1546000D01*
X1799500Y1545531*
Y1544750*
X1799614Y1544281*
X1799727Y1543969*
X1799955Y1543656*
X1800182Y1543500*
X1800636*
X1800864Y1543656*
X1801091Y1543969*
X1801205Y1544281*
X1785173Y1542000D02*
X1793173D01*
X1789173Y1538000D02*
Y1546000D01*
X1792878Y1546500D02*
X1792764Y1546813D01*
X1792764D02*
X1792537Y1547125D01*
X1792310Y1547281*
X1791855*
X1791628Y1547125*
X1791401Y1546813*
X1791401D02*
X1791287Y1546500D01*
X1791173Y1546031*
Y1545250*
X1791287Y1544781*
X1791401Y1544469*
X1791401D02*
X1791628Y1544156D01*
X1791855Y1544000*
X1792310*
X1792537Y1544156*
X1792764Y1544469*
X1792878Y1544781*
X1755000Y1573500D02*
X1763000D01*
X1759000Y1569500D02*
Y1577500D01*
X1762705Y1578000D02*
X1762591Y1578313D01*
X1762591D02*
X1762364Y1578625D01*
X1762136Y1578781*
X1761682*
X1761455Y1578625*
X1761227Y1578313*
X1761227D02*
X1761114Y1578000D01*
X1761000Y1577531*
Y1576750*
X1761114Y1576281*
X1761227Y1575969*
X1761455Y1575656*
X1761682Y1575500*
X1762136*
X1762364Y1575656*
X1762591Y1575969*
X1762705Y1576281*
X1768500Y1570500D02*
X1776500D01*
X1772500Y1566500D02*
Y1574500D01*
X1776205Y1575000D02*
X1776091Y1575313D01*
X1776091D02*
X1775864Y1575625D01*
X1775636Y1575781*
X1775182*
X1774955Y1575625*
X1774727Y1575313*
X1774727D02*
X1774614Y1575000D01*
X1774500Y1574531*
Y1573750*
X1774614Y1573281*
X1774727Y1572969*
X1774955Y1572656*
X1775182Y1572500*
X1775636*
X1775864Y1572656*
X1776091Y1572969*
X1776205Y1573281*
X1778500Y1566000D02*
X1786500D01*
X1782500Y1562000D02*
Y1570000D01*
X1786205Y1570500D02*
X1786091Y1570813D01*
X1786091D02*
X1785864Y1571125D01*
X1785636Y1571281*
X1785182*
X1784955Y1571125*
X1784727Y1570813*
X1784727D02*
X1784614Y1570500D01*
X1784500Y1570031*
Y1569250*
X1784614Y1568781*
X1784727Y1568469*
X1784955Y1568156*
X1785182Y1568000*
X1785636*
X1785864Y1568156*
X1786091Y1568469*
X1786205Y1568781*
X1788500Y1570000D02*
X1796500D01*
X1792500Y1566000D02*
Y1574000D01*
X1796205Y1574500D02*
X1796091Y1574813D01*
X1796091D02*
X1795864Y1575125D01*
X1795636Y1575281*
X1795182*
X1794955Y1575125*
X1794727Y1574813*
X1794727D02*
X1794614Y1574500D01*
X1794500Y1574031*
Y1573250*
X1794614Y1572781*
X1794727Y1572469*
X1794955Y1572156*
X1795182Y1572000*
X1795636*
X1795864Y1572156*
X1796091Y1572469*
X1796205Y1572781*
X1803000Y1573500D02*
X1811000D01*
X1807000Y1569500D02*
Y1577500D01*
X1810705Y1578000D02*
X1810591Y1578313D01*
X1810591D02*
X1810364Y1578625D01*
X1810136Y1578781*
X1809682*
X1809455Y1578625*
X1809227Y1578313*
X1809227D02*
X1809114Y1578000D01*
X1809000Y1577531*
Y1576750*
X1809114Y1576281*
X1809227Y1575969*
X1809455Y1575656*
X1809682Y1575500*
X1810136*
X1810364Y1575656*
X1810591Y1575969*
X1810705Y1576281*
X1803000Y1567402D02*
X1811000D01*
X1807000Y1563402D02*
Y1571402D01*
X1810705Y1571902D02*
X1810591Y1572214D01*
X1810364Y1572527*
X1810136Y1572683*
X1809682*
X1809455Y1572527*
X1809227Y1572214*
X1809114Y1571902*
X1809000Y1571433*
Y1570652*
X1809114Y1570183*
X1809227Y1569870*
X1809455Y1569558*
X1809682Y1569402*
X1810136*
X1810364Y1569558*
X1810591Y1569870*
X1810705Y1570183*
X1795500Y1562500D02*
X1803500D01*
X1799500Y1558500D02*
Y1566500D01*
X1803205Y1567000D02*
X1803091Y1567313D01*
X1803091D02*
X1802864Y1567625D01*
X1802636Y1567781*
X1802182*
X1801955Y1567625*
X1801727Y1567313*
X1801727D02*
X1801614Y1567000D01*
X1801500Y1566531*
Y1565750*
X1801614Y1565281*
X1801727Y1564969*
X1801955Y1564656*
X1802182Y1564500*
X1802636*
X1802864Y1564656*
X1803091Y1564969*
X1803205Y1565281*
X1791500Y1565500D02*
X1799500D01*
X1795500Y1561500D02*
Y1569500D01*
X1799205Y1570000D02*
X1799091Y1570313D01*
X1799091D02*
X1798864Y1570625D01*
X1798636Y1570781*
X1798182*
X1797955Y1570625*
X1797727Y1570313*
X1797727D02*
X1797614Y1570000D01*
X1797500Y1569531*
Y1568750*
X1797614Y1568281*
X1797727Y1567969*
X1797955Y1567656*
X1798182Y1567500*
X1798636*
X1798864Y1567656*
X1799091Y1567969*
X1799205Y1568281*
X1815500Y1573500D02*
X1823500D01*
X1819500Y1569500D02*
Y1577500D01*
X1823205Y1578000D02*
X1823091Y1578313D01*
X1823091D02*
X1822864Y1578625D01*
X1822636Y1578781*
X1822182*
X1821955Y1578625*
X1821727Y1578313*
X1821727D02*
X1821614Y1578000D01*
X1821500Y1577531*
Y1576750*
X1821614Y1576281*
X1821727Y1575969*
X1821955Y1575656*
X1822182Y1575500*
X1822636*
X1822864Y1575656*
X1823091Y1575969*
X1823205Y1576281*
X1815500Y1566500D02*
X1823500D01*
X1819500Y1562500D02*
Y1570500D01*
X1823205Y1571000D02*
X1823091Y1571313D01*
X1823091D02*
X1822864Y1571625D01*
X1822636Y1571781*
X1822182*
X1821955Y1571625*
X1821727Y1571313*
X1821727D02*
X1821614Y1571000D01*
X1821500Y1570531*
Y1569750*
X1821614Y1569281*
X1821727Y1568969*
X1821955Y1568656*
X1822182Y1568500*
X1822636*
X1822864Y1568656*
X1823091Y1568969*
X1823205Y1569281*
X1826500Y1564000D02*
X1834500D01*
X1830500Y1560000D02*
Y1568000D01*
X1834205Y1568500D02*
X1834091Y1568813D01*
X1834091D02*
X1833864Y1569125D01*
X1833636Y1569281*
X1833182*
X1832955Y1569125*
X1832727Y1568813*
X1832727D02*
X1832614Y1568500D01*
X1832500Y1568031*
Y1567250*
X1832614Y1566781*
X1832727Y1566469*
X1832955Y1566156*
X1833182Y1566000*
X1833636*
X1833864Y1566156*
X1834091Y1566469*
X1834205Y1566781*
X1880500Y1560000D02*
X1888500D01*
X1884500Y1556000D02*
Y1564000D01*
X1888205Y1564500D02*
X1888091Y1564813D01*
X1888091D02*
X1887864Y1565125D01*
X1887636Y1565281*
X1887182*
X1886955Y1565125*
X1886727Y1564813*
X1886727D02*
X1886614Y1564500D01*
X1886500Y1564031*
Y1563250*
X1886614Y1562781*
X1886727Y1562469*
X1886955Y1562156*
X1887182Y1562000*
X1887636*
X1887864Y1562156*
X1888091Y1562469*
X1888205Y1562781*
X1925500Y1560000D02*
X1933500D01*
X1929500Y1556000D02*
Y1564000D01*
X1933205Y1564500D02*
X1933091Y1564813D01*
X1933091D02*
X1932864Y1565125D01*
X1932636Y1565281*
X1932182*
X1931955Y1565125*
X1931727Y1564813*
X1931727D02*
X1931614Y1564500D01*
X1931500Y1564031*
Y1563250*
X1931614Y1562781*
X1931727Y1562469*
X1931955Y1562156*
X1932182Y1562000*
X1932636*
X1932864Y1562156*
X1933091Y1562469*
X1933205Y1562781*
X1751000Y1575000D02*
X1759000D01*
X1755000Y1571000D02*
Y1579000D01*
X1758705Y1579500D02*
X1758591Y1579813D01*
X1758591D02*
X1758364Y1580125D01*
X1758136Y1580281*
X1757682*
X1757455Y1580125*
X1757227Y1579813*
X1757227D02*
X1757114Y1579500D01*
X1757000Y1579031*
Y1578250*
X1757114Y1577781*
X1757227Y1577469*
X1757455Y1577156*
X1757682Y1577000*
X1758136*
X1758364Y1577156*
X1758591Y1577469*
X1758705Y1577781*
X1779500Y1583000D02*
X1787500D01*
X1783500Y1579000D02*
Y1587000D01*
X1787205Y1587500D02*
X1787091Y1587813D01*
X1787091D02*
X1786864Y1588125D01*
X1786636Y1588281*
X1786182*
X1785955Y1588125*
X1785727Y1587813*
X1785727D02*
X1785614Y1587500D01*
X1785500Y1587031*
Y1586250*
X1785614Y1585781*
X1785727Y1585469*
X1785955Y1585156*
X1786182Y1585000*
X1786636*
X1786864Y1585156*
X1787091Y1585469*
X1787205Y1585781*
X1782500Y1589000D02*
X1790500D01*
X1786500Y1585000D02*
Y1593000D01*
X1790205Y1593500D02*
X1790091Y1593813D01*
X1790091D02*
X1789864Y1594125D01*
X1789636Y1594281*
X1789182*
X1788955Y1594125*
X1788727Y1593813*
X1788727D02*
X1788614Y1593500D01*
X1788500Y1593031*
Y1592250*
X1788614Y1591781*
X1788727Y1591469*
X1788955Y1591156*
X1789182Y1591000*
X1789636*
X1789864Y1591156*
X1790091Y1591469*
X1790205Y1591781*
X1769500Y1583000D02*
X1777500D01*
X1773500Y1579000D02*
Y1587000D01*
X1777205Y1587500D02*
X1777091Y1587813D01*
X1777091D02*
X1776864Y1588125D01*
X1776636Y1588281*
X1776182*
X1775955Y1588125*
X1775727Y1587813*
X1775727D02*
X1775614Y1587500D01*
X1775500Y1587031*
Y1586250*
X1775614Y1585781*
X1775727Y1585469*
X1775955Y1585156*
X1776182Y1585000*
X1776636*
X1776864Y1585156*
X1777091Y1585469*
X1777205Y1585781*
X1776000Y1589000D02*
X1784000D01*
X1780000Y1585000D02*
Y1593000D01*
X1782000Y1594281D02*
Y1591000D01*
Y1594281D02*
X1782795D01*
X1783136Y1594125*
X1783364Y1593813*
X1783364D02*
X1783477Y1593500D01*
X1783591Y1593031*
Y1592250*
X1783477Y1591781*
X1783364Y1591469*
X1783136Y1591156*
X1782795Y1591000*
X1782000*
X1827500Y1587000D02*
X1835500D01*
X1831500Y1583000D02*
Y1591000D01*
X1835205Y1591500D02*
X1835091Y1591813D01*
X1835091D02*
X1834864Y1592125D01*
X1834636Y1592281*
X1834182*
X1833955Y1592125*
X1833727Y1591813*
X1833727D02*
X1833614Y1591500D01*
X1833500Y1591031*
Y1590250*
X1833614Y1589781*
X1833727Y1589469*
X1833955Y1589156*
X1834182Y1589000*
X1834636*
X1834864Y1589156*
X1835091Y1589469*
X1835205Y1589781*
X1865500Y1591000D02*
X1873500D01*
X1869500Y1587000D02*
Y1595000D01*
X1871500Y1596281D02*
Y1593000D01*
Y1596281D02*
X1872295D01*
X1872636Y1596125*
X1872864Y1595813*
X1872864D02*
X1872977Y1595500D01*
X1873091Y1595031*
Y1594250*
X1872977Y1593781*
X1872864Y1593469*
X1872636Y1593156*
X1872295Y1593000*
X1871500*
X1875500Y1591000D02*
X1883500D01*
X1879500Y1587000D02*
Y1595000D01*
X1883205Y1595500D02*
X1883091Y1595813D01*
X1883091D02*
X1882864Y1596125D01*
X1882636Y1596281*
X1882182*
X1881955Y1596125*
X1881727Y1595813*
X1881727D02*
X1881614Y1595500D01*
X1881500Y1595031*
Y1594250*
X1881614Y1593781*
X1881727Y1593469*
X1881955Y1593156*
X1882182Y1593000*
X1882636*
X1882864Y1593156*
X1883091Y1593469*
X1883205Y1593781*
X1906000Y1578000D02*
X1914000D01*
X1910000Y1574000D02*
Y1582000D01*
X1913705Y1582500D02*
X1913591Y1582813D01*
X1913591D02*
X1913364Y1583125D01*
X1913136Y1583281*
X1912682*
X1912455Y1583125*
X1912227Y1582813*
X1912227D02*
X1912114Y1582500D01*
X1912000Y1582031*
Y1581250*
X1912114Y1580781*
X1912227Y1580469*
X1912455Y1580156*
X1912682Y1580000*
X1913136*
X1913364Y1580156*
X1913591Y1580469*
X1913705Y1580781*
X1941000Y1576000D02*
X1949000D01*
X1945000Y1572000D02*
Y1580000D01*
X1948705Y1580500D02*
X1948591Y1580813D01*
X1948591D02*
X1948364Y1581125D01*
X1948136Y1581281*
X1947682*
X1947455Y1581125*
X1947227Y1580813*
X1947227D02*
X1947114Y1580500D01*
X1947000Y1580031*
Y1579250*
X1947114Y1578781*
X1947227Y1578469*
X1947455Y1578156*
X1947682Y1578000*
X1948136*
X1948364Y1578156*
X1948591Y1578469*
X1948705Y1578781*
X1951000Y1580500D02*
X1959000D01*
X1955000Y1576500D02*
Y1584500D01*
X1958705Y1585000D02*
X1958591Y1585313D01*
X1958591D02*
X1958364Y1585625D01*
X1958136Y1585781*
X1957682*
X1957455Y1585625*
X1957227Y1585313*
X1957227D02*
X1957114Y1585000D01*
X1957000Y1584531*
Y1583750*
X1957114Y1583281*
X1957227Y1582969*
X1957455Y1582656*
X1957682Y1582500*
X1958136*
X1958364Y1582656*
X1958591Y1582969*
X1958705Y1583281*
X1764000Y1609000D02*
X1772000D01*
X1768000Y1605000D02*
Y1613000D01*
X1771705Y1613500D02*
X1771591Y1613813D01*
X1771591D02*
X1771364Y1614125D01*
X1771136Y1614281*
X1770682*
X1770455Y1614125*
X1770227Y1613813*
X1770227D02*
X1770114Y1613500D01*
X1770000Y1613031*
Y1612250*
X1770114Y1611781*
X1770227Y1611469*
X1770455Y1611156*
X1770682Y1611000*
X1771136*
X1771364Y1611156*
X1771591Y1611469*
X1771705Y1611781*
X1786000Y1597500D02*
X1794000D01*
X1790000Y1593500D02*
Y1601500D01*
X1793705Y1602000D02*
X1793591Y1602313D01*
X1793591D02*
X1793364Y1602625D01*
X1793136Y1602781*
X1792682*
X1792455Y1602625*
X1792227Y1602313*
X1792227D02*
X1792114Y1602000D01*
X1792000Y1601531*
Y1600750*
X1792114Y1600281*
X1792227Y1599969*
X1792455Y1599656*
X1792682Y1599500*
X1793136*
X1793364Y1599656*
X1793591Y1599969*
X1793705Y1600281*
X1816000Y1609500D02*
X1824000D01*
X1820000Y1605500D02*
Y1613500D01*
X1823705Y1614000D02*
X1823591Y1614313D01*
X1823591D02*
X1823364Y1614625D01*
X1823136Y1614781*
X1822682*
X1822455Y1614625*
X1822227Y1614313*
X1822227D02*
X1822114Y1614000D01*
X1822000Y1613531*
Y1612750*
X1822114Y1612281*
X1822227Y1611969*
X1822455Y1611656*
X1822682Y1611500*
X1823136*
X1823364Y1611656*
X1823591Y1611969*
X1823705Y1612281*
X1832000Y1595000D02*
X1840000D01*
X1836000Y1591000D02*
Y1599000D01*
X1839705Y1599500D02*
X1839591Y1599813D01*
X1839591D02*
X1839364Y1600125D01*
X1839136Y1600281*
X1838682*
X1838455Y1600125*
X1838227Y1599813*
X1838227D02*
X1838114Y1599500D01*
X1838000Y1599031*
Y1598250*
X1838114Y1597781*
X1838227Y1597469*
X1838455Y1597156*
X1838682Y1597000*
X1839136*
X1839364Y1597156*
X1839591Y1597469*
X1839705Y1597781*
X1862500Y1603500D02*
X1870500D01*
X1866500Y1599500D02*
Y1607500D01*
X1868500Y1608781D02*
Y1605500D01*
Y1608781D02*
X1869295D01*
X1869636Y1608625*
X1869864Y1608313*
X1869864D02*
X1869977Y1608000D01*
X1870091Y1607531*
Y1606750*
X1869977Y1606281*
X1869864Y1605969*
X1869636Y1605656*
X1869295Y1605500*
X1868500*
X1858000Y1595000D02*
X1866000D01*
X1862000Y1591000D02*
Y1599000D01*
X1864000Y1600281D02*
Y1597000D01*
Y1600281D02*
X1864795D01*
X1865136Y1600125*
X1865364Y1599813*
X1865364D02*
X1865477Y1599500D01*
X1865591Y1599031*
Y1598250*
X1865477Y1597781*
X1865364Y1597469*
X1865136Y1597156*
X1864795Y1597000*
X1864000*
X1854000Y1595000D02*
X1862000D01*
X1858000Y1591000D02*
Y1599000D01*
X1860000Y1600281D02*
Y1597000D01*
Y1600281D02*
X1860795D01*
X1861136Y1600125*
X1861364Y1599813*
X1861364D02*
X1861477Y1599500D01*
X1861591Y1599031*
Y1598250*
X1861477Y1597781*
X1861364Y1597469*
X1861136Y1597156*
X1860795Y1597000*
X1860000*
X1854000Y1599000D02*
X1862000D01*
X1858000Y1595000D02*
Y1603000D01*
X1860000Y1604281D02*
Y1601000D01*
Y1604281D02*
X1860795D01*
X1861136Y1604125*
X1861364Y1603813*
X1861364D02*
X1861477Y1603500D01*
X1861591Y1603031*
Y1602250*
X1861477Y1601781*
X1861364Y1601469*
X1861136Y1601156*
X1860795Y1601000*
X1860000*
X1858000Y1599000D02*
X1866000D01*
X1862000Y1595000D02*
Y1603000D01*
X1864000Y1604281D02*
Y1601000D01*
Y1604281D02*
X1864795D01*
X1865136Y1604125*
X1865364Y1603813*
X1865364D02*
X1865477Y1603500D01*
X1865591Y1603031*
Y1602250*
X1865477Y1601781*
X1865364Y1601469*
X1865136Y1601156*
X1864795Y1601000*
X1864000*
X1862500Y1599000D02*
X1870500D01*
X1866500Y1595000D02*
Y1603000D01*
X1868500Y1604281D02*
Y1601000D01*
Y1604281D02*
X1869295D01*
X1869636Y1604125*
X1869864Y1603813*
X1869864D02*
X1869977Y1603500D01*
X1870091Y1603031*
Y1602250*
X1869977Y1601781*
X1869864Y1601469*
X1869636Y1601156*
X1869295Y1601000*
X1868500*
X1848000Y1601500D02*
X1856000D01*
X1852000Y1597500D02*
Y1605500D01*
X1854000Y1606781D02*
Y1603500D01*
Y1606781D02*
X1854795D01*
X1855136Y1606625*
X1855364Y1606313*
X1855364D02*
X1855477Y1606000D01*
X1855591Y1605531*
Y1604750*
X1855477Y1604281*
X1855364Y1603969*
X1855136Y1603656*
X1854795Y1603500*
X1854000*
X1858000D02*
X1866000D01*
X1862000Y1599500D02*
Y1607500D01*
X1864000Y1608781D02*
Y1605500D01*
Y1608781D02*
X1864795D01*
X1865136Y1608625*
X1865364Y1608313*
X1865364D02*
X1865477Y1608000D01*
X1865591Y1607531*
Y1606750*
X1865477Y1606281*
X1865364Y1605969*
X1865136Y1605656*
X1864795Y1605500*
X1864000*
X1854000Y1603500D02*
X1862000D01*
X1858000Y1599500D02*
Y1607500D01*
X1860000Y1608781D02*
Y1605500D01*
Y1608781D02*
X1860795D01*
X1861136Y1608625*
X1861364Y1608313*
X1861364D02*
X1861477Y1608000D01*
X1861591Y1607531*
Y1606750*
X1861477Y1606281*
X1861364Y1605969*
X1861136Y1605656*
X1860795Y1605500*
X1860000*
X1866500Y1599000D02*
X1874500D01*
X1870500Y1595000D02*
Y1603000D01*
X1872500Y1604281D02*
Y1601000D01*
Y1604281D02*
X1873295D01*
X1873636Y1604125*
X1873864Y1603813*
X1873864D02*
X1873977Y1603500D01*
X1874091Y1603031*
Y1602250*
X1873977Y1601781*
X1873864Y1601469*
X1873636Y1601156*
X1873295Y1601000*
X1872500*
X1866500Y1603500D02*
X1874500D01*
X1870500Y1599500D02*
Y1607500D01*
X1872500Y1608781D02*
Y1605500D01*
Y1608781D02*
X1873295D01*
X1873636Y1608625*
X1873864Y1608313*
X1873864D02*
X1873977Y1608000D01*
X1874091Y1607531*
Y1606750*
X1873977Y1606281*
X1873864Y1605969*
X1873636Y1605656*
X1873295Y1605500*
X1872500*
X1896500Y1599500D02*
X1904500D01*
X1900500Y1595500D02*
Y1603500D01*
X1904205Y1604000D02*
X1904091Y1604313D01*
X1904091D02*
X1903864Y1604625D01*
X1903636Y1604781*
X1903182*
X1902955Y1604625*
X1902727Y1604313*
X1902727D02*
X1902614Y1604000D01*
X1902500Y1603531*
Y1602750*
X1902614Y1602281*
X1902727Y1601969*
X1902955Y1601656*
X1903182Y1601500*
X1903636*
X1903864Y1601656*
X1904091Y1601969*
X1904205Y1602281*
X1942500Y1595000D02*
X1950500D01*
X1946500Y1591000D02*
Y1599000D01*
X1950205Y1599500D02*
X1950091Y1599813D01*
X1950091D02*
X1949864Y1600125D01*
X1949636Y1600281*
X1949182*
X1948955Y1600125*
X1948727Y1599813*
X1948727D02*
X1948614Y1599500D01*
X1948500Y1599031*
Y1598250*
X1948614Y1597781*
X1948727Y1597469*
X1948955Y1597156*
X1949182Y1597000*
X1949636*
X1949864Y1597156*
X1950091Y1597469*
X1950205Y1597781*
X1958000Y1605000D02*
X1966000D01*
X1962000Y1601000D02*
Y1609000D01*
X1965705Y1609500D02*
X1965591Y1609813D01*
X1965591D02*
X1965364Y1610125D01*
X1965136Y1610281*
X1964682*
X1964455Y1610125*
X1964227Y1609813*
X1964227D02*
X1964114Y1609500D01*
X1964000Y1609031*
Y1608250*
X1964114Y1607781*
X1964227Y1607469*
X1964455Y1607156*
X1964682Y1607000*
X1965136*
X1965364Y1607156*
X1965591Y1607469*
X1965705Y1607781*
X1570500Y1620020D02*
X1578500D01*
X1574500Y1616020D02*
Y1624020D01*
X1578205Y1624520D02*
X1578091Y1624832D01*
X1577864Y1625145*
X1577636Y1625301*
X1577182*
X1576955Y1625145*
X1576727Y1624832*
X1576614Y1624520*
X1576500Y1624051*
Y1623270*
X1576614Y1622801*
X1576727Y1622488*
X1576955Y1622176*
X1577182Y1622020*
X1577636*
X1577864Y1622176*
X1578091Y1622488*
X1578205Y1622801*
X1681500Y1624500D02*
X1689500D01*
X1685500Y1620500D02*
Y1628500D01*
X1689205Y1629000D02*
X1689091Y1629313D01*
X1689091D02*
X1688864Y1629625D01*
X1688636Y1629781*
X1688182*
X1687955Y1629625*
X1687727Y1629313*
X1687727D02*
X1687614Y1629000D01*
X1687500Y1628531*
Y1627750*
X1687614Y1627281*
X1687727Y1626969*
X1687955Y1626656*
X1688182Y1626500*
X1688636*
X1688864Y1626656*
X1689091Y1626969*
X1689205Y1627281*
X1684500Y1627500D02*
X1692500D01*
X1688500Y1623500D02*
Y1631500D01*
X1692205Y1632000D02*
X1692091Y1632313D01*
X1692091D02*
X1691864Y1632625D01*
X1691636Y1632781*
X1691182*
X1690955Y1632625*
X1690727Y1632313*
X1690727D02*
X1690614Y1632000D01*
X1690500Y1631531*
Y1630750*
X1690614Y1630281*
X1690727Y1629969*
X1690955Y1629656*
X1691182Y1629500*
X1691636*
X1691864Y1629656*
X1692091Y1629969*
X1692205Y1630281*
X1688500Y1620000D02*
X1696500D01*
X1692500Y1616000D02*
Y1624000D01*
X1696205Y1624500D02*
X1696091Y1624813D01*
X1696091D02*
X1695864Y1625125D01*
X1695636Y1625281*
X1695182*
X1694955Y1625125*
X1694727Y1624813*
X1694727D02*
X1694614Y1624500D01*
X1694500Y1624031*
Y1623250*
X1694614Y1622781*
X1694727Y1622469*
X1694955Y1622156*
X1695182Y1622000*
X1695636*
X1695864Y1622156*
X1696091Y1622469*
X1696205Y1622781*
X1790500Y1622000D02*
X1798500D01*
X1794500Y1618000D02*
Y1626000D01*
X1798205Y1626500D02*
X1798091Y1626813D01*
X1798091D02*
X1797864Y1627125D01*
X1797636Y1627281*
X1797182*
X1796955Y1627125*
X1796727Y1626813*
X1796727D02*
X1796614Y1626500D01*
X1796500Y1626031*
Y1625250*
X1796614Y1624781*
X1796727Y1624469*
X1796955Y1624156*
X1797182Y1624000*
X1797636*
X1797864Y1624156*
X1798091Y1624469*
X1798205Y1624781*
X1806500Y1618000D02*
X1814500D01*
X1810500Y1614000D02*
Y1622000D01*
X1814205Y1622500D02*
X1814091Y1622813D01*
X1814091D02*
X1813864Y1623125D01*
X1813636Y1623281*
X1813182*
X1812955Y1623125*
X1812727Y1622813*
X1812727D02*
X1812614Y1622500D01*
X1812500Y1622031*
Y1621250*
X1812614Y1620781*
X1812727Y1620469*
X1812955Y1620156*
X1813182Y1620000*
X1813636*
X1813864Y1620156*
X1814091Y1620469*
X1814205Y1620781*
X1921000Y1616000D02*
X1929000D01*
X1925000Y1612000D02*
Y1620000D01*
X1927000Y1621281D02*
Y1618000D01*
Y1621281D02*
X1927795D01*
X1928136Y1621125*
X1928364Y1620813*
X1928364D02*
X1928477Y1620500D01*
X1928591Y1620031*
Y1619250*
X1928477Y1618781*
X1928364Y1618469*
X1928136Y1618156*
X1927795Y1618000*
X1927000*
X1921500Y1622500D02*
X1929500D01*
X1925500Y1618500D02*
Y1626500D01*
X1929205Y1627000D02*
X1929091Y1627313D01*
X1929091D02*
X1928864Y1627625D01*
X1928636Y1627781*
X1928182*
X1927955Y1627625*
X1927727Y1627313*
X1927727D02*
X1927614Y1627000D01*
X1927500Y1626531*
Y1625750*
X1927614Y1625281*
X1927727Y1624969*
X1927955Y1624656*
X1928182Y1624500*
X1928636*
X1928864Y1624656*
X1929091Y1624969*
X1929205Y1625281*
X1911000Y1629500D02*
X1919000D01*
X1915000Y1625500D02*
Y1633500D01*
X1918705Y1634000D02*
X1918591Y1634313D01*
X1918591D02*
X1918364Y1634625D01*
X1918136Y1634781*
X1917682*
X1917455Y1634625*
X1917227Y1634313*
X1917227D02*
X1917114Y1634000D01*
X1917000Y1633531*
Y1632750*
X1917114Y1632281*
X1917227Y1631969*
X1917455Y1631656*
X1917682Y1631500*
X1918136*
X1918364Y1631656*
X1918591Y1631969*
X1918705Y1632281*
X1921000Y1628000D02*
X1929000D01*
X1925000Y1624000D02*
Y1632000D01*
X1928705Y1632500D02*
X1928591Y1632813D01*
X1928591D02*
X1928364Y1633125D01*
X1928136Y1633281*
X1927682*
X1927455Y1633125*
X1927227Y1632813*
X1927227D02*
X1927114Y1632500D01*
X1927000Y1632031*
Y1631250*
X1927114Y1630781*
X1927227Y1630469*
X1927455Y1630156*
X1927682Y1630000*
X1928136*
X1928364Y1630156*
X1928591Y1630469*
X1928705Y1630781*
X1925500Y1619000D02*
X1933500D01*
X1929500Y1615000D02*
Y1623000D01*
X1933205Y1623500D02*
X1933091Y1623813D01*
X1933091D02*
X1932864Y1624125D01*
X1932636Y1624281*
X1932182*
X1931955Y1624125*
X1931727Y1623813*
X1931727D02*
X1931614Y1623500D01*
X1931500Y1623031*
Y1622250*
X1931614Y1621781*
X1931727Y1621469*
X1931955Y1621156*
X1932182Y1621000*
X1932636*
X1932864Y1621156*
X1933091Y1621469*
X1933205Y1621781*
X1999020Y1631000D02*
X2007020D01*
X2003020Y1627000D02*
Y1635000D01*
X2006724Y1635500D02*
X2006611Y1635813D01*
X2006611D02*
X2006383Y1636125D01*
X2006156Y1636281*
X2005702*
X2005474Y1636125*
X2005247Y1635813*
X2005247D02*
X2005133Y1635500D01*
X2005020Y1635031*
Y1634250*
X2005133Y1633781*
X2005247Y1633469*
X2005474Y1633156*
X2005702Y1633000*
X2006156*
X2006383Y1633156*
X2006611Y1633469*
X2006724Y1633781*
X1627260Y1643000D02*
X1635260D01*
X1631260Y1639000D02*
Y1647000D01*
X1634964Y1647500D02*
X1634851Y1647813D01*
X1634851D02*
X1634623Y1648125D01*
X1634396Y1648281*
X1633942*
X1633714Y1648125*
X1633487Y1647813*
X1633487D02*
X1633373Y1647500D01*
X1633260Y1647031*
Y1646250*
X1633373Y1645781*
X1633487Y1645469*
X1633714Y1645156*
X1633942Y1645000*
X1634396*
X1634623Y1645156*
X1634851Y1645469*
X1634964Y1645781*
X1697500Y1653000D02*
X1705500D01*
X1701500Y1649000D02*
Y1657000D01*
X1705205Y1657500D02*
X1705091Y1657813D01*
X1705091D02*
X1704864Y1658125D01*
X1704636Y1658281*
X1704182*
X1703955Y1658125*
X1703727Y1657813*
X1703727D02*
X1703614Y1657500D01*
X1703500Y1657031*
Y1656250*
X1703614Y1655781*
X1703727Y1655469*
X1703955Y1655156*
X1704182Y1655000*
X1704636*
X1704864Y1655156*
X1705091Y1655469*
X1705205Y1655781*
X1706500Y1635500D02*
X1714500D01*
X1710500Y1631500D02*
Y1639500D01*
X1714205Y1640000D02*
X1714091Y1640313D01*
X1714091D02*
X1713864Y1640625D01*
X1713636Y1640781*
X1713182*
X1712955Y1640625*
X1712727Y1640313*
X1712727D02*
X1712614Y1640000D01*
X1712500Y1639531*
Y1638750*
X1712614Y1638281*
X1712727Y1637969*
X1712955Y1637656*
X1713182Y1637500*
X1713636*
X1713864Y1637656*
X1714091Y1637969*
X1714205Y1638281*
X1709500Y1640000D02*
X1717500D01*
X1713500Y1636000D02*
Y1644000D01*
X1717205Y1644500D02*
X1717091Y1644813D01*
X1717091D02*
X1716864Y1645125D01*
X1716636Y1645281*
X1716182*
X1715955Y1645125*
X1715727Y1644813*
X1715727D02*
X1715614Y1644500D01*
X1715500Y1644031*
Y1643250*
X1715614Y1642781*
X1715727Y1642469*
X1715955Y1642156*
X1716182Y1642000*
X1716636*
X1716864Y1642156*
X1717091Y1642469*
X1717205Y1642781*
X1759000Y1635000D02*
X1767000D01*
X1763000Y1631000D02*
Y1639000D01*
X1766705Y1639500D02*
X1766591Y1639813D01*
X1766591D02*
X1766364Y1640125D01*
X1766136Y1640281*
X1765682*
X1765455Y1640125*
X1765227Y1639813*
X1765227D02*
X1765114Y1639500D01*
X1765000Y1639031*
Y1638250*
X1765114Y1637781*
X1765227Y1637469*
X1765455Y1637156*
X1765682Y1637000*
X1766136*
X1766364Y1637156*
X1766591Y1637469*
X1766705Y1637781*
X1747500Y1646500D02*
X1755500D01*
X1751500Y1642500D02*
Y1650500D01*
X1755205Y1651000D02*
X1755091Y1651313D01*
X1755091D02*
X1754864Y1651625D01*
X1754636Y1651781*
X1754182*
X1753955Y1651625*
X1753727Y1651313*
X1753727D02*
X1753614Y1651000D01*
X1753500Y1650531*
Y1649750*
X1753614Y1649281*
X1753727Y1648969*
X1753955Y1648656*
X1754182Y1648500*
X1754636*
X1754864Y1648656*
X1755091Y1648969*
X1755205Y1649281*
X1644500Y1657500D02*
X1652500D01*
X1648500Y1653500D02*
Y1661500D01*
X1652205Y1662000D02*
X1652091Y1662313D01*
X1652091D02*
X1651864Y1662625D01*
X1651636Y1662781*
X1651182*
X1650955Y1662625*
X1650727Y1662313*
X1650727D02*
X1650614Y1662000D01*
X1650500Y1661531*
Y1660750*
X1650614Y1660281*
X1650727Y1659969*
X1650955Y1659656*
X1651182Y1659500*
X1651636*
X1651864Y1659656*
X1652091Y1659969*
X1652205Y1660281*
X1642000Y1661000D02*
X1650000D01*
X1646000Y1657000D02*
Y1665000D01*
X1649705Y1665500D02*
X1649591Y1665813D01*
X1649591D02*
X1649364Y1666125D01*
X1649136Y1666281*
X1648682*
X1648455Y1666125*
X1648227Y1665813*
X1648227D02*
X1648114Y1665500D01*
X1648000Y1665031*
Y1664250*
X1648114Y1663781*
X1648227Y1663469*
X1648455Y1663156*
X1648682Y1663000*
X1649136*
X1649364Y1663156*
X1649591Y1663469*
X1649705Y1663781*
X1653500Y1662500D02*
X1661500D01*
X1657500Y1658500D02*
Y1666500D01*
X1659500Y1667781D02*
Y1664500D01*
Y1667781D02*
X1660295D01*
X1660636Y1667625*
X1660864Y1667313*
X1660864D02*
X1660977Y1667000D01*
X1661091Y1666531*
Y1665750*
X1660977Y1665281*
X1660864Y1664969*
X1660636Y1664656*
X1660295Y1664500*
X1659500*
X1672000Y1666500D02*
X1680000D01*
X1676000Y1662500D02*
Y1670500D01*
X1679705Y1671000D02*
X1679591Y1671313D01*
X1679591D02*
X1679364Y1671625D01*
X1679136Y1671781*
X1678682*
X1678455Y1671625*
X1678227Y1671313*
X1678227D02*
X1678114Y1671000D01*
X1678000Y1670531*
Y1669750*
X1678114Y1669281*
X1678227Y1668969*
X1678455Y1668656*
X1678682Y1668500*
X1679136*
X1679364Y1668656*
X1679591Y1668969*
X1679705Y1669281*
X1683000Y1665000D02*
X1691000D01*
X1687000Y1661000D02*
Y1669000D01*
X1690705Y1669500D02*
X1690591Y1669813D01*
X1690591D02*
X1690364Y1670125D01*
X1690136Y1670281*
X1689682*
X1689455Y1670125*
X1689227Y1669813*
X1689227D02*
X1689114Y1669500D01*
X1689000Y1669031*
Y1668250*
X1689114Y1667781*
X1689227Y1667469*
X1689455Y1667156*
X1689682Y1667000*
X1690136*
X1690364Y1667156*
X1690591Y1667469*
X1690705Y1667781*
X1680000Y1667500D02*
X1688000D01*
X1684000Y1663500D02*
Y1671500D01*
X1687705Y1672000D02*
X1687591Y1672313D01*
X1687591D02*
X1687364Y1672625D01*
X1687136Y1672781*
X1686682*
X1686455Y1672625*
X1686227Y1672313*
X1686227D02*
X1686114Y1672000D01*
X1686000Y1671531*
Y1670750*
X1686114Y1670281*
X1686227Y1669969*
X1686455Y1669656*
X1686682Y1669500*
X1687136*
X1687364Y1669656*
X1687591Y1669969*
X1687705Y1670281*
X1699000Y1661000D02*
X1707000D01*
X1703000Y1657000D02*
Y1665000D01*
X1706705Y1665500D02*
X1706591Y1665813D01*
X1706591D02*
X1706364Y1666125D01*
X1706136Y1666281*
X1705682*
X1705455Y1666125*
X1705227Y1665813*
X1705227D02*
X1705114Y1665500D01*
X1705000Y1665031*
Y1664250*
X1705114Y1663781*
X1705227Y1663469*
X1705455Y1663156*
X1705682Y1663000*
X1706136*
X1706364Y1663156*
X1706591Y1663469*
X1706705Y1663781*
X1695500Y1658500D02*
X1703500D01*
X1699500Y1654500D02*
Y1662500D01*
X1703205Y1663000D02*
X1703091Y1663313D01*
X1703091D02*
X1702864Y1663625D01*
X1702636Y1663781*
X1702182*
X1701955Y1663625*
X1701727Y1663313*
X1701727D02*
X1701614Y1663000D01*
X1701500Y1662531*
Y1661750*
X1701614Y1661281*
X1701727Y1660969*
X1701955Y1660656*
X1702182Y1660500*
X1702636*
X1702864Y1660656*
X1703091Y1660969*
X1703205Y1661281*
X1685000Y1661500D02*
X1693000D01*
X1689000Y1657500D02*
Y1665500D01*
X1692705Y1666000D02*
X1692591Y1666313D01*
X1692591D02*
X1692364Y1666625D01*
X1692136Y1666781*
X1691682*
X1691455Y1666625*
X1691227Y1666313*
X1691227D02*
X1691114Y1666000D01*
X1691000Y1665531*
Y1664750*
X1691114Y1664281*
X1691227Y1663969*
X1691455Y1663656*
X1691682Y1663500*
X1692136*
X1692364Y1663656*
X1692591Y1663969*
X1692705Y1664281*
X1713500Y1658000D02*
X1721500D01*
X1717500Y1654000D02*
Y1662000D01*
X1721205Y1662500D02*
X1721091Y1662813D01*
X1721091D02*
X1720864Y1663125D01*
X1720636Y1663281*
X1720182*
X1719955Y1663125*
X1719727Y1662813*
X1719727D02*
X1719614Y1662500D01*
X1719500Y1662031*
Y1661250*
X1719614Y1660781*
X1719727Y1660469*
X1719955Y1660156*
X1720182Y1660000*
X1720636*
X1720864Y1660156*
X1721091Y1660469*
X1721205Y1660781*
X1721000Y1673500D02*
X1729000D01*
X1725000Y1669500D02*
Y1677500D01*
X1727000Y1678781D02*
Y1675500D01*
Y1678781D02*
X1727795D01*
X1728136Y1678625*
X1728364Y1678313*
X1728364D02*
X1728477Y1678000D01*
X1728591Y1677531*
Y1676750*
X1728477Y1676281*
X1728364Y1675969*
X1728136Y1675656*
X1727795Y1675500*
X1727000*
X1729000Y1661000D02*
X1737000D01*
X1733000Y1657000D02*
Y1665000D01*
X1736705Y1665500D02*
X1736591Y1665813D01*
X1736591D02*
X1736364Y1666125D01*
X1736136Y1666281*
X1735682*
X1735455Y1666125*
X1735227Y1665813*
X1735227D02*
X1735114Y1665500D01*
X1735000Y1665031*
Y1664250*
X1735114Y1663781*
X1735227Y1663469*
X1735455Y1663156*
X1735682Y1663000*
X1736136*
X1736364Y1663156*
X1736591Y1663469*
X1736705Y1663781*
X1740000Y1664500D02*
X1748000D01*
X1744000Y1660500D02*
Y1668500D01*
X1747705Y1669000D02*
X1747591Y1669313D01*
X1747591D02*
X1747364Y1669625D01*
X1747136Y1669781*
X1746682*
X1746455Y1669625*
X1746227Y1669313*
X1746227D02*
X1746114Y1669000D01*
X1746000Y1668531*
Y1667750*
X1746114Y1667281*
X1746227Y1666969*
X1746455Y1666656*
X1746682Y1666500*
X1747136*
X1747364Y1666656*
X1747591Y1666969*
X1747705Y1667281*
X1773500Y1671500D02*
X1781500D01*
X1777500Y1667500D02*
Y1675500D01*
X1781205Y1676000D02*
X1781091Y1676313D01*
X1781091D02*
X1780864Y1676625D01*
X1780636Y1676781*
X1780182*
X1779955Y1676625*
X1779727Y1676313*
X1779727D02*
X1779614Y1676000D01*
X1779500Y1675531*
Y1674750*
X1779614Y1674281*
X1779727Y1673969*
X1779955Y1673656*
X1780182Y1673500*
X1780636*
X1780864Y1673656*
X1781091Y1673969*
X1781205Y1674281*
X1788500Y1671500D02*
X1796500D01*
X1792500Y1667500D02*
Y1675500D01*
X1796205Y1676000D02*
X1796091Y1676313D01*
X1796091D02*
X1795864Y1676625D01*
X1795636Y1676781*
X1795182*
X1794955Y1676625*
X1794727Y1676313*
X1794727D02*
X1794614Y1676000D01*
X1794500Y1675531*
Y1674750*
X1794614Y1674281*
X1794727Y1673969*
X1794955Y1673656*
X1795182Y1673500*
X1795636*
X1795864Y1673656*
X1796091Y1673969*
X1796205Y1674281*
X1808500Y1671500D02*
X1816500D01*
X1812500Y1667500D02*
Y1675500D01*
X1816205Y1676000D02*
X1816091Y1676313D01*
X1816091D02*
X1815864Y1676625D01*
X1815636Y1676781*
X1815182*
X1814955Y1676625*
X1814727Y1676313*
X1814727D02*
X1814614Y1676000D01*
X1814500Y1675531*
Y1674750*
X1814614Y1674281*
X1814727Y1673969*
X1814955Y1673656*
X1815182Y1673500*
X1815636*
X1815864Y1673656*
X1816091Y1673969*
X1816205Y1674281*
X1806500Y1658000D02*
X1814500D01*
X1810500Y1654000D02*
Y1662000D01*
X1814205Y1662500D02*
X1814091Y1662813D01*
X1814091D02*
X1813864Y1663125D01*
X1813636Y1663281*
X1813182*
X1812955Y1663125*
X1812727Y1662813*
X1812727D02*
X1812614Y1662500D01*
X1812500Y1662031*
Y1661250*
X1812614Y1660781*
X1812727Y1660469*
X1812955Y1660156*
X1813182Y1660000*
X1813636*
X1813864Y1660156*
X1814091Y1660469*
X1814205Y1660781*
X1835000Y1662500D02*
X1843000D01*
X1839000Y1658500D02*
Y1666500D01*
X1842705Y1667000D02*
X1842591Y1667313D01*
X1842591D02*
X1842364Y1667625D01*
X1842136Y1667781*
X1841682*
X1841455Y1667625*
X1841227Y1667313*
X1841227D02*
X1841114Y1667000D01*
X1841000Y1666531*
Y1665750*
X1841114Y1665281*
X1841227Y1664969*
X1841455Y1664656*
X1841682Y1664500*
X1842136*
X1842364Y1664656*
X1842591Y1664969*
X1842705Y1665281*
X1858500Y1671000D02*
X1866500D01*
X1862500Y1667000D02*
Y1675000D01*
X1866205Y1675500D02*
X1866091Y1675813D01*
X1866091D02*
X1865864Y1676125D01*
X1865636Y1676281*
X1865182*
X1864955Y1676125*
X1864727Y1675813*
X1864727D02*
X1864614Y1675500D01*
X1864500Y1675031*
Y1674250*
X1864614Y1673781*
X1864727Y1673469*
X1864955Y1673156*
X1865182Y1673000*
X1865636*
X1865864Y1673156*
X1866091Y1673469*
X1866205Y1673781*
X1851000Y1671500D02*
X1859000D01*
X1855000Y1667500D02*
Y1675500D01*
X1858705Y1676000D02*
X1858591Y1676313D01*
X1858591D02*
X1858364Y1676625D01*
X1858136Y1676781*
X1857682*
X1857455Y1676625*
X1857227Y1676313*
X1857227D02*
X1857114Y1676000D01*
X1857000Y1675531*
Y1674750*
X1857114Y1674281*
X1857227Y1673969*
X1857455Y1673656*
X1857682Y1673500*
X1858136*
X1858364Y1673656*
X1858591Y1673969*
X1858705Y1674281*
X1876000Y1671000D02*
X1884000D01*
X1880000Y1667000D02*
Y1675000D01*
X1883705Y1675500D02*
X1883591Y1675813D01*
X1883591D02*
X1883364Y1676125D01*
X1883136Y1676281*
X1882682*
X1882455Y1676125*
X1882227Y1675813*
X1882227D02*
X1882114Y1675500D01*
X1882000Y1675031*
Y1674250*
X1882114Y1673781*
X1882227Y1673469*
X1882455Y1673156*
X1882682Y1673000*
X1883136*
X1883364Y1673156*
X1883591Y1673469*
X1883705Y1673781*
X1684000Y1681000D02*
X1692000D01*
X1688000Y1677000D02*
Y1685000D01*
X1691705Y1685500D02*
X1691591Y1685813D01*
X1691591D02*
X1691364Y1686125D01*
X1691136Y1686281*
X1690682*
X1690455Y1686125*
X1690227Y1685813*
X1690227D02*
X1690114Y1685500D01*
X1690000Y1685031*
Y1684250*
X1690114Y1683781*
X1690227Y1683469*
X1690455Y1683156*
X1690682Y1683000*
X1691136*
X1691364Y1683156*
X1691591Y1683469*
X1691705Y1683781*
X1690000Y1678000D02*
X1698000D01*
X1694000Y1674000D02*
Y1682000D01*
X1697705Y1682500D02*
X1697591Y1682813D01*
X1697591D02*
X1697364Y1683125D01*
X1697136Y1683281*
X1696682*
X1696455Y1683125*
X1696227Y1682813*
X1696227D02*
X1696114Y1682500D01*
X1696000Y1682031*
Y1681250*
X1696114Y1680781*
X1696227Y1680469*
X1696455Y1680156*
X1696682Y1680000*
X1697136*
X1697364Y1680156*
X1697591Y1680469*
X1697705Y1680781*
X1693500Y1685000D02*
X1701500D01*
X1697500Y1681000D02*
Y1689000D01*
X1701205Y1689500D02*
X1701091Y1689813D01*
X1701091D02*
X1700864Y1690125D01*
X1700636Y1690281*
X1700182*
X1699955Y1690125*
X1699727Y1689813*
X1699727D02*
X1699614Y1689500D01*
X1699500Y1689031*
Y1688250*
X1699614Y1687781*
X1699727Y1687469*
X1699955Y1687156*
X1700182Y1687000*
X1700636*
X1700864Y1687156*
X1701091Y1687469*
X1701205Y1687781*
X1697500Y1685000D02*
X1705500D01*
X1701500Y1681000D02*
Y1689000D01*
X1705205Y1689500D02*
X1705091Y1689813D01*
X1705091D02*
X1704864Y1690125D01*
X1704636Y1690281*
X1704182*
X1703955Y1690125*
X1703727Y1689813*
X1703727D02*
X1703614Y1689500D01*
X1703500Y1689031*
Y1688250*
X1703614Y1687781*
X1703727Y1687469*
X1703955Y1687156*
X1704182Y1687000*
X1704636*
X1704864Y1687156*
X1705091Y1687469*
X1705205Y1687781*
X1720941Y1690000D02*
X1728941D01*
X1724941Y1686000D02*
Y1694000D01*
X1728645Y1694500D02*
X1728532Y1694813D01*
X1728532D02*
X1728305Y1695125D01*
X1728077Y1695281*
X1727623*
X1727395Y1695125*
X1727168Y1694813*
X1727168D02*
X1727055Y1694500D01*
X1726941Y1694031*
Y1693250*
X1727055Y1692781*
X1727168Y1692469*
X1727395Y1692156*
X1727623Y1692000*
X1728077*
X1728305Y1692156*
X1728532Y1692469*
X1728645Y1692781*
X1711000Y1690500D02*
X1719000D01*
X1715000Y1686500D02*
Y1694500D01*
X1718705Y1695000D02*
X1718591Y1695313D01*
X1718591D02*
X1718364Y1695625D01*
X1718136Y1695781*
X1717682*
X1717455Y1695625*
X1717227Y1695313*
X1717227D02*
X1717114Y1695000D01*
X1717000Y1694531*
Y1693750*
X1717114Y1693281*
X1717227Y1692969*
X1717455Y1692656*
X1717682Y1692500*
X1718136*
X1718364Y1692656*
X1718591Y1692969*
X1718705Y1693281*
X1708000Y1674500D02*
X1716000D01*
X1712000Y1670500D02*
Y1678500D01*
X1715705Y1679000D02*
X1715591Y1679313D01*
X1715591D02*
X1715364Y1679625D01*
X1715136Y1679781*
X1714682*
X1714455Y1679625*
X1714227Y1679313*
X1714227D02*
X1714114Y1679000D01*
X1714000Y1678531*
Y1677750*
X1714114Y1677281*
X1714227Y1676969*
X1714455Y1676656*
X1714682Y1676500*
X1715136*
X1715364Y1676656*
X1715591Y1676969*
X1715705Y1677281*
X1725862Y1686500D02*
X1733862D01*
X1729862Y1682500D02*
Y1690500D01*
X1733567Y1691000D02*
X1733453Y1691313D01*
X1733453D02*
X1733226Y1691625D01*
X1732999Y1691781*
X1732544*
X1732317Y1691625*
X1732089Y1691313*
X1732089D02*
X1731976Y1691000D01*
X1731862Y1690531*
Y1689750*
X1731976Y1689281*
X1732089Y1688969*
X1732317Y1688656*
X1732544Y1688500*
X1732999*
X1733226Y1688656*
X1733453Y1688969*
X1733567Y1689281*
X1730783Y1686000D02*
X1738783D01*
X1734783Y1682000D02*
Y1690000D01*
X1738488Y1690500D02*
X1738374Y1690813D01*
X1738374D02*
X1738147Y1691125D01*
X1737920Y1691281*
X1737465*
X1737238Y1691125*
X1737011Y1690813*
X1737011D02*
X1736897Y1690500D01*
X1736783Y1690031*
Y1689250*
X1736897Y1688781*
X1737011Y1688469*
X1737238Y1688156*
X1737465Y1688000*
X1737920*
X1738147Y1688156*
X1738374Y1688469*
X1738488Y1688781*
X1744500Y1683500D02*
X1752500D01*
X1748500Y1679500D02*
Y1687500D01*
X1752205Y1688000D02*
X1752091Y1688313D01*
X1752091D02*
X1751864Y1688625D01*
X1751636Y1688781*
X1751182*
X1750955Y1688625*
X1750727Y1688313*
X1750727D02*
X1750614Y1688000D01*
X1750500Y1687531*
Y1686750*
X1750614Y1686281*
X1750727Y1685969*
X1750955Y1685656*
X1751182Y1685500*
X1751636*
X1751864Y1685656*
X1752091Y1685969*
X1752205Y1686281*
X1744500Y1679500D02*
X1752500D01*
X1748500Y1675500D02*
Y1683500D01*
X1752205Y1684000D02*
X1752091Y1684313D01*
X1752091D02*
X1751864Y1684625D01*
X1751636Y1684781*
X1751182*
X1750955Y1684625*
X1750727Y1684313*
X1750727D02*
X1750614Y1684000D01*
X1750500Y1683531*
Y1682750*
X1750614Y1682281*
X1750727Y1681969*
X1750955Y1681656*
X1751182Y1681500*
X1751636*
X1751864Y1681656*
X1752091Y1681969*
X1752205Y1682281*
X1730000Y1677500D02*
X1738000D01*
X1734000Y1673500D02*
Y1681500D01*
X1737705Y1682000D02*
X1737591Y1682313D01*
X1737591D02*
X1737364Y1682625D01*
X1737136Y1682781*
X1736682*
X1736455Y1682625*
X1736227Y1682313*
X1736227D02*
X1736114Y1682000D01*
X1736000Y1681531*
Y1680750*
X1736114Y1680281*
X1736227Y1679969*
X1736455Y1679656*
X1736682Y1679500*
X1737136*
X1737364Y1679656*
X1737591Y1679969*
X1737705Y1680281*
X1735500Y1690000D02*
X1743500D01*
X1739500Y1686000D02*
Y1694000D01*
X1743205Y1694500D02*
X1743091Y1694813D01*
X1743091D02*
X1742864Y1695125D01*
X1742636Y1695281*
X1742182*
X1741955Y1695125*
X1741727Y1694813*
X1741727D02*
X1741614Y1694500D01*
X1741500Y1694031*
Y1693250*
X1741614Y1692781*
X1741727Y1692469*
X1741955Y1692156*
X1742182Y1692000*
X1742636*
X1742864Y1692156*
X1743091Y1692469*
X1743205Y1692781*
X1781965Y1687500D02*
X1789965D01*
X1785965Y1683500D02*
Y1691500D01*
X1789669Y1692000D02*
X1789555Y1692313D01*
X1789555D02*
X1789328Y1692625D01*
X1789101Y1692781*
X1788646*
X1788419Y1692625*
X1788192Y1692313*
X1788192D02*
X1788078Y1692000D01*
X1787965Y1691531*
Y1690750*
X1788078Y1690281*
X1788192Y1689969*
X1788419Y1689656*
X1788646Y1689500*
X1789101*
X1789328Y1689656*
X1789555Y1689969*
X1789669Y1690281*
X1801500Y1688000D02*
X1809500D01*
X1805500Y1684000D02*
Y1692000D01*
X1809205Y1692500D02*
X1809091Y1692813D01*
X1809091D02*
X1808864Y1693125D01*
X1808636Y1693281*
X1808182*
X1807955Y1693125*
X1807727Y1692813*
X1807727D02*
X1807614Y1692500D01*
X1807500Y1692031*
Y1691250*
X1807614Y1690781*
X1807727Y1690469*
X1807955Y1690156*
X1808182Y1690000*
X1808636*
X1808864Y1690156*
X1809091Y1690469*
X1809205Y1690781*
X1791500Y1686000D02*
X1799500D01*
X1795500Y1682000D02*
Y1690000D01*
X1799205Y1690500D02*
X1799091Y1690813D01*
X1799091D02*
X1798864Y1691125D01*
X1798636Y1691281*
X1798182*
X1797955Y1691125*
X1797727Y1690813*
X1797727D02*
X1797614Y1690500D01*
X1797500Y1690031*
Y1689250*
X1797614Y1688781*
X1797727Y1688469*
X1797955Y1688156*
X1798182Y1688000*
X1798636*
X1798864Y1688156*
X1799091Y1688469*
X1799205Y1688781*
X1798500Y1683500D02*
X1806500D01*
X1802500Y1679500D02*
Y1687500D01*
X1806205Y1688000D02*
X1806091Y1688313D01*
X1806091D02*
X1805864Y1688625D01*
X1805636Y1688781*
X1805182*
X1804955Y1688625*
X1804727Y1688313*
X1804727D02*
X1804614Y1688000D01*
X1804500Y1687531*
Y1686750*
X1804614Y1686281*
X1804727Y1685969*
X1804955Y1685656*
X1805182Y1685500*
X1805636*
X1805864Y1685656*
X1806091Y1685969*
X1806205Y1686281*
X1806500Y1686000D02*
X1814500D01*
X1810500Y1682000D02*
Y1690000D01*
X1814205Y1690500D02*
X1814091Y1690813D01*
X1814091D02*
X1813864Y1691125D01*
X1813636Y1691281*
X1813182*
X1812955Y1691125*
X1812727Y1690813*
X1812727D02*
X1812614Y1690500D01*
X1812500Y1690031*
Y1689250*
X1812614Y1688781*
X1812727Y1688469*
X1812955Y1688156*
X1813182Y1688000*
X1813636*
X1813864Y1688156*
X1814091Y1688469*
X1814205Y1688781*
X1838500Y1683500D02*
X1846500D01*
X1842500Y1679500D02*
Y1687500D01*
X1846205Y1688000D02*
X1846091Y1688313D01*
X1846091D02*
X1845864Y1688625D01*
X1845636Y1688781*
X1845182*
X1844955Y1688625*
X1844727Y1688313*
X1844727D02*
X1844614Y1688000D01*
X1844500Y1687531*
Y1686750*
X1844614Y1686281*
X1844727Y1685969*
X1844955Y1685656*
X1845182Y1685500*
X1845636*
X1845864Y1685656*
X1846091Y1685969*
X1846205Y1686281*
X1831000Y1684000D02*
X1839000D01*
X1835000Y1680000D02*
Y1688000D01*
X1838705Y1688500D02*
X1838591Y1688813D01*
X1838591D02*
X1838364Y1689125D01*
X1838136Y1689281*
X1837682*
X1837455Y1689125*
X1837227Y1688813*
X1837227D02*
X1837114Y1688500D01*
X1837000Y1688031*
Y1687250*
X1837114Y1686781*
X1837227Y1686469*
X1837455Y1686156*
X1837682Y1686000*
X1838136*
X1838364Y1686156*
X1838591Y1686469*
X1838705Y1686781*
X1858000Y1685000D02*
X1866000D01*
X1862000Y1681000D02*
Y1689000D01*
X1865705Y1689500D02*
X1865591Y1689813D01*
X1865591D02*
X1865364Y1690125D01*
X1865136Y1690281*
X1864682*
X1864455Y1690125*
X1864227Y1689813*
X1864227D02*
X1864114Y1689500D01*
X1864000Y1689031*
Y1688250*
X1864114Y1687781*
X1864227Y1687469*
X1864455Y1687156*
X1864682Y1687000*
X1865136*
X1865364Y1687156*
X1865591Y1687469*
X1865705Y1687781*
X1862500Y1690000D02*
X1870500D01*
X1866500Y1686000D02*
Y1694000D01*
X1870205Y1694500D02*
X1870091Y1694813D01*
X1870091D02*
X1869864Y1695125D01*
X1869636Y1695281*
X1869182*
X1868955Y1695125*
X1868727Y1694813*
X1868727D02*
X1868614Y1694500D01*
X1868500Y1694031*
Y1693250*
X1868614Y1692781*
X1868727Y1692469*
X1868955Y1692156*
X1869182Y1692000*
X1869636*
X1869864Y1692156*
X1870091Y1692469*
X1870205Y1692781*
X1867000Y1675020D02*
X1875000D01*
X1871000Y1671020D02*
Y1679020D01*
X1874705Y1679520D02*
X1874591Y1679832D01*
X1874364Y1680145*
X1874136Y1680301*
X1873682*
X1873455Y1680145*
X1873227Y1679832*
X1873114Y1679520*
X1873000Y1679051*
Y1678270*
X1873114Y1677801*
X1873227Y1677488*
X1873455Y1677176*
X1873682Y1677020*
X1874136*
X1874364Y1677176*
X1874591Y1677488*
X1874705Y1677801*
X1906020Y1686000D02*
X1914020D01*
X1910020Y1682000D02*
Y1690000D01*
X1913724Y1690500D02*
X1913611Y1690813D01*
X1913611D02*
X1913383Y1691125D01*
X1913156Y1691281*
X1912702*
X1912474Y1691125*
X1912247Y1690813*
X1912247D02*
X1912133Y1690500D01*
X1912020Y1690031*
Y1689250*
X1912133Y1688781*
X1912247Y1688469*
X1912474Y1688156*
X1912702Y1688000*
X1913156*
X1913383Y1688156*
X1913611Y1688469*
X1913724Y1688781*
X1911000Y1686000D02*
X1919000D01*
X1915000Y1682000D02*
Y1690000D01*
X1918705Y1690500D02*
X1918591Y1690813D01*
X1918591D02*
X1918364Y1691125D01*
X1918136Y1691281*
X1917682*
X1917455Y1691125*
X1917227Y1690813*
X1917227D02*
X1917114Y1690500D01*
X1917000Y1690031*
Y1689250*
X1917114Y1688781*
X1917227Y1688469*
X1917455Y1688156*
X1917682Y1688000*
X1918136*
X1918364Y1688156*
X1918591Y1688469*
X1918705Y1688781*
X1915000Y1691500D02*
X1923000D01*
X1919000Y1687500D02*
Y1695500D01*
X1922705Y1696000D02*
X1922591Y1696313D01*
X1922591D02*
X1922364Y1696625D01*
X1922136Y1696781*
X1921682*
X1921455Y1696625*
X1921227Y1696313*
X1921227D02*
X1921114Y1696000D01*
X1921000Y1695531*
Y1694750*
X1921114Y1694281*
X1921227Y1693969*
X1921455Y1693656*
X1921682Y1693500*
X1922136*
X1922364Y1693656*
X1922591Y1693969*
X1922705Y1694281*
X1684500Y1711500D02*
X1692500D01*
X1688500Y1707500D02*
Y1715500D01*
X1692205Y1716000D02*
X1692091Y1716313D01*
X1692091D02*
X1691864Y1716625D01*
X1691636Y1716781*
X1691182*
X1690955Y1716625*
X1690727Y1716313*
X1690727D02*
X1690614Y1716000D01*
X1690500Y1715531*
Y1714750*
X1690614Y1714281*
X1690727Y1713969*
X1690955Y1713656*
X1691182Y1713500*
X1691636*
X1691864Y1713656*
X1692091Y1713969*
X1692205Y1714281*
X1689000Y1711500D02*
X1697000D01*
X1693000Y1707500D02*
Y1715500D01*
X1696705Y1716000D02*
X1696591Y1716313D01*
X1696591D02*
X1696364Y1716625D01*
X1696136Y1716781*
X1695682*
X1695455Y1716625*
X1695227Y1716313*
X1695227D02*
X1695114Y1716000D01*
X1695000Y1715531*
Y1714750*
X1695114Y1714281*
X1695227Y1713969*
X1695455Y1713656*
X1695682Y1713500*
X1696136*
X1696364Y1713656*
X1696591Y1713969*
X1696705Y1714281*
X1694000Y1711500D02*
X1702000D01*
X1698000Y1707500D02*
Y1715500D01*
X1701705Y1716000D02*
X1701591Y1716313D01*
X1701591D02*
X1701364Y1716625D01*
X1701136Y1716781*
X1700682*
X1700455Y1716625*
X1700227Y1716313*
X1700227D02*
X1700114Y1716000D01*
X1700000Y1715531*
Y1714750*
X1700114Y1714281*
X1700227Y1713969*
X1700455Y1713656*
X1700682Y1713500*
X1701136*
X1701364Y1713656*
X1701591Y1713969*
X1701705Y1714281*
X1698000Y1711500D02*
X1706000D01*
X1702000Y1707500D02*
Y1715500D01*
X1705705Y1716000D02*
X1705591Y1716313D01*
X1705591D02*
X1705364Y1716625D01*
X1705136Y1716781*
X1704682*
X1704455Y1716625*
X1704227Y1716313*
X1704227D02*
X1704114Y1716000D01*
X1704000Y1715531*
Y1714750*
X1704114Y1714281*
X1704227Y1713969*
X1704455Y1713656*
X1704682Y1713500*
X1705136*
X1705364Y1713656*
X1705591Y1713969*
X1705705Y1714281*
X1743000Y1711500D02*
X1751000D01*
X1747000Y1707500D02*
Y1715500D01*
X1750705Y1716000D02*
X1750591Y1716313D01*
X1750591D02*
X1750364Y1716625D01*
X1750136Y1716781*
X1749682*
X1749455Y1716625*
X1749227Y1716313*
X1749227D02*
X1749114Y1716000D01*
X1749000Y1715531*
Y1714750*
X1749114Y1714281*
X1749227Y1713969*
X1749455Y1713656*
X1749682Y1713500*
X1750136*
X1750364Y1713656*
X1750591Y1713969*
X1750705Y1714281*
X1739000Y1711500D02*
X1747000D01*
X1743000Y1707500D02*
Y1715500D01*
X1746705Y1716000D02*
X1746591Y1716313D01*
X1746591D02*
X1746364Y1716625D01*
X1746136Y1716781*
X1745682*
X1745455Y1716625*
X1745227Y1716313*
X1745227D02*
X1745114Y1716000D01*
X1745000Y1715531*
Y1714750*
X1745114Y1714281*
X1745227Y1713969*
X1745455Y1713656*
X1745682Y1713500*
X1746136*
X1746364Y1713656*
X1746591Y1713969*
X1746705Y1714281*
X1731000Y1702000D02*
X1739000D01*
X1735000Y1698000D02*
Y1706000D01*
X1738705Y1706500D02*
X1738591Y1706813D01*
X1738591D02*
X1738364Y1707125D01*
X1738136Y1707281*
X1737682*
X1737455Y1707125*
X1737227Y1706813*
X1737227D02*
X1737114Y1706500D01*
X1737000Y1706031*
Y1705250*
X1737114Y1704781*
X1737227Y1704469*
X1737455Y1704156*
X1737682Y1704000*
X1738136*
X1738364Y1704156*
X1738591Y1704469*
X1738705Y1704781*
X1763000Y1711500D02*
X1771000D01*
X1767000Y1707500D02*
Y1715500D01*
X1770705Y1716000D02*
X1770591Y1716313D01*
X1770591D02*
X1770364Y1716625D01*
X1770136Y1716781*
X1769682*
X1769455Y1716625*
X1769227Y1716313*
X1769227D02*
X1769114Y1716000D01*
X1769000Y1715531*
Y1714750*
X1769114Y1714281*
X1769227Y1713969*
X1769455Y1713656*
X1769682Y1713500*
X1770136*
X1770364Y1713656*
X1770591Y1713969*
X1770705Y1714281*
X1752500Y1711500D02*
X1760500D01*
X1756500Y1707500D02*
Y1715500D01*
X1760205Y1716000D02*
X1760091Y1716313D01*
X1760091D02*
X1759864Y1716625D01*
X1759636Y1716781*
X1759182*
X1758955Y1716625*
X1758727Y1716313*
X1758727D02*
X1758614Y1716000D01*
X1758500Y1715531*
Y1714750*
X1758614Y1714281*
X1758727Y1713969*
X1758955Y1713656*
X1759182Y1713500*
X1759636*
X1759864Y1713656*
X1760091Y1713969*
X1760205Y1714281*
X1748500Y1711500D02*
X1756500D01*
X1752500Y1707500D02*
Y1715500D01*
X1756205Y1716000D02*
X1756091Y1716313D01*
X1756091D02*
X1755864Y1716625D01*
X1755636Y1716781*
X1755182*
X1754955Y1716625*
X1754727Y1716313*
X1754727D02*
X1754614Y1716000D01*
X1754500Y1715531*
Y1714750*
X1754614Y1714281*
X1754727Y1713969*
X1754955Y1713656*
X1755182Y1713500*
X1755636*
X1755864Y1713656*
X1756091Y1713969*
X1756205Y1714281*
X1772000Y1702500D02*
X1780000D01*
X1776000Y1698500D02*
Y1706500D01*
X1779705Y1707000D02*
X1779591Y1707313D01*
X1779591D02*
X1779364Y1707625D01*
X1779136Y1707781*
X1778682*
X1778455Y1707625*
X1778227Y1707313*
X1778227D02*
X1778114Y1707000D01*
X1778000Y1706531*
Y1705750*
X1778114Y1705281*
X1778227Y1704969*
X1778455Y1704656*
X1778682Y1704500*
X1779136*
X1779364Y1704656*
X1779591Y1704969*
X1779705Y1705281*
X1798500Y1702500D02*
X1806500D01*
X1802500Y1698500D02*
Y1706500D01*
X1806205Y1707000D02*
X1806091Y1707313D01*
X1806091D02*
X1805864Y1707625D01*
X1805636Y1707781*
X1805182*
X1804955Y1707625*
X1804727Y1707313*
X1804727D02*
X1804614Y1707000D01*
X1804500Y1706531*
Y1705750*
X1804614Y1705281*
X1804727Y1704969*
X1804955Y1704656*
X1805182Y1704500*
X1805636*
X1805864Y1704656*
X1806091Y1704969*
X1806205Y1705281*
X1815000Y1711500D02*
X1823000D01*
X1819000Y1707500D02*
Y1715500D01*
X1822705Y1716000D02*
X1822591Y1716313D01*
X1822591D02*
X1822364Y1716625D01*
X1822136Y1716781*
X1821682*
X1821455Y1716625*
X1821227Y1716313*
X1821227D02*
X1821114Y1716000D01*
X1821000Y1715531*
Y1714750*
X1821114Y1714281*
X1821227Y1713969*
X1821455Y1713656*
X1821682Y1713500*
X1822136*
X1822364Y1713656*
X1822591Y1713969*
X1822705Y1714281*
X1834500Y1711500D02*
X1842500D01*
X1838500Y1707500D02*
Y1715500D01*
X1842205Y1716000D02*
X1842091Y1716313D01*
X1842091D02*
X1841864Y1716625D01*
X1841636Y1716781*
X1841182*
X1840955Y1716625*
X1840727Y1716313*
X1840727D02*
X1840614Y1716000D01*
X1840500Y1715531*
Y1714750*
X1840614Y1714281*
X1840727Y1713969*
X1840955Y1713656*
X1841182Y1713500*
X1841636*
X1841864Y1713656*
X1842091Y1713969*
X1842205Y1714281*
X1826500Y1711500D02*
X1834500D01*
X1830500Y1707500D02*
Y1715500D01*
X1834205Y1716000D02*
X1834091Y1716313D01*
X1834091D02*
X1833864Y1716625D01*
X1833636Y1716781*
X1833182*
X1832955Y1716625*
X1832727Y1716313*
X1832727D02*
X1832614Y1716000D01*
X1832500Y1715531*
Y1714750*
X1832614Y1714281*
X1832727Y1713969*
X1832955Y1713656*
X1833182Y1713500*
X1833636*
X1833864Y1713656*
X1834091Y1713969*
X1834205Y1714281*
X1829000Y1695500D02*
X1837000D01*
X1833000Y1691500D02*
Y1699500D01*
X1836705Y1700000D02*
X1836591Y1700313D01*
X1836591D02*
X1836364Y1700625D01*
X1836136Y1700781*
X1835682*
X1835455Y1700625*
X1835227Y1700313*
X1835227D02*
X1835114Y1700000D01*
X1835000Y1699531*
Y1698750*
X1835114Y1698281*
X1835227Y1697969*
X1835455Y1697656*
X1835682Y1697500*
X1836136*
X1836364Y1697656*
X1836591Y1697969*
X1836705Y1698281*
X1884000Y1711500D02*
X1892000D01*
X1888000Y1707500D02*
Y1715500D01*
X1891705Y1716000D02*
X1891591Y1716313D01*
X1891591D02*
X1891364Y1716625D01*
X1891136Y1716781*
X1890682*
X1890455Y1716625*
X1890227Y1716313*
X1890227D02*
X1890114Y1716000D01*
X1890000Y1715531*
Y1714750*
X1890114Y1714281*
X1890227Y1713969*
X1890455Y1713656*
X1890682Y1713500*
X1891136*
X1891364Y1713656*
X1891591Y1713969*
X1891705Y1714281*
X1874500Y1711500D02*
X1882500D01*
X1878500Y1707500D02*
Y1715500D01*
X1882205Y1716000D02*
X1882091Y1716313D01*
X1882091D02*
X1881864Y1716625D01*
X1881636Y1716781*
X1881182*
X1880955Y1716625*
X1880727Y1716313*
X1880727D02*
X1880614Y1716000D01*
X1880500Y1715531*
Y1714750*
X1880614Y1714281*
X1880727Y1713969*
X1880955Y1713656*
X1881182Y1713500*
X1881636*
X1881864Y1713656*
X1882091Y1713969*
X1882205Y1714281*
X1866000Y1711500D02*
X1874000D01*
X1870000Y1707500D02*
Y1715500D01*
X1873705Y1716000D02*
X1873591Y1716313D01*
X1873591D02*
X1873364Y1716625D01*
X1873136Y1716781*
X1872682*
X1872455Y1716625*
X1872227Y1716313*
X1872227D02*
X1872114Y1716000D01*
X1872000Y1715531*
Y1714750*
X1872114Y1714281*
X1872227Y1713969*
X1872455Y1713656*
X1872682Y1713500*
X1873136*
X1873364Y1713656*
X1873591Y1713969*
X1873705Y1714281*
X1887500Y1711500D02*
X1895500D01*
X1891500Y1707500D02*
Y1715500D01*
X1895205Y1716000D02*
X1895091Y1716313D01*
X1895091D02*
X1894864Y1716625D01*
X1894636Y1716781*
X1894182*
X1893955Y1716625*
X1893727Y1716313*
X1893727D02*
X1893614Y1716000D01*
X1893500Y1715531*
Y1714750*
X1893614Y1714281*
X1893727Y1713969*
X1893955Y1713656*
X1894182Y1713500*
X1894636*
X1894864Y1713656*
X1895091Y1713969*
X1895205Y1714281*
X1896000Y1702500D02*
X1904000D01*
X1900000Y1698500D02*
Y1706500D01*
X1903705Y1707000D02*
X1903591Y1707313D01*
X1903591D02*
X1903364Y1707625D01*
X1903136Y1707781*
X1902682*
X1902455Y1707625*
X1902227Y1707313*
X1902227D02*
X1902114Y1707000D01*
X1902000Y1706531*
Y1705750*
X1902114Y1705281*
X1902227Y1704969*
X1902455Y1704656*
X1902682Y1704500*
X1903136*
X1903364Y1704656*
X1903591Y1704969*
X1903705Y1705281*
X1906000Y1704000D02*
X1914000D01*
X1910000Y1700000D02*
Y1708000D01*
X1913705Y1708500D02*
X1913591Y1708813D01*
X1913591D02*
X1913364Y1709125D01*
X1913136Y1709281*
X1912682*
X1912455Y1709125*
X1912227Y1708813*
X1912227D02*
X1912114Y1708500D01*
X1912000Y1708031*
Y1707250*
X1912114Y1706781*
X1912227Y1706469*
X1912455Y1706156*
X1912682Y1706000*
X1913136*
X1913364Y1706156*
X1913591Y1706469*
X1913705Y1706781*
X1923000Y1711500D02*
X1931000D01*
X1927000Y1707500D02*
Y1715500D01*
X1930705Y1716000D02*
X1930591Y1716313D01*
X1930591D02*
X1930364Y1716625D01*
X1930136Y1716781*
X1929682*
X1929455Y1716625*
X1929227Y1716313*
X1929227D02*
X1929114Y1716000D01*
X1929000Y1715531*
Y1714750*
X1929114Y1714281*
X1929227Y1713969*
X1929455Y1713656*
X1929682Y1713500*
X1930136*
X1930364Y1713656*
X1930591Y1713969*
X1930705Y1714281*
X1918500Y1711500D02*
X1926500D01*
X1922500Y1707500D02*
Y1715500D01*
X1926205Y1716000D02*
X1926091Y1716313D01*
X1926091D02*
X1925864Y1716625D01*
X1925636Y1716781*
X1925182*
X1924955Y1716625*
X1924727Y1716313*
X1924727D02*
X1924614Y1716000D01*
X1924500Y1715531*
Y1714750*
X1924614Y1714281*
X1924727Y1713969*
X1924955Y1713656*
X1925182Y1713500*
X1925636*
X1925864Y1713656*
X1926091Y1713969*
X1926205Y1714281*
X1673001Y1446142D02*
X1950955D01*
G03Y1717795I0J135827*
G01X1673001*
X1672971D02*
G03Y1446142I237J-135826D01*
G01X1537382Y1768976D02*
X1791917D01*
X1537382D02*
X1547382Y1771476D01*
Y1766476*
X1537382Y1768976*
X2086771D02*
X1832235D01*
X2086771D02*
X2076771Y1766476D01*
Y1771476*
X2086771Y1768976*
X1537382Y1586606D02*
Y1773976D01*
X2086771Y1588710D02*
Y1773976D01*
X1794917Y1770539D02*
X1795372Y1770851D01*
X1796053Y1771789*
Y1765226*
X1798553Y1771789D02*
X1801053D01*
X1799690Y1769289*
X1800372*
X1800826Y1768976*
X1801053Y1768664*
X1801281Y1767726*
Y1767101*
X1801053Y1766164*
X1800599Y1765539*
X1799917Y1765226*
X1799235*
X1798553Y1765539*
X1798326Y1765851*
X1798099Y1766476*
X1806281Y1769601D02*
X1806053Y1768664D01*
X1805599Y1768039*
X1804917Y1767726*
X1804690*
X1804008Y1768039*
X1803553Y1768664*
X1803326Y1769601*
Y1769914*
X1803553Y1770851*
X1804008Y1771476*
X1804690Y1771789*
X1804917*
X1805599Y1771476*
X1806053Y1770851*
X1806281Y1769601*
Y1768039*
X1806053Y1766476*
X1805599Y1765539*
X1804917Y1765226*
X1804463*
X1803781Y1765539*
X1803553Y1766164*
X1808553Y1765851D02*
X1808326Y1765539D01*
X1808553Y1765226*
X1808781Y1765539*
X1808553Y1765851*
X1813781Y1771789D02*
X1811508D01*
X1811281Y1768976*
X1811508Y1769289*
X1812190Y1769601*
X1812872*
X1813553Y1769289*
X1814008Y1768664*
X1814235Y1767726*
X1814008Y1767101*
X1813781Y1766164*
X1813326Y1765539*
X1812644Y1765226*
X1811963*
X1811281Y1765539*
X1811053Y1765851*
X1810826Y1766476*
X1816281Y1769601D02*
Y1765226D01*
Y1768351D02*
X1816963Y1769289D01*
X1817417Y1769601*
X1818099*
X1818553Y1769289*
X1818781Y1768351*
Y1765226*
Y1768351D02*
X1819463Y1769289D01*
X1819917Y1769601*
X1820599*
X1821053Y1769289*
X1821281Y1768351*
Y1765226*
X1823326Y1769601D02*
Y1765226D01*
Y1768351D02*
X1824008Y1769289D01*
X1824463Y1769601*
X1825144*
X1825599Y1769289*
X1825826Y1768351*
Y1765226*
Y1768351D02*
X1826508Y1769289D01*
X1826963Y1769601*
X1827644*
X1828099Y1769289*
X1828326Y1768351*
Y1765226*
X1480354Y1446142D02*
Y1575219D01*
Y1446142D02*
X1477854Y1456142D01*
X1482854*
X1480354Y1446142*
Y1717795D02*
Y1588719D01*
Y1717795D02*
X1482854Y1707795D01*
X1477854*
X1480354Y1717795*
X1806978Y1446142D02*
X1475354D01*
X1806978Y1717795D02*
X1475354D01*
X1467741Y1583844D02*
X1467513Y1584469D01*
X1466832Y1584781*
X1466377*
X1465695Y1584469*
X1465241Y1583531*
X1465013Y1581969*
Y1580406*
X1465241Y1579156*
X1465695Y1578531*
X1466377Y1578219*
X1466604*
X1467286Y1578531*
X1467741Y1579156*
X1467968Y1580094*
Y1580406*
X1467741Y1581344*
X1467286Y1581969*
X1466604Y1582281*
X1466377*
X1465695Y1581969*
X1465241Y1581344*
X1465013Y1580406*
X1472968Y1582594D02*
X1472741Y1581656D01*
X1472286Y1581031*
X1471604Y1580719*
X1471377*
X1470695Y1581031*
X1470241Y1581656*
X1470013Y1582594*
Y1582906*
X1470241Y1583844*
X1470695Y1584469*
X1471377Y1584781*
X1471604*
X1472286Y1584469*
X1472741Y1583844*
X1472968Y1582594*
Y1581031*
X1472741Y1579469*
X1472286Y1578531*
X1471604Y1578219*
X1471150*
X1470468Y1578531*
X1470241Y1579156*
X1475241Y1578844D02*
X1475013Y1578531D01*
X1475241Y1578219*
X1475468Y1578531*
X1475241Y1578844*
X1478877Y1584781D02*
X1478195Y1584469D01*
X1477741Y1583531*
X1477513Y1581969*
Y1581031*
X1477741Y1579469*
X1478195Y1578531*
X1478877Y1578219*
X1479332*
X1480013Y1578531*
X1480468Y1579469*
X1480695Y1581031*
Y1581969*
X1480468Y1583531*
X1480013Y1584469*
X1479332Y1584781*
X1478877*
X1482741Y1582594D02*
Y1578219D01*
Y1581344D02*
X1483423Y1582281D01*
X1483877Y1582594*
X1484559*
X1485013Y1582281*
X1485241Y1581344*
Y1578219*
Y1581344D02*
X1485923Y1582281D01*
X1486377Y1582594*
X1487059*
X1487513Y1582281*
X1487741Y1581344*
Y1578219*
X1489786Y1582594D02*
Y1578219D01*
Y1581344D02*
X1490468Y1582281D01*
X1490923Y1582594*
X1491604*
X1492059Y1582281*
X1492286Y1581344*
Y1578219*
Y1581344D02*
X1492968Y1582281D01*
X1493423Y1582594*
X1494104*
X1494559Y1582281*
X1494786Y1581344*
Y1578219*
X1465000Y1440000D02*
Y1420000D01*
X1485000*
Y1780000D02*
X1465000D01*
Y1760000*
X2535000D02*
Y1780000D01*
X2515000*
Y1420000D02*
X2535000D01*
Y1440000*
X2115000Y1712000D02*
X2373000D01*
X2115000Y1688000D02*
X2373000D01*
X2115000Y1664000D02*
X2373000D01*
X2115000Y1640000D02*
X2373000D01*
X2115000Y1616000D02*
X2373000D01*
X2115000Y1592000D02*
X2373000D01*
X2115000Y1568000D02*
X2373000D01*
X2115000Y1544000D02*
X2373000D01*
X2115000Y1520000D02*
X2373000D01*
X2115000Y1712000D02*
Y1520000D01*
X2199000Y1712000D02*
Y1520000D01*
X2235000Y1712000D02*
Y1520000D01*
X2271000Y1712000D02*
Y1520000D01*
X2325000Y1712000D02*
Y1520000D01*
X2373000Y1712000D02*
Y1520000D01*
X2150500Y1700750D02*
X2149955Y1701500D01*
X2149136Y1701875*
X2148045*
X2147227Y1701500*
X2146682Y1700750*
Y1700000*
X2146955Y1699250*
X2147227Y1698875*
X2147773Y1698500*
X2149409Y1697750*
X2149955Y1697375*
X2150227Y1697000*
X2150500Y1696250*
Y1695125*
X2149955Y1694375*
X2149136Y1694000*
X2148045*
X2147227Y1694375*
X2146682Y1695125*
X2152955Y1701875D02*
Y1694000D01*
X2159227Y1701875D02*
X2155409Y1694000D01*
Y1701875D02*
X2159227D01*
X2155409Y1694000D02*
X2159227D01*
X2161682Y1701875D02*
Y1694000D01*
Y1701875D02*
X2165227D01*
X2161682Y1698125D02*
X2163864D01*
X2161682Y1694000D02*
X2165227D01*
X2208864Y1701875D02*
X2208318Y1701500D01*
X2207773Y1700750*
X2207500Y1700000*
X2207227Y1698875*
Y1697000*
X2207500Y1695875*
X2207773Y1695125*
X2208318Y1694375*
X2208864Y1694000*
X2209955*
X2210500Y1694375*
X2211045Y1695125*
X2211318Y1695875*
X2211591Y1697000*
Y1698875*
X2211318Y1700000*
X2211045Y1700750*
X2210500Y1701500*
X2209955Y1701875*
X2208864*
X2209682Y1695500D02*
X2211318Y1693250D01*
X2215955Y1701875D02*
Y1694000D01*
X2214045Y1701875D02*
X2217864D01*
X2220318D02*
X2222500Y1698125D01*
Y1694000*
X2224682Y1701875D02*
X2222500Y1698125D01*
X2247045Y1700750D02*
X2246500Y1701500D01*
X2245682Y1701875*
X2244591*
X2243773Y1701500*
X2243227Y1700750*
Y1700000*
X2243500Y1699250*
X2243773Y1698875*
X2244318Y1698500*
X2245955Y1697750*
X2246500Y1697375*
X2246773Y1697000*
X2247045Y1696250*
Y1695125*
X2246500Y1694375*
X2245682Y1694000*
X2244591*
X2243773Y1694375*
X2243227Y1695125*
X2249500Y1701875D02*
X2251682Y1698125D01*
Y1694000*
X2253864Y1701875D02*
X2251682Y1698125D01*
X2256318Y1701875D02*
Y1694000D01*
Y1701875D02*
X2258500Y1694000D01*
X2260682Y1701875D02*
X2258500Y1694000D01*
X2260682Y1701875D02*
Y1694000D01*
X2282500Y1701875D02*
Y1694000D01*
Y1701875D02*
X2284955D01*
X2285773Y1701500*
X2286045Y1701125*
X2286318Y1700375*
Y1699250*
X2286045Y1698500*
X2285773Y1698125*
X2284955Y1697750*
X2282500*
X2288773Y1701875D02*
Y1694000D01*
X2292045*
X2296682Y1701875D02*
X2294500Y1694000D01*
X2296682Y1701875D02*
X2298864Y1694000D01*
X2295318Y1696625D02*
X2298045D01*
X2303227Y1701875D02*
Y1694000D01*
X2301318Y1701875D02*
X2305136D01*
X2307591D02*
Y1694000D01*
Y1701875D02*
X2311136D01*
X2307591Y1698125D02*
X2309773D01*
X2307591Y1694000D02*
X2311136D01*
X2313591Y1701875D02*
Y1694000D01*
Y1701875D02*
X2315500D01*
X2316318Y1701500*
X2316864Y1700750*
X2317136Y1700000*
X2317409Y1698875*
Y1697000*
X2317136Y1695875*
X2316864Y1695125*
X2316318Y1694375*
X2315500Y1694000*
X2313591*
X2341682Y1701875D02*
Y1694000D01*
X2339773Y1701875D02*
X2343591D01*
X2347682D02*
X2347136Y1701500D01*
X2346591Y1700750*
X2346318Y1700000*
X2346045Y1698875*
Y1697000*
X2346318Y1695875*
X2346591Y1695125*
X2347136Y1694375*
X2347682Y1694000*
X2348773*
X2349318Y1694375*
X2349864Y1695125*
X2350136Y1695875*
X2350409Y1697000*
Y1698875*
X2350136Y1700000*
X2349864Y1700750*
X2349318Y1701500*
X2348773Y1701875*
X2347682*
X2352864D02*
Y1694000D01*
X2356136*
X2121000Y1676375D02*
X2121545Y1676750D01*
X2122364Y1677875*
Y1670000*
X2125091Y1676000D02*
Y1676375D01*
X2125364Y1677125*
X2125636Y1677500*
X2126182Y1677875*
X2127273*
X2127818Y1677500*
X2128091Y1677125*
X2128364Y1676375*
Y1675625*
X2128091Y1674875*
X2127545Y1673750*
X2124818Y1670000*
X2128636*
X2134909Y1677875D02*
X2132182Y1670000D01*
X2131091Y1677875D02*
X2134909D01*
X2137636Y1670750D02*
X2137364Y1670375D01*
X2137636Y1670000*
X2137909Y1670375*
X2137636Y1670750*
X2143909Y1675250D02*
X2143636Y1674125D01*
X2143091Y1673375*
X2142273Y1673000*
X2142000*
X2141182Y1673375*
X2140636Y1674125*
X2140364Y1675250*
Y1675625*
X2140636Y1676750*
X2141182Y1677500*
X2142000Y1677875*
X2142273*
X2143091Y1677500*
X2143636Y1676750*
X2143909Y1675250*
Y1673375*
X2143636Y1671500*
X2143091Y1670375*
X2142273Y1670000*
X2141727*
X2140909Y1670375*
X2140636Y1671125*
X2149909Y1677875D02*
X2147182D01*
X2146909Y1674500*
X2147182Y1674875*
X2148000Y1675250*
X2148818*
X2149636Y1674875*
X2150182Y1674125*
X2150455Y1673000*
X2150182Y1672250*
X2149909Y1671125*
X2149364Y1670375*
X2148545Y1670000*
X2147727*
X2146909Y1670375*
X2146636Y1670750*
X2146364Y1671500*
X2215409Y1677875D02*
X2214591Y1677500D01*
X2214318Y1676750*
Y1676000*
X2214591Y1675250*
X2215136Y1674875*
X2216227Y1674500*
X2217045Y1674125*
X2217591Y1673375*
X2217864Y1672625*
Y1671500*
X2217591Y1670750*
X2217318Y1670375*
X2216500Y1670000*
X2215409*
X2214591Y1670375*
X2214318Y1670750*
X2214045Y1671500*
Y1672625*
X2214318Y1673375*
X2214864Y1674125*
X2215682Y1674500*
X2216773Y1674875*
X2217318Y1675250*
X2217591Y1676000*
Y1676750*
X2217318Y1677500*
X2216500Y1677875*
X2215409*
X2247000Y1670000D02*
X2259000Y1682000D01*
X2247000D02*
X2259000Y1670000D01*
X2279636Y1677875D02*
X2281818Y1674125D01*
Y1670000*
X2284000Y1677875D02*
X2281818Y1674125D01*
X2286455Y1677875D02*
Y1670000D01*
Y1677875D02*
X2290000D01*
X2286455Y1674125D02*
X2288636D01*
X2286455Y1670000D02*
X2290000D01*
X2296273Y1676750D02*
X2295727Y1677500D01*
X2294909Y1677875*
X2293818*
X2293000Y1677500*
X2292455Y1676750*
Y1676000*
X2292727Y1675250*
X2293000Y1674875*
X2293545Y1674500*
X2295182Y1673750*
X2295727Y1673375*
X2296000Y1673000*
X2296273Y1672250*
Y1671125*
X2295727Y1670375*
X2294909Y1670000*
X2293818*
X2293000Y1670375*
X2292455Y1671125*
X2337455Y1676750D02*
Y1670000D01*
X2335000Y1673375D02*
X2339909D01*
X2347273Y1679375D02*
X2342364Y1667375D01*
X2349727Y1673375D02*
X2354636D01*
X2357636Y1677875D02*
X2360636D01*
X2359000Y1674875*
X2359818*
X2360364Y1674500*
X2360636Y1674125*
X2360909Y1673000*
Y1672250*
X2360636Y1671125*
X2360091Y1670375*
X2359273Y1670000*
X2358455*
X2357636Y1670375*
X2357364Y1670750*
X2357091Y1671500*
X2121545Y1653875D02*
X2124545D01*
X2122909Y1650875*
X2123727*
X2124273Y1650500*
X2124545Y1650125*
X2124818Y1649000*
Y1648250*
X2124545Y1647125*
X2124000Y1646375*
X2123182Y1646000*
X2122364*
X2121545Y1646375*
X2121273Y1646750*
X2121000Y1647500*
X2130818Y1651250D02*
X2130545Y1650125D01*
X2130000Y1649375*
X2129182Y1649000*
X2128909*
X2128091Y1649375*
X2127545Y1650125*
X2127273Y1651250*
Y1651625*
X2127545Y1652750*
X2128091Y1653500*
X2128909Y1653875*
X2129182*
X2130000Y1653500*
X2130545Y1652750*
X2130818Y1651250*
Y1649375*
X2130545Y1647500*
X2130000Y1646375*
X2129182Y1646000*
X2128636*
X2127818Y1646375*
X2127545Y1647125*
X2133545Y1646750D02*
X2133273Y1646375D01*
X2133545Y1646000*
X2133818Y1646375*
X2133545Y1646750*
X2136818Y1653875D02*
X2139818D01*
X2138182Y1650875*
X2139000*
X2139545Y1650500*
X2139818Y1650125*
X2140091Y1649000*
Y1648250*
X2139818Y1647125*
X2139273Y1646375*
X2138455Y1646000*
X2137636*
X2136818Y1646375*
X2136545Y1646750*
X2136273Y1647500*
X2146364Y1653875D02*
X2143636Y1646000D01*
X2142545Y1653875D02*
X2146364D01*
X2155091Y1651250D02*
X2158091Y1646000D01*
Y1651250D02*
X2155091Y1646000D01*
X2166818Y1652375D02*
X2167364Y1652750D01*
X2168182Y1653875*
Y1646000*
X2170909Y1652000D02*
Y1652375D01*
X2171182Y1653125*
X2171455Y1653500*
X2172000Y1653875*
X2173091*
X2173636Y1653500*
X2173909Y1653125*
X2174182Y1652375*
Y1651625*
X2173909Y1650875*
X2173364Y1649750*
X2170636Y1646000*
X2174455*
X2180455Y1653875D02*
X2177727D01*
X2177455Y1650500*
X2177727Y1650875*
X2178545Y1651250*
X2179364*
X2180182Y1650875*
X2180727Y1650125*
X2181000Y1649000*
X2180727Y1648250*
X2180455Y1647125*
X2179909Y1646375*
X2179091Y1646000*
X2178273*
X2177455Y1646375*
X2177182Y1646750*
X2176909Y1647500*
X2183727Y1646750D02*
X2183455Y1646375D01*
X2183727Y1646000*
X2184000Y1646375*
X2183727Y1646750*
X2190000Y1651250D02*
X2189727Y1650125D01*
X2189182Y1649375*
X2188364Y1649000*
X2188091*
X2187273Y1649375*
X2186727Y1650125*
X2186455Y1651250*
Y1651625*
X2186727Y1652750*
X2187273Y1653500*
X2188091Y1653875*
X2188364*
X2189182Y1653500*
X2189727Y1652750*
X2190000Y1651250*
Y1649375*
X2189727Y1647500*
X2189182Y1646375*
X2188364Y1646000*
X2187818*
X2187000Y1646375*
X2186727Y1647125*
X2193818Y1653875D02*
X2193000Y1653500D01*
X2192727Y1652750*
Y1652000*
X2193000Y1651250*
X2193545Y1650875*
X2194636Y1650500*
X2195455Y1650125*
X2196000Y1649375*
X2196273Y1648625*
Y1647500*
X2196000Y1646750*
X2195727Y1646375*
X2194909Y1646000*
X2193818*
X2193000Y1646375*
X2192727Y1646750*
X2192455Y1647500*
Y1648625*
X2192727Y1649375*
X2193273Y1650125*
X2194091Y1650500*
X2195182Y1650875*
X2195727Y1651250*
X2196000Y1652000*
Y1652750*
X2195727Y1653500*
X2194909Y1653875*
X2193818*
X2214591D02*
X2217591D01*
X2215955Y1650875*
X2216773*
X2217318Y1650500*
X2217591Y1650125*
X2217864Y1649000*
Y1648250*
X2217591Y1647125*
X2217045Y1646375*
X2216227Y1646000*
X2215409*
X2214591Y1646375*
X2214318Y1646750*
X2214045Y1647500*
X2247000Y1646000D02*
X2259000D01*
Y1658000*
X2247000*
Y1646000*
X2253000Y1652000D02*
Y1658000D01*
X2279636Y1653875D02*
X2281818Y1650125D01*
Y1646000*
X2284000Y1653875D02*
X2281818Y1650125D01*
X2286455Y1653875D02*
Y1646000D01*
Y1653875D02*
X2290000D01*
X2286455Y1650125D02*
X2288636D01*
X2286455Y1646000D02*
X2290000D01*
X2296273Y1652750D02*
X2295727Y1653500D01*
X2294909Y1653875*
X2293818*
X2293000Y1653500*
X2292455Y1652750*
Y1652000*
X2292727Y1651250*
X2293000Y1650875*
X2293545Y1650500*
X2295182Y1649750*
X2295727Y1649375*
X2296000Y1649000*
X2296273Y1648250*
Y1647125*
X2295727Y1646375*
X2294909Y1646000*
X2293818*
X2293000Y1646375*
X2292455Y1647125*
X2337455Y1652750D02*
Y1646000D01*
X2335000Y1649375D02*
X2339909D01*
X2347273Y1655375D02*
X2342364Y1643375D01*
X2349727Y1649375D02*
X2354636D01*
X2357636Y1653875D02*
X2360636D01*
X2359000Y1650875*
X2359818*
X2360364Y1650500*
X2360636Y1650125*
X2360909Y1649000*
Y1648250*
X2360636Y1647125*
X2360091Y1646375*
X2359273Y1646000*
X2358455*
X2357636Y1646375*
X2357364Y1646750*
X2357091Y1647500*
X2121545Y1629875D02*
X2124545D01*
X2122909Y1626875*
X2123727*
X2124273Y1626500*
X2124545Y1626125*
X2124818Y1625000*
Y1624250*
X2124545Y1623125*
X2124000Y1622375*
X2123182Y1622000*
X2122364*
X2121545Y1622375*
X2121273Y1622750*
X2121000Y1623500*
X2130818Y1627250D02*
X2130545Y1626125D01*
X2130000Y1625375*
X2129182Y1625000*
X2128909*
X2128091Y1625375*
X2127545Y1626125*
X2127273Y1627250*
Y1627625*
X2127545Y1628750*
X2128091Y1629500*
X2128909Y1629875*
X2129182*
X2130000Y1629500*
X2130545Y1628750*
X2130818Y1627250*
Y1625375*
X2130545Y1623500*
X2130000Y1622375*
X2129182Y1622000*
X2128636*
X2127818Y1622375*
X2127545Y1623125*
X2133545Y1622750D02*
X2133273Y1622375D01*
X2133545Y1622000*
X2133818Y1622375*
X2133545Y1622750*
X2136818Y1629875D02*
X2139818D01*
X2138182Y1626875*
X2139000*
X2139545Y1626500*
X2139818Y1626125*
X2140091Y1625000*
Y1624250*
X2139818Y1623125*
X2139273Y1622375*
X2138455Y1622000*
X2137636*
X2136818Y1622375*
X2136545Y1622750*
X2136273Y1623500*
X2146364Y1629875D02*
X2143636Y1622000D01*
X2142545Y1629875D02*
X2146364D01*
X2212136Y1628375D02*
X2212682Y1628750D01*
X2213500Y1629875*
Y1622000*
X2217318Y1629875D02*
X2216500Y1629500D01*
X2216227Y1628750*
Y1628000*
X2216500Y1627250*
X2217045Y1626875*
X2218136Y1626500*
X2218955Y1626125*
X2219500Y1625375*
X2219773Y1624625*
Y1623500*
X2219500Y1622750*
X2219227Y1622375*
X2218409Y1622000*
X2217318*
X2216500Y1622375*
X2216227Y1622750*
X2215955Y1623500*
Y1624625*
X2216227Y1625375*
X2216773Y1626125*
X2217591Y1626500*
X2218682Y1626875*
X2219227Y1627250*
X2219500Y1628000*
Y1628750*
X2219227Y1629500*
X2218409Y1629875*
X2217318*
X2247000Y1622000D02*
X2259000Y1634000D01*
Y1622000*
X2247000Y1634000*
Y1622000*
X2279636Y1629875D02*
X2281818Y1626125D01*
Y1622000*
X2284000Y1629875D02*
X2281818Y1626125D01*
X2286455Y1629875D02*
Y1622000D01*
Y1629875D02*
X2290000D01*
X2286455Y1626125D02*
X2288636D01*
X2286455Y1622000D02*
X2290000D01*
X2296273Y1628750D02*
X2295727Y1629500D01*
X2294909Y1629875*
X2293818*
X2293000Y1629500*
X2292455Y1628750*
Y1628000*
X2292727Y1627250*
X2293000Y1626875*
X2293545Y1626500*
X2295182Y1625750*
X2295727Y1625375*
X2296000Y1625000*
X2296273Y1624250*
Y1623125*
X2295727Y1622375*
X2294909Y1622000*
X2293818*
X2293000Y1622375*
X2292455Y1623125*
X2337455Y1628750D02*
Y1622000D01*
X2335000Y1625375D02*
X2339909D01*
X2347273Y1631375D02*
X2342364Y1619375D01*
X2349727Y1625375D02*
X2354636D01*
X2357636Y1629875D02*
X2360636D01*
X2359000Y1626875*
X2359818*
X2360364Y1626500*
X2360636Y1626125*
X2360909Y1625000*
Y1624250*
X2360636Y1623125*
X2360091Y1622375*
X2359273Y1622000*
X2358455*
X2357636Y1622375*
X2357364Y1622750*
X2357091Y1623500*
X2123727Y1605875D02*
X2121000Y1600625D01*
X2125091*
X2123727Y1605875D02*
Y1598000D01*
X2131364Y1605875D02*
X2128636Y1598000D01*
X2127545Y1605875D02*
X2131364D01*
X2134091Y1598750D02*
X2133818Y1598375D01*
X2134091Y1598000*
X2134364Y1598375*
X2134091Y1598750*
X2137091Y1604000D02*
Y1604375D01*
X2137364Y1605125*
X2137636Y1605500*
X2138182Y1605875*
X2139273*
X2139818Y1605500*
X2140091Y1605125*
X2140364Y1604375*
Y1603625*
X2140091Y1602875*
X2139545Y1601750*
X2136818Y1598000*
X2140636*
X2145818Y1605875D02*
X2143091Y1600625D01*
X2147182*
X2145818Y1605875D02*
Y1598000D01*
X2212136Y1604375D02*
X2212682Y1604750D01*
X2213500Y1605875*
Y1598000*
X2216227Y1604000D02*
Y1604375D01*
X2216500Y1605125*
X2216773Y1605500*
X2217318Y1605875*
X2218409*
X2218955Y1605500*
X2219227Y1605125*
X2219500Y1604375*
Y1603625*
X2219227Y1602875*
X2218682Y1601750*
X2215955Y1598000*
X2219773*
X2247000Y1604000D02*
X2259000D01*
X2253000Y1598000D02*
Y1610000D01*
X2257745Y1613300D02*
X2256000Y1607000D01*
X2257745Y1613300D02*
X2259491Y1607000D01*
X2256655Y1609100D02*
X2258836D01*
X2279636Y1605875D02*
X2281818Y1602125D01*
Y1598000*
X2284000Y1605875D02*
X2281818Y1602125D01*
X2286455Y1605875D02*
Y1598000D01*
Y1605875D02*
X2290000D01*
X2286455Y1602125D02*
X2288636D01*
X2286455Y1598000D02*
X2290000D01*
X2296273Y1604750D02*
X2295727Y1605500D01*
X2294909Y1605875*
X2293818*
X2293000Y1605500*
X2292455Y1604750*
Y1604000*
X2292727Y1603250*
X2293000Y1602875*
X2293545Y1602500*
X2295182Y1601750*
X2295727Y1601375*
X2296000Y1601000*
X2296273Y1600250*
Y1599125*
X2295727Y1598375*
X2294909Y1598000*
X2293818*
X2293000Y1598375*
X2292455Y1599125*
X2337455Y1604750D02*
Y1598000D01*
X2335000Y1601375D02*
X2339909D01*
X2347273Y1607375D02*
X2342364Y1595375D01*
X2349727Y1601375D02*
X2354636D01*
X2357636Y1605875D02*
X2360636D01*
X2359000Y1602875*
X2359818*
X2360364Y1602500*
X2360636Y1602125*
X2360909Y1601000*
Y1600250*
X2360636Y1599125*
X2360091Y1598375*
X2359273Y1598000*
X2358455*
X2357636Y1598375*
X2357364Y1598750*
X2357091Y1599500*
X2124273Y1580750D02*
X2124000Y1581500D01*
X2123182Y1581875*
X2122636*
X2121818Y1581500*
X2121273Y1580375*
X2121000Y1578500*
Y1576625*
X2121273Y1575125*
X2121818Y1574375*
X2122636Y1574000*
X2122909*
X2123727Y1574375*
X2124273Y1575125*
X2124545Y1576250*
Y1576625*
X2124273Y1577750*
X2123727Y1578500*
X2122909Y1578875*
X2122636*
X2121818Y1578500*
X2121273Y1577750*
X2121000Y1576625*
X2128364Y1581875D02*
X2127545Y1581500D01*
X2127273Y1580750*
Y1580000*
X2127545Y1579250*
X2128091Y1578875*
X2129182Y1578500*
X2130000Y1578125*
X2130545Y1577375*
X2130818Y1576625*
Y1575500*
X2130545Y1574750*
X2130273Y1574375*
X2129455Y1574000*
X2128364*
X2127545Y1574375*
X2127273Y1574750*
X2127000Y1575500*
Y1576625*
X2127273Y1577375*
X2127818Y1578125*
X2128636Y1578500*
X2129727Y1578875*
X2130273Y1579250*
X2130545Y1580000*
Y1580750*
X2130273Y1581500*
X2129455Y1581875*
X2128364*
X2133545Y1574750D02*
X2133273Y1574375D01*
X2133545Y1574000*
X2133818Y1574375*
X2133545Y1574750*
X2139818Y1579250D02*
X2139545Y1578125D01*
X2139000Y1577375*
X2138182Y1577000*
X2137909*
X2137091Y1577375*
X2136545Y1578125*
X2136273Y1579250*
Y1579625*
X2136545Y1580750*
X2137091Y1581500*
X2137909Y1581875*
X2138182*
X2139000Y1581500*
X2139545Y1580750*
X2139818Y1579250*
Y1577375*
X2139545Y1575500*
X2139000Y1574375*
X2138182Y1574000*
X2137636*
X2136818Y1574375*
X2136545Y1575125*
X2215409Y1581875D02*
X2214591Y1581500D01*
X2214318Y1580750*
Y1580000*
X2214591Y1579250*
X2215136Y1578875*
X2216227Y1578500*
X2217045Y1578125*
X2217591Y1577375*
X2217864Y1576625*
Y1575500*
X2217591Y1574750*
X2217318Y1574375*
X2216500Y1574000*
X2215409*
X2214591Y1574375*
X2214318Y1574750*
X2214045Y1575500*
Y1576625*
X2214318Y1577375*
X2214864Y1578125*
X2215682Y1578500*
X2216773Y1578875*
X2217318Y1579250*
X2217591Y1580000*
Y1580750*
X2217318Y1581500*
X2216500Y1581875*
X2215409*
X2247000Y1580000D02*
X2259000D01*
X2253000Y1574000D02*
Y1586000D01*
X2256000Y1589300D02*
Y1583000D01*
Y1589300D02*
X2257964D01*
X2258618Y1589000*
X2258836Y1588700*
X2259055Y1588100*
Y1587500*
X2258836Y1586900*
X2258618Y1586600*
X2257964Y1586300*
X2256000D02*
X2257964D01*
X2258618Y1586000*
X2258836Y1585700*
X2259055Y1585100*
Y1584200*
X2258836Y1583600*
X2258618Y1583300*
X2257964Y1583000*
X2256000*
X2279636Y1581875D02*
X2281818Y1578125D01*
Y1574000*
X2284000Y1581875D02*
X2281818Y1578125D01*
X2286455Y1581875D02*
Y1574000D01*
Y1581875D02*
X2290000D01*
X2286455Y1578125D02*
X2288636D01*
X2286455Y1574000D02*
X2290000D01*
X2296273Y1580750D02*
X2295727Y1581500D01*
X2294909Y1581875*
X2293818*
X2293000Y1581500*
X2292455Y1580750*
Y1580000*
X2292727Y1579250*
X2293000Y1578875*
X2293545Y1578500*
X2295182Y1577750*
X2295727Y1577375*
X2296000Y1577000*
X2296273Y1576250*
Y1575125*
X2295727Y1574375*
X2294909Y1574000*
X2293818*
X2293000Y1574375*
X2292455Y1575125*
X2337455Y1580750D02*
Y1574000D01*
X2335000Y1577375D02*
X2339909D01*
X2347273Y1583375D02*
X2342364Y1571375D01*
X2349727Y1577375D02*
X2354636D01*
X2357636Y1581875D02*
X2360636D01*
X2359000Y1578875*
X2359818*
X2360364Y1578500*
X2360636Y1578125*
X2360909Y1577000*
Y1576250*
X2360636Y1575125*
X2360091Y1574375*
X2359273Y1574000*
X2358455*
X2357636Y1574375*
X2357364Y1574750*
X2357091Y1575500*
X2124545Y1557875D02*
X2121818D01*
X2121545Y1554500*
X2121818Y1554875*
X2122636Y1555250*
X2123455*
X2124273Y1554875*
X2124818Y1554125*
X2125091Y1553000*
X2124818Y1552250*
X2124545Y1551125*
X2124000Y1550375*
X2123182Y1550000*
X2122364*
X2121545Y1550375*
X2121273Y1550750*
X2121000Y1551500*
X2209000Y1556375D02*
X2209545Y1556750D01*
X2210364Y1557875*
Y1550000*
X2213091Y1556000D02*
Y1556375D01*
X2213364Y1557125*
X2213636Y1557500*
X2214182Y1557875*
X2215273*
X2215818Y1557500*
X2216091Y1557125*
X2216364Y1556375*
Y1555625*
X2216091Y1554875*
X2215545Y1553750*
X2212818Y1550000*
X2216636*
X2220455Y1557875D02*
X2219636Y1557500D01*
X2219364Y1556750*
Y1556000*
X2219636Y1555250*
X2220182Y1554875*
X2221273Y1554500*
X2222091Y1554125*
X2222636Y1553375*
X2222909Y1552625*
Y1551500*
X2222636Y1550750*
X2222364Y1550375*
X2221545Y1550000*
X2220455*
X2219636Y1550375*
X2219364Y1550750*
X2219091Y1551500*
Y1552625*
X2219364Y1553375*
X2219909Y1554125*
X2220727Y1554500*
X2221818Y1554875*
X2222364Y1555250*
X2222636Y1556000*
Y1556750*
X2222364Y1557500*
X2221545Y1557875*
X2220455*
X2247000Y1556000D02*
X2259000D01*
X2253000Y1550000D02*
Y1562000D01*
X2259273Y1563800D02*
X2259055Y1564400D01*
X2258618Y1565000*
X2258182Y1565300*
X2257309*
X2256873Y1565000*
X2256436Y1564400*
X2256218Y1563800*
X2256000Y1562900*
Y1561400*
X2256218Y1560500*
X2256436Y1559900*
X2256873Y1559300*
X2257309Y1559000*
X2258182*
X2258618Y1559300*
X2259055Y1559900*
X2259273Y1560500*
X2279636Y1557875D02*
X2281818Y1554125D01*
Y1550000*
X2284000Y1557875D02*
X2281818Y1554125D01*
X2286455Y1557875D02*
Y1550000D01*
Y1557875D02*
X2290000D01*
X2286455Y1554125D02*
X2288636D01*
X2286455Y1550000D02*
X2290000D01*
X2296273Y1556750D02*
X2295727Y1557500D01*
X2294909Y1557875*
X2293818*
X2293000Y1557500*
X2292455Y1556750*
Y1556000*
X2292727Y1555250*
X2293000Y1554875*
X2293545Y1554500*
X2295182Y1553750*
X2295727Y1553375*
X2296000Y1553000*
X2296273Y1552250*
Y1551125*
X2295727Y1550375*
X2294909Y1550000*
X2293818*
X2293000Y1550375*
X2292455Y1551125*
X2337455Y1556750D02*
Y1550000D01*
X2335000Y1553375D02*
X2339909D01*
X2347273Y1559375D02*
X2342364Y1547375D01*
X2349727Y1553375D02*
X2354636D01*
X2357636Y1557875D02*
X2360636D01*
X2359000Y1554875*
X2359818*
X2360364Y1554500*
X2360636Y1554125*
X2360909Y1553000*
Y1552250*
X2360636Y1551125*
X2360091Y1550375*
X2359273Y1550000*
X2358455*
X2357636Y1550375*
X2357364Y1550750*
X2357091Y1551500*
X2121000Y1532375D02*
X2121545Y1532750D01*
X2122364Y1533875*
Y1526000*
X2128364Y1533875D02*
X2125636D01*
X2125364Y1530500*
X2125636Y1530875*
X2126455Y1531250*
X2127273*
X2128091Y1530875*
X2128636Y1530125*
X2128909Y1529000*
X2128636Y1528250*
X2128364Y1527125*
X2127818Y1526375*
X2127000Y1526000*
X2126182*
X2125364Y1526375*
X2125091Y1526750*
X2124818Y1527500*
X2131636Y1526750D02*
X2131364Y1526375D01*
X2131636Y1526000*
X2131909Y1526375*
X2131636Y1526750*
X2138182Y1533875D02*
X2135455Y1526000D01*
X2134364Y1533875D02*
X2138182D01*
X2144182D02*
X2141455D01*
X2141182Y1530500*
X2141455Y1530875*
X2142273Y1531250*
X2143091*
X2143909Y1530875*
X2144455Y1530125*
X2144727Y1529000*
X2144455Y1528250*
X2144182Y1527125*
X2143636Y1526375*
X2142818Y1526000*
X2142000*
X2141182Y1526375*
X2140909Y1526750*
X2140636Y1527500*
X2212273Y1532375D02*
X2212818Y1532750D01*
X2213636Y1533875*
Y1526000*
X2219364Y1532750D02*
X2219091Y1533500D01*
X2218273Y1533875*
X2217727*
X2216909Y1533500*
X2216364Y1532375*
X2216091Y1530500*
Y1528625*
X2216364Y1527125*
X2216909Y1526375*
X2217727Y1526000*
X2218000*
X2218818Y1526375*
X2219364Y1527125*
X2219636Y1528250*
Y1528625*
X2219364Y1529750*
X2218818Y1530500*
X2218000Y1530875*
X2217727*
X2216909Y1530500*
X2216364Y1529750*
X2216091Y1528625*
X2247000Y1532000D02*
X2259000D01*
X2253000Y1526000D02*
Y1538000D01*
X2256000Y1541300D02*
Y1535000D01*
Y1541300D02*
X2257527D01*
X2258182Y1541000*
X2258618Y1540400*
X2258836Y1539800*
X2259055Y1538900*
Y1537400*
X2258836Y1536500*
X2258618Y1535900*
X2258182Y1535300*
X2257527Y1535000*
X2256000*
X2279636Y1533875D02*
X2281818Y1530125D01*
Y1526000*
X2284000Y1533875D02*
X2281818Y1530125D01*
X2286455Y1533875D02*
Y1526000D01*
Y1533875D02*
X2290000D01*
X2286455Y1530125D02*
X2288636D01*
X2286455Y1526000D02*
X2290000D01*
X2296273Y1532750D02*
X2295727Y1533500D01*
X2294909Y1533875*
X2293818*
X2293000Y1533500*
X2292455Y1532750*
Y1532000*
X2292727Y1531250*
X2293000Y1530875*
X2293545Y1530500*
X2295182Y1529750*
X2295727Y1529375*
X2296000Y1529000*
X2296273Y1528250*
Y1527125*
X2295727Y1526375*
X2294909Y1526000*
X2293818*
X2293000Y1526375*
X2292455Y1527125*
X2337455Y1532750D02*
Y1526000D01*
X2335000Y1529375D02*
X2339909D01*
X2347273Y1535375D02*
X2342364Y1523375D01*
X2349727Y1529375D02*
X2354636D01*
X2357636Y1533875D02*
X2360636D01*
X2359000Y1530875*
X2359818*
X2360364Y1530500*
X2360636Y1530125*
X2360909Y1529000*
Y1528250*
X2360636Y1527125*
X2360091Y1526375*
X2359273Y1526000*
X2358455*
X2357636Y1526375*
X2357364Y1526750*
X2357091Y1527500*
G74*
X0Y0D02*
M02*
