0
SECTION
2
HEADER
999
*** POWERPCB  HEADER ***
9
$EXTMIN
10
-1.555
20
-2.7505
9
$EXTMAX
10
3.7564055118
20
1.1061811024
9
$FILLMODE
70
0
9
$GRIDMODE
70
1
9
$GRIDUNIT
10
0.0393700787
20
0.0393700787
9
$INSBASE
10
5.75
20
10.59
9
$LIMCHECK
70
0
9
$PLINEWID
40
0.0059055118
9
$SNAPMODE
70
1
9
$SNAPUNIT
10
0.0019685039
20
0.0019685039
9
$TEXTSIZE
40
0.1
9
$TEXTSTYLE
7
W0$01
9
$USERI1
70
102
9
$USERI2
70
0
9
$USERI5
70
150
9
$VIEWCTR
10
2.1583592913
20
-1.2850206299
0
ENDSEC
0
SECTION
2
TABLES
999
*** POWERPCB  LTYPE ***
0
TABLE
2
LTYPE
70
1
0
LTYPE
2
CONTINUOUS
70
64
3
---
72
65
73
0
40
0
0
LTYPE
2
KEEPOUT_00001000$0
70
64
3
---
72
65
73
2
40
2
49
1
49
1
0
ENDTAB
999
*** POWERPCB  LAYER ***
0
TABLE
2
LAYER
70
46
0
LAYER
2
DBLAYERS
70
1
62
-176
6
CONTINUOUS
0
LAYER
2
BOARD_OUTLINE_00
70
0
62
176
6
CONTINUOUS
0
LAYER
2
2D_LINE_01
70
0
62
1
6
CONTINUOUS
0
LAYER
2
LABEL_INFO
70
1
62
-176
6
CONTINUOUS
0
LAYER
2
LABEL_ATTRIBUTE
70
1
62
-176
6
CONTINUOUS
0
LAYER
2
PART_TYPE_04
70
1
62
-250
6
CONTINUOUS
0
LAYER
2
PART_NAME_04
70
0
62
253
6
CONTINUOUS
0
LAYER
2
PART_INFO
70
1
62
-176
6
CONTINUOUS
0
LAYER
2
PART_PTS
70
1
62
-176
6
CONTINUOUS
0
LAYER
2
PART_TYPE_01
70
1
62
-250
6
CONTINUOUS
0
LAYER
2
PART_NAME_01
70
0
62
254
6
CONTINUOUS
0
LAYER
2
PART_NAME_BOT
70
1
62
-250
6
CONTINUOUS
0
LAYER
2
PART_NAME_29
70
1
62
-250
6
CONTINUOUS
0
LAYER
2
PART_TYPE_BOT
70
1
62
-250
6
CONTINUOUS
0
LAYER
2
PART_NAME_TOP
70
1
62
-250
6
CONTINUOUS
0
LAYER
2
SYM_NAME
70
1
62
-176
6
CONTINUOUS
0
LAYER
2
SYM_PART_TYPE_01
70
1
62
-176
6
CONTINUOUS
0
LAYER
2
SYM_PART_NAME_01
70
1
62
-176
6
CONTINUOUS
0
LAYER
2
SYM_TERMINAL
70
1
62
-176
6
CONTINUOUS
0
LAYER
2
PKG_INFO
70
1
62
-176
6
CONTINUOUS
0
LAYER
2
SYM_PART_NAME_26
70
1
62
-176
6
CONTINUOUS
0
LAYER
2
PART_BOT_2DLINE_00
70
0
62
253
6
CONTINUOUS
0
LAYER
2
DRIL_PLTE_THRU_01
70
0
62
1
6
CONTINUOUS
0
LAYER
2
DRIL_PLTE_THRU_02
70
0
62
56
6
CONTINUOUS
0
LAYER
2
DRIL_PLTE_THRU_03
70
0
62
96
6
CONTINUOUS
0
LAYER
2
DRIL_PLTE_THRU_04
70
0
62
176
6
CONTINUOUS
0
LAYER
2
PADS_INNER
70
0
62
23
6
CONTINUOUS
0
LAYER
2
PADS_BOT
70
0
62
5
6
CONTINUOUS
0
LAYER
2
PADS_TOP
70
0
62
23
6
CONTINUOUS
0
LAYER
2
PART_BOT_2DLINE_01
70
1
62
-250
6
CONTINUOUS
0
LAYER
2
DRIL_NPLTE_THRU_01
70
0
62
1
6
CONTINUOUS
0
LAYER
2
DRIL_NPLTE_THRU_02
70
0
62
56
6
CONTINUOUS
0
LAYER
2
DRIL_NPLTE_THRU_03
70
0
62
96
6
CONTINUOUS
0
LAYER
2
DRIL_NPLTE_THRU_04
70
0
62
176
6
CONTINUOUS
0
LAYER
2
PART_TOP_2DLINE_25
70
1
62
-250
6
CONTINUOUS
0
LAYER
2
PADS_INNER_THER
70
1
62
-23
6
CONTINUOUS
0
LAYER
2
PADS_INNER_ANTI
70
1
62
-23
6
CONTINUOUS
0
LAYER
2
PADS_XR_02
70
0
62
2
6
CONTINUOUS
0
LAYER
2
PADS_XR_03
70
0
62
3
6
CONTINUOUS
0
LAYER
2
PADS_XR_23
70
1
62
-250
6
CONTINUOUS
0
LAYER
2
PADS_XR_21
70
1
62
-250
6
CONTINUOUS
0
LAYER
2
KEEPOUT_01
70
1
62
-250
6
CONTINUOUS
0
LAYER
2
PART_TOP_2DLINE_26
70
1
62
-250
6
CONTINUOUS
0
LAYER
2
PART_TOP_2DLINE_01
70
0
62
254
6
CONTINUOUS
0
LAYER
2
PCB_PARAMS
70
1
62
-176
6
CONTINUOUS
0
LAYER
2
DRIL_SYMBOL
70
0
62
176
6
CONTINUOUS
0
ENDTAB
999
*** POWERPCB  TEXT STYLE ***
0
TABLE
2
STYLE
70
9
0
STYLE
2
W0$01
70
64
40
0
41
0.75
42
0
50
0
71
0
3
simplex
0
STYLE
2
W0$0078740157
70
64
40
0
41
0.75
42
0
50
0
71
0
3
simplex
0
STYLE
2
W0$008
70
64
40
0
41
0.75
42
0
50
0
71
0
3
simplex
0
STYLE
2
W0$0059055118
70
64
40
0
41
0.75
42
0
50
0
71
0
3
simplex
0
STYLE
2
W0$005
70
64
40
0
41
0.75
42
0
50
0
71
0
3
simplex
0
STYLE
2
W0$01R0
70
64
40
0
41
0.75
42
0
50
0
71
0
3
simplex
0
STYLE
2
W0$008R0
70
64
40
0
41
0.75
42
0
50
0
71
0
3
simplex
0
STYLE
2
W0$0059055118R1
70
64
40
0
41
0.75
42
0
50
0
71
0
3
simplex
0
STYLE
2
W0$005R0
70
64
40
0
41
0.75
42
0
50
0
71
0
3
simplex
0
ENDTAB
0
ENDSEC
0
SECTION
2
BLOCKS
999
*** POWERPCB  DBLAYER ***
0
BLOCK
2
DBLAYERS
8
0
10
0
20
0
3
DBLAYERS
70
64
0
TEXT
8
DBLAYERS
10
0
20
-0.12
40
0.07
1
__It__Is__Job__Name__:=MMSP_L_1.pcb
999
 *  1.Number             2.Type                  3.RouteColor
999
 *  4.ViaColor           5.PadColor              6.CopperColor
999
 *  7.2DLineColor        8.TextColor             9.ErrorColor
999
 * 10.TopComponentColor 11.BottomComponentColor 12.RoutingDirection
999
 * 13.LayerThickness    14.CopperThickness      15.Dielectric
999
 * 16.IsRouteable       17.IsVisible            18.IsSelectable
999
 * 19.IsPrepreg         20.AssSilkScreen        21.AssPasteMask
999
 * 22.AssSolderMask     23.AssAssembly
0
TEXT
8
DBLAYERS
10
0
20
-0.24
40
0.07
1
Top:=1 1 12 12 20 12 12 12 14 8 0 0 75000 51435 4.3000001907 1 1 1 0 26 23 21 27 0 1 1 8 0 0 0 
0
TEXT
8
DBLAYERS
10
0
20
-0.36
40
0.07
1
Bottom:=4 1 9 9 9 9 9 9 13 0 7 1 0 51435 3.2999999523 1 1 1 0 29 22 28 30 0 1 1 7 0 0 0 
0
TEXT
8
DBLAYERS
10
0
20
-0.48
40
0.07
1
Silkscreen Top:=26 3 0 0 0 0 11 11 0 0 0 2 0 0 3.2999999523 0 0 1 0 -1 -1 -1 -1 0 0 0 0 0 0 0 
0
ENDBLK
999
*** POWERPCB  BOARD ***
0
BLOCK
2
BOARD_109
8
0
10
0
20
0
3
BOARD_109
70
64
0
POLYLINE
8
BOARD_OUTLINE_00
66
1
40
0.001
41
0.001
70
1
0
VERTEX
8
BOARD_OUTLINE_00
10
0.1145339633
20
0.0072695276
42
-0.5018546721
0
VERTEX
8
BOARD_OUTLINE_00
10
0.0433671654
20
0.0941072178
0
VERTEX
8
BOARD_OUTLINE_00
10
0.0446929396
20
0.0966058793
0
VERTEX
8
BOARD_OUTLINE_00
10
0.044488189
20
0.0964011286
0
VERTEX
8
BOARD_OUTLINE_00
10
0.1933844619
20
0.4058951969
0
VERTEX
8
BOARD_OUTLINE_00
10
0.2133844619
20
0.5558951969
0
VERTEX
8
BOARD_OUTLINE_00
10
0.19
20
0.75
0
VERTEX
8
BOARD_OUTLINE_00
10
0.06
20
0.89
0
VERTEX
8
BOARD_OUTLINE_00
10
-0.37
20
1.12
0
VERTEX
8
BOARD_OUTLINE_00
10
-0.6990160892
20
1.12
0
VERTEX
8
BOARD_OUTLINE_00
10
-0.8590160892
20
1.26
0
VERTEX
8
BOARD_OUTLINE_00
10
-1.0022834646
20
1.5491744094
42
-0.527797942
0
VERTEX
8
BOARD_OUTLINE_00
10
-0.9471153281
20
1.6474840157
0
VERTEX
8
BOARD_OUTLINE_00
10
-0.9466535696
20
1.6474409449
0
VERTEX
8
BOARD_OUTLINE_00
10
-0.939763832
20
1.6405512336
42
0.286273236
0
VERTEX
8
BOARD_OUTLINE_00
10
-0.859094042
20
1.6488093176
0
VERTEX
8
BOARD_OUTLINE_00
10
-0.8543453806
20
1.653557979
0
VERTEX
8
BOARD_OUTLINE_00
10
-0.65
20
1.67
0
VERTEX
8
BOARD_OUTLINE_00
10
-0.23
20
1.69
0
VERTEX
8
BOARD_OUTLINE_00
10
0.3043307087
20
1.69
42
0.3057306815
0
VERTEX
8
BOARD_OUTLINE_00
10
0.3318897638
20
1.640511811
42
0.3689194771
0
VERTEX
8
BOARD_OUTLINE_00
10
0.4106692913
20
1.640511811
0
VERTEX
8
BOARD_OUTLINE_00
10
0.4401574803
20
1.67
0
VERTEX
8
BOARD_OUTLINE_00
10
0.54
20
1.67
0
VERTEX
8
BOARD_OUTLINE_00
10
1.2019685039
20
1.5829779265
0
VERTEX
8
BOARD_OUTLINE_00
10
1.2135259055
20
1.5829779265
42
0.3536276
0
VERTEX
8
BOARD_OUTLINE_00
10
1.2917386352
20
1.5745544882
0
VERTEX
8
BOARD_OUTLINE_00
10
1.2924707612
20
1.5752959318
0
VERTEX
8
BOARD_OUTLINE_00
10
1.347577874
20
1.5636533858
42
-0.2618787794
0
VERTEX
8
BOARD_OUTLINE_00
10
1.354066168
20
1.540321916
0
VERTEX
8
BOARD_OUTLINE_00
10
1.2806803412
20
1.2409518373
0
VERTEX
8
BOARD_OUTLINE_00
10
1.2366300525
20
1.0268655906
0
VERTEX
8
BOARD_OUTLINE_00
10
1.1535275591
20
0.6653700525
0
VERTEX
8
BOARD_OUTLINE_00
10
1.1687694751
20
0.6297244094
42
-0.1214560422
0
VERTEX
8
BOARD_OUTLINE_00
10
1.1343206562
20
0.4830708661
0
VERTEX
8
BOARD_OUTLINE_00
10
1.1153543307
20
0.4830708661
0
VERTEX
8
BOARD_OUTLINE_00
10
1.08
20
0.35
0
VERTEX
8
BOARD_OUTLINE_00
10
0.9856260892
20
0.0158816273
0
VERTEX
8
BOARD_OUTLINE_00
10
0.959191811
20
-0.0601390551
42
-0.2754458909
0
VERTEX
8
BOARD_OUTLINE_00
10
0.9358491864
20
-0.0779527559
0
VERTEX
8
BOARD_OUTLINE_00
10
0.7805475591
20
-0.0779527559
42
-0.3674330406
0
VERTEX
8
BOARD_OUTLINE_00
10
0.5835585039
20
-0.0578221785
0
VERTEX
8
BOARD_OUTLINE_00
10
0.5282584514
20
0.0037378215
0
VERTEX
8
BOARD_OUTLINE_00
10
0.4007874016
20
0.0037378215
0
VERTEX
8
BOARD_OUTLINE_00
10
0.383564147
20
-0.0134854331
0
VERTEX
8
BOARD_OUTLINE_00
10
0.2807086614
20
-0.0134854331
0
VERTEX
8
BOARD_OUTLINE_00
10
0.2627454593
20
0.004477769
0
SEQEND
0
INSERT
2
SMOOTH_0$001
8
BOARD_OUTLINE_00
10
0.1145339633
20
0.0072695276
0
INSERT
2
SMOOTH_0$001
8
BOARD_OUTLINE_00
10
0.0433671654
20
0.0941072178
0
INSERT
2
SMOOTH_0$001
8
BOARD_OUTLINE_00
10
0.0446929396
20
0.0966058793
0
INSERT
2
SMOOTH_0$001
8
BOARD_OUTLINE_00
10
0.044488189
20
0.0964011286
0
INSERT
2
SMOOTH_0$001
8
BOARD_OUTLINE_00
10
0.1933844619
20
0.4058951969
0
INSERT
2
SMOOTH_0$001
8
BOARD_OUTLINE_00
10
0.2133844619
20
0.5558951969
0
INSERT
2
SMOOTH_0$001
8
BOARD_OUTLINE_00
10
0.19
20
0.75
0
INSERT
2
SMOOTH_0$001
8
BOARD_OUTLINE_00
10
0.06
20
0.89
0
INSERT
2
SMOOTH_0$001
8
BOARD_OUTLINE_00
10
-0.37
20
1.12
0
INSERT
2
SMOOTH_0$001
8
BOARD_OUTLINE_00
10
-0.6990160892
20
1.12
0
INSERT
2
SMOOTH_0$001
8
BOARD_OUTLINE_00
10
-0.8590160892
20
1.26
0
INSERT
2
SMOOTH_0$001
8
BOARD_OUTLINE_00
10
-1.0022834646
20
1.5491744094
0
ENDBLK
999
*** POWERPCB  2DLINE ***
0
BLOCK
2
DRAWING_117
8
0
10
0
20
0
3
DRAWING_117
70
64
0
POLYLINE
8
2D_LINE_01
66
1
40
0.001
41
0.001
70
1
0
VERTEX
8
2D_LINE_01
10
0
20
0.0866141732
0
VERTEX
8
2D_LINE_01
10
0
20
-0.4311023622
0
VERTEX
8
2D_LINE_01
10
0.5177165354
20
-0.4311023622
0
SEQEND
0
INSERT
2
SMOOTH_0$001
8
2D_LINE_01
10
0
20
0.0866141732
0
INSERT
2
SMOOTH_0$001
8
2D_LINE_01
10
0
20
-0.4311023622
0
INSERT
2
SMOOTH_0$001
8
2D_LINE_01
10
0.5177165354
20
-0.4311023622
0
ENDBLK
0
BLOCK
2
DRAWING_118
8
0
10
0
20
0
3
DRAWING_118
70
64
0
POLYLINE
8
2D_LINE_01
66
1
40
0.001
41
0.001
70
1
0
VERTEX
8
2D_LINE_01
10
0.0866141732
20
0
0
VERTEX
8
2D_LINE_01
10
-0.4311023622
20
0
0
VERTEX
8
2D_LINE_01
10
-0.4311023622
20
-0.5177165354
0
SEQEND
0
INSERT
2
SMOOTH_0$001
8
2D_LINE_01
10
0.0866141732
20
0
0
INSERT
2
SMOOTH_0$001
8
2D_LINE_01
10
-0.4311023622
20
0
0
INSERT
2
SMOOTH_0$001
8
2D_LINE_01
10
-0.4311023622
20
-0.5177165354
0
ENDBLK
0
BLOCK
2
DRAWING_119
8
0
10
0
20
0
3
DRAWING_119
70
64
0
POLYLINE
8
2D_LINE_01
66
1
40
0.001
41
0.001
70
1
0
VERTEX
8
2D_LINE_01
10
-0.0866141732
20
0
0
VERTEX
8
2D_LINE_01
10
0.4311023622
20
0
0
VERTEX
8
2D_LINE_01
10
0.4311023622
20
0.5177165354
0
SEQEND
0
INSERT
2
SMOOTH_0$001
8
2D_LINE_01
10
-0.0866141732
20
0
0
INSERT
2
SMOOTH_0$001
8
2D_LINE_01
10
0.4311023622
20
0
0
INSERT
2
SMOOTH_0$001
8
2D_LINE_01
10
0.4311023622
20
0.5177165354
0
ENDBLK
0
BLOCK
2
D_1dfeghi_121
8
0
10
0
20
0
3
D_1dfeghi_121
70
64
0
ENDBLK
0
BLOCK
2
D_2dfeghi_122
8
0
10
0
20
0
3
D_2dfeghi_122
70
64
0
ENDBLK
999
*** POWERPCB  COMPONENT ***
0
BLOCK
2
PART_BOT_0
8
0
10
0
20
0
3
PART_BOT_0
70
64
0
INSERT
2
SYM_BOT_2
8
0
10
0
20
0
0
INSERT
2
PKG_0
8
0
10
0
20
0
41
-1
0
TEXT
8
LABEL_INFO
10
-0.07
20
0.14
40
0.07
1
0 0 0 2 0 1
73
2
11
-0.07
21
0.14
41
0.75
7
W0$01
0
TEXT
8
LABEL_ATTRIBUTE
10
-0.07
20
0.14
40
0.07
1
PartType
73
2
11
-0.07
21
0.14
41
0.75
7
W0$01
0
TEXT
8
PART_TYPE_04
10
-0.07
20
0.14
40
0.07
1
0402
73
3
11
-0.07
21
0.14
41
0.75
7
W0$01
0
TEXT
8
LABEL_INFO
10
-0.0779487664
20
-0.0027838845
40
0.0344488189
1
0 0 0 0 0 1
41
0.75
7
W0$0078740157
0
TEXT
8
LABEL_ATTRIBUTE
10
-0.0779487664
20
-0.0027838845
40
0.0344488189
1
Ref.Des.
41
0.75
7
W0$0078740157
0
TEXT
8
PART_NAME_04
10
-0.0779487664
20
-0.0027838845
40
0.0344488189
1
C1
41
0.75
7
W0$0078740157
0
TEXT
8
PART_INFO
10
-0.0779487664
20
-0.0519964829
40
0.0344488189
1
000000
71
2
41
0.75
7
W0$0078740157
0
TEXT
8
PART_PTS
10
-0.0779487664
20
-0.1012090814
40
0.0344488189
1
1 2 
71
2
41
0.75
7
W0$0078740157
0
ENDBLK
0
BLOCK
2
PART_BOT_1
8
0
10
0
20
0
3
PART_BOT_1
70
64
0
INSERT
2
SYM_BOT_2
8
0
10
0
20
0
0
INSERT
2
PKG_0
8
0
10
0
20
0
41
-1
0
TEXT
8
LABEL_INFO
10
-0.07
20
0.14
40
0.07
1
0 0 0 2 0 1
73
2
11
-0.07
21
0.14
41
0.75
7
W0$01
0
TEXT
8
LABEL_ATTRIBUTE
10
-0.07
20
0.14
40
0.07
1
PartType
73
2
11
-0.07
21
0.14
41
0.75
7
W0$01
0
TEXT
8
PART_TYPE_04
10
-0.07
20
0.14
40
0.07
1
0402
73
3
11
-0.07
21
0.14
41
0.75
7
W0$01
0
TEXT
8
LABEL_INFO
10
0.0354330709
20
-0.0118110236
40
0.0344488189
1
0 0 0 0 0 1
41
0.75
7
W0$0078740157
0
TEXT
8
LABEL_ATTRIBUTE
10
0.0354330709
20
-0.0118110236
40
0.0344488189
1
Ref.Des.
41
0.75
7
W0$0078740157
0
TEXT
8
PART_NAME_04
10
0.0354330709
20
-0.0118110236
40
0.0344488189
1
C10
41
0.75
7
W0$0078740157
0
TEXT
8
PART_INFO
10
0.0354330709
20
-0.061023622
40
0.0344488189
1
000000
71
2
41
0.75
7
W0$0078740157
0
TEXT
8
PART_PTS
10
0.0354330709
20
-0.1102362205
40
0.0344488189
1
1 2 
71
2
41
0.75
7
W0$0078740157
0
ENDBLK
0
BLOCK
2
PART_BOT_2
8
0
10
0
20
0
3
PART_BOT_2
70
64
0
INSERT
2
SYM_BOT_2
8
0
10
0
20
0
0
INSERT
2
PKG_0
8
0
10
0
20
0
41
-1
0
TEXT
8
LABEL_INFO
10
-0.07
20
0.14
40
0.07
1
0 0 0 2 0 1
73
2
11
-0.07
21
0.14
41
0.75
7
W0$01
0
TEXT
8
LABEL_ATTRIBUTE
10
-0.07
20
0.14
40
0.07
1
PartType
73
2
11
-0.07
21
0.14
41
0.75
7
W0$01
0
TEXT
8
PART_TYPE_04
10
-0.07
20
0.14
40
0.07
1
0402
73
3
11
-0.07
21
0.14
41
0.75
7
W0$01
0
TEXT
8
LABEL_INFO
10
-0.0193128084
20
0.0218343307
40
0.0344488189
1
0 0 0 0 0 1
41
0.75
7
W0$0078740157
0
TEXT
8
LABEL_ATTRIBUTE
10
-0.0193128084
20
0.0218343307
40
0.0344488189
1
Ref.Des.
41
0.75
7
W0$0078740157
0
TEXT
8
PART_NAME_04
10
-0.0193128084
20
0.0218343307
40
0.0344488189
1
C11
41
0.75
7
W0$0078740157
0
TEXT
8
PART_INFO
10
-0.0193128084
20
-0.0273782677
40
0.0344488189
1
000000
71
2
41
0.75
7
W0$0078740157
0
TEXT
8
PART_PTS
10
-0.0193128084
20
-0.0765908661
40
0.0344488189
1
1 2 
71
2
41
0.75
7
W0$0078740157
0
ENDBLK
0
BLOCK
2
PART_BOT_3
8
0
10
0
20
0
3
PART_BOT_3
70
64
0
INSERT
2
SYM_BOT_2
8
0
10
0
20
0
0
INSERT
2
PKG_0
8
0
10
0
20
0
41
-1
0
TEXT
8
LABEL_INFO
10
-0.07
20
0.14
40
0.07
1
0 0 0 2 0 1
73
2
11
-0.07
21
0.14
41
0.75
7
W0$01
0
TEXT
8
LABEL_ATTRIBUTE
10
-0.07
20
0.14
40
0.07
1
PartType
73
2
11
-0.07
21
0.14
41
0.75
7
W0$01
0
TEXT
8
PART_TYPE_04
10
-0.07
20
0.14
40
0.07
1
0402
73
3
11
-0.07
21
0.14
41
0.75
7
W0$01
0
TEXT
8
LABEL_INFO
10
-0.1045526509
20
-0.0082343307
40
0.0344488189
1
0 0 0 0 0 1
41
0.75
7
W0$0078740157
0
TEXT
8
LABEL_ATTRIBUTE
10
-0.1045526509
20
-0.0082343307
40
0.0344488189
1
Ref.Des.
41
0.75
7
W0$0078740157
0
TEXT
8
PART_NAME_04
10
-0.1045526509
20
-0.0082343307
40
0.0344488189
1
C12
41
0.75
7
W0$0078740157
0
TEXT
8
PART_INFO
10
-0.1045526509
20
-0.0574469291
40
0.0344488189
1
000000
71
2
41
0.75
7
W0$0078740157
0
TEXT
8
PART_PTS
10
-0.1045526509
20
-0.1066595276
40
0.0344488189
1
1 2 
71
2
41
0.75
7
W0$0078740157
0
ENDBLK
0
BLOCK
2
PART_BOT_4
8
0
10
0
20
0
3
PART_BOT_4
70
64
0
INSERT
2
SYM_BOT_2
8
0
10
0
20
0
0
INSERT
2
PKG_0
8
0
10
0
20
0
41
-1
0
TEXT
8
LABEL_INFO
10
-0.07
20
0.14
40
0.07
1
0 0 0 2 0 1
73
2
11
-0.07
21
0.14
41
0.75
7
W0$01
0
TEXT
8
LABEL_ATTRIBUTE
10
-0.07
20
0.14
40
0.07
1
PartType
73
2
11
-0.07
21
0.14
41
0.75
7
W0$01
0
TEXT
8
PART_TYPE_04
10
-0.07
20
0.14
40
0.07
1
0402
73
3
11
-0.07
21
0.14
41
0.75
7
W0$01
0
TEXT
8
LABEL_INFO
10
-0.0255905512
20
0.0236220472
40
0.0344488189
1
0 0 0 0 0 1
41
0.75
7
W0$0078740157
0
TEXT
8
LABEL_ATTRIBUTE
10
-0.0255905512
20
0.0236220472
40
0.0344488189
1
Ref.Des.
41
0.75
7
W0$0078740157
0
TEXT
8
PART_NAME_04
10
-0.0255905512
20
0.0236220472
40
0.0344488189
1
C13
41
0.75
7
W0$0078740157
0
TEXT
8
PART_INFO
10
-0.0255905512
20
-0.0255905512
40
0.0344488189
1
000000
71
2
41
0.75
7
W0$0078740157
0
TEXT
8
PART_PTS
10
-0.0255905512
20
-0.0748031496
40
0.0344488189
1
1 2 
71
2
41
0.75
7
W0$0078740157
0
ENDBLK
0
BLOCK
2
PART_BOT_5
8
0
10
0
20
0
3
PART_BOT_5
70
64
0
INSERT
2
SYM_BOT_2
8
0
10
0
20
0
0
INSERT
2
PKG_0
8
0
10
0
20
0
41
-1
0
TEXT
8
LABEL_INFO
10
-0.07
20
0.14
40
0.07
1
0 0 0 2 0 1
73
2
11
-0.07
21
0.14
41
0.75
7
W0$01
0
TEXT
8
LABEL_ATTRIBUTE
10
-0.07
20
0.14
40
0.07
1
PartType
73
2
11
-0.07
21
0.14
41
0.75
7
W0$01
0
TEXT
8
PART_TYPE_04
10
-0.07
20
0.14
40
0.07
1
0402
73
3
11
-0.07
21
0.14
41
0.75
7
W0$01
0
TEXT
8
LABEL_INFO
10
-0.09661979
20
-0.0136694488
40
0.0344488189
1
0 0 0 0 0 1
41
0.75
7
W0$0078740157
0
TEXT
8
LABEL_ATTRIBUTE
10
-0.09661979
20
-0.0136694488
40
0.0344488189
1
Ref.Des.
41
0.75
7
W0$0078740157
0
TEXT
8
PART_NAME_04
10
-0.09661979
20
-0.0136694488
40
0.0344488189
1
C14
41
0.75
7
W0$0078740157
0
TEXT
8
PART_INFO
10
-0.09661979
20
-0.0628820472
40
0.0344488189
1
000000
71
2
41
0.75
7
W0$0078740157
0
TEXT
8
PART_PTS
10
-0.09661979
20
-0.1120946457
40
0.0344488189
1
1 2 
71
2
41
0.75
7
W0$0078740157
0
ENDBLK
0
BLOCK
2
PART_BOT_6
8
0
10
0
20
0
3
PART_BOT_6
70
64
0
INSERT
2
SYM_BOT_2
8
0
10
0
20
0
0
INSERT
2
PKG_0
8
0
10
0
20
0
41
-1
0
TEXT
8
LABEL_INFO
10
-0.07
20
0.14
40
0.07
1
0 0 0 2 0 1
73
2
11
-0.07
21
0.14
41
0.75
7
W0$01
0
TEXT
8
LABEL_ATTRIBUTE
10
-0.07
20
0.14
40
0.07
1
PartType
73
2
11
-0.07
21
0.14
41
0.75
7
W0$01
0
TEXT
8
PART_TYPE_04
10
-0.07
20
0.14
40
0.07
1
0402
73
3
11
-0.07
21
0.14
41
0.75
7
W0$01
0
TEXT
8
LABEL_INFO
10
-0.0301015223
20
-0.0565604987
40
0.0344488189
1
0 0 0 0 0 1
41
0.75
7
W0$0078740157
0
TEXT
8
LABEL_ATTRIBUTE
10
-0.0301015223
20
-0.0565604987
40
0.0344488189
1
Ref.Des.
41
0.75
7
W0$0078740157
0
TEXT
8
PART_NAME_04
10
-0.0301015223
20
-0.0565604987
40
0.0344488189
1
C15
41
0.75
7
W0$0078740157
0
TEXT
8
PART_INFO
10
-0.0301015223
20
-0.1057730971
40
0.0344488189
1
000000
71
2
41
0.75
7
W0$0078740157
0
TEXT
8
PART_PTS
10
-0.0301015223
20
-0.1549856955
40
0.0344488189
1
1 2 
71
2
41
0.75
7
W0$0078740157
0
ENDBLK
0
BLOCK
2
PART_BOT_7
8
0
10
0
20
0
3
PART_BOT_7
70
64
0
INSERT
2
SYM_BOT_2
8
0
10
0
20
0
0
INSERT
2
PKG_0
8
0
10
0
20
0
41
-1
0
TEXT
8
LABEL_INFO
10
-0.07
20
0.14
40
0.07
1
0 0 0 2 0 1
73
2
11
-0.07
21
0.14
41
0.75
7
W0$01
0
TEXT
8
LABEL_ATTRIBUTE
10
-0.07
20
0.14
40
0.07
1
PartType
73
2
11
-0.07
21
0.14
41
0.75
7
W0$01
0
TEXT
8
PART_TYPE_04
10
-0.07
20
0.14
40
0.07
1
0402
73
3
11
-0.07
21
0.14
41
0.75
7
W0$01
0
TEXT
8
LABEL_INFO
10
0.0441552756
20
-0.0167447507
40
0.0344488189
1
0 0 0 0 0 1
41
0.75
7
W0$0078740157
0
TEXT
8
LABEL_ATTRIBUTE
10
0.0441552756
20
-0.0167447507
40
0.0344488189
1
Ref.Des.
41
0.75
7
W0$0078740157
0
TEXT
8
PART_NAME_04
10
0.0441552756
20
-0.0167447507
40
0.0344488189
1
C16
41
0.75
7
W0$0078740157
0
TEXT
8
PART_INFO
10
0.0441552756
20
-0.0659573491
40
0.0344488189
1
000000
71
2
41
0.75
7
W0$0078740157
0
TEXT
8
PART_PTS
10
0.0441552756
20
-0.1151699475
40
0.0344488189
1
1 2 
71
2
41
0.75
7
W0$0078740157
0
ENDBLK
0
BLOCK
2
PART_BOT_8
8
0
10
0
20
0
3
PART_BOT_8
70
64
0
INSERT
2
SYM_BOT_2
8
0
10
0
20
0
0
INSERT
2
PKG_0
8
0
10
0
20
0
41
-1
0
TEXT
8
LABEL_INFO
10
-0.07
20
0.14
40
0.07
1
0 0 0 2 0 1
73
2
11
-0.07
21
0.14
41
0.75
7
W0$01
0
TEXT
8
LABEL_ATTRIBUTE
10
-0.07
20
0.14
40
0.07
1
PartType
73
2
11
-0.07
21
0.14
41
0.75
7
W0$01
0
TEXT
8
PART_TYPE_04
10
-0.07
20
0.14
40
0.07
1
0402
73
3
11
-0.07
21
0.14
41
0.75
7
W0$01
0
TEXT
8
LABEL_INFO
10
0.0447691076
20
-0.0312024672
40
0.0344488189
1
0 0 0 0 0 1
41
0.75
7
W0$0078740157
0
TEXT
8
LABEL_ATTRIBUTE
10
0.0447691076
20
-0.0312024672
40
0.0344488189
1
Ref.Des.
41
0.75
7
W0$0078740157
0
TEXT
8
PART_NAME_04
10
0.0447691076
20
-0.0312024672
40
0.0344488189
1
C17
41
0.75
7
W0$0078740157
0
TEXT
8
PART_INFO
10
0.0447691076
20
-0.0804150656
40
0.0344488189
1
000000
71
2
41
0.75
7
W0$0078740157
0
TEXT
8
PART_PTS
10
0.0447691076
20
-0.129627664
40
0.0344488189
1
1 2 
71
2
41
0.75
7
W0$0078740157
0
ENDBLK
0
BLOCK
2
PART_BOT_9
8
0
10
0
20
0
3
PART_BOT_9
70
64
0
INSERT
2
SYM_BOT_3
8
0
10
0
20
0
0
INSERT
2
PKG_1
8
0
10
0
20
0
41
-1
0
TEXT
8
LABEL_INFO
10
0.0258250919
20
0.0317499213
40
0.0344488189
1
0 486000000 0 0 0 1
50
270
41
0.75
7
W0$0078740157
0
TEXT
8
LABEL_ATTRIBUTE
10
0.0258250919
20
0.0317499213
40
0.0344488189
1
Ref.Des.
50
270
41
0.75
7
W0$0078740157
0
TEXT
8
PART_NAME_04
10
0.0258250919
20
0.0317499213
40
0.0344488189
1
C18
50
270
41
0.75
7
W0$0078740157
0
TEXT
8
LABEL_INFO
10
0.029
20
-0.042
40
0.042
1
0 0 0 0 0 1
41
0.75
7
W0$008
0
TEXT
8
LABEL_ATTRIBUTE
10
0.029
20
-0.042
40
0.042
1
PartType
41
0.75
7
W0$008
0
TEXT
8
PART_TYPE_04
10
0.029
20
-0.042
40
0.042
1
0603
41
0.75
7
W0$008
0
TEXT
8
PART_INFO
10
0.029
20
-0.102
40
0.042
1
000000
71
2
41
0.75
7
W0$008
0
TEXT
8
PART_PTS
10
0.029
20
-0.162
40
0.042
1
1 2 
71
2
41
0.75
7
W0$008
0
ENDBLK
0
BLOCK
2
PART_BOT_10
8
0
10
0
20
0
3
PART_BOT_10
70
64
0
INSERT
2
SYM_BOT_2
8
0
10
0
20
0
0
INSERT
2
PKG_0
8
0
10
0
20
0
41
-1
0
TEXT
8
LABEL_INFO
10
-0.07
20
0.14
40
0.07
1
0 0 0 2 0 1
73
2
11
-0.07
21
0.14
41
0.75
7
W0$01
0
TEXT
8
LABEL_ATTRIBUTE
10
-0.07
20
0.14
40
0.07
1
PartType
73
2
11
-0.07
21
0.14
41
0.75
7
W0$01
0
TEXT
8
PART_TYPE_04
10
-0.07
20
0.14
40
0.07
1
0402
73
3
11
-0.07
21
0.14
41
0.75
7
W0$01
0
TEXT
8
LABEL_INFO
10
-0.0866141732
20
-0.0236220472
40
0.0344488189
1
0 0 0 0 0 1
41
0.75
7
W0$0078740157
0
TEXT
8
LABEL_ATTRIBUTE
10
-0.0866141732
20
-0.0236220472
40
0.0344488189
1
Ref.Des.
41
0.75
7
W0$0078740157
0
TEXT
8
PART_NAME_04
10
-0.0866141732
20
-0.0236220472
40
0.0344488189
1
C2
41
0.75
7
W0$0078740157
0
TEXT
8
PART_INFO
10
-0.0866141732
20
-0.0728346457
40
0.0344488189
1
000000
71
2
41
0.75
7
W0$0078740157
0
TEXT
8
PART_PTS
10
-0.0866141732
20
-0.1220472441
40
0.0344488189
1
1 2 
71
2
41
0.75
7
W0$0078740157
0
ENDBLK
0
BLOCK
2
PART_BOT_11
8
0
10
0
20
0
3
PART_BOT_11
70
64
0
INSERT
2
SYM_BOT_2
8
0
10
0
20
0
0
INSERT
2
PKG_0
8
0
10
0
20
0
41
-1
0
TEXT
8
LABEL_INFO
10
-0.07
20
0.14
40
0.07
1
0 0 0 2 0 1
73
2
11
-0.07
21
0.14
41
0.75
7
W0$01
0
TEXT
8
LABEL_ATTRIBUTE
10
-0.07
20
0.14
40
0.07
1
PartType
73
2
11
-0.07
21
0.14
41
0.75
7
W0$01
0
TEXT
8
PART_TYPE_04
10
-0.07
20
0.14
40
0.07
1
0402
73
3
11
-0.07
21
0.14
41
0.75
7
W0$01
0
TEXT
8
LABEL_INFO
10
-0.0196850394
20
0.0177165354
40
0.0344488189
1
0 0 0 0 0 1
41
0.75
7
W0$0078740157
0
TEXT
8
LABEL_ATTRIBUTE
10
-0.0196850394
20
0.0177165354
40
0.0344488189
1
Ref.Des.
41
0.75
7
W0$0078740157
0
TEXT
8
PART_NAME_04
10
-0.0196850394
20
0.0177165354
40
0.0344488189
1
C3
41
0.75
7
W0$0078740157
0
TEXT
8
PART_INFO
10
-0.0196850394
20
-0.031496063
40
0.0344488189
1
000000
71
2
41
0.75
7
W0$0078740157
0
TEXT
8
PART_PTS
10
-0.0196850394
20
-0.0807086614
40
0.0344488189
1
1 2 
71
2
41
0.75
7
W0$0078740157
0
ENDBLK
0
BLOCK
2
PART_BOT_12
8
0
10
0
20
0
3
PART_BOT_12
70
64
0
INSERT
2
SYM_BOT_2
8
0
10
0
20
0
0
INSERT
2
PKG_0
8
0
10
0
20
0
41
-1
0
TEXT
8
LABEL_INFO
10
-0.07
20
0.14
40
0.07
1
0 0 0 2 0 1
73
2
11
-0.07
21
0.14
41
0.75
7
W0$01
0
TEXT
8
LABEL_ATTRIBUTE
10
-0.07
20
0.14
40
0.07
1
PartType
73
2
11
-0.07
21
0.14
41
0.75
7
W0$01
0
TEXT
8
PART_TYPE_04
10
-0.07
20
0.14
40
0.07
1
0402
73
3
11
-0.07
21
0.14
41
0.75
7
W0$01
0
TEXT
8
LABEL_INFO
10
-0.0866141732
20
-0.0078740157
40
0.0344488189
1
0 0 0 0 0 1
41
0.75
7
W0$0078740157
0
TEXT
8
LABEL_ATTRIBUTE
10
-0.0866141732
20
-0.0078740157
40
0.0344488189
1
Ref.Des.
41
0.75
7
W0$0078740157
0
TEXT
8
PART_NAME_04
10
-0.0866141732
20
-0.0078740157
40
0.0344488189
1
C4
41
0.75
7
W0$0078740157
0
TEXT
8
PART_INFO
10
-0.0866141732
20
-0.0570866142
40
0.0344488189
1
000000
71
2
41
0.75
7
W0$0078740157
0
TEXT
8
PART_PTS
10
-0.0866141732
20
-0.1062992126
40
0.0344488189
1
1 2 
71
2
41
0.75
7
W0$0078740157
0
ENDBLK
0
BLOCK
2
PART_BOT_13
8
0
10
0
20
0
3
PART_BOT_13
70
64
0
INSERT
2
SYM_BOT_2
8
0
10
0
20
0
0
INSERT
2
PKG_0
8
0
10
0
20
0
41
-1
0
TEXT
8
LABEL_INFO
10
-0.07
20
0.14
40
0.07
1
0 0 0 2 0 1
73
2
11
-0.07
21
0.14
41
0.75
7
W0$01
0
TEXT
8
LABEL_ATTRIBUTE
10
-0.07
20
0.14
40
0.07
1
PartType
73
2
11
-0.07
21
0.14
41
0.75
7
W0$01
0
TEXT
8
PART_TYPE_04
10
-0.07
20
0.14
40
0.07
1
0402
73
3
11
-0.07
21
0.14
41
0.75
7
W0$01
0
TEXT
8
LABEL_INFO
10
-0.0139194226
20
0.0222710761
40
0.0344488189
1
0 0 0 0 0 1
41
0.75
7
W0$0078740157
0
TEXT
8
LABEL_ATTRIBUTE
10
-0.0139194226
20
0.0222710761
40
0.0344488189
1
Ref.Des.
41
0.75
7
W0$0078740157
0
TEXT
8
PART_NAME_04
10
-0.0139194226
20
0.0222710761
40
0.0344488189
1
C5
41
0.75
7
W0$0078740157
0
TEXT
8
PART_INFO
10
-0.0139194226
20
-0.0269415223
40
0.0344488189
1
000000
71
2
41
0.75
7
W0$0078740157
0
TEXT
8
PART_PTS
10
-0.0139194226
20
-0.0761541207
40
0.0344488189
1
1 2 
71
2
41
0.75
7
W0$0078740157
0
ENDBLK
0
BLOCK
2
PART_BOT_14
8
0
10
0
20
0
3
PART_BOT_14
70
64
0
INSERT
2
SYM_BOT_2
8
0
10
0
20
0
0
INSERT
2
PKG_0
8
0
10
0
20
0
41
-1
0
TEXT
8
LABEL_INFO
10
-0.07
20
0.14
40
0.07
1
0 0 0 2 0 1
73
2
11
-0.07
21
0.14
41
0.75
7
W0$01
0
TEXT
8
LABEL_ATTRIBUTE
10
-0.07
20
0.14
40
0.07
1
PartType
73
2
11
-0.07
21
0.14
41
0.75
7
W0$01
0
TEXT
8
PART_TYPE_04
10
-0.07
20
0.14
40
0.07
1
0402
73
3
11
-0.07
21
0.14
41
0.75
7
W0$01
0
TEXT
8
LABEL_INFO
10
-0.0835165354
20
-0.0250549606
40
0.0344488189
1
0 0 0 0 0 1
41
0.75
7
W0$0078740157
0
TEXT
8
LABEL_ATTRIBUTE
10
-0.0835165354
20
-0.0250549606
40
0.0344488189
1
Ref.Des.
41
0.75
7
W0$0078740157
0
TEXT
8
PART_NAME_04
10
-0.0835165354
20
-0.0250549606
40
0.0344488189
1
C6
41
0.75
7
W0$0078740157
0
TEXT
8
PART_INFO
10
-0.0835165354
20
-0.0742675591
40
0.0344488189
1
000000
71
2
41
0.75
7
W0$0078740157
0
TEXT
8
PART_PTS
10
-0.0835165354
20
-0.1234801575
40
0.0344488189
1
1 2 
71
2
41
0.75
7
W0$0078740157
0
ENDBLK
0
BLOCK
2
PART_BOT_15
8
0
10
0
20
0
3
PART_BOT_15
70
64
0
INSERT
2
SYM_BOT_2
8
0
10
0
20
0
0
INSERT
2
PKG_0
8
0
10
0
20
0
41
-1
0
TEXT
8
LABEL_INFO
10
-0.07
20
0.14
40
0.07
1
0 0 0 2 0 1
73
2
11
-0.07
21
0.14
41
0.75
7
W0$01
0
TEXT
8
LABEL_ATTRIBUTE
10
-0.07
20
0.14
40
0.07
1
PartType
73
2
11
-0.07
21
0.14
41
0.75
7
W0$01
0
TEXT
8
PART_TYPE_04
10
-0.07
20
0.14
40
0.07
1
0402
73
3
11
-0.07
21
0.14
41
0.75
7
W0$01
0
TEXT
8
LABEL_INFO
10
-0.0888749869
20
-0.0273227559
40
0.0344488189
1
0 0 0 0 0 1
41
0.75
7
W0$0078740157
0
TEXT
8
LABEL_ATTRIBUTE
10
-0.0888749869
20
-0.0273227559
40
0.0344488189
1
Ref.Des.
41
0.75
7
W0$0078740157
0
TEXT
8
PART_NAME_04
10
-0.0888749869
20
-0.0273227559
40
0.0344488189
1
C7
41
0.75
7
W0$0078740157
0
TEXT
8
PART_INFO
10
-0.0888749869
20
-0.0765353543
40
0.0344488189
1
000000
71
2
41
0.75
7
W0$0078740157
0
TEXT
8
PART_PTS
10
-0.0888749869
20
-0.1257479528
40
0.0344488189
1
1 2 
71
2
41
0.75
7
W0$0078740157
0
ENDBLK
0
BLOCK
2
PART_BOT_16
8
0
10
0
20
0
3
PART_BOT_16
70
64
0
INSERT
2
SYM_BOT_2
8
0
10
0
20
0
0
INSERT
2
PKG_0
8
0
10
0
20
0
41
-1
0
TEXT
8
LABEL_INFO
10
-0.07
20
0.14
40
0.07
1
0 0 0 2 0 1
73
2
11
-0.07
21
0.14
41
0.75
7
W0$01
0
TEXT
8
LABEL_ATTRIBUTE
10
-0.07
20
0.14
40
0.07
1
PartType
73
2
11
-0.07
21
0.14
41
0.75
7
W0$01
0
TEXT
8
PART_TYPE_04
10
-0.07
20
0.14
40
0.07
1
0402
73
3
11
-0.07
21
0.14
41
0.75
7
W0$01
0
TEXT
8
LABEL_INFO
10
-0.0839218373
20
0.0097367717
40
0.0344488189
1
0 0 0 0 0 1
41
0.75
7
W0$0078740157
0
TEXT
8
LABEL_ATTRIBUTE
10
-0.0839218373
20
0.0097367717
40
0.0344488189
1
Ref.Des.
41
0.75
7
W0$0078740157
0
TEXT
8
PART_NAME_04
10
-0.0839218373
20
0.0097367717
40
0.0344488189
1
C8
41
0.75
7
W0$0078740157
0
TEXT
8
PART_INFO
10
-0.0839218373
20
-0.0394758268
40
0.0344488189
1
000000
71
2
41
0.75
7
W0$0078740157
0
TEXT
8
PART_PTS
10
-0.0839218373
20
-0.0886884252
40
0.0344488189
1
1 2 
71
2
41
0.75
7
W0$0078740157
0
ENDBLK
0
BLOCK
2
PART_BOT_17
8
0
10
0
20
0
3
PART_BOT_17
70
64
0
INSERT
2
SYM_BOT_2
8
0
10
0
20
0
0
INSERT
2
PKG_0
8
0
10
0
20
0
41
-1
0
TEXT
8
LABEL_INFO
10
-0.07
20
0.14
40
0.07
1
0 0 0 2 0 1
73
2
11
-0.07
21
0.14
41
0.75
7
W0$01
0
TEXT
8
LABEL_ATTRIBUTE
10
-0.07
20
0.14
40
0.07
1
PartType
73
2
11
-0.07
21
0.14
41
0.75
7
W0$01
0
TEXT
8
PART_TYPE_04
10
-0.07
20
0.14
40
0.07
1
0402
73
3
11
-0.07
21
0.14
41
0.75
7
W0$01
0
TEXT
8
LABEL_INFO
10
-0.0788311549
20
-0.0105155381
40
0.0344488189
1
0 0 0 0 0 1
41
0.75
7
W0$0078740157
0
TEXT
8
LABEL_ATTRIBUTE
10
-0.0788311549
20
-0.0105155381
40
0.0344488189
1
Ref.Des.
41
0.75
7
W0$0078740157
0
TEXT
8
PART_NAME_04
10
-0.0788311549
20
-0.0105155381
40
0.0344488189
1
C9
41
0.75
7
W0$0078740157
0
TEXT
8
PART_INFO
10
-0.0788311549
20
-0.0597281365
40
0.0344488189
1
000000
71
2
41
0.75
7
W0$0078740157
0
TEXT
8
PART_PTS
10
-0.0788311549
20
-0.1089407349
40
0.0344488189
1
1 2 
71
2
41
0.75
7
W0$0078740157
0
ENDBLK
0
BLOCK
2
PART_BOT_18
8
0
10
0
20
0
3
PART_BOT_18
70
64
0
INSERT
2
SYM_BOT_2
8
0
10
0
20
0
0
INSERT
2
PKG_0
8
0
10
0
20
0
41
-1
0
TEXT
8
LABEL_INFO
10
-0.07
20
0.14
40
0.07
1
0 0 0 2 0 1
73
2
11
-0.07
21
0.14
41
0.75
7
W0$01
0
TEXT
8
LABEL_ATTRIBUTE
10
-0.07
20
0.14
40
0.07
1
PartType
73
2
11
-0.07
21
0.14
41
0.75
7
W0$01
0
TEXT
8
PART_TYPE_04
10
-0.07
20
0.14
40
0.07
1
0402
73
3
11
-0.07
21
0.14
41
0.75
7
W0$01
0
TEXT
8
LABEL_INFO
10
-0.092519685
20
-0.033401811
40
0.0344488189
1
0 0 0 0 0 1
41
0.75
7
W0$0078740157
0
TEXT
8
LABEL_ATTRIBUTE
10
-0.092519685
20
-0.033401811
40
0.0344488189
1
Ref.Des.
41
0.75
7
W0$0078740157
0
TEXT
8
PART_NAME_04
10
-0.092519685
20
-0.033401811
40
0.0344488189
1
FL1
41
0.75
7
W0$0078740157
0
TEXT
8
PART_INFO
10
-0.092519685
20
-0.0826144094
40
0.0344488189
1
000000
71
2
41
0.75
7
W0$0078740157
0
TEXT
8
PART_PTS
10
-0.092519685
20
-0.1318270079
40
0.0344488189
1
1 2 
71
2
41
0.75
7
W0$0078740157
0
ENDBLK
0
BLOCK
2
PART_BOT_19
8
0
10
0
20
0
3
PART_BOT_19
70
64
0
INSERT
2
SYM_BOT_2
8
0
10
0
20
0
0
INSERT
2
PKG_0
8
0
10
0
20
0
41
-1
0
TEXT
8
LABEL_INFO
10
-0.07
20
0.14
40
0.07
1
0 0 0 2 0 1
73
2
11
-0.07
21
0.14
41
0.75
7
W0$01
0
TEXT
8
LABEL_ATTRIBUTE
10
-0.07
20
0.14
40
0.07
1
PartType
73
2
11
-0.07
21
0.14
41
0.75
7
W0$01
0
TEXT
8
PART_TYPE_04
10
-0.07
20
0.14
40
0.07
1
0402
73
3
11
-0.07
21
0.14
41
0.75
7
W0$01
0
TEXT
8
LABEL_INFO
10
0.0421867454
20
0.0009090814
40
0.0344488189
1
0 0 0 0 0 1
41
0.75
7
W0$0078740157
0
TEXT
8
LABEL_ATTRIBUTE
10
0.0421867454
20
0.0009090814
40
0.0344488189
1
Ref.Des.
41
0.75
7
W0$0078740157
0
TEXT
8
PART_NAME_04
10
0.0421867454
20
0.0009090814
40
0.0344488189
1
FL2
41
0.75
7
W0$0078740157
0
TEXT
8
PART_INFO
10
0.0421867454
20
-0.0483035171
40
0.0344488189
1
000000
71
2
41
0.75
7
W0$0078740157
0
TEXT
8
PART_PTS
10
0.0421867454
20
-0.0975161155
40
0.0344488189
1
1 2 
71
2
41
0.75
7
W0$0078740157
0
ENDBLK
0
BLOCK
2
PART_TOP_20
8
0
10
0
20
0
3
PART_TOP_20
70
64
0
INSERT
2
SYM_TOP_11
8
0
10
0
20
0
0
INSERT
2
PKG_2
8
0
10
0
20
0
0
TEXT
8
LABEL_INFO
10
-0.05
20
0.04
40
0.0413385827
1
1 0 0 1 0 1
73
1
11
-0.05
21
0.04
41
0.75
7
W0$0059055118
0
TEXT
8
LABEL_ATTRIBUTE
10
-0.05
20
0.04
40
0.0413385827
1
PartType
73
1
11
-0.05
21
0.04
41
0.75
7
W0$0059055118
0
TEXT
8
PART_TYPE_01
10
-0.05
20
0.04
40
0.0413385827
1
PADHOLE
73
2
11
-0.05
21
0.04
41
0.75
7
W0$0059055118
0
TEXT
8
LABEL_INFO
10
-0.05
20
-0.01
40
0.0344488189
1
1 0 0 1 0 1
73
1
11
-0.05
21
-0.01
41
0.75
7
W0$0059055118
0
TEXT
8
LABEL_ATTRIBUTE
10
-0.05
20
-0.01
40
0.0344488189
1
Ref.Des.
73
1
11
-0.05
21
-0.01
41
0.75
7
W0$0059055118
0
TEXT
8
PART_NAME_01
10
-0.05
20
-0.01
40
0.0344488189
1
P1
73
2
11
-0.05
21
-0.01
41
0.75
7
W0$0059055118
0
TEXT
8
PART_INFO
10
-0.05
20
-0.0592125984
40
0.0344488189
1
000002
73
2
11
-0.05
21
-0.0592125984
41
0.75
7
W0$0059055118
0
TEXT
8
PART_PTS
10
-0.05
20
-0.1084251969
40
0.0344488189
1
1 
73
2
11
-0.05
21
-0.1084251969
41
0.75
7
W0$0059055118
0
ENDBLK
0
BLOCK
2
PART_TOP_21
8
0
10
0
20
0
3
PART_TOP_21
70
64
0
INSERT
2
SYM_TOP_11
8
0
10
0
20
0
0
INSERT
2
PKG_2
8
0
10
0
20
0
0
TEXT
8
LABEL_INFO
10
-0.05
20
0.04
40
0.0413385827
1
1 0 0 1 0 1
73
1
11
-0.05
21
0.04
41
0.75
7
W0$0059055118
0
TEXT
8
LABEL_ATTRIBUTE
10
-0.05
20
0.04
40
0.0413385827
1
PartType
73
1
11
-0.05
21
0.04
41
0.75
7
W0$0059055118
0
TEXT
8
PART_TYPE_01
10
-0.05
20
0.04
40
0.0413385827
1
PADHOLE
73
2
11
-0.05
21
0.04
41
0.75
7
W0$0059055118
0
TEXT
8
LABEL_INFO
10
-0.05
20
-0.01
40
0.0344488189
1
1 0 0 1 0 1
73
1
11
-0.05
21
-0.01
41
0.75
7
W0$0059055118
0
TEXT
8
LABEL_ATTRIBUTE
10
-0.05
20
-0.01
40
0.0344488189
1
Ref.Des.
73
1
11
-0.05
21
-0.01
41
0.75
7
W0$0059055118
0
TEXT
8
PART_NAME_01
10
-0.05
20
-0.01
40
0.0344488189
1
P8
73
2
11
-0.05
21
-0.01
41
0.75
7
W0$0059055118
0
TEXT
8
PART_INFO
10
-0.05
20
-0.0592125984
40
0.0344488189
1
000002
73
2
11
-0.05
21
-0.0592125984
41
0.75
7
W0$0059055118
0
TEXT
8
PART_PTS
10
-0.05
20
-0.1084251969
40
0.0344488189
1
1 
73
2
11
-0.05
21
-0.1084251969
41
0.75
7
W0$0059055118
0
ENDBLK
0
BLOCK
2
PART_TOP_22
8
0
10
0
20
0
3
PART_TOP_22
70
64
0
INSERT
2
SYM_TOP_11
8
0
10
0
20
0
0
INSERT
2
PKG_2
8
0
10
0
20
0
0
TEXT
8
LABEL_INFO
10
-0.05
20
0.04
40
0.0413385827
1
1 0 0 1 0 1
73
1
11
-0.05
21
0.04
41
0.75
7
W0$0059055118
0
TEXT
8
LABEL_ATTRIBUTE
10
-0.05
20
0.04
40
0.0413385827
1
PartType
73
1
11
-0.05
21
0.04
41
0.75
7
W0$0059055118
0
TEXT
8
PART_TYPE_01
10
-0.05
20
0.04
40
0.0413385827
1
PADHOLE
73
2
11
-0.05
21
0.04
41
0.75
7
W0$0059055118
0
TEXT
8
LABEL_INFO
10
-0.05
20
-0.01
40
0.0344488189
1
1 0 0 1 0 1
73
1
11
-0.05
21
-0.01
41
0.75
7
W0$0059055118
0
TEXT
8
LABEL_ATTRIBUTE
10
-0.05
20
-0.01
40
0.0344488189
1
Ref.Des.
73
1
11
-0.05
21
-0.01
41
0.75
7
W0$0059055118
0
TEXT
8
PART_NAME_01
10
-0.05
20
-0.01
40
0.0344488189
1
P11
73
2
11
-0.05
21
-0.01
41
0.75
7
W0$0059055118
0
TEXT
8
PART_INFO
10
-0.05
20
-0.0592125984
40
0.0344488189
1
000002
73
2
11
-0.05
21
-0.0592125984
41
0.75
7
W0$0059055118
0
TEXT
8
PART_PTS
10
-0.05
20
-0.1084251969
40
0.0344488189
1
1 
73
2
11
-0.05
21
-0.1084251969
41
0.75
7
W0$0059055118
0
ENDBLK
0
BLOCK
2
PART_TOP_23
8
0
10
0
20
0
3
PART_TOP_23
70
64
0
INSERT
2
SYM_TOP_11
8
0
10
0
20
0
0
INSERT
2
PKG_2
8
0
10
0
20
0
0
TEXT
8
LABEL_INFO
10
-0.05
20
0.04
40
0.0413385827
1
1 0 0 1 0 1
73
1
11
-0.05
21
0.04
41
0.75
7
W0$0059055118
0
TEXT
8
LABEL_ATTRIBUTE
10
-0.05
20
0.04
40
0.0413385827
1
PartType
73
1
11
-0.05
21
0.04
41
0.75
7
W0$0059055118
0
TEXT
8
PART_TYPE_01
10
-0.05
20
0.04
40
0.0413385827
1
PADHOLE
73
2
11
-0.05
21
0.04
41
0.75
7
W0$0059055118
0
TEXT
8
LABEL_INFO
10
-0.05
20
-0.01
40
0.0344488189
1
1 0 0 1 0 1
73
1
11
-0.05
21
-0.01
41
0.75
7
W0$0059055118
0
TEXT
8
LABEL_ATTRIBUTE
10
-0.05
20
-0.01
40
0.0344488189
1
Ref.Des.
73
1
11
-0.05
21
-0.01
41
0.75
7
W0$0059055118
0
TEXT
8
PART_NAME_01
10
-0.05
20
-0.01
40
0.0344488189
1
P12
73
2
11
-0.05
21
-0.01
41
0.75
7
W0$0059055118
0
TEXT
8
PART_INFO
10
-0.05
20
-0.0592125984
40
0.0344488189
1
000002
73
2
11
-0.05
21
-0.0592125984
41
0.75
7
W0$0059055118
0
TEXT
8
PART_PTS
10
-0.05
20
-0.1084251969
40
0.0344488189
1
1 
73
2
11
-0.05
21
-0.1084251969
41
0.75
7
W0$0059055118
0
ENDBLK
0
BLOCK
2
PART_TOP_24
8
0
10
0
20
0
3
PART_TOP_24
70
64
0
INSERT
2
SYM_TOP_11
8
0
10
0
20
0
0
INSERT
2
PKG_2
8
0
10
0
20
0
0
TEXT
8
LABEL_INFO
10
-0.05
20
0.04
40
0.0413385827
1
1 0 0 1 0 1
73
1
11
-0.05
21
0.04
41
0.75
7
W0$0059055118
0
TEXT
8
LABEL_ATTRIBUTE
10
-0.05
20
0.04
40
0.0413385827
1
PartType
73
1
11
-0.05
21
0.04
41
0.75
7
W0$0059055118
0
TEXT
8
PART_TYPE_01
10
-0.05
20
0.04
40
0.0413385827
1
PADHOLE
73
2
11
-0.05
21
0.04
41
0.75
7
W0$0059055118
0
TEXT
8
LABEL_INFO
10
-0.05
20
-0.01
40
0.0344488189
1
1 0 0 1 0 1
73
1
11
-0.05
21
-0.01
41
0.75
7
W0$0059055118
0
TEXT
8
LABEL_ATTRIBUTE
10
-0.05
20
-0.01
40
0.0344488189
1
Ref.Des.
73
1
11
-0.05
21
-0.01
41
0.75
7
W0$0059055118
0
TEXT
8
PART_NAME_01
10
-0.05
20
-0.01
40
0.0344488189
1
P13
73
2
11
-0.05
21
-0.01
41
0.75
7
W0$0059055118
0
TEXT
8
PART_INFO
10
-0.05
20
-0.0592125984
40
0.0344488189
1
000002
73
2
11
-0.05
21
-0.0592125984
41
0.75
7
W0$0059055118
0
TEXT
8
PART_PTS
10
-0.05
20
-0.1084251969
40
0.0344488189
1
1 
73
2
11
-0.05
21
-0.1084251969
41
0.75
7
W0$0059055118
0
ENDBLK
0
BLOCK
2
PART_TOP_25
8
0
10
0
20
0
3
PART_TOP_25
70
64
0
INSERT
2
SYM_TOP_11
8
0
10
0
20
0
0
INSERT
2
PKG_2
8
0
10
0
20
0
0
TEXT
8
LABEL_INFO
10
-0.05
20
0.04
40
0.0413385827
1
1 0 0 1 0 1
73
1
11
-0.05
21
0.04
41
0.75
7
W0$0059055118
0
TEXT
8
LABEL_ATTRIBUTE
10
-0.05
20
0.04
40
0.0413385827
1
PartType
73
1
11
-0.05
21
0.04
41
0.75
7
W0$0059055118
0
TEXT
8
PART_TYPE_01
10
-0.05
20
0.04
40
0.0413385827
1
PADHOLE
73
2
11
-0.05
21
0.04
41
0.75
7
W0$0059055118
0
TEXT
8
LABEL_INFO
10
-0.05
20
-0.01
40
0.0344488189
1
1 0 0 1 0 1
73
1
11
-0.05
21
-0.01
41
0.75
7
W0$0059055118
0
TEXT
8
LABEL_ATTRIBUTE
10
-0.05
20
-0.01
40
0.0344488189
1
Ref.Des.
73
1
11
-0.05
21
-0.01
41
0.75
7
W0$0059055118
0
TEXT
8
PART_NAME_01
10
-0.05
20
-0.01
40
0.0344488189
1
P14
73
2
11
-0.05
21
-0.01
41
0.75
7
W0$0059055118
0
TEXT
8
PART_INFO
10
-0.05
20
-0.0592125984
40
0.0344488189
1
000002
73
2
11
-0.05
21
-0.0592125984
41
0.75
7
W0$0059055118
0
TEXT
8
PART_PTS
10
-0.05
20
-0.1084251969
40
0.0344488189
1
1 
73
2
11
-0.05
21
-0.1084251969
41
0.75
7
W0$0059055118
0
ENDBLK
0
BLOCK
2
PART_TOP_26
8
0
10
0
20
0
3
PART_TOP_26
70
64
0
INSERT
2
SYM_TOP_11
8
0
10
0
20
0
0
INSERT
2
PKG_2
8
0
10
0
20
0
0
TEXT
8
LABEL_INFO
10
-0.05
20
0.04
40
0.0413385827
1
1 0 0 1 0 1
73
1
11
-0.05
21
0.04
41
0.75
7
W0$0059055118
0
TEXT
8
LABEL_ATTRIBUTE
10
-0.05
20
0.04
40
0.0413385827
1
PartType
73
1
11
-0.05
21
0.04
41
0.75
7
W0$0059055118
0
TEXT
8
PART_TYPE_01
10
-0.05
20
0.04
40
0.0413385827
1
PADHOLE
73
2
11
-0.05
21
0.04
41
0.75
7
W0$0059055118
0
TEXT
8
LABEL_INFO
10
-0.05
20
-0.01
40
0.0344488189
1
1 0 0 1 0 1
73
1
11
-0.05
21
-0.01
41
0.75
7
W0$0059055118
0
TEXT
8
LABEL_ATTRIBUTE
10
-0.05
20
-0.01
40
0.0344488189
1
Ref.Des.
73
1
11
-0.05
21
-0.01
41
0.75
7
W0$0059055118
0
TEXT
8
PART_NAME_01
10
-0.05
20
-0.01
40
0.0344488189
1
P15
73
2
11
-0.05
21
-0.01
41
0.75
7
W0$0059055118
0
TEXT
8
PART_INFO
10
-0.05
20
-0.0592125984
40
0.0344488189
1
000002
73
2
11
-0.05
21
-0.0592125984
41
0.75
7
W0$0059055118
0
TEXT
8
PART_PTS
10
-0.05
20
-0.1084251969
40
0.0344488189
1
1 
73
2
11
-0.05
21
-0.1084251969
41
0.75
7
W0$0059055118
0
ENDBLK
0
BLOCK
2
PART_TOP_27
8
0
10
0
20
0
3
PART_TOP_27
70
64
0
INSERT
2
SYM_TOP_11
8
0
10
0
20
0
0
INSERT
2
PKG_2
8
0
10
0
20
0
0
TEXT
8
LABEL_INFO
10
-0.05
20
0.04
40
0.0413385827
1
1 0 0 1 0 1
73
1
11
-0.05
21
0.04
41
0.75
7
W0$0059055118
0
TEXT
8
LABEL_ATTRIBUTE
10
-0.05
20
0.04
40
0.0413385827
1
PartType
73
1
11
-0.05
21
0.04
41
0.75
7
W0$0059055118
0
TEXT
8
PART_TYPE_01
10
-0.05
20
0.04
40
0.0413385827
1
PADHOLE
73
2
11
-0.05
21
0.04
41
0.75
7
W0$0059055118
0
TEXT
8
LABEL_INFO
10
-0.05
20
-0.01
40
0.0344488189
1
1 0 0 1 0 1
73
1
11
-0.05
21
-0.01
41
0.75
7
W0$0059055118
0
TEXT
8
LABEL_ATTRIBUTE
10
-0.05
20
-0.01
40
0.0344488189
1
Ref.Des.
73
1
11
-0.05
21
-0.01
41
0.75
7
W0$0059055118
0
TEXT
8
PART_NAME_01
10
-0.05
20
-0.01
40
0.0344488189
1
P18
73
2
11
-0.05
21
-0.01
41
0.75
7
W0$0059055118
0
TEXT
8
PART_INFO
10
-0.05
20
-0.0592125984
40
0.0344488189
1
000002
73
2
11
-0.05
21
-0.0592125984
41
0.75
7
W0$0059055118
0
TEXT
8
PART_PTS
10
-0.05
20
-0.1084251969
40
0.0344488189
1
1 
73
2
11
-0.05
21
-0.1084251969
41
0.75
7
W0$0059055118
0
ENDBLK
0
BLOCK
2
PART_TOP_28
8
0
10
0
20
0
3
PART_TOP_28
70
64
0
INSERT
2
SYM_TOP_11
8
0
10
0
20
0
0
INSERT
2
PKG_2
8
0
10
0
20
0
0
TEXT
8
LABEL_INFO
10
-0.05
20
0.04
40
0.0413385827
1
1 0 0 1 0 1
73
1
11
-0.05
21
0.04
41
0.75
7
W0$0059055118
0
TEXT
8
LABEL_ATTRIBUTE
10
-0.05
20
0.04
40
0.0413385827
1
PartType
73
1
11
-0.05
21
0.04
41
0.75
7
W0$0059055118
0
TEXT
8
PART_TYPE_01
10
-0.05
20
0.04
40
0.0413385827
1
PADHOLE
73
2
11
-0.05
21
0.04
41
0.75
7
W0$0059055118
0
TEXT
8
LABEL_INFO
10
-0.05
20
-0.01
40
0.0344488189
1
1 0 0 1 0 1
73
1
11
-0.05
21
-0.01
41
0.75
7
W0$0059055118
0
TEXT
8
LABEL_ATTRIBUTE
10
-0.05
20
-0.01
40
0.0344488189
1
Ref.Des.
73
1
11
-0.05
21
-0.01
41
0.75
7
W0$0059055118
0
TEXT
8
PART_NAME_01
10
-0.05
20
-0.01
40
0.0344488189
1
P17
73
2
11
-0.05
21
-0.01
41
0.75
7
W0$0059055118
0
TEXT
8
PART_INFO
10
-0.05
20
-0.0592125984
40
0.0344488189
1
000002
73
2
11
-0.05
21
-0.0592125984
41
0.75
7
W0$0059055118
0
TEXT
8
PART_PTS
10
-0.05
20
-0.1084251969
40
0.0344488189
1
1 
73
2
11
-0.05
21
-0.1084251969
41
0.75
7
W0$0059055118
0
ENDBLK
0
BLOCK
2
PART_TOP_29
8
0
10
0
20
0
3
PART_TOP_29
70
64
0
INSERT
2
SYM_TOP_11
8
0
10
0
20
0
0
INSERT
2
PKG_2
8
0
10
0
20
0
0
TEXT
8
LABEL_INFO
10
-0.05
20
0.04
40
0.0413385827
1
1 0 0 1 0 1
73
1
11
-0.05
21
0.04
41
0.75
7
W0$0059055118
0
TEXT
8
LABEL_ATTRIBUTE
10
-0.05
20
0.04
40
0.0413385827
1
PartType
73
1
11
-0.05
21
0.04
41
0.75
7
W0$0059055118
0
TEXT
8
PART_TYPE_01
10
-0.05
20
0.04
40
0.0413385827
1
PADHOLE
73
2
11
-0.05
21
0.04
41
0.75
7
W0$0059055118
0
TEXT
8
LABEL_INFO
10
-0.05
20
-0.01
40
0.0344488189
1
1 0 0 1 0 1
73
1
11
-0.05
21
-0.01
41
0.75
7
W0$0059055118
0
TEXT
8
LABEL_ATTRIBUTE
10
-0.05
20
-0.01
40
0.0344488189
1
Ref.Des.
73
1
11
-0.05
21
-0.01
41
0.75
7
W0$0059055118
0
TEXT
8
PART_NAME_01
10
-0.05
20
-0.01
40
0.0344488189
1
P20
73
2
11
-0.05
21
-0.01
41
0.75
7
W0$0059055118
0
TEXT
8
PART_INFO
10
-0.05
20
-0.0592125984
40
0.0344488189
1
000002
73
2
11
-0.05
21
-0.0592125984
41
0.75
7
W0$0059055118
0
TEXT
8
PART_PTS
10
-0.05
20
-0.1084251969
40
0.0344488189
1
1 
73
2
11
-0.05
21
-0.1084251969
41
0.75
7
W0$0059055118
0
ENDBLK
0
BLOCK
2
PART_TOP_30
8
0
10
0
20
0
3
PART_TOP_30
70
64
0
INSERT
2
SYM_TOP_11
8
0
10
0
20
0
0
INSERT
2
PKG_2
8
0
10
0
20
0
0
TEXT
8
LABEL_INFO
10
-0.05
20
0.04
40
0.0413385827
1
1 0 0 1 0 1
73
1
11
-0.05
21
0.04
41
0.75
7
W0$0059055118
0
TEXT
8
LABEL_ATTRIBUTE
10
-0.05
20
0.04
40
0.0413385827
1
PartType
73
1
11
-0.05
21
0.04
41
0.75
7
W0$0059055118
0
TEXT
8
PART_TYPE_01
10
-0.05
20
0.04
40
0.0413385827
1
PADHOLE
73
2
11
-0.05
21
0.04
41
0.75
7
W0$0059055118
0
TEXT
8
LABEL_INFO
10
-0.05
20
-0.01
40
0.0344488189
1
1 0 0 1 0 1
73
1
11
-0.05
21
-0.01
41
0.75
7
W0$0059055118
0
TEXT
8
LABEL_ATTRIBUTE
10
-0.05
20
-0.01
40
0.0344488189
1
Ref.Des.
73
1
11
-0.05
21
-0.01
41
0.75
7
W0$0059055118
0
TEXT
8
PART_NAME_01
10
-0.05
20
-0.01
40
0.0344488189
1
P19
73
2
11
-0.05
21
-0.01
41
0.75
7
W0$0059055118
0
TEXT
8
PART_INFO
10
-0.05
20
-0.0592125984
40
0.0344488189
1
000002
73
2
11
-0.05
21
-0.0592125984
41
0.75
7
W0$0059055118
0
TEXT
8
PART_PTS
10
-0.05
20
-0.1084251969
40
0.0344488189
1
1 
73
2
11
-0.05
21
-0.1084251969
41
0.75
7
W0$0059055118
0
ENDBLK
0
BLOCK
2
PART_TOP_31
8
0
10
0
20
0
3
PART_TOP_31
70
64
0
INSERT
2
SYM_TOP_11
8
0
10
0
20
0
0
INSERT
2
PKG_2
8
0
10
0
20
0
0
TEXT
8
LABEL_INFO
10
-0.05
20
0.04
40
0.0413385827
1
1 0 0 1 0 1
73
1
11
-0.05
21
0.04
41
0.75
7
W0$0059055118
0
TEXT
8
LABEL_ATTRIBUTE
10
-0.05
20
0.04
40
0.0413385827
1
PartType
73
1
11
-0.05
21
0.04
41
0.75
7
W0$0059055118
0
TEXT
8
PART_TYPE_01
10
-0.05
20
0.04
40
0.0413385827
1
PADHOLE
73
2
11
-0.05
21
0.04
41
0.75
7
W0$0059055118
0
TEXT
8
LABEL_INFO
10
-0.05
20
-0.01
40
0.0344488189
1
1 0 0 1 0 1
73
1
11
-0.05
21
-0.01
41
0.75
7
W0$0059055118
0
TEXT
8
LABEL_ATTRIBUTE
10
-0.05
20
-0.01
40
0.0344488189
1
Ref.Des.
73
1
11
-0.05
21
-0.01
41
0.75
7
W0$0059055118
0
TEXT
8
PART_NAME_01
10
-0.05
20
-0.01
40
0.0344488189
1
P2
73
2
11
-0.05
21
-0.01
41
0.75
7
W0$0059055118
0
TEXT
8
PART_INFO
10
-0.05
20
-0.0592125984
40
0.0344488189
1
000002
73
2
11
-0.05
21
-0.0592125984
41
0.75
7
W0$0059055118
0
TEXT
8
PART_PTS
10
-0.05
20
-0.1084251969
40
0.0344488189
1
1 
73
2
11
-0.05
21
-0.1084251969
41
0.75
7
W0$0059055118
0
ENDBLK
0
BLOCK
2
PART_TOP_32
8
0
10
0
20
0
3
PART_TOP_32
70
64
0
INSERT
2
SYM_TOP_11
8
0
10
0
20
0
0
INSERT
2
PKG_2
8
0
10
0
20
0
0
TEXT
8
LABEL_INFO
10
-0.05
20
0.04
40
0.0413385827
1
1 0 0 1 0 1
73
1
11
-0.05
21
0.04
41
0.75
7
W0$0059055118
0
TEXT
8
LABEL_ATTRIBUTE
10
-0.05
20
0.04
40
0.0413385827
1
PartType
73
1
11
-0.05
21
0.04
41
0.75
7
W0$0059055118
0
TEXT
8
PART_TYPE_01
10
-0.05
20
0.04
40
0.0413385827
1
PADHOLE
73
2
11
-0.05
21
0.04
41
0.75
7
W0$0059055118
0
TEXT
8
LABEL_INFO
10
-0.05
20
-0.01
40
0.0344488189
1
1 0 0 1 0 1
73
1
11
-0.05
21
-0.01
41
0.75
7
W0$0059055118
0
TEXT
8
LABEL_ATTRIBUTE
10
-0.05
20
-0.01
40
0.0344488189
1
Ref.Des.
73
1
11
-0.05
21
-0.01
41
0.75
7
W0$0059055118
0
TEXT
8
PART_NAME_01
10
-0.05
20
-0.01
40
0.0344488189
1
P22
73
2
11
-0.05
21
-0.01
41
0.75
7
W0$0059055118
0
TEXT
8
PART_INFO
10
-0.05
20
-0.0592125984
40
0.0344488189
1
000002
73
2
11
-0.05
21
-0.0592125984
41
0.75
7
W0$0059055118
0
TEXT
8
PART_PTS
10
-0.05
20
-0.1084251969
40
0.0344488189
1
1 
73
2
11
-0.05
21
-0.1084251969
41
0.75
7
W0$0059055118
0
ENDBLK
0
BLOCK
2
PART_TOP_33
8
0
10
0
20
0
3
PART_TOP_33
70
64
0
INSERT
2
SYM_TOP_11
8
0
10
0
20
0
0
INSERT
2
PKG_2
8
0
10
0
20
0
0
TEXT
8
LABEL_INFO
10
-0.05
20
0.04
40
0.0413385827
1
1 0 0 1 0 1
73
1
11
-0.05
21
0.04
41
0.75
7
W0$0059055118
0
TEXT
8
LABEL_ATTRIBUTE
10
-0.05
20
0.04
40
0.0413385827
1
PartType
73
1
11
-0.05
21
0.04
41
0.75
7
W0$0059055118
0
TEXT
8
PART_TYPE_01
10
-0.05
20
0.04
40
0.0413385827
1
PADHOLE
73
2
11
-0.05
21
0.04
41
0.75
7
W0$0059055118
0
TEXT
8
LABEL_INFO
10
-0.05
20
-0.01
40
0.0344488189
1
1 0 0 1 0 1
73
1
11
-0.05
21
-0.01
41
0.75
7
W0$0059055118
0
TEXT
8
LABEL_ATTRIBUTE
10
-0.05
20
-0.01
40
0.0344488189
1
Ref.Des.
73
1
11
-0.05
21
-0.01
41
0.75
7
W0$0059055118
0
TEXT
8
PART_NAME_01
10
-0.05
20
-0.01
40
0.0344488189
1
P21
73
2
11
-0.05
21
-0.01
41
0.75
7
W0$0059055118
0
TEXT
8
PART_INFO
10
-0.05
20
-0.0592125984
40
0.0344488189
1
000002
73
2
11
-0.05
21
-0.0592125984
41
0.75
7
W0$0059055118
0
TEXT
8
PART_PTS
10
-0.05
20
-0.1084251969
40
0.0344488189
1
1 
73
2
11
-0.05
21
-0.1084251969
41
0.75
7
W0$0059055118
0
ENDBLK
0
BLOCK
2
PART_TOP_34
8
0
10
0
20
0
3
PART_TOP_34
70
64
0
INSERT
2
SYM_TOP_11
8
0
10
0
20
0
0
INSERT
2
PKG_2
8
0
10
0
20
0
0
TEXT
8
LABEL_INFO
10
-0.05
20
0.04
40
0.0413385827
1
1 0 0 1 0 1
73
1
11
-0.05
21
0.04
41
0.75
7
W0$0059055118
0
TEXT
8
LABEL_ATTRIBUTE
10
-0.05
20
0.04
40
0.0413385827
1
PartType
73
1
11
-0.05
21
0.04
41
0.75
7
W0$0059055118
0
TEXT
8
PART_TYPE_01
10
-0.05
20
0.04
40
0.0413385827
1
PADHOLE
73
2
11
-0.05
21
0.04
41
0.75
7
W0$0059055118
0
TEXT
8
LABEL_INFO
10
-0.05
20
-0.01
40
0.0344488189
1
1 0 0 1 0 1
73
1
11
-0.05
21
-0.01
41
0.75
7
W0$0059055118
0
TEXT
8
LABEL_ATTRIBUTE
10
-0.05
20
-0.01
40
0.0344488189
1
Ref.Des.
73
1
11
-0.05
21
-0.01
41
0.75
7
W0$0059055118
0
TEXT
8
PART_NAME_01
10
-0.05
20
-0.01
40
0.0344488189
1
P24
73
2
11
-0.05
21
-0.01
41
0.75
7
W0$0059055118
0
TEXT
8
PART_INFO
10
-0.05
20
-0.0592125984
40
0.0344488189
1
000002
73
2
11
-0.05
21
-0.0592125984
41
0.75
7
W0$0059055118
0
TEXT
8
PART_PTS
10
-0.05
20
-0.1084251969
40
0.0344488189
1
1 
73
2
11
-0.05
21
-0.1084251969
41
0.75
7
W0$0059055118
0
ENDBLK
0
BLOCK
2
PART_TOP_35
8
0
10
0
20
0
3
PART_TOP_35
70
64
0
INSERT
2
SYM_TOP_11
8
0
10
0
20
0
0
INSERT
2
PKG_2
8
0
10
0
20
0
0
TEXT
8
LABEL_INFO
10
-0.05
20
0.04
40
0.0413385827
1
1 0 0 1 0 1
73
1
11
-0.05
21
0.04
41
0.75
7
W0$0059055118
0
TEXT
8
LABEL_ATTRIBUTE
10
-0.05
20
0.04
40
0.0413385827
1
PartType
73
1
11
-0.05
21
0.04
41
0.75
7
W0$0059055118
0
TEXT
8
PART_TYPE_01
10
-0.05
20
0.04
40
0.0413385827
1
PADHOLE
73
2
11
-0.05
21
0.04
41
0.75
7
W0$0059055118
0
TEXT
8
LABEL_INFO
10
-0.05
20
-0.01
40
0.0344488189
1
1 0 0 1 0 1
73
1
11
-0.05
21
-0.01
41
0.75
7
W0$0059055118
0
TEXT
8
LABEL_ATTRIBUTE
10
-0.05
20
-0.01
40
0.0344488189
1
Ref.Des.
73
1
11
-0.05
21
-0.01
41
0.75
7
W0$0059055118
0
TEXT
8
PART_NAME_01
10
-0.05
20
-0.01
40
0.0344488189
1
P25
73
2
11
-0.05
21
-0.01
41
0.75
7
W0$0059055118
0
TEXT
8
PART_INFO
10
-0.05
20
-0.0592125984
40
0.0344488189
1
000002
73
2
11
-0.05
21
-0.0592125984
41
0.75
7
W0$0059055118
0
TEXT
8
PART_PTS
10
-0.05
20
-0.1084251969
40
0.0344488189
1
1 
73
2
11
-0.05
21
-0.1084251969
41
0.75
7
W0$0059055118
0
ENDBLK
0
BLOCK
2
PART_TOP_36
8
0
10
0
20
0
3
PART_TOP_36
70
64
0
INSERT
2
SYM_TOP_11
8
0
10
0
20
0
0
INSERT
2
PKG_2
8
0
10
0
20
0
0
TEXT
8
LABEL_INFO
10
-0.05
20
0.04
40
0.0413385827
1
1 0 0 1 0 1
73
1
11
-0.05
21
0.04
41
0.75
7
W0$0059055118
0
TEXT
8
LABEL_ATTRIBUTE
10
-0.05
20
0.04
40
0.0413385827
1
PartType
73
1
11
-0.05
21
0.04
41
0.75
7
W0$0059055118
0
TEXT
8
PART_TYPE_01
10
-0.05
20
0.04
40
0.0413385827
1
PADHOLE
73
2
11
-0.05
21
0.04
41
0.75
7
W0$0059055118
0
TEXT
8
LABEL_INFO
10
-0.05
20
-0.01
40
0.0344488189
1
1 0 0 1 0 1
73
1
11
-0.05
21
-0.01
41
0.75
7
W0$0059055118
0
TEXT
8
LABEL_ATTRIBUTE
10
-0.05
20
-0.01
40
0.0344488189
1
Ref.Des.
73
1
11
-0.05
21
-0.01
41
0.75
7
W0$0059055118
0
TEXT
8
PART_NAME_01
10
-0.05
20
-0.01
40
0.0344488189
1
P26
73
2
11
-0.05
21
-0.01
41
0.75
7
W0$0059055118
0
TEXT
8
PART_INFO
10
-0.05
20
-0.0592125984
40
0.0344488189
1
000002
73
2
11
-0.05
21
-0.0592125984
41
0.75
7
W0$0059055118
0
TEXT
8
PART_PTS
10
-0.05
20
-0.1084251969
40
0.0344488189
1
1 
73
2
11
-0.05
21
-0.1084251969
41
0.75
7
W0$0059055118
0
ENDBLK
0
BLOCK
2
PART_TOP_37
8
0
10
0
20
0
3
PART_TOP_37
70
64
0
INSERT
2
SYM_TOP_11
8
0
10
0
20
0
0
INSERT
2
PKG_2
8
0
10
0
20
0
0
TEXT
8
LABEL_INFO
10
-0.05
20
0.04
40
0.0413385827
1
1 0 0 1 0 1
73
1
11
-0.05
21
0.04
41
0.75
7
W0$0059055118
0
TEXT
8
LABEL_ATTRIBUTE
10
-0.05
20
0.04
40
0.0413385827
1
PartType
73
1
11
-0.05
21
0.04
41
0.75
7
W0$0059055118
0
TEXT
8
PART_TYPE_01
10
-0.05
20
0.04
40
0.0413385827
1
PADHOLE
73
2
11
-0.05
21
0.04
41
0.75
7
W0$0059055118
0
TEXT
8
LABEL_INFO
10
-0.05
20
-0.01
40
0.0344488189
1
1 0 0 1 0 1
73
1
11
-0.05
21
-0.01
41
0.75
7
W0$0059055118
0
TEXT
8
LABEL_ATTRIBUTE
10
-0.05
20
-0.01
40
0.0344488189
1
Ref.Des.
73
1
11
-0.05
21
-0.01
41
0.75
7
W0$0059055118
0
TEXT
8
PART_NAME_01
10
-0.05
20
-0.01
40
0.0344488189
1
P27
73
2
11
-0.05
21
-0.01
41
0.75
7
W0$0059055118
0
TEXT
8
PART_INFO
10
-0.05
20
-0.0592125984
40
0.0344488189
1
000002
73
2
11
-0.05
21
-0.0592125984
41
0.75
7
W0$0059055118
0
TEXT
8
PART_PTS
10
-0.05
20
-0.1084251969
40
0.0344488189
1
1 
73
2
11
-0.05
21
-0.1084251969
41
0.75
7
W0$0059055118
0
ENDBLK
0
BLOCK
2
PART_TOP_38
8
0
10
0
20
0
3
PART_TOP_38
70
64
0
INSERT
2
SYM_TOP_11
8
0
10
0
20
0
0
INSERT
2
PKG_2
8
0
10
0
20
0
0
TEXT
8
LABEL_INFO
10
-0.05
20
0.04
40
0.0413385827
1
1 0 0 1 0 1
73
1
11
-0.05
21
0.04
41
0.75
7
W0$0059055118
0
TEXT
8
LABEL_ATTRIBUTE
10
-0.05
20
0.04
40
0.0413385827
1
PartType
73
1
11
-0.05
21
0.04
41
0.75
7
W0$0059055118
0
TEXT
8
PART_TYPE_01
10
-0.05
20
0.04
40
0.0413385827
1
PADHOLE
73
2
11
-0.05
21
0.04
41
0.75
7
W0$0059055118
0
TEXT
8
LABEL_INFO
10
-0.05
20
-0.01
40
0.0344488189
1
1 0 0 1 0 1
73
1
11
-0.05
21
-0.01
41
0.75
7
W0$0059055118
0
TEXT
8
LABEL_ATTRIBUTE
10
-0.05
20
-0.01
40
0.0344488189
1
Ref.Des.
73
1
11
-0.05
21
-0.01
41
0.75
7
W0$0059055118
0
TEXT
8
PART_NAME_01
10
-0.05
20
-0.01
40
0.0344488189
1
P28
73
2
11
-0.05
21
-0.01
41
0.75
7
W0$0059055118
0
TEXT
8
PART_INFO
10
-0.05
20
-0.0592125984
40
0.0344488189
1
000002
73
2
11
-0.05
21
-0.0592125984
41
0.75
7
W0$0059055118
0
TEXT
8
PART_PTS
10
-0.05
20
-0.1084251969
40
0.0344488189
1
1 
73
2
11
-0.05
21
-0.1084251969
41
0.75
7
W0$0059055118
0
ENDBLK
0
BLOCK
2
PART_TOP_39
8
0
10
0
20
0
3
PART_TOP_39
70
64
0
INSERT
2
SYM_TOP_11
8
0
10
0
20
0
0
INSERT
2
PKG_2
8
0
10
0
20
0
0
TEXT
8
LABEL_INFO
10
-0.05
20
0.04
40
0.0413385827
1
1 0 0 1 0 1
73
1
11
-0.05
21
0.04
41
0.75
7
W0$0059055118
0
TEXT
8
LABEL_ATTRIBUTE
10
-0.05
20
0.04
40
0.0413385827
1
PartType
73
1
11
-0.05
21
0.04
41
0.75
7
W0$0059055118
0
TEXT
8
PART_TYPE_01
10
-0.05
20
0.04
40
0.0413385827
1
PADHOLE
73
2
11
-0.05
21
0.04
41
0.75
7
W0$0059055118
0
TEXT
8
LABEL_INFO
10
-0.05
20
-0.01
40
0.0344488189
1
1 0 0 1 0 1
73
1
11
-0.05
21
-0.01
41
0.75
7
W0$0059055118
0
TEXT
8
LABEL_ATTRIBUTE
10
-0.05
20
-0.01
40
0.0344488189
1
Ref.Des.
73
1
11
-0.05
21
-0.01
41
0.75
7
W0$0059055118
0
TEXT
8
PART_NAME_01
10
-0.05
20
-0.01
40
0.0344488189
1
P29
73
2
11
-0.05
21
-0.01
41
0.75
7
W0$0059055118
0
TEXT
8
PART_INFO
10
-0.05
20
-0.0592125984
40
0.0344488189
1
000002
73
2
11
-0.05
21
-0.0592125984
41
0.75
7
W0$0059055118
0
TEXT
8
PART_PTS
10
-0.05
20
-0.1084251969
40
0.0344488189
1
1 
73
2
11
-0.05
21
-0.1084251969
41
0.75
7
W0$0059055118
0
ENDBLK
0
BLOCK
2
PART_TOP_40
8
0
10
0
20
0
3
PART_TOP_40
70
64
0
INSERT
2
SYM_TOP_11
8
0
10
0
20
0
0
INSERT
2
PKG_2
8
0
10
0
20
0
0
TEXT
8
LABEL_INFO
10
-0.05
20
0.04
40
0.0413385827
1
1 0 0 1 0 1
73
1
11
-0.05
21
0.04
41
0.75
7
W0$0059055118
0
TEXT
8
LABEL_ATTRIBUTE
10
-0.05
20
0.04
40
0.0413385827
1
PartType
73
1
11
-0.05
21
0.04
41
0.75
7
W0$0059055118
0
TEXT
8
PART_TYPE_01
10
-0.05
20
0.04
40
0.0413385827
1
PADHOLE
73
2
11
-0.05
21
0.04
41
0.75
7
W0$0059055118
0
TEXT
8
LABEL_INFO
10
-0.05
20
-0.01
40
0.0344488189
1
1 0 0 1 0 1
73
1
11
-0.05
21
-0.01
41
0.75
7
W0$0059055118
0
TEXT
8
LABEL_ATTRIBUTE
10
-0.05
20
-0.01
40
0.0344488189
1
Ref.Des.
73
1
11
-0.05
21
-0.01
41
0.75
7
W0$0059055118
0
TEXT
8
PART_NAME_01
10
-0.05
20
-0.01
40
0.0344488189
1
P3
73
2
11
-0.05
21
-0.01
41
0.75
7
W0$0059055118
0
TEXT
8
PART_INFO
10
-0.05
20
-0.0592125984
40
0.0344488189
1
000002
73
2
11
-0.05
21
-0.0592125984
41
0.75
7
W0$0059055118
0
TEXT
8
PART_PTS
10
-0.05
20
-0.1084251969
40
0.0344488189
1
1 
73
2
11
-0.05
21
-0.1084251969
41
0.75
7
W0$0059055118
0
ENDBLK
0
BLOCK
2
PART_TOP_41
8
0
10
0
20
0
3
PART_TOP_41
70
64
0
INSERT
2
SYM_TOP_11
8
0
10
0
20
0
0
INSERT
2
PKG_2
8
0
10
0
20
0
0
TEXT
8
LABEL_INFO
10
-0.05
20
0.04
40
0.0413385827
1
1 0 0 1 0 1
73
1
11
-0.05
21
0.04
41
0.75
7
W0$0059055118
0
TEXT
8
LABEL_ATTRIBUTE
10
-0.05
20
0.04
40
0.0413385827
1
PartType
73
1
11
-0.05
21
0.04
41
0.75
7
W0$0059055118
0
TEXT
8
PART_TYPE_01
10
-0.05
20
0.04
40
0.0413385827
1
PADHOLE
73
2
11
-0.05
21
0.04
41
0.75
7
W0$0059055118
0
TEXT
8
LABEL_INFO
10
-0.05
20
-0.01
40
0.0344488189
1
1 0 0 1 0 1
73
1
11
-0.05
21
-0.01
41
0.75
7
W0$0059055118
0
TEXT
8
LABEL_ATTRIBUTE
10
-0.05
20
-0.01
40
0.0344488189
1
Ref.Des.
73
1
11
-0.05
21
-0.01
41
0.75
7
W0$0059055118
0
TEXT
8
PART_NAME_01
10
-0.05
20
-0.01
40
0.0344488189
1
P30
73
2
11
-0.05
21
-0.01
41
0.75
7
W0$0059055118
0
TEXT
8
PART_INFO
10
-0.05
20
-0.0592125984
40
0.0344488189
1
000002
73
2
11
-0.05
21
-0.0592125984
41
0.75
7
W0$0059055118
0
TEXT
8
PART_PTS
10
-0.05
20
-0.1084251969
40
0.0344488189
1
1 
73
2
11
-0.05
21
-0.1084251969
41
0.75
7
W0$0059055118
0
ENDBLK
0
BLOCK
2
PART_TOP_42
8
0
10
0
20
0
3
PART_TOP_42
70
64
0
INSERT
2
SYM_TOP_11
8
0
10
0
20
0
0
INSERT
2
PKG_2
8
0
10
0
20
0
0
TEXT
8
LABEL_INFO
10
-0.05
20
0.04
40
0.0413385827
1
1 0 0 1 0 1
73
1
11
-0.05
21
0.04
41
0.75
7
W0$0059055118
0
TEXT
8
LABEL_ATTRIBUTE
10
-0.05
20
0.04
40
0.0413385827
1
PartType
73
1
11
-0.05
21
0.04
41
0.75
7
W0$0059055118
0
TEXT
8
PART_TYPE_01
10
-0.05
20
0.04
40
0.0413385827
1
PADHOLE
73
2
11
-0.05
21
0.04
41
0.75
7
W0$0059055118
0
TEXT
8
LABEL_INFO
10
-0.05
20
-0.01
40
0.0344488189
1
1 0 0 1 0 1
73
1
11
-0.05
21
-0.01
41
0.75
7
W0$0059055118
0
TEXT
8
LABEL_ATTRIBUTE
10
-0.05
20
-0.01
40
0.0344488189
1
Ref.Des.
73
1
11
-0.05
21
-0.01
41
0.75
7
W0$0059055118
0
TEXT
8
PART_NAME_01
10
-0.05
20
-0.01
40
0.0344488189
1
P31
73
2
11
-0.05
21
-0.01
41
0.75
7
W0$0059055118
0
TEXT
8
PART_INFO
10
-0.05
20
-0.0592125984
40
0.0344488189
1
000002
73
2
11
-0.05
21
-0.0592125984
41
0.75
7
W0$0059055118
0
TEXT
8
PART_PTS
10
-0.05
20
-0.1084251969
40
0.0344488189
1
1 
73
2
11
-0.05
21
-0.1084251969
41
0.75
7
W0$0059055118
0
ENDBLK
0
BLOCK
2
PART_TOP_43
8
0
10
0
20
0
3
PART_TOP_43
70
64
0
INSERT
2
SYM_TOP_11
8
0
10
0
20
0
0
INSERT
2
PKG_2
8
0
10
0
20
0
0
TEXT
8
LABEL_INFO
10
-0.05
20
0.04
40
0.0413385827
1
1 0 0 1 0 1
73
1
11
-0.05
21
0.04
41
0.75
7
W0$0059055118
0
TEXT
8
LABEL_ATTRIBUTE
10
-0.05
20
0.04
40
0.0413385827
1
PartType
73
1
11
-0.05
21
0.04
41
0.75
7
W0$0059055118
0
TEXT
8
PART_TYPE_01
10
-0.05
20
0.04
40
0.0413385827
1
PADHOLE
73
2
11
-0.05
21
0.04
41
0.75
7
W0$0059055118
0
TEXT
8
LABEL_INFO
10
-0.05
20
-0.01
40
0.0344488189
1
1 0 0 1 0 1
73
1
11
-0.05
21
-0.01
41
0.75
7
W0$0059055118
0
TEXT
8
LABEL_ATTRIBUTE
10
-0.05
20
-0.01
40
0.0344488189
1
Ref.Des.
73
1
11
-0.05
21
-0.01
41
0.75
7
W0$0059055118
0
TEXT
8
PART_NAME_01
10
-0.05
20
-0.01
40
0.0344488189
1
P32
73
2
11
-0.05
21
-0.01
41
0.75
7
W0$0059055118
0
TEXT
8
PART_INFO
10
-0.05
20
-0.0592125984
40
0.0344488189
1
000002
73
2
11
-0.05
21
-0.0592125984
41
0.75
7
W0$0059055118
0
TEXT
8
PART_PTS
10
-0.05
20
-0.1084251969
40
0.0344488189
1
1 
73
2
11
-0.05
21
-0.1084251969
41
0.75
7
W0$0059055118
0
ENDBLK
0
BLOCK
2
PART_TOP_44
8
0
10
0
20
0
3
PART_TOP_44
70
64
0
INSERT
2
SYM_TOP_11
8
0
10
0
20
0
0
INSERT
2
PKG_2
8
0
10
0
20
0
0
TEXT
8
LABEL_INFO
10
-0.05
20
0.04
40
0.0413385827
1
1 0 0 1 0 1
73
1
11
-0.05
21
0.04
41
0.75
7
W0$0059055118
0
TEXT
8
LABEL_ATTRIBUTE
10
-0.05
20
0.04
40
0.0413385827
1
PartType
73
1
11
-0.05
21
0.04
41
0.75
7
W0$0059055118
0
TEXT
8
PART_TYPE_01
10
-0.05
20
0.04
40
0.0413385827
1
PADHOLE
73
2
11
-0.05
21
0.04
41
0.75
7
W0$0059055118
0
TEXT
8
LABEL_INFO
10
-0.05
20
-0.01
40
0.0344488189
1
1 0 0 1 0 1
73
1
11
-0.05
21
-0.01
41
0.75
7
W0$0059055118
0
TEXT
8
LABEL_ATTRIBUTE
10
-0.05
20
-0.01
40
0.0344488189
1
Ref.Des.
73
1
11
-0.05
21
-0.01
41
0.75
7
W0$0059055118
0
TEXT
8
PART_NAME_01
10
-0.05
20
-0.01
40
0.0344488189
1
P33
73
2
11
-0.05
21
-0.01
41
0.75
7
W0$0059055118
0
TEXT
8
PART_INFO
10
-0.05
20
-0.0592125984
40
0.0344488189
1
000002
73
2
11
-0.05
21
-0.0592125984
41
0.75
7
W0$0059055118
0
TEXT
8
PART_PTS
10
-0.05
20
-0.1084251969
40
0.0344488189
1
1 
73
2
11
-0.05
21
-0.1084251969
41
0.75
7
W0$0059055118
0
ENDBLK
0
BLOCK
2
PART_TOP_45
8
0
10
0
20
0
3
PART_TOP_45
70
64
0
INSERT
2
SYM_TOP_11
8
0
10
0
20
0
0
INSERT
2
PKG_2
8
0
10
0
20
0
0
TEXT
8
LABEL_INFO
10
-0.05
20
0.04
40
0.0413385827
1
1 0 0 1 0 1
73
1
11
-0.05
21
0.04
41
0.75
7
W0$0059055118
0
TEXT
8
LABEL_ATTRIBUTE
10
-0.05
20
0.04
40
0.0413385827
1
PartType
73
1
11
-0.05
21
0.04
41
0.75
7
W0$0059055118
0
TEXT
8
PART_TYPE_01
10
-0.05
20
0.04
40
0.0413385827
1
PADHOLE
73
2
11
-0.05
21
0.04
41
0.75
7
W0$0059055118
0
TEXT
8
LABEL_INFO
10
-0.05
20
-0.01
40
0.0344488189
1
1 0 0 1 0 1
73
1
11
-0.05
21
-0.01
41
0.75
7
W0$0059055118
0
TEXT
8
LABEL_ATTRIBUTE
10
-0.05
20
-0.01
40
0.0344488189
1
Ref.Des.
73
1
11
-0.05
21
-0.01
41
0.75
7
W0$0059055118
0
TEXT
8
PART_NAME_01
10
-0.05
20
-0.01
40
0.0344488189
1
P34
73
2
11
-0.05
21
-0.01
41
0.75
7
W0$0059055118
0
TEXT
8
PART_INFO
10
-0.05
20
-0.0592125984
40
0.0344488189
1
000002
73
2
11
-0.05
21
-0.0592125984
41
0.75
7
W0$0059055118
0
TEXT
8
PART_PTS
10
-0.05
20
-0.1084251969
40
0.0344488189
1
1 
73
2
11
-0.05
21
-0.1084251969
41
0.75
7
W0$0059055118
0
ENDBLK
0
BLOCK
2
PART_TOP_46
8
0
10
0
20
0
3
PART_TOP_46
70
64
0
INSERT
2
SYM_TOP_11
8
0
10
0
20
0
0
INSERT
2
PKG_2
8
0
10
0
20
0
0
TEXT
8
LABEL_INFO
10
-0.05
20
0.04
40
0.0413385827
1
1 0 0 1 0 1
73
1
11
-0.05
21
0.04
41
0.75
7
W0$0059055118
0
TEXT
8
LABEL_ATTRIBUTE
10
-0.05
20
0.04
40
0.0413385827
1
PartType
73
1
11
-0.05
21
0.04
41
0.75
7
W0$0059055118
0
TEXT
8
PART_TYPE_01
10
-0.05
20
0.04
40
0.0413385827
1
PADHOLE
73
2
11
-0.05
21
0.04
41
0.75
7
W0$0059055118
0
TEXT
8
LABEL_INFO
10
-0.05
20
-0.01
40
0.0344488189
1
1 0 0 1 0 1
73
1
11
-0.05
21
-0.01
41
0.75
7
W0$0059055118
0
TEXT
8
LABEL_ATTRIBUTE
10
-0.05
20
-0.01
40
0.0344488189
1
Ref.Des.
73
1
11
-0.05
21
-0.01
41
0.75
7
W0$0059055118
0
TEXT
8
PART_NAME_01
10
-0.05
20
-0.01
40
0.0344488189
1
P35
73
2
11
-0.05
21
-0.01
41
0.75
7
W0$0059055118
0
TEXT
8
PART_INFO
10
-0.05
20
-0.0592125984
40
0.0344488189
1
000002
73
2
11
-0.05
21
-0.0592125984
41
0.75
7
W0$0059055118
0
TEXT
8
PART_PTS
10
-0.05
20
-0.1084251969
40
0.0344488189
1
1 
73
2
11
-0.05
21
-0.1084251969
41
0.75
7
W0$0059055118
0
ENDBLK
0
BLOCK
2
PART_TOP_47
8
0
10
0
20
0
3
PART_TOP_47
70
64
0
INSERT
2
SYM_TOP_11
8
0
10
0
20
0
0
INSERT
2
PKG_2
8
0
10
0
20
0
0
TEXT
8
LABEL_INFO
10
-0.05
20
0.04
40
0.0413385827
1
1 0 0 1 0 1
73
1
11
-0.05
21
0.04
41
0.75
7
W0$0059055118
0
TEXT
8
LABEL_ATTRIBUTE
10
-0.05
20
0.04
40
0.0413385827
1
PartType
73
1
11
-0.05
21
0.04
41
0.75
7
W0$0059055118
0
TEXT
8
PART_TYPE_01
10
-0.05
20
0.04
40
0.0413385827
1
PADHOLE
73
2
11
-0.05
21
0.04
41
0.75
7
W0$0059055118
0
TEXT
8
LABEL_INFO
10
-0.05
20
-0.01
40
0.0344488189
1
1 0 0 1 0 1
73
1
11
-0.05
21
-0.01
41
0.75
7
W0$0059055118
0
TEXT
8
LABEL_ATTRIBUTE
10
-0.05
20
-0.01
40
0.0344488189
1
Ref.Des.
73
1
11
-0.05
21
-0.01
41
0.75
7
W0$0059055118
0
TEXT
8
PART_NAME_01
10
-0.05
20
-0.01
40
0.0344488189
1
P36
73
2
11
-0.05
21
-0.01
41
0.75
7
W0$0059055118
0
TEXT
8
PART_INFO
10
-0.05
20
-0.0592125984
40
0.0344488189
1
000002
73
2
11
-0.05
21
-0.0592125984
41
0.75
7
W0$0059055118
0
TEXT
8
PART_PTS
10
-0.05
20
-0.1084251969
40
0.0344488189
1
1 
73
2
11
-0.05
21
-0.1084251969
41
0.75
7
W0$0059055118
0
ENDBLK
0
BLOCK
2
PART_TOP_48
8
0
10
0
20
0
3
PART_TOP_48
70
64
0
INSERT
2
SYM_TOP_11
8
0
10
0
20
0
0
INSERT
2
PKG_2
8
0
10
0
20
0
0
TEXT
8
LABEL_INFO
10
-0.05
20
0.04
40
0.0413385827
1
1 0 0 1 0 1
73
1
11
-0.05
21
0.04
41
0.75
7
W0$0059055118
0
TEXT
8
LABEL_ATTRIBUTE
10
-0.05
20
0.04
40
0.0413385827
1
PartType
73
1
11
-0.05
21
0.04
41
0.75
7
W0$0059055118
0
TEXT
8
PART_TYPE_01
10
-0.05
20
0.04
40
0.0413385827
1
PADHOLE
73
2
11
-0.05
21
0.04
41
0.75
7
W0$0059055118
0
TEXT
8
LABEL_INFO
10
-0.05
20
-0.01
40
0.0344488189
1
1 0 0 1 0 1
73
1
11
-0.05
21
-0.01
41
0.75
7
W0$0059055118
0
TEXT
8
LABEL_ATTRIBUTE
10
-0.05
20
-0.01
40
0.0344488189
1
Ref.Des.
73
1
11
-0.05
21
-0.01
41
0.75
7
W0$0059055118
0
TEXT
8
PART_NAME_01
10
-0.05
20
-0.01
40
0.0344488189
1
P37
73
2
11
-0.05
21
-0.01
41
0.75
7
W0$0059055118
0
TEXT
8
PART_INFO
10
-0.05
20
-0.0592125984
40
0.0344488189
1
000002
73
2
11
-0.05
21
-0.0592125984
41
0.75
7
W0$0059055118
0
TEXT
8
PART_PTS
10
-0.05
20
-0.1084251969
40
0.0344488189
1
1 
73
2
11
-0.05
21
-0.1084251969
41
0.75
7
W0$0059055118
0
ENDBLK
0
BLOCK
2
PART_TOP_49
8
0
10
0
20
0
3
PART_TOP_49
70
64
0
INSERT
2
SYM_TOP_11
8
0
10
0
20
0
0
INSERT
2
PKG_2
8
0
10
0
20
0
0
TEXT
8
LABEL_INFO
10
-0.05
20
0.04
40
0.0413385827
1
1 0 0 1 0 1
73
1
11
-0.05
21
0.04
41
0.75
7
W0$0059055118
0
TEXT
8
LABEL_ATTRIBUTE
10
-0.05
20
0.04
40
0.0413385827
1
PartType
73
1
11
-0.05
21
0.04
41
0.75
7
W0$0059055118
0
TEXT
8
PART_TYPE_01
10
-0.05
20
0.04
40
0.0413385827
1
PADHOLE
73
2
11
-0.05
21
0.04
41
0.75
7
W0$0059055118
0
TEXT
8
LABEL_INFO
10
-0.05
20
-0.01
40
0.0344488189
1
1 0 0 1 0 1
73
1
11
-0.05
21
-0.01
41
0.75
7
W0$0059055118
0
TEXT
8
LABEL_ATTRIBUTE
10
-0.05
20
-0.01
40
0.0344488189
1
Ref.Des.
73
1
11
-0.05
21
-0.01
41
0.75
7
W0$0059055118
0
TEXT
8
PART_NAME_01
10
-0.05
20
-0.01
40
0.0344488189
1
P38
73
2
11
-0.05
21
-0.01
41
0.75
7
W0$0059055118
0
TEXT
8
PART_INFO
10
-0.05
20
-0.0592125984
40
0.0344488189
1
000002
73
2
11
-0.05
21
-0.0592125984
41
0.75
7
W0$0059055118
0
TEXT
8
PART_PTS
10
-0.05
20
-0.1084251969
40
0.0344488189
1
1 
73
2
11
-0.05
21
-0.1084251969
41
0.75
7
W0$0059055118
0
ENDBLK
0
BLOCK
2
PART_TOP_50
8
0
10
0
20
0
3
PART_TOP_50
70
64
0
INSERT
2
SYM_TOP_11
8
0
10
0
20
0
0
INSERT
2
PKG_2
8
0
10
0
20
0
0
TEXT
8
LABEL_INFO
10
-0.05
20
0.04
40
0.0413385827
1
1 0 0 1 0 1
73
1
11
-0.05
21
0.04
41
0.75
7
W0$0059055118
0
TEXT
8
LABEL_ATTRIBUTE
10
-0.05
20
0.04
40
0.0413385827
1
PartType
73
1
11
-0.05
21
0.04
41
0.75
7
W0$0059055118
0
TEXT
8
PART_TYPE_01
10
-0.05
20
0.04
40
0.0413385827
1
PADHOLE
73
2
11
-0.05
21
0.04
41
0.75
7
W0$0059055118
0
TEXT
8
LABEL_INFO
10
-0.05
20
-0.01
40
0.0344488189
1
1 0 0 1 0 1
73
1
11
-0.05
21
-0.01
41
0.75
7
W0$0059055118
0
TEXT
8
LABEL_ATTRIBUTE
10
-0.05
20
-0.01
40
0.0344488189
1
Ref.Des.
73
1
11
-0.05
21
-0.01
41
0.75
7
W0$0059055118
0
TEXT
8
PART_NAME_01
10
-0.05
20
-0.01
40
0.0344488189
1
P39
73
2
11
-0.05
21
-0.01
41
0.75
7
W0$0059055118
0
TEXT
8
PART_INFO
10
-0.05
20
-0.0592125984
40
0.0344488189
1
000002
73
2
11
-0.05
21
-0.0592125984
41
0.75
7
W0$0059055118
0
TEXT
8
PART_PTS
10
-0.05
20
-0.1084251969
40
0.0344488189
1
1 
73
2
11
-0.05
21
-0.1084251969
41
0.75
7
W0$0059055118
0
ENDBLK
0
BLOCK
2
PART_TOP_51
8
0
10
0
20
0
3
PART_TOP_51
70
64
0
INSERT
2
SYM_TOP_11
8
0
10
0
20
0
0
INSERT
2
PKG_2
8
0
10
0
20
0
0
TEXT
8
LABEL_INFO
10
-0.05
20
0.04
40
0.0413385827
1
1 0 0 1 0 1
73
1
11
-0.05
21
0.04
41
0.75
7
W0$0059055118
0
TEXT
8
LABEL_ATTRIBUTE
10
-0.05
20
0.04
40
0.0413385827
1
PartType
73
1
11
-0.05
21
0.04
41
0.75
7
W0$0059055118
0
TEXT
8
PART_TYPE_01
10
-0.05
20
0.04
40
0.0413385827
1
PADHOLE
73
2
11
-0.05
21
0.04
41
0.75
7
W0$0059055118
0
TEXT
8
LABEL_INFO
10
-0.05
20
-0.01
40
0.0344488189
1
1 0 0 1 0 1
73
1
11
-0.05
21
-0.01
41
0.75
7
W0$0059055118
0
TEXT
8
LABEL_ATTRIBUTE
10
-0.05
20
-0.01
40
0.0344488189
1
Ref.Des.
73
1
11
-0.05
21
-0.01
41
0.75
7
W0$0059055118
0
TEXT
8
PART_NAME_01
10
-0.05
20
-0.01
40
0.0344488189
1
P6
73
2
11
-0.05
21
-0.01
41
0.75
7
W0$0059055118
0
TEXT
8
PART_INFO
10
-0.05
20
-0.0592125984
40
0.0344488189
1
000002
73
2
11
-0.05
21
-0.0592125984
41
0.75
7
W0$0059055118
0
TEXT
8
PART_PTS
10
-0.05
20
-0.1084251969
40
0.0344488189
1
1 
73
2
11
-0.05
21
-0.1084251969
41
0.75
7
W0$0059055118
0
ENDBLK
0
BLOCK
2
PART_TOP_52
8
0
10
0
20
0
3
PART_TOP_52
70
64
0
INSERT
2
SYM_TOP_11
8
0
10
0
20
0
0
INSERT
2
PKG_2
8
0
10
0
20
0
0
TEXT
8
LABEL_INFO
10
-0.05
20
0.04
40
0.0413385827
1
1 0 0 1 0 1
73
1
11
-0.05
21
0.04
41
0.75
7
W0$0059055118
0
TEXT
8
LABEL_ATTRIBUTE
10
-0.05
20
0.04
40
0.0413385827
1
PartType
73
1
11
-0.05
21
0.04
41
0.75
7
W0$0059055118
0
TEXT
8
PART_TYPE_01
10
-0.05
20
0.04
40
0.0413385827
1
PADHOLE
73
2
11
-0.05
21
0.04
41
0.75
7
W0$0059055118
0
TEXT
8
LABEL_INFO
10
-0.05
20
-0.01
40
0.0344488189
1
1 0 0 1 0 1
73
1
11
-0.05
21
-0.01
41
0.75
7
W0$0059055118
0
TEXT
8
LABEL_ATTRIBUTE
10
-0.05
20
-0.01
40
0.0344488189
1
Ref.Des.
73
1
11
-0.05
21
-0.01
41
0.75
7
W0$0059055118
0
TEXT
8
PART_NAME_01
10
-0.05
20
-0.01
40
0.0344488189
1
P40
73
2
11
-0.05
21
-0.01
41
0.75
7
W0$0059055118
0
TEXT
8
PART_INFO
10
-0.05
20
-0.0592125984
40
0.0344488189
1
000002
73
2
11
-0.05
21
-0.0592125984
41
0.75
7
W0$0059055118
0
TEXT
8
PART_PTS
10
-0.05
20
-0.1084251969
40
0.0344488189
1
1 
73
2
11
-0.05
21
-0.1084251969
41
0.75
7
W0$0059055118
0
ENDBLK
0
BLOCK
2
PART_TOP_53
8
0
10
0
20
0
3
PART_TOP_53
70
64
0
INSERT
2
SYM_TOP_11
8
0
10
0
20
0
0
INSERT
2
PKG_2
8
0
10
0
20
0
0
TEXT
8
LABEL_INFO
10
-0.05
20
0.04
40
0.0413385827
1
1 0 0 1 0 1
73
1
11
-0.05
21
0.04
41
0.75
7
W0$0059055118
0
TEXT
8
LABEL_ATTRIBUTE
10
-0.05
20
0.04
40
0.0413385827
1
PartType
73
1
11
-0.05
21
0.04
41
0.75
7
W0$0059055118
0
TEXT
8
PART_TYPE_01
10
-0.05
20
0.04
40
0.0413385827
1
PADHOLE
73
2
11
-0.05
21
0.04
41
0.75
7
W0$0059055118
0
TEXT
8
LABEL_INFO
10
-0.05
20
-0.01
40
0.0344488189
1
1 0 0 1 0 1
73
1
11
-0.05
21
-0.01
41
0.75
7
W0$0059055118
0
TEXT
8
LABEL_ATTRIBUTE
10
-0.05
20
-0.01
40
0.0344488189
1
Ref.Des.
73
1
11
-0.05
21
-0.01
41
0.75
7
W0$0059055118
0
TEXT
8
PART_NAME_01
10
-0.05
20
-0.01
40
0.0344488189
1
P41
73
2
11
-0.05
21
-0.01
41
0.75
7
W0$0059055118
0
TEXT
8
PART_INFO
10
-0.05
20
-0.0592125984
40
0.0344488189
1
000002
73
2
11
-0.05
21
-0.0592125984
41
0.75
7
W0$0059055118
0
TEXT
8
PART_PTS
10
-0.05
20
-0.1084251969
40
0.0344488189
1
1 
73
2
11
-0.05
21
-0.1084251969
41
0.75
7
W0$0059055118
0
ENDBLK
0
BLOCK
2
PART_TOP_54
8
0
10
0
20
0
3
PART_TOP_54
70
64
0
INSERT
2
SYM_TOP_11
8
0
10
0
20
0
0
INSERT
2
PKG_2
8
0
10
0
20
0
0
TEXT
8
LABEL_INFO
10
-0.05
20
0.04
40
0.0413385827
1
1 0 0 1 0 1
73
1
11
-0.05
21
0.04
41
0.75
7
W0$0059055118
0
TEXT
8
LABEL_ATTRIBUTE
10
-0.05
20
0.04
40
0.0413385827
1
PartType
73
1
11
-0.05
21
0.04
41
0.75
7
W0$0059055118
0
TEXT
8
PART_TYPE_01
10
-0.05
20
0.04
40
0.0413385827
1
PADHOLE
73
2
11
-0.05
21
0.04
41
0.75
7
W0$0059055118
0
TEXT
8
LABEL_INFO
10
-0.05
20
-0.01
40
0.0344488189
1
1 0 0 1 0 1
73
1
11
-0.05
21
-0.01
41
0.75
7
W0$0059055118
0
TEXT
8
LABEL_ATTRIBUTE
10
-0.05
20
-0.01
40
0.0344488189
1
Ref.Des.
73
1
11
-0.05
21
-0.01
41
0.75
7
W0$0059055118
0
TEXT
8
PART_NAME_01
10
-0.05
20
-0.01
40
0.0344488189
1
P42
73
2
11
-0.05
21
-0.01
41
0.75
7
W0$0059055118
0
TEXT
8
PART_INFO
10
-0.05
20
-0.0592125984
40
0.0344488189
1
000002
73
2
11
-0.05
21
-0.0592125984
41
0.75
7
W0$0059055118
0
TEXT
8
PART_PTS
10
-0.05
20
-0.1084251969
40
0.0344488189
1
1 
73
2
11
-0.05
21
-0.1084251969
41
0.75
7
W0$0059055118
0
ENDBLK
0
BLOCK
2
PART_TOP_55
8
0
10
0
20
0
3
PART_TOP_55
70
64
0
INSERT
2
SYM_TOP_11
8
0
10
0
20
0
0
INSERT
2
PKG_2
8
0
10
0
20
0
0
TEXT
8
LABEL_INFO
10
-0.05
20
0.04
40
0.0413385827
1
1 0 0 1 0 1
73
1
11
-0.05
21
0.04
41
0.75
7
W0$0059055118
0
TEXT
8
LABEL_ATTRIBUTE
10
-0.05
20
0.04
40
0.0413385827
1
PartType
73
1
11
-0.05
21
0.04
41
0.75
7
W0$0059055118
0
TEXT
8
PART_TYPE_01
10
-0.05
20
0.04
40
0.0413385827
1
PADHOLE
73
2
11
-0.05
21
0.04
41
0.75
7
W0$0059055118
0
TEXT
8
LABEL_INFO
10
-0.05
20
-0.01
40
0.0344488189
1
1 0 0 1 0 1
73
1
11
-0.05
21
-0.01
41
0.75
7
W0$0059055118
0
TEXT
8
LABEL_ATTRIBUTE
10
-0.05
20
-0.01
40
0.0344488189
1
Ref.Des.
73
1
11
-0.05
21
-0.01
41
0.75
7
W0$0059055118
0
TEXT
8
PART_NAME_01
10
-0.05
20
-0.01
40
0.0344488189
1
P43
73
2
11
-0.05
21
-0.01
41
0.75
7
W0$0059055118
0
TEXT
8
PART_INFO
10
-0.05
20
-0.0592125984
40
0.0344488189
1
000002
73
2
11
-0.05
21
-0.0592125984
41
0.75
7
W0$0059055118
0
TEXT
8
PART_PTS
10
-0.05
20
-0.1084251969
40
0.0344488189
1
1 
73
2
11
-0.05
21
-0.1084251969
41
0.75
7
W0$0059055118
0
ENDBLK
0
BLOCK
2
PART_TOP_56
8
0
10
0
20
0
3
PART_TOP_56
70
64
0
INSERT
2
SYM_TOP_11
8
0
10
0
20
0
0
INSERT
2
PKG_2
8
0
10
0
20
0
0
TEXT
8
LABEL_INFO
10
-0.05
20
0.04
40
0.0413385827
1
1 0 0 1 0 1
73
1
11
-0.05
21
0.04
41
0.75
7
W0$0059055118
0
TEXT
8
LABEL_ATTRIBUTE
10
-0.05
20
0.04
40
0.0413385827
1
PartType
73
1
11
-0.05
21
0.04
41
0.75
7
W0$0059055118
0
TEXT
8
PART_TYPE_01
10
-0.05
20
0.04
40
0.0413385827
1
PADHOLE
73
2
11
-0.05
21
0.04
41
0.75
7
W0$0059055118
0
TEXT
8
LABEL_INFO
10
-0.05
20
-0.01
40
0.0344488189
1
1 0 0 1 0 1
73
1
11
-0.05
21
-0.01
41
0.75
7
W0$0059055118
0
TEXT
8
LABEL_ATTRIBUTE
10
-0.05
20
-0.01
40
0.0344488189
1
Ref.Des.
73
1
11
-0.05
21
-0.01
41
0.75
7
W0$0059055118
0
TEXT
8
PART_NAME_01
10
-0.05
20
-0.01
40
0.0344488189
1
P44
73
2
11
-0.05
21
-0.01
41
0.75
7
W0$0059055118
0
TEXT
8
PART_INFO
10
-0.05
20
-0.0592125984
40
0.0344488189
1
000002
73
2
11
-0.05
21
-0.0592125984
41
0.75
7
W0$0059055118
0
TEXT
8
PART_PTS
10
-0.05
20
-0.1084251969
40
0.0344488189
1
1 
73
2
11
-0.05
21
-0.1084251969
41
0.75
7
W0$0059055118
0
ENDBLK
0
BLOCK
2
PART_TOP_57
8
0
10
0
20
0
3
PART_TOP_57
70
64
0
INSERT
2
SYM_TOP_11
8
0
10
0
20
0
0
INSERT
2
PKG_2
8
0
10
0
20
0
0
TEXT
8
LABEL_INFO
10
-0.05
20
0.04
40
0.0413385827
1
1 0 0 1 0 1
73
1
11
-0.05
21
0.04
41
0.75
7
W0$0059055118
0
TEXT
8
LABEL_ATTRIBUTE
10
-0.05
20
0.04
40
0.0413385827
1
PartType
73
1
11
-0.05
21
0.04
41
0.75
7
W0$0059055118
0
TEXT
8
PART_TYPE_01
10
-0.05
20
0.04
40
0.0413385827
1
PADHOLE
73
2
11
-0.05
21
0.04
41
0.75
7
W0$0059055118
0
TEXT
8
LABEL_INFO
10
-0.05
20
-0.01
40
0.0344488189
1
1 0 0 1 0 1
73
1
11
-0.05
21
-0.01
41
0.75
7
W0$0059055118
0
TEXT
8
LABEL_ATTRIBUTE
10
-0.05
20
-0.01
40
0.0344488189
1
Ref.Des.
73
1
11
-0.05
21
-0.01
41
0.75
7
W0$0059055118
0
TEXT
8
PART_NAME_01
10
-0.05
20
-0.01
40
0.0344488189
1
P45
73
2
11
-0.05
21
-0.01
41
0.75
7
W0$0059055118
0
TEXT
8
PART_INFO
10
-0.05
20
-0.0592125984
40
0.0344488189
1
000002
73
2
11
-0.05
21
-0.0592125984
41
0.75
7
W0$0059055118
0
TEXT
8
PART_PTS
10
-0.05
20
-0.1084251969
40
0.0344488189
1
1 
73
2
11
-0.05
21
-0.1084251969
41
0.75
7
W0$0059055118
0
ENDBLK
0
BLOCK
2
PART_TOP_58
8
0
10
0
20
0
3
PART_TOP_58
70
64
0
INSERT
2
SYM_TOP_11
8
0
10
0
20
0
0
INSERT
2
PKG_2
8
0
10
0
20
0
0
TEXT
8
LABEL_INFO
10
-0.05
20
0.04
40
0.0413385827
1
1 0 0 1 0 1
73
1
11
-0.05
21
0.04
41
0.75
7
W0$0059055118
0
TEXT
8
LABEL_ATTRIBUTE
10
-0.05
20
0.04
40
0.0413385827
1
PartType
73
1
11
-0.05
21
0.04
41
0.75
7
W0$0059055118
0
TEXT
8
PART_TYPE_01
10
-0.05
20
0.04
40
0.0413385827
1
PADHOLE
73
2
11
-0.05
21
0.04
41
0.75
7
W0$0059055118
0
TEXT
8
LABEL_INFO
10
-0.05
20
-0.01
40
0.0344488189
1
1 0 0 1 0 1
73
1
11
-0.05
21
-0.01
41
0.75
7
W0$0059055118
0
TEXT
8
LABEL_ATTRIBUTE
10
-0.05
20
-0.01
40
0.0344488189
1
Ref.Des.
73
1
11
-0.05
21
-0.01
41
0.75
7
W0$0059055118
0
TEXT
8
PART_NAME_01
10
-0.05
20
-0.01
40
0.0344488189
1
P46
73
2
11
-0.05
21
-0.01
41
0.75
7
W0$0059055118
0
TEXT
8
PART_INFO
10
-0.05
20
-0.0592125984
40
0.0344488189
1
000002
73
2
11
-0.05
21
-0.0592125984
41
0.75
7
W0$0059055118
0
TEXT
8
PART_PTS
10
-0.05
20
-0.1084251969
40
0.0344488189
1
1 
73
2
11
-0.05
21
-0.1084251969
41
0.75
7
W0$0059055118
0
ENDBLK
0
BLOCK
2
PART_TOP_59
8
0
10
0
20
0
3
PART_TOP_59
70
64
0
INSERT
2
SYM_TOP_11
8
0
10
0
20
0
0
INSERT
2
PKG_2
8
0
10
0
20
0
0
TEXT
8
LABEL_INFO
10
-0.05
20
0.04
40
0.0413385827
1
1 0 0 1 0 1
73
1
11
-0.05
21
0.04
41
0.75
7
W0$0059055118
0
TEXT
8
LABEL_ATTRIBUTE
10
-0.05
20
0.04
40
0.0413385827
1
PartType
73
1
11
-0.05
21
0.04
41
0.75
7
W0$0059055118
0
TEXT
8
PART_TYPE_01
10
-0.05
20
0.04
40
0.0413385827
1
PADHOLE
73
2
11
-0.05
21
0.04
41
0.75
7
W0$0059055118
0
TEXT
8
LABEL_INFO
10
-0.05
20
-0.01
40
0.0344488189
1
1 0 0 1 0 1
73
1
11
-0.05
21
-0.01
41
0.75
7
W0$0059055118
0
TEXT
8
LABEL_ATTRIBUTE
10
-0.05
20
-0.01
40
0.0344488189
1
Ref.Des.
73
1
11
-0.05
21
-0.01
41
0.75
7
W0$0059055118
0
TEXT
8
PART_NAME_01
10
-0.05
20
-0.01
40
0.0344488189
1
P5
73
2
11
-0.05
21
-0.01
41
0.75
7
W0$0059055118
0
TEXT
8
PART_INFO
10
-0.05
20
-0.0592125984
40
0.0344488189
1
000002
73
2
11
-0.05
21
-0.0592125984
41
0.75
7
W0$0059055118
0
TEXT
8
PART_PTS
10
-0.05
20
-0.1084251969
40
0.0344488189
1
1 
73
2
11
-0.05
21
-0.1084251969
41
0.75
7
W0$0059055118
0
ENDBLK
0
BLOCK
2
PART_TOP_60
8
0
10
0
20
0
3
PART_TOP_60
70
64
0
INSERT
2
SYM_TOP_11
8
0
10
0
20
0
0
INSERT
2
PKG_2
8
0
10
0
20
0
0
TEXT
8
LABEL_INFO
10
-0.05
20
0.04
40
0.0413385827
1
1 0 0 1 0 1
73
1
11
-0.05
21
0.04
41
0.75
7
W0$0059055118
0
TEXT
8
LABEL_ATTRIBUTE
10
-0.05
20
0.04
40
0.0413385827
1
PartType
73
1
11
-0.05
21
0.04
41
0.75
7
W0$0059055118
0
TEXT
8
PART_TYPE_01
10
-0.05
20
0.04
40
0.0413385827
1
PADHOLE
73
2
11
-0.05
21
0.04
41
0.75
7
W0$0059055118
0
TEXT
8
LABEL_INFO
10
-0.05
20
-0.01
40
0.0344488189
1
1 0 0 1 0 1
73
1
11
-0.05
21
-0.01
41
0.75
7
W0$0059055118
0
TEXT
8
LABEL_ATTRIBUTE
10
-0.05
20
-0.01
40
0.0344488189
1
Ref.Des.
73
1
11
-0.05
21
-0.01
41
0.75
7
W0$0059055118
0
TEXT
8
PART_NAME_01
10
-0.05
20
-0.01
40
0.0344488189
1
P10
73
2
11
-0.05
21
-0.01
41
0.75
7
W0$0059055118
0
TEXT
8
PART_INFO
10
-0.05
20
-0.0592125984
40
0.0344488189
1
000002
73
2
11
-0.05
21
-0.0592125984
41
0.75
7
W0$0059055118
0
TEXT
8
PART_PTS
10
-0.05
20
-0.1084251969
40
0.0344488189
1
1 
73
2
11
-0.05
21
-0.1084251969
41
0.75
7
W0$0059055118
0
ENDBLK
0
BLOCK
2
PART_TOP_61
8
0
10
0
20
0
3
PART_TOP_61
70
64
0
INSERT
2
SYM_TOP_11
8
0
10
0
20
0
0
INSERT
2
PKG_2
8
0
10
0
20
0
0
TEXT
8
LABEL_INFO
10
-0.05
20
0.04
40
0.0413385827
1
1 0 0 1 0 1
73
1
11
-0.05
21
0.04
41
0.75
7
W0$0059055118
0
TEXT
8
LABEL_ATTRIBUTE
10
-0.05
20
0.04
40
0.0413385827
1
PartType
73
1
11
-0.05
21
0.04
41
0.75
7
W0$0059055118
0
TEXT
8
PART_TYPE_01
10
-0.05
20
0.04
40
0.0413385827
1
PADHOLE
73
2
11
-0.05
21
0.04
41
0.75
7
W0$0059055118
0
TEXT
8
LABEL_INFO
10
-0.05
20
-0.01
40
0.0344488189
1
1 0 0 1 0 1
73
1
11
-0.05
21
-0.01
41
0.75
7
W0$0059055118
0
TEXT
8
LABEL_ATTRIBUTE
10
-0.05
20
-0.01
40
0.0344488189
1
Ref.Des.
73
1
11
-0.05
21
-0.01
41
0.75
7
W0$0059055118
0
TEXT
8
PART_NAME_01
10
-0.05
20
-0.01
40
0.0344488189
1
P7
73
2
11
-0.05
21
-0.01
41
0.75
7
W0$0059055118
0
TEXT
8
PART_INFO
10
-0.05
20
-0.0592125984
40
0.0344488189
1
000002
73
2
11
-0.05
21
-0.0592125984
41
0.75
7
W0$0059055118
0
TEXT
8
PART_PTS
10
-0.05
20
-0.1084251969
40
0.0344488189
1
1 
73
2
11
-0.05
21
-0.1084251969
41
0.75
7
W0$0059055118
0
ENDBLK
0
BLOCK
2
PART_TOP_62
8
0
10
0
20
0
3
PART_TOP_62
70
64
0
INSERT
2
SYM_TOP_11
8
0
10
0
20
0
0
INSERT
2
PKG_2
8
0
10
0
20
0
0
TEXT
8
LABEL_INFO
10
-0.05
20
0.04
40
0.0413385827
1
1 0 0 1 0 1
73
1
11
-0.05
21
0.04
41
0.75
7
W0$0059055118
0
TEXT
8
LABEL_ATTRIBUTE
10
-0.05
20
0.04
40
0.0413385827
1
PartType
73
1
11
-0.05
21
0.04
41
0.75
7
W0$0059055118
0
TEXT
8
PART_TYPE_01
10
-0.05
20
0.04
40
0.0413385827
1
PADHOLE
73
2
11
-0.05
21
0.04
41
0.75
7
W0$0059055118
0
TEXT
8
LABEL_INFO
10
-0.05
20
-0.01
40
0.0344488189
1
1 0 0 1 0 1
73
1
11
-0.05
21
-0.01
41
0.75
7
W0$0059055118
0
TEXT
8
LABEL_ATTRIBUTE
10
-0.05
20
-0.01
40
0.0344488189
1
Ref.Des.
73
1
11
-0.05
21
-0.01
41
0.75
7
W0$0059055118
0
TEXT
8
PART_NAME_01
10
-0.05
20
-0.01
40
0.0344488189
1
P4
73
2
11
-0.05
21
-0.01
41
0.75
7
W0$0059055118
0
TEXT
8
PART_INFO
10
-0.05
20
-0.0592125984
40
0.0344488189
1
000002
73
2
11
-0.05
21
-0.0592125984
41
0.75
7
W0$0059055118
0
TEXT
8
PART_PTS
10
-0.05
20
-0.1084251969
40
0.0344488189
1
1 
73
2
11
-0.05
21
-0.1084251969
41
0.75
7
W0$0059055118
0
ENDBLK
0
BLOCK
2
PART_TOP_63
8
0
10
0
20
0
3
PART_TOP_63
70
64
0
INSERT
2
SYM_TOP_11
8
0
10
0
20
0
0
INSERT
2
PKG_2
8
0
10
0
20
0
0
TEXT
8
LABEL_INFO
10
-0.05
20
0.04
40
0.0413385827
1
1 0 0 1 0 1
73
1
11
-0.05
21
0.04
41
0.75
7
W0$0059055118
0
TEXT
8
LABEL_ATTRIBUTE
10
-0.05
20
0.04
40
0.0413385827
1
PartType
73
1
11
-0.05
21
0.04
41
0.75
7
W0$0059055118
0
TEXT
8
PART_TYPE_01
10
-0.05
20
0.04
40
0.0413385827
1
PADHOLE
73
2
11
-0.05
21
0.04
41
0.75
7
W0$0059055118
0
TEXT
8
LABEL_INFO
10
-0.05
20
-0.01
40
0.0344488189
1
1 0 0 1 0 1
73
1
11
-0.05
21
-0.01
41
0.75
7
W0$0059055118
0
TEXT
8
LABEL_ATTRIBUTE
10
-0.05
20
-0.01
40
0.0344488189
1
Ref.Des.
73
1
11
-0.05
21
-0.01
41
0.75
7
W0$0059055118
0
TEXT
8
PART_NAME_01
10
-0.05
20
-0.01
40
0.0344488189
1
P9
73
2
11
-0.05
21
-0.01
41
0.75
7
W0$0059055118
0
TEXT
8
PART_INFO
10
-0.05
20
-0.0592125984
40
0.0344488189
1
000002
73
2
11
-0.05
21
-0.0592125984
41
0.75
7
W0$0059055118
0
TEXT
8
PART_PTS
10
-0.05
20
-0.1084251969
40
0.0344488189
1
1 
73
2
11
-0.05
21
-0.1084251969
41
0.75
7
W0$0059055118
0
ENDBLK
0
BLOCK
2
PART_BOT_64
8
0
10
0
20
0
3
PART_BOT_64
70
64
0
INSERT
2
SYM_BOT_2
8
0
10
0
20
0
0
INSERT
2
PKG_0
8
0
10
0
20
0
41
-1
0
TEXT
8
LABEL_INFO
10
-0.07
20
0.14
40
0.07
1
0 0 0 2 0 1
73
2
11
-0.07
21
0.14
41
0.75
7
W0$01
0
TEXT
8
LABEL_ATTRIBUTE
10
-0.07
20
0.14
40
0.07
1
PartType
73
2
11
-0.07
21
0.14
41
0.75
7
W0$01
0
TEXT
8
PART_TYPE_04
10
-0.07
20
0.14
40
0.07
1
0402
73
3
11
-0.07
21
0.14
41
0.75
7
W0$01
0
TEXT
8
LABEL_INFO
10
-0.0037310761
20
0.0187390026
40
0.0344488189
1
0 0 0 0 0 1
41
0.75
7
W0$0078740157
0
TEXT
8
LABEL_ATTRIBUTE
10
-0.0037310761
20
0.0187390026
40
0.0344488189
1
Ref.Des.
41
0.75
7
W0$0078740157
0
TEXT
8
PART_NAME_04
10
-0.0037310761
20
0.0187390026
40
0.0344488189
1
R1
41
0.75
7
W0$0078740157
0
TEXT
8
PART_INFO
10
-0.0037310761
20
-0.0304735958
40
0.0344488189
1
000000
71
2
41
0.75
7
W0$0078740157
0
TEXT
8
PART_PTS
10
-0.0037310761
20
-0.0796861942
40
0.0344488189
1
1 2 
71
2
41
0.75
7
W0$0078740157
0
ENDBLK
0
BLOCK
2
PART_BOT_65
8
0
10
0
20
0
3
PART_BOT_65
70
64
0
INSERT
2
SYM_BOT_2
8
0
10
0
20
0
0
INSERT
2
PKG_0
8
0
10
0
20
0
41
-1
0
TEXT
8
LABEL_INFO
10
-0.07
20
0.14
40
0.07
1
0 0 0 2 0 1
73
2
11
-0.07
21
0.14
41
0.75
7
W0$01
0
TEXT
8
LABEL_ATTRIBUTE
10
-0.07
20
0.14
40
0.07
1
PartType
73
2
11
-0.07
21
0.14
41
0.75
7
W0$01
0
TEXT
8
PART_TYPE_04
10
-0.07
20
0.14
40
0.07
1
0402
73
3
11
-0.07
21
0.14
41
0.75
7
W0$01
0
TEXT
8
LABEL_INFO
10
0.0200322572
20
-0.0219700787
40
0.0344488189
1
0 324000000 0 0 0 1
50
180
41
0.75
7
W0$0078740157
0
TEXT
8
LABEL_ATTRIBUTE
10
0.0200322572
20
-0.0219700787
40
0.0344488189
1
Ref.Des.
50
180
41
0.75
7
W0$0078740157
0
TEXT
8
PART_NAME_04
10
0.0200322572
20
-0.0219700787
40
0.0344488189
1
R2
50
180
41
0.75
7
W0$0078740157
0
TEXT
8
PART_INFO
10
0.0200322572
20
-0.0711826772
40
0.0344488189
1
000000
71
2
50
180
41
0.75
7
W0$0078740157
0
TEXT
8
PART_PTS
10
0.0200322572
20
-0.1203952756
40
0.0344488189
1
1 2 
71
2
50
180
41
0.75
7
W0$0078740157
0
ENDBLK
0
BLOCK
2
PART_BOT_66
8
0
10
0
20
0
3
PART_BOT_66
70
64
0
INSERT
2
SYM_BOT_2
8
0
10
0
20
0
0
INSERT
2
PKG_0
8
0
10
0
20
0
41
-1
0
TEXT
8
LABEL_INFO
10
-0.07
20
0.14
40
0.07
1
0 0 0 2 0 1
73
2
11
-0.07
21
0.14
41
0.75
7
W0$01
0
TEXT
8
LABEL_ATTRIBUTE
10
-0.07
20
0.14
40
0.07
1
PartType
73
2
11
-0.07
21
0.14
41
0.75
7
W0$01
0
TEXT
8
PART_TYPE_04
10
-0.07
20
0.14
40
0.07
1
0402
73
3
11
-0.07
21
0.14
41
0.75
7
W0$01
0
TEXT
8
LABEL_INFO
10
0.050186378
20
0.0017575328
40
0.0344488189
1
0 0 0 0 0 1
41
0.75
7
W0$0078740157
0
TEXT
8
LABEL_ATTRIBUTE
10
0.050186378
20
0.0017575328
40
0.0344488189
1
Ref.Des.
41
0.75
7
W0$0078740157
0
TEXT
8
PART_NAME_04
10
0.050186378
20
0.0017575328
40
0.0344488189
1
R3
41
0.75
7
W0$0078740157
0
TEXT
8
PART_INFO
10
0.050186378
20
-0.0474550656
40
0.0344488189
1
000000
71
2
41
0.75
7
W0$0078740157
0
TEXT
8
PART_PTS
10
0.050186378
20
-0.096667664
40
0.0344488189
1
1 2 
71
2
41
0.75
7
W0$0078740157
0
ENDBLK
0
BLOCK
2
PART_BOT_67
8
0
10
0
20
0
3
PART_BOT_67
70
64
0
INSERT
2
SYM_BOT_5
8
0
10
0
20
0
0
INSERT
2
PKG_3
8
0
10
0
20
0
41
-1
0
TEXT
8
LABEL_INFO
10
0
20
0.0032812598
40
0.056
1
0 0 1 1 0 1
72
1
73
1
11
0
21
0.0032812598
41
0.75
7
W0$01
0
TEXT
8
LABEL_ATTRIBUTE
10
0
20
0.0032812598
40
0.056
1
PartType
72
1
73
1
11
0
21
0.0032812598
41
0.75
7
W0$01
0
TEXT
8
PART_TYPE_04
10
0
20
0.0032812598
40
0.056
1
TP-ATE-LS
72
1
73
2
11
0
21
0.0032812598
41
0.75
7
W0$01
0
TEXT
8
PART_NAME_BOT
10
0
20
0
40
0.07
1
TP2
73
2
11
0
21
0
41
0.75
7
W0$01
0
TEXT
8
PART_INFO
10
0
20
-0.1
40
0.07
1
000000
71
2
73
2
11
0
21
-0.1
41
0.75
7
W0$01
0
TEXT
8
PART_PTS
10
0
20
-0.2
40
0.07
1
1 
71
2
73
2
11
0
21
-0.2
41
0.75
7
W0$01
0
ENDBLK
0
BLOCK
2
PART_BOT_68
8
0
10
0
20
0
3
PART_BOT_68
70
64
0
INSERT
2
SYM_BOT_5
8
0
10
0
20
0
0
INSERT
2
PKG_3
8
0
10
0
20
0
41
-1
0
TEXT
8
LABEL_INFO
10
0
20
0.0032812598
40
0.056
1
0 0 1 1 0 1
72
1
73
1
11
0
21
0.0032812598
41
0.75
7
W0$01
0
TEXT
8
LABEL_ATTRIBUTE
10
0
20
0.0032812598
40
0.056
1
PartType
72
1
73
1
11
0
21
0.0032812598
41
0.75
7
W0$01
0
TEXT
8
PART_TYPE_04
10
0
20
0.0032812598
40
0.056
1
TP-ATE-LS
72
1
73
2
11
0
21
0.0032812598
41
0.75
7
W0$01
0
TEXT
8
PART_NAME_BOT
10
0
20
0
40
0.07
1
TP1
73
2
11
0
21
0
41
0.75
7
W0$01
0
TEXT
8
PART_INFO
10
0
20
-0.1
40
0.07
1
000000
71
2
73
2
11
0
21
-0.1
41
0.75
7
W0$01
0
TEXT
8
PART_PTS
10
0
20
-0.2
40
0.07
1
1 
71
2
73
2
11
0
21
-0.2
41
0.75
7
W0$01
0
ENDBLK
0
BLOCK
2
PART_BOT_69
8
0
10
0
20
0
3
PART_BOT_69
70
64
0
INSERT
2
SYM_BOT_5
8
0
10
0
20
0
0
INSERT
2
PKG_3
8
0
10
0
20
0
41
-1
0
TEXT
8
LABEL_INFO
10
0
20
0.0032812598
40
0.056
1
0 0 1 1 0 1
72
1
73
1
11
0
21
0.0032812598
41
0.75
7
W0$01
0
TEXT
8
LABEL_ATTRIBUTE
10
0
20
0.0032812598
40
0.056
1
PartType
72
1
73
1
11
0
21
0.0032812598
41
0.75
7
W0$01
0
TEXT
8
PART_TYPE_04
10
0
20
0.0032812598
40
0.056
1
TP-ATE-LS
72
1
73
2
11
0
21
0.0032812598
41
0.75
7
W0$01
0
TEXT
8
PART_NAME_BOT
10
0
20
0
40
0.07
1
TP3
73
2
11
0
21
0
41
0.75
7
W0$01
0
TEXT
8
PART_INFO
10
0
20
-0.1
40
0.07
1
000000
71
2
73
2
11
0
21
-0.1
41
0.75
7
W0$01
0
TEXT
8
PART_PTS
10
0
20
-0.2
40
0.07
1
1 
71
2
73
2
11
0
21
-0.2
41
0.75
7
W0$01
0
ENDBLK
0
BLOCK
2
PART_BOT_70
8
0
10
0
20
0
3
PART_BOT_70
70
64
0
INSERT
2
SYM_BOT_5
8
0
10
0
20
0
0
INSERT
2
PKG_3
8
0
10
0
20
0
41
-1
0
TEXT
8
LABEL_INFO
10
0
20
0.0032812598
40
0.056
1
0 0 1 1 0 1
72
1
73
1
11
0
21
0.0032812598
41
0.75
7
W0$01
0
TEXT
8
LABEL_ATTRIBUTE
10
0
20
0.0032812598
40
0.056
1
PartType
72
1
73
1
11
0
21
0.0032812598
41
0.75
7
W0$01
0
TEXT
8
PART_TYPE_04
10
0
20
0.0032812598
40
0.056
1
TP-ATE-LS
72
1
73
2
11
0
21
0.0032812598
41
0.75
7
W0$01
0
TEXT
8
PART_NAME_BOT
10
0
20
0
40
0.07
1
TP4
73
2
11
0
21
0
41
0.75
7
W0$01
0
TEXT
8
PART_INFO
10
0
20
-0.1
40
0.07
1
000000
71
2
73
2
11
0
21
-0.1
41
0.75
7
W0$01
0
TEXT
8
PART_PTS
10
0
20
-0.2
40
0.07
1
1 
71
2
73
2
11
0
21
-0.2
41
0.75
7
W0$01
0
ENDBLK
0
BLOCK
2
PART_BOT_71
8
0
10
0
20
0
3
PART_BOT_71
70
64
0
INSERT
2
SYM_BOT_6
8
0
10
0
20
0
0
INSERT
2
PKG_4
8
0
10
0
20
0
41
-1
0
TEXT
8
LABEL_INFO
10
-0.096857664
20
0.0665480052
40
0.0344488189
1
0 0 0 0 0 1
41
0.75
7
W0$0078740157
0
TEXT
8
LABEL_ATTRIBUTE
10
-0.096857664
20
0.0665480052
40
0.0344488189
1
Ref.Des.
41
0.75
7
W0$0078740157
0
TEXT
8
PART_NAME_04
10
-0.096857664
20
0.0665480052
40
0.0344488189
1
U6
41
0.75
7
W0$0078740157
0
TEXT
8
LABEL_INFO
10
-0.031496063
20
-0.0039370079
40
0.042
1
0 0 0 2 0 1
73
2
11
-0.031496063
21
-0.0039370079
41
0.75
7
W0$008
0
TEXT
8
LABEL_ATTRIBUTE
10
-0.031496063
20
-0.0039370079
40
0.042
1
PartType
73
2
11
-0.031496063
21
-0.0039370079
41
0.75
7
W0$008
0
TEXT
8
PART_TYPE_04
10
-0.031496063
20
-0.0039370079
40
0.042
1
LGA3X3-16
73
3
11
-0.031496063
21
-0.0039370079
41
0.75
7
W0$008
0
TEXT
8
PART_INFO
10
-0.031496063
20
-0.0639370079
40
0.042
1
000000
71
2
73
3
11
-0.031496063
21
-0.0639370079
41
0.75
7
W0$008
0
TEXT
8
PART_PTS
10
-0.031496063
20
-0.1239370079
40
0.042
1
1 2 4 5 6 7 8 10 12 13 14 15 16 
71
2
73
3
11
-0.031496063
21
-0.1239370079
41
0.75
7
W0$008
0
ENDBLK
0
BLOCK
2
PART_BOT_72
8
0
10
0
20
0
3
PART_BOT_72
70
64
0
INSERT
2
SYM_BOT_7
8
0
10
0
20
0
0
INSERT
2
PKG_5
8
0
10
0
20
0
41
-1
0
TEXT
8
LABEL_INFO
10
-0.1276377953
20
0.0262992126
40
0.0344488189
1
0 0 0 0 0 1
41
0.75
7
W0$0078740157
0
TEXT
8
LABEL_ATTRIBUTE
10
-0.1276377953
20
0.0262992126
40
0.0344488189
1
Ref.Des.
41
0.75
7
W0$0078740157
0
TEXT
8
PART_NAME_04
10
-0.1276377953
20
0.0262992126
40
0.0344488189
1
U7
41
0.75
7
W0$0078740157
0
TEXT
8
LABEL_INFO
10
-0.0472440945
20
0.0078740157
40
0.042
1
0 0 0 2 0 1
73
2
11
-0.0472440945
21
0.0078740157
41
0.75
7
W0$008
0
TEXT
8
LABEL_ATTRIBUTE
10
-0.0472440945
20
0.0078740157
40
0.042
1
PartType
73
2
11
-0.0472440945
21
0.0078740157
41
0.75
7
W0$008
0
TEXT
8
PART_TYPE_04
10
-0.0472440945
20
0.0078740157
40
0.042
1
LGA4X4-16
73
3
11
-0.0472440945
21
0.0078740157
41
0.75
7
W0$008
0
TEXT
8
PART_INFO
10
-0.0472440945
20
-0.0521259843
40
0.042
1
000000
71
2
73
3
11
-0.0472440945
21
-0.0521259843
41
0.75
7
W0$008
0
TEXT
8
PART_PTS
10
-0.0472440945
20
-0.1121259843
40
0.042
1
1 2 3 4 5 8 9 10 11 12 13 14 15 16 
71
2
73
3
11
-0.0472440945
21
-0.1121259843
41
0.75
7
W0$008
0
ENDBLK
0
BLOCK
2
PART_BOT_73
8
0
10
0
20
0
3
PART_BOT_73
70
64
0
INSERT
2
SYM_BOT_8
8
0
10
0
20
0
0
INSERT
2
PKG_6
8
0
10
0
20
0
41
-1
0
TEXT
8
LABEL_INFO
10
0.0715909186
20
0.0818750131
40
0.0385826772
1
0 0 0 0 0 1
41
0.75
7
W0$005
0
TEXT
8
LABEL_ATTRIBUTE
10
0.0715909186
20
0.0818750131
40
0.0385826772
1
Ref.Des.
41
0.75
7
W0$005
0
TEXT
8
PART_NAME_29
10
0.0715909186
20
0.0818750131
40
0.0385826772
1
U2
41
0.75
7
W0$005
0
TEXT
8
LABEL_INFO
10
-0.136368084
20
0.0826531496
40
0.0344488189
1
0 0 0 0 0 1
41
0.75
7
W0$0078740157
0
TEXT
8
LABEL_ATTRIBUTE
10
-0.136368084
20
0.0826531496
40
0.0344488189
1
Ref.Des.
41
0.75
7
W0$0078740157
0
TEXT
8
PART_NAME_04
10
-0.136368084
20
0.0826531496
40
0.0344488189
1
U2
41
0.75
7
W0$0078740157
0
TEXT
8
PART_TYPE_BOT
10
-0.136368084
20
0.0334405512
40
0.0344488189
1
LFCSP24
41
0.75
7
W0$0078740157
0
TEXT
8
PART_INFO
10
-0.136368084
20
-0.0157720472
40
0.0344488189
1
000000
71
2
41
0.75
7
W0$0078740157
0
TEXT
8
PART_PTS
10
-0.136368084
20
-0.0649846457
40
0.0344488189
1
1 2 3 4 5 6 8 9 10 11 12 13 14 15 16 19 20 21 22 23 24 
71
2
41
0.75
7
W0$0078740157
0
ENDBLK
0
BLOCK
2
PART_BOT_74
8
0
10
0
20
0
3
PART_BOT_74
70
64
0
INSERT
2
SYM_BOT_8
8
0
10
0
20
0
0
INSERT
2
PKG_6
8
0
10
0
20
0
41
-1
0
TEXT
8
LABEL_INFO
10
0.0715909186
20
0.0818750131
40
0.0385826772
1
0 0 0 0 0 1
41
0.75
7
W0$005
0
TEXT
8
LABEL_ATTRIBUTE
10
0.0715909186
20
0.0818750131
40
0.0385826772
1
Ref.Des.
41
0.75
7
W0$005
0
TEXT
8
PART_NAME_29
10
0.0715909186
20
0.0818750131
40
0.0385826772
1
U3
41
0.75
7
W0$005
0
TEXT
8
LABEL_INFO
10
-0.1437903675
20
0.0411795013
40
0.0344488189
1
0 0 0 0 0 1
41
0.75
7
W0$0078740157
0
TEXT
8
LABEL_ATTRIBUTE
10
-0.1437903675
20
0.0411795013
40
0.0344488189
1
Ref.Des.
41
0.75
7
W0$0078740157
0
TEXT
8
PART_NAME_04
10
-0.1437903675
20
0.0411795013
40
0.0344488189
1
U3
41
0.75
7
W0$0078740157
0
TEXT
8
PART_TYPE_BOT
10
-0.1437903675
20
-0.0080330971
40
0.0344488189
1
LFCSP24
41
0.75
7
W0$0078740157
0
TEXT
8
PART_INFO
10
-0.1437903675
20
-0.0572456955
40
0.0344488189
1
000000
71
2
41
0.75
7
W0$0078740157
0
TEXT
8
PART_PTS
10
-0.1437903675
20
-0.106458294
40
0.0344488189
1
1 2 3 4 5 6 8 9 10 11 12 13 14 15 16 19 20 21 22 23 24 
71
2
41
0.75
7
W0$0078740157
0
ENDBLK
0
BLOCK
2
PART_BOT_75
8
0
10
0
20
0
3
PART_BOT_75
70
64
0
INSERT
2
SYM_BOT_8
8
0
10
0
20
0
0
INSERT
2
PKG_6
8
0
10
0
20
0
41
-1
0
TEXT
8
LABEL_INFO
10
0.0715909186
20
0.0818750131
40
0.0385826772
1
0 0 0 0 0 1
41
0.75
7
W0$005
0
TEXT
8
LABEL_ATTRIBUTE
10
0.0715909186
20
0.0818750131
40
0.0385826772
1
Ref.Des.
41
0.75
7
W0$005
0
TEXT
8
PART_NAME_29
10
0.0715909186
20
0.0818750131
40
0.0385826772
1
U4
41
0.75
7
W0$005
0
TEXT
8
LABEL_INFO
10
-0.1377952756
20
0.0511810761
40
0.0344488189
1
0 0 0 0 0 1
41
0.75
7
W0$0078740157
0
TEXT
8
LABEL_ATTRIBUTE
10
-0.1377952756
20
0.0511810761
40
0.0344488189
1
Ref.Des.
41
0.75
7
W0$0078740157
0
TEXT
8
PART_NAME_04
10
-0.1377952756
20
0.0511810761
40
0.0344488189
1
U4
41
0.75
7
W0$0078740157
0
TEXT
8
PART_TYPE_BOT
10
-0.1377952756
20
0.0019684777
40
0.0344488189
1
LFCSP24
41
0.75
7
W0$0078740157
0
TEXT
8
PART_INFO
10
-0.1377952756
20
-0.0472441207
40
0.0344488189
1
000000
71
2
41
0.75
7
W0$0078740157
0
TEXT
8
PART_PTS
10
-0.1377952756
20
-0.0964567192
40
0.0344488189
1
1 2 3 4 5 6 8 9 10 11 12 13 14 15 16 19 20 21 22 23 24 
71
2
41
0.75
7
W0$0078740157
0
ENDBLK
0
BLOCK
2
PART_BOT_76
8
0
10
0
20
0
3
PART_BOT_76
70
64
0
INSERT
2
SYM_BOT_8
8
0
10
0
20
0
0
INSERT
2
PKG_6
8
0
10
0
20
0
41
-1
0
TEXT
8
LABEL_INFO
10
0.0715909186
20
0.0818750131
40
0.0385826772
1
0 0 0 0 0 1
41
0.75
7
W0$005
0
TEXT
8
LABEL_ATTRIBUTE
10
0.0715909186
20
0.0818750131
40
0.0385826772
1
Ref.Des.
41
0.75
7
W0$005
0
TEXT
8
PART_NAME_29
10
0.0715909186
20
0.0818750131
40
0.0385826772
1
U5
41
0.75
7
W0$005
0
TEXT
8
LABEL_INFO
10
-0.1456692913
20
0.0354330446
40
0.0344488189
1
0 0 0 0 0 1
41
0.75
7
W0$0078740157
0
TEXT
8
LABEL_ATTRIBUTE
10
-0.1456692913
20
0.0354330446
40
0.0344488189
1
Ref.Des.
41
0.75
7
W0$0078740157
0
TEXT
8
PART_NAME_04
10
-0.1456692913
20
0.0354330446
40
0.0344488189
1
U5
41
0.75
7
W0$0078740157
0
TEXT
8
PART_TYPE_BOT
10
-0.1456692913
20
-0.0137795538
40
0.0344488189
1
LFCSP24
41
0.75
7
W0$0078740157
0
TEXT
8
PART_INFO
10
-0.1456692913
20
-0.0629921522
40
0.0344488189
1
000000
71
2
41
0.75
7
W0$0078740157
0
TEXT
8
PART_PTS
10
-0.1456692913
20
-0.1122047507
40
0.0344488189
1
1 2 3 4 5 6 8 9 10 11 12 13 14 15 16 19 20 21 22 23 24 
71
2
41
0.75
7
W0$0078740157
0
ENDBLK
0
BLOCK
2
PART_BOT_77
8
0
10
0
20
0
3
PART_BOT_77
70
64
0
INSERT
2
SYM_BOT_12
8
0
10
0
20
0
0
INSERT
2
PKG_7
8
0
10
0
20
0
41
-1
0
TEXT
8
LABEL_INFO
10
-0.031496063
20
-0.0039370079
40
0.042
1
0 0 0 2 0 1
73
2
11
-0.031496063
21
-0.0039370079
41
0.75
7
W0$008
0
TEXT
8
LABEL_ATTRIBUTE
10
-0.031496063
20
-0.0039370079
40
0.042
1
PartType
73
2
11
-0.031496063
21
-0.0039370079
41
0.75
7
W0$008
0
TEXT
8
PART_TYPE_04
10
-0.031496063
20
-0.0039370079
40
0.042
1
MICROPAK
73
3
11
-0.031496063
21
-0.0039370079
41
0.75
7
W0$008
0
TEXT
8
LABEL_INFO
10
0.0404274278
20
0.0600894751
40
0.0344488189
1
0 486000000 0 0 0 1
50
270
41
0.75
7
W0$0078740157
0
TEXT
8
LABEL_ATTRIBUTE
10
0.0404274278
20
0.0600894751
40
0.0344488189
1
Ref.Des.
50
270
41
0.75
7
W0$0078740157
0
TEXT
8
PART_NAME_04
10
0.0404274278
20
0.0600894751
40
0.0344488189
1
U1
50
270
41
0.75
7
W0$0078740157
0
TEXT
8
PART_INFO
10
0.0404274278
20
0.0108768766
40
0.0344488189
1
000001
71
2
50
270
41
0.75
7
W0$0078740157
0
TEXT
8
PART_PTS
10
0.0404274278
20
-0.0383357218
40
0.0344488189
1
1 2 3 4 5 6 7 8 
71
2
50
270
41
0.75
7
W0$0078740157
0
ENDBLK
0
BLOCK
2
PART_TOP_78
8
0
10
0
20
0
3
PART_TOP_78
70
64
0
INSERT
2
SYM_TOP_14
8
0
10
0
20
0
0
INSERT
2
PKG_8
8
0
10
0
20
0
0
TEXT
8
LABEL_INFO
10
-0.0236220472
20
-0.0137795276
40
0.0413385827
1
1 0 0 1 0 1
73
1
11
-0.0236220472
21
-0.0137795276
41
0.75
7
W0$0059055118
0
TEXT
8
LABEL_ATTRIBUTE
10
-0.0236220472
20
-0.0137795276
40
0.0413385827
1
Ref.Des.
73
1
11
-0.0236220472
21
-0.0137795276
41
0.75
7
W0$0059055118
0
TEXT
8
PART_NAME_01
10
-0.0236220472
20
-0.0137795276
40
0.0413385827
1
P16
73
2
11
-0.0236220472
21
-0.0137795276
41
0.75
7
W0$0059055118
0
TEXT
8
LABEL_INFO
10
0.0401574803
20
0.0448818898
40
0.0413385827
1
1 0 0 1 0 1
73
1
11
0.0401574803
21
0.0448818898
41
0.75
7
W0$0059055118
0
TEXT
8
LABEL_ATTRIBUTE
10
0.0401574803
20
0.0448818898
40
0.0413385827
1
PartType
73
1
11
0.0401574803
21
0.0448818898
41
0.75
7
W0$0059055118
0
TEXT
8
PART_TYPE_01
10
0.0401574803
20
0.0448818898
40
0.0413385827
1
PADT
73
2
11
0.0401574803
21
0.0448818898
41
0.75
7
W0$0059055118
0
TEXT
8
PART_INFO
10
0.0401574803
20
-0.0141732283
40
0.0413385827
1
000000
73
2
11
0.0401574803
21
-0.0141732283
41
0.75
7
W0$0059055118
0
TEXT
8
PART_PTS
10
0.0401574803
20
-0.0732283465
40
0.0413385827
1
1 
73
2
11
0.0401574803
21
-0.0732283465
41
0.75
7
W0$0059055118
0
ENDBLK
0
BLOCK
2
PART_TOP_79
8
0
10
0
20
0
3
PART_TOP_79
70
64
0
INSERT
2
SYM_TOP_14
8
0
10
0
20
0
0
INSERT
2
PKG_8
8
0
10
0
20
0
0
TEXT
8
LABEL_INFO
10
-0.0374015748
20
0
40
0.0413385827
1
1 0 0 1 0 1
73
1
11
-0.0374015748
21
0
41
0.75
7
W0$0059055118
0
TEXT
8
LABEL_ATTRIBUTE
10
-0.0374015748
20
0
40
0.0413385827
1
Ref.Des.
73
1
11
-0.0374015748
21
0
41
0.75
7
W0$0059055118
0
TEXT
8
PART_NAME_01
10
-0.0374015748
20
0
40
0.0413385827
1
P23
73
2
11
-0.0374015748
21
0
41
0.75
7
W0$0059055118
0
TEXT
8
LABEL_INFO
10
0.0401574803
20
0.0448818898
40
0.0413385827
1
1 0 0 1 0 1
73
1
11
0.0401574803
21
0.0448818898
41
0.75
7
W0$0059055118
0
TEXT
8
LABEL_ATTRIBUTE
10
0.0401574803
20
0.0448818898
40
0.0413385827
1
PartType
73
1
11
0.0401574803
21
0.0448818898
41
0.75
7
W0$0059055118
0
TEXT
8
PART_TYPE_01
10
0.0401574803
20
0.0448818898
40
0.0413385827
1
PADT
73
2
11
0.0401574803
21
0.0448818898
41
0.75
7
W0$0059055118
0
TEXT
8
PART_INFO
10
0.0401574803
20
-0.0141732283
40
0.0413385827
1
000000
73
2
11
0.0401574803
21
-0.0141732283
41
0.75
7
W0$0059055118
0
TEXT
8
PART_PTS
10
0.0401574803
20
-0.0732283465
40
0.0413385827
1
1 
73
2
11
0.0401574803
21
-0.0732283465
41
0.75
7
W0$0059055118
0
ENDBLK
0
BLOCK
2
PART_TOP_80
8
0
10
0
20
0
3
PART_TOP_80
70
64
0
INSERT
2
SYM_TOP_14
8
0
10
0
20
0
0
INSERT
2
PKG_8
8
0
10
0
20
0
0
TEXT
8
LABEL_INFO
10
-0.0374015748
20
-0.0078740157
40
0.0413385827
1
1 0 0 1 0 1
73
1
11
-0.0374015748
21
-0.0078740157
41
0.75
7
W0$0059055118
0
TEXT
8
LABEL_ATTRIBUTE
10
-0.0374015748
20
-0.0078740157
40
0.0413385827
1
Ref.Des.
73
1
11
-0.0374015748
21
-0.0078740157
41
0.75
7
W0$0059055118
0
TEXT
8
PART_NAME_01
10
-0.0374015748
20
-0.0078740157
40
0.0413385827
1
P47
73
2
11
-0.0374015748
21
-0.0078740157
41
0.75
7
W0$0059055118
0
TEXT
8
LABEL_INFO
10
0.0401574803
20
0.0448818898
40
0.0413385827
1
1 0 0 1 0 1
73
1
11
0.0401574803
21
0.0448818898
41
0.75
7
W0$0059055118
0
TEXT
8
LABEL_ATTRIBUTE
10
0.0401574803
20
0.0448818898
40
0.0413385827
1
PartType
73
1
11
0.0401574803
21
0.0448818898
41
0.75
7
W0$0059055118
0
TEXT
8
PART_TYPE_01
10
0.0401574803
20
0.0448818898
40
0.0413385827
1
PADT
73
2
11
0.0401574803
21
0.0448818898
41
0.75
7
W0$0059055118
0
TEXT
8
PART_INFO
10
0.0401574803
20
-0.0141732283
40
0.0413385827
1
000000
73
2
11
0.0401574803
21
-0.0141732283
41
0.75
7
W0$0059055118
0
TEXT
8
PART_PTS
10
0.0401574803
20
-0.0732283465
40
0.0413385827
1
1 
73
2
11
0.0401574803
21
-0.0732283465
41
0.75
7
W0$0059055118
0
ENDBLK
0
BLOCK
2
PART_TOP_81
8
0
10
0
20
0
3
PART_TOP_81
70
64
0
INSERT
2
SYM_TOP_14
8
0
10
0
20
0
0
INSERT
2
PKG_8
8
0
10
0
20
0
0
TEXT
8
LABEL_INFO
10
0.0440944882
20
-0.0173228346
40
0.0413385827
1
1 0 0 1 0 1
73
1
11
0.0440944882
21
-0.0173228346
41
0.75
7
W0$0059055118
0
TEXT
8
LABEL_ATTRIBUTE
10
0.0440944882
20
-0.0173228346
40
0.0413385827
1
Ref.Des.
73
1
11
0.0440944882
21
-0.0173228346
41
0.75
7
W0$0059055118
0
TEXT
8
PART_NAME_01
10
0.0440944882
20
-0.0173228346
40
0.0413385827
1
P48
73
2
11
0.0440944882
21
-0.0173228346
41
0.75
7
W0$0059055118
0
TEXT
8
LABEL_INFO
10
0.0401574803
20
0.0448818898
40
0.0413385827
1
1 0 0 1 0 1
73
1
11
0.0401574803
21
0.0448818898
41
0.75
7
W0$0059055118
0
TEXT
8
LABEL_ATTRIBUTE
10
0.0401574803
20
0.0448818898
40
0.0413385827
1
PartType
73
1
11
0.0401574803
21
0.0448818898
41
0.75
7
W0$0059055118
0
TEXT
8
PART_TYPE_01
10
0.0401574803
20
0.0448818898
40
0.0413385827
1
PADT
73
2
11
0.0401574803
21
0.0448818898
41
0.75
7
W0$0059055118
0
TEXT
8
PART_INFO
10
0.0401574803
20
-0.0141732283
40
0.0413385827
1
000000
73
2
11
0.0401574803
21
-0.0141732283
41
0.75
7
W0$0059055118
0
TEXT
8
PART_PTS
10
0.0401574803
20
-0.0732283465
40
0.0413385827
1
1 
73
2
11
0.0401574803
21
-0.0732283465
41
0.75
7
W0$0059055118
0
ENDBLK
0
BLOCK
2
PART_TOP_82
8
0
10
0
20
0
3
PART_TOP_82
70
64
0
INSERT
2
SYM_TOP_15
8
0
10
0
20
0
0
INSERT
2
PKG_9
8
0
10
0
20
0
0
TEXT
8
LABEL_INFO
10
-0.062992126
20
0.125984252
40
0.035
1
0 0 0 2 0 1
73
2
11
-0.062992126
21
0.125984252
41
0.75
7
W0$005
0
TEXT
8
LABEL_ATTRIBUTE
10
-0.062992126
20
0.125984252
40
0.035
1
PartType
73
2
11
-0.062992126
21
0.125984252
41
0.75
7
W0$005
0
TEXT
8
PART_TYPE_01
10
-0.062992126
20
0.125984252
40
0.035
1
HOLE3
73
3
11
-0.062992126
21
0.125984252
41
0.75
7
W0$005
0
TEXT
8
PART_NAME_TOP
10
0
20
0
40
0.07
1
H1
73
3
11
0
21
0
41
0.75
7
W0$01
0
TEXT
8
PART_INFO
10
0
20
-0.1
40
0.07
1
000000
73
3
11
0
21
-0.1
41
0.75
7
W0$01
0
ENDBLK
0
BLOCK
2
PART_TOP_83
8
0
10
0
20
0
3
PART_TOP_83
70
64
0
INSERT
2
SYM_TOP_15
8
0
10
0
20
0
0
INSERT
2
PKG_9
8
0
10
0
20
0
0
TEXT
8
LABEL_INFO
10
-0.062992126
20
0.125984252
40
0.035
1
0 0 0 2 0 1
73
2
11
-0.062992126
21
0.125984252
41
0.75
7
W0$005
0
TEXT
8
LABEL_ATTRIBUTE
10
-0.062992126
20
0.125984252
40
0.035
1
PartType
73
2
11
-0.062992126
21
0.125984252
41
0.75
7
W0$005
0
TEXT
8
PART_TYPE_01
10
-0.062992126
20
0.125984252
40
0.035
1
HOLE3
73
3
11
-0.062992126
21
0.125984252
41
0.75
7
W0$005
0
TEXT
8
PART_NAME_TOP
10
0
20
0
40
0.07
1
H2
73
3
11
0
21
0
41
0.75
7
W0$01
0
TEXT
8
PART_INFO
10
0
20
-0.1
40
0.07
1
000000
73
3
11
0
21
-0.1
41
0.75
7
W0$01
0
ENDBLK
0
BLOCK
2
PART_TOP_84
8
0
10
0
20
0
3
PART_TOP_84
70
64
0
INSERT
2
SYM_TOP_15
8
0
10
0
20
0
0
INSERT
2
PKG_9
8
0
10
0
20
0
0
TEXT
8
LABEL_INFO
10
-0.062992126
20
0.125984252
40
0.035
1
0 0 0 2 0 1
73
2
11
-0.062992126
21
0.125984252
41
0.75
7
W0$005
0
TEXT
8
LABEL_ATTRIBUTE
10
-0.062992126
20
0.125984252
40
0.035
1
PartType
73
2
11
-0.062992126
21
0.125984252
41
0.75
7
W0$005
0
TEXT
8
PART_TYPE_01
10
-0.062992126
20
0.125984252
40
0.035
1
HOLE3
73
3
11
-0.062992126
21
0.125984252
41
0.75
7
W0$005
0
TEXT
8
PART_NAME_TOP
10
0
20
0
40
0.07
1
H3
73
3
11
0
21
0
41
0.75
7
W0$01
0
TEXT
8
PART_INFO
10
0
20
-0.1
40
0.07
1
000000
73
3
11
0
21
-0.1
41
0.75
7
W0$01
0
ENDBLK
0
BLOCK
2
PART_BOT_85
8
0
10
0
20
0
3
PART_BOT_85
70
64
0
INSERT
2
SYM_BOT_16
8
0
10
0
20
0
0
INSERT
2
PKG_10
8
0
10
0
20
0
41
-1
0
TEXT
8
LABEL_INFO
10
-0.0413385827
20
-0.154488189
40
0.042
1
0 0 0 0 0 1
41
0.75
7
W0$008
0
TEXT
8
LABEL_ATTRIBUTE
10
-0.0413385827
20
-0.154488189
40
0.042
1
PartType
41
0.75
7
W0$008
0
TEXT
8
PART_TYPE_04
10
-0.0413385827
20
-0.154488189
40
0.042
1
SOLDERLAND_4
41
0.75
7
W0$008
0
TEXT
8
LABEL_INFO
10
-0.0184340682
20
-0.0436770866
40
0.0344488189
1
0 482857200 0 0 0 1
50
268.254
41
0.75
7
W0$0078740157
0
TEXT
8
LABEL_ATTRIBUTE
10
-0.0184340682
20
-0.0436770866
40
0.0344488189
1
Ref.Des.
50
268.254
41
0.75
7
W0$0078740157
0
TEXT
8
PART_NAME_04
10
-0.0184340682
20
-0.0436770866
40
0.0344488189
1
J1
50
268.254
41
0.75
7
W0$0078740157
0
TEXT
8
PART_INFO
10
-0.0184340682
20
-0.092889685
40
0.0344488189
1
000000
71
2
50
268.254
41
0.75
7
W0$0078740157
0
TEXT
8
PART_PTS
10
-0.0184340682
20
-0.1421022835
40
0.0344488189
1
1 2 3 4 
71
2
50
268.254
41
0.75
7
W0$0078740157
0
ENDBLK
0
BLOCK
2
PART_BOT_86
8
0
10
0
20
0
3
PART_BOT_86
70
64
0
INSERT
2
SYM_BOT_2
8
0
10
0
20
0
0
INSERT
2
PKG_0
8
0
10
0
20
0
41
-1
0
TEXT
8
LABEL_INFO
10
-0.0834810236
20
0.0060774803
40
0.0344488189
1
0 0 0 0 0 1
41
0.75
7
W0$0078740157
0
TEXT
8
LABEL_ATTRIBUTE
10
-0.0834810236
20
0.0060774803
40
0.0344488189
1
Ref.Des.
41
0.75
7
W0$0078740157
0
TEXT
8
PART_NAME_04
10
-0.0834810236
20
0.0060774803
40
0.0344488189
1
R4
41
0.75
7
W0$0078740157
0
TEXT
8
LABEL_INFO
10
-0.07
20
0.14
40
0.07
1
0 0 0 2 0 1
73
2
11
-0.07
21
0.14
41
0.75
7
W0$01
0
TEXT
8
LABEL_ATTRIBUTE
10
-0.07
20
0.14
40
0.07
1
PartType
73
2
11
-0.07
21
0.14
41
0.75
7
W0$01
0
TEXT
8
PART_TYPE_04
10
-0.07
20
0.14
40
0.07
1
0402
73
3
11
-0.07
21
0.14
41
0.75
7
W0$01
0
TEXT
8
PART_INFO
10
-0.07
20
0.04
40
0.07
1
000000
71
2
73
3
11
-0.07
21
0.04
41
0.75
7
W0$01
0
TEXT
8
PART_PTS
10
-0.07
20
-0.06
40
0.07
1
1 2 
71
2
73
3
11
-0.07
21
-0.06
41
0.75
7
W0$01
0
ENDBLK
0
BLOCK
2
PART_BOT_87
8
0
10
0
20
0
3
PART_BOT_87
70
64
0
INSERT
2
SYM_BOT_2
8
0
10
0
20
0
0
INSERT
2
PKG_0
8
0
10
0
20
0
41
-1
0
TEXT
8
LABEL_INFO
10
-0.0836923622
20
-0.0160832021
40
0.0344488189
1
0 0 0 0 0 1
41
0.75
7
W0$0078740157
0
TEXT
8
LABEL_ATTRIBUTE
10
-0.0836923622
20
-0.0160832021
40
0.0344488189
1
Ref.Des.
41
0.75
7
W0$0078740157
0
TEXT
8
PART_NAME_04
10
-0.0836923622
20
-0.0160832021
40
0.0344488189
1
R5
41
0.75
7
W0$0078740157
0
TEXT
8
LABEL_INFO
10
-0.07
20
0.14
40
0.07
1
0 0 0 2 0 1
73
2
11
-0.07
21
0.14
41
0.75
7
W0$01
0
TEXT
8
LABEL_ATTRIBUTE
10
-0.07
20
0.14
40
0.07
1
PartType
73
2
11
-0.07
21
0.14
41
0.75
7
W0$01
0
TEXT
8
PART_TYPE_04
10
-0.07
20
0.14
40
0.07
1
0402
73
3
11
-0.07
21
0.14
41
0.75
7
W0$01
0
TEXT
8
PART_INFO
10
-0.07
20
0.04
40
0.07
1
000000
71
2
73
3
11
-0.07
21
0.04
41
0.75
7
W0$01
0
TEXT
8
PART_PTS
10
-0.07
20
-0.06
40
0.07
1
1 2 
71
2
73
3
11
-0.07
21
-0.06
41
0.75
7
W0$01
0
ENDBLK
0
BLOCK
2
PART_BOT_88
8
0
10
0
20
0
3
PART_BOT_88
70
64
0
INSERT
2
SYM_BOT_2
8
0
10
0
20
0
0
INSERT
2
PKG_0
8
0
10
0
20
0
41
-1
0
TEXT
8
LABEL_INFO
10
-0.0275590551
20
0.0177165092
40
0.0344488189
1
0 0 0 0 0 1
41
0.75
7
W0$0078740157
0
TEXT
8
LABEL_ATTRIBUTE
10
-0.0275590551
20
0.0177165092
40
0.0344488189
1
Ref.Des.
41
0.75
7
W0$0078740157
0
TEXT
8
PART_NAME_04
10
-0.0275590551
20
0.0177165092
40
0.0344488189
1
C19
41
0.75
7
W0$0078740157
0
TEXT
8
LABEL_INFO
10
-0.07
20
0.14
40
0.07
1
0 0 0 2 0 1
73
2
11
-0.07
21
0.14
41
0.75
7
W0$01
0
TEXT
8
LABEL_ATTRIBUTE
10
-0.07
20
0.14
40
0.07
1
PartType
73
2
11
-0.07
21
0.14
41
0.75
7
W0$01
0
TEXT
8
PART_TYPE_04
10
-0.07
20
0.14
40
0.07
1
0402
73
3
11
-0.07
21
0.14
41
0.75
7
W0$01
0
TEXT
8
PART_INFO
10
-0.07
20
0.04
40
0.07
1
000000
71
2
73
3
11
-0.07
21
0.04
41
0.75
7
W0$01
0
TEXT
8
PART_PTS
10
-0.07
20
-0.06
40
0.07
1
1 2 
71
2
73
3
11
-0.07
21
-0.06
41
0.75
7
W0$01
0
ENDBLK
0
BLOCK
2
PART_BOT_89
8
0
10
0
20
0
3
PART_BOT_89
70
64
0
INSERT
2
SYM_BOT_2
8
0
10
0
20
0
0
INSERT
2
PKG_0
8
0
10
0
20
0
41
-1
0
TEXT
8
LABEL_INFO
10
-0.0334645669
20
0.0236220472
40
0.0344488189
1
0 0 0 0 0 1
41
0.75
7
W0$0078740157
0
TEXT
8
LABEL_ATTRIBUTE
10
-0.0334645669
20
0.0236220472
40
0.0344488189
1
Ref.Des.
41
0.75
7
W0$0078740157
0
TEXT
8
PART_NAME_04
10
-0.0334645669
20
0.0236220472
40
0.0344488189
1
C20
41
0.75
7
W0$0078740157
0
TEXT
8
LABEL_INFO
10
-0.07
20
0.14
40
0.07
1
0 0 0 2 0 1
73
2
11
-0.07
21
0.14
41
0.75
7
W0$01
0
TEXT
8
LABEL_ATTRIBUTE
10
-0.07
20
0.14
40
0.07
1
PartType
73
2
11
-0.07
21
0.14
41
0.75
7
W0$01
0
TEXT
8
PART_TYPE_04
10
-0.07
20
0.14
40
0.07
1
0402
73
3
11
-0.07
21
0.14
41
0.75
7
W0$01
0
TEXT
8
PART_INFO
10
-0.07
20
0.04
40
0.07
1
000000
71
2
73
3
11
-0.07
21
0.04
41
0.75
7
W0$01
0
TEXT
8
PART_PTS
10
-0.07
20
-0.06
40
0.07
1
1 2 
71
2
73
3
11
-0.07
21
-0.06
41
0.75
7
W0$01
0
ENDBLK
0
BLOCK
2
SYM_BOT_2
8
0
10
0
20
0
3
SYM_BOT_2
70
64
0
TEXT
8
SYM_NAME
10
0
20
0
40
0.07
1
0402
41
0.75
0
TEXT
8
SYM_PART_TYPE_01
10
-0.07
20
0.14
40
0.07
1
 
73
2
11
-0.07
21
0.14
41
0.75
7
W0$01R0
0
TEXT
8
SYM_PART_NAME_01
10
-0.07
20
0.14
40
0.07
1
 
41
0.75
7
W0$01R0
0
INSERT
2
PART_BODY_BOT_99
8
0
10
0
20
0
0
INSERT
2
STK_BOT_3
8
0
10
-0.0196850394
20
0
0
TEXT
8
SYM_TERMINAL
10
0
20
-0.12
40
0.07
1
1
0
INSERT
2
STK_BOT_3
8
0
10
0.0196850394
20
0
0
TEXT
8
SYM_TERMINAL
10
0
20
-0.24
40
0.07
1
2
0
ENDBLK
0
BLOCK
2
PKG_0
8
0
10
0
20
0
3
PKG_0
70
64
0
TEXT
8
PKG_INFO
10
0
20
0
40
0.07
1
*SYM:= 2
0
TEXT
8
PKG_INFO
10
0
20
-0.12
40
0.07
1
*PKG:= 0 0402 RES
0
ENDBLK
0
BLOCK
2
SYM_BOT_3
8
0
10
0
20
0
3
SYM_BOT_3
70
64
0
TEXT
8
SYM_NAME
10
0
20
0
40
0.07
1
0603
41
0.75
0
TEXT
8
SYM_PART_NAME_01
10
0.029
20
0.018
40
0.042
1
 
41
0.75
7
W0$008R0
0
TEXT
8
SYM_PART_TYPE_01
10
0.029
20
-0.042
40
0.042
1
 
41
0.75
7
W0$008R0
0
INSERT
2
PART_BODY_BOT_100
8
0
10
0
20
0
0
INSERT
2
STK_BOT_4
8
0
10
0
20
-0.024
0
TEXT
8
SYM_TERMINAL
10
0
20
-0.12
40
0.07
1
1
0
INSERT
2
STK_BOT_4
8
0
10
0
20
0.024
0
TEXT
8
SYM_TERMINAL
10
0
20
-0.24
40
0.07
1
2
0
ENDBLK
0
BLOCK
2
PKG_1
8
0
10
0
20
0
3
PKG_1
70
64
0
TEXT
8
PKG_INFO
10
0
20
0
40
0.07
1
*SYM:= 3
0
TEXT
8
PKG_INFO
10
0
20
-0.12
40
0.07
1
*PKG:= 0 0603 GEN
0
ENDBLK
0
BLOCK
2
SYM_TOP_11
8
0
10
0
20
0
3
SYM_TOP_11
70
64
0
TEXT
8
SYM_NAME
10
0
20
0
40
0.07
1
PADCIRC4MM
41
0.75
0
TEXT
8
SYM_PART_TYPE_01
10
-0.05
20
0.04
40
0.0413385827
1
 
73
1
11
-0.05
21
0.04
41
0.75
7
W0$0059055118R1
0
TEXT
8
SYM_PART_NAME_01
10
-0.05
20
-0.01
40
0.0344488189
1
 
73
1
11
-0.05
21
-0.01
41
0.75
7
W0$0059055118R1
0
INSERT
2
PART_BODY_TOP_110
8
0
10
0
20
0
0
INSERT
2
STK_TOP_57
8
0
10
0
20
0
0
TEXT
8
SYM_TERMINAL
10
0
20
-0.12
40
0.07
1
1
0
ENDBLK
0
BLOCK
2
PKG_2
8
0
10
0
20
0
3
PKG_2
70
64
0
TEXT
8
PKG_INFO
10
0
20
0
40
0.07
1
*SYM:= 4 10 11
0
TEXT
8
PKG_INFO
10
0
20
-0.12
40
0.07
1
*PKG:= 0 PADHOLE UND
0
TEXT
8
PKG_INFO
10
0
20
-0.24
40
0.07
1
*GATE:=0
0
TEXT
8
PKG_INFO
10
0
20
-0.36
40
0.07
1
*GATEPIN:= 0 9 1 <>
0
ENDBLK
0
BLOCK
2
SYM_BOT_5
8
0
10
0
20
0
3
SYM_BOT_5
70
64
0
TEXT
8
SYM_NAME
10
0
20
0
40
0.07
1
TP-ATE-LS
41
0.75
0
TEXT
8
SYM_PART_NAME_01
10
0
20
0.0032812598
40
0.056
1
 
72
1
73
1
11
0
21
0.0032812598
41
0.75
7
W0$01R0
0
TEXT
8
SYM_PART_TYPE_01
10
0
20
0.0032812598
40
0.056
1
 
72
1
73
1
11
0
21
0.0032812598
41
0.75
7
W0$01R0
0
INSERT
2
PART_BODY_BOT_102
8
0
10
0
20
0
0
INSERT
2
STK_BOT_6
8
0
10
0
20
0
0
TEXT
8
SYM_TERMINAL
10
0
20
-0.12
40
0.07
1
1
0
ENDBLK
0
BLOCK
2
PKG_3
8
0
10
0
20
0
3
PKG_3
70
64
0
TEXT
8
PKG_INFO
10
0
20
0
40
0.07
1
*SYM:= 5
0
TEXT
8
PKG_INFO
10
0
20
-0.12
40
0.07
1
*PKG:= 0 TP-ATE-LS ANA
0
TEXT
8
PKG_INFO
10
0
20
-0.24
40
0.07
1
*GATE:=0
0
TEXT
8
PKG_INFO
10
0
20
-0.36
40
0.07
1
*GATEPIN:= 0 9 1 <>
0
TEXT
8
PKG_INFO
10
0
20
-0.48
40
0.07
1
*PINNM:=1
0
ENDBLK
0
BLOCK
2
SYM_BOT_6
8
0
10
0
20
0
3
SYM_BOT_6
70
64
0
TEXT
8
SYM_NAME
10
0
20
0
40
0.07
1
LGA3X3-16
41
0.75
0
TEXT
8
SYM_PART_NAME_01
10
-0.031496063
20
-0.0039370079
40
0.042
1
 
41
0.75
7
W0$008R0
0
TEXT
8
SYM_PART_TYPE_01
10
-0.031496063
20
-0.0039370079
40
0.042
1
 
73
2
11
-0.031496063
21
-0.0039370079
41
0.75
7
W0$008R0
0
INSERT
2
PART_BODY_BOT_103
8
0
10
0
20
0
0
INSERT
2
STK_BOT_10
8
0
10
-0.0482283465
20
0.0393700787
0
TEXT
8
SYM_TERMINAL
10
0
20
-0.12
40
0.07
1
1
0
INSERT
2
STK_BOT_10
8
0
10
-0.0482283465
20
0.0196850394
0
TEXT
8
SYM_TERMINAL
10
0
20
-0.24
40
0.07
1
2
0
INSERT
2
STK_BOT_10
8
0
10
-0.0482283465
20
0
0
TEXT
8
SYM_TERMINAL
10
0
20
-0.36
40
0.07
1
3
0
INSERT
2
STK_BOT_10
8
0
10
-0.0482283465
20
-0.0196850394
0
TEXT
8
SYM_TERMINAL
10
0
20
-0.48
40
0.07
1
4
0
INSERT
2
STK_BOT_10
8
0
10
-0.0482283465
20
-0.0393700787
0
TEXT
8
SYM_TERMINAL
10
0
20
-0.6
40
0.07
1
5
0
INSERT
2
STK_BOT_11
8
0
10
-0.0196850394
20
-0.0482283465
0
TEXT
8
SYM_TERMINAL
10
0
20
-0.72
40
0.07
1
6
0
INSERT
2
STK_BOT_11
8
0
10
0
20
-0.0482283465
0
TEXT
8
SYM_TERMINAL
10
0
20
-0.84
40
0.07
1
7
0
INSERT
2
STK_BOT_11
8
0
10
0.0196850394
20
-0.0482283465
0
TEXT
8
SYM_TERMINAL
10
0
20
-0.96
40
0.07
1
8
0
INSERT
2
STK_BOT_10
8
0
10
0.0482283465
20
-0.0393700787
0
TEXT
8
SYM_TERMINAL
10
0
20
-1.08
40
0.07
1
9
0
INSERT
2
STK_BOT_10
8
0
10
0.0482283465
20
-0.0196850394
0
TEXT
8
SYM_TERMINAL
10
0
20
-1.2
40
0.07
1
10
0
INSERT
2
STK_BOT_10
8
0
10
0.0482283465
20
0
0
TEXT
8
SYM_TERMINAL
10
0
20
-1.32
40
0.07
1
11
0
INSERT
2
STK_BOT_10
8
0
10
0.0482283465
20
0.0196850394
0
TEXT
8
SYM_TERMINAL
10
0
20
-1.44
40
0.07
1
12
0
INSERT
2
STK_BOT_10
8
0
10
0.0482283465
20
0.0393700787
0
TEXT
8
SYM_TERMINAL
10
0
20
-1.56
40
0.07
1
13
0
INSERT
2
STK_BOT_11
8
0
10
0.0196850394
20
0.0482283465
0
TEXT
8
SYM_TERMINAL
10
0
20
-1.68
40
0.07
1
14
0
INSERT
2
STK_BOT_11
8
0
10
0
20
0.0482283465
0
TEXT
8
SYM_TERMINAL
10
0
20
-1.8
40
0.07
1
15
0
INSERT
2
STK_BOT_11
8
0
10
-0.0196850394
20
0.0482283465
0
TEXT
8
SYM_TERMINAL
10
0
20
-1.92
40
0.07
1
16
0
ENDBLK
0
BLOCK
2
PKG_4
8
0
10
0
20
0
3
PKG_4
70
64
0
TEXT
8
PKG_INFO
10
0
20
0
40
0.07
1
*SYM:= 6
0
TEXT
8
PKG_INFO
10
0
20
-0.12
40
0.07
1
*PKG:= 0 LGA3X3-16 UND
0
TEXT
8
PKG_INFO
10
0
20
-0.24
40
0.07
1
*GATE:=0
0
TEXT
8
PKG_INFO
10
0
20
-0.36
40
0.07
1
*GATEPIN:= 0 9 6 <>
0
TEXT
8
PKG_INFO
10
0
20
-0.48
40
0.07
1
*GATEPIN:= 0 9 7 <>
0
TEXT
8
PKG_INFO
10
0
20
-0.6
40
0.07
1
*GATEPIN:= 0 9 8 <>
0
TEXT
8
PKG_INFO
10
0
20
-0.72
40
0.07
1
*GATEPIN:= 0 9 9 <>
0
TEXT
8
PKG_INFO
10
0
20
-0.84
40
0.07
1
*GATEPIN:= 0 9 10 <>
0
TEXT
8
PKG_INFO
10
0
20
-0.96
40
0.07
1
*GATEPIN:= 0 9 11 <>
0
TEXT
8
PKG_INFO
10
0
20
-1.08
40
0.07
1
*GATEPIN:= 0 9 12 <>
0
TEXT
8
PKG_INFO
10
0
20
-1.2
40
0.07
1
*GATEPIN:= 0 9 13 <>
0
TEXT
8
PKG_INFO
10
0
20
-1.32
40
0.07
1
*GATEPIN:= 0 9 14 <>
0
TEXT
8
PKG_INFO
10
0
20
-1.44
40
0.07
1
*GATEPIN:= 0 9 15 <>
0
TEXT
8
PKG_INFO
10
0
20
-1.56
40
0.07
1
*GATEPIN:= 0 9 16 <>
0
TEXT
8
PKG_INFO
10
0
20
-1.68
40
0.07
1
*GATEPIN:= 0 9 1 <>
0
TEXT
8
PKG_INFO
10
0
20
-1.8
40
0.07
1
*GATEPIN:= 0 9 2 <>
0
TEXT
8
PKG_INFO
10
0
20
-1.92
40
0.07
1
*GATEPIN:= 0 9 3 <>
0
TEXT
8
PKG_INFO
10
0
20
-2.04
40
0.07
1
*GATEPIN:= 0 9 4 <>
0
TEXT
8
PKG_INFO
10
0
20
-2.16
40
0.07
1
*GATEPIN:= 0 9 5 <>
0
ENDBLK
0
BLOCK
2
SYM_BOT_7
8
0
10
0
20
0
3
SYM_BOT_7
70
64
0
TEXT
8
SYM_NAME
10
0
20
0
40
0.07
1
LGA4X4-16
41
0.75
0
TEXT
8
SYM_PART_NAME_01
10
-0.0472440945
20
0.0078740157
40
0.042
1
 
41
0.75
7
W0$008R0
0
TEXT
8
SYM_PART_TYPE_01
10
-0.0472440945
20
0.0078740157
40
0.042
1
 
73
2
11
-0.0472440945
21
0.0078740157
41
0.75
7
W0$008R0
0
INSERT
2
PART_BODY_BOT_104
8
0
10
0
20
0
0
INSERT
2
STK_BOT_13
8
0
10
-0.0669291339
20
0.0383858268
0
TEXT
8
SYM_TERMINAL
10
0
20
-0.12
40
0.07
1
1
0
INSERT
2
STK_BOT_13
8
0
10
-0.0669291339
20
0.0127952756
0
TEXT
8
SYM_TERMINAL
10
0
20
-0.24
40
0.07
1
2
0
INSERT
2
STK_BOT_13
8
0
10
-0.0669291339
20
-0.0127952756
0
TEXT
8
SYM_TERMINAL
10
0
20
-0.36
40
0.07
1
3
0
INSERT
2
STK_BOT_13
8
0
10
-0.0669291339
20
-0.0383858268
0
TEXT
8
SYM_TERMINAL
10
0
20
-0.48
40
0.07
1
4
0
INSERT
2
STK_BOT_12
8
0
10
-0.0383858268
20
-0.0669291339
0
TEXT
8
SYM_TERMINAL
10
0
20
-0.6
40
0.07
1
5
0
INSERT
2
STK_BOT_12
8
0
10
-0.0127952756
20
-0.0669291339
0
TEXT
8
SYM_TERMINAL
10
0
20
-0.72
40
0.07
1
6
0
INSERT
2
STK_BOT_12
8
0
10
0.0127952756
20
-0.0669291339
0
TEXT
8
SYM_TERMINAL
10
0
20
-0.84
40
0.07
1
7
0
INSERT
2
STK_BOT_12
8
0
10
0.0383858268
20
-0.0669291339
0
TEXT
8
SYM_TERMINAL
10
0
20
-0.96
40
0.07
1
8
0
INSERT
2
STK_BOT_13
8
0
10
0.0669291339
20
-0.0383858268
0
TEXT
8
SYM_TERMINAL
10
0
20
-1.08
40
0.07
1
9
0
INSERT
2
STK_BOT_13
8
0
10
0.0669291339
20
-0.0127952756
0
TEXT
8
SYM_TERMINAL
10
0
20
-1.2
40
0.07
1
10
0
INSERT
2
STK_BOT_13
8
0
10
0.0669291339
20
0.0127952756
0
TEXT
8
SYM_TERMINAL
10
0
20
-1.32
40
0.07
1
11
0
INSERT
2
STK_BOT_13
8
0
10
0.0669291339
20
0.0383858268
0
TEXT
8
SYM_TERMINAL
10
0
20
-1.44
40
0.07
1
12
0
INSERT
2
STK_BOT_12
8
0
10
0.0383858268
20
0.0669291339
0
TEXT
8
SYM_TERMINAL
10
0
20
-1.56
40
0.07
1
13
0
INSERT
2
STK_BOT_12
8
0
10
0.0127952756
20
0.0669291339
0
TEXT
8
SYM_TERMINAL
10
0
20
-1.68
40
0.07
1
14
0
INSERT
2
STK_BOT_12
8
0
10
-0.0127952756
20
0.0669291339
0
TEXT
8
SYM_TERMINAL
10
0
20
-1.8
40
0.07
1
15
0
INSERT
2
STK_BOT_12
8
0
10
-0.0383858268
20
0.0669291339
0
TEXT
8
SYM_TERMINAL
10
0
20
-1.92
40
0.07
1
16
0
ENDBLK
0
BLOCK
2
PKG_5
8
0
10
0
20
0
3
PKG_5
70
64
0
TEXT
8
PKG_INFO
10
0
20
0
40
0.07
1
*SYM:= 7
0
TEXT
8
PKG_INFO
10
0
20
-0.12
40
0.07
1
*PKG:= 0 LGA4X4-16 UND
0
TEXT
8
PKG_INFO
10
0
20
-0.24
40
0.07
1
*GATE:=0
0
TEXT
8
PKG_INFO
10
0
20
-0.36
40
0.07
1
*GATEPIN:= 0 9 5 <>
0
TEXT
8
PKG_INFO
10
0
20
-0.48
40
0.07
1
*GATEPIN:= 0 9 6 <>
0
TEXT
8
PKG_INFO
10
0
20
-0.6
40
0.07
1
*GATEPIN:= 0 9 7 <>
0
TEXT
8
PKG_INFO
10
0
20
-0.72
40
0.07
1
*GATEPIN:= 0 9 8 <>
0
TEXT
8
PKG_INFO
10
0
20
-0.84
40
0.07
1
*GATEPIN:= 0 9 9 <>
0
TEXT
8
PKG_INFO
10
0
20
-0.96
40
0.07
1
*GATEPIN:= 0 9 10 <>
0
TEXT
8
PKG_INFO
10
0
20
-1.08
40
0.07
1
*GATEPIN:= 0 9 11 <>
0
TEXT
8
PKG_INFO
10
0
20
-1.2
40
0.07
1
*GATEPIN:= 0 9 12 <>
0
TEXT
8
PKG_INFO
10
0
20
-1.32
40
0.07
1
*GATEPIN:= 0 9 13 <>
0
TEXT
8
PKG_INFO
10
0
20
-1.44
40
0.07
1
*GATEPIN:= 0 9 14 <>
0
TEXT
8
PKG_INFO
10
0
20
-1.56
40
0.07
1
*GATEPIN:= 0 9 15 <>
0
TEXT
8
PKG_INFO
10
0
20
-1.68
40
0.07
1
*GATEPIN:= 0 9 16 <>
0
TEXT
8
PKG_INFO
10
0
20
-1.8
40
0.07
1
*GATEPIN:= 0 9 1 <>
0
TEXT
8
PKG_INFO
10
0
20
-1.92
40
0.07
1
*GATEPIN:= 0 9 2 <>
0
TEXT
8
PKG_INFO
10
0
20
-2.04
40
0.07
1
*GATEPIN:= 0 9 3 <>
0
TEXT
8
PKG_INFO
10
0
20
-2.16
40
0.07
1
*GATEPIN:= 0 9 4 <>
0
ENDBLK
0
BLOCK
2
SYM_BOT_8
8
0
10
0
20
0
3
SYM_BOT_8
70
64
0
TEXT
8
SYM_NAME
10
0
20
0
40
0.07
1
LFCSP24
41
0.75
0
TEXT
8
SYM_PART_NAME_26
10
0.0715909186
20
0.0818750131
40
0.0385826772
1
 
41
0.75
7
W0$005R0
0
TEXT
8
SYM_PART_NAME_01
10
0.13
20
-0.14
40
0.035
1
 
41
0.75
7
W0$005R0
0
INSERT
2
PART_BODY_BOT_105
8
0
10
0
20
0
0
INSERT
2
STK_BOT_14
8
0
10
-0.0787401575
20
0.0492125984
0
TEXT
8
SYM_TERMINAL
10
0
20
-0.12
40
0.07
1
1
0
INSERT
2
STK_BOT_14
8
0
10
-0.0787401575
20
0.0295275591
0
TEXT
8
SYM_TERMINAL
10
0
20
-0.24
40
0.07
1
2
0
INSERT
2
STK_BOT_14
8
0
10
-0.0787401575
20
0.0098425197
0
TEXT
8
SYM_TERMINAL
10
0
20
-0.36
40
0.07
1
3
0
INSERT
2
STK_BOT_14
8
0
10
-0.0787401575
20
-0.0098425197
0
TEXT
8
SYM_TERMINAL
10
0
20
-0.48
40
0.07
1
4
0
INSERT
2
STK_BOT_14
8
0
10
-0.0787401575
20
-0.0295275591
0
TEXT
8
SYM_TERMINAL
10
0
20
-0.6
40
0.07
1
5
0
INSERT
2
STK_BOT_14
8
0
10
-0.0787401575
20
-0.0492125984
0
TEXT
8
SYM_TERMINAL
10
0
20
-0.72
40
0.07
1
6
0
INSERT
2
STK_BOT_15
8
0
10
-0.0492125984
20
-0.0787401575
0
TEXT
8
SYM_TERMINAL
10
0
20
-0.84
40
0.07
1
7
0
INSERT
2
STK_BOT_15
8
0
10
-0.0295275591
20
-0.0787401575
0
TEXT
8
SYM_TERMINAL
10
0
20
-0.96
40
0.07
1
8
0
INSERT
2
STK_BOT_15
8
0
10
-0.0098425197
20
-0.0787401575
0
TEXT
8
SYM_TERMINAL
10
0
20
-1.08
40
0.07
1
9
0
INSERT
2
STK_BOT_15
8
0
10
0.0098425197
20
-0.0787401575
0
TEXT
8
SYM_TERMINAL
10
0
20
-1.2
40
0.07
1
10
0
INSERT
2
STK_BOT_15
8
0
10
0.0295275591
20
-0.0787401575
0
TEXT
8
SYM_TERMINAL
10
0
20
-1.32
40
0.07
1
11
0
INSERT
2
STK_BOT_15
8
0
10
0.0492125984
20
-0.0787401575
0
TEXT
8
SYM_TERMINAL
10
0
20
-1.44
40
0.07
1
12
0
INSERT
2
STK_BOT_14
8
0
10
0.0787401575
20
-0.0492125984
0
TEXT
8
SYM_TERMINAL
10
0
20
-1.56
40
0.07
1
13
0
INSERT
2
STK_BOT_14
8
0
10
0.0787401575
20
-0.0295275591
0
TEXT
8
SYM_TERMINAL
10
0
20
-1.68
40
0.07
1
14
0
INSERT
2
STK_BOT_14
8
0
10
0.0787401575
20
-0.0098425197
0
TEXT
8
SYM_TERMINAL
10
0
20
-1.8
40
0.07
1
15
0
INSERT
2
STK_BOT_14
8
0
10
0.0787401575
20
0.0098425197
0
TEXT
8
SYM_TERMINAL
10
0
20
-1.92
40
0.07
1
16
0
INSERT
2
STK_BOT_14
8
0
10
0.0787401575
20
0.0295275591
0
TEXT
8
SYM_TERMINAL
10
0
20
-2.04
40
0.07
1
17
0
INSERT
2
STK_BOT_14
8
0
10
0.0787401575
20
0.0492125984
0
TEXT
8
SYM_TERMINAL
10
0
20
-2.16
40
0.07
1
18
0
INSERT
2
STK_BOT_15
8
0
10
0.0492125984
20
0.0787401575
0
TEXT
8
SYM_TERMINAL
10
0
20
-2.28
40
0.07
1
19
0
INSERT
2
STK_BOT_15
8
0
10
0.0295275591
20
0.0787401575
0
TEXT
8
SYM_TERMINAL
10
0
20
-2.4
40
0.07
1
20
0
INSERT
2
STK_BOT_15
8
0
10
0.0098425197
20
0.0787401575
0
TEXT
8
SYM_TERMINAL
10
0
20
-2.52
40
0.07
1
21
0
INSERT
2
STK_BOT_15
8
0
10
-0.0098425197
20
0.0787401575
0
TEXT
8
SYM_TERMINAL
10
0
20
-2.64
40
0.07
1
22
0
INSERT
2
STK_BOT_15
8
0
10
-0.0295275591
20
0.0787401575
0
TEXT
8
SYM_TERMINAL
10
0
20
-2.76
40
0.07
1
23
0
INSERT
2
STK_BOT_15
8
0
10
-0.0492125984
20
0.0787401575
0
TEXT
8
SYM_TERMINAL
10
0
20
-2.88
40
0.07
1
24
0
INSERT
2
STK_BOT_85
8
0
10
0
20
0
0
TEXT
8
SYM_TERMINAL
10
0
20
-3
40
0.07
1
25
0
ENDBLK
0
BLOCK
2
PKG_6
8
0
10
0
20
0
3
PKG_6
70
64
0
TEXT
8
PKG_INFO
10
0
20
0
40
0.07
1
*SYM:= 8
0
TEXT
8
PKG_INFO
10
0
20
-0.12
40
0.07
1
*PKG:= 0 LFCSP24 UND
0
ENDBLK
0
BLOCK
2
SYM_BOT_12
8
0
10
0
20
0
3
SYM_BOT_12
70
64
0
TEXT
8
SYM_NAME
10
0
20
0
40
0.07
1
MICROPAK8
41
0.75
0
TEXT
8
SYM_PART_NAME_01
10
-0.0551181102
20
0.0787401575
40
0.042
1
 
41
0.75
7
W0$008R0
0
TEXT
8
SYM_PART_TYPE_01
10
-0.031496063
20
-0.0039370079
40
0.042
1
 
73
2
11
-0.031496063
21
-0.0039370079
41
0.75
7
W0$008R0
0
INSERT
2
PART_BODY_BOT_111
8
0
10
0
20
0
0
INSERT
2
STK_BOT_33
8
0
10
0.0196850394
20
0.024015748
0
TEXT
8
SYM_TERMINAL
10
0
20
-0.12
40
0.07
1
1
0
INSERT
2
STK_BOT_33
8
0
10
0
20
0.024015748
0
TEXT
8
SYM_TERMINAL
10
0
20
-0.24
40
0.07
1
2
0
INSERT
2
STK_BOT_33
8
0
10
-0.0196850394
20
0.024015748
0
TEXT
8
SYM_TERMINAL
10
0
20
-0.36
40
0.07
1
3
0
INSERT
2
STK_BOT_34
8
0
10
-0.0226377953
20
0
0
TEXT
8
SYM_TERMINAL
10
0
20
-0.48
40
0.07
1
4
0
INSERT
2
STK_BOT_35
8
0
10
-0.0196850394
20
-0.024015748
0
TEXT
8
SYM_TERMINAL
10
0
20
-0.6
40
0.07
1
5
0
INSERT
2
STK_BOT_33
8
0
10
0
20
-0.024015748
0
TEXT
8
SYM_TERMINAL
10
0
20
-0.72
40
0.07
1
6
0
INSERT
2
STK_BOT_33
8
0
10
0.0196850394
20
-0.024015748
0
TEXT
8
SYM_TERMINAL
10
0
20
-0.84
40
0.07
1
7
0
INSERT
2
STK_BOT_36
8
0
10
0.0226377953
20
0
0
TEXT
8
SYM_TERMINAL
10
0
20
-0.96
40
0.07
1
8
0
ENDBLK
0
BLOCK
2
PKG_7
8
0
10
0
20
0
3
PKG_7
70
64
0
TEXT
8
PKG_INFO
10
0
20
0
40
0.07
1
*SYM:= 9 12 13
0
TEXT
8
PKG_INFO
10
0
20
-0.12
40
0.07
1
*PKG:= 0 MICROPAK UND
0
ENDBLK
0
BLOCK
2
SYM_TOP_14
8
0
10
0
20
0
3
SYM_TOP_14
70
64
0
TEXT
8
SYM_NAME
10
0
20
0
40
0.07
1
PADT
41
0.75
0
TEXT
8
SYM_PART_TYPE_01
10
0.0401574803
20
0.0448818898
40
0.0413385827
1
 
73
1
11
0.0401574803
21
0.0448818898
41
0.75
7
W0$0059055118R1
0
TEXT
8
SYM_PART_NAME_01
10
0.0440944882
20
-0.0173228346
40
0.0413385827
1
 
73
1
11
0.0440944882
21
-0.0173228346
41
0.75
7
W0$0059055118R1
0
INSERT
2
PART_BODY_TOP_114
8
0
10
0
20
0
0
INSERT
2
STK_TOP_120
8
0
10
0
20
0
0
TEXT
8
SYM_TERMINAL
10
0
20
-0.12
40
0.07
1
1
0
ENDBLK
0
BLOCK
2
PKG_8
8
0
10
0
20
0
3
PKG_8
70
64
0
TEXT
8
PKG_INFO
10
0
20
0
40
0.07
1
*SYM:= 14
0
TEXT
8
PKG_INFO
10
0
20
-0.12
40
0.07
1
*PKG:= 0 PADT UND
0
TEXT
8
PKG_INFO
10
0
20
-0.24
40
0.07
1
*GATE:=0
0
TEXT
8
PKG_INFO
10
0
20
-0.36
40
0.07
1
*GATEPIN:= 0 9 1 <>
0
ENDBLK
0
BLOCK
2
SYM_TOP_15
8
0
10
0
20
0
3
SYM_TOP_15
70
64
0
TEXT
8
SYM_NAME
10
0
20
0
40
0.07
1
HOLE3
41
0.75
0
TEXT
8
SYM_PART_TYPE_01
10
-0.062992126
20
0.125984252
40
0.035
1
 
73
2
11
-0.062992126
21
0.125984252
41
0.75
7
W0$005R0
0
TEXT
8
SYM_PART_NAME_01
10
-0.062992126
20
0.125984252
40
0.035
1
 
41
0.75
7
W0$005R0
0
INSERT
2
PART_BODY_TOP_115
8
0
10
0
20
0
0
INSERT
2
STK_TOP_144
8
0
10
0
20
0
0
TEXT
8
SYM_TERMINAL
10
0
20
-0.12
40
0.07
1
1
0
ENDBLK
0
BLOCK
2
PKG_9
8
0
10
0
20
0
3
PKG_9
70
64
0
TEXT
8
PKG_INFO
10
0
20
0
40
0.07
1
*SYM:= 15
0
TEXT
8
PKG_INFO
10
0
20
-0.12
40
0.07
1
*PKG:= 0 HOLE3 UND
0
TEXT
8
PKG_INFO
10
0
20
-0.24
40
0.07
1
*GATE:=0
0
ENDBLK
0
BLOCK
2
SYM_BOT_16
8
0
10
0
20
0
3
SYM_BOT_16
70
64
0
TEXT
8
SYM_NAME
10
0
20
0
40
0.07
1
SOLDERLAND_4
41
0.75
0
TEXT
8
SYM_PART_TYPE_01
10
0
20
0
40
0.035
1
 
73
2
11
0
21
0
41
0.75
7
W0$005R0
0
TEXT
8
SYM_PART_NAME_01
10
0
20
0
40
0.035
1
 
41
0.75
7
W0$005R0
0
INSERT
2
PART_BODY_BOT_116
8
0
10
0
20
0
0
INSERT
2
STK_BOT_131
8
0
10
0
20
0
0
TEXT
8
SYM_TERMINAL
10
0
20
-0.12
40
0.07
1
1
0
INSERT
2
STK_BOT_131
8
0
10
0
20
0.04
0
TEXT
8
SYM_TERMINAL
10
0
20
-0.24
40
0.07
1
2
0
INSERT
2
STK_BOT_131
8
0
10
0
20
0.08
0
TEXT
8
SYM_TERMINAL
10
0
20
-0.36
40
0.07
1
3
0
INSERT
2
STK_BOT_131
8
0
10
0
20
0.12
0
TEXT
8
SYM_TERMINAL
10
0
20
-0.48
40
0.07
1
4
0
ENDBLK
0
BLOCK
2
PKG_10
8
0
10
0
20
0
3
PKG_10
70
64
0
TEXT
8
PKG_INFO
10
0
20
0
40
0.07
1
*SYM:= 16
0
TEXT
8
PKG_INFO
10
0
20
-0.12
40
0.07
1
*PKG:= 0 SOLDERLAND_4 UND
0
TEXT
8
PKG_INFO
10
0
20
-0.24
40
0.07
1
*GATE:=0
0
TEXT
8
PKG_INFO
10
0
20
-0.36
40
0.07
1
*GATEPIN:= 0 9 1 <>
0
TEXT
8
PKG_INFO
10
0
20
-0.48
40
0.07
1
*GATEPIN:= 0 9 2 <>
0
TEXT
8
PKG_INFO
10
0
20
-0.6
40
0.07
1
*GATEPIN:= 0 9 3 <>
0
TEXT
8
PKG_INFO
10
0
20
-0.72
40
0.07
1
*GATEPIN:= 0 9 4 <>
0
ENDBLK
0
BLOCK
2
PART_BODY_BOT_99
8
0
10
0
20
0
3
PART_BODY_BOT_99
70
64
0
POLYLINE
8
PART_BOT_2DLINE_00
66
1
40
0.0039370079
41
0.0039370079
0
VERTEX
8
PART_BOT_2DLINE_00
10
0.0039370079
20
0.0102362205
0
VERTEX
8
PART_BOT_2DLINE_00
10
-0.0043307087
20
0.0102362205
0
SEQEND
0
INSERT
2
SMOOTH_0$0039370079
8
PART_BOT_2DLINE_00
10
0.0039370079
20
0.0102362205
0
INSERT
2
SMOOTH_0$0039370079
8
PART_BOT_2DLINE_00
10
-0.0043307087
20
0.0102362205
0
POLYLINE
8
PART_BOT_2DLINE_00
66
1
40
0.0039370079
41
0.0039370079
0
VERTEX
8
PART_BOT_2DLINE_00
10
0.0039370079
20
-0.0094488189
0
VERTEX
8
PART_BOT_2DLINE_00
10
-0.0043307087
20
-0.0094488189
0
SEQEND
0
INSERT
2
SMOOTH_0$0039370079
8
PART_BOT_2DLINE_00
10
0.0039370079
20
-0.0094488189
0
INSERT
2
SMOOTH_0$0039370079
8
PART_BOT_2DLINE_00
10
-0.0043307087
20
-0.0094488189
0
ENDBLK
0
BLOCK
2
STK_BOT_3
8
0
10
0
20
0
3
STK_BOT_3
70
64
0
INSERT
2
DRIL_HOLE_0
8
DRIL_PLTE_THRU_01
10
0
20
0
0
INSERT
2
DRIL_HOLE_0
8
DRIL_PLTE_THRU_02
10
0
20
0
0
INSERT
2
DRIL_HOLE_0
8
DRIL_PLTE_THRU_03
10
0
20
0
0
INSERT
2
DRIL_HOLE_0
8
DRIL_PLTE_THRU_04
10
0
20
0
0
INSERT
2
PAD_0
8
PADS_INNER
10
0
20
0
0
INSERT
2
PAD_1
8
PADS_BOT
10
0
20
0
0
INSERT
2
PAD_0
8
PADS_TOP
10
0
20
0
0
ENDBLK
0
BLOCK
2
PART_BODY_BOT_100
8
0
10
0
20
0
3
PART_BODY_BOT_100
70
64
0
POLYLINE
8
PART_BOT_2DLINE_01
66
1
40
0.004
41
0.004
0
VERTEX
8
PART_BOT_2DLINE_01
10
-0.02
20
-0.042
0
VERTEX
8
PART_BOT_2DLINE_01
10
0.02
20
-0.042
0
VERTEX
8
PART_BOT_2DLINE_01
10
0.02
20
0.042
0
VERTEX
8
PART_BOT_2DLINE_01
10
-0.02
20
0.042
0
VERTEX
8
PART_BOT_2DLINE_01
10
-0.02
20
-0.042
0
SEQEND
0
INSERT
2
SMOOTH_0$004
8
PART_BOT_2DLINE_01
10
-0.02
20
-0.042
0
INSERT
2
SMOOTH_0$004
8
PART_BOT_2DLINE_01
10
0.02
20
-0.042
0
INSERT
2
SMOOTH_0$004
8
PART_BOT_2DLINE_01
10
0.02
20
0.042
0
INSERT
2
SMOOTH_0$004
8
PART_BOT_2DLINE_01
10
-0.02
20
0.042
0
INSERT
2
SMOOTH_0$004
8
PART_BOT_2DLINE_01
10
-0.02
20
-0.042
0
ENDBLK
0
BLOCK
2
STK_BOT_4
8
0
10
0
20
0
3
STK_BOT_4
70
64
0
INSERT
2
DRIL_HOLE_0
8
DRIL_NPLTE_THRU_01
10
0
20
0
0
INSERT
2
DRIL_HOLE_0
8
DRIL_NPLTE_THRU_02
10
0
20
0
0
INSERT
2
DRIL_HOLE_0
8
DRIL_NPLTE_THRU_03
10
0
20
0
0
INSERT
2
DRIL_HOLE_0
8
DRIL_NPLTE_THRU_04
10
0
20
0
0
INSERT
2
PAD_0
8
PADS_INNER
10
0
20
0
0
INSERT
2
PAD_2
8
PADS_BOT
10
0
20
0
0
INSERT
2
PAD_0
8
PADS_TOP
10
0
20
0
0
ENDBLK
0
BLOCK
2
PART_BODY_TOP_110
8
0
10
0
20
0
3
PART_BODY_TOP_110
70
64
0
POLYLINE
8
PART_TOP_2DLINE_25
66
1
40
0.01
41
0.01
39
0.00394
70
1
0
VERTEX
8
PART_TOP_2DLINE_25
10
-0.0806225722
20
0
42
1
0
VERTEX
8
PART_TOP_2DLINE_25
10
0.0806225722
20
0
42
1
0
SEQEND
0
ENDBLK
0
BLOCK
2
STK_TOP_57
8
0
10
0
20
0
3
STK_TOP_57
70
64
0
INSERT
2
DRIL_HOLE_0
8
DRIL_NPLTE_THRU_01
10
0
20
0
0
INSERT
2
DRIL_HOLE_0
8
DRIL_NPLTE_THRU_02
10
0
20
0
0
INSERT
2
DRIL_HOLE_0
8
DRIL_NPLTE_THRU_03
10
0
20
0
0
INSERT
2
DRIL_HOLE_0
8
DRIL_NPLTE_THRU_04
10
0
20
0
0
INSERT
2
PAD_0
8
PADS_INNER
10
0
20
0
0
INSERT
2
PAD_3
8
PADS_INNER_THER
10
0
20
0
0
INSERT
2
PAD_4
8
PADS_INNER_ANTI
10
0
20
0
0
INSERT
2
PAD_0
8
PADS_BOT
10
0
20
0
0
INSERT
2
PAD_0
8
PADS_XR_02
10
0
20
0
0
INSERT
2
PAD_0
8
PADS_XR_03
10
0
20
0
0
INSERT
2
PAD_5
8
PADS_TOP
10
0
20
0
0
ENDBLK
0
BLOCK
2
SYM_TOP_4
8
0
10
0
20
0
3
SYM_TOP_4
70
64
0
TEXT
8
SYM_NAME
10
0
20
0
40
0.07
1
PADHOLE
41
0.75
0
TEXT
8
SYM_PART_TYPE_01
10
0.0696850394
20
0.0657480315
40
0.0413385827
1
 
73
1
11
0.0696850394
21
0.0657480315
41
0.75
7
W0$0059055118R1
0
TEXT
8
SYM_PART_NAME_01
10
0.0736220472
20
0.0035433071
40
0.0413385827
1
 
73
1
11
0.0736220472
21
0.0035433071
41
0.75
7
W0$0059055118R1
0
INSERT
2
PART_BODY_TOP_101
8
0
10
0
20
0
0
INSERT
2
STK_TOP_5
8
0
10
0
20
0
0
TEXT
8
SYM_TERMINAL
10
0
20
-0.12
40
0.07
1
1
0
ENDBLK
0
BLOCK
2
SYM_TOP_10
8
0
10
0
20
0
3
SYM_TOP_10
70
64
0
TEXT
8
SYM_NAME
10
0
20
0
40
0.07
1
PADCIRC5MM
41
0.75
0
TEXT
8
SYM_PART_TYPE_01
10
0.0401574803
20
0.0448818898
40
0.0413385827
1
 
73
1
11
0.0401574803
21
0.0448818898
41
0.75
7
W0$0059055118R1
0
TEXT
8
SYM_PART_NAME_01
10
0.0440944882
20
-0.0173228346
40
0.0413385827
1
 
73
1
11
0.0440944882
21
-0.0173228346
41
0.75
7
W0$0059055118R1
0
INSERT
2
PART_BODY_TOP_107
8
0
10
0
20
0
0
INSERT
2
STK_TOP_23
8
0
10
0
20
0
0
TEXT
8
SYM_TERMINAL
10
0
20
-0.12
40
0.07
1
1
0
ENDBLK
0
BLOCK
2
PART_BODY_BOT_102
8
0
10
0
20
0
3
PART_BODY_BOT_102
70
64
0
ENDBLK
0
BLOCK
2
STK_BOT_6
8
0
10
0
20
0
3
STK_BOT_6
70
64
0
INSERT
2
DRIL_HOLE_0
8
DRIL_NPLTE_THRU_01
10
0
20
0
0
INSERT
2
DRIL_HOLE_0
8
DRIL_NPLTE_THRU_02
10
0
20
0
0
INSERT
2
DRIL_HOLE_0
8
DRIL_NPLTE_THRU_03
10
0
20
0
0
INSERT
2
DRIL_HOLE_0
8
DRIL_NPLTE_THRU_04
10
0
20
0
0
INSERT
2
PAD_0
8
PADS_INNER
10
0
20
0
0
INSERT
2
PAD_0
8
PADS_BOT
10
0
20
0
0
INSERT
2
PAD_6
8
PADS_TOP
10
0
20
0
0
ENDBLK
0
BLOCK
2
PART_BODY_BOT_103
8
0
10
0
20
0
3
PART_BODY_BOT_103
70
64
0
POLYLINE
8
PART_BOT_2DLINE_01
66
1
40
0.01
41
0.01
39
-0.01575
0
VERTEX
8
PART_BOT_2DLINE_01
10
-0.0511811024
20
0.0590551181
0
VERTEX
8
PART_BOT_2DLINE_01
10
-0.0590551181
20
0.0590551181
0
VERTEX
8
PART_BOT_2DLINE_01
10
-0.0590551181
20
0.0511811024
0
SEQEND
0
INSERT
2
SMOOTH_0$01
8
PART_BOT_2DLINE_01
10
-0.0511811024
20
0.0590551181
0
INSERT
2
SMOOTH_0$01
8
PART_BOT_2DLINE_01
10
-0.0590551181
20
0.0590551181
0
INSERT
2
SMOOTH_0$01
8
PART_BOT_2DLINE_01
10
-0.0590551181
20
0.0511811024
0
POLYLINE
8
PART_BOT_2DLINE_01
66
1
40
0.01
41
0.01
39
-0.01575
0
VERTEX
8
PART_BOT_2DLINE_01
10
-0.0590551181
20
-0.0511811024
0
VERTEX
8
PART_BOT_2DLINE_01
10
-0.0590551181
20
-0.0590551181
0
VERTEX
8
PART_BOT_2DLINE_01
10
-0.0511811024
20
-0.0590551181
0
SEQEND
0
INSERT
2
SMOOTH_0$01
8
PART_BOT_2DLINE_01
10
-0.0590551181
20
-0.0511811024
0
INSERT
2
SMOOTH_0$01
8
PART_BOT_2DLINE_01
10
-0.0590551181
20
-0.0590551181
0
INSERT
2
SMOOTH_0$01
8
PART_BOT_2DLINE_01
10
-0.0511811024
20
-0.0590551181
0
POLYLINE
8
PART_BOT_2DLINE_01
66
1
40
0.01
41
0.01
39
-0.01575
0
VERTEX
8
PART_BOT_2DLINE_01
10
0.0511811024
20
-0.0590551181
0
VERTEX
8
PART_BOT_2DLINE_01
10
0.0590551181
20
-0.0590551181
0
VERTEX
8
PART_BOT_2DLINE_01
10
0.0590551181
20
-0.0511811024
0
SEQEND
0
INSERT
2
SMOOTH_0$01
8
PART_BOT_2DLINE_01
10
0.0511811024
20
-0.0590551181
0
INSERT
2
SMOOTH_0$01
8
PART_BOT_2DLINE_01
10
0.0590551181
20
-0.0590551181
0
INSERT
2
SMOOTH_0$01
8
PART_BOT_2DLINE_01
10
0.0590551181
20
-0.0511811024
0
POLYLINE
8
PART_BOT_2DLINE_01
66
1
40
0.01
41
0.01
39
-0.01575
0
VERTEX
8
PART_BOT_2DLINE_01
10
0.0551181102
20
0.0511811024
0
VERTEX
8
PART_BOT_2DLINE_01
10
0.0551181102
20
0.0590551181
0
VERTEX
8
PART_BOT_2DLINE_01
10
0.0472440945
20
0.0590551181
0
SEQEND
0
INSERT
2
SMOOTH_0$01
8
PART_BOT_2DLINE_01
10
0.0551181102
20
0.0511811024
0
INSERT
2
SMOOTH_0$01
8
PART_BOT_2DLINE_01
10
0.0551181102
20
0.0590551181
0
INSERT
2
SMOOTH_0$01
8
PART_BOT_2DLINE_01
10
0.0472440945
20
0.0590551181
0
ENDBLK
0
BLOCK
2
STK_BOT_10
8
0
10
0
20
0
3
STK_BOT_10
70
64
0
INSERT
2
DRIL_HOLE_0
8
DRIL_NPLTE_THRU_01
10
0
20
0
0
INSERT
2
DRIL_HOLE_0
8
DRIL_NPLTE_THRU_02
10
0
20
0
0
INSERT
2
DRIL_HOLE_0
8
DRIL_NPLTE_THRU_03
10
0
20
0
0
INSERT
2
DRIL_HOLE_0
8
DRIL_NPLTE_THRU_04
10
0
20
0
0
INSERT
2
PAD_7
8
PADS_XR_23
10
0
20
0
0
INSERT
2
PAD_0
8
PADS_INNER
10
0
20
0
0
INSERT
2
PAD_7
8
PADS_XR_21
10
0
20
0
0
INSERT
2
PAD_7
8
PADS_BOT
10
0
20
0
0
INSERT
2
PAD_0
8
PADS_TOP
10
0
20
0
0
ENDBLK
0
BLOCK
2
STK_BOT_11
8
0
10
0
20
0
3
STK_BOT_11
70
64
0
INSERT
2
DRIL_HOLE_0
8
DRIL_NPLTE_THRU_01
10
0
20
0
0
INSERT
2
DRIL_HOLE_0
8
DRIL_NPLTE_THRU_02
10
0
20
0
0
INSERT
2
DRIL_HOLE_0
8
DRIL_NPLTE_THRU_03
10
0
20
0
0
INSERT
2
DRIL_HOLE_0
8
DRIL_NPLTE_THRU_04
10
0
20
0
0
INSERT
2
PAD_7
8
PADS_XR_23
10
0
20
0
50
90
0
INSERT
2
PAD_0
8
PADS_INNER
10
0
20
0
0
INSERT
2
PAD_7
8
PADS_XR_21
10
0
20
0
50
90
0
INSERT
2
PAD_7
8
PADS_BOT
10
0
20
0
50
90
0
INSERT
2
PAD_0
8
PADS_TOP
10
0
20
0
0
ENDBLK
0
BLOCK
2
PART_BODY_BOT_104
8
0
10
0
20
0
3
PART_BODY_BOT_104
70
64
0
POLYLINE
8
PART_BOT_2DLINE_01
66
1
40
0.01
41
0.01
39
-0.01575
0
VERTEX
8
PART_BOT_2DLINE_01
10
-0.0708661417
20
0.0787401575
0
VERTEX
8
PART_BOT_2DLINE_01
10
-0.0787401575
20
0.0787401575
0
VERTEX
8
PART_BOT_2DLINE_01
10
-0.0787401575
20
0.0708661417
0
SEQEND
0
INSERT
2
SMOOTH_0$01
8
PART_BOT_2DLINE_01
10
-0.0708661417
20
0.0787401575
0
INSERT
2
SMOOTH_0$01
8
PART_BOT_2DLINE_01
10
-0.0787401575
20
0.0787401575
0
INSERT
2
SMOOTH_0$01
8
PART_BOT_2DLINE_01
10
-0.0787401575
20
0.0708661417
0
POLYLINE
8
PART_BOT_2DLINE_01
66
1
40
0.01
41
0.01
39
-0.01575
0
VERTEX
8
PART_BOT_2DLINE_01
10
-0.0787401575
20
-0.0708661417
0
VERTEX
8
PART_BOT_2DLINE_01
10
-0.0787401575
20
-0.0787401575
0
VERTEX
8
PART_BOT_2DLINE_01
10
-0.0708661417
20
-0.0787401575
0
SEQEND
0
INSERT
2
SMOOTH_0$01
8
PART_BOT_2DLINE_01
10
-0.0787401575
20
-0.0708661417
0
INSERT
2
SMOOTH_0$01
8
PART_BOT_2DLINE_01
10
-0.0787401575
20
-0.0787401575
0
INSERT
2
SMOOTH_0$01
8
PART_BOT_2DLINE_01
10
-0.0708661417
20
-0.0787401575
0
POLYLINE
8
PART_BOT_2DLINE_01
66
1
40
0.01
41
0.01
39
-0.01575
0
VERTEX
8
PART_BOT_2DLINE_01
10
0.0708661417
20
-0.0787401575
0
VERTEX
8
PART_BOT_2DLINE_01
10
0.0787401575
20
-0.0787401575
0
VERTEX
8
PART_BOT_2DLINE_01
10
0.0787401575
20
-0.0708661417
0
SEQEND
0
INSERT
2
SMOOTH_0$01
8
PART_BOT_2DLINE_01
10
0.0708661417
20
-0.0787401575
0
INSERT
2
SMOOTH_0$01
8
PART_BOT_2DLINE_01
10
0.0787401575
20
-0.0787401575
0
INSERT
2
SMOOTH_0$01
8
PART_BOT_2DLINE_01
10
0.0787401575
20
-0.0708661417
0
POLYLINE
8
PART_BOT_2DLINE_01
66
1
40
0.01
41
0.01
39
-0.01575
0
VERTEX
8
PART_BOT_2DLINE_01
10
0.0708661417
20
0.0708661417
0
VERTEX
8
PART_BOT_2DLINE_01
10
0.0708661417
20
0.0787401575
0
VERTEX
8
PART_BOT_2DLINE_01
10
0.062992126
20
0.0787401575
0
SEQEND
0
INSERT
2
SMOOTH_0$01
8
PART_BOT_2DLINE_01
10
0.0708661417
20
0.0708661417
0
INSERT
2
SMOOTH_0$01
8
PART_BOT_2DLINE_01
10
0.0708661417
20
0.0787401575
0
INSERT
2
SMOOTH_0$01
8
PART_BOT_2DLINE_01
10
0.062992126
20
0.0787401575
0
ENDBLK
0
BLOCK
2
STK_BOT_13
8
0
10
0
20
0
3
STK_BOT_13
70
64
0
INSERT
2
DRIL_HOLE_0
8
DRIL_NPLTE_THRU_01
10
0
20
0
0
INSERT
2
DRIL_HOLE_0
8
DRIL_NPLTE_THRU_02
10
0
20
0
0
INSERT
2
DRIL_HOLE_0
8
DRIL_NPLTE_THRU_03
10
0
20
0
0
INSERT
2
DRIL_HOLE_0
8
DRIL_NPLTE_THRU_04
10
0
20
0
0
INSERT
2
PAD_8
8
PADS_XR_23
10
0
20
0
0
INSERT
2
PAD_0
8
PADS_INNER
10
0
20
0
0
INSERT
2
PAD_8
8
PADS_XR_21
10
0
20
0
0
INSERT
2
PAD_8
8
PADS_BOT
10
0
20
0
0
INSERT
2
PAD_0
8
PADS_TOP
10
0
20
0
0
ENDBLK
0
BLOCK
2
STK_BOT_12
8
0
10
0
20
0
3
STK_BOT_12
70
64
0
INSERT
2
DRIL_HOLE_0
8
DRIL_NPLTE_THRU_01
10
0
20
0
0
INSERT
2
DRIL_HOLE_0
8
DRIL_NPLTE_THRU_02
10
0
20
0
0
INSERT
2
DRIL_HOLE_0
8
DRIL_NPLTE_THRU_03
10
0
20
0
0
INSERT
2
DRIL_HOLE_0
8
DRIL_NPLTE_THRU_04
10
0
20
0
0
INSERT
2
PAD_8
8
PADS_XR_23
10
0
20
0
50
90
0
INSERT
2
PAD_0
8
PADS_INNER
10
0
20
0
0
INSERT
2
PAD_8
8
PADS_XR_21
10
0
20
0
50
90
0
INSERT
2
PAD_8
8
PADS_BOT
10
0
20
0
50
90
0
INSERT
2
PAD_0
8
PADS_TOP
10
0
20
0
0
ENDBLK
0
BLOCK
2
PART_BODY_BOT_105
8
0
10
0
20
0
3
PART_BODY_BOT_105
70
64
0
POLYLINE
8
PART_BOT_2DLINE_01
66
1
40
0.01
41
0.01
70
1
0
VERTEX
8
PART_BOT_2DLINE_01
10
-0.0844725197
20
0.0787401575
42
1
0
VERTEX
8
PART_BOT_2DLINE_01
10
-0.0730077953
20
0.0787401575
42
1
0
SEQEND
0
POLYLINE
8
PART_BOT_2DLINE_01
66
1
40
0.01
41
0.01
0
VERTEX
8
PART_BOT_2DLINE_01
10
0.062992126
20
0.0787401575
0
VERTEX
8
PART_BOT_2DLINE_01
10
0.0787401575
20
0.0787401575
0
VERTEX
8
PART_BOT_2DLINE_01
10
0.0787401575
20
0.062992126
0
SEQEND
0
INSERT
2
SMOOTH_0$01
8
PART_BOT_2DLINE_01
10
0.062992126
20
0.0787401575
0
INSERT
2
SMOOTH_0$01
8
PART_BOT_2DLINE_01
10
0.0787401575
20
0.0787401575
0
INSERT
2
SMOOTH_0$01
8
PART_BOT_2DLINE_01
10
0.0787401575
20
0.062992126
0
POLYLINE
8
PART_BOT_2DLINE_01
66
1
40
0.01
41
0.01
0
VERTEX
8
PART_BOT_2DLINE_01
10
0.062992126
20
-0.0787401575
0
VERTEX
8
PART_BOT_2DLINE_01
10
0.0787401575
20
-0.0787401575
0
VERTEX
8
PART_BOT_2DLINE_01
10
0.0787401575
20
-0.062992126
0
SEQEND
0
INSERT
2
SMOOTH_0$01
8
PART_BOT_2DLINE_01
10
0.062992126
20
-0.0787401575
0
INSERT
2
SMOOTH_0$01
8
PART_BOT_2DLINE_01
10
0.0787401575
20
-0.0787401575
0
INSERT
2
SMOOTH_0$01
8
PART_BOT_2DLINE_01
10
0.0787401575
20
-0.062992126
0
POLYLINE
8
PART_BOT_2DLINE_01
66
1
40
0.01
41
0.01
0
VERTEX
8
PART_BOT_2DLINE_01
10
-0.062992126
20
-0.0787401575
0
VERTEX
8
PART_BOT_2DLINE_01
10
-0.0790551181
20
-0.0787401575
0
VERTEX
8
PART_BOT_2DLINE_01
10
-0.0790551181
20
-0.0626771654
0
SEQEND
0
INSERT
2
SMOOTH_0$01
8
PART_BOT_2DLINE_01
10
-0.062992126
20
-0.0787401575
0
INSERT
2
SMOOTH_0$01
8
PART_BOT_2DLINE_01
10
-0.0790551181
20
-0.0787401575
0
INSERT
2
SMOOTH_0$01
8
PART_BOT_2DLINE_01
10
-0.0790551181
20
-0.0626771654
0
POLYLINE
8
KEEPOUT_01
6
KEEPOUT_00001000$0
66
1
70
1
0
VERTEX
8
KEEPOUT_01
10
-0.06
20
0.06
0
VERTEX
8
KEEPOUT_01
10
0.06
20
0.06
0
VERTEX
8
KEEPOUT_01
10
0.06
20
-0.06
0
VERTEX
8
KEEPOUT_01
10
-0.06
20
-0.06
0
SEQEND
0
ENDBLK
0
BLOCK
2
STK_BOT_14
8
0
10
0
20
0
3
STK_BOT_14
70
64
0
INSERT
2
DRIL_HOLE_0
8
DRIL_PLTE_THRU_01
10
0
20
0
0
INSERT
2
DRIL_HOLE_0
8
DRIL_PLTE_THRU_02
10
0
20
0
0
INSERT
2
DRIL_HOLE_0
8
DRIL_PLTE_THRU_03
10
0
20
0
0
INSERT
2
DRIL_HOLE_0
8
DRIL_PLTE_THRU_04
10
0
20
0
0
INSERT
2
PAD_0
8
PADS_INNER
10
0
20
0
0
INSERT
2
PAD_9
8
PADS_BOT
10
0
20
0
0
INSERT
2
PAD_0
8
PADS_TOP
10
0
20
0
0
ENDBLK
0
BLOCK
2
STK_BOT_15
8
0
10
0
20
0
3
STK_BOT_15
70
64
0
INSERT
2
DRIL_HOLE_0
8
DRIL_PLTE_THRU_01
10
0
20
0
0
INSERT
2
DRIL_HOLE_0
8
DRIL_PLTE_THRU_02
10
0
20
0
0
INSERT
2
DRIL_HOLE_0
8
DRIL_PLTE_THRU_03
10
0
20
0
0
INSERT
2
DRIL_HOLE_0
8
DRIL_PLTE_THRU_04
10
0
20
0
0
INSERT
2
PAD_0
8
PADS_INNER
10
0
20
0
0
INSERT
2
PAD_9
8
PADS_BOT
10
0
20
0
50
90
0
INSERT
2
PAD_10
8
PADS_TOP
10
0
20
0
0
ENDBLK
0
BLOCK
2
STK_BOT_85
8
0
10
0
20
0
3
STK_BOT_85
70
64
0
INSERT
2
DRIL_HOLE_0
8
DRIL_PLTE_THRU_01
10
0
20
0
0
INSERT
2
DRIL_HOLE_0
8
DRIL_PLTE_THRU_02
10
0
20
0
0
INSERT
2
DRIL_HOLE_0
8
DRIL_PLTE_THRU_03
10
0
20
0
0
INSERT
2
DRIL_HOLE_0
8
DRIL_PLTE_THRU_04
10
0
20
0
0
INSERT
2
PAD_11
8
PADS_XR_23
10
0
20
0
0
INSERT
2
PAD_0
8
PADS_INNER
10
0
20
0
0
INSERT
2
PAD_12
8
PADS_XR_21
10
0
20
0
0
INSERT
2
PAD_13
8
PADS_BOT
10
0
20
0
0
INSERT
2
PAD_0
8
PADS_TOP
10
0
20
0
0
ENDBLK
0
BLOCK
2
PART_BODY_BOT_111
8
0
10
0
20
0
3
PART_BODY_BOT_111
70
64
0
POLYLINE
8
PART_BOT_2DLINE_01
66
1
40
0.01
41
0.01
39
-0.01969
0
VERTEX
8
PART_BOT_2DLINE_01
10
-0.0275590551
20
0.0393700787
0
VERTEX
8
PART_BOT_2DLINE_01
10
-0.0354330709
20
0.0393700787
0
VERTEX
8
PART_BOT_2DLINE_01
10
-0.0354330709
20
0.031496063
0
SEQEND
0
INSERT
2
SMOOTH_0$01
8
PART_BOT_2DLINE_01
10
-0.0275590551
20
0.0393700787
0
INSERT
2
SMOOTH_0$01
8
PART_BOT_2DLINE_01
10
-0.0354330709
20
0.0393700787
0
INSERT
2
SMOOTH_0$01
8
PART_BOT_2DLINE_01
10
-0.0354330709
20
0.031496063
0
POLYLINE
8
PART_BOT_2DLINE_01
66
1
40
0.01
41
0.01
39
-0.01969
0
VERTEX
8
PART_BOT_2DLINE_01
10
-0.0354330709
20
-0.031496063
0
VERTEX
8
PART_BOT_2DLINE_01
10
-0.0354330709
20
-0.0393700787
0
VERTEX
8
PART_BOT_2DLINE_01
10
-0.0275590551
20
-0.0393700787
0
SEQEND
0
INSERT
2
SMOOTH_0$01
8
PART_BOT_2DLINE_01
10
-0.0354330709
20
-0.031496063
0
INSERT
2
SMOOTH_0$01
8
PART_BOT_2DLINE_01
10
-0.0354330709
20
-0.0393700787
0
INSERT
2
SMOOTH_0$01
8
PART_BOT_2DLINE_01
10
-0.0275590551
20
-0.0393700787
0
POLYLINE
8
PART_BOT_2DLINE_01
66
1
40
0.01
41
0.01
39
-0.01969
0
VERTEX
8
PART_BOT_2DLINE_01
10
0.0275590551
20
-0.0393700787
0
VERTEX
8
PART_BOT_2DLINE_01
10
0.0354330709
20
-0.0393700787
0
VERTEX
8
PART_BOT_2DLINE_01
10
0.0354330709
20
-0.031496063
0
SEQEND
0
INSERT
2
SMOOTH_0$01
8
PART_BOT_2DLINE_01
10
0.0275590551
20
-0.0393700787
0
INSERT
2
SMOOTH_0$01
8
PART_BOT_2DLINE_01
10
0.0354330709
20
-0.0393700787
0
INSERT
2
SMOOTH_0$01
8
PART_BOT_2DLINE_01
10
0.0354330709
20
-0.031496063
0
POLYLINE
8
PART_BOT_2DLINE_01
66
1
40
0.01
41
0.01
39
-0.01969
0
VERTEX
8
PART_BOT_2DLINE_01
10
0.0354330709
20
0.031496063
42
1.9991321028
0
VERTEX
8
PART_BOT_2DLINE_01
10
0.0275590551
20
0.0393700787
0
SEQEND
0
INSERT
2
SMOOTH_0$01
8
PART_BOT_2DLINE_01
10
0.0354330709
20
0.031496063
0
INSERT
2
SMOOTH_0$01
8
PART_BOT_2DLINE_01
10
0.0275590551
20
0.0393700787
0
ENDBLK
0
BLOCK
2
STK_BOT_33
8
0
10
0
20
0
3
STK_BOT_33
70
64
0
INSERT
2
DRIL_HOLE_0
8
DRIL_NPLTE_THRU_01
10
0
20
0
0
INSERT
2
DRIL_HOLE_0
8
DRIL_NPLTE_THRU_02
10
0
20
0
0
INSERT
2
DRIL_HOLE_0
8
DRIL_NPLTE_THRU_03
10
0
20
0
0
INSERT
2
DRIL_HOLE_0
8
DRIL_NPLTE_THRU_04
10
0
20
0
0
INSERT
2
PAD_0
8
PADS_INNER
10
0
20
0
0
INSERT
2
PAD_14
8
PADS_BOT
10
0
20
0
50
90
0
INSERT
2
PAD_0
8
PADS_TOP
10
0
20
0
0
ENDBLK
0
BLOCK
2
STK_BOT_34
8
0
10
0
20
0
3
STK_BOT_34
70
64
0
INSERT
2
DRIL_HOLE_0
8
DRIL_NPLTE_THRU_01
10
0
20
0
0
INSERT
2
DRIL_HOLE_0
8
DRIL_NPLTE_THRU_02
10
0
20
0
0
INSERT
2
DRIL_HOLE_0
8
DRIL_NPLTE_THRU_03
10
0
20
0
0
INSERT
2
DRIL_HOLE_0
8
DRIL_NPLTE_THRU_04
10
0
20
0
0
INSERT
2
PAD_14
8
PADS_XR_23
10
0
20
0
0
INSERT
2
PAD_0
8
PADS_INNER
10
0
20
0
0
INSERT
2
PAD_14
8
PADS_XR_21
10
0
20
0
0
INSERT
2
PAD_14
8
PADS_BOT
10
0
20
0
0
INSERT
2
PAD_0
8
PADS_TOP
10
0
20
0
0
ENDBLK
0
BLOCK
2
STK_BOT_35
8
0
10
0
20
0
3
STK_BOT_35
70
64
0
INSERT
2
DRIL_HOLE_0
8
DRIL_NPLTE_THRU_01
10
0
20
0
0
INSERT
2
DRIL_HOLE_0
8
DRIL_NPLTE_THRU_02
10
0
20
0
0
INSERT
2
DRIL_HOLE_0
8
DRIL_NPLTE_THRU_03
10
0
20
0
0
INSERT
2
DRIL_HOLE_0
8
DRIL_NPLTE_THRU_04
10
0
20
0
0
INSERT
2
PAD_14
8
PADS_XR_23
10
0
20
0
0
INSERT
2
PAD_0
8
PADS_INNER
10
0
20
0
0
INSERT
2
PAD_14
8
PADS_XR_21
10
0
20
0
0
INSERT
2
PAD_14
8
PADS_BOT
10
0
20
0
50
90
0
INSERT
2
PAD_0
8
PADS_TOP
10
0
20
0
0
ENDBLK
0
BLOCK
2
STK_BOT_36
8
0
10
0
20
0
3
STK_BOT_36
70
64
0
INSERT
2
DRIL_HOLE_0
8
DRIL_NPLTE_THRU_01
10
0
20
0
0
INSERT
2
DRIL_HOLE_0
8
DRIL_NPLTE_THRU_02
10
0
20
0
0
INSERT
2
DRIL_HOLE_0
8
DRIL_NPLTE_THRU_03
10
0
20
0
0
INSERT
2
DRIL_HOLE_0
8
DRIL_NPLTE_THRU_04
10
0
20
0
0
INSERT
2
PAD_0
8
PADS_INNER
10
0
20
0
0
INSERT
2
PAD_14
8
PADS_BOT
10
0
20
0
0
INSERT
2
PAD_0
8
PADS_TOP
10
0
20
0
0
ENDBLK
0
BLOCK
2
SYM_TOP_9
8
0
10
0
20
0
3
SYM_TOP_9
70
64
0
TEXT
8
SYM_NAME
10
0
20
0
40
0.07
1
MICROPAK
41
0.75
0
TEXT
8
SYM_PART_NAME_01
10
-0.031496063
20
-0.0039370079
40
0.042
1
 
41
0.75
7
W0$008R0
0
TEXT
8
SYM_PART_TYPE_01
10
-0.031496063
20
-0.0039370079
40
0.042
1
 
73
2
11
-0.031496063
21
-0.0039370079
41
0.75
7
W0$008R0
0
INSERT
2
PART_BODY_TOP_106
8
0
10
0
20
0
0
INSERT
2
STK_TOP_10
8
0
10
-0.0482283465
20
0.0393700787
0
TEXT
8
SYM_TERMINAL
10
0
20
-0.12
40
0.07
1
1
0
INSERT
2
STK_TOP_10
8
0
10
-0.0482283465
20
0.0196850394
0
TEXT
8
SYM_TERMINAL
10
0
20
-0.24
40
0.07
1
2
0
INSERT
2
STK_TOP_10
8
0
10
-0.0482283465
20
0
0
TEXT
8
SYM_TERMINAL
10
0
20
-0.36
40
0.07
1
3
0
INSERT
2
STK_TOP_10
8
0
10
-0.0482283465
20
-0.0196850394
0
TEXT
8
SYM_TERMINAL
10
0
20
-0.48
40
0.07
1
4
0
INSERT
2
STK_TOP_10
8
0
10
-0.0482283465
20
-0.0393700787
0
TEXT
8
SYM_TERMINAL
10
0
20
-0.6
40
0.07
1
5
0
INSERT
2
STK_TOP_11
8
0
10
-0.0196850394
20
-0.0482283465
0
TEXT
8
SYM_TERMINAL
10
0
20
-0.72
40
0.07
1
6
0
INSERT
2
STK_TOP_11
8
0
10
0
20
-0.0482283465
0
TEXT
8
SYM_TERMINAL
10
0
20
-0.84
40
0.07
1
7
0
INSERT
2
STK_TOP_11
8
0
10
0.0196850394
20
-0.0482283465
0
TEXT
8
SYM_TERMINAL
10
0
20
-0.96
40
0.07
1
8
0
ENDBLK
0
BLOCK
2
SYM_TOP_13
8
0
10
0
20
0
3
SYM_TOP_13
70
64
0
TEXT
8
SYM_NAME
10
0
20
0
40
0.07
1
MICROPAK_8
41
0.75
0
TEXT
8
SYM_PART_NAME_01
10
-0.0551181102
20
0.0787401575
40
0.042
1
 
41
0.75
7
W0$008R0
0
TEXT
8
SYM_PART_TYPE_01
10
-0.031496063
20
-0.0039370079
40
0.042
1
 
73
2
11
-0.031496063
21
-0.0039370079
41
0.75
7
W0$008R0
0
INSERT
2
PART_BODY_TOP_112
8
0
10
0
20
0
0
INSERT
2
STK_TOP_33
8
0
10
-0.0196850394
20
0.024015748
0
TEXT
8
SYM_TERMINAL
10
0
20
-0.12
40
0.07
1
1
0
INSERT
2
STK_TOP_33
8
0
10
0
20
0.024015748
0
TEXT
8
SYM_TERMINAL
10
0
20
-0.24
40
0.07
1
2
0
INSERT
2
STK_TOP_33
8
0
10
0.0196850394
20
0.024015748
0
TEXT
8
SYM_TERMINAL
10
0
20
-0.36
40
0.07
1
3
0
INSERT
2
STK_TOP_34
8
0
10
0.0226377953
20
0
0
TEXT
8
SYM_TERMINAL
10
0
20
-0.48
40
0.07
1
4
0
INSERT
2
STK_TOP_35
8
0
10
0.0196850394
20
-0.024015748
0
TEXT
8
SYM_TERMINAL
10
0
20
-0.6
40
0.07
1
5
0
INSERT
2
STK_TOP_33
8
0
10
0
20
-0.024015748
0
TEXT
8
SYM_TERMINAL
10
0
20
-0.72
40
0.07
1
6
0
INSERT
2
STK_TOP_33
8
0
10
-0.0196850394
20
-0.024015748
0
TEXT
8
SYM_TERMINAL
10
0
20
-0.84
40
0.07
1
7
0
INSERT
2
STK_TOP_36
8
0
10
-0.0226377953
20
0
0
TEXT
8
SYM_TERMINAL
10
0
20
-0.96
40
0.07
1
8
0
ENDBLK
0
BLOCK
2
PART_BODY_TOP_114
8
0
10
0
20
0
3
PART_BODY_TOP_114
70
64
0
ENDBLK
0
BLOCK
2
STK_TOP_120
8
0
10
0
20
0
3
STK_TOP_120
70
64
0
INSERT
2
DRIL_HOLE_0
8
DRIL_NPLTE_THRU_01
10
0
20
0
0
INSERT
2
DRIL_HOLE_0
8
DRIL_NPLTE_THRU_02
10
0
20
0
0
INSERT
2
DRIL_HOLE_0
8
DRIL_NPLTE_THRU_03
10
0
20
0
0
INSERT
2
DRIL_HOLE_0
8
DRIL_NPLTE_THRU_04
10
0
20
0
0
INSERT
2
PAD_0
8
PADS_INNER
10
0
20
0
0
INSERT
2
PAD_3
8
PADS_INNER_THER
10
0
20
0
0
INSERT
2
PAD_4
8
PADS_INNER_ANTI
10
0
20
0
0
INSERT
2
PAD_0
8
PADS_BOT
10
0
20
0
0
INSERT
2
PAD_15
8
PADS_XR_02
10
0
20
0
0
INSERT
2
PAD_0
8
PADS_XR_03
10
0
20
0
0
INSERT
2
PAD_0
8
PADS_TOP
10
0
20
0
0
ENDBLK
0
BLOCK
2
PART_BODY_TOP_115
8
0
10
0
20
0
3
PART_BODY_TOP_115
70
64
0
POLYLINE
8
PART_TOP_2DLINE_26
66
1
40
0.006
41
0.006
70
1
0
VERTEX
8
PART_TOP_2DLINE_26
10
0.062992126
20
0
42
1
0
VERTEX
8
PART_TOP_2DLINE_26
10
-0.062992126
20
0
42
1
0
SEQEND
0
ENDBLK
0
BLOCK
2
STK_TOP_144
8
0
10
0
20
0
3
STK_TOP_144
70
64
0
INSERT
2
DRIL_HOLE_0$1614173228
8
DRIL_NPLTE_THRU_01
10
0
20
0
0
INSERT
2
DRIL_HOLE_0$1614173228
8
DRIL_NPLTE_THRU_02
10
0
20
0
0
INSERT
2
DRIL_HOLE_0$1614173228
8
DRIL_NPLTE_THRU_03
10
0
20
0
0
INSERT
2
DRIL_HOLE_0$1614173228
8
DRIL_NPLTE_THRU_04
10
0
20
0
0
INSERT
2
PAD_0
8
PADS_INNER
10
0
20
0
0
INSERT
2
PAD_0
8
PADS_BOT
10
0
20
0
0
INSERT
2
PAD_0
8
PADS_TOP
10
0
20
0
0
ENDBLK
0
BLOCK
2
PART_BODY_BOT_116
8
0
10
0
20
0
3
PART_BODY_BOT_116
70
64
0
ENDBLK
0
BLOCK
2
STK_BOT_131
8
0
10
0
20
0
3
STK_BOT_131
70
64
0
INSERT
2
DRIL_HOLE_0$015
8
DRIL_PLTE_THRU_01
10
0
20
0
0
INSERT
2
DRIL_HOLE_0$015
8
DRIL_PLTE_THRU_02
10
0
20
0
0
INSERT
2
DRIL_HOLE_0$015
8
DRIL_PLTE_THRU_03
10
0
20
0
0
INSERT
2
DRIL_HOLE_0$015
8
DRIL_PLTE_THRU_04
10
0
20
0
0
INSERT
2
PAD_0
8
PADS_INNER
10
0
20
0
0
INSERT
2
PAD_16
8
PADS_BOT
10
0
20
0
0
INSERT
2
PAD_17
8
PADS_TOP
10
0
20
0
0
ENDBLK
0
BLOCK
2
PART_BODY_TOP_101
8
0
10
0
20
0
3
PART_BODY_TOP_101
70
64
0
POLYLINE
8
PART_TOP_2DLINE_01
66
1
40
0.0078740157
41
0.0078740157
70
1
0
VERTEX
8
PART_TOP_2DLINE_01
10
-0.0657480315
20
0.0354330709
0
VERTEX
8
PART_TOP_2DLINE_01
10
0.0657480315
20
0.0354330709
0
VERTEX
8
PART_TOP_2DLINE_01
10
0.0657480315
20
-0.0354330709
0
VERTEX
8
PART_TOP_2DLINE_01
10
-0.0657480315
20
-0.0354330709
0
SEQEND
0
INSERT
2
SMOOTH_0$0078740157
8
PART_TOP_2DLINE_01
10
-0.0657480315
20
0.0354330709
0
INSERT
2
SMOOTH_0$0078740157
8
PART_TOP_2DLINE_01
10
0.0657480315
20
0.0354330709
0
INSERT
2
SMOOTH_0$0078740157
8
PART_TOP_2DLINE_01
10
0.0657480315
20
-0.0354330709
0
INSERT
2
SMOOTH_0$0078740157
8
PART_TOP_2DLINE_01
10
-0.0657480315
20
-0.0354330709
0
ENDBLK
0
BLOCK
2
STK_TOP_5
8
0
10
0
20
0
3
STK_TOP_5
70
64
0
INSERT
2
DRIL_HOLE_0$0196850394
8
DRIL_PLTE_THRU_01
10
0
20
0
0
INSERT
2
DRIL_HOLE_0$0196850394
8
DRIL_PLTE_THRU_02
10
0
20
0
0
INSERT
2
DRIL_HOLE_0$0196850394
8
DRIL_PLTE_THRU_03
10
0
20
0
0
INSERT
2
DRIL_HOLE_0$0196850394
8
DRIL_PLTE_THRU_04
10
0
20
0
0
INSERT
2
PAD_18
8
PADS_INNER
10
0
20
0
0
INSERT
2
PAD_3
8
PADS_INNER_THER
10
0
20
0
0
INSERT
2
PAD_4
8
PADS_INNER_ANTI
10
0
20
0
0
INSERT
2
PAD_19
8
PADS_BOT
10
0
20
0
0
INSERT
2
PAD_19
8
PADS_TOP
10
0
20
0
0
ENDBLK
0
BLOCK
2
PART_BODY_TOP_107
8
0
10
0
20
0
3
PART_BODY_TOP_107
70
64
0
ENDBLK
0
BLOCK
2
STK_TOP_23
8
0
10
0
20
0
3
STK_TOP_23
70
64
0
INSERT
2
DRIL_HOLE_0
8
DRIL_NPLTE_THRU_01
10
0
20
0
0
INSERT
2
DRIL_HOLE_0
8
DRIL_NPLTE_THRU_02
10
0
20
0
0
INSERT
2
DRIL_HOLE_0
8
DRIL_NPLTE_THRU_03
10
0
20
0
0
INSERT
2
DRIL_HOLE_0
8
DRIL_NPLTE_THRU_04
10
0
20
0
0
INSERT
2
PAD_0
8
PADS_INNER
10
0
20
0
0
INSERT
2
PAD_3
8
PADS_INNER_THER
10
0
20
0
0
INSERT
2
PAD_4
8
PADS_INNER_ANTI
10
0
20
0
0
INSERT
2
PAD_0
8
PADS_BOT
10
0
20
0
0
INSERT
2
PAD_20
8
PADS_TOP
10
0
20
0
0
ENDBLK
0
BLOCK
2
PART_BODY_TOP_106
8
0
10
0
20
0
3
PART_BODY_TOP_106
70
64
0
POLYLINE
8
PART_TOP_2DLINE_01
66
1
40
0.01
41
0.01
0
VERTEX
8
PART_TOP_2DLINE_01
10
-0.0511811024
20
0.0590551181
0
VERTEX
8
PART_TOP_2DLINE_01
10
-0.0590551181
20
0.0590551181
0
VERTEX
8
PART_TOP_2DLINE_01
10
-0.0590551181
20
0.0511811024
0
SEQEND
0
INSERT
2
SMOOTH_0$01
8
PART_TOP_2DLINE_01
10
-0.0511811024
20
0.0590551181
0
INSERT
2
SMOOTH_0$01
8
PART_TOP_2DLINE_01
10
-0.0590551181
20
0.0590551181
0
INSERT
2
SMOOTH_0$01
8
PART_TOP_2DLINE_01
10
-0.0590551181
20
0.0511811024
0
POLYLINE
8
PART_TOP_2DLINE_01
66
1
40
0.01
41
0.01
0
VERTEX
8
PART_TOP_2DLINE_01
10
-0.0590551181
20
-0.0511811024
0
VERTEX
8
PART_TOP_2DLINE_01
10
-0.0590551181
20
-0.0590551181
0
VERTEX
8
PART_TOP_2DLINE_01
10
-0.0511811024
20
-0.0590551181
0
SEQEND
0
INSERT
2
SMOOTH_0$01
8
PART_TOP_2DLINE_01
10
-0.0590551181
20
-0.0511811024
0
INSERT
2
SMOOTH_0$01
8
PART_TOP_2DLINE_01
10
-0.0590551181
20
-0.0590551181
0
INSERT
2
SMOOTH_0$01
8
PART_TOP_2DLINE_01
10
-0.0511811024
20
-0.0590551181
0
POLYLINE
8
PART_TOP_2DLINE_01
66
1
40
0.01
41
0.01
0
VERTEX
8
PART_TOP_2DLINE_01
10
0.0511811024
20
-0.0590551181
0
VERTEX
8
PART_TOP_2DLINE_01
10
0.0590551181
20
-0.0590551181
0
VERTEX
8
PART_TOP_2DLINE_01
10
0.0590551181
20
-0.0511811024
0
SEQEND
0
INSERT
2
SMOOTH_0$01
8
PART_TOP_2DLINE_01
10
0.0511811024
20
-0.0590551181
0
INSERT
2
SMOOTH_0$01
8
PART_TOP_2DLINE_01
10
0.0590551181
20
-0.0590551181
0
INSERT
2
SMOOTH_0$01
8
PART_TOP_2DLINE_01
10
0.0590551181
20
-0.0511811024
0
POLYLINE
8
PART_TOP_2DLINE_01
66
1
40
0.01
41
0.01
0
VERTEX
8
PART_TOP_2DLINE_01
10
0.0551181102
20
0.0511811024
0
VERTEX
8
PART_TOP_2DLINE_01
10
0.0551181102
20
0.0590551181
0
VERTEX
8
PART_TOP_2DLINE_01
10
0.0472440945
20
0.0590551181
0
SEQEND
0
INSERT
2
SMOOTH_0$01
8
PART_TOP_2DLINE_01
10
0.0551181102
20
0.0511811024
0
INSERT
2
SMOOTH_0$01
8
PART_TOP_2DLINE_01
10
0.0551181102
20
0.0590551181
0
INSERT
2
SMOOTH_0$01
8
PART_TOP_2DLINE_01
10
0.0472440945
20
0.0590551181
0
ENDBLK
0
BLOCK
2
STK_TOP_10
8
0
10
0
20
0
3
STK_TOP_10
70
64
0
INSERT
2
DRIL_HOLE_0
8
DRIL_NPLTE_THRU_01
10
0
20
0
0
INSERT
2
DRIL_HOLE_0
8
DRIL_NPLTE_THRU_02
10
0
20
0
0
INSERT
2
DRIL_HOLE_0
8
DRIL_NPLTE_THRU_03
10
0
20
0
0
INSERT
2
DRIL_HOLE_0
8
DRIL_NPLTE_THRU_04
10
0
20
0
0
INSERT
2
PAD_0
8
PADS_INNER
10
0
20
0
0
INSERT
2
PAD_0
8
PADS_BOT
10
0
20
0
0
INSERT
2
PAD_7
8
PADS_XR_21
10
0
20
0
0
INSERT
2
PAD_7
8
PADS_XR_23
10
0
20
0
0
INSERT
2
PAD_7
8
PADS_TOP
10
0
20
0
0
ENDBLK
0
BLOCK
2
STK_TOP_11
8
0
10
0
20
0
3
STK_TOP_11
70
64
0
INSERT
2
DRIL_HOLE_0
8
DRIL_NPLTE_THRU_01
10
0
20
0
0
INSERT
2
DRIL_HOLE_0
8
DRIL_NPLTE_THRU_02
10
0
20
0
0
INSERT
2
DRIL_HOLE_0
8
DRIL_NPLTE_THRU_03
10
0
20
0
0
INSERT
2
DRIL_HOLE_0
8
DRIL_NPLTE_THRU_04
10
0
20
0
0
INSERT
2
PAD_0
8
PADS_INNER
10
0
20
0
0
INSERT
2
PAD_0
8
PADS_BOT
10
0
20
0
0
INSERT
2
PAD_7
8
PADS_XR_21
10
0
20
0
50
90
0
INSERT
2
PAD_7
8
PADS_XR_23
10
0
20
0
50
90
0
INSERT
2
PAD_7
8
PADS_TOP
10
0
20
0
50
90
0
ENDBLK
0
BLOCK
2
PART_BODY_TOP_112
8
0
10
0
20
0
3
PART_BODY_TOP_112
70
64
0
POLYLINE
8
PART_TOP_2DLINE_01
66
1
40
0.01
41
0.01
0
VERTEX
8
PART_TOP_2DLINE_01
10
-0.0511811024
20
0.0590551181
0
VERTEX
8
PART_TOP_2DLINE_01
10
-0.0590551181
20
0.0590551181
0
VERTEX
8
PART_TOP_2DLINE_01
10
-0.0590551181
20
0.0511811024
0
SEQEND
0
INSERT
2
SMOOTH_0$01
8
PART_TOP_2DLINE_01
10
-0.0511811024
20
0.0590551181
0
INSERT
2
SMOOTH_0$01
8
PART_TOP_2DLINE_01
10
-0.0590551181
20
0.0590551181
0
INSERT
2
SMOOTH_0$01
8
PART_TOP_2DLINE_01
10
-0.0590551181
20
0.0511811024
0
POLYLINE
8
PART_TOP_2DLINE_01
66
1
40
0.01
41
0.01
0
VERTEX
8
PART_TOP_2DLINE_01
10
-0.0590551181
20
-0.0511811024
0
VERTEX
8
PART_TOP_2DLINE_01
10
-0.0590551181
20
-0.0590551181
0
VERTEX
8
PART_TOP_2DLINE_01
10
-0.0511811024
20
-0.0590551181
0
SEQEND
0
INSERT
2
SMOOTH_0$01
8
PART_TOP_2DLINE_01
10
-0.0590551181
20
-0.0511811024
0
INSERT
2
SMOOTH_0$01
8
PART_TOP_2DLINE_01
10
-0.0590551181
20
-0.0590551181
0
INSERT
2
SMOOTH_0$01
8
PART_TOP_2DLINE_01
10
-0.0511811024
20
-0.0590551181
0
POLYLINE
8
PART_TOP_2DLINE_01
66
1
40
0.01
41
0.01
0
VERTEX
8
PART_TOP_2DLINE_01
10
0.0511811024
20
-0.0590551181
0
VERTEX
8
PART_TOP_2DLINE_01
10
0.0590551181
20
-0.0590551181
0
VERTEX
8
PART_TOP_2DLINE_01
10
0.0590551181
20
-0.0511811024
0
SEQEND
0
INSERT
2
SMOOTH_0$01
8
PART_TOP_2DLINE_01
10
0.0511811024
20
-0.0590551181
0
INSERT
2
SMOOTH_0$01
8
PART_TOP_2DLINE_01
10
0.0590551181
20
-0.0590551181
0
INSERT
2
SMOOTH_0$01
8
PART_TOP_2DLINE_01
10
0.0590551181
20
-0.0511811024
0
POLYLINE
8
PART_TOP_2DLINE_01
66
1
40
0.01
41
0.01
0
VERTEX
8
PART_TOP_2DLINE_01
10
0.0551181102
20
0.0511811024
0
VERTEX
8
PART_TOP_2DLINE_01
10
0.0551181102
20
0.0590551181
0
VERTEX
8
PART_TOP_2DLINE_01
10
0.0472440945
20
0.0590551181
0
SEQEND
0
INSERT
2
SMOOTH_0$01
8
PART_TOP_2DLINE_01
10
0.0551181102
20
0.0511811024
0
INSERT
2
SMOOTH_0$01
8
PART_TOP_2DLINE_01
10
0.0551181102
20
0.0590551181
0
INSERT
2
SMOOTH_0$01
8
PART_TOP_2DLINE_01
10
0.0472440945
20
0.0590551181
0
ENDBLK
0
BLOCK
2
STK_TOP_33
8
0
10
0
20
0
3
STK_TOP_33
70
64
0
INSERT
2
DRIL_HOLE_0
8
DRIL_NPLTE_THRU_01
10
0
20
0
0
INSERT
2
DRIL_HOLE_0
8
DRIL_NPLTE_THRU_02
10
0
20
0
0
INSERT
2
DRIL_HOLE_0
8
DRIL_NPLTE_THRU_03
10
0
20
0
0
INSERT
2
DRIL_HOLE_0
8
DRIL_NPLTE_THRU_04
10
0
20
0
0
INSERT
2
PAD_0
8
PADS_INNER
10
0
20
0
0
INSERT
2
PAD_0
8
PADS_BOT
10
0
20
0
0
INSERT
2
PAD_14
8
PADS_TOP
10
0
20
0
50
90
0
ENDBLK
0
BLOCK
2
STK_TOP_34
8
0
10
0
20
0
3
STK_TOP_34
70
64
0
INSERT
2
DRIL_HOLE_0
8
DRIL_NPLTE_THRU_01
10
0
20
0
0
INSERT
2
DRIL_HOLE_0
8
DRIL_NPLTE_THRU_02
10
0
20
0
0
INSERT
2
DRIL_HOLE_0
8
DRIL_NPLTE_THRU_03
10
0
20
0
0
INSERT
2
DRIL_HOLE_0
8
DRIL_NPLTE_THRU_04
10
0
20
0
0
INSERT
2
PAD_0
8
PADS_INNER
10
0
20
0
0
INSERT
2
PAD_0
8
PADS_BOT
10
0
20
0
0
INSERT
2
PAD_14
8
PADS_XR_21
10
0
20
0
0
INSERT
2
PAD_14
8
PADS_XR_23
10
0
20
0
0
INSERT
2
PAD_14
8
PADS_TOP
10
0
20
0
0
ENDBLK
0
BLOCK
2
STK_TOP_35
8
0
10
0
20
0
3
STK_TOP_35
70
64
0
INSERT
2
DRIL_HOLE_0
8
DRIL_NPLTE_THRU_01
10
0
20
0
0
INSERT
2
DRIL_HOLE_0
8
DRIL_NPLTE_THRU_02
10
0
20
0
0
INSERT
2
DRIL_HOLE_0
8
DRIL_NPLTE_THRU_03
10
0
20
0
0
INSERT
2
DRIL_HOLE_0
8
DRIL_NPLTE_THRU_04
10
0
20
0
0
INSERT
2
PAD_0
8
PADS_INNER
10
0
20
0
0
INSERT
2
PAD_0
8
PADS_BOT
10
0
20
0
0
INSERT
2
PAD_14
8
PADS_XR_21
10
0
20
0
0
INSERT
2
PAD_14
8
PADS_XR_23
10
0
20
0
0
INSERT
2
PAD_14
8
PADS_TOP
10
0
20
0
50
90
0
ENDBLK
0
BLOCK
2
STK_TOP_36
8
0
10
0
20
0
3
STK_TOP_36
70
64
0
INSERT
2
DRIL_HOLE_0
8
DRIL_NPLTE_THRU_01
10
0
20
0
0
INSERT
2
DRIL_HOLE_0
8
DRIL_NPLTE_THRU_02
10
0
20
0
0
INSERT
2
DRIL_HOLE_0
8
DRIL_NPLTE_THRU_03
10
0
20
0
0
INSERT
2
DRIL_HOLE_0
8
DRIL_NPLTE_THRU_04
10
0
20
0
0
INSERT
2
PAD_0
8
PADS_INNER
10
0
20
0
0
INSERT
2
PAD_0
8
PADS_BOT
10
0
20
0
0
INSERT
2
PAD_14
8
PADS_TOP
10
0
20
0
0
ENDBLK
999
*** POWERPCB  PCB PARAMETER ***
0
BLOCK
2
PCB_PARAMS
8
0
10
0
20
0
3
PCB_PARAMS
70
64
999
 *  1.Job name           2.Backupfile name       3.CursorType
999
 *  4.TearDropFlag       5.HighlighNetsFlag      6.HatchDisplayFlag
999
 *  7.PadsFlag           8.TracksFlag            9.ViasFlag
999
 * 10.CopperFlag        11.LinesFlag            12.TextFlag
999
 * 13.TopComponentFlag  14.BottomComponentFlag  16.ObjectSnapFlags
0
TEXT
8
PCB_PARAMS
10
0
20
-0.12
40
0.07
1
A:=MMSP_L_1.pcb <> 3 0 0 1 1 0 1 0 1 1 1 1 0 510 0
999
 *  1.RefDesHeight       2.RefDesWidth           3.DefaultWidth
999
 *  4.VGX                5.VGY                   6.OVR
999
 *  7.HatchGrid          8.ObjectSnapRadius
0
TEXT
8
PCB_PARAMS
10
0
20
-0.24
40
0.07
1
B:=0.1 0.01 0.0078740157 0.0019685039 0.0019685039 0.003 0.0003937008 0.0019685039
999
 *  1.ScaleFactor        2.NetAttributeFlags     3.BackupInterval
999
 *  4.WorkingLevel       5.HatchMode             6.HatchDirection
999
 *  7.ConnectionColor    8.BackgroundColor       9.ForegroundColor
999
 * 10.BoardOutlineColor
0
TEXT
8
PCB_PARAMS
10
0
20
-0.36
40
0.07
1
C:=7.0760135651 10002 20 4 0 0 8 0 1 1
999
 * MitreAngle0 - MitreAngle6
0
TEXT
8
PCB_PARAMS
10
0
20
-0.48
40
0.07
1
D:=324000000 324000000 324000000 324000000 324000000 324000000 162000000
999
 * Hatch & Keepout Parameters
0
TEXT
8
PCB_PARAMS
10
0
20
-0.6
40
0.07
1
E:=0.5 0 0 0.0039370079 0 1
999
 * Fanout Parameters
0
TEXT
8
PCB_PARAMS
10
0
20
-0.72
40
0.07
1
F:=0.0019685039 0.0019685039 0.25 1 2 0 1 1 0 0 1 1 1 1
999
 * Pad Entry Parameters
0
TEXT
8
PCB_PARAMS
10
0
20
-0.84
40
0.07
1
P:= 1 1 1 1
999
 * DFF Parameters
0
TEXT
8
PCB_PARAMS
10
0
20
-0.96
40
0.07
1
Q:=89.9999 3967 114300 114300 114300 5 4 114300 114300 114300 114300 1 114300 1 114300 1 114300 0
0
ENDBLK
0
BLOCK
2
DRIL_SYMBOL_0
8
0
10
0
20
0
3
DRIL_SYMBOL_0
70
64
0
ENDBLK
0
BLOCK
2
DRIL_SYMBOL_0$1614173228
8
0
10
0
20
0
3
DRIL_SYMBOL_0$1614173228
70
64
0
POLYLINE
8
DRIL_SYMBOL
66
1
40
0.002
41
0.002
0
VERTEX
8
DRIL_SYMBOL
10
0
20
-0.01
0
VERTEX
8
DRIL_SYMBOL
10
0
20
0.01
0
SEQEND
0
POLYLINE
8
DRIL_SYMBOL
66
1
40
0.002
41
0.002
0
VERTEX
8
DRIL_SYMBOL
10
-0.01
20
0
0
VERTEX
8
DRIL_SYMBOL
10
0.01
20
0
0
SEQEND
0
ENDBLK
0
BLOCK
2
DRIL_SYMBOL_0$015
8
0
10
0
20
0
3
DRIL_SYMBOL_0$015
70
64
0
POLYLINE
8
DRIL_SYMBOL
66
1
40
0.002
41
0.002
0
VERTEX
8
DRIL_SYMBOL
10
0
20
-0.01
0
VERTEX
8
DRIL_SYMBOL
10
0
20
0.01
0
SEQEND
0
POLYLINE
8
DRIL_SYMBOL
66
1
40
0.002
41
0.002
0
VERTEX
8
DRIL_SYMBOL
10
-0.01
20
0
0
VERTEX
8
DRIL_SYMBOL
10
0.01
20
0
0
SEQEND
0
ENDBLK
0
BLOCK
2
DRIL_SYMBOL_0$0196850394
8
0
10
0
20
0
3
DRIL_SYMBOL_0$0196850394
70
64
0
POLYLINE
8
DRIL_SYMBOL
66
1
40
0.002
41
0.002
0
VERTEX
8
DRIL_SYMBOL
10
0
20
-0.01
0
VERTEX
8
DRIL_SYMBOL
10
0
20
0.01
0
SEQEND
0
POLYLINE
8
DRIL_SYMBOL
66
1
40
0.002
41
0.002
0
VERTEX
8
DRIL_SYMBOL
10
-0.01
20
0
0
VERTEX
8
DRIL_SYMBOL
10
0.01
20
0
0
SEQEND
0
ENDBLK
999
*** POWERPCB  SMOOTH CIRCLE ***
0
BLOCK
2
SMOOTH_0$001
8
0
10
0
20
0
3
SMOOTH_0$001
70
64
0
POLYLINE
8
0
66
1
40
0.0005
41
0.0005
70
1
0
VERTEX
8
0
10
-0.00025
20
0
42
1
0
VERTEX
8
0
10
0.00025
20
0
42
1
0
SEQEND
0
ENDBLK
0
BLOCK
2
SMOOTH_0$0039370079
8
0
10
0
20
0
3
SMOOTH_0$0039370079
70
64
0
POLYLINE
8
0
66
1
40
0.0019685039
41
0.0019685039
70
1
0
VERTEX
8
0
10
-0.000984252
20
0
42
1
0
VERTEX
8
0
10
0.000984252
20
0
42
1
0
SEQEND
0
ENDBLK
0
BLOCK
2
SMOOTH_0$004
8
0
10
0
20
0
3
SMOOTH_0$004
70
64
0
POLYLINE
8
0
66
1
40
0.002
41
0.002
70
1
0
VERTEX
8
0
10
-0.001
20
0
42
1
0
VERTEX
8
0
10
0.001
20
0
42
1
0
SEQEND
0
ENDBLK
0
BLOCK
2
SMOOTH_0$01
8
0
10
0
20
0
3
SMOOTH_0$01
70
64
0
POLYLINE
8
0
66
1
40
0.005
41
0.005
70
1
0
VERTEX
8
0
10
-0.0025
20
0
42
1
0
VERTEX
8
0
10
0.0025
20
0
42
1
0
SEQEND
0
ENDBLK
0
BLOCK
2
SMOOTH_0$0078740157
8
0
10
0
20
0
3
SMOOTH_0$0078740157
70
64
0
POLYLINE
8
0
66
1
40
0.0039370079
41
0.0039370079
70
1
0
VERTEX
8
0
10
-0.0019685039
20
0
42
1
0
VERTEX
8
0
10
0.0019685039
20
0
42
1
0
SEQEND
0
ENDBLK
0
BLOCK
2
PAD_0
8
0
10
0
20
0
3
PAD_0
70
64
0
POLYLINE
8
0
70
1
66
1
0
VERTEX
8
0
10
0
20
0
42
1
0
VERTEX
8
0
10
0
20
0
42
1
0
SEQEND
0
ENDBLK
0
BLOCK
2
PAD_1
8
0
10
0
20
0
3
PAD_1
70
64
0
POLYLINE
8
0
66
1
40
0.02
41
0.02
0
VERTEX
8
0
10
-0.0125
20
0
0
VERTEX
8
0
10
0.0125
20
0
0
SEQEND
0
ENDBLK
0
BLOCK
2
PAD_2
8
0
10
0
20
0
3
PAD_2
70
64
0
POLYLINE
8
0
66
1
40
0.024
41
0.024
0
VERTEX
8
0
10
-0.0175
20
0
0
VERTEX
8
0
10
0.0175
20
0
0
SEQEND
0
ENDBLK
0
BLOCK
2
PAD_3
8
0
10
0
20
0
3
PAD_3
70
64
0
POLYLINE
8
0
70
1
66
1
0
VERTEX
8
0
10
0
20
-0.0275590551
42
1
0
VERTEX
8
0
10
0
20
0.0275590551
42
1
0
SEQEND
0
POLYLINE
8
0
70
1
66
1
0
VERTEX
8
0
10
0
20
-0.0334645669
42
1
0
VERTEX
8
0
10
0
20
0.0334645669
42
1
0
SEQEND
0
POLYLINE
8
0
66
1
40
0.0157480315
41
0.0157480315
0
VERTEX
8
0
10
0.0194871916
20
0.0194871916
0
VERTEX
8
0
10
0.0236630184
20
0.0236630184
0
SEQEND
0
POLYLINE
8
0
66
1
40
0.0157480315
41
0.0157480315
0
VERTEX
8
0
10
-0.0194871916
20
0.0194871916
0
VERTEX
8
0
10
-0.0236630184
20
0.0236630184
0
SEQEND
0
POLYLINE
8
0
66
1
40
0.0157480315
41
0.0157480315
0
VERTEX
8
0
10
-0.0194871916
20
-0.0194871916
0
VERTEX
8
0
10
-0.0236630184
20
-0.0236630184
0
SEQEND
0
POLYLINE
8
0
66
1
40
0.0157480315
41
0.0157480315
0
VERTEX
8
0
10
0.0194871916
20
-0.0194871916
0
VERTEX
8
0
10
0.0236630184
20
-0.0236630184
0
SEQEND
0
ENDBLK
0
BLOCK
2
PAD_4
8
0
10
0
20
0
3
PAD_4
70
64
0
POLYLINE
8
0
70
1
66
1
0
VERTEX
8
0
10
0
20
-0.0334645669
42
1
0
VERTEX
8
0
10
0
20
0.0334645669
42
1
0
SEQEND
0
ENDBLK
0
BLOCK
2
PAD_5
8
0
10
0
20
0
3
PAD_5
70
64
0
POLYLINE
8
0
70
1
66
1
40
0.0787401575
41
0.0787401575
0
VERTEX
8
0
10
0
20
-0.0393700787
42
1
0
VERTEX
8
0
10
0
20
0.0393700787
42
1
0
SEQEND
0
ENDBLK
0
BLOCK
2
PAD_6
8
0
10
0
20
0
3
PAD_6
70
64
0
POLYLINE
8
0
70
1
66
1
40
0.025
41
0.025
0
VERTEX
8
0
10
0
20
-0.0125
42
1
0
VERTEX
8
0
10
0
20
0.0125
42
1
0
SEQEND
0
ENDBLK
0
BLOCK
2
PAD_7
8
0
10
0
20
0
3
PAD_7
70
64
0
POLYLINE
8
0
66
1
40
0.0098425197
41
0.0098425197
0
VERTEX
8
0
10
-0.0068897638
20
0
0
VERTEX
8
0
10
0.0068897638
20
0
0
SEQEND
0
ENDBLK
0
BLOCK
2
PAD_8
8
0
10
0
20
0
3
PAD_8
70
64
0
POLYLINE
8
0
66
1
40
0.0118110236
41
0.0118110236
0
VERTEX
8
0
10
-0.0078740157
20
0
0
VERTEX
8
0
10
0.0078740157
20
0
0
SEQEND
0
ENDBLK
0
BLOCK
2
PAD_9
8
0
10
0
20
0
3
PAD_9
70
64
0
POLYLINE
8
0
70
1
66
1
40
0.0059055118
41
0.0059055118
0
VERTEX
8
0
10
-0.0078740157
20
-0.0029527559
0
VERTEX
8
0
10
0.0078740157
20
-0.0029527559
42
1
0
VERTEX
8
0
10
0.0078740157
20
0.0029527559
0
VERTEX
8
0
10
-0.0078740157
20
0.0029527559
42
1
0
SEQEND
0
ENDBLK
0
BLOCK
2
PAD_10
8
0
10
0
20
0
3
PAD_10
70
64
0
POLYLINE
8
0
66
1
0
VERTEX
8
0
10
0
20
0
0
VERTEX
8
0
10
0
20
0
0
SEQEND
0
ENDBLK
0
BLOCK
2
PAD_11
8
0
10
0
20
0
3
PAD_11
70
64
0
POLYLINE
8
0
70
1
66
1
40
0.0137795276
41
0.0137795276
0
VERTEX
8
0
10
0
20
-0.0068897638
42
1
0
VERTEX
8
0
10
0
20
0.0068897638
42
1
0
SEQEND
0
ENDBLK
0
BLOCK
2
PAD_12
8
0
10
0
20
0
3
PAD_12
70
64
0
POLYLINE
8
0
66
1
40
0.0866141732
41
0.0866141732
0
VERTEX
8
0
10
-0.0433070866
20
0
0
VERTEX
8
0
10
0.0433070866
20
0
0
SEQEND
0
ENDBLK
0
BLOCK
2
PAD_13
8
0
10
0
20
0
3
PAD_13
70
64
0
POLYLINE
8
0
66
1
40
0.0866141732
41
0.0866141732
0
VERTEX
8
0
10
-0.0433070866
20
0
0
VERTEX
8
0
10
0.0433070866
20
0
0
SEQEND
0
ENDBLK
0
BLOCK
2
PAD_14
8
0
10
0
20
0
3
PAD_14
70
64
0
POLYLINE
8
0
66
1
40
0.0098425197
41
0.0098425197
0
VERTEX
8
0
10
-0.0078740157
20
0
0
VERTEX
8
0
10
0.0078740157
20
0
0
SEQEND
0
ENDBLK
0
BLOCK
2
PAD_15
8
0
10
0
20
0
3
PAD_15
70
64
0
POLYLINE
8
0
70
1
66
1
40
0.0393700787
41
0.0393700787
0
VERTEX
8
0
10
0
20
-0.0196850394
42
1
0
VERTEX
8
0
10
0
20
0.0196850394
42
1
0
SEQEND
0
ENDBLK
0
BLOCK
2
PAD_16
8
0
10
0
20
0
3
PAD_16
70
64
0
POLYLINE
8
0
70
1
66
1
40
0.015
41
0.015
0
VERTEX
8
0
10
-0.02
20
-0.0075
0
VERTEX
8
0
10
0.02
20
-0.0075
42
1
0
VERTEX
8
0
10
0.02
20
0.0075
0
VERTEX
8
0
10
-0.02
20
0.0075
42
1
0
SEQEND
0
ENDBLK
0
BLOCK
2
PAD_17
8
0
10
0
20
0
3
PAD_17
70
64
0
POLYLINE
8
0
70
1
66
1
40
0.015
41
0.015
0
VERTEX
8
0
10
-0.015
20
-0.0075
0
VERTEX
8
0
10
0.015
20
-0.0075
42
1
0
VERTEX
8
0
10
0.015
20
0.0075
0
VERTEX
8
0
10
-0.015
20
0.0075
42
1
0
SEQEND
0
ENDBLK
0
BLOCK
2
PAD_18
8
0
10
0
20
0
3
PAD_18
70
64
0
POLYLINE
8
0
70
1
66
1
40
0.0295275591
41
0.0295275591
0
VERTEX
8
0
10
0
20
-0.0147637795
42
1
0
VERTEX
8
0
10
0
20
0.0147637795
42
1
0
SEQEND
0
ENDBLK
0
BLOCK
2
PAD_19
8
0
10
0
20
0
3
PAD_19
70
64
0
POLYLINE
8
0
66
1
40
0.0590551181
41
0.0590551181
0
VERTEX
8
0
10
-0.0590551181
20
0
0
VERTEX
8
0
10
0.0590551181
20
0
0
SEQEND
0
ENDBLK
0
BLOCK
2
PAD_20
8
0
10
0
20
0
3
PAD_20
70
64
0
POLYLINE
8
0
70
1
66
1
40
0.0984251969
41
0.0984251969
0
VERTEX
8
0
10
0
20
-0.0492125984
42
1
0
VERTEX
8
0
10
0
20
0.0492125984
42
1
0
SEQEND
0
ENDBLK
999
*** POWERPCB  DRILL HOLE ***
0
BLOCK
2
DRIL_HOLE_0
8
0
10
0
20
0
3
DRIL_HOLE_0
70
64
0
POLYLINE
8
0
66
1
70
1
0
VERTEX
8
0
10
0
20
0
42
1
0
VERTEX
8
0
10
0
20
0
42
1
0
SEQEND
0
INSERT
2
DRIL_SYMBOL_0
8
0
10
0
20
0
0
ENDBLK
0
BLOCK
2
DRIL_HOLE_0$1614173228
8
0
10
0
20
0
3
DRIL_HOLE_0$1614173228
70
64
0
POLYLINE
8
0
66
1
40
0.0807086614
41
0.0807086614
70
1
0
VERTEX
8
0
10
-0.0403543307
20
0
42
1
0
VERTEX
8
0
10
0.0403543307
20
0
42
1
0
SEQEND
0
INSERT
2
DRIL_SYMBOL_0$1614173228
8
0
10
0
20
0
0
ENDBLK
0
BLOCK
2
DRIL_HOLE_0$015
8
0
10
0
20
0
3
DRIL_HOLE_0$015
70
64
0
POLYLINE
8
0
66
1
40
0.0075
41
0.0075
70
1
0
VERTEX
8
0
10
-0.00375
20
0
42
1
0
VERTEX
8
0
10
0.00375
20
0
42
1
0
SEQEND
0
INSERT
2
DRIL_SYMBOL_0$015
8
0
10
0
20
0
0
ENDBLK
0
BLOCK
2
DRIL_HOLE_0$0196850394
8
0
10
0
20
0
3
DRIL_HOLE_0$0196850394
70
64
0
POLYLINE
8
0
66
1
40
0.0098425197
41
0.0098425197
70
1
0
VERTEX
8
0
10
-0.0049212598
20
0
42
1
0
VERTEX
8
0
10
0.0049212598
20
0
42
1
0
SEQEND
0
INSERT
2
DRIL_SYMBOL_0$0196850394
8
0
10
0
20
0
0
ENDBLK
0
ENDSEC
0
SECTION
2
ENTITIES
999
*** POWERPCB  DBLAYER ***
0
INSERT
2
DBLAYERS
8
0
10
0
20
0
999
*** POWERPCB  BOARD ***
0
INSERT
2
BOARD_109
8
0
10
0.8
20
-1.3
999
*** POWERPCB  2DLINE ***
0
INSERT
2
DRAWING_117
8
0
10
-1.5255905512
20
-2.3188976378
0
INSERT
2
DRAWING_118
8
0
10
-1.094488189
20
1.061023622
0
INSERT
2
DRAWING_119
8
0
10
3.3248031496
20
-2.7480314961
0
INSERT
2
D_1dfeghi_121
8
0
10
-0.3385826772
20
0.8720472441
0
INSERT
2
D_2dfeghi_122
8
0
10
-0.9035433071
20
-1.8169291339
999
*** POWERPCB  COMPONENT ***
0
INSERT
2
PART_BOT_0
8
0
10
1.2583712598
20
-0.5932547244
50
-330
41
-1
0
INSERT
2
PART_BOT_1
8
0
10
1.3897637795
20
-1.1141732283
41
-1
0
INSERT
2
PART_BOT_2
8
0
10
1.8901360105
20
-0.5257713386
41
-1
0
INSERT
2
PART_BOT_3
8
0
10
1.8960296063
20
-0.5765497113
50
-90
41
-1
0
INSERT
2
PART_BOT_4
8
0
10
0.8523622047
20
0.0413385827
41
-1
0
INSERT
2
PART_BOT_5
8
0
10
0.8266615748
20
-0.0254274541
50
-90
41
-1
0
INSERT
2
PART_BOT_6
8
0
10
1.7041504462
20
-1.2288725722
41
-1
0
INSERT
2
PART_BOT_7
8
0
10
1.6820991076
20
-0.9910056693
50
-90
41
-1
0
INSERT
2
PART_BOT_8
8
0
10
1.6532497113
20
-0.9916195013
50
-90
41
-1
0
INSERT
2
PART_BOT_9
8
0
10
1.5592896588
20
-1.1282066142
41
-1
0
INSERT
2
PART_BOT_10
8
0
10
1.6003937008
20
0.0098425197
50
-90
41
-1
0
INSERT
2
PART_BOT_11
8
0
10
1.6220472441
20
0.0787401575
41
-1
0
INSERT
2
PART_BOT_12
8
0
10
1.6377952756
20
0.0118110236
50
-90
41
-1
0
INSERT
2
PART_BOT_13
8
0
10
1.2171213386
20
-0.6347179265
50
-240
41
-1
0
INSERT
2
PART_BOT_14
8
0
10
1.2716535433
20
-0.6220472441
50
-330
41
-1
0
INSERT
2
PART_BOT_15
8
0
10
1.867873937
20
-0.5764793438
50
-90
41
-1
0
INSERT
2
PART_BOT_16
8
0
10
0.8564049344
20
-0.0243458793
50
-90
41
-1
0
INSERT
2
PART_BOT_17
8
0
10
1.3996972966
20
-1.2742950656
50
-180
41
-1
0
INSERT
2
PART_BOT_18
8
0
10
1.3897637795
20
-1.0865514173
50
-180
41
-1
0
INSERT
2
PART_BOT_19
8
0
10
1.7097208399
20
-0.991005643
50
-90
41
-1
0
INSERT
2
PART_TOP_20
8
0
10
1.2598425197
20
-0.1377952756
0
INSERT
2
PART_TOP_21
8
0
10
1.5748031496
20
-1.1614173228
0
INSERT
2
PART_TOP_22
8
0
10
1.6535433071
20
0
0
INSERT
2
PART_TOP_23
8
0
10
1.3779527559
20
-1.1417322835
0
INSERT
2
PART_TOP_24
8
0
10
1.062992126
20
0.2362204724
0
INSERT
2
PART_TOP_25
8
0
10
1.2992125984
20
-0.7677165354
0
INSERT
2
PART_TOP_26
8
0
10
1.2598425197
20
0.2362204724
0
INSERT
2
PART_TOP_27
8
0
10
1.1023622047
20
-0.9645669291
0
INSERT
2
PART_TOP_28
8
0
10
1.4566929134
20
0.2362204724
0
INSERT
2
PART_TOP_29
8
0
10
1.1023622047
20
-0.7677165354
0
INSERT
2
PART_TOP_30
8
0
10
1.6535433071
20
0.2165354331
0
INSERT
2
PART_TOP_31
8
0
10
1.4960629921
20
-0.7677165354
0
INSERT
2
PART_TOP_32
8
0
10
1.1023622047
20
-0.5708661417
0
INSERT
2
PART_TOP_33
8
0
10
1.8503937008
20
0.1771653543
0
INSERT
2
PART_TOP_34
8
0
10
1.2992125984
20
-0.5708661417
0
INSERT
2
PART_TOP_35
8
0
10
0.8464566929
20
-0.157480315
0
INSERT
2
PART_TOP_36
8
0
10
1.8700787402
20
-0.7086614173
0
INSERT
2
PART_TOP_37
8
0
10
1.4960629921
20
-0.5511811024
0
INSERT
2
PART_TOP_38
8
0
10
0.5708661417
20
-0.1377952756
0
INSERT
2
PART_TOP_39
8
0
10
1.2598425197
20
-0.3543307087
0
INSERT
2
PART_TOP_40
8
0
10
1.2598425197
20
0.0393700787
0
INSERT
2
PART_TOP_41
8
0
10
0.4527559055
20
0.0393700787
0
INSERT
2
PART_TOP_42
8
0
10
0.2559055118
20
0.0393700787
0
INSERT
2
PART_TOP_43
8
0
10
1.062992126
20
-0.3543307087
0
INSERT
2
PART_TOP_44
8
0
10
1.4566929134
20
-0.3543307087
0
INSERT
2
PART_TOP_45
8
0
10
0.2559055118
20
0.2362204724
0
INSERT
2
PART_TOP_46
8
0
10
0.0590551181
20
0.2559055118
0
INSERT
2
PART_TOP_47
8
0
10
0.4527559055
20
0.2362204724
0
INSERT
2
PART_TOP_48
8
0
10
1.4763779528
20
-0.1771653543
0
INSERT
2
PART_TOP_49
8
0
10
1.6929133858
20
-0.6299212598
0
INSERT
2
PART_TOP_50
8
0
10
1.6535433071
20
-0.4133858268
0
INSERT
2
PART_TOP_51
8
0
10
1.4960629921
20
-0.9645669291
0
INSERT
2
PART_TOP_52
8
0
10
0.6496062992
20
0.2362204724
0
INSERT
2
PART_TOP_53
8
0
10
0.6496062992
20
0.0393700787
0
INSERT
2
PART_TOP_54
8
0
10
0.8464566929
20
0.2362204724
0
INSERT
2
PART_TOP_55
8
0
10
1.6535433071
20
-0.2165354331
0
INSERT
2
PART_TOP_56
8
0
10
1.8307086614
20
-0.3149606299
0
INSERT
2
PART_TOP_57
8
0
10
1.8503937008
20
-0.5118110236
0
INSERT
2
PART_TOP_58
8
0
10
0.8464566929
20
0.0393700787
0
INSERT
2
PART_TOP_59
8
0
10
1.062992126
20
-0.1377952756
0
INSERT
2
PART_TOP_60
8
0
10
1.2992125984
20
-0.9645669291
0
INSERT
2
PART_TOP_61
8
0
10
1.062992126
20
0.0393700787
0
INSERT
2
PART_TOP_62
8
0
10
1.6929133858
20
-1.0236220472
0
INSERT
2
PART_TOP_63
8
0
10
1.4566929134
20
0.0393700787
0
INSERT
2
PART_BOT_64
8
0
10
1.5639381627
20
-1.0336704987
50
-90
41
-1
0
INSERT
2
PART_BOT_65
8
0
10
1.4937472703
20
-0.9550409711
50
-180
41
-1
0
INSERT
2
PART_BOT_66
8
0
10
1.5942772178
20
-1.1269789764
50
-270
41
-1
0
INSERT
2
PART_BOT_67
8
0
10
1.3605973753
20
0.3118468241
41
-1
0
INSERT
2
PART_BOT_68
8
0
10
1.1948818898
20
-0.6653543307
41
-1
0
INSERT
2
PART_BOT_69
8
0
10
1.968503937
20
-0.4133858268
41
-1
0
INSERT
2
PART_BOT_70
8
0
10
0.9282151444
20
0.1345811811
41
-1
0
INSERT
2
PART_BOT_71
8
0
10
1.3992053281
20
-1.1945007612
41
-1
0
INSERT
2
PART_BOT_72
8
0
10
1.6853543307
20
-1.1325984252
41
-1
0
INSERT
2
PART_BOT_73
8
0
10
1.2889811024
20
-0.7561913386
50
-150
41
-1
0
INSERT
2
PART_BOT_74
8
0
10
1.4722818898
20
0.0471545144
50
-270
41
-1
0
INSERT
2
PART_BOT_75
8
0
10
1.7440944882
20
-0.5354330709
50
-270
41
-1
0
INSERT
2
PART_BOT_76
8
0
10
0.688976378
20
0
50
-270
41
-1
0
INSERT
2
PART_BOT_77
8
0
10
1.4892233333
20
-1.0166591601
50
-270
41
-1
0
INSERT
2
PART_TOP_78
8
0
10
1.4625984252
20
-1.2795275591
0
INSERT
2
PART_TOP_79
8
0
10
2.0354330709
20
0.157480315
0
INSERT
2
PART_TOP_80
8
0
10
0.374015748
20
-0.0787401575
0
INSERT
2
PART_TOP_81
8
0
10
1.7125984252
20
-0.7874015748
0
INSERT
2
PART_TOP_82
8
0
10
0.0590551181
20
-0.0019685039
0
INSERT
2
PART_TOP_83
8
0
10
1.9507874016
20
-0.1043307087
0
INSERT
2
PART_TOP_84
8
0
10
1.1377952756
20
-1.2145669291
0
INSERT
2
PART_BOT_85
8
0
10
0.9763779528
20
-1.0413385827
50
-207.646
41
-1
0
INSERT
2
PART_BOT_86
8
0
10
1.2521404987
20
-1.0913550394
50
-270
41
-1
0
INSERT
2
PART_BOT_87
8
0
10
1.2791923885
20
-1.091566378
50
-270
41
-1
0
INSERT
2
PART_BOT_88
8
0
10
1.4940944882
20
-1.1771653543
50
-180
41
-1
0
INSERT
2
PART_BOT_89
8
0
10
1.3897637795
20
-1.0570866142
41
-1
999
*** POWERPCB  PCB PARAMETER ***
0
INSERT
2
PCB_PARAMS
8
0
10
0
20
0
0
ENDSEC
0
EOF
