*
%LPD*%
%LN2FOC-PMT*%
%FSLAX24Y24*%
%MOIN*%
%SRX1Y1I0.0J0.0*%
%AD*%
%ADD13C,0.010000*%
%ADD14C,0.006000*%
%ADD25R,0.024000X0.035000*%
%ADD26R,0.035000X0.024000*%
%ADD27C,0.040000*%
%ADD30R,0.021650X0.021650*%
%ADD31R,0.052000X0.060000*%
%ADD32R,0.160000X0.076000*%
%ADD33R,0.032000X0.032000*%
%ADD34R,0.079920X0.125200*%
%ADD35R,0.029920X0.055120*%
%ADD37R,0.060000X0.052000*%
%ADD38R,0.031500X0.011810*%
%ADD39R,0.029530X0.047240*%
%ADD40R,0.106000X0.063000*%
%ADD41R,0.063000X0.106000*%
%ADD42R,0.019690X0.019690*%
%ADD43R,0.048030X0.035830*%
%ADD44R,0.035830X0.048030*%
%ADD45R,0.051180X0.035430*%
%ADD46R,0.015750X0.023620*%
%ADD48R,0.020870X0.041340*%
%ADD49C,0.050000*%
%ADD50R,0.062990X0.027560*%
%ADD51R,0.118110X0.082680*%
%ADD52R,0.027560X0.062990*%
%ADD53R,0.082680X0.118110*%
%ADD56C,0.009130*%
G54D13*
G1X5689Y10087D2*
G1X28523Y10087D1*
G1X28523Y26622D1*
G1X5689Y26622D1*
G1X5689Y10087D1*
G1X11729Y26620D2*
G75*
G3X11730Y27420I17J400D1*
G74*
G1X13453Y27415D2*
G75*
G3X13452Y26615I-17J-400D1*
G74*
G1X20824Y26616D2*
G75*
G3X20825Y27416I17J400D1*
G74*
G1X22490Y27422D2*
G75*
G3X22489Y26622I-17J-400D1*
G74*
G1X11751Y9287D2*
G75*
G3X11752Y10064I16J388D1*
G74*
G1X13473Y10075D2*
G75*
G3X13472Y9296I-16J-390D1*
G74*
G1X20797Y9292D2*
G75*
G3X20797Y10068I15J388D1*
G74*
G1X22505Y10071D2*
G75*
G3X22504Y9292I-16J-390D1*
G74*
G1X29305Y12527D2*
G75*
G3X28529Y12528I-388J16D1*
G74*
G1X28530Y14263D2*
G75*
G3X29309Y14262I390J-16D1*
G74*
G1X5682Y29383D2*
G1X52139Y29383D1*
G1X52139Y27415D1*
G1X5682Y27415D1*
G1X5682Y29383D1*
G1X29304Y10092D2*
G1X52139Y10092D1*
G1X52139Y26627D1*
G1X29304Y26627D1*
G1X29304Y10092D1*
G1X5682Y9304D2*
G1X52139Y9304D1*
G1X52139Y7336D1*
G1X5682Y7336D1*
G1X5682Y9304D1*
G1X29304Y22409D2*
G75*
G3X28528Y22410I-388J16D1*
G74*
G1X28530Y24125D2*
G75*
G3X29309Y24124I390J-16D1*
G74*
G1X37050Y27414D2*
G75*
G3X37049Y26614I-17J-400D1*
G74*
G1X35278Y26617D2*
G75*
G3X35279Y27417I17J400D1*
G74*
G1X44328Y26617D2*
G75*
G3X44329Y27417I17J400D1*
G74*
G1X46098Y27426D2*
G75*
G3X46097Y26626I-17J-400D1*
G74*
G1X46114Y10066D2*
G75*
G3X46114Y9287I-16J-390D1*
G74*
G1X44341Y9311D2*
G75*
G3X44341Y10087I16J388D1*
G74*
G1X37019Y10085D2*
G75*
G3X37018Y9306I-16J-390D1*
G74*
G1X35329Y9303D2*
G75*
G3X35330Y10080I16J388D1*
G74*
G1X11909Y20467D2*
G54D14*
G1X11909Y20650D1*
G1X11707Y20650D1*
G1X11707Y20467D1*
G1X11909Y20467D1*
G1X11909Y19967D2*
G1X11909Y20150D1*
G1X11707Y20150D1*
G1X11707Y19967D1*
G1X11909Y19967D1*
G1X11459Y20467D2*
G1X11459Y20650D1*
G1X11257Y20650D1*
G1X11257Y20467D1*
G1X11459Y20467D1*
G1X11459Y19967D2*
G1X11459Y20150D1*
G1X11257Y20150D1*
G1X11257Y19967D1*
G1X11459Y19967D1*
G1X11756Y20467D2*
G1X11909Y20619D1*
G1X11833Y20467D2*
G1X11909Y20543D1*
G1X11707Y20494D2*
G1X11864Y20650D1*
G1X11707Y20570D2*
G1X11787Y20650D1*
G1X11707Y20647D2*
G1X11711Y20650D1*
G1X11756Y19967D2*
G1X11909Y20119D1*
G1X11833Y19967D2*
G1X11909Y20043D1*
G1X11707Y19994D2*
G1X11864Y20150D1*
G1X11707Y20070D2*
G1X11787Y20150D1*
G1X11707Y20147D2*
G1X11711Y20150D1*
G1X11306Y20467D2*
G1X11459Y20619D1*
G1X11383Y20467D2*
G1X11459Y20543D1*
G1X11257Y20494D2*
G1X11414Y20650D1*
G1X11257Y20570D2*
G1X11337Y20650D1*
G1X11257Y20647D2*
G1X11261Y20650D1*
G1X11306Y19967D2*
G1X11459Y20119D1*
G1X11383Y19967D2*
G1X11459Y20043D1*
G1X11257Y19994D2*
G1X11414Y20150D1*
G1X11257Y20070D2*
G1X11337Y20150D1*
G1X11257Y20147D2*
G1X11261Y20150D1*
G54D25*
G1X8858Y23236D3*
G1X8543Y23236D3*
G1X8606Y14811D3*
G1X8126Y14811D3*
G1X11559Y14811D3*
G1X11079Y14811D3*
G1X14551Y15284D3*
G1X14071Y15284D3*
G1X8819Y15992D3*
G1X9299Y15992D3*
G1X11748Y16473D3*
G1X12228Y16473D3*
G1X14661Y16473D3*
G1X15141Y16473D3*
G1X14661Y15992D3*
G1X15141Y15992D3*
G1X8606Y15284D3*
G1X8126Y15284D3*
G1X11559Y15284D3*
G1X11079Y15284D3*
G1X14551Y14811D3*
G1X14071Y14811D3*
G1X8819Y16473D3*
G1X9299Y16473D3*
G1X11748Y15992D3*
G1X12228Y15992D3*
G1X19629Y14811D3*
G1X19149Y14811D3*
G1X22464Y14811D3*
G1X21984Y14811D3*
G1X25378Y14811D3*
G1X24898Y14811D3*
G1X19425Y16465D3*
G1X19905Y16465D3*
G1X21630Y16465D3*
G1X22110Y16465D3*
G1X24622Y16465D3*
G1X25102Y16465D3*
G1X19425Y15992D3*
G1X19905Y15992D3*
G1X19629Y15284D3*
G1X19149Y15284D3*
G1X22464Y15284D3*
G1X21984Y15284D3*
G1X21630Y15992D3*
G1X22110Y15992D3*
G1X25378Y15284D3*
G1X24898Y15284D3*
G1X24622Y15992D3*
G1X25102Y15992D3*
G1X22996Y23984D3*
G1X22516Y23984D3*
G1X13822Y23866D3*
G1X13342Y23866D3*
G54D26*
G1X6181Y17055D3*
G1X6181Y17370D3*
G1X7893Y19500D3*
G1X7893Y19020D3*
G1X26338Y23538D3*
G1X26338Y24018D3*
G1X9173Y26150D3*
G1X9173Y25835D3*
G54D27*
G1X8149Y25953D3*
G1X28071Y12528D3*
G1X6220Y12547D3*
G54D30*
G1X9350Y22587D3*
G1X8996Y22587D3*
G1X9350Y21622D3*
G1X8996Y21622D3*
G1X9389Y21130D3*
G1X9035Y21130D3*
G1X9330Y20087D3*
G1X8976Y20087D3*
G1X8543Y22114D3*
G1X8189Y22114D3*
G1X8543Y21622D3*
G1X8189Y21622D3*
G1X8523Y21130D3*
G1X8169Y21130D3*
G1X8523Y20618D3*
G1X8169Y20618D3*
G1X9291Y20658D3*
G1X8937Y20658D3*
G1X9350Y22114D3*
G1X8996Y22114D3*
G1X8189Y22587D3*
G1X8543Y22587D3*
G1X8169Y20067D3*
G1X8523Y20067D3*
G1X24921Y22440D3*
G1X25275Y22440D3*
G1X24842Y21239D3*
G1X25197Y21239D3*
G1X26082Y20629D3*
G1X25728Y20629D3*
G1X24921Y22814D3*
G1X25275Y22814D3*
G1X9704Y21622D3*
G1X10059Y21622D3*
G1X24586Y22105D3*
G1X24232Y22105D3*
G1X25708Y22597D3*
G1X26063Y22597D3*
G1X25728Y21121D3*
G1X26082Y21121D3*
G1X25728Y21613D3*
G1X26082Y21613D3*
G1X25708Y22105D3*
G1X26063Y22105D3*
G1X25275Y20629D3*
G1X24921Y20629D3*
G1X25275Y21613D3*
G1X24921Y21613D3*
G1X25275Y22105D3*
G1X24921Y22105D3*
G1X25708Y23168D3*
G1X25354Y23168D3*
G1X9704Y21130D3*
G1X10059Y21130D3*
G1X24606Y21613D3*
G1X24252Y21613D3*
G1X17067Y23866D3*
G1X17067Y24221D3*
G1X17382Y25402D3*
G1X17382Y25047D3*
G1X18090Y24723D3*
G1X18445Y24723D3*
G1X15767Y24949D3*
G1X15767Y24595D3*
G1X16614Y24831D3*
G1X16260Y24831D3*
G1X12795Y24083D3*
G1X12441Y24083D3*
G1X21949Y24063D3*
G1X21594Y24063D3*
G1X14622Y11295D3*
G1X14622Y10941D3*
G1X8862Y10878D3*
G1X8862Y11232D3*
G1X15055Y10941D3*
G1X15055Y11295D3*
G1X23799Y22095D3*
G1X23799Y21740D3*
G1X20767Y19260D3*
G1X20767Y19614D3*
G1X25267Y11311D3*
G1X25267Y10957D3*
G1X19185Y11248D3*
G1X19185Y10894D3*
G1X25720Y10957D3*
G1X25720Y11311D3*
G1X19559Y10894D3*
G1X19559Y11248D3*
G1X19134Y23866D3*
G1X19134Y24221D3*
G1X12126Y23433D3*
G1X12126Y23079D3*
G1X10118Y23236D3*
G1X10118Y23591D3*
G1X11279Y18669D3*
G1X11279Y19024D3*
G1X12244Y21445D3*
G1X11889Y21445D3*
G1X11913Y19213D3*
G1X11913Y18858D3*
G1X10945Y18650D3*
G1X10945Y19004D3*
G1X10138Y19516D3*
G1X10138Y19162D3*
G1X10512Y19516D3*
G1X10512Y19162D3*
G1X12342Y19162D3*
G1X12342Y18807D3*
G1X21752Y21209D3*
G1X21752Y21563D3*
G1X8433Y11229D3*
G1X8433Y10874D3*
G1X20531Y22528D3*
G1X20886Y22528D3*
G1X20118Y22154D3*
G1X20118Y22508D3*
G1X20531Y22134D3*
G1X20886Y22134D3*
G54D31*
G1X8419Y24122D3*
G1X9179Y24122D3*
G1X25636Y24684D3*
G1X24876Y24684D3*
G1X25655Y23837D3*
G1X24895Y23837D3*
G1X8419Y24969D3*
G1X9179Y24969D3*
G54D32*
G1X24409Y19146D3*
G54D33*
G1X18445Y25997D3*
G1X18445Y25397D3*
G1X17874Y25397D3*
G1X17874Y25997D3*
G1X16496Y26036D3*
G1X16496Y25436D3*
G1X15925Y25436D3*
G1X15925Y26036D3*
G54D34*
G1X17371Y14018D3*
G1X17891Y15958D3*
G54D35*
G1X18140Y13666D3*
G1X17121Y16310D3*
G54D37*
G1X16358Y23467D3*
G1X16358Y24227D3*
G1X19724Y23309D3*
G1X19724Y24069D3*
G1X20078Y19057D3*
G1X20078Y19817D3*
G1X23169Y22297D3*
G1X23169Y21537D3*
G54D38*
G1X17578Y24221D3*
G1X17578Y23965D3*
G1X17578Y23709D3*
G1X18484Y23709D3*
G1X18484Y23965D3*
G1X18484Y24221D3*
G1X10571Y23591D3*
G1X10571Y23335D3*
G1X10571Y23079D3*
G1X11476Y23079D3*
G1X11476Y23335D3*
G1X11476Y23591D3*
G54D39*
G1X18031Y23965D3*
G1X11023Y23335D3*
G54D40*
G1X13307Y20341D3*
G1X13307Y19241D3*
G1X18043Y19340D3*
G1X18043Y20440D3*
G1X16567Y19320D3*
G1X16567Y20420D3*
G1X14704Y19241D3*
G1X14704Y20341D3*
G54D41*
G1X15513Y21711D3*
G1X16613Y21711D3*
G54D42*
G1X13622Y21169D3*
G1X13622Y22980D3*
G54D43*
G1X21378Y18817D3*
G1X21378Y20105D3*
G1X22342Y21347D3*
G1X22342Y22634D3*
G54D44*
G1X10925Y22075D3*
G1X12212Y22075D3*
G54D45*
G1X22598Y19437D3*
G1X22598Y20854D3*
G54D46*
G1X12218Y21099D3*
G1X11903Y21099D3*
G1X11588Y21099D3*
G1X11274Y21099D3*
G1X10959Y21099D3*
G1X10959Y19524D3*
G1X11274Y19524D3*
G1X11588Y19524D3*
G1X11903Y19524D3*
G1X12218Y19524D3*
G54D48*
G1X21260Y21573D3*
G1X20886Y21573D3*
G1X20512Y21573D3*
G1X20512Y20608D3*
G1X20886Y20608D3*
G1X21260Y20608D3*
G54D49*
G1X23700Y23424D3*
G54D50*
G1X26575Y20136D3*
G1X26575Y20628D3*
G1X26575Y21120D3*
G1X26575Y21612D3*
G1X26575Y22104D3*
G1X26575Y22597D3*
G1X26575Y23089D3*
G1X7657Y23089D3*
G1X7657Y22597D3*
G1X7657Y22104D3*
G1X7657Y21612D3*
G1X7657Y21120D3*
G1X7657Y20628D3*
G1X7657Y20136D3*
G54D51*
G1X27716Y24093D3*
G1X27716Y19132D3*
G1X6515Y19132D3*
G1X6515Y24093D3*
G54D52*
G1X13828Y24654D3*
G1X13336Y24654D3*
G1X12844Y24654D3*
G1X12352Y24654D3*
G1X11860Y24654D3*
G1X11368Y24654D3*
G1X23002Y24654D3*
G1X22510Y24654D3*
G1X22017Y24654D3*
G1X21525Y24654D3*
G1X21033Y24654D3*
G1X20541Y24654D3*
G54D53*
G1X14832Y25795D3*
G1X10364Y25795D3*
G1X24006Y25795D3*
G1X19537Y25795D3*
G1X12624Y21038D2*
G54D56*
G1X14619Y21038D1*
G1X14619Y21734D1*
G1X14317Y21734D1*
G1X14312Y21719D1*
G1X14273Y21644D1*
G1X14164Y21512D1*
G1X14028Y21408D1*
G1X13874Y21336D1*
G1X13707Y21299D1*
G1X13536Y21299D1*
G1X13370Y21336D1*
G1X13215Y21408D1*
G1X13080Y21512D1*
G1X12971Y21644D1*
G1X12932Y21719D1*
G1X12927Y21734D1*
G1X12624Y21734D1*
G1X12624Y21038D1*
G1X12663Y21038D2*
G1X12663Y21734D1*
G1X12709Y21038D2*
G1X12709Y21734D1*
G1X12754Y21038D2*
G1X12754Y21734D1*
G1X12800Y21038D2*
G1X12800Y21734D1*
G1X12846Y21038D2*
G1X12846Y21734D1*
G1X12891Y21038D2*
G1X12891Y21734D1*
G1X12937Y21038D2*
G1X12937Y21709D1*
G1X12983Y21038D2*
G1X12983Y21629D1*
G1X13028Y21038D2*
G1X13028Y21574D1*
G1X13074Y21038D2*
G1X13074Y21520D1*
G1X13120Y21038D2*
G1X13120Y21482D1*
G1X13165Y21038D2*
G1X13165Y21447D1*
G1X13211Y21038D2*
G1X13211Y21411D1*
G1X13257Y21038D2*
G1X13257Y21389D1*
G1X13302Y21038D2*
G1X13302Y21367D1*
G1X13348Y21038D2*
G1X13348Y21346D1*
G1X13394Y21038D2*
G1X13394Y21330D1*
G1X13439Y21038D2*
G1X13439Y21320D1*
G1X13485Y21038D2*
G1X13485Y21310D1*
G1X13530Y21038D2*
G1X13530Y21300D1*
G1X13576Y21038D2*
G1X13576Y21299D1*
G1X13622Y21038D2*
G1X13622Y21299D1*
G1X13667Y21038D2*
G1X13667Y21299D1*
G1X13713Y21038D2*
G1X13713Y21300D1*
G1X13759Y21038D2*
G1X13759Y21310D1*
G1X13804Y21038D2*
G1X13804Y21320D1*
G1X13850Y21038D2*
G1X13850Y21330D1*
G1X13896Y21038D2*
G1X13896Y21346D1*
G1X13941Y21038D2*
G1X13941Y21367D1*
G1X13987Y21038D2*
G1X13987Y21389D1*
G1X14033Y21038D2*
G1X14033Y21411D1*
G1X14078Y21038D2*
G1X14078Y21447D1*
G1X14124Y21038D2*
G1X14124Y21482D1*
G1X14170Y21038D2*
G1X14170Y21520D1*
G1X14215Y21038D2*
G1X14215Y21574D1*
G1X14261Y21038D2*
G1X14261Y21629D1*
G1X14307Y21038D2*
G1X14307Y21709D1*
G1X14352Y21038D2*
G1X14352Y21734D1*
G1X14398Y21038D2*
G1X14398Y21734D1*
G1X14443Y21038D2*
G1X14443Y21734D1*
G1X14489Y21038D2*
G1X14489Y21734D1*
G1X14535Y21038D2*
G1X14535Y21734D1*
G1X14580Y21038D2*
G1X14580Y21734D1*
G1X12624Y22416D2*
G1X12927Y22416D1*
G1X12932Y22430D1*
G1X12971Y22506D1*
G1X13080Y22638D1*
G1X13215Y22742D1*
G1X13370Y22814D1*
G1X13536Y22851D1*
G1X13707Y22851D1*
G1X13874Y22814D1*
G1X14028Y22742D1*
G1X14164Y22638D1*
G1X14273Y22506D1*
G1X14312Y22430D1*
G1X14317Y22416D1*
G1X14619Y22416D1*
G1X14619Y23112D1*
G1X12624Y23112D1*
G1X12624Y22416D1*
G1X12663Y22416D2*
G1X12663Y23112D1*
G1X12709Y22416D2*
G1X12709Y23112D1*
G1X12754Y22416D2*
G1X12754Y23112D1*
G1X12800Y22416D2*
G1X12800Y23112D1*
G1X12846Y22416D2*
G1X12846Y23112D1*
G1X12891Y22416D2*
G1X12891Y23112D1*
G1X12937Y22441D2*
G1X12937Y23112D1*
G1X12983Y22521D2*
G1X12983Y23112D1*
G1X13028Y22576D2*
G1X13028Y23112D1*
G1X13074Y22630D2*
G1X13074Y23112D1*
G1X13120Y22668D2*
G1X13120Y23112D1*
G1X13165Y22703D2*
G1X13165Y23112D1*
G1X13211Y22739D2*
G1X13211Y23112D1*
G1X13257Y22761D2*
G1X13257Y23112D1*
G1X13302Y22783D2*
G1X13302Y23112D1*
G1X13348Y22804D2*
G1X13348Y23112D1*
G1X13394Y22820D2*
G1X13394Y23112D1*
G1X13439Y22830D2*
G1X13439Y23112D1*
G1X13485Y22840D2*
G1X13485Y23112D1*
G1X13530Y22850D2*
G1X13530Y23112D1*
G1X13576Y22851D2*
G1X13576Y23112D1*
G1X13622Y22851D2*
G1X13622Y23112D1*
G1X13667Y22851D2*
G1X13667Y23112D1*
G1X13713Y22850D2*
G1X13713Y23112D1*
G1X13759Y22840D2*
G1X13759Y23112D1*
G1X13804Y22830D2*
G1X13804Y23112D1*
G1X13850Y22820D2*
G1X13850Y23112D1*
G1X13896Y22804D2*
G1X13896Y23112D1*
G1X13941Y22783D2*
G1X13941Y23112D1*
G1X13987Y22761D2*
G1X13987Y23112D1*
G1X14033Y22739D2*
G1X14033Y23112D1*
G1X14078Y22703D2*
G1X14078Y23112D1*
G1X14124Y22668D2*
G1X14124Y23112D1*
G1X14170Y22630D2*
G1X14170Y23112D1*
G1X14215Y22576D2*
G1X14215Y23112D1*
G1X14261Y22521D2*
G1X14261Y23112D1*
G1X14307Y22441D2*
G1X14307Y23112D1*
G1X14352Y22416D2*
G1X14352Y23112D1*
G1X14398Y22416D2*
G1X14398Y23112D1*
G1X14443Y22416D2*
G1X14443Y23112D1*
G1X14489Y22416D2*
G1X14489Y23112D1*
G1X14535Y22416D2*
G1X14535Y23112D1*
G1X14580Y22416D2*
G1X14580Y23112D1*
G1X53287Y13243D2*
G54D13*
G1X53287Y12587D1*
G1X53287Y13243D2*
G1X53491Y13243D1*
G1X53559Y13212D1*
G1X53582Y13181D1*
G1X53605Y13118D1*
G1X53605Y13024D1*
G1X53582Y12962D1*
G1X53559Y12931D1*
G1X53491Y12899D1*
G1X53287Y12899D1*
G1X53991Y13243D2*
G1X53809Y12587D1*
G1X53991Y13243D2*
G1X54173Y12587D1*
G1X53878Y12806D2*
G1X54105Y12806D1*
G1X54696Y13149D2*
G1X54650Y13212D1*
G1X54582Y13243D1*
G1X54491Y13243D1*
G1X54423Y13212D1*
G1X54378Y13149D1*
G1X54378Y13087D1*
G1X54400Y13024D1*
G1X54423Y12993D1*
G1X54469Y12962D1*
G1X54605Y12899D1*
G1X54650Y12868D1*
G1X54673Y12837D1*
G1X54696Y12774D1*
G1X54696Y12681D1*
G1X54650Y12618D1*
G1X54582Y12587D1*
G1X54491Y12587D1*
G1X54423Y12618D1*
G1X54378Y12681D1*
G1X55059Y13243D2*
G1X55059Y12587D1*
G1X54900Y13243D2*
G1X55219Y13243D1*
G1X55423Y13243D2*
G1X55423Y12587D1*
G1X55423Y13243D2*
G1X55719Y13243D1*
G1X55423Y12931D2*
G1X55605Y12931D1*
G1X55423Y12587D2*
G1X55719Y12587D1*
G1X56446Y13243D2*
G1X56446Y12587D1*
G1X56446Y13243D2*
G1X56628Y12587D1*
G1X56809Y13243D1*
G1X56809Y12587D1*
G1X57196Y13243D2*
G1X57014Y12587D1*
G1X57196Y13243D2*
G1X57378Y12587D1*
G1X57082Y12806D2*
G1X57309Y12806D1*
G1X57900Y13149D2*
G1X57855Y13212D1*
G1X57787Y13243D1*
G1X57696Y13243D1*
G1X57628Y13212D1*
G1X57582Y13149D1*
G1X57582Y13087D1*
G1X57605Y13024D1*
G1X57628Y12993D1*
G1X57673Y12962D1*
G1X57809Y12899D1*
G1X57855Y12868D1*
G1X57878Y12837D1*
G1X57900Y12774D1*
G1X57900Y12681D1*
G1X57855Y12618D1*
G1X57787Y12587D1*
G1X57696Y12587D1*
G1X57628Y12618D1*
G1X57582Y12681D1*
G1X58105Y13243D2*
G1X58105Y12587D1*
G1X58423Y13243D2*
G1X58105Y12806D1*
G1X58219Y12962D2*
G1X58423Y12587D1*
G1X59309Y13243D2*
G1X59309Y12587D1*
G1X59150Y13243D2*
G1X59469Y13243D1*
G1X59809Y13243D2*
G1X59764Y13212D1*
G1X59719Y13149D1*
G1X59696Y13087D1*
G1X59673Y12993D1*
G1X59673Y12837D1*
G1X59696Y12743D1*
G1X59719Y12681D1*
G1X59764Y12618D1*
G1X59809Y12587D1*
G1X59900Y12587D1*
G1X59946Y12618D1*
G1X59991Y12681D1*
G1X60014Y12743D1*
G1X60037Y12837D1*
G1X60037Y12993D1*
G1X60014Y13087D1*
G1X59991Y13149D1*
G1X59946Y13212D1*
G1X59900Y13243D1*
G1X59809Y13243D1*
G1X60241Y13243D2*
G1X60241Y12587D1*
G1X60241Y13243D2*
G1X60446Y13243D1*
G1X60514Y13212D1*
G1X60537Y13181D1*
G1X60559Y13118D1*
G1X60559Y13024D1*
G1X60537Y12962D1*
G1X60514Y12931D1*
G1X60446Y12899D1*
G1X60241Y12899D1*
G1X29304Y10092D2*
G1X52139Y10092D1*
G1X52139Y26628D1*
G1X29304Y26628D1*
G1X29304Y10092D1*
G1X35524Y20472D2*
G54D14*
G1X35524Y20656D1*
G1X35322Y20656D1*
G1X35322Y20472D1*
G1X35524Y20472D1*
G1X35524Y19972D2*
G1X35524Y20156D1*
G1X35322Y20156D1*
G1X35322Y19972D1*
G1X35524Y19972D1*
G1X35074Y20472D2*
G1X35074Y20656D1*
G1X34872Y20656D1*
G1X34872Y20472D1*
G1X35074Y20472D1*
G1X35074Y19972D2*
G1X35074Y20156D1*
G1X34872Y20156D1*
G1X34872Y19972D1*
G1X35074Y19972D1*
G1X35372Y20472D2*
G1X35524Y20625D1*
G1X35448Y20472D2*
G1X35524Y20548D1*
G1X35322Y20499D2*
G1X35479Y20656D1*
G1X35322Y20576D2*
G1X35403Y20656D1*
G1X35322Y20652D2*
G1X35326Y20656D1*
G1X35372Y19972D2*
G1X35524Y20125D1*
G1X35448Y19972D2*
G1X35524Y20048D1*
G1X35322Y19999D2*
G1X35479Y20156D1*
G1X35322Y20076D2*
G1X35403Y20156D1*
G1X35322Y20152D2*
G1X35326Y20156D1*
G1X34922Y20472D2*
G1X35074Y20625D1*
G1X34998Y20472D2*
G1X35074Y20548D1*
G1X34872Y20499D2*
G1X35029Y20656D1*
G1X34872Y20576D2*
G1X34953Y20656D1*
G1X34872Y20652D2*
G1X34876Y20656D1*
G1X34922Y19972D2*
G1X35074Y20125D1*
G1X34998Y19972D2*
G1X35074Y20048D1*
G1X34872Y19999D2*
G1X35029Y20156D1*
G1X34872Y20076D2*
G1X34953Y20156D1*
G1X34872Y20152D2*
G1X34876Y20156D1*
G54D25*
G1X32473Y23242D3*
G1X32158Y23242D3*
G1X32221Y14817D3*
G1X31741Y14817D3*
G1X35174Y14817D3*
G1X34694Y14817D3*
G1X38166Y15289D3*
G1X37686Y15289D3*
G1X32434Y15998D3*
G1X32914Y15998D3*
G1X35363Y16478D3*
G1X35843Y16478D3*
G1X38277Y16478D3*
G1X38757Y16478D3*
G1X38277Y15998D3*
G1X38757Y15998D3*
G1X32221Y15289D3*
G1X31741Y15289D3*
G1X35174Y15289D3*
G1X34694Y15289D3*
G1X38166Y14817D3*
G1X37686Y14817D3*
G1X32434Y16478D3*
G1X32914Y16478D3*
G1X35363Y15998D3*
G1X35843Y15998D3*
G1X43245Y14817D3*
G1X42765Y14817D3*
G1X46080Y14817D3*
G1X45600Y14817D3*
G1X48993Y14817D3*
G1X48513Y14817D3*
G1X43041Y16470D3*
G1X43521Y16470D3*
G1X45245Y16470D3*
G1X45725Y16470D3*
G1X48237Y16470D3*
G1X48717Y16470D3*
G1X43041Y15998D3*
G1X43521Y15998D3*
G1X43245Y15289D3*
G1X42765Y15289D3*
G1X46080Y15289D3*
G1X45600Y15289D3*
G1X45245Y15998D3*
G1X45725Y15998D3*
G1X48993Y15289D3*
G1X48513Y15289D3*
G1X48237Y15998D3*
G1X48717Y15998D3*
G1X46611Y23990D3*
G1X46131Y23990D3*
G1X37438Y23872D3*
G1X36958Y23872D3*
G54D26*
G1X29796Y17061D3*
G1X29796Y17376D3*
G1X31509Y19505D3*
G1X31509Y19025D3*
G1X49954Y23544D3*
G1X49954Y24024D3*
G1X32788Y26155D3*
G1X32788Y25840D3*
G54D27*
G1X31765Y25958D3*
G1X51686Y12533D3*
G1X29836Y12553D3*
G54D30*
G1X32966Y22592D3*
G1X32611Y22592D3*
G1X32966Y21628D3*
G1X32611Y21628D3*
G1X33005Y21135D3*
G1X32651Y21135D3*
G1X32946Y20092D3*
G1X32592Y20092D3*
G1X32159Y22120D3*
G1X31804Y22120D3*
G1X32159Y21628D3*
G1X31804Y21628D3*
G1X32139Y21135D3*
G1X31785Y21135D3*
G1X32139Y20624D3*
G1X31785Y20624D3*
G1X32907Y20663D3*
G1X32552Y20663D3*
G1X32966Y22120D3*
G1X32611Y22120D3*
G1X31804Y22592D3*
G1X32159Y22592D3*
G1X31785Y20072D3*
G1X32139Y20072D3*
G1X48536Y22445D3*
G1X48891Y22445D3*
G1X48458Y21244D3*
G1X48812Y21244D3*
G1X49698Y20634D3*
G1X49344Y20634D3*
G1X48536Y22819D3*
G1X48891Y22819D3*
G1X33320Y21628D3*
G1X33674Y21628D3*
G1X48202Y22110D3*
G1X47847Y22110D3*
G1X49324Y22602D3*
G1X49678Y22602D3*
G1X49344Y21126D3*
G1X49698Y21126D3*
G1X49344Y21618D3*
G1X49698Y21618D3*
G1X49324Y22110D3*
G1X49678Y22110D3*
G1X48891Y20634D3*
G1X48536Y20634D3*
G1X48891Y21618D3*
G1X48536Y21618D3*
G1X48891Y22110D3*
G1X48536Y22110D3*
G1X49324Y23173D3*
G1X48970Y23173D3*
G1X33320Y21135D3*
G1X33674Y21135D3*
G1X48222Y21618D3*
G1X47867Y21618D3*
G1X40682Y23872D3*
G1X40682Y24226D3*
G1X40997Y25407D3*
G1X40997Y25053D3*
G1X41706Y24728D3*
G1X42060Y24728D3*
G1X39383Y24954D3*
G1X39383Y24600D3*
G1X40229Y24836D3*
G1X39875Y24836D3*
G1X36410Y24088D3*
G1X36056Y24088D3*
G1X45564Y24069D3*
G1X45210Y24069D3*
G1X38237Y11301D3*
G1X38237Y10947D3*
G1X32477Y10884D3*
G1X32477Y11238D3*
G1X38670Y10947D3*
G1X38670Y11301D3*
G1X47414Y22100D3*
G1X47414Y21746D3*
G1X44383Y19265D3*
G1X44383Y19620D3*
G1X48883Y11317D3*
G1X48883Y10962D3*
G1X42800Y11254D3*
G1X42800Y10899D3*
G1X49336Y10962D3*
G1X49336Y11317D3*
G1X43174Y10899D3*
G1X43174Y11254D3*
G1X42749Y23872D3*
G1X42749Y24226D3*
G1X35741Y23439D3*
G1X35741Y23084D3*
G1X33733Y23242D3*
G1X33733Y23596D3*
G1X34895Y18675D3*
G1X34895Y19029D3*
G1X35859Y21450D3*
G1X35505Y21450D3*
G1X35529Y19218D3*
G1X35529Y18864D3*
G1X34560Y18655D3*
G1X34560Y19009D3*
G1X33753Y19521D3*
G1X33753Y19167D3*
G1X34127Y19521D3*
G1X34127Y19167D3*
G1X35958Y19167D3*
G1X35958Y18813D3*
G1X45367Y21214D3*
G1X45367Y21569D3*
G1X32048Y11234D3*
G1X32048Y10880D3*
G1X44147Y22533D3*
G1X44501Y22533D3*
G1X43733Y22159D3*
G1X43733Y22513D3*
G1X44147Y22139D3*
G1X44501Y22139D3*
G54D31*
G1X32034Y24128D3*
G1X32794Y24128D3*
G1X49251Y24689D3*
G1X48491Y24689D3*
G1X49271Y23843D3*
G1X48511Y23843D3*
G1X32034Y24974D3*
G1X32794Y24974D3*
G54D32*
G1X48025Y19151D3*
G54D33*
G1X42060Y26002D3*
G1X42060Y25402D3*
G1X41489Y25402D3*
G1X41489Y26002D3*
G1X40111Y26042D3*
G1X40111Y25442D3*
G1X39540Y25442D3*
G1X39540Y26042D3*
G54D34*
G1X40986Y14024D3*
G1X41507Y15963D3*
G54D35*
G1X41756Y13671D3*
G1X40736Y16315D3*
G54D37*
G1X39973Y23472D3*
G1X39973Y24232D3*
G1X43340Y23315D3*
G1X43340Y24075D3*
G1X43694Y19063D3*
G1X43694Y19823D3*
G1X46785Y22303D3*
G1X46785Y21543D3*
G54D38*
G1X41194Y24226D3*
G1X41194Y23970D3*
G1X41194Y23714D3*
G1X42099Y23714D3*
G1X42099Y23970D3*
G1X42099Y24226D3*
G1X34186Y23596D3*
G1X34186Y23340D3*
G1X34186Y23084D3*
G1X35092Y23084D3*
G1X35092Y23340D3*
G1X35092Y23596D3*
G54D39*
G1X41647Y23970D3*
G1X34639Y23340D3*
G54D40*
G1X36922Y20347D3*
G1X36922Y19247D3*
G1X41659Y19345D3*
G1X41659Y20445D3*
G1X40182Y19326D3*
G1X40182Y20426D3*
G1X38320Y19247D3*
G1X38320Y20347D3*
G54D41*
G1X39128Y21717D3*
G1X40228Y21717D3*
G54D42*
G1X37237Y21175D3*
G1X37237Y22986D3*
G54D43*
G1X44993Y18823D3*
G1X44993Y20110D3*
G1X45958Y21352D3*
G1X45958Y22639D3*
G54D44*
G1X34540Y22080D3*
G1X35828Y22080D3*
G54D45*
G1X46214Y19443D3*
G1X46214Y20860D3*
G54D46*
G1X35834Y21104D3*
G1X35519Y21104D3*
G1X35204Y21104D3*
G1X34889Y21104D3*
G1X34574Y21104D3*
G1X34574Y19529D3*
G1X34889Y19529D3*
G1X35204Y19529D3*
G1X35519Y19529D3*
G1X35834Y19529D3*
G54D48*
G1X44875Y21578D3*
G1X44501Y21578D3*
G1X44127Y21578D3*
G1X44127Y20614D3*
G1X44501Y20614D3*
G1X44875Y20614D3*
G54D49*
G1X47316Y23429D3*
G54D50*
G1X50190Y20141D3*
G1X50190Y20634D3*
G1X50190Y21126D3*
G1X50190Y21618D3*
G1X50190Y22110D3*
G1X50190Y22602D3*
G1X50190Y23094D3*
G1X31273Y23094D3*
G1X31273Y22602D3*
G1X31273Y22110D3*
G1X31273Y21618D3*
G1X31273Y21126D3*
G1X31273Y20634D3*
G1X31273Y20141D3*
G54D51*
G1X51332Y24098D3*
G1X51332Y19137D3*
G1X30131Y19137D3*
G1X30131Y24098D3*
G54D52*
G1X37444Y24659D3*
G1X36952Y24659D3*
G1X36460Y24659D3*
G1X35968Y24659D3*
G1X35475Y24659D3*
G1X34983Y24659D3*
G1X46617Y24659D3*
G1X46125Y24659D3*
G1X45633Y24659D3*
G1X45141Y24659D3*
G1X44649Y24659D3*
G1X44157Y24659D3*
G54D53*
G1X38448Y25801D3*
G1X33979Y25801D3*
G1X47621Y25801D3*
G1X43153Y25801D3*
G1X36240Y21043D2*
G54D56*
G1X38235Y21043D1*
G1X38235Y21739D1*
G1X37932Y21739D1*
G1X37927Y21725D1*
G1X37888Y21649D1*
G1X37779Y21518D1*
G1X37644Y21414D1*
G1X37489Y21341D1*
G1X37323Y21304D1*
G1X37152Y21304D1*
G1X36985Y21341D1*
G1X36831Y21414D1*
G1X36695Y21518D1*
G1X36586Y21649D1*
G1X36547Y21725D1*
G1X36542Y21739D1*
G1X36240Y21739D1*
G1X36240Y21043D1*
G1X36279Y21043D2*
G1X36279Y21739D1*
G1X36324Y21043D2*
G1X36324Y21739D1*
G1X36370Y21043D2*
G1X36370Y21739D1*
G1X36416Y21043D2*
G1X36416Y21739D1*
G1X36461Y21043D2*
G1X36461Y21739D1*
G1X36507Y21043D2*
G1X36507Y21739D1*
G1X36553Y21043D2*
G1X36553Y21714D1*
G1X36598Y21043D2*
G1X36598Y21635D1*
G1X36644Y21043D2*
G1X36644Y21580D1*
G1X36689Y21043D2*
G1X36689Y21525D1*
G1X36735Y21043D2*
G1X36735Y21487D1*
G1X36781Y21043D2*
G1X36781Y21452D1*
G1X36826Y21043D2*
G1X36826Y21417D1*
G1X36872Y21043D2*
G1X36872Y21394D1*
G1X36918Y21043D2*
G1X36918Y21373D1*
G1X36963Y21043D2*
G1X36963Y21351D1*
G1X37009Y21043D2*
G1X37009Y21336D1*
G1X37055Y21043D2*
G1X37055Y21326D1*
G1X37100Y21043D2*
G1X37100Y21315D1*
G1X37146Y21043D2*
G1X37146Y21305D1*
G1X37192Y21043D2*
G1X37192Y21304D1*
G1X37237Y21043D2*
G1X37237Y21304D1*
G1X37283Y21043D2*
G1X37283Y21304D1*
G1X37329Y21043D2*
G1X37329Y21305D1*
G1X37374Y21043D2*
G1X37374Y21315D1*
G1X37420Y21043D2*
G1X37420Y21326D1*
G1X37466Y21043D2*
G1X37466Y21336D1*
G1X37511Y21043D2*
G1X37511Y21351D1*
G1X37557Y21043D2*
G1X37557Y21373D1*
G1X37602Y21043D2*
G1X37602Y21394D1*
G1X37648Y21043D2*
G1X37648Y21417D1*
G1X37694Y21043D2*
G1X37694Y21452D1*
G1X37739Y21043D2*
G1X37739Y21487D1*
G1X37785Y21043D2*
G1X37785Y21525D1*
G1X37831Y21043D2*
G1X37831Y21580D1*
G1X37876Y21043D2*
G1X37876Y21635D1*
G1X37922Y21043D2*
G1X37922Y21714D1*
G1X37968Y21043D2*
G1X37968Y21739D1*
G1X38013Y21043D2*
G1X38013Y21739D1*
G1X38059Y21043D2*
G1X38059Y21739D1*
G1X38105Y21043D2*
G1X38105Y21739D1*
G1X38150Y21043D2*
G1X38150Y21739D1*
G1X38196Y21043D2*
G1X38196Y21739D1*
G1X36240Y22421D2*
G1X36542Y22421D1*
G1X36547Y22436D1*
G1X36586Y22512D1*
G1X36695Y22643D1*
G1X36831Y22747D1*
G1X36985Y22820D1*
G1X37152Y22857D1*
G1X37323Y22857D1*
G1X37489Y22820D1*
G1X37644Y22747D1*
G1X37779Y22643D1*
G1X37888Y22512D1*
G1X37927Y22436D1*
G1X37932Y22421D1*
G1X38235Y22421D1*
G1X38235Y23117D1*
G1X36240Y23117D1*
G1X36240Y22421D1*
G1X36279Y22421D2*
G1X36279Y23117D1*
G1X36324Y22421D2*
G1X36324Y23117D1*
G1X36370Y22421D2*
G1X36370Y23117D1*
G1X36416Y22421D2*
G1X36416Y23117D1*
G1X36461Y22421D2*
G1X36461Y23117D1*
G1X36507Y22421D2*
G1X36507Y23117D1*
G1X36553Y22446D2*
G1X36553Y23117D1*
G1X36598Y22526D2*
G1X36598Y23117D1*
G1X36644Y22581D2*
G1X36644Y23117D1*
G1X36689Y22636D2*
G1X36689Y23117D1*
G1X36735Y22674D2*
G1X36735Y23117D1*
G1X36781Y22709D2*
G1X36781Y23117D1*
G1X36826Y22744D2*
G1X36826Y23117D1*
G1X36872Y22767D2*
G1X36872Y23117D1*
G1X36918Y22788D2*
G1X36918Y23117D1*
G1X36963Y22809D2*
G1X36963Y23117D1*
G1X37009Y22825D2*
G1X37009Y23117D1*
G1X37055Y22835D2*
G1X37055Y23117D1*
G1X37100Y22845D2*
G1X37100Y23117D1*
G1X37146Y22855D2*
G1X37146Y23117D1*
G1X37192Y22857D2*
G1X37192Y23117D1*
G1X37237Y22857D2*
G1X37237Y23117D1*
G1X37283Y22857D2*
G1X37283Y23117D1*
G1X37329Y22855D2*
G1X37329Y23117D1*
G1X37374Y22845D2*
G1X37374Y23117D1*
G1X37420Y22835D2*
G1X37420Y23117D1*
G1X37466Y22825D2*
G1X37466Y23117D1*
G1X37511Y22809D2*
G1X37511Y23117D1*
G1X37557Y22788D2*
G1X37557Y23117D1*
G1X37602Y22767D2*
G1X37602Y23117D1*
G1X37648Y22744D2*
G1X37648Y23117D1*
G1X37694Y22709D2*
G1X37694Y23117D1*
G1X37739Y22674D2*
G1X37739Y23117D1*
G1X37785Y22636D2*
G1X37785Y23117D1*
G1X37831Y22581D2*
G1X37831Y23117D1*
G1X37876Y22526D2*
G1X37876Y23117D1*
G1X37922Y22446D2*
G1X37922Y23117D1*
G1X37968Y22421D2*
G1X37968Y23117D1*
G1X38013Y22421D2*
G1X38013Y23117D1*
G1X38059Y22421D2*
G1X38059Y23117D1*
G1X38105Y22421D2*
G1X38105Y23117D1*
G1X38150Y22421D2*
G1X38150Y23117D1*
G1X38196Y22421D2*
G1X38196Y23117D1*
M2*
