*
*
G04 PADS VX.2.8 Build Number: 19810023 generated Gerber (RS-274-X) file*
G04 PC Version=2.1*
*
%IN "FT2_L2.pcb"*%
*
%MOIN*%
*
%FSLAX35Y35*%
*
*
*
*
G04 PC Standard Apertures*
*
*
G04 Thermal Relief Aperture macro.*
%AMTER*
1,1,$1,0,0*
1,0,$1-$2,0,0*
21,0,$3,$4,0,0,45*
21,0,$3,$4,0,0,135*
%
*
*
G04 Annular Aperture macro.*
%AMANN*
1,1,$1,0,0*
1,0,$2,0,0*
%
*
*
G04 Odd Aperture macro.*
%AMODD*
1,1,$1,0,0*
1,0,$1-0.005,0,0*
%
*
*
G04 PC Custom Aperture Macros*
*
*
*
*
*
*
G04 PC Aperture Table*
*
%ADD010C,0.001*%
%ADD015C,0.00591*%
%ADD044C,0.01969*%
%ADD074C,0.01575*%
%ADD105C,0*%
%ADD110C,0.05394*%
%ADD117O,0.10236X0.15354*%
%ADD118C,0.10236*%
%ADD119O,0.21654X0.06693*%
%ADD120O,0.12205X0.16142*%
*
*
*
*
G04 PC Circuitry*
G04 Layer Name FT2_L2.pcb - circuitry*
%LPD*%
*
*
G04 PC Custom Flashes*
G04 Layer Name FT2_L2.pcb - flashes*
%LPD*%
*
*
G04 PC Circuitry*
G04 Layer Name FT2_L2.pcb - circuitry*
%LPD*%
*
G54D10*
G54D15*
G01X505709Y456521D02*
Y453937D01*
Y456521D02*
X506872D01*
X505709Y455290D02*
X506424D01*
X508304Y456521D02*
Y453937D01*
X507677Y456521D02*
X508930D01*
X509825Y455906D02*
Y456029D01*
X509914Y456275*
X510004Y456398*
X510183Y456521*
X510540*
X510719Y456398*
X510809Y456275*
X510898Y456029*
Y455782*
X510809Y455536*
X510630Y455167*
X509735Y453937*
X510988*
X511793Y455044D02*
X513404D01*
X514209Y456521D02*
Y453937D01*
X515283*
X516178Y455906D02*
Y456029D01*
X516267Y456275*
X516356Y456398*
X516535Y456521*
X516893*
X517072Y456398*
X517162Y456275*
X517251Y456029*
Y455782*
X517162Y455536*
X516983Y455167*
X516088Y453937*
X517341*
X518146Y453445D02*
X520025D01*
X520562Y456029D02*
X520741Y456152D01*
X521009Y456521*
Y453937*
X521994Y456521D02*
X522978D01*
X522441Y455536*
X522709*
X522888Y455413*
X522978Y455290*
X523067Y454921*
Y454675*
X522978Y454306*
X522799Y454060*
X522530Y453937*
X522262*
X521994Y454060*
X521904Y454183*
X521815Y454429*
X524320Y456521D02*
X524052Y456398D01*
X523962Y456152*
Y455906*
X524052Y455659*
X524230Y455536*
X524588Y455413*
X524857Y455290*
X525036Y455044*
X525125Y454798*
Y454429*
X525036Y454183*
X524946Y454060*
X524678Y453937*
X524320*
X524052Y454060*
X523962Y454183*
X523873Y454429*
Y454798*
X523962Y455044*
X524141Y455290*
X524409Y455413*
X524767Y455536*
X524946Y455659*
X525036Y455906*
Y456152*
X524946Y456398*
X524678Y456521*
X524320*
X527094D02*
X526199D01*
X526110Y455413*
X526199Y455536*
X526467Y455659*
X526736*
X527004Y455536*
X527183Y455290*
X527273Y454921*
X527183Y454675*
X527094Y454306*
X526915Y454060*
X526646Y453937*
X526378*
X526110Y454060*
X526020Y454183*
X525931Y454429*
X528973Y456521D02*
X528078Y454798D01*
X529420*
X528973Y456521D02*
Y453937D01*
X530225Y453445D02*
X532105D01*
X532820Y456521D02*
X533805D01*
X533268Y455536*
X533536*
X533715Y455413*
X533805Y455290*
X533894Y454921*
Y454675*
X533805Y454306*
X533626Y454060*
X533357Y453937*
X533089*
X532820Y454060*
X532731Y454183*
X532641Y454429*
X534699Y453445D02*
X536578D01*
X538368Y456152D02*
X538189Y456398D01*
X537921Y456521*
X537563*
X537294Y456398*
X537115Y456152*
Y455906*
X537205Y455659*
X537294Y455536*
X537473Y455413*
X538010Y455167*
X538189Y455044*
X538278Y454921*
X538368Y454675*
Y454306*
X538189Y454060*
X537921Y453937*
X537563*
X537294Y454060*
X537115Y454306*
X539710Y456521D02*
X539531Y456398D01*
X539352Y456152*
X539263Y455906*
X539173Y455536*
Y454921*
X539263Y454552*
X539352Y454306*
X539531Y454060*
X539710Y453937*
X540068*
X540247Y454060*
X540426Y454306*
X540515Y454552*
X540605Y454921*
Y455536*
X540515Y455906*
X540426Y456152*
X540247Y456398*
X540068Y456521*
X539710*
X541410D02*
Y453937D01*
X542484*
X543289Y456521D02*
Y453937D01*
Y456521D02*
X543916D01*
X544184Y456398*
X544363Y456152*
X544452Y455906*
X544542Y455536*
Y454921*
X544452Y454552*
X544363Y454306*
X544184Y454060*
X543916Y453937*
X543289*
X545347Y456521D02*
Y453937D01*
Y456521D02*
X546510D01*
X545347Y455290D02*
X546063D01*
X545347Y453937D02*
X546510D01*
X547316Y456521D02*
Y453937D01*
Y456521D02*
X548121D01*
X548389Y456398*
X548479Y456275*
X548568Y456029*
Y455782*
X548479Y455536*
X548389Y455413*
X548121Y455290*
X547316*
X547942D02*
X548568Y453937D01*
X549374Y453445D02*
X551253D01*
X551790Y456521D02*
Y453937D01*
Y456521D02*
X552505Y453937D01*
X553221Y456521D02*
X552505Y453937D01*
X553221Y456521D02*
Y453937D01*
X554742Y456521D02*
X554026Y453937D01*
X554742Y456521D02*
X555458Y453937D01*
X554295Y454798D02*
X555190D01*
X557516Y456152D02*
X557337Y456398D01*
X557069Y456521*
X556711*
X556442Y456398*
X556263Y456152*
Y455906*
X556353Y455659*
X556442Y455536*
X556621Y455413*
X557158Y455167*
X557337Y455044*
X557427Y454921*
X557516Y454675*
Y454306*
X557337Y454060*
X557069Y453937*
X556711*
X556442Y454060*
X556263Y454306*
X558321Y456521D02*
Y453937D01*
X559574Y456521D02*
X558321Y454798D01*
X558769Y455413D02*
X559574Y453937D01*
X560379Y453445D02*
X562258D01*
X563422Y456521D02*
Y453937D01*
X562795Y456521D02*
X564048D01*
X565390D02*
X565211Y456398D01*
X565032Y456152*
X564943Y455906*
X564853Y455536*
Y454921*
X564943Y454552*
X565032Y454306*
X565211Y454060*
X565390Y453937*
X565748*
X565927Y454060*
X566106Y454306*
X566195Y454552*
X566285Y454921*
Y455536*
X566195Y455906*
X566106Y456152*
X565927Y456398*
X565748Y456521*
X565390*
X567090D02*
Y453937D01*
Y456521D02*
X567895D01*
X568164Y456398*
X568253Y456275*
X568343Y456029*
Y455659*
X568253Y455413*
X568164Y455290*
X567895Y455167*
X567090*
G54D44*
X419685Y381890D02*
X423622D01*
Y374803*
X419685*
Y381890*
Y374803D02*
X423622D01*
X419685Y376772D02*
X423622D01*
X419685Y378740D02*
X423622D01*
X419685Y380709D02*
X423622D01*
X421260Y374803D02*
Y381890D01*
X423228Y374803D02*
Y381890D01*
G54D74*
X403189Y369291D02*
Y371260D01*
X406732*
Y369291*
X403189*
X406732*
X403189Y370866D02*
X406732D01*
X404724Y369291D02*
Y371260D01*
X406299Y369291D02*
Y371260D01*
X404134Y363780D02*
Y365748D01*
X407677*
Y363780*
X404134*
X407677*
X404134Y365354D02*
X407677D01*
X404724Y363780D02*
Y365748D01*
X406299Y363780D02*
Y365748D01*
X396260Y369488D02*
Y371457D01*
X399803*
Y369488*
X396260*
X399803*
X396260Y371063D02*
X399803D01*
X396850Y369488D02*
Y371457D01*
X398425Y369488D02*
Y371457D01*
X396850Y363780D02*
Y365748D01*
X400394*
Y363780*
X396850*
X400394*
X396850Y365354D02*
X400394D01*
X396850Y363780D02*
Y365748D01*
X398425Y363780D02*
Y365748D01*
X400000Y363780D02*
Y365748D01*
G54D105*
X457634Y405512D02*
G75*
G03X445823I-5906J-0D01*
G01X445028Y404546D02*
G03X445823Y405512I-190J966D01*
G01X444870Y404528D02*
G03X445028Y404546I0J684D01*
G01X444870Y404528D02*
X443053D01*
X442068Y405512D02*
G03X443053Y404528I985J-0D01*
G01X447056Y417647D02*
G03X442068Y405512I12267J-12135D01*
G01X447768Y418326D02*
G03X447056Y417647I-359J-336D01*
G01X459323Y422767D02*
G03X447768Y418326I0J-17255D01*
G01X459323Y422767D02*
Y437224D01*
G03X459026Y437933I-1005J-5*
X458323Y438208I-680J-703*
X436829Y429262I1000J-32696*
G01X436125Y428575D02*
G03X436829Y429262I349J346D01*
G01X436125Y428575D02*
G03X426612Y405512I23198J-23063D01*
G01X425628Y404528D02*
G03X426612Y405512I-0J984D01*
G01X425628Y404528D02*
X423425D01*
X422441Y405512D02*
G03X423425Y404528I984J-0D01*
G01X422521Y405907D02*
G03X422441Y405512I882J-384D01*
G01X422743Y406223D02*
G03X422521Y405907I710J-735D01*
G01X423056Y406433D02*
G03X422743Y406223I398J-932D01*
G01X423425Y406504D02*
G03X423056Y406433I-11J-938D01*
G01X423425Y406504D02*
X424409D01*
Y432202*
X424055Y432353D02*
G03X424409Y432202I349J325D01*
G01X423917Y432698D02*
G03X424055Y432353I474J-10D01*
G01X424063Y433050D02*
G03X423917Y432698I335J-345D01*
G01X424409Y433194D02*
G03X424063Y433050I-7J-472D01*
G01X424409Y433194D02*
Y469129D01*
G03X423425Y470114I-984J0*
G01X394685*
G03X393701Y469129I0J-985*
G01Y465488*
Y464503D02*
G03Y465488I-0J492D01*
G01Y464503D02*
Y433194D01*
X394055Y433042D02*
G03X393701Y433194I-349J-326D01*
G01X394193Y432698D02*
G03X394055Y433042I-475J9D01*
G01X394047Y432346D02*
G03X394193Y432698I-335J344D01*
G01X393701Y432202D02*
G03X394047Y432346I7J471D01*
G01X393701Y432202D02*
Y400098D01*
Y399114D02*
G03Y400098I-0J492D01*
G01Y399114D02*
Y398425D01*
G03X394685Y397441I984J0*
G01X397441*
X398425Y396457D02*
G03X397441Y397441I-984J-0D01*
G01X398425Y396457D02*
Y383184D01*
G03X399409Y382200I984J0*
G01X401575*
Y374326D02*
G03Y382200I-0J3937D01*
G01Y374326D02*
X395472D01*
G03X394488Y373342I0J-984*
G01Y363105*
G03X395472Y362121I984J0*
G01X408858*
G03X409843Y363105I0J984*
G01Y364680*
X410827Y365664D02*
G03X409843Y364680I-0J-984D01*
G01X410827Y365664D02*
X425197D01*
G03X427008Y366220I-132J3658*
G01X437795Y372441*
G03X438583Y373622I-629J1272*
G01Y383110*
G03X437795Y384134I-1282J-171*
G01X427000Y390336*
G03X426508Y390468I-492J-853*
G01X424016*
X420866Y393617D02*
G03X424016Y390468I3150J0D01*
G01X420866Y393617D02*
Y396457D01*
X422835D02*
G03X420866I-985J-0D01*
G01X422835D02*
Y395472D01*
G03X423819Y394488I984J0*
G01X434303*
X435287D02*
G03X434303I-492J0D01*
G01X435287D02*
X468169D01*
X469154D02*
G03X468169I-493J0D01*
G01X469154D02*
X476087D01*
G03X477072Y395472I0J984*
G01Y403543*
G03X476087Y404528I-985J0*
G01X458586*
X458429Y404546D02*
G03X458586Y404528I157J666D01*
G01X457634Y405512D02*
G03X458429Y404546I984J-0D01*
G54D110*
G01X423583Y386181D03*
G54D117*
X451772Y403051D03*
G54D118*
X452374Y428033D02*
X451169Y430943D01*
X442846Y422508D02*
X440619Y424736D01*
X437164Y413177D02*
X434254Y414382D01*
G54D119*
X409252Y401181D03*
X409055Y464567D03*
G54D120*
X401575Y432677D03*
X416535Y414961D03*
X401575Y450394D03*
X416535Y432677D03*
Y450394D03*
X401575Y414961D03*
G74*
X0Y0D02*
M02*
