M48
;FILE_FORMAT=2:4
INCH,LZ
FMAT,2
ICI,OFF
;TYPE=PLATED
T1C.00591
%
M72
G90
G93X0Y0
T1C.00591F0S0
X040709Y036476
X03998Y036476
X042343Y036886
X041949Y036887
X040614Y037028
X039921Y037047
X041169Y037083
X041028Y03735
X041874Y037835
X040984Y038138
X040283Y038492
X041787Y04137
X040165Y041508
X040354Y04278
X04165Y043248
X041335Y044744
X040504Y044764
X040827Y046283
X045197Y042949
X044185Y042354
X043516Y04139
X045177Y040305
X042752Y038622
M30
