*
*
G04 PADS VX.2.13 Build Number: 22185787 generated Gerber (RS-274-X) file*
G04 PC Version=2.1*
*
%IN "FT2_L1.pcb"*%
*
%MOIN*%
*
%FSLAX35Y35*%
*
*
*
*
G04 PC Standard Apertures*
*
*
G04 Thermal Relief Aperture macro.*
%AMTER*
1,1,$1,0,0*
1,0,$1-$2,0,0*
21,0,$3,$4,0,0,45*
21,0,$3,$4,0,0,135*
%
*
*
G04 Annular Aperture macro.*
%AMANN*
1,1,$1,0,0*
1,0,$2,0,0*
%
*
*
G04 Odd Aperture macro.*
%AMODD*
1,1,$1,0,0*
1,0,$1-0.005,0,0*
%
*
*
G04 PC Custom Aperture Macros*
*
*
*
*
*
*
G04 PC Aperture Table*
*
%ADD010C,0.001*%
%ADD015C,0.00591*%
%ADD026C,0.00787*%
%ADD035C,0.01181*%
%ADD092C,0.00512*%
%ADD105C,0*%
*
*
*
*
G04 PC Circuitry*
G04 Layer Name FT2_L1.pcb - circuitry*
%LPD*%
*
*
G04 PC Custom Flashes*
G04 Layer Name FT2_L1.pcb - flashes*
%LPD*%
*
*
G04 PC Circuitry*
G04 Layer Name FT2_L1.pcb - circuitry*
%LPD*%
*
G54D10*
G54D15*
G01X425150Y370194D02*
X426742D01*
Y371745*
X411811Y386727D02*
X410236D01*
Y385153*
X562992Y435851D02*
Y433268D01*
Y435851D02*
X561829D01*
X562992Y434621D02*
X562276D01*
X560397Y435851D02*
Y433268D01*
X561024Y435851D02*
X559771D01*
X558876Y435236D02*
Y435359D01*
X558787Y435605*
X558697Y435728*
X558518Y435851*
X558160*
X557981Y435728*
X557892Y435605*
X557802Y435359*
Y435113*
X557892Y434867*
X558071Y434498*
X558966Y433268*
X557713*
X556908Y434375D02*
X555297D01*
X554492Y435851D02*
Y433268D01*
X553418*
X552613Y435359D02*
X552434Y435482D01*
X552165Y435851*
Y433268*
X551360Y432776D02*
X549481D01*
X548944Y435359D02*
X548765Y435482D01*
X548497Y435851*
Y433268*
X547513Y435851D02*
X546528D01*
X547065Y434867*
X546797*
X546618Y434744*
X546528Y434621*
X546439Y434252*
Y434006*
X546528Y433637*
X546707Y433391*
X546976Y433268*
X547244*
X547513Y433391*
X547602Y433514*
X547691Y433760*
X545186Y435851D02*
X545455Y435728D01*
X545544Y435482*
Y435236*
X545455Y434990*
X545276Y434867*
X544918Y434744*
X544649Y434621*
X544470Y434375*
X544381Y434129*
Y433760*
X544470Y433514*
X544560Y433391*
X544828Y433268*
X545186*
X545455Y433391*
X545544Y433514*
X545634Y433760*
X545634D02*
Y434129D01*
X545634D02*
X545544Y434375D01*
X545365Y434621*
X545097Y434744*
X544739Y434867*
X544560Y434990*
X544470Y435236*
Y435482*
X544560Y435728*
X544828Y435851*
X545186*
X542412D02*
X543307D01*
X543397Y434744*
X543307Y434867*
X543039Y434990*
X542770*
X542502Y434867*
X542323Y434621*
X542233Y434252*
X542323Y434006*
X542412Y433637*
X542591Y433391*
X542860Y433268*
X543128*
X543397Y433391*
X543486Y433514*
X543576Y433760*
X541249Y435851D02*
X540265D01*
X540802Y434867*
X540533*
X540354Y434744*
X540265Y434621*
X540175Y434252*
Y434006*
X540265Y433637*
X540444Y433391*
X540712Y433268*
X540981*
X541249Y433391*
X541339Y433514*
X541428Y433760*
X539370Y432776D02*
X537491D01*
X536775Y435851D02*
X535791D01*
X536328Y434867*
X536059*
X535880Y434744*
X535791Y434621*
X535702Y434252*
Y434006*
X535791Y433637*
X535970Y433391*
X536238Y433268*
X536507*
X536775Y433391*
X536865Y433514*
X536954Y433760*
X534896Y432776D02*
X533017D01*
X531228Y435482D02*
X531407Y435728D01*
X531675Y435851*
X532033*
X532301Y435728*
X532480Y435482*
Y435236*
X532391Y434990*
X532301Y434867*
X532122Y434744*
X531586Y434498*
X531407Y434375*
X531317Y434252*
X531228Y434006*
Y433637*
X531407Y433391*
X531675Y433268*
X532033*
X532301Y433391*
X532480Y433637*
X530422Y435851D02*
Y433268D01*
X529617Y435851D02*
Y433268D01*
X528543*
X527738Y435851D02*
Y433268D01*
X526485Y435851D02*
X527738Y434129D01*
X527291Y434744D02*
X526485Y433268D01*
X524427Y435482D02*
X524606Y435728D01*
X524875Y435851*
X525233*
X525501Y435728*
X525680Y435482*
Y435236*
X525591Y434990*
X525501Y434867*
X525322Y434744*
X524785Y434498*
X524606Y434375*
X524517Y434252*
X524427Y434006*
Y433637*
X524606Y433391*
X524875Y433268*
X525233*
X525501Y433391*
X525680Y433637*
X522280Y435236D02*
X522369Y435482D01*
X522548Y435728*
X522727Y435851*
X523085*
X523264Y435728*
X523443Y435482*
X523533Y435236*
X523622Y434867*
Y434252*
X523533Y433883*
X523443Y433637*
X523264Y433391*
X523085Y433268*
X522727*
X522548Y433391*
X522369Y433637*
X522280Y433883*
X521475Y435851D02*
Y433268D01*
Y435851D02*
X520669D01*
X520401Y435728*
X520311Y435605*
X520222Y435359*
Y435113*
X520311Y434867*
X520401Y434744*
X520669Y434621*
X521475*
X520848D02*
X520222Y433268D01*
X519417Y435851D02*
Y433268D01*
Y435851D02*
X518253D01*
X519417Y434621D02*
X518701D01*
X519417Y433268D02*
X518253D01*
X517448Y435851D02*
Y433268D01*
Y435851D02*
X516285D01*
X517448Y434621D02*
X516732D01*
X517448Y433268D02*
X516285D01*
X515480Y435851D02*
Y433268D01*
Y435851D02*
X514227Y433268D01*
Y435851D02*
Y433268D01*
X513422Y432776D02*
X511543D01*
X511006Y435851D02*
Y433268D01*
Y435851D02*
X510200D01*
X509932Y435728*
X509843Y435605*
X509753Y435359*
Y435113*
X509843Y434867*
X509932Y434744*
X510200Y434621*
X511006D02*
X510200D01*
X509932Y434498*
X509843Y434375*
X509753Y434129*
Y433760*
X509843Y433514*
X509932Y433391*
X510200Y433268*
X511006*
X508411Y435851D02*
X508590Y435728D01*
X508769Y435482*
X508858Y435236*
X508948Y434867*
Y434252*
X508858Y433883*
X508769Y433637*
X508590Y433391*
X508411Y433268*
X508053*
X507874Y433391*
X507695Y433637*
X507606Y433883*
X507516Y434252*
Y434867*
X507606Y435236*
X507695Y435482*
X507874Y435728*
X508053Y435851*
X508411*
X506084D02*
Y433268D01*
X506711Y435851D02*
X505458D01*
G54D26*
X409055Y393947D02*
Y390256D01*
X408876Y389518*
X408518Y389026*
X407981Y388780*
X407623*
X407087Y389026*
X406729Y389518*
X406550Y390256*
Y393947*
X404939Y392963D02*
X404581Y393209D01*
X404044Y393947*
Y388780*
G54D35*
X411833Y389005D02*
G75*
G03X411833I-514J0D01*
G54D92*
G01X431580Y378131D02*
X431670Y378345D01*
X431849Y378559*
X432028Y378666*
X432385*
X432564Y378559*
X432743Y378345*
X432833Y378131*
X432922Y377809*
Y377274*
X432833Y376953*
X432743Y376739*
X432564Y376525*
X432385Y376418*
X432028*
X431849Y376525*
X431670Y376739*
X431580Y376953*
X430685Y378131D02*
Y378238D01*
X430596Y378452*
X430506Y378559*
X430327Y378666*
X429970*
X429791Y378559*
X429701Y378452*
X429612Y378238*
Y378023*
X429612D02*
X429701Y377809D01*
X429880Y377488*
X430775Y376418*
X429522*
X435804Y374883D02*
X435893Y375097D01*
X436072Y375311*
X436251Y375418*
X436609*
X436788Y375311*
X436967Y375097*
X437056Y374883*
X437146Y374561*
Y374026*
X437056Y373705*
X436967Y373491*
X436788Y373277*
X436609Y373170*
X436251*
X436072Y373277*
X435893Y373491*
X435804Y373705*
X434998Y374990D02*
X434819Y375097D01*
X434551Y375418*
Y373170*
G54D105*
X457634Y405512D02*
G03X445823I-5906J-0D01*
G01X445028Y404546D02*
G03X445823Y405512I-190J966D01*
G01X444870Y404528D02*
G03X445028Y404546I0J684D01*
G01X444870Y404528D02*
X443053D01*
X442068Y405512D02*
G03X443053Y404528I985J-0D01*
G01X447056Y417647D02*
G03X442068Y405512I12267J-12135D01*
G01X447768Y418326D02*
G03X447056Y417647I-359J-336D01*
G01X459323Y422767D02*
G03X447768Y418326I0J-17255D01*
G01X459323Y422767D02*
Y437224D01*
G03X459026Y437933I-1005J-5*
X458323Y438208I-680J-703*
X436829Y429262I1000J-32696*
G01X436125Y428575D02*
G03X436829Y429262I349J346D01*
G01X436125Y428575D02*
G03X426612Y405512I23198J-23063D01*
G01X425628Y404528D02*
G03X426612Y405512I-0J984D01*
G01X425628Y404528D02*
X423425D01*
X422441Y405512D02*
G03X423425Y404528I984J-0D01*
G01X422521Y405907D02*
G03X422441Y405512I882J-384D01*
G01X422743Y406223D02*
G03X422521Y405907I710J-735D01*
G01X423056Y406433D02*
G03X422743Y406223I398J-932D01*
G01X423425Y406504D02*
G03X423056Y406433I-11J-938D01*
G01X423425Y406504D02*
X424409D01*
Y432202*
X424055Y432353D02*
G03X424409Y432202I349J325D01*
G01X423917Y432698D02*
G03X424055Y432353I474J-10D01*
G01X424063Y433050D02*
G03X423917Y432698I335J-345D01*
G01X424409Y433194D02*
G03X424063Y433050I-7J-472D01*
G01X424409Y433194D02*
Y469129D01*
G03X423425Y470114I-984J0*
G01X394685*
G03X393701Y469129I0J-985*
G01Y465488*
Y464503D02*
G03Y465488I-0J492D01*
G01Y464503D02*
Y433194D01*
X394055Y433042D02*
G03X393701Y433194I-349J-326D01*
G01X394193Y432698D02*
G03X394055Y433042I-475J9D01*
G01X394047Y432346D02*
G03X394193Y432698I-335J344D01*
G01X393701Y432202D02*
G03X394047Y432346I7J471D01*
G01X393701Y432202D02*
Y400098D01*
Y399114D02*
G03Y400098I-0J492D01*
G01Y399114D02*
Y398425D01*
G03X394685Y397441I984J0*
G01X397441*
X398425Y396457D02*
G03X397441Y397441I-984J-0D01*
G01X398425Y396457D02*
Y383184D01*
G03X399409Y382200I984J0*
G01X401575*
Y374326D02*
G03Y382200I-0J3937D01*
G01Y374326D02*
X395472D01*
G03X394488Y373342I0J-984*
G01Y363105*
G03X395472Y362121I984J0*
G01X408858*
G03X409843Y363105I0J984*
G01Y364680*
X410827Y365664D02*
G03X409843Y364680I-0J-984D01*
G01X410827Y365664D02*
X425197D01*
G03X427008Y366220I-132J3658*
G01X437795Y372441*
G03X438583Y373622I-629J1272*
G01Y383110*
G03X437795Y384134I-1282J-171*
G01X427000Y390336*
G03X426508Y390468I-492J-853*
G01X424016*
X420866Y393617D02*
G03X424016Y390468I3150J0D01*
G01X420866Y393617D02*
Y396457D01*
X422835D02*
G03X420866I-985J-0D01*
G01X422835D02*
Y395472D01*
G03X423819Y394488I984J0*
G01X434303*
X435287D02*
G03X434303I-492J0D01*
G01X435287D02*
X468169D01*
X469154D02*
G03X468169I-493J0D01*
G01X469154D02*
X476087D01*
G03X477072Y395472I0J984*
G01Y403543*
G03X476087Y404528I-985J0*
G01X458586*
X458429Y404546D02*
G03X458586Y404528I157J666D01*
G01X457634Y405512D02*
G03X458429Y404546I984J-0D01*
G74*
G01X0Y0D02*
M02*
