*
*
G04 PADS VX.2.8 Build Number: 19810023 generated Gerber (RS-274-X) file*
G04 PC Version=2.1*
*
%IN "FT2_L1.pcb"*%
*
%MOIN*%
*
%FSLAX35Y35*%
*
*
*
*
G04 PC Standard Apertures*
*
*
G04 Thermal Relief Aperture macro.*
%AMTER*
1,1,$1,0,0*
1,0,$1-$2,0,0*
21,0,$3,$4,0,0,45*
21,0,$3,$4,0,0,135*
%
*
*
G04 Annular Aperture macro.*
%AMANN*
1,1,$1,0,0*
1,0,$2,0,0*
%
*
*
G04 Odd Aperture macro.*
%AMODD*
1,1,$1,0,0*
1,0,$1-0.005,0,0*
%
*
*
G04 PC Custom Aperture Macros*
*
*
*
*
*
*
G04 PC Aperture Table*
*
%ADD010C,0.001*%
%ADD013C,0.00394*%
%ADD015C,0.00591*%
%ADD044C,0.01969*%
%ADD105C,0*%
%ADD108O,0.01575X0.0315*%
%ADD109O,0.0315X0.01575*%
*
*
*
*
G04 PC Circuitry*
G04 Layer Name FT2_L1.pcb - circuitry*
%LPD*%
*
*
G04 PC Custom Flashes*
G04 Layer Name FT2_L1.pcb - flashes*
%LPD*%
*
*
G04 PC Circuitry*
G04 Layer Name FT2_L1.pcb - circuitry*
%LPD*%
*
G54D10*
G54D13*
G01X432638Y373425D02*
X431378D01*
Y374803*
X432638*
Y373425*
X431378D02*
X432638D01*
X431378Y373819D02*
X432638D01*
X431378Y374213D02*
X432638D01*
X431378Y374606D02*
X432638D01*
X431496Y373425D02*
Y374803D01*
X431890Y373425D02*
Y374803D01*
X432283Y373425D02*
Y374803D01*
X430433Y373425D02*
X429173D01*
Y374803*
X430433*
Y373425*
X429173D02*
X430433D01*
X429173Y373819D02*
X430433D01*
X429173Y374213D02*
X430433D01*
X429173Y374606D02*
X430433D01*
X429528Y373425D02*
Y374803D01*
X429921Y373425D02*
Y374803D01*
X430315Y373425D02*
Y374803D01*
X428583Y371752D02*
X429843D01*
Y370374*
X428583*
Y371752*
Y370374D02*
X429843D01*
X428583Y370768D02*
X429843D01*
X428583Y371161D02*
X429843D01*
X428583Y371555D02*
X429843D01*
X428740Y370374D02*
Y371752D01*
X429134Y370374D02*
Y371752D01*
X429528Y370374D02*
Y371752D01*
X430787D02*
X432047D01*
Y370374*
X430787*
Y371752*
Y370374D02*
X432047D01*
X430787Y370768D02*
X432047D01*
X430787Y371161D02*
X432047D01*
X430787Y371555D02*
X432047D01*
X431102Y370374D02*
Y371752D01*
X431496Y370374D02*
Y371752D01*
X431890Y370374D02*
Y371752D01*
G54D15*
X567126Y452584D02*
Y450000D01*
Y452584D02*
X565963D01*
X567126Y451353D02*
X566410D01*
X564531Y452584D02*
Y450000D01*
X565157Y452584D02*
X563905D01*
X563010Y451969D02*
Y452092D01*
X562921Y452338*
X562831Y452461*
X562652Y452584*
X562294*
X562115Y452461*
X562026Y452338*
X561936Y452092*
Y451845*
X562026Y451599*
X562205Y451230*
X563099Y450000*
X563099D02*
X561847D01*
X561042Y451107D02*
X559431D01*
X558626Y452584D02*
Y450000D01*
X557552*
X556747Y452092D02*
X556568Y452215D01*
X556299Y452584*
Y450000*
X555494Y449508D02*
X553615D01*
X553078Y452092D02*
X552899Y452215D01*
X552631Y452584*
Y450000*
X551646Y452584D02*
X550662D01*
X551199Y451599*
X550931*
X550752Y451476*
X550662Y451353*
X550573Y450984*
Y450738*
X550662Y450369*
X550841Y450123*
X551110Y450000*
X551378*
X551646Y450123*
X551736Y450246*
X551825Y450492*
X549320Y452584D02*
X549588Y452461D01*
X549678Y452215*
Y451969*
X549588Y451722*
X549409Y451599*
X549052Y451476*
X548783Y451353*
X548604Y451107*
X548515Y450861*
Y450492*
X548604Y450246*
X548694Y450123*
X548962Y450000*
X549320*
X549588Y450123*
X549678Y450246*
X549767Y450492*
Y450861*
X549678Y451107*
X549499Y451353*
X549230Y451476*
X548873Y451599*
X548694Y451722*
X548604Y451969*
Y452215*
X548694Y452461*
X548962Y452584*
X549320*
X546546D02*
X547441D01*
X547530Y451476*
X547441Y451599*
X547173Y451722*
X546904*
X546636Y451599*
X546457Y451353*
X546367Y450984*
X546457Y450738*
X546546Y450369*
X546725Y450123*
X546994Y450000*
X547262*
X547530Y450123*
X547620Y450246*
X547709Y450492*
X545383Y452584D02*
X544399D01*
X544936Y451599*
X544667*
X544488Y451476*
X544399Y451353*
X544309Y450984*
Y450738*
X544399Y450369*
X544578Y450123*
X544846Y450000*
X545115*
X545383Y450123*
X545472Y450246*
X545562Y450492*
X543504Y449508D02*
X541625D01*
X540909Y452584D02*
X539925D01*
X540462Y451599*
X540193*
X540014Y451476*
X539925Y451353*
X539835Y450984*
Y450738*
X539925Y450369*
X540104Y450123*
X540372Y450000*
X540641*
X540909Y450123*
X540999Y450246*
X541088Y450492*
X539030Y449508D02*
X537151D01*
X535361Y452215D02*
X535540Y452461D01*
X535809Y452584*
X536167*
X536435Y452461*
X536614Y452215*
Y451969*
X536525Y451722*
X536435Y451599*
X536256Y451476*
X535719Y451230*
X535540Y451107*
X535451Y450984*
X535361Y450738*
Y450369*
X535540Y450123*
X535809Y450000*
X536167*
X536435Y450123*
X536614Y450369*
X534019Y452584D02*
X534198Y452461D01*
X534377Y452215*
X534467Y451969*
X534556Y451599*
Y450984*
X534467Y450615*
X534377Y450369*
X534198Y450123*
X534019Y450000*
X533661*
X533482Y450123*
X533304Y450369*
X533214Y450615*
X533125Y450984*
Y451599*
X533214Y451969*
X533304Y452215*
X533482Y452461*
X533661Y452584*
X534019*
X532319D02*
Y450000D01*
X531246*
X530440Y452584D02*
Y450000D01*
Y452584D02*
X529814D01*
X529545Y452461*
X529366Y452215*
X529366D02*
X529277Y451969D01*
X529188Y451599*
Y450984*
X529277Y450615*
X529366Y450369*
X529366D02*
X529545Y450123D01*
X529814Y450000*
X530440*
X528382Y452584D02*
Y450000D01*
Y452584D02*
X527219D01*
X528382Y451353D02*
X527666D01*
X528382Y450000D02*
X527219D01*
X526414Y452584D02*
Y450000D01*
Y452584D02*
X525608D01*
X525340Y452461*
X525251Y452338*
X525161Y452092*
Y451845*
X525251Y451599*
X525340Y451476*
X525608Y451353*
X526414*
X525787D02*
X525161Y450000D01*
X524356Y449508D02*
X522477D01*
X521940Y452584D02*
Y450000D01*
Y452584D02*
X521224Y450000D01*
X520508Y452584D02*
X521224Y450000D01*
X520508Y452584D02*
Y450000D01*
X518987Y452584D02*
X519703Y450000D01*
X518987Y452584D02*
X518271Y450000D01*
X519435Y450861D02*
X518540D01*
X516213Y452215D02*
X516392Y452461D01*
X516661Y452584*
X517019*
X517287Y452461*
X517466Y452215*
Y451969*
X517377Y451722*
X517287Y451599*
X517108Y451476*
X516571Y451230*
X516392Y451107*
X516303Y450984*
X516213Y450738*
Y450369*
X516392Y450123*
X516661Y450000*
X517019*
X517287Y450123*
X517466Y450369*
X515408Y452584D02*
Y450000D01*
X514155Y452584D02*
X515408Y450861D01*
X514961Y451476D02*
X514155Y450000D01*
X513350Y449508D02*
X511471D01*
X510934Y452584D02*
Y450000D01*
Y452584D02*
X510129D01*
X509860Y452461*
X509771Y452338*
X509681Y452092*
Y451845*
X509771Y451599*
X509860Y451476*
X510129Y451353*
X510934D02*
X510129D01*
X509860Y451230*
X509771Y451107*
X509681Y450861*
Y450492*
X509771Y450246*
X509860Y450123*
X510129Y450000*
X510934*
X508339Y452584D02*
X508518Y452461D01*
X508697Y452215*
X508787Y451969*
X508876Y451599*
Y450984*
X508787Y450615*
X508697Y450369*
X508518Y450123*
X508339Y450000*
X507981*
X507802Y450123*
X507623Y450369*
X507534Y450615*
X507445Y450984*
Y451599*
X507534Y451969*
X507623Y452215*
X507802Y452461*
X507981Y452584*
X508339*
X506013D02*
Y450000D01*
X506639Y452584D02*
X505387D01*
G54D44*
X414961Y374916D02*
Y382003D01*
X422047*
Y374916*
X414961*
X422047*
X414961Y376885D02*
X422047D01*
X414961Y378853D02*
X422047D01*
X414961Y380822D02*
X422047D01*
X415354Y374916D02*
Y382003D01*
X417323Y374916D02*
Y382003D01*
X419291Y374916D02*
Y382003D01*
X421260Y374916D02*
Y382003D01*
G54D105*
X457634Y405512D02*
G75*
G03X445823I-5906J-0D01*
G01X445028Y404546D02*
G03X445823Y405512I-190J966D01*
G01X444870Y404528D02*
G03X445028Y404546I0J684D01*
G01X444870Y404528D02*
X443053D01*
X442068Y405512D02*
G03X443053Y404528I985J-0D01*
G01X447056Y417647D02*
G03X442068Y405512I12267J-12135D01*
G01X447768Y418326D02*
G03X447056Y417647I-359J-336D01*
G01X459323Y422767D02*
G03X447768Y418326I0J-17255D01*
G01X459323Y422767D02*
Y437224D01*
G03X459026Y437933I-1005J-5*
X458323Y438208I-680J-703*
X436829Y429262I1000J-32696*
G01X436125Y428575D02*
G03X436829Y429262I349J346D01*
G01X436125Y428575D02*
G03X426612Y405512I23198J-23063D01*
G01X425628Y404528D02*
G03X426612Y405512I-0J984D01*
G01X425628Y404528D02*
X423425D01*
X422441Y405512D02*
G03X423425Y404528I984J-0D01*
G01X422521Y405907D02*
G03X422441Y405512I882J-384D01*
G01X422743Y406223D02*
G03X422521Y405907I710J-735D01*
G01X423056Y406433D02*
G03X422743Y406223I398J-932D01*
G01X423425Y406504D02*
G03X423056Y406433I-11J-938D01*
G01X423425Y406504D02*
X424409D01*
Y432202*
X424055Y432353D02*
G03X424409Y432202I349J325D01*
G01X423917Y432698D02*
G03X424055Y432353I474J-10D01*
G01X424063Y433050D02*
G03X423917Y432698I335J-345D01*
G01X424409Y433194D02*
G03X424063Y433050I-7J-472D01*
G01X424409Y433194D02*
Y469129D01*
G03X423425Y470114I-984J0*
G01X394685*
G03X393701Y469129I0J-985*
G01Y465488*
Y464503D02*
G03Y465488I-0J492D01*
G01Y464503D02*
Y433194D01*
X394055Y433042D02*
G03X393701Y433194I-349J-326D01*
G01X394193Y432698D02*
G03X394055Y433042I-475J9D01*
G01X394047Y432346D02*
G03X394193Y432698I-335J344D01*
G01X393701Y432202D02*
G03X394047Y432346I7J471D01*
G01X393701Y432202D02*
Y400098D01*
Y399114D02*
G03Y400098I-0J492D01*
G01Y399114D02*
Y398425D01*
G03X394685Y397441I984J0*
G01X397441*
X398425Y396457D02*
G03X397441Y397441I-984J-0D01*
G01X398425Y396457D02*
Y383184D01*
G03X399409Y382200I984J0*
G01X401575*
Y374326D02*
G03Y382200I-0J3937D01*
G01Y374326D02*
X395472D01*
G03X394488Y373342I0J-984*
G01Y363105*
G03X395472Y362121I984J0*
G01X408858*
G03X409843Y363105I0J984*
G01Y364680*
X410827Y365664D02*
G03X409843Y364680I-0J-984D01*
G01X410827Y365664D02*
X425197D01*
G03X427008Y366220I-132J3658*
G01X437795Y372441*
G03X438583Y373622I-629J1272*
G01Y383110*
G03X437795Y384134I-1282J-171*
G01X427000Y390336*
G03X426508Y390468I-492J-853*
G01X424016*
X420866Y393617D02*
G03X424016Y390468I3150J0D01*
G01X420866Y393617D02*
Y396457D01*
X422835D02*
G03X420866I-985J-0D01*
G01X422835D02*
Y395472D01*
G03X423819Y394488I984J0*
G01X434303*
X435287D02*
G03X434303I-492J0D01*
G01X435287D02*
X468169D01*
X469154D02*
G03X468169I-493J0D01*
G01X469154D02*
X476087D01*
G03X477072Y395472I0J984*
G01Y403543*
G03X476087Y404528I-985J0*
G01X458586*
X458429Y404546D02*
G03X458586Y404528I157J666D01*
G01X457634Y405512D02*
G03X458429Y404546I984J-0D01*
G54D108*
G01X413583Y386334D03*
X415551D03*
X417520D03*
X419488D03*
X421457D03*
X423425D03*
Y370586D03*
X421457D03*
X419488D03*
X417520D03*
X415551D03*
X413583D03*
G54D109*
X426378Y383381D03*
Y381412D03*
Y379444D03*
Y377475D03*
Y375507D03*
Y373538D03*
X410630D03*
Y375507D03*
Y377475D03*
Y379444D03*
Y381412D03*
Y383381D03*
G74*
X0Y0D02*
M02*
