*
*
G04 PADS VX.2.8 Build Number: 19810023 generated Gerber (RS-274-X) file*
G04 PC Version=2.1*
*
%IN "FT2_L1.pcb"*%
*
%MOIN*%
*
%FSLAX35Y35*%
*
*
*
*
G04 PC Standard Apertures*
*
*
G04 Thermal Relief Aperture macro.*
%AMTER*
1,1,$1,0,0*
1,0,$1-$2,0,0*
21,0,$3,$4,0,0,45*
21,0,$3,$4,0,0,135*
%
*
*
G04 Annular Aperture macro.*
%AMANN*
1,1,$1,0,0*
1,0,$2,0,0*
%
*
*
G04 Odd Aperture macro.*
%AMODD*
1,1,$1,0,0*
1,0,$1-0.005,0,0*
%
*
*
G04 PC Custom Aperture Macros*
*
*
*
*
*
*
G04 PC Aperture Table*
*
%ADD010C,0.001*%
%ADD013C,0.00394*%
%ADD015C,0.00591*%
%ADD026C,0.00787*%
%ADD035C,0.01181*%
%ADD105C,0*%
%ADD106O,0.01181X0.02756*%
%ADD107O,0.02756X0.01181*%
*
*
*
*
G04 PC Circuitry*
G04 Layer Name FT2_L1.pcb - circuitry*
%LPD*%
*
*
G04 PC Custom Flashes*
G04 Layer Name FT2_L1.pcb - flashes*
%LPD*%
*
*
G04 PC Circuitry*
G04 Layer Name FT2_L1.pcb - circuitry*
%LPD*%
*
G54D10*
G54D13*
G01X432441Y373622D02*
X431575D01*
Y374606*
X432441*
Y373622*
X431575D02*
X432441D01*
X431575Y374016D02*
X432441D01*
X431575Y374409D02*
X432441D01*
X431890Y373622D02*
Y374606D01*
X432283Y373622D02*
Y374606D01*
X430236Y373622D02*
X429370D01*
Y374606*
X430236*
Y373622*
X429370D02*
X430236D01*
X429370Y374016D02*
X430236D01*
X429370Y374409D02*
X430236D01*
X429528Y373622D02*
Y374606D01*
X429921Y373622D02*
Y374606D01*
X428780Y371555D02*
X429646D01*
Y370571*
X428780*
Y371555*
Y370571D02*
X429646D01*
X428780Y370965D02*
X429646D01*
X428780Y371358D02*
X429646D01*
X429134Y370571D02*
Y371555D01*
X429528Y370571D02*
Y371555D01*
X430984D02*
X431850D01*
Y370571*
X430984*
Y371555*
Y370571D02*
X431850D01*
X430984Y370965D02*
X431850D01*
X430984Y371358D02*
X431850D01*
X431102Y370571D02*
Y371555D01*
X431496Y370571D02*
Y371555D01*
G54D15*
X565031Y444158D02*
Y441575D01*
Y444158D02*
X563868D01*
X565031Y442928D02*
X564316D01*
X562437Y444158D02*
Y441575D01*
X563063Y444158D02*
X561810D01*
X560916Y443543D02*
Y443666D01*
X560826Y443912*
X560737Y444035*
X560558Y444158*
X560200*
X560021Y444035*
X559931Y443912*
X559842Y443666*
Y443420*
X559931Y443174*
X560110Y442805*
X561005Y441575*
X559752*
X558947Y442682D02*
X557336D01*
X556531Y444158D02*
Y441575D01*
X555457*
X554652Y443666D02*
X554473Y443789D01*
X554205Y444158*
Y441575*
X553399Y441083D02*
X551520D01*
X550984Y443666D02*
X550805Y443789D01*
X550536Y444158*
Y441575*
X549552Y444158D02*
X548568D01*
X549105Y443174*
X548836*
X548657Y443051*
X548568Y442928*
X548478Y442559*
Y442313*
X548568Y441944*
X548747Y441698*
X549015Y441575*
X549283*
X549552Y441698*
X549641Y441821*
X549731Y442067*
X547225Y444158D02*
X547494Y444035D01*
X547583Y443789*
Y443543*
X547494Y443297*
X547315Y443174*
X546957Y443051*
X546689Y442928*
X546510Y442682*
X546420Y442436*
Y442067*
X546510Y441821*
X546599Y441698*
X546868Y441575*
X547225*
X547494Y441698*
X547583Y441821*
X547673Y442067*
Y442436*
X547583Y442682*
X547404Y442928*
X547136Y443051*
X546778Y443174*
X546599Y443297*
X546510Y443543*
Y443789*
X546599Y444035*
X546868Y444158*
X547225*
X544452D02*
X545346D01*
X545436Y443051*
X545346Y443174*
X545078Y443297*
X544810*
X544541Y443174*
X544362Y442928*
X544273Y442559*
X544362Y442313*
X544452Y441944*
X544631Y441698*
X544899Y441575*
X545168*
X545168D02*
X545436Y441698D01*
X545525Y441821*
X545615Y442067*
X543288Y444158D02*
X542304D01*
X542841Y443174*
X542573*
X542394Y443051*
X542304Y442928*
X542215Y442559*
Y442313*
X542304Y441944*
X542483Y441698*
X542752Y441575*
X543020*
X543288Y441698*
X543378Y441821*
X543467Y442067*
X541409Y441083D02*
X539530D01*
X538815Y444158D02*
X537830D01*
X538367Y443174*
X538099*
X537920Y443051*
X537830Y442928*
X537741Y442559*
Y442313*
X537830Y441944*
X538009Y441698*
X538278Y441575*
X538546*
X538815Y441698*
X538904Y441821*
X538994Y442067*
X536936Y441083D02*
X535057D01*
X534520Y444158D02*
Y441575D01*
Y444158D02*
X533714D01*
X533446Y444035*
X533356Y443912*
X533267Y443666*
Y443297*
X533356Y443051*
X533446Y442928*
X533714Y442805*
X534520*
X531746Y444158D02*
X532462Y441575D01*
X531746Y444158D02*
X531030Y441575D01*
X532193Y442436D02*
X531298D01*
X528972Y443789D02*
X529151Y444035D01*
X529419Y444158*
X529777*
X530046Y444035*
X530225Y443789*
Y443543*
X530135Y443297*
X530046Y443174*
X529867Y443051*
X529330Y442805*
X529151Y442682*
X529062Y442559*
X528972Y442313*
Y441944*
X529151Y441698*
X529419Y441575*
X529777*
X530046Y441698*
X530225Y441944*
X527540Y444158D02*
Y441575D01*
X528167Y444158D02*
X526914D01*
X526109D02*
Y441575D01*
Y444158D02*
X524946D01*
X526109Y442928D02*
X525393D01*
X526109Y441575D02*
X524946D01*
X524140Y441083D02*
X522261D01*
X521724Y444158D02*
Y441575D01*
Y444158D02*
X521009Y441575D01*
X520293Y444158D02*
X521009Y441575D01*
X520293Y444158D02*
Y441575D01*
X518772Y444158D02*
X519487Y441575D01*
X518772Y444158D02*
X518056Y441575D01*
X519219Y442436D02*
X518324D01*
X515998Y443789D02*
X516177Y444035D01*
X516445Y444158*
X516803*
X517072Y444035*
X517251Y443789*
Y443543*
X517161Y443297*
X517072Y443174*
X516893Y443051*
X516356Y442805*
X516177Y442682*
X516087Y442559*
X515998Y442313*
Y441944*
X516177Y441698*
X516445Y441575*
X516803*
X517072Y441698*
X517251Y441944*
X515193Y444158D02*
Y441575D01*
X513940Y444158D02*
X515193Y442436D01*
X514745Y443051D02*
X513940Y441575D01*
X513135Y441083D02*
X511256D01*
X510719Y444158D02*
Y441575D01*
Y444158D02*
X509913D01*
X509645Y444035*
X509555Y443912*
X509466Y443666*
Y443420*
X509555Y443174*
X509645Y443051*
X509913Y442928*
X510719D02*
X509913D01*
X509645Y442805*
X509555Y442682*
X509466Y442436*
Y442067*
X509555Y441821*
X509645Y441698*
X509913Y441575*
X510719*
X508124Y444158D02*
X508303Y444035D01*
X508482Y443789*
X508571Y443543*
X508661Y443174*
Y442559*
X508571Y442190*
X508482Y441944*
X508303Y441698*
X508124Y441575*
X507766*
X507587Y441698*
X507408Y441944*
X507319Y442190*
X507229Y442559*
Y443174*
X507319Y443543*
X507408Y443789*
X507587Y444035*
X507766Y444158*
X508124*
X505797D02*
Y441575D01*
X506424Y444158D02*
X505171D01*
G54D26*
X416535Y376491D02*
Y377279D01*
X417323*
Y376491*
X416535*
Y377279*
X416929Y376491D02*
Y377279D01*
X416535Y379641D02*
Y380428D01*
X417323*
Y379641*
X416535*
Y380428*
X416929Y379641D02*
Y380428D01*
X419685Y379641D02*
Y380428D01*
X420472*
Y379641*
X419685*
Y380428*
X420079Y379641D02*
Y380428D01*
X419685Y376491D02*
Y377279D01*
X420472*
Y376491*
X419685*
Y377279*
X420079Y376491D02*
Y377279D01*
G54D35*
X418504Y378460D03*
G54D105*
X457634Y405512D02*
G75*
G03X445823I-5906J-0D01*
G01X445028Y404546D02*
G03X445823Y405512I-190J966D01*
G01X444870Y404528D02*
G03X445028Y404546I0J684D01*
G01X444870Y404528D02*
X443053D01*
X442068Y405512D02*
G03X443053Y404528I985J-0D01*
G01X447056Y417647D02*
G03X442068Y405512I12267J-12135D01*
G01X447768Y418326D02*
G03X447056Y417647I-359J-336D01*
G01X459323Y422767D02*
G03X447768Y418326I0J-17255D01*
G01X459323Y422767D02*
Y437224D01*
G03X459026Y437933I-1005J-5*
X458323Y438208I-680J-703*
X436829Y429262I1000J-32696*
G01X436125Y428575D02*
G03X436829Y429262I349J346D01*
G01X436125Y428575D02*
G03X426612Y405512I23198J-23063D01*
G01X425628Y404528D02*
G03X426612Y405512I-0J984D01*
G01X425628Y404528D02*
X423425D01*
X422441Y405512D02*
G03X423425Y404528I984J-0D01*
G01X422521Y405907D02*
G03X422441Y405512I882J-384D01*
G01X422743Y406223D02*
G03X422521Y405907I710J-735D01*
G01X423056Y406433D02*
G03X422743Y406223I398J-932D01*
G01X423425Y406504D02*
G03X423056Y406433I-11J-938D01*
G01X423425Y406504D02*
X424409D01*
Y432202*
X424055Y432353D02*
G03X424409Y432202I349J325D01*
G01X423917Y432698D02*
G03X424055Y432353I474J-10D01*
G01X424063Y433050D02*
G03X423917Y432698I335J-345D01*
G01X424409Y433194D02*
G03X424063Y433050I-7J-472D01*
G01X424409Y433194D02*
Y469129D01*
G03X423425Y470114I-984J0*
G01X394685*
G03X393701Y469129I0J-985*
G01Y465488*
Y464503D02*
G03Y465488I-0J492D01*
G01Y464503D02*
Y433194D01*
X394055Y433042D02*
G03X393701Y433194I-349J-326D01*
G01X394193Y432698D02*
G03X394055Y433042I-475J9D01*
G01X394047Y432346D02*
G03X394193Y432698I-335J344D01*
G01X393701Y432202D02*
G03X394047Y432346I7J471D01*
G01X393701Y432202D02*
Y400098D01*
Y399114D02*
G03Y400098I-0J492D01*
G01Y399114D02*
Y398425D01*
G03X394685Y397441I984J0*
G01X397441*
X398425Y396457D02*
G03X397441Y397441I-984J-0D01*
G01X398425Y396457D02*
Y383184D01*
G03X399409Y382200I984J0*
G01X401575*
Y374326D02*
G03Y382200I-0J3937D01*
G01Y374326D02*
X395472D01*
G03X394488Y373342I0J-984*
G01Y363105*
G03X395472Y362121I984J0*
G01X408858*
G03X409843Y363105I0J984*
G01Y364680*
X410827Y365664D02*
G03X409843Y364680I-0J-984D01*
G01X410827Y365664D02*
X425197D01*
G03X427008Y366220I-132J3658*
G01X437795Y372441*
G03X438583Y373622I-629J1272*
G01Y383110*
G03X437795Y384134I-1282J-171*
G01X427000Y390336*
G03X426508Y390468I-492J-853*
G01X424016*
X420866Y393617D02*
G03X424016Y390468I3150J0D01*
G01X420866Y393617D02*
Y396457D01*
X422835D02*
G03X420866I-985J-0D01*
G01X422835D02*
Y395472D01*
G03X423819Y394488I984J0*
G01X434303*
X435287D02*
G03X434303I-492J0D01*
G01X435287D02*
X468169D01*
X469154D02*
G03X468169I-493J0D01*
G01X469154D02*
X476087D01*
G03X477072Y395472I0J984*
G01Y403543*
G03X476087Y404528I-985J0*
G01X458586*
X458429Y404546D02*
G03X458586Y404528I157J666D01*
G01X457634Y405512D02*
G03X458429Y404546I984J-0D01*
G54D106*
G01X413583Y386334D03*
X415551D03*
X417520D03*
X419488D03*
X421457D03*
X423425D03*
Y370586D03*
X421457D03*
X419488D03*
X417520D03*
X415551D03*
X413583D03*
G54D107*
X426378Y383381D03*
Y381412D03*
Y379444D03*
Y377475D03*
Y375507D03*
Y373538D03*
X410630D03*
Y375507D03*
Y377475D03*
Y379444D03*
Y381412D03*
Y383381D03*
G74*
X0Y0D02*
M02*
