*
*
G04 PADS Layout (Build Number 2007.65.1) generated Gerber (RS-274-X) file*
G04 PC Version=2.1*
*
%IN "P2007_0000_RBCS_RC_MAIS"*%
*
%MOIN*%
*
%FSLAX35Y35*%
*
*
*
*
G04 PC Standard Apertures*
*
*
G04 Thermal Relief Aperture macro.*
%AMTER*
1,1,$1,0,0*
1,0,$1-$2,0,0*
21,0,$3,$4,0,0,45*
21,0,$3,$4,0,0,135*
%
*
*
G04 Annular Aperture macro.*
%AMANN*
1,1,$1,0,0*
1,0,$2,0,0*
%
*
*
G04 Odd Aperture macro.*
%AMODD*
1,1,$1,0,0*
1,0,$1-0.005,0,0*
%
*
*
G04 PC Custom Aperture Macros*
*
*
*
*
*
*
G04 PC Aperture Table*
*
%ADD010C,0.01*%
%ADD031C,0.008*%
%ADD040C,0.001*%
%ADD133C,0.015*%
%ADD134C,0.02*%
%ADD147C,0.026*%
%ADD149R,0.01181X0.01181*%
%ADD156R,0.052X0.052*%
*
*
*
*
G04 PC Copper Outlines (0)*
G04 Layer Name P2007_0000_RBCS_RC_MAIS - dark (0)*
%LPD*%
*
*
G04 PC Area=Custom_Thermal*
*
G04 PC Custom Flashes*
G04 Layer Name P2007_0000_RBCS_RC_MAIS - flashes*
%LPD*%
*
*
G04 PC Circuitry*
G04 Layer Name P2007_0000_RBCS_RC_MAIS - circuitry*
%LPD*%
*
G54D10*
G01X511417Y440421D02*
Y433858D01*
X514145*
X519372Y439483D02*
X518917Y440108D01*
X518236Y440421*
X517326*
X516645Y440108*
X516190Y439483*
Y438858*
X516417Y438233*
X516645Y437921*
X517099Y437608*
X518463Y436983*
X518917Y436671*
X519145Y436358*
X519372Y435733*
Y434796*
X518917Y434171*
X518236Y433858*
X517326*
X516645Y434171*
X516190Y434796*
X526645Y436671D02*
X530736D01*
X538008Y440421D02*
Y433858D01*
X540736*
X545508Y438233D02*
Y433858D01*
Y437296D02*
X545054Y437921D01*
X544599Y438233*
X543917*
X543463Y437921*
X543008Y437296*
X542781Y436358*
Y435733*
X543008Y434796*
X543463Y434171*
X543917Y433858*
X544599*
X545054Y434171*
X545508Y434796*
X548236Y440421D02*
Y435108D01*
X548463Y434171*
X548917Y433858*
X549372*
X547554Y438233D02*
X549145D01*
X552554D02*
X552099Y437921D01*
X551645Y437296*
X551417Y436358*
Y435733*
X551645Y434796*
X552099Y434171*
X552554Y433858*
X553236*
X553690Y434171*
X554145Y434796*
X554372Y435733*
Y436358*
X554145Y437296*
X553690Y437921*
X553236Y438233*
X552554*
X564145Y437296D02*
X563917Y437921D01*
X563236Y438233*
X562554*
X561872Y437921*
X561645Y437296*
X561872Y436671*
X562326Y436358*
X563463Y436046*
X563917Y435733*
X564145Y435108*
Y434796*
X563917Y434171*
X563236Y433858*
X562554*
X561872Y434171*
X561645Y434796*
X568917Y438233D02*
Y433858D01*
Y437296D02*
X568463Y437921D01*
X568008Y438233*
X567326*
X566872Y437921*
X566417Y437296*
X566190Y436358*
Y435733*
X566417Y434796*
X566872Y434171*
X567326Y433858*
X568008*
X568463Y434171*
X568917Y434796*
X570963Y440421D02*
Y433858D01*
X575736Y440421D02*
Y433858D01*
Y437296D02*
X575281Y437921D01*
X574826Y438233*
X574145*
X573690Y437921*
X573236Y437296*
X573008Y436358*
Y435733*
X573236Y434796*
X573690Y434171*
X574145Y433858*
X574826*
X575281Y434171*
X575736Y434796*
X580508Y438233D02*
Y433858D01*
Y437296D02*
X580054Y437921D01*
X579599Y438233*
X578917*
X578463Y437921*
X578008Y437296*
X577781Y436358*
Y435733*
X578008Y434796*
X578463Y434171*
X578917Y433858*
X579599*
X580054Y434171*
X580508Y434796*
X583236Y440421D02*
Y435108D01*
X583463Y434171*
X583917Y433858*
X584372*
X582554Y438233D02*
X584145D01*
X586417D02*
Y435108D01*
X586645Y434171*
X587099Y433858*
X587781*
X588236Y434171*
X588917Y435108*
Y438233D02*
Y433858D01*
X590963Y438233D02*
Y433858D01*
Y436358D02*
X591190Y437296D01*
X591645Y437921*
X592099Y438233*
X592781*
X594826Y436358D02*
X597554D01*
Y436983*
X597326Y437608*
X597099Y437921*
X596645Y438233*
X595963*
X595508Y437921*
X595054Y437296*
X594826Y436358*
Y435733*
X595054Y434796*
X595508Y434171*
X595963Y433858*
X596645*
X597099Y434171*
X597554Y434796*
X398425Y414173D02*
Y414370D01*
X402559*
X402559*
Y408465D02*
Y410433D01*
Y412402*
Y416339D02*
X400075D01*
X398031Y418382*
Y418504*
X402559Y418307D02*
X407129D01*
X408661Y419840*
Y439370*
X403937Y444094*
X417717Y412402D02*
X424213D01*
X427165Y408465D02*
X424213D01*
X428346Y414173D02*
Y414370D01*
X428346*
X424213*
Y408465D02*
X424213D01*
X424016*
Y410433*
X424016*
X424213*
Y416339D02*
X426697D01*
X429134Y418775*
Y418898*
X424213Y418307D02*
X421292D01*
X418772Y420827*
Y440032*
X422441Y443701*
X402559Y420276D02*
X405044D01*
X406299Y421531*
Y434646*
X403150Y437795*
X402559Y422244D02*
X399639D01*
X397162Y424721*
Y431808*
X397876Y432521*
X401025*
X401181Y432677*
X402559Y424213D02*
X400075D01*
X399194Y425093*
Y428721*
X400000Y429528*
X402559Y426181D02*
X403937Y427559D01*
Y433465*
X399213Y438189*
Y445276*
X424213Y420276D02*
X421728D01*
X420472Y421531*
Y433858*
X424409Y437795*
X424213Y422244D02*
X427133D01*
X430059Y425170*
Y431358*
X429134Y432283*
X425197*
X424213Y424213D02*
X426697D01*
X427578Y425093*
Y428721*
X427559Y428740*
X424213Y426181D02*
Y429331D01*
X422441Y431102*
Y433071*
X424409Y435039*
X425197*
X427165Y437008*
Y444488*
X426378Y445276*
X427165Y444882D02*
X426378Y445276D01*
X424381Y401809D02*
X422842Y400270D01*
X417625Y401809D02*
X419165Y400270D01*
X401546Y401809D02*
X400007Y400270D01*
G54D31*
X428609Y403524D02*
Y406318D01*
X428584Y406365D02*
G75*
G03X428609Y406318I2125J1115D01*
G01X428584Y406365D02*
X427165D01*
X425920Y406774D02*
G03X427165Y406365I1245J1691D01*
G01X425920Y406774D02*
X422047D01*
X420947Y407874D02*
G03X422047Y406774I1100J0D01*
G01X420947Y407874D02*
Y409055D01*
X421020Y409449D02*
G03X420947Y409055I1027J-394D01*
G01Y409843D02*
G03X421020Y409449I1100J-0D01*
G01X420947Y409843D02*
Y410802D01*
X419817*
Y406727*
X420646Y402132D02*
G03X419817Y406727I-961J2199D01*
G01X420646Y402132D02*
X423603D01*
X424703Y401031D02*
G03X423603Y402132I-1100J0D01*
G01X424703Y401031D02*
Y395031D01*
X424679Y394801D02*
G03X424703Y395031I-1076J230D01*
G01X424679Y394801D02*
X424928D01*
X424903Y395031D02*
G03X424928Y394801I1100J0D01*
G01X424903Y395031D02*
Y401031D01*
X426003Y402132D02*
G03X424903Y401031I0J-1101D01*
G01X426003Y402132D02*
X428320D01*
X428609Y403524D02*
G03X428320Y402132I2100J-1162D01*
G01X431971Y409522D02*
Y451656D01*
X394801*
Y409522*
X396487Y405118D02*
G03X394801Y409522I-424J2362D01*
G01X398380Y402132D02*
G03X396487Y405118I-2317J624D01*
G01X398380Y402132D02*
X400769D01*
X401869Y401031D02*
G03X400769Y402132I-1100J0D01*
G01X401869Y401031D02*
Y395031D01*
X401844Y394801D02*
G03X401869Y395031I-1075J230D01*
G01X401844Y394801D02*
X402093D01*
X402068Y395031D02*
G03X402093Y394801I1101J0D01*
G01X402068Y395031D02*
Y401031D01*
X403169Y402132D02*
G03X402068Y401031I-0J-1101D01*
G01X403169Y402132D02*
X403609D01*
Y402559*
X404224Y404044D02*
G03X403609Y402559I1485J-1485D01*
G01X404224Y404044D02*
X405650Y405471D01*
X405774Y405809D02*
G03X405650Y405471I1903J-888D01*
G01X405774Y405809D02*
Y407545D01*
X404724Y406774D02*
G03X405774Y407545I0J1100D01*
G01X404724Y406774D02*
X400394D01*
X399294Y407874D02*
G03X400394Y406774I1100J0D01*
G01X399294Y407874D02*
Y409055D01*
X399367Y409449D02*
G03X399294Y409055I1027J-394D01*
G01Y409843D02*
G03X399367Y409449I1100J-0D01*
G01X399294Y409843D02*
Y411024D01*
X399367Y411417D02*
G03X399294Y411024I1027J-393D01*
G01Y411811D02*
G03X399367Y411417I1100J0D01*
G01X399294Y411811D02*
Y411936D01*
X397216Y416247D02*
G03X399294Y411936I1209J-2074D01*
G01Y420545D02*
G03X397216Y416247I-1263J-2041D01*
G01X399294Y420545D02*
Y420682D01*
X398508Y421113D02*
G03X399294Y420682I1131J1131D01*
G01X398508Y421113D02*
X396031Y423590D01*
X395562Y424721D02*
G03X396031Y423590I1600J0D01*
G01X395562Y424721D02*
Y431808D01*
X396031Y432939D02*
G03X395562Y431808I1131J-1131D01*
G01X396031Y432939D02*
X396744Y433653D01*
X397876Y434121D02*
G03X396744Y433653I-0J-1600D01*
G01X397876Y434121D02*
X399264D01*
X400250Y434889D02*
G03X399264Y434121I931J-2212D01*
G01X400250Y434889D02*
X398081Y437058D01*
X397613Y438189D02*
G03X398081Y437058I1600J-0D01*
G01X397613Y438189D02*
Y443487D01*
X397113Y446437D02*
G03X397613Y443487I2100J-1161D01*
G01X397113Y446437D02*
Y448051D01*
X400374Y451313D02*
G03X397113Y448051I-1161J-2100D01*
G01X400374Y451313D02*
X402381D01*
X404705D02*
G03X402381I-1162J-2100D01*
G01X404705D02*
X406830D01*
X408009Y450950D02*
G03X406830Y451313I-1179J-1737D01*
G01X408009Y450950D02*
X411792D01*
X412892Y449850D02*
G03X411792Y450950I-1100J0D01*
G01X412892Y449850D02*
Y443850D01*
X411792Y442750D02*
G03X412892Y443850I0J1100D01*
G01X411792Y442750D02*
X407544D01*
X409793Y440501*
X410261Y439370D02*
G03X409793Y440501I-1600J0D01*
G01X410261Y439370D02*
Y419840D01*
X409793Y418709D02*
G03X410261Y419840I-1132J1131D01*
G01X409793Y418709D02*
X408260Y417176D01*
X407129Y416707D02*
G03X408260Y417176I-0J1600D01*
G01X407129Y416707D02*
X405824D01*
Y415748*
X405752Y415354D02*
G03X405824Y415748I-1028J394D01*
G01Y414961D02*
G03X405752Y415354I-1100J-0D01*
G01X405824Y414961D02*
Y413780D01*
X405752Y413386D02*
G03X405824Y413780I-1028J394D01*
G01X405823Y413049D02*
G03X405752Y413386I-1099J-57D01*
G01X406389Y414083D02*
G03X405823Y413049I1485J-1485D01*
G01X406389Y414083D02*
X409145Y416839D01*
X410630Y417454D02*
G03X409145Y416839I-0J-2100D01*
G01X410630Y417454D02*
X417717D01*
X419817Y415354D02*
G03X417717Y417454I-2100J0D01*
G01X419817Y415354D02*
Y414002D01*
X420947*
Y414961*
X421020Y415354D02*
G03X420947Y414961I1027J-393D01*
G01Y415748D02*
G03X421020Y415354I1100J0D01*
G01X420947Y415748D02*
Y416745D01*
X420161Y417176D02*
G03X420947Y416745I1131J1131D01*
G01X420161Y417176D02*
X417641Y419696D01*
X417172Y420827D02*
G03X417641Y419696I1600J0D01*
G01X417172Y420827D02*
Y440032D01*
X417641Y441164D02*
G03X417172Y440032I1131J-1132D01*
G01X417641Y441164D02*
X419228Y442750D01*
X414192*
X413092Y443850D02*
G03X414192Y442750I1100J0D01*
G01X413092Y443850D02*
Y449850D01*
X414192Y450950D02*
G03X413092Y449850I0J-1100D01*
G01X414192Y450950D02*
X419392D01*
X419654Y450919D02*
G03X419392Y450950I-262J-1069D01*
G01X419685Y450919D02*
G03X419654I0J-2100D01*
G01X419685D02*
X420885D01*
X423209D02*
G03X420885I-1162J-2100D01*
G01X423209D02*
X426003D01*
X429265Y447657D02*
G03X426003Y450919I-2100J1162D01*
G01X429265Y447657D02*
Y446044D01*
X428765Y443093D02*
G03X429265Y446044I-1600J1789D01*
G01X428765Y443093D02*
Y437008D01*
X428297Y435876D02*
G03X428765Y437008I-1132J1132D01*
G01X428297Y435876D02*
X426629Y434209D01*
X426986Y433883D02*
G03X426629Y434209I-1789J-1600D01*
G01X426986Y433883D02*
X429134D01*
X430265Y433415D02*
G03X429134Y433883I-1131J-1132D01*
G01X430265Y433415D02*
X431190Y432490D01*
X431659Y431358D02*
G03X431190Y432490I-1600J0D01*
G01X431659Y431358D02*
Y425170D01*
X431190Y424039D02*
G03X431659Y425170I-1131J1131D01*
G01X431190Y424039D02*
X428299Y421148D01*
X429119Y416498D02*
G03X428299Y421148I15J2400D01*
G01X429119Y416498D02*
X429080Y416458D01*
X427478Y411936D02*
G03X429080Y416458I868J2237D01*
G01X427478Y411936D02*
Y411811D01*
X427405Y411417D02*
G03X427478Y411811I-1027J394D01*
G01Y411024D02*
G03X427405Y411417I-1100J-0D01*
G01X427478Y411024D02*
Y410565D01*
X429724*
X431209Y409950D02*
G03X429724Y410565I-1485J-1485D01*
G01X431209Y409950D02*
X431372Y409787D01*
X431971Y409522D02*
G03X431372Y409787I-1262J-2042D01*
G01X418403Y402132D02*
X418724D01*
X418523Y402231D02*
G03X418724Y402132I1162J2100D01*
G01X418523Y402231D02*
X417717D01*
X415617Y404331D02*
G03X417717Y402231I2100J-0D01*
G01X415617Y404331D02*
Y404626D01*
Y406397D02*
G03Y404626I-2231J-885D01*
G01Y406397D02*
Y410138D01*
X412500Y413254D02*
G03X415617Y410138I886J-2230D01*
G01X412500Y413254D02*
X411500D01*
X409974Y411729*
Y405118*
X409746Y404166D02*
G03X409974Y405118I-1872J952D01*
G01X409162Y403043D02*
G03X409746Y404166I-1485J1485D01*
G01X409162Y403043D02*
X408251Y402132D01*
X408369*
X409469Y401031D02*
G03X408369Y402132I-1100J0D01*
G01X409469Y401031D02*
Y395031D01*
X409444Y394801D02*
G03X409469Y395031I-1075J230D01*
G01X409444Y394801D02*
X417328D01*
X417303Y395031D02*
G03X417328Y394801I1100J0D01*
G01X417303Y395031D02*
Y401031D01*
X418403Y402132D02*
G03X417303Y401031I0J-1101D01*
G01X409352Y401525D02*
X417420D01*
X409469Y400525D02*
X417303D01*
X409469Y399525D02*
X417303D01*
X409469Y398525D02*
X417303D01*
X409469Y397525D02*
X417303D01*
X409469Y396525D02*
X417303D01*
X409469Y395525D02*
X417303D01*
X408644Y402525D02*
X416645D01*
X414732Y403525D02*
X415777D01*
X415260Y409525D02*
X415617D01*
X409974Y408525D02*
X415617D01*
X414693Y407525D02*
X415617D01*
X415562Y406525D02*
X415617D01*
X415573Y404525D02*
X415617D01*
X409974Y407525D02*
X412079D01*
X409522Y403525D02*
X412040D01*
X410770Y412525D02*
X411513D01*
X409974Y409525D02*
X411511D01*
X409974Y406525D02*
X411210D01*
X409888Y404525D02*
X411198D01*
X409974Y411525D02*
X411039D01*
X409974Y410525D02*
X411038D01*
X409974Y405525D02*
X410986D01*
X404187Y451525D02*
X431971D01*
X428854Y450525D02*
X431971D01*
X429459Y449525D02*
X431971D01*
X429547Y448525D02*
X431971D01*
X429265Y447525D02*
X431971D01*
X429265Y446525D02*
X431971D01*
X429478Y445525D02*
X431971D01*
X429539Y444525D02*
X431971D01*
X429145Y443525D02*
X431971D01*
X428765Y442525D02*
X431971D01*
X428765Y441525D02*
X431971D01*
X428765Y440525D02*
X431971D01*
X428765Y439525D02*
X431971D01*
X428765Y438525D02*
X431971D01*
X428765Y437525D02*
X431971D01*
X428691Y436525D02*
X431971D01*
X427945Y435525D02*
X431971D01*
X426945Y434525D02*
X431971D01*
X430144Y433525D02*
X431971D01*
X431155Y432525D02*
X431971D01*
X431650Y431525D02*
X431971D01*
X431659Y430525D02*
X431971D01*
X431659Y429525D02*
X431971D01*
X431659Y428525D02*
X431971D01*
X431659Y427525D02*
X431971D01*
X431659Y426525D02*
X431971D01*
X431659Y425525D02*
X431971D01*
X431523Y424525D02*
X431971D01*
X430676Y423525D02*
X431971D01*
X429676Y422525D02*
X431971D01*
X428676Y421525D02*
X431971D01*
X430898Y420525D02*
X431971D01*
X431451Y419525D02*
X431971D01*
X431505Y418525D02*
X431971D01*
X431102Y417525D02*
X431971D01*
X429493Y416525D02*
X431971D01*
X430330Y415525D02*
X431971D01*
X430721Y414525D02*
X431971D01*
X430657Y413525D02*
X431971D01*
X430091Y412525D02*
X431971D01*
X427440Y411525D02*
X431971D01*
X430132Y410525D02*
X431971D01*
X431966Y409525D02*
X431971D01*
X419810Y415525D02*
X420970D01*
X419460Y416525D02*
X420947D01*
X419817Y414525D02*
X420947D01*
X408609Y417525D02*
X419812D01*
X407770Y442525D02*
X419002D01*
X409609Y418525D02*
X418812D01*
X408770Y441525D02*
X418002D01*
X410230Y419525D02*
X417812D01*
X409770Y440525D02*
X417250D01*
X410261Y420525D02*
X417201D01*
X410254Y439525D02*
X417172D01*
X410261Y438525D02*
X417172D01*
X410261Y437525D02*
X417172D01*
X410261Y436525D02*
X417172D01*
X410261Y435525D02*
X417172D01*
X410261Y434525D02*
X417172D01*
X410261Y433525D02*
X417172D01*
X410261Y432525D02*
X417172D01*
X410261Y431525D02*
X417172D01*
X410261Y430525D02*
X417172D01*
X410261Y429525D02*
X417172D01*
X410261Y428525D02*
X417172D01*
X410261Y427525D02*
X417172D01*
X410261Y426525D02*
X417172D01*
X410261Y425525D02*
X417172D01*
X410261Y424525D02*
X417172D01*
X410261Y423525D02*
X417172D01*
X410261Y422525D02*
X417172D01*
X410261Y421525D02*
X417172D01*
X412661Y450525D02*
X413323D01*
X412843Y443525D02*
X413141D01*
X412892Y449525D02*
X413092D01*
X412892Y448525D02*
X413092D01*
X412892Y447525D02*
X413092D01*
X412892Y446525D02*
X413092D01*
X412892Y445525D02*
X413092D01*
X412892Y444525D02*
X413092D01*
X405824Y416525D02*
X408830D01*
X405802Y415525D02*
X407830D01*
X405824Y414525D02*
X406830D01*
X405795Y413525D02*
X405989D01*
X405767Y407525D02*
X405774D01*
X398265Y406525D02*
X405774D01*
X397454Y405525D02*
X405666D01*
X397685Y404525D02*
X404704D01*
X398337Y403525D02*
X403844D01*
X398452Y402525D02*
X403609D01*
X399856Y451525D02*
X402900D01*
X401752Y401525D02*
X402185D01*
X401869Y400525D02*
X402068D01*
X401869Y399525D02*
X402068D01*
X401869Y398525D02*
X402068D01*
X401869Y397525D02*
X402068D01*
X401869Y396525D02*
X402068D01*
X401869Y395525D02*
X402068D01*
X394801Y434525D02*
X399649D01*
X394801Y435525D02*
X399614D01*
X398463Y407525D02*
X399351D01*
X397320Y409525D02*
X399341D01*
X394801Y411525D02*
X399332D01*
X394801Y410525D02*
X399294D01*
X398224Y408525D02*
X399294D01*
X394801Y436525D02*
X398614D01*
X394801Y451525D02*
X398569D01*
X394801Y421525D02*
X398096D01*
X394801Y437525D02*
X397757D01*
X394801Y442525D02*
X397613D01*
X394801Y441525D02*
X397613D01*
X394801Y440525D02*
X397613D01*
X394801Y439525D02*
X397613D01*
X394801Y438525D02*
X397613D01*
X394801Y443525D02*
X397571D01*
X394801Y450525D02*
X397203D01*
X394801Y447525D02*
X397113D01*
X394801Y446525D02*
X397113D01*
X394801Y422525D02*
X397096D01*
X394801Y444525D02*
X396933D01*
X394801Y448525D02*
X396913D01*
X394801Y449525D02*
X396833D01*
X394801Y445525D02*
X396826D01*
X394801Y420525D02*
X396737D01*
X394801Y412525D02*
X396681D01*
X394801Y416525D02*
X396674D01*
X394801Y433525D02*
X396616D01*
X394801Y415525D02*
X396442D01*
X394801Y413525D02*
X396114D01*
X394801Y423525D02*
X396096D01*
X394801Y414525D02*
X396051D01*
X394801Y419525D02*
X395859D01*
X394801Y417525D02*
X395840D01*
X394801Y432525D02*
X395732D01*
X394801Y418525D02*
X395632D01*
X394801Y424525D02*
X395574D01*
X394801Y431525D02*
X395562D01*
X394801Y430525D02*
X395562D01*
X394801Y429525D02*
X395562D01*
X394801Y428525D02*
X395562D01*
X394801Y427525D02*
X395562D01*
X394801Y426525D02*
X395562D01*
X394801Y425525D02*
X395562D01*
X394801Y409525D02*
X394806D01*
X421767Y405525D02*
X428609D01*
X422077Y404525D02*
X428609D01*
X421946Y403525D02*
X428609D01*
X421266Y402525D02*
X428314D01*
X420658Y406525D02*
X426361D01*
X424586Y401525D02*
X425020D01*
X424703Y400525D02*
X424903D01*
X424703Y399525D02*
X424903D01*
X424703Y398525D02*
X424903D01*
X424703Y397525D02*
X424903D01*
X424703Y396525D02*
X424903D01*
X424703Y395525D02*
X424903D01*
X419817Y407525D02*
X421004D01*
X419817Y409525D02*
X420994D01*
X419817Y410525D02*
X420947D01*
X419817Y408525D02*
X420947D01*
X417801Y401952D02*
Y402231D01*
X416801Y394801D02*
Y402441D01*
X415801Y394801D02*
Y403470D01*
X414801Y407450D02*
Y409085D01*
Y394801D02*
Y403573D01*
X413801Y407876D02*
Y408660D01*
Y394801D02*
Y403148D01*
X412801Y407839D02*
Y408696D01*
Y394801D02*
Y403184D01*
X411801Y412826D02*
Y413254D01*
Y407314D02*
Y409221D01*
Y394801D02*
Y403710D01*
X410801Y394801D02*
Y412555D01*
X409801Y394801D02*
Y404283D01*
X408801Y402043D02*
Y402681D01*
X431801Y409617D02*
Y451656D01*
X430801Y432879D02*
Y451656D01*
Y420624D02*
Y423649D01*
Y410268D02*
Y417171D01*
X429801Y433738D02*
Y451656D01*
Y421203D02*
Y422649D01*
Y416082D02*
Y416592D01*
Y410563D02*
Y412264D01*
X428801Y450575D02*
Y451656D01*
Y433883D02*
Y443125D01*
Y421274D02*
Y421649D01*
Y410565D02*
Y411817D01*
X427801Y451133D02*
Y451656D01*
Y433883D02*
Y435381D01*
Y410565D02*
Y411836D01*
X426801Y451191D02*
Y451656D01*
Y434069D02*
Y434381D01*
X425801Y450919D02*
Y451656D01*
X424801Y450919D02*
Y451656D01*
X423801Y450919D02*
Y451656D01*
X422801Y451098D02*
Y451656D01*
X421801Y451206D02*
Y451656D01*
X420801Y450919D02*
Y451656D01*
Y414002D02*
Y416784D01*
X419801Y450919D02*
Y451656D01*
Y415611D02*
Y417536D01*
X418801Y450950D02*
Y451656D01*
Y442323D02*
Y442750D01*
Y417153D02*
Y418536D01*
X417801Y450950D02*
Y451656D01*
Y441323D02*
Y442750D01*
Y417453D02*
Y419536D01*
X416801Y450950D02*
Y451656D01*
Y417454D02*
Y442750D01*
X415801Y450950D02*
Y451656D01*
Y417454D02*
Y442750D01*
X414801Y450950D02*
Y451656D01*
Y417454D02*
Y442750D01*
X413801Y450878D02*
Y451656D01*
Y417454D02*
Y442822D01*
X412801Y450289D02*
Y451656D01*
Y417454D02*
Y443412D01*
X411801Y450950D02*
Y451656D01*
Y417454D02*
Y442750D01*
X410801Y450950D02*
Y451656D01*
Y417454D02*
Y442750D01*
X409801Y450950D02*
Y451656D01*
Y440493D02*
Y442750D01*
Y417284D02*
Y418717D01*
X408801Y450950D02*
Y451656D01*
Y441493D02*
Y442750D01*
Y416495D02*
Y417717D01*
X407801Y451075D02*
Y451656D01*
Y442493D02*
Y442750D01*
Y415495D02*
Y416855D01*
X406801Y451313D02*
Y451656D01*
Y414495D02*
Y416707D01*
X405801Y451313D02*
Y451656D01*
Y415187D02*
Y415521D01*
Y413219D02*
Y413553D01*
X404801Y451313D02*
Y451656D01*
Y404621D02*
Y406777D01*
X403801Y451599D02*
Y451656D01*
Y403437D02*
Y406774D01*
X402801Y451495D02*
Y451656D01*
Y402068D02*
Y406774D01*
X401801Y451313D02*
Y451656D01*
Y401411D02*
Y406774D01*
X400801Y451313D02*
Y451656D01*
Y402131D02*
Y406774D01*
X399801Y451539D02*
Y451656D01*
Y434641D02*
Y435338D01*
Y402132D02*
Y406947D01*
X398801Y451577D02*
Y451656D01*
Y434121D02*
Y436338D01*
Y420777D02*
Y420881D01*
Y402132D02*
Y411803D01*
X397801Y451153D02*
Y451656D01*
Y434120D02*
Y437436D01*
Y420893D02*
Y421819D01*
Y409136D02*
Y411856D01*
Y404411D02*
Y405825D01*
X396801Y433707D02*
Y451656D01*
Y420564D02*
Y422819D01*
Y415940D02*
Y416443D01*
Y409764D02*
Y412406D01*
Y405040D02*
Y405197D01*
X395801Y432649D02*
Y451656D01*
Y419389D02*
Y423880D01*
Y409866D02*
Y417618D01*
X427801Y402132D02*
Y406365D01*
X426801Y402132D02*
Y406396D01*
X425801Y402113D02*
Y406774D01*
X424801Y394801D02*
Y406774D01*
X423801Y402114D02*
Y406774D01*
X422801Y402132D02*
Y406774D01*
X421801Y405464D02*
Y406802D01*
Y402132D02*
Y403198D01*
X420801Y406456D02*
Y410802D01*
Y402132D02*
Y402206D01*
G54D40*
X654331Y303150D02*
X694488D01*
Y340157*
X692126Y483858D02*
Y524016D01*
X655118*
X316142Y349606D02*
Y309449D01*
X353150*
X361811Y531496D02*
X321654D01*
Y494488*
G54D133*
X415083Y407209D02*
X414305Y406431D01*
X411689Y407209D02*
X412467Y406431D01*
X411689Y403815D02*
X412467Y404593D01*
X415083Y403815D02*
X414305Y404593D01*
X411689Y412721D02*
X412467Y411943D01*
X411689Y409327D02*
X412467Y410104D01*
X415083Y409327D02*
X414305Y410104D01*
X397760Y409177D02*
X396982Y408400D01*
X397760Y405783D02*
X396982Y406561D01*
X397760Y404453D02*
X396982Y403675D01*
G54D134*
X398169Y398031D02*
X398425D01*
Y400394*
X396063Y402756*
X405769Y398031D02*
X405709Y398091D01*
Y402559*
X407677Y404528*
Y404921*
X407874Y405118*
Y412598*
X410630Y415354*
X417717*
X421003Y398031D02*
X415748D01*
X413386Y400394*
Y411024*
X428603Y398031D02*
X430709Y401318D01*
Y402362*
X396063Y407480D02*
Y410433D01*
X402559*
X396063Y402756D02*
Y407480D01*
X419685Y404331D02*
X417717D01*
Y412205*
X430709Y402362D02*
Y407480D01*
X429724Y408465*
X427165*
X417717Y412205D02*
Y412402D01*
Y415354*
X399213Y445276D02*
Y449213D01*
X409192Y446850D02*
X406830Y449213D01*
X403543*
X416792Y446850D02*
X419685Y448819D01*
X422047*
X427165Y444882D02*
Y448819D01*
X399213Y449213D02*
X403543D01*
X422047Y448819D02*
X427165D01*
G54D147*
X396063Y407480D03*
Y402756D03*
X419685Y404331D03*
X413386Y405512D03*
X430709Y402362D03*
Y407480D03*
X398425Y414173D03*
X417717Y412205D03*
X413386Y411024D03*
X428346Y414173D03*
X398031Y418504D03*
X429134Y418898D03*
X401181Y432677D03*
X400000Y429528D03*
X403150Y437795D03*
X424409D03*
X425197Y432283D03*
X427559Y428740D03*
X399213Y445276D03*
X403937Y444094D03*
X427165Y444882D03*
X422441Y443701D03*
X399213Y449213D03*
X403543D03*
X427165Y448819D03*
X422047D03*
G54D149*
X425787Y426181D02*
X422638D01*
X404134D02*
X400984D01*
X425787Y424213D02*
X422638D01*
X404134D02*
X400984D01*
X425787Y422244D02*
X422638D01*
X404134D02*
X400984D01*
X425787Y420276D02*
X422638D01*
X404134D02*
X400984D01*
X425787Y418307D02*
X422638D01*
X404134D02*
X400984D01*
X425787Y416339D02*
X422638D01*
X404134D02*
X400984D01*
X425787Y414370D02*
X422638D01*
X404134D02*
X400984D01*
X425787Y412402D02*
X422638D01*
X404134D02*
X400984D01*
X425787Y410433D02*
X422638D01*
X404134D02*
X400984D01*
X425787Y408465D02*
X422638D01*
X404134D02*
X400984D01*
G54D156*
X416792Y447250D02*
Y446450D01*
X409192Y447250D02*
Y446450D01*
X405769Y398431D02*
Y397631D01*
X398169Y398431D02*
Y397631D01*
X428603Y398431D02*
Y397631D01*
X421003Y398431D02*
Y397631D01*
G74*
X0Y0D02*
M02*
