*
*
G04 PADS Layout (Build Number 2007.65.1) generated Gerber (RS-274-X) file*
G04 PC Version=2.1*
*
%IN "P2007_0000_RBCS_RC_MAIS"*%
*
%MOIN*%
*
%FSLAX35Y35*%
*
*
*
*
G04 PC Standard Apertures*
*
*
G04 Thermal Relief Aperture macro.*
%AMTER*
1,1,$1,0,0*
1,0,$1-$2,0,0*
21,0,$3,$4,0,0,45*
21,0,$3,$4,0,0,135*
%
*
*
G04 Annular Aperture macro.*
%AMANN*
1,1,$1,0,0*
1,0,$2,0,0*
%
*
*
G04 Odd Aperture macro.*
%AMODD*
1,1,$1,0,0*
1,0,$1-0.005,0,0*
%
*
*
G04 PC Custom Aperture Macros*
*
*
*
*
*
*
G04 PC Aperture Table*
*
%ADD010C,0.01*%
%ADD040C,0.001*%
%ADD155C,0.003*%
*
*
*
*
G04 PC Copper Outlines (0)*
G04 Layer Name P2007_0000_RBCS_RC_MAIS - dark (0)*
%LPD*%
*
*
G04 PC Area=Custom_Thermal*
*
G04 PC Custom Flashes*
G04 Layer Name P2007_0000_RBCS_RC_MAIS - flashes*
%LPD*%
*
*
G04 PC Circuitry*
G04 Layer Name P2007_0000_RBCS_RC_MAIS - circuitry*
%LPD*%
*
G54D10*
G01X512598Y451444D02*
Y444882D01*
X515326*
X520780Y449882D02*
X520553Y450507D01*
X520098Y451132*
X519644Y451444*
X518735*
X518280Y451132*
X517826Y450507*
X517598Y449882*
X517371Y448944*
Y447382*
X517598Y446444*
X517826Y445819*
X518280Y445194*
X518735Y444882*
X519644*
X520098Y445194*
X520553Y445819*
X520780Y446444*
X528053Y447694D02*
X532144D01*
X539417Y451444D02*
Y444882D01*
X542144*
X546917Y449257D02*
Y444882D01*
Y448319D02*
X546462Y448944D01*
X546008Y449257*
X545326*
X544871Y448944*
X544417Y448319*
X544189Y447382*
Y446757*
X544417Y445819*
X544871Y445194*
X545326Y444882*
X546008*
X546462Y445194*
X546917Y445819*
X549644Y451444D02*
Y446132D01*
X549871Y445194*
X550326Y444882*
X550780*
X548962Y449257D02*
X550553D01*
X553962D02*
X553508Y448944D01*
X553053Y448319*
X552826Y447382*
Y446757*
X553053Y445819*
X553508Y445194*
X553962Y444882*
X554644*
X555098Y445194*
X555553Y445819*
X555780Y446757*
Y447382*
X555553Y448319*
X555098Y448944*
X554644Y449257*
X553962*
X565780Y448319D02*
X565326Y448944D01*
X564871Y449257*
X564189*
X563735Y448944*
X563280Y448319*
X563053Y447382*
Y446757*
X563280Y445819*
X563735Y445194*
X564189Y444882*
X564871*
X565326Y445194*
X565780Y445819*
X568962Y449257D02*
X568508Y448944D01*
X568053Y448319*
X567826Y447382*
Y446757*
X568053Y445819*
X568508Y445194*
X568962Y444882*
X569644*
X570098Y445194*
X570553Y445819*
X570780Y446757*
Y447382*
X570553Y448319*
X570098Y448944*
X569644Y449257*
X568962*
X572826D02*
Y444882D01*
Y448007D02*
X573508Y448944D01*
X573962Y449257*
X574644*
X575098Y448944*
X575326Y448007*
Y444882*
Y448007D02*
X576008Y448944D01*
X576462Y449257*
X577144*
X577598Y448944*
X577826Y448007*
Y444882*
X579871Y449257D02*
Y442694D01*
Y448319D02*
X580326Y448944D01*
X580780Y449257*
X581462*
X581917Y448944*
X582371Y448319*
X582598Y447382*
Y446757*
X582371Y445819*
X581917Y445194*
X581462Y444882*
X580780*
X580326Y445194*
X579871Y445819*
X585780Y449257D02*
X585326Y448944D01*
X584871Y448319*
X584644Y447382*
Y446757*
X584871Y445819*
X585326Y445194*
X585780Y444882*
X586462*
X586917Y445194*
X587371Y445819*
X587598Y446757*
Y447382*
X587371Y448319*
X586917Y448944*
X586462Y449257*
X585780*
X589644D02*
Y444882D01*
Y448007D02*
X590326Y448944D01*
X590780Y449257*
X591462*
X591917Y448944*
X592144Y448007*
Y444882*
X594189Y447382D02*
X596917D01*
Y448007*
X596689Y448632*
X596462Y448944*
X596008Y449257*
X595326*
X594871Y448944*
X594417Y448319*
X594189Y447382*
Y446757*
X594417Y445819*
X594871Y445194*
X595326Y444882*
X596008*
X596462Y445194*
X596917Y445819*
X598962Y449257D02*
Y444882D01*
Y448007D02*
X599644Y448944D01*
X600098Y449257*
X600780*
X601235Y448944*
X601462Y448007*
Y444882*
X604189Y451444D02*
Y446132D01*
X604417Y445194*
X604871Y444882*
X605326*
X603508Y449257D02*
X605098D01*
X607371Y451444D02*
X607598Y451132D01*
X607826Y451444*
X607598Y451757*
X607371Y451444*
X607598Y449257D02*
Y444882D01*
X392063Y407480D02*
X400063D01*
X396063Y403480D02*
Y411480D01*
X398063Y412762D02*
Y409480D01*
Y412762D02*
X399086D01*
X399427Y412605*
X399540Y412449*
X399654Y412137*
Y411824*
X399540Y411512*
X399427Y411355*
X399086Y411199*
X398063D02*
X399086D01*
X399427Y411043*
X399540Y410887*
X399654Y410574*
Y410105*
X399540Y409793*
X399427Y409637*
X399086Y409480*
X398063*
X392063Y402756D02*
X400063D01*
X396063Y398756D02*
Y406756D01*
X398063Y408037D02*
Y404756D01*
Y408037D02*
X399086D01*
X399427Y407881*
X399540Y407725*
X399654Y407412*
Y407100*
X399540Y406787*
X399427Y406631*
X399086Y406475*
X398063D02*
X399086D01*
X399427Y406318*
X399540Y406162*
X399654Y405850*
Y405381*
X399540Y405068*
X399427Y404912*
X399086Y404756*
X398063*
X415685Y404331D02*
X423685D01*
X419685Y400331D02*
Y408331D01*
X421685Y409612D02*
Y406331D01*
Y409612D02*
X422708D01*
X423049Y409456*
X423162Y409299*
X423276Y408987*
Y408674*
X423162Y408362*
X423049Y408206*
X422708Y408049*
X421685D02*
X422708D01*
X423049Y407893*
X423162Y407737*
X423276Y407424*
Y406956*
X423162Y406643*
X423049Y406487*
X422708Y406331*
X421685*
X409386Y405512D02*
X417386D01*
X413386Y401512D02*
Y409512D01*
X415386Y410793D02*
Y407512D01*
Y410793D02*
X416409D01*
X416749Y410637*
X416863Y410481*
X416977Y410168*
Y409856*
X416863Y409543*
X416749Y409387*
X416409Y409231*
X415386D02*
X416409D01*
X416749Y409074*
X416863Y408918*
X416977Y408606*
Y408137*
X416863Y407824*
X416749Y407668*
X416409Y407512*
X415386*
X426709Y402362D02*
X434709D01*
X430709Y398362D02*
Y406362D01*
X432709Y407643D02*
Y404362D01*
Y407643D02*
X433731D01*
X434072Y407487*
X434186Y407331*
X434300Y407018*
Y406706*
X434186Y406393*
X434072Y406237*
X433731Y406081*
X432709D02*
X433731D01*
X434072Y405925*
X434186Y405768*
X434300Y405456*
Y404987*
X434186Y404675*
X434072Y404518*
X433731Y404362*
X432709*
X426709Y407480D02*
X434709D01*
X430709Y403480D02*
Y411480D01*
X432709Y412762D02*
Y409480D01*
Y412762D02*
X433731D01*
X434072Y412605*
X434186Y412449*
X434300Y412137*
Y411824*
X434186Y411512*
X434072Y411355*
X433731Y411199*
X432709D02*
X433731D01*
X434072Y411043*
X434186Y410887*
X434300Y410574*
Y410105*
X434186Y409793*
X434072Y409637*
X433731Y409480*
X432709*
X394425Y414173D02*
X402425D01*
X398425Y410173D02*
Y418173D01*
X400425Y419454D02*
Y416173D01*
Y419454D02*
X401448D01*
X401789Y419298*
X401902Y419142*
X402016Y418829*
Y418517*
X401902Y418204*
X401789Y418048*
X401448Y417892*
X400425D02*
X401448D01*
X401789Y417736*
X401902Y417579*
X402016Y417267*
Y416798*
X401902Y416486*
X401789Y416329*
X401448Y416173*
X400425*
X413717Y412205D02*
X421717D01*
X417717Y408205D02*
Y416205D01*
X419717Y417486D02*
Y414205D01*
Y417486D02*
X420739D01*
X421080Y417330*
X421194Y417173*
X421307Y416861*
Y416548*
X421194Y416236*
X421080Y416080*
X420739Y415923*
X419717D02*
X420739D01*
X421080Y415767*
X421194Y415611*
X421307Y415298*
Y414830*
X421194Y414517*
X421080Y414361*
X420739Y414205*
X419717*
X409386Y411024D02*
X417386D01*
X413386Y407024D02*
Y415024D01*
X415386Y416305D02*
Y413024D01*
Y416305D02*
X416409D01*
X416749Y416149*
X416863Y415992*
X416977Y415680*
Y415367*
X416863Y415055*
X416749Y414899*
X416409Y414742*
X415386D02*
X416409D01*
X416749Y414586*
X416863Y414430*
X416977Y414117*
Y413649*
X416863Y413336*
X416749Y413180*
X416409Y413024*
X415386*
X424346Y414173D02*
X432346D01*
X428346Y410173D02*
Y418173D01*
X430346Y419454D02*
Y416173D01*
Y419454D02*
X431369D01*
X431710Y419298*
X431824Y419142*
X431937Y418829*
Y418517*
X431824Y418204*
X431710Y418048*
X431369Y417892*
X430346D02*
X431369D01*
X431710Y417736*
X431824Y417579*
X431937Y417267*
Y416798*
X431824Y416486*
X431710Y416329*
X431369Y416173*
X430346*
X394031Y418504D02*
X402031D01*
X398031Y414504D02*
Y422504D01*
X400031Y423785D02*
Y420504D01*
Y423785D02*
X401054D01*
X401395Y423629*
X401509Y423473*
X401622Y423160*
Y422848*
X401509Y422535*
X401395Y422379*
X401054Y422223*
X400031D02*
X401054D01*
X401395Y422066*
X401509Y421910*
X401622Y421598*
Y421129*
X401509Y420816*
X401395Y420660*
X401054Y420504*
X400031*
X425134Y418898D02*
X433134D01*
X429134Y414898D02*
Y422898D01*
X431134Y424179D02*
Y420898D01*
Y424179D02*
X432157D01*
X432497Y424023*
X432611Y423866*
X432725Y423554*
Y423241*
X432611Y422929*
X432497Y422773*
X432157Y422616*
X431134D02*
X432157D01*
X432497Y422460*
X432611Y422304*
X432725Y421991*
Y421523*
X432611Y421210*
X432497Y421054*
X432157Y420898*
X431134*
X397181Y432677D02*
X405181D01*
X401181Y428677D02*
Y436677D01*
X403181Y437958D02*
Y434677D01*
Y437958D02*
X404204D01*
X404545Y437802*
X404658Y437646*
X404772Y437333*
Y437021*
X404658Y436708*
X404545Y436552*
X404204Y436396*
X403181D02*
X404204D01*
X404545Y436240*
X404658Y436083*
X404772Y435771*
Y435302*
X404658Y434990*
X404545Y434833*
X404204Y434677*
X403181*
X396000Y429528D02*
X404000D01*
X400000Y425528D02*
Y433528D01*
X402000Y434809D02*
Y431528D01*
Y434809D02*
X403023D01*
X403364Y434653*
X403477Y434496*
X403591Y434184*
Y433871*
X403477Y433559*
X403364Y433403*
X403023Y433246*
X402000D02*
X403023D01*
X403364Y433090*
X403477Y432934*
X403591Y432621*
Y432153*
X403477Y431840*
X403364Y431684*
X403023Y431528*
X402000*
X399150Y437795D02*
X407150D01*
X403150Y433795D02*
Y441795D01*
X405150Y443077D02*
Y439795D01*
Y443077D02*
X406172D01*
X406513Y442920*
X406627Y442764*
X406741Y442452*
Y442139*
X406627Y441827*
X406513Y441670*
X406172Y441514*
X405150D02*
X406172D01*
X406513Y441358*
X406627Y441202*
X406741Y440889*
Y440420*
X406627Y440108*
X406513Y439952*
X406172Y439795*
X405150*
X420409Y437795D02*
X428409D01*
X424409Y433795D02*
Y441795D01*
X426409Y443077D02*
Y439795D01*
Y443077D02*
X427432D01*
X427773Y442920*
X427887Y442764*
X428000Y442452*
Y442139*
X427887Y441827*
X427773Y441670*
X427432Y441514*
X426409D02*
X427432D01*
X427773Y441358*
X427887Y441202*
X428000Y440889*
Y440420*
X427887Y440108*
X427773Y439952*
X427432Y439795*
X426409*
X421197Y432283D02*
X429197D01*
X425197Y428283D02*
Y436283D01*
X427197Y437565D02*
Y434283D01*
Y437565D02*
X428220D01*
X428560Y437408*
X428674Y437252*
X428788Y436940*
Y436627*
X428674Y436315*
X428560Y436158*
X428220Y436002*
X427197D02*
X428220D01*
X428560Y435846*
X428674Y435690*
X428788Y435377*
Y434908*
X428674Y434596*
X428560Y434440*
X428220Y434283*
X427197*
X423559Y428740D02*
X431559D01*
X427559Y424740D02*
Y432740D01*
X429559Y434021D02*
Y430740D01*
Y434021D02*
X430582D01*
X430923Y433865*
X431036Y433709*
X431150Y433396*
Y433084*
X431036Y432771*
X430923Y432615*
X430582Y432459*
X429559D02*
X430582D01*
X430923Y432303*
X431036Y432146*
X431150Y431834*
Y431365*
X431036Y431053*
X430923Y430896*
X430582Y430740*
X429559*
X395213Y445276D02*
X403213D01*
X399213Y441276D02*
Y449276D01*
X401213Y450557D02*
Y447276D01*
Y450557D02*
X402235D01*
X402576Y450401*
X402690Y450244*
X402804Y449932*
Y449619*
X402690Y449307*
X402576Y449151*
X402235Y448994*
X401213D02*
X402235D01*
X402576Y448838*
X402690Y448682*
X402804Y448369*
Y447901*
X402690Y447588*
X402576Y447432*
X402235Y447276*
X401213*
X399937Y444094D02*
X407937D01*
X403937Y440094D02*
Y448094D01*
X405937Y449376D02*
Y446094D01*
Y449376D02*
X406960D01*
X407301Y449219*
X407414Y449063*
X407528Y448751*
Y448438*
X407414Y448126*
X407301Y447969*
X406960Y447813*
X405937D02*
X406960D01*
X407301Y447657*
X407414Y447501*
X407528Y447188*
Y446719*
X407414Y446407*
X407301Y446251*
X406960Y446094*
X405937*
X423165Y444882D02*
X431165D01*
X427165Y440882D02*
Y448882D01*
X429165Y450163D02*
Y446882D01*
Y450163D02*
X430188D01*
X430529Y450007*
X430643Y449851*
X430756Y449538*
Y449226*
X430643Y448913*
X430529Y448757*
X430188Y448601*
X429165D02*
X430188D01*
X430529Y448444*
X430643Y448288*
X430756Y447976*
Y447507*
X430643Y447194*
X430529Y447038*
X430188Y446882*
X429165*
X418441Y443701D02*
X426441D01*
X422441Y439701D02*
Y447701D01*
X424441Y448982D02*
Y445701D01*
Y448982D02*
X425464D01*
X425805Y448826*
X425918Y448670*
X426032Y448357*
Y448045*
X425918Y447732*
X425805Y447576*
X425464Y447420*
X424441D02*
X425464D01*
X425805Y447263*
X425918Y447107*
X426032Y446795*
Y446326*
X425918Y446013*
X425805Y445857*
X425464Y445701*
X424441*
X395213Y449213D02*
X403213D01*
X399213Y445213D02*
Y453213D01*
X401213Y454494D02*
Y451213D01*
Y454494D02*
X402235D01*
X402576Y454338*
X402690Y454181*
X402804Y453869*
Y453556*
X402690Y453244*
X402576Y453088*
X402235Y452931*
X401213D02*
X402235D01*
X402576Y452775*
X402690Y452619*
X402804Y452306*
Y451838*
X402690Y451525*
X402576Y451369*
X402235Y451213*
X401213*
X399543Y449213D02*
X407543D01*
X403543Y445213D02*
Y453213D01*
X405543Y454494D02*
Y451213D01*
Y454494D02*
X406566D01*
X406907Y454338*
X407021Y454181*
X407134Y453869*
Y453556*
X407021Y453244*
X406907Y453088*
X406566Y452931*
X405543D02*
X406566D01*
X406907Y452775*
X407021Y452619*
X407134Y452306*
Y451838*
X407021Y451525*
X406907Y451369*
X406566Y451213*
X405543*
X423165Y448819D02*
X431165D01*
X427165Y444819D02*
Y452819D01*
X429165Y454100D02*
Y450819D01*
Y454100D02*
X430188D01*
X430529Y453944*
X430643Y453788*
X430756Y453475*
Y453163*
X430643Y452850*
X430529Y452694*
X430188Y452538*
X429165D02*
X430188D01*
X430529Y452381*
X430643Y452225*
X430756Y451913*
Y451444*
X430643Y451131*
X430529Y450975*
X430188Y450819*
X429165*
X418047Y448819D02*
X426047D01*
X422047Y444819D02*
Y452819D01*
X424047Y454100D02*
Y450819D01*
Y454100D02*
X425070D01*
X425411Y453944*
X425525Y453788*
X425638Y453475*
Y453163*
X425525Y452850*
X425411Y452694*
X425070Y452538*
X424047D02*
X425070D01*
X425411Y452381*
X425525Y452225*
X425638Y451913*
Y451444*
X425525Y451131*
X425411Y450975*
X425070Y450819*
X424047*
X511811Y1032252D02*
X769811D01*
X511811Y1008252D02*
X769811D01*
X511811Y984252D02*
X769811D01*
X511811Y1032252D02*
Y984252D01*
X595811Y1032252D02*
Y984252D01*
X631811Y1032252D02*
Y984252D01*
X667811Y1032252D02*
Y984252D01*
X721811Y1032252D02*
Y984252D01*
X769811Y1032252D02*
Y984252D01*
X547311Y1021002D02*
X546766Y1021752D01*
X545947Y1022127*
X544856*
X544038Y1021752*
X543493Y1021002*
Y1020252*
X543766Y1019502*
X544038Y1019127*
X544584Y1018752*
X546220Y1018002*
X546766Y1017627*
X547038Y1017252*
X547311Y1016502*
Y1015377*
X546766Y1014627*
X545947Y1014252*
X544856*
X544038Y1014627*
X543493Y1015377*
X549766Y1022127D02*
Y1014252D01*
X556038Y1022127D02*
X552220Y1014252D01*
Y1022127D02*
X556038D01*
X552220Y1014252D02*
X556038D01*
X558493Y1022127D02*
Y1014252D01*
Y1022127D02*
X562038D01*
X558493Y1018377D02*
X560675D01*
X558493Y1014252D02*
X562038D01*
X605675Y1022127D02*
X605129Y1021752D01*
X604584Y1021002*
X604311Y1020252*
X604038Y1019127*
Y1017252*
X604311Y1016127*
X604584Y1015377*
X605129Y1014627*
X605675Y1014252*
X606766*
X607311Y1014627*
X607856Y1015377*
X608129Y1016127*
X608402Y1017252*
Y1019127*
X608129Y1020252*
X607856Y1021002*
X607311Y1021752*
X606766Y1022127*
X605675*
X606493Y1015752D02*
X608129Y1013502D01*
X612766Y1022127D02*
Y1014252D01*
X610856Y1022127D02*
X614675D01*
X617129D02*
X619311Y1018377D01*
Y1014252*
X621493Y1022127D02*
X619311Y1018377D01*
X643856Y1021002D02*
X643311Y1021752D01*
X642493Y1022127*
X641402*
X640584Y1021752*
X640038Y1021002*
Y1020252*
X640311Y1019502*
X640584Y1019127*
X641129Y1018752*
X642766Y1018002*
X643311Y1017627*
X643584Y1017252*
X643856Y1016502*
Y1015377*
X643311Y1014627*
X642493Y1014252*
X641402*
X640584Y1014627*
X640038Y1015377*
X646311Y1022127D02*
X648493Y1018377D01*
Y1014252*
X650675Y1022127D02*
X648493Y1018377D01*
X653129Y1022127D02*
Y1014252D01*
Y1022127D02*
X655311Y1014252D01*
X657493Y1022127D02*
X655311Y1014252D01*
X657493Y1022127D02*
Y1014252D01*
X679311Y1022127D02*
Y1014252D01*
Y1022127D02*
X681766D01*
X682584Y1021752*
X682856Y1021377*
X683129Y1020627*
Y1019502*
X682856Y1018752*
X682584Y1018377*
X681766Y1018002*
X679311*
X685584Y1022127D02*
Y1014252D01*
X688856*
X693493Y1022127D02*
X691311Y1014252D01*
X693493Y1022127D02*
X695675Y1014252D01*
X692129Y1016877D02*
X694856D01*
X700038Y1022127D02*
Y1014252D01*
X698129Y1022127D02*
X701947D01*
X704402D02*
Y1014252D01*
Y1022127D02*
X707947D01*
X704402Y1018377D02*
X706584D01*
X704402Y1014252D02*
X707947D01*
X710402Y1022127D02*
Y1014252D01*
Y1022127D02*
X712311D01*
X713129Y1021752*
X713675Y1021002*
X713947Y1020252*
X714220Y1019127*
Y1017252*
X713947Y1016127*
X713675Y1015377*
X713129Y1014627*
X712311Y1014252*
X710402*
X738493Y1022127D02*
Y1014252D01*
X736584Y1022127D02*
X740402D01*
X744493D02*
X743947Y1021752D01*
X743402Y1021002*
X743129Y1020252*
X742856Y1019127*
Y1017252*
X743129Y1016127*
X743402Y1015377*
X743947Y1014627*
X744493Y1014252*
X745584*
X746129Y1014627*
X746675Y1015377*
X746947Y1016127*
X747220Y1017252*
Y1019127*
X746947Y1020252*
X746675Y1021002*
X746129Y1021752*
X745584Y1022127*
X744493*
X749675D02*
Y1014252D01*
X752947*
X519447Y998127D02*
X518629Y997752D01*
X518084Y996627*
X517811Y994752*
Y993627*
X518084Y991752*
X518629Y990627*
X519447Y990252*
X519993*
X520811Y990627*
X521356Y991752*
X521629Y993627*
Y994752*
X521356Y996627*
X520811Y997752*
X519993Y998127*
X519447*
X524356Y991002D02*
X524084Y990627D01*
X524356Y990252*
X524629Y990627*
X524356Y991002*
X529811Y998127D02*
X527084Y992877D01*
X531175*
X529811Y998127D02*
Y990252D01*
X535266Y998127D02*
X534447Y997752D01*
X533902Y996627*
X533629Y994752*
Y993627*
X533902Y991752*
X534447Y990627*
X535266Y990252*
X535811*
X536629Y990627*
X537175Y991752*
X537447Y993627*
Y994752*
X537175Y996627*
X536629Y997752*
X535811Y998127*
X535266*
X543175Y997002D02*
X542902Y997752D01*
X542084Y998127*
X541538*
X540720Y997752*
X540175Y996627*
X539902Y994752*
Y992877*
X540175Y991377*
X540720Y990627*
X541538Y990252*
X541811*
X542629Y990627*
X543175Y991377*
X543447Y992502*
Y992877*
X543175Y994002*
X542629Y994752*
X541811Y995127*
X541538*
X540720Y994752*
X540175Y994002*
X539902Y992877*
X548629Y998127D02*
X545902Y992877D01*
X549993*
X548629Y998127D02*
Y990252D01*
X608129Y996252D02*
Y996627D01*
X608402Y997377*
X608675Y997752*
X609220Y998127*
X610311*
X610856Y997752*
X611129Y997377*
X611402Y996627*
Y995877*
X611129Y995127*
X610584Y994002*
X607856Y990252*
X611675*
X617402Y997002D02*
X617129Y997752D01*
X616311Y998127*
X615766*
X614947Y997752*
X614402Y996627*
X614129Y994752*
Y992877*
X614402Y991377*
X614947Y990627*
X615766Y990252*
X616038*
X616856Y990627*
X617402Y991377*
X617675Y992502*
Y992877*
X617402Y994002*
X616856Y994752*
X616038Y995127*
X615766*
X614947Y994752*
X614402Y994002*
X614129Y992877*
X643811Y996252D02*
X655811D01*
X649811Y990252D02*
Y1002252D01*
X652811Y1005552D02*
Y999252D01*
Y1005552D02*
X654775D01*
X655429Y1005252*
X655647Y1004952*
X655866Y1004352*
Y1003752*
X655647Y1003152*
X655429Y1002852*
X654775Y1002552*
X652811D02*
X654775D01*
X655429Y1002252*
X655647Y1001952*
X655866Y1001352*
Y1000452*
X655647Y999852*
X655429Y999552*
X654775Y999252*
X652811*
X676447Y998127D02*
X678629Y994377D01*
Y990252*
X680811Y998127D02*
X678629Y994377D01*
X683266Y998127D02*
Y990252D01*
Y998127D02*
X686811D01*
X683266Y994377D02*
X685447D01*
X683266Y990252D02*
X686811D01*
X693084Y997002D02*
X692538Y997752D01*
X691720Y998127*
X690629*
X689811Y997752*
X689266Y997002*
Y996252*
X689538Y995502*
X689811Y995127*
X690356Y994752*
X691993Y994002*
X692538Y993627*
X692811Y993252*
X693084Y992502*
Y991377*
X692538Y990627*
X691720Y990252*
X690629*
X689811Y990627*
X689266Y991377*
X729629Y997002D02*
Y990252D01*
X727175Y993627D02*
X732084D01*
X739447Y999627D02*
X734538Y987627D01*
X741902Y993627D02*
X746811D01*
X750902Y998127D02*
X750084Y997752D01*
X749538Y996627*
X749266Y994752*
Y993627*
X749538Y991752*
X750084Y990627*
X750902Y990252*
X751447*
X752266Y990627*
X752811Y991752*
X753084Y993627*
Y994752*
X752811Y996627*
X752266Y997752*
X751447Y998127*
X750902*
X755811Y991002D02*
X755538Y990627D01*
X755811Y990252*
X756084Y990627*
X755811Y991002*
X760175Y998127D02*
X759356Y997752D01*
X758811Y996627*
X758538Y994752*
Y993627*
X758811Y991752*
X759356Y990627*
X760175Y990252*
X760720*
X761538Y990627*
X762084Y991752*
X762356Y993627*
Y994752*
X762084Y996627*
X761538Y997752*
X760720Y998127*
X760175*
G54D40*
X393701Y393701D02*
X433071D01*
Y452756*
X393701*
Y393701*
X654331Y303150D02*
X694488D01*
Y340157*
X692126Y483858D02*
Y524016D01*
X655118*
X316142Y349606D02*
Y309449D01*
X353150*
X361811Y531496D02*
X321654D01*
Y494488*
G54D155*
X419685Y407480D02*
Y410827D01*
X0Y0D02*
M02*
