%
T1C.016F095S3
X039606Y040276
X041969Y040433
X041339Y040551
X039606Y040748
X041339Y041102
X041772Y04122
X039843Y041417
X039803Y04185
X04Y042953
X040118Y043268
X040315Y04378
X040394Y044409
X039921Y044528
X039921Y044921
X040354Y044921
X042717Y044882
X042205Y044882
X042717Y044488
X042244Y04437
X042441Y04378
X04252Y043228
X042756Y042874
X042913Y04189
X042835Y041417
X043071Y040748
X043071Y040236
M30
