*
*
G04 PADS Layout (Build Number 2007.65.1) generated Gerber (RS-274-X) file*
G04 PC Version=2.1*
*
%IN "P2007_0000_RBCS_RC_MAIS"*%
*
%MOIN*%
*
%FSLAX35Y35*%
*
*
*
*
G04 PC Standard Apertures*
*
*
G04 Thermal Relief Aperture macro.*
%AMTER*
1,1,$1,0,0*
1,0,$1-$2,0,0*
21,0,$3,$4,0,0,45*
21,0,$3,$4,0,0,135*
%
*
*
G04 Annular Aperture macro.*
%AMANN*
1,1,$1,0,0*
1,0,$2,0,0*
%
*
*
G04 Odd Aperture macro.*
%AMODD*
1,1,$1,0,0*
1,0,$1-0.005,0,0*
%
*
*
G04 PC Custom Aperture Macros*
*
*
*
*
*
*
G04 PC Aperture Table*
*
%ADD010C,0.01*%
%ADD040C,0.001*%
%ADD154C,0.004*%
%ADD157C,0.006*%
*
*
*
*
G04 PC Copper Outlines (0)*
G04 Layer Name P2007_0000_RBCS_RC_MAIS - dark (0)*
%LPD*%
*
*
G04 PC Area=Custom_Thermal*
*
G04 PC Custom Flashes*
G04 Layer Name P2007_0000_RBCS_RC_MAIS - flashes*
%LPD*%
*
*
G04 PC Circuitry*
G04 Layer Name P2007_0000_RBCS_RC_MAIS - circuitry*
%LPD*%
*
G54D10*
G01X514599Y469405D02*
X514145Y470030D01*
X513463Y470342*
X512554*
X511872Y470030*
X511417Y469405*
Y468780*
X511645Y468155*
X511872Y467842*
X512326Y467530*
X513690Y466905*
X514145Y466592*
X514372Y466280*
X514599Y465655*
Y464717*
X514145Y464092*
X513463Y463780*
X512554*
X511872Y464092*
X511417Y464717*
X520054Y468780D02*
X519826Y469405D01*
X519372Y470030*
X518917Y470342*
X518008*
X517554Y470030*
X517099Y469405*
X516872Y468780*
X516645Y467842*
Y466280*
X516872Y465342*
X517099Y464717*
X517554Y464092*
X518008Y463780*
X518917*
X519372Y464092*
X519826Y464717*
X520054Y465342*
X527326Y466592D02*
X531417D01*
X541872Y469405D02*
X541417Y470030D01*
X540736Y470342*
X539826*
X539145Y470030*
X538690Y469405*
Y468780*
X538917Y468155*
X539145Y467842*
X539599Y467530*
X540963Y466905*
X541417Y466592*
X541645Y466280*
X541872Y465655*
Y464717*
X541417Y464092*
X540736Y463780*
X539826*
X539145Y464092*
X538690Y464717*
X543917Y466280D02*
X546645D01*
Y466905*
X546417Y467530*
X546190Y467842*
X545736Y468155*
X545054*
X544599Y467842*
X544145Y467217*
X543917Y466280*
Y465655*
X544145Y464717*
X544599Y464092*
X545054Y463780*
X545736*
X546190Y464092*
X546645Y464717*
X548690Y468155D02*
Y463780D01*
Y466280D02*
X548917Y467217D01*
X549372Y467842*
X549826Y468155*
X550508*
X552554Y470342D02*
X552781Y470030D01*
X553008Y470342*
X552781Y470655*
X552554Y470342*
X552781Y468155D02*
Y463780D01*
X557781Y468155D02*
Y463155D01*
X557554Y462217*
X557326Y461905*
X556872Y461592*
X556190*
X555736Y461905*
X557781Y467217D02*
X557326Y467842D01*
X556872Y468155*
X556190*
X555736Y467842*
X555281Y467217*
X555054Y466280*
Y465655*
X555281Y464717*
X555736Y464092*
X556190Y463780*
X556872*
X557326Y464092*
X557781Y464717*
X559826Y468155D02*
Y463780D01*
Y466280D02*
X560054Y467217D01*
X560508Y467842*
X560963Y468155*
X561645*
X566417D02*
Y463780D01*
Y467217D02*
X565963Y467842D01*
X565508Y468155*
X564826*
X564372Y467842*
X563917Y467217*
X563690Y466280*
Y465655*
X563917Y464717*
X564372Y464092*
X564826Y463780*
X565508*
X565963Y464092*
X566417Y464717*
X570281Y470342D02*
X569826D01*
X569372Y470030*
X569145Y469092*
Y463780*
X568463Y468155D02*
X570054D01*
X572326Y470342D02*
X572554Y470030D01*
X572781Y470342*
X572554Y470655*
X572326Y470342*
X572554Y468155D02*
Y463780D01*
X577554Y468155D02*
Y463780D01*
Y467217D02*
X577099Y467842D01*
X576645Y468155*
X575963*
X575508Y467842*
X575054Y467217*
X574826Y466280*
Y465655*
X575054Y464717*
X575508Y464092*
X575963Y463780*
X576645*
X577099Y464092*
X577554Y464717*
X584826Y470342D02*
Y463780D01*
X589599Y468155D02*
Y463780D01*
Y467217D02*
X589145Y467842D01*
X588690Y468155*
X588008*
X587554Y467842*
X587099Y467217*
X586872Y466280*
Y465655*
X587099Y464717*
X587554Y464092*
X588008Y463780*
X588690*
X589145Y464092*
X589599Y464717*
X592326Y470342D02*
Y465030D01*
X592554Y464092*
X593008Y463780*
X593463*
X591645Y468155D02*
X593236D01*
X596645D02*
X596190Y467842D01*
X595736Y467217*
X595508Y466280*
Y465655*
X595736Y464717*
X596190Y464092*
X596645Y463780*
X597326*
X597781Y464092*
X598236Y464717*
X598463Y465655*
Y466280*
X598236Y467217*
X597781Y467842*
X597326Y468155*
X596645*
X608463Y467217D02*
X608008Y467842D01*
X607554Y468155*
X606872*
X606417Y467842*
X605963Y467217*
X605736Y466280*
Y465655*
X605963Y464717*
X606417Y464092*
X606872Y463780*
X607554*
X608008Y464092*
X608463Y464717*
X611645Y468155D02*
X611190Y467842D01*
X610736Y467217*
X610508Y466280*
Y465655*
X610736Y464717*
X611190Y464092*
X611645Y463780*
X612326*
X612781Y464092*
X613236Y464717*
X613463Y465655*
Y466280*
X613236Y467217*
X612781Y467842*
X612326Y468155*
X611645*
X615508D02*
Y463780D01*
Y466905D02*
X616190Y467842D01*
X616645Y468155*
X617326*
X617781Y467842*
X618008Y466905*
Y463780*
Y466905D02*
X618690Y467842D01*
X619145Y468155*
X619826*
X620281Y467842*
X620508Y466905*
Y463780*
X622554Y468155D02*
Y461592D01*
Y467217D02*
X623008Y467842D01*
X623463Y468155*
X624145*
X624599Y467842*
X625054Y467217*
X625281Y466280*
Y465655*
X625054Y464717*
X624599Y464092*
X624145Y463780*
X623463*
X623008Y464092*
X622554Y464717*
X628463Y468155D02*
X628008Y467842D01*
X627554Y467217*
X627326Y466280*
Y465655*
X627554Y464717*
X628008Y464092*
X628463Y463780*
X629145*
X629599Y464092*
X630054Y464717*
X630281Y465655*
Y466280*
X630054Y467217*
X629599Y467842*
X629145Y468155*
X628463*
X632326D02*
Y463780D01*
Y466905D02*
X633008Y467842D01*
X633463Y468155*
X634145*
X634599Y467842*
X634826Y466905*
Y463780*
X636872Y466280D02*
X639599D01*
Y466905*
X639372Y467530*
X639145Y467842*
X638690Y468155*
X638008*
X637554Y467842*
X637099Y467217*
X636872Y466280*
Y465655*
X637099Y464717*
X637554Y464092*
X638008Y463780*
X638690*
X639145Y464092*
X639599Y464717*
X641645Y468155D02*
Y463780D01*
Y466905D02*
X642326Y467842D01*
X642781Y468155*
X643463*
X643917Y467842*
X644145Y466905*
Y463780*
X646872Y470342D02*
Y465030D01*
X647099Y464092*
X647554Y463780*
X648008*
X646190Y468155D02*
X647781D01*
X650054Y470342D02*
X650281Y470030D01*
X650508Y470342*
X650281Y470655*
X650054Y470342*
X650281Y468155D02*
Y463780D01*
G54D40*
X654331Y303150D02*
X694488D01*
Y340157*
X692126Y483858D02*
Y524016D01*
X655118*
X316142Y349606D02*
Y309449D01*
X353150*
X361811Y531496D02*
X321654D01*
Y494488*
G54D154*
X417352Y416316D02*
X417429Y416103D01*
Y415731*
X417429*
X417352Y416316*
X417401Y415442D02*
X417352Y416316D01*
X417429Y415731*
X417429*
X417401Y415442*
X417303Y415196*
X417352Y416316*
X417352*
X417401Y415442*
X417248Y416381D02*
X417352Y416316D01*
X417303Y415196*
X417303*
X417248Y416381*
X417303Y415196D02*
X417090Y414929D01*
X417118Y416348*
X417118*
X417303Y415196*
X417248Y416381D02*
X417303Y415196D01*
X417118Y416348*
X417118*
X417248Y416381*
X417074Y420599D02*
X417227Y420260D01*
Y420020*
X417227*
X417074Y420599*
X417227Y419605D02*
X417074Y420599D01*
X417227Y420020*
X417227*
Y419605*
X417096Y419398D02*
X417074Y420599D01*
X417227Y419605*
X417227*
X417096Y419398*
X417014Y416261D02*
X417118Y416348D01*
X417090Y414929*
X417090*
X417014Y416261*
X417096Y419398D02*
X416971Y419354D01*
X417074Y420599*
X417074*
X417096Y419398*
X417090Y414929D02*
X416861Y414792D01*
X416932Y415720*
X416932*
X417090Y414929*
X416954Y415873D02*
X417090Y414929D01*
X416932Y415720*
X416932*
X416954Y415873*
Y416059D02*
X417090Y414929D01*
X416954Y415873*
X416954*
Y416059*
X417014Y416261D02*
X417090Y414929D01*
X416954Y416059*
X416954*
X417014Y416261*
X416954Y420719D02*
X417074Y420599D01*
X416971Y419354*
X416971*
X416954Y420719*
X416971Y419354D02*
X416790Y419447D01*
X416954Y420719*
X416954*
X416971Y419354*
X416691Y420828D02*
X416954Y420719D01*
X416790Y419447*
X416790*
X416691Y420828*
X416698Y419518D02*
X416691Y420828D01*
X416790Y419447*
X416790*
X416698Y419518*
X416845Y415639D02*
X416932Y415720D01*
X416861Y414792*
X416861*
X416845Y415639*
X416861Y414792D02*
X416550Y414705D01*
X416654Y415693*
X416654*
X416861Y414792*
X416768Y415639D02*
X416861Y414792D01*
X416654Y415693*
X416654*
X416768Y415639*
X416845D02*
X416861Y414792D01*
X416768Y415639*
X416768*
X416845*
X416698Y419518D02*
X416610Y419671D01*
X416691Y420828*
X416691*
X416698Y419518*
X416445Y420877D02*
X416691Y420828D01*
X416610Y419671*
X416610*
X416445Y420877*
X416523Y419720D02*
X416445Y420877D01*
X416610Y419671*
X416610*
X416523Y419720*
X416445Y415852D02*
X416654Y415693D01*
X416550Y414705*
X416550*
X416445Y415852*
X416550Y414705D02*
X416309Y414683D01*
X416331Y415141*
X416331*
X416550Y414705*
X416380Y415196D02*
X416550Y414705D01*
X416331Y415141*
X416331*
X416380Y415196*
Y415327D02*
X416550Y414705D01*
X416380Y415196*
X416380*
Y415327*
X416445Y415852D02*
X416550Y414705D01*
X416380Y415327*
X416380*
X416445Y415852*
X416523Y419720D02*
X416392Y419643D01*
X416445Y420877*
X416445*
X416523Y419720*
X416216Y420877D02*
X416445D01*
X416392Y419643*
X416392*
X416216Y420877*
X416271Y420097D02*
X416216Y420877D01*
X416392Y419643*
X416392*
X416271Y420097*
X416243Y420206D02*
X416216Y420877D01*
X416271Y420097*
X416271*
X416243Y420206*
X416314Y415962D02*
X416445Y415852D01*
X416380Y415327*
X416380*
X416314Y415962*
X416353Y415414D02*
X416314Y415962D01*
X416314D02*
X416380Y415327D01*
X416380*
X416353Y415414*
X416392Y419643D02*
X416140Y419463D01*
X416200Y419960*
X416200*
X416392Y419643*
X416271Y420097D02*
X416392Y419643D01*
X416200Y419960*
X416200*
X416271Y420097*
X416353Y415414D02*
X416134Y415661D01*
X416314Y415962*
X416314D02*
X416314D01*
X416314D02*
X416353Y415414D01*
X416255Y415114D02*
X416331Y415141D01*
X416309Y414683*
X416309*
X416255Y415114*
X416118Y416142D02*
X416314Y415962D01*
X416314D02*
X416134Y415661D01*
X416134*
X416118Y416142*
X416309Y414683D02*
X416009Y414710D01*
X416140Y415114*
X416140*
X416309Y414683*
X416255Y415114D02*
X416309Y414683D01*
X416140Y415114*
X416140*
X416255*
X416243Y420206D02*
X416063Y420288D01*
X416216Y420877*
X416216*
X416243Y420206*
X415949Y420828D02*
X416216Y420877D01*
X416063Y420288*
X416063*
X415949Y420828*
X416020Y419774D02*
X416200Y419960D01*
X416140Y419463*
X416140*
X416020Y419774*
X415976Y415114D02*
X416140D01*
X416009Y414710*
X416009*
X415976Y415114*
X416140Y419463D02*
X415910Y419255D01*
X416020Y419774*
X416020*
X416140Y419463*
X416134Y415661D02*
X415926Y415885D01*
X416118Y416142*
X416118*
X416134Y415661*
X415905Y416305D02*
X416118Y416142D01*
X415926Y415885*
X415926*
X415905Y416305*
X416063Y420288D02*
X415845Y420331D01*
X415949Y420828*
X415949*
X416063Y420288*
X415850Y419616D02*
X416020Y419774D01*
X415910Y419255*
X415910*
X415850Y419616*
X416009Y414710D02*
X415818Y414775D01*
X415976Y415114*
X415976*
X416009Y414710*
X415813Y415092D02*
X415976Y415114D01*
X415818Y414775*
X415818*
X415813Y415092*
X415741Y420713D02*
X415949Y420828D01*
X415845Y420331*
X415845*
X415741Y420713*
X415926Y415885D02*
X415686Y416109D01*
X415719Y416535*
X415719*
X415926Y415885*
X415905Y416305D02*
X415926Y415885D01*
X415719Y416535*
X415719*
X415905Y416305*
X415910Y419255D02*
X415681Y419042D01*
X415850Y419616*
X415850*
X415910Y419255*
X415539Y419332D02*
X415850Y419616D01*
X415681Y419042*
X415681*
X415539Y419332*
X415845Y420331D02*
X415703Y420430D01*
X415741Y420713*
X415741*
X415845Y420331*
X415818Y414775D02*
X415704Y414863D01*
X415709Y415027*
X415709*
X415818Y414775*
X415813Y415092D02*
X415818Y414775D01*
X415709Y415027*
X415709*
X415813Y415092*
X415643Y420604D02*
X415741Y420713D01*
X415703Y420430*
X415703*
X415643Y420604*
X415485Y416748D02*
X415719Y416535D01*
X415686Y416109*
X415686*
X415485Y416748*
X415682Y414934D02*
X415709Y415027D01*
X415704Y414863*
X415704*
X415682Y414934*
X415703Y420430D02*
X415643Y420522D01*
Y420604*
X415643*
X415703Y420430*
X415686Y416109D02*
X415375Y416376D01*
X415485Y416748*
X415485*
X415686Y416109*
X415681Y419042D02*
X415414Y418775D01*
X415539Y419332*
X415539*
X415681Y419042*
X415309Y419124D02*
X415539Y419332D01*
X415414Y418775*
X415414*
X415309Y419124*
X415359Y416873D02*
X415485Y416748D01*
X415375Y416376*
X415375*
X415359Y416873*
X415414Y418775D02*
X415156Y418490D01*
X415309Y419124*
X415309*
X415414Y418775*
X415375Y416376D02*
X414883Y416786D01*
X415009Y417240*
X415009*
X415375Y416376*
X415151Y417114D02*
X415375Y416376D01*
X415009Y417240*
X415009*
X415151Y417114*
X415359Y416873D02*
X415375Y416376D01*
X415151Y417114*
X415151*
X415359Y416873*
X415031Y418917D02*
X415309Y419124D01*
X415156Y418490*
X415156*
X415031Y418917*
X415156Y418490D02*
X414921Y418201D01*
X415031Y418917*
X415031*
X415156Y418490*
X414796Y418726D02*
X415031Y418917D01*
X414921Y418201*
X414921*
X414796Y418726*
X414834Y418043D02*
X414796Y418726D01*
X414921Y418201*
X414921*
X414834Y418043*
X414851Y417480D02*
X415009Y417240D01*
X414883Y416786*
X414883*
X414851Y417480*
X414883Y416786D02*
X414479Y417048D01*
X414730Y417666*
X414730*
X414883Y416786*
X414851Y417480D02*
X414883Y416786D01*
X414730Y417666*
X414730*
X414851Y417480*
X414834Y418043D02*
X414730Y417819D01*
X414796Y418726*
X414796*
X414834Y418043*
X414457Y418490D02*
X414796Y418726D01*
X414730Y417819*
X414730*
X414457Y418490*
X414730Y417666D02*
X414457Y418490D01*
X414730Y417819*
X414730*
Y417666*
X414479Y417048D02*
X414457Y418490D01*
X414730Y417666*
X414730*
X414479Y417048*
X414036Y417288*
X414053Y418228*
X414053*
X414479Y417048*
X414227Y418348D02*
X414479Y417048D01*
X414053Y418228*
X414053*
X414227Y418348*
X414457Y418490D02*
X414479Y417048D01*
X414227Y418348*
X414227*
X414457Y418490*
X413845Y418119D02*
X414053Y418228D01*
X414036Y417288*
X414036*
X413845Y418119*
X414036Y417288D02*
X413791Y417387D01*
X413845Y418119*
X413845*
X414036Y417288*
X413660Y418048D02*
X413845Y418119D01*
X413791Y417387*
X413791*
X413660Y418048*
X413791Y417387D02*
X413605Y417436D01*
X413660Y418048*
X413660*
X413791Y417387*
X413556Y418015D02*
X413660Y418048D01*
X413605Y417436*
X413605*
X413556Y418015*
X413605Y417436D02*
X413392D01*
X413397Y418015*
X413397*
X413605Y417436*
X413556Y418015D02*
X413605Y417436D01*
X413397Y418015*
X413397*
X413556*
X413233D02*
X413397D01*
X413392Y417436*
X413392*
X413233Y418015*
X413392Y417436D02*
X413222Y417354D01*
X413233Y418015*
X413233*
X413392Y417436*
X413026Y418108D02*
X413233Y418015D01*
X413222Y417354*
X413222*
X413026Y418108*
X413222Y417354D02*
X412971Y417184D01*
X413026Y418108*
X413026*
X413222Y417354*
X412857Y418239D02*
X413026Y418108D01*
X412971Y417184*
X412971*
X412857Y418239*
X412971Y417184D02*
X412829Y417042D01*
X412857Y418239*
X412857*
X412971Y417184*
X412753Y418359D02*
X412857Y418239D01*
X412829Y417042*
X412829*
X412753Y418359*
X412829Y417042D02*
X412627Y416769D01*
X412671Y418644*
X412671*
X412829Y417042*
X412753Y418359D02*
X412829Y417042D01*
X412671Y418644*
X412671*
X412753Y418359*
X412616Y419714D02*
X412671Y419485D01*
Y419042*
X412671*
X412616Y419714*
X412671Y418644D02*
X412616Y419714D01*
X412671Y419042*
X412671*
Y418644*
X412627Y416769D02*
X412616Y419714D01*
X412671Y418644*
X412671*
X412627Y416769*
X412535Y416535*
X412616Y419714*
X412616*
X412627Y416769*
X412507Y419851D02*
X412616Y419714D01*
X412535Y416535*
X412535*
X412507Y419851*
X412513Y416251D02*
X412507Y419851D01*
X412535Y416535*
X412535*
X412513Y416251*
X412490Y415836*
X412507Y419851*
X412507*
X412513Y416251*
X412354Y419954D02*
X412507Y419851D01*
X412490Y415836*
X412490*
X412354Y419954*
X412419Y415601D02*
X412354Y419954D01*
X412490Y415836*
X412490*
X412419Y415601*
X412283Y415426*
X412313Y419175*
X412313*
X412419Y415601*
X412354Y419954D02*
X412419Y415601D01*
X412313Y419175*
X412313*
X412354Y419954*
X412118Y420031D02*
X412354Y419954D01*
X412288Y419398*
X412288*
X412118Y420031*
X412313Y419175D02*
X412288Y419398D01*
X412354Y419954*
X412354*
X412313Y419175*
X412189Y419567D02*
X412118Y420031D01*
X412288Y419398*
X412288*
X412189Y419567*
X412268Y418738D02*
X412313Y419175D01*
X412283Y415426*
X412283*
X412268Y418738*
X412283Y415426D02*
X412124Y415306D01*
X412129Y416762*
X412129*
X412283Y415426*
X412149Y417169D02*
X412283Y415426D01*
X412129Y416762*
X412129*
X412149Y417169*
X412179Y417481D02*
X412283Y415426D01*
X412149Y417169*
X412149*
X412179Y417481*
X412204Y417781D02*
X412283Y415426D01*
X412179Y417481*
X412179*
X412204Y417781*
Y418088D02*
X412283Y415426D01*
X412204Y417781*
X412204*
Y418088*
X412224Y418386D02*
X412283Y415426D01*
X412204Y418088*
X412204*
X412224Y418386*
X412268Y418738D02*
X412283Y415426D01*
X412224Y418386*
X412224*
X412268Y418738*
X412189Y419567D02*
X411930Y419681D01*
X412118Y420031*
X412118*
X412189Y419567*
X412104Y416360D02*
X412129Y416762D01*
X412124Y415306*
X412124*
X412104Y416360*
X412124Y415306D02*
X411868Y415273D01*
X411871Y415745*
X411871*
X412124Y415306*
X411980Y415859D02*
X412124Y415306D01*
X411871Y415745*
X411871*
X411980Y415859*
X412040Y415963D02*
X412124Y415306D01*
X411980Y415859*
X411980*
X412040Y415963*
X412085Y416191D02*
X412124Y415306D01*
X412040Y415963*
X412040*
X412085Y416191*
X412104Y416360D02*
X412124Y415306D01*
X412085Y416191*
X412085*
X412104Y416360*
X411829Y420064D02*
X412118Y420031D01*
X411930Y419681*
X411930*
X411829Y420064*
X411930Y419681D02*
X411712Y419731D01*
X411829Y420064*
X411829D02*
X411829D01*
X411829D02*
X411930Y419681D01*
X411873Y413568D02*
X411829Y413470D01*
X411835Y413704*
X411835*
X411873Y413568*
X411752Y415690D02*
X411871Y415745D01*
X411868Y415273*
X411868*
X411752Y415690*
X411868Y415273D02*
X411496D01*
X411549Y415690*
X411549*
X411868Y415273*
X411752Y415690D02*
X411868Y415273D01*
X411549Y415690*
X411549*
X411752*
X411736Y413825D02*
X411835Y413704D01*
X411829Y413470*
X411829*
X411736Y413825*
X411829Y413470D02*
X411660Y413388D01*
X411736Y413825*
X411736*
X411829Y413470*
X410960Y420064D02*
X411829D01*
X411829D02*
X411712Y419731D01*
X411712*
X410960Y420064*
X411375Y419751D02*
X410960Y420064D01*
X410960D02*
X411712Y419731D01*
X411712*
X411375Y419751*
X411627Y413885D02*
X411736Y413825D01*
X411660Y413388*
X411660*
X411627Y413885*
X411682Y412307D02*
X411644Y412094D01*
Y412411*
X411644*
X411682Y412307*
X411660Y413388D02*
X411458Y413279D01*
X411627Y413885*
X411627*
X411660Y413388*
X411557Y412514D02*
X411644Y412411D01*
Y412094*
X411644*
X411557Y412514*
X411606Y411957D02*
X411557Y412514D01*
X411644Y412094*
X411644*
X411606Y411957*
X411446Y413853D02*
X411627Y413885D01*
X411458Y413279*
X411458*
X411446Y413853*
X411606Y411957D02*
X411540Y411875D01*
X411557Y412514*
X411557*
X411606Y411957*
X411436Y412651D02*
X411557Y412514D01*
X411540Y411875*
X411540*
X411436Y412651*
X411485Y411886D02*
X411436Y412651D01*
X411540Y411875*
X411540*
X411485Y411886*
X411191Y415690D02*
X411549D01*
X411496Y415273*
X411496*
X411191Y415690*
X411496Y415273D02*
X410562Y415300D01*
X410829Y415750*
X410829*
X411496Y415273*
X411191Y415690D02*
X411496Y415273D01*
X410829Y415750*
X410829*
X411191Y415690*
X411485Y411886D02*
X411409Y411941D01*
X411436Y412651*
X411436*
X411485Y411886*
X411458Y413279D02*
X411338Y413164D01*
X411446Y413853*
X411446*
X411458Y413279*
X411316Y413749D02*
X411446Y413853D01*
X411338Y413164*
X411338*
X411316Y413749*
X411355Y412809D02*
X411436Y412651D01*
X411409Y411941*
X411409*
X411355Y412809*
X411409Y411941D02*
X411294Y412055D01*
X411295Y412902*
X411295*
X411409Y411941*
X411355Y412809D02*
X411409Y411941D01*
X411295Y412902*
X411295*
X411355Y412809*
X411375Y419751D02*
X410952D01*
X410960Y420064*
X410960D02*
X410960D01*
X410960D02*
X411375Y419751D01*
X411338Y413164D02*
X411295Y413071D01*
X411316Y413749*
X411316*
X411338Y413164*
X411217Y413601D02*
X411316Y413749D01*
X411295Y413071*
X411295*
X411217Y413601*
X411295Y412902D02*
X411217Y413601D01*
X411295Y413071*
X411295*
Y412902*
X411294Y412055D02*
X411217Y413601D01*
X411295Y412902*
X411295*
X411294Y412055*
X411185Y412214*
X411217Y413601*
X411217*
X411294Y412055*
X411163Y413481D02*
X411217Y413601D01*
X411185Y412214*
X411185*
X411163Y413481*
X411185Y412214D02*
X411092Y412377D01*
X411097Y413438*
X411097*
X411185Y412214*
X411163Y413481D02*
X411185Y412214D01*
X411097Y413438*
X411097*
X411163Y413481*
X410994Y413492D02*
X411097Y413438D01*
X411092Y412377*
X411092*
X410994Y413492*
X410999Y412541D02*
X410994Y413492D01*
X411092Y412377*
X411092*
X410999Y412541*
X410928Y412721*
X410994Y413492*
X410994*
X410999Y412541*
X410873Y413640D02*
X410994Y413492D01*
X410928Y412721*
X410928*
X410873Y413640*
X410890Y412896D02*
X410873Y413640D01*
X410928Y412721*
X410928*
X410890Y412896*
X410753Y420337D02*
X410960Y420064D01*
X410960D02*
X410952Y419751D01*
X410952*
X410753Y420337*
X410952Y419751D02*
X410486Y419796D01*
X410655Y420550*
X410655*
X410952Y419751*
X410578Y420785D02*
X410655Y420550D01*
X410486Y419796*
X410486*
X410578Y420785*
X410496Y421069D02*
X410578Y420785D01*
X410486Y419796*
X410486*
X410496Y421069*
X410753Y420337D02*
X410952Y419751D01*
X410655Y420550*
X410655*
X410753Y420337*
X410890Y412896D02*
X410868Y413076D01*
X410873Y413640*
X410873*
X410890Y412896*
X410770Y413803D02*
X410873Y413640D01*
X410868Y413076*
X410868*
X410770Y413803*
X410836Y413158D02*
X410770Y413803D01*
X410868Y413076*
X410868*
X410836Y413158*
X410699Y413289*
X410770Y413803*
X410770*
X410836Y413158*
X410457Y415750D02*
X410829D01*
X410562Y415300*
X410562*
X410457Y415750*
X410535Y415246D02*
X410457Y415750D01*
X410562Y415300*
X410562*
X410535Y415246*
Y414716D02*
X410457Y415750D01*
X410535Y415246*
X410535*
Y414716*
X410672Y413989D02*
X410770Y413803D01*
X410699Y413289*
X410699*
X410672Y413989*
X410699Y413289D02*
X410551Y413437D01*
X410557Y414404*
X410557*
X410699Y413289*
X410601Y414218D02*
X410699Y413289D01*
X410557Y414404*
X410557*
X410601Y414218*
X410672Y413989D02*
X410699Y413289D01*
X410601Y414218*
X410601*
X410672Y413989*
X410535Y414716D02*
X410557Y414404D01*
X410551Y413437*
X410551*
X410535Y414716*
X410551Y413437D02*
X410414Y413606D01*
X410457Y415750*
X410457*
X410551Y413437*
X410535Y414716D02*
X410551Y413437D01*
X410457Y415750*
X410457*
X410535Y414716*
X410398Y421326D02*
X410496Y421069D01*
X410486Y419796*
X410486*
X410398Y421326*
X410486Y419796D02*
X410099Y419825D01*
X410333Y420069*
X410333*
X410486Y419796*
X410333Y420157D02*
X410486Y419796D01*
X410333Y420069*
X410333*
Y420157*
X410398Y421326D02*
X410486Y419796D01*
X410333Y420157*
X410333*
X410398Y421326*
X410059Y415779D02*
X410457Y415750D01*
X410414Y413606*
X410414*
X410059Y415779*
X410310Y413792D02*
X410059Y415779D01*
X410414Y413606*
X410414*
X410310Y413792*
X410207Y414016D02*
X410059Y415779D01*
X410310Y413792*
X410310*
X410207Y414016*
X410125Y414737D02*
X410059Y415779D01*
X410207Y414016*
X410207*
X410125Y414737*
X410158Y414212D02*
X410125Y414737D01*
X410207Y414016*
X410207*
X410158Y414212*
X410103Y415000D02*
X410059Y415779D01*
X410125Y414737*
X410125*
X410103Y415000*
X410245Y421626D02*
X410398Y421326D01*
X410333Y420157*
X410333*
X410245Y421626*
X410294Y420309D02*
X410245Y421626D01*
X410333Y420157*
X410333*
X410294Y420309*
X410251Y420462D02*
X410245Y421626D01*
X410294Y420309*
X410294*
X410251Y420462*
X409983Y420069D02*
X410333D01*
X410099Y419825*
X410099*
X409983Y420069*
X410251Y420462D02*
X410218Y420621D01*
X410245Y421626*
X410245*
X410251Y420462*
X410087Y421899D02*
X410245Y421626D01*
X410218Y420621*
X410218*
X410087Y421899*
X410163Y420795D02*
X410087Y421899D01*
X410218Y420621*
X410218*
X410163Y420795*
X410120Y420965D02*
X410087Y421899D01*
X410163Y420795*
X410163*
X410120Y420965*
X410158Y414212D02*
X410125Y414431D01*
Y414737*
X410125*
X410158Y414212*
X410120Y420965D02*
X410037Y421173D01*
X410087Y421899*
X410087*
X410120Y420965*
X410103Y415000D02*
X410043Y415207D01*
X410059Y415779*
X410059*
X410103Y415000*
X410099Y419825D02*
X409940Y419805D01*
X409983Y420069*
X409983*
X410099Y419825*
X409884Y422156D02*
X410087Y421899D01*
X410037Y421173*
X410037*
X409884Y422156*
X409944Y421337D02*
X409884Y422156D01*
X410037Y421173*
X410037*
X409944Y421337*
X409781Y415779D02*
X410059D01*
X410043Y415207*
X410043*
X409781Y415779*
X409939Y415338D02*
X409781Y415779D01*
X410043Y415207*
X410043*
X409939Y415338*
X409814Y415376D02*
X409781Y415779D01*
X409939Y415338*
X409939*
X409814Y415376*
X409742Y420069D02*
X409983D01*
X409940Y419805*
X409940*
X409742Y420069*
X409746Y419671D02*
X409742Y420069D01*
X409940Y419805*
X409940*
X409746Y419671*
X409944Y421337D02*
X409841Y421512D01*
X409884Y422156*
X409884*
X409944Y421337*
X409693Y422342D02*
X409884Y422156D01*
X409841Y421512*
X409841*
X409693Y422342*
X409841Y421512D02*
X409677Y421801D01*
X409693Y422342*
X409693*
X409841Y421512*
X409814Y415376D02*
X409639Y415409D01*
X409781Y415779*
X409781*
X409814Y415376*
X409628Y415844D02*
X409781Y415779D01*
X409639Y415409*
X409639*
X409628Y415844*
X409746Y419671D02*
X409627Y419527D01*
X409742Y420069*
X409742*
X409746Y419671*
X409573Y420020D02*
X409742Y420069D01*
X409627Y419527*
X409627*
X409573Y420020*
X409584Y422446D02*
X409693Y422342D01*
X409677Y421801*
X409677*
X409584Y422446*
X409677Y421801D02*
X409541Y421997D01*
X409546Y422604*
X409546*
X409677Y421801*
X409584Y422446D02*
X409677Y421801D01*
X409546Y422604*
X409546*
X409584Y422446*
X409639Y415409D02*
X409464Y415431D01*
X409474Y415958*
X409474*
X409639Y415409*
X409628Y415844D02*
X409639Y415409D01*
X409474Y415958*
X409474*
X409628Y415844*
X409627Y419527D02*
X409523Y419299D01*
X409573Y420020*
X409573*
X409627Y419527*
X409475Y419965D02*
X409573Y420020D01*
X409523Y419299*
X409523*
X409475Y419965*
X409481Y422795D02*
X409546Y422604D01*
X409541Y421997*
X409541*
X409481Y422795*
Y422019D02*
Y422795D01*
X409541Y421997*
X409541*
X409481Y422019*
X409523Y419299D02*
X409464Y419080D01*
X409475Y419965*
X409475*
X409523Y419299*
X409469Y418579D02*
X409508Y418391D01*
Y418138*
X409508*
X409469Y418579*
X409474Y417730D02*
X409469Y418579D01*
X409508Y418138*
X409508*
X409474Y417730*
X409481Y422019D02*
X409442Y421948D01*
X409481Y422795*
X409481*
Y422019*
X409332Y422981D02*
X409481Y422795D01*
X409442Y421948*
X409442*
X409332Y422981*
X409382Y421834D02*
X409332Y422981D01*
X409442Y421948*
X409442*
X409382Y421834*
X409360Y419851D02*
X409475Y419965D01*
X409464Y419080*
X409464*
X409360Y419851*
X409444Y418852D02*
X409360Y419851D01*
X409464Y419080*
X409464*
X409444Y418852*
X409409Y417427D02*
X409360Y419851D01*
X409444Y418852*
X409444*
X409409Y417427*
X409305Y416122D02*
X409474Y415958D01*
X409464Y415431*
X409464*
X409305Y416122*
X409474Y417730D02*
X409409Y417427D01*
X409444Y418852*
X409444*
X409474Y417730*
X409469Y418579D02*
X409474Y417730D01*
X409444Y418852*
X409444*
X409469Y418579*
X409464Y415431D02*
X409284Y415513D01*
X409305Y416122*
X409305*
X409464Y415431*
X409409Y417427D02*
X409340Y417149D01*
X409360Y419851*
X409360*
X409409Y417427*
X409382Y421834D02*
X409311Y421653D01*
X409332Y422981*
X409332*
X409382Y421834*
X409234Y419703D02*
X409360Y419851D01*
X409340Y417149*
X409340*
X409234Y419703*
X409246Y416881D02*
X409234Y419703D01*
X409340Y417149*
X409340*
X409246Y416881*
X409207Y423106D02*
X409332Y422981D01*
X409311Y421653*
X409311*
X409207Y423106*
X409217Y422336D02*
X409207Y423106D01*
X409311Y421653*
X409311*
X409217Y422336*
X409219Y421566D02*
X409217Y422336D01*
X409311Y421653*
X409311*
X409219Y421566*
X409186Y416326D02*
X409305Y416122D01*
X409284Y415513*
X409284*
X409186Y416326*
X409284Y415513D02*
X409126Y415616D01*
X409186Y416326*
X409186*
X409284Y415513*
X409169Y417731D02*
X409186Y416326D01*
X409126Y415616*
X409126*
X409169Y417731*
X409246Y416881D02*
X409186Y416594D01*
X409229Y417911*
X409229*
X409246Y416881*
X409229Y418146D02*
X409246Y416881D01*
X409229Y417911*
X409229*
Y418146*
X409234Y419703D02*
X409246Y416881D01*
X409229Y418146*
X409229*
X409234Y419703*
X409114Y419528D02*
X409234Y419703D01*
X409229Y418146*
X409229*
X409114Y419528*
X409196Y418299D02*
X409114Y419528D01*
X409229Y418146*
X409229*
X409196Y418299*
X409130Y418506D02*
X409114Y419528D01*
X409196Y418299*
X409196*
X409130Y418506*
X409169Y417731D02*
X409229Y417911D01*
X409186Y416594*
X409186*
X409169Y417731*
X409186Y416326D02*
X409169Y417731D01*
X409186Y416594*
X409186*
Y416326*
X409219Y421566D02*
X409088Y421517D01*
X409097Y422134*
X409097*
X409219Y421566*
X409174Y422227D02*
X409219Y421566D01*
X409097Y422134*
X409097*
X409174Y422227*
X409217Y422336D02*
X409219Y421566D01*
X409174Y422227*
X409174*
X409217Y422336*
X409185Y422462*
X409207Y423106*
X409207*
X409217Y422336*
X409054Y423254D02*
X409207Y423106D01*
X409185Y422462*
X409185*
X409054Y423254*
X409136Y422560D02*
X409054Y423254D01*
X409185Y422462*
X409185*
X409136Y422560*
X409059Y417523D02*
X409169Y417731D01*
X409126Y415616*
X409126*
X409059Y417523*
X409136Y422560D02*
X408972Y422708D01*
X409054Y423254*
X409054*
X409136Y422560*
X409130Y418506D02*
X409070Y418665D01*
X409114Y419528*
X409114*
X409130Y418506*
X409126Y415616D02*
X408939Y415797D01*
X408956Y417392*
X408956*
X409126Y415616*
X409059Y417523D02*
X409126Y415616D01*
X408956Y417392*
X408956*
X409059Y417523*
X409032Y419381D02*
X409114Y419528D01*
X409070Y418665*
X409070*
X409032Y419381*
X408966Y422031D02*
X409097Y422134D01*
X409088Y421517*
X409088*
X408966Y422031*
X409088Y421517D02*
X408907Y421550D01*
X408966Y422031*
X408966*
X409088Y421517*
X409070Y418665D02*
X409005Y418846D01*
X409032Y419381*
X409032*
X409070Y418665*
X408835Y423412D02*
X409054Y423254D01*
X408972Y422708*
X408972*
X408835Y423412*
X408972Y419233D02*
X409032Y419381D01*
X409005Y418846*
X409005*
X408972Y419233*
X409005Y418846D02*
X408972Y419020D01*
Y419233*
X408972*
X409005Y418846*
X408972Y422708D02*
X408808Y422795D01*
X408835Y423412*
X408835*
X408972Y422708*
X408868Y421949D02*
X408966Y422031D01*
X408907Y421550*
X408907*
X408868Y421949*
X408863Y417278D02*
X408956Y417392D01*
X408939Y415797*
X408939*
X408863Y417278*
X408939Y415797D02*
X408802Y415950D01*
X408863Y417278*
X408863*
X408939Y415797*
X408907Y421550D02*
X408797Y421665D01*
X408803Y421889*
X408803*
X408907Y421550*
X408868Y421949D02*
X408907Y421550D01*
X408803Y421889*
X408803*
X408868Y421949*
X408748Y417136D02*
X408863Y417278D01*
X408802Y415950*
X408802*
X408748Y417136*
X408634Y423532D02*
X408835Y423412D01*
X408808Y422795*
X408808*
X408634Y423532*
X408808Y422795D02*
X408634Y422915D01*
Y423532*
X408634*
X408808Y422795*
X408765Y421791D02*
X408803Y421889D01*
X408797Y421665*
X408797*
X408765Y421791*
X408802Y415950D02*
X408710Y416125D01*
X408748Y417136*
X408748*
X408802Y415950*
X408639Y416949D02*
X408748Y417136D01*
X408710Y416125*
X408710*
X408639Y416949*
X408710Y416125D02*
X408639Y416327D01*
Y416949*
X408639*
X408710Y416125*
X408590Y416774D02*
X408639Y416949D01*
Y416327*
X408639*
X408590Y416774*
X408639Y416327D02*
X408590Y416540D01*
Y416774*
X408590*
X408639Y416327*
X408459Y423603D02*
X408634Y423532D01*
Y422915*
X408634*
X408459Y423603*
X408530Y422981D02*
X408459Y423603D01*
X408634Y422915*
X408634*
X408530Y422981*
X408421Y423063*
X408459Y423603*
X408459*
X408530Y422981*
X408361Y423570D02*
X408459Y423603D01*
X408421Y423063*
X408421*
X408361Y423570*
X408421Y423063D02*
X408339Y423194D01*
X408361Y423570*
X408361*
X408421Y423063*
X408284Y423456D02*
X408361Y423570D01*
X408339Y423194*
X408339*
X408284Y423456*
X408339Y423194D02*
X408284Y423297D01*
Y423456*
X408284*
X408339Y423194*
X411807Y418177D02*
X411840Y418068D01*
Y417824*
X411840*
X411807Y418177*
X411840Y417663D02*
X411807Y418177D01*
X411840Y417824*
X411840*
Y417663*
X411812Y417408D02*
X411807Y418177D01*
X411840Y417663*
X411840*
X411812Y417408*
X411790Y417250*
X411807Y418177*
X411807*
X411812Y417408*
X411731Y418303D02*
X411807Y418177D01*
X411790Y417250*
X411790*
X411731Y418303*
X411748Y417088D02*
X411731Y418303D01*
X411790Y417250*
X411790*
X411748Y417088*
X411687Y416971*
X411731Y418303*
X411731*
X411748Y417088*
X411622Y418444D02*
X411731Y418303D01*
X411655Y417712*
X411655*
X411622Y418444*
X411687Y416971D02*
X411655Y417712D01*
X411731Y418303*
X411731*
X411687Y416971*
X411627Y417937D02*
X411622Y418444D01*
X411655Y417712*
X411655*
X411627Y417937*
X411687Y416971D02*
X411560Y416871D01*
X411577Y417264*
X411577*
X411687Y416971*
X411625Y417376D02*
X411687Y416971D01*
X411577Y417264*
X411577*
X411625Y417376*
X411655Y417510D02*
X411687Y416971D01*
X411625Y417376*
X411625*
X411655Y417510*
Y417712D02*
X411687Y416971D01*
X411655Y417510*
X411655*
Y417712*
X411627Y417937D02*
X411544Y418126D01*
X411622Y418444*
X411622*
X411627Y417937*
X411524Y418522D02*
X411622Y418444D01*
X411544Y418126*
X411544*
X411524Y418522*
X411518Y417184D02*
X411577Y417264D01*
X411560Y416871*
X411560*
X411518Y417184*
X411560Y416871D02*
X411468Y416825D01*
X411518Y417184*
X411518*
X411560Y416871*
X411544Y418126D02*
X411481Y418261D01*
X411524Y418522*
X411524*
X411544Y418126*
X411413Y418581D02*
X411524Y418522D01*
X411481Y418261*
X411481*
X411413Y418581*
X411396Y417053D02*
X411518Y417184D01*
X411468Y416825*
X411468*
X411396Y417053*
X411481Y418261D02*
X411398Y418352D01*
X411413Y418581*
X411413*
X411481Y418261*
X411468Y416825D02*
X411335Y416784D01*
X411396Y417053*
X411396*
X411468Y416825*
X411269Y418627D02*
X411413Y418581D01*
X411398Y418352*
X411398*
X411269Y418627*
X411327Y418400D02*
X411269Y418627D01*
X411398Y418352*
X411398*
X411327Y418400*
X411315Y417010D02*
X411396Y417053D01*
X411335Y416784*
X411335*
X411315Y417010*
X411335Y416784D02*
X411193Y416760D01*
X411202Y416988*
X411202*
X411335Y416784*
X411315Y417010D02*
X411335Y416784D01*
X411202Y416988*
X411202*
X411315Y417010*
X411327Y418400D02*
X411228Y418462D01*
X411269Y418627*
X411269*
X411327Y418400*
X411189Y418620D02*
X411269Y418627D01*
X411228Y418462*
X411228*
X411189Y418620*
X411228Y418462D02*
X411159Y418509D01*
X411189Y418620*
X411189*
X411228Y418462*
X411113Y416955D02*
X411202Y416988D01*
X411193Y416760*
X411193*
X411113Y416955*
X411193Y416760D02*
X411104Y416799D01*
X411113Y416955*
X411113*
X411193Y416760*
X411152Y418575D02*
X411189Y418620D01*
X411159Y418509*
X411159*
X411152Y418575*
X411046Y416910D02*
X411113Y416955D01*
X411104Y416799*
X411104*
X411046Y416910*
X411104Y416799D02*
X411037Y416866D01*
X411046Y416910*
X411046*
X411104Y416799*
X410512Y418988D02*
X410567Y418893D01*
X410558Y418703*
X410558*
X410512Y418988*
X410540Y418575D02*
X410512Y418988D01*
X410558Y418703*
X410558*
X410540Y418575*
X410457Y418451*
X410512Y418988*
X410512*
X410540Y418575*
X410416Y419066D02*
X410512Y418988D01*
X410457Y418451*
X410457*
X410416Y419066*
X410421Y417199D02*
X410474Y417103D01*
Y416971*
X410474*
X410421Y417199*
X410456Y416831D02*
X410421Y417199D01*
X410474Y416971*
X410474*
X410456Y416831*
X410457Y418451D02*
X410398Y418406D01*
X410416Y419066*
X410416*
X410457Y418451*
X410456Y416831D02*
X410398Y416734D01*
X410421Y417199*
X410421*
X410456Y416831*
X410368Y417268D02*
X410421Y417199D01*
X410398Y416734*
X410398*
X410368Y417268*
X410304Y419108D02*
X410416Y419066D01*
X410398Y418406*
X410398*
X410304Y419108*
X410398Y416734D02*
X410301Y416622D01*
X410368Y417268*
X410368*
X410398Y416734*
Y418406D02*
X410253Y418398D01*
X410304Y419108*
X410304*
X410398Y418406*
X410273Y417329D02*
X410368Y417268D01*
X410301Y416622*
X410301*
X410273Y417329*
X410121Y419108D02*
X410304D01*
X410253Y418398*
X410253*
X410121Y419108*
X410180Y418437D02*
X410121Y419108D01*
X410253Y418398*
X410253*
X410180Y418437*
X410301Y416622D02*
X410233Y416597D01*
X410273Y417329*
X410273*
X410301Y416622*
X410149Y417352D02*
X410273Y417329D01*
X410233Y416597*
X410233*
X410149Y417352*
X410233Y416597D02*
X410098D01*
X410149Y417352*
X410149*
X410233Y416597*
X410180Y418437D02*
X410076Y418490D01*
X410121Y419108*
X410121*
X410180Y418437*
X410017Y417304D02*
X410149Y417352D01*
X410098Y416597*
X410098*
X410017Y417304*
X410031Y419060D02*
X410121Y419108D01*
X410076Y418490*
X410076*
X410031Y419060*
X410098Y416597D02*
X409996Y416617D01*
X410017Y417304*
X410017*
X410098Y416597*
X410076Y418490D02*
X409994Y418539D01*
X410031Y419060*
X410031*
X410076Y418490*
X409970Y418976D02*
X410031Y419060D01*
X409994Y418539*
X409994*
X409970Y418976*
X409874Y417220D02*
X410017Y417304D01*
X409996Y416617*
X409996*
X409874Y417220*
X409913Y416691D02*
X409874Y417220D01*
X409996Y416617*
X409996*
X409913Y416691*
X409994Y418539D02*
X409935Y418634D01*
X409970Y418976*
X409970*
X409994Y418539*
X409913Y418877D02*
X409970Y418976D01*
X409935Y418634*
X409935*
X409913Y418877*
X409935Y418634D02*
X409891Y418757D01*
X409913Y418877*
X409913*
X409935Y418634*
X409913Y416691D02*
X409849Y416795D01*
X409874Y417220*
X409874*
X409913Y416691*
X409806Y417105D02*
X409874Y417220D01*
X409849Y416795*
X409849*
X409806Y417105*
X409849Y416795D02*
X409783Y416935D01*
X409806Y417105*
X409806*
X409849Y416795*
X409780Y417001D02*
X409806Y417105D01*
X409783Y416935*
X409783*
X409780Y417001*
X417649Y411211D02*
X417700Y411120D01*
Y411019*
X417700*
X417649Y411211*
X417675Y410872D02*
X417649Y411211D01*
X417700Y411019*
X417700*
X417675Y410872*
X417639Y410741*
X417649Y411211*
X417649*
X417675Y410872*
X417563Y411257D02*
X417649Y411211D01*
X417639Y410741*
X417639*
X417563Y411257*
X417609Y410579D02*
X417563Y411257D01*
X417639Y410741*
X417639*
X417609Y410579*
X417584Y410382D02*
X417563Y411257D01*
X417609Y410579*
X417609*
X417584Y410382*
X417528Y408129D02*
X417589Y406559D01*
X417543Y406473*
X417543*
X417528Y408129*
X417584Y410382D02*
X417558Y410194D01*
X417563Y411257*
X417563*
X417584Y410382*
X417457Y411257D02*
X417563D01*
X417558Y410194*
X417558*
X417457Y411257*
X417523Y409981D02*
X417457Y411257D01*
X417558Y410194*
X417558*
X417523Y409981*
X417477Y409814D02*
X417457Y411257D01*
X417523Y409981*
X417523*
X417477Y409814*
X417543Y406473D02*
X417478Y406453D01*
X417483Y408199*
X417483*
X417543Y406473*
X417528Y408129D02*
X417543Y406473D01*
X417483Y408199*
X417483*
X417528Y408129*
X417417Y408250D02*
X417483Y408199D01*
X417478Y406453*
X417478*
X417417Y408250*
X417478Y406453D02*
X417381Y406478D01*
X417417Y408250*
X417417*
X417478Y406453*
X417477Y409814D02*
X417447Y409693D01*
X417457Y411257*
X417457*
X417477Y409814*
X417376Y411196D02*
X417457Y411257D01*
X417447Y409693*
X417447*
X417376Y411196*
X417447Y409693D02*
X417371Y409602D01*
X417376Y411196*
X417376*
X417447Y409693*
X417381Y408250D02*
X417417D01*
X417381Y406478*
X417381*
Y408250*
Y406478D02*
X417265Y406564D01*
X417381Y408250*
X417381*
Y406478*
X417093Y408230D02*
X417381Y408250D01*
X417265Y406564*
X417265*
X417093Y408230*
X417199Y406671D02*
X417093Y408230D01*
X417265Y406564*
X417265*
X417199Y406671*
X417148Y406907D02*
X417093Y408230D01*
X417199Y406671*
X417199*
X417148Y406907*
X417122Y407097D02*
X417093Y408230D01*
X417148Y406907*
X417148*
X417122Y407097*
X417285Y411100D02*
X417376Y411196D01*
X417371Y409602*
X417371*
X417285Y411100*
X417326Y409551D02*
X417285Y411100D01*
X417371Y409602*
X417371*
X417326Y409551*
X417184*
X417209Y410963*
X417209*
X417326Y409551*
X417285Y411100D02*
X417326Y409551D01*
X417209Y410963*
X417209*
X417285Y411100*
X417159Y410822D02*
X417209Y410963D01*
X417184Y409551*
X417184*
X417159Y410822*
X417184Y409551D02*
X417067Y409582D01*
X417093Y410528*
X417093*
X417184Y409551*
X417129Y410625D02*
X417184Y409551D01*
X417093Y410528*
X417093*
X417129Y410625*
X417159Y410822D02*
X417184Y409551D01*
X417129Y410625*
X417129*
X417159Y410822*
X417122Y407097D02*
X417013Y407367D01*
X417093Y408230*
X417093*
X417122Y407097*
X416982Y408179D02*
X417093Y408230D01*
X417013Y407367*
X417013*
X416982Y408179*
X417032Y410447D02*
X417093Y410528D01*
X417067Y409582*
X417067*
X417032Y410447*
X417067Y409582D02*
X416981Y409632D01*
X417032Y410447*
X417032*
X417067Y409582*
X416946Y410392D02*
X417032Y410447D01*
X416981Y409632*
X416981*
X416946Y410392*
X417013Y407367D02*
X416831D01*
X416896Y408103*
X416896*
X417013Y407367*
X416982Y408179D02*
X417013Y407367D01*
X416896Y408103*
X416896*
X416982Y408179*
X416981Y409632D02*
X416931Y409723D01*
X416946Y410392*
X416946*
X416981Y409632*
X416855Y410392D02*
X416946D01*
X416931Y409723*
X416931*
X416855Y410392*
X416931Y409723D02*
X416825Y409825D01*
X416855Y410392*
X416855*
X416931Y409723*
X416769Y407977D02*
X416896Y408103D01*
X416831Y407367*
X416831*
X416769Y407977*
X416759Y410447D02*
X416855Y410392D01*
X416825Y409825*
X416825*
X416759Y410447*
X416764Y409860D02*
X416759Y410447D01*
X416825Y409825*
X416825*
X416764Y409860*
X416831Y407367D02*
X416696Y407336D01*
X416769Y407977*
X416769*
X416831Y407367*
X416684Y407906D02*
X416769Y407977D01*
X416696Y407336*
X416696*
X416684Y407906*
X416764Y409860D02*
X416688D01*
X416759Y410447*
X416759*
X416764Y409860*
X416572Y410564D02*
X416759Y410447D01*
X416688Y409860*
X416688*
X416572Y410564*
X416696Y407336D02*
X416425Y407255D01*
X416527Y407881*
X416527*
X416696Y407336*
X416684Y407906D02*
X416696Y407336D01*
X416527Y407881*
X416527*
X416684Y407906*
X416688Y409860D02*
X416556Y409900D01*
X416572Y410564*
X416572*
X416688Y409860*
X416273Y410715D02*
X416572Y410564D01*
X416556Y409900*
X416556*
X416273Y410715*
X416354Y409900D02*
X416273Y410715D01*
X416556Y409900*
X416556*
X416354*
X416395Y407850D02*
X416527Y407881D01*
X416425Y407255*
X416425*
X416395Y407850*
X416425Y407255D02*
X416205Y407151D01*
X416314Y407810*
X416314*
X416425Y407255*
X416395Y407850D02*
X416425Y407255D01*
X416314Y407810*
X416314*
X416395Y407850*
X416354Y409900D02*
X416233Y409855D01*
X416273Y410715*
X416273*
X416354Y409900*
X416136Y407810D02*
X416314D01*
X416205Y407151*
X416205*
X416136Y407810*
X416156Y410741D02*
X416273Y410715D01*
X416233Y409855*
X416233*
X416156Y410741*
X416233Y409855D02*
X416065Y409743D01*
X416156Y410741*
X416156D02*
X416156D01*
X416156D02*
X416233Y409855D01*
X416205Y407151D02*
X416072D01*
X416136Y407810*
X416136*
X416205Y407151*
X415995Y410741D02*
X416156D01*
X416156D02*
X416065Y409743D01*
X416065*
X415995Y410741*
X416055Y407850D02*
X416136Y407810D01*
X416072Y407151*
X416072*
X416055Y407850*
X416070Y408978D02*
X416106Y408862D01*
Y408771*
X416106*
X416070Y408978*
X416080Y408665D02*
X416070Y408978D01*
X416106Y408771*
X416106*
X416080Y408665*
X416055Y408584*
X416070Y408978*
X416070*
X416080Y408665*
X416072Y407151D02*
X415965Y407175D01*
X416055Y407850*
X416055*
X416072Y407151*
X416019Y409086D02*
X416070Y408978D01*
X416055Y408584*
X416055*
X416019Y409086*
X416065Y409743D02*
X415944Y409637D01*
X415995Y410741*
X415995*
X416065Y409743*
X416055Y408584D02*
X415974Y408422D01*
X416019Y409086*
X416019*
X416055Y408584*
X415934Y407956D02*
X416055Y407850D01*
X415965Y407175*
X415965*
X415934Y407956*
X415939Y409217D02*
X416019Y409086D01*
X415974Y408422*
X415974*
X415939Y409217*
X415863Y410665D02*
X415995Y410741D01*
X415944Y409637*
X415944*
X415863Y410665*
X415913Y409581D02*
X415863Y410665D01*
X415944Y409637*
X415944*
X415913Y409581*
X415974Y408422D02*
X415903Y408301D01*
X415939Y409217*
X415939*
X415974Y408422*
X415965Y407175D02*
X415824Y407290D01*
X415843Y408129*
X415843*
X415965Y407175*
X415863Y408068D02*
X415965Y407175D01*
X415843Y408129*
X415843*
X415863Y408068*
X415934Y407956D02*
X415965Y407175D01*
X415863Y408068*
X415863*
X415934Y407956*
X415883Y409349D02*
X415939Y409217D01*
X415903Y408301*
X415903*
X415883Y409349*
X415913Y409581D02*
X415858Y409480D01*
X415863Y410665*
X415863*
X415913Y409581*
X415903Y408301D02*
X415843Y408184D01*
X415858Y409425*
X415858*
X415903Y408301*
X415883Y409349D02*
X415903Y408301D01*
X415858Y409425*
X415858*
X415883Y409349*
X415727Y410523D02*
X415863Y410665D01*
X415858Y409480*
X415858*
X415727Y410523*
X415858Y409425D02*
X415727Y410523D01*
X415858Y409480*
X415858*
Y409425*
X415843Y408184D02*
X415727Y410523D01*
X415858Y409425*
X415858*
X415843Y408184*
Y408129D02*
X415727Y410523D01*
X415843Y408184*
X415843*
Y408129*
X415824Y407290D02*
X415727Y410523D01*
X415843Y408129*
X415843*
X415824Y407290*
X415664Y407453*
X415695Y408800*
X415695*
X415824Y407290*
X415695Y408855D02*
X415824Y407290D01*
X415695Y408800*
X415695*
Y408855*
X415727Y410523D02*
X415824Y407290D01*
X415695Y408855*
X415695*
X415727Y410523*
X415646Y410356D02*
X415727Y410523D01*
X415695Y408855*
X415695*
X415646Y410356*
X415695Y408855D02*
X415640Y408988D01*
X415646Y410356*
X415646*
X415695Y408855*
X415640Y408660D02*
X415695Y408800D01*
X415664Y407453*
X415664*
X415640Y408660*
X415664Y407453D02*
X415504Y407588D01*
X415531Y408472*
X415531*
X415664Y407453*
X415640Y408660D02*
X415664Y407453D01*
X415531Y408472*
X415531*
X415640Y408660*
X415560Y410209D02*
X415646Y410356D01*
X415640Y408988*
X415640*
X415560Y410209*
X415640Y408988D02*
X415523Y409163D01*
X415560Y410209*
X415560*
X415640Y408988*
X415448Y410093D02*
X415560Y410209D01*
X415523Y409163*
X415523*
X415448Y410093*
X415375Y408288D02*
X415531Y408472D01*
X415504Y407588*
X415504*
X415375Y408288*
X415523Y409163D02*
X415375Y409378D01*
X415448Y410093*
X415448*
X415523Y409163*
X415504Y407588D02*
X415372Y407613D01*
X415375Y408288*
X415375*
X415504Y407588*
X415322Y410093D02*
X415448D01*
X415375Y409378*
X415375*
X415322Y410093*
X415375Y409378D02*
X415144Y409676D01*
X415199Y410169*
X415199*
X415375Y409378*
X415322Y410093D02*
X415375Y409378D01*
X415199Y410169*
X415199*
X415322Y410093*
X415207Y408128D02*
X415375Y408288D01*
X415372Y407613*
X415372*
X415207Y408128*
X415265Y407613D02*
X415207Y408128D01*
X415372Y407613*
X415372*
X415265*
X415048Y407529*
X415207Y408128*
X415207*
X415265Y407613*
X414991Y407936D02*
X415207Y408128D01*
X415048Y407529*
X415048*
X414991Y407936*
X415048Y410331D02*
X415199Y410169D01*
X415144Y409676*
X415144*
X415048Y410331*
X415144Y409676D02*
X414960Y409875D01*
X415048Y410331*
X415048*
X415144Y409676*
X415048Y407529D02*
X414806Y407365D01*
X414856Y407831*
X414856*
X415048Y407529*
X414991Y407936D02*
X415048Y407529D01*
X414856Y407831*
X414856*
X414991Y407936*
X414845Y410513D02*
X415048Y410331D01*
X414960Y409875*
X414960*
X414845Y410513*
X414960Y409875D02*
X414804Y410012D01*
X414845Y410513*
X414845*
X414960Y409875*
X414776Y407775D02*
X414856Y407831D01*
X414806Y407365*
X414806*
X414776Y407775*
X414800Y410548D02*
X414845Y410513D01*
X414804Y410012*
X414804*
X414800Y410548*
X414806Y407365D02*
X414642Y407208D01*
X414669Y407756*
X414669*
X414806Y407365*
X414776Y407775D02*
X414806Y407365D01*
X414669Y407756*
X414669*
X414776Y407775*
X414804Y410012D02*
X414671D01*
X414729Y410548*
X414729*
X414804Y410012*
X414800Y410548D02*
X414804Y410012D01*
X414729Y410548*
X414729*
X414800*
X414598Y410467D02*
X414729Y410548D01*
X414671Y410012*
X414671*
X414598Y410467*
X414671Y410012D02*
X414460Y409930D01*
X414501Y410361*
X414501*
X414671Y410012*
X414598Y410467D02*
X414671Y410012D01*
X414501Y410361*
X414501*
X414598Y410467*
X414584Y407756D02*
X414669D01*
X414642Y407208*
X414642*
X414584Y407756*
X414642Y407208D02*
X414427D01*
X414584Y407756*
X414584*
X414642Y407208*
X414423Y407803D02*
X414584Y407756D01*
X414427Y407208*
X414427*
X414423Y407803*
X414345Y410260D02*
X414501Y410361D01*
X414460Y409930*
X414460*
X414345Y410260*
X414460Y409930D02*
X414269Y409816D01*
X414345Y410260*
X414345*
X414460Y409930*
X414427Y407208D02*
X414277Y407264D01*
X414423Y407803*
X414423*
X414427Y407208*
X414252Y407936D02*
X414423Y407803D01*
X414277Y407264*
X414277*
X414252Y407936*
X414077Y410260D02*
X414345D01*
X414269Y409816*
X414269*
X414077Y410260*
X414277Y407264D02*
X414099Y407367D01*
X414252Y407936*
X414252*
X414277Y407264*
X414269Y409816D02*
X413948Y409605D01*
X413969Y410321*
X413969*
X414269Y409816*
X414077Y410260D02*
X414269Y409816D01*
X413969Y410321*
X413969*
X414077Y410260*
X414024Y408145D02*
X414252Y407936D01*
X414099Y407367*
X414099*
X414024Y408145*
X414099Y407367D02*
X413992Y407424D01*
X414024Y408145*
X414024*
X414099Y407367*
X413797Y408382D02*
X414024Y408145D01*
X413992Y407424*
X413992*
X413797Y408382*
X413860Y407424D02*
X413797Y408382D01*
X413992Y407424*
X413992*
X413860*
X413807Y410503D02*
X413969Y410321D01*
X413948Y409605*
X413948*
X413807Y410503*
X413948Y409605D02*
X413706Y409422D01*
X413807Y410503*
X413807*
X413948Y409605*
X413860Y407424D02*
X413731Y407335D01*
X413797Y408382*
X413797*
X413860Y407424*
X413696Y410751D02*
X413807Y410503D01*
X413706Y409422*
X413706*
X413696Y410751*
X413588Y408628D02*
X413797Y408382D01*
X413731Y407335*
X413731*
X413588Y408628*
X413731Y407335D02*
X413499Y407135D01*
X413588Y408628*
X413588*
X413731Y407335*
X413706Y409422D02*
X413502Y409234D01*
X413696Y410751*
X413696*
X413706Y409422*
X413377Y411612D02*
X413696Y410751D01*
X413502Y409234*
X413502*
X413377Y411612*
X413427Y408837D02*
X413588Y408628D01*
X413499Y407135*
X413499*
X413427Y408837*
X413521Y405879D02*
X413480Y405738D01*
X413497Y406026*
X413497*
X413521Y405879*
X413502Y409234D02*
X413350Y409066D01*
X413377Y409714*
X413377*
X413502Y409234*
X413377Y410169D02*
X413502Y409234D01*
X413377Y409714*
X413377*
Y410169*
Y411612D02*
X413502Y409234D01*
X413377Y410169*
X413377*
Y411612*
X413499Y407135D02*
X413374Y407017D01*
X413427Y408837*
X413427*
X413499Y407135*
X413444Y406086D02*
X413497Y406026D01*
X413480Y405738*
X413480*
X413444Y406086*
X413480Y405738D02*
X413383Y405624D01*
X413444Y406086*
X413444*
X413480Y405738*
X413331Y406103D02*
X413444Y406086D01*
X413383Y405624*
X413383*
X413331Y406103*
X413352Y408970D02*
X413427Y408837D01*
X413374Y407017*
X413374*
X413352Y408970*
X413359Y408303D02*
X413352Y408970D01*
X413374Y407017*
X413374*
X413359Y408303*
X413383Y405624D02*
X413233Y405523D01*
X413331Y406103*
X413331*
X413383Y405624*
X413165Y412062D02*
X413377Y411612D01*
Y410169*
X413377*
X413165Y412062*
X413321Y410326D02*
X413165Y412062D01*
X413377Y410169*
X413377*
X413321Y410326*
X413256Y410463D02*
X413165Y412062D01*
X413321Y410326*
X413321*
X413256Y410463*
X413347Y409597D02*
X413377Y409714D01*
X413350Y409066*
X413350*
X413347Y409597*
X413374Y407017D02*
X413267Y406878D01*
X413331Y407724*
X413331*
X413374Y407017*
X413359Y407853D02*
X413374Y407017D01*
X413331Y407724*
X413331*
X413359Y407853*
Y408113D02*
X413374Y407017D01*
X413359Y407853*
X413359*
Y408113*
Y408303D02*
X413374Y407017D01*
X413359Y408113*
X413359*
Y408303*
X413286Y408497*
X413350Y409066*
X413350*
X413359Y408303*
X413347Y409597D02*
X413350Y409066D01*
X413286Y408497*
X413286*
X413347Y409597*
X413352Y408970D02*
X413359Y408303D01*
X413350Y409066*
X413350*
X413352Y408970*
X413271Y409420D02*
X413347Y409597D01*
X413286Y408497*
X413286*
X413271Y409420*
X413238Y407602D02*
X413331Y407724D01*
X413267Y406878*
X413267*
X413238Y407602*
X413209Y406058D02*
X413331Y406103D01*
X413233Y405523*
X413233*
X413209Y406058*
X413286Y408497D02*
X413145Y408635D01*
X413271Y409420*
X413271*
X413286Y408497*
X413144Y409308D02*
X413271Y409420D01*
X413145Y408635*
X413145*
X413144Y409308*
X413267Y406878D02*
X413160Y406693D01*
X413238Y407602*
X413238*
X413267Y406878*
X413256Y410463D02*
X413155Y410715D01*
X413165Y412062*
X413165*
X413256Y410463*
X413100Y407399D02*
X413238Y407602D01*
X413160Y406693*
X413160*
X413100Y407399*
X413233Y405523D02*
X413100D01*
X413108Y405993*
X413108*
X413233Y405523*
X413209Y406058D02*
X413233Y405523D01*
X413108Y405993*
X413108*
X413209Y406058*
X412968Y412447D02*
X413165Y412062D01*
X413155Y410715*
X413155*
X412968Y412447*
X413068Y410878D02*
X412968Y412447D01*
X413155Y410715*
X413155*
X413068Y410878*
X413007Y411086D02*
X412968Y412447D01*
X413068Y410878*
X413068*
X413007Y411086*
X413160Y406693D02*
X413050Y406475D01*
X413100Y407399*
X413100*
X413160Y406693*
X413145Y408635D02*
X412979Y408692D01*
X413068Y409288*
X413068*
X413145Y408635*
X413144Y409308D02*
X413145Y408635D01*
X413068Y409288*
X413068*
X413144Y409308*
X412999Y405925D02*
X413108Y405993D01*
X413100Y405523*
X413100*
X412999Y405925*
X413100Y405523D02*
X412898D01*
X412934Y405868*
X412934*
X413100Y405523*
X412999Y405925D02*
X413100Y405523D01*
X412934Y405868*
X412934*
X412999Y405925*
X412962Y407192D02*
X413100Y407399D01*
X413050Y406475*
X413050*
X412962Y407192*
X412967Y409288D02*
X413068D01*
X412979Y408692*
X412979*
X412967Y409288*
X413050Y406475D02*
X412946Y406236D01*
X412962Y407192*
X412962*
X413050Y406475*
X412972Y413267D02*
X413023Y413191D01*
Y413019*
X413023*
X412972Y413267*
X412987Y412943D02*
X412972Y413267D01*
X413023Y413019*
X413023*
X412987Y412943*
X413007Y411086D02*
X412952Y411258D01*
X412968Y412447*
X412968*
X413007Y411086*
X412987Y412943D02*
X412937Y412664D01*
X412972Y413267*
X412972*
X412987Y412943*
X412979Y408692D02*
X412853D01*
X412967Y409288*
X412967*
X412979Y408692*
X412896Y413358D02*
X412972Y413267D01*
X412937Y412664*
X412937*
X412896Y413358*
X412937Y412573D02*
X412896Y413358D01*
X412937Y412664*
X412937*
Y412573*
X412901Y411430D02*
X412896Y413358D01*
X412937Y412573*
X412937*
X412901Y411430*
X412937Y412573D02*
X412968Y412447D01*
X412952Y411258*
X412952*
X412937Y412573*
X412836Y409344D02*
X412967Y409288D01*
X412853Y408692*
X412853*
X412836Y409344*
X412788Y406897D02*
X412962Y407192D01*
X412946Y406236*
X412946*
X412788Y406897*
X412891Y406100D02*
X412788Y406897D01*
X412946Y406236*
X412946*
X412891Y406100*
X412836Y405963D02*
X412788Y406897D01*
X412891Y406100*
X412891*
X412836Y405963*
Y405858D02*
X412788Y406897D01*
X412836Y405963*
X412836*
Y405858*
X412809Y405491D02*
X412788Y406897D01*
X412836Y405858*
X412836*
X412809Y405491*
X412792Y405422D02*
X412788Y406897D01*
X412809Y405491*
X412809*
X412792Y405422*
Y405244D02*
X412788Y406897D01*
X412792Y405422*
X412792*
Y405244*
X412788Y404228D02*
Y406897D01*
X412792Y405244*
X412792*
X412788Y404228*
X412952Y411258D02*
X412901Y411430D01*
X412937Y412573*
X412937*
X412952Y411258*
X412836Y405858D02*
X412934Y405868D01*
X412898Y405523*
X412898*
X412836Y405858*
X412881Y404964D02*
X412930Y404823D01*
Y404572*
X412930*
X412881Y404964*
X412889Y404398D02*
X412881Y404964D01*
X412930Y404572*
X412930*
X412889Y404398*
X412901Y411430D02*
X412856Y411607D01*
X412896Y413358*
X412896*
X412901Y411430*
X412898Y405523D02*
X412809Y405491D01*
X412836Y405858*
X412836*
X412898Y405523*
X412831Y413358D02*
X412896D01*
X412856Y411607*
X412856*
X412831Y413358*
X412889Y404398D02*
X412788Y404228D01*
X412792Y405244*
X412792*
X412889Y404398*
X412829Y405098D02*
X412889Y404398D01*
X412792Y405244*
X412792*
X412829Y405098*
X412881Y404964D02*
X412889Y404398D01*
X412829Y405098*
X412829*
X412881Y404964*
X412856Y411607D02*
X412830Y411729D01*
X412831Y413358*
X412831*
X412856Y411607*
X412853Y408692D02*
X412739Y408645D01*
X412745Y409399*
X412745*
X412853Y408692*
X412836Y409344D02*
X412853Y408692D01*
X412745Y409399*
X412745*
X412836Y409344*
X412755Y413292D02*
X412831Y413358D01*
X412830Y411729*
X412830*
X412755Y413292*
X412780Y411865D02*
X412755Y413292D01*
X412830Y411729*
X412830*
X412780Y411865*
X412788Y404228D02*
X412626Y404017D01*
X412667Y406634*
X412667*
X412788Y404228*
Y406897D02*
Y404228D01*
X412667Y406634*
X412667*
X412788Y406897*
X412780Y411865D02*
X412709Y411926D01*
X412719Y413039*
X412719*
X412780Y411865*
X412719Y413237D02*
X412780Y411865D01*
X412719Y413039*
X412719*
Y413237*
X412755Y413292D02*
X412780Y411865D01*
X412719Y413237*
X412719*
X412755Y413292*
X412689Y409470D02*
X412745Y409399D01*
X412739Y408645*
X412739*
X412689Y409470*
X412739Y408645D02*
X412602Y408447D01*
X412644Y409541*
X412644*
X412739Y408645*
X412689Y409470D02*
X412739Y408645D01*
X412644Y409541*
X412644*
X412689Y409470*
X412679Y412852D02*
X412719Y413039D01*
X412709Y411926*
X412709*
X412679Y412852*
X412709Y411926D02*
X412669Y411961D01*
X412679Y412852*
X412679*
X412709Y411926*
X412588Y412705D02*
X412679Y412852D01*
X412669Y411961*
X412669*
X412588Y412705*
X412623Y411961D02*
X412588Y412705D01*
X412669Y411961*
X412669*
X412623*
X412549Y406374D02*
X412667Y406634D01*
X412626Y404017*
X412626*
X412549Y406374*
X412588Y409693D02*
X412644Y409541D01*
X412602Y408447*
X412602*
X412588Y409693*
X412626Y404017D02*
X412524Y403956D01*
X412549Y406374*
X412549*
X412626Y404017*
X412623Y411961D02*
X412512Y411911D01*
X412532Y412655*
X412532*
X412623Y411961*
X412588Y412705D02*
X412623Y411961D01*
X412532Y412655*
X412532*
X412588Y412705*
X412602Y408447D02*
X412501Y408285D01*
X412512Y409885*
X412512*
X412602Y408447*
X412588Y409693D02*
X412602Y408447D01*
X412512Y409885*
X412512*
X412588Y409693*
X412509Y406180D02*
X412549Y406374D01*
X412524Y403956*
X412524*
X412509Y406180*
X412467Y412655D02*
X412532D01*
X412512Y411911*
X412512*
X412467Y412655*
X412524Y403956D02*
X412484D01*
Y404025*
X412484*
X412524Y403956*
X412484Y404098D02*
X412524Y403956D01*
X412484Y404025*
X412484*
Y404098*
Y404162D02*
X412524Y403956D01*
X412484Y404098*
X412484*
Y404162*
X412485Y405925D02*
X412524Y403956D01*
X412484Y404162*
X412484*
X412485Y405925*
X412509Y406180D02*
X412524Y403956D01*
X412485Y405925*
X412485*
X412509Y406180*
X412462Y410148D02*
X412512Y409885D01*
X412501Y408285*
X412501*
X412462Y410148*
X412512Y411911D02*
X412410Y411809D01*
X412467Y412655*
X412467*
X412512Y411911*
X412501Y408285D02*
X412395Y408083D01*
X412402Y408886*
X412402*
X412501Y408285*
X412402Y409635D02*
X412501Y408285D01*
X412402Y408886*
X412402*
Y409635*
X412462Y410148D02*
X412501Y408285D01*
X412402Y409635*
X412402*
X412462Y410148*
X412391Y405673D02*
X412485Y405925D01*
X412484Y404162*
X412484*
X412391Y405673*
X412468Y404203D02*
X412391Y405673D01*
X412484Y404162*
X412484*
X412468Y404203*
X412407Y404179D02*
X412391Y405673D01*
X412468Y404203*
X412468*
X412407Y404179*
X412405Y412690D02*
X412467Y412655D01*
X412410Y411809*
X412410*
X412405Y412690*
X412339Y410432D02*
X412462Y410148D01*
X412402Y409635*
X412402*
X412339Y410432*
X412346Y409880D02*
X412339Y410432D01*
X412402Y409635*
X412402*
X412346Y409880*
X412410Y411809D02*
X412344Y411678D01*
X412405Y412690*
X412405*
X412410Y411809*
X412407Y404179D02*
X412371Y404138D01*
X412391Y405673*
X412391*
X412407Y404179*
X412223Y412862D02*
X412405Y412690D01*
X412344Y411678*
X412344*
X412223Y412862*
X412293Y411571D02*
X412223Y412862D01*
X412344Y411678*
X412344*
X412293Y411571*
X412253Y411465D02*
X412223Y412862D01*
X412293Y411571*
X412293*
X412253Y411465*
X412381Y408753D02*
X412402Y408886D01*
X412395Y408083*
X412395*
X412381Y408753*
X412395Y408083D02*
X412248Y407931D01*
X412321Y408533*
X412321*
X412395Y408083*
X412381Y408753D02*
X412395Y408083D01*
X412321Y408533*
X412321*
X412381Y408753*
X412298Y405519D02*
X412391Y405673D01*
X412371Y404138*
X412371*
X412298Y405519*
X412371Y404138D02*
X412282Y404085D01*
X412298Y405519*
X412298*
X412371Y404138*
X412346Y409880D02*
X412265Y410114D01*
X412339Y410432*
X412339*
X412346Y409880*
X412192Y410609D02*
X412339Y410432D01*
X412265Y410114*
X412265*
X412192Y410609*
X412213Y408309D02*
X412321Y408533D01*
X412248Y407931*
X412248*
X412213Y408309*
X412128Y405147D02*
X412298Y405519D01*
X412249Y404499*
X412249*
X412128Y405147*
X412282Y404085D02*
X412249Y404499D01*
X412298Y405519*
X412298*
X412282Y404085*
X412217Y404535D02*
X412128Y405147D01*
X412249Y404499*
X412249*
X412217Y404535*
X412156Y404515D02*
X412128Y405147D01*
X412217Y404535*
X412217*
X412156Y404515*
X412282Y404085D02*
X412221Y404126D01*
Y404219*
X412221*
X412282Y404085*
X412221Y404332D02*
X412282Y404085D01*
X412221Y404219*
X412221*
Y404332*
X412249Y404499D02*
X412282Y404085D01*
X412221Y404332*
X412221*
X412249Y404499*
X412265Y410114D02*
X412185Y410254D01*
X412192Y410609*
X412192*
X412265Y410114*
X412253Y411465D02*
X412212Y411374D01*
X412223Y412862*
X412223*
X412253Y411465*
X412248Y407931D02*
X412076Y407785D01*
X412104Y408176*
X412104*
X412248Y407931*
X412213Y408309D02*
X412248Y407931D01*
X412104Y408176*
X412104*
X412213Y408309*
X412005Y413055D02*
X412223Y412862D01*
X412187Y412306*
X412187*
X412005Y413055*
X412212Y411374D02*
X412187Y412306D01*
X412223Y412862*
X412223*
X412212Y411374*
X412061Y412503D02*
X412005Y413055D01*
X412187Y412306*
X412187*
X412061Y412503*
X412212Y411374D02*
X412177Y411318D01*
X412187Y412205*
X412187*
X412212Y411374*
X412187Y412306D02*
X412212Y411374D01*
X412187Y412205*
X412187*
Y412306*
X411975Y410756D02*
X412192Y410609D01*
X412185Y410254*
X412185*
X411975Y410756*
X412129Y410335D02*
X411975Y410756D01*
X412185Y410254*
X412185*
X412129Y410335*
X412052D02*
X411975Y410756D01*
X412129Y410335*
X412129*
X412052*
X412024Y410146D02*
X411975Y410756D01*
X412052Y410335*
X412052*
X412024Y410146*
X412152Y412062D02*
X412187Y412205D01*
X412177Y411318*
X412177*
X412152Y412062*
X412177Y411318D02*
X412126Y411293D01*
X412152Y412062*
X412152*
X412177Y411318*
X412156Y404515D02*
X412096Y404479D01*
X412128Y405147*
X412128*
X412156Y404515*
X412096Y411946D02*
X412152Y412062D01*
X412126Y411293*
X412126*
X412096Y411946*
X412071Y405038D02*
X412128Y405147D01*
X412096Y404479*
X412096*
X412071Y405038*
X412126Y411293D02*
X412081Y411313D01*
X412096Y411946*
X412096*
X412126Y411293*
X411916Y408015D02*
X412104Y408176D01*
X412076Y407785*
X412076*
X411916Y408015*
X412051Y411850D02*
X412096Y411946D01*
X412081Y411313*
X412081*
X412051Y411850*
X412096Y404479D02*
X412027Y404463D01*
X412071Y405038*
X412071*
X412096Y404479*
X412081Y411313D02*
X412046Y411379D01*
X412051Y411850*
X412051*
X412081Y411313*
X412076Y407785D02*
X411813Y407643D01*
X411916Y408015*
X411916*
X412076Y407785*
X412015Y404912D02*
X412071Y405038D01*
X412027Y404463*
X412027*
X412015Y404912*
X412061Y412503D02*
X411960Y412625D01*
X412005Y413055*
X412005*
X412061Y412503*
X411990Y411789D02*
X412051Y411850D01*
X412046Y411379*
X412046*
X411990Y411789*
X412046Y411379D02*
X411980Y411465D01*
X411990Y411789*
X411990*
X412046Y411379*
X412027Y404463D02*
X411942Y404544D01*
X411962Y404750*
X411962*
X412027Y404463*
X412015Y404912D02*
X412027Y404463D01*
X411962Y404750*
X411962*
X412015Y404912*
X412024Y410146D02*
X411972Y409929D01*
X411975Y410756*
X411975*
X412024Y410146*
X411874Y413055D02*
X412005D01*
X411960Y412625*
X411960*
X411874Y413055*
X411955Y411713D02*
X411990Y411789D01*
X411980Y411465*
X411980*
X411955Y411713*
X411980Y411465D02*
X411955Y411587D01*
Y411713*
X411955*
X411980Y411465*
X411702Y410802D02*
X411975Y410756D01*
X411807Y410500*
X411807*
X411702Y410802*
X411972Y409929D02*
X411807Y410500D01*
X411975Y410756*
X411975*
X411972Y409929*
X411891Y409691D02*
X411807Y410500D01*
X411972Y409929*
X411972*
X411891Y409691*
X411751Y410577D02*
X411702Y410802D01*
X411702D02*
X411807Y410500D01*
X411807*
X411751Y410577*
X411960Y412625D02*
X411859Y412746D01*
X411874Y413055*
X411874*
X411960Y412625*
X411670Y407885D02*
X411916Y408015D01*
X411813Y407643*
X411813*
X411670Y407885*
X411891Y409691D02*
X411783Y409523D01*
X411807Y410500*
X411807*
X411891Y409691*
X411813Y412994D02*
X411874Y413055D01*
X411859Y412746*
X411859*
X411813Y412994*
X411859Y412746D02*
X411808Y412822D01*
X411813Y412994*
X411813*
X411859Y412746*
X411788Y412928D02*
X411813Y412994D01*
X411808Y412822*
X411808*
X411788Y412928*
X411813Y407643D02*
X411616Y407597D01*
X411670Y407885*
X411670*
X411813Y407643*
X411779Y410125D02*
X411807Y410500D01*
X411783Y409523*
X411783*
X411779Y410125*
X411783Y409523D02*
X411621Y409394D01*
X411646Y409719*
X411646*
X411783Y409523*
X411723Y409880D02*
X411783Y409523D01*
X411646Y409719*
X411646*
X411723Y409880*
X411779Y410125D02*
X411783Y409523D01*
X411723Y409880*
X411723*
X411779Y410125*
X411751Y410577D02*
X411593Y410605D01*
X411702Y410802*
X411702D02*
X411702D01*
X411702D02*
X411751Y410577D01*
X411535Y410802D02*
X411702D01*
X411702D02*
X411593Y410605D01*
X411593*
X411535Y410802*
X411453Y407801D02*
X411670Y407885D01*
X411616Y407597*
X411616*
X411453Y407801*
X411457Y409555D02*
X411646Y409719D01*
X411621Y409394*
X411621*
X411457Y409555*
X411464Y409394D02*
X411457Y409555D01*
X411621Y409394*
X411621*
X411464*
X411616Y407597D02*
X411444Y407552D01*
X411453Y407801*
X411453*
X411616Y407597*
X411593Y410605D02*
X411003D01*
Y410933*
X411003*
X411593Y410605*
X411099Y411110D02*
X411593Y410605D01*
X411003Y410933*
X411003*
X411099Y411110*
X411170Y411222D02*
X411593Y410605D01*
X411099Y411110*
X411099*
X411170Y411222*
X411459Y410867D02*
X411593Y410605D01*
X411170Y411222*
X411170*
X411459Y410867*
X411352Y411222D02*
X411459Y410867D01*
X411170Y411222*
X411170*
X411352*
X411535Y410802D02*
X411593Y410605D01*
X411459Y410867*
X411459*
X411535Y410802*
X411464Y409394D02*
X411405Y409471D01*
X411457Y409555*
X411457*
X411464Y409394*
X411352Y411222D02*
X411459Y411115D01*
Y410867*
X411459*
X411352Y411222*
X411240Y407774D02*
X411453Y407801D01*
X411444Y407552*
X411444*
X411240Y407774*
X411317Y407526D02*
X411240Y407774D01*
X411444Y407552*
X411444*
X411317Y407526*
X411018*
X411240Y407774*
X411240*
X411317Y407526*
X410680Y407774D02*
X411240D01*
X411018Y407526*
X411018*
X410680Y407774*
X410801Y407506D02*
X410680Y407774D01*
X411018Y407526*
X411018*
X410801Y407506*
X410866Y410797D02*
X411003Y410933D01*
Y410605*
X411003*
X410866Y410797*
X411003Y410605D02*
X410565Y410500D01*
X410705Y410797*
X410705*
X411003Y410605*
X410866Y410797D02*
X411003Y410605D01*
X410705Y410797*
X410705*
X410866*
X410801Y407506D02*
X410653Y407451D01*
X410680Y407774*
X410680*
X410801Y407506*
X410512Y410751D02*
X410705Y410797D01*
X410565Y410500*
X410565*
X410512Y410751*
X410600Y407802D02*
X410680Y407774D01*
X410653Y407451*
X410653*
X410600Y407802*
X410653Y407451D02*
X410471Y407339D01*
X410600Y407802*
X410600D02*
X410600D01*
X410600D02*
X410653Y407451D01*
X410404Y407910D02*
X410600Y407802D01*
X410600D02*
X410471Y407339D01*
X410471*
X410404Y407910*
X410565Y410500D02*
X410191Y410230D01*
X410213Y410640*
X410213*
X410565Y410500*
X410512Y410751D02*
X410565Y410500D01*
X410213Y410640*
X410213*
X410512Y410751*
X410471Y407339D02*
X410334Y407258D01*
X410404Y407910*
X410404*
X410471Y407339*
X410246Y408043D02*
X410404Y407910D01*
X410334Y407258*
X410334*
X410246Y408043*
X410254Y407122D02*
X410246Y408043D01*
X410334Y407258*
X410334*
X410254Y407122*
X410198Y407026*
X410246Y408043*
X410246*
X410254Y407122*
X410113Y408236D02*
X410246Y408043D01*
X410198Y407026*
X410198*
X410113Y408236*
X410142Y407724D02*
X410113Y408236D01*
X410198Y407026*
X410198*
X410142Y407724*
X410006Y410523D02*
X410213Y410640D01*
X410191Y410230*
X410191*
X410006Y410523*
X410198Y407026D02*
X410117Y406960D01*
X410142Y407582*
X410142*
X410198Y407026*
X410142Y407724D02*
X410198Y407026D01*
X410142Y407582*
X410142*
Y407724*
X410191Y410230D02*
X409924Y409800D01*
X410006Y410523*
X410006*
X410191Y410230*
X410142Y407724D02*
X410101Y407775D01*
X410113Y408236*
X410113*
X410142Y407724*
X410107Y407451D02*
X410142Y407582D01*
X410117Y406960*
X410117*
X410107Y407451*
X410117Y406960D02*
X410061D01*
X410107Y407451*
X410107*
X410117Y406960*
X410005Y408502D02*
X410113Y408236D01*
X410101Y407775*
X410101*
X410005Y408502*
X410046Y407314D02*
X410107Y407451D01*
X410061Y406960*
X410061*
X410046Y407314*
X410101Y407775D02*
X409985D01*
X410005Y408502*
X410005*
X410101Y407775*
X410061Y406960D02*
X410001Y407015D01*
Y407208*
X410001*
X410061Y406960*
X410046Y407314D02*
X410061Y406960D01*
X410001Y407208*
X410001*
X410046Y407314*
X409915Y410311D02*
X410006Y410523D01*
X409924Y409800*
X409924*
X409915Y410311*
X409946Y408935D02*
X410005Y408502D01*
X409985Y407775*
X409985*
X409946Y408935*
X409975Y407122D02*
X410001Y407208D01*
Y407015*
X410001*
X409975Y407122*
X409985Y407775D02*
X409843Y407714D01*
X409897Y409366*
X409897*
X409985Y407775*
X409869Y410199D02*
X409897Y409366D01*
X409843Y407714*
X409843*
X409869Y410199*
X409896Y409636D02*
X409897Y409366D01*
X409869Y410199*
X409869*
X409896Y409636*
X409946Y408935D02*
X409985Y407775D01*
X409897Y409366*
X409897*
X409946Y408935*
X409924Y409800D02*
X409896Y409636D01*
X409915Y410311*
X409915*
X409924Y409800*
X409869Y410199D02*
X409915Y410311D01*
X409896Y409636*
X409896*
X409869Y410199*
X409727Y410063D02*
X409869Y410199D01*
X409843Y407714*
X409843*
X409727Y410063*
X409843Y407714D02*
X409676Y407628D01*
X409702Y408250*
X409702*
X409843Y407714*
X409702Y408357D02*
X409843Y407714D01*
X409702Y408250*
X409702*
Y408357*
X409727Y410063D02*
X409843Y407714D01*
X409702Y408357*
X409702*
X409727Y410063*
X409657Y410043D02*
X409727Y410063D01*
X409702Y408357*
X409702*
X409657Y410043*
X409666Y408483D02*
X409657Y410043D01*
X409702Y408357*
X409702*
X409666Y408483*
Y408154D02*
X409702Y408250D01*
X409676Y407628*
X409676*
X409666Y408154*
X409676Y407628D02*
X409504Y407537D01*
X409555Y408033*
X409555*
X409676Y407628*
X409666Y408154D02*
X409676Y407628D01*
X409555Y408033*
X409555*
X409666Y408154*
Y408483D02*
X409611Y408529D01*
X409646Y409289*
X409646*
X409666Y408483*
X409646Y409364D02*
X409666Y408483D01*
X409646Y409289*
X409646*
Y409364*
X409657Y410043D02*
X409666Y408483D01*
X409646Y409364*
X409646*
X409657Y410043*
X409328D02*
X409657D01*
X409595Y409496*
X409595*
X409328Y410043*
X409646Y409364D02*
X409595Y409496D01*
X409657Y410043*
X409657*
X409646Y409364*
X409494Y409602D02*
X409328Y410043D01*
X409595Y409496*
X409595*
X409494Y409602*
X409408Y409658D02*
X409328Y410043D01*
X409494Y409602*
X409494*
X409408Y409658*
X409605Y409197D02*
X409646Y409289D01*
X409611Y408529*
X409611*
X409605Y409197*
X409611Y408529D02*
X409509D01*
X409605Y409197*
X409605*
X409611Y408529*
X409504Y409117D02*
X409605Y409197D01*
X409509Y408529*
X409509*
X409504Y409117*
X409358Y407856D02*
X409555Y408033D01*
X409504Y407537*
X409504*
X409358Y407856*
X409509Y408529D02*
X409069D01*
X409175Y409020*
X409175*
X409509Y408529*
X409418Y409066D02*
X409509Y408529D01*
X409175Y409020*
X409175*
X409418Y409066*
X409504Y409117D02*
X409509Y408529D01*
X409418Y409066*
X409418*
X409504Y409117*
Y407537D02*
X409348Y407446D01*
X409358Y407856*
X409358*
X409504Y407537*
X409408Y409658D02*
X409190Y409734D01*
X409221Y410068*
X409221*
X409408Y409658*
X409328Y410043D02*
X409408Y409658D01*
X409221Y410068*
X409221*
X409328Y410043*
X409211Y407729D02*
X409358Y407856D01*
X409348Y407446*
X409348*
X409211Y407729*
X409246Y407446D02*
X409211Y407729D01*
X409348Y407446*
X409348*
X409246*
X409196Y407466*
X409211Y407729*
X409211*
X409246Y407446*
X409099Y410103D02*
X409221Y410068D01*
X409190Y409734*
X409190*
X409099Y410103*
X409145Y407648D02*
X409211Y407729D01*
X409196Y407466*
X409196*
X409145Y407648*
X409196Y407466D02*
X409145Y407517D01*
Y407648*
X409145*
X409196Y407466*
X409190Y409734D02*
X408988Y409789D01*
X409018Y410144*
X409018*
X409190Y409734*
X409099Y410103D02*
X409190Y409734D01*
X409018Y410144*
X409018*
X409099Y410103*
X409008Y408990D02*
X409175Y409020D01*
X409069Y408529*
X409069*
X409008Y408990*
X409069Y408529D02*
X408957Y408554D01*
X409008Y408990*
X409008*
X409069Y408529*
X408917Y410144D02*
X409018D01*
X408988Y409789*
X408988*
X408917Y410144*
X408887Y408959D02*
X409008Y408990D01*
X408957Y408554*
X408957*
X408887Y408959*
X408988Y409789D02*
X408846Y409870D01*
X408917Y410144*
X408917*
X408988Y409789*
X408957Y408554D02*
X408791Y408595D01*
X408801Y408933*
X408801*
X408957Y408554*
X408887Y408959D02*
X408957Y408554D01*
X408801Y408933*
X408801*
X408887Y408959*
X408841Y410083D02*
X408917Y410144D01*
X408846Y409870*
X408846*
X408841Y410083*
X408846Y409870D02*
X408816Y409972D01*
X408841Y410083*
X408841*
X408846Y409870*
X408699Y408822D02*
X408801Y408933D01*
X408791Y408595*
X408791*
X408699Y408822*
X408791Y408595D02*
X408699Y408670D01*
Y408822*
X408699*
X408791Y408595*
X411049Y410206D02*
X411077Y410148D01*
Y410074*
X411077*
X411049Y410206*
X411077Y410074D02*
X411034Y409974D01*
X411049Y410206*
X411049*
X411077Y410074*
X411001Y410258D02*
X411049Y410206D01*
X411034Y409974*
X411034*
X411001Y410258*
X411034Y409974D02*
X410966Y409862D01*
X411001Y410258*
X411001*
X411034Y409974*
X410867Y410258D02*
X411001D01*
X410966Y409862*
X410966*
X410867Y410258*
X410907Y409801D02*
X410867Y410258D01*
X410966Y409862*
X410966*
X410907Y409801*
X410840Y409764*
X410867Y410258*
X410867*
X410907Y409801*
X410792Y410234D02*
X410867Y410258D01*
X410840Y409764*
X410840*
X410792Y410234*
X410840Y409764D02*
X410755D01*
X410792Y410234*
X410792*
X410840Y409764*
X410733Y410175D02*
X410792Y410234D01*
X410755Y409764*
X410755*
X410733Y410175*
X410755Y409764D02*
X410694Y409856D01*
X410733Y410175*
X410733*
X410755Y409764*
X410673Y410068D02*
X410733Y410175D01*
X410694Y409856*
X410694*
X410673Y410068*
X410694Y409856D02*
X410673Y409912D01*
Y410068*
X410673*
X410694Y409856*
X411046Y416910D02*
X411037Y416866D01*
X411113Y416955D02*
X411046Y416910D01*
X411202Y416988D02*
X411113Y416955D01*
X411315Y417010D02*
X411202Y416988D01*
X411396Y417053D02*
X411315Y417010D01*
X411518Y417184D02*
X411396Y417053D01*
X411577Y417264D02*
X411518Y417184D01*
X411625Y417376D02*
X411577Y417264D01*
X411655Y417510D02*
X411625Y417376D01*
X411655Y417712D02*
Y417510D01*
X411627Y417937D02*
X411655Y417712D01*
X411544Y418126D02*
X411627Y417937D01*
X411481Y418261D02*
X411544Y418126D01*
X411398Y418352D02*
X411481Y418261D01*
X411327Y418400D02*
X411398Y418352D01*
X411228Y418462D02*
X411327Y418400D01*
X411159Y418509D02*
X411228Y418462D01*
X411152Y418575D02*
X411159Y418509D01*
X411189Y418620D02*
X411152Y418575D01*
X411269Y418627D02*
X411189Y418620D01*
X411413Y418581D02*
X411269Y418627D01*
X411524Y418522D02*
X411413Y418581D01*
X411622Y418444D02*
X411524Y418522D01*
X411731Y418303D02*
X411622Y418444D01*
X411807Y418177D02*
X411731Y418303D01*
X411840Y418068D02*
X411807Y418177D01*
X411840Y417824D02*
Y418068D01*
Y417663D02*
Y417824D01*
X411812Y417408D02*
X411840Y417663D01*
X411790Y417250D02*
X411812Y417408D01*
X411748Y417088D02*
X411790Y417250D01*
X411687Y416971D02*
X411748Y417088D01*
X411560Y416871D02*
X411687Y416971D01*
X411468Y416825D02*
X411560Y416871D01*
X411335Y416784D02*
X411468Y416825D01*
X411193Y416760D02*
X411335Y416784D01*
X411104Y416799D02*
X411193Y416760D01*
X411037Y416866D02*
X411104Y416799D01*
X410180Y418437D02*
X410253Y418398D01*
X410076Y418490D02*
X410180Y418437D01*
X409994Y418539D02*
X410076Y418490D01*
X409935Y418634D02*
X409994Y418539D01*
X409891Y418757D02*
X409935Y418634D01*
X409913Y418877D02*
X409891Y418757D01*
X409970Y418976D02*
X409913Y418877D01*
X410031Y419060D02*
X409970Y418976D01*
X410121Y419108D02*
X410031Y419060D01*
X410304Y419108D02*
X410121D01*
X410416Y419066D02*
X410304Y419108D01*
X410512Y418988D02*
X410416Y419066D01*
X410567Y418893D02*
X410512Y418988D01*
X410558Y418703D02*
X410567Y418893D01*
X410540Y418575D02*
X410558Y418703D01*
X410457Y418451D02*
X410540Y418575D01*
X410398Y418406D02*
X410457Y418451D01*
X410253Y418398D02*
X410398Y418406D01*
X409780Y417001D02*
X409783Y416935D01*
X409806Y417105D02*
X409780Y417001D01*
X409874Y417220D02*
X409806Y417105D01*
X410017Y417304D02*
X409874Y417220D01*
X410149Y417352D02*
X410017Y417304D01*
X410273Y417329D02*
X410149Y417352D01*
X410368Y417268D02*
X410273Y417329D01*
X410421Y417199D02*
X410368Y417268D01*
X410474Y417103D02*
X410421Y417199D01*
X410474Y416971D02*
Y417103D01*
X410456Y416831D02*
X410474Y416971D01*
X410398Y416734D02*
X410456Y416831D01*
X410301Y416622D02*
X410398Y416734D01*
X410233Y416597D02*
X410301Y416622D01*
X410098Y416597D02*
X410233D01*
X409996Y416617D02*
X410098Y416597D01*
X409913Y416691D02*
X409996Y416617D01*
X409849Y416795D02*
X409913Y416691D01*
X409783Y416935D02*
X409849Y416795D01*
X409305Y416122D02*
X409186Y416326D01*
X409474Y415958D02*
X409305Y416122D01*
X409628Y415844D02*
X409474Y415958D01*
X409781Y415779D02*
X409628Y415844D01*
X410059Y415779D02*
X409781D01*
X410457Y415750D02*
X410059Y415779D01*
X410829Y415750D02*
X410457D01*
X411191Y415690D02*
X410829Y415750D01*
X411549Y415690D02*
X411191D01*
X411752D02*
X411549D01*
X411871Y415745D02*
X411752Y415690D01*
X411980Y415859D02*
X411871Y415745D01*
X412040Y415963D02*
X411980Y415859D01*
X412085Y416191D02*
X412040Y415963D01*
X412104Y416360D02*
X412085Y416191D01*
X412129Y416762D02*
X412104Y416360D01*
X412149Y417169D02*
X412129Y416762D01*
X412179Y417481D02*
X412149Y417169D01*
X412204Y417781D02*
X412179Y417481D01*
X412204Y418088D02*
Y417781D01*
X412224Y418386D02*
X412204Y418088D01*
X412268Y418738D02*
X412224Y418386D01*
X412313Y419175D02*
X412268Y418738D01*
X412288Y419398D02*
X412313Y419175D01*
X412189Y419567D02*
X412288Y419398D01*
X411930Y419681D02*
X412189Y419567D01*
X411712Y419731D02*
X411930Y419681D01*
X411375Y419751D02*
X411712Y419731D01*
X410952Y419751D02*
X411375D01*
X410486Y419796D02*
X410952Y419751D01*
X410099Y419825D02*
X410486Y419796D01*
X409940Y419805D02*
X410099Y419825D01*
X409746Y419671D02*
X409940Y419805D01*
X409627Y419527D02*
X409746Y419671D01*
X409523Y419299D02*
X409627Y419527D01*
X409464Y419080D02*
X409523Y419299D01*
X409444Y418852D02*
X409464Y419080D01*
X409469Y418579D02*
X409444Y418852D01*
X409508Y418391D02*
X409469Y418579D01*
X409508Y418138D02*
Y418391D01*
X409474Y417730D02*
X409508Y418138D01*
X409409Y417427D02*
X409474Y417730D01*
X409340Y417149D02*
X409409Y417427D01*
X409246Y416881D02*
X409340Y417149D01*
X409186Y416594D02*
X409246Y416881D01*
X409186Y416326D02*
Y416594D01*
X411540Y411875D02*
X411485Y411886D01*
X411606Y411957D02*
X411540Y411875D01*
X411644Y412094D02*
X411606Y411957D01*
X411682Y412307D02*
X411644Y412094D01*
Y412411D02*
X411682Y412307D01*
X411557Y412514D02*
X411644Y412411D01*
X411436Y412651D02*
X411557Y412514D01*
X411355Y412809D02*
X411436Y412651D01*
X411295Y412902D02*
X411355Y412809D01*
X411295Y413071D02*
Y412902D01*
X411338Y413164D02*
X411295Y413071D01*
X411458Y413279D02*
X411338Y413164D01*
X411660Y413388D02*
X411458Y413279D01*
X411829Y413470D02*
X411660Y413388D01*
X411873Y413568D02*
X411829Y413470D01*
X411835Y413704D02*
X411873Y413568D01*
X411736Y413825D02*
X411835Y413704D01*
X411627Y413885D02*
X411736Y413825D01*
X411446Y413853D02*
X411627Y413885D01*
X411316Y413749D02*
X411446Y413853D01*
X411217Y413601D02*
X411316Y413749D01*
X411163Y413481D02*
X411217Y413601D01*
X411097Y413438D02*
X411163Y413481D01*
X410994Y413492D02*
X411097Y413438D01*
X410873Y413640D02*
X410994Y413492D01*
X410770Y413803D02*
X410873Y413640D01*
X410672Y413989D02*
X410770Y413803D01*
X410601Y414218D02*
X410672Y413989D01*
X410557Y414404D02*
X410601Y414218D01*
X410535Y414716D02*
X410557Y414404D01*
X410535Y415246D02*
Y414716D01*
X410562Y415300D02*
X410535Y415246D01*
X411496Y415273D02*
X410562Y415300D01*
X411868Y415273D02*
X411496D01*
X412124Y415306D02*
X411868Y415273D01*
X412283Y415426D02*
X412124Y415306D01*
X412419Y415601D02*
X412283Y415426D01*
X412490Y415836D02*
X412419Y415601D01*
X412513Y416251D02*
X412490Y415836D01*
X412535Y416535D02*
X412513Y416251D01*
X412627Y416769D02*
X412535Y416535D01*
X412829Y417042D02*
X412627Y416769D01*
X412971Y417184D02*
X412829Y417042D01*
X413222Y417354D02*
X412971Y417184D01*
X413392Y417436D02*
X413222Y417354D01*
X413605Y417436D02*
X413392D01*
X413791Y417387D02*
X413605Y417436D01*
X414036Y417288D02*
X413791Y417387D01*
X414479Y417048D02*
X414036Y417288D01*
X414883Y416786D02*
X414479Y417048D01*
X415375Y416376D02*
X414883Y416786D01*
X415686Y416109D02*
X415375Y416376D01*
X415926Y415885D02*
X415686Y416109D01*
X416134Y415661D02*
X415926Y415885D01*
X416353Y415414D02*
X416134Y415661D01*
X416380Y415327D02*
X416353Y415414D01*
X416380Y415196D02*
Y415327D01*
X416331Y415141D02*
X416380Y415196D01*
X416255Y415114D02*
X416331Y415141D01*
X416140Y415114D02*
X416255D01*
X415976D02*
X416140D01*
X415813Y415092D02*
X415976Y415114D01*
X415709Y415027D02*
X415813Y415092D01*
X415682Y414934D02*
X415709Y415027D01*
X415704Y414863D02*
X415682Y414934D01*
X415818Y414775D02*
X415704Y414863D01*
X416009Y414710D02*
X415818Y414775D01*
X416309Y414683D02*
X416009Y414710D01*
X416550Y414705D02*
X416309Y414683D01*
X416861Y414792D02*
X416550Y414705D01*
X417090Y414929D02*
X416861Y414792D01*
X417303Y415196D02*
X417090Y414929D01*
X417401Y415442D02*
X417303Y415196D01*
X417429Y415731D02*
X417401Y415442D01*
X417429Y416103D02*
Y415731D01*
X417352Y416316D02*
X417429Y416103D01*
X417248Y416381D02*
X417352Y416316D01*
X417118Y416348D02*
X417248Y416381D01*
X417014Y416261D02*
X417118Y416348D01*
X416954Y416059D02*
X417014Y416261D01*
X416954Y415873D02*
Y416059D01*
X416932Y415720D02*
X416954Y415873D01*
X416845Y415639D02*
X416932Y415720D01*
X416768Y415639D02*
X416845D01*
X416654Y415693D02*
X416768Y415639D01*
X416445Y415852D02*
X416654Y415693D01*
X416314Y415962D02*
X416445Y415852D01*
X416118Y416142D02*
X416314Y415962D01*
X415905Y416305D02*
X416118Y416142D01*
X415719Y416535D02*
X415905Y416305D01*
X415485Y416748D02*
X415719Y416535D01*
X415359Y416873D02*
X415485Y416748D01*
X415151Y417114D02*
X415359Y416873D01*
X415009Y417240D02*
X415151Y417114D01*
X414851Y417480D02*
X415009Y417240D01*
X414730Y417666D02*
X414851Y417480D01*
X414730Y417819D02*
Y417666D01*
X414834Y418043D02*
X414730Y417819D01*
X414921Y418201D02*
X414834Y418043D01*
X415156Y418490D02*
X414921Y418201D01*
X415414Y418775D02*
X415156Y418490D01*
X415681Y419042D02*
X415414Y418775D01*
X415910Y419255D02*
X415681Y419042D01*
X416140Y419463D02*
X415910Y419255D01*
X416392Y419643D02*
X416140Y419463D01*
X416523Y419720D02*
X416392Y419643D01*
X416610Y419671D02*
X416523Y419720D01*
X416698Y419518D02*
X416610Y419671D01*
X416790Y419447D02*
X416698Y419518D01*
X416971Y419354D02*
X416790Y419447D01*
X417096Y419398D02*
X416971Y419354D01*
X417227Y419605D02*
X417096Y419398D01*
X417227Y420020D02*
Y419605D01*
Y420260D02*
Y420020D01*
X417074Y420599D02*
X417227Y420260D01*
X416954Y420719D02*
X417074Y420599D01*
X416691Y420828D02*
X416954Y420719D01*
X416445Y420877D02*
X416691Y420828D01*
X416216Y420877D02*
X416445D01*
X415949Y420828D02*
X416216Y420877D01*
X415741Y420713D02*
X415949Y420828D01*
X415643Y420604D02*
X415741Y420713D01*
X415643Y420522D02*
Y420604D01*
X415703Y420430D02*
X415643Y420522D01*
X415845Y420331D02*
X415703Y420430D01*
X416063Y420288D02*
X415845Y420331D01*
X416243Y420206D02*
X416063Y420288D01*
X416271Y420097D02*
X416243Y420206D01*
X416200Y419960D02*
X416271Y420097D01*
X416020Y419774D02*
X416200Y419960D01*
X415850Y419616D02*
X416020Y419774D01*
X415539Y419332D02*
X415850Y419616D01*
X415309Y419124D02*
X415539Y419332D01*
X415031Y418917D02*
X415309Y419124D01*
X414796Y418726D02*
X415031Y418917D01*
X414457Y418490D02*
X414796Y418726D01*
X414227Y418348D02*
X414457Y418490D01*
X414053Y418228D02*
X414227Y418348D01*
X413845Y418119D02*
X414053Y418228D01*
X413660Y418048D02*
X413845Y418119D01*
X413556Y418015D02*
X413660Y418048D01*
X413397Y418015D02*
X413556D01*
X413233D02*
X413397D01*
X413026Y418108D02*
X413233Y418015D01*
X412857Y418239D02*
X413026Y418108D01*
X412753Y418359D02*
X412857Y418239D01*
X412671Y418644D02*
X412753Y418359D01*
X412671Y419042D02*
Y418644D01*
Y419485D02*
Y419042D01*
X412616Y419714D02*
X412671Y419485D01*
X412507Y419851D02*
X412616Y419714D01*
X412354Y419954D02*
X412507Y419851D01*
X412118Y420031D02*
X412354Y419954D01*
X411829Y420064D02*
X412118Y420031D01*
X410960Y420064D02*
X411829D01*
X410753Y420337D02*
X410960Y420064D01*
X410655Y420550D02*
X410753Y420337D01*
X410578Y420785D02*
X410655Y420550D01*
X410496Y421069D02*
X410578Y420785D01*
X410398Y421326D02*
X410496Y421069D01*
X410245Y421626D02*
X410398Y421326D01*
X410087Y421899D02*
X410245Y421626D01*
X409884Y422156D02*
X410087Y421899D01*
X409693Y422342D02*
X409884Y422156D01*
X409584Y422446D02*
X409693Y422342D01*
X409546Y422604D02*
X409584Y422446D01*
X409481Y422795D02*
X409546Y422604D01*
X409332Y422981D02*
X409481Y422795D01*
X409207Y423106D02*
X409332Y422981D01*
X409054Y423254D02*
X409207Y423106D01*
X408835Y423412D02*
X409054Y423254D01*
X408634Y423532D02*
X408835Y423412D01*
X408459Y423603D02*
X408634Y423532D01*
X408361Y423570D02*
X408459Y423603D01*
X408284Y423456D02*
X408361Y423570D01*
X408284Y423297D02*
Y423456D01*
X408339Y423194D02*
X408284Y423297D01*
X408421Y423063D02*
X408339Y423194D01*
X408530Y422981D02*
X408421Y423063D01*
X408634Y422915D02*
X408530Y422981D01*
X408808Y422795D02*
X408634Y422915D01*
X408972Y422708D02*
X408808Y422795D01*
X409136Y422560D02*
X408972Y422708D01*
X409185Y422462D02*
X409136Y422560D01*
X409217Y422336D02*
X409185Y422462D01*
X409174Y422227D02*
X409217Y422336D01*
X409097Y422134D02*
X409174Y422227D01*
X408966Y422031D02*
X409097Y422134D01*
X408868Y421949D02*
X408966Y422031D01*
X408803Y421889D02*
X408868Y421949D01*
X408765Y421791D02*
X408803Y421889D01*
X408797Y421665D02*
X408765Y421791D01*
X408907Y421550D02*
X408797Y421665D01*
X409088Y421517D02*
X408907Y421550D01*
X409219Y421566D02*
X409088Y421517D01*
X409311Y421653D02*
X409219Y421566D01*
X409382Y421834D02*
X409311Y421653D01*
X409442Y421948D02*
X409382Y421834D01*
X409481Y422019D02*
X409442Y421948D01*
X409541Y421997D02*
X409481Y422019D01*
X409677Y421801D02*
X409541Y421997D01*
X409841Y421512D02*
X409677Y421801D01*
X409944Y421337D02*
X409841Y421512D01*
X410037Y421173D02*
X409944Y421337D01*
X410120Y420965D02*
X410037Y421173D01*
X410163Y420795D02*
X410120Y420965D01*
X410218Y420621D02*
X410163Y420795D01*
X410251Y420462D02*
X410218Y420621D01*
X410294Y420309D02*
X410251Y420462D01*
X410333Y420157D02*
X410294Y420309D01*
X410333Y420069D02*
Y420157D01*
X409983Y420069D02*
X410333D01*
X409742D02*
X409983D01*
X409573Y420020D02*
X409742Y420069D01*
X409475Y419965D02*
X409573Y420020D01*
X409360Y419851D02*
X409475Y419965D01*
X409234Y419703D02*
X409360Y419851D01*
X409114Y419528D02*
X409234Y419703D01*
X409032Y419381D02*
X409114Y419528D01*
X408972Y419233D02*
X409032Y419381D01*
X408972Y419020D02*
Y419233D01*
X409005Y418846D02*
X408972Y419020D01*
X409070Y418665D02*
X409005Y418846D01*
X409130Y418506D02*
X409070Y418665D01*
X409196Y418299D02*
X409130Y418506D01*
X409229Y418146D02*
X409196Y418299D01*
X409229Y417911D02*
Y418146D01*
X409169Y417731D02*
X409229Y417911D01*
X409059Y417523D02*
X409169Y417731D01*
X408956Y417392D02*
X409059Y417523D01*
X408863Y417278D02*
X408956Y417392D01*
X408748Y417136D02*
X408863Y417278D01*
X408639Y416949D02*
X408748Y417136D01*
X408590Y416774D02*
X408639Y416949D01*
X408590Y416540D02*
Y416774D01*
X408639Y416327D02*
X408590Y416540D01*
X408710Y416125D02*
X408639Y416327D01*
X408802Y415950D02*
X408710Y416125D01*
X408939Y415797D02*
X408802Y415950D01*
X409126Y415616D02*
X408939Y415797D01*
X409284Y415513D02*
X409126Y415616D01*
X409464Y415431D02*
X409284Y415513D01*
X409639Y415409D02*
X409464Y415431D01*
X409814Y415376D02*
X409639Y415409D01*
X409939Y415338D02*
X409814Y415376D01*
X410043Y415207D02*
X409939Y415338D01*
X410103Y415000D02*
X410043Y415207D01*
X410125Y414737D02*
X410103Y415000D01*
X410125Y414431D02*
Y414737D01*
X410158Y414212D02*
X410125Y414431D01*
X410207Y414016D02*
X410158Y414212D01*
X410310Y413792D02*
X410207Y414016D01*
X410414Y413606D02*
X410310Y413792D01*
X410551Y413437D02*
X410414Y413606D01*
X410699Y413289D02*
X410551Y413437D01*
X410836Y413158D02*
X410699Y413289D01*
X410868Y413076D02*
X410836Y413158D01*
X410890Y412896D02*
X410868Y413076D01*
X410928Y412721D02*
X410890Y412896D01*
X410999Y412541D02*
X410928Y412721D01*
X411092Y412377D02*
X410999Y412541D01*
X411185Y412214D02*
X411092Y412377D01*
X411294Y412055D02*
X411185Y412214D01*
X411409Y411941D02*
X411294Y412055D01*
X411485Y411886D02*
X411409Y411941D01*
X410694Y409856D02*
X410673Y409912D01*
X410755Y409764D02*
X410694Y409856D01*
X410840Y409764D02*
X410755D01*
X410907Y409801D02*
X410840Y409764D01*
X410966Y409862D02*
X410907Y409801D01*
X411034Y409974D02*
X410966Y409862D01*
X411077Y410074D02*
X411034Y409974D01*
X411077Y410148D02*
Y410074D01*
X411049Y410206D02*
X411077Y410148D01*
X411001Y410258D02*
X411049Y410206D01*
X410867Y410258D02*
X411001D01*
X410792Y410234D02*
X410867Y410258D01*
X410733Y410175D02*
X410792Y410234D01*
X410673Y410068D02*
X410733Y410175D01*
X410673Y409912D02*
Y410068D01*
X412934Y405868D02*
X412836Y405858D01*
X412999Y405925D02*
X412934Y405868D01*
X413108Y405993D02*
X412999Y405925D01*
X413209Y406058D02*
X413108Y405993D01*
X413331Y406103D02*
X413209Y406058D01*
X413444Y406086D02*
X413331Y406103D01*
X413497Y406026D02*
X413444Y406086D01*
X413521Y405879D02*
X413497Y406026D01*
X413480Y405738D02*
X413521Y405879D01*
X413383Y405624D02*
X413480Y405738D01*
X413233Y405523D02*
X413383Y405624D01*
X413100Y405523D02*
X413233D01*
X412898D02*
X413100D01*
X412809Y405491D02*
X412898Y405523D01*
X412792Y405422D02*
X412809Y405491D01*
X412792Y405244D02*
Y405422D01*
X412829Y405098D02*
X412792Y405244D01*
X412881Y404964D02*
X412829Y405098D01*
X412930Y404823D02*
X412881Y404964D01*
X412930Y404572D02*
Y404823D01*
X412889Y404398D02*
X412930Y404572D01*
X412788Y404228D02*
X412889Y404398D01*
X412626Y404017D02*
X412788Y404228D01*
X412524Y403956D02*
X412626Y404017D01*
X412484Y403956D02*
X412524D01*
X412484Y404025D02*
Y403956D01*
Y404098D02*
Y404025D01*
Y404162D02*
Y404098D01*
X412468Y404203D02*
X412484Y404162D01*
X412407Y404179D02*
X412468Y404203D01*
X412371Y404138D02*
X412407Y404179D01*
X412282Y404085D02*
X412371Y404138D01*
X412221Y404126D02*
X412282Y404085D01*
X412221Y404219D02*
Y404126D01*
Y404332D02*
Y404219D01*
X412249Y404499D02*
X412221Y404332D01*
X412217Y404535D02*
X412249Y404499D01*
X412156Y404515D02*
X412217Y404535D01*
X412096Y404479D02*
X412156Y404515D01*
X412027Y404463D02*
X412096Y404479D01*
X411942Y404544D02*
X412027Y404463D01*
X411962Y404750D02*
X411942Y404544D01*
X412015Y404912D02*
X411962Y404750D01*
X412071Y405038D02*
X412015Y404912D01*
X412128Y405147D02*
X412071Y405038D01*
X412298Y405519D02*
X412128Y405147D01*
X412391Y405673D02*
X412298Y405519D01*
X412485Y405925D02*
X412391Y405673D01*
X412509Y406180D02*
X412485Y405925D01*
X412549Y406374D02*
X412509Y406180D01*
X412667Y406634D02*
X412549Y406374D01*
X412788Y406897D02*
X412667Y406634D01*
X412962Y407192D02*
X412788Y406897D01*
X413100Y407399D02*
X412962Y407192D01*
X413238Y407602D02*
X413100Y407399D01*
X413331Y407724D02*
X413238Y407602D01*
X413359Y407853D02*
X413331Y407724D01*
X413359Y408113D02*
Y407853D01*
Y408303D02*
Y408113D01*
X413286Y408497D02*
X413359Y408303D01*
X413145Y408635D02*
X413286Y408497D01*
X412979Y408692D02*
X413145Y408635D01*
X412853Y408692D02*
X412979D01*
X412739Y408645D02*
X412853Y408692D01*
X412602Y408447D02*
X412739Y408645D01*
X412501Y408285D02*
X412602Y408447D01*
X412395Y408083D02*
X412501Y408285D01*
X412248Y407931D02*
X412395Y408083D01*
X412076Y407785D02*
X412248Y407931D01*
X411813Y407643D02*
X412076Y407785D01*
X411616Y407597D02*
X411813Y407643D01*
X411444Y407552D02*
X411616Y407597D01*
X411317Y407526D02*
X411444Y407552D01*
X411018Y407526D02*
X411317D01*
X410801Y407506D02*
X411018Y407526D01*
X410653Y407451D02*
X410801Y407506D01*
X410471Y407339D02*
X410653Y407451D01*
X410334Y407258D02*
X410471Y407339D01*
X410254Y407122D02*
X410334Y407258D01*
X410198Y407026D02*
X410254Y407122D01*
X410117Y406960D02*
X410198Y407026D01*
X410061Y406960D02*
X410117D01*
X410001Y407015D02*
X410061Y406960D01*
X409975Y407122D02*
X410001Y407015D01*
Y407208D02*
X409975Y407122D01*
X410046Y407314D02*
X410001Y407208D01*
X410107Y407451D02*
X410046Y407314D01*
X410142Y407582D02*
X410107Y407451D01*
X410142Y407724D02*
Y407582D01*
X410101Y407775D02*
X410142Y407724D01*
X409985Y407775D02*
X410101D01*
X409843Y407714D02*
X409985Y407775D01*
X409676Y407628D02*
X409843Y407714D01*
X409504Y407537D02*
X409676Y407628D01*
X409348Y407446D02*
X409504Y407537D01*
X409246Y407446D02*
X409348D01*
X409196Y407466D02*
X409246Y407446D01*
X409145Y407517D02*
X409196Y407466D01*
X409145Y407648D02*
Y407517D01*
X409211Y407729D02*
X409145Y407648D01*
X409358Y407856D02*
X409211Y407729D01*
X409555Y408033D02*
X409358Y407856D01*
X409666Y408154D02*
X409555Y408033D01*
X409702Y408250D02*
X409666Y408154D01*
X409702Y408357D02*
Y408250D01*
X409666Y408483D02*
X409702Y408357D01*
X409611Y408529D02*
X409666Y408483D01*
X409509Y408529D02*
X409611D01*
X409069D02*
X409509D01*
X408957Y408554D02*
X409069Y408529D01*
X408791Y408595D02*
X408957Y408554D01*
X408699Y408670D02*
X408791Y408595D01*
X408699Y408822D02*
Y408670D01*
X408801Y408933D02*
X408699Y408822D01*
X408887Y408959D02*
X408801Y408933D01*
X409008Y408990D02*
X408887Y408959D01*
X409175Y409020D02*
X409008Y408990D01*
X409418Y409066D02*
X409175Y409020D01*
X409504Y409117D02*
X409418Y409066D01*
X409605Y409197D02*
X409504Y409117D01*
X409646Y409289D02*
X409605Y409197D01*
X409646Y409364D02*
Y409289D01*
X409595Y409496D02*
X409646Y409364D01*
X409494Y409602D02*
X409595Y409496D01*
X409408Y409658D02*
X409494Y409602D01*
X409190Y409734D02*
X409408Y409658D01*
X408988Y409789D02*
X409190Y409734D01*
X408846Y409870D02*
X408988Y409789D01*
X408816Y409972D02*
X408846Y409870D01*
X408841Y410083D02*
X408816Y409972D01*
X408917Y410144D02*
X408841Y410083D01*
X409018Y410144D02*
X408917D01*
X409099Y410103D02*
X409018Y410144D01*
X409221Y410068D02*
X409099Y410103D01*
X409328Y410043D02*
X409221Y410068D01*
X409657Y410043D02*
X409328D01*
X409727Y410063D02*
X409657Y410043D01*
X409869Y410199D02*
X409727Y410063D01*
X409915Y410311D02*
X409869Y410199D01*
X410006Y410523D02*
X409915Y410311D01*
X410213Y410640D02*
X410006Y410523D01*
X410512Y410751D02*
X410213Y410640D01*
X410705Y410797D02*
X410512Y410751D01*
X410866Y410797D02*
X410705D01*
X411003Y410933D02*
X410866Y410797D01*
X411099Y411110D02*
X411003Y410933D01*
X411170Y411222D02*
X411099Y411110D01*
X411352Y411222D02*
X411170D01*
X411459Y411115D02*
X411352Y411222D01*
X411459Y410867D02*
Y411115D01*
X411535Y410802D02*
X411459Y410867D01*
X411702Y410802D02*
X411535D01*
X411975Y410756D02*
X411702Y410802D01*
X412192Y410609D02*
X411975Y410756D01*
X412339Y410432D02*
X412192Y410609D01*
X412462Y410148D02*
X412339Y410432D01*
X412512Y409885D02*
X412462Y410148D01*
X412588Y409693D02*
X412512Y409885D01*
X412644Y409541D02*
X412588Y409693D01*
X412689Y409470D02*
X412644Y409541D01*
X412745Y409399D02*
X412689Y409470D01*
X412836Y409344D02*
X412745Y409399D01*
X412967Y409288D02*
X412836Y409344D01*
X413068Y409288D02*
X412967D01*
X413144Y409308D02*
X413068Y409288D01*
X413271Y409420D02*
X413144Y409308D01*
X413347Y409597D02*
X413271Y409420D01*
X413377Y409714D02*
X413347Y409597D01*
X413377Y410169D02*
Y409714D01*
X413321Y410326D02*
X413377Y410169D01*
X413256Y410463D02*
X413321Y410326D01*
X413155Y410715D02*
X413256Y410463D01*
X413068Y410878D02*
X413155Y410715D01*
X413007Y411086D02*
X413068Y410878D01*
X412952Y411258D02*
X413007Y411086D01*
X412901Y411430D02*
X412952Y411258D01*
X412856Y411607D02*
X412901Y411430D01*
X412830Y411729D02*
X412856Y411607D01*
X412780Y411865D02*
X412830Y411729D01*
X412709Y411926D02*
X412780Y411865D01*
X412669Y411961D02*
X412709Y411926D01*
X412623Y411961D02*
X412669D01*
X412512Y411911D02*
X412623Y411961D01*
X412410Y411809D02*
X412512Y411911D01*
X412344Y411678D02*
X412410Y411809D01*
X412293Y411571D02*
X412344Y411678D01*
X412253Y411465D02*
X412293Y411571D01*
X412212Y411374D02*
X412253Y411465D01*
X412177Y411318D02*
X412212Y411374D01*
X412126Y411293D02*
X412177Y411318D01*
X412081Y411313D02*
X412126Y411293D01*
X412046Y411379D02*
X412081Y411313D01*
X411980Y411465D02*
X412046Y411379D01*
X411955Y411587D02*
X411980Y411465D01*
X411955Y411713D02*
Y411587D01*
X411990Y411789D02*
X411955Y411713D01*
X412051Y411850D02*
X411990Y411789D01*
X412096Y411946D02*
X412051Y411850D01*
X412152Y412062D02*
X412096Y411946D01*
X412187Y412205D02*
X412152Y412062D01*
X412187Y412306D02*
Y412205D01*
X412061Y412503D02*
X412187Y412306D01*
X411960Y412625D02*
X412061Y412503D01*
X411859Y412746D02*
X411960Y412625D01*
X411808Y412822D02*
X411859Y412746D01*
X411788Y412928D02*
X411808Y412822D01*
X411813Y412994D02*
X411788Y412928D01*
X411874Y413055D02*
X411813Y412994D01*
X412005Y413055D02*
X411874D01*
X412223Y412862D02*
X412005Y413055D01*
X412405Y412690D02*
X412223Y412862D01*
X412467Y412655D02*
X412405Y412690D01*
X412532Y412655D02*
X412467D01*
X412588Y412705D02*
X412532Y412655D01*
X412679Y412852D02*
X412588Y412705D01*
X412719Y413039D02*
X412679Y412852D01*
X412719Y413237D02*
Y413039D01*
X412755Y413292D02*
X412719Y413237D01*
X412831Y413358D02*
X412755Y413292D01*
X412896Y413358D02*
X412831D01*
X412972Y413267D02*
X412896Y413358D01*
X413023Y413191D02*
X412972Y413267D01*
X413023Y413019D02*
Y413191D01*
X412987Y412943D02*
X413023Y413019D01*
X412937Y412664D02*
X412987Y412943D01*
X412937Y412573D02*
Y412664D01*
X412968Y412447D02*
X412937Y412573D01*
X413165Y412062D02*
X412968Y412447D01*
X413377Y411612D02*
X413165Y412062D01*
X413696Y410751D02*
X413377Y411612D01*
X413807Y410503D02*
X413696Y410751D01*
X413969Y410321D02*
X413807Y410503D01*
X414077Y410260D02*
X413969Y410321D01*
X414345Y410260D02*
X414077D01*
X414501Y410361D02*
X414345Y410260D01*
X414598Y410467D02*
X414501Y410361D01*
X414729Y410548D02*
X414598Y410467D01*
X414800Y410548D02*
X414729D01*
X414845Y410513D02*
X414800Y410548D01*
X415048Y410331D02*
X414845Y410513D01*
X415199Y410169D02*
X415048Y410331D01*
X415322Y410093D02*
X415199Y410169D01*
X415448Y410093D02*
X415322D01*
X415560Y410209D02*
X415448Y410093D01*
X415646Y410356D02*
X415560Y410209D01*
X415727Y410523D02*
X415646Y410356D01*
X415863Y410665D02*
X415727Y410523D01*
X415995Y410741D02*
X415863Y410665D01*
X416156Y410741D02*
X415995D01*
X416273Y410715D02*
X416156Y410741D01*
X416572Y410564D02*
X416273Y410715D01*
X416759Y410447D02*
X416572Y410564D01*
X416855Y410392D02*
X416759Y410447D01*
X416946Y410392D02*
X416855D01*
X417032Y410447D02*
X416946Y410392D01*
X417093Y410528D02*
X417032Y410447D01*
X417129Y410625D02*
X417093Y410528D01*
X417159Y410822D02*
X417129Y410625D01*
X417209Y410963D02*
X417159Y410822D01*
X417285Y411100D02*
X417209Y410963D01*
X417376Y411196D02*
X417285Y411100D01*
X417457Y411257D02*
X417376Y411196D01*
X417563Y411257D02*
X417457D01*
X417649Y411211D02*
X417563Y411257D01*
X417700Y411120D02*
X417649Y411211D01*
X417700Y411019D02*
Y411120D01*
X417675Y410872D02*
X417700Y411019D01*
X417639Y410741D02*
X417675Y410872D01*
X417609Y410579D02*
X417639Y410741D01*
X417584Y410382D02*
X417609Y410579D01*
X417558Y410194D02*
X417584Y410382D01*
X417523Y409981D02*
X417558Y410194D01*
X417477Y409814D02*
X417523Y409981D01*
X417447Y409693D02*
X417477Y409814D01*
X417371Y409602D02*
X417447Y409693D01*
X417326Y409551D02*
X417371Y409602D01*
X417184Y409551D02*
X417326D01*
X417067Y409582D02*
X417184Y409551D01*
X416981Y409632D02*
X417067Y409582D01*
X416931Y409723D02*
X416981Y409632D01*
X416825Y409825D02*
X416931Y409723D01*
X416764Y409860D02*
X416825Y409825D01*
X416688Y409860D02*
X416764D01*
X416556Y409900D02*
X416688Y409860D01*
X416354Y409900D02*
X416556D01*
X416233Y409855D02*
X416354Y409900D01*
X416065Y409743D02*
X416233Y409855D01*
X415944Y409637D02*
X416065Y409743D01*
X415913Y409581D02*
X415944Y409637D01*
X415858Y409480D02*
X415913Y409581D01*
X415858Y409425D02*
Y409480D01*
X415883Y409349D02*
X415858Y409425D01*
X415939Y409217D02*
X415883Y409349D01*
X416019Y409086D02*
X415939Y409217D01*
X416070Y408978D02*
X416019Y409086D01*
X416106Y408862D02*
X416070Y408978D01*
X416106Y408771D02*
Y408862D01*
X416080Y408665D02*
X416106Y408771D01*
X416055Y408584D02*
X416080Y408665D01*
X415974Y408422D02*
X416055Y408584D01*
X415903Y408301D02*
X415974Y408422D01*
X415843Y408184D02*
X415903Y408301D01*
X415843Y408129D02*
Y408184D01*
X415863Y408068D02*
X415843Y408129D01*
X415934Y407956D02*
X415863Y408068D01*
X416055Y407850D02*
X415934Y407956D01*
X416136Y407810D02*
X416055Y407850D01*
X416314Y407810D02*
X416136D01*
X416395Y407850D02*
X416314Y407810D01*
X416527Y407881D02*
X416395Y407850D01*
X416684Y407906D02*
X416527Y407881D01*
X416769Y407977D02*
X416684Y407906D01*
X416896Y408103D02*
X416769Y407977D01*
X416982Y408179D02*
X416896Y408103D01*
X417093Y408230D02*
X416982Y408179D01*
X417381Y408250D02*
X417093Y408230D01*
X417417Y408250D02*
X417381D01*
X417483Y408199D02*
X417417Y408250D01*
X417528Y408129D02*
X417483Y408199D01*
X417589Y406559D02*
X417528Y408129D01*
X417543Y406473D02*
X417589Y406559D01*
X417478Y406453D02*
X417543Y406473D01*
X417381Y406478D02*
X417478Y406453D01*
X417265Y406564D02*
X417381Y406478D01*
X417199Y406671D02*
X417265Y406564D01*
X417148Y406907D02*
X417199Y406671D01*
X417122Y407097D02*
X417148Y406907D01*
X417013Y407367D02*
X417122Y407097D01*
X416831Y407367D02*
X417013D01*
X416696Y407336D02*
X416831Y407367D01*
X416425Y407255D02*
X416696Y407336D01*
X416205Y407151D02*
X416425Y407255D01*
X416072Y407151D02*
X416205D01*
X415965Y407175D02*
X416072Y407151D01*
X415824Y407290D02*
X415965Y407175D01*
X415664Y407453D02*
X415824Y407290D01*
X415504Y407588D02*
X415664Y407453D01*
X415372Y407613D02*
X415504Y407588D01*
X415265Y407613D02*
X415372D01*
X415048Y407529D02*
X415265Y407613D01*
X414806Y407365D02*
X415048Y407529D01*
X414642Y407208D02*
X414806Y407365D01*
X414427Y407208D02*
X414642D01*
X414277Y407264D02*
X414427Y407208D01*
X414099Y407367D02*
X414277Y407264D01*
X413992Y407424D02*
X414099Y407367D01*
X413860Y407424D02*
X413992D01*
X413731Y407335D02*
X413860Y407424D01*
X413499Y407135D02*
X413731Y407335D01*
X413374Y407017D02*
X413499Y407135D01*
X413267Y406878D02*
X413374Y407017D01*
X413160Y406693D02*
X413267Y406878D01*
X413050Y406475D02*
X413160Y406693D01*
X412946Y406236D02*
X413050Y406475D01*
X412891Y406100D02*
X412946Y406236D01*
X412836Y405963D02*
X412891Y406100D01*
X412836Y405858D02*
Y405963D01*
X413350Y409066D02*
X413352Y408970D01*
X413502Y409234D02*
X413350Y409066D01*
X413706Y409422D02*
X413502Y409234D01*
X413948Y409605D02*
X413706Y409422D01*
X414269Y409816D02*
X413948Y409605D01*
X414460Y409930D02*
X414269Y409816D01*
X414671Y410012D02*
X414460Y409930D01*
X414804Y410012D02*
X414671D01*
X414960Y409875D02*
X414804Y410012D01*
X415144Y409676D02*
X414960Y409875D01*
X415375Y409378D02*
X415144Y409676D01*
X415523Y409163D02*
X415375Y409378D01*
X415640Y408988D02*
X415523Y409163D01*
X415695Y408855D02*
X415640Y408988D01*
X415695Y408800D02*
Y408855D01*
X415640Y408660D02*
X415695Y408800D01*
X415531Y408472D02*
X415640Y408660D01*
X415375Y408288D02*
X415531Y408472D01*
X415207Y408128D02*
X415375Y408288D01*
X414991Y407936D02*
X415207Y408128D01*
X414856Y407831D02*
X414991Y407936D01*
X414776Y407775D02*
X414856Y407831D01*
X414669Y407756D02*
X414776Y407775D01*
X414584Y407756D02*
X414669D01*
X414423Y407803D02*
X414584Y407756D01*
X414252Y407936D02*
X414423Y407803D01*
X414024Y408145D02*
X414252Y407936D01*
X413797Y408382D02*
X414024Y408145D01*
X413588Y408628D02*
X413797Y408382D01*
X413427Y408837D02*
X413588Y408628D01*
X413352Y408970D02*
X413427Y408837D01*
X409896Y409636D02*
X409897Y409366D01*
X409924Y409800D02*
X409896Y409636D01*
X410191Y410230D02*
X409924Y409800D01*
X410565Y410500D02*
X410191Y410230D01*
X411003Y410605D02*
X410565Y410500D01*
X411593Y410605D02*
X411003D01*
X411751Y410577D02*
X411593Y410605D01*
X411807Y410500D02*
X411751Y410577D01*
X411779Y410125D02*
X411807Y410500D01*
X411723Y409880D02*
X411779Y410125D01*
X411646Y409719D02*
X411723Y409880D01*
X411457Y409555D02*
X411646Y409719D01*
X411405Y409471D02*
X411457Y409555D01*
X411464Y409394D02*
X411405Y409471D01*
X411621Y409394D02*
X411464D01*
X411783Y409523D02*
X411621Y409394D01*
X411891Y409691D02*
X411783Y409523D01*
X411972Y409929D02*
X411891Y409691D01*
X412024Y410146D02*
X411972Y409929D01*
X412052Y410335D02*
X412024Y410146D01*
X412129Y410335D02*
X412052D01*
X412185Y410254D02*
X412129Y410335D01*
X412265Y410114D02*
X412185Y410254D01*
X412346Y409880D02*
X412265Y410114D01*
X412402Y409635D02*
X412346Y409880D01*
X412402Y408886D02*
Y409635D01*
X412381Y408753D02*
X412402Y408886D01*
X412321Y408533D02*
X412381Y408753D01*
X412213Y408309D02*
X412321Y408533D01*
X412104Y408176D02*
X412213Y408309D01*
X411916Y408015D02*
X412104Y408176D01*
X411670Y407885D02*
X411916Y408015D01*
X411453Y407801D02*
X411670Y407885D01*
X411240Y407774D02*
X411453Y407801D01*
X410680Y407774D02*
X411240D01*
X410600Y407802D02*
X410680Y407774D01*
X410404Y407910D02*
X410600Y407802D01*
X410246Y408043D02*
X410404Y407910D01*
X410113Y408236D02*
X410246Y408043D01*
X410005Y408502D02*
X410113Y408236D01*
X409946Y408935D02*
X410005Y408502D01*
X409897Y409366D02*
X409946Y408935D01*
G54D157*
X394750Y424016D02*
X398031D01*
X394750D02*
X398031Y424925D01*
X394750Y425834D02*
X398031Y424925D01*
X394750Y425834D02*
X398031D01*
X394750Y427766D02*
X398031Y426857D01*
X394750Y427766D02*
X398031Y428675D01*
X396938Y427198D02*
Y428334D01*
X394750Y429698D02*
X398031D01*
X395219Y432311D02*
X394906Y432084D01*
X394750Y431743*
Y431288*
X394906Y430948*
X395219Y430720*
X395531*
X395844Y430834*
X396000Y430948*
X396156Y431175*
X396469Y431857*
X396625Y432084*
X396781Y432198*
X397094Y432311*
X397563*
X397875Y432084*
X398031Y431743*
Y431288*
X397875Y430948*
X397563Y430720*
X398656Y433334D02*
Y435720D01*
X394750Y436402D02*
X398031D01*
X394750D02*
Y437879D01*
X396313Y436402D02*
Y437311D01*
X395531Y440607D02*
X395219Y440493D01*
X394906Y440266*
X394750Y440038*
Y439584*
X394906Y439357*
X395219Y439129*
X395531Y439016*
X396000Y438902*
X396781*
X397250Y439016*
X397563Y439129*
X397875Y439357*
X398031Y439584*
Y440038*
X397875Y440266*
X397563Y440493*
X397250Y440607*
X396625Y441629D02*
Y443675D01*
X394750Y445379D02*
X394906Y445038D01*
X395375Y444811*
X396156Y444698*
X396625*
X397406Y444811*
X397875Y445038*
X398031Y445379*
Y445607*
X397875Y445948*
X397406Y446175*
X396625Y446288*
X396156*
X395375Y446175*
X394906Y445948*
X394750Y445607*
Y445379*
Y447993D02*
X394906Y447652D01*
X395375Y447425*
X396156Y447311*
X396625*
X397406Y447425*
X397875Y447652*
X398031Y447993*
Y448220*
X397875Y448561*
X397406Y448788*
X396625Y448902*
X396156*
X395375Y448788*
X394906Y448561*
X394750Y448220*
Y447993*
Y450607D02*
X394906Y450266D01*
X395375Y450038*
X396156Y449925*
X396625*
X397406Y450038*
X397875Y450266*
X398031Y450607*
Y450834*
X397875Y451175*
X397406Y451402*
X396625Y451516*
X396156*
X395375Y451402*
X394906Y451175*
X394750Y450834*
Y450607*
X0Y0D02*
M02*
