*
%LPD*%
%LNmais-r-002pmb*%
%FSLAX24Y24*%
%MOIN*%
%SRX1Y1I0.0J0.0*%
%AD*%
%ADD11C,0.010000*%
%ADD14C,0.008000*%
%ADD18R,0.048030X0.035830*%
%ADD19R,0.024000X0.035000*%
%ADD20R,0.035000X0.024000*%
%ADD21R,0.052000X0.060000*%
%ADD22R,0.025000X0.025000*%
%ADD23R,0.060000X0.052000*%
%ADD26C,0.040000*%
%ADD33R,0.062990X0.027560*%
%ADD34R,0.118110X0.082680*%
%ADD35R,0.018500X0.041340*%
%ADD36R,0.059060X0.094490*%
%ADD37R,0.020870X0.041340*%
%ADD38C,0.050000*%
%ADD39R,0.160000X0.076000*%
%ADD40R,0.013780X0.025590*%
%ADD41R,0.025590X0.013780*%
%ADD43R,0.051180X0.055120*%
%ADD45O,0.047240X0.013000*%
%ADD46R,0.035830X0.048030*%
%ADD69R,0.040000X0.055000*%
G54D11*
G1X32604Y34649D2*
G1X32604Y41109D1*
G1X48364Y41109D1*
G1X48604Y39379D1*
G1X55954Y39379D1*
G1X55954Y34649D1*
G1X32604Y34649D1*
G1X31804Y34649D2*
G1X8464Y34649D1*
G1X8464Y39369D1*
G1X15804Y39369D1*
G1X16044Y41109D1*
G1X31804Y41109D1*
G1X31804Y34649D1*
G1X31794Y27389D2*
G1X8454Y27389D1*
G1X8454Y32109D1*
G1X15794Y32109D1*
G1X16034Y33849D1*
G1X31794Y33849D1*
G1X31794Y27389D1*
G1X32594Y27389D2*
G1X32594Y33849D1*
G1X48354Y33849D1*
G1X48594Y32119D1*
G1X55944Y32119D1*
G1X55944Y27389D1*
G1X32594Y27389D1*
G1X31804Y20129D2*
G1X8464Y20129D1*
G1X8464Y24849D1*
G1X15804Y24849D1*
G1X16044Y26589D1*
G1X31804Y26589D1*
G1X31804Y20129D1*
G1X32604Y20129D2*
G1X32604Y26589D1*
G1X48364Y26589D1*
G1X48604Y24859D1*
G1X55954Y24859D1*
G1X55954Y20129D1*
G1X32604Y20129D1*
G1X31794Y12869D2*
G1X8454Y12869D1*
G1X8454Y17589D1*
G1X15794Y17589D1*
G1X16034Y19329D1*
G1X31794Y19329D1*
G1X31794Y12869D1*
G1X32594Y12869D2*
G1X32594Y19329D1*
G1X48354Y19329D1*
G1X48594Y17599D1*
G1X55944Y17599D1*
G1X55944Y12869D1*
G1X32594Y12869D1*
G1X31794Y5599D2*
G1X8454Y5599D1*
G1X8454Y10319D1*
G1X15794Y10319D1*
G1X16034Y12059D1*
G1X31794Y12059D1*
G1X31794Y5599D1*
G1X32594Y5599D2*
G1X32594Y12059D1*
G1X48354Y12059D1*
G1X48594Y10329D1*
G1X55944Y10329D1*
G1X55944Y5599D1*
G1X32594Y5599D1*
G1X7644Y5609D2*
G1X5644Y5609D1*
G1X5644Y39369D1*
G1X7644Y39369D1*
G1X7644Y5609D1*
G1X58744Y5599D2*
G1X56744Y5599D1*
G1X56744Y39359D1*
G1X58744Y39359D1*
G1X58744Y5599D1*
G1X7664Y8643D2*
G75*
G3X8452Y8643I394J0D1*
G74*
G1X8452Y7462D2*
G75*
G3X7664Y7462I-394J0D1*
G74*
G1X7664Y15943D2*
G75*
G3X8452Y15943I394J0D1*
G74*
G1X8452Y14762D2*
G75*
G3X7664Y14762I-394J0D1*
G74*
G1X7664Y23413D2*
G75*
G3X8452Y23413I394J0D1*
G74*
G1X8452Y22232D2*
G75*
G3X7664Y22232I-394J0D1*
G74*
G1X7674Y30613D2*
G75*
G3X8462Y30613I394J0D1*
G74*
G1X8462Y29432D2*
G75*
G3X7674Y29432I-394J0D1*
G74*
G1X7674Y37563D2*
G75*
G3X8462Y37563I394J0D1*
G74*
G1X8462Y36382D2*
G75*
G3X7674Y36382I-394J0D1*
G74*
G1X55954Y8643D2*
G75*
G3X56742Y8643I394J0D1*
G74*
G1X56742Y7462D2*
G75*
G3X55954Y7462I-394J0D1*
G74*
G1X55954Y15943D2*
G75*
G3X56742Y15943I394J0D1*
G74*
G1X56742Y14762D2*
G75*
G3X55954Y14762I-394J0D1*
G74*
G1X55954Y23413D2*
G75*
G3X56742Y23413I394J0D1*
G74*
G1X56742Y22232D2*
G75*
G3X55954Y22232I-394J0D1*
G74*
G1X55964Y30613D2*
G75*
G3X56752Y30613I394J0D1*
G74*
G1X56752Y29432D2*
G75*
G3X55964Y29432I-394J0D1*
G74*
G1X56752Y36382D2*
G75*
G3X55964Y36382I-394J0D1*
G74*
G1X55964Y37563D2*
G75*
G3X56752Y37563I394J0D1*
G74*
G1X31804Y8643D2*
G75*
G3X32592Y8643I394J0D1*
G74*
G1X32592Y7462D2*
G75*
G3X31804Y7462I-394J0D1*
G74*
G1X31804Y15943D2*
G75*
G3X32592Y15943I394J0D1*
G74*
G1X32592Y14762D2*
G75*
G3X31804Y14762I-394J0D1*
G74*
G1X31804Y23413D2*
G75*
G3X32592Y23413I394J0D1*
G74*
G1X32592Y22232D2*
G75*
G3X31804Y22232I-394J0D1*
G74*
G1X31814Y30613D2*
G75*
G3X32602Y30613I394J0D1*
G74*
G1X32602Y29432D2*
G75*
G3X31814Y29432I-394J0D1*
G74*
G1X32602Y36382D2*
G75*
G3X31814Y36382I-394J0D1*
G74*
G1X31814Y37563D2*
G75*
G3X32602Y37563I394J0D1*
G74*
G1X17844Y34647D2*
G75*
G3X17844Y33859I0J-394D1*
G74*
G1X16663Y33859D2*
G75*
G3X16663Y34647I0J394D1*
G74*
G1X28054Y34647D2*
G75*
G3X28054Y33859I0J-394D1*
G74*
G1X26873Y33859D2*
G75*
G3X26873Y34647I0J394D1*
G74*
G1X46294Y33862D2*
G75*
G3X46294Y34649I0J394D1*
G74*
G1X47475Y34649D2*
G75*
G3X47475Y33862I0J-394D1*
G74*
G1X36084Y33862D2*
G75*
G3X36084Y34649I0J394D1*
G74*
G1X37265Y34649D2*
G75*
G3X37265Y33862I0J-394D1*
G74*
G1X17844Y27387D2*
G75*
G3X17844Y26599I0J-394D1*
G74*
G1X16663Y26599D2*
G75*
G3X16663Y27387I0J394D1*
G74*
G1X28054Y27387D2*
G75*
G3X28054Y26599I0J-394D1*
G74*
G1X26873Y26599D2*
G75*
G3X26873Y27387I0J394D1*
G74*
G1X46294Y26602D2*
G75*
G3X46294Y27389I0J394D1*
G74*
G1X47475Y27389D2*
G75*
G3X47475Y26602I0J-394D1*
G74*
G1X36084Y26602D2*
G75*
G3X36084Y27389I0J394D1*
G74*
G1X37265Y27389D2*
G75*
G3X37265Y26602I0J-394D1*
G74*
G1X17844Y20137D2*
G75*
G3X17844Y19349I0J-394D1*
G74*
G1X16663Y19349D2*
G75*
G3X16663Y20137I0J394D1*
G74*
G1X28054Y20137D2*
G75*
G3X28054Y19349I0J-394D1*
G74*
G1X26873Y19349D2*
G75*
G3X26873Y20137I0J394D1*
G74*
G1X46294Y19352D2*
G75*
G3X46294Y20139I0J394D1*
G74*
G1X47475Y20139D2*
G75*
G3X47475Y19352I0J-394D1*
G74*
G1X36084Y19352D2*
G75*
G3X36084Y20139I0J394D1*
G74*
G1X37265Y20139D2*
G75*
G3X37265Y19352I0J-394D1*
G74*
G1X17844Y12867D2*
G75*
G3X17844Y12079I0J-394D1*
G74*
G1X16663Y12079D2*
G75*
G3X16663Y12867I0J394D1*
G74*
G1X28054Y12867D2*
G75*
G3X28054Y12079I0J-394D1*
G74*
G1X26873Y12079D2*
G75*
G3X26873Y12867I0J394D1*
G74*
G1X46294Y12082D2*
G75*
G3X46294Y12869I0J394D1*
G74*
G1X47475Y12869D2*
G75*
G3X47475Y12082I0J-394D1*
G74*
G1X36084Y12082D2*
G75*
G3X36084Y12869I0J394D1*
G74*
G1X37265Y12869D2*
G75*
G3X37265Y12082I0J-394D1*
G74*
G1X31805Y34650D2*
G1X31805Y41107D1*
G1X16043Y41107D1*
G1X15807Y39375D1*
G1X8459Y39375D1*
G1X8459Y34650D1*
G1X31805Y34650D1*
G1X18721Y37970D2*
G54D14*
G1X19141Y37970D1*
G1X19141Y37550D1*
G1X18721Y37550D1*
G1X18721Y37970D1*
G1X18721Y39120D2*
G1X19141Y39120D1*
G1X19141Y38700D1*
G1X18721Y38700D1*
G1X18721Y39120D1*
G1X17621Y39120D2*
G1X18041Y39120D1*
G1X18041Y38700D1*
G1X17621Y38700D1*
G1X17621Y39120D1*
G1X17621Y37970D2*
G1X18041Y37970D1*
G1X18041Y37550D1*
G1X17621Y37550D1*
G1X17621Y37970D1*
G1X18721Y37910D2*
G1X19141Y37910D1*
G1X18721Y37838D2*
G1X19141Y37838D1*
G1X18721Y37766D2*
G1X19141Y37766D1*
G1X18721Y37694D2*
G1X19141Y37694D1*
G1X18721Y37622D2*
G1X19141Y37622D1*
G1X18721Y39060D2*
G1X19141Y39060D1*
G1X18721Y38988D2*
G1X19141Y38988D1*
G1X18721Y38916D2*
G1X19141Y38916D1*
G1X18721Y38844D2*
G1X19141Y38844D1*
G1X18721Y38772D2*
G1X19141Y38772D1*
G1X17621Y39060D2*
G1X18041Y39060D1*
G1X17621Y38988D2*
G1X18041Y38988D1*
G1X17621Y38916D2*
G1X18041Y38916D1*
G1X17621Y38844D2*
G1X18041Y38844D1*
G1X17621Y38772D2*
G1X18041Y38772D1*
G1X17621Y37910D2*
G1X18041Y37910D1*
G1X17621Y37838D2*
G1X18041Y37838D1*
G1X17621Y37766D2*
G1X18041Y37766D1*
G1X17621Y37694D2*
G1X18041Y37694D1*
G1X17621Y37622D2*
G1X18041Y37622D1*
G54D18*
G1X24931Y36010D3*
G1X24931Y37297D3*
G54D19*
G1X15651Y37690D3*
G1X15171Y37690D3*
G1X29341Y39160D3*
G1X29821Y39160D3*
G1X24671Y40030D3*
G1X24191Y40030D3*
G1X28091Y36460D3*
G1X28571Y36460D3*
G1X26151Y38310D3*
G1X26631Y38310D3*
G1X26251Y38910D3*
G1X26731Y38910D3*
G1X18391Y40350D3*
G1X18871Y40350D3*
G1X24391Y35310D3*
G1X24871Y35310D3*
G1X17051Y40300D3*
G1X16571Y40300D3*
G54D38*
G1X10481Y38660D3*
G1X24451Y37370D3*
G1X27131Y38310D3*
G1X27311Y37520D3*
G1X28981Y36860D3*
G1X14431Y35160D3*
G1X14581Y38810D3*
G1X15431Y38610D3*
G54D20*
G1X27811Y38392D3*
G1X27811Y38707D3*
G1X25571Y37230D3*
G1X25571Y36750D3*
G1X21081Y36350D3*
G1X21081Y35870D3*
G1X20951Y38070D3*
G1X20951Y38550D3*
G1X17891Y35870D3*
G1X17891Y36350D3*
G1X21631Y35620D3*
G1X21631Y36100D3*
G1X22631Y36100D3*
G1X22631Y35620D3*
G1X10681Y37570D3*
G1X10681Y38050D3*
G1X22131Y36100D3*
G1X22131Y35620D3*
G1X20531Y36100D3*
G1X20531Y35620D3*
G1X19271Y36100D3*
G1X19271Y35620D3*
G1X28831Y38850D3*
G1X28831Y38370D3*
G1X28381Y38850D3*
G1X28381Y38370D3*
G54D21*
G1X22461Y39860D3*
G1X21701Y39860D3*
G54D22*
G1X13931Y38532D3*
G1X13931Y38217D3*
G1X13931Y37902D3*
G1X13931Y37587D3*
G1X13331Y37587D3*
G1X13331Y37902D3*
G1X13331Y38217D3*
G1X13331Y38532D3*
G1X11981Y38532D3*
G1X11981Y38217D3*
G1X11981Y37902D3*
G1X11981Y37587D3*
G1X11381Y37587D3*
G1X11381Y37902D3*
G1X11381Y38217D3*
G1X11381Y38532D3*
G54D23*
G1X26271Y37170D3*
G1X26271Y36410D3*
G1X17251Y35930D3*
G1X17251Y35170D3*
G54D26*
G1X29571Y35020D3*
G1X8921Y38880D3*
G1X31331Y40610D3*
G54D33*
G1X29831Y38528D3*
G1X29831Y38036D3*
G1X29831Y37544D3*
G1X29831Y37052D3*
G54D34*
G1X30973Y39532D3*
G1X30973Y36048D3*
G54D35*
G1X28487Y37113D3*
G1X28231Y37113D3*
G1X27975Y37113D3*
G1X27719Y37113D3*
G1X27719Y37806D3*
G1X27975Y37806D3*
G1X28231Y37806D3*
G1X28487Y37806D3*
G54D36*
G1X24185Y38170D3*
G1X21940Y38170D3*
G54D37*
G1X24857Y38792D3*
G1X25231Y38792D3*
G1X25605Y38792D3*
G1X25605Y37828D3*
G1X25231Y37828D3*
G1X24857Y37828D3*
G54D39*
G1X27731Y35260D3*
G54D40*
G1X17071Y39866D3*
G1X17327Y39866D3*
G1X17583Y39866D3*
G1X17839Y39866D3*
G1X18095Y39866D3*
G1X18351Y39866D3*
G1X18607Y39866D3*
G1X18862Y39866D3*
G1X19118Y39866D3*
G1X19374Y39866D3*
G1X19630Y39866D3*
G1X19630Y36815D3*
G1X19374Y36815D3*
G1X19118Y36815D3*
G1X18862Y36815D3*
G1X18607Y36815D3*
G1X18351Y36815D3*
G1X18095Y36815D3*
G1X17839Y36815D3*
G1X17583Y36815D3*
G1X17327Y36815D3*
G1X17071Y36815D3*
G54D41*
G1X19876Y39620D3*
G1X19876Y39364D3*
G1X19876Y39108D3*
G1X19876Y38852D3*
G1X19876Y38596D3*
G1X19876Y38340D3*
G1X19876Y38084D3*
G1X19876Y37828D3*
G1X19876Y37572D3*
G1X19876Y37317D3*
G1X19876Y37061D3*
G1X16825Y37061D3*
G1X16825Y37317D3*
G1X16825Y37572D3*
G1X16825Y37828D3*
G1X16825Y38084D3*
G1X16825Y38340D3*
G1X16825Y38596D3*
G1X16825Y38852D3*
G1X16825Y39108D3*
G1X16825Y39364D3*
G1X16825Y39620D3*
G54D43*
G1X16331Y35169D3*
G1X15347Y35169D3*
G1X15347Y36035D3*
G1X16331Y36035D3*
G54D69*
G1X23451Y36300D3*
G1X24211Y36300D3*
G1X23831Y35420D3*
G54D45*
G1X12745Y37060D3*
G1X12745Y36804D3*
G1X12745Y36548D3*
G1X12745Y36292D3*
G1X12745Y36036D3*
G1X12745Y35780D3*
G1X12745Y35524D3*
G1X12745Y35269D3*
G1X10501Y35269D3*
G1X10501Y35524D3*
G1X10501Y35780D3*
G1X10501Y36036D3*
G1X10501Y36292D3*
G1X10501Y36548D3*
G1X10501Y36804D3*
G1X10501Y37060D3*
G54D46*
G1X26431Y39690D3*
G1X25144Y39690D3*
G1X31794Y27389D2*
G54D11*
G1X31794Y33846D1*
G1X16032Y33846D1*
G1X15796Y32114D1*
G1X8448Y32114D1*
G1X8448Y27389D1*
G1X31794Y27389D1*
G1X18710Y30709D2*
G54D14*
G1X19130Y30709D1*
G1X19130Y30289D1*
G1X18710Y30289D1*
G1X18710Y30709D1*
G1X18710Y31859D2*
G1X19130Y31859D1*
G1X19130Y31439D1*
G1X18710Y31439D1*
G1X18710Y31859D1*
G1X17610Y31859D2*
G1X18030Y31859D1*
G1X18030Y31439D1*
G1X17610Y31439D1*
G1X17610Y31859D1*
G1X17610Y30709D2*
G1X18030Y30709D1*
G1X18030Y30289D1*
G1X17610Y30289D1*
G1X17610Y30709D1*
G1X18710Y30649D2*
G1X19130Y30649D1*
G1X18710Y30577D2*
G1X19130Y30577D1*
G1X18710Y30505D2*
G1X19130Y30505D1*
G1X18710Y30433D2*
G1X19130Y30433D1*
G1X18710Y30361D2*
G1X19130Y30361D1*
G1X18710Y31799D2*
G1X19130Y31799D1*
G1X18710Y31727D2*
G1X19130Y31727D1*
G1X18710Y31655D2*
G1X19130Y31655D1*
G1X18710Y31583D2*
G1X19130Y31583D1*
G1X18710Y31511D2*
G1X19130Y31511D1*
G1X17610Y31799D2*
G1X18030Y31799D1*
G1X17610Y31727D2*
G1X18030Y31727D1*
G1X17610Y31655D2*
G1X18030Y31655D1*
G1X17610Y31583D2*
G1X18030Y31583D1*
G1X17610Y31511D2*
G1X18030Y31511D1*
G1X17610Y30649D2*
G1X18030Y30649D1*
G1X17610Y30577D2*
G1X18030Y30577D1*
G1X17610Y30505D2*
G1X18030Y30505D1*
G1X17610Y30433D2*
G1X18030Y30433D1*
G1X17610Y30361D2*
G1X18030Y30361D1*
G54D18*
G1X24920Y28749D3*
G1X24920Y30036D3*
G54D19*
G1X15640Y30429D3*
G1X15160Y30429D3*
G1X29330Y31899D3*
G1X29810Y31899D3*
G1X24660Y32769D3*
G1X24180Y32769D3*
G1X28080Y29199D3*
G1X28560Y29199D3*
G1X26140Y31049D3*
G1X26620Y31049D3*
G1X26240Y31649D3*
G1X26720Y31649D3*
G1X18380Y33089D3*
G1X18860Y33089D3*
G1X24380Y28049D3*
G1X24860Y28049D3*
G1X17040Y33039D3*
G1X16560Y33039D3*
G54D38*
G1X10470Y31399D3*
G1X24440Y30109D3*
G1X27120Y31049D3*
G1X27300Y30259D3*
G1X28970Y29599D3*
G1X14420Y27899D3*
G1X14570Y31549D3*
G1X15420Y31349D3*
G54D20*
G1X27800Y31131D3*
G1X27800Y31446D3*
G1X25560Y29969D3*
G1X25560Y29489D3*
G1X21070Y29089D3*
G1X21070Y28609D3*
G1X20940Y30809D3*
G1X20940Y31289D3*
G1X17880Y28609D3*
G1X17880Y29089D3*
G1X21620Y28359D3*
G1X21620Y28839D3*
G1X22620Y28839D3*
G1X22620Y28359D3*
G1X10670Y30309D3*
G1X10670Y30789D3*
G1X22120Y28839D3*
G1X22120Y28359D3*
G1X20520Y28839D3*
G1X20520Y28359D3*
G1X19260Y28839D3*
G1X19260Y28359D3*
G1X28820Y31589D3*
G1X28820Y31109D3*
G1X28370Y31589D3*
G1X28370Y31109D3*
G54D21*
G1X22450Y32599D3*
G1X21690Y32599D3*
G54D22*
G1X13920Y31271D3*
G1X13920Y30956D3*
G1X13920Y30641D3*
G1X13920Y30326D3*
G1X13320Y30326D3*
G1X13320Y30641D3*
G1X13320Y30956D3*
G1X13320Y31271D3*
G1X11970Y31271D3*
G1X11970Y30956D3*
G1X11970Y30641D3*
G1X11970Y30326D3*
G1X11370Y30326D3*
G1X11370Y30641D3*
G1X11370Y30956D3*
G1X11370Y31271D3*
G54D23*
G1X26260Y29909D3*
G1X26260Y29149D3*
G1X17240Y28669D3*
G1X17240Y27909D3*
G54D26*
G1X29560Y27759D3*
G1X8910Y31619D3*
G1X31320Y33349D3*
G54D33*
G1X29820Y31267D3*
G1X29820Y30775D3*
G1X29820Y30283D3*
G1X29820Y29790D3*
G54D34*
G1X30962Y32271D3*
G1X30962Y28787D3*
G54D35*
G1X28476Y29852D3*
G1X28220Y29852D3*
G1X27964Y29852D3*
G1X27708Y29852D3*
G1X27708Y30545D3*
G1X27964Y30545D3*
G1X28220Y30545D3*
G1X28476Y30545D3*
G54D36*
G1X24174Y30909D3*
G1X21930Y30909D3*
G54D37*
G1X24846Y31531D3*
G1X25220Y31531D3*
G1X25594Y31531D3*
G1X25594Y30566D3*
G1X25220Y30566D3*
G1X24846Y30566D3*
G54D39*
G1X27720Y27999D3*
G54D40*
G1X17060Y32605D3*
G1X17316Y32605D3*
G1X17572Y32605D3*
G1X17828Y32605D3*
G1X18084Y32605D3*
G1X18340Y32605D3*
G1X18596Y32605D3*
G1X18852Y32605D3*
G1X19108Y32605D3*
G1X19364Y32605D3*
G1X19619Y32605D3*
G1X19619Y29553D3*
G1X19364Y29553D3*
G1X19108Y29553D3*
G1X18852Y29553D3*
G1X18596Y29553D3*
G1X18340Y29553D3*
G1X18084Y29553D3*
G1X17828Y29553D3*
G1X17572Y29553D3*
G1X17316Y29553D3*
G1X17060Y29553D3*
G54D41*
G1X19866Y32358D3*
G1X19866Y32103D3*
G1X19866Y31847D3*
G1X19866Y31591D3*
G1X19866Y31335D3*
G1X19866Y31079D3*
G1X19866Y30823D3*
G1X19866Y30567D3*
G1X19866Y30311D3*
G1X19866Y30055D3*
G1X19866Y29799D3*
G1X16814Y29799D3*
G1X16814Y30055D3*
G1X16814Y30311D3*
G1X16814Y30567D3*
G1X16814Y30823D3*
G1X16814Y31079D3*
G1X16814Y31335D3*
G1X16814Y31591D3*
G1X16814Y31847D3*
G1X16814Y32103D3*
G1X16814Y32358D3*
G54D43*
G1X16320Y27908D3*
G1X15336Y27908D3*
G1X15336Y28774D3*
G1X16320Y28774D3*
G54D69*
G1X23440Y29039D3*
G1X24200Y29039D3*
G1X23820Y28159D3*
G54D45*
G1X12734Y29799D3*
G1X12734Y29543D3*
G1X12734Y29287D3*
G1X12734Y29031D3*
G1X12734Y28775D3*
G1X12734Y28519D3*
G1X12734Y28263D3*
G1X12734Y28007D3*
G1X10490Y28007D3*
G1X10490Y28263D3*
G1X10490Y28519D3*
G1X10490Y28775D3*
G1X10490Y29031D3*
G1X10490Y29287D3*
G1X10490Y29543D3*
G1X10490Y29799D3*
G54D46*
G1X26420Y32429D3*
G1X25133Y32429D3*
G1X31805Y20129D2*
G54D11*
G1X31805Y26586D1*
G1X16043Y26586D1*
G1X15806Y24854D1*
G1X8458Y24854D1*
G1X8458Y20129D1*
G1X31805Y20129D1*
G1X18720Y23449D2*
G54D14*
G1X19140Y23449D1*
G1X19140Y23029D1*
G1X18720Y23029D1*
G1X18720Y23449D1*
G1X18720Y24599D2*
G1X19140Y24599D1*
G1X19140Y24179D1*
G1X18720Y24179D1*
G1X18720Y24599D1*
G1X17620Y24599D2*
G1X18040Y24599D1*
G1X18040Y24179D1*
G1X17620Y24179D1*
G1X17620Y24599D1*
G1X17620Y23449D2*
G1X18040Y23449D1*
G1X18040Y23029D1*
G1X17620Y23029D1*
G1X17620Y23449D1*
G1X18720Y23389D2*
G1X19140Y23389D1*
G1X18720Y23317D2*
G1X19140Y23317D1*
G1X18720Y23245D2*
G1X19140Y23245D1*
G1X18720Y23173D2*
G1X19140Y23173D1*
G1X18720Y23101D2*
G1X19140Y23101D1*
G1X18720Y24539D2*
G1X19140Y24539D1*
G1X18720Y24467D2*
G1X19140Y24467D1*
G1X18720Y24395D2*
G1X19140Y24395D1*
G1X18720Y24323D2*
G1X19140Y24323D1*
G1X18720Y24251D2*
G1X19140Y24251D1*
G1X17620Y24539D2*
G1X18040Y24539D1*
G1X17620Y24467D2*
G1X18040Y24467D1*
G1X17620Y24395D2*
G1X18040Y24395D1*
G1X17620Y24323D2*
G1X18040Y24323D1*
G1X17620Y24251D2*
G1X18040Y24251D1*
G1X17620Y23389D2*
G1X18040Y23389D1*
G1X17620Y23317D2*
G1X18040Y23317D1*
G1X17620Y23245D2*
G1X18040Y23245D1*
G1X17620Y23173D2*
G1X18040Y23173D1*
G1X17620Y23101D2*
G1X18040Y23101D1*
G54D18*
G1X24930Y21489D3*
G1X24930Y22776D3*
G54D19*
G1X15650Y23169D3*
G1X15170Y23169D3*
G1X29340Y24639D3*
G1X29820Y24639D3*
G1X24670Y25509D3*
G1X24190Y25509D3*
G1X28090Y21939D3*
G1X28570Y21939D3*
G1X26150Y23789D3*
G1X26630Y23789D3*
G1X26250Y24389D3*
G1X26730Y24389D3*
G1X18390Y25829D3*
G1X18870Y25829D3*
G1X24390Y20789D3*
G1X24870Y20789D3*
G1X17050Y25779D3*
G1X16570Y25779D3*
G54D38*
G1X10480Y24139D3*
G1X24450Y22849D3*
G1X27130Y23789D3*
G1X27310Y22999D3*
G1X28980Y22339D3*
G1X14430Y20639D3*
G1X14580Y24289D3*
G1X15430Y24089D3*
G54D20*
G1X27810Y23871D3*
G1X27810Y24186D3*
G1X25570Y22709D3*
G1X25570Y22229D3*
G1X21080Y21829D3*
G1X21080Y21349D3*
G1X20950Y23549D3*
G1X20950Y24029D3*
G1X17890Y21349D3*
G1X17890Y21829D3*
G1X21630Y21099D3*
G1X21630Y21579D3*
G1X22630Y21579D3*
G1X22630Y21099D3*
G1X10680Y23049D3*
G1X10680Y23529D3*
G1X22130Y21579D3*
G1X22130Y21099D3*
G1X20530Y21579D3*
G1X20530Y21099D3*
G1X19270Y21579D3*
G1X19270Y21099D3*
G1X28830Y24329D3*
G1X28830Y23849D3*
G1X28380Y24329D3*
G1X28380Y23849D3*
G54D21*
G1X22460Y25339D3*
G1X21700Y25339D3*
G54D22*
G1X13930Y24011D3*
G1X13930Y23696D3*
G1X13930Y23381D3*
G1X13930Y23066D3*
G1X13330Y23066D3*
G1X13330Y23381D3*
G1X13330Y23696D3*
G1X13330Y24011D3*
G1X11980Y24011D3*
G1X11980Y23696D3*
G1X11980Y23381D3*
G1X11980Y23066D3*
G1X11380Y23066D3*
G1X11380Y23381D3*
G1X11380Y23696D3*
G1X11380Y24011D3*
G54D23*
G1X26270Y22649D3*
G1X26270Y21889D3*
G1X17250Y21409D3*
G1X17250Y20649D3*
G54D26*
G1X29570Y20499D3*
G1X8920Y24359D3*
G1X31330Y26089D3*
G54D33*
G1X29830Y24007D3*
G1X29830Y23515D3*
G1X29830Y23023D3*
G1X29830Y22531D3*
G54D34*
G1X30972Y25011D3*
G1X30972Y21527D3*
G54D35*
G1X28486Y22592D3*
G1X28230Y22592D3*
G1X27975Y22592D3*
G1X27719Y22592D3*
G1X27719Y23285D3*
G1X27975Y23285D3*
G1X28230Y23285D3*
G1X28486Y23285D3*
G54D36*
G1X24184Y23649D3*
G1X21940Y23649D3*
G54D37*
G1X24856Y24271D3*
G1X25230Y24271D3*
G1X25604Y24271D3*
G1X25604Y23307D3*
G1X25230Y23307D3*
G1X24856Y23307D3*
G54D39*
G1X27730Y20739D3*
G54D40*
G1X17071Y25345D3*
G1X17327Y25345D3*
G1X17582Y25345D3*
G1X17838Y25345D3*
G1X18094Y25345D3*
G1X18350Y25345D3*
G1X18606Y25345D3*
G1X18862Y25345D3*
G1X19118Y25345D3*
G1X19374Y25345D3*
G1X19630Y25345D3*
G1X19630Y22294D3*
G1X19374Y22294D3*
G1X19118Y22294D3*
G1X18862Y22294D3*
G1X18606Y22294D3*
G1X18350Y22294D3*
G1X18094Y22294D3*
G1X17838Y22294D3*
G1X17582Y22294D3*
G1X17327Y22294D3*
G1X17071Y22294D3*
G54D41*
G1X19876Y25099D3*
G1X19876Y24843D3*
G1X19876Y24587D3*
G1X19876Y24331D3*
G1X19876Y24075D3*
G1X19876Y23819D3*
G1X19876Y23563D3*
G1X19876Y23307D3*
G1X19876Y23051D3*
G1X19876Y22796D3*
G1X19876Y22540D3*
G1X16825Y22540D3*
G1X16825Y22796D3*
G1X16825Y23051D3*
G1X16825Y23307D3*
G1X16825Y23563D3*
G1X16825Y23819D3*
G1X16825Y24075D3*
G1X16825Y24331D3*
G1X16825Y24587D3*
G1X16825Y24843D3*
G1X16825Y25099D3*
G54D43*
G1X16330Y20648D3*
G1X15346Y20648D3*
G1X15346Y21514D3*
G1X16330Y21514D3*
G54D69*
G1X23450Y21779D3*
G1X24210Y21779D3*
G1X23830Y20899D3*
G54D45*
G1X12744Y22539D3*
G1X12744Y22283D3*
G1X12744Y22027D3*
G1X12744Y21771D3*
G1X12744Y21515D3*
G1X12744Y21259D3*
G1X12744Y21003D3*
G1X12744Y20748D3*
G1X10500Y20748D3*
G1X10500Y21003D3*
G1X10500Y21259D3*
G1X10500Y21515D3*
G1X10500Y21771D3*
G1X10500Y22027D3*
G1X10500Y22283D3*
G1X10500Y22539D3*
G54D46*
G1X26430Y25169D3*
G1X25143Y25169D3*
G1X31795Y12869D2*
G54D11*
G1X31795Y19326D1*
G1X16033Y19326D1*
G1X15796Y17594D1*
G1X8448Y17594D1*
G1X8448Y12869D1*
G1X31795Y12869D1*
G1X18710Y16189D2*
G54D14*
G1X19130Y16189D1*
G1X19130Y15769D1*
G1X18710Y15769D1*
G1X18710Y16189D1*
G1X18710Y17339D2*
G1X19130Y17339D1*
G1X19130Y16919D1*
G1X18710Y16919D1*
G1X18710Y17339D1*
G1X17610Y17339D2*
G1X18030Y17339D1*
G1X18030Y16919D1*
G1X17610Y16919D1*
G1X17610Y17339D1*
G1X17610Y16189D2*
G1X18030Y16189D1*
G1X18030Y15769D1*
G1X17610Y15769D1*
G1X17610Y16189D1*
G1X18710Y16129D2*
G1X19130Y16129D1*
G1X18710Y16057D2*
G1X19130Y16057D1*
G1X18710Y15985D2*
G1X19130Y15985D1*
G1X18710Y15913D2*
G1X19130Y15913D1*
G1X18710Y15841D2*
G1X19130Y15841D1*
G1X18710Y17279D2*
G1X19130Y17279D1*
G1X18710Y17207D2*
G1X19130Y17207D1*
G1X18710Y17135D2*
G1X19130Y17135D1*
G1X18710Y17063D2*
G1X19130Y17063D1*
G1X18710Y16991D2*
G1X19130Y16991D1*
G1X17610Y17279D2*
G1X18030Y17279D1*
G1X17610Y17207D2*
G1X18030Y17207D1*
G1X17610Y17135D2*
G1X18030Y17135D1*
G1X17610Y17063D2*
G1X18030Y17063D1*
G1X17610Y16991D2*
G1X18030Y16991D1*
G1X17610Y16129D2*
G1X18030Y16129D1*
G1X17610Y16057D2*
G1X18030Y16057D1*
G1X17610Y15985D2*
G1X18030Y15985D1*
G1X17610Y15913D2*
G1X18030Y15913D1*
G1X17610Y15841D2*
G1X18030Y15841D1*
G54D18*
G1X24920Y14229D3*
G1X24920Y15516D3*
G54D19*
G1X15640Y15909D3*
G1X15160Y15909D3*
G1X29330Y17379D3*
G1X29810Y17379D3*
G1X24660Y18249D3*
G1X24180Y18249D3*
G1X28080Y14679D3*
G1X28560Y14679D3*
G1X26140Y16529D3*
G1X26620Y16529D3*
G1X26240Y17129D3*
G1X26720Y17129D3*
G1X18380Y18569D3*
G1X18860Y18569D3*
G1X24380Y13529D3*
G1X24860Y13529D3*
G1X17040Y18519D3*
G1X16560Y18519D3*
G54D38*
G1X10470Y16879D3*
G1X24440Y15589D3*
G1X27120Y16529D3*
G1X27300Y15739D3*
G1X28970Y15079D3*
G1X14420Y13379D3*
G1X14570Y17029D3*
G1X15420Y16829D3*
G54D20*
G1X27800Y16611D3*
G1X27800Y16926D3*
G1X25560Y15449D3*
G1X25560Y14969D3*
G1X21070Y14569D3*
G1X21070Y14089D3*
G1X20940Y16289D3*
G1X20940Y16769D3*
G1X17880Y14089D3*
G1X17880Y14569D3*
G1X21620Y13839D3*
G1X21620Y14319D3*
G1X22620Y14319D3*
G1X22620Y13839D3*
G1X10670Y15789D3*
G1X10670Y16269D3*
G1X22120Y14319D3*
G1X22120Y13839D3*
G1X20520Y14319D3*
G1X20520Y13839D3*
G1X19260Y14319D3*
G1X19260Y13839D3*
G1X28820Y17069D3*
G1X28820Y16589D3*
G1X28370Y17069D3*
G1X28370Y16589D3*
G54D21*
G1X22450Y18079D3*
G1X21690Y18079D3*
G54D22*
G1X13920Y16751D3*
G1X13920Y16436D3*
G1X13920Y16121D3*
G1X13920Y15806D3*
G1X13320Y15806D3*
G1X13320Y16121D3*
G1X13320Y16436D3*
G1X13320Y16751D3*
G1X11970Y16751D3*
G1X11970Y16436D3*
G1X11970Y16121D3*
G1X11970Y15806D3*
G1X11370Y15806D3*
G1X11370Y16121D3*
G1X11370Y16436D3*
G1X11370Y16751D3*
G54D23*
G1X26260Y15389D3*
G1X26260Y14629D3*
G1X17240Y14149D3*
G1X17240Y13389D3*
G54D26*
G1X29560Y13239D3*
G1X8910Y17099D3*
G1X31320Y18829D3*
G54D33*
G1X29820Y16747D3*
G1X29820Y16255D3*
G1X29820Y15763D3*
G1X29820Y15271D3*
G54D34*
G1X30962Y17751D3*
G1X30962Y14267D3*
G54D35*
G1X28476Y15332D3*
G1X28220Y15332D3*
G1X27965Y15332D3*
G1X27709Y15332D3*
G1X27709Y16025D3*
G1X27965Y16025D3*
G1X28220Y16025D3*
G1X28476Y16025D3*
G54D36*
G1X24174Y16389D3*
G1X21930Y16389D3*
G54D37*
G1X24846Y17011D3*
G1X25220Y17011D3*
G1X25594Y17011D3*
G1X25594Y16047D3*
G1X25220Y16047D3*
G1X24846Y16047D3*
G54D39*
G1X27720Y13479D3*
G54D40*
G1X17061Y18085D3*
G1X17317Y18085D3*
G1X17572Y18085D3*
G1X17828Y18085D3*
G1X18084Y18085D3*
G1X18340Y18085D3*
G1X18596Y18085D3*
G1X18852Y18085D3*
G1X19108Y18085D3*
G1X19364Y18085D3*
G1X19620Y18085D3*
G1X19620Y15034D3*
G1X19364Y15034D3*
G1X19108Y15034D3*
G1X18852Y15034D3*
G1X18596Y15034D3*
G1X18340Y15034D3*
G1X18084Y15034D3*
G1X17828Y15034D3*
G1X17572Y15034D3*
G1X17317Y15034D3*
G1X17061Y15034D3*
G54D41*
G1X19866Y17839D3*
G1X19866Y17583D3*
G1X19866Y17327D3*
G1X19866Y17071D3*
G1X19866Y16815D3*
G1X19866Y16559D3*
G1X19866Y16303D3*
G1X19866Y16047D3*
G1X19866Y15791D3*
G1X19866Y15536D3*
G1X19866Y15280D3*
G1X16815Y15280D3*
G1X16815Y15536D3*
G1X16815Y15791D3*
G1X16815Y16047D3*
G1X16815Y16303D3*
G1X16815Y16559D3*
G1X16815Y16815D3*
G1X16815Y17071D3*
G1X16815Y17327D3*
G1X16815Y17583D3*
G1X16815Y17839D3*
G54D43*
G1X16320Y13388D3*
G1X15336Y13388D3*
G1X15336Y14254D3*
G1X16320Y14254D3*
G54D69*
G1X23440Y14519D3*
G1X24200Y14519D3*
G1X23820Y13639D3*
G54D45*
G1X12734Y15279D3*
G1X12734Y15023D3*
G1X12734Y14767D3*
G1X12734Y14511D3*
G1X12734Y14255D3*
G1X12734Y13999D3*
G1X12734Y13743D3*
G1X12734Y13488D3*
G1X10490Y13488D3*
G1X10490Y13743D3*
G1X10490Y13999D3*
G1X10490Y14255D3*
G1X10490Y14511D3*
G1X10490Y14767D3*
G1X10490Y15023D3*
G1X10490Y15279D3*
G54D46*
G1X26420Y17909D3*
G1X25133Y17909D3*
G1X31794Y5601D2*
G54D11*
G1X31794Y12057D1*
G1X16032Y12057D1*
G1X15796Y10326D1*
G1X8448Y10326D1*
G1X8448Y5601D1*
G1X31794Y5601D1*
G1X18710Y8920D2*
G54D14*
G1X19130Y8920D1*
G1X19130Y8500D1*
G1X18710Y8500D1*
G1X18710Y8920D1*
G1X18710Y10070D2*
G1X19130Y10070D1*
G1X19130Y9650D1*
G1X18710Y9650D1*
G1X18710Y10070D1*
G1X17610Y10070D2*
G1X18030Y10070D1*
G1X18030Y9650D1*
G1X17610Y9650D1*
G1X17610Y10070D1*
G1X17610Y8920D2*
G1X18030Y8920D1*
G1X18030Y8500D1*
G1X17610Y8500D1*
G1X17610Y8920D1*
G1X18710Y8860D2*
G1X19130Y8860D1*
G1X18710Y8788D2*
G1X19130Y8788D1*
G1X18710Y8716D2*
G1X19130Y8716D1*
G1X18710Y8644D2*
G1X19130Y8644D1*
G1X18710Y8572D2*
G1X19130Y8572D1*
G1X18710Y10010D2*
G1X19130Y10010D1*
G1X18710Y9938D2*
G1X19130Y9938D1*
G1X18710Y9866D2*
G1X19130Y9866D1*
G1X18710Y9794D2*
G1X19130Y9794D1*
G1X18710Y9722D2*
G1X19130Y9722D1*
G1X17610Y10010D2*
G1X18030Y10010D1*
G1X17610Y9938D2*
G1X18030Y9938D1*
G1X17610Y9866D2*
G1X18030Y9866D1*
G1X17610Y9794D2*
G1X18030Y9794D1*
G1X17610Y9722D2*
G1X18030Y9722D1*
G1X17610Y8860D2*
G1X18030Y8860D1*
G1X17610Y8788D2*
G1X18030Y8788D1*
G1X17610Y8716D2*
G1X18030Y8716D1*
G1X17610Y8644D2*
G1X18030Y8644D1*
G1X17610Y8572D2*
G1X18030Y8572D1*
G54D18*
G1X24920Y6960D3*
G1X24920Y8248D3*
G54D19*
G1X15640Y8640D3*
G1X15160Y8640D3*
G1X29330Y10110D3*
G1X29810Y10110D3*
G1X24660Y10980D3*
G1X24180Y10980D3*
G1X28080Y7410D3*
G1X28560Y7410D3*
G1X26140Y9260D3*
G1X26620Y9260D3*
G1X26240Y9860D3*
G1X26720Y9860D3*
G1X18380Y11300D3*
G1X18860Y11300D3*
G1X24380Y6260D3*
G1X24860Y6260D3*
G1X17040Y11250D3*
G1X16560Y11250D3*
G54D38*
G1X10470Y9610D3*
G1X24440Y8320D3*
G1X27120Y9260D3*
G1X27300Y8470D3*
G1X28970Y7810D3*
G1X14420Y6110D3*
G1X14570Y9760D3*
G1X15420Y9560D3*
G54D20*
G1X27800Y9343D3*
G1X27800Y9658D3*
G1X25560Y8180D3*
G1X25560Y7700D3*
G1X21070Y7300D3*
G1X21070Y6820D3*
G1X20940Y9020D3*
G1X20940Y9500D3*
G1X17880Y6820D3*
G1X17880Y7300D3*
G1X21620Y6570D3*
G1X21620Y7050D3*
G1X22620Y7050D3*
G1X22620Y6570D3*
G1X10670Y8520D3*
G1X10670Y9000D3*
G1X22120Y7050D3*
G1X22120Y6570D3*
G1X20520Y7050D3*
G1X20520Y6570D3*
G1X19260Y7050D3*
G1X19260Y6570D3*
G1X28820Y9800D3*
G1X28820Y9320D3*
G1X28370Y9800D3*
G1X28370Y9320D3*
G54D21*
G1X22450Y10810D3*
G1X21690Y10810D3*
G54D22*
G1X13920Y9483D3*
G1X13920Y9168D3*
G1X13920Y8853D3*
G1X13920Y8538D3*
G1X13320Y8538D3*
G1X13320Y8853D3*
G1X13320Y9168D3*
G1X13320Y9483D3*
G1X11970Y9483D3*
G1X11970Y9168D3*
G1X11970Y8853D3*
G1X11970Y8538D3*
G1X11370Y8538D3*
G1X11370Y8853D3*
G1X11370Y9168D3*
G1X11370Y9483D3*
G54D23*
G1X26260Y8120D3*
G1X26260Y7360D3*
G1X17240Y6880D3*
G1X17240Y6120D3*
G54D26*
G1X29560Y5970D3*
G1X8910Y9830D3*
G1X31320Y11560D3*
G54D33*
G1X29820Y9478D3*
G1X29820Y8986D3*
G1X29820Y8494D3*
G1X29820Y8002D3*
G54D34*
G1X30962Y10482D3*
G1X30962Y6998D3*
G54D35*
G1X28476Y8064D3*
G1X28220Y8064D3*
G1X27964Y8064D3*
G1X27708Y8064D3*
G1X27708Y8757D3*
G1X27964Y8757D3*
G1X28220Y8757D3*
G1X28476Y8757D3*
G54D36*
G1X24174Y9120D3*
G1X21930Y9120D3*
G54D37*
G1X24846Y9743D3*
G1X25220Y9743D3*
G1X25594Y9743D3*
G1X25594Y8778D3*
G1X25220Y8778D3*
G1X24846Y8778D3*
G54D39*
G1X27720Y6210D3*
G54D40*
G1X17060Y10816D3*
G1X17316Y10816D3*
G1X17572Y10816D3*
G1X17828Y10816D3*
G1X18084Y10816D3*
G1X18340Y10816D3*
G1X18596Y10816D3*
G1X18852Y10816D3*
G1X19107Y10816D3*
G1X19363Y10816D3*
G1X19619Y10816D3*
G1X19619Y7765D3*
G1X19363Y7765D3*
G1X19107Y7765D3*
G1X18852Y7765D3*
G1X18596Y7765D3*
G1X18340Y7765D3*
G1X18084Y7765D3*
G1X17828Y7765D3*
G1X17572Y7765D3*
G1X17316Y7765D3*
G1X17060Y7765D3*
G54D41*
G1X19865Y10570D3*
G1X19865Y10314D3*
G1X19865Y10058D3*
G1X19865Y9802D3*
G1X19865Y9546D3*
G1X19865Y9291D3*
G1X19865Y9035D3*
G1X19865Y8779D3*
G1X19865Y8523D3*
G1X19865Y8267D3*
G1X19865Y8011D3*
G1X16814Y8011D3*
G1X16814Y8267D3*
G1X16814Y8523D3*
G1X16814Y8779D3*
G1X16814Y9035D3*
G1X16814Y9291D3*
G1X16814Y9546D3*
G1X16814Y9802D3*
G1X16814Y10058D3*
G1X16814Y10314D3*
G1X16814Y10570D3*
G54D43*
G1X16320Y6119D3*
G1X15336Y6119D3*
G1X15336Y6985D3*
G1X16320Y6985D3*
G54D69*
G1X23440Y7250D3*
G1X24200Y7250D3*
G1X23820Y6370D3*
G54D45*
G1X12734Y8010D3*
G1X12734Y7754D3*
G1X12734Y7498D3*
G1X12734Y7243D3*
G1X12734Y6987D3*
G1X12734Y6731D3*
G1X12734Y6475D3*
G1X12734Y6219D3*
G1X10490Y6219D3*
G1X10490Y6475D3*
G1X10490Y6731D3*
G1X10490Y6987D3*
G1X10490Y7243D3*
G1X10490Y7498D3*
G1X10490Y7754D3*
G1X10490Y8010D3*
G54D46*
G1X26420Y10640D3*
G1X25133Y10640D3*
M2*
