*
*
G04 PADS VX.2.4 Build Number: 12858991 generated Gerber (RS-274-X) file*
G04 PC Version=2.1*
*
%IN "2Layers.pcb"*%
*
%MOIN*%
*
%FSLAX35Y35*%
*
*
*
*
G04 PC Standard Apertures*
*
*
G04 Thermal Relief Aperture macro.*
%AMTER*
1,1,$1,0,0*
1,0,$1-$2,0,0*
21,0,$3,$4,0,0,45*
21,0,$3,$4,0,0,135*
%
*
*
G04 Annular Aperture macro.*
%AMANN*
1,1,$1,0,0*
1,0,$2,0,0*
%
*
*
G04 Odd Aperture macro.*
%AMODD*
1,1,$1,0,0*
1,0,$1-0.005,0,0*
%
*
*
G04 PC Custom Aperture Macros*
*
*
*
*
*
*
G04 PC Aperture Table*
*
%ADD010C,0.001*%
%ADD015C,0.00591*%
%ADD027C,0.00197*%
%ADD035C,0.01181*%
%ADD044C,0.01969*%
%ADD074C,0.01575*%
%ADD097C,0.05*%
%ADD101C,0.00236*%
%ADD105C,0*%
*
*
*
*
G04 PC Circuitry*
G04 Layer Name 2Layers.pcb - circuitry*
%LPD*%
*
*
G04 PC Custom Flashes*
G04 Layer Name 2Layers.pcb - flashes*
%LPD*%
*
*
G04 PC Circuitry*
G04 Layer Name 2Layers.pcb - circuitry*
%LPD*%
*
G54D10*
G54D15*
G01X504764Y452426D02*
Y449843D01*
Y452426D02*
X505927D01*
X504764Y451196D02*
X505480D01*
X507359Y452426D02*
Y449843D01*
X506732Y452426D02*
X507985D01*
X508880Y451811D02*
Y451934D01*
X508969Y452180*
X509059Y452303*
X509238Y452426*
X509596*
X509775Y452303*
X509864Y452180*
X509953Y451934*
Y451688*
X509864Y451442*
X509685Y451073*
X508790Y449843*
X510043*
X510848Y450950D02*
X512459D01*
X513354Y451811D02*
Y451934D01*
X513443Y452180*
X513533Y452303*
X513712Y452426*
X514069*
X514248Y452303*
X514338Y452180*
X514427Y451934*
Y451688*
X514338Y451442*
X514159Y451073*
X513264Y449843*
X514517*
X515322Y449350D02*
X517201D01*
X517738Y451934D02*
X517917Y452057D01*
X518185Y452426*
Y449843*
X519170Y452426D02*
X520154D01*
X519617Y451442*
X519885*
X520064Y451319*
X520154Y451196*
X520243Y450827*
Y450581*
X520154Y450212*
X519975Y449966*
X519707Y449843*
X519438*
X519170Y449966*
X519080Y450089*
X518991Y450335*
X521496Y452426D02*
X521228Y452303D01*
X521138Y452057*
Y451811*
X521228Y451565*
X521407Y451442*
X521764Y451319*
X522033Y451196*
X522212Y450950*
X522301Y450704*
Y450335*
X522212Y450089*
X522122Y449966*
X521854Y449843*
X521496*
X521228Y449966*
X521138Y450089*
X521049Y450335*
Y450704*
X521138Y450950*
X521317Y451196*
X521586Y451319*
X521943Y451442*
X522122Y451565*
X522212Y451811*
Y452057*
X522122Y452303*
X521854Y452426*
X521496*
X524270D02*
X523375D01*
X523286Y451319*
X523375Y451442*
X523644Y451565*
X523912*
X524180Y451442*
X524359Y451196*
X524449Y450827*
X524359Y450581*
X524270Y450212*
X524091Y449966*
X523822Y449843*
X523554*
X523286Y449966*
X523196Y450089*
X523107Y450335*
X526149Y452426D02*
X525254Y450704D01*
X526596*
X526149Y452426D02*
Y449843D01*
X527402Y449350D02*
X529281D01*
X530354Y452426D02*
X530086Y452303D01*
X529907Y451934*
X529817Y451319*
Y450950*
X529907Y450335*
X530086Y449966*
X530354Y449843*
X530533*
X530802Y449966*
X530981Y450335*
X531070Y450950*
Y451319*
X530981Y451934*
X530802Y452303*
X530533Y452426*
X530354*
X531875Y449350D02*
X533754D01*
X535544Y452057D02*
X535365Y452303D01*
X535097Y452426*
X534739*
X534470Y452303*
X534291Y452057*
Y451811*
X534381Y451565*
X534470Y451442*
X534649Y451319*
X535186Y451073*
X535365Y450950*
X535455Y450827*
X535544Y450581*
Y450212*
X535365Y449966*
X535097Y449843*
X534739*
X534470Y449966*
X534291Y450212*
X536886Y452426D02*
X536707Y452303D01*
X536528Y452057*
X536439Y451811*
X536349Y451442*
Y450827*
X536439Y450458*
X536528Y450212*
X536707Y449966*
X536886Y449843*
X537244*
X537423Y449966*
X537602Y450212*
X537691Y450458*
X537781Y450827*
Y451442*
X537691Y451811*
X537602Y452057*
X537423Y452303*
X537244Y452426*
X536886*
X538586D02*
Y449843D01*
X539660*
X540465Y452426D02*
Y449843D01*
Y452426D02*
X541092D01*
X541360Y452303*
X541539Y452057*
X541628Y451811*
X541718Y451442*
Y450827*
X541628Y450458*
X541539Y450212*
X541360Y449966*
X541092Y449843*
X540465*
X542523Y452426D02*
Y449843D01*
Y452426D02*
X543686D01*
X542523Y451196D02*
X543239D01*
X542523Y449843D02*
X543686D01*
X544492Y452426D02*
Y449843D01*
Y452426D02*
X545297D01*
X545565Y452303*
X545565D02*
X545655Y452180D01*
X545744Y451934*
Y451688*
X545655Y451442*
X545565Y451319*
X545565D02*
X545297Y451196D01*
X544492*
X545118D02*
X545744Y449843D01*
X546550Y449350D02*
X548429D01*
X548966Y452426D02*
Y449843D01*
Y452426D02*
X549681Y449843D01*
X550397Y452426D02*
X549681Y449843D01*
X550397Y452426D02*
Y449843D01*
X551918Y452426D02*
X551203Y449843D01*
X551918Y452426D02*
X552634Y449843D01*
X551471Y450704D02*
X552366D01*
X554692Y452057D02*
X554513Y452303D01*
X554245Y452426*
X553887*
X553618Y452303*
X553440Y452057*
Y451811*
X553529Y451565*
X553618Y451442*
X553797Y451319*
X554334Y451073*
X554513Y450950*
X554603Y450827*
X554692Y450581*
Y450212*
X554513Y449966*
X554245Y449843*
X553887*
X553618Y449966*
X553440Y450212*
X555497Y452426D02*
Y449843D01*
X556750Y452426D02*
X555497Y450704D01*
X555945Y451319D02*
X556750Y449843D01*
X557555Y449350D02*
X559435D01*
X560598Y452426D02*
Y449843D01*
X559971Y452426D02*
X561224D01*
X562566D02*
X562387Y452303D01*
X562208Y452057*
X562119Y451811*
X562029Y451442*
Y450827*
X562119Y450458*
X562208Y450212*
X562387Y449966*
X562566Y449843*
X562924*
X563103Y449966*
X563282Y450212*
X563372Y450458*
X563461Y450827*
Y451442*
X563372Y451811*
X563282Y452057*
X563103Y452303*
X562924Y452426*
X562566*
X564266D02*
Y449843D01*
Y452426D02*
X565072D01*
X565340Y452303*
X565429Y452180*
X565519Y451934*
Y451565*
X565429Y451319*
X565340Y451196*
X565072Y451073*
X564266*
G54D27*
X395374Y412992D02*
G75*
G03X401575Y406791I6201J0D01*
X407776Y412992I-0J6201*
G01Y416929*
G03X401575Y423130I-6201J0*
X395374Y416929I-0J-6201*
G01Y412992*
X410335D02*
G03X416535Y406791I6200J0D01*
X422736Y412992I0J6201*
G01Y416929*
G03X416535Y423130I-6201J0*
X410335Y416929I0J-6201*
G01Y412992*
X395374Y430709D02*
G03X401575Y424508I6201J-0D01*
X407776Y430709I-0J6201*
G01Y434646*
G03X401575Y440846I-6201J-0*
X395374Y434646I-0J-6200*
G01Y430709*
X410335D02*
G03X416535Y424508I6200J-0D01*
X422736Y430709I0J6201*
G01Y434646*
G03X416535Y440846I-6201J-0*
X410335Y434646I0J-6200*
G01Y430709*
X395374Y448425D02*
G03X401575Y442224I6201J0D01*
X407776Y448425I-0J6201*
G01Y452362*
G03X401575Y458563I-6201J0*
X395374Y452362I-0J-6201*
G01Y448425*
X410335D02*
G03X416535Y442224I6200J0D01*
X422736Y448425I0J6201*
G01Y452362*
G03X416535Y458563I-6201J0*
X410335Y452362I0J-6201*
G01Y448425*
X447668Y425931D02*
G03X454584Y423375I4737J2183D01*
X457142Y430299I-2179J4740*
G01X455824Y433159*
G03X448893Y435708I-4738J-2184*
X446349Y428791I2193J-4733*
G01X447668Y425931*
X439205Y418768D02*
G03X446576Y418803I3668J3708D01*
X446542Y426185I-3703J3674*
G01X444304Y428400*
G03X436928Y428363I-3670J-3708*
X436966Y420984I3707J-3671*
G01X439205Y418768*
X435376Y408358D02*
G03X442033Y411546I1736J4919D01*
X438848Y418196I-4921J1731*
G01X435879Y419245*
G03X429218Y416049I-1737J-4920*
X432405Y409407I4924J-1723*
G01X435376Y408358*
X398327Y401181D02*
G03X401772Y397736I3445J0D01*
G01X416732*
G03X420177Y401181I0J3445*
X416732Y404626I-3445J0*
G01X401772*
G03X398327Y401181I-0J-3445*
G01X398130Y464567D02*
G03X401575Y461122I3445J-0D01*
G01X416535*
G03X419980Y464567I0J3445*
X416535Y468012I-3445J-0*
G01X401575*
G03X398130Y464567I-0J-3445*
G01X446555Y400591D02*
G03X451772Y395374I5217J-0D01*
X456988Y400591I-0J5217*
G01Y405709*
G03X451772Y410925I-5216J-0*
X446555Y405709I-0J-5216*
G01Y400591*
X395374Y416888D02*
X407776D01*
X395374Y416711D02*
X407776D01*
X395374Y416534D02*
X407776D01*
X395374Y416357D02*
X407776D01*
X395374Y416180D02*
X407776D01*
X395374Y416003D02*
X407776D01*
X395374Y415825D02*
X407776D01*
X395374Y415648D02*
X407776D01*
X395374Y415471D02*
X407776D01*
X395374Y415294D02*
X407776D01*
X395374Y415117D02*
X407776D01*
X395374Y414940D02*
X407776D01*
X395374Y414762D02*
X407776D01*
X395374Y414585D02*
X407776D01*
X395374Y414408D02*
X407776D01*
X395374Y414231D02*
X407776D01*
X395374Y414054D02*
X407776D01*
X395374Y413877D02*
X407776D01*
X395374Y413699D02*
X407776D01*
X395374Y413522D02*
X407776D01*
X395374Y413345D02*
X407776D01*
X395374Y413168D02*
X407776D01*
X395374Y412991D02*
X407776D01*
X395376Y417066D02*
X407774D01*
X395377Y412814D02*
X407773D01*
X395382Y417243D02*
X407768D01*
X395384Y412636D02*
X407765D01*
X395393Y417420D02*
X407756D01*
X395397Y412459D02*
X407753D01*
X395410Y417597D02*
X407740D01*
X395415Y412282D02*
X407735D01*
X395432Y417774D02*
X407718D01*
X395438Y412105D02*
X407712D01*
X395459Y417951D02*
X407691D01*
X395466Y411928D02*
X407684D01*
X395491Y418129D02*
X407658D01*
X395500Y411751D02*
X407650D01*
X395529Y418306D02*
X407621D01*
X395538Y411573D02*
X407611D01*
X395572Y418483D02*
X407578D01*
X395583Y411396D02*
X407567D01*
X395621Y418660D02*
X407529D01*
X395633Y411219D02*
X407517D01*
X395675Y418837D02*
X407475D01*
X395689Y411042D02*
X407461D01*
X395735Y419014D02*
X407414D01*
X395750Y410865D02*
X407399D01*
X395802Y419192D02*
X407348D01*
X395818Y410688D02*
X407331D01*
X395874Y419369D02*
X407276D01*
X395892Y410510D02*
X407257D01*
X395953Y419546D02*
X407196D01*
X395973Y410333D02*
X407177D01*
X396039Y419723D02*
X407110D01*
X396061Y410156D02*
X407089D01*
X396132Y419900D02*
X407017D01*
X396155Y409979D02*
X406994D01*
X396233Y420077D02*
X406917D01*
X396258Y409802D02*
X406892D01*
X396341Y420255D02*
X406808D01*
X396368Y409625D02*
X406782D01*
X396458Y420432D02*
X406692D01*
X396487Y409448D02*
X406663D01*
X396584Y420609D02*
X406566D01*
X396615Y409270D02*
X406534D01*
X396720Y420786D02*
X406430D01*
X396753Y409093D02*
X406396D01*
X396866Y420963D02*
X406284D01*
X396902Y408916D02*
X406248D01*
X397023Y421140D02*
X406126D01*
X397063Y408739D02*
X406087D01*
X397194Y421318D02*
X405956D01*
X397236Y408562D02*
X405913D01*
X397379Y421495D02*
X405771D01*
X397425Y408385D02*
X405724D01*
X397580Y421672D02*
X405569D01*
X397631Y408207D02*
X405519D01*
X397801Y421849D02*
X405349D01*
X397856Y408030D02*
X405294D01*
X398044Y422026D02*
X405106D01*
X398105Y407853D02*
X405045D01*
X398314Y422203D02*
X404835D01*
X398383Y407676D02*
X404767D01*
X398620Y422381D02*
X404530D01*
X398699Y407499D02*
X404451D01*
X398973Y422558D02*
X404176D01*
X399066Y407322D02*
X404084D01*
X399397Y422735D02*
X403753D01*
X399512Y407144D02*
X403637D01*
X399946Y422912D02*
X403204D01*
X400109Y406967D02*
X403041D01*
X400866Y423089D02*
X402284D01*
X410335Y416888D02*
X422736D01*
X410335Y416711D02*
X422736D01*
X410335Y416534D02*
X422736D01*
X410335Y416357D02*
X422736D01*
X410335Y416180D02*
X422736D01*
X410335Y416003D02*
X422736D01*
X410335Y415825D02*
X422736D01*
X410335Y415648D02*
X422736D01*
X410335Y415471D02*
X422736D01*
X410335Y415294D02*
X422736D01*
X410335Y415117D02*
X422736D01*
X410335Y414940D02*
X422736D01*
X410335Y414762D02*
X422736D01*
X410335Y414585D02*
X422736D01*
X410335Y414408D02*
X422736D01*
X410335Y414231D02*
X422736D01*
X410335Y414054D02*
X422736D01*
X410335Y413877D02*
X422736D01*
X410335Y413699D02*
X422736D01*
X410335Y413522D02*
X422736D01*
X410335Y413345D02*
X422736D01*
X410335Y413168D02*
X422736D01*
X410335Y412991D02*
X422736D01*
X410336Y417066D02*
X422735D01*
X410337Y412814D02*
X422734D01*
X410343Y417243D02*
X422728D01*
X410345Y412636D02*
X422726D01*
X410354Y417420D02*
X422717D01*
X410358Y412459D02*
X422713D01*
X410371Y417597D02*
X422700D01*
X410375Y412282D02*
X422695D01*
X410393Y417774D02*
X422678D01*
X410398Y412105D02*
X422672D01*
X410419Y417951D02*
X422651D01*
X410427Y411928D02*
X422644D01*
X410452Y418129D02*
X422619D01*
X410460Y411751D02*
X422611D01*
X410489Y418306D02*
X422581D01*
X410499Y411573D02*
X422572D01*
X410532Y418483D02*
X422538D01*
X410544Y411396D02*
X422527D01*
X410581Y418660D02*
X422490D01*
X410594Y411219D02*
X422477D01*
X410636Y418837D02*
X422435D01*
X410649Y411042D02*
X422422D01*
X410696Y419014D02*
X422375D01*
X410711Y410865D02*
X422360D01*
X410762Y419192D02*
X422309D01*
X410779Y410688D02*
X422292D01*
X410835Y419369D02*
X422236D01*
X410853Y410510D02*
X422218D01*
X410914Y419546D02*
X422157D01*
X410934Y410333D02*
X422137D01*
X411000Y419723D02*
X422071D01*
X411021Y410156D02*
X422050D01*
X411093Y419900D02*
X421978D01*
X411116Y409979D02*
X421955D01*
X411193Y420077D02*
X421878D01*
X411218Y409802D02*
X421853D01*
X411302Y420255D02*
X421769D01*
X411329Y409625D02*
X421742D01*
X411419Y420432D02*
X421652D01*
X411448Y409448D02*
X421623D01*
X411545Y420609D02*
X421526D01*
X411576Y409270D02*
X421495D01*
X411680Y420786D02*
X421391D01*
X411714Y409093D02*
X421357D01*
X411826Y420963D02*
X421245D01*
X411863Y408916D02*
X421208D01*
X411984Y421140D02*
X421087D01*
X412023Y408739D02*
X421048D01*
X412155Y421318D02*
X420916D01*
X412197Y408562D02*
X420874D01*
X412340Y421495D02*
X420731D01*
X412386Y408385D02*
X420685D01*
X412541Y421672D02*
X420530D01*
X412591Y408207D02*
X420480D01*
X412761Y421849D02*
X420310D01*
X412817Y408030D02*
X420254D01*
X413004Y422026D02*
X420067D01*
X413066Y407853D02*
X420005D01*
X413275Y422203D02*
X419796D01*
X413344Y407676D02*
X419727D01*
X413581Y422381D02*
X419490D01*
X413659Y407499D02*
X419412D01*
X413934Y422558D02*
X419137D01*
X414027Y407322D02*
X419044D01*
X414358Y422735D02*
X418713D01*
X414473Y407144D02*
X418598D01*
X414906Y422912D02*
X418165D01*
X415069Y406967D02*
X418002D01*
X415826Y423089D02*
X417245D01*
X395374Y434605D02*
X407776D01*
X395374Y434428D02*
X407776D01*
X395374Y434251D02*
X407776D01*
X395374Y434073D02*
X407776D01*
X395374Y433896D02*
X407776D01*
X395374Y433719D02*
X407776D01*
X395374Y433542D02*
X407776D01*
X395374Y433365D02*
X407776D01*
X395374Y433188D02*
X407776D01*
X395374Y433010D02*
X407776D01*
X395374Y432833D02*
X407776D01*
X395374Y432656D02*
X407776D01*
X395374Y432479D02*
X407776D01*
X395374Y432302D02*
X407776D01*
X395374Y432125D02*
X407776D01*
X395374Y431948D02*
X407776D01*
X395374Y431770D02*
X407776D01*
X395374Y431593D02*
X407776D01*
X395374Y431416D02*
X407776D01*
X395374Y431239D02*
X407776D01*
X395374Y431062D02*
X407776D01*
X395374Y430885D02*
X407776D01*
X395374Y430707D02*
X407776D01*
X395376Y434782D02*
X407774D01*
X395377Y430530D02*
X407773D01*
X395382Y434959D02*
X407768D01*
X395384Y430353D02*
X407765D01*
X395393Y435136D02*
X407756D01*
X395397Y430176D02*
X407753D01*
X395410Y435314D02*
X407740D01*
X395415Y429999D02*
X407735D01*
X395432Y435491D02*
X407718D01*
X395438Y429822D02*
X407712D01*
X395459Y435668D02*
X407691D01*
X395466Y429644D02*
X407684D01*
X395491Y435845D02*
X407658D01*
X395500Y429467D02*
X407650D01*
X395529Y436022D02*
X407621D01*
X395538Y429290D02*
X407611D01*
X395572Y436199D02*
X407578D01*
X395583Y429113D02*
X407567D01*
X395621Y436377D02*
X407529D01*
X395633Y428936D02*
X407517D01*
X395675Y436554D02*
X407475D01*
X395689Y428759D02*
X407461D01*
X395735Y436731D02*
X407414D01*
X395750Y428581D02*
X407399D01*
X395802Y436908D02*
X407348D01*
X395818Y428404D02*
X407331D01*
X395874Y437085D02*
X407276D01*
X395892Y428227D02*
X407257D01*
X395953Y437262D02*
X407196D01*
X395973Y428050D02*
X407177D01*
X396039Y437440D02*
X407110D01*
X396061Y427873D02*
X407089D01*
X396132Y437617D02*
X407017D01*
X396155Y427696D02*
X406994D01*
X396233Y437794D02*
X406917D01*
X396258Y427518D02*
X406892D01*
X396341Y437971D02*
X406808D01*
X396368Y427341D02*
X406782D01*
X396458Y438148D02*
X406692D01*
X396487Y427164D02*
X406663D01*
X396584Y438325D02*
X406566D01*
X396615Y426987D02*
X406534D01*
X396720Y438503D02*
X406430D01*
X396753Y426810D02*
X406396D01*
X396866Y438680D02*
X406284D01*
X396902Y426633D02*
X406248D01*
X397023Y438857D02*
X406126D01*
X397063Y426455D02*
X406087D01*
X397194Y439034D02*
X405956D01*
X397236Y426278D02*
X405913D01*
X397379Y439211D02*
X405771D01*
X397425Y426101D02*
X405724D01*
X397580Y439388D02*
X405569D01*
X397631Y425924D02*
X405519D01*
X397801Y439566D02*
X405349D01*
X397856Y425747D02*
X405294D01*
X398044Y439743D02*
X405106D01*
X398105Y425570D02*
X405045D01*
X398314Y439920D02*
X404835D01*
X398383Y425392D02*
X404767D01*
X398620Y440097D02*
X404530D01*
X398699Y425215D02*
X404451D01*
X398973Y440274D02*
X404176D01*
X399066Y425038D02*
X404084D01*
X399397Y440451D02*
X403753D01*
X399512Y424861D02*
X403637D01*
X399946Y440629D02*
X403204D01*
X400109Y424684D02*
X403041D01*
X400866Y440806D02*
X402284D01*
X410335Y434605D02*
X422736D01*
X410335Y434428D02*
X422736D01*
X410335Y434251D02*
X422736D01*
X410335Y434073D02*
X422736D01*
X410335Y433896D02*
X422736D01*
X410335Y433719D02*
X422736D01*
X410335Y433542D02*
X422736D01*
X410335Y433365D02*
X422736D01*
X410335Y433188D02*
X422736D01*
X410335Y433010D02*
X422736D01*
X410335Y432833D02*
X422736D01*
X410335Y432656D02*
X422736D01*
X410335Y432479D02*
X422736D01*
X410335Y432302D02*
X422736D01*
X410335Y432125D02*
X422736D01*
X410335Y431948D02*
X422736D01*
X410335Y431770D02*
X422736D01*
X410335Y431593D02*
X422736D01*
X410335Y431416D02*
X422736D01*
X410335Y431239D02*
X422736D01*
X410335Y431062D02*
X422736D01*
X410335Y430885D02*
X422736D01*
X410335Y430707D02*
X422736D01*
X410336Y434782D02*
X422735D01*
X410337Y430530D02*
X422734D01*
X410343Y434959D02*
X422728D01*
X410345Y430353D02*
X422726D01*
X410354Y435136D02*
X422717D01*
X410358Y430176D02*
X422713D01*
X410371Y435314D02*
X422700D01*
X410375Y429999D02*
X422695D01*
X410393Y435491D02*
X422678D01*
X410398Y429822D02*
X422672D01*
X410419Y435668D02*
X422651D01*
X410427Y429644D02*
X422644D01*
X410452Y435845D02*
X422619D01*
X410460Y429467D02*
X422611D01*
X410489Y436022D02*
X422581D01*
X410499Y429290D02*
X422572D01*
X410532Y436199D02*
X422538D01*
X410544Y429113D02*
X422527D01*
X410581Y436377D02*
X422490D01*
X410594Y428936D02*
X422477D01*
X410636Y436554D02*
X422435D01*
X410649Y428759D02*
X422422D01*
X410696Y436731D02*
X422375D01*
X410711Y428581D02*
X422360D01*
X410762Y436908D02*
X422309D01*
X410779Y428404D02*
X422292D01*
X410835Y437085D02*
X422236D01*
X410853Y428227D02*
X422218D01*
X410914Y437262D02*
X422157D01*
X410934Y428050D02*
X422137D01*
X411000Y437440D02*
X422071D01*
X411021Y427873D02*
X422050D01*
X411093Y437617D02*
X421978D01*
X411116Y427696D02*
X421955D01*
X411193Y437794D02*
X421878D01*
X411218Y427518D02*
X421853D01*
X411302Y437971D02*
X421769D01*
X411329Y427341D02*
X421742D01*
X411419Y438148D02*
X421652D01*
X411448Y427164D02*
X421623D01*
X411545Y438325D02*
X421526D01*
X411576Y426987D02*
X421495D01*
X411680Y438503D02*
X421391D01*
X411714Y426810D02*
X421357D01*
X411826Y438680D02*
X421245D01*
X411863Y426633D02*
X421208D01*
X411984Y438857D02*
X421087D01*
X412023Y426455D02*
X421048D01*
X412155Y439034D02*
X420916D01*
X412197Y426278D02*
X420874D01*
X412340Y439211D02*
X420731D01*
X412386Y426101D02*
X420685D01*
X412541Y439388D02*
X420530D01*
X412591Y425924D02*
X420480D01*
X412761Y439566D02*
X420310D01*
X412817Y425747D02*
X420254D01*
X413004Y439743D02*
X420067D01*
X413066Y425570D02*
X420005D01*
X413275Y439920D02*
X419796D01*
X413344Y425392D02*
X419727D01*
X413581Y440097D02*
X419490D01*
X413659Y425215D02*
X419412D01*
X413934Y440274D02*
X419137D01*
X414027Y425038D02*
X419044D01*
X414358Y440451D02*
X418713D01*
X414473Y424861D02*
X418598D01*
X414906Y440629D02*
X418165D01*
X415069Y424684D02*
X418002D01*
X415826Y440806D02*
X417245D01*
X395374Y452322D02*
X407776D01*
X395374Y452144D02*
X407776D01*
X395374Y451967D02*
X407776D01*
X395374Y451790D02*
X407776D01*
X395374Y451613D02*
X407776D01*
X395374Y451436D02*
X407776D01*
X395374Y451259D02*
X407776D01*
X395374Y451081D02*
X407776D01*
X395374Y450904D02*
X407776D01*
X395374Y450727D02*
X407776D01*
X395374Y450550D02*
X407776D01*
X395374Y450373D02*
X407776D01*
X395374Y450196D02*
X407776D01*
X395374Y450018D02*
X407776D01*
X395374Y449841D02*
X407776D01*
X395374Y449664D02*
X407776D01*
X395374Y449487D02*
X407776D01*
X395374Y449310D02*
X407776D01*
X395374Y449133D02*
X407776D01*
X395374Y448955D02*
X407776D01*
X395374Y448778D02*
X407776D01*
X395374Y448601D02*
X407776D01*
X395374Y448424D02*
X407776D01*
X395376Y452499D02*
X407774D01*
X395377Y448247D02*
X407773D01*
X395382Y452676D02*
X407768D01*
X395384Y448070D02*
X407765D01*
X395393Y452853D02*
X407756D01*
X395397Y447892D02*
X407753D01*
X395410Y453030D02*
X407740D01*
X395415Y447715D02*
X407735D01*
X395432Y453207D02*
X407718D01*
X395438Y447538D02*
X407712D01*
X395459Y453385D02*
X407691D01*
X395466Y447361D02*
X407684D01*
X395491Y453562D02*
X407658D01*
X395500Y447184D02*
X407650D01*
X395529Y453739D02*
X407621D01*
X395538Y447007D02*
X407611D01*
X395572Y453916D02*
X407578D01*
X395583Y446829D02*
X407567D01*
X395621Y454093D02*
X407529D01*
X395633Y446652D02*
X407517D01*
X395675Y454270D02*
X407475D01*
X395689Y446475D02*
X407461D01*
X395735Y454448D02*
X407414D01*
X395750Y446298D02*
X407399D01*
X395802Y454625D02*
X407348D01*
X395818Y446121D02*
X407331D01*
X395874Y454802D02*
X407276D01*
X395892Y445944D02*
X407257D01*
X395953Y454979D02*
X407196D01*
X395973Y445766D02*
X407177D01*
X396039Y455156D02*
X407110D01*
X396061Y445589D02*
X407089D01*
X396132Y455333D02*
X407017D01*
X396155Y445412D02*
X406994D01*
X396233Y455510D02*
X406917D01*
X396258Y445235D02*
X406892D01*
X396341Y455688D02*
X406808D01*
X396368Y445058D02*
X406782D01*
X396458Y455865D02*
X406692D01*
X396487Y444881D02*
X406663D01*
X396584Y456042D02*
X406566D01*
X396615Y444703D02*
X406534D01*
X396720Y456219D02*
X406430D01*
X396753Y444526D02*
X406396D01*
X396866Y456396D02*
X406284D01*
X396902Y444349D02*
X406248D01*
X397023Y456573D02*
X406126D01*
X397063Y444172D02*
X406087D01*
X397194Y456751D02*
X405956D01*
X397236Y443995D02*
X405913D01*
X397379Y456928D02*
X405771D01*
X397425Y443818D02*
X405724D01*
X397580Y457105D02*
X405569D01*
X397631Y443640D02*
X405519D01*
X397801Y457282D02*
X405349D01*
X397856Y443463D02*
X405294D01*
X398044Y457459D02*
X405106D01*
X398105Y443286D02*
X405045D01*
X398314Y457636D02*
X404835D01*
X398383Y443109D02*
X404767D01*
X398620Y457814D02*
X404530D01*
X398699Y442932D02*
X404451D01*
X398973Y457991D02*
X404176D01*
X399066Y442755D02*
X404084D01*
X399397Y458168D02*
X403753D01*
X399512Y442577D02*
X403637D01*
X399946Y458345D02*
X403204D01*
X400109Y442400D02*
X403041D01*
X400866Y458522D02*
X402284D01*
X410335Y452322D02*
X422736D01*
X410335Y452144D02*
X422736D01*
X410335Y451967D02*
X422736D01*
X410335Y451790D02*
X422736D01*
X410335Y451613D02*
X422736D01*
X410335Y451436D02*
X422736D01*
X410335Y451259D02*
X422736D01*
X410335Y451081D02*
X422736D01*
X410335Y450904D02*
X422736D01*
X410335Y450727D02*
X422736D01*
X410335Y450550D02*
X422736D01*
X410335Y450373D02*
X422736D01*
X410335Y450196D02*
X422736D01*
X410335Y450018D02*
X422736D01*
X410335Y449841D02*
X422736D01*
X410335Y449664D02*
X422736D01*
X410335Y449487D02*
X422736D01*
X410335Y449310D02*
X422736D01*
X410335Y449133D02*
X422736D01*
X410335Y448955D02*
X422736D01*
X410335Y448778D02*
X422736D01*
X410335Y448601D02*
X422736D01*
X410335Y448424D02*
X422736D01*
X410336Y452499D02*
X422735D01*
X410337Y448247D02*
X422734D01*
X410343Y452676D02*
X422728D01*
X410345Y448070D02*
X422726D01*
X410354Y452853D02*
X422717D01*
X410358Y447892D02*
X422713D01*
X410371Y453030D02*
X422700D01*
X410375Y447715D02*
X422695D01*
X410393Y453207D02*
X422678D01*
X410398Y447538D02*
X422672D01*
X410419Y453385D02*
X422651D01*
X410427Y447361D02*
X422644D01*
X410452Y453562D02*
X422619D01*
X410460Y447184D02*
X422611D01*
X410489Y453739D02*
X422581D01*
X410499Y447007D02*
X422572D01*
X410532Y453916D02*
X422538D01*
X410544Y446829D02*
X422527D01*
X410581Y454093D02*
X422490D01*
X410594Y446652D02*
X422477D01*
X410636Y454270D02*
X422435D01*
X410649Y446475D02*
X422422D01*
X410696Y454448D02*
X422375D01*
X410711Y446298D02*
X422360D01*
X410762Y454625D02*
X422309D01*
X410779Y446121D02*
X422292D01*
X410835Y454802D02*
X422236D01*
X410853Y445944D02*
X422218D01*
X410914Y454979D02*
X422157D01*
X410934Y445766D02*
X422137D01*
X411000Y455156D02*
X422071D01*
X411021Y445589D02*
X422050D01*
X411093Y455333D02*
X421978D01*
X411116Y445412D02*
X421955D01*
X411193Y455510D02*
X421878D01*
X411218Y445235D02*
X421853D01*
X411302Y455688D02*
X421769D01*
X411329Y445058D02*
X421742D01*
X411419Y455865D02*
X421652D01*
X411448Y444881D02*
X421623D01*
X411545Y456042D02*
X421526D01*
X411576Y444703D02*
X421495D01*
X411680Y456219D02*
X421391D01*
X411714Y444526D02*
X421357D01*
X411826Y456396D02*
X421245D01*
X411863Y444349D02*
X421208D01*
X411984Y456573D02*
X421087D01*
X412023Y444172D02*
X421048D01*
X412155Y456751D02*
X420916D01*
X412197Y443995D02*
X420874D01*
X412340Y456928D02*
X420731D01*
X412386Y443818D02*
X420685D01*
X412541Y457105D02*
X420530D01*
X412591Y443640D02*
X420480D01*
X412761Y457282D02*
X420310D01*
X412817Y443463D02*
X420254D01*
X413004Y457459D02*
X420067D01*
X413066Y443286D02*
X420005D01*
X413275Y457636D02*
X419796D01*
X413344Y443109D02*
X419727D01*
X413581Y457814D02*
X419490D01*
X413659Y442932D02*
X419412D01*
X413934Y457991D02*
X419137D01*
X414027Y442755D02*
X419044D01*
X414358Y458168D02*
X418713D01*
X414473Y442577D02*
X418598D01*
X414906Y458345D02*
X418165D01*
X415069Y442400D02*
X418002D01*
X415826Y458522D02*
X417245D01*
X446698Y428035D02*
X457621D01*
X446616Y428212D02*
X457621D01*
X446779Y427858D02*
X457615D01*
X446534Y428389D02*
X457614D01*
X446861Y427680D02*
X457603D01*
X446453Y428566D02*
X457602D01*
X446943Y427503D02*
X457585D01*
X446371Y428743D02*
X457583D01*
X447024Y427326D02*
X457561D01*
X446292Y428920D02*
X457559D01*
X447106Y427149D02*
X457531D01*
X446219Y429098D02*
X457528D01*
X447188Y426972D02*
X457495D01*
X446155Y429275D02*
X457491D01*
X447269Y426795D02*
X457452D01*
X446097Y429452D02*
X457447D01*
X447351Y426617D02*
X457402D01*
X446046Y429629D02*
X457397D01*
X447433Y426440D02*
X457345D01*
X446002Y429806D02*
X457340D01*
X447514Y426263D02*
X457282D01*
X445965Y429983D02*
X457275D01*
X447596Y426086D02*
X457211D01*
X445934Y430161D02*
X457204D01*
X447678Y425909D02*
X457132D01*
X445909Y430338D02*
X457124D01*
X447765Y425732D02*
X457045D01*
X445890Y430515D02*
X457043D01*
X445878Y430692D02*
X456961D01*
X447860Y425554D02*
X456950D01*
X445871Y430869D02*
X456879D01*
X447964Y425377D02*
X456845D01*
X445870Y431046D02*
X456798D01*
X448079Y425200D02*
X456731D01*
X445876Y431224D02*
X456716D01*
X445887Y431401D02*
X456634D01*
X448203Y425023D02*
X456606D01*
X445905Y431578D02*
X456553D01*
X445928Y431755D02*
X456471D01*
X448340Y424846D02*
X456470D01*
X445958Y431932D02*
X456389D01*
X448489Y424669D02*
X456321D01*
X445995Y432109D02*
X456308D01*
X446037Y432287D02*
X456226D01*
X448652Y424491D02*
X456158D01*
X446087Y432464D02*
X456144D01*
X446143Y432641D02*
X456063D01*
X446206Y432818D02*
X455981D01*
X448832Y424314D02*
X455978D01*
X446277Y432995D02*
X455899D01*
X446355Y433172D02*
X455818D01*
X449030Y424137D02*
X455780D01*
X446442Y433350D02*
X455731D01*
X446536Y433527D02*
X455636D01*
X449251Y423960D02*
X455559D01*
X446640Y433704D02*
X455532D01*
X446754Y433881D02*
X455418D01*
X449499Y423783D02*
X455311D01*
X446878Y434058D02*
X455294D01*
X447014Y434235D02*
X455158D01*
X449782Y423606D02*
X455028D01*
X447163Y434413D02*
X455010D01*
X447325Y434590D02*
X454847D01*
X450113Y423428D02*
X454696D01*
X447504Y434767D02*
X454669D01*
X447701Y434944D02*
X454471D01*
X450518Y423251D02*
X454291D01*
X447921Y435121D02*
X454252D01*
X448167Y435298D02*
X454005D01*
X451062Y423074D02*
X453748D01*
X448448Y435476D02*
X453724D01*
X448777Y435653D02*
X453395D01*
X449178Y435830D02*
X452995D01*
X449711Y436007D02*
X452461D01*
X450810Y436184D02*
X451362D01*
X435950Y422397D02*
X448089D01*
X435867Y422574D02*
X448089D01*
X436041Y422220D02*
X448084D01*
X435793Y422751D02*
X448083D01*
X436141Y422042D02*
X448072D01*
X435725Y422928D02*
X448070D01*
X436250Y421865D02*
X448054D01*
X435665Y423105D02*
X448052D01*
X436370Y421688D02*
X448030D01*
X435612Y423283D02*
X448027D01*
X436500Y421511D02*
X448000D01*
X435566Y423460D02*
X447997D01*
X436643Y421334D02*
X447963D01*
X435526Y423637D02*
X447959D01*
X436799Y421157D02*
X447920D01*
X435492Y423814D02*
X447916D01*
X436970Y420979D02*
X447870D01*
X435465Y423991D02*
X447865D01*
X437149Y420802D02*
X447814D01*
X435444Y424168D02*
X447808D01*
X437328Y420625D02*
X447750D01*
X435430Y424346D02*
X447744D01*
X437507Y420448D02*
X447679D01*
X435421Y424523D02*
X447672D01*
X437686Y420271D02*
X447600D01*
X435418Y424700D02*
X447593D01*
X437865Y420094D02*
X447514D01*
X435421Y424877D02*
X447505D01*
X438045Y419916D02*
X447418D01*
X435431Y425054D02*
X447409D01*
X438224Y419739D02*
X447314D01*
X435446Y425231D02*
X447303D01*
X438403Y419562D02*
X447200D01*
X435467Y425409D02*
X447188D01*
X438582Y419385D02*
X447075D01*
X435495Y425586D02*
X447062D01*
X438761Y419208D02*
X446938D01*
X435529Y425763D02*
X446925D01*
X438940Y419031D02*
X446789D01*
X435569Y425940D02*
X446775D01*
X439119Y418853D02*
X446626D01*
X435616Y426117D02*
X446610D01*
X439300Y418676D02*
X446446D01*
X435670Y426294D02*
X446432D01*
X435731Y426472D02*
X446253D01*
X439499Y418499D02*
X446248D01*
X435799Y426649D02*
X446074D01*
X439719Y418322D02*
X446028D01*
X435874Y426826D02*
X445895D01*
X439967Y418145D02*
X445779D01*
X435958Y427003D02*
X445716D01*
X436050Y427180D02*
X445537D01*
X440251Y417968D02*
X445496D01*
X436150Y427357D02*
X445358D01*
X436260Y427535D02*
X445179D01*
X440582Y417790D02*
X445165D01*
X436381Y427712D02*
X445000D01*
X436512Y427889D02*
X444820D01*
X440987Y417613D02*
X444760D01*
X436656Y428066D02*
X444641D01*
X436813Y428243D02*
X444462D01*
X436986Y428420D02*
X444283D01*
X441530Y417436D02*
X444216D01*
X437176Y428598D02*
X444093D01*
X437387Y428775D02*
X443882D01*
X437623Y428952D02*
X443646D01*
X437891Y429129D02*
X443378D01*
X438201Y429306D02*
X443068D01*
X438572Y429483D02*
X442697D01*
X439045Y429661D02*
X442224D01*
X439778Y429838D02*
X441491D01*
X429049Y413197D02*
X442328D01*
X429013Y413374D02*
X442327D01*
X429091Y413020D02*
X442322D01*
X428983Y413551D02*
X442321D01*
X429141Y412843D02*
X442310D01*
X428960Y413729D02*
X442309D01*
X429197Y412666D02*
X442292D01*
X428942Y413906D02*
X442290D01*
X429260Y412488D02*
X442268D01*
X428931Y414083D02*
X442266D01*
X429330Y412311D02*
X442238D01*
X428926Y414260D02*
X442235D01*
X429408Y412134D02*
X442202D01*
X428927Y414437D02*
X442198D01*
X429494Y411957D02*
X442158D01*
X428933Y414614D02*
X442154D01*
X429589Y411780D02*
X442109D01*
X428946Y414792D02*
X442104D01*
X429693Y411603D02*
X442052D01*
X428965Y414969D02*
X442046D01*
X429806Y411425D02*
X441989D01*
X428990Y415146D02*
X441982D01*
X429930Y411248D02*
X441918D01*
X429022Y415323D02*
X441910D01*
X430065Y411071D02*
X441839D01*
X429059Y415500D02*
X441831D01*
X430213Y410894D02*
X441752D01*
X429103Y415677D02*
X441743D01*
X430375Y410717D02*
X441657D01*
X429154Y415854D02*
X441647D01*
X430553Y410540D02*
X441552D01*
X429212Y416032D02*
X441542D01*
X430750Y410362D02*
X441438D01*
X429277Y416209D02*
X441427D01*
X430969Y410185D02*
X441313D01*
X429349Y416386D02*
X441301D01*
X431214Y410008D02*
X441177D01*
X429430Y416563D02*
X441163D01*
X431494Y409831D02*
X441028D01*
X429518Y416740D02*
X441013D01*
X431821Y409654D02*
X440865D01*
X429615Y416917D02*
X440848D01*
X432219Y409477D02*
X440685D01*
X429721Y417095D02*
X440667D01*
X432709Y409299D02*
X440487D01*
X429837Y417272D02*
X440467D01*
X433211Y409122D02*
X440266D01*
X429964Y417449D02*
X440244D01*
X433713Y408945D02*
X440018D01*
X430102Y417626D02*
X439993D01*
X434215Y408768D02*
X439735D01*
X430254Y417803D02*
X439705D01*
X434717Y408591D02*
X439403D01*
X430420Y417980D02*
X439368D01*
X435218Y408414D02*
X438998D01*
X430603Y418158D02*
X438954D01*
X430805Y418335D02*
X438456D01*
X435769Y408236D02*
X438455D01*
X431030Y418512D02*
X437954D01*
X431283Y418689D02*
X437452D01*
X431574Y418866D02*
X436950D01*
X431916Y419043D02*
X436448D01*
X432339Y419221D02*
X435947D01*
X432924Y419398D02*
X435361D01*
X398328Y401101D02*
X420176D01*
X398328Y401278D02*
X420176D01*
X398336Y400924D02*
X420168D01*
X398338Y401455D02*
X420166D01*
X398354Y400747D02*
X420150D01*
X398356Y401633D02*
X420147D01*
X398381Y400570D02*
X420122D01*
X398385Y401810D02*
X420119D01*
X398418Y400392D02*
X420086D01*
X398422Y401987D02*
X420082D01*
X398465Y400215D02*
X420039D01*
X398470Y402164D02*
X420034D01*
X398522Y400038D02*
X419982D01*
X398528Y402341D02*
X419976D01*
X398590Y399861D02*
X419914D01*
X398597Y402518D02*
X419907D01*
X398669Y399684D02*
X419835D01*
X398678Y402696D02*
X419826D01*
X398761Y399507D02*
X419743D01*
X398771Y402873D02*
X419733D01*
X398867Y399329D02*
X419637D01*
X398878Y403050D02*
X419626D01*
X398988Y399152D02*
X419516D01*
X399000Y403227D02*
X419504D01*
X399126Y398975D02*
X419378D01*
X399140Y403404D02*
X419364D01*
X399284Y398798D02*
X419220D01*
X399301Y403581D02*
X419203D01*
X399467Y398621D02*
X419037D01*
X399486Y403759D02*
X419018D01*
X399680Y398444D02*
X418823D01*
X399703Y403936D02*
X418801D01*
X399935Y398266D02*
X418569D01*
X399963Y404113D02*
X418541D01*
X400253Y398089D02*
X418251D01*
X400288Y404290D02*
X418216D01*
X400685Y397912D02*
X417819D01*
X400738Y404467D02*
X417766D01*
X398131Y464487D02*
X419979D01*
X398131Y464664D02*
X419979D01*
X398140Y464310D02*
X419971D01*
X398141Y464841D02*
X419969D01*
X398157Y464133D02*
X419953D01*
X398160Y465018D02*
X419951D01*
X398185Y463955D02*
X419926D01*
X398188Y465196D02*
X419922D01*
X398221Y463778D02*
X419889D01*
X398225Y465373D02*
X419885D01*
X398268Y463601D02*
X419842D01*
X398273Y465550D02*
X419837D01*
X398325Y463424D02*
X419785D01*
X398331Y465727D02*
X419779D01*
X398393Y463247D02*
X419717D01*
X398400Y465904D02*
X419710D01*
X398472Y463070D02*
X419638D01*
X398481Y466081D02*
X419630D01*
X398564Y462892D02*
X419546D01*
X398574Y466259D02*
X419536D01*
X398670Y462715D02*
X419440D01*
X398681Y466436D02*
X419429D01*
X398791Y462538D02*
X419319D01*
X398803Y466613D02*
X419307D01*
X398929Y462361D02*
X419181D01*
X398943Y466790D02*
X419167D01*
X399087Y462184D02*
X419023D01*
X399104Y466967D02*
X419006D01*
X399270Y462007D02*
X418840D01*
X399289Y467144D02*
X418821D01*
X399484Y461829D02*
X418627D01*
X399506Y467322D02*
X418604D01*
X399739Y461652D02*
X418372D01*
X399766Y467499D02*
X418344D01*
X400056Y461475D02*
X418055D01*
X400091Y467676D02*
X418019D01*
X400488Y461298D02*
X417622D01*
X400541Y467853D02*
X417569D01*
X446555Y405648D02*
X456988D01*
X446555Y405471D02*
X456988D01*
X446555Y405294D02*
X456988D01*
X446555Y405117D02*
X456988D01*
X446555Y404940D02*
X456988D01*
X446555Y404762D02*
X456988D01*
X446555Y404585D02*
X456988D01*
X446555Y404408D02*
X456988D01*
X446555Y404231D02*
X456988D01*
X446555Y404054D02*
X456988D01*
X446555Y403877D02*
X456988D01*
X446555Y403699D02*
X456988D01*
X446555Y403522D02*
X456988D01*
X446555Y403345D02*
X456988D01*
X446555Y403168D02*
X456988D01*
X446555Y402991D02*
X456988D01*
X446555Y402814D02*
X456988D01*
X446555Y402636D02*
X456988D01*
X446555Y402459D02*
X456988D01*
X446555Y402282D02*
X456988D01*
X446555Y402105D02*
X456988D01*
X446555Y401928D02*
X456988D01*
X446555Y401751D02*
X456988D01*
X446555Y401573D02*
X456988D01*
X446555Y401396D02*
X456988D01*
X446555Y401219D02*
X456988D01*
X446555Y401042D02*
X456988D01*
X446555Y400865D02*
X456988D01*
X446555Y400688D02*
X456988D01*
X446556Y400510D02*
X456988D01*
X446556Y405825D02*
X456987D01*
X446561Y400333D02*
X456982D01*
X446563Y406003D02*
X456980D01*
X446573Y400156D02*
X456970D01*
X446576Y406180D02*
X456967D01*
X446591Y399979D02*
X456952D01*
X446596Y406357D02*
X456948D01*
X446615Y399802D02*
X456928D01*
X446621Y406534D02*
X456922D01*
X446645Y399625D02*
X456898D01*
X446652Y406711D02*
X456891D01*
X446682Y399448D02*
X456861D01*
X446690Y406888D02*
X456853D01*
X446725Y399270D02*
X456818D01*
X446735Y407066D02*
X456809D01*
X446775Y399093D02*
X456769D01*
X446786Y407243D02*
X456758D01*
X446831Y398916D02*
X456712D01*
X446844Y407420D02*
X456700D01*
X446895Y398739D02*
X456648D01*
X446909Y407597D02*
X456634D01*
X446966Y398562D02*
X456577D01*
X446982Y407774D02*
X456562D01*
X447045Y398385D02*
X456499D01*
X447062Y407951D02*
X456481D01*
X447131Y398207D02*
X456412D01*
X447150Y408129D02*
X456393D01*
X447227Y398030D02*
X456317D01*
X447248Y408306D02*
X456296D01*
X447331Y397853D02*
X456212D01*
X447354Y408483D02*
X456189D01*
X447445Y397676D02*
X456098D01*
X447470Y408660D02*
X456073D01*
X447570Y397499D02*
X455973D01*
X447597Y408837D02*
X455946D01*
X447706Y397322D02*
X455837D01*
X447736Y409014D02*
X455807D01*
X447856Y397144D02*
X455688D01*
X447888Y409192D02*
X455655D01*
X448019Y396967D02*
X455524D01*
X448055Y409369D02*
X455489D01*
X448198Y396790D02*
X455345D01*
X448238Y409546D02*
X455305D01*
X448397Y396613D02*
X455147D01*
X448441Y409723D02*
X455103D01*
X448617Y396436D02*
X454926D01*
X448666Y409900D02*
X454877D01*
X448865Y396259D02*
X454678D01*
X448921Y410077D02*
X454622D01*
X449149Y396081D02*
X454395D01*
X449213Y410255D02*
X454330D01*
X449480Y395904D02*
X454063D01*
X449557Y410432D02*
X453986D01*
X449885Y395727D02*
X453658D01*
X449983Y410609D02*
X453560D01*
X450429Y395550D02*
X453115D01*
X450575Y410786D02*
X452968D01*
G54D35*
X409449Y370079D03*
X397047Y372441D03*
X405575Y373004D03*
X411339Y370079D03*
X398031Y368504D03*
X434858Y377831D03*
X434890Y381854D03*
X426555Y370083D03*
X410118Y398622D03*
X429921Y386220D03*
X427520D03*
X437008Y401969D03*
X448098Y398531D03*
X470866Y399213D03*
X395669Y405512D03*
X397791Y409823D03*
X414961Y408661D03*
X433465Y421654D03*
X431260Y411299D03*
X443307Y415748D03*
X449606Y421654D03*
X438661Y420669D03*
X395669Y424016D03*
Y441339D03*
X399606Y426378D03*
X409055Y424016D03*
Y441339D03*
X414094Y426142D03*
X422441Y424016D03*
Y441339D03*
X443307Y431496D03*
X448819Y425984D03*
X457874Y424409D03*
X457087Y435827D03*
X411811Y446457D03*
X402417Y443535D03*
X406850Y462913D03*
G54D44*
X420264Y372447D02*
X418594Y374118D01*
X422492Y378015*
X424162Y376345*
X420264Y372447*
X420264*
X418892Y374416D02*
X422233D01*
X420861Y376384D02*
X424122D01*
X419291Y373421D02*
Y374815D01*
X421260Y373443D02*
Y376784D01*
X423228Y375411D02*
Y377278D01*
G54D74*
X405878Y369488D02*
Y367520D01*
X403122*
Y369488*
X405878*
X403122Y367520D02*
X405878D01*
X403122Y369094D02*
X405878D01*
X403150Y367520D02*
Y369488D01*
X404724Y367520D02*
Y369488D01*
X398228Y373425D02*
Y371457D01*
X395472*
Y373425*
X398228*
X395472Y371457D02*
X398228D01*
X395472Y373031D02*
X398228D01*
X396850Y371457D02*
Y373425D01*
X400197Y369488D02*
Y367520D01*
X397441*
Y369488*
X400197*
X397441Y367520D02*
X400197D01*
X397441Y369094D02*
X400197D01*
X398425Y367520D02*
Y369488D01*
X400000Y367520D02*
Y369488D01*
X408268Y373622D02*
Y371654D01*
X405512*
Y373622*
X408268*
X405512Y371654D02*
X408268D01*
X405512Y373228D02*
X408268D01*
X406299Y371654D02*
Y373622D01*
X407874Y371654D02*
Y373622D01*
G54D97*
X423583Y386181D03*
G54D101*
X419567Y464567D02*
X419560Y464774D01*
X419539Y464980*
X419504Y465184*
X419455Y465385*
X419392Y465582*
X419316Y465775*
X419227Y465962*
X419126Y466142*
X419012Y466315*
X418887Y466480*
X418751Y466636*
X418605Y466782*
X418449Y466918*
X418284Y467044*
X418111Y467157*
X417930Y467259*
X417743Y467347*
X417551Y467423*
X417353Y467486*
X417152Y467535*
X416948Y467570*
X416742Y467591*
X416535Y467598*
X401575*
X401368Y467591*
X401162Y467570*
X400958Y467535*
X400757Y467486*
X400560Y467423*
X400367Y467347*
X400180Y467259*
X400000Y467157*
X399827Y467044*
X399662Y466918*
X399506Y466782*
X399359Y466636*
X399223Y466480*
X399098Y466315*
X398985Y466142*
X398883Y465962*
X398794Y465775*
X398718Y465582*
X398656Y465385*
X398607Y465184*
X398572Y464980*
X398550Y464774*
X398543Y464567*
X398550Y464360*
X398572Y464154*
X398607Y463950*
X398656Y463749*
X398718Y463552*
X398794Y463359*
X398883Y463172*
X398985Y462992*
X399098Y462819*
X399223Y462654*
X399359Y462498*
X399506Y462351*
X399662Y462215*
X399827Y462090*
X400000Y461977*
X400180Y461875*
X400367Y461786*
X400560Y461710*
X400757Y461648*
X400958Y461599*
X401162Y461564*
X401368Y461543*
X401368D02*
X401575Y461535D01*
X416535*
X416742Y461543*
X416742D02*
X416948Y461564D01*
X417152Y461599*
X417353Y461648*
X417551Y461710*
X417743Y461786*
X417930Y461875*
X418111Y461977*
X418284Y462090*
X418449Y462215*
X418605Y462351*
X418751Y462498*
X418887Y462654*
X419012Y462819*
X419126Y462992*
X419227Y463172*
X419316Y463359*
X419392Y463552*
X419455Y463749*
X419504Y463950*
X419539Y464154*
X419560Y464360*
X419567Y464567*
X398543D02*
X398543D01*
X398661Y463731D02*
Y465403D01*
X398780Y463397D02*
Y465737D01*
X398898Y463147D02*
Y465987D01*
X399016Y462944D02*
Y466189D01*
X399134Y462772D02*
Y466362D01*
X399252Y462621D02*
Y466513D01*
X399370Y462487D02*
Y466647D01*
X399488Y462369D02*
Y466765D01*
X399606Y462264D02*
Y466870D01*
X399724Y462168D02*
Y466966D01*
X399843Y462080D02*
Y467054D01*
X399961Y462002D02*
Y467131D01*
X400079Y461932D02*
Y467202D01*
X400197Y461867D02*
Y467267D01*
X400315Y461811D02*
Y467323D01*
X400433Y461760D02*
Y467373D01*
X400551Y461714D02*
Y467420D01*
X400669Y461676D02*
Y467458D01*
X400787Y461640D02*
Y467493D01*
X400906Y461612D02*
Y467522D01*
X401024Y461588D02*
Y467546D01*
X401142Y461567D02*
Y467567D01*
X401260Y461554D02*
Y467580D01*
X401378Y461542D02*
Y467592D01*
X401496Y461538D02*
Y467596D01*
X401614Y461535D02*
Y467598D01*
X401732Y461535D02*
Y467598D01*
X401850Y461535D02*
Y467598D01*
X401969Y461535D02*
Y467598D01*
X402087Y461535D02*
Y467598D01*
X402205Y461535D02*
Y467598D01*
X402323Y461535D02*
Y467598D01*
X402441Y461535D02*
Y467598D01*
X402559Y461535D02*
Y467598D01*
X402677Y461535D02*
Y467598D01*
X402795Y461535D02*
Y467598D01*
X402913Y461535D02*
Y467598D01*
X403031Y461535D02*
Y467598D01*
X403150Y461535D02*
Y467598D01*
X403268Y461535D02*
Y467598D01*
X403386Y461535D02*
Y467598D01*
X403504Y461535D02*
Y467598D01*
X403622Y461535D02*
Y467598D01*
X403740Y461535D02*
Y467598D01*
X403858Y461535D02*
Y467598D01*
X403976Y461535D02*
Y467598D01*
X404094Y461535D02*
Y467598D01*
X404213Y461535D02*
Y467598D01*
X404331Y461535D02*
Y467598D01*
X404449Y461535D02*
Y467598D01*
X404567Y461535D02*
Y467598D01*
X404685Y461535D02*
Y467598D01*
X404803Y461535D02*
Y467598D01*
X404921Y461535D02*
Y467598D01*
X405039Y461535D02*
Y467598D01*
X405157Y461535D02*
Y467598D01*
X405276Y461535D02*
Y467598D01*
X405394Y461535D02*
Y467598D01*
X405512Y461535D02*
Y467598D01*
X405630Y461535D02*
Y467598D01*
X405748Y461535D02*
Y467598D01*
X405866Y461535D02*
Y467598D01*
X405984Y461535D02*
Y467598D01*
X406102Y461535D02*
Y467598D01*
X406220Y461535D02*
Y467598D01*
X406339Y461535D02*
Y467598D01*
X406457Y461535D02*
Y467598D01*
X406575Y461535D02*
Y467598D01*
X406693Y461535D02*
Y467598D01*
X406811Y461535D02*
Y467598D01*
X406929Y461535D02*
Y467598D01*
X407047Y461535D02*
Y467598D01*
X407165Y461535D02*
Y467598D01*
X407283Y461535D02*
Y467598D01*
X407402Y461535D02*
Y467598D01*
X407520Y461535D02*
Y467598D01*
X407638Y461535D02*
Y467598D01*
X407756Y461535D02*
Y467598D01*
X407874Y461535D02*
Y467598D01*
X407992Y461535D02*
Y467598D01*
X408110Y461535D02*
Y467598D01*
X408228Y461535D02*
Y467598D01*
X408346Y461535D02*
Y467598D01*
X408465Y461535D02*
Y467598D01*
X408583Y461535D02*
Y467598D01*
X408701Y461535D02*
Y467598D01*
X408819Y461535D02*
Y467598D01*
X408937Y461535D02*
Y467598D01*
X409055Y461535D02*
Y467598D01*
X409173Y461535D02*
Y467598D01*
X409291Y461535D02*
Y467598D01*
X409409Y461535D02*
Y467598D01*
X409528Y461535D02*
Y467598D01*
X409646Y461535D02*
Y467598D01*
X409764Y461535D02*
Y467598D01*
X409882Y461535D02*
Y467598D01*
X410000Y461535D02*
Y467598D01*
X410118Y461535D02*
Y467598D01*
X410236Y461535D02*
Y467598D01*
X410354Y461535D02*
Y467598D01*
X410472Y461535D02*
Y467598D01*
X410591Y461535D02*
Y467598D01*
X410709Y461535D02*
Y467598D01*
X410827Y461535D02*
Y467598D01*
X410945Y461535D02*
Y467598D01*
X411063Y461535D02*
Y467598D01*
X411181Y461535D02*
Y467598D01*
X411299Y461535D02*
Y467598D01*
X411417Y461535D02*
Y467598D01*
X411535Y461535D02*
Y467598D01*
X411654Y461535D02*
Y467598D01*
X411772Y461535D02*
Y467598D01*
X411890Y461535D02*
Y467598D01*
X412008Y461535D02*
Y467598D01*
X412126Y461535D02*
Y467598D01*
X412244Y461535D02*
Y467598D01*
X412362Y461535D02*
Y467598D01*
X412480Y461535D02*
Y467598D01*
X412598Y461535D02*
Y467598D01*
X412717Y461535D02*
Y467598D01*
X412835Y461535D02*
Y467598D01*
X412953Y461535D02*
Y467598D01*
X413071Y461535D02*
Y467598D01*
X413189Y461535D02*
Y467598D01*
X413307Y461535D02*
Y467598D01*
X413425Y461535D02*
Y467598D01*
X413543Y461535D02*
Y467598D01*
X413661Y461535D02*
Y467598D01*
X413780Y461535D02*
Y467598D01*
X413898Y461535D02*
Y467598D01*
X414016Y461535D02*
Y467598D01*
X414134Y461535D02*
Y467598D01*
X414252Y461535D02*
Y467598D01*
X414370Y461535D02*
Y467598D01*
X414488Y461535D02*
Y467598D01*
X414606Y461535D02*
Y467598D01*
X414724Y461535D02*
Y467598D01*
X414843Y461535D02*
Y467598D01*
X414961Y461535D02*
Y467598D01*
X415079Y461535D02*
Y467598D01*
X415197Y461535D02*
Y467598D01*
X415315Y461535D02*
Y467598D01*
X415433Y461535D02*
Y467598D01*
X415551Y461535D02*
Y467598D01*
X415669Y461535D02*
Y467598D01*
X415787Y461535D02*
Y467598D01*
X415906Y461535D02*
Y467598D01*
X416024Y461535D02*
Y467598D01*
X416142Y461535D02*
Y467598D01*
X416260Y461535D02*
Y467598D01*
X416378Y461535D02*
Y467598D01*
X416496Y461535D02*
Y467598D01*
X416614Y461538D02*
Y467596D01*
X416732Y461542D02*
Y467592D01*
X416850Y461554D02*
Y467580D01*
X416969Y461567D02*
Y467567D01*
X417087Y461588D02*
Y467546D01*
X417205Y461612D02*
Y467522D01*
X417323Y461640D02*
Y467493D01*
X417441Y461676D02*
Y467458D01*
X417559Y461714D02*
Y467420D01*
X417677Y461760D02*
Y467373D01*
X417795Y461811D02*
Y467323D01*
X417913Y461867D02*
Y467267D01*
X418031Y461932D02*
Y467202D01*
X418150Y462002D02*
Y467131D01*
X418268Y462080D02*
Y467054D01*
X418386Y462168D02*
Y466966D01*
X418504Y462264D02*
Y466870D01*
X418622Y462369D02*
Y466765D01*
X418740Y462487D02*
Y466647D01*
X418858Y462621D02*
Y466513D01*
X418976Y462772D02*
Y466362D01*
X419094Y462944D02*
Y466189D01*
X419213Y463147D02*
Y465987D01*
X419331Y463397D02*
Y465737D01*
X419449Y463731D02*
Y465403D01*
X419764Y401181D02*
X419757Y401388D01*
X419736Y401594*
X419700Y401798*
X419651Y401999*
X419589Y402196*
X419513Y402389*
X419424Y402576*
X419322Y402756*
X419209Y402929*
X419084Y403094*
X418948Y403250*
X418801Y403397*
X418645Y403533*
X418480Y403658*
X418307Y403771*
X418127Y403873*
X417940Y403962*
X417747Y404038*
X417550Y404100*
X417349Y404149*
X417145Y404184*
X416939Y404206*
X416732Y404213*
X401772*
X401565Y404206*
X401359Y404184*
X401155Y404149*
X400954Y404100*
X400756Y404038*
X400564Y403962*
X400377Y403873*
X400197Y403771*
X400023Y403658*
X399859Y403533*
X399702Y403397*
X399556Y403250*
X399420Y403094*
X399295Y402929*
X399181Y402756*
X399080Y402576*
X398991Y402389*
X398915Y402196*
X398853Y401999*
X398804Y401798*
X398768Y401594*
X398747Y401388*
X398740Y401181*
X398747Y400974*
X398768Y400768*
X398804Y400564*
X398853Y400363*
X398915Y400166*
X398991Y399973*
X399080Y399786*
X399181Y399606*
X399295Y399433*
X399420Y399268*
X399556Y399112*
X399702Y398966*
X399859Y398830*
X400023Y398704*
X400197Y398591*
X400377Y398489*
X400564Y398401*
X400756Y398325*
X400954Y398262*
X401155Y398213*
X401359Y398178*
X401565Y398157*
X401772Y398150*
X416732*
X416939Y398157*
X417145Y398178*
X417349Y398213*
X417550Y398262*
X417747Y398325*
X417940Y398401*
X418127Y398489*
X418307Y398591*
X418480Y398704*
X418645Y398830*
X418801Y398966*
X418948Y399112*
X419084Y399268*
X419209Y399433*
X419322Y399606*
X419424Y399786*
X419513Y399973*
X419589Y400166*
X419651Y400363*
X419700Y400564*
X419736Y400768*
X419757Y400974*
X419764Y401181*
X398740D02*
X398740D01*
X398858Y400345D02*
Y402017D01*
X398976Y400011D02*
Y402351D01*
X399094Y399761D02*
Y402601D01*
X399213Y399559D02*
Y402804D01*
X399331Y399386D02*
Y402976D01*
X399449Y399235D02*
Y403127D01*
X399567Y399101D02*
Y403261D01*
X399685Y398983D02*
Y403379D01*
X399803Y398878D02*
Y403484D01*
X399921Y398782D02*
Y403580D01*
X400039Y398694D02*
Y403668D01*
X400157Y398617D02*
Y403746D01*
X400276Y398546D02*
Y403816D01*
X400394Y398482D02*
Y403881D01*
X400512Y398425D02*
Y403937D01*
X400630Y398375D02*
Y403988D01*
X400748Y398328D02*
Y404034D01*
X400866Y398290D02*
Y404072D01*
X400984Y398255D02*
Y404108D01*
X401102Y398226D02*
Y404136D01*
X401220Y398202D02*
Y404161D01*
X401339Y398181D02*
Y404181D01*
X401457Y398168D02*
Y404194D01*
X401575Y398156D02*
Y404206D01*
X401693Y398152D02*
Y404210D01*
X401811Y398150D02*
Y404213D01*
X401929Y398150D02*
Y404213D01*
X402047Y398150D02*
Y404213D01*
X402165Y398150D02*
Y404213D01*
X402283Y398150D02*
Y404213D01*
X402402Y398150D02*
Y404213D01*
X402520Y398150D02*
Y404213D01*
X402638Y398150D02*
Y404213D01*
X402756Y398150D02*
Y404213D01*
X402874Y398150D02*
Y404213D01*
X402992Y398150D02*
Y404213D01*
X403110Y398150D02*
Y404213D01*
X403228Y398150D02*
Y404213D01*
X403346Y398150D02*
Y404213D01*
X403465Y398150D02*
Y404213D01*
X403583Y398150D02*
Y404213D01*
X403701Y398150D02*
Y404213D01*
X403819Y398150D02*
Y404213D01*
X403937Y398150D02*
Y404213D01*
X404055Y398150D02*
Y404213D01*
X404173Y398150D02*
Y404213D01*
X404291Y398150D02*
Y404213D01*
X404409Y398150D02*
Y404213D01*
X404528Y398150D02*
Y404213D01*
X404646Y398150D02*
Y404213D01*
X404764Y398150D02*
Y404213D01*
X404882Y398150D02*
Y404213D01*
X405000Y398150D02*
Y404213D01*
X405118Y398150D02*
Y404213D01*
X405236Y398150D02*
Y404213D01*
X405354Y398150D02*
Y404213D01*
X405472Y398150D02*
Y404213D01*
X405591Y398150D02*
Y404213D01*
X405709Y398150D02*
Y404213D01*
X405827Y398150D02*
Y404213D01*
X405945Y398150D02*
Y404213D01*
X406063Y398150D02*
Y404213D01*
X406181Y398150D02*
Y404213D01*
X406299Y398150D02*
Y404213D01*
X406417Y398150D02*
Y404213D01*
X406535Y398150D02*
Y404213D01*
X406654Y398150D02*
Y404213D01*
X406772Y398150D02*
Y404213D01*
X406890Y398150D02*
Y404213D01*
X407008Y398150D02*
Y404213D01*
X407126Y398150D02*
Y404213D01*
X407244Y398150D02*
Y404213D01*
X407362Y398150D02*
Y404213D01*
X407480Y398150D02*
Y404213D01*
X407598Y398150D02*
Y404213D01*
X407717Y398150D02*
Y404213D01*
X407835Y398150D02*
Y404213D01*
X407953Y398150D02*
Y404213D01*
X408071Y398150D02*
Y404213D01*
X408189Y398150D02*
Y404213D01*
X408307Y398150D02*
Y404213D01*
X408425Y398150D02*
Y404213D01*
X408543Y398150D02*
Y404213D01*
X408661Y398150D02*
Y404213D01*
X408780Y398150D02*
Y404213D01*
X408898Y398150D02*
Y404213D01*
X409016Y398150D02*
Y404213D01*
X409134Y398150D02*
Y404213D01*
X409252Y398150D02*
Y404213D01*
X409370Y398150D02*
Y404213D01*
X409488Y398150D02*
Y404213D01*
X409606Y398150D02*
Y404213D01*
X409724Y398150D02*
Y404213D01*
X409843Y398150D02*
Y404213D01*
X409961Y398150D02*
Y404213D01*
X410079Y398150D02*
Y404213D01*
X410197Y398150D02*
Y404213D01*
X410315Y398150D02*
Y404213D01*
X410433Y398150D02*
Y404213D01*
X410551Y398150D02*
Y404213D01*
X410669Y398150D02*
Y404213D01*
X410787Y398150D02*
Y404213D01*
X410906Y398150D02*
Y404213D01*
X411024Y398150D02*
Y404213D01*
X411142Y398150D02*
Y404213D01*
X411260Y398150D02*
Y404213D01*
X411378Y398150D02*
Y404213D01*
X411496Y398150D02*
Y404213D01*
X411614Y398150D02*
Y404213D01*
X411732Y398150D02*
Y404213D01*
X411850Y398150D02*
Y404213D01*
X411969Y398150D02*
Y404213D01*
X412087Y398150D02*
Y404213D01*
X412205Y398150D02*
Y404213D01*
X412323Y398150D02*
Y404213D01*
X412441Y398150D02*
Y404213D01*
X412559Y398150D02*
Y404213D01*
X412677Y398150D02*
Y404213D01*
X412795Y398150D02*
Y404213D01*
X412913Y398150D02*
Y404213D01*
X413031Y398150D02*
Y404213D01*
X413150Y398150D02*
Y404213D01*
X413268Y398150D02*
Y404213D01*
X413386Y398150D02*
Y404213D01*
X413504Y398150D02*
Y404213D01*
X413622Y398150D02*
Y404213D01*
X413740Y398150D02*
Y404213D01*
X413858Y398150D02*
Y404213D01*
X413976Y398150D02*
Y404213D01*
X414094Y398150D02*
Y404213D01*
X414213Y398150D02*
Y404213D01*
X414331Y398150D02*
Y404213D01*
X414449Y398150D02*
Y404213D01*
X414567Y398150D02*
Y404213D01*
X414685Y398150D02*
Y404213D01*
X414803Y398150D02*
Y404213D01*
X414921Y398150D02*
Y404213D01*
X415039Y398150D02*
Y404213D01*
X415157Y398150D02*
Y404213D01*
X415276Y398150D02*
Y404213D01*
X415394Y398150D02*
Y404213D01*
X415512Y398150D02*
Y404213D01*
X415630Y398150D02*
Y404213D01*
X415748Y398150D02*
Y404213D01*
X415866Y398150D02*
Y404213D01*
X415984Y398150D02*
Y404213D01*
X416102Y398150D02*
Y404213D01*
X416220Y398150D02*
Y404213D01*
X416339Y398150D02*
Y404213D01*
X416457Y398150D02*
Y404213D01*
X416575Y398150D02*
Y404213D01*
X416693Y398150D02*
Y404213D01*
X416811Y398152D02*
Y404210D01*
X416929Y398156D02*
Y404206D01*
X417047Y398168D02*
Y404194D01*
X417165Y398181D02*
Y404181D01*
X417283Y398202D02*
Y404161D01*
X417402Y398226D02*
Y404136D01*
X417520Y398255D02*
Y404108D01*
X417638Y398290D02*
Y404072D01*
X417756Y398328D02*
Y404034D01*
X417874Y398375D02*
Y403988D01*
X417992Y398425D02*
Y403937D01*
X418110Y398482D02*
Y403881D01*
X418228Y398546D02*
Y403816D01*
X418346Y398617D02*
Y403746D01*
X418465Y398694D02*
Y403668D01*
X418583Y398782D02*
Y403580D01*
X418701Y398878D02*
Y403484D01*
X418819Y398983D02*
Y403379D01*
X418937Y399101D02*
Y403261D01*
X419055Y399235D02*
Y403127D01*
X419173Y399386D02*
Y402976D01*
X419291Y399559D02*
Y402804D01*
X419409Y399761D02*
Y402601D01*
X419528Y400011D02*
Y402351D01*
X419646Y400345D02*
Y402017D01*
G54D105*
X457634Y405512D02*
G03X445823I-5906J-0D01*
G01X445028Y404546D02*
G03X445823Y405512I-190J966D01*
G01X444870Y404528D02*
G03X445027Y404546I0J683D01*
G01X444870Y404528D02*
X443660D01*
X443660D02*
X443053D01*
X442068Y405512D02*
G03X443053Y404528I985J-0D01*
G01X447058Y417649D02*
G03X442068Y405512I12265J-12137D01*
G01X447768Y418327D02*
G03X447056Y417647I-361J-335D01*
G01X459323Y422767D02*
G03X447778Y418335I0J-17255D01*
G01X459323Y422767D02*
Y437224D01*
Y437225D02*
G03X459026Y437933I-1005J-6D01*
X458322Y438208I-680J-702*
G01X458296Y438207D02*
G03X436806Y429240I1027J-32695D01*
G01X436126Y428574D02*
G03X436829Y429262I349J347D01*
G01X436112Y428561D02*
G03X426612Y405512I23211J-23049D01*
G01X425628Y404528D02*
G03X426612Y405512I-0J984D01*
G01X425628Y404528D02*
X425564D01*
X424880*
X423425*
X422441Y405512D02*
G03X423425Y404528I984J-0D01*
G01X422521Y405907D02*
G03X422441Y405511I882J-384D01*
G01X422743Y406223D02*
G03X422521Y405907I710J-735D01*
G01X423055Y406433D02*
G03X422743Y406223I399J-932D01*
G01X423425Y406504D02*
G03X423056Y406433I-11J-938D01*
G01X423425Y406504D02*
X424409D01*
Y432202*
X424055Y432353D02*
G03X424410Y432202I349J325D01*
G01X423917Y432698D02*
G03X424055Y432353I474J-10D01*
G01X424063Y433050D02*
G03X423917Y432698I335J-345D01*
G01X424409Y433194D02*
G03X424063Y433049I-7J-471D01*
G01X424409Y433194D02*
Y459090D01*
Y469917*
G03X423425Y470901I-984J-0*
G01X394685*
G03X393701Y469917I0J-984*
G01Y465488*
Y464503D02*
G03Y465488I-0J492D01*
G01Y464503D02*
Y459090D01*
Y433194*
X394055Y433042D02*
G03X393701Y433194I-349J-325D01*
G01X394193Y432698D02*
G03X394055Y433042I-474J10D01*
G01X394047Y432345D02*
G03X394193Y432697I-334J345D01*
G01X393700Y432202D02*
G03X394047Y432345I9J470D01*
G01X393701Y432202D02*
Y405512D01*
Y400098*
Y399114D02*
G03Y400098I-0J492D01*
G01Y399114D02*
Y398425D01*
G03X394685Y397441I984J0*
G01X397441*
X398425Y396457D02*
G03X397441Y397441I-984J-0D01*
G01X398425Y396457D02*
Y396063D01*
Y394011*
Y383184*
G03X399409Y382200I984J0*
G01X401575*
Y374326D02*
G03Y382200I-0J3937D01*
G01Y374326D02*
X395472D01*
G03X394488Y373342I0J-984*
G01Y367042*
G03X395472Y366058I984J0*
G01X426508*
G03X427000Y366190I-0J984*
G01X436122Y371457*
G03X436614Y372309I-492J852*
G01Y384217*
G03X436122Y385069I-984J-0*
G01X427000Y390336*
G03X426508Y390468I-492J-853*
G01X424016*
X420866Y393617D02*
G03X424016Y390468I3150J0D01*
G01X420866Y393617D02*
Y394011D01*
Y396063*
Y396457*
X422835D02*
G03X420866I-985J-0D01*
G01X422835D02*
Y394685D01*
G03X423819Y393701I984J0*
G01X424880*
X425564*
X434303*
X435287D02*
G03X434303I-492J-0D01*
G01X435287D02*
X443660D01*
X443660D02*
X445028D01*
X458429*
X459797*
X468169*
X469154D02*
G03X468169I-493J-0D01*
G01X469154D02*
X476087D01*
G03X477072Y394685I0J984*
G01Y403543*
G03X476087Y404528I-985J0*
G01X459797*
X458586*
X458429Y404546D02*
G03X458586Y404528I157J666D01*
G01X457634Y405512D02*
G03X458428Y404546I984J-0D01*
G74*
G01X0Y0D02*
M02*
