*
*
G04 PADS 9.5 Build Number: 522968 generated Gerber (RS-274-X) file*
G04 PC Version=2.1*
*
%IN "BCB.pcb"*%
*
%MOIN*%
*
%FSLAX35Y35*%
*
*
*
*
G04 PC Standard Apertures*
*
*
G04 Thermal Relief Aperture macro.*
%AMTER*
1,1,$1,0,0*
1,0,$1-$2,0,0*
21,0,$3,$4,0,0,45*
21,0,$3,$4,0,0,135*
%
*
*
G04 Annular Aperture macro.*
%AMANN*
1,1,$1,0,0*
1,0,$2,0,0*
%
*
*
G04 Odd Aperture macro.*
%AMODD*
1,1,$1,0,0*
1,0,$1-0.005,0,0*
%
*
*
G04 PC Custom Aperture Macros*
*
*
*
*
*
*
G04 PC Aperture Table*
*
%ADD010C,0.001*%
%ADD038C,0.01*%
%ADD068C,0.01181*%
*
*
*
*
G04 PC Circuitry*
G04 Layer Name BCB.pcb - circuitry*
%LPD*%
*
*
G04 PC Custom Flashes*
G04 Layer Name BCB.pcb - flashes*
%LPD*%
*
*
G04 PC Circuitry*
G04 Layer Name BCB.pcb - circuitry*
%LPD*%
*
G54D10*
G01X1915011Y1447500D02*
X1915014D01*
X1848876Y1730965D02*
X1848878D01*
X1807557Y1655892D02*
X1807560D01*
X2004408Y1667865D02*
X2004410D01*
G54D38*
X2063463Y1698157D02*
Y1691594D01*
Y1698157D02*
X2065508D01*
X2066190Y1697844*
X2066418Y1697532*
X2066645Y1696907*
Y1696282*
X2066418Y1695657*
X2066190Y1695344*
X2065508Y1695032*
X2063463D02*
X2065508D01*
X2066190Y1694719*
X2066418Y1694407*
X2066645Y1693782*
Y1692844*
X2066418Y1692219*
X2066190Y1691907*
X2065508Y1691594*
X2063463*
X2070054Y1698157D02*
X2069599Y1697844D01*
X2069145Y1697219*
X2068918Y1696594*
X2068690Y1695657*
Y1694094*
X2068918Y1693157*
X2069145Y1692532*
X2069599Y1691907*
X2070054Y1691594*
X2070963*
X2071418Y1691907*
X2071872Y1692532*
X2072099Y1693157*
X2072327Y1694094*
Y1695657*
X2072099Y1696594*
X2071872Y1697219*
X2071418Y1697844*
X2070963Y1698157*
X2070054*
X2076190D02*
X2074372Y1691594D01*
X2076190Y1698157D02*
X2078008Y1691594D01*
X2075054Y1693782D02*
X2077327D01*
X2080054Y1698157D02*
Y1691594D01*
Y1698157D02*
X2082099D01*
X2082781Y1697844*
X2083008Y1697532*
X2083236Y1696907*
Y1696282*
X2083008Y1695657*
X2082781Y1695344*
X2082099Y1695032*
X2080054*
X2081645D02*
X2083236Y1691594D01*
X2085281Y1698157D02*
Y1691594D01*
Y1698157D02*
X2086872D01*
X2087554Y1697844*
X2088008Y1697219*
X2088236Y1696594*
X2088463Y1695657*
Y1694094*
X2088236Y1693157*
X2088008Y1692532*
X2087554Y1691907*
X2086872Y1691594*
X2085281*
X2097327Y1698157D02*
Y1691594D01*
X2095736Y1698157D02*
X2098918D01*
X2100963D02*
Y1691594D01*
X2104145Y1698157D02*
Y1691594D01*
X2100963Y1695032D02*
X2104145D01*
X2106190Y1698157D02*
Y1691594D01*
X2111645Y1696594D02*
X2111418Y1697219D01*
X2110963Y1697844*
X2110508Y1698157*
X2109599*
X2109145Y1697844*
X2108690Y1697219*
X2108463Y1696594*
X2108236Y1695657*
Y1694094*
X2108463Y1693157*
X2108690Y1692532*
X2109145Y1691907*
X2109599Y1691594*
X2110508*
X2110963Y1691907*
X2111418Y1692532*
X2111645Y1693157*
X2113690Y1698157D02*
Y1691594D01*
X2116872Y1698157D02*
X2113690Y1693782D01*
X2114827Y1695344D02*
X2116872Y1691594D01*
X2118918Y1698157D02*
Y1691594D01*
Y1698157D02*
X2122099Y1691594D01*
Y1698157D02*
Y1691594D01*
X2124145Y1698157D02*
Y1691594D01*
Y1698157D02*
X2127099D01*
X2124145Y1695032D02*
X2125963D01*
X2124145Y1691594D02*
X2127099D01*
X2132327Y1697219D02*
X2131872Y1697844D01*
X2131190Y1698157*
X2130281*
X2129599Y1697844*
X2129145Y1697219*
Y1696594*
X2129372Y1695969*
X2129599Y1695657*
X2130054Y1695344*
X2131418Y1694719*
X2131872Y1694407*
X2132099Y1694094*
X2132327Y1693469*
Y1692532*
X2131872Y1691907*
X2131190Y1691594*
X2130281*
X2129599Y1691907*
X2129145Y1692532*
X2137554Y1697219D02*
X2137099Y1697844D01*
X2136418Y1698157*
X2135508*
X2134827Y1697844*
X2134372Y1697219*
Y1696594*
X2134599Y1695969*
X2134827Y1695657*
X2135281Y1695344*
X2136645Y1694719*
X2137099Y1694407*
X2137327Y1694094*
X2137554Y1693469*
Y1692532*
X2137099Y1691907*
X2136418Y1691594*
X2135508*
X2134827Y1691907*
X2134372Y1692532*
X2144827Y1696907D02*
X2145281Y1697219D01*
X2145963Y1698157*
Y1691594*
X2148236Y1692219D02*
X2148008Y1691907D01*
X2148236Y1691594*
X2148463Y1691907*
X2148236Y1692219*
X2153236Y1697219D02*
X2153008Y1697844D01*
X2152327Y1698157*
X2151872*
X2151190Y1697844*
X2150736Y1696907*
X2150508Y1695344*
Y1693782*
X2150736Y1692532*
X2151190Y1691907*
X2151872Y1691594*
X2152099*
X2152781Y1691907*
X2153236Y1692532*
X2153463Y1693469*
Y1693782*
X2153236Y1694719*
X2152781Y1695344*
X2152099Y1695657*
X2151872*
X2151190Y1695344*
X2150736Y1694719*
X2150508Y1693782*
X2155508Y1695969D02*
Y1691594D01*
Y1694719D02*
X2156190Y1695657D01*
X2156645Y1695969*
X2157327*
X2157781Y1695657*
X2158008Y1694719*
Y1691594*
Y1694719D02*
X2158690Y1695657D01*
X2159145Y1695969*
X2159827*
X2160281Y1695657*
X2160508Y1694719*
Y1691594*
X2162554Y1695969D02*
Y1691594D01*
Y1694719D02*
X2163236Y1695657D01*
X2163690Y1695969*
X2164372*
X2164827Y1695657*
X2165054Y1694719*
Y1691594*
Y1694719D02*
X2165736Y1695657D01*
X2166190Y1695969*
X2166872*
X2167327Y1695657*
X2167554Y1694719*
Y1691594*
X2066872Y1680846D02*
X2066645Y1681471D01*
X2066190Y1682096*
X2065736Y1682409*
X2064827*
X2064372Y1682096*
X2063918Y1681471*
X2063690Y1680846*
X2063463Y1679909*
Y1678346*
X2063690Y1677409*
X2063918Y1676784*
X2064372Y1676159*
X2064827Y1675846*
X2065736*
X2066190Y1676159*
X2066645Y1676784*
X2066872Y1677409*
X2070281Y1682409D02*
X2069827Y1682096D01*
X2069372Y1681471*
X2069145Y1680846*
X2068918Y1679909*
Y1678346*
X2069145Y1677409*
X2069372Y1676784*
X2069827Y1676159*
X2070281Y1675846*
X2071190*
X2071645Y1676159*
X2072099Y1676784*
X2072327Y1677409*
X2072554Y1678346*
Y1679909*
X2072327Y1680846*
X2072099Y1681471*
X2071645Y1682096*
X2071190Y1682409*
X2070281*
X2074599D02*
Y1675846D01*
Y1682409D02*
X2076645D01*
X2077327Y1682096*
X2077554Y1681784*
X2077781Y1681159*
Y1680221*
X2077554Y1679596*
X2077327Y1679284*
X2076645Y1678971*
X2074599*
X2079827Y1682409D02*
Y1675846D01*
Y1682409D02*
X2081872D01*
X2082554Y1682096*
X2082781Y1681784*
X2083008Y1681159*
Y1680221*
X2082781Y1679596*
X2082554Y1679284*
X2081872Y1678971*
X2079827*
X2085054Y1682409D02*
Y1675846D01*
Y1682409D02*
X2088008D01*
X2085054Y1679284D02*
X2086872D01*
X2085054Y1675846D02*
X2088008D01*
X2090054Y1682409D02*
Y1675846D01*
Y1682409D02*
X2092099D01*
X2092781Y1682096*
X2093008Y1681784*
X2093236Y1681159*
Y1680534*
X2093008Y1679909*
X2092781Y1679596*
X2092099Y1679284*
X2090054*
X2091645D02*
X2093236Y1675846D01*
X2102099Y1682409D02*
Y1675846D01*
X2100508Y1682409D02*
X2103690D01*
X2105736D02*
Y1675846D01*
X2108918Y1682409D02*
Y1675846D01*
X2105736Y1679284D02*
X2108918D01*
X2110963Y1682409D02*
Y1675846D01*
X2116418Y1680846D02*
X2116190Y1681471D01*
X2115736Y1682096*
X2115281Y1682409*
X2114372*
X2113918Y1682096*
X2113463Y1681471*
X2113236Y1680846*
X2113008Y1679909*
Y1678346*
X2113236Y1677409*
X2113463Y1676784*
X2113918Y1676159*
X2114372Y1675846*
X2115281*
X2115736Y1676159*
X2116190Y1676784*
X2116418Y1677409*
X2118463Y1682409D02*
Y1675846D01*
X2121645Y1682409D02*
X2118463Y1678034D01*
X2119599Y1679596D02*
X2121645Y1675846D01*
X2123690Y1682409D02*
Y1675846D01*
Y1682409D02*
X2126872Y1675846D01*
Y1682409D02*
Y1675846D01*
X2128918Y1682409D02*
Y1675846D01*
Y1682409D02*
X2131872D01*
X2128918Y1679284D02*
X2130736D01*
X2128918Y1675846D02*
X2131872D01*
X2137099Y1681471D02*
X2136645Y1682096D01*
X2135963Y1682409*
X2135054*
X2134372Y1682096*
X2133918Y1681471*
Y1680846*
X2134145Y1680221*
X2134372Y1679909*
X2134827Y1679596*
X2136190Y1678971*
X2136645Y1678659*
X2136872Y1678346*
X2137099Y1677721*
Y1676784*
X2136645Y1676159*
X2135963Y1675846*
X2135054*
X2134372Y1676159*
X2133918Y1676784*
X2142327Y1681471D02*
X2141872Y1682096D01*
X2141190Y1682409*
X2140281*
X2139599Y1682096*
X2139145Y1681471*
Y1680846*
X2139372Y1680221*
X2139599Y1679909*
X2140054Y1679596*
X2141418Y1678971*
X2141872Y1678659*
X2142099Y1678346*
X2142327Y1677721*
Y1676784*
X2141872Y1676159*
X2141190Y1675846*
X2140281*
X2139599Y1676159*
X2139145Y1676784*
X2149599Y1681159D02*
X2150054Y1681471D01*
X2150736Y1682409*
Y1675846*
X2153918Y1682409D02*
X2153236Y1682096D01*
X2153008Y1681471*
Y1680846*
X2153236Y1680221*
X2153690Y1679909*
X2154599Y1679596*
X2155281Y1679284*
X2155736Y1678659*
X2155963Y1678034*
Y1677096*
X2155736Y1676471*
X2155508Y1676159*
X2154827Y1675846*
X2153918*
X2153236Y1676159*
X2153008Y1676471*
X2152781Y1677096*
Y1678034*
X2153008Y1678659*
X2153463Y1679284*
X2154145Y1679596*
X2155054Y1679909*
X2155508Y1680221*
X2155736Y1680846*
Y1681471*
X2155508Y1682096*
X2154827Y1682409*
X2153918*
X2158008Y1680221D02*
Y1677096D01*
X2158236Y1676159*
X2158690Y1675846*
X2159372*
X2159827Y1676159*
X2160508Y1677096*
Y1680221D02*
Y1675846D01*
X2162554Y1680221D02*
Y1675846D01*
Y1678971D02*
X2163236Y1679909D01*
X2163690Y1680221*
X2164372*
X2164827Y1679909*
X2165054Y1678971*
Y1675846*
Y1678971D02*
X2165736Y1679909D01*
X2166190Y1680221*
X2166872*
X2167327Y1679909*
X2167554Y1678971*
Y1675846*
X2063463Y1650913D02*
Y1644350D01*
Y1650913D02*
X2065054D01*
X2065736Y1650600*
X2066190Y1649975*
X2066418Y1649350*
X2066645Y1648413*
Y1646850*
X2066418Y1645913*
X2066190Y1645288*
X2065736Y1644663*
X2065054Y1644350*
X2063463*
X2068690Y1650913D02*
Y1644350D01*
Y1650913D02*
X2070736D01*
X2071418Y1650600*
X2071645Y1650288*
X2071872Y1649663*
Y1649038*
X2071645Y1648413*
X2071418Y1648100*
X2070736Y1647788*
X2068690*
X2070281D02*
X2071872Y1644350D01*
X2073918Y1650913D02*
Y1644350D01*
X2075963Y1650913D02*
Y1644350D01*
X2078690*
X2080736Y1650913D02*
Y1644350D01*
X2083463*
X2090736Y1650913D02*
Y1644350D01*
Y1650913D02*
X2092327D01*
X2093008Y1650600*
X2093463Y1649975*
X2093690Y1649350*
X2093918Y1648413*
Y1646850*
X2093690Y1645913*
X2093463Y1645288*
X2093008Y1644663*
X2092327Y1644350*
X2090736*
X2095963Y1650913D02*
Y1644350D01*
Y1650913D02*
X2098008D01*
X2098690Y1650600*
X2098918Y1650288*
X2099145Y1649663*
Y1649038*
X2098918Y1648413*
X2098690Y1648100*
X2098008Y1647788*
X2095963*
X2097554D02*
X2099145Y1644350D01*
X2103008Y1650913D02*
X2101190Y1644350D01*
X2103008Y1650913D02*
X2104827Y1644350D01*
X2101872Y1646538D02*
X2104145D01*
X2106872Y1650913D02*
X2108008Y1644350D01*
X2109145Y1650913D02*
X2108008Y1644350D01*
X2109145Y1650913D02*
X2110281Y1644350D01*
X2111418Y1650913D02*
X2110281Y1644350D01*
X2113463Y1650913D02*
Y1644350D01*
X2115508Y1650913D02*
Y1644350D01*
Y1650913D02*
X2118690Y1644350D01*
Y1650913D02*
Y1644350D01*
X2124145Y1649350D02*
X2123918Y1649975D01*
X2123463Y1650600*
X2123008Y1650913*
X2122099*
X2121645Y1650600*
X2121190Y1649975*
X2120963Y1649350*
X2120736Y1648413*
Y1646850*
X2120963Y1645913*
X2121190Y1645288*
X2121645Y1644663*
X2122099Y1644350*
X2123008*
X2123463Y1644663*
X2123918Y1645288*
X2124145Y1645913*
Y1646850*
X2123008D02*
X2124145D01*
X2066872Y1633602D02*
X2066645Y1634227D01*
X2066190Y1634852*
X2065736Y1635165*
X2064827*
X2064372Y1634852*
X2063918Y1634227*
X2063690Y1633602*
X2063463Y1632665*
Y1631102*
X2063690Y1630165*
X2063918Y1629540*
X2064372Y1628915*
X2064827Y1628602*
X2065736*
X2066190Y1628915*
X2066645Y1629540*
X2066872Y1630165*
X2070281Y1635165D02*
X2069827Y1634852D01*
X2069372Y1634227*
X2069145Y1633602*
X2068918Y1632665*
Y1631102*
X2069145Y1630165*
X2069372Y1629540*
X2069827Y1628915*
X2070281Y1628602*
X2071190*
X2071645Y1628915*
X2072099Y1629540*
X2072327Y1630165*
X2072554Y1631102*
Y1632665*
X2072327Y1633602*
X2072099Y1634227*
X2071645Y1634852*
X2071190Y1635165*
X2070281*
X2074599D02*
Y1628602D01*
Y1635165D02*
X2076645D01*
X2077327Y1634852*
X2077554Y1634540*
X2077781Y1633915*
Y1632977*
X2077554Y1632352*
X2077327Y1632040*
X2076645Y1631727*
X2074599*
X2079827Y1635165D02*
Y1628602D01*
Y1635165D02*
X2081872D01*
X2082554Y1634852*
X2082781Y1634540*
X2083008Y1633915*
Y1632977*
X2082781Y1632352*
X2082554Y1632040*
X2081872Y1631727*
X2079827*
X2085054Y1635165D02*
Y1628602D01*
Y1635165D02*
X2088008D01*
X2085054Y1632040D02*
X2086872D01*
X2085054Y1628602D02*
X2088008D01*
X2090054Y1635165D02*
Y1628602D01*
Y1635165D02*
X2092099D01*
X2092781Y1634852*
X2093008Y1634540*
X2093236Y1633915*
Y1633290*
X2093008Y1632665*
X2092781Y1632352*
X2092099Y1632040*
X2090054*
X2091645D02*
X2093236Y1628602D01*
X2103918Y1633602D02*
X2103690Y1634227D01*
X2103236Y1634852*
X2102781Y1635165*
X2101872*
X2101418Y1634852*
X2100963Y1634227*
X2100736Y1633602*
X2100508Y1632665*
Y1631102*
X2100736Y1630165*
X2100963Y1629540*
X2101418Y1628915*
X2101872Y1628602*
X2102781*
X2103236Y1628915*
X2103690Y1629540*
X2103918Y1630165*
X2107327Y1635165D02*
X2106872Y1634852D01*
X2106418Y1634227*
X2106190Y1633602*
X2105963Y1632665*
Y1631102*
X2106190Y1630165*
X2106418Y1629540*
X2106872Y1628915*
X2107327Y1628602*
X2108236*
X2108690Y1628915*
X2109145Y1629540*
X2109372Y1630165*
X2109599Y1631102*
Y1632665*
X2109372Y1633602*
X2109145Y1634227*
X2108690Y1634852*
X2108236Y1635165*
X2107327*
X2111645D02*
Y1628602D01*
Y1635165D02*
X2113463Y1628602D01*
X2115281Y1635165D02*
X2113463Y1628602D01*
X2115281Y1635165D02*
Y1628602D01*
X2117327Y1635165D02*
Y1628602D01*
Y1635165D02*
X2119372D01*
X2120054Y1634852*
X2120281Y1634540*
X2120508Y1633915*
Y1632977*
X2120281Y1632352*
X2120054Y1632040*
X2119372Y1631727*
X2117327*
X2123918Y1635165D02*
X2123463Y1634852D01*
X2123008Y1634227*
X2122781Y1633602*
X2122554Y1632665*
Y1631102*
X2122781Y1630165*
X2123008Y1629540*
X2123463Y1628915*
X2123918Y1628602*
X2124827*
X2125281Y1628915*
X2125736Y1629540*
X2125963Y1630165*
X2126190Y1631102*
Y1632665*
X2125963Y1633602*
X2125736Y1634227*
X2125281Y1634852*
X2124827Y1635165*
X2123918*
X2128236D02*
Y1628602D01*
Y1635165D02*
X2131418Y1628602D01*
Y1635165D02*
Y1628602D01*
X2133463Y1635165D02*
Y1628602D01*
Y1635165D02*
X2136418D01*
X2133463Y1632040D02*
X2135281D01*
X2133463Y1628602D02*
X2136418D01*
X2138463Y1635165D02*
Y1628602D01*
Y1635165D02*
X2141645Y1628602D01*
Y1635165D02*
Y1628602D01*
X2145281Y1635165D02*
Y1628602D01*
X2143690Y1635165D02*
X2146872D01*
X2157327Y1634227D02*
X2156872Y1634852D01*
X2156190Y1635165*
X2155281*
X2154599Y1634852*
X2154145Y1634227*
Y1633602*
X2154372Y1632977*
X2154599Y1632665*
X2155054Y1632352*
X2156418Y1631727*
X2156872Y1631415*
X2157099Y1631102*
X2157327Y1630477*
Y1629540*
X2156872Y1628915*
X2156190Y1628602*
X2155281*
X2154599Y1628915*
X2154145Y1629540*
X2159372Y1635165D02*
Y1628602D01*
X2161418Y1635165D02*
Y1628602D01*
Y1635165D02*
X2163008D01*
X2163690Y1634852*
X2164145Y1634227*
X2164372Y1633602*
X2164599Y1632665*
Y1631102*
X2164372Y1630165*
X2164145Y1629540*
X2163690Y1628915*
X2163008Y1628602*
X2161418*
X2166645Y1635165D02*
Y1628602D01*
Y1635165D02*
X2169599D01*
X2166645Y1632040D02*
X2168463D01*
X2166645Y1628602D02*
X2169599D01*
X2066872Y1665098D02*
X2066645Y1665723D01*
X2066190Y1666348*
X2065736Y1666661*
X2064827*
X2064372Y1666348*
X2063918Y1665723*
X2063690Y1665098*
X2063463Y1664161*
Y1662598*
X2063690Y1661661*
X2063918Y1661036*
X2064372Y1660411*
X2064827Y1660098*
X2065736*
X2066190Y1660411*
X2066645Y1661036*
X2066872Y1661661*
X2070281Y1666661D02*
X2069827Y1666348D01*
X2069372Y1665723*
X2069145Y1665098*
X2068918Y1664161*
Y1662598*
X2069145Y1661661*
X2069372Y1661036*
X2069827Y1660411*
X2070281Y1660098*
X2071190*
X2071645Y1660411*
X2072099Y1661036*
X2072327Y1661661*
X2072554Y1662598*
Y1664161*
X2072327Y1665098*
X2072099Y1665723*
X2071645Y1666348*
X2071190Y1666661*
X2070281*
X2074599D02*
Y1660098D01*
Y1666661D02*
X2076645D01*
X2077327Y1666348*
X2077554Y1666036*
X2077781Y1665411*
Y1664473*
X2077554Y1663848*
X2077327Y1663536*
X2076645Y1663223*
X2074599*
X2079827Y1666661D02*
Y1660098D01*
Y1666661D02*
X2081872D01*
X2082554Y1666348*
X2082781Y1666036*
X2083008Y1665411*
Y1664473*
X2082781Y1663848*
X2082554Y1663536*
X2081872Y1663223*
X2079827*
X2085054Y1666661D02*
Y1660098D01*
Y1666661D02*
X2088008D01*
X2085054Y1663536D02*
X2086872D01*
X2085054Y1660098D02*
X2088008D01*
X2090054Y1666661D02*
Y1660098D01*
Y1666661D02*
X2092099D01*
X2092781Y1666348*
X2093008Y1666036*
X2093236Y1665411*
Y1664786*
X2093008Y1664161*
X2092781Y1663848*
X2092099Y1663536*
X2090054*
X2091645D02*
X2093236Y1660098D01*
X2100508Y1666661D02*
Y1660098D01*
Y1666661D02*
X2103463D01*
X2100508Y1663536D02*
X2102327D01*
X2105508Y1666661D02*
Y1660098D01*
X2107554Y1666661D02*
Y1660098D01*
Y1666661D02*
X2110736Y1660098D01*
Y1666661D02*
Y1660098D01*
X2112781Y1666661D02*
Y1660098D01*
X2118008Y1665723D02*
X2117554Y1666348D01*
X2116872Y1666661*
X2115963*
X2115281Y1666348*
X2114827Y1665723*
Y1665098*
X2115054Y1664473*
X2115281Y1664161*
X2115736Y1663848*
X2117099Y1663223*
X2117554Y1662911*
X2117781Y1662598*
X2118008Y1661973*
Y1661036*
X2117554Y1660411*
X2116872Y1660098*
X2115963*
X2115281Y1660411*
X2114827Y1661036*
X2120054Y1666661D02*
Y1660098D01*
X2123236Y1666661D02*
Y1660098D01*
X2120054Y1663536D02*
X2123236D01*
X2125281Y1666661D02*
Y1660098D01*
X2127327Y1666661D02*
Y1660098D01*
Y1666661D02*
X2130508Y1660098D01*
Y1666661D02*
Y1660098D01*
X2135963Y1665098D02*
X2135736Y1665723D01*
X2135281Y1666348*
X2134827Y1666661*
X2133918*
X2133463Y1666348*
X2133008Y1665723*
X2132781Y1665098*
X2132554Y1664161*
Y1662598*
X2132781Y1661661*
X2133008Y1661036*
X2133463Y1660411*
X2133918Y1660098*
X2134827*
X2135281Y1660411*
X2135736Y1661036*
X2135963Y1661661*
Y1662598*
X2134827D02*
X2135963D01*
X2146645Y1665098D02*
X2146418Y1665723D01*
X2145963Y1666348*
X2145508Y1666661*
X2144599*
X2144145Y1666348*
X2143690Y1665723*
X2143463Y1665098*
X2143236Y1664161*
Y1662598*
X2143463Y1661661*
X2143690Y1661036*
X2144145Y1660411*
X2144599Y1660098*
X2145508*
X2145963Y1660411*
X2146418Y1661036*
X2146645Y1661661*
Y1662598*
X2145508D02*
X2146645D01*
X2150054Y1666661D02*
X2149599Y1666348D01*
X2149145Y1665723*
X2148918Y1665098*
X2148690Y1664161*
Y1662598*
X2148918Y1661661*
X2149145Y1661036*
X2149599Y1660411*
X2150054Y1660098*
X2150963*
X2151418Y1660411*
X2151872Y1661036*
X2152099Y1661661*
X2152327Y1662598*
Y1664161*
X2152099Y1665098*
X2151872Y1665723*
X2151418Y1666348*
X2150963Y1666661*
X2150054*
X2154372D02*
Y1660098D01*
X2157099*
X2159145Y1666661D02*
Y1660098D01*
Y1666661D02*
X2160736D01*
X2161418Y1666348*
X2161872Y1665723*
X2162099Y1665098*
X2162327Y1664161*
Y1662598*
X2162099Y1661661*
X2161872Y1661036*
X2161418Y1660411*
X2160736Y1660098*
X2159145*
X1880329Y1643445D02*
X1888329D01*
X1884329Y1639445D02*
Y1647445D01*
X1880329Y1633445D02*
X1888329D01*
X1884329Y1629445D02*
Y1637445D01*
X1815762Y1688500D02*
X1823762Y1696500D01*
X1815762D02*
X1823762Y1688500D01*
X1815762Y1698500D02*
X1823762Y1706500D01*
X1815762D02*
X1823762Y1698500D01*
X1972849Y1716276D02*
X1980849D01*
Y1724276*
X1972849*
Y1716276*
X1976849Y1720276D02*
Y1724276D01*
X1988597Y1716276D02*
X1996597D01*
Y1724276*
X1988597*
Y1716276*
X1992597Y1720276D02*
Y1724276D01*
X1815369Y1716276D02*
X1823369D01*
Y1724276*
X1815369*
Y1716276*
X1819369Y1720276D02*
Y1724276D01*
X1831117Y1716276D02*
X1839117D01*
Y1724276*
X1831117*
Y1716276*
X1835117Y1720276D02*
Y1724276D01*
X1893483Y1462500D02*
X1897483Y1466500D01*
X1893483Y1470500*
X1889483Y1466500*
X1893483Y1462500*
Y1466500D02*
Y1470500D01*
X1961783Y1462500D02*
X1965783Y1466500D01*
X1961783Y1470500*
X1957783Y1466500*
X1961783Y1462500*
Y1466500D02*
Y1470500D01*
X1908383Y1495900D02*
X1912383Y1499900D01*
X1908383Y1503900*
X1904383Y1499900*
X1908383Y1495900*
Y1499900D02*
Y1503900D01*
X1957283Y1495900D02*
X1961283Y1499900D01*
X1957283Y1503900*
X1953283Y1499900*
X1957283Y1495900*
Y1499900D02*
Y1503900D01*
X1842783Y1517900D02*
X1846783Y1521900D01*
X1842783Y1525900*
X1838783Y1521900*
X1842783Y1517900*
Y1521900D02*
Y1525900D01*
X1867383Y1520400D02*
X1871383Y1524400D01*
X1867383Y1528400*
X1863383Y1524400*
X1867383Y1520400*
Y1524400D02*
Y1528400D01*
X1880383Y1508900D02*
X1884383Y1512900D01*
X1880383Y1516900*
X1876383Y1512900*
X1880383Y1508900*
Y1512900D02*
Y1516900D01*
X1862183Y1512200D02*
X1866183Y1516200D01*
X1862183Y1520200*
X1858183Y1516200*
X1862183Y1512200*
Y1516200D02*
Y1520200D01*
X1889483Y1517900D02*
X1893483Y1521900D01*
X1889483Y1525900*
X1885483Y1521900*
X1889483Y1517900*
Y1521900D02*
Y1525900D01*
X1908983Y1515100D02*
X1912983Y1519100D01*
X1908983Y1523100*
X1904983Y1519100*
X1908983Y1515100*
Y1519100D02*
Y1523100D01*
X1917483Y1519600D02*
X1921483Y1523600D01*
X1917483Y1527600*
X1913483Y1523600*
X1917483Y1519600*
Y1523600D02*
Y1527600D01*
X1935283Y1520900D02*
X1939283Y1524900D01*
X1935283Y1528900*
X1931283Y1524900*
X1935283Y1520900*
Y1524900D02*
Y1528900D01*
X1942983Y1518100D02*
X1946983Y1522100D01*
X1942983Y1526100*
X1938983Y1522100*
X1942983Y1518100*
Y1522100D02*
Y1526100D01*
X1954883Y1517600D02*
X1958883Y1521600D01*
X1954883Y1525600*
X1950883Y1521600*
X1954883Y1517600*
Y1521600D02*
Y1525600D01*
X1952483Y1514900D02*
X1956483Y1518900D01*
X1952483Y1522900*
X1948483Y1518900*
X1952483Y1514900*
Y1518900D02*
Y1522900D01*
X1860983Y1539500D02*
X1864983Y1543500D01*
X1860983Y1547500*
X1856983Y1543500*
X1860983Y1539500*
Y1543500D02*
Y1547500D01*
X1883283Y1530400D02*
X1887283Y1534400D01*
X1883283Y1538400*
X1879283Y1534400*
X1883283Y1530400*
Y1534400D02*
Y1538400D01*
X1882883Y1538900D02*
X1886883Y1542900D01*
X1882883Y1546900*
X1878883Y1542900*
X1882883Y1538900*
Y1542900D02*
Y1546900D01*
X1896483Y1531300D02*
X1900483Y1535300D01*
X1896483Y1539300*
X1892483Y1535300*
X1896483Y1531300*
Y1535300D02*
Y1539300D01*
Y1538000D02*
X1900483Y1542000D01*
X1896483Y1546000*
X1892483Y1542000*
X1896483Y1538000*
Y1542000D02*
Y1546000D01*
X1911483Y1533700D02*
X1915483Y1537700D01*
X1911483Y1541700*
X1907483Y1537700*
X1911483Y1533700*
Y1537700D02*
Y1541700D01*
X1905683Y1531300D02*
X1909683Y1535300D01*
X1905683Y1539300*
X1901683Y1535300*
X1905683Y1531300*
Y1535300D02*
Y1539300D01*
X1928683Y1531300D02*
X1932683Y1535300D01*
X1928683Y1539300*
X1924683Y1535300*
X1928683Y1531300*
Y1535300D02*
Y1539300D01*
X1944383Y1535800D02*
X1948383Y1539800D01*
X1944383Y1543800*
X1940383Y1539800*
X1944383Y1535800*
Y1539800D02*
Y1543800D01*
X1944283Y1542700D02*
X1948283Y1546700D01*
X1944283Y1550700*
X1940283Y1546700*
X1944283Y1542700*
Y1546700D02*
Y1550700D01*
X1949283Y1543200D02*
X1953283Y1547200D01*
X1949283Y1551200*
X1945283Y1547200*
X1949283Y1543200*
Y1547200D02*
Y1551200D01*
X1941683Y1538200D02*
X1945683Y1542200D01*
X1941683Y1546200*
X1937683Y1542200*
X1941683Y1538200*
Y1542200D02*
Y1546200D01*
X1952483Y1535100D02*
X1956483Y1539100D01*
X1952483Y1543100*
X1948483Y1539100*
X1952483Y1535100*
Y1539100D02*
Y1543100D01*
X1953583Y1538700D02*
X1957583Y1542700D01*
X1953583Y1546700*
X1949583Y1542700*
X1953583Y1538700*
Y1542700D02*
Y1546700D01*
X1962583Y1539300D02*
X1966583Y1543300D01*
X1962583Y1547300*
X1958583Y1543300*
X1962583Y1539300*
Y1543300D02*
Y1547300D01*
X1961983Y1542900D02*
X1965983Y1546900D01*
X1961983Y1550900*
X1957983Y1546900*
X1961983Y1542900*
Y1546900D02*
Y1550900D01*
X1844483Y1555500D02*
X1848483Y1559500D01*
X1844483Y1563500*
X1840483Y1559500*
X1844483Y1555500*
Y1559500D02*
Y1563500D01*
X1851383Y1562000D02*
X1855383Y1566000D01*
X1851383Y1570000*
X1847383Y1566000*
X1851383Y1562000*
Y1566000D02*
Y1570000D01*
X1879883Y1559000D02*
X1883883Y1563000D01*
X1879883Y1567000*
X1875883Y1563000*
X1879883Y1559000*
Y1563000D02*
Y1567000D01*
X1876883Y1563100D02*
X1880883Y1567100D01*
X1876883Y1571100*
X1872883Y1567100*
X1876883Y1563100*
Y1567100D02*
Y1571100D01*
X1893583Y1554300D02*
X1897583Y1558300D01*
X1893583Y1562300*
X1889583Y1558300*
X1893583Y1554300*
Y1558300D02*
Y1562300D01*
X1889583Y1551300D02*
X1893583Y1555300D01*
X1889583Y1559300*
X1885583Y1555300*
X1889583Y1551300*
Y1555300D02*
Y1559300D01*
X1883983Y1553000D02*
X1887983Y1557000D01*
X1883983Y1561000*
X1879983Y1557000*
X1883983Y1553000*
Y1557000D02*
Y1561000D01*
X1897483Y1554800D02*
X1901483Y1558800D01*
X1897483Y1562800*
X1893483Y1558800*
X1897483Y1554800*
Y1558800D02*
Y1562800D01*
X1891283Y1562200D02*
X1895283Y1566200D01*
X1891283Y1570200*
X1887283Y1566200*
X1891283Y1562200*
Y1566200D02*
Y1570200D01*
X1889283Y1558600D02*
X1893283Y1562600D01*
X1889283Y1566600*
X1885283Y1562600*
X1889283Y1558600*
Y1562600D02*
Y1566600D01*
X1896483Y1546900D02*
X1900483Y1550900D01*
X1896483Y1554900*
X1892483Y1550900*
X1896483Y1546900*
Y1550900D02*
Y1554900D01*
X1915983Y1545000D02*
X1919983Y1549000D01*
X1915983Y1553000*
X1911983Y1549000*
X1915983Y1545000*
Y1549000D02*
Y1553000D01*
X1912683Y1558100D02*
X1916683Y1562100D01*
X1912683Y1566100*
X1908683Y1562100*
X1912683Y1558100*
Y1562100D02*
Y1566100D01*
X1927383Y1558100D02*
X1931383Y1562100D01*
X1927383Y1566100*
X1923383Y1562100*
X1927383Y1558100*
Y1562100D02*
Y1566100D01*
X1930983Y1558100D02*
X1934983Y1562100D01*
X1930983Y1566100*
X1926983Y1562100*
X1930983Y1558100*
Y1562100D02*
Y1566100D01*
X1941183Y1550400D02*
X1945183Y1554400D01*
X1941183Y1558400*
X1937183Y1554400*
X1941183Y1550400*
Y1554400D02*
Y1558400D01*
X1961083Y1556000D02*
X1965083Y1560000D01*
X1961083Y1564000*
X1957083Y1560000*
X1961083Y1556000*
Y1560000D02*
Y1564000D01*
Y1551500D02*
X1965083Y1555500D01*
X1961083Y1559500*
X1957083Y1555500*
X1961083Y1551500*
Y1555500D02*
Y1559500D01*
X1956083Y1552400D02*
X1960083Y1556400D01*
X1956083Y1560400*
X1952083Y1556400*
X1956083Y1552400*
Y1556400D02*
Y1560400D01*
X1951083Y1552400D02*
X1955083Y1556400D01*
X1951083Y1560400*
X1947083Y1556400*
X1951083Y1552400*
Y1556400D02*
Y1560400D01*
X1947483Y1552400D02*
X1951483Y1556400D01*
X1947483Y1560400*
X1943483Y1556400*
X1947483Y1552400*
Y1556400D02*
Y1560400D01*
X1974583Y1545600D02*
X1978583Y1549600D01*
X1974583Y1553600*
X1970583Y1549600*
X1974583Y1545600*
Y1549600D02*
Y1553600D01*
X1972683Y1548800D02*
X1976683Y1552800D01*
X1972683Y1556800*
X1968683Y1552800*
X1972683Y1548800*
Y1552800D02*
Y1556800D01*
X1988283Y1554700D02*
X1992283Y1558700D01*
X1988283Y1562700*
X1984283Y1558700*
X1988283Y1554700*
Y1558700D02*
Y1562700D01*
X1986083Y1563000D02*
X1990083Y1567000D01*
X1986083Y1571000*
X1982083Y1567000*
X1986083Y1563000*
Y1567000D02*
Y1571000D01*
X1988383Y1551100D02*
X1992383Y1555100D01*
X1988383Y1559100*
X1984383Y1555100*
X1988383Y1551100*
Y1555100D02*
Y1559100D01*
X1846283Y1567900D02*
X1850283Y1571900D01*
X1846283Y1575900*
X1842283Y1571900*
X1846283Y1567900*
Y1571900D02*
Y1575900D01*
X1859083Y1577600D02*
X1863083Y1581600D01*
X1859083Y1585600*
X1855083Y1581600*
X1859083Y1577600*
Y1581600D02*
Y1585600D01*
X1879883Y1571300D02*
X1883883Y1575300D01*
X1879883Y1579300*
X1875883Y1575300*
X1879883Y1571300*
Y1575300D02*
Y1579300D01*
X1877183Y1583100D02*
X1881183Y1587100D01*
X1877183Y1591100*
X1873183Y1587100*
X1877183Y1583100*
Y1587100D02*
Y1591100D01*
X1876983Y1575500D02*
X1880983Y1579500D01*
X1876983Y1583500*
X1872983Y1579500*
X1876983Y1575500*
Y1579500D02*
Y1583500D01*
X1868783Y1577600D02*
X1872783Y1581600D01*
X1868783Y1585600*
X1864783Y1581600*
X1868783Y1577600*
Y1581600D02*
Y1585600D01*
Y1574100D02*
X1872783Y1578100D01*
X1868783Y1582100*
X1864783Y1578100*
X1868783Y1574100*
Y1578100D02*
Y1582100D01*
X1865383Y1577600D02*
X1869383Y1581600D01*
X1865383Y1585600*
X1861383Y1581600*
X1865383Y1577600*
Y1581600D02*
Y1585600D01*
X1862183Y1577600D02*
X1866183Y1581600D01*
X1862183Y1585600*
X1858183Y1581600*
X1862183Y1577600*
Y1581600D02*
Y1585600D01*
X1895283Y1564200D02*
X1899283Y1568200D01*
X1895283Y1572200*
X1891283Y1568200*
X1895283Y1564200*
Y1568200D02*
Y1572200D01*
X1897883Y1574300D02*
X1901883Y1578300D01*
X1897883Y1582300*
X1893883Y1578300*
X1897883Y1574300*
Y1578300D02*
Y1582300D01*
X1885683Y1583200D02*
X1889683Y1587200D01*
X1885683Y1591200*
X1881683Y1587200*
X1885683Y1583200*
Y1587200D02*
Y1591200D01*
Y1575500D02*
X1889683Y1579500D01*
X1885683Y1583500*
X1881683Y1579500*
X1885683Y1575500*
Y1579500D02*
Y1583500D01*
X1881383Y1575500D02*
X1885383Y1579500D01*
X1881383Y1583500*
X1877383Y1579500*
X1881383Y1575500*
Y1579500D02*
Y1583500D01*
X1881283Y1583100D02*
X1885283Y1587100D01*
X1881283Y1591100*
X1877283Y1587100*
X1881283Y1583100*
Y1587100D02*
Y1591100D01*
X1889383Y1565400D02*
X1893383Y1569400D01*
X1889383Y1573400*
X1885383Y1569400*
X1889383Y1565400*
Y1569400D02*
Y1573400D01*
X1887183Y1570500D02*
X1891183Y1574500D01*
X1887183Y1578500*
X1883183Y1574500*
X1887183Y1570500*
Y1574500D02*
Y1578500D01*
X1884183Y1568600D02*
X1888183Y1572600D01*
X1884183Y1576600*
X1880183Y1572600*
X1884183Y1568600*
Y1572600D02*
Y1576600D01*
X1915383Y1567100D02*
X1919383Y1571100D01*
X1915383Y1575100*
X1911383Y1571100*
X1915383Y1567100*
Y1571100D02*
Y1575100D01*
X1911483Y1572500D02*
X1915483Y1576500D01*
X1911483Y1580500*
X1907483Y1576500*
X1911483Y1572500*
Y1576500D02*
Y1580500D01*
X1906483Y1573700D02*
X1910483Y1577700D01*
X1906483Y1581700*
X1902483Y1577700*
X1906483Y1573700*
Y1577700D02*
Y1581700D01*
X1911483Y1567500D02*
X1915483Y1571500D01*
X1911483Y1575500*
X1907483Y1571500*
X1911483Y1567500*
Y1571500D02*
Y1575500D01*
X1929083Y1564200D02*
X1933083Y1568200D01*
X1929083Y1572200*
X1925083Y1568200*
X1929083Y1564200*
Y1568200D02*
Y1572200D01*
X1930783Y1572400D02*
X1934783Y1576400D01*
X1930783Y1580400*
X1926783Y1576400*
X1930783Y1572400*
Y1576400D02*
Y1580400D01*
X1958383Y1580700D02*
X1962383Y1584700D01*
X1958383Y1588700*
X1954383Y1584700*
X1958383Y1580700*
Y1584700D02*
Y1588700D01*
X1956383Y1563700D02*
X1960383Y1567700D01*
X1956383Y1571700*
X1952383Y1567700*
X1956383Y1563700*
Y1567700D02*
Y1571700D01*
X1946483Y1571900D02*
X1950483Y1575900D01*
X1946483Y1579900*
X1942483Y1575900*
X1946483Y1571900*
Y1575900D02*
Y1579900D01*
X1956383Y1569800D02*
X1960383Y1573800D01*
X1956383Y1577800*
X1952383Y1573800*
X1956383Y1569800*
Y1573800D02*
Y1577800D01*
X1960283Y1572000D02*
X1964283Y1576000D01*
X1960283Y1580000*
X1956283Y1576000*
X1960283Y1572000*
Y1576000D02*
Y1580000D01*
X1950083Y1571500D02*
X1954083Y1575500D01*
X1950083Y1579500*
X1946083Y1575500*
X1950083Y1571500*
Y1575500D02*
Y1579500D01*
X1944583Y1580800D02*
X1948583Y1584800D01*
X1944583Y1588800*
X1940583Y1584800*
X1944583Y1580800*
Y1584800D02*
Y1588800D01*
X1975583Y1563900D02*
X1979583Y1567900D01*
X1975583Y1571900*
X1971583Y1567900*
X1975583Y1563900*
Y1567900D02*
Y1571900D01*
X1963383Y1564900D02*
X1967383Y1568900D01*
X1963383Y1572900*
X1959383Y1568900*
X1963383Y1564900*
Y1568900D02*
Y1572900D01*
Y1568500D02*
X1967383Y1572500D01*
X1963383Y1576500*
X1959383Y1572500*
X1963383Y1568500*
Y1572500D02*
Y1576500D01*
X1997483Y1566800D02*
X2001483Y1570800D01*
X1997483Y1574800*
X1993483Y1570800*
X1997483Y1566800*
Y1570800D02*
Y1574800D01*
X1985083Y1580000D02*
X1989083Y1584000D01*
X1985083Y1588000*
X1981083Y1584000*
X1985083Y1580000*
Y1584000D02*
Y1588000D01*
X1982583Y1563900D02*
X1986583Y1567900D01*
X1982583Y1571900*
X1978583Y1567900*
X1982583Y1563900*
Y1567900D02*
Y1571900D01*
X1821983Y1593600D02*
X1825983Y1597600D01*
X1821983Y1601600*
X1817983Y1597600*
X1821983Y1593600*
Y1597600D02*
Y1601600D01*
X1842283Y1595000D02*
X1846283Y1599000D01*
X1842283Y1603000*
X1838283Y1599000*
X1842283Y1595000*
Y1599000D02*
Y1603000D01*
Y1592000D02*
X1846283Y1596000D01*
X1842283Y1600000*
X1838283Y1596000*
X1842283Y1592000*
Y1596000D02*
Y1600000D01*
X1859083Y1586500D02*
X1863083Y1590500D01*
X1859083Y1594500*
X1855083Y1590500*
X1859083Y1586500*
Y1590500D02*
Y1594500D01*
X1850983Y1597000D02*
X1854983Y1601000D01*
X1850983Y1605000*
X1846983Y1601000*
X1850983Y1597000*
Y1601000D02*
Y1605000D01*
X1865083Y1586500D02*
X1869083Y1590500D01*
X1865083Y1594500*
X1861083Y1590500*
X1865083Y1586500*
Y1590500D02*
Y1594500D01*
X1862083Y1586500D02*
X1866083Y1590500D01*
X1862083Y1594500*
X1858083Y1590500*
X1862083Y1586500*
Y1590500D02*
Y1594500D01*
X1876983Y1590700D02*
X1880983Y1594700D01*
X1876983Y1598700*
X1872983Y1594700*
X1876983Y1590700*
Y1594700D02*
Y1598700D01*
X1891883Y1588300D02*
X1895883Y1592300D01*
X1891883Y1596300*
X1887883Y1592300*
X1891883Y1588300*
Y1592300D02*
Y1596300D01*
X1894583Y1593900D02*
X1898583Y1597900D01*
X1894583Y1601900*
X1890583Y1597900*
X1894583Y1593900*
Y1597900D02*
Y1601900D01*
X1885683Y1590700D02*
X1889683Y1594700D01*
X1885683Y1598700*
X1881683Y1594700*
X1885683Y1590700*
Y1594700D02*
Y1598700D01*
X1881383Y1590800D02*
X1885383Y1594800D01*
X1881383Y1598800*
X1877383Y1594800*
X1881383Y1590800*
Y1594800D02*
Y1598800D01*
X1919683Y1602300D02*
X1923683Y1606300D01*
X1919683Y1610300*
X1915683Y1606300*
X1919683Y1602300*
Y1606300D02*
Y1610300D01*
X1931183Y1589100D02*
X1935183Y1593100D01*
X1931183Y1597100*
X1927183Y1593100*
X1931183Y1589100*
Y1593100D02*
Y1597100D01*
X1927883Y1585700D02*
X1931883Y1589700D01*
X1927883Y1593700*
X1923883Y1589700*
X1927883Y1585700*
Y1589700D02*
Y1593700D01*
X1939083Y1601500D02*
X1943083Y1605500D01*
X1939083Y1609500*
X1935083Y1605500*
X1939083Y1601500*
Y1605500D02*
Y1609500D01*
X1932083Y1597600D02*
X1936083Y1601600D01*
X1932083Y1605600*
X1928083Y1601600*
X1932083Y1597600*
Y1601600D02*
Y1605600D01*
X1925983Y1597800D02*
X1929983Y1601800D01*
X1925983Y1605800*
X1921983Y1601800*
X1925983Y1597800*
Y1601800D02*
Y1605800D01*
X1959783Y1601400D02*
X1963783Y1605400D01*
X1959783Y1609400*
X1955783Y1605400*
X1959783Y1601400*
Y1605400D02*
Y1609400D01*
X1945083Y1585900D02*
X1949083Y1589900D01*
X1945083Y1593900*
X1941083Y1589900*
X1945083Y1585900*
Y1589900D02*
Y1593900D01*
X1942283Y1597200D02*
X1946283Y1601200D01*
X1942283Y1605200*
X1938283Y1601200*
X1942283Y1597200*
Y1601200D02*
Y1605200D01*
X1955883Y1587600D02*
X1959883Y1591600D01*
X1955883Y1595600*
X1951883Y1591600*
X1955883Y1587600*
Y1591600D02*
Y1595600D01*
X1948083Y1589200D02*
X1952083Y1593200D01*
X1948083Y1597200*
X1944083Y1593200*
X1948083Y1589200*
Y1593200D02*
Y1597200D01*
X1955683Y1583800D02*
X1959683Y1587800D01*
X1955683Y1591800*
X1951683Y1587800*
X1955683Y1583800*
Y1587800D02*
Y1591800D01*
X1966883Y1589600D02*
X1970883Y1593600D01*
X1966883Y1597600*
X1962883Y1593600*
X1966883Y1589600*
Y1593600D02*
Y1597600D01*
X1979383Y1595500D02*
X1983383Y1599500D01*
X1979383Y1603500*
X1975383Y1599500*
X1979383Y1595500*
Y1599500D02*
Y1603500D01*
X1978683Y1587100D02*
X1982683Y1591100D01*
X1978683Y1595100*
X1974683Y1591100*
X1978683Y1587100*
Y1591100D02*
Y1595100D01*
X1964083Y1585300D02*
X1968083Y1589300D01*
X1964083Y1593300*
X1960083Y1589300*
X1964083Y1585300*
Y1589300D02*
Y1593300D01*
X1968283Y1598600D02*
X1972283Y1602600D01*
X1968283Y1606600*
X1964283Y1602600*
X1968283Y1598600*
Y1602600D02*
Y1606600D01*
X1961483Y1598000D02*
X1965483Y1602000D01*
X1961483Y1606000*
X1957483Y1602000*
X1961483Y1598000*
Y1602000D02*
Y1606000D01*
X1989183Y1594300D02*
X1993183Y1598300D01*
X1989183Y1602300*
X1985183Y1598300*
X1989183Y1594300*
Y1598300D02*
Y1602300D01*
X1841183Y1607900D02*
X1845183Y1611900D01*
X1841183Y1615900*
X1837183Y1611900*
X1841183Y1607900*
Y1611900D02*
Y1615900D01*
Y1604700D02*
X1845183Y1608700D01*
X1841183Y1612700*
X1837183Y1608700*
X1841183Y1604700*
Y1608700D02*
Y1612700D01*
X1827283Y1616200D02*
X1831283Y1620200D01*
X1827283Y1624200*
X1823283Y1620200*
X1827283Y1616200*
Y1620200D02*
Y1624200D01*
X1889983Y1609300D02*
X1893983Y1613300D01*
X1889983Y1617300*
X1885983Y1613300*
X1889983Y1609300*
Y1613300D02*
Y1617300D01*
X1897883Y1603400D02*
X1901883Y1607400D01*
X1897883Y1611400*
X1893883Y1607400*
X1897883Y1603400*
Y1607400D02*
Y1611400D01*
X1919683Y1611800D02*
X1923683Y1615800D01*
X1919683Y1619800*
X1915683Y1615800*
X1919683Y1611800*
Y1615800D02*
Y1619800D01*
X1930983Y1621500D02*
X1934983Y1625500D01*
X1930983Y1629500*
X1926983Y1625500*
X1930983Y1621500*
Y1625500D02*
Y1629500D01*
X1958283Y1609400D02*
X1962283Y1613400D01*
X1958283Y1617400*
X1954283Y1613400*
X1958283Y1609400*
Y1613400D02*
Y1617400D01*
X1949883Y1619200D02*
X1953883Y1623200D01*
X1949883Y1627200*
X1945883Y1623200*
X1949883Y1619200*
Y1623200D02*
Y1627200D01*
X1955083Y1615300D02*
X1959083Y1619300D01*
X1955083Y1623300*
X1951083Y1619300*
X1955083Y1615300*
Y1619300D02*
Y1623300D01*
X1955983Y1620100D02*
X1959983Y1624100D01*
X1955983Y1628100*
X1951983Y1624100*
X1955983Y1620100*
Y1624100D02*
Y1628100D01*
X1966183Y1619500D02*
X1970183Y1623500D01*
X1966183Y1627500*
X1962183Y1623500*
X1966183Y1619500*
Y1623500D02*
Y1627500D01*
X1979383Y1615100D02*
X1983383Y1619100D01*
X1979383Y1623100*
X1975383Y1619100*
X1979383Y1615100*
Y1619100D02*
Y1623100D01*
X1979483Y1611200D02*
X1983483Y1615200D01*
X1979483Y1619200*
X1975483Y1615200*
X1979483Y1611200*
Y1615200D02*
Y1619200D01*
X1991483Y1606400D02*
X1995483Y1610400D01*
X1991483Y1614400*
X1987483Y1610400*
X1991483Y1606400*
Y1610400D02*
Y1614400D01*
X1994283Y1616200D02*
X1998283Y1620200D01*
X1994283Y1624200*
X1990283Y1620200*
X1994283Y1616200*
Y1620200D02*
Y1624200D01*
X1835983Y1623900D02*
X1839983Y1627900D01*
X1835983Y1631900*
X1831983Y1627900*
X1835983Y1623900*
Y1627900D02*
Y1631900D01*
X1847183Y1641600D02*
X1851183Y1645600D01*
X1847183Y1649600*
X1843183Y1645600*
X1847183Y1641600*
Y1645600D02*
Y1649600D01*
X1844183Y1628400D02*
X1848183Y1632400D01*
X1844183Y1636400*
X1840183Y1632400*
X1844183Y1628400*
Y1632400D02*
Y1636400D01*
X1857483Y1630800D02*
X1861483Y1634800D01*
X1857483Y1638800*
X1853483Y1634800*
X1857483Y1630800*
Y1634800D02*
Y1638800D01*
X1894583Y1623900D02*
X1898583Y1627900D01*
X1894583Y1631900*
X1890583Y1627900*
X1894583Y1623900*
Y1627900D02*
Y1631900D01*
X1917483Y1625300D02*
X1921483Y1629300D01*
X1917483Y1633300*
X1913483Y1629300*
X1917483Y1625300*
Y1629300D02*
Y1633300D01*
X1966383Y1625000D02*
X1970383Y1629000D01*
X1966383Y1633000*
X1962383Y1629000*
X1966383Y1625000*
Y1629000D02*
Y1633000D01*
X1976883Y1634300D02*
X1980883Y1638300D01*
X1976883Y1642300*
X1972883Y1638300*
X1976883Y1634300*
Y1638300D02*
Y1642300D01*
X1985083Y1624900D02*
X1989083Y1628900D01*
X1985083Y1632900*
X1981083Y1628900*
X1985083Y1624900*
Y1628900D02*
Y1632900D01*
X1827283Y1644800D02*
X1831283Y1648800D01*
X1827283Y1652800*
X1823283Y1648800*
X1827283Y1644800*
Y1648800D02*
Y1652800D01*
X1836083Y1655800D02*
X1840083Y1659800D01*
X1836083Y1663800*
X1832083Y1659800*
X1836083Y1655800*
Y1659800D02*
Y1663800D01*
X1838883Y1659000D02*
X1842883Y1663000D01*
X1838883Y1667000*
X1834883Y1663000*
X1838883Y1659000*
Y1663000D02*
Y1667000D01*
X1833383Y1660300D02*
X1837383Y1664300D01*
X1833383Y1668300*
X1829383Y1664300*
X1833383Y1660300*
Y1664300D02*
Y1668300D01*
X1858283Y1649000D02*
X1862283Y1653000D01*
X1858283Y1657000*
X1854283Y1653000*
X1858283Y1649000*
Y1653000D02*
Y1657000D01*
X1849483Y1652900D02*
X1853483Y1656900D01*
X1849483Y1660900*
X1845483Y1656900*
X1849483Y1652900*
Y1656900D02*
Y1660900D01*
X1858383Y1644800D02*
X1862383Y1648800D01*
X1858383Y1652800*
X1854383Y1648800*
X1858383Y1644800*
Y1648800D02*
Y1652800D01*
Y1653400D02*
X1862383Y1657400D01*
X1858383Y1661400*
X1854383Y1657400*
X1858383Y1653400*
Y1657400D02*
Y1661400D01*
X1854183Y1653300D02*
X1858183Y1657300D01*
X1854183Y1661300*
X1850183Y1657300*
X1854183Y1653300*
Y1657300D02*
Y1661300D01*
Y1649000D02*
X1858183Y1653000D01*
X1854183Y1657000*
X1850183Y1653000*
X1854183Y1649000*
Y1653000D02*
Y1657000D01*
Y1644700D02*
X1858183Y1648700D01*
X1854183Y1652700*
X1850183Y1648700*
X1854183Y1644700*
Y1648700D02*
Y1652700D01*
X1862783Y1649000D02*
X1866783Y1653000D01*
X1862783Y1657000*
X1858783Y1653000*
X1862783Y1649000*
Y1653000D02*
Y1657000D01*
Y1653300D02*
X1866783Y1657300D01*
X1862783Y1661300*
X1858783Y1657300*
X1862783Y1653300*
Y1657300D02*
Y1661300D01*
X1862883Y1644700D02*
X1866883Y1648700D01*
X1862883Y1652700*
X1858883Y1648700*
X1862883Y1644700*
Y1648700D02*
Y1652700D01*
X1870283Y1656500D02*
X1874283Y1660500D01*
X1870283Y1664500*
X1866283Y1660500*
X1870283Y1656500*
Y1660500D02*
Y1664500D01*
X1883983Y1650000D02*
X1887983Y1654000D01*
X1883983Y1658000*
X1879983Y1654000*
X1883983Y1650000*
Y1654000D02*
Y1658000D01*
X1888983Y1651300D02*
X1892983Y1655300D01*
X1888983Y1659300*
X1884983Y1655300*
X1888983Y1651300*
Y1655300D02*
Y1659300D01*
X1908983Y1656600D02*
X1912983Y1660600D01*
X1908983Y1664600*
X1904983Y1660600*
X1908983Y1656600*
Y1660600D02*
Y1664600D01*
X1944783Y1663000D02*
X1948783Y1667000D01*
X1944783Y1671000*
X1940783Y1667000*
X1944783Y1663000*
Y1667000D02*
Y1671000D01*
X1962683Y1655600D02*
X1966683Y1659600D01*
X1962683Y1663600*
X1958683Y1659600*
X1962683Y1655600*
Y1659600D02*
Y1663600D01*
X1976883Y1644900D02*
X1980883Y1648900D01*
X1976883Y1652900*
X1972883Y1648900*
X1976883Y1644900*
Y1648900D02*
Y1652900D01*
X1857183Y1681400D02*
X1861183Y1685400D01*
X1857183Y1689400*
X1853183Y1685400*
X1857183Y1681400*
Y1685400D02*
Y1689400D01*
X1845783Y1679100D02*
X1849783Y1683100D01*
X1845783Y1687100*
X1841783Y1683100*
X1845783Y1679100*
Y1683100D02*
Y1687100D01*
X1881083Y1678200D02*
X1885083Y1682200D01*
X1881083Y1686200*
X1877083Y1682200*
X1881083Y1678200*
Y1682200D02*
Y1686200D01*
X1875283Y1672400D02*
X1879283Y1676400D01*
X1875283Y1680400*
X1871283Y1676400*
X1875283Y1672400*
Y1676400D02*
Y1680400D01*
X1878783Y1664100D02*
X1882783Y1668100D01*
X1878783Y1672100*
X1874783Y1668100*
X1878783Y1664100*
Y1668100D02*
Y1672100D01*
X1874783Y1681200D02*
X1878783Y1685200D01*
X1874783Y1689200*
X1870783Y1685200*
X1874783Y1681200*
Y1685200D02*
Y1689200D01*
X1933683Y1678900D02*
X1937683Y1682900D01*
X1933683Y1686900*
X1929683Y1682900*
X1933683Y1678900*
Y1682900D02*
Y1686900D01*
X1924983Y1672000D02*
X1928983Y1676000D01*
X1924983Y1680000*
X1920983Y1676000*
X1924983Y1672000*
Y1676000D02*
Y1680000D01*
X1956683Y1675000D02*
X1960683Y1679000D01*
X1956683Y1683000*
X1952683Y1679000*
X1956683Y1675000*
Y1679000D02*
Y1683000D01*
X1949983Y1670200D02*
X1953983Y1674200D01*
X1949983Y1678200*
X1945983Y1674200*
X1949983Y1670200*
Y1674200D02*
Y1678200D01*
X1978883Y1672300D02*
X1982883Y1676300D01*
X1978883Y1680300*
X1974883Y1676300*
X1978883Y1672300*
Y1676300D02*
Y1680300D01*
X1966083Y1670500D02*
X1970083Y1674500D01*
X1966083Y1678500*
X1962083Y1674500*
X1966083Y1670500*
Y1674500D02*
Y1678500D01*
X1989383Y1669100D02*
X1993383Y1673100D01*
X1989383Y1677100*
X1985383Y1673100*
X1989383Y1669100*
Y1673100D02*
Y1677100D01*
X1981383Y1681600D02*
X1985383Y1685600D01*
X1981383Y1689600*
X1977383Y1685600*
X1981383Y1681600*
Y1685600D02*
Y1689600D01*
X1876983Y1699800D02*
X1880983Y1703800D01*
X1876983Y1707800*
X1872983Y1703800*
X1876983Y1699800*
Y1703800D02*
Y1707800D01*
X1875083Y1684900D02*
X1879083Y1688900D01*
X1875083Y1692900*
X1871083Y1688900*
X1875083Y1684900*
Y1688900D02*
Y1692900D01*
X1887983Y1701900D02*
X1891983Y1705900D01*
X1887983Y1709900*
X1883983Y1705900*
X1887983Y1701900*
Y1705900D02*
Y1709900D01*
X1899683Y1701900D02*
X1903683Y1705900D01*
X1899683Y1709900*
X1895683Y1705900*
X1899683Y1701900*
Y1705900D02*
Y1709900D01*
X1888483Y1690800D02*
X1892483Y1694800D01*
X1888483Y1698800*
X1884483Y1694800*
X1888483Y1690800*
Y1694800D02*
Y1698800D01*
X1894383Y1691600D02*
X1898383Y1695600D01*
X1894383Y1699600*
X1890383Y1695600*
X1894383Y1691600*
Y1695600D02*
Y1699600D01*
X1886683Y1693900D02*
X1890683Y1697900D01*
X1886683Y1701900*
X1882683Y1697900*
X1886683Y1693900*
Y1697900D02*
Y1701900D01*
X1913283Y1689900D02*
X1917283Y1693900D01*
X1913283Y1697900*
X1909283Y1693900*
X1913283Y1689900*
Y1693900D02*
Y1697900D01*
X1917483Y1698200D02*
X1921483Y1702200D01*
X1917483Y1706200*
X1913483Y1702200*
X1917483Y1698200*
Y1702200D02*
Y1706200D01*
X1907383Y1693900D02*
X1911383Y1697900D01*
X1907383Y1701900*
X1903383Y1697900*
X1907383Y1693900*
Y1697900D02*
Y1701900D01*
X1924883Y1684700D02*
X1928883Y1688700D01*
X1924883Y1692700*
X1920883Y1688700*
X1924883Y1684700*
Y1688700D02*
Y1692700D01*
X1973783Y1695700D02*
X1977783Y1699700D01*
X1973783Y1703700*
X1969783Y1699700*
X1973783Y1695700*
Y1699700D02*
Y1703700D01*
X1963583Y1685700D02*
X1967583Y1689700D01*
X1963583Y1693700*
X1959583Y1689700*
X1963583Y1685700*
Y1689700D02*
Y1693700D01*
X1966083Y1689400D02*
X1970083Y1693400D01*
X1966083Y1697400*
X1962083Y1693400*
X1966083Y1689400*
Y1693400D02*
Y1697400D01*
X1846383Y1714600D02*
X1850383Y1718600D01*
X1846383Y1722600*
X1842383Y1718600*
X1846383Y1714600*
Y1718600D02*
Y1722600D01*
X1846283Y1719000D02*
X1850283Y1723000D01*
X1846283Y1727000*
X1842283Y1723000*
X1846283Y1719000*
Y1723000D02*
Y1727000D01*
X1868283Y1712500D02*
X1872283Y1716500D01*
X1868283Y1720500*
X1864283Y1716500*
X1868283Y1712500*
Y1716500D02*
Y1720500D01*
X1910383Y1708500D02*
X1914383Y1712500D01*
X1910383Y1716500*
X1906383Y1712500*
X1910383Y1708500*
Y1712500D02*
Y1716500D01*
X1902183Y1715200D02*
X1906183Y1719200D01*
X1902183Y1723200*
X1898183Y1719200*
X1902183Y1715200*
Y1719200D02*
Y1723200D01*
X1886298Y1451437D02*
X1890235Y1447500D01*
X1965166*
X1968969Y1450418*
X2004408Y1582677*
Y1727028*
X2000471Y1730965*
X1811494*
X1807557Y1727028*
Y1553799*
X1834834Y1506555*
X1881573*
X1886298Y1501831D02*
G75*
G03X1881573Y1506555I-4725J-0D01*
G01X1886298Y1501831D02*
Y1451437D01*
X1769783Y1447500D02*
Y1582482D01*
Y1447500D02*
X1767283Y1457500D01*
X1772283*
X1769783Y1447500*
Y1730965D02*
Y1595982D01*
Y1730965D02*
X1772283Y1720965D01*
X1767283*
X1769783Y1730965*
X1910011Y1447500D02*
X1764783D01*
X1843876Y1730965D02*
X1764783D01*
X1757396Y1592045D02*
X1755124Y1585482D01*
X1754214Y1592045D02*
X1757396D01*
X1759669Y1590482D02*
Y1590795D01*
X1759896Y1591420*
X1760124Y1591732*
X1760578Y1592045*
X1761487*
X1761942Y1591732*
X1762169Y1591420*
X1762396Y1590795*
Y1590170*
X1762169Y1589545*
X1761714Y1588607*
X1759442Y1585482*
X1762624*
X1764896Y1586107D02*
X1764669Y1585795D01*
X1764896Y1585482*
X1765124Y1585795*
X1764896Y1586107*
X1768533Y1592045D02*
X1767851Y1591732D01*
X1767396Y1590795*
X1767169Y1589232*
Y1588295*
X1767396Y1586732*
X1767851Y1585795*
X1768533Y1585482*
X1768987*
X1769669Y1585795*
X1770124Y1586732*
X1770351Y1588295*
Y1589232*
X1770124Y1590795*
X1769669Y1591732*
X1768987Y1592045*
X1768533*
X1772396Y1589857D02*
Y1585482D01*
Y1588607D02*
X1773078Y1589545D01*
X1773533Y1589857*
X1774214*
X1774669Y1589545*
X1774896Y1588607*
Y1585482*
Y1588607D02*
X1775578Y1589545D01*
X1776033Y1589857*
X1776714*
X1777169Y1589545*
X1777396Y1588607*
Y1585482*
X1779442Y1589857D02*
Y1585482D01*
Y1588607D02*
X1780124Y1589545D01*
X1780578Y1589857*
X1781260*
X1781714Y1589545*
X1781942Y1588607*
Y1585482*
Y1588607D02*
X1782624Y1589545D01*
X1783078Y1589857*
X1783760*
X1784214Y1589545*
X1784442Y1588607*
Y1585482*
X1807557Y1754500D02*
X1887301D01*
X1807557D02*
X1817557Y1757000D01*
Y1752000*
X1807557Y1754500*
X2004408D02*
X1924664D01*
X2004408D02*
X1994408Y1752000D01*
Y1757000*
X2004408Y1754500*
X1807557Y1660892D02*
Y1759500D01*
X2004408Y1672865D02*
Y1759500D01*
X1893255Y1757313D02*
X1890983D01*
X1890983D02*
X1890755Y1754500D01*
X1890983Y1754813*
X1890983D02*
X1891664Y1755125D01*
X1892346*
X1893028Y1754813*
X1893028D02*
X1893483Y1754188D01*
X1893483D02*
X1893710Y1753250D01*
X1893483Y1752625*
X1893255Y1751688*
X1893255D02*
X1892801Y1751063D01*
X1892801D02*
X1892119Y1750750D01*
X1891437*
X1890755Y1751063*
X1890755D02*
X1890528Y1751375D01*
X1890301Y1752000*
X1897119Y1757313D02*
X1896437Y1757000D01*
X1895983Y1756063*
X1895983D02*
X1895755Y1754500D01*
Y1753563*
X1895755D02*
X1895983Y1752000D01*
X1896437Y1751063*
X1896437D02*
X1897119Y1750750D01*
X1897574*
X1898255Y1751063*
X1898255D02*
X1898710Y1752000D01*
X1898937Y1753563*
X1898937D02*
Y1754500D01*
X1898710Y1756063*
X1898710D02*
X1898255Y1757000D01*
X1897574Y1757313*
X1897574D02*
X1897119D01*
X1901210Y1751375D02*
X1900983Y1751063D01*
X1900983D02*
X1901210Y1750750D01*
X1901437Y1751063*
X1901437D02*
X1901210Y1751375D01*
X1904846Y1757313D02*
X1904164Y1757000D01*
X1903710Y1756063*
X1903710D02*
X1903483Y1754500D01*
Y1753563*
X1903483D02*
X1903710Y1752000D01*
X1904164Y1751063*
X1904164D02*
X1904846Y1750750D01*
X1905301*
X1905983Y1751063*
X1905983D02*
X1906437Y1752000D01*
X1906664Y1753563*
X1906664D02*
Y1754500D01*
X1906437Y1756063*
X1906437D02*
X1905983Y1757000D01*
X1905301Y1757313*
X1905301D02*
X1904846D01*
X1908710Y1755125D02*
Y1750750D01*
Y1753875D02*
X1909392Y1754813D01*
X1909392D02*
X1909846Y1755125D01*
X1910528*
X1910983Y1754813*
X1910983D02*
X1911210Y1753875D01*
Y1750750*
Y1753875D02*
X1911892Y1754813D01*
X1911892D02*
X1912346Y1755125D01*
X1913028*
X1913483Y1754813*
X1913483D02*
X1913710Y1753875D01*
Y1750750*
X1915755Y1755125D02*
Y1750750D01*
Y1753875D02*
X1916437Y1754813D01*
X1916437D02*
X1916892Y1755125D01*
X1917574*
X1918028Y1754813*
X1918028D02*
X1918255Y1753875D01*
Y1750750*
Y1753875D02*
X1918937Y1754813D01*
X1918937D02*
X1919392Y1755125D01*
X1920074*
X1920528Y1754813*
X1920528D02*
X1920755Y1753875D01*
Y1750750*
X2004408Y1567500D02*
X2262408D01*
X2004408Y1543500D02*
X2262408D01*
X2004408Y1519500D02*
X2262408D01*
X2004408Y1495500D02*
X2262408D01*
X2004408Y1471500D02*
X2262408D01*
X2004408Y1447500D02*
X2262408D01*
X2004408Y1567500D02*
Y1447500D01*
X2088408Y1567500D02*
Y1447500D01*
X2124408Y1567500D02*
Y1447500D01*
X2160408Y1567500D02*
Y1447500D01*
X2214408Y1567500D02*
Y1447500D01*
X2262408Y1567500D02*
Y1447500D01*
X2039908Y1556250D02*
X2039362Y1557000D01*
X2038544Y1557375*
X2037453*
X2036635Y1557000*
X2036090Y1556250*
Y1555500*
X2036362Y1554750*
X2036635Y1554375*
X2037181Y1554000*
X2038817Y1553250*
X2039362Y1552875*
X2039635Y1552500*
X2039908Y1551750*
Y1550625*
X2039362Y1549875*
X2038544Y1549500*
X2037453*
X2036635Y1549875*
X2036090Y1550625*
X2042362Y1557375D02*
Y1549500D01*
X2048635Y1557375D02*
X2044817Y1549500D01*
Y1557375D02*
X2048635D01*
X2044817Y1549500D02*
X2048635D01*
X2051090Y1557375D02*
Y1549500D01*
Y1557375D02*
X2054635D01*
X2051090Y1553625D02*
X2053272D01*
X2051090Y1549500D02*
X2054635D01*
X2098272Y1557375D02*
X2097726Y1557000D01*
X2097181Y1556250*
X2096908Y1555500*
X2096635Y1554375*
Y1552500*
X2096908Y1551375*
X2097181Y1550625*
X2097726Y1549875*
X2098272Y1549500*
X2099362*
X2099908Y1549875*
X2100453Y1550625*
X2100726Y1551375*
X2100999Y1552500*
Y1554375*
X2100726Y1555500*
X2100453Y1556250*
X2099908Y1557000*
X2099362Y1557375*
X2098272*
X2099090Y1551000D02*
X2100726Y1548750D01*
X2105362Y1557375D02*
Y1549500D01*
X2103453Y1557375D02*
X2107272D01*
X2109726D02*
X2111908Y1553625D01*
Y1549500*
X2114090Y1557375D02*
X2111908Y1553625D01*
X2136453Y1556250D02*
X2135908Y1557000D01*
X2135090Y1557375*
X2133999*
X2133181Y1557000*
X2132635Y1556250*
Y1555500*
X2132908Y1554750*
X2133181Y1554375*
X2133726Y1554000*
X2135362Y1553250*
X2135908Y1552875*
X2136181Y1552500*
X2136453Y1551750*
Y1550625*
X2135908Y1549875*
X2135090Y1549500*
X2133999*
X2133181Y1549875*
X2132635Y1550625*
X2138908Y1557375D02*
X2141090Y1553625D01*
Y1549500*
X2143272Y1557375D02*
X2141090Y1553625D01*
X2145726Y1557375D02*
Y1549500D01*
Y1557375D02*
X2147908Y1549500D01*
X2150090Y1557375D02*
X2147908Y1549500D01*
X2150090Y1557375D02*
Y1549500D01*
X2171908Y1557375D02*
Y1549500D01*
Y1557375D02*
X2174362D01*
X2175181Y1557000*
X2175453Y1556625*
X2175726Y1555875*
Y1554750*
X2175453Y1554000*
X2175181Y1553625*
X2174362Y1553250*
X2171908*
X2178181Y1557375D02*
Y1549500D01*
X2181453*
X2186090Y1557375D02*
X2183908Y1549500D01*
X2186090Y1557375D02*
X2188272Y1549500D01*
X2184726Y1552125D02*
X2187453D01*
X2192635Y1557375D02*
Y1549500D01*
X2190726Y1557375D02*
X2194544D01*
X2196999D02*
Y1549500D01*
Y1557375D02*
X2200544D01*
X2196999Y1553625D02*
X2199181D01*
X2196999Y1549500D02*
X2200544D01*
X2202999Y1557375D02*
Y1549500D01*
Y1557375D02*
X2204908D01*
X2205726Y1557000*
X2206272Y1556250*
X2206544Y1555500*
X2206817Y1554375*
Y1552500*
X2206544Y1551375*
X2206272Y1550625*
X2205726Y1549875*
X2204908Y1549500*
X2202999*
X2231090Y1557375D02*
Y1549500D01*
X2229181Y1557375D02*
X2232999D01*
X2237090D02*
X2236544Y1557000D01*
X2235999Y1556250*
X2235726Y1555500*
X2235453Y1554375*
Y1552500*
X2235726Y1551375*
X2235999Y1550625*
X2236544Y1549875*
X2237090Y1549500*
X2238181*
X2238726Y1549875*
X2239272Y1550625*
X2239544Y1551375*
X2239817Y1552500*
Y1554375*
X2239544Y1555500*
X2239272Y1556250*
X2238726Y1557000*
X2238181Y1557375*
X2237090*
X2242272D02*
Y1549500D01*
X2245544*
X2012044Y1533375D02*
X2011226Y1533000D01*
X2010681Y1531875*
X2010408Y1530000*
Y1528875*
X2010681Y1527000*
X2011226Y1525875*
X2012044Y1525500*
X2012590*
X2013408Y1525875*
X2013953Y1527000*
X2014226Y1528875*
Y1530000*
X2013953Y1531875*
X2013408Y1533000*
X2012590Y1533375*
X2012044*
X2016953Y1526250D02*
X2016681Y1525875D01*
X2016953Y1525500*
X2017226Y1525875*
X2016953Y1526250*
X2021044Y1533375D02*
X2020226Y1533000D01*
X2019953Y1532250*
Y1531500*
X2020226Y1530750*
X2020772Y1530375*
X2021862Y1530000*
X2022681Y1529625*
X2023226Y1528875*
X2023499Y1528125*
Y1527000*
X2023226Y1526250*
X2022953Y1525875*
X2022135Y1525500*
X2021044*
X2020226Y1525875*
X2019953Y1526250*
X2019681Y1527000*
Y1528125*
X2019953Y1528875*
X2020499Y1529625*
X2021317Y1530000*
X2022408Y1530375*
X2022953Y1530750*
X2023226Y1531500*
Y1532250*
X2022953Y1533000*
X2022135Y1533375*
X2021044*
X2103726Y1531500D02*
Y1531875D01*
X2103999Y1532625*
X2104272Y1533000*
X2104817Y1533375*
X2105908*
X2106453Y1533000*
X2106726Y1532625*
X2106999Y1531875*
Y1531125*
X2106726Y1530375*
X2106181Y1529250*
X2103453Y1525500*
X2107272*
X2136408Y1531500D02*
X2148408D01*
X2142408Y1525500D02*
Y1537500D01*
X2169044Y1533375D02*
X2171226Y1529625D01*
Y1525500*
X2173408Y1533375D02*
X2171226Y1529625D01*
X2175862Y1533375D02*
Y1525500D01*
Y1533375D02*
X2179408D01*
X2175862Y1529625D02*
X2178044D01*
X2175862Y1525500D02*
X2179408D01*
X2185681Y1532250D02*
X2185135Y1533000D01*
X2184317Y1533375*
X2183226*
X2182408Y1533000*
X2181862Y1532250*
Y1531500*
X2182135Y1530750*
X2182408Y1530375*
X2182953Y1530000*
X2184590Y1529250*
X2185135Y1528875*
X2185408Y1528500*
X2185681Y1527750*
Y1526625*
X2185135Y1525875*
X2184317Y1525500*
X2183226*
X2182408Y1525875*
X2181862Y1526625*
X2222226Y1532250D02*
Y1525500D01*
X2219772Y1528875D02*
X2224681D01*
X2232044Y1534875D02*
X2227135Y1522875D01*
X2234499Y1528875D02*
X2239408D01*
X2243499Y1533375D02*
X2242681Y1533000D01*
X2242135Y1531875*
X2241862Y1530000*
Y1528875*
X2242135Y1527000*
X2242681Y1525875*
X2243499Y1525500*
X2244044*
X2244862Y1525875*
X2245408Y1527000*
X2245681Y1528875*
Y1530000*
X2245408Y1531875*
X2244862Y1533000*
X2244044Y1533375*
X2243499*
X2248408Y1526250D02*
X2248135Y1525875D01*
X2248408Y1525500*
X2248681Y1525875*
X2248408Y1526250*
X2252772Y1533375D02*
X2251953Y1533000D01*
X2251408Y1531875*
X2251135Y1530000*
Y1528875*
X2251408Y1527000*
X2251953Y1525875*
X2252772Y1525500*
X2253317*
X2254135Y1525875*
X2254681Y1527000*
X2254953Y1528875*
Y1530000*
X2254681Y1531875*
X2254135Y1533000*
X2253317Y1533375*
X2252772*
X2010408Y1507875D02*
X2010953Y1508250D01*
X2011772Y1509375*
Y1501500*
X2014499Y1502250D02*
X2014226Y1501875D01*
X2014499Y1501500*
X2014772Y1501875*
X2014499Y1502250*
X2017226Y1507875D02*
X2017772Y1508250D01*
X2018590Y1509375*
Y1501500*
X2024590Y1506750D02*
X2024317Y1505625D01*
X2023772Y1504875*
X2022953Y1504500*
X2022681*
X2021862Y1504875*
X2021317Y1505625*
X2021044Y1506750*
Y1507125*
X2021317Y1508250*
X2021862Y1509000*
X2022681Y1509375*
X2022953*
X2023772Y1509000*
X2024317Y1508250*
X2024590Y1506750*
Y1504875*
X2024317Y1503000*
X2023772Y1501875*
X2022953Y1501500*
X2022408*
X2021590Y1501875*
X2021317Y1502625*
X2027590Y1509375D02*
X2030590D01*
X2028953Y1506375*
X2029772*
X2030317Y1506000*
X2030590Y1505625*
X2030862Y1504500*
Y1503750*
X2030590Y1502625*
X2030044Y1501875*
X2029226Y1501500*
X2028408*
X2027590Y1501875*
X2027317Y1502250*
X2027044Y1503000*
X2034681Y1509375D02*
X2033862Y1509000D01*
X2033590Y1508250*
Y1507500*
X2033862Y1506750*
X2034408Y1506375*
X2035499Y1506000*
X2036317Y1505625*
X2036862Y1504875*
X2037135Y1504125*
Y1503000*
X2036862Y1502250*
X2036590Y1501875*
X2035772Y1501500*
X2034681*
X2033862Y1501875*
X2033590Y1502250*
X2033317Y1503000*
Y1504125*
X2033590Y1504875*
X2034135Y1505625*
X2034953Y1506000*
X2036044Y1506375*
X2036590Y1506750*
X2036862Y1507500*
Y1508250*
X2036590Y1509000*
X2035772Y1509375*
X2034681*
X2103726Y1507500D02*
Y1507875D01*
X2103999Y1508625*
X2104272Y1509000*
X2104817Y1509375*
X2105908*
X2106453Y1509000*
X2106726Y1508625*
X2106999Y1507875*
Y1507125*
X2106726Y1506375*
X2106181Y1505250*
X2103453Y1501500*
X2107272*
X2136408D02*
X2148408Y1513500D01*
X2136408D02*
X2148408Y1501500D01*
X2169044Y1509375D02*
X2171226Y1505625D01*
Y1501500*
X2173408Y1509375D02*
X2171226Y1505625D01*
X2175862Y1509375D02*
Y1501500D01*
Y1509375D02*
X2179408D01*
X2175862Y1505625D02*
X2178044D01*
X2175862Y1501500D02*
X2179408D01*
X2185681Y1508250D02*
X2185135Y1509000D01*
X2184317Y1509375*
X2183226*
X2182408Y1509000*
X2181862Y1508250*
Y1507500*
X2182135Y1506750*
X2182408Y1506375*
X2182953Y1506000*
X2184590Y1505250*
X2185135Y1504875*
X2185408Y1504500*
X2185681Y1503750*
Y1502625*
X2185135Y1501875*
X2184317Y1501500*
X2183226*
X2182408Y1501875*
X2181862Y1502625*
X2222226Y1508250D02*
Y1501500D01*
X2219772Y1504875D02*
X2224681D01*
X2232044Y1510875D02*
X2227135Y1498875D01*
X2234499Y1504875D02*
X2239408D01*
X2243499Y1509375D02*
X2242681Y1509000D01*
X2242135Y1507875*
X2241862Y1506000*
Y1504875*
X2242135Y1503000*
X2242681Y1501875*
X2243499Y1501500*
X2244044*
X2244862Y1501875*
X2245408Y1503000*
X2245681Y1504875*
Y1506000*
X2245408Y1507875*
X2244862Y1509000*
X2244044Y1509375*
X2243499*
X2248408Y1502250D02*
X2248135Y1501875D01*
X2248408Y1501500*
X2248681Y1501875*
X2248408Y1502250*
X2252772Y1509375D02*
X2251953Y1509000D01*
X2251408Y1507875*
X2251135Y1506000*
Y1504875*
X2251408Y1503000*
X2251953Y1501875*
X2252772Y1501500*
X2253317*
X2254135Y1501875*
X2254681Y1503000*
X2254953Y1504875*
Y1506000*
X2254681Y1507875*
X2254135Y1509000*
X2253317Y1509375*
X2252772*
X2010408Y1483875D02*
X2010953Y1484250D01*
X2011772Y1485375*
Y1477500*
X2014499Y1478250D02*
X2014226Y1477875D01*
X2014499Y1477500*
X2014772Y1477875*
X2014499Y1478250*
X2017772Y1485375D02*
X2020772D01*
X2019135Y1482375*
X2019953*
X2020499Y1482000*
X2020772Y1481625*
X2021044Y1480500*
Y1479750*
X2020772Y1478625*
X2020226Y1477875*
X2019408Y1477500*
X2018590*
X2017772Y1477875*
X2017499Y1478250*
X2017226Y1479000*
X2027044Y1485375D02*
X2024317D01*
X2024044Y1482000*
X2024317Y1482375*
X2025135Y1482750*
X2025953*
X2026772Y1482375*
X2027317Y1481625*
X2027590Y1480500*
X2027317Y1479750*
X2027044Y1478625*
X2026499Y1477875*
X2025681Y1477500*
X2024862*
X2024044Y1477875*
X2023772Y1478250*
X2023499Y1479000*
X2106044Y1485375D02*
X2103317Y1480125D01*
X2107408*
X2106044Y1485375D02*
Y1477500D01*
X2136408D02*
X2148408D01*
Y1489500*
X2136408*
Y1477500*
X2142408Y1483500D02*
Y1489500D01*
X2172044Y1485375D02*
Y1477500D01*
Y1485375D02*
X2175862Y1477500D01*
Y1485375D02*
Y1477500D01*
X2179953Y1485375D02*
X2179408Y1485000D01*
X2178862Y1484250*
X2178590Y1483500*
X2178317Y1482375*
Y1480500*
X2178590Y1479375*
X2178862Y1478625*
X2179408Y1477875*
X2179953Y1477500*
X2181044*
X2181590Y1477875*
X2182135Y1478625*
X2182408Y1479375*
X2182681Y1480500*
Y1482375*
X2182408Y1483500*
X2182135Y1484250*
X2181590Y1485000*
X2181044Y1485375*
X2179953*
X2222226Y1484250D02*
Y1477500D01*
X2219772Y1480875D02*
X2224681D01*
X2232044Y1486875D02*
X2227135Y1474875D01*
X2234499Y1480875D02*
X2239408D01*
X2243499Y1485375D02*
X2242681Y1485000D01*
X2242135Y1483875*
X2241862Y1482000*
Y1480875*
X2242135Y1479000*
X2242681Y1477875*
X2243499Y1477500*
X2244044*
X2244862Y1477875*
X2245408Y1479000*
X2245681Y1480875*
Y1482000*
X2245408Y1483875*
X2244862Y1485000*
X2244044Y1485375*
X2243499*
X2248408Y1478250D02*
X2248135Y1477875D01*
X2248408Y1477500*
X2248681Y1477875*
X2248408Y1478250*
X2252772Y1485375D02*
X2251953Y1485000D01*
X2251408Y1483875*
X2251135Y1482000*
Y1480875*
X2251408Y1479000*
X2251953Y1477875*
X2252772Y1477500*
X2253317*
X2254135Y1477875*
X2254681Y1479000*
X2254953Y1480875*
Y1482000*
X2254681Y1483875*
X2254135Y1485000*
X2253317Y1485375*
X2252772*
X2012044Y1461375D02*
X2011226Y1461000D01*
X2010681Y1459875*
X2010408Y1458000*
Y1456875*
X2010681Y1455000*
X2011226Y1453875*
X2012044Y1453500*
X2012590*
X2013408Y1453875*
X2013953Y1455000*
X2014226Y1456875*
Y1458000*
X2013953Y1459875*
X2013408Y1461000*
X2012590Y1461375*
X2012044*
X2016953Y1454250D02*
X2016681Y1453875D01*
X2016953Y1453500*
X2017226Y1453875*
X2016953Y1454250*
X2019953Y1459500D02*
Y1459875D01*
X2020226Y1460625*
X2020499Y1461000*
X2021044Y1461375*
X2022135*
X2022681Y1461000*
X2022953Y1460625*
X2023226Y1459875*
Y1459125*
X2022953Y1458375*
X2022408Y1457250*
X2019681Y1453500*
X2023499*
X2029499Y1461375D02*
X2026772D01*
X2026499Y1458000*
X2026772Y1458375*
X2027590Y1458750*
X2028408*
X2029226Y1458375*
X2029772Y1457625*
X2030044Y1456500*
X2029772Y1455750*
X2029499Y1454625*
X2028953Y1453875*
X2028135Y1453500*
X2027317*
X2026499Y1453875*
X2026226Y1454250*
X2025953Y1455000*
X2097317Y1459500D02*
Y1459875D01*
X2097590Y1460625*
X2097862Y1461000*
X2098408Y1461375*
X2099499*
X2100044Y1461000*
X2100317Y1460625*
X2100590Y1459875*
Y1459125*
X2100317Y1458375*
X2099772Y1457250*
X2097044Y1453500*
X2100862*
X2104953Y1461375D02*
X2104135Y1461000D01*
X2103590Y1459875*
X2103317Y1458000*
Y1456875*
X2103590Y1455000*
X2104135Y1453875*
X2104953Y1453500*
X2105499*
X2106317Y1453875*
X2106862Y1455000*
X2107135Y1456875*
Y1458000*
X2106862Y1459875*
X2106317Y1461000*
X2105499Y1461375*
X2104953*
X2112317D02*
X2109590Y1456125D01*
X2113681*
X2112317Y1461375D02*
Y1453500D01*
X2142408D02*
X2148408Y1459500D01*
X2142408Y1465500*
X2136408Y1459500*
X2142408Y1453500*
Y1459500D02*
Y1465500D01*
X2169044Y1461375D02*
X2171226Y1457625D01*
Y1453500*
X2173408Y1461375D02*
X2171226Y1457625D01*
X2175862Y1461375D02*
Y1453500D01*
Y1461375D02*
X2179408D01*
X2175862Y1457625D02*
X2178044D01*
X2175862Y1453500D02*
X2179408D01*
X2185681Y1460250D02*
X2185135Y1461000D01*
X2184317Y1461375*
X2183226*
X2182408Y1461000*
X2181862Y1460250*
Y1459500*
X2182135Y1458750*
X2182408Y1458375*
X2182953Y1458000*
X2184590Y1457250*
X2185135Y1456875*
X2185408Y1456500*
X2185681Y1455750*
Y1454625*
X2185135Y1453875*
X2184317Y1453500*
X2183226*
X2182408Y1453875*
X2181862Y1454625*
X2222226Y1460250D02*
Y1453500D01*
X2219772Y1456875D02*
X2224681D01*
X2232044Y1462875D02*
X2227135Y1450875D01*
X2234499Y1456875D02*
X2239408D01*
X2243499Y1461375D02*
X2242681Y1461000D01*
X2242135Y1459875*
X2241862Y1458000*
Y1456875*
X2242135Y1455000*
X2242681Y1453875*
X2243499Y1453500*
X2244044*
X2244862Y1453875*
X2245408Y1455000*
X2245681Y1456875*
Y1458000*
X2245408Y1459875*
X2244862Y1461000*
X2244044Y1461375*
X2243499*
X2248408Y1454250D02*
X2248135Y1453875D01*
X2248408Y1453500*
X2248681Y1453875*
X2248408Y1454250*
X2252772Y1461375D02*
X2251953Y1461000D01*
X2251408Y1459875*
X2251135Y1458000*
Y1456875*
X2251408Y1455000*
X2251953Y1453875*
X2252772Y1453500*
X2253317*
X2254135Y1453875*
X2254681Y1455000*
X2254953Y1456875*
Y1458000*
X2254681Y1459875*
X2254135Y1461000*
X2253317Y1461375*
X2252772*
G54D68*
X1765483Y1779900D02*
X1737683D01*
Y1754400*
X2202383Y1750900D02*
Y1780300D01*
X2176883*
X2169083Y1419700D02*
X2196883D01*
Y1445200*
X1738483Y1449800D02*
Y1420400D01*
X1763983*
G74*
X0Y0D02*
M02*
