*
*
G04 PADS 9.5 Build Number: 522968 generated Gerber (RS-274-X) file*
G04 PC Version=2.1*
*
%IN "BCB.pcb"*%
*
%MOIN*%
*
%FSLAX35Y35*%
*
*
*
*
G04 PC Standard Apertures*
*
*
G04 Thermal Relief Aperture macro.*
%AMTER*
1,1,$1,0,0*
1,0,$1-$2,0,0*
21,0,$3,$4,0,0,45*
21,0,$3,$4,0,0,135*
%
*
*
G04 Annular Aperture macro.*
%AMANN*
1,1,$1,0,0*
1,0,$2,0,0*
%
*
*
G04 Odd Aperture macro.*
%AMODD*
1,1,$1,0,0*
1,0,$1-0.005,0,0*
%
*
*
G04 PC Custom Aperture Macros*
*
*
*
*
*
*
G04 PC Aperture Table*
*
%ADD010C,0.001*%
%ADD037C,0.00913*%
%ADD038C,0.01*%
%ADD039C,0.06*%
%ADD040R,0.032X0.032*%
%ADD041R,0.106X0.063*%
%ADD042R,0.02X0.025*%
%ADD043R,0.16X0.076*%
%ADD044R,0.035X0.024*%
%ADD045R,0.025X0.02*%
%ADD046R,0.024X0.035*%
%ADD047R,0.05709X0.04331*%
%ADD048R,0.08661X0.03543*%
%ADD049R,0.11811X0.18583*%
%ADD050R,0.06299X0.02756*%
%ADD051R,0.11811X0.08268*%
%ADD052R,0.06693X0.06693*%
%ADD053R,0.01181X0.04724*%
%ADD054R,0.04724X0.01181*%
%ADD055R,0.03937X0.05512*%
%ADD056R,0.105X0.024*%
%ADD057R,0.03937X0.03543*%
%ADD059R,0.09843X0.04724*%
%ADD060R,0.03583X0.04803*%
%ADD061R,0.01969X0.01969*%
%ADD062R,0.01575X0.07008*%
%ADD063R,0.11811X0.11811*%
%ADD068C,0.01181*%
*
*
*
*
G04 PC Circuitry*
G04 Layer Name BCB.pcb - circuitry*
%LPD*%
*
*
G04 PC Custom Flashes*
G04 Layer Name BCB.pcb - flashes*
%LPD*%
*
*
G04 PC Circuitry*
G04 Layer Name BCB.pcb - circuitry*
%LPD*%
*
G54D10*
G54D37*
G01X1909534Y1603459D02*
Y1623412D01*
X1902573*
Y1620384*
X1902719Y1620338*
X1903010Y1620188*
X1903564Y1619840*
X1904088Y1619447*
X1904576Y1619012*
X1905026Y1618536*
X1905434Y1618025*
X1905798Y1617481*
X1906115Y1616909*
X1906383Y1616311*
X1906599Y1615694*
X1906763Y1615060*
X1906873Y1614415*
X1906928Y1613763*
Y1613108*
X1906873Y1612456*
X1906763Y1611811*
X1906599Y1611178*
X1906383Y1610560*
X1906115Y1609963*
X1905798Y1609390*
X1905434Y1608846*
X1905026Y1608335*
X1904576Y1607860*
X1904088Y1607424*
X1903564Y1607031*
X1903010Y1606684*
X1902719Y1606534*
X1902573Y1606488*
Y1603459*
X1909534*
X1902816D02*
Y1606584D01*
Y1620288D02*
Y1623412D01*
X1903272Y1603459D02*
Y1606848D01*
Y1620023D02*
Y1623412D01*
X1903729Y1603459D02*
Y1607155D01*
Y1619717D02*
Y1623412D01*
X1904185Y1603459D02*
Y1607511D01*
Y1619360D02*
Y1623412D01*
X1904642Y1603459D02*
Y1607929D01*
Y1618942D02*
Y1623412D01*
X1905098Y1603459D02*
Y1608426D01*
Y1618446D02*
Y1623412D01*
X1905555Y1603459D02*
Y1609026D01*
Y1617845D02*
Y1623412D01*
X1906011Y1603459D02*
Y1609775D01*
Y1617096D02*
Y1623412D01*
X1906468Y1603459D02*
Y1610803D01*
Y1616068D02*
Y1623412D01*
X1906924Y1603459D02*
Y1613071D01*
Y1613800D02*
Y1623412D01*
X1907381Y1603459D02*
Y1623412D01*
X1907837Y1603459D02*
Y1623412D01*
X1908294Y1603459D02*
Y1623412D01*
X1908750Y1603459D02*
Y1623412D01*
X1909207Y1603459D02*
Y1623412D01*
X1895754Y1603459D02*
Y1606488D01*
X1895609Y1606534*
X1895318Y1606684*
X1894764Y1607031*
X1894240Y1607424*
X1893752Y1607860*
X1893302Y1608335*
X1892894Y1608846*
X1892530Y1609390*
X1892213Y1609963*
X1891945Y1610560*
X1891729Y1611178*
X1891565Y1611811*
X1891455Y1612456*
X1891400Y1613108*
Y1613763*
X1891455Y1614415*
X1891565Y1615060*
X1891729Y1615694*
X1891945Y1616311*
X1892213Y1616909*
X1892530Y1617481*
X1892894Y1618025*
X1893302Y1618536*
X1893752Y1619012*
X1894240Y1619447*
X1894764Y1619840*
X1895318Y1620188*
X1895609Y1620338*
X1895754Y1620384*
Y1623412*
X1888793*
Y1603459*
X1895754*
X1889121D02*
Y1623412D01*
X1889577Y1603459D02*
Y1623412D01*
X1890034Y1603459D02*
Y1623412D01*
X1890490Y1603459D02*
Y1623412D01*
X1890947Y1603459D02*
Y1623412D01*
X1891403Y1603459D02*
Y1613071D01*
Y1613800D02*
Y1623412D01*
X1891860Y1603459D02*
Y1610803D01*
Y1616068D02*
Y1623412D01*
X1892316Y1603459D02*
Y1609775D01*
Y1617096D02*
Y1623412D01*
X1892773Y1603459D02*
Y1609026D01*
Y1617845D02*
Y1623412D01*
X1893229Y1603459D02*
Y1608426D01*
Y1618446D02*
Y1623412D01*
X1893686Y1603459D02*
Y1607929D01*
Y1618942D02*
Y1623412D01*
X1894142Y1603459D02*
Y1607511D01*
Y1619360D02*
Y1623412D01*
X1894599Y1603459D02*
Y1607155D01*
Y1619717D02*
Y1623412D01*
X1895055Y1603459D02*
Y1606848D01*
Y1620023D02*
Y1623412D01*
X1895512Y1603459D02*
Y1606584D01*
Y1620288D02*
Y1623412D01*
G54D38*
X2093430Y1509181D02*
Y1502618D01*
Y1509181D02*
X2095476D01*
X2096158Y1508868*
X2096385Y1508556*
X2096612Y1507931*
Y1506993*
X2096385Y1506368*
X2096158Y1506056*
X2095476Y1505743*
X2093430*
X2100476Y1509181D02*
X2098658Y1502618D01*
X2100476Y1509181D02*
X2102294Y1502618D01*
X2099339Y1504806D02*
X2101612D01*
X2107521Y1508243D02*
X2107067Y1508868D01*
X2106385Y1509181*
X2105476*
X2104794Y1508868*
X2104339Y1508243*
Y1507618*
X2104567Y1506993*
X2104794Y1506681*
X2105248Y1506368*
X2106612Y1505743*
X2107067Y1505431*
X2107294Y1505118*
X2107521Y1504493*
Y1503556*
X2107067Y1502931*
X2106385Y1502618*
X2105476*
X2104794Y1502931*
X2104339Y1503556*
X2111158Y1509181D02*
Y1502618D01*
X2109567Y1509181D02*
X2112748D01*
X2114794D02*
Y1502618D01*
Y1509181D02*
X2117748D01*
X2114794Y1506056D02*
X2116612D01*
X2114794Y1502618D02*
X2117748D01*
X2125021Y1509181D02*
Y1502618D01*
Y1509181D02*
X2126839Y1502618D01*
X2128658Y1509181D02*
X2126839Y1502618D01*
X2128658Y1509181D02*
Y1502618D01*
X2132521Y1509181D02*
X2130703Y1502618D01*
X2132521Y1509181D02*
X2134339Y1502618D01*
X2131385Y1504806D02*
X2133658D01*
X2139567Y1508243D02*
X2139112Y1508868D01*
X2138430Y1509181*
X2137521*
X2136839Y1508868*
X2136385Y1508243*
Y1507618*
X2136612Y1506993*
X2136839Y1506681*
X2137294Y1506368*
X2138658Y1505743*
X2139112Y1505431*
X2139339Y1505118*
X2139567Y1504493*
Y1503556*
X2139112Y1502931*
X2138430Y1502618*
X2137521*
X2136839Y1502931*
X2136385Y1503556*
X2141612Y1509181D02*
Y1502618D01*
X2144794Y1509181D02*
X2141612Y1504806D01*
X2142748Y1506368D02*
X2144794Y1502618D01*
X2153658Y1509181D02*
Y1502618D01*
X2152067Y1509181D02*
X2155248D01*
X2158658D02*
X2158203Y1508868D01*
X2157748Y1508243*
X2157521Y1507618*
X2157294Y1506681*
Y1505118*
X2157521Y1504181*
X2157748Y1503556*
X2158203Y1502931*
X2158658Y1502618*
X2159567*
X2160021Y1502931*
X2160476Y1503556*
X2160703Y1504181*
X2160930Y1505118*
Y1506681*
X2160703Y1507618*
X2160476Y1508243*
X2160021Y1508868*
X2159567Y1509181*
X2158658*
X2162976D02*
Y1502618D01*
Y1509181D02*
X2165021D01*
X2165703Y1508868*
X2165930Y1508556*
X2166158Y1507931*
Y1506993*
X2165930Y1506368*
X2165703Y1506056*
X2165021Y1505743*
X2162976*
G54D39*
X1921892Y1721734D03*
X1907129D03*
X1935950D03*
G54D40*
X1921936Y1706431D03*
Y1712431D03*
X1935836Y1706431D03*
Y1712431D03*
G54D41*
X1877225Y1577181D03*
Y1588181D03*
X1878511Y1620746D03*
Y1609746D03*
X1896097Y1691959D03*
Y1702959D03*
X1881923Y1691959D03*
Y1702959D03*
G54D42*
X1988326Y1528595D03*
Y1524658D03*
X1984795Y1528637D03*
Y1524700D03*
X1980832Y1585886D03*
Y1589823D03*
X1979848Y1528799D03*
Y1524862D03*
X1977781Y1589855D03*
Y1585918D03*
X1976501Y1528799D03*
Y1524862D03*
X1972958Y1528799D03*
Y1524862D03*
X1962722Y1528799D03*
Y1524862D03*
X1960338Y1585752D03*
Y1589689D03*
X1947553Y1542308D03*
Y1546245D03*
X1937746Y1571037D03*
Y1574974D03*
X1923942Y1551563D03*
Y1547626D03*
Y1542626D03*
Y1538689D03*
Y1534160D03*
Y1530223D03*
X1916850Y1624431D03*
Y1628369D03*
X1926517Y1709960D03*
Y1706023D03*
X1940354Y1709754D03*
Y1705817D03*
X1867034Y1642934D03*
Y1646871D03*
X1914458Y1660715D03*
Y1656778D03*
Y1668983D03*
Y1665046D03*
X1902084Y1675352D03*
Y1679289D03*
X1898084D03*
Y1675352D03*
X1867034Y1651434D03*
Y1655371D03*
G54D43*
X1886498Y1720373D03*
G54D44*
X1904006Y1643833D03*
Y1638872D03*
X1873368Y1643346D03*
Y1648307D03*
X1904750Y1663120D03*
Y1668080D03*
X1886350Y1675420D03*
Y1680380D03*
X1880250D03*
Y1675420D03*
X1874250D03*
Y1680380D03*
G54D45*
X2014959Y1558716D03*
X2011022D03*
Y1555370D03*
X2014959D03*
X2004506Y1546478D03*
X2008443D03*
X2003991Y1572815D03*
X2007928D03*
X1946580Y1564626D03*
X1942643D03*
X1940309Y1523640D03*
X1944246D03*
X1920005Y1551834D03*
X1916068D03*
X1920005Y1542894D03*
X1916068D03*
X1920005Y1534423D03*
X1916068D03*
X1916580Y1569447D03*
X1912643D03*
X1912581Y1566175D03*
X1916518D03*
Y1563005D03*
X1912581D03*
X1916441Y1559720D03*
X1912504D03*
X1875419Y1664800D03*
X1871481D03*
G54D46*
X2010985Y1563047D03*
X2015945D03*
X1963189Y1518993D03*
X1968149D03*
X1915005Y1547864D03*
X1919966D03*
X1915005Y1538963D03*
X1919966D03*
X1915005Y1530439D03*
X1919966D03*
X1881076Y1597318D03*
X1876115D03*
G54D47*
X1941168Y1541398D03*
Y1547697D03*
G54D48*
X1892379Y1596228D03*
Y1587173D03*
Y1578118D03*
G54D49*
X1911277Y1587173D03*
G54D50*
X2014690Y1600551D03*
Y1605472D03*
Y1610394D03*
Y1615315D03*
Y1620236D03*
Y1625157D03*
Y1658307D03*
Y1663228D03*
Y1668150D03*
Y1673071D03*
Y1677992D03*
X1857210Y1617283D03*
Y1612362D03*
Y1607441D03*
Y1602520D03*
Y1597598D03*
Y1592677D03*
Y1666496D03*
Y1661575D03*
Y1656654D03*
Y1651732D03*
G54D51*
X2026107Y1590512D03*
Y1635197D03*
Y1648268D03*
Y1688031D03*
X1845793Y1627323D03*
Y1582638D03*
Y1676535D03*
Y1641693D03*
G54D52*
X1864150Y1688953D03*
Y1703047D03*
G54D53*
X1960753Y1535098D03*
X1962722D03*
X1964690D03*
X1966659D03*
X1968627D03*
X1970596D03*
X1972564D03*
X1974533D03*
X1976501D03*
X1978470D03*
X1980438D03*
X1982407D03*
X1984375D03*
X1986344D03*
X1988312D03*
X1990281D03*
Y1580374D03*
X1988312D03*
X1986344D03*
X1984375D03*
X1982407D03*
X1980438D03*
X1978470D03*
X1976501D03*
X1974533D03*
X1972564D03*
X1970596D03*
X1968627D03*
X1966659D03*
X1964690D03*
X1962722D03*
X1960753D03*
G54D54*
X1998155Y1542972D03*
Y1544941D03*
Y1546909D03*
Y1548878D03*
Y1550846D03*
Y1552815D03*
Y1554783D03*
Y1556752D03*
Y1558720D03*
Y1560689D03*
Y1562657D03*
Y1564626D03*
Y1566594D03*
Y1568563D03*
Y1570531D03*
Y1572500D03*
X1952879D03*
Y1570531D03*
Y1568563D03*
Y1566594D03*
Y1564626D03*
Y1562657D03*
Y1560689D03*
Y1558720D03*
Y1556752D03*
Y1554783D03*
Y1552815D03*
Y1550846D03*
Y1548878D03*
Y1546909D03*
Y1544941D03*
Y1542972D03*
G54D55*
X1932773Y1572499D03*
X1925293D03*
X1929033Y1563838D03*
G54D56*
X1881361Y1563257D03*
X1897761D03*
X1881361Y1558257D03*
X1897761D03*
X1881361Y1553257D03*
X1897761D03*
X1881361Y1548257D03*
X1897761D03*
X1881361Y1543257D03*
X1897761D03*
G54D57*
X1939159Y1529096D03*
X1945556D03*
Y1533919D03*
X1939159D03*
G54D59*
X1980241Y1627854D03*
X1931029D03*
X1980241Y1597854D03*
X1931029D03*
X1980241Y1679035D03*
X1931029D03*
X1980241Y1649035D03*
X1931029D03*
G54D60*
X1903947Y1630964D03*
X1891073D03*
G54D61*
X1908219Y1613436D03*
X1890109D03*
G54D62*
X1897387Y1664773D03*
X1894828D03*
X1892269D03*
X1889710D03*
X1887151D03*
X1884592D03*
X1882033D03*
X1879474D03*
Y1641387D03*
X1882033D03*
X1884592D03*
X1887151D03*
X1889710D03*
X1892269D03*
X1894828D03*
X1897387D03*
G54D63*
X1888430Y1653080D03*
G54D68*
X1795450Y1779900D02*
X1767650D01*
Y1754400*
X2232350Y1750900D02*
Y1780300D01*
X2206850*
X2199050Y1419700D02*
X2226850D01*
Y1445200*
X1768450Y1449800D02*
Y1420400D01*
X1793950*
X0Y0D02*
M02*
