*
*
G04 PADS VX.2.4 Build Number: 12858991 generated Gerber (RS-274-X) file*
G04 PC Version=2.1*
*
%IN "FT2_1.pcb"*%
*
%MOIN*%
*
%FSLAX35Y35*%
*
*
*
*
G04 PC Standard Apertures*
*
*
G04 Thermal Relief Aperture macro.*
%AMTER*
1,1,$1,0,0*
1,0,$1-$2,0,0*
21,0,$3,$4,0,0,45*
21,0,$3,$4,0,0,135*
%
*
*
G04 Annular Aperture macro.*
%AMANN*
1,1,$1,0,0*
1,0,$2,0,0*
%
*
*
G04 Odd Aperture macro.*
%AMODD*
1,1,$1,0,0*
1,0,$1-0.005,0,0*
%
*
*
G04 PC Custom Aperture Macros*
*
*
*
*
*
*
G04 PC Aperture Table*
*
%ADD010C,0.001*%
%ADD015C,0.00591*%
%ADD029C,0.00984*%
%ADD044C,0.01969*%
%ADD105C,0*%
%ADD108O,0.01575X0.0315*%
%ADD109O,0.0315X0.01575*%
*
*
*
*
G04 PC Circuitry*
G04 Layer Name FT2_1.pcb - circuitry*
%LPD*%
*
*
G04 PC Custom Flashes*
G04 Layer Name FT2_1.pcb - flashes*
%LPD*%
*
*
G04 PC Circuitry*
G04 Layer Name FT2_1.pcb - circuitry*
%LPD*%
*
G54D10*
G54D15*
G01X564173Y448253D02*
Y445669D01*
Y448253D02*
X563010D01*
X564173Y447023D02*
X563457D01*
X561578Y448253D02*
Y445669D01*
X562205Y448253D02*
X560952D01*
X560057Y447638D02*
Y447761D01*
X559968Y448007*
X559878Y448130*
X559699Y448253*
X559341*
X559162Y448130*
X559073Y448007*
X558984Y447761*
Y447515*
X559073Y447269*
X559252Y446900*
X560147Y445669*
X558894*
X558089Y446777D02*
X556478D01*
X555673Y447761D02*
X555494Y447884D01*
X555225Y448253*
Y445669*
X554420Y445177D02*
X552541D01*
X552004Y447761D02*
X551825Y447884D01*
X551557Y448253*
Y445669*
X550573Y448253D02*
X549588D01*
X550125Y447269*
X549857*
X549678Y447146*
X549588Y447023*
X549499Y446654*
Y446407*
X549588Y446038*
X549767Y445792*
X550036Y445669*
X550304*
X550573Y445792*
X550662Y445915*
X550752Y446161*
X548246Y448253D02*
X548515Y448130D01*
X548604Y447884*
Y447638*
X548515Y447392*
X548336Y447269*
X547978Y447146*
X547709Y447023*
X547530Y446777*
X547441Y446531*
Y446161*
X547530Y445915*
X547620Y445792*
X547888Y445669*
X548246*
X548515Y445792*
X548604Y445915*
X548694Y446161*
Y446531*
X548604Y446777*
X548425Y447023*
X548157Y447146*
X547799Y447269*
X547620Y447392*
X547530Y447638*
Y447884*
X547620Y448130*
X547888Y448253*
X548246*
X545472D02*
X546367D01*
X546457Y447146*
X546367Y447269*
X546099Y447392*
X545830*
X545562Y447269*
X545383Y447023*
X545293Y446654*
X545383Y446407*
X545472Y446038*
X545651Y445792*
X545920Y445669*
X546188*
X546457Y445792*
X546546Y445915*
X546636Y446161*
X544309Y448253D02*
X543325D01*
X543862Y447269*
X543593*
X543414Y447146*
X543325Y447023*
X543236Y446654*
Y446407*
X543325Y446038*
X543504Y445792*
X543772Y445669*
X544041*
X544309Y445792*
X544399Y445915*
X544488Y446161*
X542430Y445177D02*
X540551D01*
X539477Y448253D02*
X539746Y448130D01*
X539925Y447761*
X540014Y447146*
Y446777*
X539925Y446161*
X539746Y445792*
X539477Y445669*
X539298*
X539030Y445792*
X538851Y446161*
X538762Y446777*
Y447146*
X538851Y447761*
X539030Y448130*
X539298Y448253*
X539477*
X537956Y445177D02*
X536077D01*
X534288Y447884D02*
X534467Y448130D01*
X534735Y448253*
X535093*
X535361Y448130*
X535540Y447884*
Y447638*
X535451Y447392*
X535361Y447269*
X535183Y447146*
X534646Y446900*
X534467Y446777*
X534377Y446654*
X534288Y446407*
Y446038*
X534467Y445792*
X534735Y445669*
X535093*
X535361Y445792*
X535540Y446038*
X532946Y448253D02*
X533125Y448130D01*
X533304Y447884*
X533393Y447638*
X533482Y447269*
Y446654*
X533393Y446284*
X533304Y446038*
X533125Y445792*
X532946Y445669*
X532588*
X532409Y445792*
X532230Y446038*
X532140Y446284*
X532051Y446654*
Y447269*
X532140Y447638*
X532230Y447884*
X532409Y448130*
X532588Y448253*
X532946*
X531246D02*
Y445669D01*
X530172*
X529366Y448253D02*
Y445669D01*
Y448253D02*
X528740D01*
X528472Y448130*
X528293Y447884*
X528203Y447638*
X528114Y447269*
Y446654*
X528203Y446284*
X528293Y446038*
X528472Y445792*
X528740Y445669*
X529366*
X527309Y448253D02*
Y445669D01*
Y448253D02*
X526145D01*
X527309Y447023D02*
X526593D01*
X527309Y445669D02*
X526145D01*
X525340Y448253D02*
Y445669D01*
Y448253D02*
X524535D01*
X524266Y448130*
X524177Y448007*
X524087Y447761*
Y447515*
X524177Y447269*
X524266Y447146*
X524535Y447023*
X525340*
X524714D02*
X524087Y445669D01*
X523282Y445177D02*
X521403D01*
X520866Y448253D02*
Y445669D01*
Y448253D02*
X520150Y445669D01*
X519435Y448253D02*
X520150Y445669D01*
X519435Y448253D02*
Y445669D01*
X517913Y448253D02*
X518629Y445669D01*
X517913Y448253D02*
X517198Y445669D01*
X518361Y446531D02*
X517466D01*
X515140Y447884D02*
X515319Y448130D01*
X515587Y448253*
X515945*
X516213Y448130*
X516392Y447884*
Y447638*
X516303Y447392*
X516213Y447269*
X516034Y447146*
X515497Y446900*
X515319Y446777*
X515229Y446654*
X515140Y446407*
Y446038*
X515319Y445792*
X515587Y445669*
X515945*
X516213Y445792*
X516392Y446038*
X514334Y448253D02*
Y445669D01*
X513082Y448253D02*
X514334Y446531D01*
X513887Y447146D02*
X513082Y445669D01*
X512276Y445177D02*
X510397D01*
X509860Y448253D02*
Y445669D01*
Y448253D02*
X509055D01*
X508787Y448130*
X508697Y448007*
X508608Y447761*
Y447515*
X508697Y447269*
X508787Y447146*
X509055Y447023*
X509860D02*
X509055D01*
X508787Y446900*
X508697Y446777*
X508608Y446531*
Y446161*
X508697Y445915*
X508787Y445792*
X509055Y445669*
X509860*
X507266Y448253D02*
X507445Y448130D01*
X507623Y447884*
X507713Y447638*
X507802Y447269*
Y446654*
X507713Y446284*
X507623Y446038*
X507445Y445792*
X507266Y445669*
X506908*
X506729Y445792*
X506550Y446038*
X506460Y446284*
X506371Y446654*
Y447269*
X506460Y447638*
X506550Y447884*
X506729Y448130*
X506908Y448253*
X507266*
X504939D02*
Y445669D01*
X505565Y448253D02*
X504313D01*
G54D29*
X431890Y379523D02*
Y380861D01*
X433465*
Y379523*
X431890*
X433465*
X431890Y380507D02*
X433465D01*
X432087Y379523D02*
Y380861D01*
X433071Y379523D02*
Y380861D01*
X431890Y382909D02*
Y384247D01*
X433465*
Y382909*
X431890*
X433465*
X431890Y383893D02*
X433465D01*
X432087Y382909D02*
Y384247D01*
X433071Y382909D02*
Y384247D01*
X431890Y371649D02*
Y372987D01*
X433465*
Y371649*
X431890*
X433465*
X431890Y372633D02*
X433465D01*
X432087Y371649D02*
Y372987D01*
X433071Y371649D02*
Y372987D01*
X431890Y375034D02*
Y376373D01*
X433465*
Y375034*
X431890*
X433465*
X431890Y376019D02*
X433465D01*
X432087Y375034D02*
Y376373D01*
X433071Y375034D02*
Y376373D01*
G54D44*
X416299Y374916D02*
Y382003D01*
X423386*
Y374916*
X416299*
X423386*
X416299Y376885D02*
X423386D01*
X416299Y378853D02*
X423386D01*
X416299Y380822D02*
X423386D01*
X417323Y374916D02*
Y382003D01*
X419291Y374916D02*
Y382003D01*
X421260Y374916D02*
Y382003D01*
X423228Y374916D02*
Y382003D01*
G54D105*
X457634Y405512D02*
G75*
G03X445823I-5906J-0D01*
G01X445028Y404546D02*
G03X445823Y405512I-190J966D01*
G01X444870Y404528D02*
G03X445028Y404546I0J684D01*
G01X444870Y404528D02*
X443660D01*
X443660D02*
X443053D01*
X442068Y405512D02*
G03X443053Y404528I985J-0D01*
G01X447058Y417649D02*
G03X442068Y405512I12265J-12137D01*
G01X447768Y418327D02*
G03X447056Y417647I-361J-335D01*
G01X459323Y422767D02*
G03X447778Y418335I0J-17255D01*
G01X459323Y422767D02*
Y437224D01*
Y437225D02*
G03X459026Y437933I-1005J-6D01*
X458322Y438208I-680J-702*
G01X458296Y438207D02*
G03X436806Y429240I1027J-32695D01*
G01X436125Y428575D02*
G03X436829Y429262I349J346D01*
G01X436112Y428561D02*
G03X426612Y405512I23211J-23049D01*
G01X425628Y404528D02*
G03X426612Y405512I-0J984D01*
G01X425628Y404528D02*
X425564D01*
X424880*
X423425*
X422441Y405512D02*
G03X423425Y404528I984J-0D01*
G01X422521Y405907D02*
G03X422441Y405511I882J-384D01*
G01X422743Y406223D02*
G03X422521Y405907I710J-735D01*
G01X423055Y406433D02*
G03X422743Y406223I399J-932D01*
G01X423425Y406504D02*
G03X423056Y406433I-11J-938D01*
G01X423425Y406504D02*
X424409D01*
Y432202*
X424055Y432353D02*
G03X424410Y432202I349J325D01*
G01X423917Y432698D02*
G03X424055Y432353I474J-10D01*
G01X424063Y433050D02*
G03X423917Y432698I335J-345D01*
G01X424409Y433194D02*
G03X424063Y433050I-7J-472D01*
G01X424409Y433194D02*
Y459090D01*
Y469917*
G03X423425Y470901I-984J-0*
G01X394685*
G03X393701Y469917I0J-984*
G01Y465488*
Y464503D02*
G03Y465488I-0J492D01*
G01Y464503D02*
Y459090D01*
Y433194*
X394055Y433042D02*
G03X393701Y433194I-349J-326D01*
G01X394193Y432697D02*
G03X394055Y433042I-475J10D01*
G01X394047Y432346D02*
G03X394193Y432698I-335J344D01*
G01X393701Y432202D02*
G03X394048Y432346I7J471D01*
G01X393701Y432202D02*
Y405512D01*
Y400098*
Y399114D02*
G03Y400098I-0J492D01*
G01Y399114D02*
Y398425D01*
G03X394685Y397441I984J0*
G01X397441*
X398425Y396457D02*
G03X397441Y397441I-984J-0D01*
G01X398425Y396457D02*
Y396063D01*
Y394011*
Y383184*
G03X399409Y382200I984J0*
G01X401575*
Y374326D02*
G03Y382200I-0J3937D01*
G01Y374326D02*
X395472D01*
G03X394488Y373342I0J-984*
G01Y367042*
G03X395472Y366058I984J0*
G01X426508*
G03X427000Y366190I-0J984*
G01X436122Y371457*
G03X436614Y372309I-492J852*
G01Y384217*
G03X436122Y385069I-984J-0*
G01X427000Y390336*
G03X426508Y390468I-492J-853*
G01X424016*
X420866Y393617D02*
G03X424016Y390468I3150J0D01*
G01X420866Y393617D02*
Y394011D01*
Y396063*
Y396457*
X422835D02*
G03X420866I-985J-0D01*
G01X422835D02*
Y394685D01*
G03X423819Y393701I984J0*
G01X424880*
X425564*
X434303*
X435287D02*
G03X434303I-492J-0D01*
G01X435287D02*
X443660D01*
X443660D02*
X445028D01*
X458429*
X459797*
X468169*
X469154D02*
G03X468169I-493J-0D01*
G01X469154D02*
X476087D01*
G03X477072Y394685I0J984*
G01Y403543*
G03X476087Y404528I-985J0*
G01X459797*
X458586*
X458429Y404546D02*
G03X458586Y404528I157J666D01*
G01X457634Y405512D02*
G03X458428Y404546I984J-0D01*
G54D108*
G01X414921Y386334D03*
X416890D03*
X418858D03*
X420827D03*
X422795D03*
X424764D03*
Y370586D03*
X422795D03*
X420827D03*
X418858D03*
X416890D03*
X414921D03*
G54D109*
X427717Y383381D03*
Y381412D03*
Y379444D03*
Y377475D03*
Y375507D03*
Y373538D03*
X411969D03*
Y375507D03*
Y377475D03*
Y379444D03*
Y381412D03*
Y383381D03*
G74*
X0Y0D02*
M02*
