*
*
G04 PADS Layout (Build Number 2007.42.1) generated Gerber (RS-274-X) file*
G04 PC Version=2.1*
*
%IN "TMSBASE-001.pcb"*%
*
%MOIN*%
*
%FSLAX35Y35*%
*
*
*
*
G04 PC Standard Apertures*
*
*
G04 Thermal Relief Aperture macro.*
%AMTER*
1,1,$1,0,0*
1,0,$1-$2,0,0*
21,0,$3,$4,0,0,45*
21,0,$3,$4,0,0,135*
%
*
*
G04 Annular Aperture macro.*
%AMANN*
1,1,$1,0,0*
1,0,$2,0,0*
%
*
*
G04 Odd Aperture macro.*
%AMODD*
1,1,$1,0,0*
1,0,$1-0.005,0,0*
%
*
*
G04 PC Custom Aperture Macros*
*
*
*
*
*
*
G04 PC Aperture Table*
*
%ADD010C,0.01*%
%ADD102C,0.06299*%
%ADD143R,0.02794X0.02794*%
%ADD162R,0.0315X0.0315*%
%ADD163R,0.08661X0.08661*%
%ADD176R,0.06299X0.06299*%
%ADD192C,0.00004*%
*
*
*
*
G04 PC Copper Outlines (0)*
G04 Layer Name TMSBASE-001.pcb - dark (0)*
%LPD*%
*
*
G04 PC Area=Custom_Thermal*
*
G04 PC Custom Flashes*
G04 Layer Name TMSBASE-001.pcb - flashes*
%LPD*%
*
*
G04 PC Circuitry*
G04 Layer Name TMSBASE-001.pcb - circuitry*
%LPD*%
*
G54D10*
G01X10081Y106505D02*
X9627Y107130D01*
X8945Y107442*
X8036*
X7354Y107130*
X6900Y106505*
Y105880*
X7127Y105255*
X7354Y104942*
X7809Y104630*
X9172Y104005*
X9627Y103692*
X9854Y103380*
X10081Y102755*
Y101817*
X9627Y101192*
X8945Y100880*
X8036*
X7354Y101192*
X6900Y101817*
X12127Y107442D02*
Y102755D01*
X12354Y101817*
X12809Y101192*
X13491Y100880*
X13945*
X14627Y101192*
X15081Y101817*
X15309Y102755*
Y107442*
X17354D02*
Y100880D01*
Y107442D02*
X19400D01*
X20081Y107130*
X20309Y106817*
X20536Y106192*
Y105255*
X20309Y104630*
X20081Y104317*
X19400Y104005*
X17354*
X22581Y107442D02*
Y100880D01*
Y107442D02*
X25536D01*
X22581Y104317D02*
X24400D01*
X22581Y100880D02*
X25536D01*
X27581Y107442D02*
Y100880D01*
Y107442D02*
X29627D01*
X30309Y107130*
X30536Y106817*
X30763Y106192*
Y105567*
X30536Y104942*
X30309Y104630*
X29627Y104317*
X27581*
X29172D02*
X30763Y100880D01*
X32809Y107442D02*
Y100880D01*
Y107442D02*
X35763D01*
X32809Y104317D02*
X34627D01*
X37809Y107442D02*
Y100880D01*
X43263Y105880D02*
X43036Y106505D01*
X42581Y107130*
X42127Y107442*
X41218*
X40763Y107130*
X40309Y106505*
X40081Y105880*
X39854Y104942*
Y103380*
X40081Y102442*
X40309Y101817*
X40763Y101192*
X41218Y100880*
X42127*
X42581Y101192*
X43036Y101817*
X43263Y102442*
X45309Y107442D02*
Y100880D01*
X49172Y107442D02*
X47354Y100880D01*
X49172Y107442D02*
X50991Y100880D01*
X48036Y103067D02*
X50309D01*
X53036Y107442D02*
Y100880D01*
X55763*
X63036Y107442D02*
Y100880D01*
Y107442D02*
X65991D01*
X63036Y104317D02*
X64854D01*
X68036Y107442D02*
Y100880D01*
X70081Y107442D02*
Y100880D01*
Y107442D02*
X73263Y100880D01*
Y107442D02*
Y100880D01*
X75309Y107442D02*
Y100880D01*
X80536Y106505D02*
X80081Y107130D01*
X79400Y107442*
X78491*
X77809Y107130*
X77354Y106505*
Y105880*
X77581Y105255*
X77809Y104942*
X78263Y104630*
X79627Y104005*
X80081Y103692*
X80309Y103380*
X80536Y102755*
Y101817*
X80081Y101192*
X79400Y100880*
X78491*
X77809Y101192*
X77354Y101817*
X82581Y107442D02*
Y100880D01*
X85763Y107442D02*
Y100880D01*
X82581Y104317D02*
X85763D01*
X87809Y107442D02*
Y100880D01*
X89854Y107442D02*
Y100880D01*
Y107442D02*
X93036Y100880D01*
Y107442D02*
Y100880D01*
X98491Y105880D02*
X98263Y106505D01*
X97809Y107130*
X97354Y107442*
X96445*
X95991Y107130*
X95536Y106505*
X95309Y105880*
X95081Y104942*
Y103380*
X95309Y102442*
X95536Y101817*
X95991Y101192*
X96445Y100880*
X97354*
X97809Y101192*
X98263Y101817*
X98491Y102442*
Y103380*
X97354D02*
X98491D01*
X105763Y107442D02*
Y100880D01*
Y107442D02*
X108945Y100880D01*
Y107442D02*
Y100880D01*
X110991Y107442D02*
Y100880D01*
X113036Y103692D02*
X117127D01*
X120991Y107442D02*
X119172Y100880D01*
X120991Y107442D02*
X122809Y100880D01*
X119854Y103067D02*
X122127D01*
X124854Y107442D02*
Y102755D01*
X125081Y101817*
X125536Y101192*
X126218Y100880*
X126672*
X127354Y101192*
X127809Y101817*
X128036Y102755*
Y107442*
X6900Y119253D02*
Y112691D01*
Y119253D02*
X8945D01*
X9627Y118941*
X9854Y118628*
X10081Y118003*
Y117378*
X9854Y116753*
X9627Y116441*
X8945Y116128*
X6900D02*
X8945D01*
X9627Y115816*
X9854Y115503*
X10081Y114878*
Y113941*
X9854Y113316*
X9627Y113003*
X8945Y112691*
X6900*
X13491Y119253D02*
X13036Y118941D01*
X12581Y118316*
X12354Y117691*
X12127Y116753*
Y115191*
X12354Y114253*
X12581Y113628*
X13036Y113003*
X13491Y112691*
X14400*
X14854Y113003*
X15309Y113628*
X15536Y114253*
X15763Y115191*
Y116753*
X15536Y117691*
X15309Y118316*
X14854Y118941*
X14400Y119253*
X13491*
X19627D02*
X17809Y112691D01*
X19627Y119253D02*
X21445Y112691D01*
X18491Y114878D02*
X20763D01*
X23491Y119253D02*
Y112691D01*
Y119253D02*
X25536D01*
X26218Y118941*
X26445Y118628*
X26672Y118003*
Y117378*
X26445Y116753*
X26218Y116441*
X25536Y116128*
X23491*
X25081D02*
X26672Y112691D01*
X28718Y119253D02*
Y112691D01*
Y119253D02*
X30309D01*
X30991Y118941*
X31445Y118316*
X31672Y117691*
X31900Y116753*
Y115191*
X31672Y114253*
X31445Y113628*
X30991Y113003*
X30309Y112691*
X28718*
X40763Y119253D02*
Y112691D01*
X39172Y119253D02*
X42354D01*
X44400D02*
Y112691D01*
X47581Y119253D02*
Y112691D01*
X44400Y116128D02*
X47581D01*
X49627Y119253D02*
Y112691D01*
X55081Y117691D02*
X54854Y118316D01*
X54400Y118941*
X53945Y119253*
X53036*
X52581Y118941*
X52127Y118316*
X51900Y117691*
X51672Y116753*
Y115191*
X51900Y114253*
X52127Y113628*
X52581Y113003*
X53036Y112691*
X53945*
X54400Y113003*
X54854Y113628*
X55081Y114253*
X57127Y119253D02*
Y112691D01*
X60309Y119253D02*
X57127Y114878D01*
X58263Y116441D02*
X60309Y112691D01*
X62354Y119253D02*
Y112691D01*
Y119253D02*
X65536Y112691D01*
Y119253D02*
Y112691D01*
X67581Y119253D02*
Y112691D01*
Y119253D02*
X70536D01*
X67581Y116128D02*
X69400D01*
X67581Y112691D02*
X70536D01*
X75763Y118316D02*
X75309Y118941D01*
X74627Y119253*
X73718*
X73036Y118941*
X72581Y118316*
Y117691*
X72809Y117066*
X73036Y116753*
X73491Y116441*
X74854Y115816*
X75309Y115503*
X75536Y115191*
X75763Y114566*
Y113628*
X75309Y113003*
X74627Y112691*
X73718*
X73036Y113003*
X72581Y113628*
X80991Y118316D02*
X80536Y118941D01*
X79854Y119253*
X78945*
X78263Y118941*
X77809Y118316*
Y117691*
X78036Y117066*
X78263Y116753*
X78718Y116441*
X80081Y115816*
X80536Y115503*
X80763Y115191*
X80991Y114566*
Y113628*
X80536Y113003*
X79854Y112691*
X78945*
X78263Y113003*
X77809Y113628*
X88263Y118003D02*
X88718Y118316D01*
X89400Y119253*
Y112691*
X91672Y113316D02*
X91445Y113003D01*
X91672Y112691*
X91900Y113003*
X91672Y113316*
X96672Y118316D02*
X96445Y118941D01*
X95763Y119253*
X95309*
X94627Y118941*
X94172Y118003*
X93945Y116441*
Y114878*
X94172Y113628*
X94627Y113003*
X95309Y112691*
X95536*
X96218Y113003*
X96672Y113628*
X96900Y114566*
Y114878*
X96672Y115816*
X96218Y116441*
X95536Y116753*
X95309*
X94627Y116441*
X94172Y115816*
X93945Y114878*
X128419Y117691D02*
X128192Y118316D01*
X127737Y118941*
X127283Y119253*
X126373*
X125919Y118941*
X125464Y118316*
X125237Y117691*
X125010Y116753*
Y115191*
X125237Y114253*
X125464Y113628*
X125919Y113003*
X126373Y112691*
X127283*
X127737Y113003*
X128192Y113628*
X128419Y114253*
X131828Y119253D02*
X131373Y118941D01*
X130919Y118316*
X130692Y117691*
X130464Y116753*
Y115191*
X130692Y114253*
X130919Y113628*
X131373Y113003*
X131828Y112691*
X132737*
X133192Y113003*
X133646Y113628*
X133873Y114253*
X134101Y115191*
Y116753*
X133873Y117691*
X133646Y118316*
X133192Y118941*
X132737Y119253*
X131828*
X136146D02*
Y112691D01*
Y119253D02*
X138192D01*
X138873Y118941*
X139101Y118628*
X139328Y118003*
Y117066*
X139101Y116441*
X138873Y116128*
X138192Y115816*
X136146*
X141373Y119253D02*
Y112691D01*
Y119253D02*
X143419D01*
X144101Y118941*
X144328Y118628*
X144555Y118003*
Y117066*
X144328Y116441*
X144101Y116128*
X143419Y115816*
X141373*
X146601Y119253D02*
Y112691D01*
Y119253D02*
X149555D01*
X146601Y116128D02*
X148419D01*
X146601Y112691D02*
X149555D01*
X151601Y119253D02*
Y112691D01*
Y119253D02*
X153646D01*
X154328Y118941*
X154555Y118628*
X154783Y118003*
Y117378*
X154555Y116753*
X154328Y116441*
X153646Y116128*
X151601*
X153192D02*
X154783Y112691D01*
X163646Y119253D02*
Y112691D01*
X162055Y119253D02*
X165237D01*
X167283D02*
Y112691D01*
X170464Y119253D02*
Y112691D01*
X167283Y116128D02*
X170464D01*
X172510Y119253D02*
Y112691D01*
X177964Y117691D02*
X177737Y118316D01*
X177283Y118941*
X176828Y119253*
X175919*
X175464Y118941*
X175010Y118316*
X174783Y117691*
X174555Y116753*
Y115191*
X174783Y114253*
X175010Y113628*
X175464Y113003*
X175919Y112691*
X176828*
X177283Y113003*
X177737Y113628*
X177964Y114253*
X180010Y119253D02*
Y112691D01*
X183192Y119253D02*
X180010Y114878D01*
X181146Y116441D02*
X183192Y112691D01*
X185237Y119253D02*
Y112691D01*
Y119253D02*
X188419Y112691D01*
Y119253D02*
Y112691D01*
X190464Y119253D02*
Y112691D01*
Y119253D02*
X193419D01*
X190464Y116128D02*
X192283D01*
X190464Y112691D02*
X193419D01*
X198646Y118316D02*
X198192Y118941D01*
X197510Y119253*
X196601*
X195919Y118941*
X195464Y118316*
Y117691*
X195692Y117066*
X195919Y116753*
X196373Y116441*
X197737Y115816*
X198192Y115503*
X198419Y115191*
X198646Y114566*
Y113628*
X198192Y113003*
X197510Y112691*
X196601*
X195919Y113003*
X195464Y113628*
X203873Y118316D02*
X203419Y118941D01*
X202737Y119253*
X201828*
X201146Y118941*
X200692Y118316*
Y117691*
X200919Y117066*
X201146Y116753*
X201601Y116441*
X202964Y115816*
X203419Y115503*
X203646Y115191*
X203873Y114566*
Y113628*
X203419Y113003*
X202737Y112691*
X201828*
X201146Y113003*
X200692Y113628*
X211146Y118003D02*
X211601Y118316D01*
X212283Y119253*
Y112691*
X217510Y119253D02*
X215237Y112691D01*
X214328Y119253D02*
X217510D01*
X224783Y117066D02*
Y113941D01*
X225010Y113003*
X225464Y112691*
X226146*
X226601Y113003*
X227283Y113941*
Y117066D02*
Y112691D01*
X229328Y117066D02*
Y112691D01*
Y115816D02*
X230010Y116753D01*
X230464Y117066*
X231146*
X231601Y116753*
X231828Y115816*
Y112691*
Y115816D02*
X232510Y116753D01*
X232964Y117066*
X233646*
X234101Y116753*
X234328Y115816*
Y112691*
X7156Y22973D02*
X6702Y23598D01*
X6020Y23911*
X5111*
X4429Y23598*
X3974Y22973*
Y22348*
X4202Y21723*
X4429Y21411*
X4884Y21098*
X4884D02*
X6247Y20473D01*
X6702Y20161*
X6929Y19848*
X7156Y19223*
Y18286*
X6702Y17661*
X6020Y17348*
X5111*
X4429Y17661*
X3974Y18286*
X10565Y23911D02*
X10111Y23598D01*
X9656Y22973*
X9429Y22348*
X9202Y21411*
Y19848*
X9429Y18911*
X9656Y18286*
X10111Y17661*
X10565Y17348*
X11474*
X11929Y17661*
X12384Y18286*
X12384D02*
X12611Y18911D01*
X12838Y19848*
Y21411*
X12611Y22348*
X12384Y22973*
X12384D02*
X11929Y23598D01*
X11474Y23911*
X10565*
X14884D02*
Y17348D01*
X14884D02*
X17611D01*
X19656Y23911D02*
Y17348D01*
Y23911D02*
X21247D01*
X21929Y23598*
X22384Y22973*
X22384D02*
X22611Y22348D01*
X22838Y21411*
Y19848*
X22611Y18911*
X22384Y18286*
X22384D02*
X21929Y17661D01*
X21247Y17348*
X19656*
X24884Y23911D02*
Y17348D01*
Y23911D02*
X27838D01*
X24884Y20786D02*
X26702D01*
X24884Y17348D02*
X27838D01*
X29884Y23911D02*
Y17348D01*
Y23911D02*
X31929D01*
X32611Y23598*
X32838Y23286*
X33065Y22661*
Y22036*
X32838Y21411*
X32611Y21098*
X31929Y20786*
X29884*
X31474D02*
X33065Y17348D01*
X40338Y23911D02*
Y17348D01*
Y23911D02*
X42156Y17348D01*
X43974Y23911D02*
X42156Y17348D01*
X43974Y23911D02*
Y17348D01*
X47838Y23911D02*
X46020Y17348D01*
X47838Y23911D02*
X49656Y17348D01*
X46702Y19536D02*
X48974D01*
X54884Y22973D02*
X54429Y23598D01*
X53747Y23911*
X52838*
X52156Y23598*
X51702Y22973*
Y22348*
X51929Y21723*
X52156Y21411*
X52611Y21098*
X53974Y20473*
X54429Y20161*
X54656Y19848*
X54884Y19223*
X54884D02*
Y18286D01*
X54884D02*
X54429Y17661D01*
X53747Y17348*
X52838*
X52156Y17661*
X51702Y18286*
X56929Y23911D02*
Y17348D01*
X60111Y23911D02*
X56929Y19536D01*
X58065Y21098D02*
X60111Y17348D01*
X67384Y23911D02*
Y17348D01*
Y23911D02*
X69429D01*
X70111Y23598*
X70338Y23286*
X70565Y22661*
Y22036*
X70338Y21411*
X70111Y21098*
X69429Y20786*
X67384D02*
X69429D01*
X70111Y20473*
X70338Y20161*
X70565Y19536*
Y18598*
X70338Y17973*
X70111Y17661*
X69429Y17348*
X67384*
X73974Y23911D02*
X73520Y23598D01*
X73065Y22973*
X72838Y22348*
X72611Y21411*
Y19848*
X72838Y18911*
X73065Y18286*
X73520Y17661*
X73974Y17348*
X74884*
X74884D02*
X75338Y17661D01*
X75793Y18286*
X76020Y18911*
X76247Y19848*
Y21411*
X76020Y22348*
X75793Y22973*
X75338Y23598*
X74884Y23911*
X74884D02*
X73974D01*
X79884D02*
Y17348D01*
X78293Y23911D02*
X81474D01*
X85111D02*
Y17348D01*
X83520Y23911D02*
X86702D01*
X90111D02*
X89656Y23598D01*
X89202Y22973*
X88974Y22348*
X88747Y21411*
Y19848*
X88974Y18911*
X89202Y18286*
X89656Y17661*
X90111Y17348*
X91020*
X91474Y17661*
X91929Y18286*
X92156Y18911*
X92384Y19848*
X92384D02*
Y21411D01*
X92384D02*
X92156Y22348D01*
X91929Y22973*
X91474Y23598*
X91020Y23911*
X90111*
X94429D02*
Y17348D01*
Y23911D02*
X96247Y17348D01*
X98065Y23911D02*
X96247Y17348D01*
X98065Y23911D02*
Y17348D01*
X108520Y22973D02*
X108065Y23598D01*
X107384Y23911*
X107384D02*
X106474D01*
X105793Y23598*
X105338Y22973*
Y22348*
X105565Y21723*
X105793Y21411*
X106247Y21098*
X107611Y20473*
X108065Y20161*
X108293Y19848*
X108520Y19223*
Y18286*
X108065Y17661*
X107384Y17348*
X107384D02*
X106474D01*
X105793Y17661*
X105338Y18286*
X110565Y23911D02*
Y17348D01*
X112611Y23911D02*
Y17348D01*
Y23911D02*
X114202D01*
X114884Y23598*
X114884D02*
X115338Y22973D01*
X115565Y22348*
X115793Y21411*
Y19848*
X115565Y18911*
X115338Y18286*
X114884Y17661*
X114884D02*
X114202Y17348D01*
X112611*
X117838Y23911D02*
Y17348D01*
Y23911D02*
X120793D01*
X117838Y20786D02*
X119656D01*
X117838Y17348D02*
X120793D01*
X192439Y220486D02*
Y267730D01*
X140864*
Y220486*
X192439*
G54D102*
X171967Y257100D03*
Y231116D03*
G54D143*
X163543Y246508D02*
X164643D01*
X163543Y241708D02*
X164643D01*
G54D162*
X174132Y251490D02*
X170589D01*
X174132Y246569D02*
X170589D01*
X174132Y241648D02*
X170589D01*
X174132Y236726D02*
X170589D01*
G54D163*
X185549Y261530D02*
X182006D01*
X185549Y226687D02*
X182006D01*
G54D176*
X153659Y225061D02*
X159565D01*
X149722Y239778D02*
X155628D01*
X149722Y248439D02*
X155628D01*
X153659Y263156D02*
X159565D01*
G54D192*
X2Y274955D02*
Y282829D01*
X7876*
X321537Y2D02*
X329411D01*
Y7876*
X0Y0D02*
M02*
