*
*
G04 PADS 9.5 Build Number: 522968 generated Gerber (RS-274-X) file*
G04 PC Version=2.1*
*
%IN "AMO1.pcb"*%
*
%MOIN*%
*
%FSLAX35Y35*%
*
*
*
*
G04 PC Standard Apertures*
*
*
G04 Thermal Relief Aperture macro.*
%AMTER*
1,1,$1,0,0*
1,0,$1-$2,0,0*
21,0,$3,$4,0,0,45*
21,0,$3,$4,0,0,135*
%
*
*
G04 Annular Aperture macro.*
%AMANN*
1,1,$1,0,0*
1,0,$2,0,0*
%
*
*
G04 Odd Aperture macro.*
%AMODD*
1,1,$1,0,0*
1,0,$1-0.005,0,0*
%
*
*
G04 PC Custom Aperture Macros*
*
*
*
*
*
*
G04 PC Aperture Table*
*
%ADD011C,0.01*%
%ADD033C,0.001*%
%ADD057C,0.01181*%
%ADD071R,0.025X0.02*%
%ADD125R,0.05X0.021*%
%ADD126R,0.01378X0.01181*%
%ADD127R,0.02756X0.06299*%
%ADD128R,0.08268X0.10236*%
*
*
*
*
G04 PC Circuitry*
G04 Layer Name AMO1.pcb - circuitry*
%LPD*%
*
*
G04 PC Custom Flashes*
G04 Layer Name AMO1.pcb - flashes*
%LPD*%
*
*
G04 PC Circuitry*
G04 Layer Name AMO1.pcb - circuitry*
%LPD*%
*
G54D11*
G01X1841413Y1600822D02*
Y1594259D01*
Y1600822D02*
X1843459D01*
X1844141Y1600509*
X1844368Y1600197*
X1844595Y1599572*
Y1598634*
X1844368Y1598009*
X1844141Y1597697*
X1843459Y1597384*
X1841413*
X1848459Y1600822D02*
X1846641Y1594259D01*
X1848459Y1600822D02*
X1850277Y1594259D01*
X1847322Y1596447D02*
X1849595D01*
X1855504Y1599884D02*
X1855050Y1600509D01*
X1854368Y1600822*
X1853459*
X1852777Y1600509*
X1852322Y1599884*
Y1599259*
X1852550Y1598634*
X1852777Y1598322*
X1853232Y1598009*
X1854595Y1597384*
X1855050Y1597072*
X1855277Y1596759*
X1855504Y1596134*
Y1595197*
X1855050Y1594572*
X1854368Y1594259*
X1853459*
X1852777Y1594572*
X1852322Y1595197*
X1859141Y1600822D02*
Y1594259D01*
X1857550Y1600822D02*
X1860732D01*
X1868004D02*
Y1594259D01*
Y1600822D02*
X1869822Y1594259D01*
X1871641Y1600822D02*
X1869822Y1594259D01*
X1871641Y1600822D02*
Y1594259D01*
X1875504Y1600822D02*
X1873686Y1594259D01*
X1875504Y1600822D02*
X1877322Y1594259D01*
X1874368Y1596447D02*
X1876641D01*
X1882550Y1599884D02*
X1882095Y1600509D01*
X1881413Y1600822*
X1880504*
X1879822Y1600509*
X1879368Y1599884*
Y1599259*
X1879595Y1598634*
X1879822Y1598322*
X1880277Y1598009*
X1881641Y1597384*
X1882095Y1597072*
X1882322Y1596759*
X1882550Y1596134*
Y1595197*
X1882095Y1594572*
X1881413Y1594259*
X1880504*
X1879822Y1594572*
X1879368Y1595197*
X1884595Y1600822D02*
Y1594259D01*
X1887777Y1600822D02*
X1884595Y1596447D01*
X1885732Y1598009D02*
X1887777Y1594259D01*
X1896641Y1600822D02*
Y1594259D01*
X1895050Y1600822D02*
X1898232D01*
X1901641D02*
X1901186Y1600509D01*
X1900732Y1599884*
X1900504Y1599259*
X1900277Y1598322*
Y1596759*
X1900504Y1595822*
X1900732Y1595197*
X1901186Y1594572*
X1901641Y1594259*
X1902550*
X1903004Y1594572*
X1903459Y1595197*
X1903686Y1595822*
X1903913Y1596759*
Y1598322*
X1903686Y1599259*
X1903459Y1599884*
X1903004Y1600509*
X1902550Y1600822*
X1901641*
X1905959D02*
Y1594259D01*
Y1600822D02*
X1908004D01*
X1908686Y1600509*
X1908913Y1600197*
X1909141Y1599572*
Y1598634*
X1908913Y1598009*
X1908686Y1597697*
X1908004Y1597384*
X1905959*
X1778421Y1657251D02*
X1668185D01*
X1664248Y1653314*
Y1625755*
X1668185Y1621818*
X1778421*
X1782358Y1625755*
Y1653314*
X1778421Y1657251*
X1575303Y1587703D02*
Y1575303D01*
X1587303*
X1956603Y1727503D02*
X1969203D01*
Y1714903*
G54D33*
G54D57*
X1671142Y1639495D02*
X1671107Y1639806D01*
X1671003Y1640102*
X1670837Y1640367*
X1670616Y1640588*
X1670351Y1640755*
X1670055Y1640858*
X1669744Y1640893*
X1669433Y1640858*
X1669138Y1640755*
X1668873Y1640588*
X1668651Y1640367*
X1668485Y1640102*
X1668381Y1639806*
X1668346Y1639495*
X1668381Y1639184*
X1668485Y1638889*
X1668651Y1638624*
X1668873Y1638402*
X1669138Y1638236*
X1669433Y1638133*
X1669744Y1638098*
X1670055Y1638133*
X1670351Y1638236*
X1670616Y1638402*
X1670837Y1638624*
X1671003Y1638889*
X1671107Y1639184*
X1671142Y1639495*
X1668776Y1638500D02*
Y1640491D01*
X1669366Y1638156D02*
Y1640835D01*
X1669957Y1638121D02*
Y1640869D01*
X1670547Y1638360D02*
Y1640631D01*
X1671138Y1639459D02*
Y1639531D01*
X1672575Y1634334D02*
X1672540Y1634645D01*
X1672436Y1634940*
X1672270Y1635205*
X1672049Y1635427*
X1671784Y1635593*
X1671488Y1635697*
X1671177Y1635732*
X1670866Y1635697*
X1670571Y1635593*
X1670306Y1635427*
X1670084Y1635205*
X1669918Y1634940*
X1669814Y1634645*
X1669779Y1634334*
X1669814Y1634023*
X1669918Y1633727*
X1670084Y1633462*
X1670306Y1633241*
X1670571Y1633075*
X1670866Y1632971*
X1671177Y1632936*
X1671488Y1632971*
X1671784Y1633075*
X1672049Y1633241*
X1672270Y1633462*
X1672436Y1633727*
X1672540Y1634023*
X1672575Y1634334*
X1669957Y1633666D02*
Y1635002D01*
X1670547Y1633089D02*
Y1635578D01*
X1671138Y1632941D02*
Y1635727D01*
X1671728Y1633055D02*
Y1635613D01*
X1672319Y1633540D02*
Y1635127D01*
X1676398Y1630613D02*
X1676363Y1630924D01*
X1676259Y1631220*
X1676093Y1631485*
X1675871Y1631706*
X1675606Y1631873*
X1675311Y1631976*
X1675000Y1632011*
X1674689Y1631976*
X1674394Y1631873*
X1674129Y1631706*
X1673907Y1631485*
X1673741Y1631220*
X1673637Y1630924*
X1673602Y1630613*
X1673637Y1630302*
X1673741Y1630007*
X1673907Y1629742*
X1674129Y1629521*
X1674394Y1629354*
X1674689Y1629251*
X1675000Y1629216*
X1675311Y1629251*
X1675606Y1629354*
X1675871Y1629521*
X1676093Y1629742*
X1676259Y1630007*
X1676363Y1630302*
X1676398Y1630613*
X1674091Y1629559D02*
Y1631668D01*
X1674681Y1629253D02*
Y1631973D01*
X1675272Y1629246D02*
Y1631981D01*
X1675862Y1629515D02*
Y1631712D01*
X1681378Y1629255D02*
X1681343Y1629566D01*
X1681240Y1629862*
X1681073Y1630127*
X1680852Y1630348*
X1680587Y1630514*
X1680291Y1630618*
X1679980Y1630653*
X1679669Y1630618*
X1679374Y1630514*
X1679109Y1630348*
X1678888Y1630127*
X1678721Y1629862*
X1678618Y1629566*
X1678583Y1629255*
X1678618Y1628944*
X1678721Y1628649*
X1678888Y1628384*
X1679109Y1628162*
X1679374Y1627996*
X1679669Y1627892*
X1679980Y1627857*
X1680291Y1627892*
X1680587Y1627996*
X1680852Y1628162*
X1681073Y1628384*
X1681240Y1628649*
X1681343Y1628944*
X1681378Y1629255*
X1678815Y1628499D02*
Y1630011D01*
X1679406Y1627985D02*
Y1630526D01*
X1679996Y1627859D02*
Y1630651D01*
X1680587Y1627996D02*
Y1630514D01*
X1681177Y1628549D02*
Y1629961D01*
X1686626Y1630708D02*
X1686591Y1631019D01*
X1686488Y1631314*
X1686321Y1631579*
X1686100Y1631801*
X1685835Y1631967*
X1685539Y1632071*
X1685228Y1632106*
X1684917Y1632071*
X1684622Y1631967*
X1684357Y1631801*
X1684136Y1631579*
X1683969Y1631314*
X1683866Y1631019*
X1683831Y1630708*
X1683866Y1630397*
X1683969Y1630101*
X1684136Y1629836*
X1684357Y1629615*
X1684622Y1629449*
X1684917Y1629345*
X1685228Y1629310*
X1685539Y1629345*
X1685835Y1629449*
X1686100Y1629615*
X1686321Y1629836*
X1686488Y1630101*
X1686591Y1630397*
X1686626Y1630708*
X1684130Y1629845D02*
Y1631570D01*
X1684720Y1629414D02*
Y1632002D01*
X1685311Y1629319D02*
Y1632096D01*
X1685902Y1629491D02*
Y1631925D01*
X1686492Y1630114D02*
Y1631302D01*
X1690347Y1634531D02*
X1690312Y1634842D01*
X1690208Y1635137*
X1690042Y1635402*
X1689820Y1635624*
X1689820D02*
X1689555Y1635790D01*
X1689260Y1635893*
X1688949Y1635928*
X1688638Y1635893*
X1688342Y1635790*
X1688077Y1635624*
X1688077D02*
X1687856Y1635402D01*
X1687690Y1635137*
X1687586Y1634842*
X1687551Y1634531*
X1687586Y1634220*
X1687690Y1633924*
X1687856Y1633659*
X1688077Y1633438*
X1688342Y1633271*
X1688638Y1633168*
X1688949Y1633133*
X1689260Y1633168*
X1689555Y1633271*
X1689820Y1633438*
X1690042Y1633659*
X1690208Y1633924*
X1690312Y1634220*
X1690347Y1634531*
X1687673Y1633971D02*
Y1635091D01*
X1688264Y1633321D02*
Y1635741D01*
X1688854Y1633144D02*
Y1635918D01*
X1689445Y1633233D02*
Y1635829D01*
X1690035Y1633653D02*
Y1635408D01*
X1691658Y1639546D02*
X1691623Y1639857D01*
X1691519Y1640153*
X1691353Y1640418*
X1691131Y1640639*
X1690866Y1640806*
X1690571Y1640909*
X1690260Y1640944*
X1689949Y1640909*
X1689653Y1640806*
X1689388Y1640639*
X1689167Y1640418*
X1689001Y1640153*
X1688897Y1639857*
X1688862Y1639546*
X1688897Y1639235*
X1689001Y1638940*
X1689167Y1638675*
X1689388Y1638454*
X1689653Y1638287*
X1689949Y1638184*
X1690260Y1638149*
X1690571Y1638184*
X1690866Y1638287*
X1691131Y1638454*
X1691353Y1638675*
X1691519Y1638940*
X1691623Y1639235*
X1691658Y1639546*
X1689445Y1638418D02*
Y1640675D01*
X1690035Y1638174D02*
Y1640919D01*
X1690626Y1638203D02*
Y1640890D01*
X1691217Y1638539D02*
Y1640554D01*
X1686484Y1648539D02*
X1686449Y1648850D01*
X1686346Y1649145*
X1686179Y1649410*
X1685958Y1649631*
X1685693Y1649798*
X1685398Y1649901*
X1685087Y1649936*
X1684776Y1649901*
X1684480Y1649798*
X1684215Y1649631*
X1683994Y1649410*
X1683827Y1649145*
X1683724Y1648850*
X1683689Y1648539*
X1683724Y1648228*
X1683827Y1647932*
X1683994Y1647667*
X1684215Y1647446*
X1684480Y1647279*
X1684776Y1647176*
X1685087Y1647141*
X1685398Y1647176*
X1685693Y1647279*
X1685958Y1647446*
X1686179Y1647667*
X1686346Y1647932*
X1686449Y1648228*
X1686484Y1648539*
X1684130Y1647531D02*
Y1649546D01*
X1684720Y1647195D02*
Y1649882D01*
X1685311Y1647166D02*
Y1649911D01*
X1685902Y1647410D02*
Y1649667D01*
X1690307Y1644818D02*
X1690272Y1645129D01*
X1690169Y1645425*
X1690002Y1645690*
X1689781Y1645911*
X1689516Y1646077*
X1689220Y1646181*
X1688909Y1646216*
X1688598Y1646181*
X1688303Y1646077*
X1688038Y1645911*
X1687817Y1645690*
X1687650Y1645425*
X1687547Y1645129*
X1687512Y1644818*
X1687547Y1644507*
X1687650Y1644212*
X1687817Y1643947*
X1688038Y1643725*
X1688303Y1643559*
X1688598Y1643455*
X1688909Y1643420*
X1689220Y1643455*
X1689516Y1643559*
X1689781Y1643725*
X1690002Y1643947*
X1690169Y1644212*
X1690272Y1644507*
X1690307Y1644818*
X1687673Y1644175D02*
Y1645461D01*
X1688264Y1643583D02*
Y1646053D01*
X1688854Y1643427D02*
Y1646210D01*
X1689445Y1643534D02*
Y1646102D01*
X1690035Y1643999D02*
Y1645637D01*
X1676142Y1648440D02*
X1676107Y1648751D01*
X1676003Y1649047*
X1675837Y1649312*
X1675616Y1649533*
X1675351Y1649699*
X1675055Y1649803*
X1674744Y1649838*
X1674433Y1649803*
X1674138Y1649699*
X1673873Y1649533*
X1673651Y1649312*
X1673485Y1649047*
X1673381Y1648751*
X1673346Y1648440*
X1673381Y1648129*
X1673485Y1647834*
X1673651Y1647569*
X1673873Y1647347*
X1674138Y1647181*
X1674433Y1647077*
X1674744Y1647042*
X1675055Y1647077*
X1675351Y1647181*
X1675616Y1647347*
X1675837Y1647569*
X1676003Y1647834*
X1676107Y1648129*
X1676142Y1648440*
X1673500Y1647809D02*
Y1649071D01*
X1674091Y1647210D02*
Y1649670D01*
X1674681Y1647050D02*
Y1649831D01*
X1675272Y1647153D02*
Y1649727D01*
X1675862Y1647609D02*
Y1649271D01*
X1681406Y1649791D02*
X1681371Y1650102D01*
X1681267Y1650397*
X1681101Y1650662*
X1680879Y1650883*
X1680614Y1651050*
X1680319Y1651153*
X1680008Y1651188*
X1679697Y1651153*
X1679401Y1651050*
X1679136Y1650883*
X1678915Y1650662*
X1678749Y1650397*
X1678645Y1650102*
X1678610Y1649791*
X1678645Y1649480*
X1678749Y1649184*
X1678915Y1648919*
X1679136Y1648698*
X1679401Y1648531*
X1679697Y1648428*
X1680008Y1648393*
X1680319Y1648428*
X1680614Y1648531*
X1680879Y1648698*
X1681101Y1648919*
X1681267Y1649184*
X1681371Y1649480*
X1681406Y1649791*
X1678815Y1649078D02*
Y1650503D01*
X1679406Y1648530D02*
Y1651051D01*
X1679996Y1648394D02*
Y1651187D01*
X1680587Y1648522D02*
Y1651060D01*
X1681177Y1649041D02*
Y1650540D01*
X1672421Y1644617D02*
X1672386Y1644928D01*
X1672283Y1645224*
X1672116Y1645489*
X1671895Y1645710*
X1671630Y1645877*
X1671335Y1645980*
X1671024Y1646015*
X1670713Y1645980*
X1670417Y1645877*
X1670152Y1645710*
X1669931Y1645489*
X1669764Y1645224*
X1669661Y1644928*
X1669626Y1644617*
X1669661Y1644306*
X1669764Y1644011*
X1669931Y1643746*
X1670152Y1643525*
X1670417Y1643358*
X1670713Y1643255*
X1671024Y1643220*
X1671335Y1643255*
X1671630Y1643358*
X1671895Y1643525*
X1672116Y1643746*
X1672283Y1644011*
X1672386Y1644306*
X1672421Y1644617*
X1669957Y1643720D02*
Y1645515D01*
X1670547Y1643312D02*
Y1645922D01*
X1671138Y1643232D02*
Y1646002D01*
X1671728Y1643420D02*
Y1645815D01*
X1672319Y1644114D02*
Y1645121D01*
X1757756Y1639495D02*
X1757721Y1639806D01*
X1757618Y1640102*
X1757451Y1640367*
X1757230Y1640588*
X1756965Y1640755*
X1756669Y1640858*
X1756358Y1640893*
X1756047Y1640858*
X1755752Y1640755*
X1755487Y1640588*
X1755265Y1640367*
X1755099Y1640102*
X1754996Y1639806*
X1754961Y1639495*
X1754996Y1639184*
X1755099Y1638889*
X1755265Y1638624*
X1755487Y1638402*
X1755752Y1638236*
X1756047Y1638133*
X1756358Y1638098*
X1756669Y1638133*
X1756965Y1638236*
X1757230Y1638402*
X1757451Y1638624*
X1757618Y1638889*
X1757721Y1639184*
X1757756Y1639495*
X1755390Y1638500D02*
Y1640491D01*
X1755980Y1638156D02*
Y1640835D01*
X1756571Y1638121D02*
Y1640869D01*
X1757161Y1638360D02*
Y1640631D01*
X1757752Y1639459D02*
Y1639531D01*
X1759189Y1634334D02*
X1759154Y1634645D01*
X1759051Y1634940*
X1758884Y1635205*
X1758663Y1635427*
X1758398Y1635593*
X1758102Y1635697*
X1757791Y1635732*
X1757480Y1635697*
X1757185Y1635593*
X1756920Y1635427*
X1756699Y1635205*
X1756532Y1634940*
X1756429Y1634645*
X1756394Y1634334*
X1756429Y1634023*
X1756532Y1633727*
X1756699Y1633462*
X1756920Y1633241*
X1757185Y1633075*
X1757480Y1632971*
X1757791Y1632936*
X1758102Y1632971*
X1758398Y1633075*
X1758663Y1633241*
X1758884Y1633462*
X1759051Y1633727*
X1759154Y1634023*
X1759189Y1634334*
X1756571Y1633666D02*
Y1635002D01*
X1757161Y1633089D02*
Y1635578D01*
X1757752Y1632941D02*
Y1635727D01*
X1758343Y1633055D02*
Y1635613D01*
X1758933Y1633540D02*
Y1635127D01*
X1763012Y1630613D02*
X1762977Y1630924D01*
X1762873Y1631220*
X1762707Y1631485*
X1762486Y1631706*
X1762221Y1631873*
X1761925Y1631976*
X1761614Y1632011*
X1761303Y1631976*
X1761008Y1631873*
X1760743Y1631706*
X1760521Y1631485*
X1760355Y1631220*
X1760251Y1630924*
X1760216Y1630613*
X1760251Y1630302*
X1760355Y1630007*
X1760521Y1629742*
X1760743Y1629521*
X1761008Y1629354*
X1761303Y1629251*
X1761614Y1629216*
X1761925Y1629251*
X1762221Y1629354*
X1762486Y1629521*
X1762707Y1629742*
X1762873Y1630007*
X1762977Y1630302*
X1763012Y1630613*
X1760705Y1629559D02*
Y1631668D01*
X1761295Y1629253D02*
Y1631973D01*
X1761886Y1629246D02*
Y1631981D01*
X1762476Y1629515D02*
Y1631712D01*
X1767992Y1629255D02*
X1767957Y1629566D01*
X1767854Y1629862*
X1767687Y1630127*
X1767466Y1630348*
X1767201Y1630514*
X1766906Y1630618*
X1766594Y1630653*
X1766283Y1630618*
X1765988Y1630514*
X1765723Y1630348*
X1765502Y1630127*
X1765335Y1629862*
X1765232Y1629566*
X1765197Y1629255*
X1765232Y1628944*
X1765335Y1628649*
X1765502Y1628384*
X1765723Y1628162*
X1765988Y1627996*
X1766283Y1627892*
X1766594Y1627857*
X1766906Y1627892*
X1767201Y1627996*
X1767466Y1628162*
X1767687Y1628384*
X1767854Y1628649*
X1767957Y1628944*
X1767992Y1629255*
X1765429Y1628499D02*
Y1630011D01*
X1766020Y1627985D02*
Y1630526D01*
X1766610Y1627859D02*
Y1630651D01*
X1767201Y1627996D02*
Y1630514D01*
X1767791Y1628549D02*
Y1629961D01*
X1773240Y1630708D02*
X1773205Y1631019D01*
X1773102Y1631314*
X1772935Y1631579*
X1772714Y1631801*
X1772449Y1631967*
X1772154Y1632071*
X1771843Y1632106*
X1771531Y1632071*
X1771236Y1631967*
X1770971Y1631801*
X1770750Y1631579*
X1770583Y1631314*
X1770480Y1631019*
X1770445Y1630708*
X1770480Y1630397*
X1770583Y1630101*
X1770750Y1629836*
X1770971Y1629615*
X1771236Y1629449*
X1771531Y1629345*
X1771843Y1629310*
X1772154Y1629345*
X1772449Y1629449*
X1772714Y1629615*
X1772935Y1629836*
X1773102Y1630101*
X1773205Y1630397*
X1773240Y1630708*
X1770744Y1629845D02*
Y1631570D01*
X1771335Y1629414D02*
Y1632002D01*
X1771925Y1629319D02*
Y1632096D01*
X1772516Y1629491D02*
Y1631925D01*
X1773106Y1630114D02*
Y1631302D01*
X1776961Y1634531D02*
X1776926Y1634842D01*
X1776822Y1635137*
X1776656Y1635402*
X1776434Y1635624*
X1776434D02*
X1776169Y1635790D01*
X1775874Y1635893*
X1775563Y1635928*
X1775252Y1635893*
X1774957Y1635790*
X1774692Y1635624*
X1774692D02*
X1774470Y1635402D01*
X1774304Y1635137*
X1774200Y1634842*
X1774165Y1634531*
X1774200Y1634220*
X1774304Y1633924*
X1774470Y1633659*
X1774692Y1633438*
X1774957Y1633271*
X1775252Y1633168*
X1775563Y1633133*
X1775874Y1633168*
X1776169Y1633271*
X1776434Y1633438*
X1776656Y1633659*
X1776822Y1633924*
X1776926Y1634220*
X1776961Y1634531*
X1774287Y1633971D02*
Y1635091D01*
X1774878Y1633321D02*
Y1635741D01*
X1775469Y1633144D02*
Y1635918D01*
X1776059Y1633233D02*
Y1635829D01*
X1776650Y1633653D02*
Y1635408D01*
X1778272Y1639546D02*
X1778237Y1639857D01*
X1778133Y1640153*
X1777967Y1640418*
X1777745Y1640639*
X1777480Y1640806*
X1777185Y1640909*
X1776874Y1640944*
X1776563Y1640909*
X1776268Y1640806*
X1776003Y1640639*
X1775781Y1640418*
X1775615Y1640153*
X1775511Y1639857*
X1775476Y1639546*
X1775511Y1639235*
X1775615Y1638940*
X1775781Y1638675*
X1776003Y1638454*
X1776268Y1638287*
X1776563Y1638184*
X1776874Y1638149*
X1777185Y1638184*
X1777480Y1638287*
X1777745Y1638454*
X1777967Y1638675*
X1778133Y1638940*
X1778237Y1639235*
X1778272Y1639546*
X1776059Y1638418D02*
Y1640675D01*
X1776650Y1638174D02*
Y1640919D01*
X1777240Y1638203D02*
Y1640890D01*
X1777831Y1638539D02*
Y1640554D01*
X1773099Y1648539D02*
X1773063Y1648850D01*
X1772960Y1649145*
X1772794Y1649410*
X1772572Y1649631*
X1772307Y1649798*
X1772012Y1649901*
X1771701Y1649936*
X1771390Y1649901*
X1771094Y1649798*
X1770829Y1649631*
X1770608Y1649410*
X1770441Y1649145*
X1770338Y1648850*
X1770303Y1648539*
X1770338Y1648228*
X1770441Y1647932*
X1770608Y1647667*
X1770829Y1647446*
X1771094Y1647279*
X1771390Y1647176*
X1771701Y1647141*
X1772012Y1647176*
X1772307Y1647279*
X1772572Y1647446*
X1772794Y1647667*
X1772960Y1647932*
X1773063Y1648228*
X1773099Y1648539*
X1770744Y1647531D02*
Y1649546D01*
X1771335Y1647195D02*
Y1649882D01*
X1771925Y1647166D02*
Y1649911D01*
X1772516Y1647410D02*
Y1649667D01*
X1776921Y1644818D02*
X1776886Y1645129D01*
X1776783Y1645425*
X1776616Y1645690*
X1776395Y1645911*
X1776130Y1646077*
X1775835Y1646181*
X1775524Y1646216*
X1775213Y1646181*
X1774917Y1646077*
X1774652Y1645911*
X1774431Y1645690*
X1774264Y1645425*
X1774161Y1645129*
X1774126Y1644818*
X1774161Y1644507*
X1774264Y1644212*
X1774431Y1643947*
X1774652Y1643725*
X1774917Y1643559*
X1775213Y1643455*
X1775524Y1643420*
X1775835Y1643455*
X1776130Y1643559*
X1776395Y1643725*
X1776616Y1643947*
X1776783Y1644212*
X1776886Y1644507*
X1776921Y1644818*
X1774287Y1644175D02*
Y1645461D01*
X1774878Y1643583D02*
Y1646053D01*
X1775469Y1643427D02*
Y1646210D01*
X1776059Y1643534D02*
Y1646102D01*
X1776650Y1643999D02*
Y1645637D01*
X1762756Y1648440D02*
X1762721Y1648751D01*
X1762618Y1649047*
X1762451Y1649312*
X1762230Y1649533*
X1761965Y1649699*
X1761669Y1649803*
X1761358Y1649838*
X1761047Y1649803*
X1760752Y1649699*
X1760487Y1649533*
X1760265Y1649312*
X1760099Y1649047*
X1759996Y1648751*
X1759961Y1648440*
X1759996Y1648129*
X1760099Y1647834*
X1760265Y1647569*
X1760487Y1647347*
X1760752Y1647181*
X1761047Y1647077*
X1761358Y1647042*
X1761669Y1647077*
X1761965Y1647181*
X1762230Y1647347*
X1762451Y1647569*
X1762618Y1647834*
X1762721Y1648129*
X1762756Y1648440*
X1760114Y1647809D02*
Y1649071D01*
X1760705Y1647210D02*
Y1649670D01*
X1761295Y1647050D02*
Y1649831D01*
X1761886Y1647153D02*
Y1649727D01*
X1762476Y1647609D02*
Y1649271D01*
X1768020Y1649791D02*
X1767985Y1650102D01*
X1767881Y1650397*
X1767715Y1650662*
X1767494Y1650883*
X1767229Y1651050*
X1767229D02*
X1766933Y1651153D01*
X1766622Y1651188*
X1766311Y1651153*
X1766016Y1651050*
X1765751Y1650883*
X1765529Y1650662*
X1765363Y1650397*
X1765259Y1650102*
X1765224Y1649791*
X1765259Y1649480*
X1765363Y1649184*
X1765529Y1648919*
X1765751Y1648698*
X1766016Y1648531*
X1766311Y1648428*
X1766622Y1648393*
X1766933Y1648428*
X1767229Y1648531*
X1767229D02*
X1767494Y1648698D01*
X1767715Y1648919*
X1767881Y1649184*
X1767985Y1649480*
X1768020Y1649791*
X1765429Y1649078D02*
Y1650503D01*
X1766020Y1648530D02*
Y1651051D01*
X1766610Y1648394D02*
Y1651187D01*
X1767201Y1648522D02*
Y1651060D01*
X1767791Y1649041D02*
Y1650540D01*
X1759036Y1644617D02*
X1759000Y1644928D01*
X1758897Y1645224*
X1758731Y1645489*
X1758509Y1645710*
X1758244Y1645877*
X1757949Y1645980*
X1757638Y1646015*
X1757327Y1645980*
X1757031Y1645877*
X1756766Y1645710*
X1756545Y1645489*
X1756378Y1645224*
X1756275Y1644928*
X1756240Y1644617*
X1756275Y1644306*
X1756378Y1644011*
X1756545Y1643746*
X1756766Y1643525*
X1757031Y1643358*
X1757327Y1643255*
X1757638Y1643220*
X1757949Y1643255*
X1758244Y1643358*
X1758509Y1643525*
X1758731Y1643746*
X1758897Y1644011*
X1759000Y1644306*
X1759036Y1644617*
X1756571Y1643720D02*
Y1645515D01*
X1757161Y1643312D02*
Y1645922D01*
X1757752Y1643232D02*
Y1646002D01*
X1758343Y1643420D02*
Y1645815D01*
X1758933Y1644114D02*
Y1645121D01*
G54D71*
X1734327Y1647015D03*
X1730390D03*
X1750862Y1640716D03*
X1746925D03*
X1713067Y1647015D03*
X1709130D03*
G54D125*
X1742625Y1652783D03*
Y1648983D03*
Y1645183D03*
X1751325D03*
Y1652783D03*
G54D126*
X1720350Y1646818D03*
X1722319D03*
X1724287D03*
X1726256D03*
Y1650361D03*
X1724287D03*
X1722319D03*
X1720350D03*
G54D127*
X1711000Y1639928D03*
X1715921D03*
X1720843D03*
X1725764D03*
X1730685D03*
X1735606D03*
G54D128*
X1700961Y1629298D03*
X1745646D03*
X0Y0D02*
M02*
