G04 CAM350 PRO V6.0 Date:  Fri Feb 24 09:48:15 2012 *
G04 Database: (Untitled) *
G04 Layer 2: ems4_0ft.lgr *
%FSLAX35Y35*%
%MOIN*%
%SFA1.000B1.000*%

%MIA0B0*%
%IPPOS*%
%ADD14C,0.01000*%
%ADD17C,0.00800*%
%LNems4_0ft.lgr*%
%SRX1Y1I0J0*%
%LPD*%
G54D14*
X1750000Y1464063D02*
G01Y1457500D01*
Y1464063D02*
G01X1752955D01*
X1750000Y1460938D02*
G01X1751818D01*
X1756364Y1464063D02*
G01X1755909Y1463750D01*
X1755455Y1463125*
X1755227Y1462500*
X1755000Y1461563*
Y1461563D02*
G01Y1460000D01*
X1755227Y1459063*
Y1459063D02*
G01X1755455Y1458438D01*
Y1458438D02*
G01X1755909Y1457813D01*
Y1457813D02*
G01X1756364Y1457500D01*
X1757273*
X1757727Y1457813*
Y1457813D02*
G01X1758182Y1458438D01*
Y1458438D02*
G01X1758409Y1459063D01*
Y1459063D02*
G01X1758636Y1460000D01*
Y1461563*
Y1461563D02*
G01X1758409Y1462500D01*
X1758182Y1463125*
X1757727Y1463750*
X1757273Y1464063*
Y1464063D02*
G01X1756364D01*
X1760682D02*
G01Y1457500D01*
Y1464063D02*
G01X1762727D01*
Y1464063D02*
G01X1763409Y1463750D01*
X1763636Y1463438*
Y1463438D02*
G01X1763864Y1462813D01*
Y1462813D02*
G01Y1462188D01*
Y1462188D02*
G01X1763636Y1461563D01*
Y1461563D02*
G01X1763409Y1461250D01*
X1762727Y1460938*
Y1460938D02*
G01X1760682D01*
X1762273D02*
G01X1763864Y1457500D01*
X1767727Y1464063D02*
G01X1765909Y1457500D01*
X1767727Y1464063D02*
G01X1769545Y1457500D01*
X1766591Y1459688D02*
G01X1768864D01*
X1773182Y1464063D02*
G01Y1457500D01*
X1771591Y1464063D02*
G01X1774773D01*
X1776818D02*
G01Y1459375D01*
X1777045Y1458438*
Y1458438D02*
G01X1777500Y1457813D01*
Y1457813D02*
G01X1778182Y1457500D01*
X1778636*
X1779318Y1457813*
Y1457813D02*
G01X1779773Y1458438D01*
Y1458438D02*
G01X1780000Y1459375D01*
Y1464063*
X1782045D02*
G01Y1457500D01*
Y1464063D02*
G01X1784091D01*
Y1464063D02*
G01X1784773Y1463750D01*
X1785000Y1463438*
Y1463438D02*
G01X1785227Y1462813D01*
Y1462813D02*
G01Y1462188D01*
Y1462188D02*
G01X1785000Y1461563D01*
Y1461563D02*
G01X1784773Y1461250D01*
X1784091Y1460938*
Y1460938D02*
G01X1782045D01*
X1783636D02*
G01X1785227Y1457500D01*
X1789091Y1464063D02*
G01X1787273Y1457500D01*
X1789091Y1464063D02*
G01X1790909Y1457500D01*
X1787955Y1459688D02*
G01X1790227D01*
X1798182Y1464063D02*
G01Y1457500D01*
Y1464063D02*
G01X1801136D01*
X1798182Y1460938D02*
G01X1800000D01*
X1798182Y1457500D02*
G01X1801136D01*
X1810000Y1464063D02*
G01Y1457500D01*
X1808409Y1464063D02*
G01X1811591D01*
X1813636D02*
G01Y1457500D01*
Y1464063D02*
G01X1815682D01*
Y1464063D02*
G01X1816364Y1463750D01*
X1816591Y1463438*
Y1463438D02*
G01X1816818Y1462813D01*
Y1462813D02*
G01Y1462188D01*
Y1462188D02*
G01X1816591Y1461563D01*
Y1461563D02*
G01X1816364Y1461250D01*
X1815682Y1460938*
Y1460938D02*
G01X1813636D01*
X1815227D02*
G01X1816818Y1457500D01*
X1820682Y1464063D02*
G01X1818864Y1457500D01*
X1820682Y1464063D02*
G01X1822500Y1457500D01*
X1819545Y1459688D02*
G01X1821818D01*
X1824545Y1464063D02*
G01Y1457500D01*
Y1464063D02*
G01X1827727Y1457500D01*
Y1464063D02*
G01Y1457500D01*
X1833182Y1462500D02*
G01X1832955Y1463125D01*
X1832500Y1463750*
X1832045Y1464063*
Y1464063D02*
G01X1831136D01*
Y1464063D02*
G01X1830682Y1463750D01*
X1830227Y1463125*
X1830000Y1462500*
X1829773Y1461563*
Y1461563D02*
G01Y1460000D01*
X1830000Y1459063*
Y1459063D02*
G01X1830227Y1458438D01*
Y1458438D02*
G01X1830682Y1457813D01*
Y1457813D02*
G01X1831136Y1457500D01*
X1832045*
X1832500Y1457813*
Y1457813D02*
G01X1832955Y1458438D01*
Y1458438D02*
G01X1833182Y1459063D01*
X1835227Y1464063D02*
G01Y1457500D01*
X1839091Y1464063D02*
G01X1837273Y1457500D01*
X1839091Y1464063D02*
G01X1840909Y1457500D01*
X1837955Y1459688D02*
G01X1840227D01*
X1844545Y1464063D02*
G01Y1457500D01*
X1842955Y1464063D02*
G01X1846136D01*
X1848182D02*
G01Y1459375D01*
X1848409Y1458438*
Y1458438D02*
G01X1848864Y1457813D01*
Y1457813D02*
G01X1849545Y1457500D01*
X1850000*
X1850682Y1457813*
Y1457813D02*
G01X1851136Y1458438D01*
Y1458438D02*
G01X1851364Y1459375D01*
Y1464063*
X1853409D02*
G01Y1457500D01*
Y1464063D02*
G01X1855455D01*
Y1464063D02*
G01X1856136Y1463750D01*
X1856364Y1463438*
Y1463438D02*
G01X1856591Y1462813D01*
Y1462813D02*
G01Y1462188D01*
Y1462188D02*
G01X1856364Y1461563D01*
Y1461563D02*
G01X1856136Y1461250D01*
X1855455Y1460938*
Y1460938D02*
G01X1853409D01*
X1855000D02*
G01X1856591Y1457500D01*
X1860455Y1464063D02*
G01X1858636Y1457500D01*
X1860455Y1464063D02*
G01X1862273Y1457500D01*
X1859318Y1459688D02*
G01X1861591D01*
X1753182Y1450625D02*
G01X1752727Y1451250D01*
X1752045Y1451563*
Y1451563D02*
G01X1751136D01*
Y1451563D02*
G01X1750455Y1451250D01*
X1750000Y1450625*
Y1450000*
X1750227Y1449375*
X1750455Y1449063*
Y1449063D02*
G01X1750909Y1448750D01*
X1752273Y1448125*
X1752727Y1447813*
Y1447813D02*
G01X1752955Y1447500D01*
X1753182Y1446875*
Y1445938*
Y1445938D02*
G01X1752727Y1445313D01*
Y1445313D02*
G01X1752045Y1445000D01*
X1751136*
X1750455Y1445313*
Y1445313D02*
G01X1750000Y1445938D01*
X1755227Y1451563D02*
G01Y1445000D01*
Y1451563D02*
G01X1757273D01*
Y1451563D02*
G01X1757955Y1451250D01*
X1758182Y1450938*
Y1450938D02*
G01X1758409Y1450313D01*
Y1450313D02*
G01Y1449375D01*
X1758182Y1448750*
X1757955Y1448438*
Y1448438D02*
G01X1757273Y1448125D01*
X1755227*
X1760455Y1451563D02*
G01Y1445000D01*
Y1451563D02*
G01X1763409D01*
X1760455Y1448438D02*
G01X1762273D01*
X1760455Y1445000D02*
G01X1763409D01*
X1768636Y1450625D02*
G01X1768182Y1451250D01*
X1767500Y1451563*
Y1451563D02*
G01X1766591D01*
Y1451563D02*
G01X1765909Y1451250D01*
X1765455Y1450625*
Y1450000*
X1765682Y1449375*
X1765909Y1449063*
Y1449063D02*
G01X1766364Y1448750D01*
X1767727Y1448125*
X1768182Y1447813*
Y1447813D02*
G01X1768409Y1447500D01*
X1768636Y1446875*
Y1445938*
Y1445938D02*
G01X1768182Y1445313D01*
Y1445313D02*
G01X1767500Y1445000D01*
X1766591*
X1765909Y1445313*
Y1445313D02*
G01X1765455Y1445938D01*
X1773864Y1450625D02*
G01X1773409Y1451250D01*
X1772727Y1451563*
Y1451563D02*
G01X1771818D01*
Y1451563D02*
G01X1771136Y1451250D01*
X1770682Y1450625*
Y1450000*
X1770909Y1449375*
X1771136Y1449063*
Y1449063D02*
G01X1771591Y1448750D01*
X1772955Y1448125*
X1773409Y1447813*
Y1447813D02*
G01X1773636Y1447500D01*
X1773864Y1446875*
Y1445938*
Y1445938D02*
G01X1773409Y1445313D01*
Y1445313D02*
G01X1772727Y1445000D01*
X1771818*
X1771136Y1445313*
Y1445313D02*
G01X1770682Y1445938D01*
X1777273Y1451563D02*
G01X1776818Y1451250D01*
X1776364Y1450625*
X1776136Y1450000*
X1775909Y1449063*
Y1449063D02*
G01Y1447500D01*
X1776136Y1446563*
Y1446563D02*
G01X1776364Y1445938D01*
Y1445938D02*
G01X1776818Y1445313D01*
Y1445313D02*
G01X1777273Y1445000D01*
X1778182*
X1778636Y1445313*
Y1445313D02*
G01X1779091Y1445938D01*
Y1445938D02*
G01X1779318Y1446563D01*
Y1446563D02*
G01X1779545Y1447500D01*
Y1449063*
Y1449063D02*
G01X1779318Y1450000D01*
X1779091Y1450625*
X1778636Y1451250*
X1778182Y1451563*
Y1451563D02*
G01X1777273D01*
X1781591D02*
G01Y1445000D01*
Y1451563D02*
G01X1783636D01*
Y1451563D02*
G01X1784318Y1451250D01*
X1784545Y1450938*
Y1450938D02*
G01X1784773Y1450313D01*
Y1450313D02*
G01Y1449688D01*
Y1449688D02*
G01X1784545Y1449063D01*
Y1449063D02*
G01X1784318Y1448750D01*
X1783636Y1448438*
Y1448438D02*
G01X1781591D01*
X1783182D02*
G01X1784773Y1445000D01*
X1786818Y1451563D02*
G01Y1445000D01*
Y1451563D02*
G01X1789773D01*
X1786818Y1448438D02*
G01X1788636D01*
X1786818Y1445000D02*
G01X1789773D01*
X1797045Y1451563D02*
G01Y1445000D01*
X1799773*
X1803636Y1451563D02*
G01X1801818Y1445000D01*
X1803636Y1451563D02*
G01X1805455Y1445000D01*
X1802500Y1447188D02*
G01X1804773D01*
X1807500Y1451563D02*
G01Y1445000D01*
Y1451563D02*
G01X1809318Y1445000D01*
X1811136Y1451563D02*
G01X1809318Y1445000D01*
X1811136Y1451563D02*
G01Y1445000D01*
X1813182Y1451563D02*
G01Y1445000D01*
X1815227Y1451563D02*
G01Y1445000D01*
Y1451563D02*
G01X1818409Y1445000D01*
Y1451563D02*
G01Y1445000D01*
X1822273Y1451563D02*
G01X1820455Y1445000D01*
X1822273Y1451563D02*
G01X1824091Y1445000D01*
X1821136Y1447188D02*
G01X1823409D01*
X1827727Y1451563D02*
G01Y1445000D01*
X1826136Y1451563D02*
G01X1829318D01*
X1832727D02*
G01X1832273Y1451250D01*
X1831818Y1450625*
X1831591Y1450000*
X1831364Y1449063*
Y1449063D02*
G01Y1447500D01*
X1831591Y1446563*
Y1446563D02*
G01X1831818Y1445938D01*
Y1445938D02*
G01X1832273Y1445313D01*
Y1445313D02*
G01X1832727Y1445000D01*
X1833636*
X1834091Y1445313*
Y1445313D02*
G01X1834545Y1445938D01*
Y1445938D02*
G01X1834773Y1446563D01*
Y1446563D02*
G01X1835000Y1447500D01*
Y1449063*
Y1449063D02*
G01X1834773Y1450000D01*
X1834545Y1450625*
X1834091Y1451250*
X1833636Y1451563*
Y1451563D02*
G01X1832727D01*
X1842273Y1450313D02*
G01X1842727Y1450625D01*
X1843409Y1451563*
Y1451563D02*
G01Y1445000D01*
X1845682Y1445625D02*
G01X1845455Y1445313D01*
Y1445313D02*
G01X1845682Y1445000D01*
X1845909Y1445313*
Y1445313D02*
G01X1845682Y1445625D01*
X1850682Y1450625D02*
G01X1850455Y1451250D01*
X1849773Y1451563*
Y1451563D02*
G01X1849318D01*
Y1451563D02*
G01X1848636Y1451250D01*
X1848182Y1450313*
Y1450313D02*
G01X1847955Y1448750D01*
Y1447188*
Y1447188D02*
G01X1848182Y1445938D01*
Y1445938D02*
G01X1848636Y1445313D01*
Y1445313D02*
G01X1849318Y1445000D01*
X1849545*
X1850227Y1445313*
Y1445313D02*
G01X1850682Y1445938D01*
Y1445938D02*
G01X1850909Y1446875D01*
Y1447188*
Y1447188D02*
G01X1850682Y1448125D01*
X1850227Y1448750*
X1849545Y1449063*
Y1449063D02*
G01X1849318D01*
Y1449063D02*
G01X1848636Y1448750D01*
X1848182Y1448125*
X1847955Y1447188*
X1852955Y1449375D02*
G01Y1445000D01*
Y1448125D02*
G01X1853636Y1449063D01*
Y1449063D02*
G01X1854091Y1449375D01*
X1854773*
X1855227Y1449063*
Y1449063D02*
G01X1855455Y1448125D01*
Y1445000*
Y1448125D02*
G01X1856136Y1449063D01*
Y1449063D02*
G01X1856591Y1449375D01*
X1857273*
X1857727Y1449063*
Y1449063D02*
G01X1857955Y1448125D01*
Y1445000*
X1860000Y1449375D02*
G01Y1445000D01*
Y1448125D02*
G01X1860682Y1449063D01*
Y1449063D02*
G01X1861136Y1449375D01*
X1861818*
X1862273Y1449063*
Y1449063D02*
G01X1862500Y1448125D01*
Y1445000*
Y1448125D02*
G01X1863182Y1449063D01*
Y1449063D02*
G01X1863636Y1449375D01*
X1864318*
X1864773Y1449063*
Y1449063D02*
G01X1865000Y1448125D01*
Y1445000*
X1875455Y1450625D02*
G01X1875000Y1451250D01*
X1874318Y1451563*
Y1451563D02*
G01X1873409D01*
Y1451563D02*
G01X1872727Y1451250D01*
X1872273Y1450625*
Y1450000*
X1872500Y1449375*
X1872727Y1449063*
Y1449063D02*
G01X1873182Y1448750D01*
X1874545Y1448125*
X1875000Y1447813*
Y1447813D02*
G01X1875227Y1447500D01*
X1875455Y1446875*
Y1445938*
Y1445938D02*
G01X1875000Y1445313D01*
Y1445313D02*
G01X1874318Y1445000D01*
X1873409*
X1872727Y1445313*
Y1445313D02*
G01X1872273Y1445938D01*
X1877500Y1451563D02*
G01Y1445000D01*
Y1451563D02*
G01X1879545D01*
Y1451563D02*
G01X1880227Y1451250D01*
X1880455Y1450938*
Y1450938D02*
G01X1880682Y1450313D01*
Y1450313D02*
G01Y1449375D01*
X1880455Y1448750*
X1880227Y1448438*
Y1448438D02*
G01X1879545Y1448125D01*
X1877500*
X1882727Y1451563D02*
G01Y1445000D01*
Y1451563D02*
G01X1885682D01*
X1882727Y1448438D02*
G01X1884545D01*
X1882727Y1445000D02*
G01X1885682D01*
X1890909Y1450625D02*
G01X1890455Y1451250D01*
X1889773Y1451563*
Y1451563D02*
G01X1888864D01*
Y1451563D02*
G01X1888182Y1451250D01*
X1887727Y1450625*
Y1450000*
X1887955Y1449375*
X1888182Y1449063*
Y1449063D02*
G01X1888636Y1448750D01*
X1890000Y1448125*
X1890455Y1447813*
Y1447813D02*
G01X1890682Y1447500D01*
X1890909Y1446875*
Y1445938*
Y1445938D02*
G01X1890455Y1445313D01*
Y1445313D02*
G01X1889773Y1445000D01*
X1888864*
X1888182Y1445313*
Y1445313D02*
G01X1887727Y1445938D01*
X1896136Y1450625D02*
G01X1895682Y1451250D01*
X1895000Y1451563*
Y1451563D02*
G01X1894091D01*
Y1451563D02*
G01X1893409Y1451250D01*
X1892955Y1450625*
Y1450000*
X1893182Y1449375*
X1893409Y1449063*
Y1449063D02*
G01X1893864Y1448750D01*
X1895227Y1448125*
X1895682Y1447813*
Y1447813D02*
G01X1895909Y1447500D01*
X1896136Y1446875*
Y1445938*
Y1445938D02*
G01X1895682Y1445313D01*
Y1445313D02*
G01X1895000Y1445000D01*
X1894091*
X1893409Y1445313*
Y1445313D02*
G01X1892955Y1445938D01*
X1899545Y1451563D02*
G01X1899091Y1451250D01*
X1898636Y1450625*
X1898409Y1450000*
X1898182Y1449063*
Y1449063D02*
G01Y1447500D01*
X1898409Y1446563*
Y1446563D02*
G01X1898636Y1445938D01*
Y1445938D02*
G01X1899091Y1445313D01*
Y1445313D02*
G01X1899545Y1445000D01*
X1900455*
X1900909Y1445313*
Y1445313D02*
G01X1901364Y1445938D01*
Y1445938D02*
G01X1901591Y1446563D01*
Y1446563D02*
G01X1901818Y1447500D01*
Y1449063*
Y1449063D02*
G01X1901591Y1450000D01*
X1901364Y1450625*
X1900909Y1451250*
X1900455Y1451563*
Y1451563D02*
G01X1899545D01*
X1903864D02*
G01Y1445000D01*
Y1451563D02*
G01X1905909D01*
Y1451563D02*
G01X1906591Y1451250D01*
X1906818Y1450938*
Y1450938D02*
G01X1907045Y1450313D01*
Y1450313D02*
G01Y1449688D01*
Y1449688D02*
G01X1906818Y1449063D01*
Y1449063D02*
G01X1906591Y1448750D01*
X1905909Y1448438*
Y1448438D02*
G01X1903864D01*
X1905455D02*
G01X1907045Y1445000D01*
X1909091Y1451563D02*
G01Y1445000D01*
Y1451563D02*
G01X1912045D01*
X1909091Y1448438D02*
G01X1910909D01*
X1909091Y1445000D02*
G01X1912045D01*
X1919318Y1451563D02*
G01Y1445000D01*
Y1451563D02*
G01X1921364D01*
Y1451563D02*
G01X1922045Y1451250D01*
X1922273Y1450938*
Y1450938D02*
G01X1922500Y1450313D01*
Y1450313D02*
G01Y1449688D01*
Y1449688D02*
G01X1922273Y1449063D01*
Y1449063D02*
G01X1922045Y1448750D01*
X1921364Y1448438*
Y1448438D02*
G01X1919318D01*
X1920909D02*
G01X1922500Y1445000D01*
X1926364Y1451563D02*
G01X1924545Y1445000D01*
X1926364Y1451563D02*
G01X1928182Y1445000D01*
X1925227Y1447188D02*
G01X1927500D01*
X1930227Y1451563D02*
G01Y1445000D01*
Y1451563D02*
G01X1932045Y1445000D01*
X1933864Y1451563D02*
G01X1932045Y1445000D01*
X1933864Y1451563D02*
G01Y1445000D01*
X1935909Y1451563D02*
G01Y1445000D01*
Y1451563D02*
G01X1938864D01*
X1935909Y1448438D02*
G01X1937727D01*
X1935909Y1445000D02*
G01X1938864D01*
X1946136Y1450313D02*
G01X1946591Y1450625D01*
X1947273Y1451563*
Y1451563D02*
G01Y1445000D01*
X1952500Y1451563D02*
G01X1950227Y1445000D01*
X1949318Y1451563D02*
G01X1952500D01*
X1954545Y1449375D02*
G01Y1446250D01*
X1954773Y1445313*
Y1445313D02*
G01X1955227Y1445000D01*
X1955909*
X1956364Y1445313*
Y1445313D02*
G01X1957045Y1446250D01*
Y1449375D02*
G01Y1445000D01*
X1959091Y1449375D02*
G01Y1445000D01*
Y1448125D02*
G01X1959773Y1449063D01*
Y1449063D02*
G01X1960227Y1449375D01*
X1960909*
X1961364Y1449063*
Y1449063D02*
G01X1961591Y1448125D01*
Y1445000*
Y1448125D02*
G01X1962273Y1449063D01*
Y1449063D02*
G01X1962727Y1449375D01*
X1963409*
X1963864Y1449063*
Y1449063D02*
G01X1964091Y1448125D01*
Y1445000*
X1750000Y1439063D02*
G01Y1432500D01*
Y1439063D02*
G01X1752955D01*
X1750000Y1435938D02*
G01X1751818D01*
X1755000Y1439063D02*
G01Y1432500D01*
X1757045Y1439063D02*
G01Y1432500D01*
Y1439063D02*
G01X1760227Y1432500D01*
Y1439063D02*
G01Y1432500D01*
X1762273Y1439063D02*
G01Y1432500D01*
X1765909Y1439063D02*
G01Y1432500D01*
X1764318Y1439063D02*
G01X1767500D01*
X1769545D02*
G01Y1434375D01*
X1769773Y1433438*
Y1433438D02*
G01X1770227Y1432813D01*
Y1432813D02*
G01X1770909Y1432500D01*
X1771364*
X1772045Y1432813*
Y1432813D02*
G01X1772500Y1433438D01*
Y1433438D02*
G01X1772727Y1434375D01*
Y1439063*
X1774773D02*
G01Y1432500D01*
Y1439063D02*
G01X1776818D01*
Y1439063D02*
G01X1777500Y1438750D01*
X1777727Y1438438*
Y1438438D02*
G01X1777955Y1437813D01*
Y1437813D02*
G01Y1437188D01*
Y1437188D02*
G01X1777727Y1436563D01*
Y1436563D02*
G01X1777500Y1436250D01*
X1776818Y1435938*
Y1435938D02*
G01X1774773D01*
X1776364D02*
G01X1777955Y1432500D01*
X1781818Y1439063D02*
G01X1780000Y1432500D01*
X1781818Y1439063D02*
G01X1783636Y1432500D01*
X1780682Y1434688D02*
G01X1782955D01*
X1794091Y1438125D02*
G01X1793636Y1438750D01*
X1792955Y1439063*
Y1439063D02*
G01X1792045D01*
Y1439063D02*
G01X1791364Y1438750D01*
X1790909Y1438125*
Y1437500*
X1791136Y1436875*
X1791364Y1436563*
Y1436563D02*
G01X1791818Y1436250D01*
X1793182Y1435625*
X1793636Y1435313*
Y1435313D02*
G01X1793864Y1435000D01*
X1794091Y1434375*
Y1433438*
Y1433438D02*
G01X1793636Y1432813D01*
Y1432813D02*
G01X1792955Y1432500D01*
X1792045*
X1791364Y1432813*
Y1432813D02*
G01X1790909Y1433438D01*
X1796136Y1439063D02*
G01Y1434375D01*
X1796364Y1433438*
Y1433438D02*
G01X1796818Y1432813D01*
Y1432813D02*
G01X1797500Y1432500D01*
X1797955*
X1798636Y1432813*
Y1432813D02*
G01X1799091Y1433438D01*
Y1433438D02*
G01X1799318Y1434375D01*
Y1439063*
X1801364D02*
G01Y1432500D01*
Y1439063D02*
G01X1803409D01*
Y1439063D02*
G01X1804091Y1438750D01*
X1804318Y1438438*
Y1438438D02*
G01X1804545Y1437813D01*
Y1437813D02*
G01Y1436875D01*
X1804318Y1436250*
X1804091Y1435938*
Y1435938D02*
G01X1803409Y1435625D01*
X1801364*
X1806591Y1439063D02*
G01Y1432500D01*
Y1439063D02*
G01X1809545D01*
X1806591Y1435938D02*
G01X1808409D01*
X1806591Y1432500D02*
G01X1809545D01*
X1811591Y1439063D02*
G01Y1432500D01*
Y1439063D02*
G01X1813636D01*
Y1439063D02*
G01X1814318Y1438750D01*
X1814545Y1438438*
Y1438438D02*
G01X1814773Y1437813D01*
Y1437813D02*
G01Y1437188D01*
Y1437188D02*
G01X1814545Y1436563D01*
Y1436563D02*
G01X1814318Y1436250D01*
X1813636Y1435938*
Y1435938D02*
G01X1811591D01*
X1813182D02*
G01X1814773Y1432500D01*
X1816818Y1439063D02*
G01Y1432500D01*
Y1439063D02*
G01X1819773D01*
X1816818Y1435938D02*
G01X1818636D01*
X1821818Y1439063D02*
G01Y1432500D01*
X1827273Y1437500D02*
G01X1827045Y1438125D01*
X1826591Y1438750*
X1826136Y1439063*
Y1439063D02*
G01X1825227D01*
Y1439063D02*
G01X1824773Y1438750D01*
X1824318Y1438125*
X1824091Y1437500*
X1823864Y1436563*
Y1436563D02*
G01Y1435000D01*
X1824091Y1434063*
Y1434063D02*
G01X1824318Y1433438D01*
Y1433438D02*
G01X1824773Y1432813D01*
Y1432813D02*
G01X1825227Y1432500D01*
X1826136*
X1826591Y1432813*
Y1432813D02*
G01X1827045Y1433438D01*
Y1433438D02*
G01X1827273Y1434063D01*
X1829318Y1439063D02*
G01Y1432500D01*
X1833182Y1439063D02*
G01X1831364Y1432500D01*
X1833182Y1439063D02*
G01X1835000Y1432500D01*
X1832045Y1434688D02*
G01X1834318D01*
X1837045Y1439063D02*
G01Y1432500D01*
X1839773*
X1841818Y1439063D02*
G01Y1432500D01*
Y1439063D02*
G01X1844773D01*
X1841818Y1435938D02*
G01X1843636D01*
X1841818Y1432500D02*
G01X1844773D01*
X1852045Y1439063D02*
G01Y1432500D01*
Y1439063D02*
G01X1855000D01*
X1852045Y1435938D02*
G01X1853864D01*
X1852045Y1432500D02*
G01X1855000D01*
X1857045Y1439063D02*
G01Y1432500D01*
Y1439063D02*
G01X1860227Y1432500D01*
Y1439063D02*
G01Y1432500D01*
X1862273Y1439063D02*
G01Y1432500D01*
X1867727Y1437500D02*
G01X1867500Y1438125D01*
X1867045Y1438750*
X1866591Y1439063*
Y1439063D02*
G01X1865682D01*
Y1439063D02*
G01X1865227Y1438750D01*
X1864773Y1438125*
X1864545Y1437500*
X1864318Y1436563*
Y1436563D02*
G01Y1435000D01*
X1864545Y1434063*
Y1434063D02*
G01X1864773Y1433438D01*
Y1433438D02*
G01X1865227Y1432813D01*
Y1432813D02*
G01X1865682Y1432500D01*
X1866591*
X1867045Y1432813*
Y1432813D02*
G01X1867500Y1433438D01*
Y1433438D02*
G01X1867727Y1434063D01*
Y1434063D02*
G01Y1435000D01*
X1866591D02*
G01X1867727D01*
X1750827Y1577323D02*
G01X1979173D01*
Y1742677*
X1750827*
Y1577323*
X1755000Y1780000D02*
G01X1735000D01*
Y1760000*
Y1440000D02*
G01Y1420000D01*
X1755000*
X2265000Y1760000D02*
G01Y1780000D01*
X2245000*
Y1420000D02*
G01X2265000D01*
Y1440000*
X1987047Y1577323D02*
G01X2215394D01*
Y1742677*
X1987047*
Y1577323*
X1750827Y1569449D02*
G01X2215394D01*
Y1549764*
X1750827*
Y1569449*
Y1770236D02*
G01X2215394D01*
Y1750551*
X1750827*
Y1770236*
X1810695Y1569538D02*
G75*
G03X1810702Y1577300I163J3881D01*
X1829505Y1577290D02*
G03X1829498Y1569500I-163J-3895D01*
X1901295Y1569538D02*
G03X1901302Y1577300I163J3881D01*
X1920105Y1577290D02*
G03X1920098Y1569500I-163J-3895D01*
X1979410Y1619805D02*
G03X1987200Y1619798I3895J-163D01*
X1987162Y1600995D02*
G03X1979400Y1601002I-3881J163D01*
X1987162Y1699895D02*
G03X1979400Y1699902I-3881J163D01*
X1979410Y1718705D02*
G03X1987200Y1718698I3895J-163D01*
X1920205Y1750600D02*
G03X1920198Y1742600I-168J-4000D01*
X1901295D02*
G03X1901302Y1750600I168J4000D01*
X1829705D02*
G03X1829698Y1742600I-168J-4000D01*
X1810795D02*
G03X1810802Y1750600I168J4000D01*
X2137295Y1742600D02*
G03X2137302Y1750600I168J4000D01*
X2156205D02*
G03X2156198Y1742600I-168J-4000D01*
X2065705Y1750600D02*
G03X2065698Y1742600I-168J-4000D01*
X2046795D02*
G03X2046802Y1750600I168J4000D01*
X2046695Y1569538D02*
G03X2046702Y1577300I163J3881D01*
X2065505Y1577290D02*
G03X2065498Y1569500I-163J-3895D01*
X2137295Y1569538D02*
G03X2137302Y1577300I163J3881D01*
X2156105Y1577290D02*
G03X2156098Y1569500I-163J-3895D01*
X1995000Y1526000D02*
G01X2253000D01*
X1995000Y1502000D02*
G01X2253000D01*
X1995000Y1478000D02*
G01X2253000D01*
X1995000Y1454000D02*
G01X2253000D01*
X1995000Y1430000D02*
G01X2253000D01*
X1995000Y1526000D02*
G01Y1430000D01*
X2079000Y1526000D02*
G01Y1430000D01*
X2115000Y1526000D02*
G01Y1430000D01*
X2151000Y1526000D02*
G01Y1430000D01*
X2205000Y1526000D02*
G01Y1430000D01*
X2253000Y1526000D02*
G01Y1430000D01*
G54D17*
X1768600Y1686000D02*
G01X1773600Y1691000D01*
X1768600D02*
G01X1773600Y1686000D01*
X1768600Y1683900D02*
G01X1773600Y1688900D01*
X1768600D02*
G01X1773600Y1683900D01*
X1768600Y1656100D02*
G01X1773600Y1661100D01*
X1768600D02*
G01X1773600Y1656100D01*
X1768600Y1654000D02*
G01X1773600Y1659000D01*
X1768600D02*
G01X1773600Y1654000D01*
X1753400Y1686100D02*
G01X1758400Y1691100D01*
X1753400D02*
G01X1758400Y1686100D01*
X1753400Y1683900D02*
G01X1758400Y1688900D01*
X1753400D02*
G01X1758400Y1683900D01*
X1753400Y1656100D02*
G01X1758400Y1661100D01*
X1753400D02*
G01X1758400Y1656100D01*
X1753400Y1654000D02*
G01X1758400Y1659000D01*
X1753400D02*
G01X1758400Y1654000D01*
X1758500Y1729000D02*
G01X1763500D01*
Y1734000*
X1758500*
Y1729000*
X1761000Y1731500D02*
G01Y1734000D01*
X1966500Y1729000D02*
G01X1971500D01*
Y1734000*
X1966500*
Y1729000*
X1969000Y1731500D02*
G01Y1734000D01*
X1966500Y1586000D02*
G01X1971500D01*
Y1591000*
X1966500*
Y1586000*
X1969000Y1588500D02*
G01Y1591000D01*
X1758500Y1586000D02*
G01X1763500D01*
Y1591000*
X1758500*
Y1586000*
X1761000Y1588500D02*
G01Y1591000D01*
X1815094Y1750619D02*
G01X1820094D01*
X1817594Y1748119D02*
G01Y1753119D01*
X1819819Y1750619D02*
G01X1824819D01*
X1822319Y1748119D02*
G01Y1753119D01*
X1815094Y1742745D02*
G01X1820094D01*
X1817594Y1740245D02*
G01Y1745245D01*
X1819819Y1742745D02*
G01X1824819D01*
X1822319Y1740245D02*
G01Y1745245D01*
X1905646Y1750645D02*
G01X1910646D01*
X1908146Y1748145D02*
G01Y1753145D01*
X1910370Y1750645D02*
G01X1915370D01*
X1912870Y1748145D02*
G01Y1753145D01*
X1905646Y1742745D02*
G01X1910646D01*
X1908146Y1740245D02*
G01Y1745245D01*
X1910370Y1742745D02*
G01X1915370D01*
X1912870Y1740245D02*
G01Y1745245D01*
X1984774Y1711724D02*
G01X1989774D01*
X1987274Y1709224D02*
G01Y1714224D01*
X1976900Y1711724D02*
G01X1981900D01*
X1979400Y1709224D02*
G01Y1714224D01*
X1976900Y1707000D02*
G01X1981900D01*
X1979400Y1704500D02*
G01Y1709500D01*
X1984774Y1707000D02*
G01X1989774D01*
X1987274Y1704500D02*
G01Y1709500D01*
X1976900Y1612724D02*
G01X1981900D01*
X1979400Y1610224D02*
G01Y1615224D01*
X1976900Y1608000D02*
G01X1981900D01*
X1979400Y1605500D02*
G01Y1610500D01*
X1984774Y1612724D02*
G01X1989774D01*
X1987274Y1610224D02*
G01Y1615224D01*
X1984800Y1608024D02*
G01X1989800D01*
X1987300Y1605524D02*
G01Y1610524D01*
X1910370Y1577391D02*
G01X1915370D01*
X1912870Y1574891D02*
G01Y1579891D01*
X1905646Y1577391D02*
G01X1910646D01*
X1908146Y1574891D02*
G01Y1579891D01*
X1905646Y1569517D02*
G01X1910646D01*
X1908146Y1567017D02*
G01Y1572017D01*
X1910370Y1569517D02*
G01X1915370D01*
X1912870Y1567017D02*
G01Y1572017D01*
X1819819Y1577391D02*
G01X1824819D01*
X1822319Y1574891D02*
G01Y1579891D01*
X1815094Y1577391D02*
G01X1820094D01*
X1817594Y1574891D02*
G01Y1579891D01*
X1815094Y1569517D02*
G01X1820094D01*
X1817594Y1567017D02*
G01Y1572017D01*
X1819819Y1569517D02*
G01X1824819D01*
X1822319Y1567017D02*
G01Y1572017D01*
X2051094Y1577391D02*
G01X2056094D01*
X2053594Y1574891D02*
G01Y1579891D01*
X2055819Y1577391D02*
G01X2060819D01*
X2058319Y1574891D02*
G01Y1579891D01*
X2051094Y1569517D02*
G01X2056094D01*
X2053594Y1567017D02*
G01Y1572017D01*
X2055819Y1569517D02*
G01X2060819D01*
X2058319Y1567017D02*
G01Y1572017D01*
X2141646Y1577391D02*
G01X2146646D01*
X2144146Y1574891D02*
G01Y1579891D01*
X2146370Y1577391D02*
G01X2151370D01*
X2148870Y1574891D02*
G01Y1579891D01*
X2141646Y1569517D02*
G01X2146646D01*
X2144146Y1567017D02*
G01Y1572017D01*
X2146370Y1569517D02*
G01X2151370D01*
X2148870Y1567017D02*
G01Y1572017D01*
X2051094Y1742745D02*
G01X2056094D01*
X2053594Y1740245D02*
G01Y1745245D01*
X2055819Y1742745D02*
G01X2060819D01*
X2058319Y1740245D02*
G01Y1745245D01*
X2055819Y1750619D02*
G01X2060819D01*
X2058319Y1748119D02*
G01Y1753119D01*
X2051094Y1750619D02*
G01X2056094D01*
X2053594Y1748119D02*
G01Y1753119D01*
X2141646Y1750645D02*
G01X2146646D01*
X2144146Y1748145D02*
G01Y1753145D01*
X2146370Y1750645D02*
G01X2151370D01*
X2148870Y1748145D02*
G01Y1753145D01*
X2146370Y1742745D02*
G01X2151370D01*
X2148870Y1740245D02*
G01Y1745245D01*
X2141646Y1742745D02*
G01X2146646D01*
X2144146Y1740245D02*
G01Y1745245D01*
X1769500Y1595500D02*
G01X1774500Y1600500D01*
X1769500D02*
G01X1774500Y1595500D01*
X1761500Y1614000D02*
G01X1766500Y1619000D01*
X1761500D02*
G01X1766500Y1614000D01*
X1767500Y1611500D02*
G01X1772500Y1616500D01*
X1767500D02*
G01X1772500Y1611500D01*
X1765000D02*
G01X1770000Y1616500D01*
X1765000D02*
G01X1770000Y1611500D01*
X1758500Y1613000D02*
G01X1763500Y1618000D01*
X1758500D02*
G01X1763500Y1613000D01*
X1761500Y1611000D02*
G01X1766500Y1616000D01*
X1761500D02*
G01X1766500Y1611000D01*
X1783500Y1608673D02*
G01X1788500Y1613673D01*
X1783500D02*
G01X1788500Y1608673D01*
X1809500Y1613000D02*
G01X1814500Y1618000D01*
X1809500D02*
G01X1814500Y1613000D01*
X1776500Y1592000D02*
G01X1781500Y1597000D01*
X1776500D02*
G01X1781500Y1592000D01*
X1779500Y1587500D02*
G01X1784500Y1592500D01*
X1779500D02*
G01X1784500Y1587500D01*
X1779500Y1583500D02*
G01X1784500Y1588500D01*
X1779500D02*
G01X1784500Y1583500D01*
X1779500Y1579000D02*
G01X1784500Y1584000D01*
X1779500D02*
G01X1784500Y1579000D01*
X1843500Y1613500D02*
G01X1848500Y1618500D01*
X1843500D02*
G01X1848500Y1613500D01*
X1836400Y1603000D02*
G01X1841400Y1608000D01*
X1836400D02*
G01X1841400Y1603000D01*
X1843500Y1611000D02*
G01X1848500Y1616000D01*
X1843500D02*
G01X1848500Y1611000D01*
X1844800Y1616100D02*
G01X1849800Y1621100D01*
X1844800D02*
G01X1849800Y1616100D01*
X1837900Y1605100D02*
G01X1842900Y1610100D01*
X1837900D02*
G01X1842900Y1605100D01*
X1846500Y1604000D02*
G01X1851500Y1609000D01*
X1846500D02*
G01X1851500Y1604000D01*
X1843500Y1608500D02*
G01X1848500Y1613500D01*
X1843500D02*
G01X1848500Y1608500D01*
X1818000Y1611000D02*
G01X1823000Y1616000D01*
X1818000D02*
G01X1823000Y1611000D01*
X1818000Y1615000D02*
G01X1823000Y1620000D01*
X1818000D02*
G01X1823000Y1615000D01*
X1817500Y1607500D02*
G01X1822500Y1612500D01*
X1817500D02*
G01X1822500Y1607500D01*
X1827000Y1604500D02*
G01X1832000Y1609500D01*
X1827000D02*
G01X1832000Y1604500D01*
X1812500Y1608000D02*
G01X1817500Y1613000D01*
X1812500D02*
G01X1817500Y1608000D01*
X1818000Y1613000D02*
G01X1823000Y1618000D01*
X1818000D02*
G01X1823000Y1613000D01*
X1823500Y1597500D02*
G01X1828500Y1602500D01*
X1823500D02*
G01X1828500Y1597500D01*
X1834500D02*
G01X1839500Y1602500D01*
X1834500D02*
G01X1839500Y1597500D01*
X1840500Y1579000D02*
G01X1845500Y1584000D01*
X1840500D02*
G01X1845500Y1579000D01*
X1828500D02*
G01X1833500Y1584000D01*
X1828500D02*
G01X1833500Y1579000D01*
X1834500D02*
G01X1839500Y1584000D01*
X1834500D02*
G01X1839500Y1579000D01*
X1837500D02*
G01X1842500Y1584000D01*
X1837500D02*
G01X1842500Y1579000D01*
X1824000D02*
G01X1829000Y1584000D01*
X1824000D02*
G01X1829000Y1579000D01*
X1820000D02*
G01X1825000Y1584000D01*
X1820000D02*
G01X1825000Y1579000D01*
X1828500Y1602000D02*
G01X1833500Y1607000D01*
X1828500D02*
G01X1833500Y1602000D01*
X1826000Y1615000D02*
G01X1831000Y1620000D01*
X1826000D02*
G01X1831000Y1615000D01*
X1826000Y1612000D02*
G01X1831000Y1617000D01*
X1826000D02*
G01X1831000Y1612000D01*
X1849000Y1604000D02*
G01X1854000Y1609000D01*
X1849000D02*
G01X1854000Y1604000D01*
X1868500Y1606000D02*
G01X1873500Y1611000D01*
X1868500D02*
G01X1873500Y1606000D01*
X1852000Y1604500D02*
G01X1857000Y1609500D01*
X1852000D02*
G01X1857000Y1604500D01*
X1881500Y1615500D02*
G01X1886500Y1620500D01*
X1881500D02*
G01X1886500Y1615500D01*
X1880500Y1592000D02*
G01X1885500Y1597000D01*
X1880500D02*
G01X1885500Y1592000D01*
X1862000Y1579000D02*
G01X1867000Y1584000D01*
X1862000D02*
G01X1867000Y1579000D01*
X1865000D02*
G01X1870000Y1584000D01*
X1865000D02*
G01X1870000Y1579000D01*
X1859500D02*
G01X1864500Y1584000D01*
X1859500D02*
G01X1864500Y1579000D01*
X1887500D02*
G01X1892500Y1584000D01*
X1887500D02*
G01X1892500Y1579000D01*
X1884500D02*
G01X1889500Y1584000D01*
X1884500D02*
G01X1889500Y1579000D01*
X1898500Y1599000D02*
G01X1903500Y1604000D01*
X1898500D02*
G01X1903500Y1599000D01*
X1905000Y1579000D02*
G01X1910000Y1584000D01*
X1905000D02*
G01X1910000Y1579000D01*
X1900500D02*
G01X1905500Y1584000D01*
X1900500D02*
G01X1905500Y1579000D01*
X1896500D02*
G01X1901500Y1584000D01*
X1896500D02*
G01X1901500Y1579000D01*
X1890500D02*
G01X1895500Y1584000D01*
X1890500D02*
G01X1895500Y1579000D01*
X1901000Y1599000D02*
G01X1906000Y1604000D01*
X1901000D02*
G01X1906000Y1599000D01*
X1896500Y1608000D02*
G01X1901500Y1613000D01*
X1896500D02*
G01X1901500Y1608000D01*
X1956000Y1594500D02*
G01X1961000Y1599500D01*
X1956000D02*
G01X1961000Y1594500D01*
X1932500Y1589500D02*
G01X1937500Y1594500D01*
X1932500D02*
G01X1937500Y1589500D01*
X1935228Y1612000D02*
G01X1940228Y1617000D01*
X1935228D02*
G01X1940228Y1612000D01*
X1940500Y1611000D02*
G01X1945500Y1616000D01*
X1940500D02*
G01X1945500Y1611000D01*
X1930000Y1612000D02*
G01X1935000Y1617000D01*
X1930000D02*
G01X1935000Y1612000D01*
X1944500Y1609000D02*
G01X1949500Y1614000D01*
X1944500D02*
G01X1949500Y1609000D01*
X1949000Y1595000D02*
G01X1954000Y1600000D01*
X1949000D02*
G01X1954000Y1595000D01*
X1945500Y1587500D02*
G01X1950500Y1592500D01*
X1945500D02*
G01X1950500Y1587500D01*
X1945500Y1583500D02*
G01X1950500Y1588500D01*
X1945500D02*
G01X1950500Y1583500D01*
X1945500Y1579000D02*
G01X1950500Y1584000D01*
X1945500D02*
G01X1950500Y1579000D01*
X1969500Y1610000D02*
G01X1974500Y1615000D01*
X1969500D02*
G01X1974500Y1610000D01*
X1755600Y1638600D02*
G01X1760600Y1643600D01*
X1755600D02*
G01X1760600Y1638600D01*
X1755600Y1641100D02*
G01X1760600Y1646100D01*
X1755600D02*
G01X1760600Y1641100D01*
X1768700Y1638700D02*
G01X1773700Y1643700D01*
X1768700D02*
G01X1773700Y1638700D01*
X1763600Y1639700D02*
G01X1768600Y1644700D01*
X1763600D02*
G01X1768600Y1639700D01*
X1763500Y1642000D02*
G01X1768500Y1647000D01*
X1763500D02*
G01X1768500Y1642000D01*
X1755400Y1646000D02*
G01X1760400Y1651000D01*
X1755400D02*
G01X1760400Y1646000D01*
X1759500Y1643000D02*
G01X1764500Y1648000D01*
X1759500D02*
G01X1764500Y1643000D01*
X1755100Y1649300D02*
G01X1760100Y1654300D01*
X1755100D02*
G01X1760100Y1649300D01*
X1789000Y1644000D02*
G01X1794000Y1649000D01*
X1789000D02*
G01X1794000Y1644000D01*
X1774500Y1636000D02*
G01X1779500Y1641000D01*
X1774500D02*
G01X1779500Y1636000D01*
X1798500Y1625000D02*
G01X1803500Y1630000D01*
X1798500D02*
G01X1803500Y1625000D01*
X1776200Y1624000D02*
G01X1781200Y1629000D01*
X1776200D02*
G01X1781200Y1624000D01*
X1806500Y1625000D02*
G01X1811500Y1630000D01*
X1806500D02*
G01X1811500Y1625000D01*
X1809000Y1621500D02*
G01X1814000Y1626500D01*
X1809000D02*
G01X1814000Y1621500D01*
X1771100Y1640100D02*
G01X1776100Y1645100D01*
X1771100D02*
G01X1776100Y1640100D01*
X1787500Y1648500D02*
G01X1792500Y1653500D01*
X1787500D02*
G01X1792500Y1648500D01*
X1787500Y1646000D02*
G01X1792500Y1651000D01*
X1787500D02*
G01X1792500Y1646000D01*
X1800500Y1622500D02*
G01X1805500Y1627500D01*
X1800500D02*
G01X1805500Y1622500D01*
X1800500Y1625000D02*
G01X1805500Y1630000D01*
X1800500D02*
G01X1805500Y1625000D01*
X1788200Y1654100D02*
G01X1793200Y1659100D01*
X1788200D02*
G01X1793200Y1654100D01*
X1776500Y1630500D02*
G01X1781500Y1635500D01*
X1776500D02*
G01X1781500Y1630500D01*
X1778500Y1644500D02*
G01X1783500Y1649500D01*
X1778500D02*
G01X1783500Y1644500D01*
X1778500Y1632500D02*
G01X1783500Y1637500D01*
X1778500D02*
G01X1783500Y1632500D01*
X1777900Y1652126D02*
G01X1782900Y1657126D01*
X1777900D02*
G01X1782900Y1652126D01*
X1777921Y1649279D02*
G01X1782921Y1654279D01*
X1777921D02*
G01X1782921Y1649279D01*
X1804500Y1641000D02*
G01X1809500Y1646000D01*
X1804500D02*
G01X1809500Y1641000D01*
X1782500Y1629000D02*
G01X1787500Y1634000D01*
X1782500D02*
G01X1787500Y1629000D01*
X1793500Y1641000D02*
G01X1798500Y1646000D01*
X1793500D02*
G01X1798500Y1641000D01*
X1776000Y1618000D02*
G01X1781000Y1623000D01*
X1776000D02*
G01X1781000Y1618000D01*
X1798500Y1641000D02*
G01X1803500Y1646000D01*
X1798500D02*
G01X1803500Y1641000D01*
X1775500Y1641500D02*
G01X1780500Y1646500D01*
X1775500D02*
G01X1780500Y1641500D01*
X1809430Y1651320D02*
G01X1814430Y1656320D01*
X1809430D02*
G01X1814430Y1651320D01*
X1783500Y1626500D02*
G01X1788500Y1631500D01*
X1783500D02*
G01X1788500Y1626500D01*
X1782500Y1618000D02*
G01X1787500Y1623000D01*
X1782500D02*
G01X1787500Y1618000D01*
X1791000Y1640500D02*
G01X1796000Y1645500D01*
X1791000D02*
G01X1796000Y1640500D01*
X1826600Y1625200D02*
G01X1831600Y1630200D01*
X1826600D02*
G01X1831600Y1625200D01*
X1825300Y1635100D02*
G01X1830300Y1640100D01*
X1825300D02*
G01X1830300Y1635100D01*
X1829000Y1625100D02*
G01X1834000Y1630100D01*
X1829000D02*
G01X1834000Y1625100D01*
X1848000Y1618700D02*
G01X1853000Y1623700D01*
X1848000D02*
G01X1853000Y1618700D01*
X1838800Y1623800D02*
G01X1843800Y1628800D01*
X1838800D02*
G01X1843800Y1623800D01*
X1829000Y1619500D02*
G01X1834000Y1624500D01*
X1829000D02*
G01X1834000Y1619500D01*
X1823500Y1625000D02*
G01X1828500Y1630000D01*
X1823500D02*
G01X1828500Y1625000D01*
X1812800D02*
G01X1817800Y1630000D01*
X1812800D02*
G01X1817800Y1625000D01*
X1820500D02*
G01X1825500Y1630000D01*
X1820500D02*
G01X1825500Y1625000D01*
X1810500D02*
G01X1815500Y1630000D01*
X1810500D02*
G01X1815500Y1625000D01*
X1832900Y1655300D02*
G01X1837900Y1660300D01*
X1832900D02*
G01X1837900Y1655300D01*
X1837000Y1642500D02*
G01X1842000Y1647500D01*
X1837000D02*
G01X1842000Y1642500D01*
X1834000Y1648000D02*
G01X1839000Y1653000D01*
X1834000D02*
G01X1839000Y1648000D01*
X1832500Y1651500D02*
G01X1837500Y1656500D01*
X1832500D02*
G01X1837500Y1651500D01*
X1847500Y1646500D02*
G01X1852500Y1651500D01*
X1847500D02*
G01X1852500Y1646500D01*
X1827500Y1635000D02*
G01X1832500Y1640000D01*
X1827500D02*
G01X1832500Y1635000D01*
X1829000Y1639500D02*
G01X1834000Y1644500D01*
X1829000D02*
G01X1834000Y1639500D01*
X1847000Y1642300D02*
G01X1852000Y1647300D01*
X1847000D02*
G01X1852000Y1642300D01*
X1818000Y1617000D02*
G01X1823000Y1622000D01*
X1818000D02*
G01X1823000Y1617000D01*
X1820800Y1620400D02*
G01X1825800Y1625400D01*
X1820800D02*
G01X1825800Y1620400D01*
X1839000Y1627000D02*
G01X1844000Y1632000D01*
X1839000D02*
G01X1844000Y1627000D01*
X1811330Y1644050D02*
G01X1816330Y1649050D01*
X1811330D02*
G01X1816330Y1644050D01*
X1823500Y1621000D02*
G01X1828500Y1626000D01*
X1823500D02*
G01X1828500Y1621000D01*
Y1644000D02*
G01X1833500Y1649000D01*
X1828500D02*
G01X1833500Y1644000D01*
X1847500Y1652000D02*
G01X1852500Y1657000D01*
X1847500D02*
G01X1852500Y1652000D01*
X1818000Y1641000D02*
G01X1823000Y1646000D01*
X1818000D02*
G01X1823000Y1641000D01*
X1848000Y1655000D02*
G01X1853000Y1660000D01*
X1848000D02*
G01X1853000Y1655000D01*
X1845500Y1626500D02*
G01X1850500Y1631500D01*
X1845500D02*
G01X1850500Y1626500D01*
X1843500D02*
G01X1848500Y1631500D01*
X1843500D02*
G01X1848500Y1626500D01*
X1841500D02*
G01X1846500Y1631500D01*
X1841500D02*
G01X1846500Y1626500D01*
X1826500Y1637000D02*
G01X1831500Y1642000D01*
X1826500D02*
G01X1831500Y1637000D01*
X1814500Y1640500D02*
G01X1819500Y1645500D01*
X1814500D02*
G01X1819500Y1640500D01*
X1810000D02*
G01X1815000Y1645500D01*
X1810000D02*
G01X1815000Y1640500D01*
X1870000Y1636500D02*
G01X1875000Y1641500D01*
X1870000D02*
G01X1875000Y1636500D01*
X1851000Y1621200D02*
G01X1856000Y1626200D01*
X1851000D02*
G01X1856000Y1621200D01*
X1887000Y1617500D02*
G01X1892000Y1622500D01*
X1887000D02*
G01X1892000Y1617500D01*
X1855000Y1633000D02*
G01X1860000Y1638000D01*
X1855000D02*
G01X1860000Y1633000D01*
X1875400Y1646500D02*
G01X1880400Y1651500D01*
X1875400D02*
G01X1880400Y1646500D01*
X1862000Y1654500D02*
G01X1867000Y1659500D01*
X1862000D02*
G01X1867000Y1654500D01*
X1853000Y1646000D02*
G01X1858000Y1651000D01*
X1853000D02*
G01X1858000Y1646000D01*
X1874500Y1648500D02*
G01X1879500Y1653500D01*
X1874500D02*
G01X1879500Y1648500D01*
X1853000Y1652500D02*
G01X1858000Y1657500D01*
X1853000D02*
G01X1858000Y1652500D01*
X1855000Y1644500D02*
G01X1860000Y1649500D01*
X1855000D02*
G01X1860000Y1644500D01*
X1870500Y1641000D02*
G01X1875500Y1646000D01*
X1870500D02*
G01X1875500Y1641000D01*
X1874500Y1644600D02*
G01X1879500Y1649600D01*
X1874500D02*
G01X1879500Y1644600D01*
X1874500Y1652100D02*
G01X1879500Y1657100D01*
X1874500D02*
G01X1879500Y1652100D01*
X1854500Y1654500D02*
G01X1859500Y1659500D01*
X1854500D02*
G01X1859500Y1654500D01*
X1884000Y1617500D02*
G01X1889000Y1622500D01*
X1884000D02*
G01X1889000Y1617500D01*
X1877200Y1650200D02*
G01X1882200Y1655200D01*
X1877200D02*
G01X1882200Y1650200D01*
X1876500Y1641900D02*
G01X1881500Y1646900D01*
X1876500D02*
G01X1881500Y1641900D01*
X1866100Y1641300D02*
G01X1871100Y1646300D01*
X1866100D02*
G01X1871100Y1641300D01*
X1855400Y1650500D02*
G01X1860400Y1655500D01*
X1855400D02*
G01X1860400Y1650500D01*
X1874500Y1656400D02*
G01X1879500Y1661400D01*
X1874500D02*
G01X1879500Y1656400D01*
X1855500Y1642500D02*
G01X1860500Y1647500D01*
X1855500D02*
G01X1860500Y1642500D01*
X1855300Y1646500D02*
G01X1860300Y1651500D01*
X1855300D02*
G01X1860300Y1646500D01*
X1858000Y1640500D02*
G01X1863000Y1645500D01*
X1858000D02*
G01X1863000Y1640500D01*
X1878000Y1625500D02*
G01X1883000Y1630500D01*
X1878000D02*
G01X1883000Y1625500D01*
X1878000Y1623500D02*
G01X1883000Y1628500D01*
X1878000D02*
G01X1883000Y1623500D01*
X1864000Y1654500D02*
G01X1869000Y1659500D01*
X1864000D02*
G01X1869000Y1654500D01*
X1893000Y1617500D02*
G01X1898000Y1622500D01*
X1893000D02*
G01X1898000Y1617500D01*
X1914000Y1620500D02*
G01X1919000Y1625500D01*
X1914000D02*
G01X1919000Y1620500D01*
X1909000D02*
G01X1914000Y1625500D01*
X1909000D02*
G01X1914000Y1620500D01*
X1916500D02*
G01X1921500Y1625500D01*
X1916500D02*
G01X1921500Y1620500D01*
X1911500D02*
G01X1916500Y1625500D01*
X1911500D02*
G01X1916500Y1620500D01*
X1901500Y1639500D02*
G01X1906500Y1644500D01*
X1901500D02*
G01X1906500Y1639500D01*
X1896500D02*
G01X1901500Y1644500D01*
X1896500D02*
G01X1901500Y1639500D01*
X1899000D02*
G01X1904000Y1644500D01*
X1899000D02*
G01X1904000Y1639500D01*
X1890000Y1617500D02*
G01X1895000Y1622500D01*
X1890000D02*
G01X1895000Y1617500D01*
X1894800Y1656400D02*
G01X1899800Y1661400D01*
X1894800D02*
G01X1899800Y1656400D01*
X1919000Y1641000D02*
G01X1924000Y1646000D01*
X1919000D02*
G01X1924000Y1641000D01*
X1915000Y1640800D02*
G01X1920000Y1645800D01*
X1915000D02*
G01X1920000Y1640800D01*
X1905000D02*
G01X1910000Y1645800D01*
X1905000D02*
G01X1910000Y1640800D01*
X1909000Y1651000D02*
G01X1914000Y1656000D01*
X1909000D02*
G01X1914000Y1651000D01*
X1910000Y1641000D02*
G01X1915000Y1646000D01*
X1910000D02*
G01X1915000Y1641000D01*
X1962200Y1638900D02*
G01X1967200Y1643900D01*
X1962200D02*
G01X1967200Y1638900D01*
X1953000Y1650600D02*
G01X1958000Y1655600D01*
X1953000D02*
G01X1958000Y1650600D01*
X1964400Y1638800D02*
G01X1969400Y1643800D01*
X1964400D02*
G01X1969400Y1638800D01*
X1946500Y1621500D02*
G01X1951500Y1626500D01*
X1946500D02*
G01X1951500Y1621500D01*
X1949000Y1650500D02*
G01X1954000Y1655500D01*
X1949000D02*
G01X1954000Y1650500D01*
X1957000D02*
G01X1962000Y1655500D01*
X1957000D02*
G01X1962000Y1650500D01*
X1933000Y1645500D02*
G01X1938000Y1650500D01*
X1933000D02*
G01X1938000Y1645500D01*
X1930000Y1632500D02*
G01X1935000Y1637500D01*
X1930000D02*
G01X1935000Y1632500D01*
X1953000Y1635000D02*
G01X1958000Y1640000D01*
X1953000D02*
G01X1958000Y1635000D01*
X1943000Y1637000D02*
G01X1948000Y1642000D01*
X1943000D02*
G01X1948000Y1637000D01*
X1957500D02*
G01X1962500Y1642000D01*
X1957500D02*
G01X1962500Y1637000D01*
X1951500Y1623177D02*
G01X1956500Y1628177D01*
X1951500D02*
G01X1956500Y1623177D01*
X1966000Y1622000D02*
G01X1971000Y1627000D01*
X1966000D02*
G01X1971000Y1622000D01*
X1945000Y1645500D02*
G01X1950000Y1650500D01*
X1945000D02*
G01X1950000Y1645500D01*
Y1625500D02*
G01X1955000Y1630500D01*
X1950000D02*
G01X1955000Y1625500D01*
X1960000Y1627500D02*
G01X1965000Y1632500D01*
X1960000D02*
G01X1965000Y1627500D01*
X1933000Y1642000D02*
G01X1938000Y1647000D01*
X1933000D02*
G01X1938000Y1642000D01*
X1972500Y1643000D02*
G01X1977500Y1648000D01*
X1972500D02*
G01X1977500Y1643000D01*
X1972500Y1645500D02*
G01X1977500Y1650500D01*
X1972500D02*
G01X1977500Y1645500D01*
X1972500Y1648000D02*
G01X1977500Y1653000D01*
X1972500D02*
G01X1977500Y1648000D01*
X1763100Y1676300D02*
G01X1768100Y1681300D01*
X1763100D02*
G01X1768100Y1676300D01*
X1757400Y1661100D02*
G01X1762400Y1666100D01*
X1757400D02*
G01X1762400Y1661100D01*
X1764800Y1662900D02*
G01X1769800Y1667900D01*
X1764800D02*
G01X1769800Y1662900D01*
X1757400Y1663200D02*
G01X1762400Y1668200D01*
X1757400D02*
G01X1762400Y1663200D01*
X1764900Y1669100D02*
G01X1769900Y1674100D01*
X1764900D02*
G01X1769900Y1669100D01*
X1765000Y1671700D02*
G01X1770000Y1676700D01*
X1765000D02*
G01X1770000Y1671700D01*
X1765000Y1674700D02*
G01X1770000Y1679700D01*
X1765000D02*
G01X1770000Y1674700D01*
X1758900Y1668300D02*
G01X1763900Y1673300D01*
X1758900D02*
G01X1763900Y1668300D01*
X1757000Y1673500D02*
G01X1762000Y1678500D01*
X1757000D02*
G01X1762000Y1673500D01*
X1758500Y1678500D02*
G01X1763500Y1683500D01*
X1758500D02*
G01X1763500Y1678500D01*
X1764500Y1677900D02*
G01X1769500Y1682900D01*
X1764500D02*
G01X1769500Y1677900D01*
X1762500Y1679500D02*
G01X1767500Y1684500D01*
X1762500D02*
G01X1767500Y1679500D01*
X1761000Y1689000D02*
G01X1766000Y1694000D01*
X1761000D02*
G01X1766000Y1689000D01*
X1764500D02*
G01X1769500Y1694000D01*
X1764500D02*
G01X1769500Y1689000D01*
X1757300Y1676300D02*
G01X1762300Y1681300D01*
X1757300D02*
G01X1762300Y1676300D01*
X1764500Y1658000D02*
G01X1769500Y1663000D01*
X1764500D02*
G01X1769500Y1658000D01*
X1760900Y1672600D02*
G01X1765900Y1677600D01*
X1760900D02*
G01X1765900Y1672600D01*
X1757900Y1691200D02*
G01X1762900Y1696200D01*
X1757900D02*
G01X1762900Y1691200D01*
X1806200Y1677400D02*
G01X1811200Y1682400D01*
X1806200D02*
G01X1811200Y1677400D01*
X1806100Y1680700D02*
G01X1811100Y1685700D01*
X1806100D02*
G01X1811100Y1680700D01*
X1780200Y1692400D02*
G01X1785200Y1697400D01*
X1780200D02*
G01X1785200Y1692400D01*
X1783300Y1695900D02*
G01X1788300Y1700900D01*
X1783300D02*
G01X1788300Y1695900D01*
X1792900Y1659200D02*
G01X1797900Y1664200D01*
X1792900D02*
G01X1797900Y1659200D01*
X1795200D02*
G01X1800200Y1664200D01*
X1795200D02*
G01X1800200Y1659200D01*
X1777300Y1676400D02*
G01X1782300Y1681400D01*
X1777300D02*
G01X1782300Y1676400D01*
X1789000Y1683700D02*
G01X1794000Y1688700D01*
X1789000D02*
G01X1794000Y1683700D01*
X1772200Y1663100D02*
G01X1777200Y1668100D01*
X1772200D02*
G01X1777200Y1663100D01*
X1786500Y1688000D02*
G01X1791500Y1693000D01*
X1786500D02*
G01X1791500Y1688000D01*
X1786500Y1693500D02*
G01X1791500Y1698500D01*
X1786500D02*
G01X1791500Y1693500D01*
X1786500Y1691000D02*
G01X1791500Y1696000D01*
X1786500D02*
G01X1791500Y1691000D01*
X1777500Y1668000D02*
G01X1782500Y1673000D01*
X1777500D02*
G01X1782500Y1668000D01*
X1781300Y1694600D02*
G01X1786300Y1699600D01*
X1781300D02*
G01X1786300Y1694600D01*
X1787500Y1660000D02*
G01X1792500Y1665000D01*
X1787500D02*
G01X1792500Y1660000D01*
X1789200Y1680400D02*
G01X1794200Y1685400D01*
X1789200D02*
G01X1794200Y1680400D01*
X1774800Y1675800D02*
G01X1779800Y1680800D01*
X1774800D02*
G01X1779800Y1675800D01*
X1777800Y1660000D02*
G01X1782800Y1665000D01*
X1777800D02*
G01X1782800Y1660000D01*
X1778000Y1656500D02*
G01X1783000Y1661500D01*
X1778000D02*
G01X1783000Y1656500D01*
X1791600Y1671300D02*
G01X1796600Y1676300D01*
X1791600D02*
G01X1796600Y1671300D01*
X1789500Y1672300D02*
G01X1794500Y1677300D01*
X1789500D02*
G01X1794500Y1672300D01*
X1803000Y1674400D02*
G01X1808000Y1679400D01*
X1803000D02*
G01X1808000Y1674400D01*
X1787737Y1677037D02*
G01X1792737Y1682037D01*
X1787737D02*
G01X1792737Y1677037D01*
X1809400Y1677500D02*
G01X1814400Y1682500D01*
X1809400D02*
G01X1814400Y1677500D01*
X1795000Y1667000D02*
G01X1800000Y1672000D01*
X1795000D02*
G01X1800000Y1667000D01*
X1778100Y1673500D02*
G01X1783100Y1678500D01*
X1778100D02*
G01X1783100Y1673500D01*
X1803170Y1668120D02*
G01X1808170Y1673120D01*
X1803170D02*
G01X1808170Y1668120D01*
X1809300Y1658630D02*
G01X1814300Y1663630D01*
X1809300D02*
G01X1814300Y1658630D01*
X1775500Y1688000D02*
G01X1780500Y1693000D01*
X1775500D02*
G01X1780500Y1688000D01*
X1769800Y1676300D02*
G01X1774800Y1681300D01*
X1769800D02*
G01X1774800Y1676300D01*
X1808800Y1685500D02*
G01X1813800Y1690500D01*
X1808800D02*
G01X1813800Y1685500D01*
X1798700Y1685600D02*
G01X1803700Y1690600D01*
X1798700D02*
G01X1803700Y1685600D01*
X1795500Y1679024D02*
G01X1800500Y1684024D01*
X1795500D02*
G01X1800500Y1679024D01*
X1806300Y1685500D02*
G01X1811300Y1690500D01*
X1806300D02*
G01X1811300Y1685500D01*
X1809200Y1668000D02*
G01X1814200Y1673000D01*
X1809200D02*
G01X1814200Y1668000D01*
X1795000Y1663500D02*
G01X1800000Y1668500D01*
X1795000D02*
G01X1800000Y1663500D01*
X1771531Y1682500D02*
G01X1776531Y1687500D01*
X1771531D02*
G01X1776531Y1682500D01*
X1809380Y1674290D02*
G01X1814380Y1679290D01*
X1809380D02*
G01X1814380Y1674290D01*
X1787000Y1665000D02*
G01X1792000Y1670000D01*
X1787000D02*
G01X1792000Y1665000D01*
X1806080Y1664830D02*
G01X1811080Y1669830D01*
X1806080D02*
G01X1811080Y1664830D01*
X1802500Y1685500D02*
G01X1807500Y1690500D01*
X1802500D02*
G01X1807500Y1685500D01*
X1835100Y1673700D02*
G01X1840100Y1678700D01*
X1835100D02*
G01X1840100Y1673700D01*
X1847300Y1667000D02*
G01X1852300Y1672000D01*
X1847300D02*
G01X1852300Y1667000D01*
X1848500Y1668600D02*
G01X1853500Y1673600D01*
X1848500D02*
G01X1853500Y1668600D01*
X1822300Y1684300D02*
G01X1827300Y1689300D01*
X1822300D02*
G01X1827300Y1684300D01*
X1824300Y1685400D02*
G01X1829300Y1690400D01*
X1824300D02*
G01X1829300Y1685400D01*
X1820000Y1685000D02*
G01X1825000Y1690000D01*
X1820000D02*
G01X1825000Y1685000D01*
X1836600Y1663200D02*
G01X1841600Y1668200D01*
X1836600D02*
G01X1841600Y1663200D01*
X1837400Y1683600D02*
G01X1842400Y1688600D01*
X1837400D02*
G01X1842400Y1683600D01*
X1832300Y1682000D02*
G01X1837300Y1687000D01*
X1832300D02*
G01X1837300Y1682000D01*
X1818700Y1677500D02*
G01X1823700Y1682500D01*
X1818700D02*
G01X1823700Y1677500D01*
X1815700Y1680600D02*
G01X1820700Y1685600D01*
X1815700D02*
G01X1820700Y1680600D01*
X1828800Y1682200D02*
G01X1833800Y1687200D01*
X1828800D02*
G01X1833800Y1682200D01*
X1812500Y1680600D02*
G01X1817500Y1685600D01*
X1812500D02*
G01X1817500Y1680600D01*
X1837500Y1694500D02*
G01X1842500Y1699500D01*
X1837500D02*
G01X1842500Y1694500D01*
X1839500Y1690000D02*
G01X1844500Y1695000D01*
X1839500D02*
G01X1844500Y1690000D01*
X1815670Y1674460D02*
G01X1820670Y1679460D01*
X1815670D02*
G01X1820670Y1674460D01*
X1822000Y1661800D02*
G01X1827000Y1666800D01*
X1822000D02*
G01X1827000Y1661800D01*
X1825000Y1668100D02*
G01X1830000Y1673100D01*
X1825000D02*
G01X1830000Y1668100D01*
X1825200Y1661800D02*
G01X1830200Y1666800D01*
X1825200D02*
G01X1830200Y1661800D01*
X1829000Y1669000D02*
G01X1834000Y1674000D01*
X1829000D02*
G01X1834000Y1669000D01*
X1825100Y1658600D02*
G01X1830100Y1663600D01*
X1825100D02*
G01X1830100Y1658600D01*
X1828900Y1672700D02*
G01X1833900Y1677700D01*
X1828900D02*
G01X1833900Y1672700D01*
X1825000Y1671200D02*
G01X1830000Y1676200D01*
X1825000D02*
G01X1830000Y1671200D01*
X1822000Y1677500D02*
G01X1827000Y1682500D01*
X1822000D02*
G01X1827000Y1677500D01*
X1846500Y1686500D02*
G01X1851500Y1691500D01*
X1846500D02*
G01X1851500Y1686500D01*
X1812500Y1668000D02*
G01X1817500Y1673000D01*
X1812500D02*
G01X1817500Y1668000D01*
X1815800D02*
G01X1820800Y1673000D01*
X1815800D02*
G01X1820800Y1668000D01*
X1834000Y1662425D02*
G01X1839000Y1667425D01*
X1834000D02*
G01X1839000Y1662425D01*
X1837000Y1670000D02*
G01X1842000Y1675000D01*
X1837000D02*
G01X1842000Y1670000D01*
X1818900Y1668100D02*
G01X1823900Y1673100D01*
X1818900D02*
G01X1823900Y1668100D01*
X1818900Y1665000D02*
G01X1823900Y1670000D01*
X1818900D02*
G01X1823900Y1665000D01*
X1837000Y1666000D02*
G01X1842000Y1671000D01*
X1837000D02*
G01X1842000Y1666000D01*
X1815700Y1658600D02*
G01X1820700Y1663600D01*
X1815700D02*
G01X1820700Y1658600D01*
X1822000D02*
G01X1827000Y1663600D01*
X1822000D02*
G01X1827000Y1658600D01*
X1853500Y1661200D02*
G01X1858500Y1666200D01*
X1853500D02*
G01X1858500Y1661200D01*
X1877700Y1666500D02*
G01X1882700Y1671500D01*
X1877700D02*
G01X1882700Y1666500D01*
X1851800Y1665100D02*
G01X1856800Y1670100D01*
X1851800D02*
G01X1856800Y1665100D01*
X1850900Y1690400D02*
G01X1855900Y1695400D01*
X1850900D02*
G01X1855900Y1690400D01*
X1874800Y1664500D02*
G01X1879800Y1669500D01*
X1874800D02*
G01X1879800Y1664500D01*
X1855500D02*
G01X1860500Y1669500D01*
X1855500D02*
G01X1860500Y1664500D01*
X1874500Y1682500D02*
G01X1879500Y1687500D01*
X1874500D02*
G01X1879500Y1682500D01*
X1855500D02*
G01X1860500Y1687500D01*
X1855500D02*
G01X1860500Y1682500D01*
X1854100Y1672200D02*
G01X1859100Y1677200D01*
X1854100D02*
G01X1859100Y1672200D01*
X1874600Y1668500D02*
G01X1879600Y1673500D01*
X1874600D02*
G01X1879600Y1668500D01*
X1874400Y1659600D02*
G01X1879400Y1664600D01*
X1874400D02*
G01X1879400Y1659600D01*
X1877500Y1657500D02*
G01X1882500Y1662500D01*
X1877500D02*
G01X1882500Y1657500D01*
X1855400Y1668500D02*
G01X1860400Y1673500D01*
X1855400D02*
G01X1860400Y1668500D01*
X1855500Y1670500D02*
G01X1860500Y1675500D01*
X1855500D02*
G01X1860500Y1670500D01*
X1874500Y1678500D02*
G01X1879500Y1683500D01*
X1874500D02*
G01X1879500Y1678500D01*
X1855500Y1686500D02*
G01X1860500Y1691500D01*
X1855500D02*
G01X1860500Y1686500D01*
X1874500D02*
G01X1879500Y1691500D01*
X1874500D02*
G01X1879500Y1686500D01*
X1855500Y1678500D02*
G01X1860500Y1683500D01*
X1855500D02*
G01X1860500Y1678500D01*
X1874500Y1676400D02*
G01X1879500Y1681400D01*
X1874500D02*
G01X1879500Y1676400D01*
X1855400Y1688800D02*
G01X1860400Y1693800D01*
X1855400D02*
G01X1860400Y1688800D01*
X1855500Y1666500D02*
G01X1860500Y1671500D01*
X1855500D02*
G01X1860500Y1666500D01*
X1855500Y1684500D02*
G01X1860500Y1689500D01*
X1855500D02*
G01X1860500Y1684500D01*
X1874500Y1690500D02*
G01X1879500Y1695500D01*
X1874500D02*
G01X1879500Y1690500D01*
X1855400Y1676500D02*
G01X1860400Y1681500D01*
X1855400D02*
G01X1860400Y1676500D01*
X1855400Y1680500D02*
G01X1860400Y1685500D01*
X1855400D02*
G01X1860400Y1680500D01*
X1866000Y1689500D02*
G01X1871000Y1694500D01*
X1866000D02*
G01X1871000Y1689500D01*
X1874500Y1688500D02*
G01X1879500Y1693500D01*
X1874500D02*
G01X1879500Y1688500D01*
X1874500Y1684500D02*
G01X1879500Y1689500D01*
X1874500D02*
G01X1879500Y1684500D01*
X1857000Y1672300D02*
G01X1862000Y1677300D01*
X1857000D02*
G01X1862000Y1672300D01*
X1851000Y1686500D02*
G01X1856000Y1691500D01*
X1851000D02*
G01X1856000Y1686500D01*
X1866400Y1673800D02*
G01X1871400Y1678800D01*
X1866400D02*
G01X1871400Y1673800D01*
X1865000Y1657500D02*
G01X1870000Y1662500D01*
X1865000D02*
G01X1870000Y1657500D01*
X1883000Y1666500D02*
G01X1888000Y1671500D01*
X1883000D02*
G01X1888000Y1666500D01*
X1883000Y1668500D02*
G01X1888000Y1673500D01*
X1883000D02*
G01X1888000Y1668500D01*
X1880500Y1658500D02*
G01X1885500Y1663500D01*
X1880500D02*
G01X1885500Y1658500D01*
X1880500Y1660500D02*
G01X1885500Y1665500D01*
X1880500D02*
G01X1885500Y1660500D01*
X1880500Y1656500D02*
G01X1885500Y1661500D01*
X1880500D02*
G01X1885500Y1656500D01*
X1877600Y1668500D02*
G01X1882600Y1673500D01*
X1877600D02*
G01X1882600Y1668500D01*
X1866900Y1665200D02*
G01X1871900Y1670200D01*
X1866900D02*
G01X1871900Y1665200D01*
X1862600D02*
G01X1867600Y1670200D01*
X1862600D02*
G01X1867600Y1665200D01*
X1867000Y1682000D02*
G01X1872000Y1687000D01*
X1867000D02*
G01X1872000Y1682000D01*
X1864400Y1672700D02*
G01X1869400Y1677700D01*
X1864400D02*
G01X1869400Y1672700D01*
X1863500Y1682000D02*
G01X1868500Y1687000D01*
X1863500D02*
G01X1868500Y1682000D01*
X1860000Y1695531D02*
G01X1865000Y1700531D01*
X1860000D02*
G01X1865000Y1695531D01*
X1907000Y1664000D02*
G01X1912000Y1669000D01*
X1907000D02*
G01X1912000Y1664000D01*
X1925300Y1691300D02*
G01X1930300Y1696300D01*
X1925300D02*
G01X1930300Y1691300D01*
X1926600Y1693300D02*
G01X1931600Y1698300D01*
X1926600D02*
G01X1931600Y1693300D01*
X1894800Y1660600D02*
G01X1899800Y1665600D01*
X1894800D02*
G01X1899800Y1660600D01*
X1894800Y1658500D02*
G01X1899800Y1663500D01*
X1894800D02*
G01X1899800Y1658500D01*
X1912500Y1693500D02*
G01X1917500Y1698500D01*
X1912500D02*
G01X1917500Y1693500D01*
X1912500Y1691000D02*
G01X1917500Y1696000D01*
X1912500D02*
G01X1917500Y1691000D01*
X1929000Y1674500D02*
G01X1934000Y1679500D01*
X1929000D02*
G01X1934000Y1674500D01*
X1924000Y1671500D02*
G01X1929000Y1676500D01*
X1924000D02*
G01X1929000Y1671500D01*
X1926500Y1674500D02*
G01X1931500Y1679500D01*
X1926500D02*
G01X1931500Y1674500D01*
X1921500D02*
G01X1926500Y1679500D01*
X1921500D02*
G01X1926500Y1674500D01*
X1929000Y1671500D02*
G01X1934000Y1676500D01*
X1929000D02*
G01X1934000Y1671500D01*
X1921500D02*
G01X1926500Y1676500D01*
X1921500D02*
G01X1926500Y1671500D01*
X1929000Y1669000D02*
G01X1934000Y1674000D01*
X1929000D02*
G01X1934000Y1669000D01*
X1924000D02*
G01X1929000Y1674000D01*
X1924000D02*
G01X1929000Y1669000D01*
X1926500Y1671500D02*
G01X1931500Y1676500D01*
X1926500D02*
G01X1931500Y1671500D01*
X1921500Y1669000D02*
G01X1926500Y1674000D01*
X1921500D02*
G01X1926500Y1669000D01*
X1931500Y1674000*
X1926500D02*
G01X1931500Y1669000D01*
X1924000Y1674500D02*
G01X1929000Y1679500D01*
X1924000D02*
G01X1929000Y1674500D01*
X1892000Y1666500D02*
G01X1897000Y1671500D01*
X1892000D02*
G01X1897000Y1666500D01*
X1892000Y1664000D02*
G01X1897000Y1669000D01*
X1892000D02*
G01X1897000Y1664000D01*
X1908500Y1693000D02*
G01X1913500Y1698000D01*
X1908500D02*
G01X1913500Y1693000D01*
X1908500Y1695000D02*
G01X1913500Y1700000D01*
X1908500D02*
G01X1913500Y1695000D01*
X1939100Y1671000D02*
G01X1944100Y1676000D01*
X1939100D02*
G01X1944100Y1671000D01*
X1961800Y1693600D02*
G01X1966800Y1698600D01*
X1961800D02*
G01X1966800Y1693600D01*
X1966000Y1666000D02*
G01X1971000Y1671000D01*
X1966000D02*
G01X1971000Y1666000D01*
X1942000Y1686500D02*
G01X1947000Y1691500D01*
X1942000D02*
G01X1947000Y1686500D01*
X1939000Y1668500D02*
G01X1944000Y1673500D01*
X1939000D02*
G01X1944000Y1668500D01*
X1964500Y1693500D02*
G01X1969500Y1698500D01*
X1964500D02*
G01X1969500Y1693500D01*
X1936500Y1693000D02*
G01X1941500Y1698000D01*
X1936500D02*
G01X1941500Y1693000D01*
X1942000Y1664000D02*
G01X1947000Y1669000D01*
X1942000D02*
G01X1947000Y1664000D01*
X1965969Y1682000D02*
G01X1970969Y1687000D01*
X1965969D02*
G01X1970969Y1682000D01*
X1961500Y1660500D02*
G01X1966500Y1665500D01*
X1961500D02*
G01X1966500Y1660500D01*
X1962031Y1677000D02*
G01X1967031Y1682000D01*
X1962031D02*
G01X1967031Y1677000D01*
X1933600Y1692900D02*
G01X1938600Y1697900D01*
X1933600D02*
G01X1938600Y1692900D01*
X1931400D02*
G01X1936400Y1697900D01*
X1931400D02*
G01X1936400Y1692900D01*
X1760800Y1713800D02*
G01X1765800Y1718800D01*
X1760800D02*
G01X1765800Y1713800D01*
X1758200Y1713900D02*
G01X1763200Y1718900D01*
X1758200D02*
G01X1763200Y1713900D01*
X1758200Y1699600D02*
G01X1763200Y1704600D01*
X1758200D02*
G01X1763200Y1699600D01*
X1769500Y1719500D02*
G01X1774500Y1724500D01*
X1769500D02*
G01X1774500Y1719500D01*
X1760800Y1699700D02*
G01X1765800Y1704700D01*
X1760800D02*
G01X1765800Y1699700D01*
X1763300Y1713900D02*
G01X1768300Y1718900D01*
X1763300D02*
G01X1768300Y1713900D01*
X1766900Y1700700D02*
G01X1771900Y1705700D01*
X1766900D02*
G01X1771900Y1700700D01*
X1766000Y1714500D02*
G01X1771000Y1719500D01*
X1766000D02*
G01X1771000Y1714500D01*
X1779900Y1707900D02*
G01X1784900Y1712900D01*
X1779900D02*
G01X1784900Y1707900D01*
X1777700Y1706200D02*
G01X1782700Y1711200D01*
X1777700D02*
G01X1782700Y1706200D01*
X1785300Y1697300D02*
G01X1790300Y1702300D01*
X1785300D02*
G01X1790300Y1697300D01*
X1800500Y1708500D02*
G01X1805500Y1713500D01*
X1800500D02*
G01X1805500Y1708500D01*
X1791500Y1712200D02*
G01X1796500Y1717200D01*
X1791500D02*
G01X1796500Y1712200D01*
X1791500Y1707500D02*
G01X1796500Y1712500D01*
X1791500D02*
G01X1796500Y1707500D01*
X1791500Y1710100D02*
G01X1796500Y1715100D01*
X1791500D02*
G01X1796500Y1710100D01*
X1777700Y1708700D02*
G01X1782700Y1713700D01*
X1777700D02*
G01X1782700Y1708700D01*
X1774500Y1700000D02*
G01X1779500Y1705000D01*
X1774500D02*
G01X1779500Y1700000D01*
X1771000Y1700500D02*
G01X1776000Y1705500D01*
X1771000D02*
G01X1776000Y1700500D01*
X1776500Y1723500D02*
G01X1781500Y1728500D01*
X1776500D02*
G01X1781500Y1723500D01*
X1779500Y1700000D02*
G01X1784500Y1705000D01*
X1779500D02*
G01X1784500Y1700000D01*
X1775500Y1720000D02*
G01X1780500Y1725000D01*
X1775500D02*
G01X1780500Y1720000D01*
X1806500Y1725500D02*
G01X1811500Y1730500D01*
X1806500D02*
G01X1811500Y1725500D01*
X1801500D02*
G01X1806500Y1730500D01*
X1801500D02*
G01X1806500Y1725500D01*
X1779500Y1731500D02*
G01X1784500Y1736500D01*
X1779500D02*
G01X1784500Y1731500D01*
X1779500Y1727500D02*
G01X1784500Y1732500D01*
X1779500D02*
G01X1784500Y1727500D01*
X1803500Y1713000D02*
G01X1808500Y1718000D01*
X1803500D02*
G01X1808500Y1713000D01*
X1777000Y1700000D02*
G01X1782000Y1705000D01*
X1777000D02*
G01X1782000Y1700000D01*
X1806000Y1698000D02*
G01X1811000Y1703000D01*
X1806000D02*
G01X1811000Y1698000D01*
X1788300Y1715400D02*
G01X1793300Y1720400D01*
X1788300D02*
G01X1793300Y1715400D01*
X1835000Y1723500D02*
G01X1840000Y1728500D01*
X1835000D02*
G01X1840000Y1723500D01*
X1848700Y1702900D02*
G01X1853700Y1707900D01*
X1848700D02*
G01X1853700Y1702900D01*
X1845000Y1708500D02*
G01X1850000Y1713500D01*
X1845000D02*
G01X1850000Y1708500D01*
X1831500Y1698500D02*
G01X1836500Y1703500D01*
X1831500D02*
G01X1836500Y1698500D01*
X1827500Y1715531D02*
G01X1832500Y1720531D01*
X1827500D02*
G01X1832500Y1715531D01*
X1842000Y1711500D02*
G01X1847000Y1716500D01*
X1842000D02*
G01X1847000Y1711500D01*
X1831000Y1723000D02*
G01X1836000Y1728000D01*
X1831000D02*
G01X1836000Y1723000D01*
X1826000Y1706500D02*
G01X1831000Y1711500D01*
X1826000D02*
G01X1831000Y1706500D01*
X1837500Y1731500D02*
G01X1842500Y1736500D01*
X1837500D02*
G01X1842500Y1731500D01*
X1837500Y1727500D02*
G01X1842500Y1732500D01*
X1837500D02*
G01X1842500Y1727500D01*
X1828000Y1710500D02*
G01X1833000Y1715500D01*
X1828000D02*
G01X1833000Y1710500D01*
X1848000Y1728500D02*
G01X1853000Y1733500D01*
X1848000D02*
G01X1853000Y1728500D01*
X1847000Y1697000D02*
G01X1852000Y1702000D01*
X1847000D02*
G01X1852000Y1697000D01*
X1826000Y1702500D02*
G01X1831000Y1707500D01*
X1826000D02*
G01X1831000Y1702500D01*
X1869000Y1713500D02*
G01X1874000Y1718500D01*
X1869000D02*
G01X1874000Y1713500D01*
X1854100Y1711984D02*
G01X1859100Y1716984D01*
X1854100D02*
G01X1859100Y1711984D01*
X1863000Y1709000D02*
G01X1868000Y1714000D01*
X1863000D02*
G01X1868000Y1709000D01*
X1864500Y1698000D02*
G01X1869500Y1703000D01*
X1864500D02*
G01X1869500Y1698000D01*
X1866500Y1713000D02*
G01X1871500Y1718000D01*
X1866500D02*
G01X1871500Y1713000D01*
X1864500Y1726500D02*
G01X1869500Y1731500D01*
X1864500D02*
G01X1869500Y1726500D01*
X1881557Y1728443D02*
G01X1886557Y1733443D01*
X1881557D02*
G01X1886557Y1728443D01*
X1879500Y1729500D02*
G01X1884500Y1734500D01*
X1879500D02*
G01X1884500Y1729500D01*
X1874500Y1729000D02*
G01X1879500Y1734000D01*
X1874500D02*
G01X1879500Y1729000D01*
X1859500D02*
G01X1864500Y1734000D01*
X1859500D02*
G01X1864500Y1729000D01*
X1850500D02*
G01X1855500Y1734000D01*
X1850500D02*
G01X1855500Y1729000D01*
X1885000Y1713000D02*
G01X1890000Y1718000D01*
X1885000D02*
G01X1890000Y1713000D01*
X1891000Y1711500D02*
G01X1896000Y1716500D01*
X1891000D02*
G01X1896000Y1711500D01*
X1924500Y1713000D02*
G01X1929500Y1718000D01*
X1924500D02*
G01X1929500Y1713000D01*
X1904200Y1711800D02*
G01X1909200Y1716800D01*
X1904200D02*
G01X1909200Y1711800D01*
X1904300Y1714500D02*
G01X1909300Y1719500D01*
X1904300D02*
G01X1909300Y1714500D01*
X1915000Y1707000D02*
G01X1920000Y1712000D01*
X1915000D02*
G01X1920000Y1707000D01*
X1901500Y1717500D02*
G01X1906500Y1722500D01*
X1901500D02*
G01X1906500Y1717500D01*
X1918500Y1725500D02*
G01X1923500Y1730500D01*
X1918500D02*
G01X1923500Y1725500D01*
X1928500Y1730500*
X1923500D02*
G01X1928500Y1725500D01*
X1894500Y1723000D02*
G01X1899500Y1728000D01*
X1894500D02*
G01X1899500Y1723000D01*
X1928500Y1709500D02*
G01X1933500Y1714500D01*
X1928500D02*
G01X1933500Y1709500D01*
X1893500Y1713000D02*
G01X1898500Y1718000D01*
X1893500D02*
G01X1898500Y1713000D01*
X1908500Y1697000D02*
G01X1913500Y1702000D01*
X1908500D02*
G01X1913500Y1697000D01*
X1955500Y1719500D02*
G01X1960500Y1724500D01*
X1955500D02*
G01X1960500Y1719500D01*
X1946000Y1710000D02*
G01X1951000Y1715000D01*
X1946000D02*
G01X1951000Y1710000D01*
X1956000Y1704500D02*
G01X1961000Y1709500D01*
X1956000D02*
G01X1961000Y1704500D01*
X1949500Y1706000D02*
G01X1954500Y1711000D01*
X1949500D02*
G01X1954500Y1706000D01*
X1949000Y1723500D02*
G01X1954000Y1728500D01*
X1949000D02*
G01X1954000Y1723500D01*
X1938500Y1709500D02*
G01X1943500Y1714500D01*
X1938500D02*
G01X1943500Y1709500D01*
X1945500Y1727500D02*
G01X1950500Y1732500D01*
X1945500D02*
G01X1950500Y1727500D01*
X1945500Y1731500D02*
G01X1950500Y1736500D01*
X1945500D02*
G01X1950500Y1731500D01*
X1941000Y1712531D02*
G01X1946000Y1717531D01*
X1941000D02*
G01X1946000Y1712531D01*
X1972500Y1707000D02*
G01X1977500Y1712000D01*
X1972500D02*
G01X1977500Y1707000D01*
X1972500Y1709500D02*
G01X1977500Y1714500D01*
X1972500D02*
G01X1977500Y1709500D01*
X1972500Y1712000D02*
G01X1977500Y1717000D01*
X1972500D02*
G01X1977500Y1712000D01*
X1779500Y1736500D02*
G01X1784500Y1741500D01*
X1779500D02*
G01X1784500Y1736500D01*
X1827000D02*
G01X1832000Y1741500D01*
X1827000D02*
G01X1832000Y1736500D01*
X1823500D02*
G01X1828500Y1741500D01*
X1823500D02*
G01X1828500Y1736500D01*
X1820000D02*
G01X1825000Y1741500D01*
X1820000D02*
G01X1825000Y1736500D01*
X1904500D02*
G01X1909500Y1741500D01*
X1904500D02*
G01X1909500Y1736500D01*
X1901000D02*
G01X1906000Y1741500D01*
X1901000D02*
G01X1906000Y1736500D01*
X1897500D02*
G01X1902500Y1741500D01*
X1897500D02*
G01X1902500Y1736500D01*
X1945500D02*
G01X1950500Y1741500D01*
X1945500D02*
G01X1950500Y1736500D01*
X2030600Y1514750D02*
G01X2030055Y1515500D01*
X2029236Y1515875*
X2028145*
X2027327Y1515500*
X2026782Y1514750*
Y1514000*
X2027055Y1513250*
X2027327Y1512875*
X2027873Y1512500*
X2029509Y1511750*
X2030055Y1511375*
X2030327Y1511000*
X2030600Y1510250*
Y1509125*
X2030055Y1508375*
X2029236Y1508000*
X2028145*
X2027327Y1508375*
X2026782Y1509125*
X2033055Y1515875D02*
G01Y1508000D01*
X2039327Y1515875D02*
G01X2035509Y1508000D01*
Y1515875D02*
G01X2039327D01*
X2035509Y1508000D02*
G01X2039327D01*
X2041782Y1515875D02*
G01Y1508000D01*
Y1515875D02*
G01X2045327D01*
X2041782Y1512125D02*
G01X2043964D01*
X2041782Y1508000D02*
G01X2045327D01*
X2088964Y1515875D02*
G01X2088418Y1515500D01*
X2087873Y1514750*
X2087600Y1514000*
X2087327Y1512875*
Y1511000*
X2087600Y1509875*
X2087873Y1509125*
X2088418Y1508375*
X2088964Y1508000*
X2090055*
X2090600Y1508375*
X2091145Y1509125*
X2091418Y1509875*
X2091691Y1511000*
Y1512875*
X2091418Y1514000*
X2091145Y1514750*
X2090600Y1515500*
X2090055Y1515875*
X2088964*
X2089782Y1509500D02*
G01X2091418Y1507250D01*
X2096055Y1515875D02*
G01Y1508000D01*
X2094145Y1515875D02*
G01X2097964D01*
X2100418D02*
G01X2102600Y1512125D01*
Y1508000*
X2104782Y1515875D02*
G01X2102600Y1512125D01*
X2127145Y1514750D02*
G01X2126600Y1515500D01*
X2125782Y1515875*
X2124691*
X2123873Y1515500*
X2123327Y1514750*
Y1514000*
X2123600Y1513250*
X2123873Y1512875*
X2124418Y1512500*
X2126055Y1511750*
X2126600Y1511375*
X2126873Y1511000*
X2127145Y1510250*
Y1509125*
X2126600Y1508375*
X2125782Y1508000*
X2124691*
X2123873Y1508375*
X2123327Y1509125*
X2129600Y1515875D02*
G01X2131782Y1512125D01*
Y1508000*
X2133964Y1515875D02*
G01X2131782Y1512125D01*
X2136418Y1515875D02*
G01Y1508000D01*
Y1515875D02*
G01X2138600Y1508000D01*
X2140782Y1515875D02*
G01X2138600Y1508000D01*
X2140782Y1515875D02*
G01Y1508000D01*
X2162600Y1515875D02*
G01Y1508000D01*
Y1515875D02*
G01X2165055D01*
X2165873Y1515500*
X2166145Y1515125*
X2166418Y1514375*
Y1513250*
X2166145Y1512500*
X2165873Y1512125*
X2165055Y1511750*
X2162600*
X2168873Y1515875D02*
G01Y1508000D01*
X2172145*
X2176782Y1515875D02*
G01X2174600Y1508000D01*
X2176782Y1515875D02*
G01X2178964Y1508000D01*
X2175418Y1510625D02*
G01X2178145D01*
X2183327Y1515875D02*
G01Y1508000D01*
X2181418Y1515875D02*
G01X2185236D01*
X2187691D02*
G01Y1508000D01*
Y1515875D02*
G01X2191236D01*
X2187691Y1512125D02*
G01X2189873D01*
X2187691Y1508000D02*
G01X2191236D01*
X2193691Y1515875D02*
G01Y1508000D01*
Y1515875D02*
G01X2195600D01*
X2196418Y1515500*
X2196964Y1514750*
X2197236Y1514000*
X2197509Y1512875*
Y1511000*
X2197236Y1509875*
X2196964Y1509125*
X2196418Y1508375*
X2195600Y1508000*
X2193691*
X2221782Y1515875D02*
G01Y1508000D01*
X2219873Y1515875D02*
G01X2223691D01*
X2227782D02*
G01X2227236Y1515500D01*
X2226691Y1514750*
X2226418Y1514000*
X2226145Y1512875*
Y1511000*
X2226418Y1509875*
X2226691Y1509125*
X2227236Y1508375*
X2227782Y1508000*
X2228873*
X2229418Y1508375*
X2229964Y1509125*
X2230236Y1509875*
X2230509Y1511000*
Y1512875*
X2230236Y1514000*
X2229964Y1514750*
X2229418Y1515500*
X2228873Y1515875*
X2227782*
X2232964D02*
G01Y1508000D01*
X2236236*
X2001273Y1490000D02*
G01Y1490375D01*
X2001545Y1491125*
X2001818Y1491500*
X2002364Y1491875*
X2003455*
X2004000Y1491500*
X2004273Y1491125*
X2004545Y1490375*
Y1489625*
X2004273Y1488875*
X2003727Y1487750*
X2001000Y1484000*
X2004818*
X2008909Y1491875D02*
G01X2008091Y1491500D01*
X2007545Y1490375*
X2007273Y1488500*
Y1487375*
X2007545Y1485500*
X2008091Y1484375*
X2008909Y1484000*
X2009455*
X2010273Y1484375*
X2010818Y1485500*
X2011091Y1487375*
Y1488500*
X2010818Y1490375*
X2010273Y1491500*
X2009455Y1491875*
X2008909*
X2093600D02*
G01X2090873Y1486625D01*
X2094964*
X2093600Y1491875D02*
G01Y1484000D01*
X2099055Y1491875D02*
G01X2098236Y1491500D01*
X2097691Y1490375*
X2097418Y1488500*
Y1487375*
X2097691Y1485500*
X2098236Y1484375*
X2099055Y1484000*
X2099600*
X2100418Y1484375*
X2100964Y1485500*
X2101236Y1487375*
Y1488500*
X2100964Y1490375*
X2100418Y1491500*
X2099600Y1491875*
X2099055*
X2127000Y1490000D02*
G01X2139000D01*
X2133000Y1484000D02*
G01Y1496000D01*
X2162736Y1491875D02*
G01Y1484000D01*
Y1491875D02*
G01X2166555Y1484000D01*
Y1491875D02*
G01Y1484000D01*
X2170645Y1491875D02*
G01X2170100Y1491500D01*
X2169555Y1490750*
X2169282Y1490000*
X2169009Y1488875*
Y1487000*
X2169282Y1485875*
X2169555Y1485125*
X2170100Y1484375*
X2170645Y1484000*
X2171736*
X2172282Y1484375*
X2172827Y1485125*
X2173100Y1485875*
X2173373Y1487000*
Y1488875*
X2173100Y1490000*
X2172827Y1490750*
X2172282Y1491500*
X2171736Y1491875*
X2170645*
X2217555Y1490750D02*
G01Y1484000D01*
X2215100Y1487375D02*
G01X2220009D01*
X2227373Y1493375D02*
G01X2222464Y1481375D01*
X2229827Y1487375D02*
G01X2234736D01*
X2237736Y1491875D02*
G01X2240736D01*
X2239100Y1488875*
X2239918*
X2240464Y1488500*
X2240736Y1488125*
X2241009Y1487000*
Y1486250*
X2240736Y1485125*
X2240191Y1484375*
X2239373Y1484000*
X2238555*
X2237736Y1484375*
X2237464Y1484750*
X2237191Y1485500*
X2002364Y1467875D02*
G01X2001545Y1467500D01*
X2001273Y1466750*
Y1466000*
X2001545Y1465250*
X2002091Y1464875*
X2003182Y1464500*
X2004000Y1464125*
X2004545Y1463375*
X2004818Y1462625*
Y1461500*
X2004545Y1460750*
X2004273Y1460375*
X2003455Y1460000*
X2002364*
X2001545Y1460375*
X2001273Y1460750*
X2001000Y1461500*
Y1462625*
X2001273Y1463375*
X2001818Y1464125*
X2002636Y1464500*
X2003727Y1464875*
X2004273Y1465250*
X2004545Y1466000*
Y1466750*
X2004273Y1467500*
X2003455Y1467875*
X2002364*
X2091827D02*
G01X2089100Y1462625D01*
X2093191*
X2091827Y1467875D02*
G01Y1460000D01*
X2098918Y1466750D02*
G01X2098645Y1467500D01*
X2097827Y1467875*
X2097282*
X2096464Y1467500*
X2095918Y1466375*
X2095645Y1464500*
Y1462625*
X2095918Y1461125*
X2096464Y1460375*
X2097282Y1460000*
X2097555*
X2098373Y1460375*
X2098918Y1461125*
X2099191Y1462250*
Y1462625*
X2098918Y1463750*
X2098373Y1464500*
X2097555Y1464875*
X2097282*
X2096464Y1464500*
X2095918Y1463750*
X2095645Y1462625*
X2101645Y1466375D02*
G01X2102191Y1466750D01*
X2103009Y1467875*
Y1460000*
X2127000D02*
G01X2139000Y1472000D01*
X2127000D02*
G01X2139000Y1460000D01*
X2159736Y1467875D02*
G01X2161918Y1464125D01*
Y1460000*
X2164100Y1467875D02*
G01X2161918Y1464125D01*
X2166555Y1467875D02*
G01Y1460000D01*
Y1467875D02*
G01X2170100D01*
X2166555Y1464125D02*
G01X2168736D01*
X2166555Y1460000D02*
G01X2170100D01*
X2176373Y1466750D02*
G01X2175827Y1467500D01*
X2175009Y1467875*
X2173918*
X2173100Y1467500*
X2172555Y1466750*
Y1466000*
X2172827Y1465250*
X2173100Y1464875*
X2173645Y1464500*
X2175282Y1463750*
X2175827Y1463375*
X2176100Y1463000*
X2176373Y1462250*
Y1461125*
X2175827Y1460375*
X2175009Y1460000*
X2173918*
X2173100Y1460375*
X2172555Y1461125*
X2217555Y1466750D02*
G01Y1460000D01*
X2215100Y1463375D02*
G01X2220009D01*
X2227373Y1469375D02*
G01X2222464Y1457375D01*
X2229827Y1463375D02*
G01X2234736D01*
X2237736Y1467875D02*
G01X2240736D01*
X2239100Y1464875*
X2239918*
X2240464Y1464500*
X2240736Y1464125*
X2241009Y1463000*
Y1462250*
X2240736Y1461125*
X2240191Y1460375*
X2239373Y1460000*
X2238555*
X2237736Y1460375*
X2237464Y1460750*
X2237191Y1461500*
X2001000Y1442375D02*
G01X2001545Y1442750D01*
X2002364Y1443875*
Y1436000*
X2004818Y1442375D02*
G01X2005364Y1442750D01*
X2006182Y1443875*
Y1436000*
X2010273Y1443875D02*
G01X2009455Y1443500D01*
X2008909Y1442375*
X2008636Y1440500*
Y1439375*
X2008909Y1437500*
X2009455Y1436375*
X2010273Y1436000*
X2010818*
X2011636Y1436375*
X2012182Y1437500*
X2012455Y1439375*
Y1440500*
X2012182Y1442375*
X2011636Y1443500*
X2010818Y1443875*
X2010273*
X2096736D02*
G01X2094009Y1438625D01*
X2098100*
X2096736Y1443875D02*
G01Y1436000D01*
X2127000D02*
G01X2139000D01*
Y1448000*
X2127000*
Y1436000*
X2133000Y1442000D02*
G01Y1448000D01*
X2159736Y1443875D02*
G01X2161918Y1440125D01*
Y1436000*
X2164100Y1443875D02*
G01X2161918Y1440125D01*
X2166555Y1443875D02*
G01Y1436000D01*
Y1443875D02*
G01X2170100D01*
X2166555Y1440125D02*
G01X2168736D01*
X2166555Y1436000D02*
G01X2170100D01*
X2176373Y1442750D02*
G01X2175827Y1443500D01*
X2175009Y1443875*
X2173918*
X2173100Y1443500*
X2172555Y1442750*
Y1442000*
X2172827Y1441250*
X2173100Y1440875*
X2173645Y1440500*
X2175282Y1439750*
X2175827Y1439375*
X2176100Y1439000*
X2176373Y1438250*
Y1437125*
X2175827Y1436375*
X2175009Y1436000*
X2173918*
X2173100Y1436375*
X2172555Y1437125*
X2217555Y1442750D02*
G01Y1436000D01*
X2215100Y1439375D02*
G01X2220009D01*
X2227373Y1445375D02*
G01X2222464Y1433375D01*
X2229827Y1439375D02*
G01X2234736D01*
X2237736Y1443875D02*
G01X2240736D01*
X2239100Y1440875*
X2239918*
X2240464Y1440500*
X2240736Y1440125*
X2241009Y1439000*
Y1438250*
X2240736Y1437125*
X2240191Y1436375*
X2239373Y1436000*
X2238555*
X2237736Y1436375*
X2237464Y1436750*
X2237191Y1437500*
G54D14*
X1987048Y1577323D02*
G01X2215394D01*
Y1742677*
X1987048*
Y1577323*
G54D17*
X2004821Y1686000D02*
G01X2009821Y1691000D01*
X2004821D02*
G01X2009821Y1686000D01*
X2004821Y1683900D02*
G01X2009821Y1688900D01*
X2004821D02*
G01X2009821Y1683900D01*
X2004821Y1656100D02*
G01X2009821Y1661100D01*
X2004821D02*
G01X2009821Y1656100D01*
X2004821Y1654000D02*
G01X2009821Y1659000D01*
X2004821D02*
G01X2009821Y1654000D01*
X1989621Y1686100D02*
G01X1994621Y1691100D01*
X1989621D02*
G01X1994621Y1686100D01*
X1989621Y1683900D02*
G01X1994621Y1688900D01*
X1989621D02*
G01X1994621Y1683900D01*
X1989621Y1656100D02*
G01X1994621Y1661100D01*
X1989621D02*
G01X1994621Y1656100D01*
X1989621Y1654000D02*
G01X1994621Y1659000D01*
X1989621D02*
G01X1994621Y1654000D01*
X1994721Y1729000D02*
G01X1999721D01*
Y1734000*
X1994721*
Y1729000*
X1997221Y1731500D02*
G01Y1734000D01*
X2202721Y1729000D02*
G01X2207721D01*
Y1734000*
X2202721*
Y1729000*
X2205221Y1731500D02*
G01Y1734000D01*
X2202721Y1586000D02*
G01X2207721D01*
Y1591000*
X2202721*
Y1586000*
X2205221Y1588500D02*
G01Y1591000D01*
X1994721Y1586000D02*
G01X1999721D01*
Y1591000*
X1994721*
Y1586000*
X1997221Y1588500D02*
G01Y1591000D01*
X2005721Y1595500D02*
G01X2010721Y1600500D01*
X2005721D02*
G01X2010721Y1595500D01*
X1997721Y1614000D02*
G01X2002721Y1619000D01*
X1997721D02*
G01X2002721Y1614000D01*
X2003721Y1611500D02*
G01X2008721Y1616500D01*
X2003721D02*
G01X2008721Y1611500D01*
X2001221D02*
G01X2006221Y1616500D01*
X2001221D02*
G01X2006221Y1611500D01*
X1994721Y1613000D02*
G01X1999721Y1618000D01*
X1994721D02*
G01X1999721Y1613000D01*
X1997721Y1611000D02*
G01X2002721Y1616000D01*
X1997721D02*
G01X2002721Y1611000D01*
X2019721Y1608673D02*
G01X2024721Y1613673D01*
X2019721D02*
G01X2024721Y1608673D01*
X2045721Y1613000D02*
G01X2050721Y1618000D01*
X2045721D02*
G01X2050721Y1613000D01*
X2012721Y1592000D02*
G01X2017721Y1597000D01*
X2012721D02*
G01X2017721Y1592000D01*
X2015721Y1587500D02*
G01X2020721Y1592500D01*
X2015721D02*
G01X2020721Y1587500D01*
X2015721Y1583500D02*
G01X2020721Y1588500D01*
X2015721D02*
G01X2020721Y1583500D01*
X2015721Y1579000D02*
G01X2020721Y1584000D01*
X2015721D02*
G01X2020721Y1579000D01*
X2079721Y1613500D02*
G01X2084721Y1618500D01*
X2079721D02*
G01X2084721Y1613500D01*
X2072621Y1603000D02*
G01X2077621Y1608000D01*
X2072621D02*
G01X2077621Y1603000D01*
X2079721Y1611000D02*
G01X2084721Y1616000D01*
X2079721D02*
G01X2084721Y1611000D01*
X2081021Y1616100D02*
G01X2086021Y1621100D01*
X2081021D02*
G01X2086021Y1616100D01*
X2074121Y1605100D02*
G01X2079121Y1610100D01*
X2074121D02*
G01X2079121Y1605100D01*
X2082721Y1604000D02*
G01X2087721Y1609000D01*
X2082721D02*
G01X2087721Y1604000D01*
X2079721Y1608500D02*
G01X2084721Y1613500D01*
X2079721D02*
G01X2084721Y1608500D01*
X2054221Y1611000D02*
G01X2059221Y1616000D01*
X2054221D02*
G01X2059221Y1611000D01*
X2054221Y1615000D02*
G01X2059221Y1620000D01*
X2054221D02*
G01X2059221Y1615000D01*
X2053721Y1607500D02*
G01X2058721Y1612500D01*
X2053721D02*
G01X2058721Y1607500D01*
X2063221Y1604500D02*
G01X2068221Y1609500D01*
X2063221D02*
G01X2068221Y1604500D01*
X2048721Y1608000D02*
G01X2053721Y1613000D01*
X2048721D02*
G01X2053721Y1608000D01*
X2054221Y1613000D02*
G01X2059221Y1618000D01*
X2054221D02*
G01X2059221Y1613000D01*
X2059721Y1597500D02*
G01X2064721Y1602500D01*
X2059721D02*
G01X2064721Y1597500D01*
X2070721D02*
G01X2075721Y1602500D01*
X2070721D02*
G01X2075721Y1597500D01*
X2076721Y1579000D02*
G01X2081721Y1584000D01*
X2076721D02*
G01X2081721Y1579000D01*
X2064721D02*
G01X2069721Y1584000D01*
X2064721D02*
G01X2069721Y1579000D01*
X2070721D02*
G01X2075721Y1584000D01*
X2070721D02*
G01X2075721Y1579000D01*
X2073721D02*
G01X2078721Y1584000D01*
X2073721D02*
G01X2078721Y1579000D01*
X2060221D02*
G01X2065221Y1584000D01*
X2060221D02*
G01X2065221Y1579000D01*
X2056221D02*
G01X2061221Y1584000D01*
X2056221D02*
G01X2061221Y1579000D01*
X2064721Y1602000D02*
G01X2069721Y1607000D01*
X2064721D02*
G01X2069721Y1602000D01*
X2062221Y1615000D02*
G01X2067221Y1620000D01*
X2062221D02*
G01X2067221Y1615000D01*
X2062221Y1612000D02*
G01X2067221Y1617000D01*
X2062221D02*
G01X2067221Y1612000D01*
X2085221Y1604000D02*
G01X2090221Y1609000D01*
X2085221D02*
G01X2090221Y1604000D01*
X2104721Y1606000D02*
G01X2109721Y1611000D01*
X2104721D02*
G01X2109721Y1606000D01*
X2088221Y1604500D02*
G01X2093221Y1609500D01*
X2088221D02*
G01X2093221Y1604500D01*
X2117721Y1615500D02*
G01X2122721Y1620500D01*
X2117721D02*
G01X2122721Y1615500D01*
X2116721Y1592000D02*
G01X2121721Y1597000D01*
X2116721D02*
G01X2121721Y1592000D01*
X2098221Y1579000D02*
G01X2103221Y1584000D01*
X2098221D02*
G01X2103221Y1579000D01*
X2101221D02*
G01X2106221Y1584000D01*
X2101221D02*
G01X2106221Y1579000D01*
X2095721D02*
G01X2100721Y1584000D01*
X2095721D02*
G01X2100721Y1579000D01*
X2123721D02*
G01X2128721Y1584000D01*
X2123721D02*
G01X2128721Y1579000D01*
X2120721D02*
G01X2125721Y1584000D01*
X2120721D02*
G01X2125721Y1579000D01*
X2134721Y1599000D02*
G01X2139721Y1604000D01*
X2134721D02*
G01X2139721Y1599000D01*
X2141221Y1579000D02*
G01X2146221Y1584000D01*
X2141221D02*
G01X2146221Y1579000D01*
X2136721D02*
G01X2141721Y1584000D01*
X2136721D02*
G01X2141721Y1579000D01*
X2132721D02*
G01X2137721Y1584000D01*
X2132721D02*
G01X2137721Y1579000D01*
X2126721D02*
G01X2131721Y1584000D01*
X2126721D02*
G01X2131721Y1579000D01*
X2137221Y1599000D02*
G01X2142221Y1604000D01*
X2137221D02*
G01X2142221Y1599000D01*
X2132721Y1608000D02*
G01X2137721Y1613000D01*
X2132721D02*
G01X2137721Y1608000D01*
X2192221Y1594500D02*
G01X2197221Y1599500D01*
X2192221D02*
G01X2197221Y1594500D01*
X2168721Y1589500D02*
G01X2173721Y1594500D01*
X2168721D02*
G01X2173721Y1589500D01*
X2171449Y1612000D02*
G01X2176449Y1617000D01*
X2171449D02*
G01X2176449Y1612000D01*
X2176721Y1611000D02*
G01X2181721Y1616000D01*
X2176721D02*
G01X2181721Y1611000D01*
X2166221Y1612000D02*
G01X2171221Y1617000D01*
X2166221D02*
G01X2171221Y1612000D01*
X2180721Y1609000D02*
G01X2185721Y1614000D01*
X2180721D02*
G01X2185721Y1609000D01*
X2185221Y1595000D02*
G01X2190221Y1600000D01*
X2185221D02*
G01X2190221Y1595000D01*
X2181721Y1587500D02*
G01X2186721Y1592500D01*
X2181721D02*
G01X2186721Y1587500D01*
X2181721Y1583500D02*
G01X2186721Y1588500D01*
X2181721D02*
G01X2186721Y1583500D01*
X2181721Y1579000D02*
G01X2186721Y1584000D01*
X2181721D02*
G01X2186721Y1579000D01*
X2205721Y1610000D02*
G01X2210721Y1615000D01*
X2205721D02*
G01X2210721Y1610000D01*
X1991821Y1638600D02*
G01X1996821Y1643600D01*
X1991821D02*
G01X1996821Y1638600D01*
X1991821Y1641100D02*
G01X1996821Y1646100D01*
X1991821D02*
G01X1996821Y1641100D01*
X2004921Y1638700D02*
G01X2009921Y1643700D01*
X2004921D02*
G01X2009921Y1638700D01*
X1999821Y1639700D02*
G01X2004821Y1644700D01*
X1999821D02*
G01X2004821Y1639700D01*
X1999721Y1642000D02*
G01X2004721Y1647000D01*
X1999721D02*
G01X2004721Y1642000D01*
X1991621Y1646000D02*
G01X1996621Y1651000D01*
X1991621D02*
G01X1996621Y1646000D01*
X1995721Y1643000D02*
G01X2000721Y1648000D01*
X1995721D02*
G01X2000721Y1643000D01*
X1991321Y1649300D02*
G01X1996321Y1654300D01*
X1991321D02*
G01X1996321Y1649300D01*
X2025221Y1644000D02*
G01X2030221Y1649000D01*
X2025221D02*
G01X2030221Y1644000D01*
X2010721Y1636000D02*
G01X2015721Y1641000D01*
X2010721D02*
G01X2015721Y1636000D01*
X2034721Y1625000D02*
G01X2039721Y1630000D01*
X2034721D02*
G01X2039721Y1625000D01*
X2012421Y1624000D02*
G01X2017421Y1629000D01*
X2012421D02*
G01X2017421Y1624000D01*
X2042721Y1625000D02*
G01X2047721Y1630000D01*
X2042721D02*
G01X2047721Y1625000D01*
X2045221Y1621500D02*
G01X2050221Y1626500D01*
X2045221D02*
G01X2050221Y1621500D01*
X2007321Y1640100D02*
G01X2012321Y1645100D01*
X2007321D02*
G01X2012321Y1640100D01*
X2023721Y1648500D02*
G01X2028721Y1653500D01*
X2023721D02*
G01X2028721Y1648500D01*
X2023721Y1646000D02*
G01X2028721Y1651000D01*
X2023721D02*
G01X2028721Y1646000D01*
X2036721Y1622500D02*
G01X2041721Y1627500D01*
X2036721D02*
G01X2041721Y1622500D01*
X2036721Y1625000D02*
G01X2041721Y1630000D01*
X2036721D02*
G01X2041721Y1625000D01*
X2024421Y1654100D02*
G01X2029421Y1659100D01*
X2024421D02*
G01X2029421Y1654100D01*
X2012721Y1630500D02*
G01X2017721Y1635500D01*
X2012721D02*
G01X2017721Y1630500D01*
X2014721Y1644500D02*
G01X2019721Y1649500D01*
X2014721D02*
G01X2019721Y1644500D01*
X2014721Y1632500D02*
G01X2019721Y1637500D01*
X2014721D02*
G01X2019721Y1632500D01*
X2014121Y1652126D02*
G01X2019121Y1657126D01*
X2014121D02*
G01X2019121Y1652126D01*
X2014142Y1649279D02*
G01X2019142Y1654279D01*
X2014142D02*
G01X2019142Y1649279D01*
X2040721Y1641000D02*
G01X2045721Y1646000D01*
X2040721D02*
G01X2045721Y1641000D01*
X2018721Y1629000D02*
G01X2023721Y1634000D01*
X2018721D02*
G01X2023721Y1629000D01*
X2029721Y1641000D02*
G01X2034721Y1646000D01*
X2029721D02*
G01X2034721Y1641000D01*
X2012221Y1618000D02*
G01X2017221Y1623000D01*
X2012221D02*
G01X2017221Y1618000D01*
X2034721Y1641000D02*
G01X2039721Y1646000D01*
X2034721D02*
G01X2039721Y1641000D01*
X2011721Y1641500D02*
G01X2016721Y1646500D01*
X2011721D02*
G01X2016721Y1641500D01*
X2045651Y1651320D02*
G01X2050651Y1656320D01*
X2045651D02*
G01X2050651Y1651320D01*
X2019721Y1626500D02*
G01X2024721Y1631500D01*
X2019721D02*
G01X2024721Y1626500D01*
X2018721Y1618000D02*
G01X2023721Y1623000D01*
X2018721D02*
G01X2023721Y1618000D01*
X2027221Y1640500D02*
G01X2032221Y1645500D01*
X2027221D02*
G01X2032221Y1640500D01*
X2062821Y1625200D02*
G01X2067821Y1630200D01*
X2062821D02*
G01X2067821Y1625200D01*
X2061521Y1635100D02*
G01X2066521Y1640100D01*
X2061521D02*
G01X2066521Y1635100D01*
X2065221Y1625100D02*
G01X2070221Y1630100D01*
X2065221D02*
G01X2070221Y1625100D01*
X2084221Y1618700D02*
G01X2089221Y1623700D01*
X2084221D02*
G01X2089221Y1618700D01*
X2075021Y1623800D02*
G01X2080021Y1628800D01*
X2075021D02*
G01X2080021Y1623800D01*
X2065221Y1619500D02*
G01X2070221Y1624500D01*
X2065221D02*
G01X2070221Y1619500D01*
X2059721Y1625000D02*
G01X2064721Y1630000D01*
X2059721D02*
G01X2064721Y1625000D01*
X2049021D02*
G01X2054021Y1630000D01*
X2049021D02*
G01X2054021Y1625000D01*
X2056721D02*
G01X2061721Y1630000D01*
X2056721D02*
G01X2061721Y1625000D01*
X2046721D02*
G01X2051721Y1630000D01*
X2046721D02*
G01X2051721Y1625000D01*
X2069121Y1655300D02*
G01X2074121Y1660300D01*
X2069121D02*
G01X2074121Y1655300D01*
X2073221Y1642500D02*
G01X2078221Y1647500D01*
X2073221D02*
G01X2078221Y1642500D01*
X2070221Y1648000D02*
G01X2075221Y1653000D01*
X2070221D02*
G01X2075221Y1648000D01*
X2068721Y1651500D02*
G01X2073721Y1656500D01*
X2068721D02*
G01X2073721Y1651500D01*
X2083721Y1646500D02*
G01X2088721Y1651500D01*
X2083721D02*
G01X2088721Y1646500D01*
X2063721Y1635000D02*
G01X2068721Y1640000D01*
X2063721D02*
G01X2068721Y1635000D01*
X2065221Y1639500D02*
G01X2070221Y1644500D01*
X2065221D02*
G01X2070221Y1639500D01*
X2083221Y1642300D02*
G01X2088221Y1647300D01*
X2083221D02*
G01X2088221Y1642300D01*
X2054221Y1617000D02*
G01X2059221Y1622000D01*
X2054221D02*
G01X2059221Y1617000D01*
X2057021Y1620400D02*
G01X2062021Y1625400D01*
X2057021D02*
G01X2062021Y1620400D01*
X2075221Y1627000D02*
G01X2080221Y1632000D01*
X2075221D02*
G01X2080221Y1627000D01*
X2047551Y1644050D02*
G01X2052551Y1649050D01*
X2047551D02*
G01X2052551Y1644050D01*
X2059721Y1621000D02*
G01X2064721Y1626000D01*
X2059721D02*
G01X2064721Y1621000D01*
Y1644000D02*
G01X2069721Y1649000D01*
X2064721D02*
G01X2069721Y1644000D01*
X2083721Y1652000D02*
G01X2088721Y1657000D01*
X2083721D02*
G01X2088721Y1652000D01*
X2054221Y1641000D02*
G01X2059221Y1646000D01*
X2054221D02*
G01X2059221Y1641000D01*
X2084221Y1655000D02*
G01X2089221Y1660000D01*
X2084221D02*
G01X2089221Y1655000D01*
X2081721Y1626500D02*
G01X2086721Y1631500D01*
X2081721D02*
G01X2086721Y1626500D01*
X2079721D02*
G01X2084721Y1631500D01*
X2079721D02*
G01X2084721Y1626500D01*
X2077721D02*
G01X2082721Y1631500D01*
X2077721D02*
G01X2082721Y1626500D01*
X2062721Y1637000D02*
G01X2067721Y1642000D01*
X2062721D02*
G01X2067721Y1637000D01*
X2050721Y1640500D02*
G01X2055721Y1645500D01*
X2050721D02*
G01X2055721Y1640500D01*
X2046221D02*
G01X2051221Y1645500D01*
X2046221D02*
G01X2051221Y1640500D01*
X2106221Y1636500D02*
G01X2111221Y1641500D01*
X2106221D02*
G01X2111221Y1636500D01*
X2087221Y1621200D02*
G01X2092221Y1626200D01*
X2087221D02*
G01X2092221Y1621200D01*
X2123221Y1617500D02*
G01X2128221Y1622500D01*
X2123221D02*
G01X2128221Y1617500D01*
X2091221Y1633000D02*
G01X2096221Y1638000D01*
X2091221D02*
G01X2096221Y1633000D01*
X2111621Y1646500D02*
G01X2116621Y1651500D01*
X2111621D02*
G01X2116621Y1646500D01*
X2098221Y1654500D02*
G01X2103221Y1659500D01*
X2098221D02*
G01X2103221Y1654500D01*
X2089221Y1646000D02*
G01X2094221Y1651000D01*
X2089221D02*
G01X2094221Y1646000D01*
X2110721Y1648500D02*
G01X2115721Y1653500D01*
X2110721D02*
G01X2115721Y1648500D01*
X2089221Y1652500D02*
G01X2094221Y1657500D01*
X2089221D02*
G01X2094221Y1652500D01*
X2091221Y1644500D02*
G01X2096221Y1649500D01*
X2091221D02*
G01X2096221Y1644500D01*
X2106721Y1641000D02*
G01X2111721Y1646000D01*
X2106721D02*
G01X2111721Y1641000D01*
X2110721Y1644600D02*
G01X2115721Y1649600D01*
X2110721D02*
G01X2115721Y1644600D01*
X2110721Y1652100D02*
G01X2115721Y1657100D01*
X2110721D02*
G01X2115721Y1652100D01*
X2090721Y1654500D02*
G01X2095721Y1659500D01*
X2090721D02*
G01X2095721Y1654500D01*
X2120221Y1617500D02*
G01X2125221Y1622500D01*
X2120221D02*
G01X2125221Y1617500D01*
X2113421Y1650200D02*
G01X2118421Y1655200D01*
X2113421D02*
G01X2118421Y1650200D01*
X2112721Y1641900D02*
G01X2117721Y1646900D01*
X2112721D02*
G01X2117721Y1641900D01*
X2102321Y1641300D02*
G01X2107321Y1646300D01*
X2102321D02*
G01X2107321Y1641300D01*
X2091621Y1650500D02*
G01X2096621Y1655500D01*
X2091621D02*
G01X2096621Y1650500D01*
X2110721Y1656400D02*
G01X2115721Y1661400D01*
X2110721D02*
G01X2115721Y1656400D01*
X2091721Y1642500D02*
G01X2096721Y1647500D01*
X2091721D02*
G01X2096721Y1642500D01*
X2091521Y1646500D02*
G01X2096521Y1651500D01*
X2091521D02*
G01X2096521Y1646500D01*
X2094221Y1640500D02*
G01X2099221Y1645500D01*
X2094221D02*
G01X2099221Y1640500D01*
X2114221Y1625500D02*
G01X2119221Y1630500D01*
X2114221D02*
G01X2119221Y1625500D01*
X2114221Y1623500D02*
G01X2119221Y1628500D01*
X2114221D02*
G01X2119221Y1623500D01*
X2100221Y1654500D02*
G01X2105221Y1659500D01*
X2100221D02*
G01X2105221Y1654500D01*
X2129221Y1617500D02*
G01X2134221Y1622500D01*
X2129221D02*
G01X2134221Y1617500D01*
X2150221Y1620500D02*
G01X2155221Y1625500D01*
X2150221D02*
G01X2155221Y1620500D01*
X2145221D02*
G01X2150221Y1625500D01*
X2145221D02*
G01X2150221Y1620500D01*
X2152721D02*
G01X2157721Y1625500D01*
X2152721D02*
G01X2157721Y1620500D01*
X2147721D02*
G01X2152721Y1625500D01*
X2147721D02*
G01X2152721Y1620500D01*
X2137721Y1639500D02*
G01X2142721Y1644500D01*
X2137721D02*
G01X2142721Y1639500D01*
X2132721D02*
G01X2137721Y1644500D01*
X2132721D02*
G01X2137721Y1639500D01*
X2135221D02*
G01X2140221Y1644500D01*
X2135221D02*
G01X2140221Y1639500D01*
X2126221Y1617500D02*
G01X2131221Y1622500D01*
X2126221D02*
G01X2131221Y1617500D01*
X2131021Y1656400D02*
G01X2136021Y1661400D01*
X2131021D02*
G01X2136021Y1656400D01*
X2155221Y1641000D02*
G01X2160221Y1646000D01*
X2155221D02*
G01X2160221Y1641000D01*
X2151221Y1640800D02*
G01X2156221Y1645800D01*
X2151221D02*
G01X2156221Y1640800D01*
X2141221D02*
G01X2146221Y1645800D01*
X2141221D02*
G01X2146221Y1640800D01*
X2145221Y1651000D02*
G01X2150221Y1656000D01*
X2145221D02*
G01X2150221Y1651000D01*
X2146221Y1641000D02*
G01X2151221Y1646000D01*
X2146221D02*
G01X2151221Y1641000D01*
X2198421Y1638900D02*
G01X2203421Y1643900D01*
X2198421D02*
G01X2203421Y1638900D01*
X2189221Y1650600D02*
G01X2194221Y1655600D01*
X2189221D02*
G01X2194221Y1650600D01*
X2200621Y1638800D02*
G01X2205621Y1643800D01*
X2200621D02*
G01X2205621Y1638800D01*
X2182721Y1621500D02*
G01X2187721Y1626500D01*
X2182721D02*
G01X2187721Y1621500D01*
X2185221Y1650500D02*
G01X2190221Y1655500D01*
X2185221D02*
G01X2190221Y1650500D01*
X2193221D02*
G01X2198221Y1655500D01*
X2193221D02*
G01X2198221Y1650500D01*
X2169221Y1645500D02*
G01X2174221Y1650500D01*
X2169221D02*
G01X2174221Y1645500D01*
X2166221Y1632500D02*
G01X2171221Y1637500D01*
X2166221D02*
G01X2171221Y1632500D01*
X2189221Y1635000D02*
G01X2194221Y1640000D01*
X2189221D02*
G01X2194221Y1635000D01*
X2179221Y1637000D02*
G01X2184221Y1642000D01*
X2179221D02*
G01X2184221Y1637000D01*
X2193721D02*
G01X2198721Y1642000D01*
X2193721D02*
G01X2198721Y1637000D01*
X2187721Y1623177D02*
G01X2192721Y1628177D01*
X2187721D02*
G01X2192721Y1623177D01*
X2202221Y1622000D02*
G01X2207221Y1627000D01*
X2202221D02*
G01X2207221Y1622000D01*
X2181221Y1645500D02*
G01X2186221Y1650500D01*
X2181221D02*
G01X2186221Y1645500D01*
Y1625500D02*
G01X2191221Y1630500D01*
X2186221D02*
G01X2191221Y1625500D01*
X2196221Y1627500D02*
G01X2201221Y1632500D01*
X2196221D02*
G01X2201221Y1627500D01*
X2169221Y1642000D02*
G01X2174221Y1647000D01*
X2169221D02*
G01X2174221Y1642000D01*
X2208721Y1643000D02*
G01X2213721Y1648000D01*
X2208721D02*
G01X2213721Y1643000D01*
X2208721Y1645500D02*
G01X2213721Y1650500D01*
X2208721D02*
G01X2213721Y1645500D01*
X2208721Y1648000D02*
G01X2213721Y1653000D01*
X2208721D02*
G01X2213721Y1648000D01*
X1999321Y1676300D02*
G01X2004321Y1681300D01*
X1999321D02*
G01X2004321Y1676300D01*
X1993621Y1661100D02*
G01X1998621Y1666100D01*
X1993621D02*
G01X1998621Y1661100D01*
X2001021Y1662900D02*
G01X2006021Y1667900D01*
X2001021D02*
G01X2006021Y1662900D01*
X1993621Y1663200D02*
G01X1998621Y1668200D01*
X1993621D02*
G01X1998621Y1663200D01*
X2001121Y1669100D02*
G01X2006121Y1674100D01*
X2001121D02*
G01X2006121Y1669100D01*
X2001221Y1671700D02*
G01X2006221Y1676700D01*
X2001221D02*
G01X2006221Y1671700D01*
X2001221Y1674700D02*
G01X2006221Y1679700D01*
X2001221D02*
G01X2006221Y1674700D01*
X1995121Y1668300D02*
G01X2000121Y1673300D01*
X1995121D02*
G01X2000121Y1668300D01*
X1993221Y1673500D02*
G01X1998221Y1678500D01*
X1993221D02*
G01X1998221Y1673500D01*
X1994721Y1678500D02*
G01X1999721Y1683500D01*
X1994721D02*
G01X1999721Y1678500D01*
X2000721Y1677900D02*
G01X2005721Y1682900D01*
X2000721D02*
G01X2005721Y1677900D01*
X1998721Y1679500D02*
G01X2003721Y1684500D01*
X1998721D02*
G01X2003721Y1679500D01*
X1997221Y1689000D02*
G01X2002221Y1694000D01*
X1997221D02*
G01X2002221Y1689000D01*
X2000721D02*
G01X2005721Y1694000D01*
X2000721D02*
G01X2005721Y1689000D01*
X1993521Y1676300D02*
G01X1998521Y1681300D01*
X1993521D02*
G01X1998521Y1676300D01*
X2000721Y1658000D02*
G01X2005721Y1663000D01*
X2000721D02*
G01X2005721Y1658000D01*
X1997121Y1672600D02*
G01X2002121Y1677600D01*
X1997121D02*
G01X2002121Y1672600D01*
X1994121Y1691200D02*
G01X1999121Y1696200D01*
X1994121D02*
G01X1999121Y1691200D01*
X2042421Y1677400D02*
G01X2047421Y1682400D01*
X2042421D02*
G01X2047421Y1677400D01*
X2042321Y1680700D02*
G01X2047321Y1685700D01*
X2042321D02*
G01X2047321Y1680700D01*
X2016421Y1692400D02*
G01X2021421Y1697400D01*
X2016421D02*
G01X2021421Y1692400D01*
X2019521Y1695900D02*
G01X2024521Y1700900D01*
X2019521D02*
G01X2024521Y1695900D01*
X2029121Y1659200D02*
G01X2034121Y1664200D01*
X2029121D02*
G01X2034121Y1659200D01*
X2031421D02*
G01X2036421Y1664200D01*
X2031421D02*
G01X2036421Y1659200D01*
X2013521Y1676400D02*
G01X2018521Y1681400D01*
X2013521D02*
G01X2018521Y1676400D01*
X2025221Y1683700D02*
G01X2030221Y1688700D01*
X2025221D02*
G01X2030221Y1683700D01*
X2008421Y1663100D02*
G01X2013421Y1668100D01*
X2008421D02*
G01X2013421Y1663100D01*
X2022721Y1688000D02*
G01X2027721Y1693000D01*
X2022721D02*
G01X2027721Y1688000D01*
X2022721Y1693500D02*
G01X2027721Y1698500D01*
X2022721D02*
G01X2027721Y1693500D01*
X2022721Y1691000D02*
G01X2027721Y1696000D01*
X2022721D02*
G01X2027721Y1691000D01*
X2013721Y1668000D02*
G01X2018721Y1673000D01*
X2013721D02*
G01X2018721Y1668000D01*
X2017521Y1694600D02*
G01X2022521Y1699600D01*
X2017521D02*
G01X2022521Y1694600D01*
X2023721Y1660000D02*
G01X2028721Y1665000D01*
X2023721D02*
G01X2028721Y1660000D01*
X2025421Y1680400D02*
G01X2030421Y1685400D01*
X2025421D02*
G01X2030421Y1680400D01*
X2011021Y1675800D02*
G01X2016021Y1680800D01*
X2011021D02*
G01X2016021Y1675800D01*
X2014021Y1660000D02*
G01X2019021Y1665000D01*
X2014021D02*
G01X2019021Y1660000D01*
X2014221Y1656500D02*
G01X2019221Y1661500D01*
X2014221D02*
G01X2019221Y1656500D01*
X2027821Y1671300D02*
G01X2032821Y1676300D01*
X2027821D02*
G01X2032821Y1671300D01*
X2025721Y1672300D02*
G01X2030721Y1677300D01*
X2025721D02*
G01X2030721Y1672300D01*
X2039221Y1674400D02*
G01X2044221Y1679400D01*
X2039221D02*
G01X2044221Y1674400D01*
X2023958Y1677037D02*
G01X2028958Y1682037D01*
X2023958D02*
G01X2028958Y1677037D01*
X2045621Y1677500D02*
G01X2050621Y1682500D01*
X2045621D02*
G01X2050621Y1677500D01*
X2031221Y1667000D02*
G01X2036221Y1672000D01*
X2031221D02*
G01X2036221Y1667000D01*
X2014321Y1673500D02*
G01X2019321Y1678500D01*
X2014321D02*
G01X2019321Y1673500D01*
X2039391Y1668120D02*
G01X2044391Y1673120D01*
X2039391D02*
G01X2044391Y1668120D01*
X2045521Y1658630D02*
G01X2050521Y1663630D01*
X2045521D02*
G01X2050521Y1658630D01*
X2011721Y1688000D02*
G01X2016721Y1693000D01*
X2011721D02*
G01X2016721Y1688000D01*
X2006021Y1676300D02*
G01X2011021Y1681300D01*
X2006021D02*
G01X2011021Y1676300D01*
X2045021Y1685500D02*
G01X2050021Y1690500D01*
X2045021D02*
G01X2050021Y1685500D01*
X2034921Y1685600D02*
G01X2039921Y1690600D01*
X2034921D02*
G01X2039921Y1685600D01*
X2031721Y1679024D02*
G01X2036721Y1684024D01*
X2031721D02*
G01X2036721Y1679024D01*
X2042521Y1685500D02*
G01X2047521Y1690500D01*
X2042521D02*
G01X2047521Y1685500D01*
X2045421Y1668000D02*
G01X2050421Y1673000D01*
X2045421D02*
G01X2050421Y1668000D01*
X2031221Y1663500D02*
G01X2036221Y1668500D01*
X2031221D02*
G01X2036221Y1663500D01*
X2007752Y1682500D02*
G01X2012752Y1687500D01*
X2007752D02*
G01X2012752Y1682500D01*
X2045601Y1674290D02*
G01X2050601Y1679290D01*
X2045601D02*
G01X2050601Y1674290D01*
X2023221Y1665000D02*
G01X2028221Y1670000D01*
X2023221D02*
G01X2028221Y1665000D01*
X2042301Y1664830D02*
G01X2047301Y1669830D01*
X2042301D02*
G01X2047301Y1664830D01*
X2038721Y1685500D02*
G01X2043721Y1690500D01*
X2038721D02*
G01X2043721Y1685500D01*
X2071321Y1673700D02*
G01X2076321Y1678700D01*
X2071321D02*
G01X2076321Y1673700D01*
X2083521Y1667000D02*
G01X2088521Y1672000D01*
X2083521D02*
G01X2088521Y1667000D01*
X2084721Y1668600D02*
G01X2089721Y1673600D01*
X2084721D02*
G01X2089721Y1668600D01*
X2058521Y1684300D02*
G01X2063521Y1689300D01*
X2058521D02*
G01X2063521Y1684300D01*
X2060521Y1685400D02*
G01X2065521Y1690400D01*
X2060521D02*
G01X2065521Y1685400D01*
X2056221Y1685000D02*
G01X2061221Y1690000D01*
X2056221D02*
G01X2061221Y1685000D01*
X2072821Y1663200D02*
G01X2077821Y1668200D01*
X2072821D02*
G01X2077821Y1663200D01*
X2073621Y1683600D02*
G01X2078621Y1688600D01*
X2073621D02*
G01X2078621Y1683600D01*
X2068521Y1682000D02*
G01X2073521Y1687000D01*
X2068521D02*
G01X2073521Y1682000D01*
X2054921Y1677500D02*
G01X2059921Y1682500D01*
X2054921D02*
G01X2059921Y1677500D01*
X2051921Y1680600D02*
G01X2056921Y1685600D01*
X2051921D02*
G01X2056921Y1680600D01*
X2065021Y1682200D02*
G01X2070021Y1687200D01*
X2065021D02*
G01X2070021Y1682200D01*
X2048721Y1680600D02*
G01X2053721Y1685600D01*
X2048721D02*
G01X2053721Y1680600D01*
X2073721Y1694500D02*
G01X2078721Y1699500D01*
X2073721D02*
G01X2078721Y1694500D01*
X2075721Y1690000D02*
G01X2080721Y1695000D01*
X2075721D02*
G01X2080721Y1690000D01*
X2051891Y1674460D02*
G01X2056891Y1679460D01*
X2051891D02*
G01X2056891Y1674460D01*
X2058221Y1661800D02*
G01X2063221Y1666800D01*
X2058221D02*
G01X2063221Y1661800D01*
X2061221Y1668100D02*
G01X2066221Y1673100D01*
X2061221D02*
G01X2066221Y1668100D01*
X2061421Y1661800D02*
G01X2066421Y1666800D01*
X2061421D02*
G01X2066421Y1661800D01*
X2065221Y1669000D02*
G01X2070221Y1674000D01*
X2065221D02*
G01X2070221Y1669000D01*
X2061321Y1658600D02*
G01X2066321Y1663600D01*
X2061321D02*
G01X2066321Y1658600D01*
X2065121Y1672700D02*
G01X2070121Y1677700D01*
X2065121D02*
G01X2070121Y1672700D01*
X2061221Y1671200D02*
G01X2066221Y1676200D01*
X2061221D02*
G01X2066221Y1671200D01*
X2058221Y1677500D02*
G01X2063221Y1682500D01*
X2058221D02*
G01X2063221Y1677500D01*
X2082721Y1686500D02*
G01X2087721Y1691500D01*
X2082721D02*
G01X2087721Y1686500D01*
X2048721Y1668000D02*
G01X2053721Y1673000D01*
X2048721D02*
G01X2053721Y1668000D01*
X2052021D02*
G01X2057021Y1673000D01*
X2052021D02*
G01X2057021Y1668000D01*
X2070221Y1662425D02*
G01X2075221Y1667425D01*
X2070221D02*
G01X2075221Y1662425D01*
X2073221Y1670000D02*
G01X2078221Y1675000D01*
X2073221D02*
G01X2078221Y1670000D01*
X2055121Y1668100D02*
G01X2060121Y1673100D01*
X2055121D02*
G01X2060121Y1668100D01*
X2055121Y1665000D02*
G01X2060121Y1670000D01*
X2055121D02*
G01X2060121Y1665000D01*
X2073221Y1666000D02*
G01X2078221Y1671000D01*
X2073221D02*
G01X2078221Y1666000D01*
X2051921Y1658600D02*
G01X2056921Y1663600D01*
X2051921D02*
G01X2056921Y1658600D01*
X2058221D02*
G01X2063221Y1663600D01*
X2058221D02*
G01X2063221Y1658600D01*
X2089721Y1661200D02*
G01X2094721Y1666200D01*
X2089721D02*
G01X2094721Y1661200D01*
X2113921Y1666500D02*
G01X2118921Y1671500D01*
X2113921D02*
G01X2118921Y1666500D01*
X2088021Y1665100D02*
G01X2093021Y1670100D01*
X2088021D02*
G01X2093021Y1665100D01*
X2087121Y1690400D02*
G01X2092121Y1695400D01*
X2087121D02*
G01X2092121Y1690400D01*
X2111021Y1664500D02*
G01X2116021Y1669500D01*
X2111021D02*
G01X2116021Y1664500D01*
X2091721D02*
G01X2096721Y1669500D01*
X2091721D02*
G01X2096721Y1664500D01*
X2110721Y1682500D02*
G01X2115721Y1687500D01*
X2110721D02*
G01X2115721Y1682500D01*
X2091721D02*
G01X2096721Y1687500D01*
X2091721D02*
G01X2096721Y1682500D01*
X2090321Y1672200D02*
G01X2095321Y1677200D01*
X2090321D02*
G01X2095321Y1672200D01*
X2110821Y1668500D02*
G01X2115821Y1673500D01*
X2110821D02*
G01X2115821Y1668500D01*
X2110621Y1659600D02*
G01X2115621Y1664600D01*
X2110621D02*
G01X2115621Y1659600D01*
X2113721Y1657500D02*
G01X2118721Y1662500D01*
X2113721D02*
G01X2118721Y1657500D01*
X2091621Y1668500D02*
G01X2096621Y1673500D01*
X2091621D02*
G01X2096621Y1668500D01*
X2091721Y1670500D02*
G01X2096721Y1675500D01*
X2091721D02*
G01X2096721Y1670500D01*
X2110721Y1678500D02*
G01X2115721Y1683500D01*
X2110721D02*
G01X2115721Y1678500D01*
X2091721Y1686500D02*
G01X2096721Y1691500D01*
X2091721D02*
G01X2096721Y1686500D01*
X2110721D02*
G01X2115721Y1691500D01*
X2110721D02*
G01X2115721Y1686500D01*
X2091721Y1678500D02*
G01X2096721Y1683500D01*
X2091721D02*
G01X2096721Y1678500D01*
X2110721Y1676400D02*
G01X2115721Y1681400D01*
X2110721D02*
G01X2115721Y1676400D01*
X2091621Y1688800D02*
G01X2096621Y1693800D01*
X2091621D02*
G01X2096621Y1688800D01*
X2091721Y1666500D02*
G01X2096721Y1671500D01*
X2091721D02*
G01X2096721Y1666500D01*
X2091721Y1684500D02*
G01X2096721Y1689500D01*
X2091721D02*
G01X2096721Y1684500D01*
X2110721Y1690500D02*
G01X2115721Y1695500D01*
X2110721D02*
G01X2115721Y1690500D01*
X2091621Y1676500D02*
G01X2096621Y1681500D01*
X2091621D02*
G01X2096621Y1676500D01*
X2091621Y1680500D02*
G01X2096621Y1685500D01*
X2091621D02*
G01X2096621Y1680500D01*
X2102221Y1689500D02*
G01X2107221Y1694500D01*
X2102221D02*
G01X2107221Y1689500D01*
X2110721Y1688500D02*
G01X2115721Y1693500D01*
X2110721D02*
G01X2115721Y1688500D01*
X2110721Y1684500D02*
G01X2115721Y1689500D01*
X2110721D02*
G01X2115721Y1684500D01*
X2093221Y1672300D02*
G01X2098221Y1677300D01*
X2093221D02*
G01X2098221Y1672300D01*
X2087221Y1686500D02*
G01X2092221Y1691500D01*
X2087221D02*
G01X2092221Y1686500D01*
X2102621Y1673800D02*
G01X2107621Y1678800D01*
X2102621D02*
G01X2107621Y1673800D01*
X2101221Y1657500D02*
G01X2106221Y1662500D01*
X2101221D02*
G01X2106221Y1657500D01*
X2119221Y1666500D02*
G01X2124221Y1671500D01*
X2119221D02*
G01X2124221Y1666500D01*
X2119221Y1668500D02*
G01X2124221Y1673500D01*
X2119221D02*
G01X2124221Y1668500D01*
X2116721Y1658500D02*
G01X2121721Y1663500D01*
X2116721D02*
G01X2121721Y1658500D01*
X2116721Y1660500D02*
G01X2121721Y1665500D01*
X2116721D02*
G01X2121721Y1660500D01*
X2116721Y1656500D02*
G01X2121721Y1661500D01*
X2116721D02*
G01X2121721Y1656500D01*
X2113821Y1668500D02*
G01X2118821Y1673500D01*
X2113821D02*
G01X2118821Y1668500D01*
X2103121Y1665200D02*
G01X2108121Y1670200D01*
X2103121D02*
G01X2108121Y1665200D01*
X2098821D02*
G01X2103821Y1670200D01*
X2098821D02*
G01X2103821Y1665200D01*
X2103221Y1682000D02*
G01X2108221Y1687000D01*
X2103221D02*
G01X2108221Y1682000D01*
X2100621Y1672700D02*
G01X2105621Y1677700D01*
X2100621D02*
G01X2105621Y1672700D01*
X2099721Y1682000D02*
G01X2104721Y1687000D01*
X2099721D02*
G01X2104721Y1682000D01*
X2096221Y1695531D02*
G01X2101221Y1700531D01*
X2096221D02*
G01X2101221Y1695531D01*
X2143221Y1664000D02*
G01X2148221Y1669000D01*
X2143221D02*
G01X2148221Y1664000D01*
X2161521Y1691300D02*
G01X2166521Y1696300D01*
X2161521D02*
G01X2166521Y1691300D01*
X2162821Y1693300D02*
G01X2167821Y1698300D01*
X2162821D02*
G01X2167821Y1693300D01*
X2131021Y1660600D02*
G01X2136021Y1665600D01*
X2131021D02*
G01X2136021Y1660600D01*
X2131021Y1658500D02*
G01X2136021Y1663500D01*
X2131021D02*
G01X2136021Y1658500D01*
X2148721Y1693500D02*
G01X2153721Y1698500D01*
X2148721D02*
G01X2153721Y1693500D01*
X2148721Y1691000D02*
G01X2153721Y1696000D01*
X2148721D02*
G01X2153721Y1691000D01*
X2165221Y1674500D02*
G01X2170221Y1679500D01*
X2165221D02*
G01X2170221Y1674500D01*
X2160221Y1671500D02*
G01X2165221Y1676500D01*
X2160221D02*
G01X2165221Y1671500D01*
X2162721Y1674500D02*
G01X2167721Y1679500D01*
X2162721D02*
G01X2167721Y1674500D01*
X2157721D02*
G01X2162721Y1679500D01*
X2157721D02*
G01X2162721Y1674500D01*
X2165221Y1671500D02*
G01X2170221Y1676500D01*
X2165221D02*
G01X2170221Y1671500D01*
X2157721D02*
G01X2162721Y1676500D01*
X2157721D02*
G01X2162721Y1671500D01*
X2165221Y1669000D02*
G01X2170221Y1674000D01*
X2165221D02*
G01X2170221Y1669000D01*
X2160221D02*
G01X2165221Y1674000D01*
X2160221D02*
G01X2165221Y1669000D01*
X2162721Y1671500D02*
G01X2167721Y1676500D01*
X2162721D02*
G01X2167721Y1671500D01*
X2157721Y1669000D02*
G01X2162721Y1674000D01*
X2157721D02*
G01X2162721Y1669000D01*
X2167721Y1674000*
X2162721D02*
G01X2167721Y1669000D01*
X2160221Y1674500D02*
G01X2165221Y1679500D01*
X2160221D02*
G01X2165221Y1674500D01*
X2128221Y1666500D02*
G01X2133221Y1671500D01*
X2128221D02*
G01X2133221Y1666500D01*
X2128221Y1664000D02*
G01X2133221Y1669000D01*
X2128221D02*
G01X2133221Y1664000D01*
X2144721Y1693000D02*
G01X2149721Y1698000D01*
X2144721D02*
G01X2149721Y1693000D01*
X2144721Y1695000D02*
G01X2149721Y1700000D01*
X2144721D02*
G01X2149721Y1695000D01*
X2175321Y1671000D02*
G01X2180321Y1676000D01*
X2175321D02*
G01X2180321Y1671000D01*
X2198021Y1693600D02*
G01X2203021Y1698600D01*
X2198021D02*
G01X2203021Y1693600D01*
X2202221Y1666000D02*
G01X2207221Y1671000D01*
X2202221D02*
G01X2207221Y1666000D01*
X2178221Y1686500D02*
G01X2183221Y1691500D01*
X2178221D02*
G01X2183221Y1686500D01*
X2175221Y1668500D02*
G01X2180221Y1673500D01*
X2175221D02*
G01X2180221Y1668500D01*
X2200721Y1693500D02*
G01X2205721Y1698500D01*
X2200721D02*
G01X2205721Y1693500D01*
X2172721Y1693000D02*
G01X2177721Y1698000D01*
X2172721D02*
G01X2177721Y1693000D01*
X2178221Y1664000D02*
G01X2183221Y1669000D01*
X2178221D02*
G01X2183221Y1664000D01*
X2202190Y1682000D02*
G01X2207190Y1687000D01*
X2202190D02*
G01X2207190Y1682000D01*
X2197721Y1660500D02*
G01X2202721Y1665500D01*
X2197721D02*
G01X2202721Y1660500D01*
X2198252Y1677000D02*
G01X2203252Y1682000D01*
X2198252D02*
G01X2203252Y1677000D01*
X2169821Y1692900D02*
G01X2174821Y1697900D01*
X2169821D02*
G01X2174821Y1692900D01*
X2167621D02*
G01X2172621Y1697900D01*
X2167621D02*
G01X2172621Y1692900D01*
X1997021Y1713800D02*
G01X2002021Y1718800D01*
X1997021D02*
G01X2002021Y1713800D01*
X1994421Y1713900D02*
G01X1999421Y1718900D01*
X1994421D02*
G01X1999421Y1713900D01*
X1994421Y1699600D02*
G01X1999421Y1704600D01*
X1994421D02*
G01X1999421Y1699600D01*
X2005721Y1719500D02*
G01X2010721Y1724500D01*
X2005721D02*
G01X2010721Y1719500D01*
X1997021Y1699700D02*
G01X2002021Y1704700D01*
X1997021D02*
G01X2002021Y1699700D01*
X1999521Y1713900D02*
G01X2004521Y1718900D01*
X1999521D02*
G01X2004521Y1713900D01*
X2003121Y1700700D02*
G01X2008121Y1705700D01*
X2003121D02*
G01X2008121Y1700700D01*
X2002221Y1714500D02*
G01X2007221Y1719500D01*
X2002221D02*
G01X2007221Y1714500D01*
X2016121Y1707900D02*
G01X2021121Y1712900D01*
X2016121D02*
G01X2021121Y1707900D01*
X2013921Y1706200D02*
G01X2018921Y1711200D01*
X2013921D02*
G01X2018921Y1706200D01*
X2021521Y1697300D02*
G01X2026521Y1702300D01*
X2021521D02*
G01X2026521Y1697300D01*
X2036721Y1708500D02*
G01X2041721Y1713500D01*
X2036721D02*
G01X2041721Y1708500D01*
X2027721Y1712200D02*
G01X2032721Y1717200D01*
X2027721D02*
G01X2032721Y1712200D01*
X2027721Y1707500D02*
G01X2032721Y1712500D01*
X2027721D02*
G01X2032721Y1707500D01*
X2027721Y1710100D02*
G01X2032721Y1715100D01*
X2027721D02*
G01X2032721Y1710100D01*
X2013921Y1708700D02*
G01X2018921Y1713700D01*
X2013921D02*
G01X2018921Y1708700D01*
X2010721Y1700000D02*
G01X2015721Y1705000D01*
X2010721D02*
G01X2015721Y1700000D01*
X2007221Y1700500D02*
G01X2012221Y1705500D01*
X2007221D02*
G01X2012221Y1700500D01*
X2012721Y1723500D02*
G01X2017721Y1728500D01*
X2012721D02*
G01X2017721Y1723500D01*
X2015721Y1700000D02*
G01X2020721Y1705000D01*
X2015721D02*
G01X2020721Y1700000D01*
X2011721Y1720000D02*
G01X2016721Y1725000D01*
X2011721D02*
G01X2016721Y1720000D01*
X2042721Y1725500D02*
G01X2047721Y1730500D01*
X2042721D02*
G01X2047721Y1725500D01*
X2037721D02*
G01X2042721Y1730500D01*
X2037721D02*
G01X2042721Y1725500D01*
X2015721Y1731500D02*
G01X2020721Y1736500D01*
X2015721D02*
G01X2020721Y1731500D01*
X2015721Y1727500D02*
G01X2020721Y1732500D01*
X2015721D02*
G01X2020721Y1727500D01*
X2039721Y1713000D02*
G01X2044721Y1718000D01*
X2039721D02*
G01X2044721Y1713000D01*
X2013221Y1700000D02*
G01X2018221Y1705000D01*
X2013221D02*
G01X2018221Y1700000D01*
X2042221Y1698000D02*
G01X2047221Y1703000D01*
X2042221D02*
G01X2047221Y1698000D01*
X2024521Y1715400D02*
G01X2029521Y1720400D01*
X2024521D02*
G01X2029521Y1715400D01*
X2071221Y1723500D02*
G01X2076221Y1728500D01*
X2071221D02*
G01X2076221Y1723500D01*
X2084921Y1702900D02*
G01X2089921Y1707900D01*
X2084921D02*
G01X2089921Y1702900D01*
X2081221Y1708500D02*
G01X2086221Y1713500D01*
X2081221D02*
G01X2086221Y1708500D01*
X2067721Y1698500D02*
G01X2072721Y1703500D01*
X2067721D02*
G01X2072721Y1698500D01*
X2063721Y1715531D02*
G01X2068721Y1720531D01*
X2063721D02*
G01X2068721Y1715531D01*
X2078221Y1711500D02*
G01X2083221Y1716500D01*
X2078221D02*
G01X2083221Y1711500D01*
X2067221Y1723000D02*
G01X2072221Y1728000D01*
X2067221D02*
G01X2072221Y1723000D01*
X2062221Y1706500D02*
G01X2067221Y1711500D01*
X2062221D02*
G01X2067221Y1706500D01*
X2073721Y1731500D02*
G01X2078721Y1736500D01*
X2073721D02*
G01X2078721Y1731500D01*
X2073721Y1727500D02*
G01X2078721Y1732500D01*
X2073721D02*
G01X2078721Y1727500D01*
X2064221Y1710500D02*
G01X2069221Y1715500D01*
X2064221D02*
G01X2069221Y1710500D01*
X2084221Y1728500D02*
G01X2089221Y1733500D01*
X2084221D02*
G01X2089221Y1728500D01*
X2083221Y1697000D02*
G01X2088221Y1702000D01*
X2083221D02*
G01X2088221Y1697000D01*
X2062221Y1702500D02*
G01X2067221Y1707500D01*
X2062221D02*
G01X2067221Y1702500D01*
X2105221Y1713500D02*
G01X2110221Y1718500D01*
X2105221D02*
G01X2110221Y1713500D01*
X2090321Y1711984D02*
G01X2095321Y1716984D01*
X2090321D02*
G01X2095321Y1711984D01*
X2099221Y1709000D02*
G01X2104221Y1714000D01*
X2099221D02*
G01X2104221Y1709000D01*
X2100721Y1698000D02*
G01X2105721Y1703000D01*
X2100721D02*
G01X2105721Y1698000D01*
X2102721Y1713000D02*
G01X2107721Y1718000D01*
X2102721D02*
G01X2107721Y1713000D01*
X2100721Y1726500D02*
G01X2105721Y1731500D01*
X2100721D02*
G01X2105721Y1726500D01*
X2117778Y1728443D02*
G01X2122778Y1733443D01*
X2117778D02*
G01X2122778Y1728443D01*
X2115721Y1729500D02*
G01X2120721Y1734500D01*
X2115721D02*
G01X2120721Y1729500D01*
X2110721Y1729000D02*
G01X2115721Y1734000D01*
X2110721D02*
G01X2115721Y1729000D01*
X2095721D02*
G01X2100721Y1734000D01*
X2095721D02*
G01X2100721Y1729000D01*
X2086721D02*
G01X2091721Y1734000D01*
X2086721D02*
G01X2091721Y1729000D01*
X2121221Y1713000D02*
G01X2126221Y1718000D01*
X2121221D02*
G01X2126221Y1713000D01*
X2127221Y1711500D02*
G01X2132221Y1716500D01*
X2127221D02*
G01X2132221Y1711500D01*
X2160721Y1713000D02*
G01X2165721Y1718000D01*
X2160721D02*
G01X2165721Y1713000D01*
X2140421Y1711800D02*
G01X2145421Y1716800D01*
X2140421D02*
G01X2145421Y1711800D01*
X2140521Y1714500D02*
G01X2145521Y1719500D01*
X2140521D02*
G01X2145521Y1714500D01*
X2151221Y1707000D02*
G01X2156221Y1712000D01*
X2151221D02*
G01X2156221Y1707000D01*
X2137721Y1717500D02*
G01X2142721Y1722500D01*
X2137721D02*
G01X2142721Y1717500D01*
X2154721Y1725500D02*
G01X2159721Y1730500D01*
X2154721D02*
G01X2159721Y1725500D01*
X2164721Y1730500*
X2159721D02*
G01X2164721Y1725500D01*
X2130721Y1723000D02*
G01X2135721Y1728000D01*
X2130721D02*
G01X2135721Y1723000D01*
X2164721Y1709500D02*
G01X2169721Y1714500D01*
X2164721D02*
G01X2169721Y1709500D01*
X2129721Y1713000D02*
G01X2134721Y1718000D01*
X2129721D02*
G01X2134721Y1713000D01*
X2144721Y1697000D02*
G01X2149721Y1702000D01*
X2144721D02*
G01X2149721Y1697000D01*
X2191721Y1719500D02*
G01X2196721Y1724500D01*
X2191721D02*
G01X2196721Y1719500D01*
X2182221Y1710000D02*
G01X2187221Y1715000D01*
X2182221D02*
G01X2187221Y1710000D01*
X2192221Y1704500D02*
G01X2197221Y1709500D01*
X2192221D02*
G01X2197221Y1704500D01*
X2185721Y1706000D02*
G01X2190721Y1711000D01*
X2185721D02*
G01X2190721Y1706000D01*
X2185221Y1723500D02*
G01X2190221Y1728500D01*
X2185221D02*
G01X2190221Y1723500D01*
X2174721Y1709500D02*
G01X2179721Y1714500D01*
X2174721D02*
G01X2179721Y1709500D01*
X2181721Y1727500D02*
G01X2186721Y1732500D01*
X2181721D02*
G01X2186721Y1727500D01*
X2181721Y1731500D02*
G01X2186721Y1736500D01*
X2181721D02*
G01X2186721Y1731500D01*
X2177221Y1712531D02*
G01X2182221Y1717531D01*
X2177221D02*
G01X2182221Y1712531D01*
X2208721Y1707000D02*
G01X2213721Y1712000D01*
X2208721D02*
G01X2213721Y1707000D01*
X2208721Y1709500D02*
G01X2213721Y1714500D01*
X2208721D02*
G01X2213721Y1709500D01*
X2208721Y1712000D02*
G01X2213721Y1717000D01*
X2208721D02*
G01X2213721Y1712000D01*
X2015721Y1736500D02*
G01X2020721Y1741500D01*
X2015721D02*
G01X2020721Y1736500D01*
X2063221D02*
G01X2068221Y1741500D01*
X2063221D02*
G01X2068221Y1736500D01*
X2059721D02*
G01X2064721Y1741500D01*
X2059721D02*
G01X2064721Y1736500D01*
X2056221D02*
G01X2061221Y1741500D01*
X2056221D02*
G01X2061221Y1736500D01*
X2140721D02*
G01X2145721Y1741500D01*
X2140721D02*
G01X2145721Y1736500D01*
X2137221D02*
G01X2142221Y1741500D01*
X2137221D02*
G01X2142221Y1736500D01*
X2133721D02*
G01X2138721Y1741500D01*
X2133721D02*
G01X2138721Y1736500D01*
X2181721D02*
G01X2186721Y1741500D01*
X2181721D02*
G01X2186721Y1736500D01*
M02*
