*
*
G04 PADS VX.2.8 Build Number: 19810023 generated Gerber (RS-274-X) file*
G04 PC Version=2.1*
*
%IN "FT2R_1.pcb"*%
*
%MOIN*%
*
%FSLAX35Y35*%
*
*
*
*
G04 PC Standard Apertures*
*
*
G04 Thermal Relief Aperture macro.*
%AMTER*
1,1,$1,0,0*
1,0,$1-$2,0,0*
21,0,$3,$4,0,0,45*
21,0,$3,$4,0,0,135*
%
*
*
G04 Annular Aperture macro.*
%AMANN*
1,1,$1,0,0*
1,0,$2,0,0*
%
*
*
G04 Odd Aperture macro.*
%AMODD*
1,1,$1,0,0*
1,0,$1-0.005,0,0*
%
*
*
G04 PC Custom Aperture Macros*
*
*
*
*
*
*
G04 PC Aperture Table*
*
%ADD010C,0.001*%
%ADD013C,0.00394*%
%ADD015C,0.00591*%
%ADD024C,0.01772*%
%ADD026C,0.00787*%
%ADD035C,0.01181*%
%ADD044C,0.01969*%
%ADD090C,0.00787*%
%ADD103C,0.01181*%
%ADD104C,0.00591*%
%ADD105C,0*%
%ADD106O,0.01181X0.02756*%
%ADD107O,0.02756X0.01181*%
%ADD115C,0.00492*%
*
*
*
*
G04 PC Circuitry*
G04 Layer Name FT2R_1.pcb - circuitry*
%LPD*%
*
*
G04 PC Custom Flashes*
G04 Layer Name FT2R_1.pcb - flashes*
%LPD*%
*
*
G04 PC Circuitry*
G04 Layer Name FT2R_1.pcb - circuitry*
%LPD*%
*
G54D10*
G54D13*
G01X433583Y374744D02*
X434449D01*
Y373760*
X433583*
Y374744*
Y373760D02*
X434449D01*
X433583Y374154D02*
X434449D01*
X433583Y374547D02*
X434449D01*
X433858Y373760D02*
Y374744D01*
X434252Y373760D02*
Y374744D01*
X431378D02*
X432244D01*
Y373760*
X431378*
Y374744*
Y373760D02*
X432244D01*
X431378Y374154D02*
X432244D01*
X431378Y374547D02*
X432244D01*
X431496Y373760D02*
Y374744D01*
X431890Y373760D02*
Y374744D01*
X429646Y370571D02*
X428780D01*
Y371555*
X429646*
Y370571*
X428780D02*
X429646D01*
X428780Y370965D02*
X429646D01*
X428780Y371358D02*
X429646D01*
X429134Y370571D02*
Y371555D01*
X429528Y370571D02*
Y371555D01*
X431850Y370571D02*
X430984D01*
Y371555*
X431850*
Y370571*
X430984D02*
X431850D01*
X430984Y370965D02*
X431850D01*
X430984Y371358D02*
X431850D01*
X431102Y370571D02*
Y371555D01*
X431496Y370571D02*
Y371555D01*
X408071Y383878D02*
X408467Y381076D01*
X408469Y381069*
X408660Y380699*
X408663Y380693*
X408785Y380522*
X408792Y380515*
X408792D02*
X408877Y380427D01*
X408877*
X409843Y379444*
X410630*
X417520Y370586D02*
Y371102D01*
G54D15*
X505512Y465221D02*
Y462638D01*
Y465221D02*
X506675D01*
X505512Y463991D02*
X506228D01*
X508107Y465221D02*
Y462638D01*
X507480Y465221D02*
X508733D01*
X509628Y464606D02*
Y464729D01*
X509717Y464975*
X509807Y465098*
X509986Y465221*
X510344*
X510523Y465098*
X510612Y464975*
X510702Y464729*
Y464483*
X510612Y464237*
X510433Y463868*
X509538Y462638*
X510791*
X511596Y463745D02*
X513207D01*
X514012Y465221D02*
Y462638D01*
Y465221D02*
X514817D01*
X515086Y465098*
X515175Y464975*
X515265Y464729*
Y464483*
X515175Y464237*
X515086Y464114*
X514817Y463991*
X514012*
X514639D02*
X515265Y462638D01*
X516070Y464729D02*
X516249Y464852D01*
X516518Y465221*
Y462638*
X517323Y462146D02*
X519202D01*
X519739Y464729D02*
X519918Y464852D01*
X520186Y465221*
Y462638*
X522065Y464852D02*
X521976Y465098D01*
X521707Y465221*
X521528*
X521260Y465098*
X521081Y464729*
X520991Y464114*
Y463499*
X521081Y463007*
X521260Y462761*
X521528Y462638*
X521618*
X521886Y462761*
X522065Y463007*
X522155Y463376*
Y463499*
X522065Y463868*
X521886Y464114*
X521618Y464237*
X521528*
X521260Y464114*
X521081Y463868*
X520991Y463499*
X523855Y465221D02*
X522960Y463499D01*
X524302*
X523855Y465221D02*
Y462638D01*
X526360Y465221D02*
X525465Y462638D01*
X525107Y465221D02*
X526360D01*
X528239Y464852D02*
X528150Y465098D01*
X527881Y465221*
X527702*
X527434Y465098*
X527255Y464729*
X527165Y464114*
Y463499*
X527255Y463007*
X527434Y462761*
X527702Y462638*
X527792*
X528060Y462761*
X528239Y463007*
X528329Y463376*
Y463499*
X528239Y463868*
X528060Y464114*
X527792Y464237*
X527702*
X527434Y464114*
X527255Y463868*
X527165Y463499*
X529134Y462146D02*
X531013D01*
X531729Y465221D02*
X532713D01*
X532176Y464237*
X532445*
X532623Y464114*
X532713Y463991*
X532802Y463622*
Y463376*
X532713Y463007*
X532534Y462761*
X532266Y462638*
X531997*
X531729Y462761*
X531639Y462884*
X531550Y463130*
X533608Y462146D02*
X535487D01*
X536650Y465221D02*
Y462638D01*
X536024Y465221D02*
X537276D01*
X538618D02*
X538440Y465098D01*
X538261Y464852*
X538171Y464606*
X538082Y464237*
Y463622*
X538171Y463253*
X538261Y463007*
X538440Y462761*
X538618Y462638*
X538976*
X539155Y462761*
X539334Y463007*
X539424Y463253*
X539513Y463622*
Y464237*
X539424Y464606*
X539334Y464852*
X539155Y465098*
X538976Y465221*
X538618*
X540319D02*
Y462638D01*
Y465221D02*
X541124D01*
X541392Y465098*
X541482Y464975*
X541571Y464729*
Y464360*
X541482Y464114*
X541392Y463991*
X541124Y463868*
X540319*
X542377Y462146D02*
X544256D01*
X546045Y464852D02*
X545866Y465098D01*
X545598Y465221*
X545240*
X544971Y465098*
X544792Y464852*
Y464606*
X544882Y464360*
X544971Y464237*
X545150Y464114*
X545687Y463868*
X545866Y463745*
X545956Y463622*
X546045Y463376*
Y463007*
X545866Y462761*
X545598Y462638*
X545240*
X544971Y462761*
X544792Y463007*
X546850Y465221D02*
Y462638D01*
X547656Y465221D02*
Y462638D01*
Y465221D02*
X548282D01*
X548550Y465098*
X548729Y464852*
X548819Y464606*
X548908Y464237*
Y463622*
X548819Y463253*
X548729Y463007*
X548550Y462761*
X548282Y462638*
X547656*
X549714Y465221D02*
Y462638D01*
Y465221D02*
X550877D01*
X549714Y463991D02*
X550429D01*
X549714Y462638D02*
X550877D01*
X436153Y404763D02*
X437050Y406377D01*
X437773Y407635*
X406004Y390236D02*
X406024Y389747D01*
X406594Y386516*
X406004Y390236D02*
X406339Y447992D01*
X401969Y408622D02*
X402008Y408701D01*
X403701Y427559D02*
Y390551D01*
X404386Y386059*
X404409Y386063*
X406063Y448110D02*
X406339Y447992D01*
G54D24*
X407087Y364961D03*
X399213Y370276D03*
X406142Y370079D03*
X399803Y364961D03*
G54D26*
X429213Y369193D02*
Y371063D01*
X431417D02*
Y373858D01*
X431811Y374252*
Y376142*
X431850Y376181*
X426378Y375507D02*
X427702D01*
X428386Y374823*
X428386*
X429213Y373997*
Y371063*
G54D35*
X434016Y374252D02*
X435709D01*
X410630Y381412D03*
X408031Y375512D03*
X404409Y386063D03*
X426102Y369449D03*
X417520Y371102D03*
X435709Y374252D03*
X435748Y376535D03*
X431850Y376181D03*
X419488Y371181D03*
X419724Y378268D03*
X413228Y373307D03*
X448819Y398661D03*
X434764Y411772D03*
X417047Y410787D03*
X412520Y446220D03*
X414646Y428661D03*
X402008Y408701D03*
X403701Y427559D03*
X442323Y418701D03*
X451575Y425827D03*
X408071Y463268D03*
X406063Y448110D03*
G54D44*
X415157Y375113D02*
Y381806D01*
X421850*
Y375113*
X415157*
X421850*
X415157Y377082D02*
X421850D01*
X415157Y379050D02*
X421850D01*
X415157Y381019D02*
X421850D01*
X415354Y375113D02*
Y381806D01*
X417323Y375113D02*
Y381806D01*
X419291Y375113D02*
Y381806D01*
X421260Y375113D02*
Y381806D01*
G54D90*
X413228Y373307D02*
X413938Y373145D01*
X413945Y373143*
X414585Y372873*
X415346Y372112*
X415354Y372107*
X415551Y370586*
G54D103*
X406142Y370079D02*
X409134Y367087D01*
X421654*
X423228Y367089D02*
X421654Y367087D01*
X423425*
X425807Y367303*
X427348Y368071*
X429213Y369193*
X423425Y367087D02*
Y370586D01*
X418971Y378460D02*
X421732Y375699D01*
Y375507*
X418971Y378460D02*
X419532D01*
X419724Y378268*
X421732Y375507D02*
X418504Y378460D01*
X418971*
X418504D02*
X419488Y379444D01*
X426378*
X421457Y370586D02*
Y367106D01*
X423228Y367089*
X419488Y370586D02*
Y371181D01*
G54D104*
X416280Y409508D02*
G75*
G03X414251Y401772I14557J-7951D01*
G01X407205Y390236D02*
X408071Y463268D01*
X406241Y380397D02*
X406328Y380180D01*
X406332Y380170*
X406523Y379627*
X406525Y379617*
X406638Y379020*
X406680Y378797*
X406693Y378327*
X405531Y381732D02*
X405160Y382106D01*
X406102Y380709*
X406241Y380397*
X405571Y381673*
X406535Y375512D02*
X406555Y375999D01*
X406681Y377270*
X406693Y378327*
X406535Y375512D02*
X406555Y374900D01*
X407420Y374035*
X408396Y373839*
Y373835*
X409843Y373538*
X410630*
X414134Y392722D02*
X414213Y390467D01*
X414613Y389587*
X415026Y388503*
Y388501*
X415551Y387121*
Y386334*
X414134Y392722D02*
X414251Y401772D01*
X412441Y402736D02*
X412717Y416043D01*
X413425Y426181*
X414646Y428661*
X412441Y402736D02*
X412480Y388740D01*
X413583Y387121*
Y386334*
X401969Y408622D02*
X401890Y385472D01*
X402830Y384449*
X405160Y382106*
X426102Y369449D02*
X426614Y369843D01*
X426732Y369961*
X426969Y370276*
Y373425*
X427087Y373538*
X426378Y377475D02*
X429849D01*
X430035Y377661*
X432802*
X433928Y376535*
X435748*
X426378Y373538D02*
X427087D01*
X410630Y383381D02*
Y427548D01*
X410673Y427972*
X410886Y437382*
X416280Y409508D02*
X417047Y410787D01*
X411969Y444370D02*
X412520Y446220D01*
X411969Y444370D02*
G03X410886Y437382I25961J-7600D01*
G54D105*
G01X457760Y405575D02*
G03X445949I-5906J-0D01*
G01X445154Y404609D02*
G03X445949Y405575I-190J966D01*
G01X444996Y404591D02*
G03X445154Y404609I0J684D01*
G01X444996Y404591D02*
X443179D01*
X442194Y405575D02*
G03X443179Y404591I985J-0D01*
G01X447182Y417710D02*
G03X442194Y405575I12267J-12135D01*
G01X447894Y418389D02*
G03X447182Y417710I-359J-336D01*
G01X459449Y422830D02*
G03X447894Y418389I0J-17255D01*
G01X459449Y422830D02*
Y437287D01*
G03X459152Y437996I-1005J-5*
X458449Y438271I-680J-703*
X436955Y429325I1000J-32696*
G01X436251Y428637D02*
G03X436955Y429325I349J347D01*
G01X436251Y428637D02*
G03X426738Y405575I23198J-23062D01*
G01X425753Y404591D02*
G03X426738Y405575I0J984D01*
G01X425753Y404591D02*
X423551D01*
X422567Y405575D02*
G03X423551Y404591I984J-0D01*
G01X422647Y405970D02*
G03X422567Y405575I882J-384D01*
G01X422869Y406286D02*
G03X422647Y405970I710J-735D01*
G01X423182Y406496D02*
G03X422869Y406286I398J-932D01*
G01X423551Y406567D02*
G03X423182Y406496I-11J-938D01*
G01X423551Y406567D02*
X424535D01*
Y432265*
X424181Y432416D02*
G03X424535Y432265I349J325D01*
G01X424043Y432761D02*
G03X424181Y432416I474J-10D01*
G01X424189Y433113D02*
G03X424043Y432761I335J-345D01*
G01X424535Y433257D02*
G03X424189Y433113I-7J-472D01*
G01X424535Y433257D02*
Y469192D01*
G03X423551Y470177I-984J0*
G01X394811*
G03X393827Y469192I0J-985*
G01Y465551*
Y464566D02*
G03Y465551I-0J492D01*
G01Y464566D02*
Y433257D01*
X394181Y433105D02*
G03X393827Y433257I-349J-326D01*
G01X394319Y432761D02*
G03X394181Y433105I-475J9D01*
G01X394173Y432409D02*
G03X394319Y432761I-335J344D01*
G01X393827Y432265D02*
G03X394173Y432409I7J471D01*
G01X393827Y432265D02*
Y400161D01*
Y399177D02*
G03Y400161I-0J492D01*
G01Y399177D02*
Y398488D01*
G03X394811Y397504I984J0*
G01X397567*
X398551Y396520D02*
G03X397567Y397504I-984J-0D01*
G01X398551Y396520D02*
Y383247D01*
G03X399535Y382263I984J0*
G01X401701*
Y374389D02*
G03Y382263I-0J3937D01*
G01Y374389D02*
X395598D01*
G03X394614Y373405I0J-984*
G01Y363168*
G03X395598Y362184I984J0*
G01X408984*
G03X409969Y363168I0J984*
G01Y364743*
X410953Y365727D02*
G03X409969Y364743I-0J-984D01*
G01X410953Y365727D02*
X425323D01*
G03X427134Y366283I-132J3658*
G01X437921Y372504*
G03X438709Y373685I-629J1272*
G01Y383173*
G03X437921Y384197I-1282J-171*
G01X427126Y390399*
G03X426634Y390531I-492J-853*
G01X424142*
X420992Y393680D02*
G03X424142Y390531I3150J0D01*
G01X420992Y393680D02*
Y396520D01*
X422961D02*
G03X420992I-985J-0D01*
G01X422961D02*
Y395535D01*
G03X423945Y394551I984J0*
G01X434429*
X435413D02*
G03X434429I-492J0D01*
G01X435413D02*
X468295D01*
X469280D02*
G03X468295I-493J0D01*
G01X469280D02*
X476213D01*
G03X477198Y395535I0J984*
G01Y403606*
G03X476213Y404591I-985J0*
G01X458712*
X458555Y404609D02*
G03X458712Y404591I157J666D01*
G01X457760Y405575D02*
G03X458555Y404609I984J-0D01*
G54D106*
G01X413583Y370586D03*
X415551D03*
X417520D03*
X419488D03*
X421457D03*
X423425D03*
Y386334D03*
X421457D03*
X419488D03*
X417520D03*
X415551D03*
X413583D03*
G54D107*
X410630Y383381D03*
Y381412D03*
Y379444D03*
Y377475D03*
Y375507D03*
Y373538D03*
X426378D03*
Y375507D03*
Y377475D03*
Y379444D03*
Y381412D03*
Y383381D03*
G54D115*
X431260Y405000D02*
X434764Y411772D01*
X427677Y403307D02*
G03X431260Y405000I-120J4892D01*
G01X418937Y403228D02*
X420512Y403307D01*
X427677*
X427323Y401614D02*
G03X435551Y407165I-234J9220D01*
G01X419626Y401516D02*
X420748Y401614D01*
X427323*
X417557Y398337D02*
Y398338D01*
Y398337D02*
G03X417559Y398228I3476J0D01*
G01X417784Y391078*
X418349Y390286*
X419005Y388464*
X419005*
X419488Y387121*
Y386334*
X422028Y398563D02*
X423091Y398567D01*
X425886Y398602*
X431544Y398604*
X447342Y398649*
Y398657*
X448819Y398661*
X435310Y403172D02*
X436153Y404763D01*
X431142Y399736D02*
G03X435310Y403172I-6520J12156D01*
G01X421221Y399785D02*
X431093D01*
X431142Y399736*
X421221Y399785D02*
G03X418858Y398110I-0J-2503D01*
G01X409862Y377252D02*
X410630Y377475D01*
X407697Y380087D02*
G03X409862Y377252I3640J536D01*
G01X407205Y390236D02*
X407726Y386985D01*
X408071Y383878*
X406594Y386516D02*
X406679Y385387D01*
X406713Y384528*
X406890Y383237*
X407461Y380805*
X407697Y380087*
X418937Y403228D02*
G03X416339Y399350I1595J-3878D01*
G01Y391417*
X417362Y388346*
X417520Y386334*
X419626Y401516D02*
G03X417557Y398338I1407J-3178D01*
G01X418819Y394153D02*
Y394105D01*
X418851Y392619*
X418866Y391509*
X419931Y390050*
X420797Y388388*
Y388387*
X421457Y387121*
Y386334*
X418819Y394153D02*
X418858Y396988D01*
Y398110*
X419941Y396469D02*
Y396457D01*
X422028Y398563D02*
G03X419941Y396469I7J-2094D01*
G01Y396457D02*
X419902Y394134D01*
X419949Y391943*
X420935Y390646*
X422573Y388328*
Y388327*
X423425Y387121*
Y386334*
X408031Y375512D02*
X409567Y375472D01*
Y375429*
X410630Y375507*
X435551Y407165D02*
X442323Y418701D01*
X451575Y425827D02*
G03X437773Y407635I69565J-67110D01*
G01X437773*
G74*
X0Y0D02*
M02*
