*
%LPD*%
%LN2FOC-PMB*%
%FSLAX24Y24*%
%MOIN*%
%SRX1Y1I0.0J0.0*%
%AD*%
%ADD11C,0.010000*%
%ADD14C,0.006000*%
%ADD27R,0.024000X0.035000*%
%ADD28R,0.035000X0.024000*%
%ADD29C,0.040000*%
%ADD32R,0.021650X0.021650*%
%ADD33R,0.052000X0.060000*%
%ADD34R,0.060000X0.052000*%
%ADD35R,0.160000X0.076000*%
%ADD37R,0.079920X0.125200*%
%ADD38R,0.029920X0.055120*%
%ADD50C,0.050000*%
%ADD51R,0.062990X0.027560*%
%ADD52R,0.118110X0.082680*%
%ADD68R,0.023620X0.059060*%
%ADD69R,0.017000X0.041340*%
%ADD70R,0.059060X0.039370*%
%ADD71R,0.050000X0.021000*%
%ADD72R,0.035430X0.039370*%
%ADD73R,0.013780X0.031500*%
%ADD74R,0.031500X0.013780*%
%ADD76R,0.076000X0.160000*%
%ADD77R,0.023620X0.015750*%
G54D11*
G1X7125Y10087D2*
G1X29959Y10087D1*
G1X29959Y26622D1*
G1X7125Y26622D1*
G1X7125Y10087D1*
G1X13104Y26617D2*
G75*
G3X13105Y27417I17J400D1*
G74*
G1X14995Y27417D2*
G75*
G3X14994Y26617I-17J-400D1*
G74*
G1X22154Y26617D2*
G75*
G3X22155Y27417I17J400D1*
G74*
G1X24045Y27417D2*
G75*
G3X24044Y26617I-17J-400D1*
G74*
G1X13094Y9311D2*
G75*
G3X13095Y10087I16J388D1*
G74*
G1X14975Y10086D2*
G75*
G3X14974Y9307I-16J-390D1*
G74*
G1X22154Y9311D2*
G75*
G3X22155Y10087I16J388D1*
G74*
G1X24035Y10086D2*
G75*
G3X24034Y9307I-16J-390D1*
G74*
G1X30741Y12456D2*
G75*
G3X29965Y12457I-388J16D1*
G74*
G1X29966Y14337D2*
G75*
G3X30745Y14337I390J-16D1*
G74*
G1X7118Y29383D2*
G1X53575Y29383D1*
G1X53575Y27415D1*
G1X7118Y27415D1*
G1X7118Y29383D1*
G1X30740Y10092D2*
G1X53575Y10092D1*
G1X53575Y26627D1*
G1X30740Y26627D1*
G1X30740Y10092D1*
G1X7118Y9304D2*
G1X53575Y9304D1*
G1X53575Y7336D1*
G1X7118Y7336D1*
G1X7118Y9304D1*
G1X30741Y22346D2*
G75*
G3X29965Y22347I-388J16D1*
G74*
G1X29966Y24227D2*
G75*
G3X30745Y24227I390J-16D1*
G74*
G1X38605Y27417D2*
G75*
G3X38604Y26617I-17J-400D1*
G74*
G1X36714Y26617D2*
G75*
G3X36715Y27417I17J400D1*
G74*
G1X45764Y26617D2*
G75*
G3X45765Y27417I17J400D1*
G74*
G1X47655Y27417D2*
G75*
G3X47654Y26617I-17J-400D1*
G74*
G1X47645Y10086D2*
G75*
G3X47644Y9307I-16J-390D1*
G74*
G1X45764Y9311D2*
G75*
G3X45765Y10087I16J388D1*
G74*
G1X38585Y10086D2*
G75*
G3X38584Y9307I-16J-390D1*
G74*
G1X36704Y9311D2*
G75*
G3X36705Y10087I16J388D1*
G74*
G1X16495Y23117D2*
G54D14*
G1X16495Y23400D1*
G1X16193Y23400D1*
G1X16193Y23117D1*
G1X16495Y23117D1*
G1X16495Y22517D2*
G1X16495Y22800D1*
G1X16193Y22800D1*
G1X16193Y22517D1*
G1X16495Y22517D1*
G1X15845Y23117D2*
G1X15845Y23400D1*
G1X15543Y23400D1*
G1X15543Y23117D1*
G1X15845Y23117D1*
G1X15845Y22517D2*
G1X15845Y22800D1*
G1X15543Y22800D1*
G1X15543Y22517D1*
G1X15845Y22517D1*
G1X21795Y23117D2*
G1X21795Y23400D1*
G1X21493Y23400D1*
G1X21493Y23117D1*
G1X21795Y23117D1*
G1X22445Y23117D2*
G1X22445Y23400D1*
G1X22143Y23400D1*
G1X22143Y23117D1*
G1X22445Y23117D1*
G1X22445Y22517D2*
G1X22445Y22800D1*
G1X22143Y22800D1*
G1X22143Y22517D1*
G1X22445Y22517D1*
G1X21795Y22517D2*
G1X21795Y22800D1*
G1X21493Y22800D1*
G1X21493Y22517D1*
G1X21795Y22517D1*
G1X10495Y15367D2*
G1X10495Y15550D1*
G1X10293Y15550D1*
G1X10293Y15367D1*
G1X10495Y15367D1*
G1X10495Y14867D2*
G1X10495Y15050D1*
G1X10293Y15050D1*
G1X10293Y14867D1*
G1X10495Y14867D1*
G1X10045Y15367D2*
G1X10045Y15550D1*
G1X9843Y15550D1*
G1X9843Y15367D1*
G1X10045Y15367D1*
G1X10045Y14867D2*
G1X10045Y15050D1*
G1X9843Y15050D1*
G1X9843Y14867D1*
G1X10045Y14867D1*
G1X12995Y15367D2*
G1X12995Y15550D1*
G1X12793Y15550D1*
G1X12793Y15367D1*
G1X12995Y15367D1*
G1X12995Y14867D2*
G1X12995Y15050D1*
G1X12793Y15050D1*
G1X12793Y14867D1*
G1X12995Y14867D1*
G1X13445Y14867D2*
G1X13445Y15050D1*
G1X13243Y15050D1*
G1X13243Y14867D1*
G1X13445Y14867D1*
G1X13445Y15367D2*
G1X13445Y15550D1*
G1X13243Y15550D1*
G1X13243Y15367D1*
G1X13445Y15367D1*
G1X15995Y15367D2*
G1X15995Y15550D1*
G1X15793Y15550D1*
G1X15793Y15367D1*
G1X15995Y15367D1*
G1X15995Y14867D2*
G1X15995Y15050D1*
G1X15793Y15050D1*
G1X15793Y14867D1*
G1X15995Y14867D1*
G1X16445Y14867D2*
G1X16445Y15050D1*
G1X16243Y15050D1*
G1X16243Y14867D1*
G1X16445Y14867D1*
G1X16445Y15367D2*
G1X16445Y15550D1*
G1X16243Y15550D1*
G1X16243Y15367D1*
G1X16445Y15367D1*
G1X20545Y15367D2*
G1X20545Y15550D1*
G1X20343Y15550D1*
G1X20343Y15367D1*
G1X20545Y15367D1*
G1X20545Y14867D2*
G1X20545Y15050D1*
G1X20343Y15050D1*
G1X20343Y14867D1*
G1X20545Y14867D1*
G1X20995Y14867D2*
G1X20995Y15050D1*
G1X20793Y15050D1*
G1X20793Y14867D1*
G1X20995Y14867D1*
G1X20995Y15367D2*
G1X20995Y15550D1*
G1X20793Y15550D1*
G1X20793Y15367D1*
G1X20995Y15367D1*
G1X23495Y15367D2*
G1X23495Y15550D1*
G1X23293Y15550D1*
G1X23293Y15367D1*
G1X23495Y15367D1*
G1X23495Y14867D2*
G1X23495Y15050D1*
G1X23293Y15050D1*
G1X23293Y14867D1*
G1X23495Y14867D1*
G1X23945Y14867D2*
G1X23945Y15050D1*
G1X23743Y15050D1*
G1X23743Y14867D1*
G1X23945Y14867D1*
G1X23945Y15367D2*
G1X23945Y15550D1*
G1X23743Y15550D1*
G1X23743Y15367D1*
G1X23945Y15367D1*
G1X26495Y15367D2*
G1X26495Y15550D1*
G1X26293Y15550D1*
G1X26293Y15367D1*
G1X26495Y15367D1*
G1X26495Y14867D2*
G1X26495Y15050D1*
G1X26293Y15050D1*
G1X26293Y14867D1*
G1X26495Y14867D1*
G1X26945Y14867D2*
G1X26945Y15050D1*
G1X26743Y15050D1*
G1X26743Y14867D1*
G1X26945Y14867D1*
G1X26945Y15367D2*
G1X26945Y15550D1*
G1X26743Y15550D1*
G1X26743Y15367D1*
G1X26945Y15367D1*
G1X16266Y23117D2*
G1X16495Y23346D1*
G1X16342Y23117D2*
G1X16495Y23269D1*
G1X16419Y23117D2*
G1X16495Y23193D1*
G1X16193Y23120D2*
G1X16473Y23400D1*
G1X16193Y23197D2*
G1X16397Y23400D1*
G1X16193Y23273D2*
G1X16320Y23400D1*
G1X16193Y23349D2*
G1X16244Y23400D1*
G1X16266Y22517D2*
G1X16495Y22746D1*
G1X16342Y22517D2*
G1X16495Y22669D1*
G1X16419Y22517D2*
G1X16495Y22593D1*
G1X16193Y22520D2*
G1X16473Y22800D1*
G1X16193Y22597D2*
G1X16397Y22800D1*
G1X16193Y22673D2*
G1X16320Y22800D1*
G1X16193Y22749D2*
G1X16244Y22800D1*
G1X15616Y23117D2*
G1X15845Y23346D1*
G1X15692Y23117D2*
G1X15845Y23269D1*
G1X15769Y23117D2*
G1X15845Y23193D1*
G1X15543Y23120D2*
G1X15823Y23400D1*
G1X15543Y23197D2*
G1X15747Y23400D1*
G1X15543Y23273D2*
G1X15670Y23400D1*
G1X15543Y23349D2*
G1X15594Y23400D1*
G1X15616Y22517D2*
G1X15845Y22746D1*
G1X15692Y22517D2*
G1X15845Y22669D1*
G1X15769Y22517D2*
G1X15845Y22593D1*
G1X15543Y22520D2*
G1X15823Y22800D1*
G1X15543Y22597D2*
G1X15747Y22800D1*
G1X15543Y22673D2*
G1X15670Y22800D1*
G1X15543Y22749D2*
G1X15594Y22800D1*
G1X21566Y23117D2*
G1X21795Y23346D1*
G1X21642Y23117D2*
G1X21795Y23269D1*
G1X21719Y23117D2*
G1X21795Y23193D1*
G1X21493Y23120D2*
G1X21773Y23400D1*
G1X21493Y23197D2*
G1X21697Y23400D1*
G1X21493Y23273D2*
G1X21620Y23400D1*
G1X21493Y23349D2*
G1X21544Y23400D1*
G1X22216Y23117D2*
G1X22445Y23346D1*
G1X22292Y23117D2*
G1X22445Y23269D1*
G1X22369Y23117D2*
G1X22445Y23193D1*
G1X22143Y23120D2*
G1X22423Y23400D1*
G1X22143Y23197D2*
G1X22347Y23400D1*
G1X22143Y23273D2*
G1X22270Y23400D1*
G1X22143Y23349D2*
G1X22194Y23400D1*
G1X22216Y22517D2*
G1X22445Y22746D1*
G1X22292Y22517D2*
G1X22445Y22669D1*
G1X22369Y22517D2*
G1X22445Y22593D1*
G1X22143Y22520D2*
G1X22423Y22800D1*
G1X22143Y22597D2*
G1X22347Y22800D1*
G1X22143Y22673D2*
G1X22270Y22800D1*
G1X22143Y22749D2*
G1X22194Y22800D1*
G1X21566Y22517D2*
G1X21795Y22746D1*
G1X21642Y22517D2*
G1X21795Y22669D1*
G1X21719Y22517D2*
G1X21795Y22593D1*
G1X21493Y22520D2*
G1X21773Y22800D1*
G1X21493Y22597D2*
G1X21697Y22800D1*
G1X21493Y22673D2*
G1X21620Y22800D1*
G1X21493Y22749D2*
G1X21544Y22800D1*
G1X10342Y15367D2*
G1X10495Y15519D1*
G1X10419Y15367D2*
G1X10495Y15443D1*
G1X10293Y15394D2*
G1X10450Y15550D1*
G1X10293Y15470D2*
G1X10373Y15550D1*
G1X10293Y15547D2*
G1X10297Y15550D1*
G1X10342Y14867D2*
G1X10495Y15019D1*
G1X10419Y14867D2*
G1X10495Y14943D1*
G1X10293Y14894D2*
G1X10450Y15050D1*
G1X10293Y14970D2*
G1X10373Y15050D1*
G1X10293Y15047D2*
G1X10297Y15050D1*
G1X9892Y15367D2*
G1X10045Y15519D1*
G1X9969Y15367D2*
G1X10045Y15443D1*
G1X9843Y15394D2*
G1X10000Y15550D1*
G1X9843Y15470D2*
G1X9923Y15550D1*
G1X9843Y15547D2*
G1X9847Y15550D1*
G1X9892Y14867D2*
G1X10045Y15019D1*
G1X9969Y14867D2*
G1X10045Y14943D1*
G1X9843Y14894D2*
G1X10000Y15050D1*
G1X9843Y14970D2*
G1X9923Y15050D1*
G1X9843Y15047D2*
G1X9847Y15050D1*
G1X12842Y15367D2*
G1X12995Y15519D1*
G1X12919Y15367D2*
G1X12995Y15443D1*
G1X12793Y15394D2*
G1X12950Y15550D1*
G1X12793Y15470D2*
G1X12873Y15550D1*
G1X12793Y15547D2*
G1X12797Y15550D1*
G1X12842Y14867D2*
G1X12995Y15019D1*
G1X12919Y14867D2*
G1X12995Y14943D1*
G1X12793Y14894D2*
G1X12950Y15050D1*
G1X12793Y14970D2*
G1X12873Y15050D1*
G1X12793Y15047D2*
G1X12797Y15050D1*
G1X13292Y14867D2*
G1X13445Y15019D1*
G1X13369Y14867D2*
G1X13445Y14943D1*
G1X13243Y14894D2*
G1X13400Y15050D1*
G1X13243Y14970D2*
G1X13323Y15050D1*
G1X13243Y15047D2*
G1X13247Y15050D1*
G1X13292Y15367D2*
G1X13445Y15519D1*
G1X13369Y15367D2*
G1X13445Y15443D1*
G1X13243Y15394D2*
G1X13400Y15550D1*
G1X13243Y15470D2*
G1X13323Y15550D1*
G1X13243Y15547D2*
G1X13247Y15550D1*
G1X15842Y15367D2*
G1X15995Y15519D1*
G1X15919Y15367D2*
G1X15995Y15443D1*
G1X15793Y15394D2*
G1X15950Y15550D1*
G1X15793Y15470D2*
G1X15873Y15550D1*
G1X15793Y15547D2*
G1X15797Y15550D1*
G1X15842Y14867D2*
G1X15995Y15019D1*
G1X15919Y14867D2*
G1X15995Y14943D1*
G1X15793Y14894D2*
G1X15950Y15050D1*
G1X15793Y14970D2*
G1X15873Y15050D1*
G1X15793Y15047D2*
G1X15797Y15050D1*
G1X16292Y14867D2*
G1X16445Y15019D1*
G1X16369Y14867D2*
G1X16445Y14943D1*
G1X16243Y14894D2*
G1X16400Y15050D1*
G1X16243Y14970D2*
G1X16323Y15050D1*
G1X16243Y15047D2*
G1X16247Y15050D1*
G1X16292Y15367D2*
G1X16445Y15519D1*
G1X16369Y15367D2*
G1X16445Y15443D1*
G1X16243Y15394D2*
G1X16400Y15550D1*
G1X16243Y15470D2*
G1X16323Y15550D1*
G1X16243Y15547D2*
G1X16247Y15550D1*
G1X20392Y15367D2*
G1X20545Y15519D1*
G1X20469Y15367D2*
G1X20545Y15443D1*
G1X20343Y15394D2*
G1X20500Y15550D1*
G1X20343Y15470D2*
G1X20423Y15550D1*
G1X20343Y15547D2*
G1X20347Y15550D1*
G1X20392Y14867D2*
G1X20545Y15019D1*
G1X20469Y14867D2*
G1X20545Y14943D1*
G1X20343Y14894D2*
G1X20500Y15050D1*
G1X20343Y14970D2*
G1X20423Y15050D1*
G1X20343Y15047D2*
G1X20347Y15050D1*
G1X20842Y14867D2*
G1X20995Y15019D1*
G1X20919Y14867D2*
G1X20995Y14943D1*
G1X20793Y14894D2*
G1X20950Y15050D1*
G1X20793Y14970D2*
G1X20873Y15050D1*
G1X20793Y15047D2*
G1X20797Y15050D1*
G1X20842Y15367D2*
G1X20995Y15519D1*
G1X20919Y15367D2*
G1X20995Y15443D1*
G1X20793Y15394D2*
G1X20950Y15550D1*
G1X20793Y15470D2*
G1X20873Y15550D1*
G1X20793Y15547D2*
G1X20797Y15550D1*
G1X23342Y15367D2*
G1X23495Y15519D1*
G1X23419Y15367D2*
G1X23495Y15443D1*
G1X23293Y15394D2*
G1X23450Y15550D1*
G1X23293Y15470D2*
G1X23373Y15550D1*
G1X23293Y15547D2*
G1X23297Y15550D1*
G1X23342Y14867D2*
G1X23495Y15019D1*
G1X23419Y14867D2*
G1X23495Y14943D1*
G1X23293Y14894D2*
G1X23450Y15050D1*
G1X23293Y14970D2*
G1X23373Y15050D1*
G1X23293Y15047D2*
G1X23297Y15050D1*
G1X23792Y14867D2*
G1X23945Y15019D1*
G1X23869Y14867D2*
G1X23945Y14943D1*
G1X23743Y14894D2*
G1X23900Y15050D1*
G1X23743Y14970D2*
G1X23823Y15050D1*
G1X23743Y15047D2*
G1X23747Y15050D1*
G1X23792Y15367D2*
G1X23945Y15519D1*
G1X23869Y15367D2*
G1X23945Y15443D1*
G1X23743Y15394D2*
G1X23900Y15550D1*
G1X23743Y15470D2*
G1X23823Y15550D1*
G1X23743Y15547D2*
G1X23747Y15550D1*
G1X26342Y15367D2*
G1X26495Y15519D1*
G1X26419Y15367D2*
G1X26495Y15443D1*
G1X26293Y15394D2*
G1X26450Y15550D1*
G1X26293Y15470D2*
G1X26373Y15550D1*
G1X26293Y15547D2*
G1X26297Y15550D1*
G1X26342Y14867D2*
G1X26495Y15019D1*
G1X26419Y14867D2*
G1X26495Y14943D1*
G1X26293Y14894D2*
G1X26450Y15050D1*
G1X26293Y14970D2*
G1X26373Y15050D1*
G1X26293Y15047D2*
G1X26297Y15050D1*
G1X26792Y14867D2*
G1X26945Y15019D1*
G1X26869Y14867D2*
G1X26945Y14943D1*
G1X26743Y14894D2*
G1X26900Y15050D1*
G1X26743Y14970D2*
G1X26823Y15050D1*
G1X26743Y15047D2*
G1X26747Y15050D1*
G1X26792Y15367D2*
G1X26945Y15519D1*
G1X26869Y15367D2*
G1X26945Y15443D1*
G1X26743Y15394D2*
G1X26900Y15550D1*
G1X26743Y15470D2*
G1X26823Y15550D1*
G1X26743Y15547D2*
G1X26747Y15550D1*
G54D27*
G1X15038Y25717D3*
G1X15353Y25717D3*
G1X15333Y26248D3*
G1X15018Y26248D3*
G54D28*
G1X9310Y23429D3*
G1X9310Y23909D3*
G1X27814Y23410D3*
G1X27814Y23890D3*
G1X18857Y22051D3*
G1X18857Y22531D3*
G1X20176Y22445D3*
G1X20176Y22925D3*
G1X11711Y15425D3*
G1X11711Y14945D3*
G1X14684Y15425D3*
G1X14684Y14945D3*
G1X17617Y15425D3*
G1X17617Y14945D3*
G1X22262Y15425D3*
G1X22262Y14945D3*
G1X25215Y15425D3*
G1X25215Y14945D3*
G1X28188Y15406D3*
G1X28188Y14926D3*
G1X17656Y20496D3*
G1X17656Y20976D3*
G1X17656Y19591D3*
G1X17656Y20071D3*
G1X14310Y22465D3*
G1X14310Y22945D3*
G1X12912Y22465D3*
G1X12912Y22945D3*
G54D29*
G1X9211Y25067D3*
G1X29329Y12154D3*
G1X7873Y12410D3*
G54D32*
G1X10727Y20382D3*
G1X10373Y20382D3*
G1X10786Y21878D3*
G1X10432Y21878D3*
G1X10766Y21366D3*
G1X10412Y21366D3*
G1X10333Y19752D3*
G1X9979Y19752D3*
G1X10353Y22764D3*
G1X9999Y22764D3*
G1X9979Y20874D3*
G1X9625Y20874D3*
G1X9979Y21366D3*
G1X9625Y21366D3*
G1X9979Y21878D3*
G1X9625Y21878D3*
G1X9979Y22351D3*
G1X9625Y22351D3*
G1X10353Y23315D3*
G1X9999Y23315D3*
G1X10786Y22311D3*
G1X10432Y22311D3*
G1X10845Y20973D3*
G1X10491Y20973D3*
G1X9625Y20382D3*
G1X9979Y20382D3*
G1X26337Y22351D3*
G1X26692Y22351D3*
G1X26337Y20874D3*
G1X26692Y20874D3*
G1X27479Y20362D3*
G1X27125Y20362D3*
G1X26770Y22803D3*
G1X27125Y22803D3*
G1X26003Y21858D3*
G1X25648Y21858D3*
G1X27125Y22370D3*
G1X27479Y22370D3*
G1X27125Y20874D3*
G1X27479Y20874D3*
G1X27125Y21366D3*
G1X27479Y21366D3*
G1X27125Y21878D3*
G1X27479Y21878D3*
G1X26692Y20362D3*
G1X26337Y20362D3*
G1X26692Y21366D3*
G1X26337Y21366D3*
G1X26692Y21858D3*
G1X26337Y21858D3*
G1X27125Y23236D3*
G1X26770Y23236D3*
G1X11495Y21878D3*
G1X11140Y21878D3*
G1X11495Y21366D3*
G1X11140Y21366D3*
G1X26003Y21366D3*
G1X25648Y21366D3*
G1X17125Y25303D3*
G1X17125Y25658D3*
G1X14959Y21032D3*
G1X14959Y21386D3*
G1X14959Y20658D3*
G1X14959Y20303D3*
G1X14310Y21347D3*
G1X14310Y21701D3*
G1X15786Y20303D3*
G1X15786Y20658D3*
G1X15786Y19929D3*
G1X15786Y19575D3*
G1X20727Y21386D3*
G1X20727Y21032D3*
G1X19684Y21642D3*
G1X20038Y21642D3*
G1X16357Y20323D3*
G1X16357Y20677D3*
G1X21692Y20480D3*
G1X21692Y20835D3*
G1X20944Y19791D3*
G1X20944Y20146D3*
G1X22617Y20776D3*
G1X22262Y20776D3*
G1X21692Y19969D3*
G1X21692Y19614D3*
G1X14074Y23433D3*
G1X14428Y23433D3*
G1X19585Y23571D3*
G1X19940Y23571D3*
G1X12066Y22429D3*
G1X11711Y22429D3*
G1X18168Y23335D3*
G1X17814Y23335D3*
G1X16692Y21327D3*
G1X16337Y21327D3*
G1X22617Y21268D3*
G1X22262Y21268D3*
G1X24051Y23195D3*
G1X23697Y23195D3*
G1X12164Y24142D3*
G1X12518Y24142D3*
G1X11692Y24142D3*
G1X11337Y24142D3*
G1X24524Y25833D3*
G1X24878Y25833D3*
G1X23955Y25815D3*
G1X23601Y25815D3*
G1X19369Y22134D3*
G1X19723Y22134D3*
G1X19349Y22528D3*
G1X19703Y22528D3*
G1X11455Y16209D3*
G1X11455Y15854D3*
G1X14408Y16189D3*
G1X14408Y15835D3*
G1X17440Y16209D3*
G1X17440Y15854D3*
G1X12499Y22016D3*
G1X12144Y22016D3*
G1X11613Y19083D3*
G1X11967Y19083D3*
G1X12715Y20205D3*
G1X13070Y20205D3*
G1X11613Y19477D3*
G1X11967Y19477D3*
G1X11987Y20205D3*
G1X12341Y20205D3*
G1X11987Y19831D3*
G1X12341Y19831D3*
G1X11593Y18689D3*
G1X11948Y18689D3*
G1X12715Y19831D3*
G1X13070Y19831D3*
G1X24270Y19949D3*
G1X24625Y19949D3*
G1X14487Y24654D3*
G1X14487Y25008D3*
G1X14467Y23925D3*
G1X14467Y24280D3*
G1X19625Y23945D3*
G1X19625Y24299D3*
G1X19664Y24693D3*
G1X19664Y25047D3*
G1X13759Y25067D3*
G1X13759Y24713D3*
G1X14113Y24654D3*
G1X14113Y25008D3*
G1X13404Y24260D3*
G1X13404Y23906D3*
G1X14113Y23925D3*
G1X14113Y24280D3*
G1X18896Y24299D3*
G1X18896Y23945D3*
G1X19999Y23945D3*
G1X19999Y24299D3*
G1X20432Y25047D3*
G1X20432Y24693D3*
G1X19270Y24693D3*
G1X19270Y25047D3*
G1X14861Y24654D3*
G1X14861Y25008D3*
G1X13778Y23925D3*
G1X13778Y24280D3*
G1X19270Y23945D3*
G1X19270Y24299D3*
G1X20018Y24693D3*
G1X20018Y25047D3*
G1X28247Y15815D3*
G1X27892Y15815D3*
G1X22262Y15835D3*
G1X21908Y15835D3*
G1X24625Y19201D3*
G1X24270Y19201D3*
G1X24034Y21799D3*
G1X23680Y21799D3*
G1X23522Y19575D3*
G1X23877Y19575D3*
G1X24270Y18807D3*
G1X24625Y18807D3*
G1X23522Y19181D3*
G1X23877Y19181D3*
G1X24270Y19575D3*
G1X24625Y19575D3*
G1X23522Y19949D3*
G1X23877Y19949D3*
G1X24428Y24063D3*
G1X24074Y24063D3*
G1X18365Y21701D3*
G1X18011Y21701D3*
G1X19152Y19929D3*
G1X18798Y19929D3*
G1X20156Y20815D3*
G1X20156Y20461D3*
G1X19762Y20461D3*
G1X19762Y20815D3*
G1X18011Y22036D3*
G1X18365Y22036D3*
G1X25274Y15795D3*
G1X24920Y15795D3*
G1X13385Y22941D3*
G1X13739Y22941D3*
G54D33*
G1X19847Y25599D3*
G1X19087Y25599D3*
G54D34*
G1X25432Y19943D3*
G1X25432Y20703D3*
G54D35*
G1X27007Y19024D3*
G54D37*
G1X18866Y14036D3*
G1X18345Y15976D3*
G54D38*
G1X18096Y13684D3*
G1X19115Y16328D3*
G54D50*
G1X19074Y23276D3*
G1X25235Y22331D3*
G1X24802Y22921D3*
G1X12912Y23669D3*
G1X10786Y22764D3*
G1X18129Y22843D3*
G1X10885Y19477D3*
G1X13719Y21051D3*
G1X19664Y22980D3*
G1X17499Y21583D3*
G1X27184Y23906D3*
G1X18385Y19339D3*
G1X16731Y25008D3*
G1X13739Y22449D3*
G54D51*
G1X27991Y22833D3*
G1X27991Y22341D3*
G1X27991Y21849D3*
G1X27991Y21356D3*
G1X27991Y20864D3*
G1X27991Y20372D3*
G1X27991Y19880D3*
G1X9093Y19880D3*
G1X9093Y20372D3*
G1X9093Y20864D3*
G1X9093Y21356D3*
G1X9093Y21849D3*
G1X9093Y22341D3*
G1X9093Y22833D3*
G54D52*
G1X29133Y18876D3*
G1X29133Y23837D3*
G1X7951Y23837D3*
G1X7951Y18876D3*
G54D68*
G1X15349Y12837D3*
G1X15849Y12837D3*
G1X16349Y12837D3*
G1X16849Y12837D3*
G1X16849Y10837D3*
G1X16349Y10837D3*
G1X15849Y10837D3*
G1X15349Y10837D3*
G1X26392Y12837D3*
G1X26892Y12837D3*
G1X27392Y12837D3*
G1X27892Y12837D3*
G1X27892Y10837D3*
G1X27392Y10837D3*
G1X26892Y10837D3*
G1X26392Y10837D3*
G1X9268Y12799D3*
G1X9768Y12799D3*
G1X10268Y12799D3*
G1X10768Y12799D3*
G1X10768Y10799D3*
G1X10268Y10799D3*
G1X9768Y10799D3*
G1X9268Y10799D3*
G1X20408Y12837D3*
G1X20908Y12837D3*
G1X21408Y12837D3*
G1X21908Y12837D3*
G1X21908Y10837D3*
G1X21408Y10837D3*
G1X20908Y10837D3*
G1X20408Y10837D3*
G54D69*
G1X12322Y22929D3*
G1X12066Y22929D3*
G1X11810Y22929D3*
G1X11554Y22929D3*
G1X11554Y23622D3*
G1X11810Y23622D3*
G1X12066Y23622D3*
G1X12322Y23622D3*
G1X24609Y24556D3*
G1X24353Y24556D3*
G1X24097Y24556D3*
G1X23841Y24556D3*
G1X23841Y25249D3*
G1X24097Y25249D3*
G1X24353Y25249D3*
G1X24609Y25249D3*
G54D70*
G1X12164Y24732D3*
G1X12164Y25717D3*
G1X10196Y25717D3*
G1X10196Y24732D3*
G1X25570Y25914D3*
G1X25570Y24929D3*
G1X27538Y24929D3*
G1X27538Y25914D3*
G54D71*
G1X12968Y21490D3*
G1X12968Y21110D3*
G1X12968Y20730D3*
G1X12098Y20730D3*
G1X12098Y21490D3*
G1X24464Y21274D3*
G1X24464Y20894D3*
G1X24464Y20514D3*
G1X23594Y20514D3*
G1X23594Y21274D3*
G1X18388Y20455D3*
G1X18388Y20835D3*
G1X18388Y21215D3*
G1X19258Y21215D3*
G1X19258Y20455D3*
G54D72*
G1X18227Y25579D3*
G1X18227Y24752D3*
G1X17593Y24752D3*
G1X17585Y25579D3*
G54D73*
G1X15274Y24142D3*
G1X15530Y24142D3*
G1X15786Y24142D3*
G1X16042Y24142D3*
G1X16298Y24142D3*
G1X16554Y24142D3*
G1X16810Y24142D3*
G1X16810Y21780D3*
G1X16554Y21780D3*
G1X16298Y21780D3*
G1X16042Y21780D3*
G1X15786Y21780D3*
G1X15530Y21780D3*
G1X15274Y21780D3*
G1X21180Y24122D3*
G1X21436Y24122D3*
G1X21692Y24122D3*
G1X21948Y24122D3*
G1X22203Y24122D3*
G1X22459Y24122D3*
G1X22715Y24122D3*
G1X22715Y21760D3*
G1X22459Y21760D3*
G1X22203Y21760D3*
G1X21948Y21760D3*
G1X21692Y21760D3*
G1X21436Y21760D3*
G1X21180Y21760D3*
G54D74*
G1X17223Y23729D3*
G1X17223Y23473D3*
G1X17223Y23217D3*
G1X17223Y22961D3*
G1X17223Y22705D3*
G1X17223Y22449D3*
G1X17223Y22193D3*
G1X14861Y22193D3*
G1X14861Y22449D3*
G1X14861Y22705D3*
G1X14861Y22961D3*
G1X14861Y23217D3*
G1X14861Y23473D3*
G1X14861Y23729D3*
G1X23129Y23709D3*
G1X23129Y23453D3*
G1X23129Y23197D3*
G1X23129Y22941D3*
G1X23129Y22685D3*
G1X23129Y22429D3*
G1X23129Y22173D3*
G1X20766Y22173D3*
G1X20766Y22429D3*
G1X20766Y22685D3*
G1X20766Y22941D3*
G1X20766Y23197D3*
G1X20766Y23453D3*
G1X20766Y23709D3*
G54D76*
G1X13719Y21091D3*
G54D77*
G1X10963Y15854D3*
G1X10963Y15540D3*
G1X10963Y15225D3*
G1X10963Y14910D3*
G1X10963Y14595D3*
G1X9388Y14595D3*
G1X9388Y14910D3*
G1X9388Y15225D3*
G1X9388Y15540D3*
G1X9388Y15854D3*
G1X13892Y15854D3*
G1X13892Y15540D3*
G1X13892Y15225D3*
G1X13892Y14910D3*
G1X13892Y14595D3*
G1X12317Y14595D3*
G1X12317Y14910D3*
G1X12317Y15225D3*
G1X12317Y15540D3*
G1X12317Y15854D3*
G1X16892Y15854D3*
G1X16892Y15540D3*
G1X16892Y15225D3*
G1X16892Y14910D3*
G1X16892Y14595D3*
G1X15317Y14595D3*
G1X15317Y14910D3*
G1X15317Y15225D3*
G1X15317Y15540D3*
G1X15317Y15854D3*
G1X21436Y15835D3*
G1X21436Y15520D3*
G1X21436Y15205D3*
G1X21436Y14890D3*
G1X21436Y14575D3*
G1X19861Y14575D3*
G1X19861Y14890D3*
G1X19861Y15205D3*
G1X19861Y15520D3*
G1X19861Y15835D3*
G1X24428Y15795D3*
G1X24428Y15480D3*
G1X24428Y15166D3*
G1X24428Y14851D3*
G1X24428Y14536D3*
G1X22853Y14536D3*
G1X22853Y14851D3*
G1X22853Y15166D3*
G1X22853Y15480D3*
G1X22853Y15795D3*
G1X27420Y15815D3*
G1X27420Y15500D3*
G1X27420Y15185D3*
G1X27420Y14870D3*
G1X27420Y14555D3*
G1X25845Y14555D3*
G1X25845Y14870D3*
G1X25845Y15185D3*
G1X25845Y15500D3*
G1X25845Y15815D3*
G1X30740Y10092D2*
G54D11*
G1X53575Y10092D1*
G1X53575Y26627D1*
G1X30740Y26627D1*
G1X30740Y10092D1*
G1X40110Y23122D2*
G54D14*
G1X40110Y23406D1*
G1X39808Y23406D1*
G1X39808Y23122D1*
G1X40110Y23122D1*
G1X40110Y22522D2*
G1X40110Y22806D1*
G1X39808Y22806D1*
G1X39808Y22522D1*
G1X40110Y22522D1*
G1X39460Y23122D2*
G1X39460Y23406D1*
G1X39158Y23406D1*
G1X39158Y23122D1*
G1X39460Y23122D1*
G1X39460Y22522D2*
G1X39460Y22806D1*
G1X39158Y22806D1*
G1X39158Y22522D1*
G1X39460Y22522D1*
G1X45410Y23122D2*
G1X45410Y23406D1*
G1X45108Y23406D1*
G1X45108Y23122D1*
G1X45410Y23122D1*
G1X46060Y23122D2*
G1X46060Y23406D1*
G1X45758Y23406D1*
G1X45758Y23122D1*
G1X46060Y23122D1*
G1X46060Y22522D2*
G1X46060Y22806D1*
G1X45758Y22806D1*
G1X45758Y22522D1*
G1X46060Y22522D1*
G1X45410Y22522D2*
G1X45410Y22806D1*
G1X45108Y22806D1*
G1X45108Y22522D1*
G1X45410Y22522D1*
G1X34110Y15372D2*
G1X34110Y15556D1*
G1X33908Y15556D1*
G1X33908Y15372D1*
G1X34110Y15372D1*
G1X34110Y14872D2*
G1X34110Y15056D1*
G1X33908Y15056D1*
G1X33908Y14872D1*
G1X34110Y14872D1*
G1X33660Y15372D2*
G1X33660Y15556D1*
G1X33458Y15556D1*
G1X33458Y15372D1*
G1X33660Y15372D1*
G1X33660Y14872D2*
G1X33660Y15056D1*
G1X33458Y15056D1*
G1X33458Y14872D1*
G1X33660Y14872D1*
G1X36610Y15372D2*
G1X36610Y15556D1*
G1X36408Y15556D1*
G1X36408Y15372D1*
G1X36610Y15372D1*
G1X36610Y14872D2*
G1X36610Y15056D1*
G1X36408Y15056D1*
G1X36408Y14872D1*
G1X36610Y14872D1*
G1X37060Y14872D2*
G1X37060Y15056D1*
G1X36858Y15056D1*
G1X36858Y14872D1*
G1X37060Y14872D1*
G1X37060Y15372D2*
G1X37060Y15556D1*
G1X36858Y15556D1*
G1X36858Y15372D1*
G1X37060Y15372D1*
G1X39610Y15372D2*
G1X39610Y15556D1*
G1X39408Y15556D1*
G1X39408Y15372D1*
G1X39610Y15372D1*
G1X39610Y14872D2*
G1X39610Y15056D1*
G1X39408Y15056D1*
G1X39408Y14872D1*
G1X39610Y14872D1*
G1X40060Y14872D2*
G1X40060Y15056D1*
G1X39858Y15056D1*
G1X39858Y14872D1*
G1X40060Y14872D1*
G1X40060Y15372D2*
G1X40060Y15556D1*
G1X39858Y15556D1*
G1X39858Y15372D1*
G1X40060Y15372D1*
G1X44160Y15372D2*
G1X44160Y15556D1*
G1X43958Y15556D1*
G1X43958Y15372D1*
G1X44160Y15372D1*
G1X44160Y14872D2*
G1X44160Y15056D1*
G1X43958Y15056D1*
G1X43958Y14872D1*
G1X44160Y14872D1*
G1X44610Y14872D2*
G1X44610Y15056D1*
G1X44408Y15056D1*
G1X44408Y14872D1*
G1X44610Y14872D1*
G1X44610Y15372D2*
G1X44610Y15556D1*
G1X44408Y15556D1*
G1X44408Y15372D1*
G1X44610Y15372D1*
G1X47110Y15372D2*
G1X47110Y15556D1*
G1X46908Y15556D1*
G1X46908Y15372D1*
G1X47110Y15372D1*
G1X47110Y14872D2*
G1X47110Y15056D1*
G1X46908Y15056D1*
G1X46908Y14872D1*
G1X47110Y14872D1*
G1X47560Y14872D2*
G1X47560Y15056D1*
G1X47358Y15056D1*
G1X47358Y14872D1*
G1X47560Y14872D1*
G1X47560Y15372D2*
G1X47560Y15556D1*
G1X47358Y15556D1*
G1X47358Y15372D1*
G1X47560Y15372D1*
G1X50110Y15372D2*
G1X50110Y15556D1*
G1X49908Y15556D1*
G1X49908Y15372D1*
G1X50110Y15372D1*
G1X50110Y14872D2*
G1X50110Y15056D1*
G1X49908Y15056D1*
G1X49908Y14872D1*
G1X50110Y14872D1*
G1X50560Y14872D2*
G1X50560Y15056D1*
G1X50358Y15056D1*
G1X50358Y14872D1*
G1X50560Y14872D1*
G1X50560Y15372D2*
G1X50560Y15556D1*
G1X50358Y15556D1*
G1X50358Y15372D1*
G1X50560Y15372D1*
G1X39881Y23122D2*
G1X40110Y23351D1*
G1X39958Y23122D2*
G1X40110Y23274D1*
G1X40034Y23122D2*
G1X40110Y23198D1*
G1X39808Y23125D2*
G1X40089Y23406D1*
G1X39808Y23202D2*
G1X40012Y23406D1*
G1X39808Y23278D2*
G1X39936Y23406D1*
G1X39808Y23354D2*
G1X39860Y23406D1*
G1X39881Y22522D2*
G1X40110Y22751D1*
G1X39958Y22522D2*
G1X40110Y22674D1*
G1X40034Y22522D2*
G1X40110Y22598D1*
G1X39808Y22525D2*
G1X40089Y22806D1*
G1X39808Y22602D2*
G1X40012Y22806D1*
G1X39808Y22678D2*
G1X39936Y22806D1*
G1X39808Y22754D2*
G1X39860Y22806D1*
G1X39231Y23122D2*
G1X39460Y23351D1*
G1X39308Y23122D2*
G1X39460Y23274D1*
G1X39384Y23122D2*
G1X39460Y23198D1*
G1X39158Y23125D2*
G1X39439Y23406D1*
G1X39158Y23202D2*
G1X39362Y23406D1*
G1X39158Y23278D2*
G1X39286Y23406D1*
G1X39158Y23354D2*
G1X39210Y23406D1*
G1X39231Y22522D2*
G1X39460Y22751D1*
G1X39308Y22522D2*
G1X39460Y22674D1*
G1X39384Y22522D2*
G1X39460Y22598D1*
G1X39158Y22525D2*
G1X39439Y22806D1*
G1X39158Y22602D2*
G1X39362Y22806D1*
G1X39158Y22678D2*
G1X39286Y22806D1*
G1X39158Y22754D2*
G1X39210Y22806D1*
G1X45181Y23122D2*
G1X45410Y23351D1*
G1X45258Y23122D2*
G1X45410Y23274D1*
G1X45334Y23122D2*
G1X45410Y23198D1*
G1X45108Y23125D2*
G1X45389Y23406D1*
G1X45108Y23202D2*
G1X45312Y23406D1*
G1X45108Y23278D2*
G1X45236Y23406D1*
G1X45108Y23354D2*
G1X45160Y23406D1*
G1X45831Y23122D2*
G1X46060Y23351D1*
G1X45908Y23122D2*
G1X46060Y23274D1*
G1X45984Y23122D2*
G1X46060Y23198D1*
G1X45758Y23125D2*
G1X46039Y23406D1*
G1X45758Y23202D2*
G1X45962Y23406D1*
G1X45758Y23278D2*
G1X45886Y23406D1*
G1X45758Y23354D2*
G1X45810Y23406D1*
G1X45831Y22522D2*
G1X46060Y22751D1*
G1X45908Y22522D2*
G1X46060Y22674D1*
G1X45984Y22522D2*
G1X46060Y22598D1*
G1X45758Y22525D2*
G1X46039Y22806D1*
G1X45758Y22602D2*
G1X45962Y22806D1*
G1X45758Y22678D2*
G1X45886Y22806D1*
G1X45758Y22754D2*
G1X45810Y22806D1*
G1X45181Y22522D2*
G1X45410Y22751D1*
G1X45258Y22522D2*
G1X45410Y22674D1*
G1X45334Y22522D2*
G1X45410Y22598D1*
G1X45108Y22525D2*
G1X45389Y22806D1*
G1X45108Y22602D2*
G1X45312Y22806D1*
G1X45108Y22678D2*
G1X45236Y22806D1*
G1X45108Y22754D2*
G1X45160Y22806D1*
G1X33958Y15372D2*
G1X34110Y15524D1*
G1X34034Y15372D2*
G1X34110Y15448D1*
G1X33908Y15399D2*
G1X34065Y15556D1*
G1X33908Y15475D2*
G1X33989Y15556D1*
G1X33908Y15552D2*
G1X33912Y15556D1*
G1X33958Y14872D2*
G1X34110Y15024D1*
G1X34034Y14872D2*
G1X34110Y14948D1*
G1X33908Y14899D2*
G1X34065Y15056D1*
G1X33908Y14975D2*
G1X33989Y15056D1*
G1X33908Y15052D2*
G1X33912Y15056D1*
G1X33508Y15372D2*
G1X33660Y15524D1*
G1X33584Y15372D2*
G1X33660Y15448D1*
G1X33458Y15399D2*
G1X33615Y15556D1*
G1X33458Y15475D2*
G1X33539Y15556D1*
G1X33458Y15552D2*
G1X33462Y15556D1*
G1X33508Y14872D2*
G1X33660Y15024D1*
G1X33584Y14872D2*
G1X33660Y14948D1*
G1X33458Y14899D2*
G1X33615Y15056D1*
G1X33458Y14975D2*
G1X33539Y15056D1*
G1X33458Y15052D2*
G1X33462Y15056D1*
G1X36458Y15372D2*
G1X36610Y15524D1*
G1X36534Y15372D2*
G1X36610Y15448D1*
G1X36408Y15399D2*
G1X36565Y15556D1*
G1X36408Y15475D2*
G1X36489Y15556D1*
G1X36408Y15552D2*
G1X36412Y15556D1*
G1X36458Y14872D2*
G1X36610Y15024D1*
G1X36534Y14872D2*
G1X36610Y14948D1*
G1X36408Y14899D2*
G1X36565Y15056D1*
G1X36408Y14975D2*
G1X36489Y15056D1*
G1X36408Y15052D2*
G1X36412Y15056D1*
G1X36908Y14872D2*
G1X37060Y15024D1*
G1X36984Y14872D2*
G1X37060Y14948D1*
G1X36858Y14899D2*
G1X37015Y15056D1*
G1X36858Y14975D2*
G1X36939Y15056D1*
G1X36858Y15052D2*
G1X36862Y15056D1*
G1X36908Y15372D2*
G1X37060Y15524D1*
G1X36984Y15372D2*
G1X37060Y15448D1*
G1X36858Y15399D2*
G1X37015Y15556D1*
G1X36858Y15475D2*
G1X36939Y15556D1*
G1X36858Y15552D2*
G1X36862Y15556D1*
G1X39458Y15372D2*
G1X39610Y15524D1*
G1X39534Y15372D2*
G1X39610Y15448D1*
G1X39408Y15399D2*
G1X39565Y15556D1*
G1X39408Y15475D2*
G1X39489Y15556D1*
G1X39408Y15552D2*
G1X39412Y15556D1*
G1X39458Y14872D2*
G1X39610Y15024D1*
G1X39534Y14872D2*
G1X39610Y14948D1*
G1X39408Y14899D2*
G1X39565Y15056D1*
G1X39408Y14975D2*
G1X39489Y15056D1*
G1X39408Y15052D2*
G1X39412Y15056D1*
G1X39908Y14872D2*
G1X40060Y15024D1*
G1X39984Y14872D2*
G1X40060Y14948D1*
G1X39858Y14899D2*
G1X40015Y15056D1*
G1X39858Y14975D2*
G1X39939Y15056D1*
G1X39858Y15052D2*
G1X39862Y15056D1*
G1X39908Y15372D2*
G1X40060Y15524D1*
G1X39984Y15372D2*
G1X40060Y15448D1*
G1X39858Y15399D2*
G1X40015Y15556D1*
G1X39858Y15475D2*
G1X39939Y15556D1*
G1X39858Y15552D2*
G1X39862Y15556D1*
G1X44008Y15372D2*
G1X44160Y15524D1*
G1X44084Y15372D2*
G1X44160Y15448D1*
G1X43958Y15399D2*
G1X44115Y15556D1*
G1X43958Y15475D2*
G1X44039Y15556D1*
G1X43958Y15552D2*
G1X43962Y15556D1*
G1X44008Y14872D2*
G1X44160Y15024D1*
G1X44084Y14872D2*
G1X44160Y14948D1*
G1X43958Y14899D2*
G1X44115Y15056D1*
G1X43958Y14975D2*
G1X44039Y15056D1*
G1X43958Y15052D2*
G1X43962Y15056D1*
G1X44458Y14872D2*
G1X44610Y15024D1*
G1X44534Y14872D2*
G1X44610Y14948D1*
G1X44408Y14899D2*
G1X44565Y15056D1*
G1X44408Y14975D2*
G1X44489Y15056D1*
G1X44408Y15052D2*
G1X44412Y15056D1*
G1X44458Y15372D2*
G1X44610Y15524D1*
G1X44534Y15372D2*
G1X44610Y15448D1*
G1X44408Y15399D2*
G1X44565Y15556D1*
G1X44408Y15475D2*
G1X44489Y15556D1*
G1X44408Y15552D2*
G1X44412Y15556D1*
G1X46958Y15372D2*
G1X47110Y15524D1*
G1X47034Y15372D2*
G1X47110Y15448D1*
G1X46908Y15399D2*
G1X47065Y15556D1*
G1X46908Y15475D2*
G1X46989Y15556D1*
G1X46908Y15552D2*
G1X46912Y15556D1*
G1X46958Y14872D2*
G1X47110Y15024D1*
G1X47034Y14872D2*
G1X47110Y14948D1*
G1X46908Y14899D2*
G1X47065Y15056D1*
G1X46908Y14975D2*
G1X46989Y15056D1*
G1X46908Y15052D2*
G1X46912Y15056D1*
G1X47408Y14872D2*
G1X47560Y15024D1*
G1X47484Y14872D2*
G1X47560Y14948D1*
G1X47358Y14899D2*
G1X47515Y15056D1*
G1X47358Y14975D2*
G1X47439Y15056D1*
G1X47358Y15052D2*
G1X47362Y15056D1*
G1X47408Y15372D2*
G1X47560Y15524D1*
G1X47484Y15372D2*
G1X47560Y15448D1*
G1X47358Y15399D2*
G1X47515Y15556D1*
G1X47358Y15475D2*
G1X47439Y15556D1*
G1X47358Y15552D2*
G1X47362Y15556D1*
G1X49958Y15372D2*
G1X50110Y15524D1*
G1X50034Y15372D2*
G1X50110Y15448D1*
G1X49908Y15399D2*
G1X50065Y15556D1*
G1X49908Y15475D2*
G1X49989Y15556D1*
G1X49908Y15552D2*
G1X49912Y15556D1*
G1X49958Y14872D2*
G1X50110Y15024D1*
G1X50034Y14872D2*
G1X50110Y14948D1*
G1X49908Y14899D2*
G1X50065Y15056D1*
G1X49908Y14975D2*
G1X49989Y15056D1*
G1X49908Y15052D2*
G1X49912Y15056D1*
G1X50408Y14872D2*
G1X50560Y15024D1*
G1X50484Y14872D2*
G1X50560Y14948D1*
G1X50358Y14899D2*
G1X50515Y15056D1*
G1X50358Y14975D2*
G1X50439Y15056D1*
G1X50358Y15052D2*
G1X50362Y15056D1*
G1X50408Y15372D2*
G1X50560Y15524D1*
G1X50484Y15372D2*
G1X50560Y15448D1*
G1X50358Y15399D2*
G1X50515Y15556D1*
G1X50358Y15475D2*
G1X50439Y15556D1*
G1X50358Y15552D2*
G1X50362Y15556D1*
G54D27*
G1X38654Y25722D3*
G1X38969Y25722D3*
G1X38949Y26253D3*
G1X38634Y26253D3*
G54D28*
G1X32925Y23435D3*
G1X32925Y23915D3*
G1X51429Y23415D3*
G1X51429Y23895D3*
G1X42472Y22057D3*
G1X42472Y22537D3*
G1X43791Y22450D3*
G1X43791Y22930D3*
G1X35327Y15430D3*
G1X35327Y14950D3*
G1X38299Y15430D3*
G1X38299Y14950D3*
G1X41232Y15430D3*
G1X41232Y14950D3*
G1X45878Y15430D3*
G1X45878Y14950D3*
G1X48831Y15430D3*
G1X48831Y14950D3*
G1X51803Y15411D3*
G1X51803Y14931D3*
G1X41272Y20501D3*
G1X41272Y20981D3*
G1X41272Y19596D3*
G1X41272Y20076D3*
G1X37925Y22470D3*
G1X37925Y22950D3*
G1X36528Y22470D3*
G1X36528Y22950D3*
G54D29*
G1X32827Y25072D3*
G1X52945Y12159D3*
G1X31488Y12415D3*
G54D32*
G1X34343Y20387D3*
G1X33988Y20387D3*
G1X34402Y21883D3*
G1X34047Y21883D3*
G1X34382Y21371D3*
G1X34028Y21371D3*
G1X33949Y19757D3*
G1X33595Y19757D3*
G1X33969Y22769D3*
G1X33614Y22769D3*
G1X33595Y20879D3*
G1X33240Y20879D3*
G1X33595Y21371D3*
G1X33240Y21371D3*
G1X33595Y21883D3*
G1X33240Y21883D3*
G1X33595Y22356D3*
G1X33240Y22356D3*
G1X33969Y23320D3*
G1X33614Y23320D3*
G1X34402Y22316D3*
G1X34047Y22316D3*
G1X34461Y20978D3*
G1X34106Y20978D3*
G1X33240Y20387D3*
G1X33595Y20387D3*
G1X49953Y22356D3*
G1X50307Y22356D3*
G1X49953Y20879D3*
G1X50307Y20879D3*
G1X51095Y20367D3*
G1X50740Y20367D3*
G1X50386Y22808D3*
G1X50740Y22808D3*
G1X49618Y21864D3*
G1X49264Y21864D3*
G1X50740Y22375D3*
G1X51095Y22375D3*
G1X50740Y20879D3*
G1X51095Y20879D3*
G1X50740Y21371D3*
G1X51095Y21371D3*
G1X50740Y21883D3*
G1X51095Y21883D3*
G1X50307Y20367D3*
G1X49953Y20367D3*
G1X50307Y21371D3*
G1X49953Y21371D3*
G1X50307Y21864D3*
G1X49953Y21864D3*
G1X50740Y23241D3*
G1X50386Y23241D3*
G1X35110Y21883D3*
G1X34756Y21883D3*
G1X35110Y21371D3*
G1X34756Y21371D3*
G1X49618Y21371D3*
G1X49264Y21371D3*
G1X40740Y25308D3*
G1X40740Y25663D3*
G1X38575Y21037D3*
G1X38575Y21391D3*
G1X38575Y20663D3*
G1X38575Y20308D3*
G1X37925Y21352D3*
G1X37925Y21706D3*
G1X39402Y20308D3*
G1X39402Y20663D3*
G1X39402Y19934D3*
G1X39402Y19580D3*
G1X44343Y21391D3*
G1X44343Y21037D3*
G1X43299Y21647D3*
G1X43654Y21647D3*
G1X39972Y20328D3*
G1X39972Y20682D3*
G1X45307Y20486D3*
G1X45307Y20840D3*
G1X44559Y19797D3*
G1X44559Y20151D3*
G1X46232Y20781D3*
G1X45878Y20781D3*
G1X45307Y19974D3*
G1X45307Y19619D3*
G1X37689Y23438D3*
G1X38043Y23438D3*
G1X43201Y23576D3*
G1X43555Y23576D3*
G1X35681Y22434D3*
G1X35327Y22434D3*
G1X41783Y23340D3*
G1X41429Y23340D3*
G1X40307Y21332D3*
G1X39953Y21332D3*
G1X46232Y21273D3*
G1X45878Y21273D3*
G1X47667Y23200D3*
G1X47313Y23200D3*
G1X35780Y24147D3*
G1X36134Y24147D3*
G1X35307Y24147D3*
G1X34953Y24147D3*
G1X48139Y25838D3*
G1X48494Y25838D3*
G1X47571Y25820D3*
G1X47217Y25820D3*
G1X42984Y22139D3*
G1X43339Y22139D3*
G1X42965Y22533D3*
G1X43319Y22533D3*
G1X35071Y16214D3*
G1X35071Y15860D3*
G1X38024Y16194D3*
G1X38024Y15840D3*
G1X41055Y16214D3*
G1X41055Y15860D3*
G1X36114Y22021D3*
G1X35760Y22021D3*
G1X35228Y19088D3*
G1X35583Y19088D3*
G1X36331Y20210D3*
G1X36685Y20210D3*
G1X35228Y19482D3*
G1X35583Y19482D3*
G1X35602Y20210D3*
G1X35957Y20210D3*
G1X35602Y19836D3*
G1X35957Y19836D3*
G1X35209Y18694D3*
G1X35563Y18694D3*
G1X36331Y19836D3*
G1X36685Y19836D3*
G1X47886Y19954D3*
G1X48240Y19954D3*
G1X38102Y24659D3*
G1X38102Y25013D3*
G1X38083Y23930D3*
G1X38083Y24285D3*
G1X43240Y23950D3*
G1X43240Y24304D3*
G1X43280Y24698D3*
G1X43280Y25053D3*
G1X37374Y25072D3*
G1X37374Y24718D3*
G1X37728Y24659D3*
G1X37728Y25013D3*
G1X37020Y24265D3*
G1X37020Y23911D3*
G1X37728Y23930D3*
G1X37728Y24285D3*
G1X42512Y24304D3*
G1X42512Y23950D3*
G1X43614Y23950D3*
G1X43614Y24304D3*
G1X44047Y25053D3*
G1X44047Y24698D3*
G1X42886Y24698D3*
G1X42886Y25053D3*
G1X38476Y24659D3*
G1X38476Y25013D3*
G1X37394Y23930D3*
G1X37394Y24285D3*
G1X42886Y23950D3*
G1X42886Y24304D3*
G1X43634Y24698D3*
G1X43634Y25053D3*
G1X51862Y15820D3*
G1X51508Y15820D3*
G1X45878Y15840D3*
G1X45524Y15840D3*
G1X48240Y19206D3*
G1X47886Y19206D3*
G1X47650Y21804D3*
G1X47295Y21804D3*
G1X47138Y19580D3*
G1X47492Y19580D3*
G1X47886Y18812D3*
G1X48240Y18812D3*
G1X47138Y19186D3*
G1X47492Y19186D3*
G1X47886Y19580D3*
G1X48240Y19580D3*
G1X47138Y19954D3*
G1X47492Y19954D3*
G1X48043Y24068D3*
G1X47689Y24068D3*
G1X41980Y21706D3*
G1X41626Y21706D3*
G1X42768Y19934D3*
G1X42413Y19934D3*
G1X43772Y20820D3*
G1X43772Y20466D3*
G1X43378Y20466D3*
G1X43378Y20820D3*
G1X41626Y22041D3*
G1X41980Y22041D3*
G1X48890Y15801D3*
G1X48535Y15801D3*
G1X37000Y22946D3*
G1X37354Y22946D3*
G54D33*
G1X43463Y25604D3*
G1X42703Y25604D3*
G54D34*
G1X49047Y19948D3*
G1X49047Y20708D3*
G54D35*
G1X50622Y19029D3*
G54D37*
G1X42481Y14041D3*
G1X41961Y15981D3*
G54D38*
G1X41711Y13689D3*
G1X42731Y16333D3*
G54D50*
G1X42689Y23281D3*
G1X48850Y22336D3*
G1X48417Y22927D3*
G1X36528Y23675D3*
G1X34402Y22769D3*
G1X41744Y22848D3*
G1X34500Y19482D3*
G1X37335Y21056D3*
G1X43280Y22986D3*
G1X41114Y21588D3*
G1X50799Y23911D3*
G1X42000Y19344D3*
G1X40346Y25013D3*
G1X37354Y22454D3*
G54D51*
G1X51606Y22838D3*
G1X51606Y22346D3*
G1X51606Y21854D3*
G1X51606Y21362D3*
G1X51606Y20869D3*
G1X51606Y20377D3*
G1X51606Y19885D3*
G1X32709Y19885D3*
G1X32709Y20377D3*
G1X32709Y20869D3*
G1X32709Y21362D3*
G1X32709Y21854D3*
G1X32709Y22346D3*
G1X32709Y22838D3*
G54D52*
G1X52748Y18881D3*
G1X52748Y23842D3*
G1X31567Y23842D3*
G1X31567Y18881D3*
G54D68*
G1X38964Y12842D3*
G1X39464Y12842D3*
G1X39964Y12842D3*
G1X40464Y12842D3*
G1X40464Y10842D3*
G1X39964Y10842D3*
G1X39464Y10842D3*
G1X38964Y10842D3*
G1X50008Y12842D3*
G1X50508Y12842D3*
G1X51008Y12842D3*
G1X51508Y12842D3*
G1X51508Y10842D3*
G1X51008Y10842D3*
G1X50508Y10842D3*
G1X50008Y10842D3*
G1X32884Y12804D3*
G1X33384Y12804D3*
G1X33884Y12804D3*
G1X34384Y12804D3*
G1X34384Y10804D3*
G1X33884Y10804D3*
G1X33384Y10804D3*
G1X32884Y10804D3*
G1X44023Y12842D3*
G1X44523Y12842D3*
G1X45023Y12842D3*
G1X45523Y12842D3*
G1X45523Y10842D3*
G1X45023Y10842D3*
G1X44523Y10842D3*
G1X44023Y10842D3*
G54D69*
G1X35937Y22934D3*
G1X35681Y22934D3*
G1X35425Y22934D3*
G1X35169Y22934D3*
G1X35169Y23627D3*
G1X35425Y23627D3*
G1X35681Y23627D3*
G1X35937Y23627D3*
G1X48224Y24562D3*
G1X47968Y24562D3*
G1X47712Y24562D3*
G1X47456Y24562D3*
G1X47456Y25254D3*
G1X47712Y25254D3*
G1X47968Y25254D3*
G1X48224Y25254D3*
G54D70*
G1X35780Y24738D3*
G1X35780Y25722D3*
G1X33811Y25722D3*
G1X33811Y24738D3*
G1X49185Y25919D3*
G1X49185Y24934D3*
G1X51154Y24934D3*
G1X51154Y25919D3*
G54D71*
G1X36584Y21495D3*
G1X36584Y21115D3*
G1X36584Y20735D3*
G1X35714Y20735D3*
G1X35714Y21495D3*
G1X48080Y21279D3*
G1X48080Y20899D3*
G1X48080Y20519D3*
G1X47210Y20519D3*
G1X47210Y21279D3*
G1X42003Y20460D3*
G1X42003Y20840D3*
G1X42003Y21220D3*
G1X42873Y21220D3*
G1X42873Y20460D3*
G54D72*
G1X41843Y25584D3*
G1X41843Y24757D3*
G1X41209Y24757D3*
G1X41201Y25584D3*
G54D73*
G1X38890Y24147D3*
G1X39146Y24147D3*
G1X39402Y24147D3*
G1X39658Y24147D3*
G1X39913Y24147D3*
G1X40169Y24147D3*
G1X40425Y24147D3*
G1X40425Y21785D3*
G1X40169Y21785D3*
G1X39913Y21785D3*
G1X39658Y21785D3*
G1X39402Y21785D3*
G1X39146Y21785D3*
G1X38890Y21785D3*
G1X44795Y24127D3*
G1X45051Y24127D3*
G1X45307Y24127D3*
G1X45563Y24127D3*
G1X45819Y24127D3*
G1X46075Y24127D3*
G1X46331Y24127D3*
G1X46331Y21765D3*
G1X46075Y21765D3*
G1X45819Y21765D3*
G1X45563Y21765D3*
G1X45307Y21765D3*
G1X45051Y21765D3*
G1X44795Y21765D3*
G54D74*
G1X40839Y23734D3*
G1X40839Y23478D3*
G1X40839Y23222D3*
G1X40839Y22966D3*
G1X40839Y22710D3*
G1X40839Y22454D3*
G1X40839Y22198D3*
G1X38476Y22198D3*
G1X38476Y22454D3*
G1X38476Y22710D3*
G1X38476Y22966D3*
G1X38476Y23222D3*
G1X38476Y23478D3*
G1X38476Y23734D3*
G1X46744Y23714D3*
G1X46744Y23458D3*
G1X46744Y23202D3*
G1X46744Y22946D3*
G1X46744Y22690D3*
G1X46744Y22434D3*
G1X46744Y22178D3*
G1X44382Y22178D3*
G1X44382Y22434D3*
G1X44382Y22690D3*
G1X44382Y22946D3*
G1X44382Y23202D3*
G1X44382Y23458D3*
G1X44382Y23714D3*
G54D76*
G1X37335Y21096D3*
G54D77*
G1X34579Y15860D3*
G1X34579Y15545D3*
G1X34579Y15230D3*
G1X34579Y14915D3*
G1X34579Y14600D3*
G1X33004Y14600D3*
G1X33004Y14915D3*
G1X33004Y15230D3*
G1X33004Y15545D3*
G1X33004Y15860D3*
G1X37508Y15860D3*
G1X37508Y15545D3*
G1X37508Y15230D3*
G1X37508Y14915D3*
G1X37508Y14600D3*
G1X35933Y14600D3*
G1X35933Y14915D3*
G1X35933Y15230D3*
G1X35933Y15545D3*
G1X35933Y15860D3*
G1X40508Y15860D3*
G1X40508Y15545D3*
G1X40508Y15230D3*
G1X40508Y14915D3*
G1X40508Y14600D3*
G1X38933Y14600D3*
G1X38933Y14915D3*
G1X38933Y15230D3*
G1X38933Y15545D3*
G1X38933Y15860D3*
G1X45051Y15840D3*
G1X45051Y15525D3*
G1X45051Y15210D3*
G1X45051Y14895D3*
G1X45051Y14580D3*
G1X43476Y14580D3*
G1X43476Y14895D3*
G1X43476Y15210D3*
G1X43476Y15525D3*
G1X43476Y15840D3*
G1X48043Y15801D3*
G1X48043Y15486D3*
G1X48043Y15171D3*
G1X48043Y14856D3*
G1X48043Y14541D3*
G1X46469Y14541D3*
G1X46469Y14856D3*
G1X46469Y15171D3*
G1X46469Y15486D3*
G1X46469Y15801D3*
G1X51035Y15820D3*
G1X51035Y15505D3*
G1X51035Y15190D3*
G1X51035Y14875D3*
G1X51035Y14560D3*
G1X49461Y14560D3*
G1X49461Y14875D3*
G1X49461Y15190D3*
G1X49461Y15505D3*
G1X49461Y15820D3*
G1X43687Y31808D2*
G54D11*
G1X43687Y31152D1*
G1X43687Y31808D2*
G1X43482Y31808D1*
G1X43414Y31777D1*
G1X43391Y31746D1*
G1X43369Y31683D1*
G1X43369Y31589D1*
G1X43391Y31527D1*
G1X43414Y31496D1*
G1X43482Y31464D1*
G1X43687Y31464D1*
G1X42982Y31808D2*
G1X43164Y31152D1*
G1X42982Y31808D2*
G1X42800Y31152D1*
G1X43096Y31371D2*
G1X42869Y31371D1*
G1X42278Y31714D2*
G1X42323Y31777D1*
G1X42391Y31808D1*
G1X42482Y31808D1*
G1X42550Y31777D1*
G1X42596Y31714D1*
G1X42596Y31652D1*
G1X42573Y31589D1*
G1X42550Y31558D1*
G1X42505Y31527D1*
G1X42369Y31464D1*
G1X42323Y31433D1*
G1X42300Y31402D1*
G1X42278Y31339D1*
G1X42278Y31246D1*
G1X42323Y31183D1*
G1X42391Y31152D1*
G1X42482Y31152D1*
G1X42550Y31183D1*
G1X42596Y31246D1*
G1X41914Y31808D2*
G1X41914Y31152D1*
G1X42073Y31808D2*
G1X41755Y31808D1*
G1X41550Y31808D2*
G1X41550Y31152D1*
G1X41550Y31808D2*
G1X41255Y31808D1*
G1X41550Y31496D2*
G1X41369Y31496D1*
G1X41550Y31152D2*
G1X41255Y31152D1*
G1X40528Y31808D2*
G1X40528Y31152D1*
G1X40528Y31808D2*
G1X40346Y31152D1*
G1X40164Y31808D1*
G1X40164Y31152D1*
G1X39778Y31808D2*
G1X39959Y31152D1*
G1X39778Y31808D2*
G1X39596Y31152D1*
G1X39891Y31371D2*
G1X39664Y31371D1*
G1X39073Y31714D2*
G1X39119Y31777D1*
G1X39187Y31808D1*
G1X39278Y31808D1*
G1X39346Y31777D1*
G1X39391Y31714D1*
G1X39391Y31652D1*
G1X39369Y31589D1*
G1X39346Y31558D1*
G1X39300Y31527D1*
G1X39164Y31464D1*
G1X39119Y31433D1*
G1X39096Y31402D1*
G1X39073Y31339D1*
G1X39073Y31246D1*
G1X39119Y31183D1*
G1X39187Y31152D1*
G1X39278Y31152D1*
G1X39346Y31183D1*
G1X39391Y31246D1*
G1X38869Y31808D2*
G1X38869Y31152D1*
G1X38550Y31808D2*
G1X38869Y31371D1*
G1X38755Y31527D2*
G1X38550Y31152D1*
G1X37823Y31808D2*
G1X37823Y31152D1*
G1X37823Y31808D2*
G1X37619Y31808D1*
G1X37550Y31777D1*
G1X37528Y31746D1*
G1X37505Y31683D1*
G1X37505Y31621D1*
G1X37528Y31558D1*
G1X37550Y31527D1*
G1X37619Y31496D1*
G1X37823Y31496D1*
G1X37619Y31496D2*
G1X37550Y31464D1*
G1X37528Y31433D1*
G1X37505Y31371D1*
G1X37505Y31277D1*
G1X37528Y31214D1*
G1X37550Y31183D1*
G1X37619Y31152D1*
G1X37823Y31152D1*
G1X37164Y31808D2*
G1X37209Y31777D1*
G1X37255Y31714D1*
G1X37278Y31652D1*
G1X37300Y31558D1*
G1X37300Y31402D1*
G1X37278Y31308D1*
G1X37255Y31246D1*
G1X37209Y31183D1*
G1X37164Y31152D1*
G1X37073Y31152D1*
G1X37028Y31183D1*
G1X36982Y31246D1*
G1X36959Y31308D1*
G1X36937Y31402D1*
G1X36937Y31558D1*
G1X36959Y31652D1*
G1X36982Y31714D1*
G1X37028Y31777D1*
G1X37073Y31808D1*
G1X37164Y31808D1*
G1X36573Y31808D2*
G1X36573Y31152D1*
G1X36732Y31808D2*
G1X36414Y31808D1*
G1X36050Y31808D2*
G1X36050Y31152D1*
G1X36209Y31808D2*
G1X35891Y31808D1*
G1X35550Y31808D2*
G1X35596Y31777D1*
G1X35641Y31714D1*
G1X35664Y31652D1*
G1X35687Y31558D1*
G1X35687Y31402D1*
G1X35664Y31308D1*
G1X35641Y31246D1*
G1X35596Y31183D1*
G1X35550Y31152D1*
G1X35459Y31152D1*
G1X35414Y31183D1*
G1X35369Y31246D1*
G1X35346Y31308D1*
G1X35323Y31402D1*
G1X35323Y31558D1*
G1X35346Y31652D1*
G1X35369Y31714D1*
G1X35414Y31777D1*
G1X35459Y31808D1*
G1X35550Y31808D1*
G1X35119Y31808D2*
G1X35119Y31152D1*
G1X35119Y31808D2*
G1X34937Y31152D1*
G1X34755Y31808D1*
G1X34755Y31152D1*
M2*
