*
G04 Mass Parameters ***
*
G04 Image ***
*
%INC:\DOCUMENTS AND SETTINGS\ADMINISTRATOR\DOCUMENTI\LAVORI_ORCAD\CLIENTI_MARCO\BDC_V0\BDC.BOT*%
%ICAS*%
%MOIN*%
%IPPOS*%
%ASAXBY*%
G74*%FSLAN2X34Y34*%
*
G04 Aperture Definitions ***
*
%ADD10R,0.0870X0.1690*%
%ADD11R,0.0550X0.0340*%
%ADD12R,0.0640X0.1000*%
%ADD13R,0.1200X0.1000*%
%ADD14R,0.0900X0.1000*%
%ADD15R,0.0490X0.0790*%
%ADD16R,0.1460X0.1020*%
%ADD17R,0.0320X0.0320*%
%ADD18R,0.1100X0.0290*%
%ADD19C,0.1000*%
%ADD20R,0.0100X0.2100*%
%ADD21R,0.0940X0.3510*%
%ADD22C,0.2440*%
%ADD23R,0.0630X0.0280*%
%ADD24R,0.1180X0.0830*%
%ADD25R,0.0830X0.1180*%
%ADD26R,0.0280X0.0630*%
%ADD27R,0.4500X0.3500*%
%ADD28R,0.0820X0.1500*%
%ADD29R,0.2200X0.2300*%
%ADD30R,0.0560X0.0720*%
%ADD31R,0.0250X0.0200*%
%ADD32R,0.0200X0.0250*%
%ADD33R,0.0340X0.0550*%
%ADD34C,0.0590*%
%ADD35R,0.0810X0.1440*%
%ADD36R,0.3500X0.4500*%
%ADD37R,0.1500X0.0820*%
%ADD38C,0.0800*%
%ADD39C,0.0300*%
%ADD40C,0.0600*%
%ADD41C,0.0400*%
%ADD42C,0.0040*%
%ADD43C,0.0080*%
%ADD44C,0.0500*%
%ADD45C,0.2000*%
%ADD46C,0.0150*%
%ADD47C,0.0800*%
%ADD48C,0.0700*%
%ADD49C,0.0600*%
%ADD50C,0.0200*%
%ADD51C,0.0250*%
%ADD52C,0.0300*%
%ADD53R,0.1000X0.0640*%
%ADD54R,0.0240X0.0350*%
%ADD55R,0.0350X0.0240*%
%ADD56R,0.0390X0.0590*%
%ADD57R,0.0330X0.0590*%
%ADD58R,0.1300X0.0550*%
%ADD59R,0.0550X0.1300*%
%ADD60R,0.0290X0.0120*%
%ADD61R,0.0120X0.0290*%
%ADD62R,0.1610X0.1610*%
%ADD63R,0.0630X0.0140*%
%ADD64R,0.1180X0.1180*%
%ADD65R,0.0160X0.0700*%
%ADD66R,0.0315X0.0512*%
%ADD67R,0.0330X0.0120*%
%ADD68R,0.0120X0.0330*%
%ADD69R,0.0170X0.0320*%
%ADD70R,0.0350X0.0390*%
%ADD71C,0.0120*%
%ADD72C,0.0100*%
*
G04 Plot Data ***
*
G54D43*
G01X0024401Y0003339D02*
Y0003672D01*
X0024290D02*
X0024512D01*
X0024894Y0003339D02*
X0024922Y0003394D01*
Y0003617D01*
X0024894Y0003672D01*
X0024728D01*
X0024700Y0003617D01*
Y0003394D01*
X0024728Y0003339D01*
X0024894D01*
X0025304D02*
Y0003672D01*
X0025332Y0003339D02*
X0025166D01*
X0025110Y0003394D01*
Y0003450D01*
X0025138Y0003506D01*
X0025304D02*
X0025138D01*
X0025110Y0003561D01*
Y0003617D01*
X0025166Y0003672D01*
X0025332D01*
X0024290Y0004114D02*
X0024318Y0004059D01*
X0024484D01*
X0024512Y0004114D01*
Y0004337D01*
X0024484Y0004392D01*
X0024318D01*
X0024290Y0004337D01*
X0024894Y0004059D02*
Y0004392D01*
X0024922Y0004059D02*
X0024756D01*
X0024700Y0004170D01*
Y0004281D01*
X0024756Y0004392D01*
X0024922D01*
X0025304Y0004059D02*
Y0004392D01*
X0025332Y0004059D02*
X0025166D01*
X0025110Y0004114D01*
Y0004170D01*
X0025138Y0004226D01*
X0025304D02*
X0025138D01*
X0025110Y0004281D01*
Y0004337D01*
X0025166Y0004392D01*
X0025332D01*
X0004114Y0024068D02*
Y0025091D01*
X0004143Y0025120D01*
X0005010D01*
X0004114Y0024068D02*
Y0025566D01*
X0003030Y0026650D01*
X0001417D01*
X0011957Y0006480D02*
X0012160D01*
X0012320Y0006320D01*
X0016960Y0002560D02*
X0016800D01*
X0016560Y0002800D01*
X0016357D01*
X0025260Y0019440D02*
X0024886D01*
X0025138Y0017022D02*
X0024330D01*
X0019280Y0016794D02*
Y0016380D01*
X0024800Y0015600D02*
X0024406D01*
X0021840Y0015570D02*
Y0015140D01*
X0025914Y0008080D02*
X0025500D01*
X0011957Y0006160D02*
Y0005840D01*
X0012320D02*
X0011957D01*
X0008320Y0005637D02*
X0008000D01*
X0016800Y0004160D02*
X0016400D01*
X0016000D01*
X0015620D01*
X0015240D01*
X0016800D02*
Y0003760D01*
X0015240Y0004160D02*
Y0003740D01*
X0016800Y0003760D02*
Y0003360D01*
X0008560Y0002000D02*
X0008197D01*
X0010740Y0001560D02*
X0010600D01*
X0010597Y0001563D01*
X0010320D01*
X0012603Y0002240D02*
Y0001923D01*
X0012600Y0001920D01*
X0008560Y0002000D02*
X0008720D01*
X0008850Y0002130D01*
Y0002465D01*
X0012603Y0003040D02*
Y0002671D01*
X0012634Y0002640D01*
X0012603Y0002240D02*
Y0002375D01*
X0012634Y0002406D01*
Y0002640D01*
X0016406Y0003520D02*
X0016640D01*
X0016800Y0003360D01*
X0016357Y0003120D02*
Y0003237D01*
X0016406Y0003286D01*
Y0003520D01*
X0015240Y0004160D02*
X0014575D01*
X0014385Y0003970D01*
X0008000Y0004640D02*
X0007890Y0004530D01*
X0007440D01*
X0008349Y0004344D02*
X0008136D01*
X0008000Y0004480D01*
Y0004640D01*
X0007280Y0005680D02*
X0007323Y0005637D01*
X0008000D01*
X0009680Y0005563D02*
X0009883D01*
X0010277Y0005957D01*
X0010400D01*
X0010800Y0006080D02*
X0010677Y0005957D01*
X0010400D01*
X0025914Y0008080D02*
Y0008154D01*
X0026406Y0008646D01*
Y0008720D01*
X0024640Y0008800D02*
Y0008960D01*
X0024486Y0009114D01*
Y0009360D01*
X0023465Y0010550D02*
Y0009875D01*
X0023520Y0009820D01*
X0023662Y0010550D02*
Y0009962D01*
X0023520Y0009820D01*
X0023858Y0010550D02*
Y0009962D01*
X0024000Y0009820D01*
X0024560Y0010320D02*
X0024677Y0010203D01*
X0024960D01*
X0020240Y0009840D02*
X0020160D01*
X0020000Y0010000D01*
Y0010234D01*
X0019360Y0010086D02*
X0019606D01*
X0019754Y0010234D01*
X0020000D01*
X0022600Y0009880D02*
Y0010160D01*
X0022560Y0010200D01*
Y0010443D01*
X0024000Y0009820D02*
Y0009840D01*
X0024055D01*
Y0010550D01*
X0024330Y0011022D02*
X0024782D01*
X0024780Y0011020D01*
X0004720Y0011840D02*
X0004880Y0011680D01*
X0006363D01*
X0015834Y0010960D02*
X0015680D01*
X0015440Y0011200D01*
Y0012000D01*
X0015834Y0012160D02*
X0015600D01*
X0015440Y0012000D01*
X0006480Y0013434D02*
X0006363Y0013317D01*
Y0012880D01*
X0015760Y0013163D02*
X0015483D01*
X0015300Y0012980D01*
X0016240Y0013114D02*
X0016006D01*
X0015957Y0013163D01*
X0015760D01*
X0018000Y0013686D02*
X0018240D01*
X0018560Y0013360D01*
X0005840Y0016240D02*
X0005680Y0016080D01*
Y0015782D01*
X0006400Y0015477D02*
Y0015600D01*
X0006218Y0015782D01*
X0005680D01*
X0024800Y0016363D02*
X0025077D01*
X0025120Y0016320D01*
X0023465Y0016550D02*
Y0016080D01*
X0023662D01*
Y0016550D01*
Y0016080D01*
X0023858D01*
Y0016550D01*
Y0016080D01*
X0024055D01*
Y0016550D01*
X0003420Y0017260D02*
X0003354Y0017194D01*
X0002960D01*
X0015274Y0018400D02*
X0015040D01*
X0014800Y0018160D01*
X0001969Y0018248D02*
X0001048D01*
X0001040Y0018240D01*
X0024886Y0019440D02*
Y0019514D01*
X0024394Y0020006D01*
Y0020080D01*
X0019034Y0020000D02*
X0018800D01*
X0018720Y0020080D01*
Y0020260D01*
X0012340Y0020320D02*
X0011520D01*
X0011354Y0020486D01*
Y0020640D01*
X0001417Y0023650D02*
X0001969Y0023098D01*
Y0020711D01*
X0007760Y0021083D02*
Y0020920D01*
X0007960Y0020720D01*
X0008160Y0021083D02*
Y0020920D01*
X0007960Y0020720D01*
X0010480Y0022066D02*
Y0021440D01*
X0010640Y0021280D01*
X0012560Y0021220D02*
Y0021600D01*
X0012720Y0021760D01*
Y0021963D01*
X0011440Y0021914D02*
X0011046D01*
X0010894Y0022066D01*
X0010480D01*
X0006400Y0025440D02*
X0007440Y0024400D01*
X0009114D01*
X0013200Y0021120D02*
X0013280Y0021200D01*
Y0022800D01*
X0012880Y0023200D01*
X0012486D01*
X0012560Y0021220D02*
Y0021600D01*
X0011680D01*
X0011440Y0021840D01*
Y0021914D01*
X0024800Y0016000D02*
X0024400D01*
X0024320Y0016080D01*
X0024055D01*
Y0016550D01*
X0019280Y0014560D02*
X0019754Y0015034D01*
X0020234D01*
X0020560Y0015360D01*
Y0015674D01*
X0006080Y0014720D02*
Y0015040D01*
X0006000Y0015120D01*
X0005520D01*
X0005424Y0015024D01*
Y0014720D01*
X0005280Y0010400D02*
X0005360Y0010480D01*
X0006363D01*
X0024960Y0010203D02*
Y0009920D01*
X0024800Y0009760D01*
X0024646D01*
X0024486Y0009600D01*
Y0009360D01*
X0009281Y0005520D02*
X0009600D01*
X0009643Y0005563D01*
X0009680D01*
X0009440Y0004648D02*
Y0005120D01*
X0009520Y0005200D01*
Y0005520D01*
X0009281D01*
X0010531Y0002770D02*
X0010590D01*
X0010880Y0002480D01*
Y0001680D01*
X0010763Y0001563D01*
X0010320D01*
X0022680Y0015140D02*
X0022700D01*
X0022720Y0015120D01*
X0022640D01*
X0022560Y0015200D01*
Y0016000D01*
X0022720Y0016160D01*
Y0016363D01*
X0018160Y0022406D02*
X0018394D01*
X0018480Y0022320D01*
Y0021600D01*
X0018400Y0021520D01*
X0018120D01*
X0017840Y0021240D01*
X0020480Y0026320D02*
Y0026080D01*
X0019460Y0025060D01*
X0013420D01*
X0009520Y0028960D01*
X0007520D01*
X0006560Y0029920D01*
X0006400D01*
X0005168Y0014720D02*
Y0015280D01*
X0004720D01*
X0004640Y0015360D01*
X0006363Y0012560D02*
X0004880D01*
X0005168Y0014720D02*
Y0015280D01*
X0006080D01*
X0006277Y0015083D01*
X0006400D01*
X0004720Y0011380D02*
X0004740Y0011360D01*
X0006363D01*
Y0010160D02*
X0005920D01*
X0005840Y0010080D01*
X0009680Y0005957D02*
Y0006000D01*
X0009520Y0006160D01*
X0009281D01*
X0008800Y0006640D02*
X0008799D01*
Y0006160D01*
X0009637Y0004648D02*
Y0004997D01*
X0010203Y0005563D01*
X0010400D01*
X0010800Y0005620D02*
X0010743Y0005563D01*
X0010400D01*
X0008000Y0005243D02*
X0007987Y0005230D01*
X0007440D01*
X0008320Y0004880D02*
X0008552Y0004648D01*
X0008653D01*
X0010320Y0001957D02*
Y0002160D01*
X0010227Y0002253D01*
Y0002465D01*
X0010560Y0002300D02*
Y0002320D01*
X0010414Y0002465D01*
X0010227D01*
X0008240Y0002400D02*
X0008480D01*
X0008545Y0002465D01*
X0008653D01*
X0007803Y0002000D02*
Y0002203D01*
X0008000Y0002400D01*
X0008240D01*
X0023040Y0023230D02*
X0022770D01*
X0022240Y0023760D01*
Y0024160D01*
X0020720Y0025680D01*
X0018350Y0018300D02*
Y0017890D01*
X0018480Y0017760D01*
X0019600D01*
X0020560Y0016800D01*
Y0016166D01*
X0022480Y0012080D02*
X0022560D01*
X0023028Y0011612D01*
X0023504D01*
X0012880Y0001600D02*
X0012997Y0001483D01*
X0013200D01*
X0008320Y0005243D02*
Y0004880D01*
Y0005243D02*
X0008000D01*
X0009281Y0006160D02*
X0008799D01*
X0006363Y0012560D02*
X0004880D01*
X0023504Y0017612D02*
X0022412D01*
X0022400Y0017600D01*
X0019840Y0017520D02*
X0020560Y0016800D01*
Y0016166D01*
X0026406Y0010000D02*
Y0010394D01*
X0026160Y0010640D01*
X0025760D01*
X0003840Y0020800D02*
X0004114Y0021074D01*
Y0022652D01*
X0024960Y0009120D02*
Y0009600D01*
X0025360Y0010000D01*
Y0010720D01*
X0025680Y0011040D01*
X0026160D01*
X0026960Y0011840D01*
Y0017360D01*
X0026142Y0018178D01*
Y0018228D01*
X0014080Y0019766D02*
X0013674D01*
X0013440Y0020000D01*
X0020000Y0020480D02*
Y0019840D01*
X0019520Y0019360D01*
Y0019126D01*
Y0019360D01*
X0020000Y0019840D01*
Y0020480D01*
X0019514Y0011360D02*
X0019040D01*
X0018679Y0011721D01*
Y0012180D01*
X0019526Y0021280D02*
Y0021594D01*
X0019440Y0021680D01*
Y0021914D01*
X0023504Y0017612D02*
X0022412D01*
X0022400Y0017600D01*
X0022240D01*
X0010531Y0003360D02*
X0011040D01*
X0011120Y0003280D01*
X0009440Y0008240D02*
Y0008640D01*
X0010160Y0009360D01*
Y0014400D01*
X0009920Y0014640D01*
Y0015600D01*
X0010320Y0016000D01*
X0011600D01*
X0012800Y0017200D01*
Y0020640D01*
X0012880Y0020720D01*
Y0021440D01*
X0013040Y0021600D01*
Y0022240D01*
X0012923Y0022357D01*
X0012720D01*
X0014080Y0019766D02*
X0013674D01*
X0013440Y0020000D01*
X0011920D02*
X0011680Y0019760D01*
X0009840D01*
X0009790Y0019710D01*
X0009360D01*
X0026142Y0019728D02*
Y0020098D01*
X0024886Y0021354D01*
Y0021360D01*
X0024035Y0011612D02*
X0024492D01*
X0024888Y0012008D01*
X0026142D01*
X0009637Y0002465D02*
Y0001797D01*
X0009040Y0001200D01*
X0006240D01*
X0005200Y0002240D01*
Y0007040D01*
X0005760Y0007600D01*
X0007120D01*
X0007200Y0007680D01*
X0008320Y0007840D02*
X0008160Y0008000D01*
Y0013120D01*
X0008720Y0013680D01*
Y0015360D01*
X0010560D02*
X0011040Y0015840D01*
X0011680D01*
X0012960Y0017120D01*
Y0020320D01*
X0013680Y0021040D01*
X0016240Y0021280D02*
X0016252Y0021292D01*
X0016580D01*
X0016816Y0021056D01*
Y0020640D01*
X0014002Y0002800D02*
Y0002342D01*
X0013820Y0002160D01*
X0013760D01*
X0013600Y0002000D01*
Y0001926D01*
X0015760Y0013557D02*
X0015397D01*
X0014880Y0013040D01*
X0010320Y0014800D02*
Y0009280D01*
X0009920Y0008880D01*
Y0008080D01*
X0009360Y0007520D01*
Y0006720D01*
X0009280Y0006640D01*
X0009520Y0001120D02*
Y0001360D01*
X0009833Y0001673D01*
Y0002465D01*
X0008277Y0023089D02*
X0008671D01*
X0008800Y0022960D01*
Y0020560D01*
X0009360Y0020000D01*
Y0019710D01*
X0000720Y0019440D02*
Y0019600D01*
X0000960Y0019840D01*
X0001360D01*
X0001474Y0019726D01*
X0001969D01*
X0024035Y0017612D02*
X0024732D01*
X0025348Y0018228D01*
X0026142D01*
X0003034Y0019520D02*
Y0019754D01*
X0003200Y0019920D01*
X0004800D01*
X0005089Y0019631D01*
Y0018855D01*
X0024035Y0011612D02*
X0023878D01*
X0008349Y0003950D02*
X0007250D01*
X0006880Y0004320D01*
Y0005680D01*
X0007200Y0006000D01*
Y0006080D01*
X0006160Y0008480D02*
X0006800Y0009120D01*
Y0009200D01*
X0006806Y0009206D01*
Y0009760D01*
X0011440Y0024234D02*
X0011846D01*
X0012240Y0023840D01*
Y0022800D01*
X0012080Y0022640D01*
Y0022406D01*
X0016240D02*
X0016394D01*
X0016560Y0022240D01*
Y0021312D01*
X0016816Y0021056D01*
Y0020640D01*
X0008349Y0003557D02*
X0007163D01*
X0006560Y0004160D01*
Y0006080D01*
X0006000Y0008000D02*
X0006160Y0007840D01*
X0006960D01*
X0007520Y0008400D01*
Y0012000D01*
X0007360Y0012160D01*
X0006806D01*
X0020000Y0010726D02*
X0019754D01*
X0019514Y0010966D01*
Y0011360D01*
X0023642Y0017612D02*
X0023504D01*
X0014960Y0022357D02*
X0015157D01*
X0015206Y0022406D01*
X0015600D01*
X0006806Y0010960D02*
X0007200D01*
X0007360Y0010800D01*
Y0008480D01*
X0006960Y0008080D01*
X0006560D01*
X0006480Y0008160D01*
X0006880Y0006400D02*
Y0005920D01*
X0006720Y0005760D01*
Y0004240D01*
X0007206Y0003754D01*
X0008349D01*
X0019526Y0020000D02*
Y0020074D01*
X0019034Y0020566D01*
Y0020640D01*
X0010480Y0023600D02*
X0010800D01*
X0011434Y0024234D01*
X0011440D01*
X0019034Y0021280D02*
Y0021446D01*
X0018800Y0021680D01*
Y0021914D01*
X0020000Y0009366D02*
Y0009600D01*
X0019760Y0009840D01*
X0018679D01*
X0016720Y0013606D02*
X0016954D01*
X0017040Y0013520D01*
Y0012800D01*
X0017146Y0012694D01*
Y0012180D01*
X0001969Y0020218D02*
X0001222D01*
X0001200Y0020240D01*
X0000560D01*
X0015963Y0002800D02*
Y0002443D01*
X0015760Y0002240D01*
X0015200D01*
X0015024Y0002416D01*
Y0002800D01*
X0011994Y0023200D02*
Y0023194D01*
X0011440D01*
X0007040Y0023846D02*
X0006714D01*
X0006492Y0024068D01*
X0005806D01*
X0015200Y0003680D02*
X0015240Y0003720D01*
Y0003740D01*
X0007366Y0022640D02*
Y0022794D01*
X0007040Y0023120D01*
Y0023354D01*
X0005840Y0005920D02*
Y0005600D01*
X0005680Y0005440D01*
Y0002480D01*
X0006480Y0001680D01*
X0008800D01*
X0009047Y0001927D01*
Y0002465D01*
X0024035Y0017612D02*
X0023878D01*
X0022400Y0017600D02*
X0022412Y0017612D01*
X0023504D01*
X0006080Y0005280D02*
X0005840Y0005040D01*
Y0002640D01*
X0006080Y0002400D01*
X0007760D01*
X0008130Y0002770D01*
X0008349D01*
X0013200Y0001877D02*
Y0002080D01*
X0013040Y0002240D01*
X0012997D01*
X0001120Y0019520D02*
X0001407Y0019233D01*
X0001969D01*
X0006806Y0009760D02*
Y0009994D01*
X0006757Y0010043D01*
Y0010160D01*
X0023366Y0015600D02*
Y0015126D01*
X0021680Y0013440D01*
Y0012400D01*
X0021280Y0012000D01*
Y0010640D01*
X0022320Y0009600D01*
Y0002240D01*
X0021520Y0001440D01*
X0017920D01*
X0017760Y0001600D01*
X0013200Y0000960D02*
X0013040Y0000800D01*
X0012640D01*
X0012160Y0001280D01*
Y0004320D01*
X0011680Y0004800D01*
X0010227D01*
Y0004648D01*
X0003600Y0019040D02*
X0003785Y0018855D01*
X0004105D01*
X0007760Y0003040D02*
X0007884Y0003164D01*
X0008349D01*
X0008640Y0019526D02*
X0008886D01*
X0009070Y0019710D01*
X0009360D01*
X0024394Y0020720D02*
X0024160D01*
X0024080Y0020640D01*
Y0019600D01*
X0024240Y0019440D01*
X0024394D01*
X0019526Y0021280D02*
Y0021132D01*
X0019034Y0020640D01*
X0026406Y0009280D02*
X0026640D01*
X0026720Y0009200D01*
Y0008240D01*
X0026640Y0008160D01*
X0026406D01*
Y0008080D01*
X0020640Y0010726D02*
X0020000D01*
X0024886Y0020080D02*
X0025120D01*
X0025280Y0020240D01*
X0026800Y0011200D02*
X0026960Y0011040D01*
Y0001840D01*
X0025680Y0000560D01*
X0017440D01*
X0017120Y0000880D01*
Y0001440D01*
X0016480Y0002080D01*
X0014960D01*
X0014400Y0001520D01*
Y0000720D01*
X0014240Y0000560D01*
X0012000D01*
X0011840Y0000720D01*
Y0003600D01*
X0011490Y0003950D01*
X0010531D01*
X0011563Y0005840D02*
Y0005717D01*
X0011760Y0005520D01*
X0011440Y0004480D02*
X0010880D01*
X0010744Y0004344D01*
X0010531D01*
X0017327Y0020640D02*
Y0021313D01*
X0017233D01*
X0017245Y0021300D01*
X0017260D01*
X0014320Y0020640D02*
Y0020160D01*
X0015274Y0019206D01*
Y0019040D01*
X0007520Y0002720D02*
X0007840D01*
X0008087Y0002967D01*
X0008349D01*
X0011440Y0022406D02*
X0011114D01*
X0010943Y0022577D01*
X0010480D01*
X0015760Y0013557D02*
X0015945D01*
X0015994Y0013606D01*
X0016240D01*
X0010531Y0002967D02*
X0010713D01*
X0010800Y0002880D01*
Y0002800D01*
X0011200Y0002400D01*
Y0002240D01*
X0008480Y0008320D02*
X0008320Y0008480D01*
Y0013040D01*
X0009520Y0014240D01*
Y0016240D01*
X0007360Y0018400D01*
Y0019440D01*
X0008560Y0020640D01*
Y0021280D01*
X0008363Y0021477D01*
X0008160D01*
X0009833Y0004648D02*
Y0004953D01*
X0010000Y0005120D01*
X0010800D01*
X0011120Y0005440D01*
Y0006400D01*
X0010960Y0006560D01*
X0009840D01*
X0009520Y0006880D01*
Y0007440D01*
X0010080Y0008000D01*
Y0008800D01*
X0010480Y0009200D01*
Y0014400D01*
X0011200Y0015120D01*
Y0015360D01*
X0010640Y0016480D02*
X0011840D01*
X0012640Y0017280D01*
Y0020480D01*
X0012480Y0020640D01*
X0011846D01*
X0006806Y0012160D02*
Y0012394D01*
X0006757Y0012443D01*
Y0012560D01*
X0007760Y0021477D02*
X0007637D01*
X0007520Y0021360D01*
Y0019840D01*
X0007200Y0019520D01*
Y0018320D01*
X0009120Y0016400D01*
Y0014960D01*
X0009440Y0013360D02*
X0008880D01*
X0008480Y0012960D01*
Y0008800D01*
X0008800Y0008480D01*
Y0008240D01*
X0008960Y0008080D01*
X0011200Y0002880D02*
X0011180Y0002900D01*
X0011060D01*
X0010796Y0003164D01*
X0010531D01*
X0015520Y0008554D02*
Y0008560D01*
X0015680D01*
X0015920Y0008800D01*
X0016480D01*
X0016880Y0009200D01*
X0017280D01*
X0017401Y0009321D01*
Y0009840D01*
X0016560Y0018300D02*
X0016260D01*
X0016160Y0018400D01*
X0015766D01*
X0017657Y0012180D02*
Y0012823D01*
X0017520Y0012960D01*
Y0013200D01*
X0016720Y0011440D02*
X0016566Y0011600D01*
X0016326D01*
X0017401Y0012180D02*
Y0012759D01*
X0017200Y0012960D01*
Y0013680D01*
X0017460Y0013940D01*
X0018780D01*
X0019565Y0013155D01*
Y0013115D01*
X0023366Y0009360D02*
Y0009126D01*
X0023200Y0008960D01*
X0022640D01*
X0022480Y0008800D01*
Y0002160D01*
X0021520Y0001200D01*
X0017520D01*
X0012720D02*
X0012560D01*
X0012320Y0001440D01*
Y0004400D01*
X0011760Y0004960D01*
X0010080D01*
X0010030Y0004910D01*
Y0004648D01*
X0005600Y0008800D02*
X0005040Y0008240D01*
Y0002160D01*
X0006480Y0000720D01*
X0009680D01*
X0010030Y0001070D01*
Y0002465D01*
X0018094Y0020640D02*
Y0021134D01*
X0018240Y0021280D01*
X0019034D01*
X0019514Y0012000D02*
X0019200D01*
X0018960Y0012240D01*
Y0012640D01*
X0018800Y0012800D01*
X0018560D01*
X0018424Y0012664D01*
Y0012180D01*
X0019680Y0027040D02*
X0020080D01*
X0021680Y0028640D01*
X0023600D01*
X0024000Y0028240D01*
X0010531Y0004147D02*
X0011533D01*
X0012000Y0003680D01*
Y0001040D01*
X0012160Y0000880D01*
X0017840D02*
X0025760D01*
X0026800Y0001920D01*
Y0007440D01*
X0026560Y0007680D01*
X0025360D01*
X0025200Y0007840D01*
Y0008560D01*
X0025360Y0008720D01*
X0025914D01*
X0006806Y0010960D02*
Y0011194D01*
X0006757Y0011243D01*
Y0011360D01*
X0010480Y0022322D02*
X0010002D01*
X0009920Y0022240D01*
Y0021200D01*
X0010160Y0020960D01*
X0011040D01*
X0011354Y0021280D01*
X0006757Y0010480D02*
Y0010160D01*
X0016326Y0010960D02*
Y0011034D01*
X0015834Y0011526D01*
Y0011600D01*
X0023914Y0015600D02*
X0023366D01*
X0008640Y0019034D02*
Y0018880D01*
X0008320Y0018560D01*
X0002960Y0017686D02*
Y0017760D01*
X0002720Y0018000D01*
Y0018080D01*
X0010480Y0022833D02*
X0009887D01*
X0009606Y0023114D01*
Y0024400D01*
X0008640Y0019526D02*
X0008080D01*
X0021840Y0015120D02*
Y0015140D01*
X0016890Y0009840D02*
X0016640D01*
X0016326Y0010154D01*
Y0010960D01*
X0014080Y0001434D02*
X0013600D01*
X0025914Y0009280D02*
Y0008720D01*
X0014080Y0019274D02*
Y0019120D01*
X0014560Y0018640D01*
X0005806Y0022652D02*
X0005818Y0022640D01*
X0006874D01*
X0020006Y0011360D02*
Y0011434D01*
X0019514Y0011926D01*
Y0012000D01*
X0019200Y0018160D02*
X0019520Y0018480D01*
Y0018634D01*
X0014080Y0001926D02*
Y0002146D01*
X0014257Y0002323D01*
Y0002800D01*
X0024800Y0016757D02*
X0024603D01*
X0024535Y0016825D01*
X0024330D01*
X0006757Y0012880D02*
Y0012560D01*
X0010531Y0003754D02*
X0011440D01*
X0011680Y0003520D01*
Y0001920D01*
X0011520Y0001760D01*
Y0001120D01*
X0010960Y0000800D02*
X0011520Y0000240D01*
X0014400D01*
X0014720Y0000560D01*
Y0001360D01*
X0015120Y0001760D01*
X0016320D01*
X0016800Y0001280D01*
Y0000720D01*
X0017280Y0000240D01*
X0026000D01*
X0027280Y0001520D01*
Y0029840D01*
X0026960Y0030160D01*
X0025200D01*
X0024560Y0029520D01*
X0016240Y0022406D02*
X0015600D01*
X0011846Y0021280D02*
Y0020640D01*
X0006757Y0011680D02*
Y0011360D01*
X0009120Y0005040D02*
X0009243Y0004917D01*
Y0004648D01*
X0008850D02*
Y0004890D01*
X0008800Y0004940D01*
Y0005519D01*
X0008799Y0005520D01*
X0024394Y0021360D02*
Y0020720D01*
X0020640Y0011354D02*
Y0010726D01*
X0004105Y0018855D02*
Y0019145D01*
X0004437Y0019477D01*
Y0019520D01*
X0011563Y0006160D02*
Y0005840D01*
X0015914Y0003520D02*
X0015760D01*
X0015600Y0003360D01*
Y0002880D01*
X0015520Y0002800D01*
X0015280D01*
X0011563Y0006480D02*
Y0006160D01*
X0024560Y0028880D02*
X0024960Y0029280D01*
Y0029680D01*
X0025280Y0030000D01*
X0026800D01*
X0027120Y0029680D01*
Y0001680D01*
X0025840Y0000400D01*
X0017360D01*
X0016960Y0000800D01*
Y0001360D01*
X0016400Y0001920D01*
X0015040D01*
X0014560Y0001440D01*
Y0000640D01*
X0014320Y0000400D01*
X0011760D01*
X0011200Y0000960D01*
Y0001760D01*
X0011520Y0002080D01*
Y0003360D01*
X0011323Y0003557D01*
X0010531D01*
X0024886Y0020720D02*
Y0020080D01*
X0004043Y0019520D02*
X0003526D01*
X0016720Y0013606D02*
X0016240D01*
X0019526Y0020640D02*
X0019680D01*
X0019920Y0020880D01*
X0021280D01*
X0021680Y0020480D01*
Y0018880D01*
X0021120Y0018320D01*
Y0015040D01*
X0021520Y0014640D01*
Y0012480D01*
X0021120Y0012080D01*
Y0010560D01*
X0021760Y0009920D01*
Y0009600D01*
X0004913Y0014720D02*
Y0014447D01*
X0005280Y0014080D01*
X0006800D01*
X0007840Y0013040D01*
Y0007600D01*
X0007200Y0006960D01*
X0006000D01*
X0005360Y0006320D01*
Y0002320D01*
X0006320Y0001360D01*
X0008960D01*
X0009440Y0001840D01*
Y0002465D01*
X0018424Y0009840D02*
Y0009336D01*
X0018560Y0009200D01*
X0019200D01*
X0019360Y0009360D01*
Y0009594D01*
X0015200Y0017766D02*
Y0017600D01*
X0015280Y0017520D01*
X0016160D01*
X0016240Y0017600D01*
X0016800D01*
X0017071Y0017871D01*
Y0018300D01*
X0001969Y0019233D02*
X0002353D01*
X0002640Y0019520D01*
X0003034D01*
X0024960Y0010597D02*
X0024763D01*
X0024535Y0010825D01*
X0024330D01*
X0012080Y0021914D02*
X0012000D01*
X0011508Y0022406D01*
X0011440D01*
X0016080Y0017200D02*
X0016000D01*
X0015920Y0017280D01*
X0015840D01*
X0015834Y0017274D01*
X0008277Y0023344D02*
X0007056D01*
X0007046Y0023354D01*
X0007040D01*
X0010480Y0023088D02*
X0011008D01*
X0011114Y0023194D01*
X0011440D01*
X0005040Y0011040D02*
X0005120Y0010960D01*
X0006314D01*
X0017912Y0012180D02*
Y0012872D01*
X0018000Y0012960D01*
Y0013194D01*
X0004320Y0014880D02*
Y0014640D01*
X0005040Y0013920D01*
X0006720D01*
X0007680Y0012960D01*
Y0007680D01*
X0007280Y0007280D01*
X0006000D01*
X0006240Y0006320D02*
Y0005920D01*
X0006400Y0005760D01*
Y0004080D01*
X0007120Y0003360D01*
X0008349D01*
X0026406Y0009280D02*
X0026400D01*
Y0009440D01*
X0025914Y0009926D01*
Y0010000D01*
X0016326Y0012160D02*
Y0011600D01*
X0015200Y0017274D02*
Y0016960D01*
X0015840Y0016320D01*
X0016240D01*
X0006314Y0009760D02*
X0004960D01*
X0004720Y0010000D01*
Y0010720D01*
X0017145Y0009840D02*
Y0009465D01*
X0017040Y0009360D01*
X0016800D01*
X0016480Y0009046D01*
X0016240D01*
X0015766Y0019040D02*
Y0018400D01*
X0023994Y0009360D02*
X0023366D01*
X0018160Y0021914D02*
X0018154Y0021920D01*
X0018060D01*
X0017550Y0021410D01*
Y0021130D01*
X0017583Y0021097D01*
Y0020640D01*
X0014480Y0007600D02*
X0015120Y0008240D01*
Y0008880D01*
X0015286Y0009046D01*
X0015520D01*
X0013200Y0001877D02*
X0013317D01*
X0013366Y0001926D01*
X0013600D01*
X0005680Y0014720D02*
Y0014480D01*
X0005920Y0014240D01*
X0006880D01*
X0008000Y0013120D01*
Y0007520D01*
X0007280Y0006800D01*
X0006080D01*
X0005520Y0006240D01*
Y0002400D01*
X0006400Y0001520D01*
X0008880D01*
X0009243Y0001883D01*
Y0002465D01*
X0010480Y0023344D02*
X0010944D01*
X0011286Y0023686D01*
X0011440D01*
X0012720Y0022357D02*
X0012363D01*
X0012314Y0022406D01*
X0012080D01*
X0004105Y0016849D02*
Y0016455D01*
X0004320Y0016240D01*
X0004960D01*
X0005169Y0016031D01*
Y0015782D01*
X0005424D02*
Y0016176D01*
X0005089Y0016511D01*
Y0016849D01*
X0007840Y0018560D02*
X0008080Y0018800D01*
Y0019034D01*
X0019440Y0022406D02*
X0018800D01*
X0020640Y0011846D02*
X0020314D01*
X0020160Y0012000D01*
X0020006D01*
X0013490Y0002800D02*
Y0002910D01*
X0013360Y0003040D01*
X0012997D01*
X0015760Y0017766D02*
X0016726D01*
X0016816Y0017856D01*
Y0018300D01*
X0022874Y0015600D02*
Y0015754D01*
X0023190Y0016070D01*
Y0016825D01*
X0023642Y0011612D02*
X0023504D01*
X0023190Y0010825D02*
Y0010710D01*
X0022960Y0010480D01*
Y0009760D01*
X0022874Y0009674D01*
Y0009360D01*
X0015963Y0003120D02*
Y0002800D01*
X0018094Y0018300D02*
Y0017826D01*
X0018320Y0017600D01*
X0019120D01*
X0019280Y0017440D01*
Y0017286D01*
X0008277Y0023600D02*
X0007680D01*
X0007434Y0023846D01*
X0007040D01*
X0016880Y0021914D02*
Y0021680D01*
X0016800Y0021600D01*
Y0021360D01*
X0017072Y0021088D01*
Y0020640D01*
X0005120Y0012160D02*
X0006314D01*
X0013746Y0002800D02*
Y0002386D01*
X0013640Y0002280D01*
X0013360D01*
X0013126Y0002514D01*
Y0002640D01*
X0008160Y0021477D02*
Y0021680D01*
X0008277Y0021797D01*
Y0022066D01*
X0017327Y0020640D02*
Y0021567D01*
X0017520Y0021760D01*
Y0021914D01*
X0019034Y0020640D02*
X0018350D01*
X0007760Y0021477D02*
Y0022160D01*
X0007922Y0022322D01*
X0008277D01*
X0017308Y0020080D02*
Y0018880D01*
X0017236Y0020080D02*
Y0018880D01*
X0017164Y0020080D02*
Y0018880D01*
X0017092Y0020080D02*
Y0018880D01*
X0017020Y0020080D02*
Y0018880D01*
X0016948Y0020080D02*
Y0018880D01*
X0016876Y0020080D02*
Y0018880D01*
X0016804Y0020080D02*
Y0018880D01*
X0016732Y0020080D02*
Y0018880D01*
X0016660Y0020080D02*
Y0018880D01*
X0016588Y0020080D02*
Y0018880D01*
X0016516Y0020080D02*
Y0018880D01*
X0016444Y0020080D02*
Y0018880D01*
X0016372Y0020080D02*
Y0018880D01*
X0016300Y0020080D02*
Y0018880D01*
X0016228Y0020080D02*
Y0018880D01*
X0016156Y0020080D02*
Y0018880D01*
X0018444Y0020036D02*
X0016080D01*
X0018516Y0019964D02*
X0016080D01*
X0018588Y0019892D02*
X0016080D01*
X0018660Y0019820D02*
X0016080D01*
X0018732Y0019748D02*
X0016080D01*
X0018804Y0019676D02*
X0016080D01*
X0018876Y0019604D02*
X0016080D01*
X0017668Y0020080D02*
Y0018880D01*
X0019200Y0019460D02*
X0016080D01*
X0019200Y0019388D02*
X0016080D01*
X0019200Y0019316D02*
X0016080D01*
X0019200Y0019172D02*
X0016080D01*
X0019200Y0019100D02*
X0016080D01*
X0019188Y0019028D02*
X0016080D01*
X0019116Y0018956D02*
X0016080D01*
X0019040Y0018880D02*
X0016080D01*
X0019200Y0019040D02*
X0019040Y0018880D01*
X0019200Y0019520D02*
Y0019040D01*
X0019120Y0019600D02*
X0019200Y0019520D01*
X0019120Y0019600D02*
X0018880D01*
X0018400Y0020080D02*
X0018880Y0019600D01*
X0018400Y0020080D02*
X0016480D01*
X0019188Y0019532D02*
X0016080D01*
X0019180Y0019540D02*
Y0019020D01*
X0019108Y0019600D02*
Y0018948D01*
X0019036Y0019600D02*
Y0018880D01*
X0018964Y0019600D02*
Y0018880D01*
X0018892Y0019600D02*
Y0018880D01*
X0018820Y0019660D02*
Y0018880D01*
X0018748Y0019732D02*
Y0018880D01*
X0018676Y0019804D02*
Y0018880D01*
X0018604Y0019876D02*
Y0018880D01*
X0018532Y0019948D02*
Y0018880D01*
X0018460Y0020020D02*
Y0018880D01*
X0018388Y0020080D02*
Y0018880D01*
X0018316Y0020080D02*
Y0018880D01*
X0018244Y0020080D02*
Y0018880D01*
X0018172Y0020080D02*
Y0018880D01*
X0018100Y0020080D02*
Y0018880D01*
X0018028Y0020080D02*
Y0018880D01*
X0017956Y0020080D02*
Y0018880D01*
X0017884Y0020080D02*
Y0018880D01*
X0017812Y0020080D02*
Y0018880D01*
X0017740Y0020080D02*
Y0018880D01*
X0019200Y0019244D02*
X0016080D01*
X0017596Y0020080D02*
Y0018880D01*
X0017524Y0020080D02*
Y0018880D01*
X0017452Y0020080D02*
Y0018880D01*
X0017380Y0020080D02*
Y0018880D01*
X0016480Y0020080D02*
X0016080D01*
Y0018880D01*
X0017444Y0011600D02*
Y0010400D01*
X0017372Y0011600D02*
Y0010400D01*
X0017300Y0011600D02*
Y0010400D01*
X0017228Y0011600D02*
Y0010400D01*
X0017156Y0011600D02*
Y0010400D01*
X0017084Y0011324D02*
Y0010400D01*
X0017012Y0011252D02*
Y0010400D01*
X0016940Y0011180D02*
Y0010400D01*
X0016868Y0011108D02*
Y0010400D01*
X0016796Y0011036D02*
Y0010400D01*
X0018524Y0011556D02*
X0017120D01*
X0018596Y0011484D02*
X0017120D01*
X0018668Y0011412D02*
X0017120D01*
X0018740Y0011340D02*
X0017100D01*
X0018812Y0011268D02*
X0017028D01*
X0019200Y0011196D02*
X0016956D01*
X0019200Y0011124D02*
X0016884D01*
X0019200Y0010980D02*
X0016740D01*
X0019200Y0010908D02*
X0016720D01*
X0019200Y0010836D02*
X0016720D01*
X0019200Y0010764D02*
X0016720D01*
X0019200Y0010692D02*
X0016720D01*
X0019200Y0010620D02*
X0016720D01*
X0019200Y0010548D02*
X0016720D01*
X0019200Y0010476D02*
X0016720D01*
X0018480Y0011600D02*
X0018880Y0011200D01*
X0018480Y0011600D02*
X0017120D01*
X0019200Y0011052D02*
X0016812D01*
X0019172Y0011200D02*
Y0010400D01*
X0019100Y0011200D02*
Y0010400D01*
X0019028Y0011200D02*
Y0010400D01*
X0018956Y0011200D02*
Y0010400D01*
X0018884Y0011200D02*
Y0010400D01*
X0018812Y0011268D02*
Y0010400D01*
X0018740Y0011340D02*
Y0010400D01*
X0018668Y0011412D02*
Y0010400D01*
X0018596Y0011484D02*
Y0010400D01*
X0018524Y0011556D02*
Y0010400D01*
X0018452Y0011600D02*
Y0010400D01*
X0018380Y0011600D02*
Y0010400D01*
X0018308Y0011600D02*
Y0010400D01*
X0018236Y0011600D02*
Y0010400D01*
X0018164Y0011600D02*
Y0010400D01*
X0018092Y0011600D02*
Y0010400D01*
X0018020Y0011600D02*
Y0010400D01*
X0017948Y0011600D02*
Y0010400D01*
X0017876Y0011600D02*
Y0010400D01*
X0017804Y0011600D02*
Y0010400D01*
X0017732Y0011600D02*
Y0010400D01*
X0017660Y0011600D02*
Y0010400D01*
X0017588Y0011600D02*
Y0010400D01*
X0017516Y0011600D02*
Y0010400D01*
X0017120Y0011600D02*
Y0011360D01*
X0016720Y0010960D01*
Y0010400D01*
X0019200D02*
X0016720D01*
X0019200Y0011200D02*
Y0010400D01*
Y0011200D02*
X0018880D01*
X0015089Y0004550D02*
X0014960D01*
X0013280Y0005680D02*
Y0004640D01*
Y0005680D02*
X0012720D01*
X0012560Y0005520D01*
X0012320D01*
X0016274Y0003935D02*
Y0003840D01*
X0015675Y0005224D02*
X0015600D01*
X0017104Y0004896D02*
Y0003280D01*
X0016888Y0005112D02*
Y0003280D01*
X0016816Y0005760D02*
Y0003280D01*
X0016744Y0005760D02*
Y0003280D01*
X0016672Y0005760D02*
Y0003280D01*
X0016600Y0005760D02*
Y0003840D01*
X0016832Y0005760D02*
Y0005508D01*
X0016384Y0005372D02*
Y0003840D01*
X0016240Y0005133D02*
Y0003935D01*
X0016168Y0005088D02*
Y0003935D01*
X0016832Y0005728D02*
X0016475D01*
X0016096Y0005062D02*
Y0003935D01*
X0014960Y0004550D02*
X0014833D01*
X0016640Y0003840D02*
X0016274D01*
X0015600Y0005395D02*
Y0004640D01*
X0017120Y0004576D02*
X0015600D01*
X0013576Y0004550D02*
Y0003390D01*
X0015592Y0004550D02*
Y0003935D01*
X0015323Y0003403D02*
X0015310Y0003390D01*
X0015520Y0004550D02*
Y0003676D01*
X0015304Y0004550D02*
Y0003390D01*
X0015232Y0004550D02*
Y0003390D01*
X0015088Y0004550D02*
Y0003390D01*
X0014944Y0004550D02*
Y0003390D01*
X0014066D02*
X0013937D01*
X0013682D02*
X0013426D01*
X0014728Y0004550D02*
Y0003390D01*
X0017120Y0004648D02*
X0015600D01*
X0014440Y0004550D02*
Y0003390D01*
X0013720Y0004550D02*
Y0003390D01*
X0014368Y0004550D02*
Y0003390D01*
X0014296Y0004550D02*
Y0003390D01*
X0013937D02*
X0013810D01*
X0013792Y0004550D02*
Y0003390D01*
X0012632Y0003380D02*
Y0003360D01*
X0014512Y0004550D02*
Y0003390D01*
X0014008Y0004550D02*
Y0003390D01*
X0013937D02*
X0013810D01*
X0013936Y0004550D02*
Y0003390D01*
X0013426Y0004640D02*
X0013280D01*
X0013648Y0004550D02*
Y0003390D01*
X0013170Y0003380D02*
X0012632D01*
X0013144Y0005680D02*
Y0003380D01*
X0013072Y0005680D02*
Y0003380D01*
X0013000Y0005680D02*
Y0003380D01*
X0012928Y0005680D02*
Y0003380D01*
X0012856Y0005680D02*
Y0003380D01*
X0012784Y0005680D02*
Y0003380D01*
X0012632Y0003360D02*
X0012600D01*
X0013280Y0004648D02*
X0012468D01*
X0013216Y0005680D02*
Y0003390D01*
X0013280Y0005656D02*
X0012696D01*
X0013280Y0005584D02*
X0012624D01*
X0013280Y0005512D02*
X0012312D01*
X0013280Y0005440D02*
X0012240D01*
X0013432Y0004550D02*
Y0003390D01*
X0012320Y0005520D02*
X0011958Y0005158D01*
X0011992Y0005192D02*
Y0005124D01*
X0013280Y0005152D02*
X0011964D01*
X0013280Y0005080D02*
X0012036D01*
X0015355Y0003496D02*
X0012600D01*
X0013280Y0005008D02*
X0012108D01*
X0013280Y0004864D02*
X0012252D01*
X0013280Y0004792D02*
X0012324D01*
X0012568Y0005528D02*
Y0004530D01*
X0017120Y0004360D02*
X0012600D01*
X0017120Y0004288D02*
X0012600D01*
X0017120Y0003352D02*
X0016640D01*
X0015952Y0005053D02*
Y0003935D01*
X0015376Y0004550D02*
Y0003528D01*
X0017120Y0003640D02*
X0016640D01*
X0015554Y0003710D02*
X0015403Y0003559D01*
X0014193Y0004550D02*
X0014066D01*
X0014584D02*
Y0003390D01*
X0017064Y0004936D02*
X0015600D01*
X0016880Y0005224D02*
X0016325D01*
X0017120Y0004792D02*
X0015600D01*
X0016832Y0005656D02*
X0016475D01*
X0013504Y0004550D02*
Y0003390D01*
X0013426D02*
X0013170D01*
X0015554Y0003935D02*
Y0003710D01*
X0017120Y0004864D02*
X0015600D01*
X0015016Y0004550D02*
Y0003390D01*
X0017120Y0004720D02*
X0015600D01*
X0015160Y0004550D02*
Y0003390D01*
X0014960Y0004550D02*
X0014833D01*
X0015327Y0003424D02*
X0012600D01*
X0015600Y0004550D02*
X0015344D01*
X0014322D02*
X0014193D01*
X0014066D02*
X0013682D01*
X0014322Y0003390D02*
X0014193D01*
X0015344Y0004550D02*
X0015089D01*
X0014448Y0003390D02*
X0014322D01*
X0013360Y0004640D02*
Y0003390D01*
X0014800Y0004550D02*
Y0003390D01*
X0014960D02*
X0014832D01*
X0014448D02*
X0014322D01*
X0014080Y0004550D02*
Y0003390D01*
X0013682D02*
X0013426D01*
X0014833Y0004550D02*
X0014704D01*
X0014152D02*
Y0003390D01*
X0014577D02*
X0014448D01*
X0015600Y0004640D02*
Y0004550D01*
X0014960Y0003390D02*
X0014832D01*
X0014704D02*
X0014577D01*
X0015554Y0003856D02*
X0012600D01*
X0017120Y0003712D02*
X0016640D01*
X0017120Y0003784D02*
X0016640D01*
X0016875Y0005296D02*
X0016362D01*
X0016880Y0005152D02*
X0016263D01*
X0017120Y0003568D02*
X0016640D01*
X0017120Y0003856D02*
X0016274D01*
X0014832Y0003390D02*
X0014704D01*
X0016850Y0005368D02*
X0016383D01*
X0016274Y0003935D02*
X0015554D01*
X0012600Y0004400D02*
Y0003360D01*
X0013810Y0003390D02*
X0013682D01*
X0014224Y0004550D02*
Y0003390D01*
X0012712Y0005672D02*
Y0003380D01*
X0015448Y0004550D02*
Y0003604D01*
X0016832Y0005760D02*
X0016475D01*
X0011959Y0005157D02*
X0012518Y0004598D01*
X0017120Y0004144D02*
X0012600D01*
X0013170Y0003390D02*
Y0003380D01*
X0015310Y0003390D02*
X0015088D01*
X0016640Y0003840D02*
Y0003280D01*
X0017120D02*
X0016640D01*
X0017120Y0004880D02*
Y0003280D01*
X0016880Y0005120D02*
X0017120Y0004880D01*
X0015088Y0003390D02*
X0014960D01*
X0016024Y0005051D02*
Y0003935D01*
X0016528Y0005760D02*
Y0003840D01*
X0016475Y0005760D02*
Y0005600D01*
X0015664Y0005242D02*
Y0003935D01*
X0015880Y0005069D02*
Y0003935D01*
X0016832Y0005584D02*
X0016475D01*
X0016832Y0005512D02*
X0016462D01*
X0015808Y0005101D02*
Y0003935D01*
X0012640Y0005600D02*
Y0003380D01*
X0016836Y0005440D02*
X0016431D01*
X0015344Y0004550D02*
X0015089D01*
X0014656D02*
Y0003390D01*
X0013682Y0004550D02*
X0013426D01*
X0014193Y0003390D02*
X0014066D01*
X0014449Y0004550D02*
X0014322D01*
X0015736Y0005153D02*
Y0003935D01*
X0016880Y0005285D02*
Y0005120D01*
X0016920Y0005080D02*
X0016150D01*
X0014872Y0004550D02*
Y0003390D01*
X0015611Y0005406D02*
X0015600Y0005395D01*
X0012208Y0005408D02*
Y0004908D01*
X0012136Y0005336D02*
Y0004980D01*
X0012280Y0005480D02*
Y0004836D01*
X0013280Y0005224D02*
X0012024D01*
X0013280Y0005296D02*
X0012096D01*
X0015554Y0003784D02*
X0012600D01*
X0017120Y0004432D02*
X0012598D01*
X0017120Y0004216D02*
X0012600D01*
X0012352Y0005520D02*
Y0004764D01*
X0012424Y0005520D02*
Y0004692D01*
X0015554Y0003928D02*
X0012600D01*
X0013288Y0004640D02*
Y0003390D01*
X0013426Y0004640D02*
Y0004550D01*
X0017120Y0004504D02*
X0012580D01*
X0013280Y0004936D02*
X0012180D01*
X0013426Y0004576D02*
X0012538D01*
X0017120Y0004072D02*
X0012600D01*
X0012496Y0005520D02*
Y0004620D01*
X0017032Y0004968D02*
Y0003280D01*
X0016992Y0005008D02*
X0015600D01*
X0015737Y0005152D02*
X0015600D01*
X0015617Y0005368D02*
X0015600D01*
X0015638Y0005296D02*
X0015600D01*
X0016960Y0005040D02*
Y0003280D01*
X0013864Y0004550D02*
Y0003390D01*
X0015554Y0003712D02*
X0012600D01*
X0012064Y0005264D02*
Y0005052D01*
X0015484Y0003640D02*
X0012600D01*
X0014704Y0003390D02*
X0014577D01*
X0014193D02*
X0014066D01*
X0017120Y0003424D02*
X0016640D01*
X0017120Y0003496D02*
X0016640D01*
X0016456Y0005492D02*
Y0003840D01*
X0016312Y0005206D02*
Y0003840D01*
X0015850Y0005080D02*
X0015600D01*
X0015412Y0003568D02*
X0012600D01*
X0017120Y0004000D02*
X0012600D01*
X0017120Y0003928D02*
X0016274D01*
X0013280Y0005368D02*
X0012168D01*
X0013280Y0004720D02*
X0012396D01*
X0014704Y0004550D02*
X0014449D01*
X0024512Y0018800D02*
Y0017360D01*
X0024440Y0018800D02*
Y0017360D01*
X0024368Y0018800D02*
Y0017360D01*
X0024296Y0018800D02*
Y0017360D01*
X0024224Y0018800D02*
Y0017360D01*
X0024152Y0018800D02*
Y0017360D01*
X0024080Y0018800D02*
Y0017360D01*
X0024008Y0018800D02*
Y0017360D01*
X0023936Y0018800D02*
Y0017360D01*
X0026160Y0018732D02*
X0023860D01*
X0026160Y0018660D02*
X0023860D01*
X0026160Y0018588D02*
X0023860D01*
X0026160Y0018516D02*
X0023860D01*
X0026160Y0018444D02*
X0023860D01*
X0026160Y0018372D02*
X0023860D01*
X0026160Y0018300D02*
X0023860D01*
X0026160Y0018228D02*
X0023860D01*
X0026160Y0018156D02*
X0023860D01*
X0026160Y0018012D02*
X0023860D01*
X0026100Y0017940D02*
X0023860D01*
X0026028Y0017868D02*
X0023860D01*
X0025956Y0017796D02*
X0023860D01*
X0025884Y0017724D02*
X0023860D01*
X0025812Y0017652D02*
X0023860D01*
X0025740Y0017580D02*
X0023860D01*
X0025668Y0017508D02*
X0023860D01*
X0025596Y0017436D02*
X0023860D01*
X0026160Y0018800D02*
X0023860D01*
X0026160D02*
Y0018000D01*
X0025520Y0017360D01*
X0023860D01*
Y0018800D02*
Y0017360D01*
X0026160Y0018084D02*
X0023860D01*
X0026096Y0018800D02*
Y0017936D01*
X0026024Y0018800D02*
Y0017864D01*
X0025952Y0018800D02*
Y0017792D01*
X0025880Y0018800D02*
Y0017720D01*
X0025808Y0018800D02*
Y0017648D01*
X0025736Y0018800D02*
Y0017576D01*
X0025664Y0018800D02*
Y0017504D01*
X0025592Y0018800D02*
Y0017432D01*
X0025520Y0018800D02*
Y0017360D01*
X0025448Y0018800D02*
Y0017360D01*
X0025376Y0018800D02*
Y0017360D01*
X0025304Y0018800D02*
Y0017360D01*
X0025232Y0018800D02*
Y0017360D01*
X0025160Y0018800D02*
Y0017360D01*
X0025088Y0018800D02*
Y0017360D01*
X0025016Y0018800D02*
Y0017360D01*
X0024944Y0018800D02*
Y0017360D01*
X0024872Y0018800D02*
Y0017360D01*
X0024800Y0018800D02*
Y0017360D01*
X0024728Y0018800D02*
Y0017360D01*
X0024656Y0018800D02*
Y0017360D01*
X0024584Y0018800D02*
Y0017360D01*
X0024656Y0012800D02*
Y0011360D01*
X0024584Y0012800D02*
Y0011360D01*
X0024512Y0012800D02*
Y0011360D01*
X0024440Y0012800D02*
Y0011360D01*
X0024368Y0012800D02*
Y0011360D01*
X0024296Y0012800D02*
Y0011360D01*
X0024224Y0012800D02*
Y0011360D01*
X0024152Y0012800D02*
Y0011360D01*
X0024080Y0012800D02*
Y0011360D01*
X0024008Y0012800D02*
Y0011360D01*
X0023936Y0012800D02*
Y0011360D01*
X0026000Y0013380D02*
X0025940D01*
X0026000Y0013308D02*
X0025868D01*
X0026000Y0013236D02*
X0025796D01*
X0026000Y0013164D02*
X0025724D01*
X0026000Y0013092D02*
X0025652D01*
X0026000Y0013020D02*
X0025580D01*
X0026000Y0012948D02*
X0025508D01*
X0026000Y0012876D02*
X0025436D01*
X0026000Y0012804D02*
X0025364D01*
X0026000Y0012732D02*
X0023860D01*
X0026000Y0012660D02*
X0023860D01*
X0026000Y0012588D02*
X0023860D01*
X0026000Y0012516D02*
X0023860D01*
X0023864Y0012800D02*
Y0011360D01*
X0026000Y0012372D02*
X0023860D01*
X0026000Y0012300D02*
X0023860D01*
X0026000Y0012228D02*
X0023860D01*
X0026000Y0012156D02*
X0023860D01*
X0026000Y0012084D02*
X0023860D01*
X0026000Y0012012D02*
X0023860D01*
X0026000Y0011940D02*
X0023860D01*
X0026000Y0011868D02*
X0023860D01*
X0026000Y0011796D02*
X0023860D01*
X0026000Y0011724D02*
X0023860D01*
X0025972Y0011652D02*
X0023860D01*
X0025900Y0011580D02*
X0023860D01*
X0025828Y0011508D02*
X0023860D01*
X0025756Y0011436D02*
X0023860D01*
Y0011560D02*
Y0011360D01*
X0025680D02*
X0023860D01*
X0026000Y0011680D02*
X0025680Y0011360D01*
X0026000Y0013440D02*
Y0011680D01*
Y0013440D02*
X0025360Y0012800D01*
X0023860D01*
Y0011560D01*
X0026000Y0012444D02*
X0023860D01*
X0025952Y0013392D02*
Y0011632D01*
X0025880Y0013320D02*
Y0011560D01*
X0025808Y0013248D02*
Y0011488D01*
X0025736Y0013176D02*
Y0011416D01*
X0025664Y0013104D02*
Y0011360D01*
X0025592Y0013032D02*
Y0011360D01*
X0025520Y0012960D02*
Y0011360D01*
X0025448Y0012888D02*
Y0011360D01*
X0025376Y0012816D02*
Y0011360D01*
X0025304Y0012800D02*
Y0011360D01*
X0025232Y0012800D02*
Y0011360D01*
X0025160Y0012800D02*
Y0011360D01*
X0025088Y0012800D02*
Y0011360D01*
X0025016Y0012800D02*
Y0011360D01*
X0024944Y0012800D02*
Y0011360D01*
X0024872Y0012800D02*
Y0011360D01*
X0024800Y0012800D02*
Y0011360D01*
X0024728Y0012800D02*
Y0011360D01*
X0022148Y0012708D02*
Y0011360D01*
X0022076Y0012636D02*
Y0011360D01*
X0023660Y0012732D02*
X0022172D01*
X0023660Y0012660D02*
X0022100D01*
X0023660Y0012588D02*
X0022028D01*
X0023660Y0012516D02*
X0022000D01*
X0023660Y0012444D02*
X0022000D01*
X0023660Y0012372D02*
X0022000D01*
X0023660Y0012300D02*
X0022000D01*
X0023660Y0012228D02*
X0022000D01*
X0023660Y0012156D02*
X0022000D01*
X0023660Y0012012D02*
X0022000D01*
X0023660Y0011940D02*
X0022000D01*
X0023660Y0011868D02*
X0022000D01*
X0023660Y0011796D02*
X0022000D01*
X0023660Y0011724D02*
X0022000D01*
X0023660Y0011652D02*
X0022000D01*
X0023660Y0011580D02*
X0022000D01*
X0023660Y0011508D02*
X0022000D01*
X0023660Y0011436D02*
X0022000D01*
X0023660Y0012084D02*
X0022000D01*
X0023588Y0012800D02*
Y0011360D01*
X0023516Y0012800D02*
Y0011360D01*
X0023444Y0012800D02*
Y0011360D01*
X0023372Y0012800D02*
Y0011360D01*
X0023300Y0012800D02*
Y0011360D01*
X0023228Y0012800D02*
Y0011360D01*
X0023156Y0012800D02*
Y0011360D01*
X0023084Y0012800D02*
Y0011360D01*
X0023012Y0012800D02*
Y0011360D01*
X0022940Y0012800D02*
Y0011360D01*
X0022868Y0012800D02*
Y0011360D01*
X0022796Y0012800D02*
Y0011360D01*
X0022724Y0012800D02*
Y0011360D01*
X0022652Y0012800D02*
Y0011360D01*
X0022580Y0012800D02*
Y0011360D01*
X0022508Y0012800D02*
Y0011360D01*
X0022436Y0012800D02*
Y0011360D01*
X0022364Y0012800D02*
Y0011360D01*
X0022292Y0012800D02*
Y0011360D01*
X0022220Y0012780D02*
Y0011360D01*
X0023660Y0012800D02*
Y0011360D01*
X0022000D01*
Y0012560D02*
Y0011360D01*
X0022240Y0012800D02*
X0022000Y0012560D01*
X0023660Y0012800D02*
X0022240D01*
X0022124Y0018604D02*
Y0017200D01*
X0022052Y0018532D02*
Y0017200D01*
X0021980Y0018460D02*
Y0017200D01*
X0021908Y0018388D02*
Y0017200D01*
X0021836Y0018316D02*
Y0017200D01*
X0023660Y0018788D02*
X0022308D01*
X0023660Y0018716D02*
X0022236D01*
X0023660Y0018644D02*
X0022164D01*
X0023660Y0018572D02*
X0022092D01*
X0023660Y0018500D02*
X0022020D01*
X0023660Y0018428D02*
X0021948D01*
X0023660Y0018356D02*
X0021876D01*
X0023660Y0018284D02*
X0021804D01*
X0023660Y0018212D02*
X0021760D01*
X0023660Y0018140D02*
X0021760D01*
X0023660Y0017996D02*
X0021760D01*
X0023660Y0017924D02*
X0021760D01*
X0023660Y0017852D02*
X0021760D01*
X0023660Y0017780D02*
X0021760D01*
X0023660Y0017708D02*
X0021760D01*
X0023660Y0017636D02*
X0021760D01*
X0023660Y0017564D02*
X0021760D01*
X0023660Y0017492D02*
X0021760D01*
X0023660Y0017420D02*
X0021760D01*
X0022788Y0017348D02*
X0021760D01*
X0022716Y0017276D02*
X0021760D01*
X0022800Y0017360D02*
X0022640Y0017200D01*
X0021760D01*
Y0018240D02*
Y0017200D01*
X0022320Y0018800D02*
X0021760Y0018240D01*
X0023660Y0018800D02*
X0022320D01*
X0023660D02*
Y0018060D01*
Y0018068D02*
X0021760D01*
X0023636Y0018800D02*
Y0017360D01*
X0023564Y0018800D02*
Y0017360D01*
X0023492Y0018800D02*
Y0017360D01*
X0023420Y0018800D02*
Y0017360D01*
X0023348Y0018800D02*
Y0017360D01*
X0023276Y0018800D02*
Y0017360D01*
X0023204Y0018800D02*
Y0017360D01*
X0023132Y0018800D02*
Y0017360D01*
X0023060Y0018800D02*
Y0017360D01*
X0022988Y0018800D02*
Y0017360D01*
X0022916Y0018800D02*
Y0017360D01*
X0022844Y0018800D02*
Y0017360D01*
X0022772Y0018800D02*
Y0017332D01*
X0022700Y0018800D02*
Y0017260D01*
X0022628Y0018800D02*
Y0017200D01*
X0022556Y0018800D02*
Y0017200D01*
X0022484Y0018800D02*
Y0017200D01*
X0022412Y0018800D02*
Y0017200D01*
X0022340Y0018800D02*
Y0017200D01*
X0022268Y0018748D02*
Y0017200D01*
X0022196Y0018676D02*
Y0017200D01*
X0023660Y0018060D02*
Y0017360D01*
X0022800D01*
X0006320Y0021680D02*
Y0020560D01*
X0006160Y0021840D02*
X0006320Y0021680D01*
X0006160Y0021840D02*
X0005040D01*
X0004800Y0022080D02*
X0005040Y0021840D01*
X0004800Y0022960D02*
Y0022080D01*
X0004640Y0023120D02*
X0004800Y0022960D01*
X0004640Y0023120D02*
X0002560D01*
X0006288Y0021712D02*
Y0020528D01*
X0006320Y0021672D02*
X0002400D01*
X0006216Y0021784D02*
Y0020456D01*
X0006144Y0021840D02*
Y0020384D01*
X0006072Y0021840D02*
Y0020312D01*
X0006000Y0021840D02*
Y0020240D01*
X0005928Y0021840D02*
Y0020168D01*
X0005856Y0021840D02*
Y0020160D01*
X0005784Y0021840D02*
Y0020160D01*
X0005712Y0021840D02*
Y0020160D01*
X0005640Y0021840D02*
Y0020160D01*
X0005568Y0021840D02*
Y0020160D01*
X0005496Y0021840D02*
Y0020160D01*
X0005352Y0021840D02*
Y0020160D01*
X0005280Y0021840D02*
Y0020160D01*
X0005208Y0021840D02*
Y0020160D01*
X0005136Y0021840D02*
Y0020160D01*
X0004488Y0023120D02*
Y0020200D01*
X0004992Y0021888D02*
Y0020160D01*
X0004920Y0021960D02*
Y0020173D01*
X0004776Y0022984D02*
Y0020200D01*
X0004704Y0023056D02*
Y0020200D01*
X0004632Y0023120D02*
Y0020200D01*
X0004560Y0023120D02*
Y0020200D01*
X0004344Y0023120D02*
Y0020200D01*
X0004272Y0023120D02*
Y0020200D01*
X0004200Y0023120D02*
Y0020200D01*
X0004128Y0023120D02*
Y0020200D01*
X0004056Y0023120D02*
Y0020200D01*
X0003984Y0023120D02*
Y0020200D01*
X0003912Y0023120D02*
Y0020200D01*
X0003840Y0023120D02*
Y0020200D01*
X0003768Y0023120D02*
Y0020200D01*
X0003696Y0023120D02*
Y0020200D01*
X0003624Y0023120D02*
Y0020200D01*
X0003552Y0023120D02*
Y0020200D01*
X0002400Y0021280D02*
X0003480Y0020200D01*
X0003192Y0023120D02*
Y0020488D01*
X0003336Y0023120D02*
Y0020344D01*
X0003048Y0023120D02*
Y0020632D01*
X0002976Y0023120D02*
Y0020704D01*
X0002904Y0023120D02*
Y0020776D01*
X0002832Y0023120D02*
Y0020848D01*
X0002760Y0023120D02*
Y0020920D01*
X0002688Y0023120D02*
Y0020992D01*
X0002616Y0023120D02*
Y0021064D01*
X0004800Y0020200D02*
X0003480D01*
X0005064Y0021840D02*
Y0020160D01*
X0004648Y0023112D02*
X0002552D01*
X0004720Y0023040D02*
X0002480D01*
X0004792Y0022968D02*
X0002408D01*
X0004800Y0022896D02*
X0002400D01*
X0004800Y0022824D02*
X0002400D01*
X0004800Y0022752D02*
X0002400D01*
X0004800Y0022680D02*
X0002400D01*
X0004800Y0022608D02*
X0002400D01*
X0004800Y0022536D02*
X0002400D01*
X0004800Y0022464D02*
X0002400D01*
X0004800Y0022392D02*
X0002400D01*
X0004800Y0022320D02*
X0002400D01*
X0004800Y0022176D02*
X0002400D01*
X0004800Y0022104D02*
X0002400D01*
X0004848Y0022032D02*
X0002400D01*
X0004920Y0021960D02*
X0002400D01*
X0004992Y0021888D02*
X0002400D01*
X0006184Y0021816D02*
X0002400D01*
X0006256Y0021744D02*
X0002400D01*
X0006320Y0021600D02*
X0002400D01*
X0006320Y0021528D02*
X0002400D01*
X0006320Y0021456D02*
X0002400D01*
X0006320Y0021384D02*
X0002400D01*
X0006320Y0021312D02*
X0002400D01*
X0006320Y0021240D02*
X0002440D01*
X0006320Y0021168D02*
X0002512D01*
X0004416Y0023120D02*
Y0020200D01*
X0002472Y0023032D02*
Y0021208D01*
X0006320Y0020880D02*
X0002800D01*
X0006320Y0020808D02*
X0002872D01*
X0006320Y0021096D02*
X0002584D01*
X0006320Y0020736D02*
X0002944D01*
X0006320Y0020664D02*
X0003016D01*
X0004848Y0022032D02*
Y0020196D01*
X0006320Y0020592D02*
X0003088D01*
X0006208Y0020448D02*
X0003232D01*
X0002544Y0023104D02*
Y0021136D01*
X0006064Y0020304D02*
X0003376D01*
X0006136Y0020376D02*
X0003304D01*
X0003480Y0023120D02*
Y0020200D01*
X0005424Y0021840D02*
Y0020160D01*
X0003408Y0023120D02*
Y0020272D01*
X0005992Y0020232D02*
X0003448D01*
X0005920Y0020160D02*
X0004944D01*
X0003120Y0023120D02*
Y0020560D01*
X0004800Y0022248D02*
X0002400D01*
X0006280Y0020520D02*
X0003160D01*
X0006320Y0020952D02*
X0002728D01*
X0006320Y0021024D02*
X0002656D01*
X0002560Y0023120D02*
X0002400Y0022960D01*
Y0021280D01*
X0003264Y0023120D02*
Y0020416D01*
X0006320Y0020560D02*
X0005920Y0020160D01*
X0004800Y0024104D02*
X0002400D01*
X0004800Y0024032D02*
X0002400D01*
X0004800Y0023960D02*
X0002400D01*
X0004800Y0023888D02*
X0002400D01*
X0002192Y0029040D02*
Y0025808D01*
X0004784Y0023744D02*
X0002416D01*
X0002696Y0028904D02*
Y0023600D01*
X0005040Y0025832D02*
X0002168D01*
X0005040Y0025760D02*
X0002240D01*
X0005040Y0025688D02*
X0002312D01*
X0005040Y0025616D02*
X0002384D01*
X0005040Y0025544D02*
X0002400D01*
X0005040Y0025472D02*
X0002400D01*
X0005040Y0025400D02*
X0002400D01*
X0005040Y0025328D02*
X0002400D01*
X0005040Y0025256D02*
X0002400D01*
X0005040Y0025184D02*
X0002400D01*
X0005040Y0025112D02*
X0002400D01*
X0005040Y0025040D02*
X0002400D01*
X0005040Y0024968D02*
X0002400D01*
X0002120Y0029040D02*
Y0025880D01*
X0002048Y0029040D02*
Y0025952D01*
X0001976Y0029040D02*
Y0026024D01*
X0001904Y0029040D02*
Y0026080D01*
X0001832Y0029040D02*
Y0026080D01*
X0001760Y0029040D02*
Y0026080D01*
X0001688Y0029040D02*
Y0026080D01*
X0001616Y0029040D02*
Y0026080D01*
X0001472Y0029040D02*
Y0026080D01*
X0001400Y0029040D02*
Y0026080D01*
X0001328Y0029040D02*
Y0026080D01*
X0001256Y0029040D02*
Y0026080D01*
X0001184Y0029040D02*
Y0026080D01*
X0001112Y0029040D02*
Y0026080D01*
X0001040Y0029040D02*
Y0026080D01*
X0000968Y0029040D02*
Y0026080D01*
X0000896Y0029040D02*
Y0026080D01*
X0000824Y0029040D02*
Y0026080D01*
X0000752Y0029040D02*
Y0026080D01*
X0005040Y0024896D02*
X0002400D01*
X0004984Y0024824D02*
X0002400D01*
X0004912Y0024752D02*
X0002400D01*
X0004840Y0024680D02*
X0002400D01*
X0004800Y0024608D02*
X0002400D01*
X0004712Y0023672D02*
X0002488D01*
X0003104Y0028496D02*
X0000320D01*
X0004064Y0027536D02*
Y0023600D01*
X0004800Y0024464D02*
X0002400D01*
X0004800Y0023816D02*
X0002400D01*
X0000320Y0029040D02*
Y0026080D01*
X0001920D02*
X0000320D01*
X0001920D02*
X0002400Y0025600D01*
Y0023760D01*
X0002560Y0023600D01*
X0004640D02*
X0002560D01*
X0004800Y0023760D02*
X0004640Y0023600D01*
X0004800Y0024640D02*
Y0023760D01*
X0005040Y0024880D02*
X0004800Y0024640D01*
X0005040Y0026560D02*
Y0024880D01*
X0002560Y0029040D02*
X0005040Y0026560D01*
X0002560Y0029040D02*
X0000320D01*
X0005040Y0026336D02*
X0000320D01*
X0005000Y0026600D02*
Y0024840D01*
X0004928Y0026672D02*
Y0024768D01*
X0004856Y0026744D02*
Y0024696D01*
X0004712Y0026888D02*
Y0023672D01*
X0004640Y0026960D02*
Y0023600D01*
X0004568Y0027032D02*
Y0023600D01*
X0004496Y0027104D02*
Y0023600D01*
X0004424Y0027176D02*
Y0023600D01*
X0004352Y0027248D02*
Y0023600D01*
X0004280Y0027320D02*
Y0023600D01*
X0004136Y0027464D02*
Y0023600D01*
X0003992Y0027608D02*
Y0023600D01*
X0003920Y0027680D02*
Y0023600D01*
X0003848Y0027752D02*
Y0023600D01*
X0003776Y0027824D02*
Y0023600D01*
X0003704Y0027896D02*
Y0023600D01*
X0003632Y0027968D02*
Y0023600D01*
X0003560Y0028040D02*
Y0023600D01*
X0003488Y0028112D02*
Y0023600D01*
X0003416Y0028184D02*
Y0023600D01*
X0003344Y0028256D02*
Y0023600D01*
X0003272Y0028328D02*
Y0023600D01*
X0003200Y0028400D02*
Y0023600D01*
X0003128Y0028472D02*
Y0023600D01*
X0003056Y0028544D02*
Y0023600D01*
X0002984Y0028616D02*
Y0023600D01*
X0002912Y0028688D02*
Y0023600D01*
X0002840Y0028760D02*
Y0023600D01*
X0002768Y0028832D02*
Y0023600D01*
X0002624Y0028976D02*
Y0023600D01*
X0002552Y0029040D02*
Y0023608D01*
X0002480Y0029040D02*
Y0023680D01*
X0002408Y0029040D02*
Y0023752D01*
X0002336Y0029040D02*
Y0025664D01*
X0002264Y0029040D02*
Y0025736D01*
X0005040Y0025904D02*
X0002096D01*
X0000680Y0029040D02*
Y0026080D01*
X0000608Y0029040D02*
Y0026080D01*
X0000536Y0029040D02*
Y0026080D01*
X0000464Y0029040D02*
Y0026080D01*
X0004784Y0026816D02*
Y0023744D01*
X0004208Y0027392D02*
Y0023600D01*
X0002600Y0029000D02*
X0000320D01*
X0002672Y0028928D02*
X0000320D01*
X0002744Y0028856D02*
X0000320D01*
X0002816Y0028784D02*
X0000320D01*
X0002888Y0028712D02*
X0000320D01*
X0002960Y0028640D02*
X0000320D01*
X0003032Y0028568D02*
X0000320D01*
X0003248Y0028352D02*
X0000320D01*
X0003320Y0028280D02*
X0000320D01*
X0003392Y0028208D02*
X0000320D01*
X0003464Y0028136D02*
X0000320D01*
X0003536Y0028064D02*
X0000320D01*
X0003608Y0027992D02*
X0000320D01*
X0003680Y0027920D02*
X0000320D01*
X0003752Y0027848D02*
X0000320D01*
X0003824Y0027776D02*
X0000320D01*
X0003896Y0027704D02*
X0000320D01*
X0003968Y0027632D02*
X0000320D01*
X0004040Y0027560D02*
X0000320D01*
X0004112Y0027488D02*
X0000320D01*
X0004184Y0027416D02*
X0000320D01*
X0004256Y0027344D02*
X0000320D01*
X0004328Y0027272D02*
X0000320D01*
X0004400Y0027200D02*
X0000320D01*
X0004472Y0027128D02*
X0000320D01*
X0004544Y0027056D02*
X0000320D01*
X0004616Y0026984D02*
X0000320D01*
X0004688Y0026912D02*
X0000320D01*
X0004760Y0026840D02*
X0000320D01*
X0004832Y0026768D02*
X0000320D01*
X0004904Y0026696D02*
X0000320D01*
X0004976Y0026624D02*
X0000320D01*
X0005040Y0026552D02*
X0000320D01*
X0005040Y0026480D02*
X0000320D01*
X0005040Y0026408D02*
X0000320D01*
X0005040Y0026264D02*
X0000320D01*
X0005040Y0026192D02*
X0000320D01*
X0005040Y0026120D02*
X0000320D01*
X0005040Y0026048D02*
X0001952D01*
X0005040Y0025976D02*
X0002024D01*
X0001544Y0029040D02*
Y0026080D01*
X0004800Y0024392D02*
X0002400D01*
X0000392Y0029040D02*
Y0026080D01*
X0003176Y0028424D02*
X0000320D01*
X0004800Y0024536D02*
X0002400D01*
X0004800Y0024320D02*
X0002400D01*
X0004800Y0024248D02*
X0002400D01*
X0004800Y0024176D02*
X0002400D01*
G01X0016832Y0005508D02*
G03X0016880Y0005285I0000540J0000000D01*
G01X0015402Y0003558D02*
G03X0015323Y0003403I0000198J0000198D01*
G01X0016000Y0005050D02*
G03X0016385Y0005380I0000000J0000390D01*
G03X0016475Y0005600I0000225J0000220D01*
G01X0015402Y0003558D02*
G03X0015323Y0003403I0000198J0000198D01*
G01X0012600Y0004400D02*
G03X0012518Y0004598I0000280J0000000D01*
G01X0015611Y0005406D02*
G03X0016000Y0005050I0000389J0000034D01*
G01X0004944Y0020160D02*
G03X0004800Y0020200I0000144J0000240D01*
G54D44*
G01X0011920Y0017890D02*
X0010480D01*
X0020915Y0013115D02*
Y0013885D01*
X0020240Y0014560D01*
X0019280D01*
X0010480Y0017890D02*
Y0017640D01*
X0009780Y0016940D01*
X0010000Y0007200D02*
X0010480Y0007680D01*
Y0008560D01*
X0011680Y0009760D01*
Y0012320D01*
X0012480Y0013120D01*
Y0015280D01*
X0013120Y0015920D01*
X0015440D01*
X0016526Y0014834D01*
X0016972D01*
G54D46*
G01X0016240Y0021840D02*
Y0021914D01*
Y0021834D01*
X0015840Y0021440D01*
Y0020960D01*
X0016160Y0020640D01*
X0016560D01*
X0016890Y0012180D02*
Y0012550D01*
X0016800Y0012640D01*
X0016720D01*
Y0013114D01*
X0012960Y0010680D02*
Y0010920D01*
X0014680Y0012640D01*
X0016720D01*
Y0013114D01*
X0014768Y0002800D02*
Y0002368D01*
X0014560Y0002160D01*
X0011440Y0024726D02*
X0011446Y0024720D01*
X0011760D01*
X0012160Y0024320D01*
X0012540D01*
X0014160Y0022700D01*
Y0021760D01*
X0014480Y0021440D01*
X0015840D01*
X0016240Y0021834D01*
Y0021914D01*
X0014257Y0005140D02*
Y0004098D01*
X0014385Y0003970D01*
X0014335Y0003920D01*
X0013490D01*
Y0005140D01*
X0013260D01*
X0012954Y0005446D01*
Y0006160D01*
X0017840Y0021240D02*
X0017838Y0021238D01*
Y0020640D01*
X0018168Y0012180D02*
Y0012808D01*
X0018400Y0013040D01*
Y0013200D01*
X0018560Y0013360D01*
X0012603Y0003040D02*
Y0003483D01*
X0013040Y0003920D01*
X0013490D01*
Y0005140D01*
X0014160Y0005920D02*
X0014002Y0005762D01*
Y0005140D01*
X0016160Y0006800D02*
Y0005600D01*
X0016000Y0005440D01*
X0017327Y0018300D02*
Y0017807D01*
X0016880Y0017360D01*
X0016400D01*
X0016240Y0017200D01*
X0016080D01*
X0016006Y0017274D01*
X0015760D01*
X0014769Y0005140D02*
Y0005809D01*
X0014960Y0006000D01*
X0015114D01*
X0016240Y0017200D02*
X0016400Y0017360D01*
X0016880D01*
X0017327Y0017807D01*
Y0018300D01*
X0016240Y0007760D02*
Y0008554D01*
X0015114Y0006000D02*
Y0006234D01*
X0015680Y0006800D01*
X0016160D01*
X0016240Y0007760D02*
Y0008554D01*
X0018388Y0016526D02*
Y0016972D01*
X0017838Y0017522D01*
Y0018300D01*
X0014513Y0005140D02*
Y0006033D01*
X0014683Y0006203D01*
Y0006800D01*
X0015280Y0005140D02*
Y0005520D01*
X0015606Y0005846D01*
Y0006000D01*
X0013746Y0005140D02*
Y0006014D01*
X0013600Y0006160D01*
X0013446D01*
X0017372Y0008126D02*
Y0008587D01*
X0017912Y0009128D01*
Y0009840D01*
X0017327Y0018300D02*
Y0017807D01*
X0016880Y0017360D01*
X0016400D01*
X0016240Y0017200D01*
X0016080D01*
X0015834Y0017274D02*
X0015760D01*
X0014769Y0005140D02*
Y0005680D01*
X0015024D01*
Y0005140D01*
X0016972Y0016526D02*
Y0016927D01*
X0017583Y0017537D01*
Y0018300D01*
X0018788Y0008126D02*
Y0008508D01*
X0018168Y0009128D01*
Y0009840D01*
X0017657D02*
Y0009257D01*
X0017360Y0008960D01*
X0016960D01*
X0016554Y0008554D01*
X0016240D01*
G54D47*
G01X0012880Y0011920D02*
X0013920Y0012960D01*
Y0014720D01*
X0026142Y0019728D02*
Y0018228D01*
Y0013508D02*
X0026160Y0013490D01*
Y0012026D01*
X0026142Y0012008D01*
G54D49*
G01X0017720Y0004000D02*
Y0002560D01*
X0016960D01*
X0017720D02*
X0016960D01*
X0019070Y0004000D02*
Y0002560D01*
X0019980Y0003600D02*
Y0003700D01*
X0019680Y0004000D01*
X0019070D01*
X0018788Y0006434D02*
X0019554D01*
X0019780Y0006660D01*
X0020640D01*
X0018388Y0014834D02*
X0019006D01*
X0019280Y0014560D01*
X0011280Y0008160D02*
X0012400D01*
X0014240Y0010000D01*
Y0010800D01*
X0017372Y0006434D02*
Y0005508D01*
X0017680Y0005200D01*
G54D50*
G01X0020800Y0008610D02*
X0021250D01*
X0021360Y0008720D01*
X0021440D01*
X0020800Y0008610D02*
X0020190D01*
X0020000Y0008800D01*
Y0008874D01*
X0020800Y0009310D02*
X0020770Y0009280D01*
X0020400D01*
X0020314Y0009366D01*
X0020000D01*
X0020800Y0009310D02*
Y0009720D01*
X0020640Y0010234D02*
X0020966D01*
X0021280Y0009920D01*
X0022000Y0006960D02*
Y0008800D01*
X0021280Y0009520D01*
Y0009920D01*
X0020966Y0010234D01*
X0020640D01*
X0004240Y0029360D02*
X0004960Y0028640D01*
X0009440D01*
X0013520Y0024560D01*
X0020800D01*
X0022160Y0023200D01*
Y0019600D01*
X0022320Y0019440D01*
X0022640D01*
G54D51*
G01X0005010Y0025120D02*
Y0026000D01*
X0006720D01*
X0007760Y0024960D01*
X0010320D01*
X0010554Y0024726D01*
X0011440D01*
X0018160Y0022406D02*
X0017520D01*
X0016880D01*
X0015600Y0021914D02*
X0015286D01*
X0015237Y0021963D01*
X0014960D01*
X0023040Y0022530D02*
X0023890D01*
X0024088Y0022728D01*
X0026142D01*
X0006400Y0025440D02*
X0006080Y0025120D01*
X0005710D01*
X0016880Y0022406D02*
Y0022640D01*
X0016720Y0022800D01*
X0014560D01*
Y0022160D01*
X0014757Y0021963D01*
X0014960D01*
X0014757D01*
X0014560Y0022160D01*
Y0022900D01*
X0012740Y0024720D01*
X0012320D01*
X0011440Y0025600D01*
X0010660D01*
X0022240Y0017600D02*
X0021840Y0017200D01*
Y0016270D01*
G54D52*
G01X0023040Y0023230D02*
Y0023600D01*
X0023920Y0024480D01*
X0026111D01*
X0026142Y0024449D01*
X0009360Y0019010D02*
X0009680D01*
X0009910Y0019240D01*
X0010480D01*
X0011920D02*
X0010480D01*
G54D71*
G01X0022080Y0014640D02*
X0022320Y0014880D01*
Y0016560D01*
X0022517Y0016757D01*
X0022720D01*
X0021880Y0010460D02*
Y0010520D01*
X0022197Y0010837D01*
X0022560D01*
X0008277Y0022833D02*
X0007873D01*
X0007680Y0022640D01*
Y0022400D01*
X0006880Y0021600D01*
Y0020140D01*
X0006840Y0020100D01*
G54D72*
G01X0022720Y0016757D02*
Y0016880D01*
X0022862Y0017022D01*
X0023190D01*
X0022560Y0010837D02*
X0022757D01*
X0022942Y0011022D01*
X0023190D01*
G54D11*
X0009360Y0019710D03*
Y0019010D03*
X0020800Y0009310D03*
Y0008610D03*
X0021840Y0016270D03*
Y0015570D03*
X0023040Y0023230D03*
Y0022530D03*
X0007440Y0005230D03*
Y0004530D03*
G54D12*
X0019565Y0013115D03*
X0020915D03*
X0017720Y0004000D03*
X0019070D03*
X0017720Y0002560D03*
X0019070D03*
G54D15*
X0016160Y0006800D03*
X0014683D03*
G54D19*
X0026142Y0018228D03*
Y0019728D03*
Y0021228D03*
Y0022728D03*
Y0012008D03*
Y0013508D03*
Y0015008D03*
Y0016508D03*
Y0024449D03*
Y0025949D03*
Y0027449D03*
Y0028949D03*
X0001417Y0028150D03*
Y0026650D03*
Y0025150D03*
Y0023650D03*
G54D22*
X0022638Y0026772D03*
X0008858D03*
G54D23*
X0001969Y0018248D03*
Y0018741D03*
Y0019233D03*
Y0019726D03*
Y0020218D03*
Y0020711D03*
G54D24*
X0000828Y0021749D03*
Y0017245D03*
G54D31*
X0012997Y0002240D03*
X0012603D03*
X0015963Y0003120D03*
X0016357D03*
Y0002800D03*
X0015963D03*
X0011563Y0006160D03*
X0011957D03*
Y0006480D03*
X0011563D03*
X0006363Y0010160D03*
X0006757D03*
X0006363Y0011360D03*
X0006757D03*
X0006363Y0012560D03*
X0006757D03*
X0004437Y0019520D03*
X0004043D03*
X0012997Y0003040D03*
X0012603D03*
X0011563Y0005840D03*
X0011957D03*
X0006757Y0010480D03*
X0006363D03*
X0006757Y0011680D03*
X0006363D03*
X0006757Y0012880D03*
X0006363D03*
X0007803Y0002000D03*
X0008197D03*
G54D32*
X0013200Y0001483D03*
Y0001877D03*
X0006400Y0015083D03*
Y0015477D03*
X0015760Y0013557D03*
Y0013163D03*
X0024960Y0010597D03*
Y0010203D03*
X0022560Y0010837D03*
Y0010443D03*
X0014960Y0022357D03*
Y0021963D03*
X0024800Y0016757D03*
Y0016363D03*
X0022720Y0016757D03*
Y0016363D03*
X0007760Y0021477D03*
Y0021083D03*
X0008160Y0021477D03*
Y0021083D03*
X0012720Y0022357D03*
Y0021963D03*
X0009680Y0005957D03*
Y0005563D03*
X0008000Y0005243D03*
Y0005637D03*
X0008320Y0005243D03*
Y0005637D03*
X0010400Y0005563D03*
Y0005957D03*
X0010320Y0001957D03*
Y0001563D03*
G54D33*
X0005010Y0025120D03*
X0005710D03*
G54D38*
X0007360Y0017200D03*
X0022480Y0012080D03*
X0003840Y0020800D03*
X0012880Y0011920D03*
X0013920Y0014720D03*
X0022400Y0017600D03*
X0024680Y0007340D03*
X0020640Y0006660D03*
X0019280Y0014560D03*
X0012960Y0010680D03*
X0011360Y0013840D03*
X0007340Y0014880D03*
X0009780Y0016940D03*
X0013740Y0017160D03*
X0020800Y0020120D03*
X0015400D03*
X0010360Y0020380D03*
X0006840Y0020100D03*
X0005620Y0020800D03*
X0004740D03*
X0007360Y0016320D03*
G54D39*
X0012320Y0006320D03*
X0014560Y0002160D03*
X0020480Y0026320D03*
X0006400Y0029920D03*
X0004640Y0015360D03*
X0020720Y0025680D03*
X0020800Y0009720D03*
X0005280Y0010400D03*
X0004880Y0012560D03*
X0021280Y0009920D03*
X0019840Y0017520D03*
X0022000Y0006960D03*
X0025760Y0010640D03*
X0024960Y0009120D03*
X0004240Y0029360D03*
X0022640Y0019440D03*
X0020000Y0020480D03*
X0011120Y0003280D03*
X0009440Y0008240D03*
X0013440Y0020000D03*
X0011920D03*
X0007200Y0007680D03*
X0008320Y0007840D03*
X0008720Y0015360D03*
X0010560D03*
X0013680Y0021040D03*
X0016240Y0021280D03*
X0016000Y0005440D03*
X0014880Y0013040D03*
X0010320Y0014800D03*
X0009280Y0006640D03*
X0009520Y0001120D03*
X0000720Y0019440D03*
X0016240Y0017200D03*
X0007200Y0006080D03*
X0006160Y0008480D03*
X0006560Y0006080D03*
X0006000Y0008000D03*
X0006480Y0008160D03*
X0006880Y0006400D03*
X0000560Y0020240D03*
X0005840Y0005920D03*
X0006080Y0005280D03*
X0001120Y0019520D03*
X0017760Y0001600D03*
X0013200Y0000960D03*
X0003600Y0019040D03*
X0007760Y0003040D03*
X0016240Y0007760D03*
X0025280Y0020240D03*
X0026800Y0011200D03*
X0011760Y0005520D03*
X0011440Y0004480D03*
X0017260Y0021300D03*
X0014320Y0020640D03*
X0007520Y0002720D03*
X0011200Y0002240D03*
X0008480Y0008320D03*
X0011200Y0015360D03*
X0010640Y0016480D03*
X0009120Y0014960D03*
X0009440Y0013360D03*
X0008960Y0008080D03*
X0011200Y0002880D03*
X0017520Y0013200D03*
X0016720Y0011440D03*
X0017520Y0001200D03*
X0012720D03*
X0005600Y0008800D03*
X0019680Y0027040D03*
X0024000Y0028240D03*
X0012160Y0000880D03*
X0017840D03*
X0008320Y0018560D03*
X0002720Y0018080D03*
X0014560Y0018640D03*
X0019200Y0018160D03*
X0011520Y0001120D03*
X0010960Y0000800D03*
X0024560Y0029520D03*
Y0028880D03*
X0014160Y0005920D03*
X0021760Y0009600D03*
X0005040Y0011040D03*
X0004320Y0014880D03*
X0006000Y0007280D03*
X0006240Y0006320D03*
X0016240Y0016320D03*
X0004720Y0010720D03*
X0014480Y0007600D03*
X0007840Y0018560D03*
X0005120Y0012160D03*
X0015240Y0003740D03*
X0016800Y0003360D03*
Y0003760D03*
Y0004160D03*
X0016400D03*
X0016000D03*
X0015620D03*
X0015240D03*
X0012880Y0001600D03*
X0012600Y0001920D03*
X0004400Y0005440D03*
X0004240Y0002160D03*
X0004640Y0004880D03*
X0004400Y0005940D03*
X0012320Y0005840D03*
X0004240Y0001680D03*
X0008240Y0002400D03*
X0008560Y0002000D03*
X0010740Y0001560D03*
X0010560Y0002300D03*
X0007280Y0005680D03*
X0010800Y0005620D03*
Y0006080D03*
X0008800Y0006640D03*
X0009120Y0005040D03*
X0008320Y0004880D03*
X0008000Y0004640D03*
X0005440Y0007820D03*
X0004720Y0011380D03*
X0005840Y0010080D03*
X0006000Y0013520D03*
X0004720Y0011840D03*
X0006480Y0013434D03*
X0006080Y0014720D03*
X0005840Y0016240D03*
X0020240Y0009840D03*
X0022600Y0009880D03*
X0025500Y0008080D03*
X0024000Y0009820D03*
X0023520D03*
X0024640Y0008800D03*
X0024560Y0010320D03*
X0024780Y0011020D03*
X0026300Y0006720D03*
X0021440Y0008720D03*
X0021880Y0010460D03*
X0024760Y0013260D03*
X0022680Y0015140D03*
X0024800Y0015600D03*
Y0016000D03*
X0025120Y0016320D03*
X0025138Y0017022D03*
X0022080Y0014640D03*
X0025260Y0019440D03*
X0021840Y0015140D03*
X0018560Y0013360D03*
X0015440Y0012000D03*
X0015300Y0012980D03*
X0014800Y0018160D03*
X0013200Y0021120D03*
X0018720Y0020260D03*
X0019280Y0016380D03*
X0010640Y0021280D03*
X0012340Y0020320D03*
X0023000Y0020400D03*
X0017840Y0021240D03*
X0012560Y0021220D03*
X0007960Y0020720D03*
X0003420Y0017260D03*
X0001040Y0018240D03*
Y0020640D03*
X0006560Y0029280D03*
X0011280Y0027600D03*
X0006400Y0025440D03*
X0001680Y0029560D03*
G54D40*
X0016960Y0002560D03*
X0011280Y0008160D03*
X0014240Y0010800D03*
X0017680Y0005200D03*
X0010000Y0007200D03*
X0019980Y0003600D03*
X0019880Y0002560D03*
X0010660Y0025600D03*
G54D41*
X0025400Y0002020D03*
X0005140Y0000660D03*
X0013400Y0007260D03*
X0023180Y0013780D03*
X0013700Y0018300D03*
X0020920Y0022060D03*
X0002040Y0030700D03*
G54D53*
X0010480Y0019240D03*
Y0017890D03*
X0011920Y0019240D03*
Y0017890D03*
G54D54*
X0003034Y0019520D03*
X0003526D03*
X0026406Y0008080D03*
X0025914D03*
X0026406Y0009280D03*
X0025914D03*
X0026406Y0010000D03*
X0025914D03*
X0022874Y0009360D03*
X0023366D03*
X0015834Y0011600D03*
X0016326D03*
X0024394Y0019440D03*
X0024886D03*
X0019526Y0020000D03*
X0019034D03*
X0024394Y0020720D03*
X0024886D03*
Y0021360D03*
X0024394D03*
X0019526Y0020640D03*
X0019034D03*
X0022874Y0015600D03*
X0023366D03*
X0015766Y0019040D03*
X0015274D03*
X0013126Y0002640D03*
X0012634D03*
X0011994Y0023200D03*
X0012486D03*
X0011354Y0021280D03*
X0011846D03*
X0006874Y0022640D03*
X0007366D03*
X0006314Y0009760D03*
X0006806D03*
X0006314Y0010960D03*
X0006806D03*
X0006314Y0012160D03*
X0006806D03*
X0009606Y0024400D03*
X0009114D03*
X0025914Y0008720D03*
X0026406D03*
X0019514Y0011360D03*
X0020006D03*
Y0012000D03*
X0019514D03*
X0016326Y0012160D03*
X0015834D03*
X0023994Y0009360D03*
X0024486D03*
X0016326Y0010960D03*
X0015834D03*
X0024886Y0020080D03*
X0024394D03*
X0019526Y0021280D03*
X0019034D03*
X0023914Y0015600D03*
X0024406D03*
X0015766Y0018400D03*
X0015274D03*
X0015914Y0003520D03*
X0016406D03*
X0012954Y0006160D03*
X0013446D03*
X0015606Y0006000D03*
X0015114D03*
X0011846Y0020640D03*
X0011354D03*
G54D55*
X0002960Y0017194D03*
Y0017686D03*
X0020000Y0010726D03*
Y0010234D03*
X0020640D03*
Y0010726D03*
Y0011846D03*
Y0011354D03*
X0018000Y0013194D03*
Y0013686D03*
X0016240Y0013606D03*
Y0013114D03*
X0015520Y0008554D03*
Y0009046D03*
X0016720Y0013114D03*
Y0013606D03*
X0019440Y0022406D03*
Y0021914D03*
X0018160D03*
Y0022406D03*
X0015600D03*
Y0021914D03*
X0016240D03*
Y0022406D03*
X0015200Y0017766D03*
Y0017274D03*
X0013600Y0001434D03*
Y0001926D03*
X0011440Y0022406D03*
Y0021914D03*
Y0023686D03*
Y0023194D03*
X0012080Y0022406D03*
Y0021914D03*
X0007040Y0023846D03*
Y0023354D03*
X0011440Y0024726D03*
Y0024234D03*
X0008080Y0019526D03*
Y0019034D03*
X0008640Y0019526D03*
Y0019034D03*
X0014080Y0019766D03*
Y0019274D03*
X0019520Y0019126D03*
Y0018634D03*
X0019360Y0009594D03*
Y0010086D03*
X0020000Y0009366D03*
Y0008874D03*
X0016240Y0008554D03*
Y0009046D03*
X0019280Y0017286D03*
Y0016794D03*
X0018800Y0022406D03*
Y0021914D03*
X0017520D03*
Y0022406D03*
X0016880Y0021914D03*
Y0022406D03*
X0020560Y0016166D03*
Y0015674D03*
X0015760Y0017274D03*
Y0017766D03*
X0014080Y0001926D03*
Y0001434D03*
G54D56*
X0005089Y0018855D03*
X0004105D03*
G54D57*
Y0016849D03*
X0005089D03*
X0004597D03*
G54D58*
X0004114Y0022652D03*
Y0024068D03*
X0005806Y0022652D03*
Y0024068D03*
G54D59*
X0018788Y0006434D03*
X0017372D03*
X0018788Y0008126D03*
X0017372D03*
X0018388Y0014834D03*
X0016972D03*
X0018388Y0016526D03*
X0016972D03*
G54D60*
X0010531Y0003557D03*
X0008349D03*
X0010531Y0004344D03*
Y0004147D03*
Y0003950D03*
Y0003754D03*
Y0003360D03*
Y0003164D03*
Y0002967D03*
Y0002770D03*
X0008349D03*
Y0002967D03*
Y0003164D03*
Y0003360D03*
Y0003754D03*
Y0003950D03*
Y0004147D03*
Y0004344D03*
G54D61*
X0008653Y0004648D03*
X0009440D03*
Y0002465D03*
X0008850Y0004648D03*
X0009047D03*
X0009243D03*
X0009637D03*
X0009833D03*
X0010030D03*
X0010227D03*
Y0002465D03*
X0010030D03*
X0009833D03*
X0009637D03*
X0009243D03*
X0009047D03*
X0008850D03*
X0008653D03*
G54D62*
X0009440Y0003557D03*
G54D63*
X0010480Y0023600D03*
Y0023344D03*
Y0023088D03*
Y0022833D03*
Y0022577D03*
Y0022322D03*
Y0022066D03*
X0008277D03*
Y0022322D03*
Y0022577D03*
Y0022833D03*
Y0023089D03*
Y0023344D03*
Y0023600D03*
G54D64*
X0017785Y0011010D03*
X0017455Y0019470D03*
X0014385Y0003970D03*
G54D65*
X0016890Y0012180D03*
X0017146D03*
X0017401D03*
X0017657D03*
X0017912D03*
X0018168D03*
X0018424D03*
X0018679D03*
Y0009840D03*
X0018424D03*
X0018168D03*
X0017912D03*
X0017657D03*
X0017401D03*
X0017145D03*
X0016890D03*
X0016560Y0020640D03*
X0016816D03*
X0017072D03*
X0017327D03*
X0017583D03*
X0017838D03*
X0018094D03*
X0018350D03*
Y0018300D03*
X0018094D03*
X0017838D03*
X0017583D03*
X0017327D03*
X0017071D03*
X0016816D03*
X0016560D03*
X0015280Y0002800D03*
X0015024D03*
X0014768D03*
X0014513D03*
X0014257D03*
X0014002D03*
X0013746D03*
X0013490D03*
Y0005140D03*
X0013746D03*
X0014002D03*
X0014257D03*
X0014513D03*
X0014769D03*
X0015024D03*
X0015280D03*
G54D66*
X0023563Y0011612D03*
X0023957D03*
X0023563Y0017612D03*
X0023957D03*
G54D67*
X0024330Y0011022D03*
Y0010825D03*
X0023190D03*
Y0011022D03*
X0024330Y0017022D03*
Y0016825D03*
X0023190D03*
Y0017022D03*
G54D68*
X0023504Y0011612D03*
X0023642D03*
X0023878D03*
X0024035D03*
X0024055Y0010550D03*
X0023858D03*
X0023662D03*
X0023465D03*
X0023504Y0017612D03*
X0023642D03*
X0023878D03*
X0024035D03*
X0024055Y0016550D03*
X0023858D03*
X0023662D03*
X0023465D03*
G54D69*
X0005680Y0014720D03*
X0005424D03*
X0005168D03*
X0004913D03*
Y0015782D03*
X0005169D03*
X0005424D03*
X0005680D03*
G54D70*
X0009281Y0006160D03*
X0008799D03*
Y0005520D03*
X0009281D03*
M02*
