*
G04 Mass Parameters ***
*
G04 Image ***
*
%INC:\DOCUMENTS AND SETTINGS\ADMINISTRATOR\DOCUMENTI\LAVORI_ORCAD\CLIENTI_MARCO\BDC_V0\BDC.TOP*%
%ICAS*%
%MOIN*%
%IPPOS*%
%ASAXBY*%
G74*%FSLAN2X34Y34*%
*
G04 Aperture Definitions ***
*
%ADD10R,0.0870X0.1690*%
%ADD11R,0.0550X0.0340*%
%ADD12R,0.0640X0.1000*%
%ADD13R,0.1200X0.1000*%
%ADD14R,0.0900X0.1000*%
%ADD15R,0.0490X0.0790*%
%ADD16R,0.1460X0.1020*%
%ADD17R,0.0320X0.0320*%
%ADD18R,0.1100X0.0290*%
%ADD19C,0.1000*%
%ADD20R,0.0100X0.2100*%
%ADD21R,0.0940X0.3510*%
%ADD22C,0.2440*%
%ADD23R,0.0630X0.0280*%
%ADD24R,0.1180X0.0830*%
%ADD25R,0.0830X0.1180*%
%ADD26R,0.0280X0.0630*%
%ADD27R,0.4500X0.3500*%
%ADD28R,0.0820X0.1500*%
%ADD29R,0.2200X0.2300*%
%ADD30R,0.0560X0.0720*%
%ADD31R,0.0250X0.0200*%
%ADD32R,0.0200X0.0250*%
%ADD33R,0.0340X0.0550*%
%ADD34C,0.0590*%
%ADD35R,0.0810X0.1440*%
%ADD36R,0.3500X0.4500*%
%ADD37R,0.1500X0.0820*%
%ADD38C,0.0800*%
%ADD39C,0.0300*%
%ADD40C,0.0600*%
%ADD41C,0.0400*%
%ADD42C,0.0040*%
%ADD43C,0.0080*%
%ADD44C,0.0500*%
%ADD45C,0.2000*%
%ADD46C,0.0150*%
%ADD47C,0.0800*%
%ADD48C,0.0700*%
%ADD49C,0.0600*%
%ADD50C,0.0200*%
%ADD51C,0.0250*%
%ADD52C,0.0300*%
*
G04 Plot Data ***
*
G54D42*
G01X0015465Y0006626D02*
X0014678D01*
X0015465Y0006590D02*
X0014678D01*
X0015465Y0006554D02*
X0014678D01*
X0015465Y0006518D02*
X0014678D01*
X0015465Y0006482D02*
X0014678D01*
X0015465Y0006446D02*
X0014678D01*
X0015465Y0006410D02*
X0014678D01*
X0015465Y0006374D02*
X0014678D01*
X0015436Y0006338D02*
X0014678D01*
X0015400Y0006302D02*
X0014678D01*
X0015365Y0006267D02*
X0014678D01*
X0015329Y0006231D02*
X0014678D01*
X0015293Y0006195D02*
X0014678D01*
X0015257Y0006159D02*
X0014678D01*
X0015221Y0006123D02*
X0014678D01*
X0015185Y0006087D02*
X0014678D01*
X0015149Y0006051D02*
X0014678D01*
X0015113Y0006015D02*
X0014678D01*
X0015077Y0005979D02*
X0014678D01*
X0015052Y0005943D02*
X0014678D01*
X0015052Y0005907D02*
X0014678D01*
X0015052Y0005871D02*
X0014678D01*
X0015052Y0005835D02*
X0014678D01*
X0015052Y0005799D02*
X0014678D01*
X0015052Y0005763D02*
X0014678D01*
X0015052Y0005727D02*
X0014678D01*
X0015052Y0005691D02*
X0014678D01*
X0014714Y0006662D02*
Y0004577D01*
X0015052Y0005620D02*
X0014678D01*
X0015052Y0005584D02*
X0014678D01*
X0015052Y0005548D02*
X0014678D01*
X0015052Y0005512D02*
X0014678D01*
X0015052Y0005476D02*
X0014678D01*
X0015052Y0005440D02*
X0014678D01*
X0015052Y0005404D02*
X0014678D01*
X0015052Y0005368D02*
X0014678D01*
X0015052Y0005332D02*
X0014678D01*
X0015052Y0005296D02*
X0014678D01*
X0015057Y0005260D02*
X0014678D01*
X0015093Y0005224D02*
X0014678D01*
X0015129Y0005188D02*
X0014678D01*
X0015165Y0005152D02*
X0014678D01*
X0015201Y0005116D02*
X0014678D01*
X0015237Y0005080D02*
X0014678D01*
X0015273Y0005045D02*
X0014678D01*
X0015309Y0005009D02*
X0014678D01*
X0015345Y0004973D02*
X0014678D01*
X0015381Y0004937D02*
X0014678D01*
X0015417Y0004901D02*
X0014678D01*
X0015453Y0004865D02*
X0014678D01*
X0015465Y0004829D02*
X0014678D01*
X0015465Y0004793D02*
X0014678D01*
X0015465Y0004757D02*
X0014678D01*
X0015465Y0004721D02*
X0014678D01*
X0015465Y0004685D02*
X0014678D01*
X0015465Y0004649D02*
X0014678D01*
X0015433Y0006662D02*
Y0006335D01*
X0015397Y0006662D02*
Y0006299D01*
X0015361Y0006662D02*
Y0006263D01*
X0015325Y0006662D02*
Y0006227D01*
X0015289Y0006662D02*
Y0006191D01*
X0015253Y0006662D02*
Y0006155D01*
X0015217Y0006662D02*
Y0006119D01*
X0015181Y0006662D02*
Y0006083D01*
X0015146Y0006662D02*
Y0006048D01*
X0015110Y0006662D02*
Y0006012D01*
X0015074Y0006662D02*
Y0005976D01*
X0015052Y0005656D02*
X0014678D01*
X0015465Y0006662D02*
Y0006367D01*
X0015052Y0005954D01*
Y0005266D01*
X0015465Y0004853D01*
Y0004577D01*
X0014678D01*
Y0006662D02*
Y0004577D01*
X0015465Y0006662D02*
X0014678D01*
X0015433Y0004885D02*
Y0004577D01*
X0015397Y0004920D02*
Y0004577D01*
X0015361Y0004956D02*
Y0004577D01*
X0015325Y0004992D02*
Y0004577D01*
X0015289Y0005028D02*
Y0004577D01*
X0015253Y0005064D02*
Y0004577D01*
X0015217Y0005100D02*
Y0004577D01*
X0015181Y0005136D02*
Y0004577D01*
X0015146Y0005172D02*
Y0004577D01*
X0015110Y0005208D02*
Y0004577D01*
X0015074Y0005244D02*
Y0004577D01*
X0015038Y0006662D02*
Y0004577D01*
X0015002Y0006662D02*
Y0004577D01*
X0014966Y0006662D02*
Y0004577D01*
X0014930Y0006662D02*
Y0004577D01*
X0014894Y0006662D02*
Y0004577D01*
X0014858Y0006662D02*
Y0004577D01*
X0014822Y0006662D02*
Y0004577D01*
X0014786Y0006662D02*
Y0004577D01*
X0014750Y0006662D02*
Y0004577D01*
X0015465Y0004613D02*
X0014678D01*
X0016822Y0006606D02*
X0016075D01*
X0016822Y0006570D02*
X0016075D01*
X0016822Y0006534D02*
X0016075D01*
X0016822Y0006498D02*
X0016075D01*
X0016822Y0006463D02*
X0016075D01*
X0016822Y0006427D02*
X0016075D01*
X0016822Y0006391D02*
X0016075D01*
X0016822Y0006355D02*
X0016075D01*
X0016822Y0006319D02*
X0016085D01*
X0016822Y0006283D02*
X0016138D01*
X0016822Y0006247D02*
X0016192D01*
X0016822Y0006211D02*
X0016246D01*
X0016822Y0006175D02*
X0016300D01*
X0016822Y0006139D02*
X0016354D01*
X0016822Y0006103D02*
X0016408D01*
X0016822Y0006067D02*
X0016462D01*
X0016822Y0006031D02*
X0016488D01*
X0016822Y0005995D02*
X0016488D01*
X0016822Y0005959D02*
X0016488D01*
X0016822Y0005923D02*
X0016488D01*
X0016822Y0005887D02*
X0016488D01*
X0016822Y0005852D02*
X0016488D01*
X0016822Y0005816D02*
X0016488D01*
X0016822Y0005780D02*
X0016488D01*
X0016822Y0005744D02*
X0016488D01*
X0016822Y0005708D02*
X0016488D01*
X0016822Y0005672D02*
X0016488D01*
X0016091Y0006622D02*
Y0006314D01*
X0016822Y0005600D02*
X0016488D01*
X0016822Y0005564D02*
X0016488D01*
X0016822Y0005528D02*
X0016488D01*
X0016822Y0005492D02*
X0016488D01*
X0016822Y0005456D02*
X0016488D01*
X0016822Y0005420D02*
X0016488D01*
X0016822Y0005384D02*
X0016488D01*
X0016822Y0005348D02*
X0016488D01*
X0016822Y0005312D02*
X0016488D01*
X0016822Y0005276D02*
X0016488D01*
X0016822Y0005241D02*
X0016471D01*
X0016822Y0005205D02*
X0016435D01*
X0016822Y0005169D02*
X0016399D01*
X0016822Y0005133D02*
X0016363D01*
X0016822Y0005097D02*
X0016327D01*
X0016822Y0005061D02*
X0016291D01*
X0016822Y0005025D02*
X0016255D01*
X0016822Y0004989D02*
X0016220D01*
X0016822Y0004953D02*
X0016184D01*
X0016822Y0004917D02*
X0016148D01*
X0016822Y0004881D02*
X0016112D01*
X0016822Y0004845D02*
X0016076D01*
X0016822Y0004809D02*
X0016075D01*
X0016822Y0004773D02*
X0016075D01*
X0016822Y0004737D02*
X0016075D01*
X0016822Y0004701D02*
X0016075D01*
X0016822Y0004665D02*
X0016075D01*
X0016822Y0004630D02*
X0016075D01*
X0016822Y0004594D02*
X0016075D01*
X0016486Y0006622D02*
Y0006047D01*
X0016450Y0006622D02*
Y0006075D01*
X0016414Y0006622D02*
Y0006099D01*
X0016378Y0006622D02*
Y0006123D01*
X0016343Y0006622D02*
Y0006147D01*
X0016307Y0006622D02*
Y0006171D01*
X0016271Y0006622D02*
Y0006195D01*
X0016235Y0006622D02*
Y0006219D01*
X0016199Y0006622D02*
Y0006243D01*
X0016163Y0006622D02*
Y0006267D01*
X0016127Y0006622D02*
Y0006291D01*
X0016479Y0006056D02*
X0016075Y0006325D02*
X0016479Y0006056D01*
X0016075Y0006622D02*
Y0006325D01*
X0016822Y0006622D02*
X0016075D01*
X0016822D02*
Y0004578D01*
X0016488Y0006039D02*
Y0005266D01*
X0016075Y0004844D02*
Y0004578D01*
X0016822D02*
X0016075D01*
X0016482Y0005252D02*
X0016075Y0004844D01*
X0016822Y0005636D02*
X0016488D01*
X0016810Y0006622D02*
Y0004578D01*
X0016774Y0006622D02*
Y0004578D01*
X0016738Y0006622D02*
Y0004578D01*
X0016702Y0006622D02*
Y0004578D01*
X0016666Y0006622D02*
Y0004578D01*
X0016630Y0006622D02*
Y0004578D01*
X0016594Y0006622D02*
Y0004578D01*
X0016558Y0006622D02*
Y0004578D01*
X0016522Y0006622D02*
Y0004578D01*
X0016486Y0005258D02*
Y0004578D01*
X0016450Y0005220D02*
Y0004578D01*
X0016414Y0005184D02*
Y0004578D01*
X0016378Y0005148D02*
Y0004578D01*
X0016343Y0005112D02*
Y0004578D01*
X0016307Y0005076D02*
Y0004578D01*
X0016271Y0005040D02*
Y0004578D01*
X0016235Y0005004D02*
Y0004578D01*
X0016199Y0004968D02*
Y0004578D01*
X0016163Y0004932D02*
Y0004578D01*
X0016127Y0004896D02*
Y0004578D01*
X0016091Y0004860D02*
Y0004578D01*
G01X0016488Y0006039D02*
G03X0016479Y0006056I0000020J0000000D01*
G01X0016482Y0005252D02*
G03X0016488Y0005266I0000014J0000014D01*
G54D43*
G01X0008448Y0000546D02*
X0008614D01*
X0008670Y0000601D01*
Y0000657D01*
X0008614Y0000712D01*
X0008448D01*
Y0000379D01*
X0008066D02*
X0008038Y0000434D01*
Y0000657D01*
X0008066Y0000712D01*
X0008232D01*
X0008260Y0000657D01*
Y0000434D01*
X0008232Y0000379D01*
X0008066D01*
X0007739D02*
Y0000712D01*
X0007850D02*
X0007628D01*
X0006750Y0000434D02*
X0006722Y0000379D01*
X0006556D01*
X0006528Y0000434D01*
Y0000657D01*
X0006556Y0000712D01*
X0006722D01*
X0006750Y0000657D01*
X0006146Y0000379D02*
Y0000712D01*
X0006118Y0000379D02*
X0006284D01*
X0006340Y0000490D01*
Y0000601D01*
X0006284Y0000712D01*
X0006118D01*
X0005736Y0000379D02*
Y0000712D01*
X0005708Y0000379D02*
X0005874D01*
X0005930Y0000434D01*
Y0000490D01*
X0005902Y0000546D01*
X0005736D02*
X0005902D01*
X0005930Y0000601D01*
Y0000657D01*
X0005874Y0000712D01*
X0005708D01*
X0013610Y0004070D02*
X0012960D01*
X0012320Y0006320D02*
X0012960Y0006301D01*
X0007360Y0016480D02*
X0007600D01*
X0008080Y0016960D01*
X0008291D01*
X0008320Y0016931D01*
X0008291Y0016960D01*
X0008080D01*
X0007600Y0016480D01*
X0007360D01*
X0006560Y0029280D02*
X0006055D01*
X0004763Y0005440D02*
X0004400D01*
X0005040Y0002480D02*
X0004240D01*
Y0002160D01*
Y0003480D01*
X0005040D01*
X0004240D01*
Y0003980D01*
X0005040D01*
X0004240D01*
Y0005280D01*
X0004400Y0005440D01*
X0024055Y0013040D02*
X0024560D01*
X0024760Y0013240D01*
Y0013260D01*
X0025138Y0017022D02*
Y0017582D01*
X0024800Y0017920D01*
X0023975D01*
X0001969Y0020709D02*
X0001109D01*
X0001040Y0020640D01*
X0001680Y0029560D02*
X0002000D01*
X0002063Y0029646D01*
X0002303D01*
X0001969Y0018246D02*
Y0017951D01*
X0002160Y0017760D01*
X0003120D01*
X0003420Y0017460D01*
Y0017260D01*
X0005906Y0010569D02*
X0005449D01*
X0005280Y0010400D01*
X0006400Y0029920D02*
X0005957D01*
X0004640Y0015360D02*
X0004480Y0015520D01*
Y0016080D01*
X0003637Y0016923D01*
X0002960D01*
X0004880Y0012560D02*
X0005351Y0013031D01*
X0005906D01*
X0020480Y0026320D02*
X0020160D01*
X0020080Y0026400D01*
Y0026683D01*
X0006000Y0013520D02*
X0005906Y0013426D01*
Y0013031D01*
X0004997Y0007840D02*
X0005420D01*
X0005440Y0007820D01*
X0004400Y0005940D02*
X0004420Y0005920D01*
X0004763D01*
X0005040Y0004480D02*
Y0004640D01*
X0004800Y0004880D01*
X0004640D01*
X0004603Y0001840D02*
X0004400D01*
X0004240Y0001680D01*
X0020720Y0025680D02*
X0020480Y0025440D01*
X0014000D01*
X0013440Y0026000D01*
X0004240Y0001680D02*
X0004400Y0001520D01*
X0004603D01*
X0021789Y0011491D02*
X0021891D01*
X0005906Y0010569D02*
X0005449D01*
X0005280Y0010400D01*
X0020800Y0020120D02*
X0020560Y0019880D01*
X0020640Y0016931D02*
X0020429D01*
X0019840Y0017520D01*
X0023000Y0020400D02*
X0022400D01*
X0025760Y0010640D02*
Y0011040D01*
X0026160Y0011440D01*
Y0011990D01*
X0026142Y0012008D01*
X0004740Y0020800D02*
X0003840D01*
X0025591Y0008996D02*
X0025084D01*
X0024960Y0009120D01*
X0013440Y0020000D02*
X0014080D01*
X0014880Y0020800D01*
X0018880D01*
X0019040Y0020960D01*
X0020000D01*
Y0020480D01*
X0005620Y0020800D02*
Y0022720D01*
X0005400Y0022880D01*
Y0023300D01*
X0020000Y0020480D02*
Y0020960D01*
X0021520D01*
X0021840Y0020640D01*
Y0020000D01*
X0022000Y0019840D01*
X0023600D01*
X0023877Y0020117D01*
Y0020400D01*
X0011120Y0003280D02*
X0010960Y0003440D01*
Y0004560D01*
X0011440Y0005040D01*
Y0006640D01*
X0010800Y0007280D01*
Y0007840D01*
X0010640Y0008000D01*
X0009680D01*
X0009440Y0008240D01*
X0013440Y0020000D02*
X0011920D01*
X0004740Y0020800D02*
X0005583D01*
X0005540Y0020840D01*
X0005620Y0020800D01*
X0007200Y0007680D02*
X0007360Y0007840D01*
X0008320D01*
X0008720Y0015360D02*
X0010560D01*
X0013680Y0021040D02*
X0013920Y0021280D01*
X0016240D01*
X0023040Y0020400D02*
X0023000D01*
X0014880Y0013040D02*
X0013600D01*
X0013200Y0013440D01*
Y0014480D01*
X0012960Y0014720D01*
X0011120D01*
X0011040Y0014800D01*
X0010320D01*
X0009280Y0006640D02*
Y0005320D01*
X0009520Y0005080D01*
Y0001120D01*
X0001969Y0019231D02*
X0000929D01*
X0000720Y0019440D01*
X0007200Y0006080D02*
Y0006640D01*
X0006800Y0007040D01*
Y0008320D01*
X0006640Y0008480D01*
X0006160D01*
X0006560Y0006080D02*
Y0006640D01*
X0006480Y0006720D01*
Y0007520D01*
X0006000Y0008000D01*
X0006480Y0008160D02*
X0006640Y0008000D01*
Y0006800D01*
X0006880Y0006560D01*
Y0006400D01*
X0000560Y0020240D02*
X0000400Y0020080D01*
Y0019200D01*
X0000880Y0018720D01*
X0001950D01*
X0001969Y0018739D01*
X0005157Y0005920D02*
X0005840D01*
X0005157Y0005440D02*
X0005920D01*
X0006080Y0005280D01*
X0001969Y0019724D02*
X0001324D01*
X0001120Y0019520D01*
X0017760Y0001600D02*
X0016960D01*
X0016480Y0002080D01*
X0014960D01*
X0014400Y0001520D01*
Y0001120D01*
X0014240Y0000960D01*
X0013200D01*
X0001969Y0019231D02*
X0002529D01*
X0002720Y0019040D01*
X0003600D01*
X0006640Y0003480D02*
X0007480D01*
X0007760Y0003200D01*
Y0003040D01*
X0025280Y0020240D02*
X0025520Y0020480D01*
X0026880D01*
X0027120Y0020240D01*
Y0011520D01*
X0026800Y0011200D01*
X0011760Y0005520D02*
X0011680Y0005440D01*
Y0004720D01*
X0011440Y0004480D01*
X0017260Y0021300D02*
X0017060D01*
X0016720Y0020960D01*
X0014640D01*
X0014320Y0020640D01*
X0006640Y0002980D02*
X0007260D01*
X0007520Y0002720D01*
X0011200Y0002240D02*
X0011120D01*
X0010640Y0002720D01*
Y0004720D01*
X0011120Y0005200D01*
Y0006480D01*
X0010480Y0007120D01*
Y0007520D01*
X0010320Y0007680D01*
X0008960D01*
X0008480Y0008160D01*
Y0008320D01*
X0011200Y0015360D02*
Y0015920D01*
X0010640Y0016480D01*
X0006640Y0002480D02*
X0006720Y0002400D01*
X0007760D01*
X0009120Y0003760D01*
Y0005040D01*
Y0014960D02*
Y0013680D01*
X0009440Y0013360D01*
X0008960Y0008080D02*
Y0008000D01*
X0009120Y0007840D01*
X0010480D01*
X0010640Y0007680D01*
Y0007200D01*
X0011280Y0006560D01*
Y0005120D01*
X0010800Y0004640D01*
Y0003040D01*
X0010960Y0002880D01*
X0011200D01*
X0017520Y0013200D02*
X0016720Y0012400D01*
Y0011440D01*
X0017520Y0001200D02*
X0017120D01*
X0016400Y0001920D01*
X0015040D01*
X0014560Y0001440D01*
Y0000640D01*
X0014320Y0000400D01*
X0012960D01*
X0012720Y0000640D01*
Y0001200D01*
X0005095Y0008480D02*
X0005280D01*
X0005600Y0008800D01*
X0020080Y0027077D02*
X0020043Y0027040D01*
X0019680D01*
X0024000Y0028240D02*
X0023680D01*
X0023465Y0028455D01*
Y0028720D01*
X0012160Y0000880D02*
Y0000400D01*
X0012320Y0000240D01*
X0014400D01*
X0014720Y0000560D01*
Y0001360D01*
X0015120Y0001760D01*
X0016320D01*
X0017200Y0000880D01*
X0017840D01*
X0008320Y0018560D02*
X0008560Y0018800D01*
X0009120D01*
X0002720Y0018080D02*
Y0018480D01*
X0002461Y0018739D01*
X0001969D01*
X0005465Y0029280D02*
Y0029545D01*
X0005563Y0029643D01*
Y0029920D01*
X0023465Y0029360D02*
X0023200D01*
X0022480Y0028640D01*
X0021760D01*
X0020560Y0027440D01*
Y0027077D01*
X0014560Y0018640D02*
X0014400Y0018800D01*
X0013840D01*
X0018560D02*
Y0018480D01*
X0018880Y0018160D01*
X0019200D01*
X0011520Y0001120D02*
X0011200Y0000800D01*
X0010960D01*
X0024560Y0029520D02*
X0024400Y0029360D01*
X0024055D01*
X0023410Y0012320D02*
Y0012770D01*
X0023465Y0012825D01*
Y0013040D01*
X0006640Y0004480D02*
Y0005280D01*
X0006000Y0005920D01*
X0005157D01*
X0024055Y0028720D02*
X0024400D01*
X0024560Y0028880D01*
X0021760Y0009600D02*
X0022160Y0009200D01*
X0024560D01*
X0024849Y0009489D01*
X0025591D01*
X0002960Y0017317D02*
X0002763D01*
X0002665Y0017415D01*
X0002320D01*
X0005906Y0011554D02*
X0005314D01*
X0005040Y0011280D01*
Y0011040D01*
X0002320Y0016825D02*
Y0016720D01*
X0002480Y0016560D01*
X0003760D01*
X0004320Y0016000D01*
Y0014880D01*
X0006000Y0007280D02*
Y0006560D01*
X0006240Y0006320D01*
X0016240Y0016320D02*
Y0013200D01*
X0015600Y0012560D01*
X0014560D01*
X0013860Y0011860D01*
Y0011850D01*
X0004720Y0010720D02*
X0005280D01*
X0005621Y0011061D01*
X0005906D01*
X0006640Y0003480D02*
X0006040D01*
X0005760Y0003200D01*
Y0002160D01*
X0005440Y0001840D01*
X0004997D01*
X0005157Y0005440D02*
X0005920D01*
X0006080Y0005280D01*
X0005840Y0005040D01*
Y0004160D01*
X0006020Y0003980D01*
X0006640D01*
X0013860Y0006970D02*
Y0006980D01*
X0014480Y0007600D01*
X0023385Y0017920D02*
Y0018375D01*
X0023330Y0018430D01*
Y0019040D01*
X0004400Y0018800D02*
Y0018400D01*
X0005120Y0017680D01*
X0006960D01*
X0007840Y0018560D01*
X0006640Y0002980D02*
X0006020D01*
X0005920Y0002880D01*
Y0002000D01*
X0005440Y0001520D01*
X0004997D01*
X0005906Y0012046D02*
X0005233D01*
X0005120Y0012160D01*
X0004603Y0007840D02*
Y0008117D01*
X0004505Y0008215D01*
Y0008480D01*
X0007304Y0017624D02*
Y0015840D01*
X0007232Y0017552D02*
Y0015840D01*
X0007160Y0017480D02*
Y0015840D01*
X0007088Y0017408D02*
Y0015840D01*
X0008800Y0017640D02*
X0007320D01*
X0008800Y0017568D02*
X0007248D01*
X0008800Y0017352D02*
X0007032D01*
X0008800Y0017280D02*
X0006960D01*
X0008800Y0017208D02*
X0006888D01*
X0008800Y0017136D02*
X0006816D01*
X0008800Y0017064D02*
X0006800D01*
X0008800Y0016992D02*
X0006800D01*
X0008800Y0016920D02*
X0006800D01*
X0008800Y0016776D02*
X0006800D01*
X0008800Y0016704D02*
X0006800D01*
X0008800Y0016632D02*
X0006800D01*
X0008800Y0016560D02*
X0006800D01*
X0008800Y0016488D02*
X0006800D01*
X0008800Y0016416D02*
X0006800D01*
X0008800Y0016344D02*
X0006800D01*
X0008800Y0016272D02*
X0006800D01*
X0008800Y0016200D02*
X0006800D01*
X0008800Y0016128D02*
X0006800D01*
X0008800Y0016056D02*
X0006824D01*
X0008800Y0015984D02*
X0006896D01*
X0006872Y0017192D02*
Y0016008D01*
X0008800Y0017712D02*
X0007392D01*
X0008800Y0017760D02*
Y0017680D01*
Y0017760D02*
X0007440D01*
X0006800Y0017120D01*
Y0016080D01*
X0007040Y0015840D01*
X0008800D02*
X0007040D01*
X0008800Y0017680D02*
Y0015840D01*
X0008744Y0017760D02*
Y0015840D01*
X0008672Y0017760D02*
Y0015840D01*
X0008600Y0017760D02*
Y0015840D01*
X0008528Y0017760D02*
Y0015840D01*
X0008456Y0017760D02*
Y0015840D01*
X0008384Y0017760D02*
Y0015840D01*
X0008312Y0017760D02*
Y0015840D01*
X0008240Y0017760D02*
Y0015840D01*
X0008168Y0017760D02*
Y0015840D01*
X0008096Y0017760D02*
Y0015840D01*
X0008024Y0017760D02*
Y0015840D01*
X0007952Y0017760D02*
Y0015840D01*
X0007880Y0017760D02*
Y0015840D01*
X0007808Y0017760D02*
Y0015840D01*
X0007736Y0017760D02*
Y0015840D01*
X0007664Y0017760D02*
Y0015840D01*
X0007592Y0017760D02*
Y0015840D01*
X0007520Y0017760D02*
Y0015840D01*
X0007448Y0017760D02*
Y0015840D01*
X0007376Y0017696D02*
Y0015840D01*
X0008800Y0017496D02*
X0007176D01*
X0007016Y0017336D02*
Y0015864D01*
X0008800Y0016848D02*
X0006800D01*
X0008800Y0015912D02*
X0006968D01*
X0008800Y0017424D02*
X0007104D01*
X0006944Y0017264D02*
Y0015936D01*
X0005000Y0022000D02*
Y0020160D01*
X0004928Y0022000D02*
Y0020160D01*
X0004856Y0022000D02*
Y0020160D01*
X0006320Y0020664D02*
X0003200D01*
X0004712Y0022000D02*
Y0020160D01*
X0004640Y0022000D02*
Y0020160D01*
X0004568Y0022000D02*
Y0020160D01*
X0004496Y0022000D02*
Y0020160D01*
X0004424Y0022000D02*
Y0020160D01*
X0004352Y0022000D02*
Y0020160D01*
X0004280Y0022000D02*
Y0020160D01*
X0004208Y0022000D02*
Y0020160D01*
X0004136Y0022000D02*
Y0020160D01*
X0004064Y0022000D02*
Y0020160D01*
X0003992Y0022000D02*
Y0020160D01*
X0003920Y0022000D02*
Y0020160D01*
X0003848Y0022000D02*
Y0020160D01*
X0003776Y0022000D02*
Y0020160D01*
X0003704Y0022000D02*
Y0020160D01*
X0003632Y0022000D02*
Y0020208D01*
X0003560Y0022000D02*
Y0020280D01*
X0003488Y0022000D02*
Y0020352D01*
X0003416Y0022000D02*
Y0020424D01*
X0003344Y0022000D02*
Y0020496D01*
X0003272Y0022000D02*
Y0020568D01*
X0006320Y0021960D02*
X0003200D01*
X0006320Y0021888D02*
X0003200D01*
X0006320Y0021816D02*
X0003200D01*
X0006320Y0021744D02*
X0003200D01*
X0006320Y0021672D02*
X0003200D01*
X0006320Y0021528D02*
X0003200D01*
X0006320Y0021456D02*
X0003200D01*
X0006320Y0021384D02*
X0003200D01*
X0006320Y0021312D02*
X0003200D01*
X0006320Y0021240D02*
X0003200D01*
X0006320Y0021168D02*
X0003200D01*
X0004784Y0022000D02*
Y0020160D01*
X0006320Y0021024D02*
X0003200D01*
X0006320Y0020952D02*
X0003200D01*
X0006320Y0020880D02*
X0003200D01*
X0006320Y0020808D02*
X0003200D01*
X0006320Y0020736D02*
X0003200D01*
X0006152Y0022000D02*
Y0020392D01*
X0006320Y0020592D02*
X0003248D01*
X0006280Y0020520D02*
X0003320D01*
X0006208Y0020448D02*
X0003392D01*
X0006080Y0022000D02*
Y0020320D01*
X0005992Y0020232D02*
X0003608D01*
X0006320Y0021096D02*
X0003200D01*
X0006136Y0020376D02*
X0003464D01*
X0006064Y0020304D02*
X0003536D01*
X0003200Y0021600D02*
Y0020640D01*
X0003680Y0020160D01*
X0005920D02*
X0003680D01*
X0006320Y0020560D02*
X0005920Y0020160D01*
X0006320Y0022000D02*
Y0020560D01*
Y0022000D02*
X0003200D01*
Y0021600D01*
X0006320D02*
X0003200D01*
X0006296Y0022000D02*
Y0020536D01*
X0006224Y0022000D02*
Y0020464D01*
X0006008Y0022000D02*
Y0020248D01*
X0005936Y0022000D02*
Y0020176D01*
X0005864Y0022000D02*
Y0020160D01*
X0005792Y0022000D02*
Y0020160D01*
X0005720Y0022000D02*
Y0020160D01*
X0005648Y0022000D02*
Y0020160D01*
X0005576Y0022000D02*
Y0020160D01*
X0005504Y0022000D02*
Y0020160D01*
X0005432Y0022000D02*
Y0020160D01*
X0005360Y0022000D02*
Y0020160D01*
X0005288Y0022000D02*
Y0020160D01*
X0005216Y0022000D02*
Y0020160D01*
X0005144Y0022000D02*
Y0020160D01*
X0005072Y0022000D02*
Y0020160D01*
G54D44*
G01X0011360Y0013840D02*
X0011731Y0013469D01*
X0012480D01*
X0008320D02*
X0007811D01*
X0007340Y0013940D01*
Y0014880D01*
X0019600Y0001920D02*
X0018480D01*
X0017720Y0002680D01*
Y0003600D01*
X0019600Y0001920D02*
X0019680D01*
X0019880Y0002120D01*
Y0002560D01*
X0010000Y0006060D02*
Y0007200D01*
X0008000Y0006060D02*
Y0007200D01*
X0010000D01*
Y0006060D01*
G54D45*
G01X0010120Y0023300D02*
X0005400D01*
X0014840D02*
X0010120D01*
X0019560D02*
X0014840D01*
G54D46*
G01X0012960Y0003520D02*
X0013280Y0003200D01*
X0013830D01*
X0014560Y0002160D02*
Y0003120D01*
X0014480Y0003200D01*
X0020480Y0026320D02*
X0020560Y0026400D01*
Y0026683D01*
Y0026400D01*
X0020480Y0026320D01*
X0014718Y0005620D02*
X0014460D01*
X0014160Y0005920D01*
X0020560Y0026683D02*
Y0026400D01*
X0020480Y0026320D01*
X0014718Y0005620D02*
X0014460D01*
X0014160Y0005920D01*
X0016000Y0005440D02*
X0016160Y0005600D01*
X0016802D01*
X0015292Y0015360D02*
Y0016652D01*
X0015840Y0017200D01*
X0016240D01*
X0014160Y0005920D02*
X0014460Y0005620D01*
X0014718D01*
G54D47*
G01X0012960Y0010680D02*
Y0008950D01*
Y0004070D01*
Y0006301D02*
Y0004070D01*
X0020640Y0008029D02*
Y0006660D01*
X0023680Y0008315D02*
X0023705D01*
X0024680Y0007340D01*
X0026142Y0015008D02*
X0026160Y0015026D01*
Y0016490D01*
X0026142Y0016508D01*
X0023680Y0013995D02*
X0024555D01*
X0025600Y0015040D01*
X0026110D01*
X0026142Y0015008D01*
X0012480Y0016931D02*
X0013491D01*
X0013500Y0016940D01*
X0013520D01*
X0013740Y0017160D01*
X0011120Y0018800D02*
Y0019680D01*
X0010380Y0020340D01*
X0010360D01*
Y0020380D01*
X0020640Y0011491D02*
X0021789D01*
X0021891D02*
X0022480Y0012080D01*
X0023680Y0010565D02*
X0023675Y0010560D01*
X0022720D01*
X0021789Y0011491D01*
X0020640D01*
X0026142Y0024449D02*
X0026093Y0024400D01*
X0023280D01*
X0020560Y0019880D02*
Y0018800D01*
X0022400Y0017600D02*
X0021760Y0016960D01*
X0020669D01*
X0020640Y0016931D01*
X0015400Y0020120D02*
X0015840Y0019700D01*
Y0018800D01*
X0012480Y0016931D02*
X0011549D01*
X0011120Y0017360D01*
Y0018800D01*
X0006840Y0020100D02*
X0006400Y0019660D01*
Y0018800D01*
X0020640Y0016931D02*
X0021789D01*
X0022480Y0016240D01*
X0023675D01*
X0023680Y0016245D01*
X0015840Y0018800D02*
X0012060Y0011850D02*
X0012070Y0011840D01*
X0012480D01*
X0012560Y0011920D01*
X0012880D01*
X0013920Y0014720D02*
X0014160Y0014960D01*
X0015200D01*
X0015292Y0015120D01*
Y0015360D01*
X0017828D02*
X0017840Y0015440D01*
X0019520D01*
X0020640Y0016560D01*
Y0016931D01*
X0017828Y0009920D02*
X0018400D01*
X0019971Y0011491D01*
X0020640D01*
X0026142Y0013508D02*
Y0012008D01*
X0009000Y0010560D02*
X0009560D01*
X0010850Y0011850D01*
X0012060D01*
X0015840Y0018800D02*
X0020640Y0016931D02*
X0021760D01*
Y0016960D01*
X0022400Y0017600D01*
X0020800Y0020160D02*
X0020560Y0019920D01*
Y0018800D01*
X0022795Y0016245D02*
X0023680D01*
G54D48*
G01X0004000Y0028000D02*
X0003040D01*
X0002880Y0028160D01*
X0001428D01*
X0001417Y0028150D01*
X0007360Y0016320D02*
X0007380Y0016300D01*
X0007280D01*
X0007360Y0016380D01*
Y0016480D01*
Y0017200D01*
X0026142Y0028949D02*
Y0027449D01*
Y0022728D02*
Y0021228D01*
X0023280Y0021590D02*
Y0022240D01*
X0023768Y0022728D01*
X0026142D01*
X0001417Y0025150D02*
X0001897D01*
X0003048Y0026300D01*
X0004000D01*
X0015292Y0009920D02*
X0015280Y0009908D01*
Y0008400D01*
X0015920Y0007760D01*
X0016240D01*
X0025620Y0003640D02*
X0025240D01*
X0023200Y0005680D01*
X0018960D01*
X0016880Y0007760D01*
X0016240D01*
X0021120Y0004640D02*
Y0002640D01*
G54D49*
G01X0012960Y0004070D02*
Y0003520D01*
X0013830Y0003200D02*
X0012960Y0004070D01*
X0016960Y0002560D02*
X0015440D01*
X0014800Y0003200D01*
X0013830D01*
X0012960Y0004070D01*
X0014480Y0003200D02*
X0013830D01*
X0012960Y0004070D01*
X0019980Y0003600D02*
X0019070D01*
X0020640Y0013469D02*
Y0014080D01*
X0020160Y0014560D01*
X0019280D01*
X0012060Y0006970D02*
X0011830D01*
X0011280Y0007520D01*
Y0008160D01*
X0014240Y0010800D02*
X0014960D01*
X0015292Y0010468D01*
Y0009920D01*
X0017680Y0005200D02*
X0018240Y0004640D01*
X0021120D01*
G54D50*
G01X0020800Y0009720D02*
X0020640Y0009880D01*
Y0011491D01*
X0021280Y0009920D02*
X0021360Y0010000D01*
X0021920D01*
X0022480Y0009440D01*
X0024400D01*
X0025200Y0010240D01*
Y0010960D01*
X0026142Y0011902D01*
Y0012008D01*
X0023680Y0006800D02*
X0022160D01*
X0022000Y0006960D01*
X0002795Y0029646D02*
X0003954D01*
X0004240Y0029360D01*
X0022640Y0019440D02*
X0022080Y0018880D01*
X0024030Y0019040D02*
Y0018770D01*
X0024320Y0018480D01*
X0025090D01*
X0025342Y0018228D01*
X0026142D01*
Y0012008D02*
X0026054Y0011920D01*
X0025120D01*
X0024720Y0012320D01*
X0024110D01*
X0024030Y0019040D02*
Y0019330D01*
X0023760Y0019600D01*
X0022800D01*
X0022080Y0018880D01*
G54D51*
G01X0011480Y0026440D02*
X0011440Y0026480D01*
Y0027440D01*
X0011280Y0027600D01*
X0023280Y0024400D02*
X0022400D01*
X0022160Y0024160D01*
Y0020880D01*
X0022400Y0020640D01*
Y0020400D01*
G54D52*
G01X0005280Y0027550D02*
Y0027680D01*
X0004960Y0028000D01*
X0004000D01*
Y0026300D02*
X0005020D01*
X0005280Y0026560D01*
Y0026850D01*
G54D10*
X0020640Y0011491D03*
Y0008029D03*
Y0016931D03*
Y0013469D03*
X0012480Y0016931D03*
Y0013469D03*
X0008320Y0016931D03*
Y0013469D03*
G54D11*
X0005280Y0027550D03*
Y0026850D03*
G54D12*
X0017720Y0003600D03*
X0019070D03*
G54D13*
X0023680Y0010565D03*
Y0008315D03*
Y0016245D03*
Y0013995D03*
G54D14*
X0004000Y0028000D03*
Y0026300D03*
G54D15*
X0023877Y0020400D03*
X0022400D03*
G54D16*
X0023280Y0024400D03*
Y0021590D03*
G54D17*
X0002320Y0016825D03*
Y0017415D03*
X0024055Y0013040D03*
X0023465D03*
X0023975Y0017920D03*
X0023385D03*
X0006055Y0029280D03*
X0005465D03*
X0005095Y0008480D03*
X0004505D03*
X0024055Y0028720D03*
X0023465D03*
X0024055Y0029360D03*
X0023465D03*
G54D18*
X0005040Y0004480D03*
X0006640D03*
X0005040Y0003980D03*
X0006640D03*
X0005040Y0003480D03*
X0006640D03*
X0005040Y0002980D03*
X0006640D03*
X0005040Y0002480D03*
X0006640D03*
G54D19*
X0026142Y0018228D03*
Y0019728D03*
Y0021228D03*
Y0022728D03*
Y0012008D03*
Y0013508D03*
Y0015008D03*
Y0016508D03*
Y0024449D03*
Y0025949D03*
Y0027449D03*
Y0028949D03*
X0001417Y0028150D03*
Y0026650D03*
Y0025150D03*
Y0023650D03*
G54D20*
X0016802Y0005600D03*
X0014718Y0005620D03*
G54D21*
X0015292Y0009920D03*
X0017828D03*
X0015292Y0015360D03*
X0017828D03*
G54D22*
X0022638Y0026772D03*
X0008858D03*
G54D23*
X0025591Y0008996D03*
Y0009489D03*
X0001969Y0020709D03*
Y0020216D03*
Y0019724D03*
Y0019231D03*
Y0018739D03*
Y0018246D03*
X0005906Y0013031D03*
Y0012539D03*
Y0012046D03*
Y0011554D03*
Y0011061D03*
Y0010569D03*
G54D24*
X0026731Y0010491D03*
Y0007993D03*
X0000828Y0017208D03*
Y0021712D03*
X0004765Y0009531D03*
Y0014034D03*
G54D25*
X0001301Y0030786D03*
X0003798D03*
G54D26*
X0002795Y0029646D03*
X0002303D03*
G54D27*
X0009000Y0010560D03*
X0005400Y0023300D03*
X0010120D03*
X0014840D03*
X0019560D03*
G54D28*
X0008000Y0006060D03*
X0010000D03*
X0004400Y0018800D03*
X0006400D03*
X0009120D03*
X0011120D03*
X0013840D03*
X0015840D03*
X0018560D03*
X0020560D03*
G54D29*
X0012960Y0004070D03*
Y0008950D03*
G54D30*
X0013860Y0006970D03*
X0012060D03*
X0013860Y0011850D03*
X0012060D03*
G54D31*
X0005563Y0029920D03*
X0005957D03*
X0004603Y0007840D03*
X0004997D03*
X0005157Y0005440D03*
X0004763D03*
X0004603Y0001520D03*
X0004997D03*
X0004603Y0001840D03*
X0004997D03*
X0004763Y0005920D03*
X0005157D03*
G54D32*
X0002960Y0017317D03*
Y0016923D03*
X0020080Y0027077D03*
Y0026683D03*
X0020560Y0027077D03*
Y0026683D03*
G54D33*
X0024110Y0012320D03*
X0023410D03*
X0024030Y0019040D03*
X0023330D03*
G54D34*
X0023680Y0006800D03*
X0022080Y0018880D03*
X0019600Y0001920D03*
X0013440Y0026000D03*
G54D35*
X0011480Y0026440D03*
G54D36*
X0025620Y0003640D03*
G54D37*
X0021120Y0004640D03*
Y0002640D03*
G54D38*
X0007360Y0017200D03*
X0022480Y0012080D03*
X0003840Y0020800D03*
X0012880Y0011920D03*
X0013920Y0014720D03*
X0022400Y0017600D03*
X0024680Y0007340D03*
X0020640Y0006660D03*
X0019280Y0014560D03*
X0012960Y0010680D03*
X0011360Y0013840D03*
X0007340Y0014880D03*
X0009780Y0016940D03*
X0013740Y0017160D03*
X0020800Y0020120D03*
X0015400D03*
X0010360Y0020380D03*
X0006840Y0020100D03*
X0005620Y0020800D03*
X0004740D03*
X0007360Y0016320D03*
G54D39*
X0012320Y0006320D03*
X0014560Y0002160D03*
X0020480Y0026320D03*
X0006400Y0029920D03*
X0004640Y0015360D03*
X0020720Y0025680D03*
X0020800Y0009720D03*
X0005280Y0010400D03*
X0004880Y0012560D03*
X0021280Y0009920D03*
X0019840Y0017520D03*
X0022000Y0006960D03*
X0025760Y0010640D03*
X0024960Y0009120D03*
X0004240Y0029360D03*
X0022640Y0019440D03*
X0020000Y0020480D03*
X0011120Y0003280D03*
X0009440Y0008240D03*
X0013440Y0020000D03*
X0011920D03*
X0007200Y0007680D03*
X0008320Y0007840D03*
X0008720Y0015360D03*
X0010560D03*
X0013680Y0021040D03*
X0016240Y0021280D03*
X0016000Y0005440D03*
X0014880Y0013040D03*
X0010320Y0014800D03*
X0009280Y0006640D03*
X0009520Y0001120D03*
X0000720Y0019440D03*
X0016240Y0017200D03*
X0007200Y0006080D03*
X0006160Y0008480D03*
X0006560Y0006080D03*
X0006000Y0008000D03*
X0006480Y0008160D03*
X0006880Y0006400D03*
X0000560Y0020240D03*
X0005840Y0005920D03*
X0006080Y0005280D03*
X0001120Y0019520D03*
X0017760Y0001600D03*
X0013200Y0000960D03*
X0003600Y0019040D03*
X0007760Y0003040D03*
X0016240Y0007760D03*
X0025280Y0020240D03*
X0026800Y0011200D03*
X0011760Y0005520D03*
X0011440Y0004480D03*
X0017260Y0021300D03*
X0014320Y0020640D03*
X0007520Y0002720D03*
X0011200Y0002240D03*
X0008480Y0008320D03*
X0011200Y0015360D03*
X0010640Y0016480D03*
X0009120Y0014960D03*
X0009440Y0013360D03*
X0008960Y0008080D03*
X0011200Y0002880D03*
X0017520Y0013200D03*
X0016720Y0011440D03*
X0017520Y0001200D03*
X0012720D03*
X0005600Y0008800D03*
X0019680Y0027040D03*
X0024000Y0028240D03*
X0012160Y0000880D03*
X0017840D03*
X0008320Y0018560D03*
X0002720Y0018080D03*
X0014560Y0018640D03*
X0019200Y0018160D03*
X0011520Y0001120D03*
X0010960Y0000800D03*
X0024560Y0029520D03*
Y0028880D03*
X0014160Y0005920D03*
X0021760Y0009600D03*
X0005040Y0011040D03*
X0004320Y0014880D03*
X0006000Y0007280D03*
X0006240Y0006320D03*
X0016240Y0016320D03*
X0004720Y0010720D03*
X0014480Y0007600D03*
X0007840Y0018560D03*
X0005120Y0012160D03*
X0015240Y0003740D03*
X0016800Y0003360D03*
Y0003760D03*
Y0004160D03*
X0016400D03*
X0016000D03*
X0015620D03*
X0015240D03*
X0012880Y0001600D03*
X0012600Y0001920D03*
X0004400Y0005440D03*
X0004240Y0002160D03*
X0004640Y0004880D03*
X0004400Y0005940D03*
X0012320Y0005840D03*
X0004240Y0001680D03*
X0008240Y0002400D03*
X0008560Y0002000D03*
X0010740Y0001560D03*
X0010560Y0002300D03*
X0007280Y0005680D03*
X0010800Y0005620D03*
Y0006080D03*
X0008800Y0006640D03*
X0009120Y0005040D03*
X0008320Y0004880D03*
X0008000Y0004640D03*
X0005440Y0007820D03*
X0004720Y0011380D03*
X0005840Y0010080D03*
X0006000Y0013520D03*
X0004720Y0011840D03*
X0006480Y0013434D03*
X0006080Y0014720D03*
X0005840Y0016240D03*
X0020240Y0009840D03*
X0022600Y0009880D03*
X0025500Y0008080D03*
X0024000Y0009820D03*
X0023520D03*
X0024640Y0008800D03*
X0024560Y0010320D03*
X0024780Y0011020D03*
X0026300Y0006720D03*
X0021440Y0008720D03*
X0021880Y0010460D03*
X0024760Y0013260D03*
X0022680Y0015140D03*
X0024800Y0015600D03*
Y0016000D03*
X0025120Y0016320D03*
X0025138Y0017022D03*
X0022080Y0014640D03*
X0025260Y0019440D03*
X0021840Y0015140D03*
X0018560Y0013360D03*
X0015440Y0012000D03*
X0015300Y0012980D03*
X0014800Y0018160D03*
X0013200Y0021120D03*
X0018720Y0020260D03*
X0019280Y0016380D03*
X0010640Y0021280D03*
X0012340Y0020320D03*
X0023000Y0020400D03*
X0017840Y0021240D03*
X0012560Y0021220D03*
X0007960Y0020720D03*
X0003420Y0017260D03*
X0001040Y0018240D03*
Y0020640D03*
X0006560Y0029280D03*
X0011280Y0027600D03*
X0006400Y0025440D03*
X0001680Y0029560D03*
G54D40*
X0016960Y0002560D03*
X0011280Y0008160D03*
X0014240Y0010800D03*
X0017680Y0005200D03*
X0010000Y0007200D03*
X0019980Y0003600D03*
X0019880Y0002560D03*
X0010660Y0025600D03*
G54D41*
X0007840Y0029360D03*
X0018640Y0026240D03*
X0026680Y0000580D03*
X0004760Y0000640D03*
M02*
