*
G04 Mass Parameters ***
*
G04 Image ***
*
%INC:\DOCUMENTS AND SETTINGS\ADMINISTRATOR\DOCUMENTI\LAVORI_ORCAD\CLIENTI_MARCO\BDC_V0\BDC.IN1*%
%ICAS*%
%MOIN*%
%IPPOS*%
%ASAXBY*%
G74*%FSLAN2X34Y34*%
*
G04 Aperture Definitions ***
*
%ADD10R,0.0870X0.1690*%
%ADD11R,0.0550X0.0340*%
%ADD12R,0.0640X0.1000*%
%ADD13R,0.1200X0.1000*%
%ADD14R,0.0900X0.1000*%
%ADD15R,0.0490X0.0790*%
%ADD16R,0.1460X0.1020*%
%ADD17R,0.0320X0.0320*%
%ADD18R,0.1100X0.0290*%
%ADD19C,0.1000*%
%ADD20R,0.0100X0.2100*%
%ADD21R,0.0940X0.3510*%
%ADD22C,0.2440*%
%ADD23R,0.0630X0.0280*%
%ADD24R,0.1180X0.0830*%
%ADD25R,0.0830X0.1180*%
%ADD26R,0.0280X0.0630*%
%ADD27R,0.4500X0.3500*%
%ADD28R,0.0820X0.1500*%
%ADD29R,0.2200X0.2300*%
%ADD30R,0.0560X0.0720*%
%ADD31R,0.0250X0.0200*%
%ADD32R,0.0200X0.0250*%
%ADD33R,0.0340X0.0550*%
%ADD34C,0.0590*%
%ADD35R,0.0810X0.1440*%
%ADD36R,0.3500X0.4500*%
%ADD37R,0.1500X0.0820*%
%ADD38C,0.0800*%
%ADD39C,0.0300*%
%ADD40C,0.0600*%
%ADD41C,0.0400*%
%ADD42C,0.0040*%
%ADD43C,0.0080*%
%ADD44C,0.0500*%
%ADD45C,0.2000*%
%ADD46C,0.0150*%
%ADD47C,0.0800*%
%ADD48C,0.0700*%
%ADD49C,0.0600*%
%ADD50C,0.0200*%
%ADD51C,0.0250*%
%ADD52C,0.0300*%
%ADD53R,0.1000X0.0640*%
%ADD54R,0.0240X0.0350*%
%ADD55R,0.0350X0.0240*%
%ADD56R,0.0390X0.0590*%
%ADD57R,0.0330X0.0590*%
%ADD58R,0.1300X0.0550*%
%ADD59R,0.0550X0.1300*%
%ADD60R,0.0290X0.0120*%
%ADD61R,0.0120X0.0290*%
%ADD62R,0.1610X0.1610*%
%ADD63R,0.0630X0.0140*%
%ADD64R,0.1180X0.1180*%
%ADD65R,0.0160X0.0700*%
%ADD66R,0.0315X0.0512*%
%ADD67R,0.0330X0.0120*%
%ADD68R,0.0120X0.0330*%
%ADD69R,0.0170X0.0320*%
%ADD70R,0.0350X0.0390*%
%ADD71C,0.0120*%
%ADD72C,0.0100*%
*
G04 Plot Data ***
*
G54D43*
G01X0026731Y0000339D02*
X0026619D01*
X0026675D02*
Y0000672D01*
X0026619Y0000617D01*
X0026376Y0000561D02*
X0026265D01*
X0026237Y0000506D01*
X0026182D01*
Y0000561D02*
Y0000339D01*
X0025966D02*
X0025799D01*
X0025772Y0000394D01*
Y0000506D01*
X0025799Y0000561D01*
X0025966D01*
X0025994Y0000506D01*
Y0000450D01*
X0025772D01*
X0025584Y0000339D02*
Y0000506D01*
X0025556Y0000561D01*
X0025389D01*
Y0000339D01*
X0025202D02*
Y0000506D01*
X0025174Y0000561D01*
X0025007D01*
Y0000339D01*
X0024819D02*
X0024708D01*
X0024764D02*
Y0000672D01*
X0024819D02*
X0024708D01*
X0023930Y0000394D02*
X0023902Y0000339D01*
X0023736D01*
X0023708Y0000394D01*
Y0000617D01*
X0023736Y0000672D01*
X0023902D01*
X0023930Y0000617D01*
X0023326Y0000339D02*
Y0000672D01*
X0023298Y0000339D02*
X0023464D01*
X0023520Y0000450D01*
Y0000561D01*
X0023464Y0000672D01*
X0023298D01*
X0022916Y0000339D02*
Y0000672D01*
X0022888Y0000339D02*
X0023054D01*
X0023110Y0000394D01*
Y0000450D01*
X0023082Y0000506D01*
X0022916D02*
X0023082D01*
X0023110Y0000561D01*
Y0000617D01*
X0023054Y0000672D01*
X0022888D01*
X0026142Y0027449D02*
X0026151Y0027440D01*
X0026720D01*
X0027120Y0027040D01*
Y0023200D01*
X0026648Y0022728D01*
X0026142D01*
X0008017Y0002720D02*
X0007983D01*
X0010738Y0003200D02*
X0008116D01*
X0010844Y0002720D02*
X0008463D01*
X0007933Y0002160D02*
X0003857D01*
X0006893Y0007920D02*
X0006787D01*
X0010436Y0005760D02*
X0007423D01*
X0009133Y0013120D02*
X0003857D01*
X0009753Y0007680D02*
X0008676D01*
X0010917Y0007760D02*
X0009183D01*
X0010746Y0008080D02*
X0009796D01*
X0010893Y0002000D02*
X0010809D01*
X0027479Y0003280D02*
X0011510D01*
X0022608Y0000560D02*
X0018063D01*
X0023777Y0027920D02*
X0023539D01*
X0012977Y0000640D02*
X0012467D01*
X0014997Y0001200D02*
X0013507D01*
X0027479Y0001440D02*
X0018116D01*
X0014337Y0001840D02*
X0013187D01*
X0002497Y0018400D02*
X-0000080D01*
X0010653Y0000560D02*
X0003857D01*
X0011937D02*
X0011267D01*
X0010940Y0028320D02*
X0002137D01*
X0027479Y0029280D02*
X0024867D01*
X0016017Y0016000D02*
X0007914D01*
X0004413Y0010480D02*
X0003857D01*
X0012495Y0011120D02*
X0005422D01*
X0008497Y0015040D02*
X0004863D01*
X0005644Y0007120D02*
X0003857D01*
X0006893Y0005840D02*
X0006867D01*
X0008410Y0006640D02*
X0007187D01*
X0012431Y0011040D02*
X0005430D01*
X0008097Y0018240D02*
X0008063D01*
X0020529Y0009440D02*
X0003857D01*
X0004524Y0012400D02*
X0003857D01*
X0015054Y0001280D02*
X0013423D01*
X0014922Y0001040D02*
X0013582D01*
X0027479Y0004000D02*
X0003857D01*
X0010977Y0001920D02*
X0010648D01*
X0005644Y0007440D02*
X0005528D01*
X0005617Y0010400D02*
X0004943D01*
X0024737Y0009440D02*
X0022116D01*
X0012570Y0011360D02*
X0005263D01*
X0019644Y0020320D02*
X0016008D01*
X0025537Y0010320D02*
X0022244D01*
X0005310Y0020240D02*
X0005050D01*
X0010417Y0016800D02*
X0007860D01*
X0006806Y0016880D02*
X-0000080D01*
X0025057Y0019920D02*
X0021408D01*
X0026418Y0011280D02*
X0026275D01*
X0027011Y0000059D02*
X0022608D01*
X0027011Y0000952D02*
Y0000059D01*
Y0000952D02*
X0022608D01*
Y0000059D01*
X0024192Y0030512D02*
X0015904Y0025727D01*
X0015668Y0025664D02*
X0004757Y0031890D02*
X0015432Y0025727D01*
X0004757Y0031890D02*
X0000314D01*
X-0000080Y0031496D01*
Y0016535D01*
X0000314Y0016142D01*
X0003385D02*
X0000314D01*
X0003933Y0001440D02*
X0003857D01*
Y0000394D02*
X0004251Y0000000D01*
X0014487D02*
X0004251D01*
X0014881Y0000394D02*
X0014487Y0000000D01*
X0014881Y0000787D02*
Y0000394D01*
X0016455Y0000787D02*
Y0000394D01*
X0016849Y0000000D01*
X0027085D02*
X0016849D01*
X0027479Y0000394D02*
X0027085Y0000000D01*
X0027479Y0030118D02*
Y0000394D01*
X0027085Y0030512D02*
X0027479Y0030118D01*
X0027085Y0030512D02*
X0024192D01*
X0009693Y0029040D02*
X0004463D01*
X0024204D02*
X0021643D01*
X0004844Y0031840D02*
X0000264D01*
X0004982Y0031760D02*
X0000184D01*
X0005121Y0031680D02*
X0000104D01*
X0005259Y0031600D02*
X0000024D01*
X0005398Y0031520D02*
X-0000056D01*
X0005536Y0031440D02*
X-0000080D01*
X0005675Y0031360D02*
X-0000080D01*
X0005814Y0031280D02*
X-0000080D01*
X0005952Y0031200D02*
X-0000080D01*
X0006091Y0031120D02*
X-0000080D01*
X0006229Y0031040D02*
X-0000080D01*
X0006368Y0030960D02*
X-0000080D01*
X0006506Y0030880D02*
X-0000080D01*
X0006645Y0030800D02*
X-0000080D01*
X0006784Y0030720D02*
X-0000080D01*
X0006922Y0030640D02*
X-0000080D01*
X0007061Y0030560D02*
X-0000080D01*
X0007199Y0030480D02*
X-0000080D01*
X0007338Y0030400D02*
X-0000080D01*
X0014820Y0026080D02*
X0010144D01*
X0007476Y0030320D02*
X-0000080D01*
X0006177Y0030240D02*
X-0000080D01*
X0006093Y0030160D02*
X-0000080D01*
X0006044Y0030080D02*
X-0000080D01*
X0010525Y0028560D02*
X0002033D01*
X0006010Y0029920D02*
X-0000080D01*
X0006044Y0029760D02*
X-0000080D01*
X0004017Y0029680D02*
X-0000080D01*
X0003933Y0029600D02*
X-0000080D01*
X0003884Y0029520D02*
X-0000080D01*
X0003858Y0029440D02*
X-0000080D01*
X0003858Y0029280D02*
X-0000080D01*
X0003884Y0029200D02*
X-0000080D01*
X0001063Y0026000D02*
X-0000080D01*
X0009971Y0028880D02*
X0001536D01*
X0001299D02*
X-0000080D01*
X0001064Y0028800D02*
X-0000080D01*
X0000946Y0028720D02*
X-0000080D01*
X0000863Y0028640D02*
X-0000080D01*
X0000802Y0028560D02*
X-0000080D01*
X0000755Y0028480D02*
X-0000080D01*
X0000721Y0028400D02*
X-0000080D01*
X0000697Y0028320D02*
X-0000080D01*
X0000683Y0028240D02*
X-0000080D01*
X0000677Y0028160D02*
X-0000080D01*
X0000681Y0028080D02*
X-0000080D01*
X0000693Y0028000D02*
X-0000080D01*
X0000714Y0027920D02*
X-0000080D01*
X0000745Y0027840D02*
X-0000080D01*
X0000788Y0027760D02*
X-0000080D01*
X0000845Y0027680D02*
X-0000080D01*
X0000922Y0027600D02*
X-0000080D01*
X0025721Y0023840D02*
X-0000080D01*
X0001208Y0027440D02*
X-0000080D01*
X0001210Y0027360D02*
X-0000080D01*
X0001030Y0027280D02*
X-0000080D01*
X0000923Y0027200D02*
X-0000080D01*
X0000846Y0027120D02*
X-0000080D01*
X0000789Y0027040D02*
X-0000080D01*
X0000746Y0026960D02*
X-0000080D01*
X0000714Y0026880D02*
X-0000080D01*
X0000693Y0026800D02*
X-0000080D01*
X0000681Y0026720D02*
X-0000080D01*
X0000677Y0026640D02*
X-0000080D01*
X0000683Y0026560D02*
X-0000080D01*
X0000697Y0026480D02*
X-0000080D01*
X0000721Y0026400D02*
X-0000080D01*
X0000755Y0026320D02*
X-0000080D01*
X0000801Y0026240D02*
X-0000080D01*
X0000862Y0026160D02*
X-0000080D01*
X0000945Y0026080D02*
X-0000080D01*
X0007619Y0026000D02*
X0001772D01*
X0007672Y0025920D02*
X0001541D01*
X0001294D02*
X-0000080D01*
X0007734Y0025840D02*
X-0000080D01*
X0007806Y0025760D02*
X-0000080D01*
X0007889Y0025680D02*
X-0000080D01*
X0007987Y0025600D02*
X-0000080D01*
X0008107Y0025520D02*
X-0000080D01*
X0025825Y0025280D02*
X-0000080D01*
X0008486Y0025360D02*
X-0000080D01*
X0027479Y0025200D02*
X-0000080D01*
X0025830Y0025120D02*
X-0000080D01*
X0025697Y0025040D02*
X-0000080D01*
X0025607Y0024960D02*
X-0000080D01*
X0025540Y0024880D02*
X-0000080D01*
X0025490Y0024800D02*
X-0000080D01*
X0025453Y0024720D02*
X-0000080D01*
X0025427Y0024640D02*
X-0000080D01*
X0025410Y0024560D02*
X-0000080D01*
X0025402Y0024480D02*
X-0000080D01*
X0025403Y0024400D02*
X-0000080D01*
X0025413Y0024320D02*
X-0000080D01*
X0025432Y0024240D02*
X-0000080D01*
X0025460Y0024160D02*
X-0000080D01*
X0025500Y0024080D02*
X-0000080D01*
X0025553Y0024000D02*
X-0000080D01*
X0025624Y0023920D02*
X-0000080D01*
X0025871Y0023760D02*
X-0000080D01*
X0027479Y0023680D02*
X-0000080D01*
X0027479Y0023600D02*
X-0000080D01*
X0027479Y0023520D02*
X-0000080D01*
X0027479Y0023440D02*
X-0000080D01*
X0027479Y0023360D02*
X-0000080D01*
X0027479Y0023280D02*
X-0000080D01*
X0027479Y0023200D02*
X-0000080D01*
X0027479Y0023120D02*
X-0000080D01*
X0027479Y0023040D02*
X-0000080D01*
X0027479Y0022960D02*
X-0000080D01*
X0027479Y0022880D02*
X-0000080D01*
X0027479Y0022800D02*
X-0000080D01*
X0027479Y0022720D02*
X-0000080D01*
X0027479Y0022640D02*
X-0000080D01*
X0027479Y0022560D02*
X-0000080D01*
X0027479Y0022480D02*
X-0000080D01*
X0027479Y0022400D02*
X-0000080D01*
X0027479Y0022320D02*
X-0000080D01*
X0027479Y0022240D02*
X-0000080D01*
X0027479Y0022160D02*
X-0000080D01*
X0027479Y0022080D02*
X-0000080D01*
X0027479Y0022000D02*
X-0000080D01*
X0027479Y0021920D02*
X-0000080D01*
X0027479Y0021840D02*
X-0000080D01*
X0011133Y0004240D02*
X0003857D01*
X0027479Y0021760D02*
X-0000080D01*
X0013457Y0021360D02*
X0005930D01*
X0017172Y0021680D02*
X-0000080D01*
X0015884Y0021440D02*
X-0000080D01*
X0003530Y0021360D02*
X-0000080D01*
X0003417Y0021280D02*
X-0000080D01*
X0003340Y0021200D02*
X-0000080D01*
X0003286Y0021120D02*
X-0000080D01*
X0003247Y0021040D02*
X-0000080D01*
X0000178Y0020320D02*
X-0000080D01*
X0003205Y0020880D02*
X-0000080D01*
X0003200Y0020800D02*
X-0000080D01*
X0008260Y0025440D02*
X-0000080D01*
X0003220Y0020960D02*
X-0000080D01*
X0000337Y0020560D02*
X-0000080D01*
X0000253Y0020480D02*
X-0000080D01*
X0010201Y0019760D02*
X0007382D01*
X0003220Y0020640D02*
X-0000080D01*
X0006216Y0020240D02*
X0005930D01*
X0000204Y0020080D02*
X-0000080D01*
X0000337Y0019920D02*
X-0000080D01*
X0000897Y0019840D02*
X-0000080D01*
X0000413Y0019680D02*
X-0000080D01*
X0000364Y0019600D02*
X-0000080D01*
X0000338Y0019520D02*
X-0000080D01*
X0000330Y0019440D02*
X-0000080D01*
X0002413Y0017840D02*
X-0000080D01*
X0005352Y0007440D02*
X0003857D01*
X0003210Y0019040D02*
X-0000080D01*
X0003218Y0018960D02*
X-0000080D01*
X0003244Y0018880D02*
X-0000080D01*
X0003377Y0018720D02*
X-0000080D01*
X0007458Y0018640D02*
X-0000080D01*
X0007450Y0018560D02*
X-0000080D01*
X0007458Y0018480D02*
X-0000080D01*
X0014337Y0018320D02*
X0008627D01*
X0002413D02*
X-0000080D01*
X0002364Y0018240D02*
X-0000080D01*
X0002338Y0018160D02*
X-0000080D01*
X0002330Y0018080D02*
X-0000080D01*
X0002364Y0017920D02*
X-0000080D01*
X0007050Y0017760D02*
X0002943D01*
X0006937Y0017680D02*
X-0000080D01*
X0006860Y0017600D02*
X-0000080D01*
X0006806Y0017520D02*
X-0000080D01*
X0006767Y0017440D02*
X-0000080D01*
X0006740Y0017360D02*
X-0000080D01*
X0006725Y0017280D02*
X-0000080D01*
X0006720Y0017200D02*
X-0000080D01*
X0006740Y0017040D02*
X-0000080D01*
X0006767Y0016960D02*
X-0000080D01*
X0006860Y0016800D02*
X-0000080D01*
X0006860Y0016720D02*
X-0000080D01*
X0006806Y0016640D02*
X-0000080D01*
X0006767Y0016560D02*
X-0000080D01*
X0006740Y0016480D02*
X-0000025D01*
X0006725Y0016400D02*
X0000055D01*
X0006720Y0016320D02*
X0000135D01*
X0006725Y0016240D02*
X0000215D01*
X0006740Y0016160D02*
X0000295D01*
X0027479Y0008480D02*
X0011715D01*
X0006860Y0015920D02*
X0003785D01*
X0006177Y0029600D02*
X0004547D01*
X0007050Y0015760D02*
X0003848D01*
X0010417Y0016160D02*
X0007980D01*
X0004258Y0015280D02*
X0003857D01*
X0004097Y0015200D02*
X0003857D01*
X0020973Y0010160D02*
X0013333D01*
X0004013Y0015120D02*
X0003857D01*
X0003964Y0015040D02*
X0003857D01*
X0003938Y0014960D02*
X0003857D01*
X0003930Y0014880D02*
X0003857D01*
X0003938Y0014800D02*
X0003857D01*
X0003964Y0014720D02*
X0003857D01*
X0010013Y0014560D02*
X0004543D01*
X0013285Y0014640D02*
X0010676D01*
X0002497Y0017760D02*
X-0000080D01*
X0013366Y0014400D02*
X0003857D01*
X0013420Y0014320D02*
X0003857D01*
X0013610Y0014160D02*
X0003857D01*
X0025672Y0014080D02*
X0003857D01*
X0025589Y0014000D02*
X0003857D01*
X0005533Y0009840D02*
X0003857D01*
X0025527Y0013920D02*
X0003857D01*
X0005777Y0013840D02*
X0003857D01*
X0005693Y0013760D02*
X0003857D01*
X0005644Y0013680D02*
X0003857D01*
X0005618Y0013600D02*
X0003857D01*
X0005610Y0013520D02*
X0003857D01*
X0005618Y0013440D02*
X0003857D01*
X0005644Y0013360D02*
X0003857D01*
X0009058Y0013280D02*
X0006307D01*
X0009084Y0013200D02*
X0006223D01*
X0005777D02*
X0003857D01*
X0014490Y0013040D02*
X0009663D01*
X0015644Y0005600D02*
X0014383D01*
X0022057Y0012560D02*
X0005270D01*
X0004657Y0012880D02*
X0003857D01*
X0004573Y0012800D02*
X0003857D01*
X0004524Y0012720D02*
X0003857D01*
X0004498Y0012640D02*
X0003857D01*
X0004490Y0012560D02*
X0003857D01*
X0004498Y0012480D02*
X0003857D01*
X0004657Y0012240D02*
X0003857D01*
X0027479Y0008720D02*
X0006467D01*
X0005191Y0007520D02*
X0003857D01*
X0004897Y0011840D02*
X0003857D01*
X0004632Y0011760D02*
X0003857D01*
X0004471Y0011680D02*
X0003857D01*
X0004398Y0011600D02*
X0003857D01*
X0004356Y0011520D02*
X0003857D01*
X0004335Y0011440D02*
X0003857D01*
X0004331Y0011360D02*
X0003857D01*
X0004343Y0011280D02*
X0003857D01*
X0004374Y0011200D02*
X0003857D01*
X0004429Y0011120D02*
X0003857D01*
X0004497Y0011040D02*
X0003857D01*
X0004413Y0010960D02*
X0003857D01*
X0004364Y0010880D02*
X0003857D01*
X0004338Y0010800D02*
X0003857D01*
X0004330Y0010720D02*
X0003857D01*
X0004338Y0010640D02*
X0003857D01*
X0004364Y0010560D02*
X0003857D01*
X0004497Y0010400D02*
X0003857D01*
X0005533Y0010320D02*
X0003857D01*
X0005458Y0010160D02*
X0003857D01*
X0005450Y0010080D02*
X0003857D01*
X0005458Y0010000D02*
X0003857D01*
X0005484Y0009920D02*
X0003857D01*
X0020465D02*
X0006196D01*
X0020429Y0009840D02*
X0006147D01*
X0020412Y0009760D02*
X0006063D01*
X0020412Y0009680D02*
X0003857D01*
X0020429Y0009600D02*
X0003857D01*
X0020465Y0009520D02*
X0003857D01*
X0024604Y0009280D02*
X0021983D01*
X0024578Y0009200D02*
X0003857D01*
X0005377Y0009120D02*
X0003857D01*
X0005293Y0009040D02*
X0003857D01*
X0005244Y0008960D02*
X0003857D01*
X0005218Y0008880D02*
X0003857D01*
X0005210Y0008800D02*
X0003857D01*
X0005218Y0008720D02*
X0003857D01*
X0005244Y0008640D02*
X0003857D01*
X0005778Y0008400D02*
X0003857D01*
X0008173Y0008560D02*
X0006542D01*
X0005693Y0008240D02*
X0003857D01*
X0005249Y0008160D02*
X0003857D01*
X0014881Y0000480D02*
X0011183D01*
X0005063Y0007920D02*
X0003857D01*
X0005051Y0007840D02*
X0003857D01*
X0005055Y0007760D02*
X0003857D01*
X0005076Y0007680D02*
X0003857D01*
X0005118Y0007600D02*
X0003857D01*
X0019450Y0017520D02*
X0016463D01*
X0005618Y0007360D02*
X0003857D01*
X0005610Y0007280D02*
X0003857D01*
X0005693Y0013280D02*
X0003857D01*
X0005618Y0007200D02*
X0003857D01*
X0005777Y0006960D02*
X0003857D01*
X0008493Y0006880D02*
X0003857D01*
X0010551Y0005920D02*
X0007556D01*
X0005693Y0007040D02*
X0003857D01*
X0006657Y0006720D02*
X0003857D01*
X0005933Y0006560D02*
X0003857D01*
X0005858Y0006400D02*
X0003857D01*
X0004312Y0006320D02*
X0003857D01*
X0004151Y0006240D02*
X0003857D01*
X0008017Y0002080D02*
X0003857D01*
X0004078Y0006160D02*
X0003857D01*
X0004036Y0006080D02*
X0003857D01*
X0004015Y0006000D02*
X0003857D01*
X0004011Y0005920D02*
X0003857D01*
X0004023Y0005840D02*
X0003857D01*
X0004054Y0005760D02*
X0003857D01*
X0005533Y0005680D02*
X0004691D01*
X0004333Y0004640D02*
X0003857D01*
X0005773Y0005520D02*
X0003857D01*
X0008897Y0004720D02*
X0008676D01*
X0005690Y0005280D02*
X0003857D01*
X0004417Y0005200D02*
X0003857D01*
X0004333Y0005120D02*
X0003857D01*
X0004284Y0005040D02*
X0003857D01*
X0004258Y0004960D02*
X0003857D01*
X0004250Y0004880D02*
X0003857D01*
X0004258Y0004800D02*
X0003857D01*
X0011058Y0004560D02*
X0008543D01*
X0004417D02*
X0003857D01*
X0011050Y0004480D02*
X0003857D01*
X0011058Y0004400D02*
X0003857D01*
X0011084Y0004320D02*
X0003857D01*
X0011217Y0004160D02*
X0003857D01*
X0027479Y0004080D02*
X0003857D01*
X0027479Y0003920D02*
X0003857D01*
X0027479Y0003840D02*
X0003857D01*
X0027479Y0003760D02*
X0003857D01*
X0013993Y0010320D02*
X0013489D01*
X0027479Y0003680D02*
X0003857D01*
X0010897Y0003600D02*
X0003857D01*
X0003293Y0018800D02*
X-0000080D01*
X0010764Y0003440D02*
X0003857D01*
X0007537Y0003360D02*
X0003857D01*
X0004284Y0004720D02*
X0003857D01*
X0007453Y0003280D02*
X0003857D01*
X0011530Y0020000D02*
X0010875D01*
X0007378Y0003120D02*
X0003857D01*
X0007297Y0003040D02*
X0003857D01*
Y0001606D02*
Y0000394D01*
X0007164Y0002880D02*
X0003857D01*
X0007138Y0002800D02*
X0003857D01*
X0007130Y0002720D02*
X0003857D01*
X0007138Y0002640D02*
X0003857D01*
X0007164Y0002560D02*
X0003857D01*
X0007297Y0002400D02*
X0003857D01*
X0007884Y0002240D02*
X0003857D01*
X0004109Y0005680D02*
X0003857D01*
X0004017Y0002000D02*
X0003857D01*
X0003933Y0001920D02*
X0003857D01*
X0003884Y0001840D02*
X0003857D01*
X0022608Y0000480D02*
X0016455D01*
X0017617Y0000560D02*
X0016455D01*
X0017533Y0000640D02*
X0016455D01*
X0003884Y0001520D02*
X0003857D01*
X0009297Y0001440D02*
X0004547D01*
X0004017Y0001360D02*
X0003857D01*
X0009138Y0001200D02*
X0003857D01*
X0001029Y0027520D02*
X-0000080D01*
X0009130Y0001120D02*
X0003857D01*
X0009164Y0000960D02*
X0003857D01*
X0009164Y0001280D02*
X0003857D01*
X0009297Y0000800D02*
X0003857D01*
X0010578Y0000720D02*
X0003857D01*
X0010604Y0000640D02*
X0003857D01*
X0010737Y0000480D02*
X0003857D01*
X0014881Y0000400D02*
X0003857D01*
X0014807Y0000320D02*
X0003931D01*
X0014727Y0000240D02*
X0004011D01*
X0014567Y0000080D02*
X0004171D01*
X0010509Y0005360D02*
X0009343D01*
X0015618D02*
X0012116D01*
X0015644Y0005280D02*
X0012067D01*
X0017164Y0005040D02*
X0009510D01*
X0017196Y0004960D02*
X0009502D01*
X0011453Y0005280D02*
X0010991D01*
X0011217Y0004800D02*
X0009427D01*
X0005724Y0005440D02*
X0003857D01*
X0008764Y0005200D02*
X0008543D01*
X0008738Y0005120D02*
X0008627D01*
X0008730Y0005040D02*
X0008676D01*
X0008738Y0004960D02*
X0008702D01*
X0008764Y0004880D02*
X0008710D01*
X0008813Y0004800D02*
X0008702D01*
X0011133Y0004720D02*
X0009343D01*
X0011084Y0004640D02*
X0008627D01*
X0027479Y0005840D02*
X0014542D01*
X0027479Y0003040D02*
X0020127D01*
X0027479Y0002960D02*
X0020243D01*
X0027479Y0002880D02*
X0020315D01*
X0027479Y0002800D02*
X0020364D01*
X0027479Y0002720D02*
X0020396D01*
X0027479Y0002640D02*
X0020414D01*
X0027479Y0002560D02*
X0020420D01*
X0027479Y0002480D02*
X0020414D01*
X0027479Y0002400D02*
X0020396D01*
X0027479Y0002320D02*
X0020364D01*
X0027479Y0002240D02*
X0020315D01*
X0027479Y0002160D02*
X0020243D01*
X0006977Y0005760D02*
X0006783D01*
X0019533Y0017280D02*
X0016622D01*
X0024653Y0009360D02*
X0022067D01*
X0009460Y0007200D02*
X0006382D01*
X0009217Y0013040D02*
X0003857D01*
X0012245Y0011840D02*
X0005343D01*
X0012260Y0011760D02*
X0004808D01*
X0012287Y0011680D02*
X0004969D01*
X0012326Y0011600D02*
X0005042D01*
X0012321Y0010720D02*
X0005263D01*
X0012380Y0011520D02*
X0005084D01*
X0012352Y0010880D02*
X0005396D01*
X0012587Y0011200D02*
X0005396D01*
X0012384Y0010400D02*
X0006063D01*
X0012431Y0010320D02*
X0006147D01*
X0012495Y0010240D02*
X0006196D01*
X0012587Y0010160D02*
X0006222D01*
X0012737Y0010080D02*
X0006230D01*
X0011404Y0005680D02*
X0011185D01*
X0020650Y0010080D02*
X0013183D01*
X0020529Y0010000D02*
X0006222D01*
X0025480Y0013840D02*
X0006223D01*
X0025446Y0013760D02*
X0006307D01*
X0009217Y0013680D02*
X0006356D01*
X0009133Y0013600D02*
X0006382D01*
X0009084Y0013520D02*
X0006390D01*
X0009058Y0013440D02*
X0006382D01*
X0009050Y0013360D02*
X0006356D01*
X0027479Y0008000D02*
X0016547D01*
X0027479Y0007040D02*
X0026523D01*
X0027479Y0006960D02*
X0026607D01*
X0027479Y0006880D02*
X0026656D01*
X0027479Y0006800D02*
X0026682D01*
X0027479Y0006720D02*
X0026690D01*
X0027479Y0006640D02*
X0026682D01*
X0027479Y0006560D02*
X0026656D01*
X0027479Y0006480D02*
X0026607D01*
X0025453Y0010880D02*
X0014774D01*
X0025404Y0010800D02*
X0022071D01*
X0025378Y0010720D02*
X0022171D01*
X0025370Y0010640D02*
X0022226D01*
X0025378Y0010560D02*
X0022257D01*
X0025404Y0010480D02*
X0022269D01*
X0025453Y0010400D02*
X0022265D01*
X0027479Y0010000D02*
X0021662D01*
X0027479Y0010240D02*
X0022202D01*
X0027479Y0010160D02*
X0022129D01*
X0027479Y0014400D02*
X0022387D01*
X0027479Y0012000D02*
X0026882D01*
X0027479Y0014880D02*
X0022387D01*
X0027479Y0014800D02*
X0022436D01*
X0027479Y0014720D02*
X0022462D01*
X0027479Y0014640D02*
X0022470D01*
X0027479Y0014560D02*
X0022462D01*
X0027479Y0014480D02*
X0022436D01*
X0027479Y0014960D02*
X0022303D01*
X0012457Y0011440D02*
X0005105D01*
X0011033Y0007680D02*
X0010247D01*
X0013993Y0011280D02*
X0013183D01*
X0026418Y0011120D02*
X0016943D01*
X0013805D02*
X0013425D01*
X0013756Y0011040D02*
X0013489D01*
X0006017Y0006640D02*
X0003857D01*
X0013706Y0010880D02*
X0013568D01*
X0013700Y0010800D02*
X0013589D01*
X0013706Y0010720D02*
X0013599D01*
X0013724Y0010640D02*
X0013599D01*
X0013756Y0010560D02*
X0013589D01*
X0013805Y0010480D02*
X0013568D01*
X0013877Y0010400D02*
X0013535D01*
X0015693Y0005680D02*
X0014467D01*
X0021057Y0010240D02*
X0013425D01*
X0019617Y0017200D02*
X0016630D01*
X0019533Y0017760D02*
X0013963D01*
X0019484Y0017680D02*
X0014113D01*
X0000413Y0019200D02*
X-0000080D01*
X0016017Y0017520D02*
X0014269D01*
X0015933Y0017440D02*
X0014315D01*
X0015884Y0017360D02*
X0014348D01*
X0015858Y0017280D02*
X0014369D01*
X0015850Y0017200D02*
X0014379D01*
X0015884Y0017040D02*
X0014369D01*
X0015933Y0016960D02*
X0014348D01*
X0027479Y0016000D02*
X0016463D01*
X0027479Y0016800D02*
X0014269D01*
X0016017Y0016640D02*
X0014113D01*
X0016017Y0007440D02*
X0014836D01*
X0024898Y0020160D02*
X0023307D01*
X0027479Y0020480D02*
X0025587D01*
X0027479Y0020720D02*
X0023223D01*
X0024973Y0020000D02*
X0021429D01*
X0025057Y0020560D02*
X0023356D01*
X0024973Y0020480D02*
X0023382D01*
X0024924Y0020400D02*
X0023390D01*
X0024898Y0020320D02*
X0023382D01*
X0010284Y0016640D02*
X0007914D01*
X0022693Y0020160D02*
X0021439D01*
X0024924Y0020080D02*
X0023223D01*
X0022777D02*
X0021439D01*
X0022777Y0020720D02*
X0021023D01*
X0022693Y0020640D02*
X0021173D01*
X0022644Y0020560D02*
X0021265D01*
X0022618Y0020480D02*
X0021329D01*
X0022610Y0020400D02*
X0021375D01*
X0022618Y0020320D02*
X0021408D01*
X0024890Y0020240D02*
X0023356D01*
X0025410Y0019840D02*
X0021375D01*
X0022417Y0019120D02*
X0003982D01*
X0022417Y0019760D02*
X0021329D01*
X0022333Y0019680D02*
X0021265D01*
X0022284Y0019600D02*
X0021173D01*
X0022644Y0020240D02*
X0021429D01*
X0013133Y0019760D02*
X0012227D01*
X0020161Y0020080D02*
X0016039D01*
X0020171Y0020000D02*
X0016029D01*
X0019777Y0020800D02*
X0014676D01*
X0019777Y0020160D02*
X0016039D01*
X0019693Y0020720D02*
X0015623D01*
X0019644Y0020640D02*
X0015773D01*
X0019618Y0020560D02*
X0015865D01*
X0019610Y0020480D02*
X0015929D01*
X0020192Y0019920D02*
X0016008D01*
X0020224Y0019840D02*
X0015975D01*
X0020271Y0019760D02*
X0015929D01*
X0020335Y0019680D02*
X0015865D01*
X0020427Y0019600D02*
X0015773D01*
X0013290Y0021040D02*
X0006213D01*
X0013298Y0020960D02*
X0010630D01*
X0020577Y0019520D02*
X0015623D01*
X0013084Y0019840D02*
X0012276D01*
X0011564Y0020160D02*
X0010961D01*
X0011538Y0020080D02*
X0010925D01*
X0013324Y0020880D02*
X0010759D01*
X0013373Y0020800D02*
X0010843D01*
X0013930Y0020640D02*
X0010945D01*
X0013938Y0020560D02*
X0010974D01*
X0013964Y0020480D02*
X0010992D01*
X0014013Y0020400D02*
X0011000D01*
X0011697Y0020320D02*
X0010997D01*
X0011697Y0019680D02*
X0007323D01*
X0011538Y0019920D02*
X0010805D01*
X0009877Y0020800D02*
X0006260D01*
X0009759Y0020160D02*
X0007477D01*
X0009795Y0020080D02*
X0007480D01*
X0009845Y0020000D02*
X0007472D01*
X0009818Y0020720D02*
X0006999D01*
X0009775Y0020640D02*
X0007183D01*
X0009746Y0020560D02*
X0007285D01*
X0009728Y0020480D02*
X0007355D01*
X0009720Y0020400D02*
X0007405D01*
X0009723Y0020320D02*
X0007441D01*
X0009735Y0020240D02*
X0007464D01*
X0009915Y0019920D02*
X0007454D01*
X0010016Y0019840D02*
X0007425D01*
X0011564D02*
X0010704D01*
X0011613Y0020240D02*
X0010985D01*
X0015027Y0019600D02*
X0007240D01*
X0016017Y0021600D02*
X-0000080D01*
X0006275Y0020400D02*
X0006120D01*
X0013324Y0021200D02*
X0006120D01*
X0006239Y0020320D02*
X0006043D01*
X0005197D02*
X0005163D01*
X0000497Y0019760D02*
X-0000080D01*
X0005197Y0021280D02*
X0005163D01*
X0015933Y0021520D02*
X-0000080D01*
X0013373Y0021280D02*
X0006043D01*
X0015177Y0019520D02*
X0007111D01*
X0010090Y0020960D02*
X0006240D01*
X0009961Y0020880D02*
X0006255D01*
X0000178Y0020160D02*
X-0000080D01*
X0006681Y0020720D02*
X0006255D01*
X0006497Y0020640D02*
X0006240D01*
X0006395Y0020560D02*
X0006213D01*
X0006325Y0020480D02*
X0006174D01*
X0005310Y0021360D02*
X0005050D01*
X0006725Y0017120D02*
X-0000080D01*
X0014253Y0001920D02*
X0013103D01*
X0013164Y0016880D02*
X0007914D01*
X0010333Y0016720D02*
X0007860D01*
X0015933Y0016560D02*
X0013963D01*
X0010258D02*
X0007953D01*
X0010250Y0016480D02*
X0007980D01*
X0010258Y0016400D02*
X0007995D01*
X0010284Y0016320D02*
X0008000D01*
X0010333Y0016240D02*
X0007995D01*
X0015933Y0016080D02*
X0007953D01*
X0027479Y0015360D02*
X0011590D01*
X0027479Y0015920D02*
X0007860D01*
X0027479Y0015840D02*
X0007783D01*
X0011079Y0028240D02*
X0002152D01*
X0023618Y0028160D02*
X0023089D01*
X0023644Y0028080D02*
X0023286D01*
X0023693Y0028000D02*
X0023427D01*
X0027479Y0024000D02*
X0026730D01*
X0027479Y0027840D02*
X0023633D01*
X0027479Y0027760D02*
X0023712D01*
X0027479Y0027680D02*
X0023781D01*
X0027479Y0027600D02*
X0023840D01*
X0027479Y0027520D02*
X0023891D01*
X0027479Y0027440D02*
X0023936D01*
X0027479Y0027360D02*
X0023974D01*
X0027479Y0027280D02*
X0024006D01*
X0027479Y0027200D02*
X0024034D01*
X0027479Y0027920D02*
X0024223D01*
X0027479Y0027040D02*
X0024073D01*
X0027479Y0026960D02*
X0024086D01*
X0027479Y0026880D02*
X0024094D01*
X0027479Y0026800D02*
X0024097D01*
X0025878Y0026640D02*
X0024092D01*
X0025725Y0026560D02*
X0024082D01*
X0025627Y0026480D02*
X0024068D01*
X0025555Y0026400D02*
X0024050D01*
X0025502Y0026320D02*
X0024026D01*
X0025461Y0026240D02*
X0023998D01*
X0025433Y0026160D02*
X0023963D01*
X0025413Y0026080D02*
X0023924D01*
X0025404Y0026000D02*
X0023877D01*
X0025402Y0025920D02*
X0023824D01*
X0025410Y0025840D02*
X0023762D01*
X0025426Y0025760D02*
X0023690D01*
X0025452Y0025680D02*
X0023607D01*
X0025489Y0025600D02*
X0023509D01*
X0025539Y0025520D02*
X0023389D01*
X0025604Y0025440D02*
X0023236D01*
X0025694Y0025360D02*
X0023010D01*
X0006937Y0015840D02*
X0003825D01*
X0027479Y0016720D02*
X0014205D01*
X0011218Y0028160D02*
X0009310D01*
X0011356Y0028080D02*
X0009506D01*
X0014266Y0026400D02*
X0010270D01*
X0011633Y0027920D02*
X0009760D01*
X0011772Y0027840D02*
X0009853D01*
X0011910Y0027760D02*
X0009933D01*
X0012049Y0027680D02*
X0010001D01*
X0012188Y0027600D02*
X0010060D01*
X0012326Y0027520D02*
X0010112D01*
X0012465Y0027440D02*
X0010156D01*
X0012603Y0027360D02*
X0010194D01*
X0012742Y0027280D02*
X0010227D01*
X0011495Y0028000D02*
X0009647D01*
X0013019Y0027120D02*
X0010276D01*
X0013157Y0027040D02*
X0010293D01*
X0013296Y0026960D02*
X0010306D01*
X0013435Y0026880D02*
X0010314D01*
X0021352Y0026080D02*
X0020787D01*
X0013712Y0026720D02*
X0010317D01*
X0013850Y0026640D02*
X0010312D01*
X0013989Y0026560D02*
X0010303D01*
X0014127Y0026480D02*
X0010289D01*
X0012880Y0027200D02*
X0010254D01*
X0014405Y0026320D02*
X0010247D01*
X0014543Y0026240D02*
X0010218D01*
X0014959Y0026000D02*
X0010098D01*
X0015097Y0025920D02*
X0010044D01*
X0015236Y0025840D02*
X0009982D01*
X0015375Y0025760D02*
X0009911D01*
X0020338Y0025600D02*
X0009729D01*
X0020364Y0025520D02*
X0009610D01*
X0027479Y0023760D02*
X0026412D01*
X0027479Y0020400D02*
X0026452D01*
X0027479Y0020320D02*
X0026586D01*
X0027479Y0020240D02*
X0026676D01*
X0027479Y0020160D02*
X0026743D01*
X0027479Y0020080D02*
X0026793D01*
X0027479Y0020640D02*
X0023307D01*
X0027479Y0019920D02*
X0026856D01*
X0027479Y0019840D02*
X0026873D01*
X0027479Y0019760D02*
X0026881D01*
X0027479Y0019680D02*
X0026880D01*
X0027479Y0019600D02*
X0026870D01*
X0027479Y0019520D02*
X0026852D01*
X0027479Y0019440D02*
X0026823D01*
X0027479Y0019360D02*
X0026784D01*
X0027479Y0019280D02*
X0026730D01*
X0027479Y0019200D02*
X0026660D01*
X0027479Y0019120D02*
X0026563D01*
X0027479Y0019040D02*
X0026413D01*
X0027479Y0018960D02*
X0026252D01*
X0027479Y0018880D02*
X0026492D01*
X0027479Y0018800D02*
X0026612D01*
X0027479Y0018720D02*
X0026695D01*
X0027479Y0018640D02*
X0026757D01*
X0027479Y0018560D02*
X0026803D01*
X0027479Y0018480D02*
X0026838D01*
X0027479Y0018400D02*
X0026862D01*
X0027479Y0018320D02*
X0026876D01*
X0027479Y0018240D02*
X0026882D01*
X0027479Y0018160D02*
X0026879D01*
X0027479Y0018080D02*
X0026867D01*
X0027479Y0018000D02*
X0026846D01*
X0027479Y0017920D02*
X0026814D01*
X0027479Y0017840D02*
X0026772D01*
X0027479Y0017760D02*
X0026715D01*
X0027479Y0017680D02*
X0026639D01*
X0027479Y0017600D02*
X0026533D01*
X0006806Y0016000D02*
X0003722D01*
X0027479Y0014240D02*
X0026249D01*
X0027479Y0014160D02*
X0026491D01*
X0027479Y0014080D02*
X0026611D01*
X0027479Y0014000D02*
X0026694D01*
X0027479Y0013920D02*
X0026756D01*
X0027479Y0013840D02*
X0026803D01*
X0027479Y0013760D02*
X0026837D01*
X0027479Y0013680D02*
X0026861D01*
X0027479Y0013600D02*
X0026876D01*
X0027479Y0013520D02*
X0026882D01*
X0027479Y0013440D02*
X0026879D01*
X0027479Y0013360D02*
X0026867D01*
X0027479Y0013280D02*
X0026846D01*
X0027479Y0013200D02*
X0026815D01*
X0027479Y0013120D02*
X0026772D01*
X0027479Y0013040D02*
X0026715D01*
X0027479Y0012960D02*
X0026639D01*
X0027479Y0012880D02*
X0026533D01*
X0027479Y0012800D02*
X0026357D01*
X0027479Y0012720D02*
X0026343D01*
X0027479Y0012640D02*
X0026526D01*
X0027479Y0012560D02*
X0026634D01*
X0027479Y0012480D02*
X0026712D01*
X0027479Y0012400D02*
X0026769D01*
X0027479Y0012320D02*
X0026813D01*
X0027479Y0012240D02*
X0026844D01*
X0027479Y0012160D02*
X0026866D01*
X0027479Y0012080D02*
X0026878D01*
X0027479Y0011440D02*
X0027107D01*
X0027479Y0011920D02*
X0026876D01*
X0027479Y0011840D02*
X0026862D01*
X0027479Y0011760D02*
X0026839D01*
X0027479Y0011680D02*
X0026805D01*
X0013724Y0010960D02*
X0013535D01*
X0027479Y0010880D02*
X0027023D01*
X0027479Y0011520D02*
X0027023D01*
X0027479Y0011600D02*
X0026759D01*
X0027479Y0028560D02*
X0024783D01*
X0027479Y0026640D02*
X0026406D01*
X0027479Y0026560D02*
X0026559D01*
X0027479Y0026480D02*
X0026657D01*
X0027479Y0026400D02*
X0026728D01*
X0027479Y0026320D02*
X0026782D01*
X0027479Y0026240D02*
X0026822D01*
X0027479Y0026160D02*
X0026851D01*
X0027479Y0026080D02*
X0026870D01*
X0027479Y0026720D02*
X0024097D01*
X0027479Y0025920D02*
X0026881D01*
X0027479Y0025840D02*
X0026874D01*
X0027479Y0025760D02*
X0026857D01*
X0027479Y0025680D02*
X0026831D01*
X0027479Y0025600D02*
X0026794D01*
X0027479Y0025520D02*
X0026745D01*
X0027479Y0025440D02*
X0026679D01*
X0027479Y0025360D02*
X0026590D01*
X0027479Y0025280D02*
X0026458D01*
X0027479Y0025120D02*
X0026453D01*
X0027479Y0025040D02*
X0026587D01*
X0027479Y0024960D02*
X0026677D01*
X0027479Y0024880D02*
X0026743D01*
X0027479Y0024800D02*
X0026793D01*
X0027479Y0024720D02*
X0026830D01*
X0027479Y0024640D02*
X0026857D01*
X0027479Y0024560D02*
X0026873D01*
X0027479Y0024480D02*
X0026881D01*
X0027479Y0024400D02*
X0026880D01*
X0027479Y0024320D02*
X0026870D01*
X0027479Y0024240D02*
X0026852D01*
X0027479Y0024160D02*
X0026823D01*
X0027479Y0024080D02*
X0026783D01*
X0027479Y0027120D02*
X0024056D01*
X0027479Y0023920D02*
X0026659D01*
X0027479Y0023840D02*
X0026562D01*
X0007560Y0027440D02*
X0001627D01*
X0007522Y0027360D02*
X0001624D01*
X0007490Y0027280D02*
X0001805D01*
X0007463Y0027200D02*
X0001912D01*
X0007440Y0027120D02*
X0001989D01*
X0007423Y0027040D02*
X0002046D01*
X0007410Y0026960D02*
X0002089D01*
X0007402Y0026880D02*
X0002120D01*
X0007399Y0026800D02*
X0002142D01*
X0010097Y0014480D02*
X0003857D01*
X0007399Y0026720D02*
X0002154D01*
X0007404Y0026640D02*
X0002157D01*
X0007414Y0026560D02*
X0002152D01*
X0007428Y0026480D02*
X0002138D01*
X0007446Y0026400D02*
X0002114D01*
X0007470Y0026320D02*
X0002080D01*
X0007499Y0026240D02*
X0002034D01*
X0007533Y0026160D02*
X0001972D01*
X0007573Y0026080D02*
X0001890D01*
X0004017Y0029040D02*
X-0000080D01*
X0009832Y0028960D02*
X-0000080D01*
X0006018Y0030000D02*
X-0000080D01*
X0010109Y0028800D02*
X0001770D01*
X0010248Y0028720D02*
X0001889D01*
X0013573Y0026800D02*
X0010318D01*
X0010386Y0028640D02*
X0001971D01*
X0010663Y0028480D02*
X0002079D01*
X0010802Y0028400D02*
X0002114D01*
X0020413Y0025440D02*
X0009457D01*
X0008407Y0028160D02*
X0002157D01*
X0008210Y0028080D02*
X0002154D01*
X0008069Y0028000D02*
X0002142D01*
X0007957Y0027920D02*
X0002121D01*
X0007863Y0027840D02*
X0002089D01*
X0007784Y0027760D02*
X0002046D01*
X0007715Y0027680D02*
X0001989D01*
X0007656Y0027600D02*
X0001913D01*
X0007605Y0027520D02*
X0001806D01*
X0027479Y0007200D02*
X0022307D01*
X0027479Y0000880D02*
X0027011D01*
X0027479Y0000800D02*
X0027011D01*
X0027479Y0000720D02*
X0027011D01*
X0027479Y0000640D02*
X0027011D01*
X0027479Y0000560D02*
X0027011D01*
X0027479Y0000480D02*
X0027011D01*
X0027479Y0000400D02*
X0027011D01*
X0027405Y0000320D02*
X0027011D01*
X0027325Y0000240D02*
X0027011D01*
X0027245Y0000160D02*
X0027011D01*
X0027479Y0002000D02*
X0014916D01*
X0027165Y0000080D02*
X0027011D01*
X0014647Y0000160D02*
X0004091D01*
X0006767Y0016080D02*
X0003618D01*
X0020497Y0025360D02*
X0009231D01*
X0004013Y0014640D02*
X0003857D01*
X0004738Y0012080D02*
X0003857D01*
X0014682Y0026160D02*
X0010184D01*
X0005617Y0009760D02*
X0003857D01*
X0022170Y0011520D02*
X0017102D01*
X0020650Y0009360D02*
X0003857D01*
X0000204Y0020400D02*
X-0000080D01*
X0019618D02*
X0015975D01*
X0005484Y0010240D02*
X0003857D01*
X0016426Y0002640D02*
X0011507D01*
X0019458Y0017600D02*
X0014205D01*
X0005777Y0008320D02*
X0003857D01*
X0011613Y0019760D02*
X0010519D01*
X0008897Y0014640D02*
X0004627D01*
X0009964D02*
X0009343D01*
X0010097Y0015120D02*
X0009476D01*
X0014498Y0012960D02*
X0003857D01*
X0013457Y0020720D02*
X0010902D01*
X0010977Y0015040D02*
X0010783D01*
X0010204Y0015200D02*
X0009427D01*
X0010609Y0005280D02*
X0009427D01*
X0013280Y0014720D02*
X0010702D01*
X0011930Y0006320D02*
X0009503D01*
X0005293Y0008560D02*
X0003857D01*
X0019484Y0017360D02*
X0016596D01*
X0008097Y0008160D02*
X0006870D01*
X0005644D02*
X0005631D01*
X0006337Y0005760D02*
X0006196D01*
X0005484Y0006080D02*
X0004764D01*
X0005149Y0008080D02*
X0003857D01*
X0007858Y0002320D02*
X0003857D01*
X0010478Y0005840D02*
X0007507D01*
X0027479Y0020880D02*
X0014627D01*
X0019458Y0017440D02*
X0016547D01*
X0016017Y0016880D02*
X0014315D01*
X0010712Y0006000D02*
X0007582D01*
X0021977Y0017120D02*
X0016622D01*
X0005857Y0004960D02*
X0005022D01*
X0005617Y0005600D02*
X0004591D01*
X0009213Y0000880D02*
X0003857D01*
X0009057Y0006320D02*
X0009023D01*
X0011853Y0000640D02*
X0011316D01*
X0013877Y0011200D02*
X0013333D01*
X0014954Y0001120D02*
X0013556D01*
X0007213Y0002480D02*
X0003857D01*
X0007850Y0002400D02*
X0007743D01*
X0000364Y0019280D02*
X-0000080D01*
X0000170Y0020240D02*
X-0000080D01*
X0004730Y0012160D02*
X0003857D01*
X0025421Y0011840D02*
X0023073D01*
X0025445Y0011760D02*
X0023034D01*
X0025478Y0011680D02*
X0022980D01*
X0025524Y0011600D02*
X0022903D01*
X0025585Y0011520D02*
X0022790D01*
X0021378Y0009520D02*
X0021135D01*
X0021404Y0009440D02*
X0021071D01*
X0021453Y0009360D02*
X0020950D01*
X0014524Y0012880D02*
X0005103D01*
X0014573Y0012800D02*
X0005187D01*
X0014657Y0012720D02*
X0005236D01*
X0021558Y0010240D02*
X0021503D01*
X0021631Y0010160D02*
X0021587D01*
X0021792Y0010080D02*
X0021636D01*
X0027479Y0008800D02*
X0025183D01*
X0021846Y0017920D02*
X0019507D01*
X0021780Y0017760D02*
X0020147D01*
X0021765Y0017680D02*
X0020196D01*
X0021760Y0017600D02*
X0020222D01*
X0021765Y0017520D02*
X0020230D01*
X0021780Y0017440D02*
X0020222D01*
X0021807Y0017360D02*
X0020196D01*
X0021846Y0017280D02*
X0020147D01*
X0021900Y0017200D02*
X0020063D01*
X0027479Y0007120D02*
X0022356D01*
X0027479Y0007280D02*
X0022223D01*
X0027479Y0006400D02*
X0026523D01*
X0026077Y0007040D02*
X0022382D01*
X0025993Y0006960D02*
X0022390D01*
X0025944Y0006880D02*
X0022382D01*
X0025918Y0006800D02*
X0022356D01*
X0025910Y0006720D02*
X0022307D01*
X0025918Y0006640D02*
X0022223D01*
X0026493Y0010960D02*
X0025983D01*
X0026577Y0010880D02*
X0026067D01*
X0027479Y0014320D02*
X0022303D01*
X0027479Y0010800D02*
X0026116D01*
X0027479Y0010720D02*
X0026142D01*
X0027479Y0010640D02*
X0026150D01*
X0027479Y0010560D02*
X0026142D01*
X0027479Y0010480D02*
X0026116D01*
X0027479Y0010400D02*
X0026067D01*
X0004430Y0021360D02*
X0004150D01*
X0004317Y0021280D02*
X0004263D01*
X0004317Y0020320D02*
X0004263D01*
X0004430Y0020240D02*
X0004150D01*
X0027479Y0011280D02*
X0027182D01*
X0027479Y0009440D02*
X0025183D01*
X0027479Y0009360D02*
X0025267D01*
X0027479Y0009280D02*
X0025316D01*
X0027479Y0009200D02*
X0025342D01*
X0027479Y0009120D02*
X0025350D01*
X0027479Y0009040D02*
X0025342D01*
X0027479Y0008960D02*
X0025316D01*
X0027479Y0008880D02*
X0025267D01*
X0006018Y0029840D02*
X-0000080D01*
X0006093Y0029680D02*
X0004463D01*
X0008723Y0029600D02*
X0006623D01*
X0008862Y0029520D02*
X0004596D01*
X0009001Y0029440D02*
X0004622D01*
X0009139Y0029360D02*
X0004630D01*
X0009278Y0029280D02*
X0004622D01*
X0009416Y0029200D02*
X0004596D01*
X0009555Y0029120D02*
X0004547D01*
X0025460Y0019440D02*
X0023030D01*
X0025500Y0019360D02*
X0023022D01*
X0025553Y0019280D02*
X0022996D01*
X0025624Y0019200D02*
X0022947D01*
X0025720Y0019120D02*
X0022863D01*
X0025402Y0019760D02*
X0022863D01*
X0025403Y0019680D02*
X0022947D01*
X0025413Y0019600D02*
X0022996D01*
X0025432Y0019520D02*
X0023022D01*
X0019693Y0020240D02*
X0016029D01*
X0027479Y0017040D02*
X0022710D01*
X0020577Y0020720D02*
X0020307D01*
X0022170Y0012640D02*
X0005262D01*
X0021980Y0012480D02*
X0013190D01*
X0021926Y0012400D02*
X0013303D01*
X0021887Y0012320D02*
X0013380D01*
X0021860Y0012240D02*
X0013434D01*
X0021845Y0012160D02*
X0013473D01*
X0021840Y0012080D02*
X0013500D01*
X0021845Y0012000D02*
X0013515D01*
X0021860Y0011920D02*
X0013520D01*
X0016497Y0011760D02*
X0013500D01*
X0016413Y0011680D02*
X0013473D01*
X0016364Y0011600D02*
X0013434D01*
X0016338Y0011520D02*
X0013380D01*
X0016330Y0011440D02*
X0013303D01*
X0016338Y0011360D02*
X0013190D01*
X0027479Y0009520D02*
X0022142D01*
X0027479Y0015280D02*
X0014230D01*
X0027479Y0015200D02*
X0014343D01*
X0027479Y0015120D02*
X0014420D01*
X0021698Y0014560D02*
X0014540D01*
X0021724Y0014480D02*
X0014513D01*
X0021857Y0014960D02*
X0014513D01*
X0021773Y0014880D02*
X0014540D01*
X0021724Y0014800D02*
X0014555D01*
X0021698Y0014720D02*
X0014560D01*
X0021690Y0014640D02*
X0014555D01*
X0021773Y0014400D02*
X0014474D01*
X0021857Y0014320D02*
X0014420D01*
X0026034Y0014240D02*
X0014343D01*
X0025792Y0014160D02*
X0014230D01*
X0027479Y0015760D02*
X0007670D01*
X0027479Y0008640D02*
X0011527D01*
X0027479Y0008560D02*
X0011643D01*
X0027479Y0008400D02*
X0011764D01*
X0027479Y0008320D02*
X0011796D01*
X0027479Y0008240D02*
X0011814D01*
X0016017Y0008080D02*
X0011814D01*
X0015933Y0008000D02*
X0011796D01*
X0027479Y0008160D02*
X0011820D01*
X0014173Y0007840D02*
X0011715D01*
X0014124Y0007760D02*
X0011643D01*
X0014257Y0007920D02*
X0011764D01*
X0014098Y0007680D02*
X0011527D01*
X0016364Y0011280D02*
X0014487D01*
X0016413Y0011200D02*
X0014603D01*
X0016497Y0011120D02*
X0014675D01*
X0026444Y0011040D02*
X0014724D01*
X0025537Y0010960D02*
X0014756D01*
X0021689Y0010800D02*
X0014780D01*
X0021589Y0010720D02*
X0014774D01*
X0021534Y0010640D02*
X0014756D01*
X0021503Y0010560D02*
X0014724D01*
X0021491Y0010480D02*
X0014675D01*
X0021495Y0010400D02*
X0014603D01*
X0021516Y0010320D02*
X0014487D01*
X0027479Y0004160D02*
X0011663D01*
X0027479Y0003600D02*
X0011343D01*
X0027479Y0003520D02*
X0011427D01*
X0027479Y0003440D02*
X0011476D01*
X0027479Y0003360D02*
X0011502D01*
X0011033Y0008640D02*
X0008703D01*
X0010764Y0008000D02*
X0009747D01*
X0024737Y0008800D02*
X0006383D01*
X0014761Y0020160D02*
X0013796D01*
X0014761Y0020080D02*
X0013822D01*
X0013050Y0020000D02*
X0012310D01*
X0014771D02*
X0013830D01*
X0013133Y0020240D02*
X0012227D01*
X0014771D02*
X0013747D01*
X0014792Y0019920D02*
X0013822D01*
X0014824Y0019840D02*
X0013796D01*
X0014871Y0019760D02*
X0013747D01*
X0013084Y0020160D02*
X0012276D01*
X0013058Y0020080D02*
X0012302D01*
X0014097Y0020320D02*
X0013663D01*
X0013217D02*
X0012143D01*
X0014935Y0019680D02*
X0013663D01*
X0013217D02*
X0012143D01*
X0013058Y0019920D02*
X0012302D01*
X0007964Y0008000D02*
X0007423D01*
X0008013Y0007600D02*
X0007582D01*
X0008097Y0007520D02*
X0007556D01*
X0009484Y0007360D02*
X0007423D01*
X0007938Y0007760D02*
X0007582D01*
X0007964Y0007680D02*
X0007590D01*
X0009516Y0007440D02*
X0007507D01*
X0007938Y0007920D02*
X0007507D01*
X0007930Y0007840D02*
X0007556D01*
X0009637Y0007600D02*
X0008627D01*
X0009565Y0007520D02*
X0008543D01*
X0008737Y0007760D02*
X0008702D01*
X0010337Y0015680D02*
X0008943D01*
X0010253Y0015600D02*
X0009027D01*
X0010204Y0015520D02*
X0009076D01*
X0010178Y0015440D02*
X0009102D01*
X0010170Y0015360D02*
X0009110D01*
X0010977Y0015680D02*
X0010783D01*
X0010893Y0015600D02*
X0010867D01*
X0015850Y0021280D02*
X0013987D01*
X0015858Y0021200D02*
X0014036D01*
X0015884Y0021120D02*
X0014062D01*
X0015933Y0021040D02*
X0014070D01*
X0014097Y0020960D02*
X0014062D01*
X0013938Y0020720D02*
X0013903D01*
X0015858Y0021360D02*
X0013903D01*
X0017011Y0021600D02*
X0016463D01*
X0016938Y0021520D02*
X0016547D01*
X0016896Y0021440D02*
X0016596D01*
X0016870Y0021280D02*
X0016630D01*
X0016883Y0021200D02*
X0016622D01*
X0016914Y0021120D02*
X0016596D01*
X0016969Y0021040D02*
X0016547D01*
X0016875Y0021360D02*
X0016622D01*
X0017069Y0020960D02*
X0016463D01*
X0027479Y0007360D02*
X0014787D01*
X0017433Y0005680D02*
X0016307D01*
X0017317Y0005600D02*
X0016356D01*
X0017140Y0005200D02*
X0016307D01*
X0017245Y0005520D02*
X0016382D01*
X0017196Y0005440D02*
X0016390D01*
X0017164Y0005360D02*
X0016382D01*
X0017146Y0005280D02*
X0016356D01*
X0017146Y0005120D02*
X0016223D01*
X0017164Y0013360D02*
X0015103D01*
X0017138Y0013280D02*
X0015187D01*
X0017130Y0013200D02*
X0015236D01*
X0017138Y0013120D02*
X0015262D01*
X0017164Y0013040D02*
X0015270D01*
X0017213Y0012960D02*
X0015262D01*
X0017297Y0012880D02*
X0015236D01*
X0025926Y0012800D02*
X0015187D01*
X0025941Y0012720D02*
X0015103D01*
X0013366Y0015040D02*
X0011423D01*
X0013300Y0014560D02*
X0010627D01*
X0008413Y0015120D02*
X0004947D01*
X0010893D02*
X0010867D01*
X0013327Y0014480D02*
X0010543D01*
X0013327Y0014960D02*
X0010676D01*
X0013300Y0014880D02*
X0010702D01*
X0013285Y0014800D02*
X0010710D01*
X0011938Y0006400D02*
X0009587D01*
X0011297Y0001440D02*
X0009743D01*
X0011213Y0001360D02*
X0009827D01*
X0011138Y0001200D02*
X0009902D01*
X0010737Y0001120D02*
X0009910D01*
X0010653Y0001040D02*
X0009902D01*
X0010604Y0000960D02*
X0009876D01*
X0011164Y0001280D02*
X0009876D01*
X0010578Y0000880D02*
X0009827D01*
X0010570Y0000800D02*
X0009743D01*
X0003218Y0019120D02*
X0000943D01*
X0008098Y0008400D02*
X0006787D01*
X0008090Y0008320D02*
X0006836D01*
X0008098Y0008240D02*
X0006862D01*
X0008124Y0008480D02*
X0006703D01*
X0006844Y0007840D02*
X0006703D01*
X0008013Y0008080D02*
X0006862D01*
X0006818Y0007760D02*
X0006307D01*
X0006893Y0007440D02*
X0006356D01*
X0008418Y0006720D02*
X0007103D01*
X0003205Y0020720D02*
X-0000080D01*
X0003247Y0020560D02*
X0000783D01*
X0003286Y0020480D02*
X0000867D01*
X0003340Y0020400D02*
X0000916D01*
X0003417Y0020320D02*
X0000942D01*
X0006203Y0020160D02*
X0000942D01*
X0006200Y0020080D02*
X0000916D01*
X0006208Y0020000D02*
X0000867D01*
X0006226Y0019920D02*
X0000783D01*
X0021807Y0017840D02*
X0020063D01*
X0006253Y0005840D02*
X0006222D01*
X0010415Y0005680D02*
X0006147D01*
X0027479D02*
X0017927D01*
X0027479Y0005600D02*
X0018043D01*
X0027479Y0005200D02*
X0018220D01*
X0027479Y0005520D02*
X0018115D01*
X0027479Y0005440D02*
X0018164D01*
X0027479Y0005360D02*
X0018196D01*
X0027479Y0005280D02*
X0018214D01*
X0027479Y0005120D02*
X0018214D01*
X0027479Y0005040D02*
X0018196D01*
X0027479Y0004960D02*
X0018164D01*
X0027479Y0004880D02*
X0018115D01*
X0027479Y0004800D02*
X0018043D01*
X0004573Y0012320D02*
X0003857D01*
X0025405Y0018160D02*
X0022710D01*
X0025417Y0018080D02*
X0022823D01*
X0021900Y0018000D02*
X0019556D01*
X0025469Y0017920D02*
X0022954D01*
X0025512Y0017840D02*
X0022993D01*
X0025569Y0017760D02*
X0023020D01*
X0025645Y0017680D02*
X0023035D01*
X0025751Y0017600D02*
X0023040D01*
X0025928Y0017520D02*
X0023035D01*
X0027479D02*
X0026356D01*
X0027479Y0017440D02*
X0023020D01*
X0027479Y0017360D02*
X0022993D01*
X0027479Y0017280D02*
X0022954D01*
X0027479Y0017200D02*
X0022900D01*
X0010411Y0005600D02*
X0006303D01*
X0010423Y0005520D02*
X0006387D01*
X0010454Y0005440D02*
X0006436D01*
X0008897Y0005360D02*
X0006462D01*
X0008813Y0005280D02*
X0006470D01*
X0008097Y0005200D02*
X0006462D01*
X0008013Y0005120D02*
X0006436D01*
X0007964Y0005040D02*
X0006387D01*
X0007938Y0004960D02*
X0006303D01*
X0006255Y0019840D02*
X0001343D01*
X0006298Y0019760D02*
X0001427D01*
X0006357Y0019680D02*
X0001476D01*
X0006440Y0019600D02*
X0001502D01*
X0006569Y0019520D02*
X0001510D01*
X0003933Y0029120D02*
X-0000080D01*
X0003377Y0019360D02*
X0001476D01*
X0003293Y0019280D02*
X0001427D01*
X0003244Y0019200D02*
X0001343D01*
X0014173Y0007360D02*
X0010516D01*
X0014257Y0007280D02*
X0010534D01*
X0021777D02*
X0014703D01*
X0010796Y0007920D02*
X0009663D01*
X0021693Y0007200D02*
X0010540D01*
X0021644Y0007120D02*
X0010534D01*
X0014090Y0007600D02*
X0010363D01*
X0014098Y0007520D02*
X0010435D01*
X0014124Y0007440D02*
X0010484D01*
X0021618Y0007040D02*
X0010516D01*
X0021610Y0006960D02*
X0010484D01*
X0021618Y0006880D02*
X0010435D01*
X0021644Y0006800D02*
X0010363D01*
X0027479Y0002080D02*
X0020127D01*
X0027479Y0001840D02*
X0018067D01*
X0027479Y0001760D02*
X0018116D01*
X0014886Y0000880D02*
X0013582D01*
X0014881Y0000800D02*
X0013556D01*
X0014881Y0000720D02*
X0013507D01*
X0022250Y0019440D02*
X0001502D01*
X0022258Y0019360D02*
X0003823D01*
X0022284Y0019280D02*
X0003907D01*
X0022333Y0019200D02*
X0003956D01*
X0025870Y0019040D02*
X0003990D01*
X0014337Y0018960D02*
X0003982D01*
X0007617Y0018880D02*
X0003956D01*
X0007533Y0018800D02*
X0003907D01*
X0007484Y0018720D02*
X0003823D01*
X0010813Y0003520D02*
X0003857D01*
X0010738Y0003360D02*
X0007983D01*
X0010730Y0003280D02*
X0008067D01*
X0027479Y0015040D02*
X0014474D01*
X0027479Y0008080D02*
X0016463D01*
X0027479Y0004720D02*
X0017927D01*
X0027479Y0007920D02*
X0016596D01*
X0027479Y0007840D02*
X0016622D01*
X0027479Y0007760D02*
X0016630D01*
X0027479Y0007680D02*
X0016622D01*
X0027479Y0007600D02*
X0016596D01*
X0027479Y0007520D02*
X0016547D01*
X0027479Y0020000D02*
X0026830D01*
X0027479Y0020560D02*
X0025503D01*
X0025831Y0020400D02*
X0025636D01*
X0025697Y0020320D02*
X0025662D01*
X0027479Y0010320D02*
X0025983D01*
X0027479Y0011200D02*
X0027190D01*
X0027479Y0011120D02*
X0027182D01*
X0027479Y0011040D02*
X0027156D01*
X0027479Y0010960D02*
X0027107D01*
X0027479Y0011360D02*
X0027156D01*
X0027479Y0005920D02*
X0014550D01*
X0027479Y0006080D02*
X0014516D01*
X0013770Y0005920D02*
X0011049D01*
X0013778Y0005840D02*
X0011983D01*
X0013804Y0005760D02*
X0012067D01*
X0015777D02*
X0014516D01*
X0015693Y0005200D02*
X0011983D01*
X0015618Y0005520D02*
X0012150D01*
X0015610Y0005440D02*
X0012142D01*
X0017245Y0004880D02*
X0009476D01*
X0017317Y0004800D02*
X0011663D01*
X0027479Y0006320D02*
X0012710D01*
X0027479Y0004640D02*
X0011796D01*
X0027479Y0004560D02*
X0011822D01*
X0027479Y0004480D02*
X0011830D01*
X0027479Y0004400D02*
X0011822D01*
X0027479Y0004320D02*
X0011796D01*
X0027479Y0004240D02*
X0011747D01*
X0027479Y0020800D02*
X0020223D01*
X0027479Y0021680D02*
X0017348D01*
X0027479Y0021600D02*
X0017509D01*
X0027479Y0021520D02*
X0017582D01*
X0027479Y0021440D02*
X0017624D01*
X0027479Y0021280D02*
X0017649D01*
X0027479Y0021200D02*
X0017637D01*
X0027479Y0021120D02*
X0017606D01*
X0027479Y0021040D02*
X0017551D01*
X0027479Y0021360D02*
X0017645D01*
X0013298Y0021120D02*
X0006174D01*
X0027479Y0020960D02*
X0017451D01*
X0022258Y0019520D02*
X0021023D01*
X0015177Y0020720D02*
X0014702D01*
X0015027Y0020640D02*
X0014710D01*
X0014935Y0020560D02*
X0014702D01*
X0014871Y0020480D02*
X0014676D01*
X0014824Y0020400D02*
X0014627D01*
X0014792Y0020320D02*
X0014543D01*
X0007404Y0003200D02*
X0003857D01*
X0010764Y0003120D02*
X0008142D01*
X0010818Y0002960D02*
X0008142D01*
X0010810Y0002880D02*
X0008116D01*
X0010818Y0002800D02*
X0008067D01*
X0007933Y0002640D02*
X0007902D01*
X0007884Y0002560D02*
X0007876D01*
X0007858Y0002480D02*
X0007827D01*
X0014178Y0002080D02*
X0011556D01*
X0012657Y0001920D02*
X0011423D01*
X0013497Y0014240D02*
X0003857D01*
X0027479Y0015680D02*
X0011423D01*
X0027479Y0015600D02*
X0011507D01*
X0027479Y0015520D02*
X0011556D01*
X0027479Y0015440D02*
X0011582D01*
X0013610Y0015280D02*
X0011582D01*
X0013497Y0015200D02*
X0011556D01*
X0013420Y0015120D02*
X0011507D01*
X0013211Y0016800D02*
X0010863D01*
X0013275Y0016720D02*
X0010947D01*
X0013367Y0016640D02*
X0010996D01*
X0013517Y0016560D02*
X0011022D01*
X0015884Y0016480D02*
X0011030D01*
X0015858Y0016400D02*
X0011022D01*
X0015850Y0016320D02*
X0010996D01*
X0015858Y0016240D02*
X0010947D01*
X0015884Y0016160D02*
X0010863D01*
X0004417Y0015680D02*
X0003857D01*
X0004333Y0015600D02*
X0003857D01*
X0010178Y0015280D02*
X0009343D01*
X0004097Y0014560D02*
X0003857D01*
X0010013Y0015040D02*
X0009502D01*
X0009964Y0014960D02*
X0009510D01*
X0009938Y0014880D02*
X0009502D01*
X0009930Y0014800D02*
X0009476D01*
X0009938Y0014720D02*
X0009427D01*
X0025422Y0013680D02*
X0009663D01*
X0025408Y0013600D02*
X0009747D01*
X0017297Y0013520D02*
X0009796D01*
X0017213Y0013440D02*
X0009822D01*
X0015777Y0005120D02*
X0009502D01*
X0014657Y0013360D02*
X0009830D01*
X0014573Y0013280D02*
X0009822D01*
X0014524Y0013200D02*
X0009796D01*
X0014498Y0013120D02*
X0009747D01*
X0009217Y0008560D02*
X0008787D01*
X0010917D02*
X0009663D01*
X0010796Y0008400D02*
X0009796D01*
X0010764Y0008320D02*
X0009822D01*
X0010746Y0008240D02*
X0009830D01*
X0009133Y0008480D02*
X0008836D01*
X0010845D02*
X0009747D01*
X0010845Y0007840D02*
X0009267D01*
X0010813Y0003040D02*
X0008150D01*
X0027479Y0003200D02*
X0011502D01*
X0012097Y0006000D02*
X0010888D01*
X0016713Y0003040D02*
X0011556D01*
X0016597Y0002960D02*
X0011582D01*
X0016525Y0002880D02*
X0011590D01*
X0016476Y0002800D02*
X0011582D01*
X0016444Y0002720D02*
X0011556D01*
X0025402Y0013520D02*
X0017743D01*
X0025405Y0013440D02*
X0017827D01*
X0025417Y0013360D02*
X0017876D01*
X0025438Y0013280D02*
X0017902D01*
X0025469Y0013200D02*
X0017910D01*
X0025512Y0013120D02*
X0017902D01*
X0025568Y0013040D02*
X0017876D01*
X0025644Y0012960D02*
X0017827D01*
X0025750Y0012880D02*
X0017743D01*
X0021887Y0011840D02*
X0013515D01*
X0021926Y0011760D02*
X0016943D01*
X0021980Y0011680D02*
X0017027D01*
X0022057Y0011600D02*
X0017076D01*
X0025667Y0011440D02*
X0017110D01*
X0025784Y0011360D02*
X0017102D01*
X0026008Y0011280D02*
X0017076D01*
X0027479Y0001600D02*
X0018150D01*
X0027479Y0001520D02*
X0018142D01*
X0021537Y0009280D02*
X0003857D01*
X0024570Y0009120D02*
X0005823D01*
X0024578Y0009040D02*
X0005907D01*
X0024604Y0008960D02*
X0005956D01*
X0005377Y0008480D02*
X0003857D01*
X0024653Y0008880D02*
X0005982D01*
X0004764Y0012000D02*
X0003857D01*
X0008257Y0008640D02*
X0006516D01*
X0021302Y0027360D02*
X0019903D01*
X0021269Y0027280D02*
X0019987D01*
X0021242Y0027200D02*
X0020036D01*
X0021220Y0027120D02*
X0020062D01*
X0021203Y0027040D02*
X0020070D01*
X0021190Y0026960D02*
X0020062D01*
X0021182Y0026880D02*
X0020036D01*
X0021178Y0026800D02*
X0019987D01*
X0021179Y0026720D02*
X0019903D01*
X0027479Y0028800D02*
X0024942D01*
X0027479Y0028480D02*
X0024307D01*
X0027479Y0028400D02*
X0024356D01*
X0027479Y0028320D02*
X0024382D01*
X0024337Y0028560D02*
X0024223D01*
X0027479Y0028240D02*
X0024390D01*
X0027479Y0028160D02*
X0024382D01*
X0027479Y0028080D02*
X0024356D01*
X0027479Y0026000D02*
X0026880D01*
X0012338Y0001280D02*
X0011876D01*
X0014900Y0000960D02*
X0013590D01*
X0012844Y0000800D02*
X0012542D01*
X0012893Y0000720D02*
X0012516D01*
X0014881Y0000640D02*
X0013423D01*
X0027479Y0001920D02*
X0017983D01*
X0027479Y0001200D02*
X0018063D01*
X0027479Y0001120D02*
X0018147D01*
X0027479Y0001040D02*
X0018196D01*
X0022608Y0000880D02*
X0018230D01*
X0022608Y0000800D02*
X0018222D01*
X0022608Y0000720D02*
X0018196D01*
X0022608Y0000640D02*
X0018147D01*
X0014253Y0018880D02*
X0008543D01*
X0018818Y0018240D02*
X0008543D01*
X0007484Y0018400D02*
X0002943D01*
X0007533Y0018320D02*
X0003027D01*
X0007617Y0018240D02*
X0003076D01*
X0018810Y0018160D02*
X0003102D01*
X0018818Y0018080D02*
X0003110D01*
X0018844Y0018000D02*
X0003102D01*
X0018893Y0017920D02*
X0003076D01*
X0018977Y0017840D02*
X0003027D01*
X0026031Y0018960D02*
X0014783D01*
X0025791Y0018880D02*
X0014867D01*
X0025672Y0018800D02*
X0014916D01*
X0025589Y0018720D02*
X0014942D01*
X0025527Y0018640D02*
X0014950D01*
X0025480Y0018560D02*
X0014942D01*
X0018977Y0018480D02*
X0014916D01*
X0018893Y0018400D02*
X0014867D01*
X0018844Y0018320D02*
X0014783D01*
X0025446Y0018480D02*
X0019423D01*
X0025422Y0018400D02*
X0019507D01*
X0025407Y0018320D02*
X0019556D01*
X0025402Y0018240D02*
X0019582D01*
X0017433Y0004720D02*
X0011747D01*
X0025438Y0018000D02*
X0022900D01*
X0022090Y0018160D02*
X0019590D01*
X0021977Y0018080D02*
X0019582D01*
X0027479Y0017120D02*
X0022823D01*
X0027479Y0001360D02*
X0018067D01*
X0012413Y0001440D02*
X0011743D01*
X0012497Y0001520D02*
X0004596D01*
X0009138Y0001040D02*
X0003857D01*
X0011937Y0001200D02*
X0011902D01*
X0015128Y0001360D02*
X0013187D01*
X0027479Y0001680D02*
X0018142D01*
X0011778Y0000800D02*
X0011743D01*
X0011804Y0000720D02*
X0011342D01*
X0014881Y0000560D02*
X0012383D01*
X0027479Y0028960D02*
X0024942D01*
X0027479Y0029840D02*
X0024783D01*
X0027479Y0029760D02*
X0024867D01*
X0027479Y0029600D02*
X0024942D01*
X0027479Y0029520D02*
X0024950D01*
X0027479Y0029680D02*
X0024916D01*
X0027479Y0029360D02*
X0024916D01*
X0003850D02*
X-0000080D01*
X0027479Y0029200D02*
X0024783D01*
X0027479Y0029120D02*
X0024867D01*
X0027479Y0029440D02*
X0024942D01*
X0027479Y0029040D02*
X0024916D01*
X0027479Y0028880D02*
X0024950D01*
X0027479Y0028000D02*
X0024307D01*
X0027479Y0028720D02*
X0024916D01*
X0027479Y0028640D02*
X0024867D01*
X0011964Y0006160D02*
X0007582D01*
X0012013Y0006080D02*
X0007590D01*
X0027479Y0007440D02*
X0016463D01*
X0027479Y0006240D02*
X0014383D01*
X0013853Y0005680D02*
X0012116D01*
X0013937Y0005600D02*
X0012142D01*
X0016017Y0020960D02*
X0014543D01*
X0027479Y0005760D02*
X0016223D01*
X0027479Y0010080D02*
X0021968D01*
X0027479Y0009920D02*
X0021983D01*
X0027479Y0009840D02*
X0022067D01*
X0027479Y0009760D02*
X0022116D01*
X0027479Y0009680D02*
X0022142D01*
X0027479Y0009600D02*
X0022150D01*
X0003530Y0020240D02*
X0000950D01*
X0004284Y0015520D02*
X0003857D01*
X0004258Y0015440D02*
X0003857D01*
X0004250Y0015360D02*
X0003857D01*
X0008364Y0015200D02*
X0004996D01*
X0008730Y0014960D02*
X0004702D01*
X0008738Y0014880D02*
X0004710D01*
X0008764Y0014800D02*
X0004702D01*
X0008813Y0014720D02*
X0004676D01*
X0000338Y0019360D02*
X-0000080D01*
X0006844Y0007520D02*
X0006307D01*
X0009466Y0007280D02*
X0006390D01*
X0006818Y0007600D02*
X0006223D01*
X0009466Y0007120D02*
X0006356D01*
X0009484Y0007040D02*
X0006307D01*
X0006977Y0008000D02*
X0006836D01*
X0006977Y0007360D02*
X0006382D01*
X0008577Y0006960D02*
X0006223D01*
X0008444Y0006800D02*
X0003857D01*
X0006573Y0006640D02*
X0006463D01*
X0008418Y0006560D02*
X0007236D01*
X0008444Y0006480D02*
X0007262D01*
X0027479Y0016960D02*
X0016547D01*
X0008493Y0006400D02*
X0007423D01*
X0008577Y0006320D02*
X0007507D01*
X0027479Y0016880D02*
X0016463D01*
X0027479Y0016640D02*
X0016463D01*
X0027479Y0016560D02*
X0016547D01*
X0027479Y0016480D02*
X0016596D01*
X0027479Y0016400D02*
X0016622D01*
X0027479Y0016320D02*
X0016630D01*
X0027479Y0016240D02*
X0016622D01*
X0027479Y0016160D02*
X0016596D01*
X0027479Y0016080D02*
X0016547D01*
X0012737Y0011280D02*
X0005347D01*
X0012384Y0010960D02*
X0005422D01*
X0012331Y0010800D02*
X0005347D01*
X0012321Y0010640D02*
X0005102D01*
X0012331Y0010560D02*
X0005076D01*
X0012352Y0010480D02*
X0005027D01*
X0010740Y0008160D02*
X0009822D01*
X0015884Y0007920D02*
X0014703D01*
X0015858Y0007840D02*
X0014787D01*
X0015850Y0007760D02*
X0014836D01*
X0015858Y0007680D02*
X0014862D01*
X0015884Y0007600D02*
X0014870D01*
X0015933Y0007520D02*
X0014862D01*
X0027479Y0006000D02*
X0014542D01*
X0019617Y0017840D02*
X0019423D01*
X0000497Y0019120D02*
X-0000080D01*
X0027479Y0000960D02*
X0018222D01*
X0008097Y0018880D02*
X0008063D01*
X0014204Y0018800D02*
X0008627D01*
X0014178Y0018720D02*
X0008676D01*
X0014253Y0018400D02*
X0008676D01*
X0014170Y0018640D02*
X0008702D01*
X0014178Y0018560D02*
X0008710D01*
X0014204Y0018480D02*
X0008702D01*
X0020427Y0020640D02*
X0020356D01*
X0012570Y0012480D02*
X0005343D01*
X0012457Y0012400D02*
X0005427D01*
X0012380Y0012320D02*
X0005476D01*
X0012326Y0012240D02*
X0005502D01*
X0012287Y0012160D02*
X0005510D01*
X0012260Y0012080D02*
X0005502D01*
X0012245Y0012000D02*
X0005476D01*
X0012240Y0011920D02*
X0005427D01*
X0014204Y0002000D02*
X0011507D01*
X0017404Y0001760D02*
X0013236D01*
X0017378Y0001680D02*
X0013262D01*
X0026410Y0011200D02*
X0017027D01*
X0027479Y0003120D02*
X0011507D01*
X0015379Y0001520D02*
X0013262D01*
X0015227Y0001440D02*
X0013236D01*
X0017370Y0001600D02*
X0013270D01*
X0005698Y0005360D02*
X0003857D01*
X0005698Y0005200D02*
X0004863D01*
X0005724Y0005120D02*
X0004947D01*
X0005773Y0005040D02*
X0004996D01*
X0007930Y0004880D02*
X0005030D01*
X0007938Y0004800D02*
X0005022D01*
X0007964Y0004720D02*
X0004996D01*
X0008013Y0004640D02*
X0004947D01*
X0008097Y0004560D02*
X0004863D01*
X0005884Y0006480D02*
X0003857D01*
X0005850Y0006320D02*
X0004488D01*
X0000253Y0020000D02*
X-0000080D01*
X0005617Y0006240D02*
X0004649D01*
X0005533Y0006160D02*
X0004722D01*
X0005458Y0006000D02*
X0004785D01*
X0005450Y0005920D02*
X0004789D01*
X0005458Y0005840D02*
X0004777D01*
X0005484Y0005760D02*
X0004746D01*
X0015858Y0017120D02*
X0014379D01*
X0010311Y0002000D02*
X0004463D01*
X0010472Y0001920D02*
X0004547D01*
X0004813Y0011920D02*
X0003857D01*
X0012573Y0001840D02*
X0004596D01*
X0012524Y0001760D02*
X0004622D01*
X0012498Y0001680D02*
X0004630D01*
X0012490Y0001600D02*
X0004622D01*
X0012364Y0001360D02*
X0011827D01*
X0002338Y0018000D02*
X-0000080D01*
X0003857Y0015669D02*
Y0001754D01*
X0007213Y0002960D02*
X0003857D01*
X0010369Y0002640D02*
X0008547D01*
X0010269Y0002560D02*
X0008596D01*
X0010214Y0002480D02*
X0008622D01*
X0010183Y0002400D02*
X0008630D01*
X0010171Y0002320D02*
X0008622D01*
X0010175Y0002240D02*
X0008596D01*
X0010196Y0002160D02*
X0008547D01*
X0010238Y0002080D02*
X0008463D01*
X0010893Y0002640D02*
X0010751D01*
X0010977Y0002560D02*
X0010851D01*
X0016713Y0002080D02*
X0014942D01*
X0014337Y0002480D02*
X0011507D01*
X0014253Y0002400D02*
X0011556D01*
X0014204Y0002320D02*
X0011582D01*
X0014178Y0002240D02*
X0011590D01*
X0014170Y0002160D02*
X0011582D01*
X0009213Y0001360D02*
X0004463D01*
X0022090Y0017040D02*
X0016596D01*
X0011938Y0006240D02*
X0007556D01*
X0027479Y0006160D02*
X0014467D01*
X0011537Y0005200D02*
X0009476D01*
X0011537Y0005840D02*
X0011122D01*
X0011453Y0005760D02*
X0011164D01*
X0011378Y0005600D02*
X0011189D01*
X0011370Y0005520D02*
X0011177D01*
X0011378Y0005440D02*
X0011146D01*
X0011404Y0005360D02*
X0011091D01*
X0006810Y0007680D02*
X0006223D01*
X0009057Y0006960D02*
X0009023D01*
X0009516D02*
X0009503D01*
X0009753Y0006720D02*
X0009662D01*
X0021693D02*
X0010247D01*
X0012097Y0006640D02*
X0009670D01*
X0012013Y0006560D02*
X0009662D01*
X0011964Y0006480D02*
X0009636D01*
X0004209Y0005600D02*
X0003857D01*
X0022186Y0028160D02*
X0020118D01*
X0021990Y0028080D02*
X0019980D01*
X0021849Y0028000D02*
X0019841D01*
X0019298Y0027120D02*
X0018317D01*
X0019290Y0027040D02*
X0018179D01*
X0019298Y0026960D02*
X0018040D01*
X0019324Y0026880D02*
X0017901D01*
X0019373Y0026800D02*
X0017763D01*
X0019457Y0026720D02*
X0017624D01*
X0020257Y0026640D02*
X0017486D01*
X0020173Y0026560D02*
X0017347D01*
X0020124Y0026480D02*
X0017209D01*
X0020098Y0026400D02*
X0017070D01*
X0021736Y0027920D02*
X0019703D01*
X0021643Y0027840D02*
X0019564D01*
X0021563Y0027760D02*
X0019426D01*
X0021495Y0027680D02*
X0019287D01*
X0021436Y0027600D02*
X0019148D01*
X0021384Y0027520D02*
X0019010D01*
X0021340Y0027440D02*
X0018871D01*
X0019457Y0027360D02*
X0018733D01*
X0019373Y0027280D02*
X0018594D01*
X0019324Y0027200D02*
X0018456D01*
X0020090Y0026320D02*
X0016931D01*
X0020098Y0026240D02*
X0016793D01*
X0020124Y0026160D02*
X0016654D01*
X0020173Y0026080D02*
X0016516D01*
X0020257Y0026000D02*
X0016377D01*
X0020413Y0025920D02*
X0016239D01*
X0020364Y0025840D02*
X0016100D01*
X0020338Y0025760D02*
X0015962D01*
X0020330Y0025680D02*
X0015791D01*
X0027357Y0030240D02*
X0023721D01*
X0027437Y0030160D02*
X0023583D01*
X0027479Y0030080D02*
X0023444D01*
X0027479Y0030000D02*
X0023305D01*
X0027479Y0029920D02*
X0023167D01*
X0024337Y0029840D02*
X0023028D01*
X0024253Y0029760D02*
X0022890D01*
X0024204Y0029680D02*
X0022751D01*
X0024178Y0029600D02*
X0022613D01*
X0024170Y0029520D02*
X0022474D01*
X0024178Y0029440D02*
X0022335D01*
X0024204Y0029360D02*
X0022197D01*
X0024253Y0029280D02*
X0022058D01*
X0024337Y0029200D02*
X0021920D01*
X0024253Y0029120D02*
X0021781D01*
X0027117Y0030480D02*
X0024137D01*
X0027197Y0030400D02*
X0023998D01*
X0027277Y0030320D02*
X0023860D01*
X0024178Y0028800D02*
X0021227D01*
X0024204Y0028720D02*
X0021088D01*
X0024253Y0028640D02*
X0020950D01*
X0023693Y0028480D02*
X0020673D01*
X0023644Y0028400D02*
X0020534D01*
X0023618Y0028320D02*
X0020396D01*
X0023610Y0028240D02*
X0020257D01*
X0023777Y0028560D02*
X0020811D01*
X0024178Y0028960D02*
X0021504D01*
X0024170Y0028880D02*
X0021366D01*
X0017297Y0001520D02*
X0015957D01*
X0017213Y0001440D02*
X0016109D01*
X0017164Y0001360D02*
X0016209D01*
X0017138Y0001280D02*
X0016282D01*
X0017130Y0001200D02*
X0016339D01*
X0017138Y0001120D02*
X0016382D01*
X0017164Y0001040D02*
X0016414D01*
X0017213Y0000960D02*
X0016436D01*
X0017297Y0000880D02*
X0016450D01*
X0017458Y0000800D02*
X0016455D01*
X0017484Y0000720D02*
X0016455D01*
X0022608Y0000400D02*
X0016455D01*
X0022608Y0000320D02*
X0016529D01*
X0022608Y0000240D02*
X0016609D01*
X0022608Y0000160D02*
X0016689D01*
X0022608Y0000080D02*
X0016769D01*
X0021777Y0006640D02*
X0012543D01*
X0025944Y0006560D02*
X0012627D01*
X0025993Y0006480D02*
X0012676D01*
X0026077Y0006400D02*
X0012702D01*
X0005094Y0008000D02*
X0003857D01*
X0013937Y0006240D02*
X0012702D01*
X0013853Y0006160D02*
X0012676D01*
X0013804Y0006080D02*
X0012627D01*
X0013778Y0006000D02*
X0012543D01*
X0019633Y0003040D02*
X0017207D01*
X0019517Y0002960D02*
X0017323D01*
X0019445Y0002880D02*
X0017395D01*
X0019396Y0002800D02*
X0017444D01*
X0019364Y0002720D02*
X0017476D01*
X0019346Y0002640D02*
X0017494D01*
X0019340Y0002560D02*
X0017500D01*
X0019346Y0002480D02*
X0017494D01*
X0019364Y0002400D02*
X0017476D01*
X0019396Y0002320D02*
X0017444D01*
X0019445Y0002240D02*
X0017395D01*
X0019517Y0002160D02*
X0017323D01*
X0019633Y0002080D02*
X0017207D01*
X0016420Y0002560D02*
X0011423D01*
X0016426Y0002480D02*
X0014783D01*
X0016444Y0002400D02*
X0014867D01*
X0016476Y0002320D02*
X0014916D01*
X0016525Y0002240D02*
X0014942D01*
X0016597Y0002160D02*
X0014950D01*
X0027479Y0001280D02*
X0017983D01*
X0017453Y0001840D02*
X0014783D01*
X0017537Y0001920D02*
X0014867D01*
X0013517Y0017760D02*
X0007670D01*
X0013367Y0017680D02*
X0007783D01*
X0013275Y0017600D02*
X0007860D01*
X0013211Y0017520D02*
X0007914D01*
X0013164Y0017440D02*
X0007953D01*
X0013132Y0017360D02*
X0007980D01*
X0013111Y0017280D02*
X0007995D01*
X0013101Y0017200D02*
X0008000D01*
X0013101Y0017120D02*
X0007995D01*
X0013111Y0017040D02*
X0007980D01*
X0013132Y0016960D02*
X0007953D01*
X0021184Y0026640D02*
X0020703D01*
X0021193Y0026560D02*
X0020787D01*
X0021207Y0026480D02*
X0020836D01*
X0021226Y0026400D02*
X0020862D01*
X0021249Y0026320D02*
X0020870D01*
X0021278Y0026240D02*
X0020862D01*
X0021312Y0026160D02*
X0020836D01*
X0015545Y0025680D02*
X0009828D01*
X0007615Y0030240D02*
X0006623D01*
X0007753Y0030160D02*
X0006707D01*
X0007892Y0030080D02*
X0006756D01*
X0008031Y0030000D02*
X0006782D01*
X0008169Y0029920D02*
X0006790D01*
X0008308Y0029840D02*
X0006782D01*
X0008446Y0029760D02*
X0006756D01*
X0008585Y0029680D02*
X0006707D01*
X0008497Y0015680D02*
X0004863D01*
X0008413Y0015600D02*
X0004947D01*
X0008364Y0015520D02*
X0004996D01*
X0008338Y0015440D02*
X0005022D01*
X0008330Y0015360D02*
X0005030D01*
X0008338Y0015280D02*
X0005022D01*
X0021398Y0026000D02*
X0020943D01*
X0021452Y0025920D02*
X0021027D01*
X0021514Y0025840D02*
X0021076D01*
X0021585Y0025760D02*
X0021102D01*
X0021668Y0025680D02*
X0021110D01*
X0021767Y0025600D02*
X0021102D01*
X0021886Y0025520D02*
X0021076D01*
X0022039Y0025440D02*
X0021027D01*
X0022265Y0025360D02*
X0020943D01*
X0025757Y0012640D02*
X0022790D01*
X0025649Y0012560D02*
X0022903D01*
X0025572Y0012480D02*
X0022980D01*
X0025514Y0012400D02*
X0023034D01*
X0025471Y0012320D02*
X0023073D01*
X0025439Y0012240D02*
X0023100D01*
X0025418Y0012160D02*
X0023115D01*
X0025405Y0012080D02*
X0023120D01*
X0025402Y0012000D02*
X0023115D01*
X0025407Y0011920D02*
X0023100D01*
G01X0011760Y0005130D02*
G03X0012150Y0005520I0000000J0000390D01*
G03X0011760Y0005910I0000390J0000000D01*
G03X0011370Y0005520I0000000J0000390D01*
G01X0011050Y0004480D02*
G03X0011440Y0004090I0000390J0000000D01*
G03X0011830Y0004480I0000000J0000390D01*
G03X0011440Y0004870I0000390J0000000D01*
G03X0011050Y0004480I0000000J0000390D01*
G01X0016870Y0021300D02*
G03X0017260Y0020910I0000390J0000000D01*
G03X0017650Y0021300I0000000J0000390D01*
G03X0017260Y0021690I0000390J0000000D01*
G03X0016870Y0021300I0000000J0000390D01*
G01X0013930Y0020640D02*
G03X0014320Y0020250I0000390J0000000D01*
G03X0014710Y0020640I0000000J0000390D01*
G03X0014320Y0021030I0000390J0000000D01*
G01X0010216Y0015176D02*
G03X0009930Y0014800I0000104J0000376D01*
G01X0007130Y0002720D02*
G03X0007520Y0002330I0000390J0000000D01*
G03X0007908Y0002679I0000000J0000390D01*
G01X0011200Y0001850D02*
G03X0011590Y0002240I0000000J0000390D01*
G01X0011486Y0003145D02*
G03X0011510Y0003280I0000366J0000135D01*
G01X0008480Y0008710D02*
G03X0008090Y0008320I0000000J0000390D01*
G01X0010710Y0014800D02*
G03X0010664Y0014984I0000390J0000000D01*
G01X0011200Y0014970D02*
G03X0011590Y0015360I0000000J0000390D01*
G03X0011200Y0015750I0000390J0000000D01*
G01X0010880Y0015137D02*
G03X0011200Y0014970I0000320J0000223D01*
G01X0010250Y0016480D02*
G03X0010640Y0016090I0000390J0000000D01*
G03X0011030Y0016480I0000000J0000390D01*
G03X0010640Y0016870I0000390J0000000D01*
G03X0010250Y0016480I0000000J0000390D01*
G01X0008730Y0014960D02*
G03X0009120Y0014570I0000390J0000000D01*
G03X0009510Y0014960I0000000J0000390D01*
G03X0009120Y0015350I0000390J0000000D01*
G01X0009050Y0013360D02*
G03X0009440Y0012970I0000390J0000000D01*
G03X0009830Y0013360I0000000J0000390D01*
G03X0009440Y0013750I0000390J0000000D01*
G03X0009050Y0013360I0000000J0000390D01*
G01X0009106Y0008442D02*
G03X0008960Y0008470I0000146J0000362D01*
G01X0010560Y0001910D02*
G03X0010859Y0002050I0000000J0000390D01*
G01X0010810Y0002880D02*
G03X0010977Y0002560I0000390J0000000D01*
G01X0011590Y0002880D02*
G03X0011486Y0003145I0000390J0000000D01*
G01X0017130Y0013200D02*
G03X0017520Y0012810I0000390J0000000D01*
G03X0017910Y0013200I0000000J0000390D01*
G03X0017520Y0013590I0000390J0000000D01*
G03X0017130Y0013200I0000000J0000390D01*
G01X0016330Y0011440D02*
G03X0016720Y0011050I0000390J0000000D01*
G03X0017110Y0011440I0000000J0000390D01*
G03X0016720Y0011830I0000390J0000000D01*
G03X0016330Y0011440I0000000J0000390D01*
G01X0011906Y0001176D02*
G03X0011520Y0001510I0000386J0000056D01*
G01X0017944Y0001256D02*
G03X0018150Y0001600I0000184J0000344D01*
G01X0009670Y0006640D02*
G03X0009634Y0006803I0000390J0000000D01*
G01X0012833Y0000827D02*
G03X0013200Y0000570I0000367J0000133D01*
G01X0005210Y0008800D02*
G03X0005600Y0008410I0000390J0000000D01*
G01X0006870Y0008160D02*
G03X0006545Y0008545I0000390J0000000D01*
G01X0005600Y0008410D02*
G03X0005771Y0008450I0000000J0000390D01*
G01X0005600Y0009190D02*
G03X0005210Y0008800I0000000J0000390D01*
G01X0019290Y0027040D02*
G03X0019680Y0026650I0000390J0000000D01*
G03X0020070Y0027040I0000000J0000390D01*
G03X0019680Y0027430I0000390J0000000D01*
G03X0019290Y0027040I0000000J0000390D01*
G01X0023610Y0028240D02*
G03X0024000Y0027850I0000390J0000000D01*
G03X0024390Y0028240I0000000J0000390D01*
G03X0024000Y0028630I0000390J0000000D01*
G03X0023610Y0028240I0000000J0000390D01*
G01X0012490Y0001600D02*
G03X0012498Y0001521I0000390J0000000D01*
G01X0012160Y0000490D02*
G03X0012549Y0000850I0000000J0000390D01*
G01X0011774Y0000824D02*
G03X0012160Y0000490I0000386J0000056D01*
G01X0017370Y0001600D02*
G03X0017372Y0001561I0000390J0000000D01*
G01X0017840Y0000490D02*
G03X0018230Y0000880I0000000J0000390D01*
G01X0017455Y0000815D02*
G03X0017840Y0000490I0000385J0000065D01*
G01X0008320Y0018170D02*
G03X0008710Y0018560I0000000J0000390D01*
G03X0008320Y0018950I0000390J0000000D01*
G01X0008080Y0018253D02*
G03X0008320Y0018170I0000240J0000307D01*
G01X0002330Y0018080D02*
G03X0002720Y0017690I0000390J0000000D01*
G03X0003110Y0018080I0000000J0000390D01*
G03X0002720Y0018470I0000390J0000000D01*
G03X0002330Y0018080I0000000J0000390D01*
G01X0014170Y0018640D02*
G03X0014560Y0018250I0000390J0000000D01*
G03X0014950Y0018640I0000000J0000390D01*
G03X0014560Y0019030I0000390J0000000D01*
G03X0014170Y0018640I0000000J0000390D01*
G01X0018810Y0018160D02*
G03X0019200Y0017770I0000390J0000000D01*
G03X0019590Y0018160I0000000J0000390D01*
G03X0019200Y0018550I0000390J0000000D01*
G03X0018810Y0018160I0000000J0000390D01*
G01X0011520Y0000730D02*
G03X0011774Y0000824I0000000J0000390D01*
G01X0011349Y0000770D02*
G03X0011520Y0000730I0000171J0000350D01*
G01X0010570Y0000800D02*
G03X0010960Y0000410I0000390J0000000D01*
G01X0012160Y0001270D02*
G03X0011906Y0001176I0000000J0000390D01*
G01X0010960Y0000410D02*
G03X0011349Y0000770I0000000J0000390D01*
G01X0010960Y0001190D02*
G03X0010570Y0000800I0000000J0000390D01*
G01X0024170Y0029520D02*
G03X0024337Y0029200I0000390J0000000D01*
G01X0024950Y0029520D02*
G03X0024560Y0029910I0000390J0000000D01*
G03X0024170Y0029520I0000000J0000390D01*
Y0028880D02*
G03X0024560Y0028490I0000390J0000000D01*
G03X0024950Y0028880I0000000J0000390D01*
G03X0024783Y0029200I0000390J0000000D01*
G01X0013770Y0005920D02*
G03X0014160Y0005530I0000390J0000000D01*
G03X0014550Y0005920I0000000J0000390D01*
G03X0014160Y0006310I0000390J0000000D01*
G03X0013770Y0005920I0000000J0000390D01*
G01X0020928Y0010088D02*
G03X0020800Y0010110I0000128J0000368D01*
G01X0021760Y0009210D02*
G03X0022150Y0009600I0000000J0000390D01*
G03X0021760Y0009990I0000390J0000000D01*
G01X0021374Y0009542D02*
G03X0021760Y0009210I0000386J0000058D01*
G01X0005430Y0011040D02*
G03X0005107Y0011424I0000390J0000000D01*
G01X0003930Y0014880D02*
G03X0004320Y0014490I0000390J0000000D01*
G03X0004710Y0014880I0000000J0000390D01*
G03X0004698Y0014974I0000390J0000000D01*
G01X0005610Y0007280D02*
G03X0006000Y0006890I0000390J0000000D01*
G03X0006390Y0007280I0000000J0000390D01*
G01X0006334Y0007798D02*
G03X0006480Y0007770I0000146J0000362D01*
G01X0005784Y0005534D02*
G03X0005690Y0005280I0000296J0000254D01*
G01X0006240Y0006710D02*
G03X0005850Y0006320I0000000J0000390D01*
G01X0015850Y0016320D02*
G03X0016240Y0015930I0000390J0000000D01*
G03X0016630Y0016320I0000000J0000390D01*
G03X0016240Y0016710I0000390J0000000D01*
G03X0015850Y0016320I0000000J0000390D01*
G01X0004330Y0010720D02*
G03X0004720Y0010330I0000390J0000000D01*
G01X0005105Y0010655D02*
G03X0005430Y0011040I0000065J0000385D01*
G01X0004720Y0010330D02*
G03X0005105Y0010655I0000000J0000390D01*
G01X0014090Y0007600D02*
G03X0014480Y0007210I0000390J0000000D01*
G03X0014870Y0007600I0000000J0000390D01*
G03X0014480Y0007990I0000390J0000000D01*
G03X0014090Y0007600I0000000J0000390D01*
G01X0007450Y0018560D02*
G03X0007840Y0018170I0000390J0000000D01*
G03X0008080Y0018253I0000000J0000390D01*
G01X0007840Y0018950D02*
G03X0007450Y0018560I0000000J0000390D01*
G01X0004730Y0012160D02*
G03X0005120Y0011770I0000390J0000000D01*
G03X0005510Y0012160I0000000J0000390D01*
G01X0013270Y0001600D02*
G03X0012880Y0001990I0000390J0000000D01*
G03X0012490Y0001600I0000000J0000390D01*
G01X0004250Y0004880D02*
G03X0004640Y0004490I0000390J0000000D01*
G03X0005030Y0004880I0000000J0000390D01*
G03X0004640Y0005270I0000390J0000000D01*
G03X0004250Y0004880I0000000J0000390D01*
G01X0004010Y0005940D02*
G03X0004400Y0005550I0000390J0000000D01*
G03X0004790Y0005940I0000000J0000390D01*
G03X0004400Y0006330I0000390J0000000D01*
G03X0004010Y0005940I0000000J0000390D01*
G01X0004240Y0001290D02*
G03X0004630Y0001680I0000000J0000390D01*
G03X0004240Y0002070I0000390J0000000D01*
G01X0003857Y0001606D02*
G03X0004240Y0001290I0000383J0000074D01*
G01X0007850Y0002400D02*
G03X0008240Y0002010I0000390J0000000D01*
G03X0008630Y0002400I0000000J0000390D01*
G03X0008240Y0002790I0000390J0000000D01*
G03X0007850Y0002400I0000000J0000390D01*
G01X0010170Y0002300D02*
G03X0010560Y0001910I0000390J0000000D01*
G01X0011423Y0002560D02*
G03X0011590Y0002880I0000223J0000320D01*
G01X0010560Y0002690D02*
G03X0010170Y0002300I0000000J0000390D01*
G01X0010410Y0005620D02*
G03X0010800Y0005230I0000390J0000000D01*
G03X0011190Y0005620I0000000J0000390D01*
G03X0010800Y0006010I0000390J0000000D01*
G03X0010410Y0005620I0000000J0000390D01*
G01X0008410Y0006640D02*
G03X0008800Y0006250I0000390J0000000D01*
G01X0009634Y0006803D02*
G03X0010000Y0006660I0000366J0000397D01*
G01X0008800Y0006250D02*
G03X0009040Y0006333I0000000J0000390D01*
G01X0008800Y0007030D02*
G03X0008410Y0006640I0000000J0000390D01*
G01X0008730Y0005040D02*
G03X0009120Y0004650I0000390J0000000D01*
G03X0009510Y0005040I0000000J0000390D01*
G03X0009120Y0005430I0000390J0000000D01*
G03X0008730Y0005040I0000000J0000390D01*
G01X0007930Y0004880D02*
G03X0008320Y0004490I0000390J0000000D01*
G03X0008710Y0004880I0000000J0000390D01*
G03X0008320Y0005270I0000390J0000000D01*
G03X0007930Y0004880I0000000J0000390D01*
G01X0019340Y0002560D02*
G03X0019880Y0002020I0000540J0000000D01*
G03X0020420Y0002560I0000000J0000540D01*
G03X0019880Y0003100I0000540J0000000D01*
G03X0019340Y0002560I0000000J0000540D01*
G01X0005050Y0007820D02*
G03X0005440Y0007430I0000390J0000000D01*
Y0008210D02*
G03X0005050Y0007820I0000000J0000390D01*
G01X0004330Y0011380D02*
G03X0004512Y0011050I0000390J0000000D01*
G01X0004720Y0011770D02*
G03X0004330Y0011380I0000000J0000390D01*
G01X0005450Y0010080D02*
G03X0005840Y0009690I0000390J0000000D01*
G03X0006230Y0010080I0000000J0000390D01*
G03X0005840Y0010470I0000390J0000000D01*
G03X0005450Y0010080I0000000J0000390D01*
G01X0005610Y0013520D02*
G03X0006000Y0013130I0000390J0000000D01*
G03X0006390Y0013520I0000000J0000390D01*
G03X0006000Y0013910I0000390J0000000D01*
G03X0005610Y0013520I0000000J0000390D01*
G01X0025910Y0006720D02*
G03X0026300Y0006330I0000390J0000000D01*
G03X0026690Y0006720I0000000J0000390D01*
G03X0026300Y0007110I0000390J0000000D01*
G03X0025910Y0006720I0000000J0000390D01*
G01X0021490Y0010460D02*
G03X0021880Y0010070I0000390J0000000D01*
G03X0022270Y0010460I0000000J0000390D01*
G03X0021880Y0010850I0000390J0000000D01*
G03X0021490Y0010460I0000000J0000390D01*
G01X0021690Y0014640D02*
G03X0022080Y0014250I0000390J0000000D01*
G03X0022470Y0014640I0000000J0000390D01*
G03X0022080Y0015030I0000390J0000000D01*
G03X0021690Y0014640I0000000J0000390D01*
G01X0012320Y0010680D02*
G03X0012960Y0010040I0000640J0000000D01*
G03X0013600Y0010680I0000000J0000640D01*
G03X0013073Y0011310I0000640J0000000D01*
G01X0013100Y0017160D02*
G03X0013740Y0016520I0000640J0000000D01*
G03X0014380Y0017160I0000000J0000640D01*
G03X0013740Y0017800I0000640J0000000D01*
G03X0013100Y0017160I0000000J0000640D01*
G01X0022610Y0020400D02*
G03X0023000Y0020010I0000390J0000000D01*
G03X0023390Y0020400I0000000J0000390D01*
G03X0023000Y0020790I0000390J0000000D01*
G03X0022610Y0020400I0000000J0000390D01*
G01X0020160Y0020120D02*
G03X0020800Y0019480I0000640J0000000D01*
G03X0021440Y0020120I0000000J0000640D01*
G03X0020800Y0020760I0000640J0000000D01*
G01X0014760Y0020120D02*
G03X0015400Y0019480I0000640J0000000D01*
G03X0016040Y0020120I0000000J0000640D01*
G03X0015400Y0020760I0000640J0000000D01*
G03X0014760Y0020120I0000000J0000640D01*
G01X0009720Y0020380D02*
G03X0010360Y0019740I0000640J0000000D01*
G03X0011000Y0020380I0000000J0000640D01*
G03X0010360Y0021020I0000640J0000000D01*
G03X0009720Y0020380I0000000J0000640D01*
G01X0006200Y0020100D02*
G03X0006840Y0019460I0000640J0000000D01*
G03X0007480Y0020100I0000000J0000640D01*
G03X0006840Y0020740I0000640J0000000D01*
G03X0006200Y0020100I0000000J0000640D01*
G01X0004290Y0021255D02*
G03X0003840Y0021440I0000450J0000455D01*
G01X0005620Y0020160D02*
G03X0006260Y0020800I0000000J0000640D01*
G03X0005620Y0021440I0000640J0000000D01*
G01X0005180Y0020335D02*
G03X0005620Y0020160I0000440J0000465D01*
G01X0004740D02*
G03X0005180Y0020335I0000000J0000640D01*
G01X0004290Y0020345D02*
G03X0004740Y0020160I0000450J0000455D01*
G01X0006720Y0016320D02*
G03X0007360Y0015680I0000640J0000000D01*
G03X0008000Y0016320I0000000J0000640D01*
G01X0021178Y0026772D02*
G03X0022638Y0025312I0001460J0000000D01*
G03X0024098Y0026772I0000000J0001460D01*
G03X0022638Y0028232I0001460J0000000D01*
G03X0021178Y0026772I0000000J0001460D01*
G01X0007398D02*
G03X0008858Y0025312I0001460J0000000D01*
G03X0010318Y0026772I0000000J0001460D01*
G03X0008858Y0028232I0001460J0000000D01*
G03X0007398Y0026772I0000000J0001460D01*
G01X0025402Y0019728D02*
G03X0026142Y0018988I0000740J0000000D01*
G03X0026882Y0019728I0000000J0000740D01*
G03X0026142Y0020468I0000740J0000000D01*
G01X0025402Y0018228D02*
G03X0026142Y0017488I0000740J0000000D01*
G03X0026882Y0018228I0000000J0000740D01*
G03X0026142Y0018968I0000740J0000000D01*
G03X0025402Y0018228I0000000J0000740D01*
Y0013508D02*
G03X0026142Y0012768I0000740J0000000D01*
G03X0026882Y0013508I0000000J0000740D01*
G03X0026142Y0014248I0000740J0000000D01*
G03X0025402Y0013508I0000000J0000740D01*
Y0012008D02*
G03X0026142Y0011268I0000740J0000000D01*
G01X0026882Y0012008D02*
G03X0026142Y0012748I0000740J0000000D01*
G03X0025402Y0012008I0000000J0000740D01*
Y0025949D02*
G03X0026142Y0025209I0000740J0000000D01*
G03X0026882Y0025949I0000000J0000740D01*
G03X0026142Y0026689I0000740J0000000D01*
G03X0025402Y0025949I0000000J0000740D01*
Y0024449D02*
G03X0026142Y0023709I0000740J0000000D01*
G03X0026882Y0024449I0000000J0000740D01*
G03X0026142Y0025189I0000740J0000000D01*
G03X0025402Y0024449I0000000J0000740D01*
G01X0000677Y0026650D02*
G03X0001417Y0025910I0000740J0000000D01*
G03X0002157Y0026650I0000000J0000740D01*
G03X0001417Y0027390I0000740J0000000D01*
G03X0000677Y0026650I0000000J0000740D01*
Y0028150D02*
G03X0001417Y0027410I0000740J0000000D01*
G03X0002157Y0028150I0000000J0000740D01*
G03X0001417Y0028890I0000740J0000000D01*
G03X0000677Y0028150I0000000J0000740D01*
G01X0015668Y0025664D02*
G03X0015904Y0025727I0000000J0000472D01*
G01X0015432D02*
G03X0015668Y0025664I0000236J0000409D01*
G01X0003857Y0015669D02*
G03X0003385Y0016141I0000472J0000000D01*
G01X0015668Y0001575D02*
G03X0014880Y0000787I0000000J0000788D01*
G01X0016455D02*
G03X0015668Y0001574I0000787J0000000D01*
G01X0011520Y0001510D02*
G03X0011131Y0001150I0000000J0000390D01*
G01X0020800Y0020760D02*
G03X0020372Y0020596I0000000J0000640D01*
G01X0024337Y0029200D02*
G03X0024170Y0028880I0000223J0000320D01*
G01X0005180Y0021265D02*
G03X0004740Y0021440I0000440J0000465D01*
G03X0004290Y0021255I0000000J0000640D01*
G01X0006533Y0006578D02*
G03X0006240Y0006710I0000293J0000258D01*
G01X0025666Y0020295D02*
G03X0025280Y0020630I0000386J0000055D01*
G01X0000855Y0019806D02*
G03X0000720Y0019830I0000135J0000366D01*
G01X0001120Y0019910D02*
G03X0000855Y0019806I0000000J0000390D01*
G01X0012720Y0000810D02*
G03X0012833Y0000827I0000000J0000390D01*
G01X0025280Y0019850D02*
G03X0025416Y0019875I0000000J0000390D01*
G01X0008080Y0018867D02*
G03X0007840Y0018950I0000240J0000307D01*
G01X0013073Y0011310D02*
G03X0013520Y0011920I0000193J0000610D01*
G01X0007825Y0016760D02*
G03X0008000Y0017200I0000465J0000440D01*
G01X0006720D02*
G03X0006895Y0016760I0000640J0000000D01*
G01X0008118Y0008174D02*
G03X0007930Y0007840I0000202J0000334D01*
G01X0011200Y0015750D02*
G03X0010880Y0015583I0000000J0000390D01*
G01X0008730Y0014970D02*
G03X0008730Y0014960I0000390J0000010D01*
G01X0005107Y0011424D02*
G03X0004720Y0011769I0000387J0000044D01*
G01X0008320Y0018950D02*
G03X0008080Y0018867I0000000J0000390D01*
G01X0026431Y0011327D02*
G03X0026410Y0011200I0000369J0000127D01*
G01X0005268Y0012521D02*
G03X0005270Y0012560I0000388J0000039D01*
G01X0004512Y0011050D02*
G03X0004330Y0010720I0000208J0000330D01*
G01X0012331Y0001230D02*
G03X0012160Y0001270I0000171J0000350D01*
G01X0008847Y0008453D02*
G03X0008480Y0008710I0000367J0000133D01*
G01X0005642Y0008154D02*
G03X0005440Y0008210I0000202J0000334D01*
G01X0005700Y0007530D02*
G03X0005609Y0007280I0000300J0000250D01*
G01X0008706Y0007784D02*
G03X0008960Y0007690I0000254J0000296D01*
G01X0009280Y0007030D02*
G03X0009040Y0006947I0000000J0000390D01*
G01X0005440Y0007430D02*
G03X0005700Y0007530I0000000J0000390D01*
G01X0012549Y0000850D02*
G03X0012720Y0000810I0000171J0000350D01*
G01X0004240Y0002070D02*
G03X0003857Y0001754I0000000J0000390D01*
G01X0009294Y0007878D02*
G03X0009440Y0007850I0000146J0000362D01*
G01X0010859Y0002050D02*
G03X0011200Y0001850I0000341J0000190D01*
G01X0009040Y0006947D02*
G03X0008800Y0007030I0000240J0000307D01*
G01X0011131Y0001150D02*
G03X0010960Y0001190I0000171J0000350D01*
G01X0026142Y0011268D02*
G03X0026431Y0011327I0000000J0000740D01*
G01X0005798Y0008334D02*
G03X0005642Y0008154I0000202J0000334D01*
G01X0006390Y0007280D02*
G03X0006150Y0007640I0000390J0000000D01*
G01X0008090Y0008320D02*
G03X0008118Y0008174I0000390J0000000D01*
G01X0005771Y0008450D02*
G03X0005798Y0008334I0000389J0000030D01*
G01X0021280Y0010310D02*
G03X0020928Y0010088I0000000J0000390D01*
G01X0008720Y0014970D02*
G03X0008730Y0014970I0000000J0000390D01*
G01X0011590Y0002240D02*
G03X0011423Y0002560I0000390J0000000D01*
G01X0021760Y0009990D02*
G03X0021666Y0009978I0000000J0000390D01*
G01X0006136Y0005666D02*
G03X0006228Y0005876I0000296J0000254D01*
G01X0020372Y0020596D02*
G03X0020000Y0020870I0000372J0000116D01*
G01X0013680Y0020650D02*
G03X0013948Y0020757I0000000J0000390D01*
G03X0013930Y0020640I0000372J0000117D01*
G01X0010880Y0015583D02*
G03X0010560Y0015750I0000320J0000223D01*
G01X0006160Y0008870D02*
G03X0005989Y0008830I0000000J0000390D01*
G01X0021110Y0025680D02*
G03X0020776Y0026066I0000390J0000000D01*
G01X0004732Y0012199D02*
G03X0004730Y0012160I0000388J0000039D01*
G01X0026800Y0011590D02*
G03X0026750Y0011587I0000000J0000390D01*
G01X0011930Y0006320D02*
G03X0012320Y0005930I0000390J0000000D01*
G03X0012710Y0006320I0000000J0000390D01*
G03X0012320Y0006710I0000390J0000000D01*
G03X0011930Y0006320I0000000J0000390D01*
G01X0016420Y0002560D02*
G03X0016960Y0002020I0000540J0000000D01*
G03X0017500Y0002560I0000000J0000540D01*
G03X0016960Y0003100I0000540J0000000D01*
G03X0016420Y0002560I0000000J0000540D01*
G01X0014170Y0002160D02*
G03X0014560Y0001770I0000390J0000000D01*
G03X0014950Y0002160I0000000J0000390D01*
G03X0014560Y0002550I0000390J0000000D01*
G03X0014170Y0002160I0000000J0000390D01*
G01X0005620Y0021440D02*
G03X0005180Y0021265I0000000J0000640D01*
G01X0008000Y0017200D02*
G03X0007360Y0017840I0000640J0000000D01*
G03X0006720Y0017200I0000000J0000640D01*
G01X0020090Y0026320D02*
G03X0020424Y0025934I0000390J0000000D01*
G01X0020870Y0026320D02*
G03X0020480Y0026710I0000390J0000000D01*
G03X0020090Y0026320I0000000J0000390D01*
G01X0020776Y0026066D02*
G03X0020870Y0026320I0000296J0000254D01*
G01X0020090D02*
G03X0020424Y0025934I0000390J0000000D01*
G01X0020870Y0026320D02*
G03X0020480Y0026710I0000390J0000000D01*
G03X0020090Y0026320I0000000J0000390D01*
G01X0006010Y0029920D02*
G03X0006400Y0029530I0000390J0000000D01*
G03X0006790Y0029920I0000000J0000390D01*
G03X0006400Y0030310I0000390J0000000D01*
G03X0006010Y0029920I0000000J0000390D01*
G01X0004250Y0015360D02*
G03X0004262Y0015266I0000390J0000000D01*
G01X0005030Y0015360D02*
G03X0004640Y0015750I0000390J0000000D01*
G03X0004250Y0015360I0000000J0000390D01*
G01X0013770Y0005920D02*
G03X0014160Y0005530I0000390J0000000D01*
G03X0014550Y0005920I0000000J0000390D01*
G03X0014160Y0006310I0000390J0000000D01*
G03X0013770Y0005920I0000000J0000390D01*
G01X0004490Y0012560D02*
G03X0004732Y0012199I0000390J0000000D01*
G01X0005270Y0012560D02*
G03X0004880Y0012950I0000390J0000000D01*
G03X0004490Y0012560I0000000J0000390D01*
G01X0020330Y0025680D02*
G03X0020720Y0025290I0000390J0000000D01*
G03X0021110Y0025680I0000000J0000390D01*
G01X0020424Y0025934D02*
G03X0020330Y0025680I0000296J0000254D01*
G01X0021840Y0012080D02*
G03X0022480Y0011440I0000640J0000000D01*
G03X0023120Y0012080I0000000J0000640D01*
G03X0022480Y0012720I0000640J0000000D01*
G03X0021840Y0012080I0000000J0000640D01*
G01X0020410Y0009720D02*
G03X0020800Y0009330I0000390J0000000D01*
G03X0021152Y0009552I0000000J0000390D01*
G01X0020800Y0010110D02*
G03X0020410Y0009720I0000000J0000390D01*
G01X0005268Y0012521D02*
G03X0005270Y0012560I0000388J0000039D01*
G01X0004490D02*
G03X0004732Y0012199I0000390J0000000D01*
G01X0005270Y0012560D02*
G03X0004880Y0012950I0000390J0000000D01*
G03X0004490Y0012560I0000000J0000390D01*
G01X0021760Y0017600D02*
G03X0022400Y0016960I0000640J0000000D01*
G03X0023040Y0017600I0000000J0000640D01*
G03X0022400Y0018240I0000640J0000000D01*
G03X0021760Y0017600I0000000J0000640D01*
G01X0013770Y0005920D02*
G03X0014160Y0005530I0000390J0000000D01*
G03X0014550Y0005920I0000000J0000390D01*
G03X0014160Y0006310I0000390J0000000D01*
G03X0013770Y0005920I0000000J0000390D01*
G01X0021280Y0009530D02*
G03X0021374Y0009542I0000000J0000390D01*
G01X0021152Y0009552D02*
G03X0021280Y0009530I0000128J0000368D01*
G01X0019450Y0017520D02*
G03X0019840Y0017130I0000390J0000000D01*
G03X0020230Y0017520I0000000J0000390D01*
G03X0019840Y0017910I0000390J0000000D01*
G03X0019450Y0017520I0000000J0000390D01*
G01X0021610Y0006960D02*
G03X0022000Y0006570I0000390J0000000D01*
G03X0022390Y0006960I0000000J0000390D01*
G03X0022000Y0007350I0000390J0000000D01*
G03X0021610Y0006960I0000000J0000390D01*
G01X0025370Y0010640D02*
G03X0025760Y0010250I0000390J0000000D01*
G03X0026150Y0010640I0000000J0000390D01*
G03X0025760Y0011030I0000390J0000000D01*
G03X0025370Y0010640I0000000J0000390D01*
G01X0003200Y0020800D02*
G03X0003840Y0020160I0000640J0000000D01*
G03X0004290Y0020345I0000000J0000640D01*
G01X0003840Y0021440D02*
G03X0003200Y0020800I0000000J0000640D01*
G01X0024570Y0009120D02*
G03X0024960Y0008730I0000390J0000000D01*
G03X0025350Y0009120I0000000J0000390D01*
G03X0024960Y0009510I0000390J0000000D01*
G03X0024570Y0009120I0000000J0000390D01*
G01X0013050Y0020000D02*
G03X0013440Y0019610I0000390J0000000D01*
G03X0013830Y0020000I0000000J0000390D01*
G03X0013440Y0020390I0000390J0000000D01*
G03X0013050Y0020000I0000000J0000390D01*
G01X0019610Y0020480D02*
G03X0020000Y0020090I0000390J0000000D01*
G03X0020160Y0020124I0000000J0000390D01*
G01X0020000Y0020870D02*
G03X0019610Y0020480I0000000J0000390D01*
G01X0003850Y0029360D02*
G03X0004240Y0028970I0000390J0000000D01*
G03X0004630Y0029360I0000000J0000390D01*
G03X0004240Y0029750I0000390J0000000D01*
G03X0003850Y0029360I0000000J0000390D01*
G01X0022250Y0019440D02*
G03X0022640Y0019050I0000390J0000000D01*
G03X0023030Y0019440I0000000J0000390D01*
G03X0022640Y0019830I0000390J0000000D01*
G03X0022250Y0019440I0000000J0000390D01*
G01X0019610Y0020480D02*
G03X0020000Y0020090I0000390J0000000D01*
G01X0020372Y0020596D02*
G03X0020000Y0020870I0000372J0000116D01*
Y0020090D02*
G03X0020160Y0020124I0000000J0000390D01*
G01X0020000Y0020870D02*
G03X0019610Y0020480I0000000J0000390D01*
G01X0012240Y0011920D02*
G03X0012767Y0011290I0000640J0000000D01*
G01X0013520Y0011920D02*
G03X0012880Y0012560I0000640J0000000D01*
G03X0012240Y0011920I0000000J0000640D01*
G01X0013280Y0014720D02*
G03X0013920Y0014080I0000640J0000000D01*
G03X0014560Y0014720I0000000J0000640D01*
G03X0013920Y0015360I0000640J0000000D01*
G03X0013280Y0014720I0000000J0000640D01*
G01X0010740Y0008160D02*
G03X0011280Y0007620I0000540J0000000D01*
G03X0011820Y0008160I0000000J0000540D01*
G03X0011280Y0008700I0000540J0000000D01*
G03X0010740Y0008160I0000000J0000540D01*
G01X0013700Y0010800D02*
G03X0014240Y0010260I0000540J0000000D01*
G03X0014780Y0010800I0000000J0000540D01*
G03X0014240Y0011340I0000540J0000000D01*
G03X0013700Y0010800I0000000J0000540D01*
G01X0010730Y0003280D02*
G03X0010834Y0003015I0000390J0000000D01*
G01X0011510Y0003280D02*
G03X0011120Y0003670I0000390J0000000D01*
G03X0010730Y0003280I0000000J0000390D01*
G01X0009440Y0007850D02*
G03X0009830Y0008240I0000000J0000390D01*
G03X0009440Y0008630I0000390J0000000D01*
G01X0013050Y0020000D02*
G03X0013440Y0019610I0000390J0000000D01*
G03X0013830Y0020000I0000000J0000390D01*
G03X0013440Y0020390I0000390J0000000D01*
G03X0013050Y0020000I0000000J0000390D01*
G01X0011530D02*
G03X0011920Y0019610I0000390J0000000D01*
G03X0012310Y0020000I0000000J0000390D01*
G03X0011920Y0020390I0000390J0000000D01*
G03X0011530Y0020000I0000000J0000390D01*
G01X0006810Y0007680D02*
G03X0007200Y0007290I0000390J0000000D01*
G03X0007590Y0007680I0000000J0000390D01*
G03X0007200Y0008070I0000390J0000000D01*
G03X0006810Y0007680I0000000J0000390D01*
G01X0007930Y0007840D02*
G03X0008320Y0007450I0000390J0000000D01*
G01X0009440Y0008630D02*
G03X0009106Y0008442I0000000J0000390D01*
G01X0008320Y0007450D02*
G03X0008706Y0007784I0000000J0000390D01*
G01X0008330Y0015360D02*
G03X0008720Y0014970I0000390J0000000D01*
G01X0009110Y0015360D02*
G03X0008720Y0015750I0000390J0000000D01*
G03X0008330Y0015360I0000000J0000390D01*
G01X0010560Y0015750D02*
G03X0010170Y0015360I0000000J0000390D01*
G01X0013290Y0021040D02*
G03X0013680Y0020650I0000390J0000000D01*
G01X0014070Y0021040D02*
G03X0013680Y0021430I0000390J0000000D01*
G03X0013290Y0021040I0000000J0000390D01*
G01X0015850Y0021280D02*
G03X0016240Y0020890I0000390J0000000D01*
G03X0016630Y0021280I0000000J0000390D01*
G03X0016240Y0021670I0000390J0000000D01*
G03X0015850Y0021280I0000000J0000390D01*
G01X0015610Y0005440D02*
G03X0016000Y0005050I0000390J0000000D01*
G03X0016390Y0005440I0000000J0000390D01*
G03X0016000Y0005830I0000390J0000000D01*
G03X0015610Y0005440I0000000J0000390D01*
G01X0014490Y0013040D02*
G03X0014880Y0012650I0000390J0000000D01*
G03X0015270Y0013040I0000000J0000390D01*
G03X0014880Y0013430I0000390J0000000D01*
G03X0014490Y0013040I0000000J0000390D01*
G01X0009930Y0014800D02*
G03X0010320Y0014410I0000390J0000000D01*
G03X0010710Y0014800I0000000J0000390D01*
G01X0009280Y0006250D02*
G03X0009670Y0006640I0000000J0000390D01*
G01X0009040Y0006333D02*
G03X0009280Y0006250I0000240J0000307D01*
G01X0009130Y0001120D02*
G03X0009520Y0000730I0000390J0000000D01*
G03X0009910Y0001120I0000000J0000390D01*
G03X0009520Y0001510I0000390J0000000D01*
G03X0009130Y0001120I0000000J0000390D01*
G01X0000330Y0019440D02*
G03X0000720Y0019050I0000390J0000000D01*
G01X0006880Y0005857D02*
G03X0007200Y0005690I0000320J0000223D01*
G01X0000720Y0019050D02*
G03X0000985Y0019154I0000000J0000390D01*
G01X0000720Y0019830D02*
G03X0000330Y0019440I0000000J0000390D01*
G01X0015850Y0017200D02*
G03X0016240Y0016810I0000390J0000000D01*
G03X0016630Y0017200I0000000J0000390D01*
G03X0016240Y0017590I0000390J0000000D01*
G03X0015850Y0017200I0000000J0000390D01*
G01X0007590Y0006080D02*
G03X0007265Y0006465I0000390J0000000D01*
G01X0007200Y0005690D02*
G03X0007590Y0006080I0000000J0000390D01*
G01X0006150Y0007640D02*
G03X0006334Y0007798I0000150J0000360D01*
G01X0006880Y0006790D02*
G03X0006533Y0006578I0000000J0000390D01*
G01X0004262Y0015266D02*
G03X0003930Y0014880I0000058J0000386D01*
G01X0004698Y0014974D02*
G03X0005030Y0015360I0000058J0000386D01*
G01X0006545Y0008545D02*
G03X0006160Y0008870I0000385J0000065D01*
G01X0006480Y0007770D02*
G03X0006870Y0008160I0000000J0000390D01*
G01X0005989Y0008830D02*
G03X0005600Y0009190I0000389J0000030D01*
G01X0000170Y0020240D02*
G03X0000560Y0019850I0000390J0000000D01*
G03X0000950Y0020240I0000000J0000390D01*
G03X0000560Y0020630I0000390J0000000D01*
G03X0000170Y0020240I0000000J0000390D01*
G01X0005450Y0005920D02*
G03X0005784Y0005534I0000390J0000000D01*
G01X0005840Y0006310D02*
G03X0005450Y0005920I0000000J0000390D01*
G01X0017140Y0005200D02*
G03X0017680Y0004660I0000540J0000000D01*
G03X0018220Y0005200I0000000J0000540D01*
G03X0017680Y0005740I0000540J0000000D01*
G03X0017140Y0005200I0000000J0000540D01*
G01X0021760Y0017600D02*
G03X0022400Y0016960I0000640J0000000D01*
G03X0023040Y0017600I0000000J0000640D01*
G03X0022400Y0018240I0000640J0000000D01*
G03X0021760Y0017600I0000000J0000640D01*
G01X0005690Y0005280D02*
G03X0006080Y0004890I0000390J0000000D01*
G03X0006470Y0005280I0000000J0000390D01*
G01X0006228Y0005876D02*
G03X0006560Y0005690I0000332J0000204D01*
G01X0006470Y0005280D02*
G03X0006136Y0005666I0000390J0000000D01*
G01X0001120Y0019130D02*
G03X0001510Y0019520I0000000J0000390D01*
G03X0001120Y0019910I0000390J0000000D01*
G01X0000985Y0019154D02*
G03X0001120Y0019130I0000135J0000366D01*
G01X0010000Y0006660D02*
G03X0010540Y0007200I0000000J0000540D01*
G03X0010000Y0007740I0000540J0000000D01*
G03X0009460Y0007200I0000000J0000540D01*
G01X0018150Y0001600D02*
G03X0017760Y0001990I0000390J0000000D01*
G03X0017370Y0001600I0000000J0000390D01*
G01X0013200Y0000570D02*
G03X0013590Y0000960I0000000J0000390D01*
G03X0013200Y0001350I0000390J0000000D01*
G01X0010901Y0002490D02*
G03X0010560Y0002690I0000341J0000190D01*
G01X0003210Y0019040D02*
G03X0003600Y0018650I0000390J0000000D01*
G03X0003990Y0019040I0000000J0000390D01*
G03X0003600Y0019430I0000390J0000000D01*
G03X0003210Y0019040I0000000J0000390D01*
G01X0008150Y0003040D02*
G03X0007760Y0003430I0000390J0000000D01*
G01X0007908Y0002679D02*
G03X0008150Y0003040I0000148J0000361D01*
G01X0015850Y0007760D02*
G03X0016240Y0007370I0000390J0000000D01*
G03X0016630Y0007760I0000000J0000390D01*
G03X0016240Y0008150I0000390J0000000D01*
G03X0015850Y0007760I0000000J0000390D01*
G01X0024890Y0020240D02*
G03X0025280Y0019850I0000390J0000000D01*
Y0020630D02*
G03X0024890Y0020240I0000000J0000390D01*
G01X0026410Y0011200D02*
G03X0026800Y0010810I0000390J0000000D01*
G03X0027190Y0011200I0000000J0000390D01*
G03X0026800Y0011590I0000390J0000000D01*
G01X0011370Y0005520D02*
G03X0011760Y0005130I0000390J0000000D01*
G01X0005510Y0012160D02*
G03X0005268Y0012521I0000390J0000000D01*
G01X0020776Y0026066D02*
G03X0020870Y0026320I0000296J0000254D01*
G01X0008960Y0007690D02*
G03X0009294Y0007878I0000000J0000390D01*
G01X0009120Y0015350D02*
G03X0009110Y0015350I0000000J0000390D01*
G01X0014320Y0021030D02*
G03X0014052Y0020923I0000000J0000390D01*
G01X0009460Y0007200D02*
G03X0009525Y0006944I0000540J0000000D01*
G01X0007265Y0006465D02*
G03X0006880Y0006790I0000385J0000065D01*
G01X0005850Y0006320D02*
G03X0005850Y0006310I0000390J0000000D01*
G01X0009525Y0006944D02*
G03X0009280Y0007030I0000245J0000304D01*
G01X0026142Y0020468D02*
G03X0025666Y0020295I0000000J0000740D01*
G01X0026750Y0011587D02*
G03X0026882Y0012008I0000608J0000421D01*
G01X0014052Y0020923D02*
G03X0014070Y0021040I0000372J0000117D01*
G01X0010834Y0003015D02*
G03X0010810Y0002880I0000366J0000135D01*
G01X0012767Y0011290D02*
G03X0012320Y0010680I0000193J0000610D01*
G01X0009110Y0015350D02*
G03X0009110Y0015360I0000390J0000010D01*
G01X0007372Y0003081D02*
G03X0007130Y0002720I0000148J0000361D01*
G01X0007760Y0003430D02*
G03X0007372Y0003081I0000000J0000390D01*
G01X0025416Y0019875D02*
G03X0025401Y0019728I0000726J0000147D01*
G01X0018230Y0000880D02*
G03X0017944Y0001256I0000390J0000000D01*
G01X0008960Y0008470D02*
G03X0008847Y0008453I0000000J0000390D01*
G01X0008000Y0016320D02*
G03X0007825Y0016760I0000640J0000000D01*
G01X0017130Y0001200D02*
G03X0017455Y0000815I0000390J0000000D01*
G01X0012498Y0001521D02*
G03X0012331Y0001230I0000222J0000321D01*
G01X0013179Y0001349D02*
G03X0013270Y0001600I0000299J0000251D01*
G01X0006560Y0005690D02*
G03X0006880Y0005857I0000000J0000390D01*
G01X0010664Y0014984D02*
G03X0010880Y0015137I0000104J0000376D01*
G01X0024783Y0029200D02*
G03X0024950Y0029520I0000223J0000320D01*
G01X0005850Y0006310D02*
G03X0005840Y0006310I0000010J0000390D01*
G01X0021666Y0009978D02*
G03X0021280Y0010310I0000386J0000058D01*
G01X0017372Y0001561D02*
G03X0017130Y0001200I0000148J0000361D01*
G01X0013200Y0001350D02*
G03X0013179Y0001349I0000000J0000390D01*
G01X0010977Y0002560D02*
G03X0010901Y0002490I0000223J0000320D01*
G01X0010170Y0015360D02*
G03X0010216Y0015176I0000390J0000000D01*
G01X0006895Y0016760D02*
G03X0006720Y0016320I0000465J0000440D01*
G54D48*
G01X0001417Y0025150D02*
Y0023650D01*
G54D19*
X0026142Y0018228D03*
Y0019728D03*
Y0021228D03*
Y0022728D03*
Y0012008D03*
Y0013508D03*
Y0015008D03*
Y0016508D03*
Y0024449D03*
Y0025949D03*
Y0027449D03*
Y0028949D03*
X0001417Y0028150D03*
Y0026650D03*
Y0025150D03*
Y0023650D03*
G54D22*
X0022638Y0026772D03*
X0008858D03*
G54D38*
X0007360Y0017200D03*
X0022480Y0012080D03*
X0003840Y0020800D03*
X0012880Y0011920D03*
X0013920Y0014720D03*
X0022400Y0017600D03*
X0024680Y0007340D03*
X0020640Y0006660D03*
X0019280Y0014560D03*
X0012960Y0010680D03*
X0011360Y0013840D03*
X0007340Y0014880D03*
X0009780Y0016940D03*
X0013740Y0017160D03*
X0020800Y0020120D03*
X0015400D03*
X0010360Y0020380D03*
X0006840Y0020100D03*
X0005620Y0020800D03*
X0004740D03*
X0007360Y0016320D03*
G54D39*
X0012320Y0006320D03*
X0014560Y0002160D03*
X0020480Y0026320D03*
X0006400Y0029920D03*
X0004640Y0015360D03*
X0020720Y0025680D03*
X0020800Y0009720D03*
X0005280Y0010400D03*
X0004880Y0012560D03*
X0021280Y0009920D03*
X0019840Y0017520D03*
X0022000Y0006960D03*
X0025760Y0010640D03*
X0024960Y0009120D03*
X0004240Y0029360D03*
X0022640Y0019440D03*
X0020000Y0020480D03*
X0011120Y0003280D03*
X0009440Y0008240D03*
X0013440Y0020000D03*
X0011920D03*
X0007200Y0007680D03*
X0008320Y0007840D03*
X0008720Y0015360D03*
X0010560D03*
X0013680Y0021040D03*
X0016240Y0021280D03*
X0016000Y0005440D03*
X0014880Y0013040D03*
X0010320Y0014800D03*
X0009280Y0006640D03*
X0009520Y0001120D03*
X0000720Y0019440D03*
X0016240Y0017200D03*
X0007200Y0006080D03*
X0006160Y0008480D03*
X0006560Y0006080D03*
X0006000Y0008000D03*
X0006480Y0008160D03*
X0006880Y0006400D03*
X0000560Y0020240D03*
X0005840Y0005920D03*
X0006080Y0005280D03*
X0001120Y0019520D03*
X0017760Y0001600D03*
X0013200Y0000960D03*
X0003600Y0019040D03*
X0007760Y0003040D03*
X0016240Y0007760D03*
X0025280Y0020240D03*
X0026800Y0011200D03*
X0011760Y0005520D03*
X0011440Y0004480D03*
X0017260Y0021300D03*
X0014320Y0020640D03*
X0007520Y0002720D03*
X0011200Y0002240D03*
X0008480Y0008320D03*
X0011200Y0015360D03*
X0010640Y0016480D03*
X0009120Y0014960D03*
X0009440Y0013360D03*
X0008960Y0008080D03*
X0011200Y0002880D03*
X0017520Y0013200D03*
X0016720Y0011440D03*
X0017520Y0001200D03*
X0012720D03*
X0005600Y0008800D03*
X0019680Y0027040D03*
X0024000Y0028240D03*
X0012160Y0000880D03*
X0017840D03*
X0008320Y0018560D03*
X0002720Y0018080D03*
X0014560Y0018640D03*
X0019200Y0018160D03*
X0011520Y0001120D03*
X0010960Y0000800D03*
X0024560Y0029520D03*
Y0028880D03*
X0014160Y0005920D03*
X0021760Y0009600D03*
X0005040Y0011040D03*
X0004320Y0014880D03*
X0006000Y0007280D03*
X0006240Y0006320D03*
X0016240Y0016320D03*
X0004720Y0010720D03*
X0014480Y0007600D03*
X0007840Y0018560D03*
X0005120Y0012160D03*
X0015240Y0003740D03*
X0016800Y0003360D03*
Y0003760D03*
Y0004160D03*
X0016400D03*
X0016000D03*
X0015620D03*
X0015240D03*
X0012880Y0001600D03*
X0012600Y0001920D03*
X0004400Y0005440D03*
X0004240Y0002160D03*
X0004640Y0004880D03*
X0004400Y0005940D03*
X0012320Y0005840D03*
X0004240Y0001680D03*
X0008240Y0002400D03*
X0008560Y0002000D03*
X0010740Y0001560D03*
X0010560Y0002300D03*
X0007280Y0005680D03*
X0010800Y0005620D03*
Y0006080D03*
X0008800Y0006640D03*
X0009120Y0005040D03*
X0008320Y0004880D03*
X0008000Y0004640D03*
X0005440Y0007820D03*
X0004720Y0011380D03*
X0005840Y0010080D03*
X0006000Y0013520D03*
X0004720Y0011840D03*
X0006480Y0013434D03*
X0006080Y0014720D03*
X0005840Y0016240D03*
X0020240Y0009840D03*
X0022600Y0009880D03*
X0025500Y0008080D03*
X0024000Y0009820D03*
X0023520D03*
X0024640Y0008800D03*
X0024560Y0010320D03*
X0024780Y0011020D03*
X0026300Y0006720D03*
X0021440Y0008720D03*
X0021880Y0010460D03*
X0024760Y0013260D03*
X0022680Y0015140D03*
X0024800Y0015600D03*
Y0016000D03*
X0025120Y0016320D03*
X0025138Y0017022D03*
X0022080Y0014640D03*
X0025260Y0019440D03*
X0021840Y0015140D03*
X0018560Y0013360D03*
X0015440Y0012000D03*
X0015300Y0012980D03*
X0014800Y0018160D03*
X0013200Y0021120D03*
X0018720Y0020260D03*
X0019280Y0016380D03*
X0010640Y0021280D03*
X0012340Y0020320D03*
X0023000Y0020400D03*
X0017840Y0021240D03*
X0012560Y0021220D03*
X0007960Y0020720D03*
X0003420Y0017260D03*
X0001040Y0018240D03*
Y0020640D03*
X0006560Y0029280D03*
X0011280Y0027600D03*
X0006400Y0025440D03*
X0001680Y0029560D03*
G54D40*
X0016960Y0002560D03*
X0011280Y0008160D03*
X0014240Y0010800D03*
X0017680Y0005200D03*
X0010000Y0007200D03*
X0019980Y0003600D03*
X0019880Y0002560D03*
X0010660Y0025600D03*
M02*
