G04 CAM350/DFMSTREAM V10.7 (Build 558) Date:  Tue Apr 17 16:00:18 2012 *
G04 Database: p:\archivio gerber\fondazione istituto italiano di tecnologia\nei2_0\untitled.cam *
G04 Layer 16: spb *
%FSLAX33Y33*%
%MOMM*%
%SFA1.000B1.000*%

%MIA0B0*%
%IPPOS*%
%ADD20R,0.54991X0.54991*%
%ADD21R,0.60960X0.88900*%
%ADD40C,0.20000*%
%ADD46C,0.12700*%
%ADD84C,0.20000*%
%ADD112C,0.30000*%
%LNspb*%
%LPD*%
G36*
X25520Y-62644D02*
G01Y-61414D01*
X26337*
X26338Y-61416*
X26280Y-61474*
Y-61491*
X26228Y-61543*
Y-61561*
X26176Y-61613*
Y-61631*
X26123Y-61683*
Y-61700*
X26071Y-61752*
Y-61770*
X26036Y-61805*
Y-61822*
X26001Y-61857*
Y-61875*
X25949Y-61927*
Y-61944*
X25932Y-61962*
Y-61979*
X25879Y-62031*
Y-62049*
X25844Y-62084*
Y-62101*
X25827Y-62119*
Y-62136*
X25810Y-62154*
Y-62171*
X25792Y-62188*
Y-62206*
X25757Y-62241*
Y-62258*
X25722Y-62293*
Y-62310*
X25705Y-62328*
Y-62345*
X25670Y-62380*
Y-62397*
X25653Y-62415*
Y-62432*
X25635Y-62450*
Y-62467*
X25618Y-62485*
Y-62502*
X25583Y-62537*
Y-62554*
X25566Y-62572*
Y-62589*
X25548Y-62607*
Y-62644*
X25520*
G37*
G36*
X30767Y-62764D02*
G01Y-62602D01*
X30785Y-62585*
Y-62445*
X30802Y-62428*
Y-62323*
X30820Y-62306*
Y-62236*
X30837Y-62219*
Y-62166*
X30854Y-62149*
Y-62114*
X30872Y-62097*
Y-62045*
X30889Y-62027*
Y-61992*
X30907Y-61975*
Y-61940*
X30924Y-61922*
Y-61888*
X30942Y-61870*
Y-61835*
X30959Y-61818*
Y-61783*
X30976Y-61766*
Y-61731*
X30994Y-61713*
Y-61696*
X31011Y-61679*
Y-61661*
X31029Y-61643*
Y-61591*
X31046Y-61574*
Y-61539*
X31064Y-61522*
Y-61469*
X31098Y-61434*
Y-61414*
X31597*
Y-63865*
X31569*
Y-63844*
X31554Y-63829*
X31502Y-63812*
X31484Y-63794*
X31414Y-63759*
X31397Y-63742*
X31362Y-63724*
X31345Y-63707*
X31310Y-63689*
X31292Y-63672*
X31257Y-63655*
X31223Y-63620*
X31188Y-63602*
X31135Y-63550*
X31101Y-63533*
X31011Y-63443*
Y-63426*
X30959Y-63374*
Y-63356*
X30924Y-63321*
Y-63304*
X30907Y-63287*
Y-63269*
X30889Y-63252*
Y-63234*
X30872Y-63217*
Y-63199*
X30854Y-63182*
Y-63147*
X30837Y-63130*
Y-63095*
X30820Y-63077*
Y-63043*
X30802Y-63025*
Y-62955*
X30785Y-62938*
Y-62781*
X30767Y-62764*
G37*
G36*
X54088Y-64963D02*
G01Y-64861D01*
X54236Y-64856*
X54364Y-64839*
X54472Y-64811*
X54561Y-64772*
X54630Y-64721*
X54679Y-64660*
X54709Y-64587*
X54719Y-64502*
Y-61865*
X54709Y-61783*
X54679Y-61713*
X54630Y-61653*
X54561Y-61604*
X54472Y-61566*
X54364Y-61538*
X54236Y-61522*
X54088Y-61517*
Y-61415*
X56006*
Y-61517*
X55858Y-61522*
X55730Y-61538*
X55621Y-61566*
X55533Y-61604*
X55463Y-61653*
X55415Y-61713*
X55385Y-61783*
X55375Y-61865*
Y-64502*
X55385Y-64587*
X55415Y-64660*
X55463Y-64721*
X55533Y-64772*
X55621Y-64811*
X55730Y-64839*
X55858Y-64856*
X56006Y-64861*
Y-64963*
X54088*
G37*
G36*
X25520D02*
G01Y-63857D01*
X25538Y-63840*
Y-63805*
X25555Y-63788*
Y-63770*
X25573Y-63753*
Y-63735*
X25590Y-63718*
Y-63701*
X25607Y-63683*
Y-63648*
X25625Y-63631*
Y-63613*
X25642Y-63596*
Y-63578*
X25660Y-63561*
Y-63526*
X25695Y-63491*
Y-63457*
X25712Y-63439*
Y-63421*
X25730Y-63404*
Y-63387*
X25747Y-63369*
Y-63352*
X25764Y-63334*
Y-63317*
X25782Y-63300*
Y-63282*
X25799Y-63265*
Y-63247*
X25817Y-63230*
Y-63212*
X25834Y-63195*
Y-63178*
X25852Y-63160*
Y-63143*
X25869Y-63125*
Y-63108*
X25886Y-63091*
Y-63073*
X25921Y-63038*
Y-63021*
X25939Y-63003*
Y-62986*
X25956Y-62968*
Y-62951*
X25973Y-62934*
Y-62916*
X26008Y-62881*
Y-62864*
X26043Y-62829*
Y-62812*
X26061Y-62794*
Y-62777*
X26096Y-62742*
Y-62724*
X26113Y-62707*
Y-62689*
X26148Y-62655*
Y-62637*
X26200Y-62585*
Y-62568*
X26252Y-62515*
Y-62498*
X26287Y-62463*
Y-62445*
X26375Y-62358*
Y-62341*
X26462Y-62254*
Y-62236*
X26549Y-62149*
Y-62132*
X26619Y-62062*
Y-62045*
X26671Y-61992*
Y-61975*
X26758Y-61888*
Y-61870*
X26862Y-61766*
Y-61747*
X26897Y-61730*
Y-61713*
X27176Y-61434*
Y-61414*
X28041*
Y-61439*
X27989Y-61491*
Y-61508*
X27849Y-61648*
Y-61683*
X27814Y-61718*
Y-61735*
X27795Y-61755*
X27762Y-61771*
Y-61805*
X27710Y-61857*
Y-61892*
X27692Y-61909*
Y-61927*
X27657Y-61962*
Y-61979*
X27623Y-62014*
Y-62031*
X27605Y-62049*
Y-62066*
X27570Y-62101*
Y-62119*
X27536Y-62154*
Y-62171*
X27518Y-62188*
Y-62206*
X27483Y-62241*
Y-62258*
X27466Y-62275*
Y-62293*
X27431Y-62328*
Y-62345*
X27413Y-62363*
Y-62380*
X27379Y-62415*
Y-62432*
X27344Y-62467*
Y-62485*
X27326Y-62502*
Y-62520*
X27309Y-62537*
Y-62572*
X27289Y-62591*
X27257Y-62608*
Y-62624*
X27239Y-62641*
Y-62659*
X27222Y-62676*
Y-62694*
X27204Y-62711*
Y-62729*
X27187Y-62746*
Y-62764*
X27169Y-62781*
Y-62798*
X27152Y-62816*
Y-62833*
X27134Y-62851*
Y-62868*
X27117Y-62886*
Y-62903*
X27100Y-62920*
Y-62938*
X27082Y-62955*
Y-62973*
X27065Y-62990*
Y-63007*
X27047Y-63025*
Y-63043*
X27030Y-63060*
Y-63095*
X27013Y-63112*
Y-63130*
X26995Y-63147*
Y-63164*
X26978Y-63182*
Y-63217*
X26960Y-63234*
Y-63252*
X26943Y-63269*
Y-63287*
X26925Y-63304*
Y-63339*
X26908Y-63356*
Y-63374*
X26890Y-63391*
Y-63426*
X26873Y-63443*
Y-63461*
X26856Y-63478*
Y-63513*
X26838Y-63530*
Y-63548*
X26821Y-63565*
Y-63600*
X26803Y-63618*
Y-63653*
X26786Y-63670*
Y-63705*
X26768Y-63722*
Y-63740*
X26751Y-63757*
Y-63809*
X26734Y-63827*
Y-63844*
X26716Y-63862*
Y-63949*
X26699Y-63966*
Y-64002*
X26664Y-64020*
Y-64036*
X26646Y-64053*
Y-64106*
X26629Y-64123*
Y-64193*
X26611Y-64210*
Y-64280*
X26594Y-64298*
Y-64367*
X26577Y-64385*
Y-64454*
X26559Y-64472*
Y-64559*
X26542Y-64576*
Y-64646*
X26524Y-64664*
Y-64768*
X26507Y-64786*
Y-64855*
X26490Y-64873*
Y-64963*
X25520*
G37*
G36*
X28954Y-64158D02*
G01Y-63927D01*
X28972Y-63910*
Y-63753*
X28989Y-63735*
Y-63648*
X29007Y-63631*
Y-63561*
X29024Y-63544*
Y-63491*
X29042Y-63474*
Y-63421*
X29059Y-63404*
Y-63369*
X29076Y-63352*
Y-63300*
X29094Y-63282*
Y-63247*
X29111Y-63230*
Y-63195*
X29129Y-63178*
Y-63143*
X29146Y-63125*
Y-63108*
X29164Y-63091*
Y-63055*
X29181Y-63038*
Y-63003*
X29198Y-62986*
Y-62951*
X29216Y-62934*
Y-62916*
X29233Y-62899*
Y-62881*
X29251Y-62864*
Y-62829*
X29268Y-62812*
Y-62777*
X29286Y-62759*
Y-62742*
X29303Y-62724*
Y-62689*
X29320Y-62672*
Y-62637*
X29338Y-62620*
Y-62602*
X29355Y-62585*
Y-62568*
X29373Y-62550*
Y-62515*
X29390Y-62498*
Y-62463*
X29408Y-62445*
Y-62428*
X29425Y-62411*
Y-62358*
X29460Y-62323*
Y-62289*
X29477Y-62271*
Y-62254*
X29495Y-62236*
Y-62219*
X29512Y-62202*
Y-62184*
X29530Y-62166*
Y-62132*
X29547Y-62114*
Y-62097*
X29582Y-62062*
Y-62027*
X29599Y-62010*
Y-61992*
X29634Y-61957*
Y-61940*
X29652Y-61922*
Y-61905*
X29669Y-61888*
Y-61870*
X29704Y-61835*
Y-61818*
X29791Y-61731*
Y-61713*
X29809Y-61696*
Y-61679*
X29826Y-61661*
Y-61643*
X29843Y-61626*
Y-61609*
X29878Y-61574*
Y-61556*
X29896Y-61539*
Y-61522*
X29931Y-61487*
Y-61469*
X29948Y-61452*
Y-61414*
X30729*
X30730Y-61416*
X30708Y-61439*
Y-61456*
X30690Y-61474*
Y-61508*
X30673Y-61526*
Y-61543*
X30656Y-61561*
Y-61596*
X30638Y-61613*
Y-61631*
X30621Y-61648*
Y-61683*
X30603Y-61700*
Y-61718*
X30586Y-61735*
Y-61770*
X30569Y-61787*
Y-61822*
X30551Y-61840*
Y-61875*
X30534Y-61892*
Y-61927*
X30516Y-61944*
Y-61979*
X30499Y-61997*
Y-62066*
X30481Y-62084*
Y-62119*
X30464Y-62136*
Y-62206*
X30447Y-62223*
Y-62310*
X30429Y-62328*
Y-62432*
X30412Y-62450*
Y-62829*
X30429Y-62846*
Y-62916*
X30447Y-62934*
Y-63021*
X30464Y-63038*
Y-63073*
X30499Y-63108*
Y-63160*
X30516Y-63178*
Y-63212*
X30534Y-63230*
Y-63265*
X30551Y-63282*
Y-63300*
X30569Y-63317*
Y-63334*
X30586Y-63352*
Y-63369*
X30621Y-63404*
Y-63421*
X30656Y-63457*
Y-63474*
X30726Y-63544*
Y-63561*
X30743Y-63578*
Y-63596*
X30845Y-63698*
X30880Y-63716*
X30900Y-63735*
Y-63753*
X30915Y-63768*
X30950Y-63785*
X30985Y-63821*
X31020Y-63838*
X31144Y-63962*
Y-63977*
X31227Y-63994*
X31299Y-64030*
X31316Y-64047*
X31454Y-64116*
X31507Y-64134*
X31541Y-64151*
X31597Y-64170*
Y-64963*
X29181*
Y-64925*
X29164Y-64908*
Y-64890*
X29146Y-64873*
Y-64855*
X29129Y-64838*
Y-64803*
X29111Y-64786*
Y-64751*
X29094Y-64733*
Y-64716*
X29076Y-64699*
Y-64664*
X29059Y-64646*
Y-64611*
X29042Y-64594*
Y-64542*
X29024Y-64524*
Y-64489*
X29007Y-64472*
Y-64419*
X28989Y-64402*
Y-64315*
X28972Y-64298*
Y-64176*
X28954Y-64158*
G37*
G36*
X26897Y-64963D02*
G01Y-64903D01*
X26915Y-64886*
Y-64816*
X26932Y-64799*
Y-64729*
X26950Y-64712*
Y-64642*
X26967Y-64624*
Y-64572*
X26985Y-64555*
Y-64485*
X27002Y-64467*
Y-64415*
X27019Y-64398*
Y-64363*
X27037Y-64346*
Y-64311*
X27054Y-64293*
Y-64241*
X27072Y-64223*
Y-64171*
X27089Y-64154*
Y-64136*
X27107Y-64119*
Y-64067*
X27124Y-64049*
Y-64014*
X27142Y-63997*
Y-63962*
X27159Y-63944*
Y-63927*
X27176Y-63910*
Y-63875*
X27194Y-63857*
Y-63823*
X27211Y-63805*
Y-63788*
X27229Y-63770*
Y-63735*
X27246Y-63718*
Y-63683*
X27264Y-63666*
Y-63648*
X27281Y-63631*
Y-63613*
X27298Y-63596*
Y-63561*
X27316Y-63544*
Y-63526*
X27333Y-63509*
Y-63474*
X27351Y-63457*
Y-63439*
X27368Y-63421*
Y-63404*
X27385Y-63387*
Y-63369*
X27403Y-63352*
Y-63334*
X27420Y-63317*
Y-63300*
X27438Y-63282*
Y-63265*
X27455Y-63247*
Y-63230*
X27473Y-63212*
Y-63195*
X27490Y-63178*
Y-63160*
X27508Y-63143*
Y-63125*
X27525Y-63108*
Y-63091*
X27542Y-63073*
Y-63055*
X27560Y-63038*
Y-63021*
X27577Y-63003*
Y-62986*
X27595Y-62968*
Y-62951*
X27612Y-62934*
Y-62916*
X27647Y-62881*
Y-62864*
X27664Y-62846*
Y-62829*
X27699Y-62794*
Y-62777*
X27717Y-62759*
Y-62742*
X27734Y-62724*
Y-62707*
X27769Y-62672*
Y-62655*
X27786Y-62637*
Y-62620*
X27821Y-62585*
Y-62568*
X27839Y-62550*
Y-62533*
X27874Y-62498*
Y-62480*
X27908Y-62445*
Y-62428*
X27943Y-62393*
Y-62376*
X27978Y-62341*
Y-62323*
X28013Y-62289*
Y-62271*
X28048Y-62236*
Y-62219*
X28083Y-62184*
Y-62166*
X28135Y-62114*
Y-62097*
X28187Y-62045*
Y-62027*
X28240Y-61975*
Y-61957*
X28292Y-61905*
Y-61888*
X28362Y-61818*
Y-61800*
X28397Y-61766*
Y-61731*
X28416Y-61711*
X28451Y-61694*
X28501Y-61643*
Y-61626*
X28553Y-61574*
Y-61556*
X28625Y-61484*
X28658Y-61468*
Y-61452*
X28696Y-61414*
X29579*
X29580Y-61416*
X29558Y-61439*
Y-61457*
X29523Y-61475*
Y-61491*
X29453Y-61561*
Y-61578*
X29401Y-61631*
Y-61648*
X29366Y-61683*
Y-61700*
X29348Y-61718*
Y-61735*
X29314Y-61770*
Y-61787*
X29296Y-61805*
Y-61822*
X29261Y-61857*
Y-61875*
X29226Y-61909*
Y-61927*
X29209Y-61944*
Y-61962*
X29191Y-61979*
Y-61997*
X29157Y-62031*
Y-62066*
X29122Y-62101*
Y-62119*
X29104Y-62136*
Y-62154*
X29087Y-62171*
Y-62188*
X29069Y-62206*
Y-62223*
X29052Y-62241*
Y-62275*
X29035Y-62293*
Y-62310*
X29017Y-62328*
Y-62345*
X29000Y-62363*
Y-62380*
X28982Y-62397*
Y-62415*
X28965Y-62432*
Y-62467*
X28947Y-62485*
Y-62502*
X28930Y-62520*
Y-62554*
X28912Y-62572*
Y-62589*
X28895Y-62607*
Y-62641*
X28878Y-62659*
Y-62676*
X28860Y-62694*
Y-62729*
X28843Y-62746*
Y-62781*
X28825Y-62798*
Y-62833*
X28808Y-62851*
Y-62886*
X28791Y-62903*
Y-62938*
X28773Y-62955*
Y-62990*
X28756Y-63007*
Y-63043*
X28738Y-63060*
Y-63077*
X28721Y-63095*
Y-63112*
X28705Y-63127*
X28721Y-63143*
Y-63164*
X28703Y-63182*
Y-63234*
X28686Y-63252*
Y-63287*
X28668Y-63304*
Y-63339*
X28651Y-63356*
Y-63409*
X28634Y-63426*
Y-63478*
X28616Y-63496*
Y-63600*
X28599Y-63618*
Y-64136*
X28616Y-64154*
Y-64241*
X28634Y-64258*
Y-64346*
X28651Y-64363*
Y-64415*
X28668Y-64433*
Y-64467*
X28686Y-64485*
Y-64537*
X28703Y-64555*
Y-64572*
X28721Y-64590*
Y-64624*
X28738Y-64642*
Y-64677*
X28756Y-64694*
Y-64729*
X28773Y-64746*
Y-64764*
X28791Y-64781*
Y-64799*
X28808Y-64816*
Y-64834*
X28825Y-64851*
Y-64886*
X28860Y-64921*
Y-64963*
X26897*
G37*
G36*
X32598D02*
G01Y-64861D01*
X32731Y-64856*
X32846Y-64839*
X32943Y-64811*
X33023Y-64772*
X33085Y-64721*
X33129Y-64660*
X33156Y-64587*
X33165Y-64502*
Y-61865*
X33158Y-61783*
X33137Y-61712*
X33103Y-61654*
X33055Y-61608*
X32978Y-61568*
X32876Y-61540*
X32750Y-61522*
X32598Y-61517*
Y-61415*
X34329*
X34518Y-61418*
X34697Y-61430*
X34864Y-61448*
X35021Y-61474*
X35166Y-61507*
X35301Y-61548*
X35425Y-61595*
X35539Y-61651*
X35650Y-61719*
X35747Y-61795*
X35828Y-61879*
X35896Y-61971*
X35947Y-62071*
X35985Y-62178*
X36007Y-62294*
X36015Y-62417*
X36006Y-62542*
X35980Y-62660*
X35935Y-62770*
X35873Y-62873*
X35794Y-62969*
X35697Y-63056*
X35581Y-63137*
X35449Y-63210*
X35329Y-63264*
X35204Y-63310*
X35074Y-63347*
X34939Y-63376*
X34798Y-63398*
X34654Y-63412*
X34503Y-63417*
X34349Y-63414*
X33821Y-63393*
Y-64529*
X33830Y-64607*
X33857Y-64675*
X33902Y-64732*
X33966Y-64778*
X34047Y-64815*
X34147Y-64841*
X34264Y-64856*
X34400Y-64861*
Y-64963*
X32598*
G37*
G36*
X45473D02*
G01Y-64861D01*
X45606Y-64856*
X45721Y-64839*
X45818Y-64811*
X45898Y-64772*
X45960Y-64721*
X46004Y-64660*
X46031Y-64587*
X46040Y-64502*
Y-61865*
X46033Y-61783*
X46012Y-61712*
X45978Y-61654*
X45930Y-61608*
X45853Y-61568*
X45751Y-61540*
X45625Y-61522*
X45473Y-61517*
Y-61415*
X48890*
Y-62181*
X48755*
X48707Y-62075*
X48641Y-61974*
X48557Y-61882*
X48462Y-61800*
X48353Y-61732*
X48238Y-61679*
X48118Y-61646*
X47996Y-61634*
X47037*
X46957Y-61638*
X46887Y-61649*
X46829Y-61667*
X46781Y-61691*
X46744Y-61723*
X46717Y-61761*
X46701Y-61807*
X46696Y-61860*
Y-62996*
X47687*
X47854Y-62988*
X47999Y-62964*
X48121Y-62924*
X48222Y-62867*
X48300Y-62795*
X48356Y-62706*
X48390Y-62602*
X48401Y-62481*
X48536*
Y-63736*
X48401*
X48386Y-63607*
X48368Y-63550*
X48343Y-63496*
X48310Y-63447*
X48270Y-63401*
X48224Y-63360*
X48169Y-63323*
X48069Y-63276*
X47955Y-63242*
X47828Y-63223*
X47687Y-63216*
X46696*
Y-64529*
X46702Y-64600*
X46720Y-64655*
X46750Y-64696*
X46793Y-64722*
X46870Y-64738*
X47011Y-64743*
X48002*
X48186Y-64731*
X48274Y-64715*
X48361Y-64692*
X48443Y-64664*
X48524Y-64629*
X48678Y-64540*
X48805Y-64437*
X48909Y-64322*
X48991Y-64196*
X49051Y-64057*
X49238*
X48948Y-64963*
X45473*
G37*
G36*
X40963Y-63189D02*
G01X40976Y-63034D01*
X41015Y-62876*
X41076Y-62717*
X41160Y-62557*
X41262Y-62400*
X41382Y-62247*
X41516Y-62099*
X41665Y-61959*
X41823Y-61830*
X41991Y-61711*
X42164Y-61605*
X42344Y-61514*
X42525Y-61441*
X42708Y-61386*
X42889Y-61352*
X43067Y-61340*
X43248Y-61352*
X43432Y-61386*
X43617Y-61440*
X43801Y-61513*
X43980Y-61604*
X44155Y-61709*
X44322Y-61827*
X44481Y-61957*
X44627Y-62097*
X44762Y-62244*
X44880Y-62398*
X44982Y-62554*
X45064Y-62714*
X45126Y-62875*
X45164Y-63033*
X45178Y-63189*
X45168Y-63381*
X45142Y-63564*
X45098Y-63740*
X45036Y-63907*
X44956Y-64067*
X44859Y-64218*
X44744Y-64362*
X44611Y-64497*
X44458Y-64624*
X44295Y-64734*
X44121Y-64827*
X43937Y-64903*
X43743Y-64962*
X43538Y-65004*
X43323Y-65029*
X43099Y-65038*
X42866Y-65029*
X42644Y-65004*
X42433Y-64962*
X42234Y-64903*
X42044Y-64827*
X41866Y-64734*
X41698Y-64624*
X41542Y-64497*
X41406Y-64362*
X41289Y-64218*
X41189Y-64067*
X41108Y-63907*
X41044Y-63740*
X40999Y-63564*
X40972Y-63381*
X40963Y-63189*
G37*
G36*
X36233Y-64963D02*
G01Y-64861D01*
X36366Y-64856*
X36481Y-64839*
X36578Y-64811*
X36658Y-64772*
X36720Y-64721*
X36764Y-64660*
X36790Y-64587*
X36799Y-64502*
Y-61865*
X36790Y-61783*
X36764Y-61713*
X36720Y-61653*
X36658Y-61604*
X36578Y-61566*
X36481Y-61538*
X36366Y-61522*
X36233Y-61517*
Y-61415*
X38022*
Y-61517*
X37889Y-61522*
X37774Y-61538*
X37676Y-61566*
X37597Y-61604*
X37535Y-61653*
X37491Y-61713*
X37464Y-61783*
X37456Y-61865*
Y-63039*
X39405*
Y-61865*
X39396Y-61783*
X39370Y-61713*
X39325Y-61653*
X39264Y-61604*
X39184Y-61566*
X39087Y-61538*
X38972Y-61522*
X38839Y-61517*
Y-61415*
X40628*
Y-61517*
X40495Y-61522*
X40380Y-61538*
X40282Y-61566*
X40203Y-61604*
X40141Y-61653*
X40097Y-61713*
X40070Y-61783*
X40062Y-61865*
Y-64502*
X40070Y-64587*
X40097Y-64660*
X40141Y-64721*
X40203Y-64772*
X40282Y-64811*
X40380Y-64839*
X40495Y-64856*
X40628Y-64861*
Y-64963*
X38839*
Y-64861*
X38972Y-64856*
X39087Y-64839*
X39184Y-64811*
X39264Y-64772*
X39325Y-64721*
X39370Y-64660*
X39396Y-64587*
X39405Y-64502*
Y-63259*
X37456*
Y-64502*
X37464Y-64587*
X37491Y-64660*
X37535Y-64721*
X37597Y-64772*
X37676Y-64811*
X37774Y-64839*
X37889Y-64856*
X38022Y-64861*
Y-64963*
X36233*
G37*
G36*
X56193Y-64861D02*
G01X56278Y-64856D01*
X56364Y-64839*
X56450Y-64810*
X56537Y-64770*
X56624Y-64719*
X56712Y-64656*
X56799Y-64582*
X56888Y-64497*
X58132Y-63215*
X57151Y-62016*
X57047Y-61899*
X56941Y-61798*
X56833Y-61712*
X56725Y-61641*
X56613Y-61587*
X56501Y-61548*
X56386Y-61525*
X56270Y-61517*
Y-61415*
X58207*
Y-61517*
X57993Y-61527*
X57910Y-61539*
X57842Y-61556*
X57789Y-61578*
X57751Y-61604*
X57730Y-61636*
X57724Y-61672*
X57750Y-61752*
X57811Y-61874*
X57937Y-62079*
X58548Y-62798*
X59422Y-61902*
X59473Y-61845*
X59508Y-61789*
X59527Y-61735*
X59532Y-61683*
X59522Y-61644*
X59499Y-61610*
X59462Y-61582*
X59413Y-61558*
X59350Y-61541*
X59274Y-61527*
X59082Y-61517*
Y-61415*
X60607*
Y-61517*
X60494Y-61522*
X60384Y-61540*
X60277Y-61570*
X60173Y-61611*
X60071Y-61664*
X59972Y-61728*
X59876Y-61805*
X59783Y-61892*
X58702Y-62991*
X59918Y-64433*
X60008Y-64534*
X60099Y-64620*
X60190Y-64694*
X60283Y-64754*
X60375Y-64802*
X60469Y-64835*
X60563Y-64855*
X60658Y-64861*
Y-64963*
X58747*
Y-64861*
X58964Y-64852*
X59049Y-64840*
X59119Y-64823*
X59173Y-64801*
X59211Y-64774*
X59235Y-64743*
X59243Y-64706*
X59234Y-64640*
X59207Y-64567*
X59162Y-64490*
X59100Y-64407*
X58304Y-63425*
X57364Y-64395*
X57297Y-64471*
X57248Y-64539*
X57219Y-64598*
X57210Y-64647*
X57218Y-64698*
X57241Y-64741*
X57279Y-64778*
X57332Y-64808*
X57398Y-64832*
X57479Y-64848*
X57575Y-64858*
X57686Y-64861*
Y-64963*
X56193*
Y-64861*
G37*
G36*
X49405Y-64963D02*
G01Y-64861D01*
X49551Y-64855*
X49678Y-64838*
X49784Y-64808*
X49873Y-64766*
X49940Y-64713*
X49990Y-64647*
X50019Y-64570*
X50029Y-64481*
Y-61817*
X49898Y-61685*
X49830Y-61624*
X49742Y-61577*
X49643Y-61543*
X49530Y-61523*
X49405Y-61517*
Y-61415*
X50512*
X52982Y-63993*
Y-61849*
X52972Y-61771*
X52943Y-61704*
X52894Y-61647*
X52826Y-61600*
X52738Y-61564*
X52631Y-61537*
X52504Y-61522*
X52358Y-61517*
Y-61415*
X53890*
Y-61517*
X53743Y-61522*
X53616Y-61539*
X53509Y-61567*
X53421Y-61607*
X53352Y-61657*
X53304Y-61719*
X53275Y-61792*
X53265Y-61876*
Y-65038*
X53177Y-65036*
X50312Y-62090*
Y-64529*
X50322Y-64607*
X50351Y-64675*
X50399Y-64732*
X50468Y-64778*
X50555Y-64815*
X50663Y-64841*
X50790Y-64856*
X50936Y-64861*
Y-64963*
X49405*
G37*
%LPC*%
G36*
X34130Y-63210D02*
G01X34310Y-63216D01*
X34537Y-63203*
X34639Y-63188*
X34735Y-63166*
X34821Y-63138*
X34901Y-63104*
X34973Y-63063*
X35038Y-63016*
X35095Y-62964*
X35144Y-62904*
X35186Y-62839*
X35220Y-62767*
X35247Y-62689*
X35266Y-62605*
X35278Y-62515*
X35282Y-62417*
X35276Y-62320*
X35262Y-62229*
X35238Y-62144*
X35206Y-62065*
X35163Y-61994*
X35112Y-61928*
X35051Y-61868*
X34980Y-61814*
X34900Y-61767*
X34811Y-61727*
X34711Y-61692*
X34604Y-61663*
X34486Y-61642*
X34359Y-61626*
X34223Y-61616*
X34078Y-61613*
X33956Y-61620*
X33914Y-61629*
X33885Y-61640*
X33857Y-61669*
X33837Y-61711*
X33825Y-61768*
X33821Y-61838*
Y-63189*
X34130Y-63210*
G37*
G36*
X41702Y-63374D02*
G01X41718Y-63540D01*
X41745Y-63699*
X41783Y-63848*
X41832Y-63991*
X41892Y-64125*
X41962Y-64251*
X42044Y-64368*
X42138Y-64481*
X42240Y-64577*
X42351Y-64660*
X42470Y-64726*
X42597Y-64779*
X42732Y-64816*
X42876Y-64838*
X43028Y-64845*
X43197Y-64837*
X43357Y-64813*
X43506Y-64773*
X43646Y-64715*
X43776Y-64642*
X43897Y-64553*
X44008Y-64447*
X44109Y-64325*
X44187Y-64208*
X44255Y-64084*
X44313Y-63954*
X44360Y-63816*
X44396Y-63672*
X44423Y-63522*
X44438Y-63364*
X44444Y-63200*
X44439Y-63029*
X44425Y-62865*
X44401Y-62709*
X44368Y-62561*
X44325Y-62421*
X44273Y-62288*
X44212Y-62164*
X44142Y-62047*
X44048Y-61927*
X43945Y-61822*
X43832Y-61734*
X43710Y-61661*
X43578Y-61605*
X43436Y-61565*
X43285Y-61541*
X43125Y-61533*
X42944Y-61541*
X42776Y-61563*
X42619Y-61602*
X42475Y-61655*
X42343Y-61724*
X42222Y-61808*
X42114Y-61907*
X42018Y-62020*
X41942Y-62133*
X41877Y-62255*
X41822Y-62388*
X41777Y-62530*
X41741Y-62682*
X41716Y-62845*
X41701Y-63017*
X41697Y-63200*
X41702Y-63374*
G37*
%LPD*%
G54D20*
X12300Y36150D03*
X11400D03*
G54D21*
X15160Y37800D03*
X13941D03*
G54D20*
X15050Y36050D03*
X15950D03*
X15100Y34400D03*
X16000D03*
X15100Y33250D03*
X16000D03*
X27300Y36150D03*
X26400D03*
G54D21*
X30160Y37800D03*
X28941D03*
G54D20*
X30050Y36050D03*
X30950D03*
X30100Y34400D03*
X31000D03*
X30100Y33250D03*
X31000D03*
X42300Y36150D03*
X41400D03*
G54D21*
X45160Y37800D03*
X43940D03*
G54D20*
X45050Y36050D03*
X45950D03*
X45100Y34400D03*
X46000D03*
X45100Y33250D03*
X46000D03*
X12300Y17150D03*
X11400D03*
G54D21*
X15160Y18800D03*
X13941D03*
G54D20*
X15050Y17050D03*
X15950D03*
X15100Y15400D03*
X16000D03*
X15100Y14250D03*
X16000D03*
X27300Y17150D03*
X26400D03*
G54D21*
X30160Y18800D03*
X28941D03*
G54D20*
X30050Y17050D03*
X30950D03*
X30100Y15400D03*
X31000D03*
X30100Y14250D03*
X31000D03*
X42300Y17150D03*
X41400D03*
G54D21*
X45160Y18800D03*
X43940D03*
G54D20*
X45050Y17050D03*
X45950D03*
X45100Y15400D03*
X46000D03*
X45100Y14250D03*
X46000D03*
G54D40*
X0Y50000D02*
G01Y0D01*
X57000*
Y50000*
X0*
G54D84*
X18000Y-57000D02*
G01X68000D01*
Y-72000*
X18000*
Y-57000*
X68000D02*
G01X118000D01*
Y-62000*
X68000*
Y-57000*
X118000Y-62000D02*
G01X68000D01*
Y-67000*
X118000*
Y-62000*
X68000Y-67000D02*
G01X118000D01*
Y-72000*
X68000*
Y-67000*
X118000Y-57000D02*
G01X168000D01*
Y-62000*
X118000*
Y-57000*
X168000Y-62000D02*
G01X118000D01*
Y-67000*
X168000*
Y-62000*
X118000Y-67000D02*
G01X168000D01*
Y-72000*
X118000*
Y-67000*
X25925Y-66975D02*
G01X26425Y-67850D01*
X26925Y-66975D02*
G01X26425Y-67850D01*
X26925Y-66975D02*
G01X27425Y-67850D01*
X27925Y-66975D02*
G01X27425Y-67850D01*
X28675Y-66975D02*
G01X29175Y-67850D01*
X29675Y-66975D02*
G01X29175Y-67850D01*
X29675Y-66975D02*
G01X30175Y-67850D01*
X30675Y-66975D02*
G01X30175Y-67850D01*
X31425Y-66975D02*
G01X31925Y-67850D01*
X32425Y-66975D02*
G01X31925Y-67850D01*
X32425Y-66975D02*
G01X32925Y-67850D01*
X33425Y-66975D02*
G01X32925Y-67850D01*
X34425Y-67725D02*
G01X34300Y-67787D01*
X34425Y-67850*
X34550Y-67787*
X34425Y-67725*
X35550Y-66975D02*
G01Y-68287D01*
Y-67162D02*
G01X35800Y-67037D01*
X36050Y-66975*
X36425*
X36675Y-67037*
X36925Y-67162*
X37050Y-67350*
Y-67475*
X36925Y-67662*
X36675Y-67787*
X36425Y-67850*
X36050*
X35800Y-67787*
X35550Y-67662*
X37925Y-66537D02*
G01Y-67850D01*
Y-67225D02*
G01X38300Y-67037D01*
X38550Y-66975*
X38925*
X39175Y-67037*
X39300Y-67225*
Y-67850*
X40800Y-66975D02*
G01X40550Y-67037D01*
X40300Y-67162*
X40175Y-67350*
Y-67475*
X40300Y-67662*
X40550Y-67787*
X40800Y-67850*
X41175*
X41425Y-67787*
X41675Y-67662*
X41800Y-67475*
Y-67350*
X41675Y-67162*
X41425Y-67037*
X41175Y-66975*
X40800*
X42550Y-67350D02*
G01X44050D01*
Y-67225*
X43925Y-67100*
X43800Y-67037*
X43550Y-66975*
X43175*
X42925Y-67037*
X42675Y-67162*
X42550Y-67350*
Y-67475*
X42675Y-67662*
X42925Y-67787*
X43175Y-67850*
X43550*
X43800Y-67787*
X44050Y-67662*
X44925Y-66975D02*
G01Y-67850D01*
Y-67225D02*
G01X45300Y-67037D01*
X45550Y-66975*
X45925*
X46175Y-67037*
X46300Y-67225*
Y-67850*
X47175Y-66537D02*
G01X47300Y-66600D01*
X47425Y-66537*
X47300Y-66475*
X47175Y-66537*
X47300Y-66975D02*
G01Y-67850D01*
X48175Y-66975D02*
G01X49550Y-67850D01*
Y-66975D02*
G01X48175Y-67850D01*
X50425Y-66975D02*
G01Y-68287D01*
Y-67162D02*
G01X50675Y-67037D01*
X50925Y-66975*
X51300*
X51550Y-67037*
X51800Y-67162*
X51925Y-67350*
Y-67475*
X51800Y-67662*
X51550Y-67787*
X51300Y-67850*
X50925*
X50675Y-67787*
X50425Y-67662*
X54175Y-67162D02*
G01X53925Y-67037D01*
X53675Y-66975*
X53300*
X53050Y-67037*
X52800Y-67162*
X52675Y-67350*
Y-67475*
X52800Y-67662*
X53050Y-67787*
X53300Y-67850*
X53675*
X53925Y-67787*
X54175Y-67662*
X55050Y-66537D02*
G01Y-67850D01*
Y-67162D02*
G01X55300Y-67037D01*
X55550Y-66975*
X55925*
X56175Y-67037*
X56425Y-67162*
X56550Y-67350*
Y-67475*
X56425Y-67662*
X56175Y-67787*
X55925Y-67850*
X55550*
X55300Y-67787*
X55050Y-67662*
X57550Y-67725D02*
G01X57425Y-67787D01*
X57550Y-67850*
X57675Y-67787*
X57550Y-67725*
X58550Y-66537D02*
G01X58675Y-66600D01*
X58800Y-66537*
X58675Y-66475*
X58550Y-66537*
X58675Y-66975D02*
G01Y-67850D01*
X59800Y-66537D02*
G01Y-67600D01*
X59925Y-67787*
X60175Y-67850*
X60425*
X59425Y-66975D02*
G01X60300D01*
X70614Y-58612D02*
G01X70426Y-58425D01*
X70145Y-58331*
X69770*
X69489Y-58425*
X69301Y-58612*
Y-58800*
X69395Y-58987*
X69489Y-59081*
X69676Y-59175*
X70239Y-59362*
X70426Y-59456*
X70520Y-59550*
X70614Y-59737*
Y-60019*
X70426Y-60206*
X70145Y-60300*
X69770*
X69489Y-60206*
X69301Y-60019*
X71176Y-58331D02*
G01X71270Y-58425D01*
X71364Y-58331*
X71270Y-58237*
X71176Y-58331*
X71270Y-58987D02*
G01Y-60300D01*
X72958Y-58987D02*
G01X71926Y-60300D01*
Y-58987D02*
G01X72958D01*
X71926Y-60300D02*
G01X72958D01*
X73520Y-59550D02*
G01X74645D01*
Y-59362*
X74551Y-59175*
X74458Y-59081*
X74270Y-58987*
X73989*
X73801Y-59081*
X73614Y-59269*
X73520Y-59550*
Y-59737*
X73614Y-60019*
X73801Y-60206*
X73989Y-60300*
X74270*
X74458Y-60206*
X74645Y-60019*
X75395Y-58987D02*
G01X75301Y-59081D01*
X75395Y-59175*
X75489Y-59081*
X75395Y-58987*
Y-60112D02*
G01X75301Y-60206D01*
X75395Y-60300*
X75489Y-60206*
X75395Y-60112*
X69395Y-63331D02*
G01Y-64737D01*
X69489Y-65019*
X69676Y-65206*
X69958Y-65300*
X70145*
X70426Y-65206*
X70614Y-65019*
X70708Y-64737*
Y-63331*
X71558Y-63987D02*
G01Y-65300D01*
Y-64362D02*
G01X71839Y-64081D01*
X72026Y-63987*
X72308*
X72495Y-64081*
X72589Y-64362*
Y-65300*
X73345Y-63331D02*
G01X73439Y-63425D01*
X73533Y-63331*
X73439Y-63237*
X73345Y-63331*
X73439Y-63987D02*
G01Y-65300D01*
X74383Y-63331D02*
G01Y-64925D01*
X74476Y-65206*
X74664Y-65300*
X74851*
X74101Y-63987D02*
G01X74758D01*
X75608D02*
G01X75514Y-64081D01*
X75608Y-64175*
X75701Y-64081*
X75608Y-63987*
Y-65112D02*
G01X75514Y-65206D01*
X75608Y-65300*
X75701Y-65206*
X75608Y-65112*
X70614Y-68612D02*
G01X70426Y-68425D01*
X70145Y-68331*
X69770*
X69489Y-68425*
X69301Y-68612*
Y-68800*
X69395Y-68987*
X69489Y-69081*
X69676Y-69175*
X70239Y-69362*
X70426Y-69456*
X70520Y-69550*
X70614Y-69737*
Y-70019*
X70426Y-70206*
X70145Y-70300*
X69770*
X69489Y-70206*
X69301Y-70019*
X72301Y-69269D02*
G01X72114Y-69081D01*
X71926Y-68987*
X71645*
X71458Y-69081*
X71270Y-69269*
X71176Y-69550*
Y-69737*
X71270Y-70019*
X71458Y-70206*
X71645Y-70300*
X71926*
X72114Y-70206*
X72301Y-70019*
X73989Y-68987D02*
G01Y-70300D01*
Y-69269D02*
G01X73801Y-69081D01*
X73614Y-68987*
X73333*
X73145Y-69081*
X72958Y-69269*
X72864Y-69550*
Y-69737*
X72958Y-70019*
X73145Y-70206*
X73333Y-70300*
X73614*
X73801Y-70206*
X73989Y-70019*
X74739Y-68331D02*
G01Y-70300D01*
X75395Y-69550D02*
G01X76520D01*
Y-69362*
X76426Y-69175*
X76333Y-69081*
X76145Y-68987*
X75864*
X75676Y-69081*
X75489Y-69269*
X75395Y-69550*
Y-69737*
X75489Y-70019*
X75676Y-70206*
X75864Y-70300*
X76145*
X76333Y-70206*
X76520Y-70019*
X77270Y-68987D02*
G01X77176Y-69081D01*
X77270Y-69175*
X77364Y-69081*
X77270Y-68987*
Y-70112D02*
G01X77176Y-70206D01*
X77270Y-70300*
X77364Y-70206*
X77270Y-70112*
X119395Y-58331D02*
G01Y-60300D01*
Y-58331D02*
G01X120051D01*
X120333Y-58425*
X120520Y-58612*
X120614Y-58800*
X120708Y-59081*
Y-59550*
X120614Y-59831*
X120520Y-60019*
X120333Y-60206*
X120051Y-60300*
X119395*
X122395Y-58987D02*
G01Y-60300D01*
Y-59269D02*
G01X122208Y-59081D01*
X122020Y-58987*
X121739*
X121551Y-59081*
X121364Y-59269*
X121270Y-59550*
Y-59737*
X121364Y-60019*
X121551Y-60206*
X121739Y-60300*
X122020*
X122208Y-60206*
X122395Y-60019*
X123239Y-58331D02*
G01Y-59925D01*
X123333Y-60206*
X123520Y-60300*
X123708*
X122958Y-58987D02*
G01X123614D01*
X124176Y-59550D02*
G01X125301D01*
Y-59362*
X125208Y-59175*
X125114Y-59081*
X124926Y-58987*
X124645*
X124458Y-59081*
X124270Y-59269*
X124176Y-59550*
Y-59737*
X124270Y-60019*
X124458Y-60206*
X124645Y-60300*
X124926*
X125114Y-60206*
X125301Y-60019*
X126051Y-58987D02*
G01X125958Y-59081D01*
X126051Y-59175*
X126145Y-59081*
X126051Y-58987*
Y-60112D02*
G01X125958Y-60206D01*
X126051Y-60300*
X126145Y-60206*
X126051Y-60112*
X120708Y-63800D02*
G01X120614Y-63612D01*
X120426Y-63425*
X120239Y-63331*
X119864*
X119676Y-63425*
X119489Y-63612*
X119395Y-63800*
X119301Y-64081*
Y-64550*
X119395Y-64831*
X119489Y-65019*
X119676Y-65206*
X119864Y-65300*
X120239*
X120426Y-65206*
X120614Y-65019*
X120708Y-64831*
X121739Y-63987D02*
G01X121551Y-64081D01*
X121364Y-64269*
X121270Y-64550*
Y-64737*
X121364Y-65019*
X121551Y-65206*
X121739Y-65300*
X122020*
X122208Y-65206*
X122395Y-65019*
X122489Y-64737*
Y-64550*
X122395Y-64269*
X122208Y-64081*
X122020Y-63987*
X121739*
X124176Y-63331D02*
G01Y-65300D01*
Y-64269D02*
G01X123989Y-64081D01*
X123801Y-63987*
X123520*
X123333Y-64081*
X123145Y-64269*
X123051Y-64550*
Y-64737*
X123145Y-65019*
X123333Y-65206*
X123520Y-65300*
X123801*
X123989Y-65206*
X124176Y-65019*
X124833Y-64550D02*
G01X125958D01*
Y-64362*
X125864Y-64175*
X125770Y-64081*
X125583Y-63987*
X125301*
X125114Y-64081*
X124926Y-64269*
X124833Y-64550*
Y-64737*
X124926Y-65019*
X125114Y-65206*
X125301Y-65300*
X125583*
X125770Y-65206*
X125958Y-65019*
X126708Y-63987D02*
G01X126614Y-64081D01*
X126708Y-64175*
X126801Y-64081*
X126708Y-63987*
Y-65112D02*
G01X126614Y-65206D01*
X126708Y-65300*
X126801Y-65206*
X126708Y-65112*
X119395Y-68331D02*
G01Y-70300D01*
Y-70300D02*
G01X120520D01*
X122020Y-68987D02*
G01Y-70300D01*
Y-69269D02*
G01X121833Y-69081D01*
X121645Y-68987*
X121364*
X121176Y-69081*
X120989Y-69269*
X120895Y-69550*
Y-69737*
X120989Y-70019*
X121176Y-70206*
X121364Y-70300*
X121645*
X121833Y-70206*
X122020Y-70019*
X122583Y-68987D02*
G01X123145Y-70300D01*
X123708Y-68987D02*
G01X123145Y-70300D01*
X122958Y-70675*
X122770Y-70862*
X122583Y-70956*
X122489*
X124176Y-69550D02*
G01X125301D01*
Y-69362*
X125208Y-69175*
X125114Y-69081*
X124926Y-68987*
X124645*
X124458Y-69081*
X124270Y-69269*
X124176Y-69550*
Y-69737*
X124270Y-70019*
X124458Y-70206*
X124645Y-70300*
X124926*
X125114Y-70206*
X125301Y-70019*
X125958Y-68987D02*
G01Y-70300D01*
Y-69550D02*
G01X126051Y-69269D01*
X126239Y-69081*
X126426Y-68987*
X126708*
X127270D02*
G01X127176Y-69081D01*
X127270Y-69175*
X127364Y-69081*
X127270Y-68987*
Y-70112D02*
G01X127176Y-70206D01*
X127270Y-70300*
X127364Y-70206*
X127270Y-70112*
X96713Y-58331D02*
G01X95963Y-60300D01*
X96713Y-58331D02*
G01X97463Y-60300D01*
X96244Y-59644D02*
G01X97181D01*
X98775Y-58331D02*
G01X97838Y-59644D01*
X99244*
X98775Y-58331D02*
G01Y-60300D01*
X93384Y-63987D02*
G01Y-65300D01*
Y-64362D02*
G01X93666Y-64081D01*
X93853Y-63987*
X94134*
X94322Y-64081*
X94416Y-64362*
Y-65300*
Y-64362D02*
G01X94697Y-64081D01*
X94884Y-63987*
X95166*
X95353Y-64081*
X95447Y-64362*
Y-65300*
X96103Y-64550D02*
G01X97228D01*
Y-64362*
X97134Y-64175*
X97041Y-64081*
X96853Y-63987*
X96572*
X96384Y-64081*
X96197Y-64269*
X96103Y-64550*
Y-64737*
X96197Y-65019*
X96384Y-65206*
X96572Y-65300*
X96853*
X97041Y-65206*
X97228Y-65019*
X97978Y-63331D02*
G01Y-64925D01*
X98072Y-65206*
X98259Y-65300*
X98447*
X97697Y-63987D02*
G01X98353D01*
X99009D02*
G01Y-65300D01*
Y-64550D02*
G01X99103Y-64269D01*
X99291Y-64081*
X99478Y-63987*
X99759*
X100134Y-63331D02*
G01X100228Y-63425D01*
X100322Y-63331*
X100228Y-63237*
X100134Y-63331*
X100228Y-63987D02*
G01Y-65300D01*
X102009Y-64269D02*
G01X101822Y-64081D01*
X101634Y-63987*
X101353*
X101166Y-64081*
X100978Y-64269*
X100884Y-64550*
Y-64737*
X100978Y-65019*
X101166Y-65206*
X101353Y-65300*
X101634*
X101822Y-65206*
X102009Y-65019*
X95869Y-68706D02*
G01X96056Y-68612D01*
X96338Y-68331*
Y-70300*
X97650Y-68987D02*
G01X97556Y-69081D01*
X97650Y-69175*
X97744Y-69081*
X97650Y-68987*
Y-70112D02*
G01X97556Y-70206D01*
X97650Y-70300*
X97744Y-70206*
X97650Y-70112*
X98681Y-68706D02*
G01X98869Y-68612D01*
X99150Y-68331*
Y-70300*
G54D112*
X-114000Y-75000D02*
G01Y125000D01*
X171000*
Y-75000*
X-114000*
G54D84*
X-111000Y122000D02*
G01X168000D01*
Y-72000*
X-111000*
Y122000*
G54D46*
G01X148512Y-59008D02*
X148325Y-59070D01*
X148200Y-59258D01*
X148137Y-59570D01*
Y-59758D01*
X148200Y-60070D01*
X148325Y-60258D01*
X148512Y-60320D01*
X148637D01*
X148825Y-60258D01*
X148950Y-60070D01*
X149012Y-59758D01*
Y-59570D01*
X148950Y-59258D01*
X148825Y-59070D01*
X148637Y-59008D01*
X148512D01*
X150022D02*
X150710D01*
X150335Y-59508D01*
X150522D01*
X150647Y-59570D01*
X150710Y-59633D01*
X150772Y-59820D01*
Y-59945D01*
X150710Y-60133D01*
X150585Y-60258D01*
X150397Y-60320D01*
X150210D01*
X150022Y-60258D01*
X149960Y-60195D01*
X149897Y-60070D01*
X152345Y-59070D02*
X151657Y-60383D01*
X153730Y-59258D02*
X153855Y-59195D01*
X154042Y-59008D01*
Y-60320D01*
X155490Y-59258D02*
X155615Y-59195D01*
X155802Y-59008D01*
Y-60320D01*
X157750Y-59070D02*
X157062Y-60383D01*
X159010Y-59320D02*
Y-59258D01*
X159072Y-59133D01*
X159135Y-59070D01*
X159260Y-59008D01*
X159510D01*
X159635Y-59070D01*
X159697Y-59133D01*
X159760Y-59258D01*
Y-59383D01*
X159697Y-59508D01*
X159572Y-59695D01*
X158947Y-60320D01*
X159822D01*
X161082Y-59008D02*
X160895Y-59070D01*
X160770Y-59258D01*
X160707Y-59570D01*
Y-59758D01*
X160770Y-60070D01*
X160895Y-60258D01*
X161082Y-60320D01*
X161207D01*
X161395Y-60258D01*
X161520Y-60070D01*
X161582Y-59758D01*
Y-59570D01*
X161520Y-59258D01*
X161395Y-59070D01*
X161207Y-59008D01*
X161082D01*
X162655Y-59258D02*
X162780Y-59195D01*
X162967Y-59008D01*
Y-60320D01*
X164415Y-59258D02*
X164540Y-59195D01*
X164727Y-59008D01*
Y-60320D01*
G01X156302Y-64008D02*
Y-65320D01*
Y-64008D02*
X157177Y-65320D01*
Y-64008D02*
Y-65320D01*
X158187Y-64008D02*
Y-65320D01*
Y-64008D02*
X159000D01*
X158187Y-64633D02*
X158687D01*
X158187Y-65320D02*
X159000D01*
X159885Y-64008D02*
Y-65320D01*
X160895Y-64320D02*
Y-64258D01*
X160957Y-64133D01*
X161020Y-64070D01*
X161145Y-64008D01*
X161395D01*
X161520Y-64070D01*
X161582Y-64133D01*
X161645Y-64258D01*
Y-64383D01*
X161582Y-64508D01*
X161457Y-64695D01*
X160832Y-65320D01*
X161707D01*
X162405Y-65445D02*
X163530D01*
X164602Y-64008D02*
X164415Y-64070D01*
X164290Y-64258D01*
X164227Y-64570D01*
Y-64758D01*
X164290Y-65070D01*
X164415Y-65258D01*
X164602Y-65320D01*
X164727D01*
X164915Y-65258D01*
X165040Y-65070D01*
X165102Y-64758D01*
Y-64570D01*
X165040Y-64258D01*
X164915Y-64070D01*
X164727Y-64008D01*
X164602D01*
G01X145492Y-69008D02*
Y-70320D01*
Y-69008D02*
X146055D01*
X146242Y-69070D01*
X146305Y-69133D01*
X146367Y-69258D01*
Y-69445D01*
X146305Y-69570D01*
X146242Y-69633D01*
X146055Y-69695D01*
X145492D01*
X147627Y-69008D02*
X147127Y-70320D01*
X147627Y-69008D02*
X148127Y-70320D01*
X147315Y-69883D02*
X147940D01*
X149762Y-69195D02*
X149637Y-69070D01*
X149450Y-69008D01*
X149200D01*
X149012Y-69070D01*
X148887Y-69195D01*
Y-69320D01*
X148950Y-69445D01*
X149012Y-69508D01*
X149137Y-69570D01*
X149512Y-69695D01*
X149637Y-69758D01*
X149700Y-69820D01*
X149762Y-69945D01*
Y-70133D01*
X149637Y-70258D01*
X149450Y-70320D01*
X149200D01*
X149012Y-70258D01*
X148887Y-70133D01*
X150960Y-69008D02*
Y-70320D01*
X150522Y-69008D02*
X151397D01*
X152220D02*
Y-70320D01*
Y-69008D02*
X153032D01*
X152220Y-69633D02*
X152720D01*
X152220Y-70320D02*
X153032D01*
X155427Y-69008D02*
Y-70320D01*
Y-69008D02*
X155990D01*
X156177Y-69070D01*
X156240Y-69133D01*
X156302Y-69258D01*
Y-69383D01*
X156240Y-69508D01*
X156177Y-69570D01*
X155990Y-69633D01*
X155427D02*
X155990D01*
X156177Y-69695D01*
X156240Y-69758D01*
X156302Y-69883D01*
Y-70070D01*
X156240Y-70195D01*
X156177Y-70258D01*
X155990Y-70320D01*
X155427D01*
X157562Y-69008D02*
X157437Y-69070D01*
X157312Y-69195D01*
X157250Y-69320D01*
X157187Y-69508D01*
Y-69820D01*
X157250Y-70008D01*
X157312Y-70133D01*
X157437Y-70258D01*
X157562Y-70320D01*
X157812D01*
X157937Y-70258D01*
X158062Y-70133D01*
X158125Y-70008D01*
X158187Y-69820D01*
Y-69508D01*
X158125Y-69320D01*
X158062Y-69195D01*
X157937Y-69070D01*
X157812Y-69008D01*
X157562D01*
X159385D02*
Y-70320D01*
X158947Y-69008D02*
X159822D01*
X160895D02*
Y-70320D01*
X160457Y-69008D02*
X161332D01*
X162467D02*
X162342Y-69070D01*
X162217Y-69195D01*
X162155Y-69320D01*
X162092Y-69508D01*
Y-69820D01*
X162155Y-70008D01*
X162217Y-70133D01*
X162342Y-70258D01*
X162467Y-70320D01*
X162717D01*
X162842Y-70258D01*
X162967Y-70133D01*
X163030Y-70008D01*
X163092Y-69820D01*
Y-69508D01*
X163030Y-69320D01*
X162967Y-69195D01*
X162842Y-69070D01*
X162717Y-69008D01*
X162467D01*
X164040D02*
Y-70320D01*
Y-69008D02*
X164540Y-70320D01*
X165040Y-69008D02*
X164540Y-70320D01*
X165040Y-69008D02*
Y-70320D01*
M02*
