*
*
G04 PADS 9.5 Build Number: 522968 generated Gerber (RS-274-X) file*
G04 PC Version=2.1*
*
%IN "BMON.pcb"*%
*
%MOIN*%
*
%FSLAX35Y35*%
*
*
*
*
G04 PC Standard Apertures*
*
*
G04 Thermal Relief Aperture macro.*
%AMTER*
1,1,$1,0,0*
1,0,$1-$2,0,0*
21,0,$3,$4,0,0,45*
21,0,$3,$4,0,0,135*
%
*
*
G04 Annular Aperture macro.*
%AMANN*
1,1,$1,0,0*
1,0,$2,0,0*
%
*
*
G04 Odd Aperture macro.*
%AMODD*
1,1,$1,0,0*
1,0,$1-0.005,0,0*
%
*
*
G04 PC Custom Aperture Macros*
*
*
*
*
*
*
G04 PC Aperture Table*
*
%ADD011C,0.01*%
%ADD015C,0.00591*%
%ADD016C,0.008*%
%ADD033C,0.001*%
%ADD057C,0.01181*%
*
*
*
*
G04 PC Circuitry*
G04 Layer Name BMON.pcb - circuitry*
%LPD*%
*
*
G04 PC Custom Flashes*
G04 Layer Name BMON.pcb - flashes*
%LPD*%
*
*
G04 PC Circuitry*
G04 Layer Name BMON.pcb - circuitry*
%LPD*%
*
G54D11*
G01X2006156Y1659025D02*
X2005701Y1659650D01*
X2005019Y1659963*
X2005019D02*
X2004110D01*
X2004110D02*
X2003429Y1659650D01*
X2002974Y1659025*
Y1658400*
X2003201Y1657775*
X2003429Y1657463*
X2003429D02*
X2003883Y1657150D01*
X2005247Y1656525*
X2005701Y1656213*
X2005701D02*
X2005929Y1655900D01*
X2006156Y1655275*
Y1654338*
X2006156D02*
X2005701Y1653713D01*
X2005701D02*
X2005019Y1653400D01*
X2004110*
X2003429Y1653713*
X2003429D02*
X2002974Y1654338D01*
X2008201Y1659963D02*
Y1653400D01*
X2010247Y1659963D02*
Y1653400D01*
X2012974*
X2015019Y1659963D02*
Y1653400D01*
X2018201Y1659963D02*
X2015019Y1655588D01*
X2016156Y1657150D02*
X2018201Y1653400D01*
X2023429Y1659025D02*
X2022974Y1659650D01*
X2022292Y1659963*
X2022292D02*
X2021383D01*
X2021383D02*
X2020701Y1659650D01*
X2020247Y1659025*
Y1658400*
X2020474Y1657775*
X2020701Y1657463*
X2020701D02*
X2021156Y1657150D01*
X2022519Y1656525*
X2022974Y1656213*
X2022974D02*
X2023201Y1655900D01*
X2023429Y1655275*
Y1654338*
X2023429D02*
X2022974Y1653713D01*
X2022974D02*
X2022292Y1653400D01*
X2021383*
X2020701Y1653713*
X2020701D02*
X2020247Y1654338D01*
X2028883Y1658400D02*
X2028656Y1659025D01*
X2028201Y1659650*
X2027747Y1659963*
X2027747D02*
X2026838D01*
X2026838D02*
X2026383Y1659650D01*
X2025929Y1659025*
X2025701Y1658400*
X2025474Y1657463*
X2025474D02*
Y1655900D01*
X2025701Y1654963*
X2025701D02*
X2025929Y1654338D01*
X2025929D02*
X2026383Y1653713D01*
X2026383D02*
X2026838Y1653400D01*
X2027747*
X2028201Y1653713*
X2028201D02*
X2028656Y1654338D01*
X2028656D02*
X2028883Y1654963D01*
X2030929Y1659963D02*
Y1653400D01*
Y1659963D02*
X2032974D01*
X2032974D02*
X2033656Y1659650D01*
X2033883Y1659338*
X2033883D02*
X2034110Y1658713D01*
X2034110D02*
Y1658088D01*
X2034110D02*
X2033883Y1657463D01*
X2033883D02*
X2033656Y1657150D01*
X2032974Y1656838*
X2032974D02*
X2030929D01*
X2032519D02*
X2034110Y1653400D01*
X2036156Y1659963D02*
Y1653400D01*
Y1659963D02*
X2039110D01*
X2036156Y1656838D02*
X2037974D01*
X2036156Y1653400D02*
X2039110D01*
X2041156Y1659963D02*
Y1653400D01*
Y1659963D02*
X2044110D01*
X2041156Y1656838D02*
X2042974D01*
X2041156Y1653400D02*
X2044110D01*
X2046156Y1659963D02*
Y1653400D01*
Y1659963D02*
X2049338Y1653400D01*
Y1659963D02*
Y1653400D01*
X2056610Y1659963D02*
Y1653400D01*
Y1659963D02*
X2058656D01*
X2058656D02*
X2059338Y1659650D01*
X2059565Y1659338*
X2059565D02*
X2059792Y1658713D01*
X2059792D02*
Y1658088D01*
X2059792D02*
X2059565Y1657463D01*
X2059565D02*
X2059338Y1657150D01*
X2058656Y1656838*
X2056610D02*
X2058656D01*
X2058656D02*
X2059338Y1656525D01*
X2059565Y1656213*
X2059565D02*
X2059792Y1655588D01*
X2059792D02*
Y1654650D01*
X2059565Y1654025*
X2059338Y1653713*
X2059338D02*
X2058656Y1653400D01*
X2056610*
X2063201Y1659963D02*
X2062747Y1659650D01*
X2062292Y1659025*
X2062065Y1658400*
X2061838Y1657463*
X2061838D02*
Y1655900D01*
X2062065Y1654963*
X2062065D02*
X2062292Y1654338D01*
X2062292D02*
X2062747Y1653713D01*
X2062747D02*
X2063201Y1653400D01*
X2064110*
X2064565Y1653713*
X2064565D02*
X2065019Y1654338D01*
X2065019D02*
X2065247Y1654963D01*
X2065247D02*
X2065474Y1655900D01*
Y1657463*
X2065474D02*
X2065247Y1658400D01*
X2065019Y1659025*
X2064565Y1659650*
X2064110Y1659963*
X2064110D02*
X2063201D01*
X2069110D02*
Y1653400D01*
X2067519Y1659963D02*
X2070701D01*
X2074338D02*
Y1653400D01*
X2072747Y1659963D02*
X2075929D01*
X2079338D02*
X2078883Y1659650D01*
X2078429Y1659025*
X2078201Y1658400*
X2077974Y1657463*
X2077974D02*
Y1655900D01*
X2078201Y1654963*
X2078201D02*
X2078429Y1654338D01*
X2078429D02*
X2078883Y1653713D01*
X2078883D02*
X2079338Y1653400D01*
X2080247*
X2080701Y1653713*
X2080701D02*
X2081156Y1654338D01*
X2081156D02*
X2081383Y1654963D01*
X2081383D02*
X2081610Y1655900D01*
Y1657463*
X2081610D02*
X2081383Y1658400D01*
X2081156Y1659025*
X2080701Y1659650*
X2080247Y1659963*
X2080247D02*
X2079338D01*
X2083656D02*
Y1653400D01*
Y1659963D02*
X2085474Y1653400D01*
X2087292Y1659963D02*
X2085474Y1653400D01*
X2087292Y1659963D02*
Y1653400D01*
X1937242Y1730419D02*
X1655746D01*
X1651809Y1726482*
Y1683175*
X1655746Y1679238*
X1937242*
X1941179Y1683175*
Y1726482*
X1937242Y1730419*
X1866494Y1821238D02*
X2124494D01*
X1866494Y1797238D02*
X2124494D01*
X1866494Y1773238D02*
X2124494D01*
X1866494Y1749238D02*
X2124494D01*
X1866494Y1821238D02*
Y1749238D01*
X1950494Y1821238D02*
Y1749238D01*
X1986494Y1821238D02*
Y1749238D01*
X2022494Y1821238D02*
Y1749238D01*
X2076494Y1821238D02*
Y1749238D01*
X2124494Y1821238D02*
Y1749238D01*
G54D15*
X1654258Y1717230D02*
X1653987Y1717427D01*
X1653852Y1717722*
Y1718116*
X1653987Y1718411*
X1654258Y1718608*
X1654528*
X1654799Y1718509*
X1654934Y1718411*
X1655070Y1718214*
X1655340Y1717624*
X1655476Y1717427*
X1655611Y1717328*
X1655882Y1717230*
X1656288*
X1656558Y1717427*
X1656694Y1717722*
Y1718116*
X1656558Y1718411*
X1656288Y1718608*
X1653852Y1716344D02*
X1656694D01*
X1653852D02*
Y1715655D01*
X1653987Y1715360*
X1654258Y1715163*
X1654528Y1715065*
X1654934Y1714966*
X1655611*
X1656017Y1715065*
X1656288Y1715163*
X1656558Y1715360*
X1656694Y1715655*
Y1716344*
X1653852Y1713293D02*
X1656694Y1714080D01*
X1653852Y1713293D02*
X1656694Y1712506D01*
X1655746Y1713785D02*
Y1712801D01*
X1671958Y1717230D02*
X1671687Y1717427D01*
X1671552Y1717722*
Y1718116*
X1671687Y1718411*
X1671958Y1718608*
X1672228*
X1672499Y1718509*
X1672634Y1718411*
X1672770Y1718214*
X1673040Y1717624*
X1673176Y1717427*
X1673311Y1717328*
X1673582Y1717230*
X1673988*
X1674258Y1717427*
X1674394Y1717722*
Y1718116*
X1674258Y1718411*
X1673988Y1718608*
X1672228Y1714868D02*
X1671958Y1714966D01*
X1671687Y1715163*
X1671552Y1715360*
Y1715754*
X1671687Y1715950*
X1671958Y1716147*
X1672228Y1716246*
X1672634Y1716344*
X1673311*
X1673717Y1716246*
X1673988Y1716147*
X1674258Y1715950*
X1674394Y1715754*
Y1715360*
X1674258Y1715163*
X1673988Y1714966*
X1673717Y1714868*
X1671552Y1713982D02*
X1674394D01*
Y1712801*
X1689352Y1718411D02*
Y1717328D01*
X1690434Y1717919*
Y1717624*
X1690570Y1717427*
X1690705Y1717328*
X1691111Y1717230*
X1691382*
X1691788Y1717328*
X1692058Y1717525*
X1692194Y1717820*
Y1718116*
X1692058Y1718411*
X1691923Y1718509*
X1691652Y1718608*
X1691923Y1716246D02*
X1692058Y1716344D01*
X1692194Y1716246*
X1692058Y1716147*
X1691923Y1716246*
X1689352Y1715065D02*
Y1713982D01*
X1690434Y1714572*
Y1714277*
X1690570Y1714080*
X1690705Y1713982*
X1691111Y1713883*
X1691382*
X1691788Y1713982*
X1692058Y1714179*
X1692194Y1714474*
Y1714769*
X1692058Y1715065*
X1691923Y1715163*
X1691652Y1715261*
X1689352Y1712998D02*
X1692194Y1712210D01*
X1689352Y1711423D02*
X1692194Y1712210D01*
X1919828Y1722161D02*
X1919558Y1722260D01*
X1919287Y1722457*
X1919152Y1722654*
Y1723047*
X1919287Y1723244*
X1919558Y1723441*
X1919828Y1723539*
X1920234Y1723638*
X1920911*
X1921317Y1723539*
X1921588Y1723441*
X1921858Y1723244*
X1921994Y1723047*
Y1722654*
X1921858Y1722457*
X1921588Y1722260*
X1921317Y1722161*
X1919152Y1721276D02*
X1921994D01*
X1919152Y1719898D02*
X1921994D01*
X1920505Y1721276D02*
Y1719898D01*
X1919152Y1718224D02*
X1921994Y1719012D01*
X1919152Y1718224D02*
X1921994Y1717437D01*
X1921046Y1718717D02*
Y1717732D01*
X1919152Y1716551D02*
X1921994D01*
X1919152D02*
Y1715665D01*
X1919287Y1715370*
X1919422Y1715272*
X1919693Y1715173*
X1919964*
X1920234Y1715272*
X1920370Y1715370*
X1920505Y1715665*
Y1716551*
Y1715862D02*
X1921994Y1715173D01*
X1919828Y1712811D02*
X1919558Y1712909D01*
X1919287Y1713106*
X1919152Y1713303*
Y1713697*
X1919287Y1713894*
X1919558Y1714091*
X1919828Y1714189*
X1920234Y1714287*
X1920911*
X1921317Y1714189*
X1921588Y1714091*
X1921858Y1713894*
X1921994Y1713697*
Y1713303*
X1921858Y1713106*
X1921588Y1712909*
X1921317Y1712811*
X1920911*
Y1713303D02*
Y1712811D01*
X1919152Y1711925D02*
X1921994D01*
X1919152D02*
Y1710646D01*
X1920505Y1711925D02*
Y1711138D01*
X1921994Y1711925D02*
Y1710646D01*
X1858394Y1707180D02*
X1857606Y1704338D01*
X1856819Y1707180D02*
X1857606Y1704338D01*
X1855933Y1707180D02*
Y1704338D01*
Y1707180D02*
X1855047D01*
X1854752Y1707044*
X1854654Y1706909*
X1854555Y1706638*
Y1706368*
X1854654Y1706097*
X1854752Y1705962*
X1855047Y1705826*
X1855933D02*
X1855047D01*
X1854752Y1705691*
X1854654Y1705556*
X1854555Y1705285*
Y1704879*
X1854654Y1704608*
X1854752Y1704473*
X1855047Y1704338*
X1855933*
X1852882Y1707180D02*
X1853669Y1704338D01*
X1852882Y1707180D02*
X1852094Y1704338D01*
X1853374Y1705285D02*
X1852390D01*
X1850520Y1707180D02*
Y1704338D01*
X1851209Y1707180D02*
X1849831D01*
X1848256D02*
Y1704338D01*
X1848945Y1707180D02*
X1847567D01*
X1760328Y1718861D02*
X1760058Y1718960D01*
X1759787Y1719157*
X1759652Y1719354*
Y1719747*
X1759787Y1719944*
X1760058Y1720141*
X1760328Y1720239*
X1760734Y1720338*
X1761411*
X1761817Y1720239*
X1762088Y1720141*
X1762358Y1719944*
X1762494Y1719747*
Y1719354*
X1762358Y1719157*
X1762088Y1718960*
X1761817Y1718861*
X1761411*
Y1719354D02*
Y1718861D01*
X1759652Y1717976D02*
X1762494D01*
X1759652D02*
X1762494Y1716598D01*
X1759652D02*
X1762494D01*
X1759652Y1715712D02*
X1762494D01*
X1759652D02*
Y1715023D01*
X1759787Y1714728*
X1760058Y1714531*
X1760328Y1714432*
X1760734Y1714334*
X1761411*
X1761817Y1714432*
X1762088Y1714531*
X1762358Y1714728*
X1762494Y1715023*
Y1715712*
X1810202Y1703559D02*
X1810448Y1703738D01*
X1810694Y1703559*
X1810448Y1703380*
X1810202Y1703559*
G54D16*
X1876218Y1712639D02*
X1880218Y1716639D01*
X1876218Y1720639*
X1872218Y1716639*
X1876218Y1712639*
Y1716639D02*
Y1720639D01*
X1716769Y1712639D02*
X1720769Y1716639D01*
X1716769Y1720639*
X1712769Y1716639*
X1716769Y1712639*
Y1716639D02*
Y1720639D01*
X1921297Y1689017D02*
X1925297Y1693017D01*
X1921297Y1697017*
X1917297Y1693017*
X1921297Y1689017*
Y1693017D02*
Y1697017D01*
X1671691Y1689017D02*
X1675691Y1693017D01*
X1671691Y1697017*
X1667691Y1693017*
X1671691Y1689017*
Y1693017D02*
Y1697017D01*
X1751549Y1678387D02*
X1759549D01*
Y1686387*
X1751549*
Y1678387*
X1755549Y1682387D02*
Y1686387D01*
X1819265Y1678387D02*
X1827265D01*
Y1686387*
X1819265*
Y1678387*
X1823265Y1682387D02*
Y1686387D01*
X1865235Y1679650D02*
X1873235D01*
Y1687650*
X1865235*
Y1679650*
X1869235Y1683650D02*
Y1687650D01*
X1857361Y1679650D02*
X1865361D01*
Y1687650*
X1857361*
Y1679650*
X1861361Y1683650D02*
Y1687650D01*
X1861298Y1679650D02*
X1869298D01*
Y1687650*
X1861298*
Y1679650*
X1865298Y1683650D02*
Y1687650D01*
X1869172Y1679650D02*
X1877172D01*
Y1687650*
X1869172*
Y1679650*
X1873172Y1683650D02*
Y1687650D01*
X1683832Y1685474D02*
X1691832D01*
Y1693474*
X1683832*
Y1685474*
X1687832Y1689474D02*
Y1693474D01*
X1683832Y1695710D02*
X1691832D01*
Y1703710*
X1683832*
Y1695710*
X1687832Y1699710D02*
Y1703710D01*
X1681470Y1692561D02*
X1689470D01*
Y1700561*
X1681470*
Y1692561*
X1685470Y1696561D02*
Y1700561D01*
X1695643Y1689411D02*
X1703643D01*
Y1697411*
X1695643*
Y1689411*
X1699643Y1693411D02*
Y1697411D01*
X1693281Y1685474D02*
X1701281D01*
Y1693474*
X1693281*
Y1685474*
X1697281Y1689474D02*
Y1693474D01*
X1701155Y1689411D02*
X1709155D01*
Y1697411*
X1701155*
Y1689411*
X1705155Y1693411D02*
Y1697411D01*
X1721628Y1701222D02*
X1729628D01*
Y1709222*
X1721628*
Y1701222*
X1725628Y1705222D02*
Y1709222D01*
X1720053Y1692561D02*
X1728053D01*
Y1700561*
X1720053*
Y1692561*
X1724053Y1696561D02*
Y1700561D01*
X1720053Y1684687D02*
X1728053D01*
Y1692687*
X1720053*
Y1684687*
X1724053Y1688687D02*
Y1692687D01*
X1727139Y1685474D02*
X1735139D01*
Y1693474*
X1727139*
Y1685474*
X1731139Y1689474D02*
Y1693474D01*
X1731864Y1694923D02*
X1739864D01*
Y1702923*
X1731864*
Y1694923*
X1735864Y1698923D02*
Y1702923D01*
X1736588Y1698072D02*
X1744588D01*
Y1706072*
X1736588*
Y1698072*
X1740588Y1702072D02*
Y1706072D01*
X1765722Y1700435D02*
X1773722D01*
Y1708435*
X1765722*
Y1700435*
X1769722Y1704435D02*
Y1708435D01*
X1759423Y1697285D02*
X1767423D01*
Y1705285*
X1759423*
Y1697285*
X1763423Y1701285D02*
Y1705285D01*
X1764147Y1694923D02*
X1772147D01*
Y1702923*
X1764147*
Y1694923*
X1768147Y1698923D02*
Y1702923D01*
X1753124Y1689411D02*
X1761124D01*
Y1697411*
X1753124*
Y1689411*
X1757124Y1693411D02*
Y1697411D01*
X1774383Y1687836D02*
X1782383D01*
Y1695836*
X1774383*
Y1687836*
X1778383Y1691836D02*
Y1695836D01*
X1771234Y1698072D02*
X1779234D01*
Y1706072*
X1771234*
Y1698072*
X1775234Y1702072D02*
Y1706072D01*
X1774383Y1681537D02*
X1782383D01*
Y1689537*
X1774383*
Y1681537*
X1778383Y1685537D02*
Y1689537D01*
X1777533Y1697285D02*
X1785533D01*
Y1705285*
X1777533*
Y1697285*
X1781533Y1701285D02*
Y1705285D01*
X1783045Y1698072D02*
X1791045D01*
Y1706072*
X1783045*
Y1698072*
X1787045Y1702072D02*
Y1706072D01*
X1788557Y1690198D02*
X1796557D01*
Y1698198*
X1788557*
Y1690198*
X1792557Y1694198D02*
Y1698198D01*
X1793281Y1696498D02*
X1801281D01*
Y1704498*
X1793281*
Y1696498*
X1797281Y1700498D02*
Y1704498D01*
X1805880Y1688624D02*
X1813880D01*
Y1696624*
X1805880*
Y1688624*
X1809880Y1692624D02*
Y1696624D01*
X1824777Y1683112D02*
X1832777D01*
Y1691112*
X1824777*
Y1683112*
X1828777Y1687112D02*
Y1691112D01*
X1820840Y1700435D02*
X1828840D01*
Y1708435*
X1820840*
Y1700435*
X1824840Y1704435D02*
Y1708435D01*
X1823990Y1700435D02*
X1831990D01*
Y1708435*
X1823990*
Y1700435*
X1827990Y1704435D02*
Y1708435D01*
X1823990Y1697285D02*
X1831990D01*
Y1705285*
X1823990*
Y1697285*
X1827990Y1701285D02*
Y1705285D01*
X1823990Y1694135D02*
X1831990D01*
Y1702135*
X1823990*
Y1694135*
X1827990Y1698135D02*
Y1702135D01*
X1818478Y1687049D02*
X1826478D01*
Y1695049*
X1818478*
Y1687049*
X1822478Y1691049D02*
Y1695049D01*
X1809817Y1689411D02*
X1817817D01*
Y1697411*
X1809817*
Y1689411*
X1813817Y1693411D02*
Y1697411D01*
X1827139Y1700435D02*
X1835139D01*
Y1708435*
X1827139*
Y1700435*
X1831139Y1704435D02*
Y1708435D01*
X1830289Y1700435D02*
X1838289D01*
Y1708435*
X1830289*
Y1700435*
X1834289Y1704435D02*
Y1708435D01*
X1830289Y1697285D02*
X1838289D01*
Y1705285*
X1830289*
Y1697285*
X1834289Y1701285D02*
Y1705285D01*
X1827139Y1697285D02*
X1835139D01*
Y1705285*
X1827139*
Y1697285*
X1831139Y1701285D02*
Y1705285D01*
X1827139Y1694135D02*
X1835139D01*
Y1702135*
X1827139*
Y1694135*
X1831139Y1698135D02*
Y1702135D01*
X1830289Y1694135D02*
X1838289D01*
Y1702135*
X1830289*
Y1694135*
X1834289Y1698135D02*
Y1702135D01*
X1830294Y1690938D02*
X1838294D01*
Y1698938*
X1830294*
Y1690938*
X1834294Y1694938D02*
Y1698938D01*
X1862572Y1701222D02*
X1870572D01*
Y1709222*
X1862572*
Y1701222*
X1866572Y1705222D02*
Y1709222D01*
X1865235Y1683587D02*
X1873235D01*
Y1691587*
X1865235*
Y1683587*
X1869235Y1687587D02*
Y1691587D01*
X1857361Y1683587D02*
X1865361D01*
Y1691587*
X1857361*
Y1683587*
X1861361Y1687587D02*
Y1691587D01*
X1861298Y1683587D02*
X1869298D01*
Y1691587*
X1861298*
Y1683587*
X1865298Y1687587D02*
Y1691587D01*
X1865235Y1687524D02*
X1873235D01*
Y1695524*
X1865235*
Y1687524*
X1869235Y1691524D02*
Y1695524D01*
X1857361Y1687524D02*
X1865361D01*
Y1695524*
X1857361*
Y1687524*
X1861361Y1691524D02*
Y1695524D01*
X1857361Y1695398D02*
X1865361D01*
Y1703398*
X1857361*
Y1695398*
X1861361Y1699398D02*
Y1703398D01*
X1861298Y1691461D02*
X1869298D01*
Y1699461*
X1861298*
Y1691461*
X1865298Y1695461D02*
Y1699461D01*
X1857361Y1691461D02*
X1865361D01*
Y1699461*
X1857361*
Y1691461*
X1861361Y1695461D02*
Y1699461D01*
X1865235Y1695398D02*
X1873235D01*
Y1703398*
X1865235*
Y1695398*
X1869235Y1699398D02*
Y1703398D01*
X1861298Y1695398D02*
X1869298D01*
Y1703398*
X1861298*
Y1695398*
X1865298Y1699398D02*
Y1703398D01*
X1865235Y1691461D02*
X1873235D01*
Y1699461*
X1865235*
Y1691461*
X1869235Y1695461D02*
Y1699461D01*
X1861298Y1687524D02*
X1869298D01*
Y1695524*
X1861298*
Y1687524*
X1865298Y1691524D02*
Y1695524D01*
X1869172Y1683587D02*
X1877172D01*
Y1691587*
X1869172*
Y1683587*
X1873172Y1687587D02*
Y1691587D01*
X1869172Y1687524D02*
X1877172D01*
Y1695524*
X1869172*
Y1687524*
X1873172Y1691524D02*
Y1695524D01*
X1869172Y1695398D02*
X1877172D01*
Y1703398*
X1869172*
Y1695398*
X1873172Y1699398D02*
Y1703398D01*
X1869172Y1691461D02*
X1877172D01*
Y1699461*
X1869172*
Y1691461*
X1873172Y1695461D02*
Y1699461D01*
X1659694Y1702738D02*
X1667694D01*
Y1710738*
X1659694*
Y1702738*
X1663694Y1706738D02*
Y1710738D01*
X1677494Y1702938D02*
X1685494D01*
Y1710938*
X1677494*
Y1702938*
X1681494Y1706938D02*
Y1710938D01*
X1702730Y1703584D02*
X1710730D01*
Y1711584*
X1702730*
Y1703584*
X1706730Y1707584D02*
Y1711584D01*
X1738950Y1706734D02*
X1746950D01*
Y1714734*
X1738950*
Y1706734*
X1742950Y1710734D02*
Y1714734D01*
X1738950Y1720120D02*
X1746950D01*
Y1728120*
X1738950*
Y1720120*
X1742950Y1724120D02*
Y1728120D01*
X1744462Y1706734D02*
X1752462D01*
Y1714734*
X1744462*
Y1706734*
X1748462Y1710734D02*
Y1714734D01*
X1730289Y1706734D02*
X1738289D01*
Y1714734*
X1730289*
Y1706734*
X1734289Y1710734D02*
Y1714734D01*
X1726352Y1706734D02*
X1734352D01*
Y1714734*
X1726352*
Y1706734*
X1730352Y1710734D02*
Y1714734D01*
X1734226Y1706734D02*
X1742226D01*
Y1714734*
X1734226*
Y1706734*
X1738226Y1710734D02*
Y1714734D01*
X1730289Y1720120D02*
X1738289D01*
Y1728120*
X1730289*
Y1720120*
X1734289Y1724120D02*
Y1728120D01*
X1726352Y1720120D02*
X1734352D01*
Y1728120*
X1726352*
Y1720120*
X1730352Y1724120D02*
Y1728120D01*
X1734226Y1720120D02*
X1742226D01*
Y1728120*
X1734226*
Y1720120*
X1738226Y1724120D02*
Y1728120D01*
X1744462Y1720120D02*
X1752462D01*
Y1728120*
X1744462*
Y1720120*
X1748462Y1724120D02*
Y1728120D01*
X1757061Y1706734D02*
X1765061D01*
Y1714734*
X1757061*
Y1706734*
X1761061Y1710734D02*
Y1714734D01*
X1757061Y1720120D02*
X1765061D01*
Y1728120*
X1757061*
Y1720120*
X1761061Y1724120D02*
Y1728120D01*
X1748399Y1706734D02*
X1756399D01*
Y1714734*
X1748399*
Y1706734*
X1752399Y1710734D02*
Y1714734D01*
X1752336Y1706734D02*
X1760336D01*
Y1714734*
X1752336*
Y1706734*
X1756336Y1710734D02*
Y1714734D01*
X1748399Y1720120D02*
X1756399D01*
Y1728120*
X1748399*
Y1720120*
X1752399Y1724120D02*
Y1728120D01*
X1752336Y1720120D02*
X1760336D01*
Y1728120*
X1752336*
Y1720120*
X1756336Y1724120D02*
Y1728120D01*
X1761785Y1720120D02*
X1769785D01*
Y1728120*
X1761785*
Y1720120*
X1765785Y1724120D02*
Y1728120D01*
X1765722Y1720120D02*
X1773722D01*
Y1728120*
X1765722*
Y1720120*
X1769722Y1724120D02*
Y1728120D01*
X1761785Y1706734D02*
X1769785D01*
Y1714734*
X1761785*
Y1706734*
X1765785Y1710734D02*
Y1714734D01*
X1765722Y1706734D02*
X1773722D01*
Y1714734*
X1765722*
Y1706734*
X1769722Y1710734D02*
Y1714734D01*
X1774383Y1706734D02*
X1782383D01*
Y1714734*
X1774383*
Y1706734*
X1778383Y1710734D02*
Y1714734D01*
X1774383Y1720120D02*
X1782383D01*
Y1728120*
X1774383*
Y1720120*
X1778383Y1724120D02*
Y1728120D01*
X1769659Y1720120D02*
X1777659D01*
Y1728120*
X1769659*
Y1720120*
X1773659Y1724120D02*
Y1728120D01*
X1779895Y1720120D02*
X1787895D01*
Y1728120*
X1779895*
Y1720120*
X1783895Y1724120D02*
Y1728120D01*
X1783832Y1720120D02*
X1791832D01*
Y1728120*
X1783832*
Y1720120*
X1787832Y1724120D02*
Y1728120D01*
X1779895Y1706734D02*
X1787895D01*
Y1714734*
X1779895*
Y1706734*
X1783895Y1710734D02*
Y1714734D01*
X1783832Y1706734D02*
X1791832D01*
Y1714734*
X1783832*
Y1706734*
X1787832Y1710734D02*
Y1714734D01*
X1769659Y1706734D02*
X1777659D01*
Y1714734*
X1769659*
Y1706734*
X1773659Y1710734D02*
Y1714734D01*
X1801943Y1720120D02*
X1809943D01*
Y1728120*
X1801943*
Y1720120*
X1805943Y1724120D02*
Y1728120D01*
X1795643Y1702009D02*
X1803643D01*
Y1710009*
X1795643*
Y1702009*
X1799643Y1706009D02*
Y1710009D01*
X1787769Y1720120D02*
X1795769D01*
Y1728120*
X1787769*
Y1720120*
X1791769Y1724120D02*
Y1728120D01*
X1787769Y1706734D02*
X1795769D01*
Y1714734*
X1787769*
Y1706734*
X1791769Y1710734D02*
Y1714734D01*
X1903717Y1707221D02*
X1911717D01*
Y1715221*
X1903717*
Y1707221*
X1907717Y1711221D02*
Y1715221D01*
X1903717Y1719820D02*
X1911717D01*
Y1727820*
X1903717*
Y1719820*
X1907717Y1723820D02*
Y1727820D01*
X1903717Y1716670D02*
X1911717D01*
Y1724670*
X1903717*
Y1716670*
X1907717Y1720670D02*
Y1724670D01*
X1903717Y1713520D02*
X1911717D01*
Y1721520*
X1903717*
Y1713520*
X1907717Y1717520D02*
Y1721520D01*
X1903717Y1710371D02*
X1911717D01*
Y1718371*
X1903717*
Y1710371*
X1907717Y1714371D02*
Y1718371D01*
X1907654Y1707221D02*
X1915654D01*
Y1715221*
X1907654*
Y1707221*
X1911654Y1711221D02*
Y1715221D01*
X1911591Y1710371D02*
X1919591D01*
Y1718371*
X1911591*
Y1710371*
X1915591Y1714371D02*
Y1718371D01*
X1907654Y1710371D02*
X1915654D01*
Y1718371*
X1907654*
Y1710371*
X1911654Y1714371D02*
Y1718371D01*
X1911591Y1719820D02*
X1919591D01*
Y1727820*
X1911591*
Y1719820*
X1915591Y1723820D02*
Y1727820D01*
X1907654Y1719820D02*
X1915654D01*
Y1727820*
X1907654*
Y1719820*
X1911654Y1723820D02*
Y1727820D01*
X1911591Y1716670D02*
X1919591D01*
Y1724670*
X1911591*
Y1716670*
X1915591Y1720670D02*
Y1724670D01*
X1907654Y1716670D02*
X1915654D01*
Y1724670*
X1907654*
Y1716670*
X1911654Y1720670D02*
Y1724670D01*
X1907654Y1713520D02*
X1915654D01*
Y1721520*
X1907654*
Y1713520*
X1911654Y1717520D02*
Y1721520D01*
X1911591Y1713520D02*
X1919591D01*
Y1721520*
X1911591*
Y1713520*
X1915591Y1717520D02*
Y1721520D01*
X1911591Y1707221D02*
X1919591D01*
Y1715221*
X1911591*
Y1707221*
X1915591Y1711221D02*
Y1715221D01*
X1925365Y1716670D02*
X1933365D01*
Y1724670*
X1925365*
Y1716670*
X1929365Y1720670D02*
Y1724670D01*
X1925365Y1713520D02*
X1933365D01*
Y1721520*
X1925365*
Y1713520*
X1929365Y1717520D02*
Y1721520D01*
X1925365Y1719820D02*
X1933365D01*
Y1727820*
X1925365*
Y1719820*
X1929365Y1723820D02*
Y1727820D01*
X1925365Y1710371D02*
X1933365D01*
Y1718371*
X1925365*
Y1710371*
X1929365Y1714371D02*
Y1718371D01*
X1921428Y1719820D02*
X1929428D01*
Y1727820*
X1921428*
Y1719820*
X1925428Y1723820D02*
Y1727820D01*
X1925365Y1707221D02*
X1933365D01*
Y1715221*
X1925365*
Y1707221*
X1929365Y1711221D02*
Y1715221D01*
X1921428Y1716670D02*
X1929428D01*
Y1724670*
X1921428*
Y1716670*
X1925428Y1720670D02*
Y1724670D01*
X1921428Y1713520D02*
X1929428D01*
Y1721520*
X1921428*
Y1713520*
X1925428Y1717520D02*
Y1721520D01*
X1921428Y1710371D02*
X1929428D01*
Y1718371*
X1921428*
Y1710371*
X1925428Y1714371D02*
Y1718371D01*
X1921428Y1707221D02*
X1929428D01*
Y1715221*
X1921428*
Y1707221*
X1925428Y1711221D02*
Y1715221D01*
X1929302Y1719820D02*
X1937302D01*
Y1727820*
X1929302*
Y1719820*
X1933302Y1723820D02*
Y1727820D01*
X1929302Y1716670D02*
X1937302D01*
Y1724670*
X1929302*
Y1716670*
X1933302Y1720670D02*
Y1724670D01*
X1929302Y1713520D02*
X1937302D01*
Y1721520*
X1929302*
Y1713520*
X1933302Y1717520D02*
Y1721520D01*
X1929302Y1710371D02*
X1937302D01*
Y1718371*
X1929302*
Y1710371*
X1933302Y1714371D02*
Y1718371D01*
X1929302Y1707221D02*
X1937302D01*
Y1715221*
X1929302*
Y1707221*
X1933302Y1711221D02*
Y1715221D01*
X1902094Y1809988D02*
X1901548Y1810738D01*
X1900730Y1811113*
X1899639*
X1898821Y1810738*
X1898276Y1809988*
Y1809238*
X1898548Y1808488*
X1898821Y1808113*
X1899366Y1807738*
X1901003Y1806988*
X1901548Y1806613*
X1901821Y1806238*
X1902094Y1805488*
Y1804363*
X1901548Y1803613*
X1900730Y1803238*
X1899639*
X1898821Y1803613*
X1898276Y1804363*
X1904548Y1811113D02*
Y1803238D01*
X1910821Y1811113D02*
X1907003Y1803238D01*
Y1811113D02*
X1910821D01*
X1907003Y1803238D02*
X1910821D01*
X1913276Y1811113D02*
Y1803238D01*
Y1811113D02*
X1916821D01*
X1913276Y1807363D02*
X1915457D01*
X1913276Y1803238D02*
X1916821D01*
X1960457Y1811113D02*
X1959912Y1810738D01*
X1959366Y1809988*
X1959094Y1809238*
X1958821Y1808113*
Y1806238*
X1959094Y1805113*
X1959366Y1804363*
X1959912Y1803613*
X1960457Y1803238*
X1961548*
X1962094Y1803613*
X1962639Y1804363*
X1962912Y1805113*
X1963185Y1806238*
Y1808113*
X1962912Y1809238*
X1962639Y1809988*
X1962094Y1810738*
X1961548Y1811113*
X1960457*
X1961276Y1804738D02*
X1962912Y1802488D01*
X1967548Y1811113D02*
Y1803238D01*
X1965639Y1811113D02*
X1969457D01*
X1971912D02*
X1974094Y1807363D01*
Y1803238*
X1976276Y1811113D02*
X1974094Y1807363D01*
X1998639Y1809988D02*
X1998094Y1810738D01*
X1997276Y1811113*
X1996185*
X1995366Y1810738*
X1994821Y1809988*
Y1809238*
X1995094Y1808488*
X1995366Y1808113*
X1995912Y1807738*
X1997548Y1806988*
X1998094Y1806613*
X1998366Y1806238*
X1998639Y1805488*
Y1804363*
X1998094Y1803613*
X1997276Y1803238*
X1996185*
X1995366Y1803613*
X1994821Y1804363*
X2001094Y1811113D02*
X2003276Y1807363D01*
Y1803238*
X2005457Y1811113D02*
X2003276Y1807363D01*
X2007912Y1811113D02*
Y1803238D01*
Y1811113D02*
X2010094Y1803238D01*
X2012276Y1811113D02*
X2010094Y1803238D01*
X2012276Y1811113D02*
Y1803238D01*
X2034094Y1811113D02*
Y1803238D01*
Y1811113D02*
X2036548D01*
X2037366Y1810738*
X2037639Y1810363*
X2037912Y1809613*
Y1808488*
X2037639Y1807738*
X2037366Y1807363*
X2036548Y1806988*
X2034094*
X2040366Y1811113D02*
Y1803238D01*
X2043639*
X2048276Y1811113D02*
X2046094Y1803238D01*
X2048276Y1811113D02*
X2050457Y1803238D01*
X2046912Y1805863D02*
X2049639D01*
X2054821Y1811113D02*
Y1803238D01*
X2052912Y1811113D02*
X2056730D01*
X2059185D02*
Y1803238D01*
Y1811113D02*
X2062730D01*
X2059185Y1807363D02*
X2061366D01*
X2059185Y1803238D02*
X2062730D01*
X2065185Y1811113D02*
Y1803238D01*
Y1811113D02*
X2067094D01*
X2067912Y1810738*
X2068457Y1809988*
X2068730Y1809238*
X2069003Y1808113*
Y1806238*
X2068730Y1805113*
X2068457Y1804363*
X2067912Y1803613*
X2067094Y1803238*
X2065185*
X2093276Y1811113D02*
Y1803238D01*
X2091366Y1811113D02*
X2095185D01*
X2099276D02*
X2098730Y1810738D01*
X2098185Y1809988*
X2097912Y1809238*
X2097639Y1808113*
Y1806238*
X2097912Y1805113*
X2098185Y1804363*
X2098730Y1803613*
X2099276Y1803238*
X2100366*
X2100912Y1803613*
X2101457Y1804363*
X2101730Y1805113*
X2102003Y1806238*
Y1808113*
X2101730Y1809238*
X2101457Y1809988*
X2100912Y1810738*
X2100366Y1811113*
X2099276*
X2104457D02*
Y1803238D01*
X2107730*
X1876039Y1784488D02*
X1875766Y1783363D01*
X1875221Y1782613*
X1874403Y1782238*
X1874130*
X1873312Y1782613*
X1872766Y1783363*
X1872494Y1784488*
Y1784863*
X1872766Y1785988*
X1873312Y1786738*
X1874130Y1787113*
X1874403*
X1875221Y1786738*
X1875766Y1785988*
X1876039Y1784488*
Y1782613*
X1875766Y1780738*
X1875221Y1779613*
X1874403Y1779238*
X1873857*
X1873039Y1779613*
X1872766Y1780363*
X1878766Y1779988D02*
X1878494Y1779613D01*
X1878766Y1779238*
X1879039Y1779613*
X1878766Y1779988*
X1882857Y1787113D02*
X1882039Y1786738D01*
X1881766Y1785988*
Y1785238*
X1882039Y1784488*
X1882585Y1784113*
X1883676Y1783738*
X1884494Y1783363*
X1885039Y1782613*
X1885312Y1781863*
Y1780738*
X1885039Y1779988*
X1884766Y1779613*
X1883948Y1779238*
X1882857*
X1882039Y1779613*
X1881766Y1779988*
X1881494Y1780738*
Y1781863*
X1881766Y1782613*
X1882312Y1783363*
X1883130Y1783738*
X1884221Y1784113*
X1884766Y1784488*
X1885039Y1785238*
Y1785988*
X1884766Y1786738*
X1883948Y1787113*
X1882857*
X1890494D02*
X1887766Y1781863D01*
X1891857*
X1890494Y1787113D02*
Y1779238D01*
X1960730Y1785613D02*
X1961276Y1785988D01*
X1962094Y1787113*
Y1779238*
X1964821Y1785238D02*
Y1785613D01*
X1965094Y1786363*
X1965366Y1786738*
X1965912Y1787113*
X1967003*
X1967548Y1786738*
X1967821Y1786363*
X1968094Y1785613*
Y1784863*
X1967821Y1784113*
X1967276Y1782988*
X1964548Y1779238*
X1968366*
X1974094Y1785988D02*
X1973821Y1786738D01*
X1973003Y1787113*
X1972457*
X1971639Y1786738*
X1971094Y1785613*
X1970821Y1783738*
Y1781863*
X1971094Y1780363*
X1971639Y1779613*
X1972457Y1779238*
X1972730*
X1973548Y1779613*
X1974094Y1780363*
X1974366Y1781488*
Y1781863*
X1974094Y1782988*
X1973548Y1783738*
X1972730Y1784113*
X1972457*
X1971639Y1783738*
X1971094Y1782988*
X1970821Y1781863*
X1998494Y1779238D02*
X2010494D01*
Y1791238*
X1998494*
Y1779238*
X2004494Y1785238D02*
Y1791238D01*
X2031230Y1787113D02*
X2033412Y1783363D01*
Y1779238*
X2035594Y1787113D02*
X2033412Y1783363D01*
X2038048Y1787113D02*
Y1779238D01*
Y1787113D02*
X2041594D01*
X2038048Y1783363D02*
X2040230D01*
X2038048Y1779238D02*
X2041594D01*
X2047866Y1785988D02*
X2047321Y1786738D01*
X2046503Y1787113*
X2045412*
X2044594Y1786738*
X2044048Y1785988*
Y1785238*
X2044321Y1784488*
X2044594Y1784113*
X2045139Y1783738*
X2046776Y1782988*
X2047321Y1782613*
X2047594Y1782238*
X2047866Y1781488*
Y1780363*
X2047321Y1779613*
X2046503Y1779238*
X2045412*
X2044594Y1779613*
X2044048Y1780363*
X2084412Y1785988D02*
Y1779238D01*
X2081957Y1782613D02*
X2086866D01*
X2094230Y1788613D02*
X2089321Y1776613D01*
X2096685Y1782613D02*
X2101594D01*
X2105685Y1787113D02*
X2104866Y1786738D01*
X2104321Y1785613*
X2104048Y1783738*
Y1782613*
X2104321Y1780738*
X2104866Y1779613*
X2105685Y1779238*
X2106230*
X2107048Y1779613*
X2107594Y1780738*
X2107866Y1782613*
Y1783738*
X2107594Y1785613*
X2107048Y1786738*
X2106230Y1787113*
X2105685*
X2110594Y1779988D02*
X2110321Y1779613D01*
X2110594Y1779238*
X2110866Y1779613*
X2110594Y1779988*
X2114957Y1787113D02*
X2114139Y1786738D01*
X2113594Y1785613*
X2113321Y1783738*
Y1782613*
X2113594Y1780738*
X2114139Y1779613*
X2114957Y1779238*
X2115503*
X2116321Y1779613*
X2116866Y1780738*
X2117139Y1782613*
Y1783738*
X2116866Y1785613*
X2116321Y1786738*
X2115503Y1787113*
X2114957*
X1872494Y1761613D02*
X1873039Y1761988D01*
X1873857Y1763113*
Y1755238*
X1879585Y1761988D02*
X1879312Y1762738D01*
X1878494Y1763113*
X1877948*
X1877130Y1762738*
X1876585Y1761613*
X1876312Y1759738*
Y1757863*
X1876585Y1756363*
X1877130Y1755613*
X1877948Y1755238*
X1878221*
X1879039Y1755613*
X1879585Y1756363*
X1879857Y1757488*
Y1757863*
X1879585Y1758988*
X1879039Y1759738*
X1878221Y1760113*
X1877948*
X1877130Y1759738*
X1876585Y1758988*
X1876312Y1757863*
X1885857Y1763113D02*
X1883130D01*
X1882857Y1759738*
X1883130Y1760113*
X1883948Y1760488*
X1884766*
X1885585Y1760113*
X1886130Y1759363*
X1886403Y1758238*
X1886130Y1757488*
X1885857Y1756363*
X1885312Y1755613*
X1884494Y1755238*
X1883676*
X1882857Y1755613*
X1882585Y1755988*
X1882312Y1756738*
X1889130Y1755988D02*
X1888857Y1755613D01*
X1889130Y1755238*
X1889403Y1755613*
X1889130Y1755988*
X1892403Y1763113D02*
X1895403D01*
X1893766Y1760113*
X1894585*
X1895130Y1759738*
X1895403Y1759363*
X1895676Y1758238*
Y1757488*
X1895403Y1756363*
X1894857Y1755613*
X1894039Y1755238*
X1893221*
X1892403Y1755613*
X1892130Y1755988*
X1891857Y1756738*
X1901676Y1763113D02*
X1898948D01*
X1898676Y1759738*
X1898948Y1760113*
X1899766Y1760488*
X1900585*
X1901403Y1760113*
X1901948Y1759363*
X1902221Y1758238*
X1901948Y1757488*
X1901676Y1756363*
X1901130Y1755613*
X1900312Y1755238*
X1899494*
X1898676Y1755613*
X1898403Y1755988*
X1898130Y1756738*
X1968230Y1763113D02*
X1965503Y1757863D01*
X1969594*
X1968230Y1763113D02*
Y1755238D01*
X2004494D02*
X2010494Y1761238D01*
X2004494Y1767238*
X1998494Y1761238*
X2004494Y1755238*
Y1761238D02*
Y1767238D01*
X2034230Y1763113D02*
Y1755238D01*
Y1763113D02*
X2038048Y1755238D01*
Y1763113D02*
Y1755238D01*
X2042139Y1763113D02*
X2041594Y1762738D01*
X2041048Y1761988*
X2040776Y1761238*
X2040503Y1760113*
Y1758238*
X2040776Y1757113*
X2041048Y1756363*
X2041594Y1755613*
X2042139Y1755238*
X2043230*
X2043776Y1755613*
X2044321Y1756363*
X2044594Y1757113*
X2044866Y1758238*
Y1760113*
X2044594Y1761238*
X2044321Y1761988*
X2043776Y1762738*
X2043230Y1763113*
X2042139*
X2084412Y1761988D02*
Y1755238D01*
X2081957Y1758613D02*
X2086866D01*
X2094230Y1764613D02*
X2089321Y1752613D01*
X2096685Y1758613D02*
X2101594D01*
X2105685Y1763113D02*
X2104866Y1762738D01*
X2104321Y1761613*
X2104048Y1759738*
Y1758613*
X2104321Y1756738*
X2104866Y1755613*
X2105685Y1755238*
X2106230*
X2107048Y1755613*
X2107594Y1756738*
X2107866Y1758613*
Y1759738*
X2107594Y1761613*
X2107048Y1762738*
X2106230Y1763113*
X2105685*
X2110594Y1755988D02*
X2110321Y1755613D01*
X2110594Y1755238*
X2110866Y1755613*
X2110594Y1755988*
X2114957Y1763113D02*
X2114139Y1762738D01*
X2113594Y1761613*
X2113321Y1759738*
Y1758613*
X2113594Y1756738*
X2114139Y1755613*
X2114957Y1755238*
X2115503*
X2116321Y1755613*
X2116866Y1756738*
X2117139Y1758613*
Y1759738*
X2116866Y1761613*
X2116321Y1762738*
X2115503Y1763113*
X2114957*
G54D33*
G54D57*
X1577094Y1788838D02*
Y1811082D01*
X1603275*
X1575394Y1597638D02*
Y1575394D01*
X1601575*
X2149094Y1791238D02*
Y1813482D01*
X2122913*
X2147394Y1600038D02*
Y1577794D01*
X2121213*
X0Y0D02*
M02*
