*
*
G04 PADS 9.5 Build Number: 522968 generated Gerber (RS-274-X) file*
G04 PC Version=2.1*
*
%IN "BMON.pcb"*%
*
%MOIN*%
*
%FSLAX35Y35*%
*
*
*
*
G04 PC Standard Apertures*
*
*
G04 Thermal Relief Aperture macro.*
%AMTER*
1,1,$1,0,0*
1,0,$1-$2,0,0*
21,0,$3,$4,0,0,45*
21,0,$3,$4,0,0,135*
%
*
*
G04 Annular Aperture macro.*
%AMANN*
1,1,$1,0,0*
1,0,$2,0,0*
%
*
*
G04 Odd Aperture macro.*
%AMODD*
1,1,$1,0,0*
1,0,$1-0.005,0,0*
%
*
*
G04 PC Custom Aperture Macros*
*
*
*
*
*
*
G04 PC Aperture Table*
*
%ADD011C,0.01*%
%ADD022R,0.032X0.032*%
%ADD033C,0.001*%
%ADD057C,0.01181*%
%ADD071R,0.025X0.02*%
%ADD073C,0.06*%
%ADD075R,0.15748X0.21654*%
%ADD076R,0.02X0.025*%
%ADD078R,0.05X0.0315*%
%ADD079R,0.01181X0.03346*%
%ADD080R,0.03346X0.01181*%
%ADD122R,0.19449X0.07874*%
*
*
*
*
G04 PC Circuitry*
G04 Layer Name BMON.pcb - circuitry*
%LPD*%
*
*
G04 PC Custom Flashes*
G04 Layer Name BMON.pcb - flashes*
%LPD*%
*
*
G04 PC Circuitry*
G04 Layer Name BMON.pcb - circuitry*
%LPD*%
*
G54D11*
G01X2002974Y1612718D02*
Y1606156D01*
Y1612718D02*
X2005019D01*
X2005701Y1612406*
X2005929Y1612093*
X2006156Y1611468*
Y1610531*
X2005929Y1609906*
X2005701Y1609593*
X2005019Y1609281*
X2002974*
X2010019Y1612718D02*
X2008201Y1606156D01*
X2010019Y1612718D02*
X2011838Y1606156D01*
X2008883Y1608343D02*
X2011156D01*
X2017065Y1611781D02*
X2016610Y1612406D01*
X2015929Y1612718*
X2015019*
X2014338Y1612406*
X2013883Y1611781*
Y1611156*
X2014110Y1610531*
X2014338Y1610218*
X2014792Y1609906*
X2016156Y1609281*
X2016610Y1608968*
X2016838Y1608656*
X2017065Y1608031*
Y1607093*
X2016610Y1606468*
X2015929Y1606156*
X2015019*
X2014338Y1606468*
X2013883Y1607093*
X2020701Y1612718D02*
Y1606156D01*
X2019110Y1612718D02*
X2022292D01*
X2024338D02*
Y1606156D01*
Y1612718D02*
X2027292D01*
X2024338Y1609593D02*
X2026156D01*
X2024338Y1606156D02*
X2027292D01*
X2034565Y1612718D02*
Y1606156D01*
Y1612718D02*
X2036383Y1606156D01*
X2038201Y1612718D02*
X2036383Y1606156D01*
X2038201Y1612718D02*
Y1606156D01*
X2042065Y1612718D02*
X2040247Y1606156D01*
X2042065Y1612718D02*
X2043883Y1606156D01*
X2040929Y1608343D02*
X2043201D01*
X2049110Y1611781D02*
X2048656Y1612406D01*
X2047974Y1612718*
X2047065*
X2046383Y1612406*
X2045929Y1611781*
Y1611156*
X2046156Y1610531*
X2046383Y1610218*
X2046838Y1609906*
X2048201Y1609281*
X2048656Y1608968*
X2048883Y1608656*
X2049110Y1608031*
Y1607093*
X2048656Y1606468*
X2047974Y1606156*
X2047065*
X2046383Y1606468*
X2045929Y1607093*
X2051156Y1612718D02*
Y1606156D01*
X2054338Y1612718D02*
X2051156Y1608343D01*
X2052292Y1609906D02*
X2054338Y1606156D01*
X2063201Y1612718D02*
Y1606156D01*
X2061610Y1612718D02*
X2064792D01*
X2068201D02*
X2067747Y1612406D01*
X2067292Y1611781*
X2067065Y1611156*
X2066838Y1610218*
Y1608656*
X2067065Y1607718*
X2067292Y1607093*
X2067747Y1606468*
X2068201Y1606156*
X2069110*
X2069565Y1606468*
X2070019Y1607093*
X2070247Y1607718*
X2070474Y1608656*
Y1610218*
X2070247Y1611156*
X2070019Y1611781*
X2069565Y1612406*
X2069110Y1612718*
X2068201*
X2072519D02*
Y1606156D01*
Y1612718D02*
X2074565D01*
X2075247Y1612406*
X2075474Y1612093*
X2075701Y1611468*
Y1610531*
X2075474Y1609906*
X2075247Y1609593*
X2074565Y1609281*
X2072519*
G54D22*
X1842242Y1715608D03*
Y1721608D03*
X1832242Y1715608D03*
Y1721608D03*
X1822242Y1715608D03*
Y1721608D03*
X1812242Y1715608D03*
Y1721608D03*
G54D33*
G54D57*
X1577094Y1788838D02*
Y1811082D01*
X1603275*
X1575394Y1597638D02*
Y1575394D01*
X1601575*
X2149094Y1791238D02*
Y1813482D01*
X2122913*
X2147394Y1600038D02*
Y1577794D01*
X2121213*
G54D71*
X1820821Y1702688D03*
X1816884D03*
X1819276Y1681876D03*
X1815339D03*
G54D73*
X1727175Y1684394D03*
X1717175D03*
X1707175D03*
X1697175D03*
X1687175D03*
G54D75*
X1889013Y1691443D03*
X1867360D03*
X1845706D03*
G54D76*
X1860667Y1721364D03*
Y1717427D03*
X1856730Y1721364D03*
Y1717427D03*
X1852793Y1721364D03*
Y1717427D03*
X1848856Y1721364D03*
Y1717427D03*
G54D78*
X1828628Y1690524D03*
X1828628D03*
Y1694461D03*
X1828628D03*
G54D79*
X1822781Y1698201D03*
X1820813D03*
Y1686783D03*
X1822781D03*
G54D80*
X1818057Y1695445D03*
Y1693476D03*
Y1691508D03*
Y1689539D03*
G54D122*
X1790706Y1717624D03*
X1743226D03*
X1790706Y1688096D03*
X1743226D03*
X0Y0D02*
M02*
