*
*
G04 PADS 9.5 Build Number: 522968 generated Gerber (RS-274-X) file*
G04 PC Version=2.1*
*
%IN "BMON.pcb"*%
*
%MOIN*%
*
%FSLAX35Y35*%
*
*
*
*
G04 PC Standard Apertures*
*
*
G04 Thermal Relief Aperture macro.*
%AMTER*
1,1,$1,0,0*
1,0,$1-$2,0,0*
21,0,$3,$4,0,0,45*
21,0,$3,$4,0,0,135*
%
*
*
G04 Annular Aperture macro.*
%AMANN*
1,1,$1,0,0*
1,0,$2,0,0*
%
*
*
G04 Odd Aperture macro.*
%AMODD*
1,1,$1,0,0*
1,0,$1-0.005,0,0*
%
*
*
G04 PC Custom Aperture Macros*
*
*
*
*
*
*
G04 PC Aperture Table*
*
%ADD011C,0.01*%
%ADD012C,0.006*%
%ADD015C,0.00591*%
%ADD016C,0.008*%
%ADD033C,0.001*%
%ADD057C,0.01181*%
%ADD083C,0.00394*%
%ADD084C,0.015*%
%ADD085C,0.00472*%
%ADD086C,0.05118*%
*
*
*
*
G04 PC Circuitry*
G04 Layer Name BMON.pcb - circuitry*
%LPD*%
*
*
G04 PC Custom Flashes*
G04 Layer Name BMON.pcb - flashes*
%LPD*%
*
*
G04 PC Circuitry*
G04 Layer Name BMON.pcb - circuitry*
%LPD*%
*
G54D11*
G01X1884486Y1716639D02*
G75*
G03X1884486I-8268J0D01*
G01X1825002Y1686209D02*
X1829226D01*
Y1687461*
X1824966Y1698815D02*
X1829191D01*
Y1697563*
X1818368Y1686240D02*
X1817080D01*
Y1687492*
X1818297Y1698846D02*
X1817045D01*
Y1697594*
X1725037Y1716639D02*
G03X1725037I-8268J0D01*
G01X2006156Y1674773D02*
X2005701Y1675398D01*
X2005019Y1675711*
X2004110*
X2003429Y1675398*
X2002974Y1674773*
Y1674148*
X2003201Y1673523*
X2003429Y1673211*
X2003883Y1672898*
X2005247Y1672273*
X2005701Y1671961*
X2005929Y1671648*
X2006156Y1671023*
Y1670086*
X2005701Y1669461*
X2005019Y1669148*
X2004110*
X2003429Y1669461*
X2002974Y1670086*
X2008201Y1675711D02*
Y1669148D01*
X2010247Y1675711D02*
Y1669148D01*
X2012974*
X2015019Y1675711D02*
Y1669148D01*
X2018201Y1675711D02*
X2015019Y1671336D01*
X2016156Y1672898D02*
X2018201Y1669148D01*
X2023429Y1674773D02*
X2022974Y1675398D01*
X2022292Y1675711*
X2021383*
X2020701Y1675398*
X2020247Y1674773*
Y1674148*
X2020474Y1673523*
X2020701Y1673211*
X2021156Y1672898*
X2022519Y1672273*
X2022974Y1671961*
X2023201Y1671648*
X2023429Y1671023*
Y1670086*
X2022974Y1669461*
X2022292Y1669148*
X2021383*
X2020701Y1669461*
X2020247Y1670086*
X2028883Y1674148D02*
X2028656Y1674773D01*
X2028201Y1675398*
X2027747Y1675711*
X2026838*
X2026383Y1675398*
X2025929Y1674773*
X2025701Y1674148*
X2025474Y1673211*
Y1671648*
X2025701Y1670711*
X2025929Y1670086*
X2026383Y1669461*
X2026838Y1669148*
X2027747*
X2028201Y1669461*
X2028656Y1670086*
X2028883Y1670711*
X2030929Y1675711D02*
Y1669148D01*
Y1675711D02*
X2032974D01*
X2033656Y1675398*
X2033883Y1675086*
X2034110Y1674461*
Y1673836*
X2033883Y1673211*
X2033656Y1672898*
X2032974Y1672586*
X2030929*
X2032519D02*
X2034110Y1669148D01*
X2036156Y1675711D02*
Y1669148D01*
Y1675711D02*
X2039110D01*
X2036156Y1672586D02*
X2037974D01*
X2036156Y1669148D02*
X2039110D01*
X2041156Y1675711D02*
Y1669148D01*
Y1675711D02*
X2044110D01*
X2041156Y1672586D02*
X2042974D01*
X2041156Y1669148D02*
X2044110D01*
X2046156Y1675711D02*
Y1669148D01*
Y1675711D02*
X2049338Y1669148D01*
Y1675711D02*
Y1669148D01*
X2058201Y1675711D02*
Y1669148D01*
X2056610Y1675711D02*
X2059792D01*
X2063201D02*
X2062747Y1675398D01*
X2062292Y1674773*
X2062065Y1674148*
X2061838Y1673211*
Y1671648*
X2062065Y1670711*
X2062292Y1670086*
X2062747Y1669461*
X2063201Y1669148*
X2064110*
X2064565Y1669461*
X2065019Y1670086*
X2065247Y1670711*
X2065474Y1671648*
Y1673211*
X2065247Y1674148*
X2065019Y1674773*
X2064565Y1675398*
X2064110Y1675711*
X2063201*
X2067519D02*
Y1669148D01*
Y1675711D02*
X2069565D01*
X2070247Y1675398*
X2070474Y1675086*
X2070701Y1674461*
Y1673523*
X2070474Y1672898*
X2070247Y1672586*
X2069565Y1672273*
X2067519*
G54D12*
X1839880Y1712808D02*
X1844604D01*
Y1723726*
X1839880*
Y1712808*
X1829880D02*
X1834604D01*
Y1723726*
X1829880*
Y1712808*
X1819880D02*
X1824604D01*
Y1723726*
X1819880*
Y1712808*
X1809880D02*
X1814604D01*
Y1723726*
X1809880*
Y1712808*
X1777990Y1702860D02*
G03X1777990I-11024J0D01*
G54D15*
G01X1881139Y1702269D02*
X1896887D01*
Y1680616*
X1881139*
Y1702269*
X1859486D02*
X1875234D01*
Y1680616*
X1859486*
Y1702269*
X1837832D02*
X1853580D01*
Y1680616*
X1837832*
Y1702269*
X1744525Y1722151D02*
Y1725301D01*
X1789407*
Y1722151*
X1744525Y1683569D02*
Y1680419D01*
X1789407*
Y1683569*
X1744525Y1713096D02*
Y1692624D01*
X1789407Y1713096D02*
Y1692624D01*
X1837594Y1706080D02*
X1838381Y1703238D01*
X1839169Y1706080D02*
X1838381Y1703238D01*
X1840054Y1706080D02*
Y1703238D01*
Y1706080D02*
X1840940D01*
X1841235Y1705944*
X1841334Y1705809*
X1841432Y1705538*
Y1705268*
X1841334Y1704997*
X1841235Y1704862*
X1840940Y1704726*
X1840054D02*
X1840940D01*
X1841235Y1704591*
X1841334Y1704456*
X1841432Y1704185*
Y1703779*
X1841334Y1703508*
X1841235Y1703373*
X1840940Y1703238*
X1840054*
X1843106Y1706080D02*
X1842318Y1703238D01*
X1843106Y1706080D02*
X1843893Y1703238D01*
X1842613Y1704185D02*
X1843598D01*
X1845468Y1706080D02*
Y1703238D01*
X1844779Y1706080D02*
X1846157D01*
X1847731D02*
Y1703238D01*
X1847043Y1706080D02*
X1848420D01*
X1859570Y1705403D02*
X1859472Y1705674D01*
X1859275Y1705944*
X1859078Y1706080*
X1858684*
X1858487Y1705944*
X1858291Y1705674*
X1858192Y1705403*
X1858094Y1704997*
Y1704320*
X1858192Y1703914*
X1858291Y1703644*
X1858487Y1703373*
X1858684Y1703238*
X1859078*
X1859275Y1703373*
X1859472Y1703644*
X1859570Y1703914*
Y1704320*
X1859078D02*
X1859570D01*
X1860456Y1706080D02*
Y1703238D01*
Y1706080D02*
X1861834Y1703238D01*
Y1706080D02*
Y1703238D01*
X1862720Y1706080D02*
Y1703238D01*
Y1706080D02*
X1863409D01*
X1863704Y1705944*
X1863901Y1705674*
X1863999Y1705403*
X1864098Y1704997*
Y1704320*
X1863999Y1703914*
X1863901Y1703644*
X1863704Y1703373*
X1863409Y1703238*
X1862720*
X1884570Y1705403D02*
X1884472Y1705674D01*
X1884275Y1705944*
X1884078Y1706080*
X1883684*
X1883487Y1705944*
X1883291Y1705674*
X1883192Y1705403*
X1883094Y1704997*
Y1704320*
X1883192Y1703914*
X1883291Y1703644*
X1883487Y1703373*
X1883684Y1703238*
X1884078*
X1884275Y1703373*
X1884472Y1703644*
X1884570Y1703914*
X1885456Y1706080D02*
Y1703238D01*
X1886834Y1706080D02*
Y1703238D01*
X1885456Y1704726D02*
X1886834D01*
X1888507Y1706080D02*
X1887720Y1703238D01*
X1888507Y1706080D02*
X1889294Y1703238D01*
X1888015Y1704185D02*
X1888999D01*
X1890180Y1706080D02*
Y1703238D01*
Y1706080D02*
X1891066D01*
X1891361Y1705944*
X1891460Y1705809*
X1891558Y1705538*
Y1705268*
X1891460Y1704997*
X1891361Y1704862*
X1891066Y1704726*
X1890180*
X1890869D02*
X1891558Y1703238D01*
X1893920Y1705403D02*
X1893822Y1705674D01*
X1893625Y1705944*
X1893428Y1706080*
X1893035*
X1892838Y1705944*
X1892641Y1705674*
X1892543Y1705403*
X1892444Y1704997*
Y1704320*
X1892543Y1703914*
X1892641Y1703644*
X1892838Y1703373*
X1893035Y1703238*
X1893428*
X1893625Y1703373*
X1893822Y1703644*
X1893920Y1703914*
Y1704320*
X1893428D02*
X1893920D01*
X1894806Y1706080D02*
Y1703238D01*
Y1706080D02*
X1896086D01*
X1894806Y1704726D02*
X1895594D01*
X1894806Y1703238D02*
X1896086D01*
X1679394Y1728997D02*
Y1725638D01*
Y1728997D02*
X1680441D01*
X1680790Y1728837*
X1680906Y1728677*
X1681022Y1728357*
Y1728037*
X1680906Y1727717*
X1680790Y1727557*
X1680441Y1727397*
X1679394D02*
X1680441D01*
X1680790Y1727237*
X1680906Y1727077*
X1681022Y1726757*
Y1726278*
X1680906Y1725958*
X1680790Y1725798*
X1680441Y1725638*
X1679394*
X1682069Y1728997D02*
Y1725638D01*
Y1728997D02*
X1683000Y1725638D01*
X1683930Y1728997D02*
X1683000Y1725638D01*
X1683930Y1728997D02*
Y1725638D01*
X1685675Y1728997D02*
X1685442Y1728837D01*
X1685210Y1728517*
X1685093Y1728197*
X1684977Y1727717*
Y1726917*
X1685093Y1726438*
X1685093D02*
X1685210Y1726118D01*
X1685442Y1725798*
X1685675Y1725638*
X1686140*
X1686373Y1725798*
X1686606Y1726118*
X1686722Y1726438*
X1686722D02*
X1686838Y1726917D01*
Y1727717*
X1686722Y1728197*
X1686606Y1728517*
X1686373Y1728837*
X1686140Y1728997*
X1685675*
X1687885D02*
Y1725638D01*
Y1728997D02*
X1689514Y1725638D01*
Y1728997D02*
Y1725638D01*
X1690560Y1724998D02*
X1693003D01*
X1694399Y1728997D02*
X1694050Y1728837D01*
X1693817Y1728357*
X1693701Y1727557*
Y1727077*
X1693817Y1726278*
X1694050Y1725798*
X1694399Y1725638*
X1694632*
X1694981Y1725798*
X1695213Y1726278*
X1695330Y1727077*
Y1727557*
X1695213Y1728357*
X1694981Y1728837*
X1694632Y1728997*
X1694399*
X1682310Y1711597D02*
Y1711757D01*
X1682426Y1712077*
X1682543Y1712237*
X1682775Y1712397*
X1683241*
X1683473Y1712237*
X1683590Y1712077*
X1683706Y1711757*
Y1711437*
X1683590Y1711117*
X1683357Y1710637*
X1682194Y1709038*
X1683822*
X1685567Y1712397D02*
X1685218Y1712237D01*
X1684985Y1711757*
X1684869Y1710957*
Y1710477*
X1684985Y1709678*
X1685218Y1709198*
X1685567Y1709038*
X1685800*
X1686149Y1709198*
X1686381Y1709678*
X1686498Y1710477*
Y1710957*
X1686381Y1711757*
X1686149Y1712237*
X1685800Y1712397*
X1685567*
X1687544Y1711757D02*
X1687777Y1711917D01*
X1688126Y1712397*
Y1709038*
X1689406Y1712397D02*
X1690685D01*
X1689987Y1711117*
X1690336*
X1690569Y1710957*
X1690685Y1710797*
X1690801Y1710317*
Y1709997*
X1690685Y1709518*
X1690452Y1709198*
X1690104Y1709038*
X1689755*
X1689406Y1709198*
X1689289Y1709358*
X1689173Y1709678*
X1670294Y1727138D02*
Y1727122D01*
X1670359*
Y1727107*
X1670434*
Y1727092*
X1670493*
Y1727078*
X1670538*
Y1727063*
X1670568*
Y1727048*
X1670613*
Y1727033*
X1670643*
Y1727018*
X1670672*
Y1727003*
X1670702*
Y1726988*
X1670717*
Y1726973*
X1670747*
Y1726958*
X1670777*
Y1726943*
X1670792*
Y1726928*
X1670807*
Y1726913*
X1670837*
Y1726898*
X1670852*
Y1726883*
X1670867*
Y1726868*
X1670882*
Y1726854*
X1670896*
Y1726839*
X1670911*
Y1726824*
X1670926*
Y1726809*
X1670941*
Y1726794*
X1670956*
Y1726779*
X1670971*
Y1726764*
X1670986*
Y1726734*
X1671001*
Y1726719*
X1671016*
Y1726689*
X1671031*
Y1726674*
X1671046*
Y1726645*
X1671061*
Y1726615*
X1671076*
Y1726585*
X1671091*
Y1726555*
X1671105*
Y1726510*
X1671120*
Y1726465*
X1671135*
Y1726406*
X1671150*
Y1714281*
X1671135*
Y1714222*
X1671120*
Y1714177*
X1671105*
Y1714132*
X1671091*
Y1714102*
X1671076*
Y1714072*
X1671061*
Y1714042*
X1671046*
Y1714012*
X1671046D02*
X1671031D01*
X1671031D02*
Y1713998D01*
X1671016*
Y1713968*
X1671001*
Y1713953*
X1670986*
Y1713923*
X1670971*
Y1713908*
X1670956*
Y1713893*
X1670941*
Y1713878*
X1670926*
Y1713863*
X1670911*
Y1713848*
X1670896*
Y1713833*
X1670882*
Y1713818*
X1670867*
Y1713803*
X1670852*
Y1713789*
X1670837*
Y1713774*
X1670807*
Y1713759*
X1670792*
Y1713744*
X1670777*
Y1713729*
X1670747*
Y1713714*
X1670717*
Y1713699*
X1670702*
Y1713684*
X1670672*
Y1713669*
X1670643*
Y1713654*
X1670613*
Y1713639*
X1670568*
Y1713624*
X1670538*
Y1713609*
X1670478*
Y1713594*
X1670344*
Y1713579*
X1654920*
Y1726391*
X1654935*
Y1726465*
X1654950*
Y1726510*
X1654965*
Y1726555*
X1654979*
Y1726585*
X1654994*
Y1726615*
X1655009*
Y1726645*
X1655024*
Y1726674*
X1655039*
Y1726689*
X1655054*
Y1726719*
X1655069*
Y1726734*
X1655084*
Y1726749*
X1655099*
Y1726779*
X1655114*
Y1726794*
X1655129*
Y1726809*
X1655144*
Y1726824*
X1655159*
Y1726839*
X1655174*
Y1726854*
X1655189*
Y1726868*
X1655203*
Y1726883*
X1655218*
Y1726898*
X1655233*
Y1726913*
X1655263*
Y1726928*
X1655278*
Y1726943*
X1655308*
Y1726958*
X1655323*
Y1726973*
X1655353*
Y1726988*
X1655368*
Y1727003*
X1655398*
Y1727018*
X1655427*
Y1727033*
X1655457*
Y1727048*
X1655502*
Y1727063*
X1655532*
Y1727078*
X1655592*
Y1727092*
X1655636*
Y1727107*
X1655711*
Y1727122*
X1655775*
Y1727137*
X1670294Y1727138*
X1670299Y1726928D02*
X1655771D01*
Y1726913*
X1655696*
Y1726898*
X1655636*
Y1726883*
X1655592*
Y1726868*
X1655562*
Y1726854*
X1655517*
Y1726839*
X1655502*
Y1726824*
X1655472*
Y1726809*
X1655442*
Y1726794*
X1655427*
Y1726779*
X1655398*
Y1726764*
X1655383*
Y1726749*
X1655368*
Y1726734*
X1655338*
Y1726719*
X1655323*
Y1726704*
X1655308*
Y1726689*
X1655293*
Y1726674*
X1655278*
Y1726659*
X1655263*
Y1726630*
X1655248*
Y1726615*
X1655233*
Y1726600*
X1655218*
Y1726570*
X1655203*
Y1726555*
X1655189*
Y1726525*
X1655174*
Y1726495*
X1655159*
Y1726450*
X1655144*
Y1726406*
X1655129*
Y1726346*
X1655114*
Y1713759*
X1670299*
Y1713774*
X1670374*
Y1713789*
X1670434*
Y1713803*
X1670478*
Y1713818*
X1670508*
Y1713833*
X1670553*
Y1713848*
X1670583*
Y1713863*
X1670598*
Y1713878*
X1670628*
Y1713893*
X1670658*
Y1713908*
X1670672*
Y1713923*
X1670687*
Y1713938*
X1670717*
Y1713953*
X1670732*
Y1713968*
X1670747*
Y1713983*
X1670762*
Y1713998*
X1670777*
Y1714012*
X1670777D02*
X1670792D01*
X1670792D02*
Y1714027D01*
X1670807*
Y1714057*
X1670822*
Y1714072*
X1670837*
Y1714087*
X1670852*
Y1714117*
X1670867*
Y1714132*
X1670882*
Y1714162*
X1670896*
Y1714192*
X1670911*
Y1714236*
X1670926*
Y1714281*
X1670941*
Y1714341*
X1670956*
Y1726346*
X1670941*
Y1726406*
X1670926*
Y1726450*
X1670911*
Y1726495*
X1670896*
Y1726525*
X1670882*
Y1726555*
X1670867*
Y1726570*
X1670852*
Y1726600*
X1670837*
Y1726615*
X1670822*
Y1726630*
X1670807*
Y1726659*
X1670792*
Y1726674*
X1670777*
Y1726689*
X1670762*
Y1726704*
X1670747*
Y1726719*
X1670732*
Y1726734*
X1670717*
Y1726749*
X1670687*
Y1726764*
X1670672*
Y1726779*
X1670658*
Y1726794*
X1670628*
Y1726809*
X1670598*
Y1726824*
X1670583*
Y1726839*
X1670553*
Y1726854*
X1670508*
Y1726868*
X1670478*
Y1726883*
X1670434*
Y1726898*
X1670374*
Y1726913*
X1670299*
Y1726928*
X1658309Y1725435D02*
Y1725420D01*
X1658384*
Y1725405*
X1658444*
Y1725390*
X1658488*
Y1725375*
X1658518*
Y1725360*
X1658563*
Y1725345*
X1658593*
Y1725331*
X1658623*
Y1725316*
X1658653*
Y1725301*
X1658682*
X1658682D02*
Y1725286D01*
X1658682D02*
X1658697D01*
Y1725271*
X1658727*
Y1725256*
X1658742*
Y1725241*
X1658757*
Y1725226*
X1658787*
Y1725211*
X1658802*
Y1725196*
X1658817*
Y1725181*
X1658832*
Y1725166*
X1658847*
Y1725151*
X1658862*
Y1725136*
X1658877*
Y1725122*
X1658892*
Y1725107*
X1658906*
Y1725092*
X1658921*
Y1725077*
X1658936*
Y1725062*
X1658951*
Y1725047*
X1658966*
Y1725032*
X1658981*
Y1725002*
X1658996*
Y1724987*
X1659011*
Y1724972*
X1659026*
Y1724942*
X1659041*
Y1724927*
X1659056*
Y1724898*
X1659071*
Y1724868*
X1659086*
Y1724838*
X1659101*
Y1724808*
X1659116*
Y1724778*
X1659130*
Y1724733*
X1659145*
Y1724688*
X1659145D02*
X1659160D01*
X1659160D02*
Y1724629D01*
X1659175*
Y1724554*
X1659190*
Y1724420*
X1659205*
Y1724285*
X1659190*
Y1724136*
X1659175*
Y1724061*
X1659160*
Y1724017*
X1659145*
Y1723972*
X1659130*
Y1723927*
X1659116*
Y1723897*
X1659101*
Y1723852*
X1659086*
Y1723822*
X1659071*
Y1723808*
X1659056*
Y1723778*
X1659041*
Y1723748*
X1659026*
Y1723733*
X1659011*
Y1723703*
X1658996*
Y1723688*
X1658981*
Y1723673*
X1658966*
Y1723643*
X1658951*
Y1723628*
X1658936*
Y1723613*
X1658921*
Y1723598*
X1658921D02*
X1658906D01*
X1658906D02*
Y1723584D01*
X1658892*
Y1723569*
X1658877*
Y1723554*
X1658862*
Y1723539*
X1658847*
Y1723524*
X1658832*
Y1723509*
X1658817*
Y1723494*
X1658787*
Y1723479*
X1658772*
Y1723464*
X1658757*
Y1723449*
X1658742*
Y1723434*
X1658712*
Y1723419*
X1658697*
Y1723404*
X1658668*
Y1723389*
X1658638*
Y1723375*
X1658608*
Y1723360*
X1658578*
Y1723345*
X1658548*
Y1723330*
X1658518*
Y1723315*
X1658473*
Y1723300*
X1658414*
Y1723285*
X1658354*
Y1723270*
X1658264*
Y1723255*
X1657981*
Y1723270*
X1657891*
Y1723285*
X1657816*
Y1723300*
X1657772*
Y1723315*
X1657727*
Y1723330*
X1657697*
Y1723345*
X1657667*
Y1723360*
X1657637*
Y1723375*
X1657607*
Y1723389*
X1657578*
Y1723404*
X1657548*
Y1723419*
X1657533*
Y1723434*
X1657503*
Y1723449*
X1657488*
Y1723464*
X1657473*
Y1723479*
X1657443*
Y1723494*
X1657428*
Y1723509*
X1657413*
Y1723524*
X1657398*
Y1723539*
X1657383*
Y1723554*
X1657369*
Y1723569*
X1657354*
Y1723584*
X1657339*
Y1723598*
X1657339D02*
X1657324D01*
X1657324D02*
Y1723613D01*
X1657309*
Y1723628*
X1657294*
Y1723643*
X1657279*
Y1723658*
X1657264*
Y1723688*
X1657249*
Y1723703*
X1657234*
Y1723718*
X1657219*
Y1723748*
X1657204*
Y1723763*
X1657189*
Y1723793*
X1657174*
Y1723822*
X1657159*
Y1723852*
X1657145*
Y1723882*
X1657130*
Y1723912*
X1657115*
Y1723942*
X1657100*
Y1723987*
X1657085*
Y1724046*
X1657070*
Y1724106*
X1657055*
Y1724196*
X1657040*
Y1724509*
X1657055*
Y1724599*
X1657070*
Y1724659*
X1657085*
Y1724703*
X1657100*
Y1724748*
X1657115*
Y1724793*
X1657130*
Y1724823*
X1657145*
Y1724853*
X1657159*
Y1724883*
X1657174*
Y1724912*
X1657189*
Y1724927*
X1657204*
Y1724957*
X1657219*
Y1724972*
X1657234*
Y1725002*
X1657249*
Y1725017*
X1657264*
Y1725032*
X1657279*
Y1725047*
X1657294*
Y1725062*
X1657309*
Y1725092*
X1657324*
Y1725107*
X1657339*
Y1725122*
X1657354*
Y1725136*
X1657369*
Y1725151*
X1657383*
Y1725166*
X1657398*
Y1725181*
X1657428*
Y1725196*
X1657443*
Y1725211*
X1657458*
Y1725226*
X1657473*
Y1725241*
X1657503*
Y1725256*
X1657518*
Y1725271*
X1657548*
Y1725286*
X1657563*
Y1725301*
X1657593*
X1657593D02*
Y1725316D01*
X1657593D02*
X1657622D01*
Y1725331*
X1657652*
Y1725345*
X1657682*
Y1725360*
X1657712*
Y1725375*
X1657757*
Y1725390*
X1657802*
Y1725405*
X1657861*
Y1725420*
X1657936*
Y1725435*
X1658309*
X1662191D02*
Y1725420D01*
X1662281*
Y1725405*
X1662341*
Y1725390*
X1662386*
X1662386D02*
Y1725375D01*
X1662386D02*
X1662415D01*
Y1725360*
X1662460*
Y1725345*
X1662490*
Y1725331*
X1662520*
Y1725316*
X1662550*
Y1725301*
X1662565*
Y1725286*
X1662595*
Y1725271*
X1662624*
Y1725256*
X1662639*
Y1725241*
X1662654*
Y1725226*
X1662684*
Y1725211*
X1662699*
Y1725196*
X1662714*
Y1725181*
X1662729*
Y1725166*
X1662744*
Y1725151*
X1662759*
Y1725136*
X1662774*
Y1725122*
X1662789*
Y1725107*
X1662804*
Y1725092*
X1662819*
Y1725077*
X1662833*
Y1725062*
X1662848*
Y1725047*
X1662863*
Y1725032*
X1662878*
Y1725002*
X1662893*
Y1724987*
X1662908*
Y1724957*
X1662923*
Y1724942*
X1662938*
Y1724912*
X1662953*
Y1724898*
X1662968*
Y1724868*
X1662983*
Y1724838*
X1662998*
Y1724808*
X1663013*
Y1724763*
X1663028*
Y1724733*
X1663042*
Y1724688*
X1663042D02*
X1663057D01*
X1663057D02*
Y1724629D01*
X1663072*
Y1724554*
X1663087*
Y1724151*
X1663072*
Y1724076*
X1663057*
Y1724017*
X1663042*
Y1723972*
X1663028*
Y1723927*
X1663013*
Y1723897*
X1662998*
Y1723867*
X1662983*
Y1723837*
X1662968*
Y1723808*
X1662953*
Y1723778*
X1662938*
Y1723748*
X1662923*
Y1723733*
X1662908*
Y1723718*
X1662893*
Y1723688*
X1662878*
Y1723673*
X1662863*
Y1723658*
X1662848*
Y1723628*
X1662833*
Y1723613*
X1662819*
Y1723598*
X1662819D02*
X1662804D01*
X1662804D02*
Y1723584D01*
X1662789*
Y1723569*
X1662774*
Y1723554*
X1662759*
Y1723539*
X1662744*
Y1723524*
X1662729*
Y1723509*
X1662714*
Y1723494*
X1662684*
Y1723479*
X1662669*
Y1723464*
X1662654*
Y1723449*
X1662624*
Y1723434*
X1662609*
Y1723419*
X1662580*
Y1723404*
X1662565*
Y1723389*
X1662535*
Y1723375*
X1662505*
Y1723360*
X1662475*
Y1723345*
X1662445*
Y1723330*
X1662400*
Y1723315*
X1662371*
Y1723300*
X1662311*
Y1723285*
X1662251*
Y1723270*
X1662162*
Y1723255*
X1661878*
Y1723270*
X1661773*
Y1723285*
X1661714*
Y1723300*
X1661669*
Y1723315*
X1661624*
Y1723330*
X1661594*
Y1723345*
X1661549*
Y1723360*
X1661519*
Y1723375*
X1661505*
Y1723389*
X1661475*
Y1723404*
X1661445*
Y1723419*
X1661430*
Y1723434*
X1661400*
Y1723449*
X1661385*
Y1723464*
X1661355*
Y1723479*
X1661340*
Y1723494*
X1661325*
Y1723509*
X1661310*
Y1723524*
X1661296*
Y1723539*
X1661281*
Y1723554*
X1661266*
Y1723569*
X1661251*
Y1723584*
X1661236*
Y1723598*
X1661236D02*
X1661221D01*
X1661221D02*
Y1723613D01*
X1661206*
Y1723628*
X1661191*
Y1723643*
X1661176*
Y1723658*
X1661161*
Y1723673*
X1661146*
Y1723703*
X1661131*
Y1723718*
X1661116*
Y1723748*
X1661101*
Y1723763*
X1661086*
Y1723793*
X1661072*
Y1723808*
X1661057*
Y1723837*
X1661042*
Y1723867*
X1661027*
Y1723912*
X1661012*
Y1723942*
X1660997*
Y1723987*
X1660982*
Y1724032*
X1660967*
Y1724091*
X1660952*
Y1724181*
X1660937*
Y1724524*
X1660952*
Y1724614*
X1660967*
Y1724674*
X1660982*
Y1724718*
X1660997*
Y1724763*
X1661012*
Y1724793*
X1661027*
Y1724823*
X1661042*
Y1724853*
X1661057*
Y1724883*
X1661072*
Y1724912*
X1661086*
Y1724927*
X1661101*
Y1724957*
X1661116*
Y1724972*
X1661131*
Y1725002*
X1661146*
Y1725017*
X1661161*
Y1725032*
X1661176*
Y1725062*
X1661191*
Y1725077*
X1661206*
Y1725092*
X1661221*
Y1725107*
X1661236*
Y1725122*
X1661251*
Y1725136*
X1661266*
Y1725151*
X1661281*
Y1725166*
X1661296*
Y1725181*
X1661310*
Y1725196*
X1661340*
Y1725211*
X1661355*
Y1725226*
X1661370*
Y1725241*
X1661400*
Y1725256*
X1661415*
Y1725271*
X1661445*
Y1725286*
X1661460*
Y1725301*
X1661490*
Y1725316*
X1661519*
Y1725331*
X1661549*
Y1725345*
X1661579*
Y1725360*
X1661609*
Y1725375*
X1661654*
Y1725390*
X1661699*
Y1725405*
X1661758*
Y1725420*
X1661833*
Y1725435*
X1662191*
X1663042Y1722718D02*
Y1715312D01*
X1660982*
Y1722718*
X1663042*
X1659145D02*
Y1715312D01*
X1657085*
Y1722718*
X1659145*
X1667089Y1725017D02*
Y1722568D01*
X1669030*
Y1721419*
X1667089*
Y1717477*
X1667104*
Y1717312*
X1667119*
Y1717208*
X1667134*
Y1717148*
X1667149*
Y1717088*
X1667164*
Y1717029*
X1667179*
X1667179D02*
Y1716984D01*
X1667179D02*
X1667193D01*
Y1716954*
X1667208*
Y1716924*
X1667223*
Y1716894*
X1667238*
Y1716864*
X1667253*
Y1716835*
X1667268*
Y1716820*
X1667283*
Y1716790*
X1667298*
Y1716775*
X1667313*
Y1716760*
X1667328*
Y1716745*
X1667343*
Y1716730*
X1667358*
Y1716715*
X1667373*
Y1716700*
X1667388*
Y1716685*
X1667417*
Y1716670*
X1667432*
Y1716655*
X1667462*
Y1716640*
X1667492*
Y1716626*
X1667522*
Y1716611*
X1667552*
Y1716596*
X1667597*
Y1716581*
X1667656*
Y1716566*
X1667716*
Y1716551*
X1667821*
Y1716536*
X1668268*
X1668268D02*
Y1716551D01*
X1668268D02*
X1668403D01*
Y1716566*
X1668507*
Y1716581*
X1668582*
Y1716596*
X1668657*
Y1716611*
X1668731*
Y1716626*
X1668791*
Y1716640*
X1668851*
Y1716655*
X1668896*
Y1716670*
X1668955*
Y1716685*
X1668970*
Y1715506*
X1668940*
Y1715491*
X1668911*
Y1715476*
X1668866*
Y1715461*
X1668821*
Y1715446*
X1668776*
Y1715431*
X1668731*
Y1715416*
X1668672*
Y1715401*
X1668612*
Y1715386*
X1668552*
Y1715371*
X1668478*
Y1715356*
X1668403*
Y1715341*
X1668328*
Y1715326*
X1668239*
Y1715312*
X1668119*
Y1715297*
X1668000*
Y1715282*
X1667850*
Y1715267*
X1667641*
Y1715252*
X1666955*
Y1715267*
X1666820*
Y1715282*
X1666731*
Y1715297*
X1666656*
Y1715312*
X1666596*
Y1715326*
X1666536*
Y1715341*
X1666492*
Y1715356*
X1666447*
Y1715371*
X1666402*
Y1715386*
X1666357*
Y1715401*
X1666327*
Y1715416*
X1666283*
Y1715431*
X1666253*
Y1715446*
X1666223*
Y1715461*
X1666193*
Y1715476*
X1666163*
Y1715491*
X1666133*
Y1715506*
X1666103*
Y1715521*
X1666074*
Y1715536*
X1666059*
Y1715550*
X1666029*
Y1715565*
X1666014*
Y1715580*
X1665984*
Y1715595*
X1665969*
Y1715610*
X1665939*
Y1715625*
X1665924*
Y1715640*
X1665894*
Y1715655*
X1665879*
Y1715670*
X1665865*
Y1715685*
X1665850*
Y1715700*
X1665820*
Y1715715*
X1665805*
Y1715730*
X1665790*
Y1715745*
X1665775*
Y1715759*
X1665760*
Y1715774*
X1665745*
Y1715789*
X1665730*
Y1715804*
X1665715*
Y1715819*
X1665700*
Y1715834*
X1665685*
Y1715849*
X1665670*
Y1715864*
X1665655*
Y1715879*
X1665641*
Y1715894*
X1665626*
Y1715909*
X1665611*
Y1715924*
X1665596*
Y1715939*
X1665581*
Y1715954*
X1665566*
Y1715983*
X1665551*
Y1715998*
X1665536*
Y1716013*
X1665521*
Y1716043*
X1665506*
Y1716058*
X1665491*
Y1716073*
X1665476*
Y1716103*
X1665461*
Y1716118*
X1665446*
Y1716148*
X1665432*
Y1716163*
X1665417*
Y1716192*
X1665402*
Y1716222*
X1665387*
Y1716237*
X1665372*
Y1716267*
X1665357*
Y1716297*
X1665342*
Y1716327*
X1665327*
Y1716357*
X1665312*
Y1716387*
X1665297*
Y1716416*
X1665282*
Y1716461*
X1665267*
Y1716491*
X1665252*
Y1716521*
X1665237*
Y1716566*
X1665222*
Y1716611*
X1665208*
Y1716655*
X1665193*
Y1716700*
X1665178*
Y1716745*
X1665163*
Y1716805*
X1665148*
Y1716864*
X1665133*
Y1716924*
X1665118*
Y1716999*
X1665103*
Y1717073*
X1665088*
Y1717163*
X1665073*
Y1717282*
X1665058*
Y1717447*
X1665043*
Y1721433*
X1664162*
Y1722547*
X1665118Y1722553*
Y1722583*
X1665133*
Y1722643*
X1665148*
Y1722703*
X1665163*
Y1722747*
X1665178*
Y1722807*
X1665193*
Y1722852*
X1665208*
Y1722912*
X1665222*
Y1722971*
X1665237*
Y1723016*
X1665252*
Y1723076*
X1665267*
Y1723121*
X1665282*
Y1723180*
X1665297*
Y1723240*
X1665312*
Y1723285*
X1665327*
Y1723345*
X1665342*
Y1723389*
X1665357*
Y1723449*
X1665372*
Y1723509*
X1665387*
Y1723554*
X1665402*
Y1723613*
X1665417*
Y1723658*
X1665432*
Y1723718*
X1665446*
Y1723778*
X1665461*
Y1723822*
X1665476*
Y1723882*
X1665491*
Y1723927*
X1665506*
Y1723987*
X1665521*
Y1724046*
X1665536*
Y1724091*
X1665551*
Y1724151*
X1665566*
Y1724196*
X1665581*
Y1724255*
X1665596*
Y1724315*
X1665611*
Y1724360*
X1665626*
Y1724420*
X1665641*
Y1724465*
X1665655*
Y1724524*
X1665670*
Y1724584*
X1665685*
Y1724629*
X1665700*
Y1724688*
X1665700D02*
X1665715D01*
X1665715D02*
Y1724748D01*
X1665730*
Y1724793*
X1665745*
Y1724853*
X1665760*
Y1724898*
X1665775*
Y1724957*
X1665790*
Y1725017*
X1667089*
G54D16*
X1763494Y1720275D02*
Y1716338D01*
Y1720275D02*
X1764721D01*
X1765130Y1720088*
X1765266Y1719900*
X1765403Y1719525*
Y1718963*
X1765266Y1718588*
X1765130Y1718400*
X1764721Y1718213*
X1763494*
X1766630Y1720275D02*
Y1716338D01*
Y1720275D02*
X1767857D01*
X1768266Y1720088*
X1768403Y1719900*
X1768539Y1719525*
Y1719150*
X1768403Y1718775*
X1768266Y1718588*
X1767857Y1718400*
X1766630D02*
X1767857D01*
X1768266Y1718213*
X1768403Y1718025*
X1768539Y1717650*
Y1717088*
X1768403Y1716713*
X1768266Y1716525*
X1767857Y1716338*
X1766630*
X1769766Y1719525D02*
X1770039Y1719713D01*
X1770448Y1720275*
Y1716338*
G54D33*
G54D57*
X1577094Y1788838D02*
Y1811082D01*
X1603275*
X1575394Y1597638D02*
Y1575394D01*
X1601575*
X2149094Y1791238D02*
Y1813482D01*
X2122913*
X2147394Y1600038D02*
Y1577794D01*
X2121213*
G54D83*
X1861691Y1719002D02*
Y1719828D01*
X1859722Y1719002D02*
Y1719828D01*
X1857754Y1719002D02*
Y1719828D01*
X1855785Y1719002D02*
Y1719828D01*
X1853817Y1719002D02*
Y1719828D01*
X1851848Y1719002D02*
Y1719828D01*
X1849880Y1719002D02*
Y1719828D01*
X1847911Y1719002D02*
Y1719828D01*
X1818459Y1701664D02*
X1819285D01*
X1818459Y1703633D02*
X1819285D01*
X1816914Y1680852D02*
X1817740D01*
X1816914Y1682821D02*
X1817740D01*
G54D84*
X1840273Y1712900D02*
X1844210D01*
X1830273D02*
X1834210D01*
X1820273D02*
X1824210D01*
X1810273D02*
X1814210D01*
G54D85*
X1861994Y1714638D02*
X1858894D01*
X1861994D02*
Y1713671D01*
X1861846Y1713349*
X1861699Y1713242*
X1861404Y1713135*
X1861108*
X1860813Y1713242*
X1860665Y1713349*
X1860518Y1713671*
Y1714638*
Y1713886D02*
X1858894Y1713135D01*
X1861404Y1712168D02*
X1861551Y1711953D01*
X1861994Y1711631*
X1858894*
X1861256Y1710558D02*
X1861404D01*
X1861699Y1710450*
X1861846Y1710343*
X1861994Y1710128*
Y1709699*
X1861846Y1709484*
X1861699Y1709377*
X1861404Y1709269*
X1861108*
X1860813Y1709377*
X1860370Y1709591*
X1858894Y1710665*
Y1709162*
X1857994Y1714638D02*
X1854894D01*
X1857994D02*
Y1713671D01*
X1857846Y1713349*
X1857699Y1713242*
X1857404Y1713135*
X1857108*
X1856813Y1713242*
X1856665Y1713349*
X1856518Y1713671*
Y1714638*
Y1713886D02*
X1854894Y1713135D01*
X1857404Y1712168D02*
X1857551Y1711953D01*
X1857994Y1711631*
X1854894*
X1857994Y1710450D02*
Y1709269D01*
X1856813Y1709913*
Y1709591*
X1856665Y1709377*
X1856518Y1709269*
X1856075Y1709162*
X1855780*
X1855337Y1709269*
X1855041Y1709484*
X1854894Y1709806*
Y1710128*
X1855041Y1710450*
X1855189Y1710558*
X1855484Y1710665*
X1854194Y1714538D02*
X1851094D01*
X1854194D02*
Y1713571D01*
X1854046Y1713249*
X1853899Y1713142*
X1853604Y1713035*
X1853308*
X1853013Y1713142*
X1852865Y1713249*
X1852718Y1713571*
Y1714538*
Y1713786D02*
X1851094Y1713035D01*
X1853604Y1712068D02*
X1853751Y1711853D01*
X1854194Y1711531*
X1851094*
X1854194Y1709491D02*
X1852127Y1710565D01*
Y1708954*
X1854194Y1709491D02*
X1851094D01*
X1849894Y1714538D02*
X1846794D01*
X1849894D02*
Y1713571D01*
X1849746Y1713249*
X1849599Y1713142*
X1849304Y1713035*
X1849008*
X1848713Y1713142*
X1848565Y1713249*
X1848418Y1713571*
Y1714538*
Y1713786D02*
X1846794Y1713035D01*
X1849304Y1712068D02*
X1849451Y1711853D01*
X1849894Y1711531*
X1846794*
X1849894Y1709169D02*
Y1710243D01*
X1848565Y1710350*
X1848713Y1710243*
X1848861Y1709921*
Y1709599*
X1848713Y1709277*
X1848418Y1709062*
X1847975Y1708954*
X1847680Y1709062*
X1847237Y1709169*
X1846941Y1709384*
X1846794Y1709706*
Y1710028*
X1846941Y1710350*
X1847089Y1710458*
X1847384Y1710565*
X1839092Y1728598D02*
Y1725498D01*
Y1728598D02*
X1839844D01*
X1840166Y1728450*
X1840381Y1728155*
X1840488Y1727860*
X1840595Y1727417*
Y1726679*
X1840488Y1726236*
X1840381Y1725941*
X1840166Y1725645*
X1839844Y1725498*
X1839092*
X1841562Y1728598D02*
Y1725498D01*
X1842850*
X1844890Y1728598D02*
X1843817Y1726531D01*
X1845427*
X1844890Y1728598D02*
Y1725498D01*
X1829092Y1728598D02*
Y1725498D01*
Y1728598D02*
X1829844D01*
X1830166Y1728450*
X1830381Y1728155*
X1830488Y1727860*
X1830595Y1727417*
Y1726679*
X1830488Y1726236*
X1830381Y1725941*
X1830166Y1725645*
X1829844Y1725498*
X1829092*
X1831562Y1728598D02*
Y1725498D01*
X1832850*
X1834031Y1728598D02*
X1835212D01*
X1834568Y1727417*
X1834890*
X1835105Y1727269*
X1835212Y1727122*
X1835320Y1726679*
Y1726383*
X1835212Y1725941*
X1834998Y1725645*
X1834676Y1725498*
X1834353*
X1834031Y1725645*
X1833924Y1725793*
X1833817Y1726088*
X1819092Y1728598D02*
Y1725498D01*
Y1728598D02*
X1819844D01*
X1820166Y1728450*
X1820381Y1728155*
X1820488Y1727860*
X1820595Y1727417*
Y1726679*
X1820488Y1726236*
X1820381Y1725941*
X1820166Y1725645*
X1819844Y1725498*
X1819092*
X1821562Y1728598D02*
Y1725498D01*
X1822850*
X1823924Y1727860D02*
Y1728007D01*
X1824031Y1728303*
X1824139Y1728450*
X1824353Y1728598*
X1824783*
X1824998Y1728450*
X1825105Y1728303*
X1825212Y1728007*
Y1727712*
X1825105Y1727417*
X1824890Y1726974*
X1823817Y1725498*
X1825320*
X1818304Y1706900D02*
X1818197Y1707195D01*
X1817982Y1707491*
X1817767Y1707638*
X1817338*
X1817123Y1707491*
X1816908Y1707195*
X1816801Y1706900*
X1816694Y1706457*
Y1705719*
X1816801Y1705276*
X1816908Y1704981*
X1817123Y1704685*
X1817338Y1704538*
X1817767*
X1817982Y1704685*
X1818197Y1704981*
X1818304Y1705276*
X1819485Y1707638D02*
X1820666D01*
X1820666D02*
X1820022Y1706457D01*
X1820344*
X1820559Y1706309*
X1820666Y1706162*
X1820666D02*
X1820774Y1705719D01*
Y1705424*
X1820666Y1704981*
X1820666D02*
X1820452Y1704685D01*
X1820130Y1704538*
X1819808*
X1819485Y1704685*
X1819378Y1704833*
X1819271Y1705128*
X1811704Y1683900D02*
X1811597Y1684195D01*
X1811382Y1684491*
X1811167Y1684638*
X1810738*
X1810523Y1684491*
X1810308Y1684195*
X1810201Y1683900*
X1810094Y1683457*
Y1682719*
X1810201Y1682276*
X1810308Y1681981*
X1810523Y1681685*
X1810738Y1681538*
X1811167*
X1811382Y1681685*
X1811597Y1681981*
X1811704Y1682276*
X1812671Y1684048D02*
X1812885Y1684195D01*
X1813208Y1684638*
Y1681538*
X1809092Y1728598D02*
Y1725498D01*
Y1728598D02*
X1809844D01*
X1810166Y1728450*
X1810381Y1728155*
X1810488Y1727860*
X1810595Y1727417*
Y1726679*
X1810488Y1726236*
X1810381Y1725941*
X1810166Y1725645*
X1809844Y1725498*
X1809092*
X1811562Y1728598D02*
Y1725498D01*
X1812850*
X1813817Y1728007D02*
X1814031Y1728155D01*
X1814353Y1728598*
Y1725498*
X1812394Y1700638D02*
Y1698424D01*
X1812501Y1697981*
X1812716Y1697685*
X1813038Y1697538*
X1813253*
X1813575Y1697685*
X1813790Y1697981*
X1813897Y1698424*
Y1700638*
X1814863Y1700048D02*
X1815078Y1700195D01*
X1815400Y1700638*
Y1697538*
X1678837Y1682405D02*
X1679624D01*
X1679195Y1681617*
X1679410*
X1679553Y1681519*
X1679624Y1681420*
X1679696Y1681125*
Y1680928*
X1679624Y1680633*
X1679481Y1680436*
X1679266Y1680338*
X1679052*
X1678837Y1680436*
X1678765Y1680535*
X1678694Y1680731*
X1680412Y1680535D02*
X1680340Y1680436D01*
X1680412Y1680338*
X1680483Y1680436*
X1680412Y1680535*
X1681271Y1682405D02*
X1682058D01*
X1681629Y1681617*
X1681843*
X1681986Y1681519*
X1682058Y1681420*
X1682130Y1681125*
Y1680928*
X1682058Y1680633*
X1681915Y1680436*
X1681700Y1680338*
X1681485*
X1681271Y1680436*
X1681199Y1680535*
X1681127Y1680731*
X1682774Y1682405D02*
X1683347Y1680338D01*
X1683919Y1682405D02*
X1683347Y1680338D01*
X1689594Y1682246D02*
Y1680438D01*
Y1682246D02*
X1690095Y1680438D01*
X1690596Y1682246D02*
X1690095Y1680438D01*
X1690596Y1682246D02*
Y1680438D01*
X1692099Y1681816D02*
X1692036Y1681988D01*
X1691911Y1682160*
X1691786Y1682246*
X1691535*
X1691410Y1682160*
X1691285Y1681988*
X1691222Y1681816*
X1691160Y1681557*
Y1681127*
X1691222Y1680868*
X1691285Y1680696*
X1691410Y1680524*
X1691535Y1680438*
X1691786*
X1691911Y1680524*
X1692036Y1680696*
X1692099Y1680868*
X1692663Y1682246D02*
Y1680438D01*
X1693414*
X1693978Y1682246D02*
Y1680438D01*
Y1682246D02*
X1694542D01*
X1694730Y1682160*
X1694792Y1682074*
X1694855Y1681902*
Y1681730*
X1694792Y1681557*
X1694730Y1681471*
X1694542Y1681385*
X1693978*
X1694417D02*
X1694855Y1680438D01*
X1700094Y1682505D02*
Y1680438D01*
Y1682505D02*
X1700738D01*
X1700953Y1682406*
X1701024Y1682308*
X1701096Y1682111*
Y1681816*
X1701024Y1681619*
X1700953Y1681520*
X1700738Y1681422*
X1700094*
X1702814Y1682013D02*
X1702742Y1682209D01*
X1702599Y1682406*
X1702456Y1682505*
X1702170*
X1702026Y1682406*
X1701883Y1682209*
X1701812Y1682013*
X1701740Y1681717*
Y1681225*
X1701812Y1680930*
X1701883Y1680733*
X1702026Y1680536*
X1702170Y1680438*
X1702456*
X1702599Y1680536*
X1702742Y1680733*
X1702814Y1680930*
Y1681225*
X1702456D02*
X1702814D01*
X1704532Y1682013D02*
X1704460Y1682209D01*
X1704317Y1682406*
X1704174Y1682505*
X1703888*
X1703744Y1682406*
X1703601Y1682209*
X1703530Y1682013*
X1703458Y1681717*
Y1681225*
X1703530Y1680930*
X1703601Y1680733*
X1703744Y1680536*
X1703888Y1680438*
X1704174*
X1704317Y1680536*
X1704460Y1680733*
X1704532Y1680930*
X1710294Y1682505D02*
Y1680438D01*
Y1682505D02*
X1710938D01*
X1711153Y1682406*
X1711224Y1682308*
X1711296Y1682111*
Y1681816*
X1711224Y1681619*
X1711153Y1681520*
X1710938Y1681422*
X1710294*
X1713014Y1682013D02*
X1712942Y1682209D01*
X1712799Y1682406*
X1712656Y1682505*
X1712370*
X1712226Y1682406*
X1712083Y1682209*
X1712012Y1682013*
X1711940Y1681717*
Y1681225*
X1712012Y1680930*
X1712083Y1680733*
X1712226Y1680536*
X1712370Y1680438*
X1712656*
X1712799Y1680536*
X1712942Y1680733*
X1713014Y1680930*
Y1681225*
X1712656D02*
X1713014D01*
X1713658Y1682505D02*
Y1680438D01*
Y1682505D02*
X1714159D01*
X1714374Y1682406*
X1714517Y1682209*
X1714589Y1682013*
X1714660Y1681717*
Y1681225*
X1714589Y1680930*
X1714517Y1680733*
X1714374Y1680536*
X1714159Y1680438*
X1713658*
X1721167Y1682113D02*
X1721096Y1682309D01*
X1720953Y1682506*
X1720810Y1682605*
X1720523*
X1720380Y1682506*
X1720237Y1682309*
X1720165Y1682113*
X1720094Y1681817*
Y1681325*
X1720165Y1681030*
X1720237Y1680833*
X1720380Y1680636*
X1720523Y1680538*
X1720810*
X1720953Y1680636*
X1721096Y1680833*
X1721167Y1681030*
Y1681325*
X1720810D02*
X1721167D01*
X1721812Y1682605D02*
Y1680538D01*
Y1682605D02*
X1722814Y1680538D01*
Y1682605D02*
Y1680538D01*
X1723458Y1682605D02*
Y1680538D01*
Y1682605D02*
X1723959D01*
X1724174Y1682506*
X1724317Y1682309*
X1724389Y1682113*
X1724460Y1681817*
Y1681325*
X1724389Y1681030*
X1724317Y1680833*
X1724174Y1680636*
X1723959Y1680538*
X1723458*
G54D86*
X1678794Y1721038D02*
X1694394D01*
Y1716538*
X1678794*
Y1721038*
G74*
X0Y0D02*
M02*
