G04 CAM350 V8.0.4 (Build 46) Date:  Tue Jul 07 13:41:52 2015 *
G04 Database: F:\gerber originali_07-07-15\BAT_07-07-15.cam *
G04 Layer 10: bat.in2 *
%FSLAX34Y34*%
%MOIN*%
%SFA1.000B1.000*%

%MIA0B0*%
%IPPOS*%
%ADD25C,0.06300*%
%ADD72C,0.01000*%
%ADD33C,0.12000*%
%ADD34C,0.10000*%
%ADD56C,0.02600*%
%ADD57C,0.06000*%
%ADD59C,0.00800*%
%ADD60C,0.00000*%
%ADD64C,0.01500*%
%ADD66C,0.02500*%
%ADD68C,0.06000*%
%LNbat.in2*%
%LPD*%
G54D25*
X23180Y11820D03*
X24180D03*
G54D33*
X22832Y1556D03*
X17476D03*
X29912D03*
X24556D03*
G54D34*
X20980Y3540D03*
X19328D03*
X20980Y1377D03*
X19328D03*
X28060Y3540D03*
X26408D03*
X28060Y1377D03*
X26408D03*
G54D56*
X9520Y10800D03*
X12480Y13040D03*
X32160Y6400D03*
X38560Y10720D03*
X26240Y12160D03*
X5840Y23120D03*
X37680Y27360D03*
X28800Y26960D03*
X13840Y16080D03*
X31280Y2160D03*
X13920Y12800D03*
X13520Y15360D03*
X16080Y10320D03*
X6640Y16160D03*
X10240Y19200D03*
X18080Y17280D03*
X17440Y14640D03*
X14560Y10240D03*
X12000Y7440D03*
X12960Y11200D03*
X30880Y3040D03*
X14560Y11360D03*
X28560Y16080D03*
X25760Y15520D03*
X9520Y11920D03*
X8480Y13520D03*
X14880Y14960D03*
X15200Y10160D03*
X16160Y12240D03*
X17520Y12320D03*
X11440Y20400D03*
X19760Y12080D03*
X14320Y4960D03*
X9360Y3440D03*
X21600Y11600D03*
X44480Y17360D03*
X9920Y22080D03*
X9520Y22560D03*
X14400Y28880D03*
X11680Y18880D03*
X9280Y18640D03*
X5040D03*
X15520Y9760D03*
X7040Y8560D03*
X9920Y10800D03*
X13520Y12880D03*
X12320Y12720D03*
X24960Y11120D03*
X17200Y12560D03*
X16380Y13060D03*
X40000Y5080D03*
X43200Y6160D03*
X9520Y24960D03*
Y26400D03*
X5600D03*
X4560Y8080D03*
X11040Y4960D03*
X12960Y9600D03*
X11360Y11200D03*
X8880Y25680D03*
X12960Y6720D03*
X29920Y10400D03*
X27840Y11440D03*
X22240Y26480D03*
X15200Y19840D03*
X15680Y21200D03*
X30400Y10240D03*
X15440Y6640D03*
X11200Y25280D03*
X9920Y25680D03*
X30160Y17600D03*
X28160Y26560D03*
X36640Y15920D03*
X39280Y16160D03*
X38400Y17520D03*
X42160Y10720D03*
X26240Y11360D03*
X38880Y15920D03*
X37120Y15840D03*
X12400Y26560D03*
X44800Y18880D03*
X6800Y7440D03*
X10240Y4400D03*
X6720Y5440D03*
X18480Y17440D03*
X37120Y15440D03*
X40560Y26960D03*
X29360Y10960D03*
X10720Y22240D03*
X12400Y18960D03*
X13920Y26400D03*
X16880Y23760D03*
X16560Y20400D03*
X15040Y16560D03*
X37042Y8798D03*
X42160Y10320D03*
X13200Y26480D03*
X16560Y23280D03*
X15760Y19760D03*
X14640Y16640D03*
X24960Y4160D03*
X15200Y6240D03*
X10880Y26560D03*
Y27200D03*
X10320Y15840D03*
X16400Y18640D03*
X31520Y15680D03*
X10560Y27520D03*
X40800Y18320D03*
X39680Y16720D03*
X11120Y22240D03*
X15200Y18480D03*
X7200Y5120D03*
X10880Y25920D03*
X8560Y3120D03*
X7680Y15120D03*
X38080Y17280D03*
X37680Y18960D03*
X22320Y11200D03*
X23680Y10000D03*
X22240Y4640D03*
X3760Y4320D03*
X18080Y13040D03*
X17200Y14320D03*
X9280Y23360D03*
X38080Y18320D03*
X38800D03*
X10960Y18800D03*
X8800Y18720D03*
X8880Y17280D03*
X6160Y18400D03*
X16880Y11200D03*
X14960Y12960D03*
X12080Y13360D03*
X8960Y6160D03*
X11360Y6320D03*
X12480Y13440D03*
X32480Y28000D03*
X44160Y29200D03*
X11840Y6320D03*
X12640Y13760D03*
X14880Y7120D03*
X14400Y9280D03*
X15360Y12400D03*
X32480Y16160D03*
X35840D03*
X18320Y18800D03*
X16880Y14000D03*
X18160Y18000D03*
X16560D03*
X3840Y22160D03*
X7120Y24160D03*
X13600Y9360D03*
X10400Y21840D03*
X12000Y18960D03*
X9120Y28560D03*
X8480Y27040D03*
X8880Y23360D03*
X40160Y18720D03*
X41120Y16160D03*
X30160Y14480D03*
X18560Y13360D03*
X29520Y19520D03*
X37440Y21520D03*
X12320Y15760D03*
X7680Y11920D03*
X10640Y14560D03*
X12560Y15040D03*
X10880Y23120D03*
X11760Y13440D03*
X8240Y6080D03*
X8640Y4560D03*
X9040Y10800D03*
X7200Y11200D03*
X10320Y14800D03*
X7440Y24480D03*
X6080Y20560D03*
X12320Y15280D03*
X9920Y23200D03*
X10480Y22960D03*
X12320Y14800D03*
X7920Y5440D03*
X4080Y10320D03*
X9920Y22800D03*
X12560Y15520D03*
X14320Y15360D03*
X14080Y13440D03*
X13280D03*
X11840Y6880D03*
X11440Y13520D03*
X7520Y6160D03*
X8540Y10780D03*
X6720Y10720D03*
X8480Y14960D03*
X6720Y24080D03*
X4160Y21920D03*
X11120Y13600D03*
X7520Y11520D03*
X9600Y28560D03*
X13040Y27280D03*
X5040Y10640D03*
X14560Y15040D03*
X20640Y15920D03*
Y14880D03*
X12560Y16000D03*
X25040Y12080D03*
X24560Y14000D03*
X13440Y26800D03*
X24100Y10980D03*
X35840Y7360D03*
X31060Y18300D03*
X35120Y16400D03*
X14080Y21360D03*
X13840D03*
X13600D03*
X13360D03*
X9440Y22080D03*
X10080Y21280D03*
X15440Y28960D03*
X12720Y29040D03*
X16320Y9760D03*
X33606Y5606D03*
X23840Y4560D03*
X23440D03*
X16320Y13440D03*
X14960Y9760D03*
X21520Y17280D03*
X18240Y14080D03*
X23200Y15280D03*
X22360Y14880D03*
X19280Y10640D03*
X8560Y7120D03*
X5920Y7360D03*
X6480Y9600D03*
X4240D03*
X9840Y4560D03*
X10720Y5680D03*
X11820Y5800D03*
X12877Y4637D03*
X13520Y5840D03*
X14080Y7520D03*
X7380Y24960D03*
X36160Y6080D03*
Y6400D03*
X16000Y18720D03*
X15020Y15580D03*
X40740Y16720D03*
X15680Y9360D03*
X15640Y8900D03*
X30960Y16080D03*
Y16480D03*
X32080Y16800D03*
X33160Y17820D03*
X38880Y18720D03*
X37880Y17960D03*
X40040Y5460D03*
X33200Y4960D03*
X33600D03*
X35120Y5200D03*
Y5520D03*
X34000Y4960D03*
X40560Y9360D03*
X37040Y8080D03*
X5360Y5760D03*
Y4160D03*
X5440Y2720D03*
X8640Y3840D03*
X17760Y17600D03*
X12800Y26980D03*
X12080Y27840D03*
Y27200D03*
X12000Y26560D03*
X9300Y22960D03*
G54D57*
X36400Y11600D03*
X42640Y6560D03*
X8800Y29120D03*
X38000Y28800D03*
X44480Y27840D03*
X25920Y26640D03*
X26280Y13120D03*
X33920Y10480D03*
X38780Y9420D03*
X37840Y5300D03*
X36160Y20160D03*
X14480Y26960D03*
X21420Y22100D03*
X21600Y27600D03*
X19700Y27540D03*
X22880Y26800D03*
X24500D03*
X21340Y16080D03*
X19260Y12820D03*
X4100Y19580D03*
X4560Y19100D03*
X4880Y16160D03*
X4240D03*
Y15600D03*
X4880D03*
X5620D03*
X7840Y29200D03*
X5920Y28680D03*
X4000Y25200D03*
X19360Y16080D03*
X24980Y17720D03*
X29240Y15980D03*
X28929Y17551D03*
X43440Y9600D03*
X40320Y10880D03*
X38480Y12480D03*
X37680D03*
X39280D03*
X40120Y13620D03*
X40960Y14480D03*
X45276Y11996D03*
X42320Y15760D03*
X45040Y21040D03*
X42960Y22240D03*
X41380Y28780D03*
X45659Y26341D03*
X41920Y23760D03*
X40000Y25760D03*
X30800Y17760D03*
X3840Y13840D03*
Y12960D03*
Y12320D03*
X4320Y11840D03*
X4800Y11360D03*
X2960Y21440D03*
X3440Y20960D03*
X4640Y29680D03*
X16400Y27600D03*
X17040D03*
X15680Y23680D03*
X36000Y21560D03*
X29520Y18640D03*
X25840D03*
X21440Y21200D03*
X42980Y26500D03*
X41360Y20560D03*
X42160Y11600D03*
X42640Y12080D03*
X43120Y12560D03*
X42240Y13180D03*
X41400Y12340D03*
X34560Y8800D03*
Y8000D03*
X35680Y8440D03*
X40400Y22400D03*
X39960Y22980D03*
X33680Y16120D03*
X34770Y11630D03*
X33680Y12640D03*
X30960Y11920D03*
X37600Y23120D03*
Y23760D03*
X37280Y26400D03*
Y25760D03*
Y25120D03*
X37240Y24520D03*
X28710Y21590D03*
X25840Y21680D03*
Y21040D03*
X30860Y21440D03*
X31460D03*
X32080D03*
X18160Y21680D03*
X17440D03*
X16240Y25620D03*
Y26380D03*
X16020Y22800D03*
X22960Y5280D03*
X24400D03*
X23680D03*
Y5920D03*
Y6560D03*
Y7200D03*
Y7840D03*
Y8480D03*
Y9120D03*
X20640Y4560D03*
X19840D03*
X19280Y5120D03*
X18720Y5680D03*
Y7040D03*
X18060Y7020D03*
X29200Y9200D03*
X28720Y8640D03*
Y7680D03*
Y7040D03*
Y6400D03*
Y5360D03*
X28280Y4920D03*
X27660Y4720D03*
X26900Y4700D03*
G54D59*
X28560Y16080D02*
G01X26560D01*
X26000Y15520*
X25760*
X14880Y14960D02*
G01Y13600D01*
X15440Y13040*
X16360*
X16380Y13060*
X9280Y18640D02*
G01Y19040D01*
X9760Y19520*
X11040*
X11680Y18880*
X9280Y18640D02*
G01X8400Y17760D01*
X5520*
X5040Y18240*
Y18640*
X17200Y12560D02*
G01X17040D01*
X15520Y11040*
Y9760*
X7040Y8560D02*
G01X9040D01*
X9920Y9440*
Y10800*
X13520Y12880D02*
G01X13360Y12720D01*
X12320*
X12960Y9600D02*
G01X11360Y11200D01*
X27840Y11440D02*
G01Y12960D01*
X23840Y16960*
Y24880*
X22240Y26480*
X30160Y17600D02*
G01Y17760D01*
X29840Y18080*
X29200*
X28720Y18560*
Y20480*
X29360Y21120*
Y21760*
X28560Y22560*
Y26160*
X28160Y26560*
X10720Y22240D02*
G01X12400Y20560D01*
Y18960*
X13920Y26400D02*
G01Y24880D01*
X14320Y24480*
X16160*
X16880Y23760*
X16560Y20400D02*
G01Y20080D01*
X15680Y19200*
Y17200*
X15040Y16560*
X13200Y26480D02*
G01Y25360D01*
X14240Y24320*
X16000*
X16560Y23760*
Y23280*
X15760Y19760D02*
G01X15520Y19520D01*
Y17520*
X14640Y16640*
X18320Y18800D02*
G01X16560D01*
X16400Y18640*
X11120Y22240D02*
G01Y22080D01*
X12560Y20640*
Y19200*
X13120Y18640*
X15040*
X15200Y18480*
X38080Y17280D02*
G01Y17600D01*
X38320Y17840*
Y18560*
X37920Y18960*
X37680*
X10400Y21840D02*
G01X10880D01*
X12240Y20480*
Y19200*
X12000Y18960*
X29520Y19520D02*
G01Y20880D01*
X30720Y22080*
X36880*
X37440Y21520*
X9040Y10800D02*
G01X8640Y11200D01*
X7200*
X8540Y10780D02*
G01X8440Y10880D01*
X6880*
X6720Y10720*
X16936Y27070D02*
G01Y24126D01*
X10613Y25664D02*
G01X10290D01*
X23560Y24584D02*
G01X16452D01*
X16216Y25081D02*
G01Y24754D01*
X15352Y28601D02*
G01Y24760D01*
X15928Y25179D02*
G01Y24760D01*
X23560Y23144D02*
G01X16904D01*
X23560Y24512D02*
G01X16524D01*
X10559Y25736D02*
G01X10286D01*
X16648Y25266D02*
G01Y24388D01*
X8565Y25232D02*
G01X7631D01*
X13336Y24828D02*
G01Y22640D01*
X15758Y25376D02*
G01X14200D01*
X12904Y27845D02*
G01Y27624D01*
X12833Y26528D02*
G01X12769D01*
X6712Y28712D02*
G01Y24450D01*
X15136Y30075D02*
G01Y29171D01*
X14200Y26158D02*
G01Y24996D01*
X15767Y25880D02*
G01X14200D01*
X7129Y25232D02*
G01X6640D01*
X17224Y27092D02*
G01Y23897D01*
X35920Y26312D02*
G01X24731D01*
X16288Y25082D02*
G01Y24729D01*
X15713Y25736D02*
G01X14200D01*
X13003Y25161D02*
G01X14042Y24122D01*
X8648Y23648D02*
G01X8093D01*
X23560Y23576D02*
G01X17201D01*
X15784Y25331D02*
G01Y24760D01*
X8282Y24728D02*
G01X7715D01*
X23560Y23792D02*
G01X17249D01*
X16864Y27090D02*
G01Y24172D01*
X15208Y28672D02*
G01Y24760D01*
X23560Y23720D02*
G01X17248D01*
X23560Y23432D02*
G01X17051D01*
X10194Y27464D02*
G01X9835D01*
X9205Y26672D02*
G01X8517D01*
X9205Y27608D02*
G01X6640D01*
X10384Y27195D02*
G01Y23317D01*
X11320Y27845D02*
G01Y25630D01*
X11711Y27176D02*
G01X11249D01*
X11764Y27392D02*
G01X11196D01*
X9205D02*
G01X8594D01*
X12920Y25592D02*
G01X11399D01*
X7010Y23285D02*
G01X6783Y23057D01*
X7470Y23915D02*
G01X7397D01*
X6928Y28928D02*
G01Y24476D01*
X7114Y24656D02*
G01X6640D01*
X35920Y28112D02*
G01X32833D01*
X15483Y22856D02*
G01X11139D01*
X9442Y27968D02*
G01X6640D01*
X8773Y28688D02*
G01X8011D01*
X10168Y25405D02*
G01Y23475D01*
X16144Y25089D02*
G01Y24760D01*
X8138Y24584D02*
G01X7795D01*
X14128Y24063D02*
G01Y22640D01*
X32703Y29760D02*
G01Y28295D01*
X7864Y23418D02*
G01Y22640D01*
X9808Y24728D02*
G01Y23553D01*
X15504Y22640D02*
G01X10666D01*
X15518Y23000D02*
G01X11230D01*
X10744Y22701D02*
G01Y22640D01*
X10816Y22756D02*
G01Y22640D01*
X10312Y27245D02*
G01Y23290D01*
X28715Y26600D02*
G01X25002D01*
X7936Y28669D02*
G01Y24381D01*
X9952Y27586D02*
G01Y26049D01*
X7006Y24512D02*
G01X6640D01*
X19168Y28880D02*
G01Y27631D01*
X10024Y30075D02*
G01Y28470D01*
X9304Y30075D02*
G01Y28881D01*
X12431Y26960D02*
G01X12361D01*
X19301Y27176D02*
G01X17374D01*
X13940Y26960D02*
G01X13774D01*
X10511Y25952D02*
G01X10171D01*
X9205Y26600D02*
G01X6640D01*
X35920Y26024D02*
G01X23092D01*
X35920Y24800D02*
G01X24120D01*
X7322Y29048D02*
G01X7048D01*
X8354Y24800D02*
G01X7714D01*
X14077Y27320D02*
G01X13408D01*
X14344Y26437D02*
G01Y24852D01*
X16072Y27171D02*
G01Y26893D01*
X16576Y30075D02*
G01Y28111D01*
X15487Y22712D02*
G01X10755D01*
X14488Y26420D02*
G01Y24760D01*
X15208Y24040D02*
G01Y23942D01*
X12920Y25664D02*
G01X11147D01*
X16576Y22910D02*
G01Y22640D01*
X17872Y28920D02*
G01Y22640D01*
X15277Y24040D02*
G01X14240D01*
X12831Y26456D02*
G01X12755D01*
X12850Y26600D02*
G01X12768D01*
X14156Y27392D02*
G01X13393D01*
X11824Y30075D02*
G01Y28475D01*
X10960Y30075D02*
G01Y28475D01*
X9150Y26384D02*
G01X6640D01*
X12400Y30075D02*
G01Y29225D01*
X12214Y26240D02*
G01X12186D01*
X11752Y27029D02*
G01Y26834D01*
X15604Y23144D02*
G01X11249D01*
X10309Y23288D02*
G01X10279D01*
X8800Y28374D02*
G01Y27226D01*
X17896Y28904D02*
G01X15806D01*
X35920Y29120D02*
G01Y22640D01*
X12920Y25736D02*
G01X11201D01*
X8795Y23000D02*
G01X6840D01*
X32271Y29760D02*
G01Y28306D01*
X7360Y28953D02*
G01Y25329D01*
X7936Y29936D02*
G01Y29731D01*
X17511Y29264D02*
G01X15651D01*
X29920Y28880D02*
G01X17920D01*
X30800Y29760D02*
G01X29920Y28880D01*
X36320Y29760D02*
G01X30800D01*
X36375D02*
G01Y29575D01*
X36303Y29760D02*
G01Y29503D01*
X36231Y29760D02*
G01Y29431D01*
X36159Y29760D02*
G01Y29359D01*
X36087Y29760D02*
G01Y29287D01*
X36015Y29760D02*
G01Y29215D01*
X35943Y29760D02*
G01Y29143D01*
X35871Y29760D02*
G01Y22640D01*
X35799Y29760D02*
G01Y22640D01*
X35727Y29760D02*
G01Y22640D01*
X35655Y29760D02*
G01Y22640D01*
X35583Y29760D02*
G01Y22640D01*
X35511Y29760D02*
G01Y22640D01*
X35439Y29760D02*
G01Y22640D01*
X35367Y29760D02*
G01Y22640D01*
X35295Y29760D02*
G01Y22640D01*
X35223Y29760D02*
G01Y22640D01*
X35151Y29760D02*
G01Y22640D01*
X35079Y29760D02*
G01Y22640D01*
X35007Y29760D02*
G01Y22640D01*
X34935Y29760D02*
G01Y22640D01*
X34863Y29760D02*
G01Y22640D01*
X34791Y29760D02*
G01Y22640D01*
X34719Y29760D02*
G01Y22640D01*
X34647Y29760D02*
G01Y22640D01*
X34575Y29760D02*
G01Y22640D01*
X34503Y29760D02*
G01Y22640D01*
X34431Y29760D02*
G01Y22640D01*
X34359Y29760D02*
G01Y22640D01*
X34287Y29760D02*
G01Y22640D01*
X34215Y29760D02*
G01Y22640D01*
X34143Y29760D02*
G01Y22640D01*
X34071Y29760D02*
G01Y22640D01*
X33999Y29760D02*
G01Y22640D01*
X33927Y29760D02*
G01Y22640D01*
X33855Y29760D02*
G01Y22640D01*
X33783Y29760D02*
G01Y22640D01*
X33711Y29760D02*
G01Y22640D01*
X33639Y29760D02*
G01Y22640D01*
X33567Y29760D02*
G01Y22640D01*
X33495Y29760D02*
G01Y22640D01*
X33423Y29760D02*
G01Y22640D01*
X33351Y29760D02*
G01Y22640D01*
X33279Y29760D02*
G01Y22640D01*
X33207Y29760D02*
G01Y22640D01*
X33135Y29760D02*
G01Y22640D01*
X33063Y29760D02*
G01Y22640D01*
X9232Y26168D02*
G01X6640D01*
X32125Y27896D02*
G01X22052D01*
X32847Y27955D02*
G01Y22640D01*
X32775Y27777D02*
G01Y22640D01*
X32703Y27705D02*
G01Y22640D01*
X32631Y27662D02*
G01Y22640D01*
X32559Y27639D02*
G01Y22640D01*
X32487Y27630D02*
G01Y22640D01*
X32415Y27636D02*
G01Y22640D01*
X32343Y27656D02*
G01Y22640D01*
X32271Y27694D02*
G01Y22640D01*
X32199Y29760D02*
G01Y28241D01*
X32127Y27888D02*
G01Y22640D01*
X32055Y29760D02*
G01Y22640D01*
X31983Y29760D02*
G01Y22640D01*
X31911Y29760D02*
G01Y22640D01*
X31839Y29760D02*
G01Y22640D01*
X31767Y29760D02*
G01Y22640D01*
X31695Y29760D02*
G01Y22640D01*
X31623Y29760D02*
G01Y22640D01*
X31551Y29760D02*
G01Y22640D01*
X31479Y29760D02*
G01Y22640D01*
X31407Y29760D02*
G01Y22640D01*
X31335Y29760D02*
G01Y22640D01*
X31263Y29760D02*
G01Y22640D01*
X31191Y29760D02*
G01Y22640D01*
X31119Y29760D02*
G01Y22640D01*
X30975Y29760D02*
G01Y22640D01*
X30903Y29760D02*
G01Y22640D01*
X30831Y29760D02*
G01Y22640D01*
X30759Y29719D02*
G01Y22640D01*
X17367Y29408D02*
G01X12760D01*
X30687Y29647D02*
G01Y22640D01*
X30615Y29575D02*
G01Y22640D01*
X30471Y29431D02*
G01Y22640D01*
X30399Y29359D02*
G01Y22640D01*
X30327Y29287D02*
G01Y22640D01*
X30255Y29215D02*
G01Y22640D01*
X30183Y29143D02*
G01Y22640D01*
X30111Y29071D02*
G01Y22640D01*
X30039Y28999D02*
G01Y22640D01*
X29967Y28927D02*
G01Y22640D01*
X29895Y28880D02*
G01Y22640D01*
X29823Y28880D02*
G01Y22640D01*
X29751Y28880D02*
G01Y22640D01*
X29679Y28880D02*
G01Y22640D01*
X29607Y28880D02*
G01Y22640D01*
X29535Y28880D02*
G01Y22640D01*
X29463Y28880D02*
G01Y22640D01*
X29391Y28880D02*
G01Y22640D01*
X28430Y26960D02*
G01X25016D01*
X35920Y23792D02*
G01X24120D01*
X29031Y26671D02*
G01Y22640D01*
X28959Y26626D02*
G01Y22640D01*
X28887Y26600D02*
G01Y22640D01*
X28815Y26590D02*
G01Y22640D01*
X28743Y26594D02*
G01Y22640D01*
X28671Y26613D02*
G01Y22640D01*
X28599Y26649D02*
G01Y22640D01*
X28527Y28880D02*
G01Y27210D01*
X28455Y26825D02*
G01Y22640D01*
X28383Y28880D02*
G01Y22640D01*
X28311Y28880D02*
G01Y22640D01*
X28239Y28880D02*
G01Y22640D01*
X28167Y28880D02*
G01Y22640D01*
X28095Y28880D02*
G01Y22640D01*
X28023Y28880D02*
G01Y22640D01*
X27951Y28880D02*
G01Y22640D01*
X27879Y28880D02*
G01Y22640D01*
X27807Y28880D02*
G01Y22640D01*
X27735Y28880D02*
G01Y22640D01*
X27663Y28880D02*
G01Y22640D01*
X27591Y28880D02*
G01Y22640D01*
X27519Y28880D02*
G01Y22640D01*
X27447Y28880D02*
G01Y22640D01*
X27375Y28880D02*
G01Y22640D01*
X27303Y28880D02*
G01Y22640D01*
X27231Y28880D02*
G01Y22640D01*
X27159Y28880D02*
G01Y22640D01*
X27087Y28880D02*
G01Y22640D01*
X27015Y28880D02*
G01Y22640D01*
X26943Y28880D02*
G01Y22640D01*
X26871Y28880D02*
G01Y22640D01*
X26799Y28880D02*
G01Y22640D01*
X26727Y28880D02*
G01Y22640D01*
X26655Y28880D02*
G01Y22640D01*
X26583Y28880D02*
G01Y22640D01*
X26511Y28880D02*
G01Y22640D01*
X26439Y28880D02*
G01Y22640D01*
X26367Y28880D02*
G01Y22640D01*
X26295Y28880D02*
G01Y22640D01*
X26223Y28880D02*
G01Y22640D01*
X26151Y28880D02*
G01Y22640D01*
X26079Y28880D02*
G01Y22640D01*
X26007Y28880D02*
G01Y22640D01*
X25935Y28880D02*
G01Y22640D01*
X25863Y28880D02*
G01Y22640D01*
X25791Y28880D02*
G01Y22640D01*
X25719Y28880D02*
G01Y22640D01*
X25647Y28880D02*
G01Y22640D01*
X25575Y28880D02*
G01Y22640D01*
X25503Y28880D02*
G01Y22640D01*
X25431Y28880D02*
G01Y22640D01*
X24120Y24880D02*
G01Y22640D01*
X25287Y28880D02*
G01Y22640D01*
X25215Y28880D02*
G01Y22640D01*
X21890Y26600D02*
G01X16733D01*
X25071Y28880D02*
G01Y22640D01*
X24999Y26595D02*
G01Y22640D01*
X24927Y26470D02*
G01Y22640D01*
X24855Y26394D02*
G01Y22640D01*
X24784Y26340D02*
G01Y22640D01*
X24711Y26303D02*
G01Y22640D01*
X24639Y26278D02*
G01Y22640D01*
X24567Y26264D02*
G01Y22640D01*
X24496Y26260D02*
G01Y22640D01*
X24424Y26265D02*
G01Y22640D01*
X24351Y26281D02*
G01Y22640D01*
X24279Y26307D02*
G01Y22640D01*
X24208Y26346D02*
G01Y22640D01*
X35920Y23360D02*
G01X24120D01*
X35920Y22856D02*
G01X24120D01*
X35920Y22928D02*
G01X24120D01*
X35920Y23000D02*
G01X24120D01*
X35920Y22640D02*
G01X24120D01*
X35920Y23072D02*
G01X24120D01*
X24136Y26402D02*
G01Y22640D01*
X35920Y22712D02*
G01X24120D01*
X22855Y26261D02*
G01X24038Y25078D01*
X35920Y25520D02*
G01X23596D01*
X23488Y24836D02*
G01Y22640D01*
X23416Y24908D02*
G01Y22640D01*
X23344Y24980D02*
G01Y22640D01*
X23272Y25052D02*
G01Y22640D01*
X23200Y25124D02*
G01Y22640D01*
X23128Y25196D02*
G01Y22640D01*
X23056Y25268D02*
G01Y22640D01*
X22984Y25340D02*
G01Y22640D01*
X22912Y25412D02*
G01Y22640D01*
X22840Y25484D02*
G01Y22640D01*
X22768Y25556D02*
G01Y22640D01*
X24064Y26482D02*
G01Y25049D01*
X22696Y25628D02*
G01Y22640D01*
X22552Y25772D02*
G01Y22640D01*
X22480Y25844D02*
G01Y22640D01*
X22408Y25916D02*
G01Y22640D01*
X8869Y28832D02*
G01X8235D01*
X22264Y26060D02*
G01Y22640D01*
X22192Y26113D02*
G01Y22640D01*
X22120Y26130D02*
G01Y22640D01*
X22048Y26164D02*
G01Y22640D01*
X21904Y26326D02*
G01Y22640D01*
X21832Y27112D02*
G01Y22640D01*
X21760Y27084D02*
G01Y22640D01*
X21102Y27392D02*
G01X20219D01*
X7085Y24584D02*
G01X6640D01*
X21544Y27063D02*
G01Y22640D01*
X21472Y27075D02*
G01Y22640D01*
X21400Y27099D02*
G01Y22640D01*
X21328Y27134D02*
G01Y22640D01*
X21256Y27184D02*
G01Y22640D01*
X19312Y28880D02*
G01Y27915D01*
X21112Y27370D02*
G01Y22640D01*
X21040Y28880D02*
G01Y22640D01*
X20968Y28880D02*
G01Y22640D01*
X20896Y28880D02*
G01Y22640D01*
X20824Y28880D02*
G01Y22640D01*
X20752Y28880D02*
G01Y22640D01*
X20680Y28880D02*
G01Y22640D01*
X20608Y28880D02*
G01Y22640D01*
X20536Y28880D02*
G01Y22640D01*
X20464Y28880D02*
G01Y22640D01*
X20392Y28880D02*
G01Y22640D01*
X19181Y27392D02*
G01X17538D01*
X20248Y28880D02*
G01Y22640D01*
X20176Y27284D02*
G01Y22640D01*
X20104Y27181D02*
G01Y22640D01*
X20032Y27114D02*
G01Y22640D01*
X19960Y27066D02*
G01Y22640D01*
X19888Y27034D02*
G01Y22640D01*
X19816Y27013D02*
G01Y22640D01*
X19744Y27002D02*
G01Y22640D01*
X19672Y27001D02*
G01Y22640D01*
X19600Y27009D02*
G01Y22640D01*
X19528Y27028D02*
G01Y22640D01*
X19456Y27058D02*
G01Y22640D01*
X19384Y27102D02*
G01Y22640D01*
X19312Y27165D02*
G01Y22640D01*
X19240Y28880D02*
G01Y27822D01*
X19168Y27449D02*
G01Y22640D01*
X19096Y28880D02*
G01Y22640D01*
X19024Y28880D02*
G01Y22640D01*
X18952Y28880D02*
G01Y22640D01*
X18880Y28880D02*
G01Y22640D01*
X18808Y28880D02*
G01Y22640D01*
X18736Y28880D02*
G01Y22640D01*
X18664Y28880D02*
G01Y22640D01*
X18592Y28880D02*
G01Y22640D01*
X18520Y28880D02*
G01Y22640D01*
X18448Y28880D02*
G01Y22640D01*
X18376Y28880D02*
G01Y22640D01*
X18304Y28880D02*
G01Y22640D01*
X18232Y28880D02*
G01Y22640D01*
X18160Y28880D02*
G01Y22640D01*
X18088Y28880D02*
G01Y22640D01*
X17800Y28975D02*
G01Y22640D01*
X17728Y29047D02*
G01Y22640D01*
X17584Y29191D02*
G01Y22640D01*
X17512Y27337D02*
G01Y22640D01*
X17440Y27237D02*
G01Y22640D01*
X17368Y27171D02*
G01Y22640D01*
X10527Y25808D02*
G01X10267D01*
X17296Y27124D02*
G01Y22640D01*
X17224Y23623D02*
G01Y22640D01*
X17152Y23509D02*
G01Y22640D01*
X17080Y23449D02*
G01Y22640D01*
X22300Y26024D02*
G01X16646D01*
X16864Y23069D02*
G01Y22640D01*
X16792Y22992D02*
G01Y22640D01*
X16720Y22946D02*
G01Y22640D01*
X16648Y22921D02*
G01Y22640D01*
X23560Y23216D02*
G01X16924D01*
X15734Y25808D02*
G01X14200D01*
X16072Y25107D02*
G01Y24760D01*
X17008Y23413D02*
G01Y22640D01*
X15495Y22928D02*
G01X11196D01*
X22213Y26111D02*
G01X23560Y24764D01*
X10681Y23432D02*
G01X10208D01*
X23560Y24296D02*
G01X16740D01*
X13202Y28688D02*
G01X12833D01*
X15496Y23172D02*
G01Y22929D01*
Y22670D02*
G01Y22640D01*
X15424Y23205D02*
G01Y22640D01*
X15352Y23251D02*
G01Y22640D01*
X15208Y23418D02*
G01Y22640D01*
X13220Y24944D02*
G01X11355D01*
X15136Y24040D02*
G01Y22640D01*
X15064Y24040D02*
G01Y22640D01*
X14992Y24040D02*
G01Y22640D01*
X14920Y24040D02*
G01Y22640D01*
X14848Y24040D02*
G01Y22640D01*
X14776Y24040D02*
G01Y22640D01*
X14704Y24040D02*
G01Y22640D01*
X14632Y24040D02*
G01Y22640D01*
X14560Y24040D02*
G01Y22640D01*
X14488Y24040D02*
G01Y22640D01*
X14416Y24040D02*
G01Y22640D01*
X14344Y24040D02*
G01Y22640D01*
X17152Y27072D02*
G01Y24011D01*
X14056Y24109D02*
G01Y22640D01*
X13984Y24180D02*
G01Y22640D01*
X13912Y24252D02*
G01Y22640D01*
X13840Y24324D02*
G01Y22640D01*
X13768Y24396D02*
G01Y22640D01*
X13696Y24468D02*
G01Y22640D01*
X13624Y24540D02*
G01Y22640D01*
X13552Y24612D02*
G01Y22640D01*
X13480Y24684D02*
G01Y22640D01*
X13408Y24756D02*
G01Y22640D01*
X13480Y28074D02*
G01Y27168D01*
X12760Y27845D02*
G01Y27522D01*
X13192Y24972D02*
G01Y22640D01*
X13120Y25044D02*
G01Y22640D01*
X23236Y25088D02*
G01X16332D01*
X12976Y25192D02*
G01Y22640D01*
X12832Y26443D02*
G01Y22640D01*
X12760Y26474D02*
G01Y22640D01*
X12688Y26327D02*
G01Y22640D01*
X12112Y30075D02*
G01Y28475D01*
X12472Y26197D02*
G01Y22640D01*
X12400Y26190D02*
G01Y22640D01*
X12184Y26239D02*
G01Y22640D01*
X12112Y26207D02*
G01Y22640D01*
X12040Y26192D02*
G01Y22640D01*
X11968Y26191D02*
G01Y22640D01*
X11896Y26205D02*
G01Y22640D01*
X11824Y26235D02*
G01Y22640D01*
X11680Y27845D02*
G01Y26745D01*
X8565Y25160D02*
G01X7691D01*
X11608Y27845D02*
G01Y22640D01*
X11536Y25125D02*
G01Y22640D01*
X11464Y25021D02*
G01Y22640D01*
X11320Y24930D02*
G01Y22640D01*
X11248Y23080D02*
G01Y22640D01*
X11176Y22898D02*
G01Y22640D01*
X11104Y22825D02*
G01Y22640D01*
X11032Y22783D02*
G01Y22640D01*
X15404Y23216D02*
G01X11237D01*
X12256Y26219D02*
G01Y22640D01*
X10816Y25556D02*
G01Y23484D01*
X10744Y25576D02*
G01Y23464D01*
X10960Y24998D02*
G01Y23481D01*
X11176Y26978D02*
G01Y26782D01*
X7994Y24440D02*
G01X7808D01*
X35920Y26744D02*
G01X29100D01*
X15309Y23288D02*
G01X11210D01*
X10941Y25016D02*
G01X9886D01*
X8648Y23072D02*
G01X6797D01*
X9232Y28207D02*
G01Y27727D01*
X8510Y25664D02*
G01X6640D01*
X10096Y25354D02*
G01Y23525D01*
X10024Y25325D02*
G01Y23555D01*
X10456Y27165D02*
G01Y23329D01*
X10888Y22750D02*
G01Y22640D01*
X35920Y26816D02*
G01X29141D01*
X9161Y26312D02*
G01X6640D01*
X12920Y25880D02*
G01X11248D01*
X8786Y28400D02*
G01X6640D01*
X10598Y26960D02*
G01X9835D01*
X9088Y22657D02*
G01Y22640D01*
X8539Y23216D02*
G01X6941D01*
X8944Y22859D02*
G01Y22640D01*
X8872Y22990D02*
G01Y22640D01*
X8800Y22999D02*
G01Y22640D01*
X8728Y23023D02*
G01Y22640D01*
X8656Y23066D02*
G01Y22640D01*
X8584Y24138D02*
G01Y23582D01*
X7388Y28904D02*
G01X6904D01*
X8512Y24066D02*
G01Y23398D01*
X8931Y22928D02*
G01X6912D01*
X8440Y23994D02*
G01Y22640D01*
X8368Y23922D02*
G01Y22640D01*
X8224Y23778D02*
G01Y22640D01*
X8152Y23706D02*
G01Y22640D01*
X8080Y23634D02*
G01Y22640D01*
X8512Y23322D02*
G01Y22640D01*
X7021Y24872D02*
G01X6640D01*
X8008Y23562D02*
G01Y22640D01*
X7936Y23490D02*
G01Y22640D01*
X7792Y23350D02*
G01Y22640D01*
X7648Y23289D02*
G01Y22640D01*
X32415Y29760D02*
G01Y28364D01*
X7576Y23285D02*
G01Y22640D01*
X7504Y23285D02*
G01Y22640D01*
X7432Y23285D02*
G01Y22640D01*
X7600Y23285D02*
G01X7010D01*
X6783Y23057D02*
G01X7200Y22640D01*
X7144Y23285D02*
G01Y22696D01*
X7000Y23274D02*
G01Y22840D01*
X6928Y23203D02*
G01Y22912D01*
X9016Y22723D02*
G01Y22640D01*
X30543Y29503D02*
G01Y22640D01*
X17944Y28880D02*
G01Y22640D01*
X7792Y29792D02*
G01Y29738D01*
X16719Y30056D02*
G01X8056D01*
X16791Y29984D02*
G01X7984D01*
X21976Y26221D02*
G01Y22640D01*
X17007Y29768D02*
G01X7768D01*
X35920Y28400D02*
G01X13805D01*
X7300Y29192D02*
G01X7192D01*
X7306Y29120D02*
G01X7120D01*
X7349Y28976D02*
G01X6976D01*
X7312Y29312D02*
G01X6640Y28640D01*
X12990Y28475D02*
G01X10080D01*
X12904Y28719D02*
G01Y28475D01*
X8754Y28616D02*
G01X6640D01*
X8750Y28544D02*
G01X6640D01*
X9194Y23720D02*
G01X8966D01*
X9835Y27470D02*
G01Y26594D01*
X8909Y28256D02*
G01X6640D01*
X9658Y28184D02*
G01X6640D01*
X28887Y28880D02*
G01Y27320D01*
X35920Y26960D02*
G01X29170D01*
X11752Y27669D02*
G01Y27371D01*
X8366Y27392D02*
G01X6640D01*
X9244Y27752D02*
G01X6640D01*
X9370Y27896D02*
G01X6640D01*
X9205Y27464D02*
G01X6640D01*
X8238Y27320D02*
G01X6640D01*
X8174Y27248D02*
G01X6640D01*
X8136Y27176D02*
G01X6640D01*
X8296Y23850D02*
G01Y22640D01*
X8119Y26960D02*
G01X6640D01*
X8143Y26888D02*
G01X6640D01*
X8186Y26816D02*
G01X6640D01*
X10168Y27802D02*
G01Y25955D01*
X28599Y28880D02*
G01Y27271D01*
X11752Y26286D02*
G01Y22640D01*
X10511Y26528D02*
G01X9867D01*
X12904Y26258D02*
G01Y22640D01*
X10694Y26240D02*
G01X9854D01*
X9304Y26100D02*
G01Y25260D01*
X9232Y26168D02*
G01Y25794D01*
X16000Y25136D02*
G01Y24760D01*
X10528Y25806D02*
G01Y23327D01*
X9309Y26096D02*
G01X6640D01*
X9784Y26024D02*
G01X9016D01*
X8629Y25952D02*
G01X6640D01*
X8569Y25880D02*
G01X6640D01*
X10918Y25520D02*
G01X10254D01*
X13048Y25116D02*
G01Y22640D01*
X7527Y28760D02*
G01X6760D01*
X8546Y25520D02*
G01X6640D01*
X8565Y25448D02*
G01X6640D01*
X7069Y25160D02*
G01X6640D01*
X7033Y25088D02*
G01X6640D01*
X7072Y29072D02*
G01Y25165D01*
X7010Y24944D02*
G01X6640D01*
X6856Y23131D02*
G01Y22984D01*
X7046Y24800D02*
G01X6640D01*
X7092Y24728D02*
G01X6640D01*
X7922Y24368D02*
G01X7793D01*
X7360Y23285D02*
G01Y22640D01*
X32294Y27680D02*
G01X22134D01*
X6878Y24440D02*
G01X6806D01*
X35920Y27824D02*
G01X32805D01*
X16576Y25197D02*
G01Y24460D01*
X7720Y24238D02*
G01Y24165D01*
X8510Y23360D02*
G01X7804D01*
X7792Y24366D02*
G01Y24237D01*
X7562Y24008D02*
G01X7457D01*
X15280Y23317D02*
G01Y22640D01*
X7634Y24080D02*
G01X7481D01*
X8152Y26869D02*
G01Y24597D01*
X8580Y23576D02*
G01X8021D01*
X8539Y23504D02*
G01X7949D01*
X8517Y23432D02*
G01X7877D01*
X8580Y23144D02*
G01X6869D01*
X9114Y22640D02*
G01X7200D01*
X8945Y22856D02*
G01X6984D01*
X7216Y23285D02*
G01Y22640D01*
X10512Y26600D02*
G01X9835D01*
X10523Y27104D02*
G01X9835D01*
X10605Y26312D02*
G01X9879D01*
X11725D02*
G01X11154D01*
X10672Y26254D02*
G01Y26226D01*
X10600Y26318D02*
G01Y26162D01*
X11248Y26520D02*
G01Y25960D01*
X11176Y26338D02*
G01Y26142D01*
X11104Y26265D02*
G01Y26215D01*
X11675Y26384D02*
G01X11205D01*
X11104Y26905D02*
G01Y26855D01*
X35920Y28472D02*
G01X13877D01*
X32991Y29760D02*
G01Y22640D01*
X35920Y27968D02*
G01X32849D01*
X35920Y28256D02*
G01X32747D01*
X35920Y28184D02*
G01X32801D01*
X32847Y29760D02*
G01Y28045D01*
X35920Y28040D02*
G01X32848D01*
X35920Y27896D02*
G01X32835D01*
X32775Y29760D02*
G01Y28223D01*
X35920Y28328D02*
G01X32651D01*
X32631Y29760D02*
G01Y28338D01*
X32559Y29760D02*
G01Y28361D01*
X32487Y29760D02*
G01Y28370D01*
X10309Y27248D02*
G01X9835D01*
X9463Y28904D02*
G01X9257D01*
X9232Y30075D02*
G01Y28913D01*
X9160Y30075D02*
G01Y28928D01*
X9088Y30075D02*
G01Y28929D01*
X9016Y30075D02*
G01Y28915D01*
X8872Y30075D02*
G01Y28835D01*
X8512Y30075D02*
G01Y27409D01*
X9389Y28256D02*
G01X9331D01*
X9215Y27680D02*
G01X6640D01*
X9880Y24874D02*
G01Y23568D01*
X9205Y27600D02*
G01Y26594D01*
Y27320D02*
G01X8722D01*
X10528Y27086D02*
G01Y26674D01*
X9205Y27176D02*
G01X8824D01*
X9205Y27104D02*
G01X8844D01*
X9016Y24570D02*
G01Y23704D01*
X8800Y30075D02*
G01Y28746D01*
X8728Y30075D02*
G01Y27315D01*
X8656Y30075D02*
G01Y27365D01*
X8584Y30075D02*
G01Y27395D01*
X8944Y30075D02*
G01Y28885D01*
X8368Y29087D02*
G01Y27393D01*
X8296Y28911D02*
G01Y27361D01*
X8224Y28820D02*
G01Y27307D01*
X8152Y28759D02*
G01Y27211D01*
X11248Y27160D02*
G01Y26600D01*
X23560Y23000D02*
G01X16802D01*
X9205Y26888D02*
G01X8817D01*
X9186Y26240D02*
G01X6640D01*
X8533Y25808D02*
G01X6640D01*
X9309Y24656D02*
G01X9101D01*
X15150Y23576D02*
G01X9580D01*
X9709Y23504D02*
G01X9621D01*
X15141Y23720D02*
G01X9366D01*
X9088Y24642D02*
G01Y23676D01*
X8110Y27032D02*
G01X6640D01*
X8872Y24426D02*
G01Y23730D01*
X8800Y24354D02*
G01Y23721D01*
X8728Y24282D02*
G01Y23697D01*
X7504Y24116D02*
G01Y23949D01*
X10605Y26168D02*
G01X9808D01*
X15200Y23432D02*
G01X11079D01*
X15245Y23360D02*
G01X11162D01*
X10600Y25678D02*
G01Y23362D01*
X11392Y24964D02*
G01Y22640D01*
X11248Y24913D02*
G01Y23160D01*
X11176Y24911D02*
G01Y23342D01*
X11104Y24923D02*
G01Y23415D01*
X11032Y24950D02*
G01Y23457D01*
X16160Y24760D02*
G01X14436D01*
X7792Y28662D02*
G01Y24594D01*
X7720Y24814D02*
G01Y24722D01*
X16792Y27120D02*
G01Y24244D01*
X14200Y24043D02*
G01Y22640D01*
X10598Y23360D02*
G01X10254D01*
X10672Y25614D02*
G01Y23426D01*
X10528Y30075D02*
G01Y28475D01*
X6640Y28640D02*
G01Y24441D01*
X7072Y24755D02*
G01Y24527D01*
X7144Y29144D02*
G01Y25245D01*
X7000Y29000D02*
G01Y24510D01*
X12376Y28904D02*
G01X9737D01*
X12414Y28832D02*
G01X9851D01*
X12478Y28760D02*
G01X9911D01*
X12606Y28688D02*
G01X9947D01*
X9448Y28223D02*
G01Y27973D01*
X13624Y28218D02*
G01Y27121D01*
X13058Y28544D02*
G01X9970D01*
X10210Y27845D02*
G01X9835Y27470D01*
X15704Y26312D02*
G01X14279D01*
X10168Y30075D02*
G01Y28475D01*
X9952Y30075D02*
G01Y28674D01*
X9880Y30075D02*
G01Y28802D01*
X9808Y30075D02*
G01Y28866D01*
X9736Y30075D02*
G01Y28904D01*
X9664Y30075D02*
G01Y28924D01*
X9592Y30075D02*
G01Y28930D01*
X9520Y30075D02*
G01Y28921D01*
X9448Y30075D02*
G01Y28897D01*
X7669Y28688D02*
G01X6688D01*
X9376Y30075D02*
G01Y28854D01*
X32919Y29760D02*
G01Y22640D01*
X15860Y27608D02*
G01X13211D01*
X15864Y27536D02*
G01X13307D01*
X14286Y27464D02*
G01X13361D01*
X12400Y27014D02*
G01Y26930D01*
X13912Y28506D02*
G01Y26770D01*
X13840Y28434D02*
G01Y26761D01*
X13768Y28362D02*
G01Y26972D01*
X10249Y27320D02*
G01X9835D01*
X13696Y28290D02*
G01Y27067D01*
X12687Y27392D02*
G01X12396D01*
X13408Y27240D02*
G01Y27169D01*
X10240Y27334D02*
G01Y25866D01*
X9592Y24597D02*
G01Y23559D01*
X10096Y27730D02*
G01Y26005D01*
X15064Y30075D02*
G01Y24760D01*
X14992Y30075D02*
G01Y27132D01*
X14920Y30075D02*
G01Y27273D01*
X14848Y30075D02*
G01Y27355D01*
X13768Y30075D02*
G01Y29187D01*
X14704Y28669D02*
G01Y27451D01*
X14632Y28592D02*
G01Y27478D01*
X14560Y28546D02*
G01Y27494D01*
X14488Y28521D02*
G01Y27500D01*
X14416Y28510D02*
G01Y27496D01*
X14344Y28514D02*
G01Y27483D01*
X14272Y28533D02*
G01Y27458D01*
X14200Y30075D02*
G01Y29195D01*
X15877Y27464D02*
G01X14674D01*
X15902Y27392D02*
G01X14804D01*
X15938Y27320D02*
G01X14883D01*
X15991Y27248D02*
G01X14937D01*
X16066Y27176D02*
G01X14975D01*
X16187Y27104D02*
G01X15000D01*
X19517Y27032D02*
G01X15015D01*
X22364Y26960D02*
G01X15020D01*
X15921Y26816D02*
G01X15000D01*
X15841Y26744D02*
G01X14975D01*
X15786Y26672D02*
G01X14937D01*
X16057Y26888D02*
G01X15015D01*
X9520Y24590D02*
G01Y23642D01*
X14206Y29195D02*
G01X13840D01*
X14056Y28565D02*
G01Y27294D01*
X15747Y26600D02*
G01X14882D01*
X15721Y26528D02*
G01X14804D01*
X15705Y26456D02*
G01X14674D01*
X21688Y28880D02*
G01Y28133D01*
X29319Y28880D02*
G01Y22640D01*
X17887Y28913D02*
G01X17920Y28880D01*
X16700Y30075D02*
G01X17811Y28964D01*
X17583Y29192D02*
G01X15728D01*
X17655Y29120D02*
G01X15774D01*
X35920Y28976D02*
G01X30016D01*
X15856Y30075D02*
G01Y26759D01*
X15784Y30075D02*
G01Y29097D01*
X15712Y30075D02*
G01Y29211D01*
X15568Y30075D02*
G01Y29307D01*
X15496Y30075D02*
G01Y29326D01*
X15424Y30075D02*
G01Y29330D01*
X15352Y30075D02*
G01Y29319D01*
X15280Y30075D02*
G01Y29293D01*
X15208Y30075D02*
G01Y29248D01*
X15640Y30075D02*
G01Y29271D01*
X36443Y29643D02*
G01X35920Y29120D01*
Y28832D02*
G01X15787D01*
X35920Y28760D02*
G01X15751D01*
X17223Y29552D02*
G01X8250D01*
X17295Y29480D02*
G01X8302D01*
X10240Y27845D02*
G01Y27706D01*
X15229Y29264D02*
G01X13015D01*
X14272Y30075D02*
G01Y29227D01*
X14128Y28565D02*
G01Y27369D01*
X10383Y27845D02*
G01X10210D01*
X13795Y29192D02*
G01X13057D01*
X13636Y29120D02*
G01X13081D01*
X13192Y30075D02*
G01Y28677D01*
X13048Y30075D02*
G01Y29212D01*
X12976Y30075D02*
G01Y29307D01*
X12904Y30075D02*
G01Y29361D01*
X12832Y30075D02*
G01Y29393D01*
X12760Y30075D02*
G01Y29408D01*
X12688Y30075D02*
G01Y29409D01*
X12616Y30075D02*
G01Y29395D01*
X12544Y30075D02*
G01Y29365D01*
X12472Y30075D02*
G01Y29314D01*
X16720Y25372D02*
G01Y24316D01*
X13130Y28616D02*
G01X9966D01*
X22264Y28880D02*
G01Y26849D01*
X21616Y28880D02*
G01Y28140D01*
X35920Y26888D02*
G01X29163D01*
X22048Y28880D02*
G01Y27902D01*
X21976Y28880D02*
G01Y27988D01*
X21904Y28880D02*
G01Y28047D01*
X21832Y28880D02*
G01Y28088D01*
X21760Y28880D02*
G01Y28116D01*
X9514Y28040D02*
G01X6640D01*
X32127Y28112D02*
G01X21772D01*
X32112Y28040D02*
G01X21913D01*
X32111Y27968D02*
G01X21995D01*
X32199Y27759D02*
G01Y22640D01*
X32155Y27824D02*
G01X22091D01*
X32206Y27752D02*
G01X22118D01*
X35920D02*
G01X32754D01*
X22120Y28880D02*
G01Y27747D01*
X35920Y27608D02*
G01X22140D01*
X35920Y27536D02*
G01X22136D01*
X8832Y28328D02*
G01X6640D01*
X21544Y28880D02*
G01Y28137D01*
X21472Y28880D02*
G01Y28124D01*
X21400Y28880D02*
G01Y28101D01*
X21328Y28880D02*
G01Y28066D01*
X21256Y28880D02*
G01Y28016D01*
X22734Y27320D02*
G01X22062D01*
X22578Y27248D02*
G01X22009D01*
X22492Y27176D02*
G01X21934D01*
X22434Y27104D02*
G01X21813D01*
X21428Y28112D02*
G01X17212D01*
X21287Y28040D02*
G01X19904D01*
X21205Y27968D02*
G01X20029D01*
X21148Y27896D02*
G01X20106D01*
X21109Y27824D02*
G01X20159D01*
X21082Y27752D02*
G01X20197D01*
X21066Y27680D02*
G01X20222D01*
X21060Y27608D02*
G01X20236D01*
X21064Y27536D02*
G01X20240D01*
X21077Y27464D02*
G01X20235D01*
X20320Y28880D02*
G01Y22640D01*
X21112Y28880D02*
G01Y27830D01*
X21184Y28880D02*
G01Y27944D01*
X20104Y28880D02*
G01Y27899D01*
X20032Y28880D02*
G01Y27966D01*
X19960Y28880D02*
G01Y28013D01*
X19888Y28880D02*
G01Y28046D01*
X19816Y28880D02*
G01Y28067D01*
X19744Y28880D02*
G01Y28078D01*
X19672Y28880D02*
G01Y28079D01*
X19600Y28880D02*
G01Y28071D01*
X19528Y28880D02*
G01Y28052D01*
X19456Y28880D02*
G01Y28022D01*
X19384Y28880D02*
G01Y27978D01*
X20176Y28880D02*
G01Y27796D01*
X21184Y27256D02*
G01Y22640D01*
X21138Y27320D02*
G01X20193D01*
X21191Y27248D02*
G01X20154D01*
X21266Y27176D02*
G01X20099D01*
X22392Y27032D02*
G01X19883D01*
X24354Y27320D02*
G01X23026D01*
X24198Y27248D02*
G01X23182D01*
X24112Y27176D02*
G01X23268D01*
X24054Y27104D02*
G01X23326D01*
X24012Y27032D02*
G01X23368D01*
X23984Y26960D02*
G01X23396D01*
X23960Y26816D02*
G01X23420D01*
X23963Y26744D02*
G01X23417D01*
X23975Y26672D02*
G01X23405D01*
X23967Y26888D02*
G01X23413D01*
X23998Y26600D02*
G01X23382D01*
X24034Y26528D02*
G01X23346D01*
X24084Y26456D02*
G01X23296D01*
X23560Y28880D02*
G01Y25556D01*
X35920Y26456D02*
G01X24916D01*
X23991Y28880D02*
G01Y26982D01*
X23344Y28880D02*
G01Y27077D01*
X23272Y28880D02*
G01Y27172D01*
X23200Y28880D02*
G01Y27235D01*
X23128Y28880D02*
G01Y27280D01*
X23056Y28880D02*
G01Y27311D01*
X22984Y28880D02*
G01Y27330D01*
X22912Y28880D02*
G01Y27339D01*
X22840Y28880D02*
G01Y27338D01*
X22768Y28880D02*
G01Y27328D01*
X22696Y28880D02*
G01Y27308D01*
X22624Y28880D02*
G01Y27275D01*
X22552Y28880D02*
G01Y27229D01*
X24156Y26384D02*
G01X23224D01*
X24269Y26312D02*
G01X23111D01*
X29175Y28880D02*
G01Y22640D01*
X28714Y27320D02*
G01X24646D01*
X28568Y27248D02*
G01X24802D01*
X28499Y27176D02*
G01X24888D01*
X28459Y27104D02*
G01X24946D01*
X28437Y27032D02*
G01X24988D01*
X28527Y26710D02*
G01Y22640D01*
X28459Y26816D02*
G01X25040D01*
X28500Y26744D02*
G01X25037D01*
X28568Y26672D02*
G01X25025D01*
X28437Y26888D02*
G01X25033D01*
X35920Y26672D02*
G01X29032D01*
X22408Y28880D02*
G01Y27062D01*
X25143Y28880D02*
G01Y22640D01*
X35920Y26600D02*
G01X28885D01*
X24999Y28880D02*
G01Y27005D01*
X24927Y28880D02*
G01Y27130D01*
X24855Y28880D02*
G01Y27206D01*
X24784Y28880D02*
G01Y27260D01*
X24711Y28880D02*
G01Y27297D01*
X24639Y28880D02*
G01Y27322D01*
X24567Y28880D02*
G01Y27336D01*
X24496Y28880D02*
G01Y27340D01*
X24424Y28880D02*
G01Y27335D01*
X24351Y28880D02*
G01Y27319D01*
X24279Y28880D02*
G01Y27293D01*
X24208Y28880D02*
G01Y27254D01*
X24136Y28880D02*
G01Y27198D01*
X35920Y26528D02*
G01X24966D01*
X9154Y26456D02*
G01X6640D01*
X17079Y29696D02*
G01X8054D01*
X17151Y29624D02*
G01X8175D01*
X8809Y28760D02*
G01X8153D01*
X12680Y29408D02*
G01X8338D01*
X12498Y29336D02*
G01X8363D01*
X12425Y29264D02*
G01X8376D01*
X12383Y29192D02*
G01X8380D01*
X12359Y29120D02*
G01X8374D01*
X12350Y29048D02*
G01X8358D01*
X12356Y28976D02*
G01X8331D01*
X8258Y26744D02*
G01X6640D01*
X8440Y30075D02*
G01Y27408D01*
X8368Y30075D02*
G01Y29313D01*
X8296Y30075D02*
G01Y29489D01*
X8224Y30075D02*
G01Y29580D01*
X8152Y30075D02*
G01Y29641D01*
X8080Y30075D02*
G01Y29684D01*
X7445Y28832D02*
G01X6832D01*
X35920Y28544D02*
G01X14555D01*
X16700Y30075D02*
G01X8075D01*
X7304Y29264D02*
G01X7264D01*
X8008Y30008D02*
G01Y29713D01*
X7864Y29864D02*
G01Y29739D01*
X15948Y27896D02*
G01X13292D01*
X8983Y28904D02*
G01X8291D01*
X9664Y24619D02*
G01Y23467D01*
X10424Y27176D02*
G01X9835D01*
X10843Y25376D02*
G01X10131D01*
X8565Y25304D02*
G01X7516D01*
X7244D02*
G01X6640D01*
X10888Y25081D02*
G01Y23490D01*
X8498Y24944D02*
G01X7750D01*
X7490Y23936D02*
G01X7414D01*
X7720Y28674D02*
G01Y25106D01*
X7648Y28695D02*
G01Y25215D01*
X7576Y28729D02*
G01Y25274D01*
X7504Y28777D02*
G01Y25309D01*
X7432Y28846D02*
G01Y25326D01*
X7014Y25016D02*
G01X6640D01*
X7288Y29288D02*
G01Y25318D01*
X7216Y29216D02*
G01Y25292D01*
X15480Y22784D02*
G01X11035D01*
X8426Y24872D02*
G01X7739D01*
X16868Y28112D02*
G01X16572D01*
X16727Y28040D02*
G01X16713D01*
X16504Y30075D02*
G01Y28130D01*
X16432Y30075D02*
G01Y28139D01*
X16000Y30075D02*
G01Y27962D01*
X16360Y30075D02*
G01Y28138D01*
X16288Y30075D02*
G01Y28128D01*
X16216Y30075D02*
G01Y28108D01*
X16144Y30075D02*
G01Y28075D01*
X16827Y27104D02*
G01X16613D01*
X21688Y27067D02*
G01Y22640D01*
X21387Y27104D02*
G01X20018D01*
X19496Y28040D02*
G01X17353D01*
X19371Y27968D02*
G01X17435D01*
X19294Y27896D02*
G01X17492D01*
X19241Y27824D02*
G01X17531D01*
X19203Y27752D02*
G01X17558D01*
X19178Y27680D02*
G01X17574D01*
X19164Y27608D02*
G01X17580D01*
X19160Y27536D02*
G01X17576D01*
X19165Y27464D02*
G01X17563D01*
X17656Y29119D02*
G01Y22640D01*
X17512Y29263D02*
G01Y27863D01*
X17440Y29335D02*
G01Y27963D01*
X17368Y29407D02*
G01Y28029D01*
X17296Y29479D02*
G01Y28076D01*
X17224Y29551D02*
G01Y28108D01*
X17152Y29623D02*
G01Y28128D01*
X17080Y29695D02*
G01Y28139D01*
X17008Y29767D02*
G01Y28139D01*
X16936Y29839D02*
G01Y28130D01*
X16864Y29911D02*
G01Y28110D01*
X16792Y29983D02*
G01Y28080D01*
X16720Y30055D02*
G01Y28035D01*
X12544Y28715D02*
G01Y28475D01*
X19240Y27258D02*
G01Y22640D01*
X19207Y27320D02*
G01X17502D01*
X7850Y24296D02*
G01X7761D01*
X15856Y25241D02*
G01Y24760D01*
X23560Y24224D02*
G01X16812D01*
X23560Y24152D02*
G01X16884D01*
X16360Y25093D02*
G01Y24676D01*
X23560Y23648D02*
G01X17233D01*
X16504Y25149D02*
G01Y24532D01*
X8210Y24656D02*
G01X7765D01*
X15814Y25952D02*
G01X14200D01*
X15712Y28709D02*
G01Y26492D01*
X15568Y28613D02*
G01Y24760D01*
X15496Y28594D02*
G01Y24760D01*
X14272Y24040D02*
G01Y22640D01*
X22444Y25880D02*
G01X16713D01*
X22516Y25808D02*
G01X16746D01*
X22588Y25736D02*
G01X16767D01*
X22660Y25664D02*
G01X16778D01*
X22732Y25592D02*
G01X16779D01*
X16720Y26132D02*
G01Y25868D01*
X16648Y26026D02*
G01Y25974D01*
X15784Y26091D02*
G01Y25909D01*
X15712Y26268D02*
G01Y25732D01*
X22804Y25520D02*
G01X16771D01*
X22876Y25448D02*
G01X16752D01*
X22948Y25376D02*
G01X16722D01*
X23020Y25304D02*
G01X16678D01*
X23092Y25232D02*
G01X16615D01*
X23164Y25160D02*
G01X16523D01*
X19382Y27104D02*
G01X17253D01*
X12688Y27845D02*
G01Y27393D01*
X23560Y24728D02*
G01X16290D01*
X22085Y26816D02*
G01X16559D01*
X21981Y26744D02*
G01X16639D01*
X22347Y26888D02*
G01X16423D01*
X21924Y26672D02*
G01X16694D01*
X23560Y22712D02*
G01X16553D01*
X22624Y25700D02*
G01Y22640D01*
X21910Y26312D02*
G01X16776D01*
X21958Y26240D02*
G01X16761D01*
X35920Y23576D02*
G01X24120D01*
X22228Y26096D02*
G01X16699D01*
X15781D02*
G01X14200D01*
X16936Y23394D02*
G01Y22640D01*
X12773Y27536D02*
G01X12291D01*
X16720Y27165D02*
G01Y26628D01*
X16648Y27120D02*
G01Y26734D01*
X16504Y27070D02*
G01Y26851D01*
X16000Y27237D02*
G01Y26864D01*
X16360Y27061D02*
G01Y26907D01*
X16288Y27072D02*
G01Y26918D01*
X16216Y27092D02*
G01Y26919D01*
X16144Y27125D02*
G01Y26911D01*
X16432Y27061D02*
G01Y26885D01*
X15928Y30075D02*
G01Y27862D01*
X13562Y29048D02*
G01X13090D01*
X15784Y28823D02*
G01Y26669D01*
X8512Y25642D02*
G01Y24957D01*
X17008Y27061D02*
G01Y24107D01*
X23560Y23504D02*
G01X17147D01*
X23560Y23288D02*
G01X16930D01*
X23452Y24872D02*
G01X14324D01*
X23560Y23360D02*
G01X16921D01*
X23560Y23072D02*
G01X16866D01*
X23560Y22928D02*
G01X16674D01*
X23560Y22640D02*
G01X16536D01*
X23560Y22856D02*
G01X16557D01*
X23560Y22784D02*
G01X16560D01*
X15568Y23152D02*
G01Y23095D01*
X16576Y27089D02*
G01Y26803D01*
X15928Y27338D02*
G01Y26821D01*
X12719Y27464D02*
G01X12339D01*
X13408Y28002D02*
G01Y27320D01*
X19246Y27248D02*
G01X17449D01*
X8565Y25376D02*
G01X6640D01*
X13945Y27032D02*
G01X13728D01*
X13960Y26816D02*
G01X13810D01*
X13985Y27176D02*
G01X13395D01*
X7864Y28661D02*
G01Y24309D01*
X9376Y28266D02*
G01Y27901D01*
X13336Y27931D02*
G01Y27502D01*
X13552Y28146D02*
G01Y27153D01*
X13048Y27845D02*
G01Y27650D01*
X12976Y27845D02*
G01Y27644D01*
X12832Y27845D02*
G01Y27586D01*
X13192Y27853D02*
G01Y27617D01*
X12616Y27845D02*
G01Y27301D01*
X13945Y26888D02*
G01X13799D01*
X15834Y26024D02*
G01X14200D01*
X13120Y27845D02*
G01X12450D01*
X13264Y27880D02*
G01Y27575D01*
X14023Y27248D02*
G01X13409D01*
X16648Y30075D02*
G01Y28080D01*
X10456Y30075D02*
G01Y28475D01*
X12832Y28687D02*
G01Y28475D01*
X12544Y27845D02*
G01Y27247D01*
X12400Y28855D02*
G01Y28475D01*
X12472Y28766D02*
G01Y28475D01*
X15909Y27824D02*
G01X12450D01*
X15882Y27752D02*
G01X12439D01*
X11896Y30075D02*
G01Y28475D01*
X12184Y30075D02*
G01Y28475D01*
X9298Y27824D02*
G01X6640D01*
X12869Y27608D02*
G01X12368D01*
X12654Y27320D02*
G01X12430D01*
X12545Y27248D02*
G01X12447D01*
X12486Y27176D02*
G01X12449D01*
X12451Y27104D02*
G01X12437D01*
X12434Y27032D02*
G01X12410D01*
X9586Y28112D02*
G01X6640D01*
X12400Y27654D02*
G01Y27386D01*
X12328Y27565D02*
G01Y27475D01*
X11968Y30075D02*
G01Y28475D01*
X11824Y27573D02*
G01Y27467D01*
X9448Y26037D02*
G01Y25323D01*
X10870Y25448D02*
G01X10208D01*
X14200Y24996D02*
G01X14436Y24760D01*
X23524Y24800D02*
G01X14396D01*
X13264Y24900D02*
G01Y22640D01*
X12544Y26219D02*
G01Y22640D01*
X8116Y27104D02*
G01X6640D01*
X15866Y27680D02*
G01X12414D01*
X10816Y30075D02*
G01Y28475D01*
X10384Y30075D02*
G01Y28475D01*
X12040Y30075D02*
G01Y28475D01*
X11824Y26933D02*
G01Y26885D01*
X13970Y28565D02*
G01X13344Y27938D01*
X10527Y26672D02*
G01X9835D01*
X12328Y26197D02*
G01Y22640D01*
X7648Y24174D02*
G01Y24093D01*
X7720Y23309D02*
G01Y22640D01*
X23560Y24008D02*
G01X17155D01*
X8565Y25010D02*
G01X7470Y23915D01*
X9664Y26059D02*
G01Y25947D01*
X12920Y25808D02*
G01X11233D01*
X9952Y25311D02*
G01Y23569D01*
X15553Y23072D02*
G01X11247D01*
X15169Y23504D02*
G01X10131D01*
X10960Y22759D02*
G01Y22640D01*
X10240Y25494D02*
G01Y23386D01*
X28455Y28880D02*
G01Y27095D01*
X9736Y24660D02*
G01Y23521D01*
X15141Y23648D02*
G01X9512D01*
X8584Y23138D02*
G01Y22640D01*
X6784Y28784D02*
G01Y24444D01*
X35920Y22784D02*
G01X24120D01*
X9025Y22712D02*
G01X7128D01*
X36447Y29760D02*
G01Y29663D01*
X35920Y24656D02*
G01X24120D01*
X16935Y29840D02*
G01X7840D01*
X17799Y28976D02*
G01X15810D01*
X18016Y28880D02*
G01Y22640D01*
X17439Y29336D02*
G01X12942D01*
X16072Y30075D02*
G01Y28029D01*
X35920Y29120D02*
G01X30160D01*
X17727Y29048D02*
G01X15799D01*
X8075Y30075D02*
G01X7728Y29728D01*
X35920Y29048D02*
G01X30088D01*
X31047Y29760D02*
G01Y22640D01*
X16863Y29912D02*
G01X7912D01*
X8975Y22784D02*
G01X7056D01*
X10213Y27392D02*
G01X9835D01*
X21616Y27060D02*
G01Y22640D01*
X9160Y26315D02*
G01Y25922D01*
X9880Y26314D02*
G01Y26048D01*
X28743Y28880D02*
G01Y27326D01*
X28815Y28880D02*
G01Y27330D01*
X10240Y30075D02*
G01Y28475D01*
X10312Y30075D02*
G01Y28475D01*
X8761Y28472D02*
G01X6640D01*
X9671Y28197D02*
G01X9298Y27824D01*
X9205Y27032D02*
G01X8850D01*
X10550D02*
G01X9835D01*
X11032Y30075D02*
G01Y28475D01*
X12328Y30075D02*
G01Y28475D01*
X8656Y24210D02*
G01Y23654D01*
X10096Y30075D02*
G01Y28475D01*
X10525Y26024D02*
G01X10056D01*
X9304Y28239D02*
G01Y27829D01*
X13490Y28976D02*
G01X13084D01*
X16005Y27968D02*
G01X13373D01*
X12976Y28773D02*
G01Y28475D01*
X12688Y28671D02*
G01Y28475D01*
X12760Y28672D02*
G01Y28475D01*
X13120Y27845D02*
G01Y27641D01*
X14200Y28565D02*
G01Y27422D01*
X13418Y28904D02*
G01X13064D01*
X13274Y28760D02*
G01X12962D01*
X14206Y28565D02*
G01X13970D01*
X13696Y30075D02*
G01Y29160D01*
X14128Y30075D02*
G01Y29195D01*
X8565Y25088D02*
G01X7727D01*
X9160Y24736D02*
G01Y23710D01*
X10884Y25088D02*
G01X9867D01*
X9195Y25486D02*
G01Y25137D01*
X8521Y25592D02*
G01X6640D01*
X8744Y26024D02*
G01X6640D01*
X9669Y25952D02*
G01X9131D01*
X9209Y25160D02*
G01X9195D01*
X9736Y26100D02*
G01Y26001D01*
X9709Y25376D02*
G01X9195D01*
X7432Y23961D02*
G01Y23915D01*
X7576Y24136D02*
G01Y24021D01*
X13364Y24800D02*
G01X9854D01*
X10559Y26744D02*
G01X9835D01*
X8517Y23288D02*
G01X7643D01*
X7288Y23285D02*
G01Y22640D01*
X15152Y23792D02*
G01X8237D01*
X8080Y28716D02*
G01Y24525D01*
X8944Y24498D02*
G01Y23724D01*
X7778Y24224D02*
G01X7707D01*
X8008Y28687D02*
G01Y24453D01*
X9103Y24657D02*
G01X7824Y23378D01*
X15172Y23864D02*
G01X8309D01*
X6856Y28856D02*
G01Y24424D01*
X23560Y24764D02*
G01Y22640D01*
X23632Y28880D02*
G01Y25484D01*
X23308Y25016D02*
G01X14200D01*
X23560Y24764D02*
G01Y22640D01*
X21873Y26528D02*
G01X16759D01*
X35920Y24944D02*
G01X24113D01*
X22041Y26168D02*
G01X16737D01*
X35920Y24872D02*
G01X24120D01*
X35920Y25088D02*
G01X24028D01*
X8794Y23720D02*
G01X8165D01*
X35920Y25952D02*
G01X23164D01*
X21883Y26384D02*
G01X16780D01*
X21871Y26456D02*
G01X16775D01*
X9205Y27248D02*
G01X8786D01*
X12616Y26259D02*
G01Y22640D01*
X10525Y26456D02*
G01X9886D01*
X23380Y24944D02*
G01X14252D01*
X14200Y26158D02*
G01Y24996D01*
X15743Y26168D02*
G01X14208D01*
X10512Y25880D02*
G01X10231D01*
X13959Y27104D02*
G01X13651D01*
X22336Y25988D02*
G01Y22640D01*
X12843Y26384D02*
G01X12725D01*
X14272Y26285D02*
G01Y24924D01*
X7706Y24152D02*
G01X7611D01*
X15424Y28590D02*
G01Y24760D01*
X15702Y25664D02*
G01X14200D01*
X15728Y25448D02*
G01X14200D01*
X15280Y28626D02*
G01Y24760D01*
X16359Y24677D02*
G01X16907Y24129D01*
X14416Y26424D02*
G01Y24780D01*
X8066Y24512D02*
G01X7809D01*
X32127Y29760D02*
G01Y28112D01*
X32343Y29760D02*
G01Y28344D01*
X22192Y28880D02*
G01Y26847D01*
X36490Y29760D02*
G01X36320D01*
X36457Y29696D02*
G01X30736D01*
X36424Y29624D02*
G01X30664D01*
X36352Y29552D02*
G01X30592D01*
X36280Y29480D02*
G01X30520D01*
X36208Y29408D02*
G01X30448D01*
X36064Y29264D02*
G01X30304D01*
X35920Y27680D02*
G01X32665D01*
X36136Y29336D02*
G01X30376D01*
X35992Y29192D02*
G01X30232D01*
X29247Y28880D02*
G01Y22640D01*
X35920Y27464D02*
G01X22123D01*
X35920Y27392D02*
G01X22098D01*
X35920Y27320D02*
G01X28886D01*
X35920Y27248D02*
G01X29032D01*
X29103Y28880D02*
G01Y27172D01*
X35920Y27104D02*
G01X29141D01*
X35920Y28904D02*
G01X29944D01*
X35920Y27176D02*
G01X29100D01*
X29031Y28880D02*
G01Y27249D01*
X28959Y28880D02*
G01Y27294D01*
X10349Y27824D02*
G01X10189D01*
X10272Y27752D02*
G01X10117D01*
X10226Y27680D02*
G01X10045D01*
X10201Y27608D02*
G01X9973D01*
X10190Y27536D02*
G01X9901D01*
X9205D02*
G01X6640D01*
X9592Y28190D02*
G01Y28117D01*
X9520Y28199D02*
G01Y28045D01*
X12256Y30075D02*
G01Y28475D01*
X11680Y30075D02*
G01Y28475D01*
X11608Y30075D02*
G01Y28475D01*
X11536Y30075D02*
G01Y28475D01*
X11464Y30075D02*
G01Y28475D01*
X11392Y30075D02*
G01Y28475D01*
X11320Y30075D02*
G01Y28475D01*
X11248Y30075D02*
G01Y28475D01*
X11176Y30075D02*
G01Y28475D01*
X11104Y30075D02*
G01Y28475D01*
X11752Y30075D02*
G01Y28475D01*
X10035Y28472D02*
G01X9959D01*
X13624Y30075D02*
G01Y29109D01*
X14245Y28544D02*
G01X13949D01*
X35920Y28616D02*
G01X15576D01*
X13552Y30075D02*
G01Y29037D01*
X13480Y30075D02*
G01Y28965D01*
X13408Y30075D02*
G01Y28893D01*
X13336Y30075D02*
G01Y28821D01*
X13048Y28868D02*
G01Y28533D01*
X35920Y27032D02*
G01X29163D01*
X13617Y29103D02*
G01X12990Y28475D01*
X12472Y27845D02*
G01Y27151D01*
X13120Y30075D02*
G01Y28605D01*
X13264Y30075D02*
G01Y28749D01*
X32213Y28256D02*
G01X13661D01*
X32159Y28184D02*
G01X13589D01*
X16228Y28112D02*
G01X13517D01*
X14056Y30075D02*
G01Y29195D01*
X13984Y30075D02*
G01Y29195D01*
X13912Y30075D02*
G01Y29195D01*
X13346Y28832D02*
G01X13026D01*
X13840Y30075D02*
G01Y29195D01*
X14776Y30075D02*
G01Y27412D01*
X14704Y30075D02*
G01Y29091D01*
X14632Y30075D02*
G01Y29168D01*
X14560Y30075D02*
G01Y29214D01*
X14488Y30075D02*
G01Y29239D01*
X14416Y30075D02*
G01Y29250D01*
X14344Y30075D02*
G01Y29246D01*
X12616Y28685D02*
G01Y28475D01*
X15152Y29192D02*
G01X14599D01*
X15106Y29120D02*
G01X14682D01*
X15081Y29048D02*
G01X14730D01*
X15070Y28976D02*
G01X14757D01*
X15074Y28904D02*
G01X14769D01*
X15093Y28832D02*
G01X14767D01*
X16087Y28040D02*
G01X13445D01*
X15304Y28616D02*
G01X14659D01*
X35920Y28688D02*
G01X15691D01*
X15129Y28760D02*
G01X14750D01*
X15189Y28688D02*
G01X14716D01*
X10831Y25304D02*
G01X9656D01*
X10833Y25232D02*
G01X9771D01*
X10850Y25160D02*
G01X9831D01*
X9880Y25312D02*
G01Y25046D01*
X9808Y25327D02*
G01Y25192D01*
X9736Y25359D02*
G01Y25260D01*
X9664Y25413D02*
G01Y25301D01*
X9592Y25509D02*
G01Y25323D01*
Y26037D02*
G01Y25851D01*
X9520Y26030D02*
G01Y25330D01*
X10554Y26096D02*
G01X9731D01*
X9376Y26059D02*
G01Y25301D01*
X9232Y25566D02*
G01Y25192D01*
X13508Y24656D02*
G01X9731D01*
X13436Y24728D02*
G01X9808D01*
X9232D02*
G01X9156D01*
X9205Y26744D02*
G01X8702D01*
X10613Y26816D02*
G01X9835D01*
X10681Y26888D02*
G01X9835D01*
X8443Y26672D02*
G01X6640D01*
X9160Y28192D02*
G01Y26485D01*
X10555Y26384D02*
G01X9890D01*
X9205Y26960D02*
G01X8841D01*
X9609Y25880D02*
G01X9191D01*
X9573Y25808D02*
G01X9227D01*
X9554Y25736D02*
G01X9246D01*
X9550Y25664D02*
G01X9250D01*
X9561Y25592D02*
G01X9239D01*
X9586Y25520D02*
G01X9214D01*
X9448Y24597D02*
G01Y23690D01*
X8512Y26671D02*
G01Y25718D01*
X9376Y24619D02*
G01Y23717D01*
X9088Y28191D02*
G01Y25986D01*
X9016Y28205D02*
G01Y26024D01*
X8872Y28285D02*
G01Y26050D01*
X8800Y26854D02*
G01Y26041D01*
X8728Y26765D02*
G01Y26017D01*
X8656Y26714D02*
G01Y25974D01*
X8944Y28235D02*
G01Y26044D01*
X8584Y26685D02*
G01Y25902D01*
X9205Y26816D02*
G01X8774D01*
X9632Y25448D02*
G01X9195D01*
X9384Y25304D02*
G01X9195D01*
X9269Y25232D02*
G01X9195D01*
X9232Y24728D02*
G01Y23727D01*
X11045Y24944D02*
G01X9890D01*
X13292Y24872D02*
G01X9879D01*
X13580Y24584D02*
G01X9029D01*
X13724Y24440D02*
G01X8885D01*
X13796Y24368D02*
G01X8813D01*
X13868Y24296D02*
G01X8741D01*
X13940Y24224D02*
G01X8669D01*
X14012Y24152D02*
G01X8597D01*
X13652Y24512D02*
G01X8957D01*
X14096Y24080D02*
G01X8525D01*
X8565Y25486D02*
G01Y25010D01*
Y25016D02*
G01X7746D01*
X32308Y28328D02*
G01X13733D01*
X9808Y26168D02*
G01Y26033D01*
X9880Y27514D02*
G01Y26486D01*
X9173Y26528D02*
G01X6640D01*
X15251Y24008D02*
G01X8453D01*
X15204Y23936D02*
G01X8381D01*
X28671Y28880D02*
G01Y27307D01*
X9304Y24660D02*
G01Y23729D01*
X8440Y26672D02*
G01Y24885D01*
X8368Y26687D02*
G01Y24813D01*
X8296Y26719D02*
G01Y24741D01*
X8224Y26773D02*
G01Y24669D01*
X35920Y24728D02*
G01X24120D01*
X29103Y26748D02*
G01Y22640D01*
X35920Y24080D02*
G01X24120D01*
X35920Y24440D02*
G01X24120D01*
X35920Y24368D02*
G01X24120D01*
X35920Y24296D02*
G01X24120D01*
X35920Y24224D02*
G01X24120D01*
X35920Y24512D02*
G01X24120D01*
X35920Y24152D02*
G01X24120D01*
X35920Y24008D02*
G01X24120D01*
X35920Y23936D02*
G01X24120D01*
X35920Y23864D02*
G01X24120D01*
X35920Y23648D02*
G01X24120D01*
X35920Y23720D02*
G01X24120D01*
X25359Y28880D02*
G01Y22640D01*
X35920Y23504D02*
G01X24120D01*
X35920Y23288D02*
G01X24120D01*
X35920Y23216D02*
G01X24120D01*
X35920Y23144D02*
G01X24120D01*
X35920Y23432D02*
G01X24120D01*
X35920Y26384D02*
G01X24844D01*
X35920Y26240D02*
G01X22876D01*
X23488Y28880D02*
G01Y25628D01*
X35920Y25880D02*
G01X23236D01*
X35920Y25808D02*
G01X23308D01*
X35920Y25736D02*
G01X23380D01*
X35920Y26168D02*
G01X22948D01*
X35920Y25592D02*
G01X23524D01*
X35920Y25664D02*
G01X23452D01*
X35920Y25448D02*
G01X23668D01*
X35920Y25376D02*
G01X23740D01*
X35920Y25304D02*
G01X23812D01*
X35920Y25232D02*
G01X23884D01*
X7072Y23285D02*
G01Y22768D01*
X35920Y25160D02*
G01X23956D01*
X23991Y26618D02*
G01Y25124D01*
X24064Y28880D02*
G01Y27118D01*
X35920Y25016D02*
G01X24085D01*
X23920Y28880D02*
G01Y25196D01*
X23848Y28880D02*
G01Y25268D01*
X23776Y28880D02*
G01Y25340D01*
X23416Y26731D02*
G01Y25700D01*
X23344Y26523D02*
G01Y25772D01*
X23272Y26428D02*
G01Y25844D01*
X23200Y26365D02*
G01Y25916D01*
X23128Y26320D02*
G01Y25988D01*
X23056Y26289D02*
G01Y26060D01*
X22984Y26270D02*
G01Y26132D01*
X22912Y26261D02*
G01Y26204D01*
X23560Y24656D02*
G01X16380D01*
X23704Y28880D02*
G01Y25412D01*
X35920Y24584D02*
G01X24120D01*
X22480Y28880D02*
G01Y27162D01*
X23416Y28880D02*
G01Y26869D01*
X22336Y28880D02*
G01Y26837D01*
X22120Y27453D02*
G01Y26830D01*
X22048Y27298D02*
G01Y26796D01*
X21976Y27212D02*
G01Y26739D01*
X21904Y27153D02*
G01Y26634D01*
X22372Y25952D02*
G01X16666D01*
X35920Y26096D02*
G01X23020D01*
X12920Y25520D02*
G01X11482D01*
X12920Y25448D02*
G01X11530D01*
X12920Y25376D02*
G01X11557D01*
X12926Y25304D02*
G01X11569D01*
X12951Y25232D02*
G01X11567D01*
X13004Y25160D02*
G01X11550D01*
X13076Y25088D02*
G01X11516D01*
X13148Y25016D02*
G01X11459D01*
X11680Y26374D02*
G01Y22640D01*
X11536Y27845D02*
G01Y25435D01*
X11464Y27845D02*
G01Y25539D01*
X11392Y27845D02*
G01Y25596D01*
X11248Y25880D02*
G01Y25647D01*
X11176Y25698D02*
G01Y25649D01*
X10888Y25550D02*
G01Y25479D01*
X12832Y26611D02*
G01Y26517D01*
X12920Y25952D02*
G01X11249D01*
X8514Y25736D02*
G01X6640D01*
X15957Y25160D02*
G01X14200D01*
X15802Y25304D02*
G01X14200D01*
X15718Y26240D02*
G01X14254D01*
X15864Y25232D02*
G01X14200D01*
X15701Y25592D02*
G01X14200D01*
X12918Y26240D02*
G01X12586D01*
X16148Y25088D02*
G01X14200D01*
X15709Y25520D02*
G01X14200D01*
X12920Y26238D02*
G01Y25360D01*
X15640Y28649D02*
G01Y24760D01*
X15136Y28749D02*
G01Y24760D01*
X13984Y28565D02*
G01Y27173D01*
X14992Y26788D02*
G01Y24760D01*
X14920Y26647D02*
G01Y24760D01*
X14848Y26565D02*
G01Y24760D01*
X14776Y26508D02*
G01Y24760D01*
X14704Y26469D02*
G01Y24760D01*
X14632Y26442D02*
G01Y24760D01*
X14560Y26426D02*
G01Y24760D01*
X15712Y25508D02*
G01Y24760D01*
X23560Y24368D02*
G01X16668D01*
X23560Y24440D02*
G01X16596D01*
X15700Y26384D02*
G01X14290D01*
X23560Y23864D02*
G01X17235D01*
X17080Y27061D02*
G01Y24071D01*
X10709Y25592D02*
G01X10279D01*
X23560Y24080D02*
G01X17066D01*
X16432Y25115D02*
G01Y24604D01*
X23560Y23936D02*
G01X17205D01*
X11733Y26816D02*
G01X11147D01*
X11679Y26744D02*
G01X11201D01*
X11647Y26672D02*
G01X11233D01*
X11632Y26600D02*
G01X11248D01*
X11631Y26528D02*
G01X11249D01*
X11645Y26456D02*
G01X11235D01*
X10672Y26894D02*
G01Y26866D01*
X10600Y26958D02*
G01Y26802D01*
X11723Y27104D02*
G01X11237D01*
X11750Y27032D02*
G01X11210D01*
X11798Y26960D02*
G01X11161D01*
X11248Y27845D02*
G01Y27240D01*
X11176Y27845D02*
G01Y27422D01*
X11104Y27845D02*
G01Y27495D01*
X11032Y27845D02*
G01Y27537D01*
X11829Y26888D02*
G01X11079D01*
X11710Y27845D02*
G01X10737D01*
X11710Y27824D02*
G01X10771D01*
X11721Y27752D02*
G01X10848D01*
X11746Y27680D02*
G01X10894D01*
X11792Y27608D02*
G01X10919D01*
X10528Y26446D02*
G01Y26034D01*
X11869Y27536D02*
G01X11035D01*
X11821Y27464D02*
G01X11139D01*
X10960Y27845D02*
G01Y27561D01*
X10888Y27845D02*
G01Y27691D01*
Y30075D02*
G01Y28475D01*
X10744Y30075D02*
G01Y28475D01*
X10816Y27845D02*
G01Y27787D01*
X10672Y30075D02*
G01Y28475D01*
X10600Y30075D02*
G01Y28475D01*
X10024Y27658D02*
G01Y26035D01*
X10312Y27845D02*
G01Y27794D01*
X11730Y27320D02*
G01X11230D01*
X11713Y27248D02*
G01X11247D01*
X11814Y26240D02*
G01X11066D01*
X12870Y26312D02*
G01X12674D01*
X12920Y26168D02*
G01X11155D01*
X12920Y26096D02*
G01X11205D01*
X12920Y26024D02*
G01X11235D01*
X39456Y29220D02*
G01Y23174D01*
X39888Y18469D02*
G01Y17026D01*
X44151Y17192D02*
G01X38570D01*
X44628Y19208D02*
G01X38051D01*
X38808Y8881D02*
G01Y2758D01*
X40372Y16760D02*
G01X40048D01*
X40824Y10218D02*
G01Y9619D01*
X37152Y22819D02*
G01Y22204D01*
X44977Y21583D02*
G01X37804D01*
X36864Y24132D02*
G01Y22360D01*
X37152Y8445D02*
G01Y8433D01*
X44615Y18560D02*
G01X41082D01*
X37440Y22604D02*
G01Y21916D01*
X36880Y22360D02*
G01X36720D01*
X37079Y22277D02*
G01X37467Y21889D01*
X41256Y11820D02*
G01Y11035D01*
X36792Y24219D02*
G01Y22360D01*
X37080Y22974D02*
G01Y22276D01*
X37368Y22632D02*
G01Y21988D01*
X38736Y12004D02*
G01Y11045D01*
X38448Y11941D02*
G01Y11073D01*
X39312Y9845D02*
G01Y9513D01*
X40320Y9845D02*
G01Y9641D01*
X41472Y11805D02*
G01Y11035D01*
X38597Y8912D02*
G01X37394D01*
X38952Y8908D02*
G01Y2758D01*
X38462Y8984D02*
G01X37362D01*
X38218Y12008D02*
G01X37942D01*
X38203Y12944D02*
G01X37957D01*
X38736Y8882D02*
G01Y2758D01*
X38952Y15557D02*
G01Y12909D01*
X44640Y21920D02*
G01Y21403D01*
X40896Y29220D02*
G01Y29019D01*
X40968Y12016D02*
G01Y11035D01*
X42119Y12224D02*
G01X41927D01*
X43272Y9087D02*
G01Y6523D01*
X41328Y10405D02*
G01Y2758D01*
X42552Y11228D02*
G01Y2758D01*
X41016Y20144D02*
G01X36720D01*
X42624Y11323D02*
G01Y2758D01*
X42552Y12739D02*
G01Y12613D01*
X42696Y11533D02*
G01Y2758D01*
X42105Y12152D02*
G01X41906D01*
X41689Y11864D02*
G01X41654D01*
X41040Y11938D02*
G01Y11035D01*
X40104Y9845D02*
G01Y5824D01*
X41184Y20050D02*
G01Y16524D01*
X42498Y22519D02*
G01X40927D01*
X46016Y18416D02*
G01X41157D01*
X41575Y24175D02*
G01X37945D01*
X37296Y8530D02*
G01Y8347D01*
X39534Y23311D02*
G01X38105D01*
X39601Y23383D02*
G01X38071D01*
X37656Y18591D02*
G01Y18254D01*
X39505Y25543D02*
G01X37775D01*
X36762Y24967D02*
G01X36720D01*
X42624Y15314D02*
G01Y13560D01*
X36792Y24889D02*
G01Y24821D01*
X37095Y23311D02*
G01X36720D01*
X39456Y22786D02*
G01Y17014D01*
X39950Y18416D02*
G01X39157D01*
X39672Y22523D02*
G01Y17090D01*
X38376Y17058D02*
G01Y13010D01*
X37872Y22653D02*
G01Y19276D01*
X37618Y4808D02*
G01X36720D01*
X43760Y5240D02*
G01X40337D01*
X43128Y5797D02*
G01Y2488D01*
X43099Y2758D02*
G01X38715D01*
X37323Y5456D02*
G01X36720D01*
X44208Y28833D02*
G01Y28380D01*
X44320Y29600D02*
G01X46720Y27200D01*
Y26240*
X44000Y23520*
Y22560*
X46632Y19927D02*
G01X36720D01*
X46720Y19840D02*
G01Y19120D01*
X44282Y17048D02*
G01X40912D01*
X44080Y15360D02*
G01X47040Y12400D01*
X38715Y2072D02*
G01X36720D01*
X44080Y8880D02*
G01Y5680D01*
X43760Y5360*
X43848Y9246D02*
G01Y5448D01*
X39456Y9845D02*
G01Y2758D01*
X37512Y4871D02*
G01Y2000D01*
X45209Y28711D02*
G01X43732D01*
X45119Y26335D02*
G01X43494D01*
X44884Y12368D02*
G01X43625D01*
X44501Y21007D02*
G01X41662D01*
X37392Y27127D02*
G01X36720D01*
X47040Y12224D02*
G01X45766D01*
X39600Y22578D02*
G01Y17081D01*
X44784Y21776D02*
G01Y21515D01*
X45929Y27991D02*
G01X44998D01*
X44480Y28380D02*
G01X44064D01*
X46720Y26983D02*
G01X43221D01*
X44163Y17552D02*
G01X38769D01*
X37501Y4880D02*
G01X36720D01*
X43992Y27300D02*
G01Y5592D01*
X43920Y9352D02*
G01Y5520D01*
X43760Y5360D02*
G01Y3190D01*
X42636Y12800D02*
G01X42623D01*
X43776Y9177D02*
G01Y5376D01*
X43632Y9095D02*
G01Y2992D01*
X43560Y6074D02*
G01Y2920D01*
X43200Y5790D02*
G01Y2560D01*
X42183Y12368D02*
G01X41939D01*
X43416Y5859D02*
G01Y2776D01*
X43344Y5819D02*
G01Y2704D01*
X43664Y3024D02*
G01X43099Y2459D01*
X44759Y12152D02*
G01X43473D01*
X43056Y5819D02*
G01Y2758D01*
X42912Y5928D02*
G01Y2758D01*
X42768Y11555D02*
G01Y2758D01*
X44080Y8480D02*
G01X37230D01*
X42480Y10134D02*
G01Y2758D01*
X42408Y10045D02*
G01Y2758D01*
X42336Y9994D02*
G01Y2758D01*
X42192Y9951D02*
G01Y2758D01*
X41760Y12933D02*
G01Y12743D01*
X37150Y12584D02*
G01X36720D01*
X41904Y12146D02*
G01Y12075D01*
X44080Y6608D02*
G01X36720D01*
X40896Y12146D02*
G01Y11035D01*
X41688Y10405D02*
G01Y2758D01*
X41616Y10405D02*
G01Y2758D01*
X41544Y10405D02*
G01Y2758D01*
X41472Y10405D02*
G01Y2758D01*
X41400Y10405D02*
G01Y2758D01*
X42840Y11578D02*
G01Y6245D01*
X40896Y9205D02*
G01Y2758D01*
X40824Y9101D02*
G01Y2758D01*
X40752Y9044D02*
G01Y2758D01*
X40680Y9010D02*
G01Y2758D01*
X40608Y8993D02*
G01Y2758D01*
X40536Y8991D02*
G01Y2758D01*
X40464Y9003D02*
G01Y2758D01*
X37391Y5600D02*
G01X36720D01*
X40392Y5346D02*
G01Y2758D01*
X40320Y4894D02*
G01Y2758D01*
X40248Y4805D02*
G01Y2758D01*
X40176Y4754D02*
G01Y2758D01*
X40104Y4725D02*
G01Y2758D01*
X39888Y4727D02*
G01Y2758D01*
X39816Y4759D02*
G01Y2758D01*
X41791Y10352D02*
G01X40957D01*
X39816Y9845D02*
G01Y5754D01*
X39672Y9845D02*
G01Y5498D01*
X39528Y9845D02*
G01Y2758D01*
X38715Y2144D02*
G01X36720D01*
X36896Y24103D02*
G01X36720D01*
X37141Y12512D02*
G01X36720D01*
X39312Y9327D02*
G01Y2758D01*
X39240Y9137D02*
G01Y2758D01*
X39168Y9044D02*
G01Y2758D01*
X39096Y8982D02*
G01Y2758D01*
X39024Y8938D02*
G01Y2758D01*
X38880Y8889D02*
G01Y2758D01*
X38664Y8893D02*
G01Y2000D01*
X38592Y8914D02*
G01Y2000D01*
X37350Y5528D02*
G01X36720D01*
X44111Y17336D02*
G01X38721D01*
X38448Y8994D02*
G01Y2000D01*
X37141Y12440D02*
G01X36720D01*
X38376Y5234D02*
G01Y2000D01*
X39508Y17048D02*
G01X38368D01*
X38160Y4865D02*
G01Y2000D01*
X38088Y4820D02*
G01Y2000D01*
X43760Y3728D02*
G01X36720D01*
X37944Y4770D02*
G01Y2000D01*
X37872Y4761D02*
G01Y2000D01*
X37800Y4761D02*
G01Y2000D01*
X43910Y28927D02*
G01X43516D01*
X36720Y7894D02*
G01Y2000D01*
X37368Y5038D02*
G01Y2000D01*
X37296Y7813D02*
G01Y2000D01*
X37224Y7759D02*
G01Y2000D01*
X37152Y7727D02*
G01Y2000D01*
X37080Y7712D02*
G01Y2000D01*
X37008Y7711D02*
G01Y2000D01*
X36936Y7725D02*
G01Y2000D01*
X45137Y28783D02*
G01X43660D01*
X44320Y29600D02*
G01X42844D01*
X46505Y27415D02*
G01X44814D01*
X42844Y29600D02*
G01X44064Y28380D01*
X44000Y22951D02*
G01X40499D01*
X43871Y29431D02*
G01X43012D01*
X41067Y29220D02*
G01X36720D01*
X41060Y29215D02*
G01X36720D01*
X40980Y29143D02*
G01X36720D01*
X40925Y29071D02*
G01X36720D01*
X40886Y28999D02*
G01X36720D01*
X40860Y28927D02*
G01X36720D01*
X40845Y28855D02*
G01X36720D01*
X40840Y28783D02*
G01X36720D01*
X40844Y28711D02*
G01X36720D01*
X40859Y28639D02*
G01X36720D01*
X40884Y28567D02*
G01X36720D01*
X40921Y28495D02*
G01X36720D01*
X40975Y28423D02*
G01X36720D01*
X42480Y28436D02*
G01Y26704D01*
X41178Y28279D02*
G01X36720D01*
X42709Y28207D02*
G01X36720D01*
X42781Y28135D02*
G01X36720D01*
X42853Y28063D02*
G01X36720D01*
X36884Y26767D02*
G01X36720D01*
X43069Y27847D02*
G01X36720D01*
X37656Y26991D02*
G01Y26788D01*
X43141Y27775D02*
G01X36720D01*
X37542Y27703D02*
G01X36720D01*
X37428Y27631D02*
G01X36720D01*
X43704Y27317D02*
G01Y10071D01*
X40392Y26630D02*
G01Y26131D01*
X37314Y27415D02*
G01X36720D01*
X37310Y27343D02*
G01X36720D01*
X37321Y27271D02*
G01X36720D01*
X39808Y25255D02*
G01X37803D01*
X37224Y29220D02*
G01Y26937D01*
X36782Y26191D02*
G01X36720D01*
X37106Y26911D02*
G01X36720D01*
X36966Y26839D02*
G01X36720D01*
X40191Y26983D02*
G01X36720D01*
X36828Y26695D02*
G01X36720D01*
X36788Y26623D02*
G01X36720D01*
X36762Y26551D02*
G01X36720D01*
X36746Y26479D02*
G01X36720D01*
X36792Y26169D02*
G01Y25991D01*
X37512Y27030D02*
G01Y26888D01*
X36760Y25615D02*
G01X36720D01*
X36823Y26047D02*
G01X36720D01*
X36785Y25975D02*
G01X36720D01*
X36759Y25903D02*
G01X36720D01*
X36740Y25111D02*
G01X36720D01*
X36752Y24751D02*
G01X36720D01*
X36740Y25759D02*
G01X36720D01*
X36745Y25687D02*
G01X36720D01*
X36745Y25831D02*
G01X36720D01*
X36818Y25399D02*
G01X36720D01*
X36781Y25327D02*
G01X36720D01*
X36757Y25255D02*
G01X36720D01*
X37872Y27044D02*
G01Y24226D01*
X44943Y24463D02*
G01X37777D01*
X36746Y25039D02*
G01X36720D01*
X36789Y24895D02*
G01X36720D01*
X36793Y24823D02*
G01X36720D01*
X45591Y25111D02*
G01X37820D01*
X45231Y24751D02*
G01X37728D01*
X45159Y24679D02*
G01X37756D01*
X45015Y24535D02*
G01X37780D01*
X36739Y24319D02*
G01X36720D01*
X36774Y24247D02*
G01X36720D01*
X36824Y24175D02*
G01X36720D01*
X37010Y24031D02*
G01X36720D01*
X37098Y23959D02*
G01X36720D01*
X37075Y23887D02*
G01X36720D01*
X37063Y23815D02*
G01X36720D01*
X37060Y23743D02*
G01X36720D01*
X37067Y23671D02*
G01X36720D01*
X37084Y23599D02*
G01X36720D01*
X37113Y23527D02*
G01X36720D01*
X44799Y24319D02*
G01X37741D01*
X37154Y23455D02*
G01X36720D01*
X37073Y23239D02*
G01X36720D01*
X37062Y23167D02*
G01X36720D01*
X37061Y23095D02*
G01X36720D01*
X37069Y23023D02*
G01X36720D01*
X37087Y22951D02*
G01X36720D01*
X37117Y22879D02*
G01X36720D01*
X37224Y15085D02*
G01Y12769D01*
X36764Y21800D02*
G01X36720D01*
X39585Y22591D02*
G01X37711D01*
X37489D02*
G01X36720D01*
X39678Y22519D02*
G01X36720D01*
X39862Y22447D02*
G01X36720D01*
X36936Y24074D02*
G01Y22354D01*
X36764Y21800D02*
G01X37071Y21493D01*
X39887Y22231D02*
G01X37125D01*
X39917Y22159D02*
G01X37196D01*
X39960Y22087D02*
G01X37269D01*
X40021Y22015D02*
G01X37341D01*
X42565Y21871D02*
G01X40511D01*
X40112Y21943D02*
G01X37413D01*
X39861Y22375D02*
G01X36720D01*
X36765Y21799D02*
G01X36720D01*
X36753Y15392D02*
G01X36720D01*
X36837Y21727D02*
G01X36720D01*
X36909Y21655D02*
G01X36720D01*
X37053Y21511D02*
G01X36720D01*
X37079Y21439D02*
G01X36720D01*
X37103Y21367D02*
G01X36720D01*
X39543Y26047D02*
G01X37737D01*
X37407Y21151D02*
G01X36720D01*
X40896Y17963D02*
G01Y17056D01*
X46720Y19280D02*
G01X37867D01*
X40972Y20935D02*
G01X36720D01*
X40913Y20863D02*
G01X36720D01*
X40872Y20791D02*
G01X36720D01*
X40844Y20719D02*
G01X36720D01*
X40827Y20647D02*
G01X36720D01*
X40820Y20575D02*
G01X36720D01*
X40823Y20503D02*
G01X36720D01*
X40836Y20431D02*
G01X36720D01*
X40859Y20359D02*
G01X36720D01*
X40894Y20287D02*
G01X36720D01*
X40944Y20215D02*
G01X36720D01*
X46344D02*
G01X41776D01*
X46416Y20144D02*
G01X41704D01*
X41130Y20071D02*
G01X36720D01*
X46560Y19999D02*
G01X36720D01*
X46704Y19856D02*
G01X36720D01*
X46720Y19711D02*
G01X36720D01*
X46720Y19639D02*
G01X36720D01*
X46720Y19568D02*
G01X36720D01*
X46720Y19496D02*
G01X36720D01*
X46720Y19424D02*
G01X36720D01*
X37852Y18632D02*
G01X37864Y18620D01*
X45440Y17840D02*
G01X38600D01*
X38715Y2758D02*
G01Y2000D01*
X37405Y19208D02*
G01X36720D01*
X37354Y19136D02*
G01X36720D01*
X37325Y19064D02*
G01X36720D01*
X37311Y18992D02*
G01X36720D01*
X37312Y18920D02*
G01X36720D01*
X37327Y18848D02*
G01X36720D01*
X40419Y16904D02*
G01X40001D01*
X37359Y18776D02*
G01X36720D01*
X37510Y18632D02*
G01X36720D01*
X37728Y4772D02*
G01Y2000D01*
X37723Y18416D02*
G01X36720D01*
X37680Y18272D02*
G01X36720D01*
X37598Y18200D02*
G01X36720D01*
X37550Y18128D02*
G01X36720D01*
X37523Y18056D02*
G01X36720D01*
X37511Y17984D02*
G01X36720D01*
X37513Y17912D02*
G01X36720D01*
X37530Y17840D02*
G01X36720D01*
X37564Y17768D02*
G01X36720D01*
X44113Y17408D02*
G01X38752D01*
X37944Y16936D02*
G01Y12951D01*
X37728Y17166D02*
G01Y13018D01*
X37733Y17408D02*
G01X36720D01*
X37714Y17336D02*
G01X36720D01*
X37710Y17264D02*
G01X36720D01*
X39960Y9845D02*
G01Y5821D01*
X37721Y17192D02*
G01X36720D01*
X37747Y17120D02*
G01X36720D01*
X39412Y16976D02*
G01X38290D01*
X37870D02*
G01X36720D01*
X39359Y16904D02*
G01X36720D01*
X39327Y16832D02*
G01X36720D01*
X39312Y16760D02*
G01X36720D01*
X39311Y16688D02*
G01X36720D01*
X39325Y16616D02*
G01X36720D01*
X38736Y15579D02*
G01Y12955D01*
X45055Y11504D02*
G01X42691D01*
X39355Y16544D02*
G01X36720D01*
X37800Y17552D02*
G01X36720D01*
X38724Y16256D02*
G01X36796D01*
X36983Y16184D02*
G01X36900D01*
X44080Y5960D02*
G01X43511D01*
X41832Y15529D02*
G01Y13534D01*
X38599Y15680D02*
G01X37453D01*
X44080Y6392D02*
G01X43488D01*
X44080Y6464D02*
G01X43411D01*
X36763Y15536D02*
G01X36720D01*
X36751Y15464D02*
G01X36720D01*
X36770Y15320D02*
G01X36720D01*
X36804Y15248D02*
G01X36720D01*
X36861Y15176D02*
G01X36720D01*
X40896Y13944D02*
G01Y12534D01*
X44408Y15032D02*
G01X36720D01*
X40712Y14960D02*
G01X36720D01*
X40606Y14888D02*
G01X36720D01*
X40537Y14816D02*
G01X36720D01*
X40489Y14744D02*
G01X36720D01*
X40455Y14672D02*
G01X36720D01*
X40433Y14600D02*
G01X36720D01*
X40422Y14528D02*
G01X36720D01*
X40421Y14456D02*
G01X36720D01*
X40429Y14384D02*
G01X36720D01*
X40447Y14312D02*
G01X36720D01*
X40476Y14240D02*
G01X36720D01*
X40032Y9845D02*
G01Y5830D01*
X39744Y9845D02*
G01Y5682D01*
X39761Y14024D02*
G01X36720D01*
X39694Y13952D02*
G01X36720D01*
X39646Y13880D02*
G01X36720D01*
X41904Y12757D02*
G01Y12534D01*
X39614Y13808D02*
G01X36720D01*
X39593Y13736D02*
G01X36720D01*
X39582Y13664D02*
G01X36720D01*
X39581Y13592D02*
G01X36720D01*
X39589Y13520D02*
G01X36720D01*
X39608Y13448D02*
G01X36720D01*
X39638Y13376D02*
G01X36720D01*
X39682Y13304D02*
G01X36720D01*
X39745Y13232D02*
G01X36720D01*
X42048Y9967D02*
G01Y2758D01*
X39864Y14096D02*
G01X36720D01*
X37612Y13016D02*
G01X36720D01*
X37403Y12944D02*
G01X36720D01*
X40029Y13088D02*
G01X36720D01*
X37245Y12800D02*
G01X36720D01*
X37200Y12728D02*
G01X36720D01*
X37169Y12656D02*
G01X36720D01*
X41893Y10064D02*
G01X40669D01*
X37224Y8476D02*
G01Y8401D01*
X37172Y12296D02*
G01X36720D01*
X37205Y12224D02*
G01X36720D01*
X37418Y12008D02*
G01X36754D01*
X41904Y11125D02*
G01Y11035D01*
X41760Y10405D02*
G01Y2758D01*
X41145Y11864D02*
G01X36871D01*
X41655Y11792D02*
G01X36905D01*
X41622Y11648D02*
G01X36938D01*
X41621Y11576D02*
G01X36939D01*
X41629Y11504D02*
G01X36931D01*
X41647Y11432D02*
G01X36913D01*
X40072Y11360D02*
G01X36884D01*
X39966Y11288D02*
G01X36841D01*
X44192Y8992D02*
G01X44080Y8880D01*
X39849Y11144D02*
G01X36720D01*
X38445Y11072D02*
G01X36720D01*
X38318Y11000D02*
G01X36720D01*
X38254Y10928D02*
G01X36720D01*
X38216Y10856D02*
G01X36720D01*
X38664Y11972D02*
G01Y11075D01*
X38283Y10475D02*
G01X38000D01*
X37360Y9205D02*
G01X36720D01*
X38266Y10496D02*
G01X36720D01*
X42984Y5860D02*
G01Y2758D01*
X37746Y10352D02*
G01X36720D01*
X37674Y10280D02*
G01X36720D01*
X37602Y10208D02*
G01X36720D01*
X37728Y11942D02*
G01Y10333D01*
X37458Y10064D02*
G01X36720D01*
X44616Y17016D02*
G01X44080Y16480D01*
X37777Y10383D02*
G01X37230Y9835D01*
X37368Y9205D02*
G01Y8973D01*
X38374Y9776D02*
G01X38061D01*
X38321Y9704D02*
G01X37989D01*
X38283Y9632D02*
G01X37917D01*
X38258Y9560D02*
G01X37845D01*
X38244Y9488D02*
G01X37773D01*
X38240Y9416D02*
G01X37701D01*
X37242Y9848D02*
G01X36720D01*
X38199Y10640D02*
G01X36720D01*
X36873Y9128D02*
G01X36720D01*
X43760Y4736D02*
G01X40136D01*
X44080Y8840D02*
G01X37409D01*
X44080Y8768D02*
G01X37410D01*
X44080Y8552D02*
G01X37318D01*
X44080Y8408D02*
G01X37212D01*
X44080Y8336D02*
G01X37307D01*
X44080Y8696D02*
G01X37397D01*
X44080Y8192D02*
G01X37393D01*
X44080Y8120D02*
G01X37408D01*
X44080Y8048D02*
G01X37409D01*
X44080Y7832D02*
G01X37314D01*
X36766D02*
G01X36720D01*
X36855Y7760D02*
G01X36720D01*
X44080Y7688D02*
G01X36720D01*
X44080Y7616D02*
G01X36720D01*
X44080Y7544D02*
G01X36720D01*
X44080Y7472D02*
G01X36720D01*
X44080Y7400D02*
G01X36720D01*
X44080Y7328D02*
G01X36720D01*
X44080Y7184D02*
G01X36720D01*
X44080Y7112D02*
G01X36720D01*
X44080Y7040D02*
G01X36720D01*
X44080Y6968D02*
G01X36720D01*
X44080Y6896D02*
G01X36720D01*
X44080Y6824D02*
G01X36720D01*
X44080Y6752D02*
G01X36720D01*
X44080Y6680D02*
G01X36720D01*
X42840Y6075D02*
G01Y2758D01*
X44080Y6536D02*
G01X36720D01*
X42989Y6464D02*
G01X36720D01*
X42912Y6392D02*
G01X36720D01*
X42866Y6320D02*
G01X36720D01*
X42841Y6248D02*
G01X36720D01*
X42830Y6176D02*
G01X36720D01*
X42834Y6104D02*
G01X36720D01*
X42853Y6032D02*
G01X36720D01*
X38304Y9165D02*
G01Y5576D01*
X42949Y5888D02*
G01X36720D01*
X37680Y5816D02*
G01X36720D01*
X37532Y5744D02*
G01X36720D01*
X37448Y5672D02*
G01X36720D01*
X39744Y4813D02*
G01Y2758D01*
X37440Y4937D02*
G01Y2000D01*
X38016Y4789D02*
G01Y2000D01*
X37307Y5384D02*
G01X36720D01*
X37300Y5312D02*
G01X36720D01*
X37316Y5168D02*
G01X36720D01*
X37340Y5096D02*
G01X36720D01*
X37376Y5024D02*
G01X36720D01*
X37427Y4952D02*
G01X36720D01*
X39749Y4808D02*
G01X38062D01*
X43760D02*
G01X40251D01*
X39864Y4736D02*
G01X36720D01*
X43760Y4664D02*
G01X36720D01*
X43760Y4592D02*
G01X36720D01*
X43760Y4520D02*
G01X36720D01*
X43760Y4448D02*
G01X36720D01*
X43760Y4376D02*
G01X36720D01*
X43760Y4304D02*
G01X36720D01*
X43760Y4232D02*
G01X36720D01*
X43760Y4016D02*
G01X36720D01*
X43272Y5797D02*
G01Y2632D01*
X43760Y3944D02*
G01X36720D01*
X43760Y3872D02*
G01X36720D01*
X36792Y7805D02*
G01Y2000D01*
X43760Y3656D02*
G01X36720D01*
X43760Y3584D02*
G01X36720D01*
X43760Y3512D02*
G01X36720D01*
X43760Y3440D02*
G01X36720D01*
X43760Y3368D02*
G01X36720D01*
X43760Y3296D02*
G01X36720D01*
X43760Y3224D02*
G01X36720D01*
X43738Y3152D02*
G01X36720D01*
X43696Y3080D02*
G01X36720D01*
X43648Y3008D02*
G01X36720D01*
X43576Y2936D02*
G01X36720D01*
X38715Y2000D02*
G01X36720D01*
X43432Y2792D02*
G01X36720D01*
X38715Y2720D02*
G01X36720D01*
X38715Y2648D02*
G01X36720D01*
X38715Y2576D02*
G01X36720D01*
X38715Y2504D02*
G01X36720D01*
X38715Y2432D02*
G01X36720D01*
X38715Y2360D02*
G01X36720D01*
X38715Y2288D02*
G01X36720D01*
X38715Y2216D02*
G01X36720D01*
X36792Y29220D02*
G01Y26631D01*
X40536Y26591D02*
G01Y25826D01*
X40464Y26603D02*
G01Y26036D01*
X40407Y26623D02*
G01X37772D01*
X40320Y26678D02*
G01Y26195D01*
X40176Y29220D02*
G01Y26271D01*
X40104Y29220D02*
G01Y26290D01*
X40032Y29220D02*
G01Y26299D01*
X39960Y29220D02*
G01Y26299D01*
X39888Y29220D02*
G01Y26288D01*
X39816Y29220D02*
G01Y26268D01*
X39744Y29220D02*
G01Y26235D01*
X39672Y29220D02*
G01Y26189D01*
X39600Y29220D02*
G01Y26123D01*
X44000Y22807D02*
G01X40754D01*
X46095Y25615D02*
G01X40520D01*
X42597Y26119D02*
G01X40403D01*
X42686Y26047D02*
G01X40457D01*
X42852Y25975D02*
G01X40495D01*
X45262D02*
G01X43108D01*
X45342Y25903D02*
G01X40521D01*
X45375Y24895D02*
G01X37771D01*
X45951Y25471D02*
G01X40456D01*
X46239Y25759D02*
G01X40540D01*
X46167Y25687D02*
G01X40535D01*
X45879Y25399D02*
G01X40402D01*
X46720Y27127D02*
G01X40890D01*
X41052Y28351D02*
G01X36720D01*
X45125Y26263D02*
G01X43465D01*
X45140Y26191D02*
G01X43423D01*
X45453Y26839D02*
G01X43400D01*
X45329Y26767D02*
G01X43449D01*
X45252Y26695D02*
G01X43483D01*
X45199Y26623D02*
G01X43506D01*
X45162Y26551D02*
G01X43518D01*
X45138Y26479D02*
G01X43520D01*
X45124Y26407D02*
G01X43512D01*
X43776Y27304D02*
G01Y10023D01*
X37333Y27487D02*
G01X36720D01*
X43416Y27501D02*
G01Y26819D01*
X43344Y27572D02*
G01Y26899D01*
X43272Y27644D02*
G01Y26954D01*
X43200Y29600D02*
G01Y29244D01*
X43128Y27789D02*
G01Y27019D01*
X43056Y27860D02*
G01Y27035D01*
X42984Y27932D02*
G01Y27040D01*
X42912Y28004D02*
G01Y27036D01*
X42840Y28076D02*
G01Y27021D01*
X42768Y28148D02*
G01Y26997D01*
X42696Y28220D02*
G01Y26959D01*
X42624Y28292D02*
G01Y26906D01*
X41976Y28940D02*
G01Y24297D01*
X45167Y26119D02*
G01X43363D01*
X45206Y26047D02*
G01X43274D01*
X37146Y21295D02*
G01X36720D01*
X44501Y21079D02*
G01X41507D01*
X41976Y15344D02*
G01Y13651D01*
X41832Y23227D02*
G01Y20823D01*
X41760Y23244D02*
G01Y20923D01*
X41688Y23272D02*
G01Y20989D01*
X41616Y23314D02*
G01Y21036D01*
X41544Y23373D02*
G01Y21068D01*
X41472Y23459D02*
G01Y21088D01*
X41400Y28240D02*
G01Y23905D01*
X41328Y28243D02*
G01Y21099D01*
X41256Y28254D02*
G01Y21090D01*
X41184Y28277D02*
G01Y21070D01*
X41112Y28311D02*
G01Y21040D01*
X41040Y28361D02*
G01Y20995D01*
X40896Y22186D02*
G01Y20836D01*
X40824Y22065D02*
G01Y20625D01*
X45577Y20983D02*
G01X46720Y19840D01*
X44510Y20935D02*
G01X41748D01*
X44530Y20863D02*
G01X41807D01*
X44561Y20791D02*
G01X41848D01*
X44605Y20719D02*
G01X41876D01*
X44669Y20647D02*
G01X41893D01*
X44765Y20575D02*
G01X41900D01*
X46056Y20503D02*
G01X45101D01*
X37221Y22735D02*
G01X36720D01*
X46129Y20431D02*
G01X41884D01*
X46200Y20359D02*
G01X41861D01*
X46272Y20287D02*
G01X41826D01*
X42048Y12675D02*
G01Y12128D01*
X41976Y12709D02*
G01Y12108D01*
X41688Y11883D02*
G01Y11862D01*
X44937Y11576D02*
G01X42833D01*
X46578Y11432D02*
G01X42673D01*
X46506Y11360D02*
G01X42644D01*
X46434Y11288D02*
G01X42601D01*
X42480Y12696D02*
G01Y12596D01*
X42408Y12667D02*
G01Y12568D01*
X42336Y12649D02*
G01Y12526D01*
X42264Y12641D02*
G01Y12467D01*
X42192Y12642D02*
G01Y12381D01*
X42120Y12654D02*
G01Y12225D01*
X44743Y12080D02*
G01X43367D01*
X44736Y12008D02*
G01X43175D01*
X44740Y11936D02*
G01X43160D01*
X44753Y11864D02*
G01X43135D01*
X44776Y11792D02*
G01X43097D01*
X44812Y11720D02*
G01X43042D01*
X46208Y13232D02*
G01X42778D01*
X37308Y12872D02*
G01X36720D01*
X45115Y12512D02*
G01X43658D01*
X44968Y12440D02*
G01X43646D01*
X46712Y12728D02*
G01X43633D01*
X46856Y12584D02*
G01X43659D01*
X46424Y13016D02*
G01X43410D01*
X44064Y28843D02*
G01Y28380D01*
X42560Y26839D02*
G01X40910D01*
X42466Y26335D02*
G01X37816D01*
X42745Y22735D02*
G01X40823D01*
X43488Y22126D02*
G01Y12955D01*
X43416Y21950D02*
G01Y13012D01*
X43344Y21860D02*
G01Y13051D01*
X43272Y21799D02*
G01Y13078D01*
X43200Y21756D02*
G01Y13094D01*
X43128Y21727D02*
G01Y13100D01*
X43056Y21709D02*
G01Y13096D01*
X42984Y21701D02*
G01Y13083D01*
X42768Y13066D02*
G01Y12969D01*
X42624Y12800D02*
G01Y12773D01*
X44827Y12296D02*
G01X43591D01*
X44786Y12224D02*
G01X43542D01*
X42912Y21702D02*
G01Y13058D01*
X44080Y6032D02*
G01X43547D01*
X42840Y15614D02*
G01Y13022D01*
X42768Y15458D02*
G01Y13294D01*
X42696Y15372D02*
G01Y13469D01*
X45479Y25831D02*
G01X40535D01*
X42480Y15244D02*
G01Y13664D01*
X42408Y15227D02*
G01Y13693D01*
X42336Y15220D02*
G01Y13711D01*
X42264Y15223D02*
G01Y13719D01*
X42192Y15235D02*
G01Y13718D01*
X42120Y15258D02*
G01Y13706D01*
X42048Y15294D02*
G01Y13685D01*
X45632Y13808D02*
G01X40626D01*
X46280Y13160D02*
G01X42780D01*
X44192Y15248D02*
G01X42491D01*
X45848Y13592D02*
G01X42589D01*
X45920Y13520D02*
G01X42660D01*
X45992Y13448D02*
G01X42709D01*
X46064Y13376D02*
G01X42743D01*
X46136Y13304D02*
G01X42766D01*
X42237Y12440D02*
G01X41931D01*
X43005Y13088D02*
G01X42772D01*
X42830Y13016D02*
G01X42754D01*
X42740Y12944D02*
G01X42726D01*
X46352Y13088D02*
G01X43235D01*
X42607Y12728D02*
G01X42535D01*
X41213Y21079D02*
G01X36720D01*
X41904Y15416D02*
G01Y13603D01*
X42120Y9952D02*
G01Y2758D01*
X41797Y12872D02*
G01X41494D01*
X41857Y12800D02*
G01X41683D01*
X41945Y12728D02*
G01X41776D01*
X42589Y12656D02*
G01X42369D01*
X42445Y12584D02*
G01X41882D01*
X42316Y12512D02*
G01X41912D01*
X42111Y12656D02*
G01X41838D01*
X41832Y12826D02*
G01Y12664D01*
X41760Y20197D02*
G01Y13427D01*
X41688Y20131D02*
G01Y12797D01*
X41616Y20084D02*
G01Y12835D01*
X41544Y20052D02*
G01Y12860D01*
X39838Y13160D02*
G01X36720D01*
X41472Y14308D02*
G01Y12875D01*
X41400Y14167D02*
G01Y12880D01*
X42264Y9965D02*
G01Y2758D01*
X41328Y14085D02*
G01Y12875D01*
X37251Y12152D02*
G01X36720D01*
X41112Y13962D02*
G01Y12797D01*
X41040Y13946D02*
G01Y12742D01*
X40968Y13940D02*
G01Y12664D01*
X41976Y9999D02*
G01Y2758D01*
X41633Y11720D02*
G01X36927D01*
X42145Y12296D02*
G01X41938D01*
X44864Y11648D02*
G01X42964D01*
X37318Y12080D02*
G01X36720D01*
X41912D02*
G01X41873D01*
X40968Y28431D02*
G01Y20931D01*
X43800Y29287D02*
G01X43156D01*
X40896Y26805D02*
G01Y22614D01*
X40824Y26701D02*
G01Y22735D01*
X40752Y26644D02*
G01Y22810D01*
X39675Y26191D02*
G01X37778D01*
X42461Y22447D02*
G01X40938D01*
X42437Y22375D02*
G01X40939D01*
X42424Y22303D02*
G01X40931D01*
X42420Y22231D02*
G01X40913D01*
X42426Y22159D02*
G01X40883D01*
X42442Y22087D02*
G01X40840D01*
X42469Y22015D02*
G01X40779D01*
X42509Y21943D02*
G01X40688D01*
X41433Y23527D02*
G01X38087D01*
X41474Y23455D02*
G01X40216D01*
X41533Y23383D02*
G01X40319D01*
X41619Y23311D02*
G01X40386D01*
X44000Y23455D02*
G01X42366D01*
X44000Y23383D02*
G01X42307D01*
X44000Y23311D02*
G01X42221D01*
X41042Y11936D02*
G01X36823D01*
X44000Y23095D02*
G01X40488D01*
X44000Y23023D02*
G01X40498D01*
X40536Y25694D02*
G01Y22923D01*
X40464Y25484D02*
G01Y23174D01*
X40392Y25388D02*
G01Y23304D01*
X40320Y25325D02*
G01Y23383D01*
X40248Y25280D02*
G01Y23437D01*
X40176Y25249D02*
G01Y23475D01*
X40104Y25230D02*
G01Y23500D01*
X40032Y25221D02*
G01Y23515D01*
X39960Y25221D02*
G01Y23520D01*
X39888Y25232D02*
G01Y23515D01*
X39816Y25252D02*
G01Y23500D01*
X39744Y25285D02*
G01Y23475D01*
X39672Y25331D02*
G01Y23437D01*
X39600Y25397D02*
G01Y23382D01*
X39528Y29220D02*
G01Y26022D01*
X40176Y9845D02*
G01Y5804D01*
X42552Y15272D02*
G01Y13621D01*
X42625Y22663D02*
G01X40871D01*
X42550Y22591D02*
G01X40905D01*
X41184Y13989D02*
G01Y12835D01*
X41112Y18121D02*
G01Y16530D01*
X44979Y20503D02*
G01X41897D01*
X41040Y18038D02*
G01Y16937D01*
X40968Y17990D02*
G01Y17011D01*
X40824Y17951D02*
G01Y17080D01*
X40752Y17953D02*
G01Y17090D01*
X40680Y17970D02*
G01Y17085D01*
X39479Y22735D02*
G01X37979D01*
X40608Y18004D02*
G01Y17066D01*
X44199Y17120D02*
G01X38413D01*
X37493Y19280D02*
G01X36720D01*
X44080Y16400D02*
G01X41402D01*
X44576Y16976D02*
G01X41008D01*
X44504Y16904D02*
G01X41061D01*
X44432Y16832D02*
G01X41093D01*
X44360Y16760D02*
G01X41108D01*
X44288Y16688D02*
G01X41109D01*
X44080Y6104D02*
G01X43566D01*
X44216Y16616D02*
G01X41095D01*
X39486Y23239D02*
G01X38127D01*
X39454Y23167D02*
G01X38138D01*
X39432Y23095D02*
G01X38139D01*
X39422Y23023D02*
G01X38131D01*
X39421Y22951D02*
G01X38113D01*
X39429Y22879D02*
G01X38083D01*
X39448Y22807D02*
G01X38040D01*
X38088Y23529D02*
G01Y23351D01*
X37152Y23459D02*
G01Y23421D01*
X37080Y23614D02*
G01Y23266D01*
X39600Y9845D02*
G01Y2758D01*
X39523Y22663D02*
G01X37888D01*
X38232Y29220D02*
G01Y19044D01*
X38088Y29220D02*
G01Y23991D01*
X39897Y11216D02*
G01X36779D01*
X38016Y27205D02*
G01Y24104D01*
X37800Y24974D02*
G01Y24262D01*
X37080Y24004D02*
G01Y23906D01*
X41453Y24031D02*
G01X38067D01*
X41418Y23959D02*
G01X38102D01*
X41395Y23887D02*
G01X38125D01*
X41383Y23815D02*
G01X38137D01*
X41380Y23743D02*
G01X38140D01*
X41387Y23671D02*
G01X38133D01*
X41404Y23599D02*
G01X38116D01*
X39704Y23455D02*
G01X38046D01*
X39804Y26263D02*
G01X37802D01*
X37470Y27055D02*
G01X36720D01*
X40193Y26911D02*
G01X37454D01*
X40210Y26839D02*
G01X37594D01*
X40244Y26767D02*
G01X37676D01*
X40301Y26695D02*
G01X37732D01*
X42442Y26551D02*
G01X37798D01*
X42440Y26479D02*
G01X37814D01*
X42448Y26407D02*
G01X37820D01*
X37440Y27078D02*
G01Y26916D01*
X37368Y27161D02*
G01Y26933D01*
X36864Y29220D02*
G01Y26744D01*
X37129Y23383D02*
G01X36720D01*
X37347Y27199D02*
G01X36720D01*
X37080Y29220D02*
G01Y26902D01*
X37800Y26254D02*
G01Y25906D01*
Y27010D02*
G01Y26546D01*
X39544Y25471D02*
G01X37736D01*
X39597Y26119D02*
G01X37741D01*
X39505Y25975D02*
G01X37775D01*
X39479Y25903D02*
G01X37801D01*
X39465Y25831D02*
G01X37815D01*
X39460Y25759D02*
G01X37820D01*
X36936Y29220D02*
G01Y26816D01*
X42997Y27919D02*
G01X36720D01*
X37800Y25614D02*
G01Y25266D01*
X37584Y27003D02*
G01Y26846D01*
X39528Y25498D02*
G01Y23304D01*
X39480Y25615D02*
G01X37800D01*
X39465Y25687D02*
G01X37815D01*
X39598Y25399D02*
G01X37742D01*
X39677Y25327D02*
G01X37779D01*
X45807D02*
G01X40323D01*
X45303Y24823D02*
G01X37731D01*
X37008Y29220D02*
G01Y26866D01*
X37750Y18488D02*
G01X36720D01*
X46023Y25543D02*
G01X40495D01*
X36744Y26335D02*
G01X36720D01*
X45519Y25039D02*
G01X37814D01*
X45663Y25183D02*
G01X37816D01*
X45447Y24967D02*
G01X37798D01*
X37728Y24818D02*
G01Y24751D01*
Y25458D02*
G01Y25421D01*
Y26098D02*
G01Y26061D01*
X41776Y23239D02*
G01X40434D01*
X37944Y27101D02*
G01Y24176D01*
X37728Y26993D02*
G01Y26701D01*
X36744Y25183D02*
G01X36720D01*
X36785Y25543D02*
G01X36720D01*
X36758Y26263D02*
G01X36720D01*
Y29220D02*
G01Y24666D01*
X37296Y29220D02*
G01Y26940D01*
X36740Y26407D02*
G01X36720D01*
X37152Y29220D02*
G01Y26925D01*
X36824Y25471D02*
G01X36720D01*
X36819Y26119D02*
G01X36720D01*
X37656Y4792D02*
G01Y2000D01*
X41400Y23615D02*
G01Y21099D01*
X41687Y24247D02*
G01X37832D01*
X39312Y29220D02*
G01Y16758D01*
X39240Y29220D02*
G01Y18806D01*
X39168Y29220D02*
G01Y18952D01*
X39096Y29220D02*
G01Y19020D01*
X39024Y29220D02*
G01Y19061D01*
X38952Y29220D02*
G01Y19083D01*
X38880Y29220D02*
G01Y19090D01*
X38808Y29220D02*
G01Y19083D01*
X38736Y29220D02*
G01Y19061D01*
X38664Y29220D02*
G01Y19020D01*
X38592Y29220D02*
G01Y18952D01*
X39888Y16414D02*
G01Y14108D01*
X40023Y19064D02*
G01X39017D01*
X39909Y18992D02*
G01X39131D01*
X39848Y18920D02*
G01X39192D01*
X39813Y18848D02*
G01X39227D01*
X39794Y18776D02*
G01X39246D01*
X39790Y18704D02*
G01X39250D01*
X39801Y18632D02*
G01X39239D01*
X39827Y18560D02*
G01X39213D01*
X37726Y17624D02*
G01X36720D01*
X38088Y16910D02*
G01Y12851D01*
X38448Y29220D02*
G01Y18828D01*
X37312Y22663D02*
G01X36720D01*
X37160Y22807D02*
G01X36720D01*
X38629Y18992D02*
G01X38284D01*
X38520Y29220D02*
G01Y18805D01*
X36792Y25529D02*
G01Y25351D01*
X45087Y24607D02*
G01X37773D01*
X37440Y15254D02*
G01Y12964D01*
X36981Y21583D02*
G01X36720D01*
X39816Y18584D02*
G01Y17064D01*
X40555Y16400D02*
G01X39865D01*
X38533Y18848D02*
G01X38428D01*
X38646Y17984D02*
G01X38600D01*
X42889Y5960D02*
G01X36720D01*
X44080Y5888D02*
G01X43451D01*
X38287Y9200D02*
G01X36720D01*
X44080Y5744D02*
G01X40277D01*
X44072Y5672D02*
G01X40343D01*
X44000Y5600D02*
G01X40383D01*
X40392Y9030D02*
G01Y5574D01*
X40320Y9078D02*
G01Y5702D01*
X40248Y9161D02*
G01Y5766D01*
X41616Y11845D02*
G01Y11035D01*
X40536Y9931D02*
G01Y9729D01*
X40464Y9880D02*
G01Y9717D01*
X38196Y10784D02*
G01X36720D01*
X43005Y9920D02*
G01X40524D01*
X36792Y11229D02*
G01Y9835D01*
X43928Y5528D02*
G01X40404D01*
X43856Y5456D02*
G01X40410D01*
X43784Y5384D02*
G01X40402D01*
X39960Y4712D02*
G01Y2758D01*
X43760Y5312D02*
G01X40379D01*
X41184Y10405D02*
G01Y2758D01*
X41112Y10405D02*
G01Y2758D01*
X41256Y14028D02*
G01Y12860D01*
X41839Y10136D02*
G01X40741D01*
X40752Y10146D02*
G01Y9676D01*
X40519Y14168D02*
G01X36720D01*
X43826Y29359D02*
G01X43084D01*
X40536Y18061D02*
G01Y17029D01*
X37386Y9992D02*
G01X36720D01*
X42910Y9704D02*
G01X40697D01*
X42901Y9632D02*
G01X40811D01*
X42901Y9560D02*
G01X40871D01*
X42912Y9488D02*
G01X40907D01*
X42932Y9416D02*
G01X40926D01*
X42965Y9344D02*
G01X40930D01*
X43011Y9272D02*
G01X40919D01*
X43077Y9200D02*
G01X40894D01*
X44279Y9128D02*
G01X43702D01*
X37800Y18610D02*
G01Y18562D01*
X41503Y24103D02*
G01X38017D01*
X37584Y4825D02*
G01Y2000D01*
X40896Y15866D02*
G01Y15016D01*
X37152Y15071D02*
G01Y12593D01*
Y9205D02*
G01Y9151D01*
X44080Y8264D02*
G01X37361D01*
X44080Y7904D02*
G01X37365D01*
X43760Y3190D02*
G01X43664Y3024D01*
X43360Y2720D02*
G01X43099D01*
Y2758D02*
G01Y2459D01*
X43288Y2648D02*
G01X43099D01*
X43216Y2576D02*
G01X43099D01*
X43144Y2504D02*
G01X43099D01*
X44080Y7760D02*
G01X37225D01*
X45353Y28567D02*
G01X43876D01*
X43760Y3800D02*
G01X36720D01*
X46512Y12928D02*
G01Y11366D01*
X44080Y8624D02*
G01X37368D01*
X44080Y7256D02*
G01X36720D01*
X44080Y5816D02*
G01X43336D01*
X43488Y5927D02*
G01Y2848D01*
X44064Y15663D02*
G01Y5664D01*
X43504Y2864D02*
G01X36720D01*
X45281Y28639D02*
G01X43804D01*
X46721Y27199D02*
G01X40842D01*
X46720Y26479D02*
G01X46181D01*
X44000Y23167D02*
G01X40466D01*
X44151Y23671D02*
G01X42453D01*
X44352Y27300D02*
G01Y23872D01*
X44000Y22879D02*
G01X40648D01*
X44280Y27300D02*
G01Y23800D01*
X44424Y27300D02*
G01Y23944D01*
X44905Y21655D02*
G01X37784D01*
X44856Y21704D02*
G01Y21548D01*
X46720Y19784D02*
G01X36720D01*
X45735Y25255D02*
G01X40192D01*
X44000Y22663D02*
G01X43295D01*
X44000Y23239D02*
G01X42064D01*
X46440Y20120D02*
G01Y18840D01*
X44136Y17224D02*
G01Y16536D01*
X44042Y15824D02*
G01X42856D01*
X44064Y22496D02*
G01Y16015D01*
X44080Y16472D02*
G01X41319D01*
X45272Y14168D02*
G01X41400D01*
X44080Y15464D02*
G01X42771D01*
X45080Y17480D02*
G01X44830D01*
X44080Y16480D02*
G01Y16069D01*
X44280Y17049D02*
G01Y16680D01*
X44044Y15896D02*
G01X42843D01*
X45864Y13576D02*
G01Y10718D01*
X46496Y12944D02*
G01X43500D01*
X44208Y22352D02*
G01Y17611D01*
X46568Y12872D02*
G01X43561D01*
X47016Y12424D02*
G01Y11874D01*
X44184Y8984D02*
G01X39098D01*
X44208Y15232D02*
G01Y9023D01*
X44712Y14728D02*
G01Y9566D01*
X44080Y15608D02*
G01Y15360D01*
X44640Y14800D02*
G01Y9494D01*
X44496Y14944D02*
G01Y9350D01*
X44784Y11775D02*
G01Y9638D01*
X44136Y15304D02*
G01Y8936D01*
X38376Y9845D02*
G01Y9778D01*
X44112Y8912D02*
G01X38963D01*
X44208Y17109D02*
G01Y16608D01*
X40032Y4711D02*
G01Y2758D01*
X37303Y5240D02*
G01X36720D01*
X36864Y9205D02*
G01Y9123D01*
X38682Y15608D02*
G01X37450D01*
X38664Y15620D02*
G01Y12988D01*
X39312Y16682D02*
G01Y16529D01*
X36792Y9205D02*
G01Y9071D01*
X38232Y16943D02*
G01Y12960D01*
X40415Y16544D02*
G01X40005D01*
X40392Y9853D02*
G01Y9690D01*
X41832Y10149D02*
G01Y2758D01*
X41904Y10053D02*
G01Y2758D01*
X46290Y11144D02*
G01X42449D01*
X37530Y10136D02*
G01X36720D01*
X46362Y11216D02*
G01X42539D01*
X40248Y9845D02*
G01Y9559D01*
X40968Y10362D02*
G01Y2758D01*
X41989Y9992D02*
G01X40597D01*
X42912Y9488D02*
G01Y6392D01*
X41544Y11819D02*
G01Y11035D01*
X42984Y9311D02*
G01Y6460D01*
X43178Y9128D02*
G01X40848D01*
X40896Y10290D02*
G01Y9515D01*
X38245Y9344D02*
G01X37629D01*
X37219Y21223D02*
G01X36720D01*
X40248Y13095D02*
G01Y11415D01*
X39888Y9845D02*
G01Y5797D01*
X37080Y9205D02*
G01Y9166D01*
Y15072D02*
G01Y9835D01*
X37152Y12367D02*
G01Y9835D01*
X37368Y12039D02*
G01Y9973D01*
X38130Y9845D02*
G01X37584Y9298D01*
X39384Y11950D02*
G01Y10475D01*
X37224Y12191D02*
G01Y9835D01*
X36776Y9056D02*
G01X36720D01*
X37296Y12100D02*
G01Y9901D01*
X37872Y11975D02*
G01Y10448D01*
X39312Y15791D02*
G01Y13019D01*
X39024Y18025D02*
G01Y16427D01*
X44264Y15176D02*
G01X37379D01*
X38376Y11950D02*
G01Y11041D01*
X44080Y6248D02*
G01X43559D01*
X44080Y6320D02*
G01X43534D01*
X43200Y27716D02*
G01Y26993D01*
X43272Y29600D02*
G01Y29172D01*
X44480Y27300D02*
G01X43840D01*
X43920D02*
G01Y9848D01*
X42454Y26623D02*
G01X40713D01*
X42477Y26695D02*
G01X40819D01*
X43848Y27300D02*
G01Y9954D01*
X41904Y29012D02*
G01Y28911D01*
Y28649D02*
G01Y24300D01*
X43488Y27431D02*
G01Y26684D01*
X42511Y26767D02*
G01X40876D01*
X44712Y21848D02*
G01Y21469D01*
X44336Y15104D02*
G01X37274D01*
X42205Y28711D02*
G01X41916D01*
X36864Y7755D02*
G01Y2000D01*
X44080Y7976D02*
G01X37395D01*
X37828Y10424D02*
G01X36720D01*
X45858Y10712D02*
G01X42530D01*
X41256Y10405D02*
G01Y2758D01*
X38952Y17983D02*
G01Y16331D01*
X38304Y5024D02*
G01Y2000D01*
X37621Y17696D02*
G01X36720D01*
X37798Y18560D02*
G01X36720D01*
X37800Y17599D02*
G01Y17522D01*
X38664Y17976D02*
G01Y17779D01*
X38016Y16916D02*
G01Y12903D01*
X44123Y17264D02*
G01X38667D01*
X37768Y17480D02*
G01X36720D01*
X46088Y18488D02*
G01X41130D01*
X39600Y16359D02*
G01Y16346D01*
X39456Y15834D02*
G01Y12991D01*
X39240Y15792D02*
G01Y13019D01*
X45368Y17768D02*
G01X38675D01*
X37792Y17048D02*
G01X36720D01*
X44130Y17480D02*
G01X38768D01*
X40466Y16472D02*
G01X39954D01*
X37711Y18344D02*
G01X36720D01*
X37728Y17623D02*
G01Y17394D01*
X46720Y19351D02*
G01X36720D01*
X38376Y29220D02*
G01Y18900D01*
X44220Y17624D02*
G01X38755D01*
X40472Y16976D02*
G01X39948D01*
X37512Y18630D02*
G01Y17998D01*
X37944Y22704D02*
G01Y19239D01*
X37512Y21157D02*
G01Y19290D01*
X37584Y21179D02*
G01Y19317D01*
X38514Y18776D02*
G01X38500D01*
X37800Y17599D02*
G01Y17522D01*
X38600Y18009D02*
G01Y17840D01*
X39872Y18488D02*
G01X39168D01*
X37728Y18593D02*
G01Y18434D01*
Y21288D02*
G01Y19327D01*
X37656Y21220D02*
G01Y19329D01*
X37800Y21434D02*
G01Y19310D01*
X39744Y22485D02*
G01Y17084D01*
X37656Y11941D02*
G01Y10261D01*
X37584Y11949D02*
G01Y10189D01*
X37512Y11967D02*
G01Y10117D01*
X37440Y11996D02*
G01Y10045D01*
X36792Y21772D02*
G01Y16257D01*
X38261Y9272D02*
G01X37554D01*
X37008Y15087D02*
G01Y9835D01*
X36720Y11165D02*
G01Y9835D01*
X36936Y11534D02*
G01Y9835D01*
X36864Y11324D02*
G01Y9835D01*
X39080Y16472D02*
G01X36720D01*
X40790Y16328D02*
G01X39610D01*
X40763Y16256D02*
G01X39637D01*
X40751Y16184D02*
G01X39649D01*
X40753Y16112D02*
G01X39647D01*
X40770Y16040D02*
G01X39630D01*
X40804Y15968D02*
G01X39596D01*
X40861Y15896D02*
G01X39539D01*
X38998Y16400D02*
G01X36720D01*
X39240Y18634D02*
G01Y16528D01*
X39168Y18281D02*
G01Y16513D01*
X39096Y18098D02*
G01Y16481D01*
X38880Y17959D02*
G01Y16290D01*
X38808Y17950D02*
G01Y16283D01*
X38736Y17365D02*
G01Y16261D01*
X38448Y17153D02*
G01Y13019D01*
X38592Y17204D02*
G01Y16152D01*
X41786Y15680D02*
G01X39161D01*
X41780Y15752D02*
G01X39209D01*
X41802Y15608D02*
G01X39078D01*
X43064Y5816D02*
G01X40141D01*
X38620Y16184D02*
G01X37257D01*
X38563Y16112D02*
G01X37371D01*
X38530Y16040D02*
G01X37431D01*
X38513Y15968D02*
G01X37467D01*
X38511Y15896D02*
G01X37486D01*
X37440Y18678D02*
G01Y16026D01*
X45144Y20510D02*
G01Y19017D01*
X45072Y20501D02*
G01Y19131D01*
X45000Y20501D02*
G01Y19191D01*
X44928Y20512D02*
G01Y19227D01*
X44856Y20532D02*
G01Y19246D01*
X44784Y20565D02*
G01Y19250D01*
X44712Y20611D02*
G01Y19239D01*
X44640Y20677D02*
G01Y19214D01*
X44568Y20778D02*
G01Y19168D01*
X45912Y20647D02*
G01X45411D01*
X44352Y17013D02*
G01Y16752D01*
X44496Y22064D02*
G01Y19091D01*
X45224Y17624D02*
G01X44740D01*
X46592Y18992D02*
G01X45153D01*
X46520Y18920D02*
G01X45168D01*
X46720Y19136D02*
G01X45068D01*
X46664Y19064D02*
G01X45121D01*
X46304Y18704D02*
G01X45125D01*
X44080Y6176D02*
G01X43570D01*
X37440Y15654D02*
G01Y15626D01*
X38520Y15835D02*
G01Y13019D01*
X37296Y21179D02*
G01Y16165D01*
X37224Y21220D02*
G01Y16195D01*
X37152Y21288D02*
G01Y16209D01*
X37080Y21435D02*
G01Y16208D01*
X37008Y21556D02*
G01Y16193D01*
X36936Y21628D02*
G01Y16161D01*
X36720Y21800D02*
G01Y16281D01*
X36864Y21700D02*
G01Y16214D01*
X37368Y18761D02*
G01Y16115D01*
X38551Y15752D02*
G01X37479D01*
X41829Y15536D02*
G01X37477D01*
X41869Y15464D02*
G01X37489D01*
X41925Y15392D02*
G01X37487D01*
X42007Y15320D02*
G01X37470D01*
X42149Y15248D02*
G01X37436D01*
X44120Y15320D02*
G01X42633D01*
X45560Y13880D02*
G01X40593D01*
X40896Y28541D02*
G01Y27115D01*
X40824Y29220D02*
G01Y27219D01*
X40752Y29220D02*
G01Y27276D01*
X40680Y29220D02*
G01Y27310D01*
X40608Y29220D02*
G01Y27327D01*
X40536Y29220D02*
G01Y27329D01*
X40464Y29220D02*
G01Y27317D01*
X40392Y29220D02*
G01Y27290D01*
X46433Y27487D02*
G01X44889D01*
X44993Y28927D02*
G01X44410D01*
X44080Y16256D02*
G01X42534D01*
X46649Y27271D02*
G01X40760D01*
X42739Y26983D02*
G01X40929D01*
X40248Y26761D02*
G01Y26240D01*
X45864Y28056D02*
G01Y26840D01*
X45000Y28920D02*
G01Y27986D01*
X44928Y28992D02*
G01Y28142D01*
X44856Y29064D02*
G01Y28228D01*
X44784Y29136D02*
G01Y28286D01*
X44712Y29208D02*
G01Y28328D01*
X45857Y28063D02*
G01X44972D01*
X40320Y29220D02*
G01Y27241D01*
X44424Y28941D02*
G01Y28380D01*
X40248Y29220D02*
G01Y27159D01*
X44352Y28884D02*
G01Y28380D01*
X46361Y27559D02*
G01X44941D01*
X44136Y28831D02*
G01Y28380D01*
X43992Y28870D02*
G01Y28452D01*
X43920Y28919D02*
G01Y28524D01*
X43848Y29001D02*
G01Y28596D01*
X45065Y28855D02*
G01X44294D01*
X43632Y29600D02*
G01Y28812D01*
X43560Y29600D02*
G01Y28884D01*
X43776Y29600D02*
G01Y28668D01*
X43704Y29600D02*
G01Y28740D01*
X43488Y29600D02*
G01Y28956D01*
X43416Y29600D02*
G01Y29028D01*
X44026Y28855D02*
G01X43588D01*
X44345Y29575D02*
G01X42868D01*
X43128Y29600D02*
G01Y29316D01*
X43056Y29600D02*
G01Y29388D01*
X42984Y29600D02*
G01Y29460D01*
X42912Y29600D02*
G01Y29532D01*
X44280Y28850D02*
G01Y28380D01*
X44496Y29045D02*
G01Y28380D01*
X44640Y29280D02*
G01Y28356D01*
X44568Y29352D02*
G01Y28373D01*
X43813Y29071D02*
G01X43372D01*
X43849Y28999D02*
G01X43444D01*
X38326Y9128D02*
G01X37210D01*
X38381Y9056D02*
G01X37307D01*
X37512Y9244D02*
G01Y5729D01*
X37800Y11953D02*
G01Y10403D01*
X36720Y9205D02*
G01Y8981D01*
X37296Y9205D02*
G01Y9067D01*
X37224Y9205D02*
G01Y9120D01*
X38447Y9845D02*
G01X38130D01*
X37008Y9205D02*
G01Y9167D01*
X36936Y9205D02*
G01Y9153D01*
X45786Y10640D02*
G01X42521D01*
X42480Y10534D02*
G01Y10506D01*
X41010Y10405D02*
G01X40544Y9938D01*
X42336Y11089D02*
G01Y11046D01*
X41688Y11338D02*
G01Y11035D01*
X41760Y11237D02*
G01Y11035D01*
X43128Y9159D02*
G01Y6523D01*
X43200Y9116D02*
G01Y6530D01*
X42408Y11120D02*
G01Y10995D01*
X41976Y11092D02*
G01Y11041D01*
X41040Y10405D02*
G01Y2758D01*
X42480Y11165D02*
G01Y10906D01*
X45714Y10568D02*
G01X42497D01*
X45642Y10496D02*
G01X42486D01*
X45570Y10424D02*
G01X42515D01*
X45498Y10352D02*
G01X42529D01*
X45426Y10280D02*
G01X42528D01*
X43373Y10136D02*
G01X42481D01*
X43163Y10064D02*
G01X42427D01*
X43068Y9992D02*
G01X42331D01*
X41112Y20080D02*
G01Y18519D01*
X41040Y20125D02*
G01Y18602D01*
X40968Y20189D02*
G01Y18650D01*
X40896Y20284D02*
G01Y18677D01*
X40824Y20495D02*
G01Y18689D01*
X40752Y21990D02*
G01Y18687D01*
X40680Y21938D02*
G01Y18670D01*
X40608Y21902D02*
G01Y18636D01*
X40536Y21877D02*
G01Y18579D01*
X40464Y18509D02*
G01Y18475D01*
X46488Y20071D02*
G01X41590D01*
X45944Y18344D02*
G01X41169D01*
X45872Y18272D02*
G01X41167D01*
X45800Y18200D02*
G01X41150D01*
X45728Y18128D02*
G01X41116D01*
X44475Y18704D02*
G01X40530D01*
X44526Y18632D02*
G01X41000D01*
X45656Y18056D02*
G01X41059D01*
X45584Y17984D02*
G01X40954D01*
X40032Y18373D02*
G01Y16834D01*
X39960Y18409D02*
G01Y16962D01*
X38568Y18920D02*
G01X38356D01*
X41058Y21007D02*
G01X36720D01*
X37440Y21150D02*
G01Y19242D01*
X37368Y21157D02*
G01Y19159D01*
X38119Y19157D02*
G01X38513Y18763D01*
X40371Y16688D02*
G01X40049D01*
X38304Y29220D02*
G01Y18972D01*
X38016Y22776D02*
G01Y19223D01*
X40385Y16616D02*
G01X40035D01*
X38743Y19064D02*
G01X38212D01*
X38088Y22889D02*
G01Y19184D01*
X40568Y17048D02*
G01X39852D01*
X39384Y29220D02*
G01Y16942D01*
X39528Y22656D02*
G01Y17057D01*
X39168Y18488D02*
G01Y18359D01*
X38160Y29220D02*
G01Y19116D01*
X40387Y16832D02*
G01X40033D01*
X40464Y18165D02*
G01Y16966D01*
X40431Y18344D02*
G01X39169D01*
X40433Y18272D02*
G01X39167D01*
X40450Y18200D02*
G01X39150D01*
X40484Y18128D02*
G01X39116D01*
X40541Y18056D02*
G01X39059D01*
X45569Y28351D02*
G01X44654D01*
X45425Y28495D02*
G01X43948D01*
X44424Y29496D02*
G01Y29459D01*
X44352Y29568D02*
G01Y29516D01*
X44280Y29600D02*
G01Y29550D01*
X44208Y29600D02*
G01Y29567D01*
X44136Y29600D02*
G01Y29569D01*
X44064Y29600D02*
G01Y29557D01*
X43992Y29600D02*
G01Y29530D01*
X43920Y29600D02*
G01Y29481D01*
X45497Y28423D02*
G01X44020D01*
X43848Y29600D02*
G01Y29399D01*
X44417Y29503D02*
G01X44372D01*
X45641Y28279D02*
G01X44794D01*
X44496Y29424D02*
G01Y29355D01*
X44633Y29287D02*
G01X44520D01*
X44705Y29215D02*
G01X44530D01*
X44489Y29431D02*
G01X44449D01*
X44561Y29359D02*
G01X44494D01*
X44921Y28999D02*
G01X44471D01*
X40464Y21864D02*
G01Y18931D01*
X40392Y21860D02*
G01Y19008D01*
X40320Y21866D02*
G01Y19054D01*
X40248Y21882D02*
G01Y19079D01*
X40176Y21909D02*
G01Y19090D01*
X40104Y21948D02*
G01Y19086D01*
X40032Y22005D02*
G01Y19067D01*
X39960Y22087D02*
G01Y19031D01*
X39888Y22229D02*
G01Y18971D01*
X39816Y22460D02*
G01Y18856D01*
X44532Y19136D02*
G01X38140D01*
X44479Y19064D02*
G01X40297D01*
X44447Y18992D02*
G01X40411D01*
X44432Y18920D02*
G01X40472D01*
X44431Y18848D02*
G01X40507D01*
X44445Y18776D02*
G01X40526D01*
X40646Y17984D02*
G01X38954D01*
X40600Y18632D02*
G01X40519D01*
X40518Y18560D02*
G01X40493D01*
X40470Y18488D02*
G01X40448D01*
X42106Y16256D02*
G01X41477D01*
X41985Y16184D02*
G01X41489D01*
X41910Y16112D02*
G01X41487D01*
X41858Y16040D02*
G01X41470D01*
X41821Y15968D02*
G01X41436D01*
X41797Y15896D02*
G01X41379D01*
X41784Y15824D02*
G01X41274D01*
X41472Y20032D02*
G01Y16274D01*
X41400Y20021D02*
G01Y16402D01*
X41328Y20021D02*
G01Y16466D01*
X41256Y20030D02*
G01Y16504D01*
X40752Y16350D02*
G01Y16197D01*
X37368Y8624D02*
G01Y8251D01*
X36720Y24374D02*
G01Y22360D01*
X37800Y22618D02*
G01Y21606D01*
X37728Y22595D02*
G01Y21752D01*
X37656Y22583D02*
G01Y21820D01*
X37584Y22580D02*
G01Y21861D01*
X37512Y22587D02*
G01Y21883D01*
X37296Y22674D02*
G01Y22060D01*
X37224Y22732D02*
G01Y22132D01*
X40289Y21871D02*
G01X37556D01*
X42648Y21799D02*
G01X37682D01*
X42790Y21727D02*
G01X37746D01*
X44761Y21799D02*
G01X43272D01*
X44144Y16544D02*
G01X41065D01*
X44777Y21511D02*
G01X37810D01*
X44677Y21439D02*
G01X37801D01*
X44611Y21367D02*
G01X37777D01*
X44564Y21295D02*
G01X37734D01*
X44532Y21223D02*
G01X37661D01*
X44512Y21151D02*
G01X37473D01*
X40320Y9845D02*
G01X39113D01*
X41112Y11883D02*
G01Y11035D01*
X42929Y9776D02*
G01X39186D01*
X40423Y9704D02*
G01X39239D01*
X40309Y9632D02*
G01X39277D01*
X40249Y9560D02*
G01X39302D01*
X40213Y9488D02*
G01X39316D01*
X40194Y9416D02*
G01X39320D01*
X40190Y9344D02*
G01X39315D01*
X40201Y9272D02*
G01X39299D01*
X40226Y9200D02*
G01X39273D01*
X40272Y9128D02*
G01X39234D01*
X40349Y9056D02*
G01X39179D01*
X44227D02*
G01X40771D01*
X37152Y12368D02*
G01X36720D01*
X39384Y9845D02*
G01Y2758D01*
X41184Y11845D02*
G01Y11035D01*
X39240Y9845D02*
G01Y9703D01*
X39168Y9845D02*
G01Y9796D01*
X39096Y11972D02*
G01Y10475D01*
X39024Y12005D02*
G01Y10475D01*
X38952Y12051D02*
G01Y10475D01*
X38190Y10712D02*
G01X36720D01*
X38880Y10534D02*
G01Y10475D01*
X38808Y12051D02*
G01Y10995D01*
X39312Y11941D02*
G01Y10475D01*
X38304Y11969D02*
G01Y10987D01*
X38592Y11952D02*
G01Y11089D01*
X38520Y11941D02*
G01Y11088D01*
X38016Y9730D02*
G01Y5811D01*
X39939Y5816D02*
G01X38000D01*
X39803Y5744D02*
G01X38147D01*
X39737Y5672D02*
G01X38231D01*
X39697Y5600D02*
G01X38289D01*
X39676Y5528D02*
G01X38330D01*
X39670Y5456D02*
G01X38357D01*
X38520Y8947D02*
G01Y2000D01*
X38376Y9062D02*
G01Y5366D01*
X39456Y11969D02*
G01Y10475D01*
X38232Y9845D02*
G01Y5671D01*
X38088Y9802D02*
G01Y5780D01*
X38232Y10549D02*
G01Y10475D01*
X37944Y9658D02*
G01Y5830D01*
X37872Y9586D02*
G01Y5839D01*
X37800Y9514D02*
G01Y5839D01*
X37728Y9442D02*
G01Y5828D01*
X37656Y9370D02*
G01Y5808D01*
X37584Y9299D02*
G01Y5775D01*
X37368Y7909D02*
G01Y5562D01*
X39678Y5384D02*
G01X38373D01*
X39701Y5312D02*
G01X38380D01*
X39672Y4909D02*
G01Y2758D01*
X39666Y5240D02*
G01X38377D01*
X39641Y5168D02*
G01X38364D01*
X39630Y5096D02*
G01X38340D01*
X39634Y5024D02*
G01X38304D01*
X39653Y4952D02*
G01X38253D01*
X39689Y4880D02*
G01X38179D01*
X43632Y27342D02*
G01Y12732D01*
X43560Y27378D02*
G01Y12873D01*
X43632Y12388D02*
G01Y10105D01*
X43560Y12247D02*
G01Y10127D01*
X43488Y12165D02*
G01Y10138D01*
X43416Y12108D02*
G01Y10139D01*
X43344Y12069D02*
G01Y10131D01*
X43272Y12042D02*
G01Y10113D01*
X43200Y12026D02*
G01Y10084D01*
X43128Y11848D02*
G01Y10041D01*
X43056Y11735D02*
G01Y9979D01*
X42984Y11664D02*
G01Y9889D01*
X42912Y11613D02*
G01Y9712D01*
X45354Y10208D02*
G01X42513D01*
X45282Y10136D02*
G01X43507D01*
X45210Y10064D02*
G01X43717D01*
X45776Y13664D02*
G01X42480D01*
X45066Y9920D02*
G01X43875D01*
X44994Y9848D02*
G01X43920D01*
X44922Y9776D02*
G01X43951D01*
X44850Y9704D02*
G01X43970D01*
X44778Y9632D02*
G01X43979D01*
X44706Y9560D02*
G01X43978D01*
X44634Y9488D02*
G01X43968D01*
X44562Y9416D02*
G01X43948D01*
X44490Y9344D02*
G01X43915D01*
X45138Y9992D02*
G01X43812D01*
X40824Y13957D02*
G01Y11074D01*
X40752Y13982D02*
G01Y11204D01*
X40680Y14018D02*
G01Y11283D01*
X40608Y13389D02*
G01Y11337D01*
X41676Y11360D02*
G01X40568D01*
X41719Y11288D02*
G01X40674D01*
X41781Y11216D02*
G01X40743D01*
X41871Y11144D02*
G01X40791D01*
X41966Y11035D02*
G01X40880D01*
X41328Y11805D02*
G01Y11035D01*
X42045Y11072D02*
G01X40825D01*
X41832Y11171D02*
G01Y11035D01*
X40176Y13083D02*
G01Y11400D01*
X40104Y13080D02*
G01Y11375D01*
X40032Y13087D02*
G01Y11337D01*
X39960Y13104D02*
G01Y11282D01*
X40536Y13276D02*
G01Y11375D01*
X40464Y13204D02*
G01Y11400D01*
X40392Y13153D02*
G01Y11415D01*
X40320Y13118D02*
G01Y11420D01*
X39212Y13016D02*
G01X38548D01*
X39003Y12944D02*
G01X38757D01*
X38880Y15550D02*
G01Y12843D01*
X38808Y15557D02*
G01Y12909D01*
X44324Y17696D02*
G01X38726D01*
X38160Y16919D02*
G01Y12915D01*
X38918Y12080D02*
G01X38842D01*
X39018Y12008D02*
G01X38742D01*
X38412Y13016D02*
G01X37748D01*
X38108Y12872D02*
G01X38052D01*
X38908D02*
G01X38852D01*
X41400Y11800D02*
G01Y11035D01*
X41800Y10405D02*
G01X41010D01*
X43056Y9221D02*
G01Y6501D01*
X39816Y12414D02*
G01Y11074D01*
X39888Y13132D02*
G01Y11204D01*
X38520Y17170D02*
G01Y16005D01*
X38304Y16985D02*
G01Y12990D01*
X38736Y17956D02*
G01Y17675D01*
X37872Y16974D02*
G01Y12985D01*
X37800Y17038D02*
G01Y13006D01*
X37656Y17666D02*
G01Y13019D01*
X37584Y17738D02*
G01Y13011D01*
X37512Y17922D02*
G01Y12993D01*
X37584Y18603D02*
G01Y18182D01*
X45512Y17912D02*
G01X38600D01*
X39869Y22303D02*
G01X37049D01*
X37368Y15165D02*
G01Y12921D01*
X37296Y15115D02*
G01Y12860D01*
X38232Y4929D02*
G01Y2000D01*
X38664Y17261D02*
G01Y16220D01*
X38592Y15688D02*
G01Y13008D01*
X37413Y18704D02*
G01X36720D01*
X38118Y12080D02*
G01X38042D01*
X39816Y13174D02*
G01Y12546D01*
X39744Y13232D02*
G01Y12756D01*
X39672Y13319D02*
G01Y12851D01*
X39600Y13475D02*
G01Y12915D01*
X40966Y15824D02*
G01X39434D01*
X39600Y15974D02*
G01Y13765D01*
X39528Y15885D02*
G01Y12960D01*
X41726Y13016D02*
G01X39348D01*
X41754Y12944D02*
G01X39557D01*
X41306Y12872D02*
G01X39652D01*
X41117Y12800D02*
G01X39715D01*
X41024Y12728D02*
G01X39760D01*
X40962Y12656D02*
G01X39791D01*
X40918Y12584D02*
G01X39810D01*
X40888Y12512D02*
G01X39819D01*
X40869Y12440D02*
G01X39818D01*
X40861Y12368D02*
G01X39808D01*
X38523Y15824D02*
G01X37490D01*
X39384Y15805D02*
G01Y13010D01*
X39168Y15688D02*
G01Y13008D01*
X39096Y15620D02*
G01Y12988D01*
X39024Y15579D02*
G01Y12955D01*
X40862Y12296D02*
G01X39788D01*
X40873Y12224D02*
G01X39755D01*
X40894Y12152D02*
G01X39709D01*
X40927Y12080D02*
G01X39642D01*
X40974Y12008D02*
G01X39542D01*
X40608Y14071D02*
G01Y13851D01*
X40581Y14096D02*
G01X40376D01*
X40536Y14146D02*
G01Y13964D01*
X40464Y14267D02*
G01Y14036D01*
X40392Y16595D02*
G01Y14087D01*
Y18432D02*
G01Y16845D01*
X40320Y18386D02*
G01Y14122D01*
X40248Y18361D02*
G01Y14145D01*
X40176Y18350D02*
G01Y14157D01*
X40104Y18354D02*
G01Y14160D01*
X40443Y18416D02*
G01X40370D01*
X40032Y16606D02*
G01Y14153D01*
X39960Y16478D02*
G01Y14136D01*
X39816Y16376D02*
G01Y14066D01*
X39744Y16356D02*
G01Y14007D01*
X39672Y16350D02*
G01Y13921D01*
X40671Y14024D02*
G01X40479D01*
X40848Y13952D02*
G01X40546D01*
X45416Y14024D02*
G01X41249D01*
X45704Y13736D02*
G01X40647D01*
X45488Y13952D02*
G01X41072D01*
X42000Y13664D02*
G01X40658D01*
X41891Y13592D02*
G01X40659D01*
X41820Y13520D02*
G01X40651D01*
X41771Y13448D02*
G01X40632D01*
X41737Y13376D02*
G01X40602D01*
X41714Y13304D02*
G01X40558D01*
X41702Y13232D02*
G01X40495D01*
X41700Y13160D02*
G01X40402D01*
X41708Y13088D02*
G01X40211D01*
X41472Y16046D02*
G01Y14652D01*
X41400Y15918D02*
G01Y14793D01*
X41328Y15854D02*
G01Y14875D01*
X41256Y15816D02*
G01Y14932D01*
X40824Y15938D02*
G01Y15003D01*
X40680Y16355D02*
G01Y14942D01*
X40608Y16374D02*
G01Y14889D01*
X40752Y16123D02*
G01Y14978D01*
X41184Y15796D02*
G01Y14971D01*
X41112Y15790D02*
G01Y14998D01*
X41040Y15799D02*
G01Y15014D01*
X40968Y15823D02*
G01Y15020D01*
X36966Y15104D02*
G01X36720D01*
X45344Y14096D02*
G01X41339D01*
X44552Y14888D02*
G01X41314D01*
X44624Y14816D02*
G01X41383D01*
X44696Y14744D02*
G01X41431D01*
X44768Y14672D02*
G01X41465D01*
X44840Y14600D02*
G01X41487D01*
X44912Y14528D02*
G01X41498D01*
X44984Y14456D02*
G01X41499D01*
X45056Y14384D02*
G01X41491D01*
X45128Y14312D02*
G01X41473D01*
X45200Y14240D02*
G01X41444D01*
X40536Y16411D02*
G01Y14814D01*
X40464Y16474D02*
G01Y14693D01*
X44054Y15968D02*
G01X42818D01*
X44480Y14960D02*
G01X41208D01*
X46784Y12656D02*
G01X43651D01*
X46928Y12512D02*
G01X45437D01*
X47000Y12440D02*
G01X45584D01*
X45936Y13504D02*
G01Y10790D01*
X47040Y12368D02*
G01X45668D01*
X45648Y13792D02*
G01Y12388D01*
X45576Y13864D02*
G01Y12446D01*
X45504Y13936D02*
G01Y12486D01*
X45432Y14008D02*
G01Y12513D01*
X45360Y14080D02*
G01Y12530D01*
X45288Y14152D02*
G01Y12536D01*
X44568Y14872D02*
G01Y9422D01*
X45144Y14296D02*
G01Y12520D01*
X45072Y14368D02*
G01Y12496D01*
X45216Y14224D02*
G01Y12533D01*
X45720Y13720D02*
G01Y12304D01*
X47040Y12296D02*
G01X45726D01*
X45792Y13648D02*
G01Y12157D01*
X47040Y12152D02*
G01X45793D01*
X47040Y12080D02*
G01X45810D01*
X46979Y11833D02*
G01X44327Y9181D01*
X47007Y11864D02*
G01X45800D01*
X46440Y13000D02*
G01Y11294D01*
X46938Y11792D02*
G01X45776D01*
X46866Y11720D02*
G01X45740D01*
X46794Y11648D02*
G01X45689D01*
X46722Y11576D02*
G01X45615D01*
X44080Y16328D02*
G01X41450D01*
X44080Y16112D02*
G01X42730D01*
X44080Y16184D02*
G01X42655D01*
X44071Y16040D02*
G01X42782D01*
X42840Y21714D02*
G01Y15906D01*
X42768Y21735D02*
G01Y16062D01*
X42696Y21769D02*
G01Y16148D01*
X42624Y21817D02*
G01Y16206D01*
X42552Y21886D02*
G01Y16248D01*
X42480Y21993D02*
G01Y16276D01*
X42408Y23528D02*
G01Y16293D01*
X42336Y23416D02*
G01Y16300D01*
X42264Y23344D02*
G01Y16297D01*
X42192Y23293D02*
G01Y16285D01*
X42120Y23258D02*
G01Y16262D01*
X42048Y23235D02*
G01Y16226D01*
X41976Y23223D02*
G01Y16176D01*
X41904Y23220D02*
G01Y16104D01*
X41832Y20297D02*
G01Y15991D01*
X45000Y14440D02*
G01Y12460D01*
X44047Y15752D02*
G01X42860D01*
X44060Y15680D02*
G01X42854D01*
X46640Y12800D02*
G01X43604D01*
X44080Y15608D02*
G01X42838D01*
X44080Y15536D02*
G01X42811D01*
X44080Y15392D02*
G01X42715D01*
X45864Y20696D02*
G01Y18264D01*
X42630Y26911D02*
G01X40927D01*
X46001Y27919D02*
G01X45014D01*
X44000Y22560D02*
G01X44983Y21577D01*
X45720Y20840D02*
G01Y18120D01*
X45624Y20935D02*
G01X45570D01*
X45696Y20863D02*
G01X45550D01*
X45769Y20791D02*
G01X45519D01*
X45841Y20719D02*
G01X45475D01*
X45152Y17552D02*
G01X44797D01*
X46720Y27055D02*
G01X40917D01*
X43488Y26316D02*
G01Y22354D01*
X43416Y26181D02*
G01Y22530D01*
X43344Y26101D02*
G01Y22620D01*
X43272Y26046D02*
G01Y22681D01*
X43200Y26007D02*
G01Y22724D01*
X43128Y25981D02*
G01Y22753D01*
X43056Y25965D02*
G01Y22771D01*
X42984Y25960D02*
G01Y22779D01*
X42912Y25964D02*
G01Y22778D01*
X42840Y25979D02*
G01Y22766D01*
X42768Y26003D02*
G01Y22745D01*
X42696Y26041D02*
G01Y22711D01*
X42624Y26094D02*
G01Y22663D01*
X42552Y26171D02*
G01Y22594D01*
X42480Y26296D02*
G01Y22487D01*
X45984Y20575D02*
G01X45315D01*
X44136Y22424D02*
G01Y17496D01*
X44000Y22591D02*
G01X43370D01*
X44041Y22519D02*
G01X43422D01*
X44113Y22447D02*
G01X43459D01*
X44185Y22375D02*
G01X43483D01*
X44257Y22303D02*
G01X43496D01*
X44329Y22231D02*
G01X43500D01*
X44401Y22159D02*
G01X43494D01*
X44473Y22087D02*
G01X43478D01*
X44545Y22015D02*
G01X43451D01*
X44617Y21943D02*
G01X43411D01*
X44689Y21871D02*
G01X43355D01*
X42048Y28868D02*
G01Y24285D01*
X43344Y29600D02*
G01Y29100D01*
X42637Y28279D02*
G01X41582D01*
X41832Y29084D02*
G01Y29076D01*
X46289Y27631D02*
G01X44978D01*
X46217Y27703D02*
G01X45002D01*
X46145Y27775D02*
G01X45016D01*
X46073Y27847D02*
G01X45020D01*
X45144Y28776D02*
G01Y26501D01*
X40680Y26610D02*
G01Y22862D01*
X45785Y28135D02*
G01X44932D01*
X41040Y29220D02*
G01Y29199D01*
X40968Y29220D02*
G01Y29129D01*
X42925Y27991D02*
G01X36720D01*
X43948Y29503D02*
G01X42940D01*
X45713Y28207D02*
G01X44876D01*
X43790Y29215D02*
G01X43228D01*
X43794Y29143D02*
G01X43300D01*
X41845Y29071D02*
G01X41835D01*
X41917Y28999D02*
G01X41873D01*
X42061Y28855D02*
G01X41915D01*
X42133Y28783D02*
G01X41920D01*
X41989Y28927D02*
G01X41900D01*
X42277Y28639D02*
G01X41901D01*
X42349Y28567D02*
G01X41876D01*
X42421Y28495D02*
G01X41839D01*
X42493Y28423D02*
G01X41785D01*
X42565Y28351D02*
G01X41708D01*
X46671Y26191D02*
G01X46178D01*
X46720Y26839D02*
G01X45866D01*
X46720Y26767D02*
G01X45990D01*
X46720Y26695D02*
G01X46066D01*
X46720Y26623D02*
G01X46119D01*
X46720Y26551D02*
G01X46157D01*
X46720Y26263D02*
G01X46194D01*
X46296Y27624D02*
G01Y25816D01*
X46720Y26335D02*
G01X46199D01*
X46152Y27768D02*
G01Y26562D01*
X46080Y27840D02*
G01Y26679D01*
X46008Y27912D02*
G01Y26753D01*
X45936Y27984D02*
G01Y26804D01*
X44777Y29143D02*
G01X44526D01*
X45720Y28200D02*
G01Y26877D01*
X45648Y28272D02*
G01Y26880D01*
X45576Y28344D02*
G01Y26874D01*
X45504Y28416D02*
G01Y26858D01*
X45432Y28488D02*
G01Y26830D01*
X45360Y28560D02*
G01Y26790D01*
X45288Y28632D02*
G01Y26732D01*
X46599Y26119D02*
G01X46152D01*
X46527Y26047D02*
G01X46113D01*
X46455Y25975D02*
G01X46057D01*
X37368Y27559D02*
G01X36720D01*
X42552Y28364D02*
G01Y26829D01*
X42408Y28508D02*
G01Y23991D01*
X42336Y28580D02*
G01Y24104D01*
X42264Y28652D02*
G01Y24176D01*
X42192Y28724D02*
G01Y24227D01*
X42120Y28796D02*
G01Y24262D01*
X37008Y24032D02*
G01Y22329D01*
X41811Y29105D02*
G01X43458Y27458D01*
X41832Y28484D02*
G01Y24293D01*
X41760Y28396D02*
G01Y24276D01*
X41688Y28336D02*
G01Y24248D01*
X41616Y28294D02*
G01Y24206D01*
X41544Y28265D02*
G01Y24147D01*
X41472Y28248D02*
G01Y24061D01*
X44871Y24391D02*
G01X37764D01*
X44000Y22735D02*
G01X43175D01*
X44727Y24247D02*
G01X42152D01*
X44655Y24175D02*
G01X42265D01*
X44583Y24103D02*
G01X42337D01*
X44511Y24031D02*
G01X42387D01*
X44439Y23959D02*
G01X42422D01*
X44367Y23887D02*
G01X42445D01*
X44295Y23815D02*
G01X42457D01*
X44223Y23743D02*
G01X42460D01*
X44079Y23599D02*
G01X42436D01*
X44007Y23527D02*
G01X42407D01*
X44064Y27300D02*
G01Y23584D01*
X44568Y27307D02*
G01Y24088D01*
X42495Y26263D02*
G01X40196D01*
X42537Y26191D02*
G01X40325D01*
X40608Y26593D02*
G01Y22898D01*
X43760Y4088D02*
G01X36720D01*
X43760Y4160D02*
G01X36720D01*
X43704Y9129D02*
G01Y3093D01*
X45792Y28128D02*
G01Y26864D01*
X44849Y29071D02*
G01X44507D01*
X46577Y27343D02*
G01X44692D01*
X46656Y27264D02*
G01Y26176D01*
X46584Y27336D02*
G01Y26104D01*
X46720Y26911D02*
G01X43330D01*
X46720Y26407D02*
G01X46195D01*
X46512Y27408D02*
G01Y26032D01*
X46311Y25831D02*
G01X45839D01*
X46368Y27552D02*
G01Y25888D01*
X46224Y27696D02*
G01Y25744D01*
X46152Y26119D02*
G01Y25672D01*
X46080Y26001D02*
G01Y25600D01*
X46008Y25928D02*
G01Y25528D01*
X45936Y25876D02*
G01Y25456D01*
X45864Y25841D02*
G01Y25384D01*
X45576Y25807D02*
G01Y25096D01*
X45504Y25823D02*
G01Y25024D01*
X45432Y25851D02*
G01Y24952D01*
X45360Y25891D02*
G01Y24880D01*
X45288Y25949D02*
G01Y24808D01*
X45216Y26033D02*
G01Y24736D01*
X45144Y26180D02*
G01Y24664D01*
X45720Y25804D02*
G01Y25240D01*
X45216Y28704D02*
G01Y26648D01*
X45072Y28848D02*
G01Y24592D01*
X45000Y27694D02*
G01Y24520D01*
X44928Y27538D02*
G01Y24448D01*
X44856Y27452D02*
G01Y24376D01*
X46440Y27480D02*
G01Y25960D01*
X45792Y25817D02*
G01Y25312D01*
X45648Y25801D02*
G01Y25168D01*
X44208Y27300D02*
G01Y23728D01*
X46383Y25903D02*
G01X45976D01*
X44928Y21632D02*
G01Y21568D01*
X44136Y27300D02*
G01Y23656D01*
X44568Y21992D02*
G01Y21302D01*
X44496Y27300D02*
G01Y24016D01*
X44784Y27394D02*
G01Y24304D01*
X44640Y27324D02*
G01Y24160D01*
X44712Y27352D02*
G01Y24232D01*
X46656Y19904D02*
G01Y19056D01*
X46584Y19976D02*
G01Y18984D01*
X46720Y19208D02*
G01X44972D01*
X46512Y20048D02*
G01Y18912D01*
X46368Y20192D02*
G01Y18768D01*
X46296Y20264D02*
G01Y18696D01*
X46224Y20336D02*
G01Y18624D01*
X46152Y20408D02*
G01Y18552D01*
X46080Y20480D02*
G01Y18480D01*
X46008Y20552D02*
G01Y18408D01*
X45936Y20624D02*
G01Y18336D01*
X45792Y20768D02*
G01Y18192D01*
X46376Y18776D02*
G01X45155D01*
X45648Y20912D02*
G01Y18048D01*
X45576Y20972D02*
G01Y17976D01*
X46160Y18560D02*
G01X44985D01*
X45432Y20668D02*
G01Y17832D01*
X45360Y20605D02*
G01Y17760D01*
X45288Y20560D02*
G01Y17688D01*
X45216Y20529D02*
G01Y17616D01*
X44856Y18514D02*
G01Y17256D01*
X45072Y18629D02*
G01Y17472D01*
X45000Y18569D02*
G01Y17400D01*
X45144Y18743D02*
G01Y17544D01*
X44424Y16994D02*
G01Y16824D01*
X38950Y16328D02*
G01X36720D01*
X46232Y18632D02*
G01X45074D01*
X44928Y18533D02*
G01Y17328D01*
Y14512D02*
G01Y12409D01*
X44496Y16990D02*
G01Y16896D01*
X44568Y17001D02*
G01Y16968D01*
X47040Y12008D02*
G01X45816D01*
X44784Y14656D02*
G01Y12218D01*
X47040Y12400D02*
G01Y11906D01*
X46944Y12496D02*
G01Y11798D01*
X46872Y12568D02*
G01Y11726D01*
X46800Y12640D02*
G01Y11654D01*
X46728Y12712D02*
G01Y11582D01*
X46656Y12784D02*
G01Y11510D01*
X46584Y12856D02*
G01Y11438D01*
X47040Y11936D02*
G01X45813D01*
X46368Y13072D02*
G01Y11222D01*
X46296Y13144D02*
G01Y11150D01*
X46224Y13216D02*
G01Y11078D01*
X46152Y13288D02*
G01Y11006D01*
X46080Y13360D02*
G01Y10934D01*
X46008Y13432D02*
G01Y10862D01*
X45792Y11835D02*
G01Y10646D01*
X45720Y11688D02*
G01Y10574D01*
X45648Y11604D02*
G01Y10502D01*
X45576Y11547D02*
G01Y10430D01*
X45504Y11506D02*
G01Y10358D01*
X45432Y11479D02*
G01Y10286D01*
X45360Y11463D02*
G01Y10214D01*
X45288Y11456D02*
G01Y10142D01*
X45216Y11460D02*
G01Y10070D01*
X45144Y11473D02*
G01Y9998D01*
X45072Y11496D02*
G01Y9926D01*
X45000Y11532D02*
G01Y9854D01*
X44928Y11584D02*
G01Y9782D01*
X44856Y11657D02*
G01Y9710D01*
X46650Y11504D02*
G01X45498D01*
X44856Y14584D02*
G01Y12335D01*
X44346Y9200D02*
G01X43803D01*
X44424Y15016D02*
G01Y9278D01*
X44352Y15088D02*
G01Y9206D01*
X44280Y15160D02*
G01Y9129D01*
X44418Y9272D02*
G01X43869D01*
X39815Y11072D02*
G01X38675D01*
X39793Y11000D02*
G01X38802D01*
X39782Y10928D02*
G01X38866D01*
X39781Y10856D02*
G01X38904D01*
X39789Y10784D02*
G01X38924D01*
X39807Y10712D02*
G01X38930D01*
X39836Y10640D02*
G01X38921D01*
X38880Y12117D02*
G01Y10906D01*
X39963Y10475D02*
G01X38837D01*
X39879Y10568D02*
G01X38897D01*
X39941Y10496D02*
G01X38854D01*
X38232Y12000D02*
G01Y10891D01*
X36720Y15559D02*
G01Y12035D01*
X36936Y15119D02*
G01Y11666D01*
X36864Y15173D02*
G01Y11876D01*
X36792Y15269D02*
G01Y11971D01*
X38016Y29220D02*
G01Y27515D01*
X37944Y29220D02*
G01Y27619D01*
X37872Y29220D02*
G01Y27676D01*
X37584Y29220D02*
G01Y27717D01*
X37512Y29220D02*
G01Y27690D01*
X37440Y29220D02*
G01Y27642D01*
X37368Y29220D02*
G01Y27559D01*
X37800Y29220D02*
G01Y27710D01*
X37728Y29220D02*
G01Y27727D01*
X37656Y29220D02*
G01Y27729D01*
X43213Y27703D02*
G01X37818D01*
X43285Y27631D02*
G01X37932D01*
X43357Y27559D02*
G01X37992D01*
X43429Y27487D02*
G01X38027D01*
X43506Y27415D02*
G01X38046D01*
X43628Y27343D02*
G01X38050D01*
X40360Y27271D02*
G01X38039D01*
X40278Y27199D02*
G01X38013D01*
X40230Y27127D02*
G01X37968D01*
X40202Y27055D02*
G01X37890D01*
X44784Y18510D02*
G01Y17571D01*
X44712Y18521D02*
G01Y17648D01*
X44640Y18546D02*
G01Y17694D01*
X44568Y18592D02*
G01Y17719D01*
X44496Y18669D02*
G01Y17730D01*
X46448Y18848D02*
G01X45169D01*
X45504Y20763D02*
G01Y17904D01*
X45296Y17696D02*
G01X44636D01*
X44833Y21727D02*
G01X43130D01*
X44424Y22136D02*
G01Y17726D01*
X44352Y22208D02*
G01Y17707D01*
X44280Y22280D02*
G01Y17671D01*
X45008Y17408D02*
G01X44847D01*
X44936Y17336D02*
G01X44849D01*
X44864Y17264D02*
G01X44837D01*
X46720Y19120D02*
G01X44824Y17224D01*
X39672Y5422D02*
G01Y5251D01*
X43760Y5168D02*
G01X40359D01*
X43760Y5096D02*
G01X40370D01*
X43760Y5024D02*
G01X40366D01*
X43760Y4952D02*
G01X40347D01*
X43760Y4880D02*
G01X40311D01*
X43560Y9073D02*
G01Y6246D01*
X43488Y9062D02*
G01Y6392D01*
X43416Y9061D02*
G01Y6461D01*
X43344Y9069D02*
G01Y6501D01*
X46218Y11072D02*
G01X42275D01*
X46146Y11000D02*
G01X42402D01*
X46074Y10928D02*
G01X42466D01*
X46002Y10856D02*
G01X42504D01*
X45930Y10784D02*
G01X42524D01*
X39888Y10556D02*
G01Y10475D01*
X39816Y10686D02*
G01Y10475D01*
X39744Y12204D02*
G01Y10475D01*
X39672Y12109D02*
G01Y10475D01*
X39600Y12045D02*
G01Y10475D01*
X39528Y12000D02*
G01Y10475D01*
X38160Y9845D02*
G01Y5735D01*
X38223Y10568D02*
G01X36720D01*
X38160Y12045D02*
G01Y10475D01*
X38088Y12109D02*
G01Y10475D01*
X38016Y12057D02*
G01Y10475D01*
X37230Y9835D02*
G01X36720D01*
X37944Y12009D02*
G01Y10470D01*
X38304Y9845D02*
G01Y9675D01*
X39168Y11952D02*
G01Y10475D01*
X39240Y11941D02*
G01Y10475D01*
X40608Y10002D02*
G01Y9727D01*
X41792Y10280D02*
G01X40885D01*
X41807Y10208D02*
G01X40813D01*
X40680Y10074D02*
G01Y9710D01*
X42960Y9848D02*
G01X40362D01*
X38450D02*
G01X38133D01*
X37314Y9920D02*
G01X36720D01*
X37440Y9215D02*
G01Y5663D01*
X24120Y24880D02*
G75*
G03X24038Y25078I-280D01*
X12920Y25360D02*
G03X13002Y25162I280D01*
X14200Y26158D02*
G03X14290Y26400I-280J242D01*
X12770Y26560D02*
G03X12766Y26611I-370D01*
X16913Y23391D02*
G03X17250Y23760I-33J369D01*
X14042Y24122D02*
G03X14240Y24040I198J198D01*
X10383Y27845D02*
G03X10190Y27520I177J-325D01*
X16560Y22910D02*
G03X16930Y23280J370D01*
X15856Y26000D02*
G03X15700Y25620I384J-380D01*
X10510Y26560D02*
G03X10694Y26240I370D01*
X11250Y26560D02*
G03X11066Y26880I-370D01*
X10513Y27153D02*
G03X10694Y26880I367J47D01*
X11250Y27200D02*
G03X10927Y27567I-370J0D01*
X10510Y25920D02*
G03X10880Y25550I370D01*
X11066Y26880D02*
G03X11250Y27200I-186J320D01*
Y25920D02*
G03X11066Y26240I-370D01*
X9280Y23730D02*
G03X9080Y23671J-370D01*
X6720Y24450D02*
G03X6640Y24441J-370D01*
X32110Y28000D02*
G03X32480Y27630I370D01*
Y27630D02*
G03X32850Y28000J370D01*
Y28000D02*
G03X32480Y28370I-370D01*
Y28370D02*
G03X32110Y28000J-370D01*
X8750Y28560D02*
G03X9120Y28190I370D01*
Y28930D02*
G03X8750Y28560J-370D01*
X8110Y27040D02*
G03X8480Y26670I370D01*
Y26670D02*
G03X8850Y27040J370D01*
Y27040D02*
G03X8480Y27410I-370D01*
Y27410D02*
G03X8110Y27040J-370D01*
X8510Y23360D02*
G03X8880Y22990I370D01*
Y23730D02*
G03X8510Y23360J-370D01*
X10880Y23490D02*
G03X10568Y23319J-370D01*
X10880Y22750D02*
G03X11250Y23120J370D01*
Y23120D02*
G03X10880Y23490I-370D01*
X7810Y24480D02*
G03X7688Y24755I-370D01*
X9920Y23570D02*
G03X9641Y23443J-370D01*
X12200Y26249D02*
G03X12400Y26190I200J311D01*
X6859Y24423D02*
G03X6720Y24450I-139J-343D01*
X10283Y23273D02*
G03X9920Y23570I-363J-73D01*
X7132Y24685D02*
G03X7073Y24527I308J-205D01*
X9970Y28560D02*
G03X9600Y28930I-370D01*
X13410Y27280D02*
G03X13040Y27650I-370D01*
X12855Y26614D02*
G03X12830Y26480I345J-134D01*
X13810Y26800D02*
G03X13440Y27170I-370D01*
X13807Y26752D02*
G03X13810Y26800I-367J48D01*
X14480Y26420D02*
G03X15020Y26960J540D01*
Y26960D02*
G03X14480Y27500I-540D01*
Y27500D02*
G03X13940Y26960J-540D01*
X15070Y28960D02*
G03X15440Y28590I370D01*
Y28590D02*
G03X15810Y28960J370D01*
Y28960D02*
G03X15440Y29330I-370D01*
Y29330D02*
G03X15070Y28960J-370D01*
X12350Y29040D02*
G03X12720Y28670I370D01*
Y28670D02*
G03X13090Y29040J370D01*
Y29040D02*
G03X12720Y29410I-370D01*
Y29410D02*
G03X12350Y29040J-370D01*
X21060Y27600D02*
G03X21600Y27060I540D01*
Y27060D02*
G03X22140Y27600J540D01*
Y27600D02*
G03X21600Y28140I-540D01*
Y28140D02*
G03X21060Y27600J-540D01*
X19160Y27540D02*
G03X19700Y27000I540D01*
Y27000D02*
G03X20240Y27540J540D01*
Y27540D02*
G03X19700Y28080I-540D01*
Y28080D02*
G03X19160Y27540J-540D01*
X22880Y26260D02*
G03X23420Y26800J540D01*
Y26800D02*
G03X22880Y27340I-540D01*
X23960Y26800D02*
G03X24500Y26260I540D01*
Y26260D02*
G03X25040Y26800J540D01*
Y26800D02*
G03X24500Y27340I-540D01*
Y27340D02*
G03X23960Y26800J-540D01*
X7300Y29200D02*
G03X7840Y28660I540D01*
Y28660D02*
G03X8380Y29200J540D01*
Y29200D02*
G03X7840Y29740I-540D01*
X7010Y24960D02*
G03X7132Y24685I370D01*
X7750Y24960D02*
G03X7380Y25330I-370D01*
Y25330D02*
G03X7010Y24960J-370D01*
X15860Y27600D02*
G03X16400Y27060I540D01*
Y28140D02*
G03X15860Y27600J-540D01*
X17040Y27060D02*
G03X17580Y27600J540D01*
Y27600D02*
G03X17040Y28140I-540D01*
X15140Y23680D02*
G03X15605Y23145I540J0D01*
X15700Y25620D02*
G03X16240Y25080I540D01*
Y25080D02*
G03X16780Y25620J540D01*
X16624Y26000D02*
G03X16780Y26380I-384J380D01*
X22855Y26261D02*
G03X22880Y26260I25J539D01*
X16780Y26380D02*
G03X16240Y26920I-540D01*
Y26920D02*
G03X15700Y26380J-540D01*
X17250Y23760D02*
G03X16907Y24129I-370J0D01*
X13392Y27167D02*
G03X13410Y27280I-352J113D01*
X9360Y28278D02*
G03X9600Y28190I240J282D01*
X11710Y27840D02*
G03X11894Y27520I370D01*
X11710Y27200D02*
G03X11860Y26902I370D01*
X12450Y27200D02*
G03X12266Y27520I-370D01*
X11630Y26560D02*
G03X12000Y26190I370D01*
X12324Y26922D02*
G03X12450Y27200I-244J278D01*
X7840Y29740D02*
G03X7728Y29728J-540D01*
X16536Y22640D02*
G03X16560Y22800I-516J160D01*
X16720Y28035D02*
G03X16400Y28140I-320J-435D01*
X16560Y22800D02*
G03X16549Y22910I-540D01*
X15700Y26380D02*
G03X15856Y26000I540D01*
X16549Y22910D02*
G03X16560Y22910I11J370D01*
X16780Y25620D02*
G03X16624Y26000I-540D01*
X15605Y23145D02*
G03X15480Y22800I415J-345D01*
X14290Y26400D02*
G03X14286Y26456I-370D01*
X12830Y26480D02*
G03X12920Y26238I370D01*
X12430Y26980D02*
G03X12434Y26928I370D01*
X12766Y26611D02*
G03X12800Y26609I34J369D01*
X10666Y22640D02*
G03X10792Y22761I-186J320D01*
X10568Y23319D02*
G03X10480Y23330I-88J-359D01*
X10792Y22761D02*
G03X10880Y22750I88J359D01*
X10480Y23330D02*
G03X10283Y23273J-370D01*
X8930Y22960D02*
G03X9114Y22640I370D01*
X7487Y24113D02*
G03X7810Y24480I-47J367D01*
X7312Y29312D02*
G03X7300Y29200I528J-112D01*
X9600Y28930D02*
G03X9360Y28842J-370D01*
X10694Y26880D02*
G03X10510Y26560I186J-320D01*
X9953Y28448D02*
G03X9970Y28560I-353J112D01*
X11894Y27520D02*
G03X11710Y27200I186J-320D01*
X9600Y28190D02*
G03X9671Y28197J370D01*
X12266Y27520D02*
G03X12450Y27840I-186J320D01*
X11860Y26902D02*
G03X11630Y26560I140J-342D01*
X10694Y26240D02*
G03X10510Y25920I186J-320D01*
X7073Y24527D02*
G03X6859Y24423I47J-367D01*
X16400Y27060D02*
G03X16720Y27165J540D01*
X7397Y23915D02*
G03X7487Y24113I-277J245D01*
X9641Y23443D02*
G03X9280Y23730I-361J-83D01*
X9080Y23671D02*
G03X8880Y23730I-200J-311D01*
X8931Y22994D02*
G03X8929Y22960I369J-34D01*
X15277Y24040D02*
G03X15140Y23680I403J-360D01*
X10956Y25558D02*
G03X10830Y25280I244J-278D01*
X10080Y28475D02*
G03X9953Y28448J-315D01*
X13920Y26770D02*
G03X13807Y26752J-370D01*
X13976Y26766D02*
G03X13920Y26770I-56J-366D01*
X12800Y26610D02*
G03X12855Y26614J370D01*
X7688Y24755D02*
G03X7750Y24960I-308J205D01*
X21870Y26480D02*
G03X22213Y26111I370J0D01*
X12673Y27328D02*
G03X12430Y26980I127J-348D01*
X12000Y26190D02*
G03X12200Y26249J370D01*
X16720Y27165D02*
G03X17040Y27060I320J435D01*
X13440Y27170D02*
G03X13392Y27167J-370D01*
X12434Y26928D02*
G03X12400Y26930I-34J-368D01*
X17040Y28140D02*
G03X16720Y28035J-540D01*
X9120Y28190D02*
G03X9360Y28278J370D01*
X15480Y22800D02*
G03X15504Y22640I540D01*
X13040Y27650D02*
G03X12673Y27328I0J-370D01*
X8510Y25680D02*
G03X8565Y25486I370D01*
X10880Y25550D02*
G03X10956Y25558J370D01*
X12400Y26930D02*
G03X12324Y26922J-370D01*
X16930Y23280D02*
G03X16913Y23391I-370D01*
X17811Y28964D02*
G03X17887Y28913I170J170D01*
X28430Y26960D02*
G03X28800Y26590I370D01*
Y26590D02*
G03X29170Y26960J370D01*
Y26960D02*
G03X28800Y27330I-370D01*
Y27330D02*
G03X28430Y26960J-370D01*
X8880Y22990D02*
G03X8931Y22994J370D01*
X9297Y27823D02*
G03X9205Y27600I223J-223D01*
X9150Y26400D02*
G03X9520Y26030I370D01*
Y26030D02*
G03X9890Y26400J370D01*
Y26400D02*
G03X9835Y26594I-370D01*
X9360Y28842D02*
G03X9120Y28930I-240J-282D01*
X13120Y27845D02*
G03X13343Y27937J315D01*
X13840Y29195D02*
G03X13617Y29103J-315D01*
X14400Y29250D02*
G03X14206Y29195J-370D01*
Y28565D02*
G03X14400Y28510I194J315D01*
X13840Y29195D02*
G03X13617Y29103J-315D01*
X14400Y28510D02*
G03X14770Y28880J370D01*
Y28880D02*
G03X14400Y29250I-370D01*
X9520Y24590D02*
G03X9890Y24960J370D01*
Y24960D02*
G03X9520Y25330I-370D01*
X9150Y26400D02*
G03X9520Y26030I370D01*
Y26030D02*
G03X9890Y26400J370D01*
Y26400D02*
G03X9835Y26594I-370D01*
X9205D02*
G03X9150Y26400I315J-194D01*
Y26400D02*
G03X9520Y26030I370D01*
Y26030D02*
G03X9890Y26400J370D01*
Y26400D02*
G03X9835Y26594I-370D01*
X9205D02*
G03X9150Y26400I315J-194D01*
X9250Y25680D02*
G03X8880Y26050I-370D01*
Y26050D02*
G03X8510Y25680J-370D01*
X7600Y23285D02*
G03X7823Y23377J315D01*
X9195Y25486D02*
G03X9250Y25680I-315J194D01*
X7600Y23285D02*
G03X7823Y23377J315D01*
X22880Y27340D02*
G03X22341Y26836I0J-540D01*
Y26836D02*
G03X22240Y26850I-101J-356D01*
Y26850D02*
G03X21870Y26480J-370D01*
X10830Y25280D02*
G03X11200Y24910I370D01*
Y24910D02*
G03X11570Y25280J370D01*
Y25280D02*
G03X11200Y25650I-370D01*
X11066Y26240D02*
G03X11250Y26560I-186J320D01*
X9550Y25680D02*
G03X9920Y25310I370D01*
Y25310D02*
G03X10290Y25680J370D01*
Y25680D02*
G03X9920Y26050I-370D01*
Y26050D02*
G03X9550Y25680J-370D01*
X12400Y26190D02*
G03X12770Y26560J370D01*
X13940Y26960D02*
G03X13976Y26766I540D01*
X16358Y24678D02*
G03X16160Y24760I-198J-198D01*
X14286Y26456D02*
G03X14480Y26420I194J504D01*
X36490Y29760D02*
G03X36443Y29643I230J-160D01*
X10080Y28475D02*
G03X9953Y28448J-315D01*
X9205Y26594D02*
G03X9150Y26400I315J-194D01*
X9185Y24802D02*
G03X9520Y24590I335J158D01*
X9103Y24657D02*
G03X9186Y24802I-223J223D01*
X9520Y25330D02*
G03X9195Y25137I0J-370D01*
X11124Y25642D02*
G03X11250Y25920I-244J278D01*
X10927Y27567D02*
G03X10737Y27845I-367J-47D01*
X10190Y27520D02*
G03X10513Y27153I370J0D01*
X11200Y25650D02*
G03X11124Y25642J-370D01*
X38118Y19158D02*
G03X37922Y19240I-198J-198D01*
X37310Y18960D02*
G03X37680Y18590I370D01*
Y19330D02*
G03X37310Y18960J-370D01*
X37800Y17522D02*
G03X37710Y17280I280J-242D01*
X38118Y19158D02*
G03X37922Y19240I-198J-198D01*
X38800Y17950D02*
G03X39170Y18320J370D01*
X43790Y29200D02*
G03X44160Y28830I370D01*
Y28830D02*
G03X44530Y29200J370D01*
Y29200D02*
G03X44160Y29570I-370D01*
Y29570D02*
G03X43790Y29200J-370D01*
X39790Y18720D02*
G03X40160Y18350I370D01*
Y18350D02*
G03X40530Y18720J370D01*
Y18720D02*
G03X40160Y19090I-370D01*
Y19090D02*
G03X39790Y18720J-370D01*
X40750Y16160D02*
G03X41120Y15790I370D01*
Y15790D02*
G03X41490Y16160J370D01*
Y16160D02*
G03X41120Y16530I-370D01*
X37078Y22278D02*
G03X36880Y22360I-198J-198D01*
X37440Y21150D02*
G03X37810Y21520J370D01*
X37071Y21493D02*
G03X37440Y21150I369J27D01*
X38240Y9420D02*
G03X38780Y8880I540D01*
Y8880D02*
G03X39320Y9420J540D01*
X37300Y5300D02*
G03X37840Y4760I540D01*
Y4760D02*
G03X38380Y5300J540D01*
Y5300D02*
G03X37840Y5840I-540D01*
Y5840D02*
G03X37300Y5300J-540D01*
X42900Y9600D02*
G03X43440Y9060I540D01*
Y9060D02*
G03X43980Y9600J540D01*
Y9600D02*
G03X43440Y10140I-540D01*
Y10140D02*
G03X42900Y9600J-540D01*
X40320Y11420D02*
G03X39780Y10880J-540D01*
X37680Y11940D02*
G03X38080Y12117J540D01*
X37140Y12480D02*
G03X37680Y11940I540D01*
Y13020D02*
G03X37140Y12480J-540D01*
X39280Y11940D02*
G03X39820Y12480J540D01*
Y12480D02*
G03X39280Y13020I-540D01*
X39580Y13620D02*
G03X40120Y13080I540D01*
Y13080D02*
G03X40660Y13620J540D01*
Y13620D02*
G03X40120Y14160I-540D01*
Y14160D02*
G03X39580Y13620J-540D01*
X40420Y14480D02*
G03X40960Y13940I540D01*
Y13940D02*
G03X41500Y14480J540D01*
Y14480D02*
G03X40960Y15020I-540D01*
Y15020D02*
G03X40420Y14480J-540D01*
X44736Y11996D02*
G03X45276Y11456I540D01*
Y11456D02*
G03X45816Y11996J540D01*
Y11996D02*
G03X45276Y12536I-540D01*
Y12536D02*
G03X44736Y11996J-540D01*
X41780Y15760D02*
G03X42320Y15220I540D01*
Y15220D02*
G03X42860Y15760J540D01*
Y15760D02*
G03X42320Y16300I-540D01*
Y16300D02*
G03X41780Y15760J-540D01*
X44500Y21040D02*
G03X45040Y20500I540D01*
X42420Y22240D02*
G03X42960Y21700I540D01*
Y21700D02*
G03X43500Y22240J540D01*
Y22240D02*
G03X42960Y22780I-540D01*
Y22780D02*
G03X42420Y22240J-540D01*
X40840Y28780D02*
G03X41380Y28240I540D01*
Y28240D02*
G03X41920Y28780J540D01*
X43458Y27458D02*
G03X43840Y27300I382J382D01*
X45119Y26340D02*
G03X45659Y25800I540D01*
Y25800D02*
G03X46199Y26340J540D01*
Y26340D02*
G03X45659Y26880I-540D01*
Y26880D02*
G03X45119Y26340J-540D01*
X41380Y23760D02*
G03X41920Y23220I540D01*
Y23220D02*
G03X42460Y23760J540D01*
Y23760D02*
G03X41920Y24300I-540D01*
Y24300D02*
G03X41380Y23760J-540D01*
X39460Y25760D02*
G03X40000Y25220I540D01*
Y25220D02*
G03X40540Y25760J540D01*
Y25760D02*
G03X40000Y26300I-540D01*
Y26300D02*
G03X39460Y25760J-540D01*
X42440Y26500D02*
G03X42980Y25960I540D01*
Y25960D02*
G03X43520Y26500J540D01*
Y26500D02*
G03X42980Y27040I-540D01*
Y27040D02*
G03X42440Y26500J-540D01*
X40820Y20560D02*
G03X41360Y20020I540D01*
Y20020D02*
G03X41900Y20560J540D01*
Y20560D02*
G03X41360Y21100I-540D01*
Y21100D02*
G03X40820Y20560J-540D01*
X42530Y10720D02*
G03X42274Y11072I-370D01*
X42103Y12137D02*
G03X41851Y12043I57J-537D01*
X43660Y12560D02*
G03X43120Y13100I-540D01*
X41700Y13180D02*
G03X42240Y12640I540D01*
X42780Y13180D02*
G03X42240Y13720I-540D01*
Y13720D02*
G03X41700Y13180J-540D01*
X40860Y12340D02*
G03X41400Y11800I540D01*
X41940Y12340D02*
G03X41400Y12880I-540D01*
Y12880D02*
G03X40860Y12340J-540D01*
X39860Y22400D02*
G03X40400Y21860I540D01*
Y21860D02*
G03X40940Y22400J540D01*
X40500Y22980D02*
G03X39960Y23520I-540D01*
Y23520D02*
G03X39420Y22980J-540D01*
X40370Y16720D02*
G03X40740Y16350I370D01*
X41110Y16720D02*
G03X40740Y17090I-370D01*
Y17090D02*
G03X40370Y16720J-370D01*
X37060Y23120D02*
G03X37600Y22580I540D01*
Y22580D02*
G03X38140Y23120J540D01*
X36740Y26400D02*
G03X36845Y26080I540D01*
X37820Y26400D02*
G03X37280Y26940I-540D01*
Y26940D02*
G03X36740Y26400J-540D01*
Y25760D02*
G03X36845Y25440I540D01*
X37820Y25760D02*
G03X37715Y26080I-540D01*
X36740Y25120D02*
G03X36812Y24850I540D01*
X37715Y26080D02*
G03X37820Y26400I-435J320D01*
Y25120D02*
G03X37715Y25440I-540D01*
X37165Y23440D02*
G03X37060Y23120I435J-320D01*
X37715Y25440D02*
G03X37820Y25760I-435J320D01*
X37780Y24520D02*
G03X37708Y24790I-540D01*
X39250Y18720D02*
G03X38880Y19090I-370D01*
X39650Y16160D02*
G03X39591Y16361I-370D01*
X40410Y5460D02*
G03X40040Y5830I-370D01*
Y5830D02*
G03X39670Y5460J-370D01*
X40190Y9360D02*
G03X40560Y8990I370D01*
Y8990D02*
G03X40930Y9360J370D01*
Y9360D02*
G03X40560Y9730I-370D01*
Y9730D02*
G03X40190Y9360J-370D01*
X37040Y7710D02*
G03X37410Y8080J370D01*
Y8080D02*
G03X37131Y8439I-370J0D01*
X39670Y5460D02*
G03X39705Y5303I370D01*
X41400Y11800D02*
G03X41709Y11897J540D01*
X43177Y12023D02*
G03X43660Y12560I-57J537D01*
X42697Y11543D02*
G03X43177Y12023I-57J537D01*
X41709Y11897D02*
G03X41620Y11600I451J-297D01*
X39862Y22449D02*
G03X39860Y22400I538J-49D01*
X41800Y10405D02*
G03X41790Y10320I360J-85D01*
X39705Y5303D02*
G03X39630Y5080I295J-223D01*
X40370D02*
G03X40335Y5237I-370D01*
Y5237D02*
G03X40410Y5460I-295J223D01*
X39170Y18320D02*
G03X39143Y18459I-370D01*
X38880Y12117D02*
G03X39280Y11940I400J363D01*
X38880Y19090D02*
G03X38513Y18763I0J-370D01*
X38080Y12843D02*
G03X37680Y13020I-400J-363D01*
X41920Y28780D02*
G03X41811Y29105I-540D01*
X36812Y24850D02*
G03X36720Y24666I428J-330D01*
X36845Y26080D02*
G03X36740Y25760I435J-320D01*
X36845Y25440D02*
G03X36740Y25120I435J-320D01*
X37708Y24790D02*
G03X37820Y25120I-428J330D01*
X37114Y23995D02*
G03X37060Y23760I486J-235D01*
X36720Y24374D02*
G03X37114Y23995I520J146D01*
X37726Y24285D02*
G03X37780Y24520I-486J235D01*
X37060Y23760D02*
G03X37165Y23440I540D01*
X37922Y19240D02*
G03X37680Y19330I-242J-280D01*
X39228Y15794D02*
G03X39280Y15790I52J366D01*
X36926Y16155D02*
G03X36720Y16281I-286J-235D01*
X39280Y16530D02*
G03X38932Y16286I0J-370D01*
X37431Y15640D02*
G03X37490Y15840I-311J200D01*
X36720Y15559D02*
G03X36776Y15576I-80J361D01*
X38880Y12843D02*
G03X38480Y13020I-400J-363D01*
Y11940D02*
G03X38880Y12117J540D01*
X36940Y11600D02*
G03X36720Y12035I-540D01*
X40880Y11035D02*
G03X40838Y11032J-315D01*
X37042Y9168D02*
G03X36720Y8981I0J-370D01*
X40838Y11032D02*
G03X40320Y11420I-518J-152D01*
X36720Y7894D02*
G03X37040Y7710I320J186D01*
X37128Y8439D02*
G03X37411Y8798I-86J359D01*
X37710Y18320D02*
G03X37711Y18289I370D01*
X44983Y21577D02*
G03X44500Y21040I57J-537D01*
X41851Y12043D02*
G03X41940Y12340I-451J297D01*
X42705Y12906D02*
G03X42780Y13180I-465J274D01*
X44042Y15839D02*
G03X44080Y15608I712D01*
X43120Y13100D02*
G03X42705Y12906J-540D01*
X42240Y12640D02*
G03X42655Y12834J540D01*
X38480Y13020D02*
G03X38080Y12843J-540D01*
X42655Y12834D02*
G03X42583Y12617I465J-274D01*
X42274Y11072D02*
G03X42697Y11543I-114J528D01*
X41120Y16530D02*
G03X41054Y16524J-370D01*
X39420Y22980D02*
G03X39862Y22449I540J0D01*
X38880Y15550D02*
G03X39228Y15794I0J370D01*
X38035Y23440D02*
G03X38140Y23760I-435J320D01*
Y23120D02*
G03X38035Y23440I-540D01*
X37864Y18620D02*
G03X37710Y18320I216J-300D01*
X38427Y17151D02*
G03X38770Y17520I-27J369D01*
X38600Y18009D02*
G03X38800Y17950I200J311D01*
X40940Y22400D02*
G03X40498Y22931I-540J0D01*
Y22931D02*
G03X40500Y22980I-538J49D01*
X44327Y9181D02*
G03X44192Y8992I504J-503D01*
X40806Y16356D02*
G03X40750Y16160I314J-196D01*
X38140Y23760D02*
G03X37726Y24285I-540J0D01*
X37810Y21520D02*
G03X37467Y21889I-370J0D01*
X38080Y12117D02*
G03X38480Y11940I400J363D01*
X38190Y10720D02*
G03X38283Y10475I370D01*
X38930Y10720D02*
G03X38560Y11090I-370D01*
Y11090D02*
G03X38190Y10720J-370D01*
X36720Y11165D02*
G03X36940Y11600I-320J435D01*
X37310Y27360D02*
G03X37680Y26990I370D01*
Y26990D02*
G03X38050Y27360J370D01*
Y27360D02*
G03X37680Y27730I-370D01*
Y27730D02*
G03X37310Y27360J-370D01*
X44110Y17360D02*
G03X44480Y16990I370D01*
X44850Y17360D02*
G03X44480Y17730I-370D01*
Y17730D02*
G03X44110Y17360J-370D01*
X39630Y5080D02*
G03X40000Y4710I370D01*
Y4710D02*
G03X40370Y5080J370D01*
X42830Y6160D02*
G03X43200Y5790I370D01*
Y5790D02*
G03X43570Y6160J370D01*
Y6160D02*
G03X43200Y6530I-370D01*
Y6530D02*
G03X42830Y6160J-370D01*
X39280Y15790D02*
G03X39650Y16160J370D01*
X39228Y15794D02*
G03X39280Y15790I52J366D01*
Y15790D02*
G03X39650Y16160J370D01*
Y16160D02*
G03X39591Y16361I-370D01*
X39280Y16530D02*
G03X38932Y16286I0J-370D01*
X39369Y16519D02*
G03X39280Y16530I-89J-359D01*
X37510Y17960D02*
G03X37800Y17599I370J0D01*
X40320Y9845D02*
G03X40543Y9937J315D01*
X42530Y10320D02*
G03X42471Y10520I-370D01*
X38080Y16910D02*
G03X38427Y17151I0J370D01*
X42583Y12617D02*
G03X42103Y12137I57J-537D01*
X38000Y10475D02*
G03X37777Y10383J-315D01*
X40320Y9845D02*
G03X40543Y9937J315D01*
X38837Y10475D02*
G03X38930Y10720I-277J245D01*
X37360Y9205D02*
G03X37583Y9297J315D01*
X38510Y15920D02*
G03X38880Y15550I370D01*
Y16290D02*
G03X38510Y15920J-370D01*
X37490Y15840D02*
G03X37120Y16210I-370D01*
X44430Y18880D02*
G03X44800Y18510I370D01*
Y18510D02*
G03X45170Y18880J370D01*
Y18880D02*
G03X44800Y19250I-370D01*
Y19250D02*
G03X44430Y18880J-370D01*
X36750Y15440D02*
G03X37120Y15070I370D01*
Y15070D02*
G03X37490Y15440J370D01*
Y15440D02*
G03X37431Y15640I-370D01*
X40190Y26960D02*
G03X40560Y26590I370D01*
Y26590D02*
G03X40930Y26960J370D01*
Y26960D02*
G03X40560Y27330I-370D01*
Y27330D02*
G03X40190Y26960J-370D01*
X44480Y27300D02*
G03X45020Y27840J540D01*
Y27840D02*
G03X44480Y28380I-540D01*
X37412Y8798D02*
G03X37042Y9168I-370D01*
X41790Y10320D02*
G03X42160Y9950I370D01*
Y9950D02*
G03X42530Y10320J370D01*
X40430Y18320D02*
G03X40800Y17950I370D01*
Y17950D02*
G03X41170Y18320J370D01*
Y18320D02*
G03X40800Y18690I-370D01*
Y18690D02*
G03X40430Y18320J-370D01*
X39680Y16350D02*
G03X40050Y16720J370D01*
Y16720D02*
G03X39680Y17090I-370D01*
Y17090D02*
G03X39310Y16720J-370D01*
X37710Y17280D02*
G03X38080Y16910I370D01*
X38770Y17520D02*
G03X38600Y17831I-370D01*
Y17831D02*
G03X38600Y17840I-280J-9D01*
X37120Y16210D02*
G03X36926Y16155J-370D01*
X37680Y18590D02*
G03X37852Y18632J370D01*
X41054Y16524D02*
G03X41110Y16720I-314J196D01*
X39780Y10880D02*
G03X39963Y10475I540D01*
X39320Y9420D02*
G03X39113Y9845I-540D01*
X37360Y9205D02*
G03X37583Y9297J315D01*
X39591Y16361D02*
G03X39680Y16350I89J359D01*
X38932Y16286D02*
G03X38880Y16290I-52J-366D01*
X42471Y10520D02*
G03X42530Y10720I-311J200D01*
X39143Y18459D02*
G03X39251Y18720I-263J261D01*
X39369Y16519D02*
G03X39280Y16530I-89J-359D01*
Y13020D02*
G03X38880Y12843J-540D01*
X41620Y11600D02*
G03X42046Y11072I540J0D01*
X38600Y17831D02*
G03X38600Y17840I-280J-9D01*
X39310Y16720D02*
G03X39369Y16519I370D01*
X37711Y18289D02*
G03X37510Y17960I169J-329D01*
X38447Y9845D02*
G03X38240Y9420I333J-425D01*
X40740Y16350D02*
G03X40806Y16356J370D01*
X36776Y15576D02*
G03X36750Y15440I344J-136D01*
X44480Y16990D02*
G03X44616Y17016J370D01*
X41067Y29220D02*
G03X40840Y28780I313J-440D01*
X45040Y20500D02*
G03X45577Y20983I0J540D01*
X44824Y17224D02*
G03X44850Y17360I-344J136D01*
X44080Y16069D02*
G03X44042Y15839I674J-230D01*
X46979Y11833D02*
G03X47040Y11906I-387J387D01*
X42046Y11072D02*
G03X41966Y11035I114J-352D01*
G54D60*
X44359Y8678D02*
G01Y3958D01*
X44253Y3565D02*
G01X43105Y1575D01*
X34005*
X33532Y1102D02*
G01Y787D01*
X32745Y0D02*
G01X14634D01*
X13847Y787D02*
G01Y1102D01*
X13375Y1575D02*
G01X4729D01*
X4047Y1969D02*
G01X3126Y3565D01*
X3020Y3958D02*
G01Y8678D01*
X2882Y9012D02*
G01X231Y11663D01*
Y12776D02*
G01X2959Y15505D01*
Y16173D02*
G01X231Y18901D01*
Y20015D02*
G01X2959Y22743D01*
Y23411D02*
G01X231Y26139D01*
Y27253D02*
G01X3062Y30084D01*
X3619Y30315D02*
G01X16800D01*
X17981Y29134*
X29398*
X30579Y30315*
X43760*
X44317Y30084D02*
G01X47149Y27253D01*
Y26139D02*
G01X44420Y23411D01*
Y22743D02*
G01X47149Y20015D01*
Y18901D02*
G01X44420Y16173D01*
Y15505D02*
G01X47149Y12776D01*
Y11663D02*
G01X44497Y9012D01*
X44253Y3565D02*
G03X44358Y3958I-682J393D01*
X34005Y1575D02*
G03X33532Y1102J-473D01*
X32745Y0D02*
G03X33532Y787J787D01*
X13847D02*
G03X14634Y0I787D01*
X13847Y1102D02*
G03X13375Y1574I-472D01*
X4047Y1969D02*
G03X4729Y1575I682J393D01*
X3020Y3958D02*
G03X3125Y3565I788D01*
X3020Y8678D02*
G03X2882Y9012I-472D01*
X0Y12220D02*
G03X231Y11663I787D01*
Y12776D02*
G03X1Y12220I556J-556D01*
X2959Y15505D02*
G03X3097Y15839I-334J334D01*
Y15839D02*
G03X2959Y16173I-472D01*
X0Y19458D02*
G03X231Y18901I787D01*
Y20015D02*
G03X0Y19458I556J-557D01*
X2959Y22743D02*
G03X3097Y23077I-334J334D01*
Y23077D02*
G03X2959Y23411I-472D01*
X0Y26696D02*
G03X231Y26139I787D01*
Y27253D02*
G03X0Y26696I556J-557D01*
X3619Y30315D02*
G03X3062Y30084J-787D01*
X44317D02*
G03X43760Y30315I-557J-556D01*
X47379Y26696D02*
G03X47148Y27252I-787D01*
X47149Y26139D02*
G03X47380Y26696I-557J557D01*
X44420Y23411D02*
G03X44282Y23077I334J-334D01*
Y23077D02*
G03X44420Y22743I472D01*
X47379Y19458D02*
G03X47148Y20014I-787D01*
X47149Y18901D02*
G03X47380Y19458I-557J557D01*
X44420Y16173D02*
G03X44282Y15839I334J-334D01*
Y15839D02*
G03X44420Y15505I472D01*
X47379Y12220D02*
G03X47149Y12776I-787D01*
Y11663D02*
G03X47380Y12220I-557J557D01*
X44497Y9012D02*
G03X44359Y8678I334J-334D01*
G54D64*
X14560Y11360D02*
G01X14400D01*
X13280Y10240*
Y8640*
X13360*
X12800Y8080*
X6800*
X6160Y8720*
Y13520*
X7280Y14640*
Y16560*
X6560Y17280*
X4560*
X3440Y18400*
Y19760*
X5040Y21360*
X9360*
X9440*
X10400Y20400*
X11440*
X30880Y3040D02*
G01X30000Y3920D01*
Y9360*
X29120Y10240*
X25840*
X24960Y11120*
X14560Y11360D02*
G01X14400D01*
X13280Y10240*
Y8640*
X13360*
X14400*
X14640Y8400*
Y8080*
Y7600*
X14320Y7280*
Y4960*
X9920Y22080D02*
G01X9360Y21520D01*
Y21360*
X9440*
X10400Y20400*
X11440*
X19760Y12080D02*
G01X17760Y10080D01*
Y9600*
X16240Y8080*
X14640*
Y7600*
X14320Y7280*
Y4960*
X9360Y3440D02*
G01Y4800D01*
X8400Y5760*
X6160*
X4560Y7360*
Y8080*
X24960Y11120D02*
G01X24800Y11280D01*
X22880*
X22560Y11600*
X21600*
X9520Y26400D02*
G01Y27600D01*
X10080Y28160*
X13120*
X13840Y28880*
X14400*
X10240Y4400D02*
G01X10880Y3760D01*
X14240*
X14800Y4320*
Y5440*
X15280Y5920*
X16000*
X20560Y10480*
Y12000*
X21280Y12720*
X25360*
X25760Y12320*
Y11840*
X26240Y11360*
X8880Y25680D02*
G01Y24880D01*
X7600Y23600*
X6880*
X3200Y19920*
Y18240*
X4400Y17040*
X6400*
X7040Y16400*
Y14800*
X5840Y13600*
Y8400*
X6800Y7440*
X42160Y10720D02*
G01X40880D01*
X40320Y10160*
X38000*
X37360Y9520*
X30160*
X29040Y10640*
X26480*
X26240Y10880*
Y11360*
X6800Y7440D02*
G01X7040Y7680D01*
X9440*
X10240Y6880*
Y4400*
G54D66*
X42640Y6560D02*
G01X43760Y7680D01*
Y8800*
X44400Y9440*
Y14560*
X43920Y15040*
Y26640*
X42560Y28000*
X38800*
X38000Y28800*
G54D68*
X8800Y29120D02*
G01X9520Y29840D01*
X16560*
X17920Y28480*
X25840*
X25920Y28400*
Y26640*
X44480Y27840D02*
G01X43840D01*
X41920Y29760*
X30800*
X29520Y28480*
X25920*
Y28400*
Y26640*
G54D72*
X42809Y1968D02*
G01X42476D01*
X42809Y2302*
Y2385*
X42767Y2468*
X42517*
X42476Y2385*
X41347Y2218D02*
G01X41472Y1968D01*
X41138Y2218D02*
G01X41388D01*
X41472Y2302*
Y2385*
X41388Y2468*
X41138*
Y1968*
X40813Y2218D02*
G01X40563D01*
X40897Y1968D02*
G01X40563D01*
Y2468*
X40897*
X40322D02*
G01Y1968D01*
X40238Y2052*
X40072Y2385*
X39988Y2468*
Y1968*
X39747Y2468D02*
G01Y1968D01*
X39663Y2052*
X39497Y2385*
X39413Y2468*
Y1968*
X39172D02*
G01X39005D01*
X39088D02*
G01Y2468D01*
X39172D02*
G01X39005D01*
M02*
