0
SECTION
2
HEADER
999
*** POWERPCB  HEADER ***
9
$EXTMIN
10
-1.4783464567
20
-0.7803149606
9
$EXTMAX
10
3.1003937008
20
0.8956692913
9
$FILLMODE
70
0
9
$GRIDMODE
70
1
9
$GRIDUNIT
10
1
20
1
9
$INSBASE
10
0.5779527559
20
0
9
$LIMCHECK
70
0
9
$PLINEWID
40
0.0039370079
9
$SNAPMODE
70
1
9
$SNAPUNIT
10
0.0019685039
20
0.0019685039
9
$TEXTSIZE
40
0.1
9
$TEXTSTYLE
7
W0$01
9
$USERI1
70
102
9
$USERI2
70
0
9
$USERI5
70
150
9
$VIEWCTR
10
1.2928087139
20
-0.0897119423
0
ENDSEC
0
SECTION
2
TABLES
999
*** POWERPCB  LAYER ***
0
TABLE
2
LAYER
70
27
0
LAYER
2
DBLAYERS
70
1
62
-254
6
CONTINUOUS
0
LAYER
2
BOARD_OUTLINE_00
70
0
62
254
6
CONTINUOUS
0
LAYER
2
2D_LINE_00
70
0
62
1
6
CONTINUOUS
0
LAYER
2
TEXT_02
70
0
62
5
6
CONTINUOUS
0
LAYER
2
LABEL_INFO
70
1
62
-254
6
CONTINUOUS
0
LAYER
2
LABEL_ATTRIBUTE
70
1
62
-254
6
CONTINUOUS
0
LAYER
2
PART_NAME_02
70
0
62
253
6
CONTINUOUS
0
LAYER
2
PART_TYPE_02
70
1
62
-250
6
CONTINUOUS
0
LAYER
2
PART_INFO
70
1
62
-254
6
CONTINUOUS
0
LAYER
2
PART_PTS
70
1
62
-254
6
CONTINUOUS
0
LAYER
2
PART_NAME_BOT
70
1
62
-250
6
CONTINUOUS
0
LAYER
2
SYM_NAME
70
1
62
-254
6
CONTINUOUS
0
LAYER
2
SYM_PART_TYPE_01
70
1
62
-254
6
CONTINUOUS
0
LAYER
2
SYM_PART_NAME_01
70
1
62
-254
6
CONTINUOUS
0
LAYER
2
SYM_TERMINAL
70
1
62
-254
6
CONTINUOUS
0
LAYER
2
PKG_INFO
70
1
62
-254
6
CONTINUOUS
0
LAYER
2
PART_BOT_2DLINE_01
70
1
62
-250
6
CONTINUOUS
0
LAYER
2
DRIL_NPLTE_THRU_01
70
0
62
16
6
CONTINUOUS
0
LAYER
2
DRIL_NPLTE_THRU_02
70
0
62
176
6
CONTINUOUS
0
LAYER
2
PADS_INNER
70
0
62
1
6
CONTINUOUS
0
LAYER
2
PADS_BOT
70
0
62
5
6
CONTINUOUS
0
LAYER
2
PADS_TOP
70
0
62
1
6
CONTINUOUS
0
LAYER
2
PART_BOT_2DLINE_00
70
0
62
253
6
CONTINUOUS
0
LAYER
2
DRIL_PLTE_THRU_01
70
0
62
16
6
CONTINUOUS
0
LAYER
2
DRIL_PLTE_THRU_02
70
0
62
176
6
CONTINUOUS
0
LAYER
2
PCB_PARAMS
70
1
62
-254
6
CONTINUOUS
0
LAYER
2
DRIL_SYMBOL
70
0
62
254
6
CONTINUOUS
0
ENDTAB
999
*** POWERPCB  TEXT STYLE ***
0
TABLE
2
STYLE
70
7
0
STYLE
2
W0$01
70
64
40
0
41
0.75
42
0
50
0
71
0
3
simplex
0
STYLE
2
W0$0059055118
70
64
40
0
41
0.75
42
0
50
0
71
0
3
simplex
0
STYLE
2
W0$008
70
64
40
0
41
0.75
42
0
50
0
71
0
3
simplex
0
STYLE
2
W0$0039370079
70
64
40
0
41
0.75
42
0
50
0
71
0
3
simplex
0
STYLE
2
W0$01R0
70
64
40
0
41
0.75
42
0
50
0
71
0
3
simplex
0
STYLE
2
W0$0039370079R0
70
64
40
0
41
0.75
42
0
50
0
71
0
3
simplex
0
STYLE
2
W0$008R0
70
64
40
0
41
0.75
42
0
50
0
71
0
3
simplex
0
ENDTAB
0
ENDSEC
0
SECTION
2
BLOCKS
999
*** POWERPCB  DBLAYER ***
0
BLOCK
2
DBLAYERS
8
0
10
0
20
0
3
DBLAYERS
70
64
0
TEXT
8
DBLAYERS
10
0
20
-0.12
40
0.07
1
__It__Is__Job__Name__:=NEI2_2.pcb
999
 *  1.Number             2.Type                  3.RouteColor
999
 *  4.ViaColor           5.PadColor              6.CopperColor
999
 *  7.2DLineColor        8.TextColor             9.ErrorColor
999
 * 10.TopComponentColor 11.BottomComponentColor 12.RoutingDirection
999
 * 13.LayerThickness    14.CopperThickness      15.Dielectric
999
 * 16.IsRouteable       17.IsVisible            18.IsSelectable
999
 * 19.IsPrepreg         20.AssSilkScreen        21.AssPasteMask
999
 * 22.AssSolderMask     23.AssAssembly
0
TEXT
8
DBLAYERS
10
0
20
-0.24
40
0.07
1
Bottom:=2 1 9 9 9 9 9 9 13 0 7 1 0 45000 3.2999999523 1 1 1 0 29 22 28 30 0 1 0 7 0 0 13 
0
ENDBLK
999
*** POWERPCB  BOARD ***
0
BLOCK
2
BOARD_6
8
0
10
0
20
0
3
BOARD_6
70
64
0
POLYLINE
8
BOARD_OUTLINE_00
66
1
40
0.0039370079
41
0.0039370079
70
1
0
VERTEX
8
BOARD_OUTLINE_00
10
-0.3917322835
20
0.0039370079
0
VERTEX
8
BOARD_OUTLINE_00
10
0.0779399475
20
0.0039370079
42
-0.1218988346
0
VERTEX
8
BOARD_OUTLINE_00
10
0.0779399475
20
-0.6653543307
0
VERTEX
8
BOARD_OUTLINE_00
10
-0.3917322835
20
-0.6653543307
0
SEQEND
0
INSERT
2
SMOOTH_0$0039370079
8
BOARD_OUTLINE_00
10
-0.3917322835
20
0.0039370079
0
INSERT
2
SMOOTH_0$0039370079
8
BOARD_OUTLINE_00
10
0.0779399475
20
0.0039370079
0
INSERT
2
SMOOTH_0$0039370079
8
BOARD_OUTLINE_00
10
0.0779399475
20
-0.6653543307
0
INSERT
2
SMOOTH_0$0039370079
8
BOARD_OUTLINE_00
10
-0.3917322835
20
-0.6653543307
0
ENDBLK
999
*** POWERPCB  2DLINE ***
0
BLOCK
2
DRAWING_1
8
0
10
0
20
0
3
DRAWING_1
70
64
0
POLYLINE
8
2D_LINE_00
66
1
40
0.0118110236
41
0.0118110236
0
VERTEX
8
2D_LINE_00
10
0
20
0
0
VERTEX
8
2D_LINE_00
10
0
20
0.3937007874
0
SEQEND
0
INSERT
2
SMOOTH_0$0118110236
8
2D_LINE_00
10
0
20
0
0
INSERT
2
SMOOTH_0$0118110236
8
2D_LINE_00
10
0
20
0.3937007874
0
ENDBLK
0
BLOCK
2
DRAWING_2
8
0
10
0
20
0
3
DRAWING_2
70
64
0
POLYLINE
8
2D_LINE_00
66
1
40
0.0118110236
41
0.0118110236
0
VERTEX
8
2D_LINE_00
10
0
20
0.0039370079
0
VERTEX
8
2D_LINE_00
10
0.3937007874
20
0.0039370079
0
SEQEND
0
INSERT
2
SMOOTH_0$0118110236
8
2D_LINE_00
10
0
20
0.0039370079
0
INSERT
2
SMOOTH_0$0118110236
8
2D_LINE_00
10
0.3937007874
20
0.0039370079
0
ENDBLK
0
BLOCK
2
DRAWING_3
8
0
10
0
20
0
3
DRAWING_3
70
64
0
POLYLINE
8
2D_LINE_00
66
1
40
0.0118110236
41
0.0118110236
0
VERTEX
8
2D_LINE_00
10
0
20
0
0
VERTEX
8
2D_LINE_00
10
0.3858267717
20
0
0
VERTEX
8
2D_LINE_00
10
0.3858267717
20
-0.3937007874
0
SEQEND
0
INSERT
2
SMOOTH_0$0118110236
8
2D_LINE_00
10
0
20
0
0
INSERT
2
SMOOTH_0$0118110236
8
2D_LINE_00
10
0.3858267717
20
0
0
INSERT
2
SMOOTH_0$0118110236
8
2D_LINE_00
10
0.3858267717
20
-0.3937007874
0
ENDBLK
0
BLOCK
2
DRAWING_4
8
0
10
0
20
0
3
DRAWING_4
70
64
0
POLYLINE
8
2D_LINE_00
66
1
40
0.0118110236
41
0.0118110236
0
VERTEX
8
2D_LINE_00
10
0.0078740157
20
0
0
VERTEX
8
2D_LINE_00
10
0.0078740157
20
-0.3937007874
0
VERTEX
8
2D_LINE_00
10
0.3937007874
20
-0.3937007874
0
SEQEND
0
INSERT
2
SMOOTH_0$0118110236
8
2D_LINE_00
10
0.0078740157
20
0
0
INSERT
2
SMOOTH_0$0118110236
8
2D_LINE_00
10
0.0078740157
20
-0.3937007874
0
INSERT
2
SMOOTH_0$0118110236
8
2D_LINE_00
10
0.3937007874
20
-0.3937007874
0
ENDBLK
0
BLOCK
2
DRAWING_5
8
0
10
0
20
0
3
DRAWING_5
70
64
0
POLYLINE
8
2D_LINE_00
66
1
40
0.0118110236
41
0.0118110236
0
VERTEX
8
2D_LINE_00
10
0
20
0
0
VERTEX
8
2D_LINE_00
10
0
20
-0.3976377953
0
VERTEX
8
2D_LINE_00
10
-0.3937007874
20
-0.3976377953
0
SEQEND
0
INSERT
2
SMOOTH_0$0118110236
8
2D_LINE_00
10
0
20
0
0
INSERT
2
SMOOTH_0$0118110236
8
2D_LINE_00
10
0
20
-0.3976377953
0
INSERT
2
SMOOTH_0$0118110236
8
2D_LINE_00
10
-0.3937007874
20
-0.3976377953
0
ENDBLK
0
BLOCK
2
D_1dfeghi_18
8
0
10
0
20
0
3
D_1dfeghi_18
70
64
0
ENDBLK
0
BLOCK
2
D_6deafaa_23
8
0
10
0
20
0
3
D_6deafaa_23
70
64
0
ENDBLK
0
BLOCK
2
D_6deafaa_24
8
0
10
0
20
0
3
D_6deafaa_24
70
64
0
ENDBLK
0
BLOCK
2
D_6deafaa_25
8
0
10
0
20
0
3
D_6deafaa_25
70
64
0
ENDBLK
0
BLOCK
2
D_6deafaa_26
8
0
10
0
20
0
3
D_6deafaa_26
70
64
0
ENDBLK
999
*** POWERPCB  COMPONENT ***
0
BLOCK
2
PART_BOT_2
8
0
10
0
20
0
3
PART_BOT_2
70
64
0
INSERT
2
SYM_BOT_3
8
0
10
0
20
0
0
INSERT
2
PKG_1
8
0
10
0
20
0
41
-1
0
TEXT
8
LABEL_INFO
10
0.0039370079
20
0
40
0.0330708661
1
0 0 1 1 0 1
72
1
73
1
11
0.0039370079
21
0
41
0.75
7
W0$0059055118
0
TEXT
8
LABEL_ATTRIBUTE
10
0.0039370079
20
0
40
0.0330708661
1
Ref.Des.
72
1
73
1
11
0.0039370079
21
0
41
0.75
7
W0$0059055118
0
TEXT
8
PART_NAME_02
10
0.0039370079
20
0
40
0.0330708661
1
P2
72
1
73
2
11
0.0039370079
21
0
41
0.75
7
W0$0059055118
0
TEXT
8
LABEL_INFO
10
0.1062992126
20
-0.0334645669
40
0.056
1
0 0 1 1 0 1
72
1
73
1
11
0.1062992126
21
-0.0334645669
41
0.75
7
W0$01
0
TEXT
8
LABEL_ATTRIBUTE
10
0.1062992126
20
-0.0334645669
40
0.056
1
PartType
72
1
73
1
11
0.1062992126
21
-0.0334645669
41
0.75
7
W0$01
0
TEXT
8
PART_TYPE_02
10
0.1062992126
20
-0.0334645669
40
0.056
1
PAD_4X2MM_0_2
72
1
73
2
11
0.1062992126
21
-0.0334645669
41
0.75
7
W0$01
0
TEXT
8
PART_INFO
10
0.1062992126
20
-0.1134645669
40
0.056
1
000000
71
2
72
1
73
2
11
0.1062992126
21
-0.1134645669
41
0.75
7
W0$01
0
TEXT
8
PART_PTS
10
0.1062992126
20
-0.1934645669
40
0.056
1
1 
71
2
72
1
73
2
11
0.1062992126
21
-0.1934645669
41
0.75
7
W0$01
0
ENDBLK
0
BLOCK
2
PART_BOT_3
8
0
10
0
20
0
3
PART_BOT_3
70
64
0
INSERT
2
SYM_BOT_3
8
0
10
0
20
0
0
INSERT
2
PKG_1
8
0
10
0
20
0
41
-1
0
TEXT
8
LABEL_INFO
10
0
20
0
40
0.0330708661
1
0 0 1 1 0 1
72
1
73
1
11
0
21
0
41
0.75
7
W0$0059055118
0
TEXT
8
LABEL_ATTRIBUTE
10
0
20
0
40
0.0330708661
1
Ref.Des.
72
1
73
1
11
0
21
0
41
0.75
7
W0$0059055118
0
TEXT
8
PART_NAME_02
10
0
20
0
40
0.0330708661
1
P3
72
1
73
2
11
0
21
0
41
0.75
7
W0$0059055118
0
TEXT
8
LABEL_INFO
10
0.1062992126
20
-0.0334645669
40
0.056
1
0 0 1 1 0 1
72
1
73
1
11
0.1062992126
21
-0.0334645669
41
0.75
7
W0$01
0
TEXT
8
LABEL_ATTRIBUTE
10
0.1062992126
20
-0.0334645669
40
0.056
1
PartType
72
1
73
1
11
0.1062992126
21
-0.0334645669
41
0.75
7
W0$01
0
TEXT
8
PART_TYPE_02
10
0.1062992126
20
-0.0334645669
40
0.056
1
PAD_4X2MM_0_2
72
1
73
2
11
0.1062992126
21
-0.0334645669
41
0.75
7
W0$01
0
TEXT
8
PART_INFO
10
0.1062992126
20
-0.1134645669
40
0.056
1
000000
71
2
72
1
73
2
11
0.1062992126
21
-0.1134645669
41
0.75
7
W0$01
0
TEXT
8
PART_PTS
10
0.1062992126
20
-0.1934645669
40
0.056
1
1 
71
2
72
1
73
2
11
0.1062992126
21
-0.1934645669
41
0.75
7
W0$01
0
ENDBLK
0
BLOCK
2
PART_BOT_4
8
0
10
0
20
0
3
PART_BOT_4
70
64
0
INSERT
2
SYM_BOT_3
8
0
10
0
20
0
0
INSERT
2
PKG_1
8
0
10
0
20
0
41
-1
0
TEXT
8
LABEL_INFO
10
0.0039370079
20
0.0039370079
40
0.0330708661
1
0 0 1 1 0 1
72
1
73
1
11
0.0039370079
21
0.0039370079
41
0.75
7
W0$0059055118
0
TEXT
8
LABEL_ATTRIBUTE
10
0.0039370079
20
0.0039370079
40
0.0330708661
1
Ref.Des.
72
1
73
1
11
0.0039370079
21
0.0039370079
41
0.75
7
W0$0059055118
0
TEXT
8
PART_NAME_02
10
0.0039370079
20
0.0039370079
40
0.0330708661
1
P4
72
1
73
2
11
0.0039370079
21
0.0039370079
41
0.75
7
W0$0059055118
0
TEXT
8
LABEL_INFO
10
0.1062992126
20
-0.0334645669
40
0.056
1
0 0 1 1 0 1
72
1
73
1
11
0.1062992126
21
-0.0334645669
41
0.75
7
W0$01
0
TEXT
8
LABEL_ATTRIBUTE
10
0.1062992126
20
-0.0334645669
40
0.056
1
PartType
72
1
73
1
11
0.1062992126
21
-0.0334645669
41
0.75
7
W0$01
0
TEXT
8
PART_TYPE_02
10
0.1062992126
20
-0.0334645669
40
0.056
1
PAD_4X2MM_0_2
72
1
73
2
11
0.1062992126
21
-0.0334645669
41
0.75
7
W0$01
0
TEXT
8
PART_INFO
10
0.1062992126
20
-0.1134645669
40
0.056
1
000000
71
2
72
1
73
2
11
0.1062992126
21
-0.1134645669
41
0.75
7
W0$01
0
TEXT
8
PART_PTS
10
0.1062992126
20
-0.1934645669
40
0.056
1
1 
71
2
72
1
73
2
11
0.1062992126
21
-0.1934645669
41
0.75
7
W0$01
0
ENDBLK
0
BLOCK
2
PART_BOT_10
8
0
10
0
20
0
3
PART_BOT_10
70
64
0
INSERT
2
SYM_BOT_5
8
0
10
0
20
0
0
INSERT
2
PKG_3
8
0
10
0
20
0
41
-1
0
TEXT
8
LABEL_INFO
10
0.0019685039
20
-0.0649606299
40
0.056
1
0 0 1 1 0 1
72
1
73
1
11
0.0019685039
21
-0.0649606299
41
0.75
7
W0$01
0
TEXT
8
LABEL_ATTRIBUTE
10
0.0019685039
20
-0.0649606299
40
0.056
1
PartType
72
1
73
1
11
0.0019685039
21
-0.0649606299
41
0.75
7
W0$01
0
TEXT
8
PART_TYPE_02
10
0.0019685039
20
-0.0649606299
40
0.056
1
VITE18
72
1
73
2
11
0.0019685039
21
-0.0649606299
41
0.75
7
W0$01
0
TEXT
8
PART_NAME_BOT
10
0
20
0
40
0.07
1
H1
73
2
11
0
21
0
41
0.75
7
W0$01
0
TEXT
8
PART_INFO
10
0
20
-0.1
40
0.07
1
000010
71
2
73
2
11
0
21
-0.1
41
0.75
7
W0$01
0
ENDBLK
0
BLOCK
2
PART_BOT_11
8
0
10
0
20
0
3
PART_BOT_11
70
64
0
INSERT
2
SYM_BOT_6
8
0
10
0
20
0
0
INSERT
2
PKG_4
8
0
10
0
20
0
41
-1
0
TEXT
8
LABEL_INFO
10
-0.0216535433
20
-0.0157480315
40
0.0330708661
1
0 0 0 0 0 1
41
0.75
7
W0$0059055118
0
TEXT
8
LABEL_ATTRIBUTE
10
-0.0216535433
20
-0.0157480315
40
0.0330708661
1
Ref.Des.
41
0.75
7
W0$0059055118
0
TEXT
8
PART_NAME_02
10
-0.0216535433
20
-0.0157480315
40
0.0330708661
1
C3
41
0.75
7
W0$0059055118
0
TEXT
8
LABEL_INFO
10
0
20
-0.06
40
0.042
1
0 0 0 0 0 1
41
0.75
7
W0$008
0
TEXT
8
LABEL_ATTRIBUTE
10
0
20
-0.06
40
0.042
1
PartType
41
0.75
7
W0$008
0
TEXT
8
PART_TYPE_02
10
0
20
-0.06
40
0.042
1
CAP0402
41
0.75
7
W0$008
0
TEXT
8
PART_INFO
10
0
20
-0.12
40
0.042
1
000000
71
2
41
0.75
7
W0$008
0
TEXT
8
PART_PTS
10
0
20
-0.18
40
0.042
1
1 2 
71
2
41
0.75
7
W0$008
0
ENDBLK
0
BLOCK
2
PART_BOT_14
8
0
10
0
20
0
3
PART_BOT_14
70
64
0
INSERT
2
SYM_BOT_7
8
0
10
0
20
0
0
INSERT
2
PKG_5
8
0
10
0
20
0
41
-1
0
TEXT
8
LABEL_INFO
10
0.029
20
-0.042
40
0.042
1
0 0 0 0 0 1
41
0.75
7
W0$008
0
TEXT
8
LABEL_ATTRIBUTE
10
0.029
20
-0.042
40
0.042
1
PartType
41
0.75
7
W0$008
0
TEXT
8
PART_TYPE_02
10
0.029
20
-0.042
40
0.042
1
CAP0603
41
0.75
7
W0$008
0
TEXT
8
LABEL_INFO
10
0.0157480315
20
-0.023622021
40
0.042
1
0 162000000 0 0 0 1
50
90
41
0.75
7
W0$008
0
TEXT
8
LABEL_ATTRIBUTE
10
0.0157480315
20
-0.023622021
40
0.042
1
Ref.Des.
50
90
41
0.75
7
W0$008
0
TEXT
8
PART_NAME_02
10
0.0157480315
20
-0.023622021
40
0.042
1
C4
50
90
41
0.75
7
W0$008
0
TEXT
8
PART_INFO
10
0.0157480315
20
-0.083622021
40
0.042
1
000000
71
2
50
90
41
0.75
7
W0$008
0
TEXT
8
PART_PTS
10
0.0157480315
20
-0.143622021
40
0.042
1
1 2 
71
2
50
90
41
0.75
7
W0$008
0
ENDBLK
0
BLOCK
2
PART_BOT_16
8
0
10
0
20
0
3
PART_BOT_16
70
64
0
INSERT
2
SYM_BOT_8
8
0
10
0
20
0
0
INSERT
2
PKG_6
8
0
10
0
20
0
41
-1
0
TEXT
8
LABEL_INFO
10
0
20
0.0032812598
40
0.056
1
0 0 1 1 0 1
72
1
73
1
11
0
21
0.0032812598
41
0.75
7
W0$01
0
TEXT
8
LABEL_ATTRIBUTE
10
0
20
0.0032812598
40
0.056
1
PartType
72
1
73
1
11
0
21
0.0032812598
41
0.75
7
W0$01
0
TEXT
8
PART_TYPE_02
10
0
20
0.0032812598
40
0.056
1
TP_ATE_LS
72
1
73
2
11
0
21
0.0032812598
41
0.75
7
W0$01
0
TEXT
8
PART_NAME_BOT
10
0
20
0
40
0.07
1
TP1
73
2
11
0
21
0
41
0.75
7
W0$01
0
TEXT
8
PART_INFO
10
0
20
-0.1
40
0.07
1
000000
71
2
73
2
11
0
21
-0.1
41
0.75
7
W0$01
0
TEXT
8
PART_PTS
10
0
20
-0.2
40
0.07
1
1 
71
2
73
2
11
0
21
-0.2
41
0.75
7
W0$01
0
ENDBLK
0
BLOCK
2
PART_BOT_17
8
0
10
0
20
0
3
PART_BOT_17
70
64
0
INSERT
2
SYM_BOT_8
8
0
10
0
20
0
0
INSERT
2
PKG_6
8
0
10
0
20
0
41
-1
0
TEXT
8
LABEL_INFO
10
0
20
0.0032812598
40
0.056
1
0 0 1 1 0 1
72
1
73
1
11
0
21
0.0032812598
41
0.75
7
W0$01
0
TEXT
8
LABEL_ATTRIBUTE
10
0
20
0.0032812598
40
0.056
1
PartType
72
1
73
1
11
0
21
0.0032812598
41
0.75
7
W0$01
0
TEXT
8
PART_TYPE_02
10
0
20
0.0032812598
40
0.056
1
TP_ATE_LS
72
1
73
2
11
0
21
0.0032812598
41
0.75
7
W0$01
0
TEXT
8
PART_NAME_BOT
10
0
20
0
40
0.07
1
TP2
73
2
11
0
21
0
41
0.75
7
W0$01
0
TEXT
8
PART_INFO
10
0
20
-0.1
40
0.07
1
000000
71
2
73
2
11
0
21
-0.1
41
0.75
7
W0$01
0
TEXT
8
PART_PTS
10
0
20
-0.2
40
0.07
1
1 
71
2
73
2
11
0
21
-0.2
41
0.75
7
W0$01
0
ENDBLK
0
BLOCK
2
PART_BOT_18
8
0
10
0
20
0
3
PART_BOT_18
70
64
0
INSERT
2
SYM_BOT_5
8
0
10
0
20
0
0
INSERT
2
PKG_3
8
0
10
0
20
0
41
-1
0
TEXT
8
LABEL_INFO
10
0.0019685039
20
-0.0649606299
40
0.056
1
0 0 1 1 0 1
72
1
73
1
11
0.0019685039
21
-0.0649606299
41
0.75
7
W0$01
0
TEXT
8
LABEL_ATTRIBUTE
10
0.0019685039
20
-0.0649606299
40
0.056
1
PartType
72
1
73
1
11
0.0019685039
21
-0.0649606299
41
0.75
7
W0$01
0
TEXT
8
PART_TYPE_02
10
0.0019685039
20
-0.0649606299
40
0.056
1
VITE18
72
1
73
2
11
0.0019685039
21
-0.0649606299
41
0.75
7
W0$01
0
TEXT
8
PART_NAME_BOT
10
0
20
0
40
0.07
1
H2
73
2
11
0
21
0
41
0.75
7
W0$01
0
TEXT
8
PART_INFO
10
0
20
-0.1
40
0.07
1
000010
71
2
73
2
11
0
21
-0.1
41
0.75
7
W0$01
0
TEXT
8
PART_PTS
10
0
20
-0.2
40
0.07
1
1 
71
2
73
2
11
0
21
-0.2
41
0.75
7
W0$01
0
ENDBLK
0
BLOCK
2
PART_BOT_21
8
0
10
0
20
0
3
PART_BOT_21
70
64
0
INSERT
2
SYM_BOT_3
8
0
10
0
20
0
0
INSERT
2
PKG_1
8
0
10
0
20
0
41
-1
0
TEXT
8
LABEL_INFO
10
0.0068897638
20
0.0019685039
40
0.0330708661
1
0 0 1 1 0 1
72
1
73
1
11
0.0068897638
21
0.0019685039
41
0.75
7
W0$0059055118
0
TEXT
8
LABEL_ATTRIBUTE
10
0.0068897638
20
0.0019685039
40
0.0330708661
1
Ref.Des.
72
1
73
1
11
0.0068897638
21
0.0019685039
41
0.75
7
W0$0059055118
0
TEXT
8
PART_NAME_02
10
0.0068897638
20
0.0019685039
40
0.0330708661
1
P10
72
1
73
2
11
0.0068897638
21
0.0019685039
41
0.75
7
W0$0059055118
0
TEXT
8
LABEL_INFO
10
0.1062992126
20
-0.0334645669
40
0.056
1
0 0 1 1 0 1
72
1
73
1
11
0.1062992126
21
-0.0334645669
41
0.75
7
W0$01
0
TEXT
8
LABEL_ATTRIBUTE
10
0.1062992126
20
-0.0334645669
40
0.056
1
PartType
72
1
73
1
11
0.1062992126
21
-0.0334645669
41
0.75
7
W0$01
0
TEXT
8
PART_TYPE_02
10
0.1062992126
20
-0.0334645669
40
0.056
1
PAD_4X2MM_0_2
72
1
73
2
11
0.1062992126
21
-0.0334645669
41
0.75
7
W0$01
0
TEXT
8
PART_INFO
10
0.1062992126
20
-0.1134645669
40
0.056
1
000000
71
2
72
1
73
2
11
0.1062992126
21
-0.1134645669
41
0.75
7
W0$01
0
TEXT
8
PART_PTS
10
0.1062992126
20
-0.1934645669
40
0.056
1
1 
71
2
72
1
73
2
11
0.1062992126
21
-0.1934645669
41
0.75
7
W0$01
0
ENDBLK
0
BLOCK
2
PART_BOT_22
8
0
10
0
20
0
3
PART_BOT_22
70
64
0
INSERT
2
SYM_BOT_3
8
0
10
0
20
0
0
INSERT
2
PKG_1
8
0
10
0
20
0
41
-1
0
TEXT
8
LABEL_INFO
10
0.0089370079
20
0
40
0.0330708661
1
0 0 1 1 0 1
72
1
73
1
11
0.0089370079
21
0
41
0.75
7
W0$0059055118
0
TEXT
8
LABEL_ATTRIBUTE
10
0.0089370079
20
0
40
0.0330708661
1
Ref.Des.
72
1
73
1
11
0.0089370079
21
0
41
0.75
7
W0$0059055118
0
TEXT
8
PART_NAME_02
10
0.0089370079
20
0
40
0.0330708661
1
P8
72
1
73
2
11
0.0089370079
21
0
41
0.75
7
W0$0059055118
0
TEXT
8
LABEL_INFO
10
0.1062992126
20
-0.0334645669
40
0.056
1
0 0 1 1 0 1
72
1
73
1
11
0.1062992126
21
-0.0334645669
41
0.75
7
W0$01
0
TEXT
8
LABEL_ATTRIBUTE
10
0.1062992126
20
-0.0334645669
40
0.056
1
PartType
72
1
73
1
11
0.1062992126
21
-0.0334645669
41
0.75
7
W0$01
0
TEXT
8
PART_TYPE_02
10
0.1062992126
20
-0.0334645669
40
0.056
1
PAD_4X2MM_0_2
72
1
73
2
11
0.1062992126
21
-0.0334645669
41
0.75
7
W0$01
0
TEXT
8
PART_INFO
10
0.1062992126
20
-0.1134645669
40
0.056
1
000000
71
2
72
1
73
2
11
0.1062992126
21
-0.1134645669
41
0.75
7
W0$01
0
TEXT
8
PART_PTS
10
0.1062992126
20
-0.1934645669
40
0.056
1
1 
71
2
72
1
73
2
11
0.1062992126
21
-0.1934645669
41
0.75
7
W0$01
0
ENDBLK
0
BLOCK
2
PART_BOT_23
8
0
10
0
20
0
3
PART_BOT_23
70
64
0
INSERT
2
SYM_BOT_6
8
0
10
0
20
0
0
INSERT
2
PKG_7
8
0
10
0
20
0
41
-1
0
TEXT
8
LABEL_INFO
10
0.0177165092
20
0.0157480315
40
0.0330708661
1
0 324000000 0 0 0 1
50
180
41
0.75
7
W0$0039370079
0
TEXT
8
LABEL_ATTRIBUTE
10
0.0177165092
20
0.0157480315
40
0.0330708661
1
Ref.Des.
50
180
41
0.75
7
W0$0039370079
0
TEXT
8
PART_NAME_02
10
0.0177165092
20
0.0157480315
40
0.0330708661
1
R1
50
180
41
0.75
7
W0$0039370079
0
TEXT
8
LABEL_INFO
10
-0.0405511811
20
-0.0062992126
40
0.0330708661
1
0 0 0 2 0 1
73
2
11
-0.0405511811
21
-0.0062992126
41
0.75
7
W0$0039370079
0
TEXT
8
LABEL_ATTRIBUTE
10
-0.0405511811
20
-0.0062992126
40
0.0330708661
1
PartType
73
2
11
-0.0405511811
21
-0.0062992126
41
0.75
7
W0$0039370079
0
TEXT
8
PART_TYPE_02
10
-0.0405511811
20
-0.0062992126
40
0.0330708661
1
RES0402_
73
3
11
-0.0405511811
21
-0.0062992126
41
0.75
7
W0$0039370079
0
TEXT
8
PART_INFO
10
-0.0405511811
20
-0.0535433071
40
0.0330708661
1
000000
71
2
73
3
11
-0.0405511811
21
-0.0535433071
41
0.75
7
W0$0039370079
0
TEXT
8
PART_PTS
10
-0.0405511811
20
-0.1007874016
40
0.0330708661
1
1 2 
71
2
73
3
11
-0.0405511811
21
-0.1007874016
41
0.75
7
W0$0039370079
0
ENDBLK
0
BLOCK
2
PART_BOT_24
8
0
10
0
20
0
3
PART_BOT_24
70
64
0
INSERT
2
SYM_BOT_6
8
0
10
0
20
0
0
INSERT
2
PKG_7
8
0
10
0
20
0
41
-1
0
TEXT
8
LABEL_INFO
10
0.0177165092
20
0.0157480315
40
0.0330708661
1
0 324000000 0 0 0 1
50
180
41
0.75
7
W0$0039370079
0
TEXT
8
LABEL_ATTRIBUTE
10
0.0177165092
20
0.0157480315
40
0.0330708661
1
Ref.Des.
50
180
41
0.75
7
W0$0039370079
0
TEXT
8
PART_NAME_02
10
0.0177165092
20
0.0157480315
40
0.0330708661
1
R2
50
180
41
0.75
7
W0$0039370079
0
TEXT
8
LABEL_INFO
10
-0.0405511811
20
-0.0062992126
40
0.0330708661
1
0 0 0 2 0 1
73
2
11
-0.0405511811
21
-0.0062992126
41
0.75
7
W0$0039370079
0
TEXT
8
LABEL_ATTRIBUTE
10
-0.0405511811
20
-0.0062992126
40
0.0330708661
1
PartType
73
2
11
-0.0405511811
21
-0.0062992126
41
0.75
7
W0$0039370079
0
TEXT
8
PART_TYPE_02
10
-0.0405511811
20
-0.0062992126
40
0.0330708661
1
RES0402_
73
3
11
-0.0405511811
21
-0.0062992126
41
0.75
7
W0$0039370079
0
TEXT
8
PART_INFO
10
-0.0405511811
20
-0.0535433071
40
0.0330708661
1
000000
71
2
73
3
11
-0.0405511811
21
-0.0535433071
41
0.75
7
W0$0039370079
0
TEXT
8
PART_PTS
10
-0.0405511811
20
-0.1007874016
40
0.0330708661
1
1 2 
71
2
73
3
11
-0.0405511811
21
-0.1007874016
41
0.75
7
W0$0039370079
0
ENDBLK
0
BLOCK
2
PART_BOT_25
8
0
10
0
20
0
3
PART_BOT_25
70
64
0
INSERT
2
SYM_BOT_6
8
0
10
0
20
0
0
INSERT
2
PKG_7
8
0
10
0
20
0
41
-1
0
TEXT
8
LABEL_INFO
10
0.0216535171
20
0.0157480315
40
0.0330708661
1
0 324000000 0 0 0 1
50
180
41
0.75
7
W0$0039370079
0
TEXT
8
LABEL_ATTRIBUTE
10
0.0216535171
20
0.0157480315
40
0.0330708661
1
Ref.Des.
50
180
41
0.75
7
W0$0039370079
0
TEXT
8
PART_NAME_02
10
0.0216535171
20
0.0157480315
40
0.0330708661
1
R3
50
180
41
0.75
7
W0$0039370079
0
TEXT
8
LABEL_INFO
10
-0.0405511811
20
-0.0062992126
40
0.0330708661
1
0 0 0 2 0 1
73
2
11
-0.0405511811
21
-0.0062992126
41
0.75
7
W0$0039370079
0
TEXT
8
LABEL_ATTRIBUTE
10
-0.0405511811
20
-0.0062992126
40
0.0330708661
1
PartType
73
2
11
-0.0405511811
21
-0.0062992126
41
0.75
7
W0$0039370079
0
TEXT
8
PART_TYPE_02
10
-0.0405511811
20
-0.0062992126
40
0.0330708661
1
RES0402_
73
3
11
-0.0405511811
21
-0.0062992126
41
0.75
7
W0$0039370079
0
TEXT
8
PART_INFO
10
-0.0405511811
20
-0.0535433071
40
0.0330708661
1
000000
71
2
73
3
11
-0.0405511811
21
-0.0535433071
41
0.75
7
W0$0039370079
0
TEXT
8
PART_PTS
10
-0.0405511811
20
-0.1007874016
40
0.0330708661
1
1 2 
71
2
73
3
11
-0.0405511811
21
-0.1007874016
41
0.75
7
W0$0039370079
0
ENDBLK
0
BLOCK
2
PART_BOT_29
8
0
10
0
20
0
3
PART_BOT_29
70
64
0
INSERT
2
SYM_BOT_8
8
0
10
0
20
0
0
INSERT
2
PKG_6
8
0
10
0
20
0
41
-1
0
TEXT
8
LABEL_INFO
10
0
20
0.0032812598
40
0.056
1
0 0 1 1 0 1
72
1
73
1
11
0
21
0.0032812598
41
0.75
7
W0$01
0
TEXT
8
LABEL_ATTRIBUTE
10
0
20
0.0032812598
40
0.056
1
PartType
72
1
73
1
11
0
21
0.0032812598
41
0.75
7
W0$01
0
TEXT
8
PART_TYPE_02
10
0
20
0.0032812598
40
0.056
1
TP_ATE_LS
72
1
73
2
11
0
21
0.0032812598
41
0.75
7
W0$01
0
TEXT
8
PART_NAME_BOT
10
0
20
0
40
0.07
1
TP3
73
2
11
0
21
0
41
0.75
7
W0$01
0
TEXT
8
PART_INFO
10
0
20
-0.1
40
0.07
1
000000
71
2
73
2
11
0
21
-0.1
41
0.75
7
W0$01
0
TEXT
8
PART_PTS
10
0
20
-0.2
40
0.07
1
1 
71
2
73
2
11
0
21
-0.2
41
0.75
7
W0$01
0
ENDBLK
0
BLOCK
2
SYM_BOT_3
8
0
10
0
20
0
3
SYM_BOT_3
70
64
0
TEXT
8
SYM_NAME
10
0
20
0
40
0.07
1
SOLDERPAD
41
0.75
0
TEXT
8
SYM_PART_TYPE_01
10
0.1062992126
20
-0.0334645669
40
0.056
1
 
72
1
73
1
11
0.1062992126
21
-0.0334645669
41
0.75
7
W0$01R0
0
TEXT
8
SYM_PART_NAME_01
10
0.1161417323
20
0.0236220472
40
0.056
1
 
72
1
73
1
11
0.1161417323
21
0.0236220472
41
0.75
7
W0$01R0
0
INSERT
2
PART_BODY_BOT_12
8
0
10
0
20
0
0
INSERT
2
STK_BOT_5
8
0
10
0
20
0
0
TEXT
8
SYM_TERMINAL
10
0
20
-0.12
40
0.07
1
1
0
ENDBLK
0
BLOCK
2
PKG_1
8
0
10
0
20
0
3
PKG_1
70
64
0
TEXT
8
PKG_INFO
10
0
20
0
40
0.07
1
*SYM:= 3
0
TEXT
8
PKG_INFO
10
0
20
-0.12
40
0.07
1
*PKG:= 0 PAD_4X2MM_0_2 TTL
0
TEXT
8
PKG_INFO
10
0
20
-0.24
40
0.07
1
*GATE:=1
0
TEXT
8
PKG_INFO
10
0
20
-0.36
40
0.07
1
*GATEPIN:= 0 5 1 <>
0
ENDBLK
0
BLOCK
2
SYM_BOT_5
8
0
10
0
20
0
3
SYM_BOT_5
70
64
0
TEXT
8
SYM_NAME
10
0
20
0
40
0.07
1
VITE18
41
0.75
0
TEXT
8
SYM_PART_NAME_01
10
0.0039370079
20
-0.1338582677
40
0.056
1
 
72
1
73
1
11
0.0039370079
21
-0.1338582677
41
0.75
7
W0$01R0
0
TEXT
8
SYM_PART_TYPE_01
10
0.0019685039
20
-0.0649606299
40
0.056
1
 
72
1
73
1
11
0.0019685039
21
-0.0649606299
41
0.75
7
W0$01R0
0
INSERT
2
PART_BODY_BOT_14
8
0
10
0
20
0
0
INSERT
2
STK_BOT_8
8
0
10
0
20
0
0
TEXT
8
SYM_TERMINAL
10
0
20
-0.12
40
0.07
1
1
0
ENDBLK
0
BLOCK
2
PKG_3
8
0
10
0
20
0
3
PKG_3
70
64
0
TEXT
8
PKG_INFO
10
0
20
0
40
0.07
1
*SYM:= 5
0
TEXT
8
PKG_INFO
10
0
20
-0.12
40
0.07
1
*PKG:= 0 VITE18 TTL
0
TEXT
8
PKG_INFO
10
0
20
-0.24
40
0.07
1
*GATE:=1
0
ENDBLK
0
BLOCK
2
SYM_BOT_6
8
0
10
0
20
0
3
SYM_BOT_6
70
64
0
TEXT
8
SYM_NAME
10
0
20
0
40
0.07
1
0402
41
0.75
0
TEXT
8
SYM_PART_TYPE_01
10
-0.0405511811
20
-0.0062992126
40
0.0330708661
1
 
73
2
11
-0.0405511811
21
-0.0062992126
41
0.75
7
W0$0039370079R0
0
TEXT
8
SYM_PART_NAME_01
10
-0.0421259843
20
-0.0098425197
40
0.0330708661
1
 
41
0.75
7
W0$0039370079R0
0
INSERT
2
PART_BODY_BOT_15
8
0
10
0
20
0
0
INSERT
2
STK_BOT_9
8
0
10
-0.0177165354
20
0
0
TEXT
8
SYM_TERMINAL
10
0
20
-0.12
40
0.07
1
1
0
INSERT
2
STK_BOT_9
8
0
10
0.0177165354
20
0
0
TEXT
8
SYM_TERMINAL
10
0
20
-0.24
40
0.07
1
2
0
ENDBLK
0
BLOCK
2
PKG_4
8
0
10
0
20
0
3
PKG_4
70
64
0
TEXT
8
PKG_INFO
10
0
20
0
40
0.07
1
*SYM:= 6
0
TEXT
8
PKG_INFO
10
0
20
-0.12
40
0.07
1
*PKG:= 0 CAP0402 TTL
0
TEXT
8
PKG_INFO
10
0
20
-0.24
40
0.07
1
*GATE:=1
0
TEXT
8
PKG_INFO
10
0
20
-0.36
40
0.07
1
*GATEPIN:= 0 5 1 <>
0
TEXT
8
PKG_INFO
10
0
20
-0.48
40
0.07
1
*GATEPIN:= 0 5 2 <>
0
ENDBLK
0
BLOCK
2
SYM_BOT_7
8
0
10
0
20
0
3
SYM_BOT_7
70
64
0
TEXT
8
SYM_NAME
10
0
20
0
40
0.07
1
0603
41
0.75
0
TEXT
8
SYM_PART_NAME_01
10
0.029
20
0.018
40
0.042
1
 
41
0.75
7
W0$008R0
0
TEXT
8
SYM_PART_TYPE_01
10
0.029
20
-0.042
40
0.042
1
 
41
0.75
7
W0$008R0
0
INSERT
2
PART_BODY_BOT_16
8
0
10
0
20
0
0
INSERT
2
STK_BOT_10
8
0
10
0
20
-0.024
0
TEXT
8
SYM_TERMINAL
10
0
20
-0.12
40
0.07
1
1
0
INSERT
2
STK_BOT_10
8
0
10
0
20
0.024
0
TEXT
8
SYM_TERMINAL
10
0
20
-0.24
40
0.07
1
2
0
ENDBLK
0
BLOCK
2
PKG_5
8
0
10
0
20
0
3
PKG_5
70
64
0
TEXT
8
PKG_INFO
10
0
20
0
40
0.07
1
*SYM:= 7
0
TEXT
8
PKG_INFO
10
0
20
-0.12
40
0.07
1
*PKG:= 0 CAP0603 TTL
0
TEXT
8
PKG_INFO
10
0
20
-0.24
40
0.07
1
*GATE:=1
0
TEXT
8
PKG_INFO
10
0
20
-0.36
40
0.07
1
*GATEPIN:= 0 1 1 <>
0
TEXT
8
PKG_INFO
10
0
20
-0.48
40
0.07
1
*GATEPIN:= 0 1 2 <>
0
ENDBLK
0
BLOCK
2
SYM_BOT_8
8
0
10
0
20
0
3
SYM_BOT_8
70
64
0
TEXT
8
SYM_NAME
10
0
20
0
40
0.07
1
TP-ATE-LS
41
0.75
0
TEXT
8
SYM_PART_NAME_01
10
0
20
0.0032812598
40
0.056
1
 
72
1
73
1
11
0
21
0.0032812598
41
0.75
7
W0$01R0
0
TEXT
8
SYM_PART_TYPE_01
10
0
20
0.0032812598
40
0.056
1
 
72
1
73
1
11
0
21
0.0032812598
41
0.75
7
W0$01R0
0
INSERT
2
PART_BODY_BOT_17
8
0
10
0
20
0
0
INSERT
2
STK_BOT_11
8
0
10
0
20
0
0
TEXT
8
SYM_TERMINAL
10
0
20
-0.12
40
0.07
1
1
0
ENDBLK
0
BLOCK
2
PKG_6
8
0
10
0
20
0
3
PKG_6
70
64
0
TEXT
8
PKG_INFO
10
0
20
0
40
0.07
1
*SYM:= 8
0
TEXT
8
PKG_INFO
10
0
20
-0.12
40
0.07
1
*PKG:= 0 TP_ATE_LS TTL
0
TEXT
8
PKG_INFO
10
0
20
-0.24
40
0.07
1
*GATE:=1
0
TEXT
8
PKG_INFO
10
0
20
-0.36
40
0.07
1
*GATEPIN:= 0 5 1 <>
0
ENDBLK
0
BLOCK
2
PKG_7
8
0
10
0
20
0
3
PKG_7
70
64
0
TEXT
8
PKG_INFO
10
0
20
0
40
0.07
1
*SYM:= 6
0
TEXT
8
PKG_INFO
10
0
20
-0.12
40
0.07
1
*PKG:= 0 RES0402_ TTL
0
TEXT
8
PKG_INFO
10
0
20
-0.24
40
0.07
1
*GATE:=1
0
TEXT
8
PKG_INFO
10
0
20
-0.36
40
0.07
1
*GATEPIN:= 0 5 1 <>
0
TEXT
8
PKG_INFO
10
0
20
-0.48
40
0.07
1
*GATEPIN:= 0 5 2 <>
0
ENDBLK
0
BLOCK
2
PART_BODY_BOT_12
8
0
10
0
20
0
3
PART_BODY_BOT_12
70
64
0
POLYLINE
8
PART_BOT_2DLINE_01
66
1
40
0.005
41
0.005
39
-0.00394
70
1
0
VERTEX
8
PART_BOT_2DLINE_01
10
-0.0236220472
20
0.0374015748
0
VERTEX
8
PART_BOT_2DLINE_01
10
0.0236220472
20
0.0374015748
0
VERTEX
8
PART_BOT_2DLINE_01
10
0.0236220472
20
-0.0374015748
0
VERTEX
8
PART_BOT_2DLINE_01
10
-0.0236220472
20
-0.0374015748
0
SEQEND
0
INSERT
2
SMOOTH_0$005
8
PART_BOT_2DLINE_01
10
-0.0236220472
20
0.0374015748
0
INSERT
2
SMOOTH_0$005
8
PART_BOT_2DLINE_01
10
0.0236220472
20
0.0374015748
0
INSERT
2
SMOOTH_0$005
8
PART_BOT_2DLINE_01
10
0.0236220472
20
-0.0374015748
0
INSERT
2
SMOOTH_0$005
8
PART_BOT_2DLINE_01
10
-0.0236220472
20
-0.0374015748
0
ENDBLK
0
BLOCK
2
STK_BOT_5
8
0
10
0
20
0
3
STK_BOT_5
70
64
0
INSERT
2
DRIL_HOLE_0
8
DRIL_NPLTE_THRU_01
10
0
20
0
0
INSERT
2
DRIL_HOLE_0
8
DRIL_NPLTE_THRU_02
10
0
20
0
0
INSERT
2
PAD_0
8
PADS_INNER
10
0
20
0
0
INSERT
2
PAD_1
8
PADS_BOT
10
0
20
0
50
90
0
INSERT
2
PAD_0
8
PADS_TOP
10
0
20
0
0
ENDBLK
0
BLOCK
2
PART_BODY_BOT_14
8
0
10
0
20
0
3
PART_BODY_BOT_14
70
64
0
POLYLINE
8
PART_BOT_2DLINE_01
66
1
40
0.01
41
0.01
39
-0.00394
70
1
0
VERTEX
8
PART_BOT_2DLINE_01
10
0.0708661417
20
0
42
1
0
VERTEX
8
PART_BOT_2DLINE_01
10
-0.0708661417
20
0
42
1
0
SEQEND
0
ENDBLK
0
BLOCK
2
STK_BOT_8
8
0
10
0
20
0
3
STK_BOT_8
70
64
0
INSERT
2
DRIL_HOLE_0$0708661417
8
DRIL_NPLTE_THRU_01
10
0
20
0
0
INSERT
2
DRIL_HOLE_0$0708661417
8
DRIL_NPLTE_THRU_02
10
0
20
0
0
INSERT
2
PAD_2
8
PADS_INNER
10
0
20
0
0
INSERT
2
PAD_2
8
PADS_BOT
10
0
20
0
0
INSERT
2
PAD_2
8
PADS_TOP
10
0
20
0
0
ENDBLK
0
BLOCK
2
PART_BODY_BOT_15
8
0
10
0
20
0
3
PART_BODY_BOT_15
70
64
0
POLYLINE
8
PART_BOT_2DLINE_00
66
1
40
0.004
41
0.004
39
-0.02362
0
VERTEX
8
PART_BOT_2DLINE_00
10
-0.0055511811
20
0.0098425197
0
VERTEX
8
PART_BOT_2DLINE_00
10
0.0056692913
20
0.0098425197
0
SEQEND
0
INSERT
2
SMOOTH_0$004
8
PART_BOT_2DLINE_00
10
-0.0055511811
20
0.0098425197
0
INSERT
2
SMOOTH_0$004
8
PART_BOT_2DLINE_00
10
0.0056692913
20
0.0098425197
0
POLYLINE
8
PART_BOT_2DLINE_00
66
1
40
0.004
41
0.004
39
-0.02362
0
VERTEX
8
PART_BOT_2DLINE_00
10
-0.0053149606
20
-0.0098425197
0
VERTEX
8
PART_BOT_2DLINE_00
10
0.0047244094
20
-0.0098425197
0
SEQEND
0
INSERT
2
SMOOTH_0$004
8
PART_BOT_2DLINE_00
10
-0.0053149606
20
-0.0098425197
0
INSERT
2
SMOOTH_0$004
8
PART_BOT_2DLINE_00
10
0.0047244094
20
-0.0098425197
0
ENDBLK
0
BLOCK
2
STK_BOT_9
8
0
10
0
20
0
3
STK_BOT_9
70
64
0
INSERT
2
DRIL_HOLE_0
8
DRIL_PLTE_THRU_01
10
0
20
0
0
INSERT
2
DRIL_HOLE_0
8
DRIL_PLTE_THRU_02
10
0
20
0
0
INSERT
2
PAD_0
8
PADS_INNER
10
0
20
0
0
INSERT
2
PAD_3
8
PADS_BOT
10
0
20
0
0
INSERT
2
PAD_0
8
PADS_TOP
10
0
20
0
0
ENDBLK
0
BLOCK
2
PART_BODY_BOT_16
8
0
10
0
20
0
3
PART_BODY_BOT_16
70
64
0
POLYLINE
8
PART_BOT_2DLINE_01
66
1
40
0.004
41
0.004
39
-0.0315
0
VERTEX
8
PART_BOT_2DLINE_01
10
-0.02
20
-0.042
0
VERTEX
8
PART_BOT_2DLINE_01
10
0.02
20
-0.042
0
VERTEX
8
PART_BOT_2DLINE_01
10
0.02
20
0.042
0
VERTEX
8
PART_BOT_2DLINE_01
10
-0.02
20
0.042
0
VERTEX
8
PART_BOT_2DLINE_01
10
-0.02
20
-0.042
0
SEQEND
0
INSERT
2
SMOOTH_0$004
8
PART_BOT_2DLINE_01
10
-0.02
20
-0.042
0
INSERT
2
SMOOTH_0$004
8
PART_BOT_2DLINE_01
10
0.02
20
-0.042
0
INSERT
2
SMOOTH_0$004
8
PART_BOT_2DLINE_01
10
0.02
20
0.042
0
INSERT
2
SMOOTH_0$004
8
PART_BOT_2DLINE_01
10
-0.02
20
0.042
0
INSERT
2
SMOOTH_0$004
8
PART_BOT_2DLINE_01
10
-0.02
20
-0.042
0
ENDBLK
0
BLOCK
2
STK_BOT_10
8
0
10
0
20
0
3
STK_BOT_10
70
64
0
INSERT
2
DRIL_HOLE_0
8
DRIL_NPLTE_THRU_01
10
0
20
0
0
INSERT
2
DRIL_HOLE_0
8
DRIL_NPLTE_THRU_02
10
0
20
0
0
INSERT
2
PAD_0
8
PADS_INNER
10
0
20
0
0
INSERT
2
PAD_4
8
PADS_BOT
10
0
20
0
0
INSERT
2
PAD_0
8
PADS_TOP
10
0
20
0
0
ENDBLK
0
BLOCK
2
PART_BODY_BOT_17
8
0
10
0
20
0
3
PART_BODY_BOT_17
70
64
0
ENDBLK
0
BLOCK
2
STK_BOT_11
8
0
10
0
20
0
3
STK_BOT_11
70
64
0
INSERT
2
DRIL_HOLE_0
8
DRIL_NPLTE_THRU_01
10
0
20
0
0
INSERT
2
DRIL_HOLE_0
8
DRIL_NPLTE_THRU_02
10
0
20
0
0
INSERT
2
PAD_0
8
PADS_INNER
10
0
20
0
0
INSERT
2
PAD_0
8
PADS_BOT
10
0
20
0
0
INSERT
2
PAD_5
8
PADS_TOP
10
0
20
0
0
ENDBLK
999
*** POWERPCB  PCB PARAMETER ***
0
BLOCK
2
PCB_PARAMS
8
0
10
0
20
0
3
PCB_PARAMS
70
64
999
 *  1.Job name           2.Backupfile name       3.CursorType
999
 *  4.TearDropFlag       5.HighlighNetsFlag      6.HatchDisplayFlag
999
 *  7.PadsFlag           8.TracksFlag            9.ViasFlag
999
 * 10.CopperFlag        11.LinesFlag            12.TextFlag
999
 * 13.TopComponentFlag  14.BottomComponentFlag  16.ObjectSnapFlags
0
TEXT
8
PCB_PARAMS
10
0
20
-0.12
40
0.07
1
A:=NEI2_2.pcb <> 3 0 0 0 1 1 1 1 1 1 1 1 0 502 0
999
 *  1.RefDesHeight       2.RefDesWidth           3.DefaultWidth
999
 *  4.VGX                5.VGY                   6.OVR
999
 *  7.HatchGrid          8.ObjectSnapRadius
0
TEXT
8
PCB_PARAMS
10
0
20
-0.24
40
0.07
1
B:=0.1 0.01 0.0078740157 0.0019685039 0.0019685039 0.003 0.01 0.0019685039
999
 *  1.ScaleFactor        2.NetAttributeFlags     3.BackupInterval
999
 *  4.WorkingLevel       5.HatchMode             6.HatchDirection
999
 *  7.ConnectionColor    8.BackgroundColor       9.ForegroundColor
999
 * 10.BoardOutlineColor
0
TEXT
8
PCB_PARAMS
10
0
20
-0.36
40
0.07
1
C:=28.0446815491 10002 20 26 0 0 8 0 8 8
999
 * MitreAngle0 - MitreAngle6
0
TEXT
8
PCB_PARAMS
10
0
20
-0.48
40
0.07
1
D:=324000000 324000000 324000000 324000000 324000000 324000000 162000000
999
 * Hatch & Keepout Parameters
0
TEXT
8
PCB_PARAMS
10
0
20
-0.6
40
0.07
1
E:=0.5 0 0 0.1 0 1
999
 * Fanout Parameters
0
TEXT
8
PCB_PARAMS
10
0
20
-0.72
40
0.07
1
F:=0.025 0.025 0.25 1 2 0 1 1 0 0 1 1 1 1
999
 * Pad Entry Parameters
0
TEXT
8
PCB_PARAMS
10
0
20
-0.84
40
0.07
1
P:= 1 1 1 1
999
 * DFF Parameters
0
TEXT
8
PCB_PARAMS
10
0
20
-0.96
40
0.07
1
Q:=89.9999 3967 114300 114300 114300 5 4 114300 114300 114300 114300 1 114300 1 114300 1 114300 0
0
ENDBLK
0
BLOCK
2
DRIL_SYMBOL_0
8
0
10
0
20
0
3
DRIL_SYMBOL_0
70
64
0
ENDBLK
0
BLOCK
2
DRIL_SYMBOL_0$0708661417
8
0
10
0
20
0
3
DRIL_SYMBOL_0$0708661417
70
64
0
POLYLINE
8
DRIL_SYMBOL
66
1
40
0.002
41
0.002
0
VERTEX
8
DRIL_SYMBOL
10
0
20
-0.01
0
VERTEX
8
DRIL_SYMBOL
10
0
20
0.01
0
SEQEND
0
POLYLINE
8
DRIL_SYMBOL
66
1
40
0.002
41
0.002
0
VERTEX
8
DRIL_SYMBOL
10
-0.01
20
0
0
VERTEX
8
DRIL_SYMBOL
10
0.01
20
0
0
SEQEND
0
ENDBLK
999
*** POWERPCB  SMOOTH CIRCLE ***
0
BLOCK
2
SMOOTH_0$0039370079
8
0
10
0
20
0
3
SMOOTH_0$0039370079
70
64
0
POLYLINE
8
0
66
1
40
0.0019685039
41
0.0019685039
70
1
0
VERTEX
8
0
10
-0.000984252
20
0
42
1
0
VERTEX
8
0
10
0.000984252
20
0
42
1
0
SEQEND
0
ENDBLK
0
BLOCK
2
SMOOTH_0$0118110236
8
0
10
0
20
0
3
SMOOTH_0$0118110236
70
64
0
POLYLINE
8
0
66
1
40
0.0059055118
41
0.0059055118
70
1
0
VERTEX
8
0
10
-0.0029527559
20
0
42
1
0
VERTEX
8
0
10
0.0029527559
20
0
42
1
0
SEQEND
0
ENDBLK
0
BLOCK
2
SMOOTH_0$005
8
0
10
0
20
0
3
SMOOTH_0$005
70
64
0
POLYLINE
8
0
66
1
40
0.0025
41
0.0025
70
1
0
VERTEX
8
0
10
-0.00125
20
0
42
1
0
VERTEX
8
0
10
0.00125
20
0
42
1
0
SEQEND
0
ENDBLK
0
BLOCK
2
SMOOTH_0$004
8
0
10
0
20
0
3
SMOOTH_0$004
70
64
0
POLYLINE
8
0
66
1
40
0.002
41
0.002
70
1
0
VERTEX
8
0
10
-0.001
20
0
42
1
0
VERTEX
8
0
10
0.001
20
0
42
1
0
SEQEND
0
ENDBLK
0
BLOCK
2
PAD_0
8
0
10
0
20
0
3
PAD_0
70
64
0
POLYLINE
8
0
70
1
66
1
0
VERTEX
8
0
10
0
20
0
42
1
0
VERTEX
8
0
10
0
20
0
42
1
0
SEQEND
0
ENDBLK
0
BLOCK
2
PAD_1
8
0
10
0
20
0
3
PAD_1
70
64
0
POLYLINE
8
0
66
1
40
0.03
41
0.03
0
VERTEX
8
0
10
-0.03
20
0
0
VERTEX
8
0
10
0.03
20
0
0
SEQEND
0
ENDBLK
0
BLOCK
2
PAD_2
8
0
10
0
20
0
3
PAD_2
70
64
0
POLYLINE
8
0
70
1
66
1
40
0.0354330709
41
0.0354330709
0
VERTEX
8
0
10
0
20
-0.0177165354
42
1
0
VERTEX
8
0
10
0
20
0.0177165354
42
1
0
SEQEND
0
ENDBLK
0
BLOCK
2
PAD_3
8
0
10
0
20
0
3
PAD_3
70
64
0
POLYLINE
8
0
66
1
40
0.0216535433
41
0.0216535433
0
VERTEX
8
0
10
-0.0108267717
20
0
0
VERTEX
8
0
10
0.0108267717
20
0
0
SEQEND
0
ENDBLK
0
BLOCK
2
PAD_4
8
0
10
0
20
0
3
PAD_4
70
64
0
POLYLINE
8
0
66
1
40
0.024
41
0.024
0
VERTEX
8
0
10
-0.0175
20
0
0
VERTEX
8
0
10
0.0175
20
0
0
SEQEND
0
ENDBLK
0
BLOCK
2
PAD_5
8
0
10
0
20
0
3
PAD_5
70
64
0
POLYLINE
8
0
70
1
66
1
40
0.025
41
0.025
0
VERTEX
8
0
10
0
20
-0.0125
42
1
0
VERTEX
8
0
10
0
20
0.0125
42
1
0
SEQEND
0
ENDBLK
999
*** POWERPCB  DRILL HOLE ***
0
BLOCK
2
DRIL_HOLE_0
8
0
10
0
20
0
3
DRIL_HOLE_0
70
64
0
POLYLINE
8
0
66
1
70
1
0
VERTEX
8
0
10
0
20
0
42
1
0
VERTEX
8
0
10
0
20
0
42
1
0
SEQEND
0
INSERT
2
DRIL_SYMBOL_0
8
0
10
0
20
0
0
ENDBLK
0
BLOCK
2
DRIL_HOLE_0$0708661417
8
0
10
0
20
0
3
DRIL_HOLE_0$0708661417
70
64
0
POLYLINE
8
0
66
1
40
0.0354330709
41
0.0354330709
70
1
0
VERTEX
8
0
10
-0.0177165354
20
0
42
1
0
VERTEX
8
0
10
0.0177165354
20
0
42
1
0
SEQEND
0
INSERT
2
DRIL_SYMBOL_0$0708661417
8
0
10
0
20
0
0
ENDBLK
0
ENDSEC
0
SECTION
2
ENTITIES
999
*** POWERPCB  DBLAYER ***
0
INSERT
2
DBLAYERS
8
0
10
0
20
0
999
*** POWERPCB  BOARD ***
0
INSERT
2
BOARD_6
8
0
10
1.3582677165
20
0.3307086614
999
*** POWERPCB  2DLINE ***
0
INSERT
2
DRAWING_1
8
0
10
0.5708661417
20
0.4921259843
0
INSERT
2
DRAWING_2
8
0
10
0.5708661417
20
0.8858267717
0
INSERT
2
DRAWING_3
8
0
10
2.7086614173
20
0.8700787402
0
INSERT
2
DRAWING_4
8
0
10
0.5669291339
20
-0.3700787402
0
INSERT
2
DRAWING_5
8
0
10
3.0866141732
20
-0.3661417323
0
INSERT
2
D_1dfeghi_18
8
0
10
1
20
0.3149606299
0
INSERT
2
D_6deafaa_23
8
0
10
0
20
0
0
INSERT
2
D_6deafaa_24
8
0
10
0
20
0
0
INSERT
2
D_6deafaa_25
8
0
10
0
20
0
0
INSERT
2
D_6deafaa_26
8
0
10
0
20
0
999
*** POWERPCB  FREE TEXT ***
0
TEXT
8
TEXT_02
10
1.8070866142
20
-0.0905511811
40
0.07
1
4 - Copper BOTTOM
41
0.75
7
W0$01
999
*** POWERPCB  COMPONENT ***
0
INSERT
2
PART_BOT_2
8
0
10
1.4153804462
20
0.0741769554
50
-267
41
-1
0
INSERT
2
PART_BOT_3
8
0
10
1.4173228346
20
0
50
-270
41
-1
0
INSERT
2
PART_BOT_4
8
0
10
1.4153804462
20
-0.0741769554
50
-273
41
-1
0
INSERT
2
PART_BOT_10
8
0
10
1.2739023622
20
0.2707763255
50
-168
41
-1
0
INSERT
2
PART_BOT_11
8
0
10
1.157480315
20
0.0649606299
41
-1
0
INSERT
2
PART_BOT_14
8
0
10
1.2637795276
20
0.1299212598
50
-270
41
-1
0
INSERT
2
PART_BOT_16
8
0
10
1.0455902362
20
0.2627432546
41
-1
0
INSERT
2
PART_BOT_17
8
0
10
1.0468428871
20
0.1845866404
41
-1
0
INSERT
2
PART_BOT_18
8
0
10
1.2739023622
20
-0.2707763255
50
-192
41
-1
0
INSERT
2
PART_BOT_21
8
0
10
1.4095585827
20
-0.1481505774
50
-276
41
-1
0
INSERT
2
PART_BOT_22
8
0
10
1.4095585827
20
0.1481505774
50
-264
41
-1
0
INSERT
2
PART_BOT_23
8
0
10
1.3011811024
20
0.061023622
50
-180
41
-1
0
INSERT
2
PART_BOT_24
8
0
10
1.3031496063
20
-0.0039370079
50
-180
41
-1
0
INSERT
2
PART_BOT_25
8
0
10
1.3031496063
20
-0.0492125984
50
-180
41
-1
0
INSERT
2
PART_BOT_29
8
0
10
1.1476377953
20
-0.1653543307
41
-1
999
*** POWERPCB  PCB PARAMETER ***
0
INSERT
2
PCB_PARAMS
8
0
10
0
20
0
0
ENDSEC
0
EOF
