G04 CAM350 PRO V6.0 Date:  Fri Jan 11 09:56:27 2013 *
G04 Database: (Untitled) *
G04 Layer 7: ems4_2mc.lgr *
%FSLAX35Y35*%
%MOIN*%
%SFA1.000B1.000*%

%MIA0B0*%
%IPPOS*%
%ADD13C,0.00913*%
%ADD14C,0.01000*%
%ADD85R,0.06500X0.07200*%
%ADD86R,0.06200X0.05400*%
%ADD87R,0.05400X0.06200*%
%ADD89R,0.10800X0.06500*%
%ADD90R,0.06500X0.10800*%
%ADD91R,0.10200X0.07600*%
%ADD98R,0.01800X0.07200*%
%ADD99R,0.12000X0.12000*%
%ADD100C,0.01972*%
%ADD101C,0.02169*%
%ADD102R,0.04334X0.01972*%
%ADD103R,0.16200X0.07800*%
%ADD106R,0.04200X0.04200*%
%ADD109R,0.02700X0.06200*%
%ADD113C,0.05200*%
%ADD116C,0.01800*%
%ADD117C,0.20200*%
%ADD118R,0.05200X0.11700*%
%ADD119R,0.13700X0.06700*%
%ADD124C,0.02200*%
%ADD126R,0.04137X0.04531*%
%ADD127R,0.04531X0.04137*%
%ADD128R,0.06499X0.02956*%
%ADD129R,0.12011X0.08468*%
%ADD130R,0.02956X0.06499*%
%ADD131R,0.08468X0.12011*%
%ADD132R,0.13586X0.12011*%
%ADD133R,0.02562X0.07483*%
%ADD134R,0.02169X0.02169*%
%ADD135R,0.02956X0.02759*%
%ADD136R,0.02759X0.02956*%
%ADD137R,0.01302X0.03743*%
%ADD138R,0.03743X0.01302*%
%ADD139R,0.08074X0.10239*%
%ADD140R,0.02169X0.01106*%
%ADD141R,0.04137X0.04137*%
%ADD142R,0.02365X0.01381*%
%ADD143R,0.01381X0.02365*%
%ADD144R,0.02169X0.01184*%
%ADD145R,0.01184X0.02169*%
%ADD146R,0.02169X0.02956*%
%LNems4_2mc.lgr*%
%SRX1Y1I0J0*%
%LPD*%
G54D85*
X1769500Y1604500D03*
X1780500D03*
X1960500D03*
X1949500D03*
G54D86*
X1794500Y1696700D03*
Y1704300D03*
X1802500Y1696700D03*
Y1704300D03*
X1852000Y1682800D03*
Y1675200D03*
X1785500Y1649700D03*
Y1657300D03*
G54D87*
X1843700Y1663000D03*
X1851300D03*
X1821300Y1705500D03*
X1813700D03*
G54D126*
X1913500Y1664846D03*
Y1658154D03*
X1775000Y1581654D03*
Y1588346D03*
X1955000Y1581654D03*
Y1588346D03*
X1775000Y1738346D03*
Y1731654D03*
X1955000Y1738346D03*
Y1731654D03*
G54D89*
X1890500Y1650000D03*
Y1661000D03*
X1904000Y1650000D03*
Y1661000D03*
G54D90*
X1890500Y1677000D03*
X1901500D03*
G54D91*
X1941400Y1704500D03*
X1925600D03*
G54D127*
X1879154Y1737500D03*
X1885846D03*
X1853654D03*
X1860346D03*
X1757654Y1637500D03*
X1764346D03*
X1757654Y1632500D03*
X1764346D03*
X1757654Y1627500D03*
X1764346D03*
X1757654Y1622500D03*
X1764346D03*
X1961154Y1618500D03*
X1967846D03*
X1961154Y1612500D03*
X1967846D03*
G54D128*
X1959000Y1657854D03*
Y1662776D03*
Y1667697D03*
Y1672618D03*
Y1677539D03*
Y1682461D03*
Y1687382D03*
Y1692303D03*
Y1697224D03*
Y1702146D03*
G54D129*
X1970417Y1647815D03*
Y1712185D03*
G54D130*
X1915157Y1597500D03*
X1920079D03*
X1925000D03*
X1929921D03*
X1934843D03*
X1935803Y1722500D03*
X1930882D03*
X1925961D03*
X1921039D03*
X1916118D03*
X1911197D03*
X1818803D03*
X1813882D03*
X1808961D03*
X1804039D03*
X1799118D03*
X1794197D03*
X1795157Y1597500D03*
X1800079D03*
X1805000D03*
X1809921D03*
X1814843D03*
G54D131*
X1905118Y1586083D03*
X1944882D03*
X1785118D03*
X1824882D03*
G54D132*
X1943185Y1733917D03*
X1903815D03*
X1826185D03*
X1786815D03*
G54D98*
X1917544Y1664700D03*
X1920103D03*
X1922662D03*
X1925221D03*
X1927780D03*
X1930339D03*
X1932898D03*
X1935457D03*
Y1688300D03*
X1932898D03*
X1930339D03*
X1927780D03*
X1925221D03*
X1922662D03*
X1920103D03*
X1917544D03*
G54D99*
X1926500Y1676500D03*
G54D100*
X1829173Y1656327D03*
X1826024D03*
X1822874D03*
X1819724D03*
X1816575D03*
X1813425D03*
X1810276D03*
X1807126D03*
X1803976D03*
X1800827D03*
X1829173Y1659476D03*
X1826024D03*
X1822874D03*
X1819724D03*
X1816575D03*
X1813425D03*
X1810276D03*
X1807126D03*
X1803976D03*
X1800827D03*
X1829173Y1662626D03*
X1826024D03*
X1822874D03*
X1819724D03*
X1816575D03*
X1813425D03*
X1810276D03*
X1807126D03*
X1803976D03*
X1800827D03*
X1829173Y1665776D03*
X1826024D03*
X1822874D03*
X1819724D03*
X1816575D03*
X1813425D03*
X1810276D03*
X1807126D03*
X1803976D03*
X1800827D03*
X1829173Y1668925D03*
X1826024D03*
X1822874D03*
X1819724D03*
X1816575D03*
X1813425D03*
X1810276D03*
X1807126D03*
X1803976D03*
X1800827D03*
X1829173Y1672075D03*
X1826024D03*
X1822874D03*
X1819724D03*
X1816575D03*
X1813425D03*
X1810276D03*
X1807126D03*
X1803976D03*
X1800827D03*
X1829173Y1675224D03*
X1826024D03*
X1822874D03*
X1819724D03*
X1816575D03*
X1813425D03*
X1810276D03*
X1807126D03*
X1803976D03*
X1800827D03*
X1829173Y1678374D03*
X1826024D03*
X1822874D03*
X1819724D03*
X1816575D03*
X1813425D03*
X1810276D03*
X1807126D03*
X1803976D03*
X1800827D03*
X1829173Y1681524D03*
X1826024D03*
X1822874D03*
X1819724D03*
X1816575D03*
X1813425D03*
X1810276D03*
X1807126D03*
X1803976D03*
X1800827D03*
X1829173Y1684673D03*
X1826024D03*
X1822874D03*
X1819724D03*
X1816575D03*
X1813425D03*
X1810276D03*
X1807126D03*
X1803976D03*
X1800827D03*
G54D101*
X1834685Y1690185D03*
X1795709Y1650028D03*
G54D102*
X1837677Y1723839D03*
Y1721280D03*
Y1718720D03*
X1837740Y1716161D03*
X1847386D03*
X1847323Y1718720D03*
Y1721280D03*
Y1723839D03*
X1892323Y1716161D03*
Y1718720D03*
Y1721280D03*
X1892260Y1723839D03*
X1882614D03*
X1882677Y1721280D03*
Y1718720D03*
Y1716161D03*
G54D103*
X1867500Y1649000D03*
G54D133*
X1855000Y1708543D03*
X1860000D03*
Y1726457D03*
X1855000D03*
X1870000Y1708543D03*
X1875000D03*
Y1726457D03*
X1870000D03*
G54D134*
X1896000Y1704555D03*
Y1686445D03*
G54D106*
X1892000Y1737500D03*
X1843500Y1696000D03*
G54D135*
X1783500Y1642969D03*
Y1639031D03*
X1794500Y1685969D03*
Y1682031D03*
X1811000Y1646531D03*
Y1650469D03*
X1794500Y1669469D03*
Y1665531D03*
X1816500Y1691031D03*
Y1694969D03*
X1808500Y1691031D03*
Y1694969D03*
X1812500Y1691031D03*
Y1694969D03*
X1860000Y1701969D03*
Y1698031D03*
X1855000D03*
Y1701969D03*
X1833000Y1718031D03*
Y1721969D03*
X1875000Y1701969D03*
Y1698031D03*
X1870000D03*
Y1701969D03*
X1897000Y1721969D03*
Y1718031D03*
X1927000Y1654469D03*
Y1650531D03*
X1947500D03*
Y1654469D03*
X1881500Y1687031D03*
Y1690969D03*
X1941000Y1678531D03*
Y1682469D03*
X1833000Y1694031D03*
Y1697969D03*
X1837000Y1668531D03*
Y1672469D03*
X1938000Y1716969D03*
Y1713031D03*
X1933500Y1716969D03*
Y1713031D03*
X1935500Y1654469D03*
Y1650531D03*
X1943500D03*
Y1654469D03*
X1931000D03*
Y1650531D03*
X1939500D03*
Y1654469D03*
X1959500Y1646531D03*
Y1650469D03*
X1951500D03*
Y1646531D03*
X1955500Y1650469D03*
Y1646531D03*
X1837000Y1694031D03*
Y1697969D03*
X1952000Y1702031D03*
Y1705969D03*
X1829500Y1697969D03*
Y1694031D03*
X1775000Y1597969D03*
Y1594031D03*
X1824500Y1650469D03*
Y1646531D03*
X1828500Y1650469D03*
Y1646531D03*
X1956000Y1597969D03*
Y1594031D03*
X1803000Y1650469D03*
Y1646531D03*
X1799000Y1650469D03*
Y1646531D03*
X1807000Y1650469D03*
Y1646531D03*
X1816500Y1650469D03*
Y1646531D03*
X1820500Y1650469D03*
Y1646531D03*
X1761000Y1612469D03*
Y1608531D03*
Y1601031D03*
Y1604969D03*
X1973000Y1608969D03*
Y1605031D03*
X1969000Y1601031D03*
Y1604969D03*
X1775000Y1722031D03*
Y1725969D03*
X1848000Y1730969D03*
Y1727031D03*
X1955000Y1722031D03*
Y1725969D03*
X1892000Y1732469D03*
Y1728531D03*
X1888000D03*
Y1732469D03*
X1882000Y1709031D03*
Y1712969D03*
X1881500Y1698469D03*
Y1694531D03*
X1850100Y1692631D03*
Y1696569D03*
X1789000Y1706969D03*
Y1703031D03*
X1780000Y1693531D03*
Y1697469D03*
X1776000Y1693531D03*
Y1697469D03*
G54D136*
X1941969Y1644500D03*
X1938031D03*
X1843031Y1657500D03*
X1846969D03*
X1842531Y1668500D03*
X1846469D03*
X1842531Y1676000D03*
X1846469D03*
X1842531Y1679500D03*
X1846469D03*
X1842531Y1672500D03*
X1846469D03*
X1874469Y1732500D03*
X1870531D03*
X1869031Y1655000D03*
X1872969D03*
X1918531Y1696000D03*
X1922469D03*
X1927031Y1657500D03*
X1930969D03*
X1846969Y1653500D03*
X1843031D03*
X1823531Y1722000D03*
X1827469D03*
X1823531Y1718000D03*
X1827469D03*
X1803469Y1716500D03*
X1799531D03*
X1915031Y1653500D03*
X1918969D03*
X1956469Y1612500D03*
X1952531D03*
X1951969Y1663500D03*
X1948031D03*
X1951969Y1677500D03*
X1948031D03*
Y1668000D03*
X1951969D03*
X1948031Y1672500D03*
X1951969D03*
X1948031Y1682000D03*
X1951969D03*
X1948031Y1686000D03*
X1951969D03*
X1948031Y1696500D03*
X1951969D03*
Y1692000D03*
X1948031D03*
X1770031Y1637500D03*
X1773969D03*
X1770031Y1632500D03*
X1773969D03*
X1770031Y1627500D03*
X1773969D03*
X1770031Y1622500D03*
X1773969D03*
X1784969Y1683000D03*
X1781031D03*
X1786469Y1688000D03*
X1782531D03*
X1956469Y1618500D03*
X1952531D03*
X1843031Y1649500D03*
X1846969D03*
X1843031Y1645500D03*
X1846969D03*
X1824469Y1691500D03*
X1820531D03*
X1783031Y1675000D03*
X1786969D03*
X1783031Y1679000D03*
X1786969D03*
X1782531Y1667000D03*
X1786469D03*
X1786969Y1663000D03*
X1783031D03*
X1846469Y1685500D03*
X1842531D03*
Y1689500D03*
X1846469D03*
X1787031Y1598000D03*
X1790969D03*
X1906531D03*
X1910469D03*
X1801031Y1691000D03*
X1804969D03*
X1823531Y1713500D03*
X1827469D03*
X1840531Y1711000D03*
X1844469D03*
X1848969Y1737500D03*
X1845031D03*
X1782531Y1718000D03*
X1786469D03*
X1782531Y1722000D03*
X1786469D03*
X1874469Y1737500D03*
X1870531D03*
X1947469Y1718000D03*
X1943531D03*
X1947469Y1722000D03*
X1943531D03*
X1919031Y1657500D03*
X1922969D03*
X1786969Y1671000D03*
X1783031D03*
X1859469Y1732500D03*
X1855531D03*
X1913531Y1716500D03*
X1917469D03*
X1818531Y1598000D03*
X1822469D03*
X1938531D03*
X1942469D03*
X1840531Y1707000D03*
X1844469D03*
X1832469Y1704000D03*
X1828531D03*
X1824469Y1699500D03*
X1820531D03*
G54D109*
X1822500Y1639000D03*
X1817500D03*
X1812500D03*
X1807500D03*
X1802500D03*
X1797500D03*
X1792500D03*
X1787500D03*
Y1606000D03*
X1792500D03*
X1797500D03*
X1802500D03*
X1807500D03*
X1812500D03*
X1817500D03*
X1822500D03*
X1942500Y1639000D03*
X1937500D03*
X1932500D03*
X1927500D03*
X1922500D03*
X1917500D03*
X1912500D03*
X1907500D03*
Y1606000D03*
X1912500D03*
X1917500D03*
X1922500D03*
X1927500D03*
X1932500D03*
X1937500D03*
X1942500D03*
G54D137*
X1864547Y1675854D03*
Y1660146D03*
X1870453D03*
Y1675854D03*
G54D138*
X1860630Y1672921D03*
Y1670953D03*
Y1668984D03*
Y1667016D03*
Y1665047D03*
Y1663079D03*
X1874370D03*
Y1665047D03*
Y1667016D03*
Y1668984D03*
Y1670953D03*
Y1672921D03*
G54D139*
X1867500Y1668000D03*
G54D113*
X1755000Y1600500D03*
X1975500D03*
Y1719500D03*
G54D140*
X1757043Y1683524D03*
Y1681949D03*
Y1680374D03*
Y1678799D03*
Y1677224D03*
Y1675650D03*
Y1674075D03*
Y1672500D03*
Y1670925D03*
Y1669350D03*
Y1667776D03*
Y1666201D03*
Y1664626D03*
Y1663051D03*
Y1661476D03*
X1769957D03*
Y1663051D03*
Y1664626D03*
Y1666201D03*
Y1667776D03*
Y1669350D03*
Y1670925D03*
Y1672500D03*
Y1674075D03*
Y1675650D03*
Y1677224D03*
Y1678799D03*
Y1680374D03*
Y1681949D03*
Y1683524D03*
G54D141*
X1769996Y1687480D03*
X1757004Y1687461D03*
X1769996Y1657539D03*
X1757004D03*
G54D116*
X1771100Y1688500D03*
Y1686400D03*
Y1658600D03*
Y1656500D03*
X1755900Y1688600D03*
Y1686400D03*
Y1658600D03*
Y1656500D03*
G54D117*
X1761000Y1731500D03*
X1969000D03*
Y1588500D03*
X1761000D03*
G54D118*
X1853200Y1637000D03*
X1865000D03*
X1876800D03*
G54D119*
X1838000Y1615500D03*
X1892000D03*
G54D142*
X1768969Y1707661D03*
Y1710220D03*
Y1712780D03*
Y1715339D03*
X1755031D03*
Y1712780D03*
Y1710220D03*
Y1707661D03*
G54D143*
X1765839Y1718469D03*
X1763280D03*
X1760720D03*
X1758161D03*
Y1704531D03*
X1760720D03*
X1763280D03*
X1765839D03*
G54D144*
X1774882Y1713437D03*
Y1711469D03*
Y1709500D03*
Y1707531D03*
Y1705563D03*
X1785118D03*
Y1707531D03*
Y1709500D03*
Y1711469D03*
Y1713437D03*
G54D145*
X1778031Y1704382D03*
X1780000D03*
X1781969D03*
Y1714618D03*
X1780000D03*
X1778031D03*
G54D124*
X1817594Y1750619D03*
X1822319D03*
X1817594Y1742745D03*
X1822319D03*
X1908146Y1750645D03*
X1912870D03*
X1908146Y1742745D03*
X1912870D03*
X1987274Y1711724D03*
X1979400D03*
Y1707000D03*
X1987274D03*
X1979400Y1612724D03*
Y1608000D03*
X1987274Y1612724D03*
X1987300Y1608024D03*
X1912870Y1577391D03*
X1908146D03*
Y1569517D03*
X1912870D03*
X1822319Y1577391D03*
X1817594D03*
Y1569517D03*
X1822319D03*
X2053594Y1577391D03*
X2058319D03*
X2053594Y1569517D03*
X2058319D03*
X2144146Y1577391D03*
X2148870D03*
X2144146Y1569517D03*
X2148870D03*
X2053594Y1742745D03*
X2058319D03*
Y1750619D03*
X2053594D03*
X2144146Y1750645D03*
X2148870D03*
Y1742745D03*
X2144146D03*
G54D146*
X1824075Y1695500D03*
X1820925D03*
G54D85*
X2005720Y1604500D03*
X2016720D03*
X2196720D03*
X2185720D03*
G54D86*
X2030720Y1696700D03*
Y1704300D03*
X2038720Y1696700D03*
Y1704300D03*
X2088220Y1682800D03*
Y1675200D03*
X2021720Y1649700D03*
Y1657300D03*
G54D87*
X2079920Y1663000D03*
X2087520D03*
X2057520Y1705500D03*
X2049920D03*
G54D126*
X2149720Y1664846D03*
Y1658154D03*
X2011220Y1581654D03*
Y1588346D03*
X2191220Y1581654D03*
Y1588346D03*
X2011220Y1738346D03*
Y1731654D03*
X2191220Y1738346D03*
Y1731654D03*
G54D89*
X2126720Y1650000D03*
Y1661000D03*
X2140220Y1650000D03*
Y1661000D03*
G54D90*
X2126720Y1677000D03*
X2137720D03*
G54D91*
X2177620Y1704500D03*
X2161820D03*
G54D127*
X2115374Y1737500D03*
X2122066D03*
X2089874D03*
X2096566D03*
X1993874Y1637500D03*
X2000566D03*
X1993874Y1632500D03*
X2000566D03*
X1993874Y1627500D03*
X2000566D03*
X1993874Y1622500D03*
X2000566D03*
X2197374Y1618500D03*
X2204066D03*
X2197374Y1612500D03*
X2204066D03*
G54D128*
X2195220Y1657854D03*
Y1662776D03*
Y1667697D03*
Y1672618D03*
Y1677539D03*
Y1682461D03*
Y1687382D03*
Y1692303D03*
Y1697224D03*
Y1702146D03*
G54D129*
X2206637Y1647815D03*
Y1712185D03*
G54D130*
X2151377Y1597500D03*
X2156299D03*
X2161220D03*
X2166141D03*
X2171063D03*
X2172023Y1722500D03*
X2167102D03*
X2162181D03*
X2157259D03*
X2152338D03*
X2147417D03*
X2055023D03*
X2050102D03*
X2045181D03*
X2040259D03*
X2035338D03*
X2030417D03*
X2031377Y1597500D03*
X2036299D03*
X2041220D03*
X2046141D03*
X2051063D03*
G54D131*
X2141338Y1586083D03*
X2181102D03*
X2021338D03*
X2061102D03*
G54D132*
X2179405Y1733917D03*
X2140035D03*
X2062405D03*
X2023035D03*
G54D98*
X2153764Y1664700D03*
X2156323D03*
X2158882D03*
X2161441D03*
X2164000D03*
X2166559D03*
X2169118D03*
X2171677D03*
Y1688300D03*
X2169118D03*
X2166559D03*
X2164000D03*
X2161441D03*
X2158882D03*
X2156323D03*
X2153764D03*
G54D99*
X2162720Y1676500D03*
G54D100*
X2065393Y1656327D03*
X2062244D03*
X2059094D03*
X2055944D03*
X2052795D03*
X2049645D03*
X2046496D03*
X2043346D03*
X2040196D03*
X2037047D03*
X2065393Y1659476D03*
X2062244D03*
X2059094D03*
X2055944D03*
X2052795D03*
X2049645D03*
X2046496D03*
X2043346D03*
X2040196D03*
X2037047D03*
X2065393Y1662626D03*
X2062244D03*
X2059094D03*
X2055944D03*
X2052795D03*
X2049645D03*
X2046496D03*
X2043346D03*
X2040196D03*
X2037047D03*
X2065393Y1665776D03*
X2062244D03*
X2059094D03*
X2055944D03*
X2052795D03*
X2049645D03*
X2046496D03*
X2043346D03*
X2040196D03*
X2037047D03*
X2065393Y1668925D03*
X2062244D03*
X2059094D03*
X2055944D03*
X2052795D03*
X2049645D03*
X2046496D03*
X2043346D03*
X2040196D03*
X2037047D03*
X2065393Y1672075D03*
X2062244D03*
X2059094D03*
X2055944D03*
X2052795D03*
X2049645D03*
X2046496D03*
X2043346D03*
X2040196D03*
X2037047D03*
X2065393Y1675224D03*
X2062244D03*
X2059094D03*
X2055944D03*
X2052795D03*
X2049645D03*
X2046496D03*
X2043346D03*
X2040196D03*
X2037047D03*
X2065393Y1678374D03*
X2062244D03*
X2059094D03*
X2055944D03*
X2052795D03*
X2049645D03*
X2046496D03*
X2043346D03*
X2040196D03*
X2037047D03*
X2065393Y1681524D03*
X2062244D03*
X2059094D03*
X2055944D03*
X2052795D03*
X2049645D03*
X2046496D03*
X2043346D03*
X2040196D03*
X2037047D03*
X2065393Y1684673D03*
X2062244D03*
X2059094D03*
X2055944D03*
X2052795D03*
X2049645D03*
X2046496D03*
X2043346D03*
X2040196D03*
X2037047D03*
G54D101*
X2070905Y1690185D03*
X2031929Y1650028D03*
G54D102*
X2073897Y1723839D03*
Y1721280D03*
Y1718720D03*
X2073960Y1716161D03*
X2083606D03*
X2083543Y1718720D03*
Y1721280D03*
Y1723839D03*
X2128543Y1716161D03*
Y1718720D03*
Y1721280D03*
X2128480Y1723839D03*
X2118834D03*
X2118897Y1721280D03*
Y1718720D03*
Y1716161D03*
G54D103*
X2103720Y1649000D03*
G54D133*
X2091220Y1708543D03*
X2096220D03*
Y1726457D03*
X2091220D03*
X2106220Y1708543D03*
X2111220D03*
Y1726457D03*
X2106220D03*
G54D134*
X2132220Y1704555D03*
Y1686445D03*
G54D106*
X2128220Y1737500D03*
X2079720Y1696000D03*
G54D135*
X2019720Y1642969D03*
Y1639031D03*
X2030720Y1685969D03*
Y1682031D03*
X2047220Y1646531D03*
Y1650469D03*
X2030720Y1669469D03*
Y1665531D03*
X2052720Y1691031D03*
Y1694969D03*
X2044720Y1691031D03*
Y1694969D03*
X2048720Y1691031D03*
Y1694969D03*
X2096220Y1701969D03*
Y1698031D03*
X2091220D03*
Y1701969D03*
X2069220Y1718031D03*
Y1721969D03*
X2111220Y1701969D03*
Y1698031D03*
X2106220D03*
Y1701969D03*
X2133220Y1721969D03*
Y1718031D03*
X2163220Y1654469D03*
Y1650531D03*
X2183720D03*
Y1654469D03*
X2117720Y1687031D03*
Y1690969D03*
X2177220Y1678531D03*
Y1682469D03*
X2069220Y1694031D03*
Y1697969D03*
X2073220Y1668531D03*
Y1672469D03*
X2174220Y1716969D03*
Y1713031D03*
X2169720Y1716969D03*
Y1713031D03*
X2171720Y1654469D03*
Y1650531D03*
X2179720D03*
Y1654469D03*
X2167220D03*
Y1650531D03*
X2175720D03*
Y1654469D03*
X2195720Y1646531D03*
Y1650469D03*
X2187720D03*
Y1646531D03*
X2191720Y1650469D03*
Y1646531D03*
X2073220Y1694031D03*
Y1697969D03*
X2188220Y1702031D03*
Y1705969D03*
X2065720Y1697969D03*
Y1694031D03*
X2011220Y1597969D03*
Y1594031D03*
X2060720Y1650469D03*
Y1646531D03*
X2064720Y1650469D03*
Y1646531D03*
X2192220Y1597969D03*
Y1594031D03*
X2039220Y1650469D03*
Y1646531D03*
X2035220Y1650469D03*
Y1646531D03*
X2043220Y1650469D03*
Y1646531D03*
X2052720Y1650469D03*
Y1646531D03*
X2056720Y1650469D03*
Y1646531D03*
X1997220Y1612469D03*
Y1608531D03*
Y1601031D03*
Y1604969D03*
X2209220Y1608969D03*
Y1605031D03*
X2205220Y1601031D03*
Y1604969D03*
X2011220Y1722031D03*
Y1725969D03*
X2084220Y1730969D03*
Y1727031D03*
X2191220Y1722031D03*
Y1725969D03*
X2128220Y1732469D03*
Y1728531D03*
X2124220D03*
Y1732469D03*
X2118220Y1709031D03*
Y1712969D03*
X2117720Y1698469D03*
Y1694531D03*
X2086320Y1692631D03*
Y1696569D03*
X2025220Y1706969D03*
Y1703031D03*
X2016220Y1693531D03*
Y1697469D03*
X2012220Y1693531D03*
Y1697469D03*
G54D136*
X2178189Y1644500D03*
X2174251D03*
X2079251Y1657500D03*
X2083189D03*
X2078751Y1668500D03*
X2082689D03*
X2078751Y1676000D03*
X2082689D03*
X2078751Y1679500D03*
X2082689D03*
X2078751Y1672500D03*
X2082689D03*
X2110689Y1732500D03*
X2106751D03*
X2105251Y1655000D03*
X2109189D03*
X2154751Y1696000D03*
X2158689D03*
X2163251Y1657500D03*
X2167189D03*
X2083189Y1653500D03*
X2079251D03*
X2059751Y1722000D03*
X2063689D03*
X2059751Y1718000D03*
X2063689D03*
X2039689Y1716500D03*
X2035751D03*
X2151251Y1653500D03*
X2155189D03*
X2192689Y1612500D03*
X2188751D03*
X2188189Y1663500D03*
X2184251D03*
X2188189Y1677500D03*
X2184251D03*
Y1668000D03*
X2188189D03*
X2184251Y1672500D03*
X2188189D03*
X2184251Y1682000D03*
X2188189D03*
X2184251Y1686000D03*
X2188189D03*
X2184251Y1696500D03*
X2188189D03*
Y1692000D03*
X2184251D03*
X2006251Y1637500D03*
X2010189D03*
X2006251Y1632500D03*
X2010189D03*
X2006251Y1627500D03*
X2010189D03*
X2006251Y1622500D03*
X2010189D03*
X2021189Y1683000D03*
X2017251D03*
X2022689Y1688000D03*
X2018751D03*
X2192689Y1618500D03*
X2188751D03*
X2079251Y1649500D03*
X2083189D03*
X2079251Y1645500D03*
X2083189D03*
X2060689Y1691500D03*
X2056751D03*
X2019251Y1675000D03*
X2023189D03*
X2019251Y1679000D03*
X2023189D03*
X2018751Y1667000D03*
X2022689D03*
X2023189Y1663000D03*
X2019251D03*
X2082689Y1685500D03*
X2078751D03*
Y1689500D03*
X2082689D03*
X2023251Y1598000D03*
X2027189D03*
X2142751D03*
X2146689D03*
X2037251Y1691000D03*
X2041189D03*
X2059751Y1713500D03*
X2063689D03*
X2076751Y1711000D03*
X2080689D03*
X2085189Y1737500D03*
X2081251D03*
X2018751Y1718000D03*
X2022689D03*
X2018751Y1722000D03*
X2022689D03*
X2110689Y1737500D03*
X2106751D03*
X2183689Y1718000D03*
X2179751D03*
X2183689Y1722000D03*
X2179751D03*
X2155251Y1657500D03*
X2159189D03*
X2023189Y1671000D03*
X2019251D03*
X2095689Y1732500D03*
X2091751D03*
X2149751Y1716500D03*
X2153689D03*
X2054751Y1598000D03*
X2058689D03*
X2174751D03*
X2178689D03*
X2076751Y1707000D03*
X2080689D03*
X2068689Y1704000D03*
X2064751D03*
X2060689Y1699500D03*
X2056751D03*
G54D109*
X2058720Y1639000D03*
X2053720D03*
X2048720D03*
X2043720D03*
X2038720D03*
X2033720D03*
X2028720D03*
X2023720D03*
Y1606000D03*
X2028720D03*
X2033720D03*
X2038720D03*
X2043720D03*
X2048720D03*
X2053720D03*
X2058720D03*
X2178720Y1639000D03*
X2173720D03*
X2168720D03*
X2163720D03*
X2158720D03*
X2153720D03*
X2148720D03*
X2143720D03*
Y1606000D03*
X2148720D03*
X2153720D03*
X2158720D03*
X2163720D03*
X2168720D03*
X2173720D03*
X2178720D03*
G54D137*
X2100767Y1675854D03*
Y1660146D03*
X2106673D03*
Y1675854D03*
G54D138*
X2096850Y1672921D03*
Y1670953D03*
Y1668984D03*
Y1667016D03*
Y1665047D03*
Y1663079D03*
X2110590D03*
Y1665047D03*
Y1667016D03*
Y1668984D03*
Y1670953D03*
Y1672921D03*
G54D139*
X2103720Y1668000D03*
G54D113*
X1991220Y1600500D03*
X2211720D03*
Y1719500D03*
G54D140*
X1993263Y1683524D03*
Y1681949D03*
Y1680374D03*
Y1678799D03*
Y1677224D03*
Y1675650D03*
Y1674075D03*
Y1672500D03*
Y1670925D03*
Y1669350D03*
Y1667776D03*
Y1666201D03*
Y1664626D03*
Y1663051D03*
Y1661476D03*
X2006177D03*
Y1663051D03*
Y1664626D03*
Y1666201D03*
Y1667776D03*
Y1669350D03*
Y1670925D03*
Y1672500D03*
Y1674075D03*
Y1675650D03*
Y1677224D03*
Y1678799D03*
Y1680374D03*
Y1681949D03*
Y1683524D03*
G54D141*
X2006216Y1687480D03*
X1993224Y1687461D03*
X2006216Y1657539D03*
X1993224D03*
G54D116*
X2007320Y1688500D03*
Y1686400D03*
Y1658600D03*
Y1656500D03*
X1992120Y1688600D03*
Y1686400D03*
Y1658600D03*
Y1656500D03*
G54D117*
X1997220Y1731500D03*
X2205220D03*
Y1588500D03*
X1997220D03*
G54D118*
X2089420Y1637000D03*
X2101220D03*
X2113020D03*
G54D119*
X2074220Y1615500D03*
X2128220D03*
G54D142*
X2005189Y1707661D03*
Y1710220D03*
Y1712780D03*
Y1715339D03*
X1991251D03*
Y1712780D03*
Y1710220D03*
Y1707661D03*
G54D143*
X2002059Y1718469D03*
X1999500D03*
X1996940D03*
X1994381D03*
Y1704531D03*
X1996940D03*
X1999500D03*
X2002059D03*
G54D144*
X2011102Y1713437D03*
Y1711469D03*
Y1709500D03*
Y1707531D03*
Y1705563D03*
X2021338D03*
Y1707531D03*
Y1709500D03*
Y1711469D03*
Y1713437D03*
G54D145*
X2014251Y1704382D03*
X2016220D03*
X2018189D03*
Y1714618D03*
X2016220D03*
X2014251D03*
G54D146*
X2060295Y1695500D03*
X2057145D03*
G54D13*
X1906076Y1705970D02*
G01X1885924D01*
Y1698809*
X1889147*
Y1698889*
X1889167Y1698972*
X1889335Y1699297*
X1889678Y1699844*
X1890066Y1700361*
X1890496Y1700843*
X1890965Y1701287*
X1891470Y1701690*
X1892007Y1702049*
X1892572Y1702362*
X1893161Y1702626*
X1893771Y1702840*
X1894396Y1703001*
X1895033Y1703110*
X1895677Y1703164*
X1896323*
X1896967Y1703110*
X1897604Y1703001*
X1898229Y1702840*
X1898839Y1702626*
X1899428Y1702362*
X1899993Y1702049*
X1900530Y1701690*
X1901035Y1701287*
X1901504Y1700843*
X1901934Y1700361*
X1902322Y1699844*
X1902665Y1699297*
X1902833Y1698972*
X1902853Y1698889*
Y1698809*
X1906076*
Y1705970*
X1885953Y1698809D02*
G01Y1705970D01*
X1886409Y1698809D02*
G01Y1705970D01*
X1886866Y1698809D02*
G01Y1705970D01*
X1887323Y1698809D02*
G01Y1705970D01*
X1887780Y1698809D02*
G01Y1705970D01*
X1888236Y1698809D02*
G01Y1705970D01*
X1888693Y1698809D02*
G01Y1705970D01*
X1889150Y1698899D02*
G01Y1705970D01*
X1889606Y1699730D02*
G01Y1705970D01*
X1890063Y1700357D02*
G01Y1705970D01*
X1890520Y1700865D02*
G01Y1705970D01*
X1890976Y1701296D02*
G01Y1705970D01*
X1891433Y1701661D02*
G01Y1705970D01*
X1891890Y1701971D02*
G01Y1705970D01*
X1892346Y1702237D02*
G01Y1705970D01*
X1892803Y1702466D02*
G01Y1705970D01*
X1893260Y1702661D02*
G01Y1705970D01*
X1893717Y1702821D02*
G01Y1705970D01*
X1894173Y1702944D02*
G01Y1705970D01*
X1894630Y1703041D02*
G01Y1705970D01*
X1895087Y1703114D02*
G01Y1705970D01*
X1895543Y1703153D02*
G01Y1705970D01*
X1896000Y1703164D02*
G01Y1705970D01*
X1896457Y1703153D02*
G01Y1705970D01*
X1896913Y1703114D02*
G01Y1705970D01*
X1897370Y1703041D02*
G01Y1705970D01*
X1897827Y1702944D02*
G01Y1705970D01*
X1898283Y1702821D02*
G01Y1705970D01*
X1898740Y1702661D02*
G01Y1705970D01*
X1899197Y1702466D02*
G01Y1705970D01*
X1899654Y1702237D02*
G01Y1705970D01*
X1900110Y1701971D02*
G01Y1705970D01*
X1900567Y1701661D02*
G01Y1705970D01*
X1901024Y1701296D02*
G01Y1705970D01*
X1901480Y1700865D02*
G01Y1705970D01*
X1901937Y1700357D02*
G01Y1705970D01*
X1902394Y1699730D02*
G01Y1705970D01*
X1902850Y1698899D02*
G01Y1705970D01*
X1903307Y1698809D02*
G01Y1705970D01*
X1903764Y1698809D02*
G01Y1705970D01*
X1904220Y1698809D02*
G01Y1705970D01*
X1904677Y1698809D02*
G01Y1705970D01*
X1905134Y1698809D02*
G01Y1705970D01*
X1905591Y1698809D02*
G01Y1705970D01*
X1906047Y1698809D02*
G01Y1705970D01*
X1906076Y1692191D02*
G01X1902853D01*
Y1692111*
X1902833Y1692028*
X1902665Y1691703*
X1902322Y1691156*
X1901934Y1690639*
X1901504Y1690157*
X1901035Y1689713*
X1900530Y1689310*
X1899993Y1688951*
X1899428Y1688638*
X1898839Y1688374*
X1898229Y1688160*
X1897604Y1687999*
X1896967Y1687890*
X1896323Y1687836*
X1895677*
X1895033Y1687890*
X1894396Y1687999*
X1893771Y1688160*
X1893161Y1688374*
X1892572Y1688638*
X1892007Y1688951*
X1891470Y1689310*
X1890965Y1689713*
X1890496Y1690157*
X1890066Y1690639*
X1889678Y1691156*
X1889335Y1691703*
X1889167Y1692028*
X1889147Y1692111*
Y1692191*
X1885924*
Y1685030*
X1906076*
Y1692191*
X1885953Y1685030D02*
G01Y1692191D01*
X1886409Y1685030D02*
G01Y1692191D01*
X1886866Y1685030D02*
G01Y1692191D01*
X1887323Y1685030D02*
G01Y1692191D01*
X1887780Y1685030D02*
G01Y1692191D01*
X1888236Y1685030D02*
G01Y1692191D01*
X1888693Y1685030D02*
G01Y1692191D01*
X1889150Y1685030D02*
G01Y1692101D01*
X1889606Y1685030D02*
G01Y1691270D01*
X1890063Y1685030D02*
G01Y1690643D01*
X1890520Y1685030D02*
G01Y1690135D01*
X1890976Y1685030D02*
G01Y1689704D01*
X1891433Y1685030D02*
G01Y1689339D01*
X1891890Y1685030D02*
G01Y1689029D01*
X1892346Y1685030D02*
G01Y1688763D01*
X1892803Y1685030D02*
G01Y1688534D01*
X1893260Y1685030D02*
G01Y1688339D01*
X1893717Y1685030D02*
G01Y1688179D01*
X1894173Y1685030D02*
G01Y1688056D01*
X1894630Y1685030D02*
G01Y1687959D01*
X1895087Y1685030D02*
G01Y1687886D01*
X1895543Y1685030D02*
G01Y1687847D01*
X1896000Y1685030D02*
G01Y1687836D01*
X1896457Y1685030D02*
G01Y1687847D01*
X1896913Y1685030D02*
G01Y1687886D01*
X1897370Y1685030D02*
G01Y1687959D01*
X1897827Y1685030D02*
G01Y1688056D01*
X1898283Y1685030D02*
G01Y1688179D01*
X1898740Y1685030D02*
G01Y1688339D01*
X1899197Y1685030D02*
G01Y1688534D01*
X1899654Y1685030D02*
G01Y1688763D01*
X1900110Y1685030D02*
G01Y1689029D01*
X1900567Y1685030D02*
G01Y1689339D01*
X1901024Y1685030D02*
G01Y1689704D01*
X1901480Y1685030D02*
G01Y1690135D01*
X1901937Y1685030D02*
G01Y1690643D01*
X1902394Y1685030D02*
G01Y1691270D01*
X1902850Y1685030D02*
G01Y1692101D01*
X1903307Y1685030D02*
G01Y1692191D01*
X1903764Y1685030D02*
G01Y1692191D01*
X1904220Y1685030D02*
G01Y1692191D01*
X1904677Y1685030D02*
G01Y1692191D01*
X1905134Y1685030D02*
G01Y1692191D01*
X1905591Y1685030D02*
G01Y1692191D01*
X1906047Y1685030D02*
G01Y1692191D01*
G54D14*
X1853182Y1513125D02*
G01X1852727Y1513750D01*
X1852045Y1514063*
Y1514063D02*
G01X1851136D01*
Y1514063D02*
G01X1850455Y1513750D01*
X1850000Y1513125*
Y1512500*
X1850227Y1511875*
X1850455Y1511563*
Y1511563D02*
G01X1850909Y1511250D01*
X1852273Y1510625*
X1852727Y1510313*
Y1510313D02*
G01X1852955Y1510000D01*
X1853182Y1509375*
Y1508438*
Y1508438D02*
G01X1852727Y1507813D01*
Y1507813D02*
G01X1852045Y1507500D01*
X1851136*
X1850455Y1507813*
Y1507813D02*
G01X1850000Y1508438D01*
X1856591Y1514063D02*
G01X1856136Y1513750D01*
X1855682Y1513125*
X1855455Y1512500*
X1855227Y1511563*
Y1511563D02*
G01Y1510000D01*
X1855455Y1509063*
Y1509063D02*
G01X1855682Y1508438D01*
Y1508438D02*
G01X1856136Y1507813D01*
Y1507813D02*
G01X1856591Y1507500D01*
X1857500*
X1857955Y1507813*
Y1507813D02*
G01X1858409Y1508438D01*
Y1508438D02*
G01X1858636Y1509063D01*
Y1509063D02*
G01X1858864Y1510000D01*
Y1511563*
Y1511563D02*
G01X1858636Y1512500D01*
X1858409Y1513125*
X1857955Y1513750*
X1857500Y1514063*
Y1514063D02*
G01X1856591D01*
X1860909D02*
G01Y1507500D01*
X1863636*
X1865682Y1514063D02*
G01Y1507500D01*
Y1514063D02*
G01X1867273D01*
Y1514063D02*
G01X1867955Y1513750D01*
X1868409Y1513125*
X1868636Y1512500*
X1868864Y1511563*
Y1511563D02*
G01Y1510000D01*
X1868636Y1509063*
Y1509063D02*
G01X1868409Y1508438D01*
Y1508438D02*
G01X1867955Y1507813D01*
Y1507813D02*
G01X1867273Y1507500D01*
X1865682*
X1870909Y1514063D02*
G01Y1507500D01*
Y1514063D02*
G01X1873864D01*
X1870909Y1510938D02*
G01X1872727D01*
X1870909Y1507500D02*
G01X1873864D01*
X1875909Y1514063D02*
G01Y1507500D01*
Y1514063D02*
G01X1877955D01*
Y1514063D02*
G01X1878636Y1513750D01*
X1878864Y1513438*
Y1513438D02*
G01X1879091Y1512813D01*
Y1512813D02*
G01Y1512188D01*
Y1512188D02*
G01X1878864Y1511563D01*
Y1511563D02*
G01X1878636Y1511250D01*
X1877955Y1510938*
Y1510938D02*
G01X1875909D01*
X1877500D02*
G01X1879091Y1507500D01*
X1886364Y1514063D02*
G01Y1507500D01*
X1889091*
X1892955Y1514063D02*
G01X1891136Y1507500D01*
X1892955Y1514063D02*
G01X1894773Y1507500D01*
X1891818Y1509688D02*
G01X1894091D01*
X1898409Y1514063D02*
G01Y1507500D01*
X1896818Y1514063D02*
G01X1900000D01*
X1903409D02*
G01X1902955Y1513750D01*
X1902500Y1513125*
X1902273Y1512500*
X1902045Y1511563*
Y1511563D02*
G01Y1510000D01*
X1902273Y1509063*
Y1509063D02*
G01X1902500Y1508438D01*
Y1508438D02*
G01X1902955Y1507813D01*
Y1507813D02*
G01X1903409Y1507500D01*
X1904318*
X1904773Y1507813*
Y1507813D02*
G01X1905227Y1508438D01*
Y1508438D02*
G01X1905455Y1509063D01*
Y1509063D02*
G01X1905682Y1510000D01*
Y1511563*
Y1511563D02*
G01X1905455Y1512500D01*
X1905227Y1513125*
X1904773Y1513750*
X1904318Y1514063*
Y1514063D02*
G01X1903409D01*
X1916364Y1512500D02*
G01X1916136Y1513125D01*
X1915682Y1513750*
X1915227Y1514063*
Y1514063D02*
G01X1914318D01*
Y1514063D02*
G01X1913864Y1513750D01*
X1913409Y1513125*
X1913182Y1512500*
X1912955Y1511563*
Y1511563D02*
G01Y1510000D01*
X1913182Y1509063*
Y1509063D02*
G01X1913409Y1508438D01*
Y1508438D02*
G01X1913864Y1507813D01*
Y1507813D02*
G01X1914318Y1507500D01*
X1915227*
X1915682Y1507813*
Y1507813D02*
G01X1916136Y1508438D01*
Y1508438D02*
G01X1916364Y1509063D01*
X1919773Y1514063D02*
G01X1919318Y1513750D01*
X1918864Y1513125*
X1918636Y1512500*
X1918409Y1511563*
Y1511563D02*
G01Y1510000D01*
X1918636Y1509063*
Y1509063D02*
G01X1918864Y1508438D01*
Y1508438D02*
G01X1919318Y1507813D01*
Y1507813D02*
G01X1919773Y1507500D01*
X1920682*
X1921136Y1507813*
Y1507813D02*
G01X1921591Y1508438D01*
Y1508438D02*
G01X1921818Y1509063D01*
Y1509063D02*
G01X1922045Y1510000D01*
Y1511563*
Y1511563D02*
G01X1921818Y1512500D01*
X1921591Y1513125*
X1921136Y1513750*
X1920682Y1514063*
Y1514063D02*
G01X1919773D01*
X1924091D02*
G01Y1507500D01*
Y1514063D02*
G01X1925909Y1507500D01*
X1927727Y1514063D02*
G01X1925909Y1507500D01*
X1927727Y1514063D02*
G01Y1507500D01*
X1929773Y1514063D02*
G01Y1507500D01*
Y1514063D02*
G01X1931818D01*
Y1514063D02*
G01X1932500Y1513750D01*
X1932727Y1513438*
Y1513438D02*
G01X1932955Y1512813D01*
Y1512813D02*
G01Y1511875D01*
X1932727Y1511250*
X1932500Y1510938*
Y1510938D02*
G01X1931818Y1510625D01*
X1929773*
X1936364Y1514063D02*
G01X1935909Y1513750D01*
X1935455Y1513125*
X1935227Y1512500*
X1935000Y1511563*
Y1511563D02*
G01Y1510000D01*
X1935227Y1509063*
Y1509063D02*
G01X1935455Y1508438D01*
Y1508438D02*
G01X1935909Y1507813D01*
Y1507813D02*
G01X1936364Y1507500D01*
X1937273*
X1937727Y1507813*
Y1507813D02*
G01X1938182Y1508438D01*
Y1508438D02*
G01X1938409Y1509063D01*
Y1509063D02*
G01X1938636Y1510000D01*
Y1511563*
Y1511563D02*
G01X1938409Y1512500D01*
X1938182Y1513125*
X1937727Y1513750*
X1937273Y1514063*
Y1514063D02*
G01X1936364D01*
X1940682D02*
G01Y1507500D01*
Y1514063D02*
G01X1943864Y1507500D01*
Y1514063D02*
G01Y1507500D01*
X1945909Y1514063D02*
G01Y1507500D01*
Y1514063D02*
G01X1948864D01*
X1945909Y1510938D02*
G01X1947727D01*
X1945909Y1507500D02*
G01X1948864D01*
X1950909Y1514063D02*
G01Y1507500D01*
Y1514063D02*
G01X1954091Y1507500D01*
Y1514063D02*
G01Y1507500D01*
X1957727Y1514063D02*
G01Y1507500D01*
X1956136Y1514063D02*
G01X1959318D01*
X1961364D02*
G01Y1507500D01*
X1750827Y1577323D02*
G01X1979173D01*
Y1742677*
X1750827*
Y1577323*
X1755000Y1780000D02*
G01X1735000D01*
Y1760000*
Y1440000D02*
G01Y1420000D01*
X1755000*
X2265000Y1760000D02*
G01Y1780000D01*
X2245000*
Y1420000D02*
G01X2265000D01*
Y1440000*
X1750827Y1569449D02*
G01X2215394D01*
Y1549764*
X1750827*
Y1569449*
Y1770236D02*
G01X2215394D01*
Y1750551*
X1750827*
Y1770236*
X1810695Y1569538D02*
G75*
G03X1810702Y1577300I163J3881D01*
X1829505Y1577290D02*
G03X1829498Y1569500I-163J-3895D01*
X1901295Y1569538D02*
G03X1901302Y1577300I163J3881D01*
X1920105Y1577290D02*
G03X1920098Y1569500I-163J-3895D01*
X1979410Y1619805D02*
G03X1987200Y1619798I3895J-163D01*
X1987162Y1600995D02*
G03X1979400Y1601002I-3881J163D01*
X1987162Y1699895D02*
G03X1979400Y1699902I-3881J163D01*
X1979410Y1718705D02*
G03X1987200Y1718698I3895J-163D01*
X1920205Y1750600D02*
G03X1920198Y1742600I-168J-4000D01*
X1901295D02*
G03X1901302Y1750600I168J4000D01*
X1829705D02*
G03X1829698Y1742600I-168J-4000D01*
X1810795D02*
G03X1810802Y1750600I168J4000D01*
X2137295Y1742600D02*
G03X2137302Y1750600I168J4000D01*
X2156205D02*
G03X2156198Y1742600I-168J-4000D01*
X2065705Y1750600D02*
G03X2065698Y1742600I-168J-4000D01*
X2046795D02*
G03X2046802Y1750600I168J4000D01*
X2046695Y1569538D02*
G03X2046702Y1577300I163J3881D01*
X2065505Y1577290D02*
G03X2065498Y1569500I-163J-3895D01*
X2137295Y1569538D02*
G03X2137302Y1577300I163J3881D01*
X2156105Y1577290D02*
G03X2156098Y1569500I-163J-3895D01*
X1987047Y1585197D02*
G01Y1577323D01*
X1994921*
G54D13*
X2142296Y1705970D02*
G01X2122144D01*
Y1698809*
X2125367*
Y1698889*
X2125387Y1698972*
X2125555Y1699297*
X2125898Y1699844*
X2126286Y1700361*
X2126716Y1700843*
X2127185Y1701287*
X2127690Y1701690*
X2128227Y1702049*
X2128792Y1702362*
X2129381Y1702626*
X2129991Y1702840*
X2130616Y1703001*
X2131253Y1703110*
X2131897Y1703164*
X2132543*
X2133187Y1703110*
X2133824Y1703001*
X2134449Y1702840*
X2135059Y1702626*
X2135648Y1702362*
X2136213Y1702049*
X2136750Y1701690*
X2137255Y1701287*
X2137724Y1700843*
X2138154Y1700361*
X2138542Y1699844*
X2138885Y1699297*
X2139053Y1698972*
X2139073Y1698889*
Y1698809*
X2142296*
Y1705970*
X2122173Y1698809D02*
G01Y1705970D01*
X2122629Y1698809D02*
G01Y1705970D01*
X2123086Y1698809D02*
G01Y1705970D01*
X2123543Y1698809D02*
G01Y1705970D01*
X2124000Y1698809D02*
G01Y1705970D01*
X2124456Y1698809D02*
G01Y1705970D01*
X2124913Y1698809D02*
G01Y1705970D01*
X2125370Y1698899D02*
G01Y1705970D01*
X2125826Y1699730D02*
G01Y1705970D01*
X2126283Y1700357D02*
G01Y1705970D01*
X2126740Y1700865D02*
G01Y1705970D01*
X2127196Y1701296D02*
G01Y1705970D01*
X2127653Y1701661D02*
G01Y1705970D01*
X2128110Y1701971D02*
G01Y1705970D01*
X2128566Y1702237D02*
G01Y1705970D01*
X2129023Y1702466D02*
G01Y1705970D01*
X2129480Y1702661D02*
G01Y1705970D01*
X2129937Y1702821D02*
G01Y1705970D01*
X2130393Y1702944D02*
G01Y1705970D01*
X2130850Y1703041D02*
G01Y1705970D01*
X2131307Y1703114D02*
G01Y1705970D01*
X2131763Y1703153D02*
G01Y1705970D01*
X2132220Y1703164D02*
G01Y1705970D01*
X2132677Y1703153D02*
G01Y1705970D01*
X2133133Y1703114D02*
G01Y1705970D01*
X2133590Y1703041D02*
G01Y1705970D01*
X2134047Y1702944D02*
G01Y1705970D01*
X2134503Y1702821D02*
G01Y1705970D01*
X2134960Y1702661D02*
G01Y1705970D01*
X2135417Y1702466D02*
G01Y1705970D01*
X2135874Y1702237D02*
G01Y1705970D01*
X2136330Y1701971D02*
G01Y1705970D01*
X2136787Y1701661D02*
G01Y1705970D01*
X2137244Y1701296D02*
G01Y1705970D01*
X2137700Y1700865D02*
G01Y1705970D01*
X2138157Y1700357D02*
G01Y1705970D01*
X2138614Y1699730D02*
G01Y1705970D01*
X2139070Y1698899D02*
G01Y1705970D01*
X2139527Y1698809D02*
G01Y1705970D01*
X2139984Y1698809D02*
G01Y1705970D01*
X2140440Y1698809D02*
G01Y1705970D01*
X2140897Y1698809D02*
G01Y1705970D01*
X2141354Y1698809D02*
G01Y1705970D01*
X2141811Y1698809D02*
G01Y1705970D01*
X2142267Y1698809D02*
G01Y1705970D01*
X2142296Y1692191D02*
G01X2139073D01*
Y1692111*
X2139053Y1692028*
X2138885Y1691703*
X2138542Y1691156*
X2138154Y1690639*
X2137724Y1690157*
X2137255Y1689713*
X2136750Y1689310*
X2136213Y1688951*
X2135648Y1688638*
X2135059Y1688374*
X2134449Y1688160*
X2133824Y1687999*
X2133187Y1687890*
X2132543Y1687836*
X2131897*
X2131253Y1687890*
X2130616Y1687999*
X2129991Y1688160*
X2129381Y1688374*
X2128792Y1688638*
X2128227Y1688951*
X2127690Y1689310*
X2127185Y1689713*
X2126716Y1690157*
X2126286Y1690639*
X2125898Y1691156*
X2125555Y1691703*
X2125387Y1692028*
X2125367Y1692111*
Y1692191*
X2122144*
Y1685030*
X2142296*
Y1692191*
X2122173Y1685030D02*
G01Y1692191D01*
X2122629Y1685030D02*
G01Y1692191D01*
X2123086Y1685030D02*
G01Y1692191D01*
X2123543Y1685030D02*
G01Y1692191D01*
X2124000Y1685030D02*
G01Y1692191D01*
X2124456Y1685030D02*
G01Y1692191D01*
X2124913Y1685030D02*
G01Y1692191D01*
X2125370Y1685030D02*
G01Y1692101D01*
X2125826Y1685030D02*
G01Y1691270D01*
X2126283Y1685030D02*
G01Y1690643D01*
X2126740Y1685030D02*
G01Y1690135D01*
X2127196Y1685030D02*
G01Y1689704D01*
X2127653Y1685030D02*
G01Y1689339D01*
X2128110Y1685030D02*
G01Y1689029D01*
X2128566Y1685030D02*
G01Y1688763D01*
X2129023Y1685030D02*
G01Y1688534D01*
X2129480Y1685030D02*
G01Y1688339D01*
X2129937Y1685030D02*
G01Y1688179D01*
X2130393Y1685030D02*
G01Y1688056D01*
X2130850Y1685030D02*
G01Y1687959D01*
X2131307Y1685030D02*
G01Y1687886D01*
X2131763Y1685030D02*
G01Y1687847D01*
X2132220Y1685030D02*
G01Y1687836D01*
X2132677Y1685030D02*
G01Y1687847D01*
X2133133Y1685030D02*
G01Y1687886D01*
X2133590Y1685030D02*
G01Y1687959D01*
X2134047Y1685030D02*
G01Y1688056D01*
X2134503Y1685030D02*
G01Y1688179D01*
X2134960Y1685030D02*
G01Y1688339D01*
X2135417Y1685030D02*
G01Y1688534D01*
X2135874Y1685030D02*
G01Y1688763D01*
X2136330Y1685030D02*
G01Y1689029D01*
X2136787Y1685030D02*
G01Y1689339D01*
X2137244Y1685030D02*
G01Y1689704D01*
X2137700Y1685030D02*
G01Y1690135D01*
X2138157Y1685030D02*
G01Y1690643D01*
X2138614Y1685030D02*
G01Y1691270D01*
X2139070Y1685030D02*
G01Y1692101D01*
X2139527Y1685030D02*
G01Y1692191D01*
X2139984Y1685030D02*
G01Y1692191D01*
X2140440Y1685030D02*
G01Y1692191D01*
X2140897Y1685030D02*
G01Y1692191D01*
X2141354Y1685030D02*
G01Y1692191D01*
X2141811Y1685030D02*
G01Y1692191D01*
X2142267Y1685030D02*
G01Y1692191D01*
G54D14*
X1987047Y1577323D02*
G01X2215393D01*
Y1742677*
X1987047*
Y1577323*
M02*
