*
*
G04 PADS Layout (Build Number 2007.21.1) generated Gerber (RS-274-X) file*
G04 PC Version=2.1*
*
%IN "2FOC-002.pcb"*%
*
%MOIN*%
*
%FSLAX35Y35*%
*
*
*
*
G04 PC Standard Apertures*
*
*
G04 Thermal Relief Aperture macro.*
%AMTER*
1,1,$1,0,0*
1,0,$1-$2,0,0*
21,0,$3,$4,0,0,45*
21,0,$3,$4,0,0,135*
%
*
*
G04 Annular Aperture macro.*
%AMANN*
1,1,$1,0,0*
1,0,$2,0,0*
%
*
*
G04 Odd Aperture macro.*
%AMODD*
1,1,$1,0,0*
1,0,$1-0.005,0,0*
%
*
*
G04 PC Custom Aperture Macros*
*
*
*
*
*
*
G04 PC Aperture Table*
*
%ADD010C,0.01*%
%ADD015C,0.008*%
%ADD070C,0.001*%
*
*
*
*
G04 PC Circuitry*
G04 Layer Name 2FOC-002.pcb - circuitry*
%LPD*%
*
*
G04 PC Custom Flashes*
G04 Layer Name 2FOC-002.pcb - flashes*
%LPD*%
*
*
G04 PC Circuitry*
G04 Layer Name 2FOC-002.pcb - circuitry*
%LPD*%
*
G54D10*
G01X1944094Y1408688D02*
Y1402126D01*
Y1408688D02*
X1945685D01*
X1946367Y1408376*
X1946822Y1407751*
X1947049Y1407126*
X1947276Y1406188*
Y1404626*
X1947049Y1403688*
X1946822Y1403063*
X1946367Y1402438*
X1945685Y1402126*
X1944094*
X1949322Y1408688D02*
Y1402126D01*
Y1408688D02*
X1951367D01*
X1952049Y1408376*
X1952276Y1408063*
X1952504Y1407438*
Y1406813*
X1952276Y1406188*
X1952049Y1405876*
X1951367Y1405563*
X1949322*
X1950913D02*
X1952504Y1402126D01*
X1954549Y1408688D02*
Y1402126D01*
X1956594Y1408688D02*
Y1402126D01*
X1959322*
X1961367Y1408688D02*
Y1402126D01*
X1964094*
X1966140Y1408688D02*
Y1402126D01*
X1968185Y1408688D02*
Y1402126D01*
Y1408688D02*
X1971367Y1402126D01*
Y1408688D02*
Y1402126D01*
X1976822Y1407126D02*
X1976594Y1407751D01*
X1976140Y1408376*
X1975685Y1408688*
X1974776*
X1974322Y1408376*
X1973867Y1407751*
X1973640Y1407126*
X1973413Y1406188*
Y1404626*
X1973640Y1403688*
X1973867Y1403063*
X1974322Y1402438*
X1974776Y1402126*
X1975685*
X1976140Y1402438*
X1976594Y1403063*
X1976822Y1403688*
Y1404626*
X1975685D02*
X1976822D01*
X1759252Y1394122D02*
Y1387559D01*
Y1394122D02*
X1761297D01*
X1761979Y1393809*
X1762207Y1393497*
X1762434Y1392872*
Y1392247*
X1762207Y1391622*
X1761979Y1391309*
X1761297Y1390997*
X1759252D02*
X1761297D01*
X1761979Y1390684*
X1762207Y1390372*
X1762434Y1389747*
Y1388809*
X1762207Y1388184*
X1761979Y1387872*
X1761297Y1387559*
X1759252*
X1765843Y1394122D02*
X1765388Y1393809D01*
X1764934Y1393184*
X1764707Y1392559*
X1764479Y1391622*
Y1390059*
X1764707Y1389122*
X1764934Y1388497*
X1765388Y1387872*
X1765843Y1387559*
X1766752*
X1767207Y1387872*
X1767661Y1388497*
X1767888Y1389122*
X1768116Y1390059*
Y1391622*
X1767888Y1392559*
X1767661Y1393184*
X1767207Y1393809*
X1766752Y1394122*
X1765843*
X1771979D02*
X1770161Y1387559D01*
X1771979Y1394122D02*
X1773797Y1387559D01*
X1770843Y1389747D02*
X1773116D01*
X1775843Y1394122D02*
Y1387559D01*
Y1394122D02*
X1777888D01*
X1778570Y1393809*
X1778797Y1393497*
X1779025Y1392872*
Y1392247*
X1778797Y1391622*
X1778570Y1391309*
X1777888Y1390997*
X1775843*
X1777434D02*
X1779025Y1387559D01*
X1781070Y1394122D02*
Y1387559D01*
Y1394122D02*
X1782661D01*
X1783343Y1393809*
X1783797Y1393184*
X1784025Y1392559*
X1784252Y1391622*
Y1390059*
X1784025Y1389122*
X1783797Y1388497*
X1783343Y1387872*
X1782661Y1387559*
X1781070*
X1793116Y1394122D02*
Y1387559D01*
X1791525Y1394122D02*
X1794707D01*
X1796752D02*
Y1387559D01*
X1799934Y1394122D02*
Y1387559D01*
X1796752Y1390997D02*
X1799934D01*
X1801979Y1394122D02*
Y1387559D01*
X1807434Y1392559D02*
X1807207Y1393184D01*
X1806752Y1393809*
X1806297Y1394122*
X1805388*
X1804934Y1393809*
X1804479Y1393184*
X1804252Y1392559*
X1804025Y1391622*
Y1390059*
X1804252Y1389122*
X1804479Y1388497*
X1804934Y1387872*
X1805388Y1387559*
X1806297*
X1806752Y1387872*
X1807207Y1388497*
X1807434Y1389122*
X1809479Y1394122D02*
Y1387559D01*
X1812661Y1394122D02*
X1809479Y1389747D01*
X1810616Y1391309D02*
X1812661Y1387559D01*
X1814707Y1394122D02*
Y1387559D01*
Y1394122D02*
X1817888Y1387559D01*
Y1394122D02*
Y1387559D01*
X1819934Y1394122D02*
Y1387559D01*
Y1394122D02*
X1822888D01*
X1819934Y1390997D02*
X1821752D01*
X1819934Y1387559D02*
X1822888D01*
X1828116Y1393184D02*
X1827661Y1393809D01*
X1826979Y1394122*
X1826070*
X1825388Y1393809*
X1824934Y1393184*
Y1392559*
X1825161Y1391934*
X1825388Y1391622*
X1825843Y1391309*
X1827207Y1390684*
X1827661Y1390372*
X1827888Y1390059*
X1828116Y1389434*
Y1388497*
X1827661Y1387872*
X1826979Y1387559*
X1826070*
X1825388Y1387872*
X1824934Y1388497*
X1833343Y1393184D02*
X1832888Y1393809D01*
X1832207Y1394122*
X1831297*
X1830616Y1393809*
X1830161Y1393184*
Y1392559*
X1830388Y1391934*
X1830616Y1391622*
X1831070Y1391309*
X1832434Y1390684*
X1832888Y1390372*
X1833116Y1390059*
X1833343Y1389434*
Y1388497*
X1832888Y1387872*
X1832207Y1387559*
X1831297*
X1830616Y1387872*
X1830161Y1388497*
X1840616Y1392872D02*
X1841070Y1393184D01*
X1841752Y1394122*
Y1387559*
X1844025Y1388184D02*
X1843797Y1387872D01*
X1844025Y1387559*
X1844252Y1387872*
X1844025Y1388184*
X1849025Y1393184D02*
X1848797Y1393809D01*
X1848116Y1394122*
X1847661*
X1846979Y1393809*
X1846525Y1392872*
X1846297Y1391309*
Y1389747*
X1846525Y1388497*
X1846979Y1387872*
X1847661Y1387559*
X1847888*
X1848570Y1387872*
X1849025Y1388497*
X1849252Y1389434*
Y1389747*
X1849025Y1390684*
X1848570Y1391309*
X1847888Y1391622*
X1847661*
X1846979Y1391309*
X1846525Y1390684*
X1846297Y1389747*
X1851297Y1391934D02*
Y1387559D01*
Y1390684D02*
X1851979Y1391622D01*
X1852434Y1391934*
X1853116*
X1853570Y1391622*
X1853797Y1390684*
Y1387559*
Y1390684D02*
X1854479Y1391622D01*
X1854934Y1391934*
X1855616*
X1856070Y1391622*
X1856297Y1390684*
Y1387559*
X1858343Y1391934D02*
Y1387559D01*
Y1390684D02*
X1859025Y1391622D01*
X1859479Y1391934*
X1860161*
X1860616Y1391622*
X1860843Y1390684*
Y1387559*
Y1390684D02*
X1861525Y1391622D01*
X1861979Y1391934*
X1862661*
X1863116Y1391622*
X1863343Y1390684*
Y1387559*
X1865843Y1387872D02*
X1865616Y1387559D01*
X1865388Y1387872*
X1865616Y1388184*
X1865843Y1387872*
Y1387247*
X1865616Y1386622*
X1865388Y1386309*
X1876525Y1392559D02*
X1876297Y1393184D01*
X1875843Y1393809*
X1875388Y1394122*
X1874479*
X1874025Y1393809*
X1873570Y1393184*
X1873343Y1392559*
X1873116Y1391622*
Y1390059*
X1873343Y1389122*
X1873570Y1388497*
X1874025Y1387872*
X1874479Y1387559*
X1875388*
X1875843Y1387872*
X1876297Y1388497*
X1876525Y1389122*
X1879934Y1394122D02*
X1879479Y1393809D01*
X1879025Y1393184*
X1878797Y1392559*
X1878570Y1391622*
Y1390059*
X1878797Y1389122*
X1879025Y1388497*
X1879479Y1387872*
X1879934Y1387559*
X1880843*
X1881297Y1387872*
X1881752Y1388497*
X1881979Y1389122*
X1882207Y1390059*
Y1391622*
X1881979Y1392559*
X1881752Y1393184*
X1881297Y1393809*
X1880843Y1394122*
X1879934*
X1884252D02*
Y1387559D01*
Y1394122D02*
X1886297D01*
X1886979Y1393809*
X1887207Y1393497*
X1887434Y1392872*
Y1391934*
X1887207Y1391309*
X1886979Y1390997*
X1886297Y1390684*
X1884252*
X1889479Y1394122D02*
Y1387559D01*
Y1394122D02*
X1891525D01*
X1892207Y1393809*
X1892434Y1393497*
X1892661Y1392872*
Y1391934*
X1892434Y1391309*
X1892207Y1390997*
X1891525Y1390684*
X1889479*
X1894707Y1394122D02*
Y1387559D01*
Y1394122D02*
X1897661D01*
X1894707Y1390997D02*
X1896525D01*
X1894707Y1387559D02*
X1897661D01*
X1899707Y1394122D02*
Y1387559D01*
Y1394122D02*
X1901752D01*
X1902434Y1393809*
X1902661Y1393497*
X1902888Y1392872*
Y1392247*
X1902661Y1391622*
X1902434Y1391309*
X1901752Y1390997*
X1899707*
X1901297D02*
X1902888Y1387559D01*
X1911752Y1394122D02*
Y1387559D01*
X1910161Y1394122D02*
X1913343D01*
X1915388D02*
Y1387559D01*
X1920843Y1392559D02*
X1920616Y1393184D01*
X1920161Y1393809*
X1919707Y1394122*
X1918797*
X1918343Y1393809*
X1917888Y1393184*
X1917661Y1392559*
X1917434Y1391622*
Y1390059*
X1917661Y1389122*
X1917888Y1388497*
X1918343Y1387872*
X1918797Y1387559*
X1919707*
X1920161Y1387872*
X1920616Y1388497*
X1920843Y1389122*
X1922888Y1394122D02*
Y1387559D01*
X1926070Y1394122D02*
X1922888Y1389747D01*
X1924025Y1391309D02*
X1926070Y1387559D01*
X1928116Y1394122D02*
Y1387559D01*
Y1394122D02*
X1931297Y1387559D01*
Y1394122D02*
Y1387559D01*
X1933343Y1394122D02*
Y1387559D01*
Y1394122D02*
X1936297D01*
X1933343Y1390997D02*
X1935161D01*
X1933343Y1387559D02*
X1936297D01*
X1941525Y1393184D02*
X1941070Y1393809D01*
X1940388Y1394122*
X1939479*
X1938797Y1393809*
X1938343Y1393184*
Y1392559*
X1938570Y1391934*
X1938797Y1391622*
X1939252Y1391309*
X1940616Y1390684*
X1941070Y1390372*
X1941297Y1390059*
X1941525Y1389434*
Y1388497*
X1941070Y1387872*
X1940388Y1387559*
X1939479*
X1938797Y1387872*
X1938343Y1388497*
X1946752Y1393184D02*
X1946297Y1393809D01*
X1945616Y1394122*
X1944707*
X1944025Y1393809*
X1943570Y1393184*
Y1392559*
X1943797Y1391934*
X1944025Y1391622*
X1944479Y1391309*
X1945843Y1390684*
X1946297Y1390372*
X1946525Y1390059*
X1946752Y1389434*
Y1388497*
X1946297Y1387872*
X1945616Y1387559*
X1944707*
X1944025Y1387872*
X1943570Y1388497*
X1954479Y1394122D02*
X1956979D01*
X1955616Y1391622*
X1956297*
X1956752Y1391309*
X1956979Y1390997*
X1957207Y1390059*
Y1389434*
X1956979Y1388497*
X1956525Y1387872*
X1955843Y1387559*
X1955161*
X1954479Y1387872*
X1954252Y1388184*
X1954025Y1388809*
X1962207Y1394122D02*
X1959934D01*
X1959707Y1391309*
X1959934Y1391622*
X1960616Y1391934*
X1961297*
X1961979Y1391622*
X1962434Y1390997*
X1962661Y1390059*
X1962434Y1389434*
X1962207Y1388497*
X1961752Y1387872*
X1961070Y1387559*
X1960388*
X1959707Y1387872*
X1959479Y1388184*
X1959252Y1388809*
X1964707Y1391934D02*
Y1388809D01*
X1964934Y1387872*
X1965388Y1387559*
X1966070*
X1966525Y1387872*
X1967207Y1388809*
Y1391934D02*
Y1387559D01*
X1969252Y1391934D02*
Y1387559D01*
Y1390684D02*
X1969934Y1391622D01*
X1970388Y1391934*
X1971070*
X1971525Y1391622*
X1971752Y1390684*
Y1387559*
Y1390684D02*
X1972434Y1391622D01*
X1972888Y1391934*
X1973570*
X1974025Y1391622*
X1974252Y1390684*
Y1387559*
X1976752Y1387872D02*
X1976525Y1387559D01*
X1976297Y1387872*
X1976525Y1388184*
X1976752Y1387872*
Y1387247*
X1976525Y1386622*
X1976297Y1386309*
X1987434Y1392559D02*
X1987207Y1393184D01*
X1986752Y1393809*
X1986297Y1394122*
X1985388*
X1984934Y1393809*
X1984479Y1393184*
X1984252Y1392559*
X1984025Y1391622*
Y1390059*
X1984252Y1389122*
X1984479Y1388497*
X1984934Y1387872*
X1985388Y1387559*
X1986297*
X1986752Y1387872*
X1987207Y1388497*
X1987434Y1389122*
X1989479Y1394122D02*
Y1387559D01*
X1992661Y1394122D02*
Y1387559D01*
X1989479Y1390997D02*
X1992661D01*
X1994707Y1394122D02*
Y1387559D01*
Y1394122D02*
X1997661D01*
X1994707Y1390997D02*
X1996525D01*
X1994707Y1387559D02*
X1997661D01*
X1999707Y1394122D02*
Y1387559D01*
Y1394122D02*
X2001525Y1387559D01*
X2003343Y1394122D02*
X2001525Y1387559D01*
X2003343Y1394122D02*
Y1387559D01*
X2005388Y1394122D02*
Y1387559D01*
X2010843Y1392559D02*
X2010616Y1393184D01*
X2010161Y1393809*
X2009707Y1394122*
X2008797*
X2008343Y1393809*
X2007888Y1393184*
X2007661Y1392559*
X2007434Y1391622*
Y1390059*
X2007661Y1389122*
X2007888Y1388497*
X2008343Y1387872*
X2008797Y1387559*
X2009707*
X2010161Y1387872*
X2010616Y1388497*
X2010843Y1389122*
X2014707Y1394122D02*
X2012888Y1387559D01*
X2014707Y1394122D02*
X2016525Y1387559D01*
X2013570Y1389747D02*
X2015843D01*
X2018570Y1394122D02*
Y1387559D01*
X2021297*
X2028570Y1394122D02*
Y1387559D01*
Y1394122D02*
X2031752Y1387559D01*
Y1394122D02*
Y1387559D01*
X2033797Y1394122D02*
X2034025Y1393809D01*
X2034252Y1394122*
X2034025Y1394434*
X2033797Y1394122*
X2034025Y1391934D02*
Y1387559D01*
X2036297Y1390372D02*
X2040388D01*
X2044252Y1394122D02*
X2042434Y1387559D01*
X2044252Y1394122D02*
X2046070Y1387559D01*
X2043116Y1389747D02*
X2045388D01*
X2048116Y1391934D02*
Y1388809D01*
X2048343Y1387872*
X2048797Y1387559*
X2049479*
X2049934Y1387872*
X2050616Y1388809*
Y1391934D02*
Y1387559D01*
X2057888Y1394122D02*
Y1387559D01*
Y1394122D02*
X2060843D01*
X2057888Y1390997D02*
X2059707D01*
X2062888Y1394122D02*
Y1387559D01*
X2064934Y1394122D02*
Y1387559D01*
Y1394122D02*
X2068116Y1387559D01*
Y1394122D02*
Y1387559D01*
X2070161Y1394122D02*
Y1387559D01*
X2075388Y1393184D02*
X2074934Y1393809D01*
X2074252Y1394122*
X2073343*
X2072661Y1393809*
X2072207Y1393184*
Y1392559*
X2072434Y1391934*
X2072661Y1391622*
X2073116Y1391309*
X2074479Y1390684*
X2074934Y1390372*
X2075161Y1390059*
X2075388Y1389434*
Y1388497*
X2074934Y1387872*
X2074252Y1387559*
X2073343*
X2072661Y1387872*
X2072207Y1388497*
X2077434Y1394122D02*
Y1387559D01*
X2080616Y1394122D02*
Y1387559D01*
X2077434Y1390997D02*
X2080616D01*
X2082661Y1394122D02*
Y1387559D01*
X2084707Y1394122D02*
Y1387559D01*
Y1394122D02*
X2087888Y1387559D01*
Y1394122D02*
Y1387559D01*
X2093343Y1392559D02*
X2093116Y1393184D01*
X2092661Y1393809*
X2092207Y1394122*
X2091297*
X2090843Y1393809*
X2090388Y1393184*
X2090161Y1392559*
X2089934Y1391622*
Y1390059*
X2090161Y1389122*
X2090388Y1388497*
X2090843Y1387872*
X2091297Y1387559*
X2092207*
X2092661Y1387872*
X2093116Y1388497*
X2093343Y1389122*
Y1390059*
X2092207D02*
X2093343D01*
X1811638Y1472618D02*
X2040748D01*
Y1639331*
X1811638*
Y1472618*
X1767520Y1828110D02*
X1747520D01*
Y1808110*
X1747441Y1391890D02*
Y1371890D01*
X1767441*
X2232087Y1372205D02*
X2252087D01*
Y1392205*
X2252559Y1808031D02*
Y1828031D01*
X2232559*
X1803543Y1640118D02*
Y1472598D01*
X1783465*
Y1639921*
X1803346*
X2040757Y1632696D02*
G75*
G03X2048757I4000J0D01*
G01X2048791Y1619988D02*
G03X2040791I-4000J-0D01*
G01X1803664Y1633822D02*
G03X1811664I4000J0D01*
G01X1811677Y1621551D02*
G03X1803677I-4000J0D01*
G01X1803664Y1489924D02*
G03X1811664I4000J0D01*
G01X1811612Y1477656D02*
G03X1803612I-4000J-0D01*
G01X2040672Y1490121D02*
G03X2048672I4000J0D01*
G01X2068504Y1472205D02*
X2048728D01*
Y1639331*
X2068504*
Y1472205*
X2048805Y1478060D02*
G03X2040805I-4000J-0D01*
G01X1811638Y1813469D02*
X2069638D01*
X1811638Y1789469D02*
X2069638D01*
X1811638Y1765469D02*
X2069638D01*
X1811638Y1741469D02*
X2069638D01*
X1811638Y1717469D02*
X2069638D01*
X1811638Y1693469D02*
X2069638D01*
X1811638Y1669469D02*
X2069638D01*
X1811638Y1813469D02*
Y1669469D01*
X1895638Y1813469D02*
Y1669469D01*
X1931638Y1813469D02*
Y1669469D01*
X1967638Y1813469D02*
Y1669469D01*
X2021638Y1813469D02*
Y1669469D01*
X2069638Y1813469D02*
Y1669469D01*
G54D15*
X1829811Y1504795D02*
X1833811Y1508795D01*
X1829811Y1512795*
X1825811Y1508795*
X1829811Y1504795*
Y1508795D02*
Y1512795D01*
X1838811Y1504795D02*
X1842811Y1508795D01*
X1838811Y1512795*
X1834811Y1508795*
X1838811Y1504795*
Y1508795D02*
Y1512795D01*
X1847811Y1504795D02*
X1851811Y1508795D01*
X1847811Y1512795*
X1843811Y1508795*
X1847811Y1504795*
Y1508795D02*
Y1512795D01*
X1858811Y1504795D02*
X1862811Y1508795D01*
X1858811Y1512795*
X1854811Y1508795*
X1858811Y1504795*
Y1508795D02*
Y1512795D01*
X1867811Y1504795D02*
X1871811Y1508795D01*
X1867811Y1512795*
X1863811Y1508795*
X1867811Y1504795*
Y1508795D02*
Y1512795D01*
X1876811Y1504795D02*
X1880811Y1508795D01*
X1876811Y1512795*
X1872811Y1508795*
X1876811Y1504795*
Y1508795D02*
Y1512795D01*
X1887811Y1504795D02*
X1891811Y1508795D01*
X1887811Y1512795*
X1883811Y1508795*
X1887811Y1504795*
Y1508795D02*
Y1512795D01*
X1896811Y1504795D02*
X1900811Y1508795D01*
X1896811Y1512795*
X1892811Y1508795*
X1896811Y1504795*
Y1508795D02*
Y1512795D01*
X1905811Y1504795D02*
X1909811Y1508795D01*
X1905811Y1512795*
X1901811Y1508795*
X1905811Y1504795*
Y1508795D02*
Y1512795D01*
X1847811Y1535795D02*
X1851811Y1539795D01*
X1847811Y1543795*
X1843811Y1539795*
X1847811Y1535795*
Y1539795D02*
Y1543795D01*
X1838811Y1535795D02*
X1842811Y1539795D01*
X1838811Y1543795*
X1834811Y1539795*
X1838811Y1535795*
Y1539795D02*
Y1543795D01*
X1829811Y1535795D02*
X1833811Y1539795D01*
X1829811Y1543795*
X1825811Y1539795*
X1829811Y1535795*
Y1539795D02*
Y1543795D01*
X1876811Y1535795D02*
X1880811Y1539795D01*
X1876811Y1543795*
X1872811Y1539795*
X1876811Y1535795*
Y1539795D02*
Y1543795D01*
X1867811Y1535795D02*
X1871811Y1539795D01*
X1867811Y1543795*
X1863811Y1539795*
X1867811Y1535795*
Y1539795D02*
Y1543795D01*
X1858811Y1535795D02*
X1862811Y1539795D01*
X1858811Y1543795*
X1854811Y1539795*
X1858811Y1535795*
Y1539795D02*
Y1543795D01*
X1905811Y1535795D02*
X1909811Y1539795D01*
X1905811Y1543795*
X1901811Y1539795*
X1905811Y1535795*
Y1539795D02*
Y1543795D01*
X1896811Y1535795D02*
X1900811Y1539795D01*
X1896811Y1543795*
X1892811Y1539795*
X1896811Y1535795*
Y1539795D02*
Y1543795D01*
X1887811Y1535795D02*
X1891811Y1539795D01*
X1887811Y1543795*
X1883811Y1539795*
X1887811Y1535795*
Y1539795D02*
Y1543795D01*
X1945811Y1504795D02*
X1949811Y1508795D01*
X1945811Y1512795*
X1941811Y1508795*
X1945811Y1504795*
Y1508795D02*
Y1512795D01*
X1954811Y1504795D02*
X1958811Y1508795D01*
X1954811Y1512795*
X1950811Y1508795*
X1954811Y1504795*
Y1508795D02*
Y1512795D01*
X1963811Y1504795D02*
X1967811Y1508795D01*
X1963811Y1512795*
X1959811Y1508795*
X1963811Y1504795*
Y1508795D02*
Y1512795D01*
X1975311Y1504795D02*
X1979311Y1508795D01*
X1975311Y1512795*
X1971311Y1508795*
X1975311Y1504795*
Y1508795D02*
Y1512795D01*
X1984311Y1504795D02*
X1988311Y1508795D01*
X1984311Y1512795*
X1980311Y1508795*
X1984311Y1504795*
Y1508795D02*
Y1512795D01*
X1993311Y1504795D02*
X1997311Y1508795D01*
X1993311Y1512795*
X1989311Y1508795*
X1993311Y1504795*
Y1508795D02*
Y1512795D01*
X2004811Y1504795D02*
X2008811Y1508795D01*
X2004811Y1512795*
X2000811Y1508795*
X2004811Y1504795*
Y1508795D02*
Y1512795D01*
X2013811Y1504795D02*
X2017811Y1508795D01*
X2013811Y1512795*
X2009811Y1508795*
X2013811Y1504795*
Y1508795D02*
Y1512795D01*
X2022811Y1504795D02*
X2026811Y1508795D01*
X2022811Y1512795*
X2018811Y1508795*
X2022811Y1504795*
Y1508795D02*
Y1512795D01*
X1963811Y1535795D02*
X1967811Y1539795D01*
X1963811Y1543795*
X1959811Y1539795*
X1963811Y1535795*
Y1539795D02*
Y1543795D01*
X1954811Y1535795D02*
X1958811Y1539795D01*
X1954811Y1543795*
X1950811Y1539795*
X1954811Y1535795*
Y1539795D02*
Y1543795D01*
X1945811Y1535795D02*
X1949811Y1539795D01*
X1945811Y1543795*
X1941811Y1539795*
X1945811Y1535795*
Y1539795D02*
Y1543795D01*
X1993311Y1535795D02*
X1997311Y1539795D01*
X1993311Y1543795*
X1989311Y1539795*
X1993311Y1535795*
Y1539795D02*
Y1543795D01*
X1984311Y1535795D02*
X1988311Y1539795D01*
X1984311Y1543795*
X1980311Y1539795*
X1984311Y1535795*
Y1539795D02*
Y1543795D01*
X1975311Y1535795D02*
X1979311Y1539795D01*
X1975311Y1543795*
X1971311Y1539795*
X1975311Y1535795*
Y1539795D02*
Y1543795D01*
X2022811Y1535795D02*
X2026811Y1539795D01*
X2022811Y1543795*
X2018811Y1539795*
X2022811Y1535795*
Y1539795D02*
Y1543795D01*
X2013811Y1535795D02*
X2017811Y1539795D01*
X2013811Y1543795*
X2009811Y1539795*
X2013811Y1535795*
Y1539795D02*
Y1543795D01*
X2004811Y1535795D02*
X2008811Y1539795D01*
X2004811Y1543795*
X2000811Y1539795*
X2004811Y1535795*
Y1539795D02*
Y1543795D01*
X1914311Y1485795D02*
X1922311D01*
Y1493795*
X1914311*
Y1485795*
X1918311Y1489795D02*
Y1493795D01*
X1929311Y1485795D02*
X1937311D01*
Y1493795*
X1929311*
Y1485795*
X1933311Y1489795D02*
Y1493795D01*
X1850811Y1485795D02*
X1858811D01*
Y1493795*
X1850811*
Y1485795*
X1854811Y1489795D02*
Y1493795D01*
X1865811Y1485795D02*
X1873811D01*
Y1493795*
X1865811*
Y1485795*
X1869811Y1489795D02*
Y1493795D01*
X1880811Y1485795D02*
X1888811D01*
Y1493795*
X1880811*
Y1485795*
X1884811Y1489795D02*
Y1493795D01*
X1962811Y1485795D02*
X1970811D01*
Y1493795*
X1962811*
Y1485795*
X1966811Y1489795D02*
Y1493795D01*
X1977811Y1485795D02*
X1985811D01*
Y1493795*
X1977811*
Y1485795*
X1981811Y1489795D02*
Y1493795D01*
X1992811Y1485795D02*
X2000811D01*
Y1493795*
X1992811*
Y1485795*
X1996811Y1489795D02*
Y1493795D01*
X1816299Y1482461D02*
X1824299D01*
X1820299Y1478461D02*
Y1486461D01*
X2026929Y1482461D02*
X2034929D01*
X2030929Y1478461D02*
Y1486461D01*
X1817811Y1520295D02*
X1825811D01*
X1817811Y1528295*
X1825811*
X1817811Y1520295*
X2025811Y1524295D02*
X2033811D01*
X2029811Y1520295D02*
Y1528295D01*
X1825134Y1474504D02*
X1833134Y1482504D01*
X1825134D02*
X1833134Y1474504D01*
X1830646Y1479819D02*
X1838646Y1487819D01*
X1830646D02*
X1838646Y1479819D01*
X1846000Y1478441D02*
X1854000Y1486441D01*
X1846000D02*
X1854000Y1478441D01*
X1853283Y1478638D02*
X1861283Y1486638D01*
X1853283D02*
X1861283Y1478638D01*
X1886945Y1476276D02*
X1894945Y1484276D01*
X1886945D02*
X1894945Y1476276D01*
X1875528Y1476079D02*
X1883528Y1484079D01*
X1875528D02*
X1883528Y1476079D01*
X1895016Y1471157D02*
X1903016Y1479157D01*
X1895016D02*
X1903016Y1471157D01*
X1914307Y1478638D02*
X1922307Y1486638D01*
X1914307D02*
X1922307Y1478638D01*
X1924346Y1475882D02*
X1932346Y1483882D01*
X1924346D02*
X1932346Y1475882D01*
X1936748Y1476276D02*
X1944748Y1484276D01*
X1936748D02*
X1944748Y1476276D01*
X1945016Y1471354D02*
X1953016Y1479354D01*
X1945016D02*
X1953016Y1471354D01*
X1965488Y1478835D02*
X1973488Y1486835D01*
X1965488D02*
X1973488Y1478835D01*
X1985567Y1476079D02*
X1993567Y1484079D01*
X1985567D02*
X1993567Y1476079D01*
X1997378Y1476276D02*
X2005378Y1484276D01*
X1997378D02*
X2005378Y1476276D01*
X2008795Y1481591D02*
X2016795Y1489591D01*
X2008795D02*
X2016795Y1481591D01*
X2015685Y1481984D02*
X2023685Y1489984D01*
X2015685D02*
X2023685Y1481984D01*
X1928677Y1497929D02*
X1936677Y1505929D01*
X1928677D02*
X1936677Y1497929D01*
X1925134Y1498126D02*
X1933134Y1506126D01*
X1925134D02*
X1933134Y1498126D01*
X1921787D02*
X1929787Y1506126D01*
X1921787D02*
X1929787Y1498126D01*
X1918638D02*
X1926638Y1506126D01*
X1918638D02*
X1926638Y1498126D01*
X1918638Y1493795D02*
X1926638Y1501795D01*
X1918638D02*
X1926638Y1493795D01*
X1921787D02*
X1929787Y1501795D01*
X1921787D02*
X1929787Y1493795D01*
X1925134D02*
X1933134Y1501795D01*
X1925134D02*
X1933134Y1493795D01*
X1928677D02*
X1936677Y1501795D01*
X1928677D02*
X1936677Y1493795D01*
X1930646Y1508362D02*
X1938646Y1516362D01*
X1930646D02*
X1938646Y1508362D01*
X1932024Y1497929D02*
X1940024Y1505929D01*
X1932024D02*
X1940024Y1497929D01*
X1932024Y1493795D02*
X1940024Y1501795D01*
X1932024D02*
X1940024Y1493795D01*
X2026315Y1496551D02*
X2034315Y1504551D01*
X2026315D02*
X2034315Y1496551D01*
X1828480Y1528638D02*
X1836480Y1536638D01*
X1828480D02*
X1836480Y1528638D01*
X1837339Y1512496D02*
X1845339Y1520496D01*
X1837339D02*
X1845339Y1512496D01*
X1849150Y1519976D02*
X1857150Y1527976D01*
X1849150D02*
X1857150Y1519976D01*
X1858008Y1511315D02*
X1866008Y1519315D01*
X1858008D02*
X1866008Y1511315D01*
X1856630Y1520764D02*
X1864630Y1528764D01*
X1856630D02*
X1864630Y1520764D01*
X1867457Y1512496D02*
X1875457Y1520496D01*
X1867457D02*
X1875457Y1512496D01*
X1858205Y1528835D02*
X1866205Y1536835D01*
X1858205D02*
X1866205Y1528835D01*
X1887142Y1511906D02*
X1895142Y1519906D01*
X1887142D02*
X1895142Y1511906D01*
X1886551Y1520173D02*
X1894551Y1528173D01*
X1886551D02*
X1894551Y1520173D01*
X1886945Y1529228D02*
X1894945Y1537228D01*
X1886945D02*
X1894945Y1529228D01*
X1878087Y1519976D02*
X1886087Y1527976D01*
X1878087D02*
X1886087Y1519976D01*
X1896394Y1512496D02*
X1904394Y1520496D01*
X1896394D02*
X1904394Y1512496D01*
X1907614Y1520173D02*
X1915614Y1528173D01*
X1907614D02*
X1915614Y1520173D01*
X1905252Y1528638D02*
X1913252Y1536638D01*
X1905252D02*
X1913252Y1528638D01*
X1920213Y1516236D02*
X1928213Y1524236D01*
X1920213D02*
X1928213Y1516236D01*
X1925528Y1516039D02*
X1933528Y1524039D01*
X1925528D02*
X1933528Y1516039D01*
X1922969Y1519386D02*
X1930969Y1527386D01*
X1922969D02*
X1930969Y1519386D01*
X1929268Y1517024D02*
X1937268Y1525024D01*
X1929268D02*
X1937268Y1517024D01*
X1935370Y1511512D02*
X1943370Y1519512D01*
X1935370D02*
X1943370Y1511512D01*
X1945213Y1529228D02*
X1953213Y1537228D01*
X1945213D02*
X1953213Y1529228D01*
X1968047Y1511906D02*
X1976047Y1519906D01*
X1968047D02*
X1976047Y1511906D01*
X1958402Y1519976D02*
X1966402Y1527976D01*
X1958402D02*
X1966402Y1519976D01*
X1958402Y1516827D02*
X1966402Y1524827D01*
X1958402D02*
X1966402Y1516827D01*
X1950331Y1519976D02*
X1958331Y1527976D01*
X1950331D02*
X1958331Y1519976D01*
X1964110Y1528441D02*
X1972110Y1536441D01*
X1964110D02*
X1972110Y1528441D01*
X1979465Y1519976D02*
X1987465Y1527976D01*
X1979465D02*
X1987465Y1519976D01*
X1987339Y1517220D02*
X1995339Y1525220D01*
X1987339D02*
X1995339Y1517220D01*
X1987339Y1520370D02*
X1995339Y1528370D01*
X1987339D02*
X1995339Y1520370D01*
X1994819Y1512890D02*
X2002819Y1520890D01*
X1994819D02*
X2002819Y1512890D01*
X1993244Y1528047D02*
X2001244Y1536047D01*
X1993244D02*
X2001244Y1528047D01*
X2008402Y1520567D02*
X2016402Y1528567D01*
X2008402D02*
X2016402Y1520567D01*
X2018244Y1528441D02*
X2026244Y1536441D01*
X2018244D02*
X2026244Y1528441D01*
X1815488Y1535724D02*
X1823488Y1543724D01*
X1815488D02*
X1823488Y1535724D01*
X1815488Y1542220D02*
X1823488Y1550220D01*
X1815488D02*
X1823488Y1542220D01*
X1849346Y1530409D02*
X1857346Y1538409D01*
X1849346D02*
X1857346Y1530409D01*
X1884583Y1548520D02*
X1892583Y1556520D01*
X1884583D02*
X1892583Y1548520D01*
X1878283Y1530213D02*
X1886283Y1538213D01*
X1878283D02*
X1886283Y1530213D01*
X1924937Y1540252D02*
X1932937Y1548252D01*
X1924937D02*
X1932937Y1540252D01*
X1929071Y1542220D02*
X1937071Y1550220D01*
X1929071D02*
X1937071Y1542220D01*
X1931236Y1548323D02*
X1939236Y1556323D01*
X1931236D02*
X1939236Y1548323D01*
X1935961Y1548520D02*
X1943961Y1556520D01*
X1935961D02*
X1943961Y1548520D01*
X1950528Y1549504D02*
X1958528Y1557504D01*
X1950528D02*
X1958528Y1549504D01*
X1965685Y1531591D02*
X1973685Y1539591D01*
X1965685D02*
X1973685Y1531591D01*
X1977102Y1543795D02*
X1985102Y1551795D01*
X1977102D02*
X1985102Y1543795D01*
X1980055Y1545764D02*
X1988055Y1553764D01*
X1980055D02*
X1988055Y1545764D01*
X1995409Y1542811D02*
X2003409Y1550811D01*
X1995409D02*
X2003409Y1542811D01*
X1826906Y1554031D02*
X1834906Y1562031D01*
X1826906D02*
X1834906Y1554031D01*
X1827693Y1549898D02*
X1835693Y1557898D01*
X1827693D02*
X1835693Y1549898D01*
X1821197Y1562890D02*
X1829197Y1570890D01*
X1821197D02*
X1829197Y1562890D01*
X1816276Y1554425D02*
X1824276Y1562425D01*
X1816276D02*
X1824276Y1554425D01*
X1821000Y1568008D02*
X1829000Y1576008D01*
X1821000D02*
X1829000Y1568008D01*
X1821197Y1557772D02*
X1829197Y1565772D01*
X1821197D02*
X1829197Y1557772D01*
X1835370Y1551669D02*
X1843370Y1559669D01*
X1835370D02*
X1843370Y1551669D01*
X1841669Y1563874D02*
X1849669Y1571874D01*
X1841669D02*
X1849669Y1563874D01*
X1841866Y1568205D02*
X1849866Y1576205D01*
X1841866D02*
X1849866Y1568205D01*
X1843835Y1560724D02*
X1851835Y1568724D01*
X1843835D02*
X1851835Y1560724D01*
X1846000Y1555409D02*
X1854000Y1563409D01*
X1846000D02*
X1854000Y1555409D01*
X1848756Y1568008D02*
X1856756Y1576008D01*
X1848756D02*
X1856756Y1568008D01*
X1855449Y1566039D02*
X1863449Y1574039D01*
X1855449D02*
X1863449Y1566039D01*
X1860567Y1550882D02*
X1868567Y1558882D01*
X1860567D02*
X1868567Y1550882D01*
X1874150Y1552063D02*
X1882150Y1560063D01*
X1874150D02*
X1882150Y1552063D01*
X1885567Y1553047D02*
X1893567Y1561047D01*
X1885567D02*
X1893567Y1553047D01*
X1881827Y1554228D02*
X1889827Y1562228D01*
X1881827D02*
X1889827Y1554228D01*
X1878677Y1564858D02*
X1886677Y1572858D01*
X1878677D02*
X1886677Y1564858D01*
X1879268Y1554425D02*
X1887268Y1562425D01*
X1879268D02*
X1887268Y1554425D01*
X1918638Y1558165D02*
X1926638Y1566165D01*
X1918638D02*
X1926638Y1558165D01*
X1913913Y1566236D02*
X1921913Y1574236D01*
X1913913D02*
X1921913Y1566236D01*
X1913520Y1553244D02*
X1921520Y1561244D01*
X1913520D02*
X1921520Y1553244D01*
X1913913Y1563874D02*
X1921913Y1571874D01*
X1913913D02*
X1921913Y1563874D01*
X1913913Y1561512D02*
X1921913Y1569512D01*
X1913913D02*
X1921913Y1561512D01*
X1941472Y1568598D02*
X1949472Y1576598D01*
X1941472D02*
X1949472Y1568598D01*
X1943244Y1554425D02*
X1951244Y1562425D01*
X1943244D02*
X1951244Y1554425D01*
X1951512Y1553835D02*
X1959512Y1561835D01*
X1951512D02*
X1959512Y1553835D01*
X1963323Y1563677D02*
X1971323Y1571677D01*
X1963323D02*
X1971323Y1563677D01*
X1970016Y1563087D02*
X1978016Y1571087D01*
X1970016D02*
X1978016Y1563087D01*
X1963323Y1567220D02*
X1971323Y1575220D01*
X1963323D02*
X1971323Y1567220D01*
X1970213Y1559543D02*
X1978213Y1567543D01*
X1970213D02*
X1978213Y1559543D01*
X1974543Y1558756D02*
X1982543Y1566756D01*
X1974543D02*
X1982543Y1558756D01*
X2002102Y1569780D02*
X2010102Y1577780D01*
X2002102D02*
X2010102Y1569780D01*
X2001709Y1566630D02*
X2009709Y1574630D01*
X2001709D02*
X2009709Y1566630D01*
X1996591Y1566236D02*
X2004591Y1574236D01*
X1996591D02*
X2004591Y1566236D01*
X2002299Y1557772D02*
X2010299Y1565772D01*
X2002299D02*
X2010299Y1557772D01*
X2021787Y1567614D02*
X2029787Y1575614D01*
X2021787D02*
X2029787Y1567614D01*
X2021787Y1562890D02*
X2029787Y1570890D01*
X2021787D02*
X2029787Y1562890D01*
X2025528Y1554425D02*
X2033528Y1562425D01*
X2025528D02*
X2033528Y1554425D01*
X2021197Y1557969D02*
X2029197Y1565969D01*
X2021197D02*
X2029197Y1557969D01*
X1810197Y1589681D02*
X1818197Y1597681D01*
X1810197D02*
X1818197Y1589681D01*
X1810197Y1586728D02*
X1818197Y1594728D01*
X1810197D02*
X1818197Y1586728D01*
X1821197Y1577654D02*
X1829197Y1585654D01*
X1821197D02*
X1829197Y1577654D01*
X1821197Y1572732D02*
X1829197Y1580732D01*
X1821197D02*
X1829197Y1572732D01*
X1822575Y1587890D02*
X1830575Y1595890D01*
X1822575D02*
X1830575Y1587890D01*
X1822575Y1582969D02*
X1830575Y1590969D01*
X1822575D02*
X1830575Y1582969D01*
X1841866Y1578047D02*
X1849866Y1586047D01*
X1841866D02*
X1849866Y1578047D01*
X1841866Y1573323D02*
X1849866Y1581323D01*
X1841866D02*
X1849866Y1573323D01*
X1848559Y1575685D02*
X1856559Y1583685D01*
X1848559D02*
X1856559Y1575685D01*
X1848362Y1579228D02*
X1856362Y1587228D01*
X1848362D02*
X1856362Y1579228D01*
X1848559Y1571354D02*
X1856559Y1579354D01*
X1848559D02*
X1856559Y1571354D01*
X1867260Y1582378D02*
X1875260Y1590378D01*
X1867260D02*
X1875260Y1582378D01*
X1855449Y1572535D02*
X1863449Y1580535D01*
X1855449D02*
X1863449Y1572535D01*
X1861748Y1589661D02*
X1869748Y1597661D01*
X1861748D02*
X1869748Y1589661D01*
X1884189Y1574307D02*
X1892189Y1582307D01*
X1884189D02*
X1892189Y1574307D01*
X1875331Y1572142D02*
X1883331Y1580142D01*
X1875331D02*
X1883331Y1572142D01*
X1873756Y1575685D02*
X1881756Y1583685D01*
X1873756D02*
X1881756Y1575685D01*
X1886354Y1581000D02*
X1894354Y1589000D01*
X1886354D02*
X1894354Y1581000D01*
X1880646Y1580803D02*
X1888646Y1588803D01*
X1880646D02*
X1888646Y1580803D01*
X1879661Y1582969D02*
X1887661Y1590969D01*
X1879661D02*
X1887661Y1582969D01*
X1871000Y1588874D02*
X1879000Y1596874D01*
X1871000D02*
X1879000Y1588874D01*
X1904465Y1584740D02*
X1912465Y1592740D01*
X1904465D02*
X1912465Y1584740D01*
X1908598Y1577260D02*
X1916598Y1585260D01*
X1908598D02*
X1916598Y1577260D01*
X1905055Y1576079D02*
X1913055Y1584079D01*
X1905055D02*
X1913055Y1576079D01*
X1895803Y1582969D02*
X1903803Y1590969D01*
X1895803D02*
X1903803Y1582969D01*
X1911157Y1577457D02*
X1919157Y1585457D01*
X1911157D02*
X1919157Y1577457D01*
X1924937Y1585724D02*
X1932937Y1593724D01*
X1924937D02*
X1932937Y1585724D01*
X1928874Y1576276D02*
X1936874Y1584276D01*
X1928874D02*
X1936874Y1576276D01*
X1911748Y1574898D02*
X1919748Y1582898D01*
X1911748D02*
X1919748Y1574898D01*
X1934386Y1585921D02*
X1942386Y1593921D01*
X1934386D02*
X1942386Y1585921D01*
X1934386Y1581787D02*
X1942386Y1589787D01*
X1934386D02*
X1942386Y1581787D01*
X1937535Y1584937D02*
X1945535Y1592937D01*
X1937535D02*
X1945535Y1584937D01*
X1948559Y1575291D02*
X1956559Y1583291D01*
X1948559D02*
X1956559Y1575291D01*
X1964898Y1588677D02*
X1972898Y1596677D01*
X1964898D02*
X1972898Y1588677D01*
X1963520Y1577457D02*
X1971520Y1585457D01*
X1963520D02*
X1971520Y1577457D01*
X1951512Y1570567D02*
X1959512Y1578567D01*
X1951512D02*
X1959512Y1570567D01*
X1969622Y1586906D02*
X1977622Y1594906D01*
X1969622D02*
X1977622Y1586906D01*
X1979858Y1585921D02*
X1987858Y1593921D01*
X1979858D02*
X1987858Y1585921D01*
X1971591Y1575291D02*
X1979591Y1583291D01*
X1971591D02*
X1979591Y1575291D01*
X1971787Y1569976D02*
X1979787Y1577976D01*
X1971787D02*
X1979787Y1569976D01*
X1974937Y1588677D02*
X1982937Y1596677D01*
X1974937D02*
X1982937Y1588677D01*
X2002299Y1578047D02*
X2010299Y1586047D01*
X2002299D02*
X2010299Y1578047D01*
X1997772Y1570173D02*
X2005772Y1578173D01*
X1997772D02*
X2005772Y1570173D01*
X1992063Y1570567D02*
X2000063Y1578567D01*
X1992063D02*
X2000063Y1570567D01*
X1992063Y1574110D02*
X2000063Y1582110D01*
X1992063D02*
X2000063Y1574110D01*
X1992063Y1579622D02*
X2000063Y1587622D01*
X1992063D02*
X2000063Y1579622D01*
X1991866Y1587299D02*
X1999866Y1595299D01*
X1991866D02*
X1999866Y1587299D01*
X2021787Y1572339D02*
X2029787Y1580339D01*
X2021787D02*
X2029787Y1572339D01*
X2021787Y1577457D02*
X2029787Y1585457D01*
X2021787D02*
X2029787Y1577457D01*
X2021787Y1582181D02*
X2029787Y1590181D01*
X2021787D02*
X2029787Y1582181D01*
X2021787Y1586906D02*
X2029787Y1594906D01*
X2021787D02*
X2029787Y1586906D01*
X1821394Y1592024D02*
X1829394Y1600024D01*
X1821394D02*
X1829394Y1592024D01*
X1821394Y1596945D02*
X1829394Y1604945D01*
X1821394D02*
X1829394Y1596945D01*
X1821394Y1602260D02*
X1829394Y1610260D01*
X1821394D02*
X1829394Y1602260D01*
X1821394Y1607378D02*
X1829394Y1615378D01*
X1821394D02*
X1829394Y1607378D01*
X1842457Y1600291D02*
X1850457Y1608291D01*
X1842457D02*
X1850457Y1600291D01*
X1842654Y1604031D02*
X1850654Y1612031D01*
X1842654D02*
X1850654Y1604031D01*
X1842457Y1607378D02*
X1850457Y1615378D01*
X1842457D02*
X1850457Y1607378D01*
X1848756Y1591827D02*
X1856756Y1599827D01*
X1848756D02*
X1856756Y1591827D01*
X1850528Y1601276D02*
X1858528Y1609276D01*
X1850528D02*
X1858528Y1601276D01*
X1864110Y1599898D02*
X1872110Y1607898D01*
X1864110D02*
X1872110Y1599898D01*
X1860173Y1605213D02*
X1868173Y1613213D01*
X1860173D02*
X1868173Y1605213D01*
X1852693Y1605606D02*
X1860693Y1613606D01*
X1852693D02*
X1860693Y1605606D01*
X1867063Y1591827D02*
X1875063Y1599827D01*
X1867063D02*
X1875063Y1591827D01*
X1865488Y1604031D02*
X1873488Y1612031D01*
X1865488D02*
X1873488Y1604031D01*
X1856433Y1604425D02*
X1864433Y1612425D01*
X1856433D02*
X1864433Y1604425D01*
X1850331Y1595764D02*
X1858331Y1603764D01*
X1850331D02*
X1858331Y1595764D01*
X1858008D02*
X1866008Y1603764D01*
X1858008D02*
X1866008Y1595764D01*
X1871787Y1591433D02*
X1879787Y1599433D01*
X1871787D02*
X1879787Y1591433D01*
X1876315Y1606591D02*
X1884315Y1614591D01*
X1876315D02*
X1884315Y1606591D01*
X1871787Y1599504D02*
X1879787Y1607504D01*
X1871787D02*
X1879787Y1599504D01*
X1870803Y1607575D02*
X1878803Y1615575D01*
X1870803D02*
X1878803Y1607575D01*
X1873362Y1609543D02*
X1881362Y1617543D01*
X1873362D02*
X1881362Y1609543D01*
X1875921Y1597142D02*
X1883921Y1605142D01*
X1875921D02*
X1883921Y1597142D01*
X1907811Y1592614D02*
X1915811Y1600614D01*
X1907811D02*
X1915811Y1592614D01*
X1906827Y1590055D02*
X1914827Y1598055D01*
X1906827D02*
X1914827Y1590055D01*
X1909583Y1590646D02*
X1917583Y1598646D01*
X1909583D02*
X1917583Y1590646D01*
X1905055Y1603047D02*
X1913055Y1611047D01*
X1905055D02*
X1913055Y1603047D01*
X1905055Y1605606D02*
X1913055Y1613606D01*
X1905055D02*
X1913055Y1605606D01*
X1908598Y1603638D02*
X1916598Y1611638D01*
X1908598D02*
X1916598Y1603638D01*
X1912732Y1592220D02*
X1920732Y1600220D01*
X1912732D02*
X1920732Y1592220D01*
X1922575Y1596354D02*
X1930575Y1604354D01*
X1922575D02*
X1930575Y1596354D01*
X1922378Y1606787D02*
X1930378Y1614787D01*
X1922378D02*
X1930378Y1606787D01*
X1936945Y1596945D02*
X1944945Y1604945D01*
X1936945D02*
X1944945Y1596945D01*
X1940882Y1605213D02*
X1948882Y1613213D01*
X1940882D02*
X1948882Y1605213D01*
X1941472Y1602063D02*
X1949472Y1610063D01*
X1941472D02*
X1949472Y1602063D01*
X1963126Y1606000D02*
X1971126Y1614000D01*
X1963126D02*
X1971126Y1606000D01*
X1986181Y1601295D02*
X1994181Y1609295D01*
X1986181D02*
X1994181Y1601295D01*
X1975134Y1593008D02*
X1983134Y1601008D01*
X1975134D02*
X1983134Y1593008D01*
X1972181Y1591827D02*
X1980181Y1599827D01*
X1972181D02*
X1980181Y1591827D01*
X1977693Y1596354D02*
X1985693Y1604354D01*
X1977693D02*
X1985693Y1596354D01*
X1980843Y1599701D02*
X1988843Y1607701D01*
X1980843D02*
X1988843Y1599701D01*
X1981236Y1604425D02*
X1989236Y1612425D01*
X1981236D02*
X1989236Y1604425D01*
X1972772Y1603244D02*
X1980772Y1611244D01*
X1972772D02*
X1980772Y1603244D01*
X1971394Y1608756D02*
X1979394Y1616756D01*
X1971394D02*
X1979394Y1608756D01*
X2001118Y1592614D02*
X2009118Y1600614D01*
X2001118D02*
X2009118Y1592614D01*
X1996787Y1606000D02*
X2004787Y1614000D01*
X1996787D02*
X2004787Y1606000D01*
X2000921Y1602063D02*
X2008921Y1610063D01*
X2000921D02*
X2008921Y1602063D01*
X2000724Y1597339D02*
X2008724Y1605339D01*
X2000724D02*
X2008724Y1597339D01*
X2001512Y1605803D02*
X2009512Y1613803D01*
X2001512D02*
X2009512Y1605803D01*
X1991276Y1605016D02*
X1999276Y1613016D01*
X1991276D02*
X1999276Y1605016D01*
X1991866Y1595567D02*
X1999866Y1603567D01*
X1991866D02*
X1999866Y1595567D01*
X1991866Y1591433D02*
X1999866Y1599433D01*
X1991866D02*
X1999866Y1591433D01*
X2021591Y1592417D02*
X2029591Y1600417D01*
X2021591D02*
X2029591Y1592417D01*
X2021394Y1601866D02*
X2029394Y1609866D01*
X2021394D02*
X2029394Y1601866D01*
X2021394Y1597142D02*
X2029394Y1605142D01*
X2021394D02*
X2029394Y1597142D01*
X2021394Y1606787D02*
X2029394Y1614787D01*
X2021394D02*
X2029394Y1606787D01*
X1813717Y1615646D02*
X1821717Y1623646D01*
X1813717D02*
X1821717Y1615646D01*
X1822181Y1612496D02*
X1830181Y1620496D01*
X1822181D02*
X1830181Y1612496D01*
X1825748Y1624327D02*
X1833748Y1632327D01*
X1825748D02*
X1833748Y1624327D01*
X1836181Y1629445D02*
X1844181Y1637445D01*
X1836181D02*
X1844181Y1629445D01*
X1848559Y1615843D02*
X1856559Y1623843D01*
X1848559D02*
X1856559Y1615843D01*
X1843244Y1616630D02*
X1851244Y1624630D01*
X1843244D02*
X1851244Y1616630D01*
X1848362Y1613087D02*
X1856362Y1621087D01*
X1848362D02*
X1856362Y1613087D01*
X1843047Y1612496D02*
X1851047Y1620496D01*
X1843047D02*
X1851047Y1612496D01*
X1864504Y1620961D02*
X1872504Y1628961D01*
X1864504D02*
X1872504Y1620961D01*
X1868441Y1620567D02*
X1876441Y1628567D01*
X1868441D02*
X1876441Y1620567D01*
X1882811Y1617024D02*
X1890811Y1625024D01*
X1882811D02*
X1890811Y1617024D01*
X1889898Y1628441D02*
X1897898Y1636441D01*
X1889898D02*
X1897898Y1628441D01*
X1895016Y1615449D02*
X1903016Y1623449D01*
X1895016D02*
X1903016Y1615449D01*
X1891276Y1617614D02*
X1899276Y1625614D01*
X1891276D02*
X1899276Y1617614D01*
X1895016Y1619780D02*
X1903016Y1627780D01*
X1895016D02*
X1903016Y1619780D01*
X1894819Y1624307D02*
X1902819Y1632307D01*
X1894819D02*
X1902819Y1624307D01*
X1891276Y1621354D02*
X1899276Y1629354D01*
X1891276D02*
X1899276Y1621354D01*
X1906236Y1615449D02*
X1914236Y1623449D01*
X1906236D02*
X1914236Y1615449D01*
X1902693D02*
X1910693Y1623449D01*
X1902693D02*
X1910693Y1615449D01*
X1898953Y1615646D02*
X1906953Y1623646D01*
X1898953D02*
X1906953Y1615646D01*
X1919425Y1629228D02*
X1927425Y1637228D01*
X1919425D02*
X1927425Y1629228D01*
X1910961Y1615252D02*
X1918961Y1623252D01*
X1910961D02*
X1918961Y1615252D01*
X1927496Y1617024D02*
X1935496Y1625024D01*
X1927496D02*
X1935496Y1617024D01*
X1922969Y1629228D02*
X1930969Y1637228D01*
X1922969D02*
X1930969Y1629228D01*
X1948756Y1614268D02*
X1956756Y1622268D01*
X1948756D02*
X1956756Y1614268D01*
X1944622Y1618205D02*
X1952622Y1626205D01*
X1944622D02*
X1952622Y1618205D01*
X1931039Y1617417D02*
X1939039Y1625417D01*
X1931039D02*
X1939039Y1617417D01*
X1944622Y1615252D02*
X1952622Y1623252D01*
X1944622D02*
X1952622Y1615252D01*
X1961945Y1615055D02*
X1969945Y1623055D01*
X1961945D02*
X1969945Y1615055D01*
X1955055Y1615646D02*
X1963055Y1623646D01*
X1955055D02*
X1963055Y1615646D01*
X1955646Y1613087D02*
X1963646Y1621087D01*
X1955646D02*
X1963646Y1613087D01*
X1958402Y1612496D02*
X1966402Y1620496D01*
X1958402D02*
X1966402Y1612496D01*
X1968244Y1622732D02*
X1976244Y1630732D01*
X1968244D02*
X1976244Y1622732D01*
X1971394Y1621157D02*
X1979394Y1629157D01*
X1971394D02*
X1979394Y1621157D01*
X1985370Y1621945D02*
X1993370Y1629945D01*
X1985370D02*
X1993370Y1621945D01*
X2008031Y1620193D02*
X2016031Y1628193D01*
X2008031D02*
X2016031Y1620193D01*
X2002299Y1611709D02*
X2010299Y1619709D01*
X2002299D02*
X2010299Y1611709D01*
X2020803Y1611906D02*
X2028803Y1619906D01*
X2020803D02*
X2028803Y1611906D01*
X2025331Y1615646D02*
X2033331Y1623646D01*
X2025331D02*
X2033331Y1615646D01*
X2019031Y1619583D02*
X2027031Y1627583D01*
X2019031D02*
X2027031Y1619583D01*
X2014307Y1614858D02*
X2022307Y1622858D01*
X2014307D02*
X2022307Y1614858D01*
X1868638Y1631000D02*
X1876638Y1639000D01*
X1868638D02*
X1876638Y1631000D01*
X1895213Y1630803D02*
X1903213Y1638803D01*
X1895213D02*
X1903213Y1630803D01*
X1899740Y1630213D02*
X1907740Y1638213D01*
X1899740D02*
X1907740Y1630213D01*
X1927496Y1631000D02*
X1935496Y1639000D01*
X1927496D02*
X1935496Y1631000D01*
X1915882Y1631591D02*
X1923882Y1639591D01*
X1915882D02*
X1923882Y1631591D01*
X1930843D02*
X1938843Y1639591D01*
X1930843D02*
X1938843Y1631591D01*
X1944622Y1630213D02*
X1952622Y1638213D01*
X1944622D02*
X1952622Y1630213D01*
X2007614D02*
X2015614Y1638213D01*
X2007614D02*
X2015614Y1630213D01*
X1847238Y1802219D02*
X1846692Y1802969D01*
X1845874Y1803344*
X1844783*
X1843965Y1802969*
X1843420Y1802219*
Y1801469*
X1843692Y1800719*
X1843965Y1800344*
X1844511Y1799969*
X1846147Y1799219*
X1846692Y1798844*
X1846965Y1798469*
X1847238Y1797719*
Y1796594*
X1846692Y1795844*
X1845874Y1795469*
X1844783*
X1843965Y1795844*
X1843420Y1796594*
X1849692Y1803344D02*
Y1795469D01*
X1855965Y1803344D02*
X1852147Y1795469D01*
Y1803344D02*
X1855965D01*
X1852147Y1795469D02*
X1855965D01*
X1858420Y1803344D02*
Y1795469D01*
Y1803344D02*
X1861965D01*
X1858420Y1799594D02*
X1860601D01*
X1858420Y1795469D02*
X1861965D01*
X1905601Y1803344D02*
X1905056Y1802969D01*
X1904511Y1802219*
X1904238Y1801469*
X1903965Y1800344*
Y1798469*
X1904238Y1797344*
X1904511Y1796594*
X1905056Y1795844*
X1905601Y1795469*
X1906692*
X1907238Y1795844*
X1907783Y1796594*
X1908056Y1797344*
X1908329Y1798469*
Y1800344*
X1908056Y1801469*
X1907783Y1802219*
X1907238Y1802969*
X1906692Y1803344*
X1905601*
X1906420Y1796969D02*
X1908056Y1794719D01*
X1912692Y1803344D02*
Y1795469D01*
X1910783Y1803344D02*
X1914601D01*
X1917056D02*
X1919238Y1799594D01*
Y1795469*
X1921420Y1803344D02*
X1919238Y1799594D01*
X1943783Y1802219D02*
X1943238Y1802969D01*
X1942420Y1803344*
X1941329*
X1940511Y1802969*
X1939965Y1802219*
Y1801469*
X1940238Y1800719*
X1940511Y1800344*
X1941056Y1799969*
X1942692Y1799219*
X1943238Y1798844*
X1943511Y1798469*
X1943783Y1797719*
Y1796594*
X1943238Y1795844*
X1942420Y1795469*
X1941329*
X1940511Y1795844*
X1939965Y1796594*
X1946238Y1803344D02*
X1948420Y1799594D01*
Y1795469*
X1950601Y1803344D02*
X1948420Y1799594D01*
X1953056Y1803344D02*
Y1795469D01*
Y1803344D02*
X1955238Y1795469D01*
X1957420Y1803344D02*
X1955238Y1795469D01*
X1957420Y1803344D02*
Y1795469D01*
X1979238Y1803344D02*
Y1795469D01*
Y1803344D02*
X1981692D01*
X1982511Y1802969*
X1982783Y1802594*
X1983056Y1801844*
Y1800719*
X1982783Y1799969*
X1982511Y1799594*
X1981692Y1799219*
X1979238*
X1985511Y1803344D02*
Y1795469D01*
X1988783*
X1993420Y1803344D02*
X1991238Y1795469D01*
X1993420Y1803344D02*
X1995601Y1795469D01*
X1992056Y1798094D02*
X1994783D01*
X1999965Y1803344D02*
Y1795469D01*
X1998056Y1803344D02*
X2001874D01*
X2004329D02*
Y1795469D01*
Y1803344D02*
X2007874D01*
X2004329Y1799594D02*
X2006511D01*
X2004329Y1795469D02*
X2007874D01*
X2010329Y1803344D02*
Y1795469D01*
Y1803344D02*
X2012238D01*
X2013056Y1802969*
X2013601Y1802219*
X2013874Y1801469*
X2014147Y1800344*
Y1798469*
X2013874Y1797344*
X2013601Y1796594*
X2013056Y1795844*
X2012238Y1795469*
X2010329*
X2038420Y1803344D02*
Y1795469D01*
X2036511Y1803344D02*
X2040329D01*
X2044420D02*
X2043874Y1802969D01*
X2043329Y1802219*
X2043056Y1801469*
X2042783Y1800344*
Y1798469*
X2043056Y1797344*
X2043329Y1796594*
X2043874Y1795844*
X2044420Y1795469*
X2045511*
X2046056Y1795844*
X2046601Y1796594*
X2046874Y1797344*
X2047147Y1798469*
Y1800344*
X2046874Y1801469*
X2046601Y1802219*
X2046056Y1802969*
X2045511Y1803344*
X2044420*
X2049601D02*
Y1795469D01*
X2052874*
X1817911Y1777469D02*
Y1777844D01*
X1818183Y1778594*
X1818456Y1778969*
X1819001Y1779344*
X1820092*
X1820638Y1778969*
X1820911Y1778594*
X1821183Y1777844*
Y1777094*
X1820911Y1776344*
X1820365Y1775219*
X1817638Y1771469*
X1821456*
X1824183Y1772219D02*
X1823911Y1771844D01*
X1824183Y1771469*
X1824456Y1771844*
X1824183Y1772219*
X1830183Y1778219D02*
X1829911Y1778969D01*
X1829092Y1779344*
X1828547*
X1827729Y1778969*
X1827183Y1777844*
X1826911Y1775969*
Y1774094*
X1827183Y1772594*
X1827729Y1771844*
X1828547Y1771469*
X1828820*
X1829638Y1771844*
X1830183Y1772594*
X1830456Y1773719*
Y1774094*
X1830183Y1775219*
X1829638Y1775969*
X1828820Y1776344*
X1828547*
X1827729Y1775969*
X1827183Y1775219*
X1826911Y1774094*
X1911329Y1779344D02*
X1914329D01*
X1912692Y1776344*
X1913511*
X1914056Y1775969*
X1914329Y1775594*
X1914601Y1774469*
Y1773719*
X1914329Y1772594*
X1913783Y1771844*
X1912965Y1771469*
X1912147*
X1911329Y1771844*
X1911056Y1772219*
X1910783Y1772969*
X1943638Y1777469D02*
X1955638D01*
X1949638Y1771469D02*
Y1783469D01*
X1979374Y1779344D02*
Y1771469D01*
Y1779344D02*
X1983192Y1771469D01*
Y1779344D02*
Y1771469D01*
X1987283Y1779344D02*
X1986738Y1778969D01*
X1986192Y1778219*
X1985920Y1777469*
X1985647Y1776344*
Y1774469*
X1985920Y1773344*
X1986192Y1772594*
X1986738Y1771844*
X1987283Y1771469*
X1988374*
X1988920Y1771844*
X1989465Y1772594*
X1989738Y1773344*
X1990011Y1774469*
Y1776344*
X1989738Y1777469*
X1989465Y1778219*
X1988920Y1778969*
X1988374Y1779344*
X1987283*
X2029556Y1778219D02*
Y1771469D01*
X2027101Y1774844D02*
X2032011D01*
X2039374Y1780844D02*
X2034465Y1768844D01*
X2041829Y1774844D02*
X2046738D01*
X2050829Y1779344D02*
X2050011Y1778969D01*
X2049465Y1777844*
X2049192Y1775969*
Y1774844*
X2049465Y1772969*
X2050011Y1771844*
X2050829Y1771469*
X2051374*
X2052192Y1771844*
X2052738Y1772969*
X2053011Y1774844*
Y1775969*
X2052738Y1777844*
X2052192Y1778969*
X2051374Y1779344*
X2050829*
X2055738Y1772219D02*
X2055465Y1771844D01*
X2055738Y1771469*
X2056011Y1771844*
X2055738Y1772219*
X2060101Y1779344D02*
X2059283Y1778969D01*
X2058738Y1777844*
X2058465Y1775969*
Y1774844*
X2058738Y1772969*
X2059283Y1771844*
X2060101Y1771469*
X2060647*
X2061465Y1771844*
X2062011Y1772969*
X2062283Y1774844*
Y1775969*
X2062011Y1777844*
X2061465Y1778969*
X2060647Y1779344*
X2060101*
X1819274Y1755344D02*
X1818456Y1754969D01*
X1817911Y1753844*
X1817638Y1751969*
Y1750844*
X1817911Y1748969*
X1818456Y1747844*
X1819274Y1747469*
X1819820*
X1820638Y1747844*
X1821183Y1748969*
X1821456Y1750844*
Y1751969*
X1821183Y1753844*
X1820638Y1754969*
X1819820Y1755344*
X1819274*
X1824183Y1748219D02*
X1823911Y1747844D01*
X1824183Y1747469*
X1824456Y1747844*
X1824183Y1748219*
X1827183Y1753469D02*
Y1753844D01*
X1827456Y1754594*
X1827729Y1754969*
X1828274Y1755344*
X1829365*
X1829911Y1754969*
X1830183Y1754594*
X1830456Y1753844*
Y1753094*
X1830183Y1752344*
X1829638Y1751219*
X1826911Y1747469*
X1830729*
X1836729Y1755344D02*
X1834001D01*
X1833729Y1751969*
X1834001Y1752344*
X1834820Y1752719*
X1835638*
X1836456Y1752344*
X1837001Y1751594*
X1837274Y1750469*
X1837001Y1749719*
X1836729Y1748594*
X1836183Y1747844*
X1835365Y1747469*
X1834547*
X1833729Y1747844*
X1833456Y1748219*
X1833183Y1748969*
X1904783Y1753469D02*
Y1753844D01*
X1905056Y1754594*
X1905329Y1754969*
X1905874Y1755344*
X1906965*
X1907511Y1754969*
X1907783Y1754594*
X1908056Y1753844*
Y1753094*
X1907783Y1752344*
X1907238Y1751219*
X1904511Y1747469*
X1908329*
X1914601Y1755344D02*
X1911874Y1747469D01*
X1910783Y1755344D02*
X1914601D01*
X1918692D02*
X1917874Y1754969D01*
X1917329Y1753844*
X1917056Y1751969*
Y1750844*
X1917329Y1748969*
X1917874Y1747844*
X1918692Y1747469*
X1919238*
X1920056Y1747844*
X1920601Y1748969*
X1920874Y1750844*
Y1751969*
X1920601Y1753844*
X1920056Y1754969*
X1919238Y1755344*
X1918692*
X1943638Y1747469D02*
X1955638Y1759469D01*
X1943638D02*
X1955638Y1747469D01*
X1976374Y1755344D02*
X1978556Y1751594D01*
Y1747469*
X1980738Y1755344D02*
X1978556Y1751594D01*
X1983192Y1755344D02*
Y1747469D01*
Y1755344D02*
X1986738D01*
X1983192Y1751594D02*
X1985374D01*
X1983192Y1747469D02*
X1986738D01*
X1993011Y1754219D02*
X1992465Y1754969D01*
X1991647Y1755344*
X1990556*
X1989738Y1754969*
X1989192Y1754219*
Y1753469*
X1989465Y1752719*
X1989738Y1752344*
X1990283Y1751969*
X1991920Y1751219*
X1992465Y1750844*
X1992738Y1750469*
X1993011Y1749719*
Y1748594*
X1992465Y1747844*
X1991647Y1747469*
X1990556*
X1989738Y1747844*
X1989192Y1748594*
X2029556Y1754219D02*
Y1747469D01*
X2027101Y1750844D02*
X2032011D01*
X2039374Y1756844D02*
X2034465Y1744844D01*
X2041829Y1750844D02*
X2046738D01*
X2050829Y1755344D02*
X2050011Y1754969D01*
X2049465Y1753844*
X2049192Y1751969*
Y1750844*
X2049465Y1748969*
X2050011Y1747844*
X2050829Y1747469*
X2051374*
X2052192Y1747844*
X2052738Y1748969*
X2053011Y1750844*
Y1751969*
X2052738Y1753844*
X2052192Y1754969*
X2051374Y1755344*
X2050829*
X2055738Y1748219D02*
X2055465Y1747844D01*
X2055738Y1747469*
X2056011Y1747844*
X2055738Y1748219*
X2060101Y1755344D02*
X2059283Y1754969D01*
X2058738Y1753844*
X2058465Y1751969*
Y1750844*
X2058738Y1748969*
X2059283Y1747844*
X2060101Y1747469*
X2060647*
X2061465Y1747844*
X2062011Y1748969*
X2062283Y1750844*
Y1751969*
X2062011Y1753844*
X2061465Y1754969*
X2060647Y1755344*
X2060101*
X1817638Y1729844D02*
X1818183Y1730219D01*
X1819001Y1731344*
Y1723469*
X1821729Y1724219D02*
X1821456Y1723844D01*
X1821729Y1723469*
X1822001Y1723844*
X1821729Y1724219*
X1824456Y1729844D02*
X1825001Y1730219D01*
X1825820Y1731344*
Y1723469*
X1831820Y1728719D02*
X1831547Y1727594D01*
X1831001Y1726844*
X1830183Y1726469*
X1829911*
X1829092Y1726844*
X1828547Y1727594*
X1828274Y1728719*
Y1729094*
X1828547Y1730219*
X1829092Y1730969*
X1829911Y1731344*
X1830183*
X1831001Y1730969*
X1831547Y1730219*
X1831820Y1728719*
Y1726844*
X1831547Y1724969*
X1831001Y1723844*
X1830183Y1723469*
X1829638*
X1828820Y1723844*
X1828547Y1724594*
X1834820Y1731344D02*
X1837820D01*
X1836183Y1728344*
X1837001*
X1837547Y1727969*
X1837820Y1727594*
X1838092Y1726469*
Y1725719*
X1837820Y1724594*
X1837274Y1723844*
X1836456Y1723469*
X1835638*
X1834820Y1723844*
X1834547Y1724219*
X1834274Y1724969*
X1841911Y1731344D02*
X1841092Y1730969D01*
X1840820Y1730219*
Y1729469*
X1841092Y1728719*
X1841638Y1728344*
X1842729Y1727969*
X1843547Y1727594*
X1844092Y1726844*
X1844365Y1726094*
Y1724969*
X1844092Y1724219*
X1843820Y1723844*
X1843001Y1723469*
X1841911*
X1841092Y1723844*
X1840820Y1724219*
X1840547Y1724969*
Y1726094*
X1840820Y1726844*
X1841365Y1727594*
X1842183Y1727969*
X1843274Y1728344*
X1843820Y1728719*
X1844092Y1729469*
Y1730219*
X1843820Y1730969*
X1843001Y1731344*
X1841911*
X1912147D02*
X1911329Y1730969D01*
X1911056Y1730219*
Y1729469*
X1911329Y1728719*
X1911874Y1728344*
X1912965Y1727969*
X1913783Y1727594*
X1914329Y1726844*
X1914601Y1726094*
Y1724969*
X1914329Y1724219*
X1914056Y1723844*
X1913238Y1723469*
X1912147*
X1911329Y1723844*
X1911056Y1724219*
X1910783Y1724969*
Y1726094*
X1911056Y1726844*
X1911601Y1727594*
X1912420Y1727969*
X1913511Y1728344*
X1914056Y1728719*
X1914329Y1729469*
Y1730219*
X1914056Y1730969*
X1913238Y1731344*
X1912147*
X1943638Y1723469D02*
X1955638D01*
Y1735469*
X1943638*
Y1723469*
X1949638Y1729469D02*
Y1735469D01*
X1976374Y1731344D02*
X1978556Y1727594D01*
Y1723469*
X1980738Y1731344D02*
X1978556Y1727594D01*
X1983192Y1731344D02*
Y1723469D01*
Y1731344D02*
X1986738D01*
X1983192Y1727594D02*
X1985374D01*
X1983192Y1723469D02*
X1986738D01*
X1993011Y1730219D02*
X1992465Y1730969D01*
X1991647Y1731344*
X1990556*
X1989738Y1730969*
X1989192Y1730219*
Y1729469*
X1989465Y1728719*
X1989738Y1728344*
X1990283Y1727969*
X1991920Y1727219*
X1992465Y1726844*
X1992738Y1726469*
X1993011Y1725719*
Y1724594*
X1992465Y1723844*
X1991647Y1723469*
X1990556*
X1989738Y1723844*
X1989192Y1724594*
X2029556Y1730219D02*
Y1723469D01*
X2027101Y1726844D02*
X2032011D01*
X2039374Y1732844D02*
X2034465Y1720844D01*
X2041829Y1726844D02*
X2046738D01*
X2050829Y1731344D02*
X2050011Y1730969D01*
X2049465Y1729844*
X2049192Y1727969*
Y1726844*
X2049465Y1724969*
X2050011Y1723844*
X2050829Y1723469*
X2051374*
X2052192Y1723844*
X2052738Y1724969*
X2053011Y1726844*
Y1727969*
X2052738Y1729844*
X2052192Y1730969*
X2051374Y1731344*
X2050829*
X2055738Y1724219D02*
X2055465Y1723844D01*
X2055738Y1723469*
X2056011Y1723844*
X2055738Y1724219*
X2060101Y1731344D02*
X2059283Y1730969D01*
X2058738Y1729844*
X2058465Y1727969*
Y1726844*
X2058738Y1724969*
X2059283Y1723844*
X2060101Y1723469*
X2060647*
X2061465Y1723844*
X2062011Y1724969*
X2062283Y1726844*
Y1727969*
X2062011Y1729844*
X2061465Y1730969*
X2060647Y1731344*
X2060101*
X1817638Y1705844D02*
X1818183Y1706219D01*
X1819001Y1707344*
Y1699469*
X1821729Y1700219D02*
X1821456Y1699844D01*
X1821729Y1699469*
X1822001Y1699844*
X1821729Y1700219*
X1827183Y1707344D02*
X1824456Y1702094D01*
X1828547*
X1827183Y1707344D02*
Y1699469D01*
X1834547Y1704719D02*
X1834274Y1703594D01*
X1833729Y1702844*
X1832911Y1702469*
X1832638*
X1831820Y1702844*
X1831274Y1703594*
X1831001Y1704719*
Y1705094*
X1831274Y1706219*
X1831820Y1706969*
X1832638Y1707344*
X1832911*
X1833729Y1706969*
X1834274Y1706219*
X1834547Y1704719*
Y1702844*
X1834274Y1700969*
X1833729Y1699844*
X1832911Y1699469*
X1832365*
X1831547Y1699844*
X1831274Y1700594*
X1838365Y1707344D02*
X1837547Y1706969D01*
X1837274Y1706219*
Y1705469*
X1837547Y1704719*
X1838092Y1704344*
X1839183Y1703969*
X1840001Y1703594*
X1840547Y1702844*
X1840820Y1702094*
Y1700969*
X1840547Y1700219*
X1840274Y1699844*
X1839456Y1699469*
X1838365*
X1837547Y1699844*
X1837274Y1700219*
X1837001Y1700969*
Y1702094*
X1837274Y1702844*
X1837820Y1703594*
X1838638Y1703969*
X1839729Y1704344*
X1840274Y1704719*
X1840547Y1705469*
Y1706219*
X1840274Y1706969*
X1839456Y1707344*
X1838365*
X1846547Y1706219D02*
X1846274Y1706969D01*
X1845456Y1707344*
X1844911*
X1844092Y1706969*
X1843547Y1705844*
X1843274Y1703969*
Y1702094*
X1843547Y1700594*
X1844092Y1699844*
X1844911Y1699469*
X1845183*
X1846001Y1699844*
X1846547Y1700594*
X1846820Y1701719*
Y1702094*
X1846547Y1703219*
X1846001Y1703969*
X1845183Y1704344*
X1844911*
X1844092Y1703969*
X1843547Y1703219*
X1843274Y1702094*
X1908329Y1707344D02*
X1911329D01*
X1909692Y1704344*
X1910511*
X1911056Y1703969*
X1911329Y1703594*
X1911601Y1702469*
Y1701719*
X1911329Y1700594*
X1910783Y1699844*
X1909965Y1699469*
X1909147*
X1908329Y1699844*
X1908056Y1700219*
X1907783Y1700969*
X1917329Y1706219D02*
X1917056Y1706969D01*
X1916238Y1707344*
X1915692*
X1914874Y1706969*
X1914329Y1705844*
X1914056Y1703969*
Y1702094*
X1914329Y1700594*
X1914874Y1699844*
X1915692Y1699469*
X1915965*
X1916783Y1699844*
X1917329Y1700594*
X1917601Y1701719*
Y1702094*
X1917329Y1703219*
X1916783Y1703969*
X1915965Y1704344*
X1915692*
X1914874Y1703969*
X1914329Y1703219*
X1914056Y1702094*
X1949638Y1699469D02*
X1955638Y1705469D01*
X1949638Y1711469*
X1943638Y1705469*
X1949638Y1699469*
Y1705469D02*
Y1711469D01*
X1976374Y1707344D02*
X1978556Y1703594D01*
Y1699469*
X1980738Y1707344D02*
X1978556Y1703594D01*
X1983192Y1707344D02*
Y1699469D01*
Y1707344D02*
X1986738D01*
X1983192Y1703594D02*
X1985374D01*
X1983192Y1699469D02*
X1986738D01*
X1993011Y1706219D02*
X1992465Y1706969D01*
X1991647Y1707344*
X1990556*
X1989738Y1706969*
X1989192Y1706219*
Y1705469*
X1989465Y1704719*
X1989738Y1704344*
X1990283Y1703969*
X1991920Y1703219*
X1992465Y1702844*
X1992738Y1702469*
X1993011Y1701719*
Y1700594*
X1992465Y1699844*
X1991647Y1699469*
X1990556*
X1989738Y1699844*
X1989192Y1700594*
X2029556Y1706219D02*
Y1699469D01*
X2027101Y1702844D02*
X2032011D01*
X2039374Y1708844D02*
X2034465Y1696844D01*
X2041829Y1702844D02*
X2046738D01*
X2050829Y1707344D02*
X2050011Y1706969D01*
X2049465Y1705844*
X2049192Y1703969*
Y1702844*
X2049465Y1700969*
X2050011Y1699844*
X2050829Y1699469*
X2051374*
X2052192Y1699844*
X2052738Y1700969*
X2053011Y1702844*
Y1703969*
X2052738Y1705844*
X2052192Y1706969*
X2051374Y1707344*
X2050829*
X2055738Y1700219D02*
X2055465Y1699844D01*
X2055738Y1699469*
X2056011Y1699844*
X2055738Y1700219*
X2060101Y1707344D02*
X2059283Y1706969D01*
X2058738Y1705844*
X2058465Y1703969*
Y1702844*
X2058738Y1700969*
X2059283Y1699844*
X2060101Y1699469*
X2060647*
X2061465Y1699844*
X2062011Y1700969*
X2062283Y1702844*
Y1703969*
X2062011Y1705844*
X2061465Y1706969*
X2060647Y1707344*
X2060101*
X1817911Y1681469D02*
Y1681844D01*
X1818183Y1682594*
X1818456Y1682969*
X1819001Y1683344*
X1820092*
X1820638Y1682969*
X1820911Y1682594*
X1821183Y1681844*
Y1681094*
X1820911Y1680344*
X1820365Y1679219*
X1817638Y1675469*
X1821456*
X1824183Y1676219D02*
X1823911Y1675844D01*
X1824183Y1675469*
X1824456Y1675844*
X1824183Y1676219*
X1830183Y1682219D02*
X1829911Y1682969D01*
X1829092Y1683344*
X1828547*
X1827729Y1682969*
X1827183Y1681844*
X1826911Y1679969*
Y1678094*
X1827183Y1676594*
X1827729Y1675844*
X1828547Y1675469*
X1828820*
X1829638Y1675844*
X1830183Y1676594*
X1830456Y1677719*
Y1678094*
X1830183Y1679219*
X1829638Y1679969*
X1828820Y1680344*
X1828547*
X1827729Y1679969*
X1827183Y1679219*
X1826911Y1678094*
X1912011Y1681844D02*
X1912556Y1682219D01*
X1913374Y1683344*
Y1675469*
X1943638D02*
X1955638D01*
X1943638Y1687469*
X1955638*
X1943638Y1675469*
X1976374Y1683344D02*
X1978556Y1679594D01*
Y1675469*
X1980738Y1683344D02*
X1978556Y1679594D01*
X1983192Y1683344D02*
Y1675469D01*
Y1683344D02*
X1986738D01*
X1983192Y1679594D02*
X1985374D01*
X1983192Y1675469D02*
X1986738D01*
X1993011Y1682219D02*
X1992465Y1682969D01*
X1991647Y1683344*
X1990556*
X1989738Y1682969*
X1989192Y1682219*
Y1681469*
X1989465Y1680719*
X1989738Y1680344*
X1990283Y1679969*
X1991920Y1679219*
X1992465Y1678844*
X1992738Y1678469*
X1993011Y1677719*
Y1676594*
X1992465Y1675844*
X1991647Y1675469*
X1990556*
X1989738Y1675844*
X1989192Y1676594*
X2029556Y1682219D02*
Y1675469D01*
X2027101Y1678844D02*
X2032011D01*
X2039374Y1684844D02*
X2034465Y1672844D01*
X2041829Y1678844D02*
X2046738D01*
X2050829Y1683344D02*
X2050011Y1682969D01*
X2049465Y1681844*
X2049192Y1679969*
Y1678844*
X2049465Y1676969*
X2050011Y1675844*
X2050829Y1675469*
X2051374*
X2052192Y1675844*
X2052738Y1676969*
X2053011Y1678844*
Y1679969*
X2052738Y1681844*
X2052192Y1682969*
X2051374Y1683344*
X2050829*
X2055738Y1676219D02*
X2055465Y1675844D01*
X2055738Y1675469*
X2056011Y1675844*
X2055738Y1676219*
X2060101Y1683344D02*
X2059283Y1682969D01*
X2058738Y1681844*
X2058465Y1679969*
Y1678844*
X2058738Y1676969*
X2059283Y1675844*
X2060101Y1675469*
X2060647*
X2061465Y1675844*
X2062011Y1676969*
X2062283Y1678844*
Y1679969*
X2062011Y1681844*
X2061465Y1682969*
X2060647Y1683344*
X2060101*
G54D70*
G74*
X0Y0D02*
M02*
