*
*
G04 PADS Layout (Build Number 2007.21.1) generated Gerber (RS-274-X) file*
G04 PC Version=2.1*
*
%IN "2FOC-002.pcb"*%
*
%MOIN*%
*
%FSLAX35Y35*%
*
*
*
*
G04 PC Standard Apertures*
*
*
G04 Thermal Relief Aperture macro.*
%AMTER*
1,1,$1,0,0*
1,0,$1-$2,0,0*
21,0,$3,$4,0,0,45*
21,0,$3,$4,0,0,135*
%
*
*
G04 Annular Aperture macro.*
%AMANN*
1,1,$1,0,0*
1,0,$2,0,0*
%
*
*
G04 Odd Aperture macro.*
%AMODD*
1,1,$1,0,0*
1,0,$1-0.005,0,0*
%
*
*
G04 PC Custom Aperture Macros*
*
*
*
*
*
*
G04 PC Aperture Table*
*
%ADD010C,0.01*%
%ADD015C,0.008*%
%ADD016R,0.035X0.024*%
%ADD019R,0.024X0.035*%
%ADD027R,0.06X0.052*%
%ADD028R,0.075X0.084*%
%ADD029C,0.085*%
%ADD035C,0.04*%
%ADD037C,0.05*%
%ADD043R,0.025X0.025*%
%ADD048R,0.16X0.076*%
%ADD070C,0.001*%
%ADD072R,0.02756X0.02756*%
%ADD073R,0.08268X0.08268*%
%ADD076R,0.01575X0.01575*%
%ADD077R,0.10236X0.10236*%
%ADD079R,0.07992X0.07992*%
%ADD080R,0.02992X0.02992*%
%ADD082C,0.01181*%
%ADD083C,0.00787*%
%ADD084C,0.05906*%
%ADD086C,0.01575*%
%ADD087C,0.01969*%
%ADD089C,0.07087*%
%ADD093R,0.02362X0.02362*%
%ADD094R,0.01378X0.01378*%
%ADD095R,0.14567X0.14567*%
%ADD096R,0.05906X0.05906*%
%ADD097R,0.017X0.017*%
%ADD098R,0.021X0.021*%
%ADD099C,0.01299*%
%ADD122C,0.10236*%
%ADD123C,0.14961*%
%ADD124C,0.1063*%
%ADD126R,0.03937X0.03937*%
*
*
*
*
G04 PC Circuitry*
G04 Layer Name 2FOC-002.pcb - circuitry*
%LPD*%
*
*
G04 PC Custom Flashes*
G04 Layer Name 2FOC-002.pcb - flashes*
%LPD*%
*
*
G04 PC Circuitry*
G04 Layer Name 2FOC-002.pcb - circuitry*
%LPD*%
*
G54D10*
G01X2234449Y1436051D02*
Y1429488D01*
Y1436051D02*
X2232403D01*
X2231722Y1435738*
X2231494Y1435426*
X2231267Y1434801*
Y1434176*
X2231494Y1433551*
X2231722Y1433238*
X2232403Y1432926*
X2234449D02*
X2232403D01*
X2231722Y1432613*
X2231494Y1432301*
X2231267Y1431676*
Y1430738*
X2231494Y1430113*
X2231722Y1429801*
X2232403Y1429488*
X2234449*
X2227858Y1436051D02*
X2228312Y1435738D01*
X2228767Y1435113*
X2228994Y1434488*
X2229222Y1433551*
Y1431988*
X2228994Y1431051*
X2228767Y1430426*
X2228312Y1429801*
X2227858Y1429488*
X2226949*
X2226494Y1429801*
X2226040Y1430426*
X2225812Y1431051*
X2225585Y1431988*
Y1433551*
X2225812Y1434488*
X2226040Y1435113*
X2226494Y1435738*
X2226949Y1436051*
X2227858*
X2221949D02*
Y1429488D01*
X2223540Y1436051D02*
X2220358D01*
X2216722D02*
Y1429488D01*
X2218312Y1436051D02*
X2215131D01*
X2211722D02*
X2212176Y1435738D01*
X2212631Y1435113*
X2212858Y1434488*
X2213085Y1433551*
Y1431988*
X2212858Y1431051*
X2212631Y1430426*
X2212176Y1429801*
X2211722Y1429488*
X2210812*
X2210358Y1429801*
X2209903Y1430426*
X2209676Y1431051*
X2209449Y1431988*
Y1433551*
X2209676Y1434488*
X2209903Y1435113*
X2210358Y1435738*
X2210812Y1436051*
X2211722*
X2207403D02*
Y1429488D01*
Y1436051D02*
X2205585Y1429488D01*
X2203767Y1436051D02*
X2205585Y1429488D01*
X2203767Y1436051D02*
Y1429488D01*
X2193085Y1434488D02*
X2193312Y1435113D01*
X2193767Y1435738*
X2194222Y1436051*
X2195131*
X2195585Y1435738*
X2196040Y1435113*
X2196267Y1434488*
X2196494Y1433551*
Y1431988*
X2196267Y1431051*
X2196040Y1430426*
X2195585Y1429801*
X2195131Y1429488*
X2194222*
X2193767Y1429801*
X2193312Y1430426*
X2193085Y1431051*
X2189676Y1436051D02*
X2190131Y1435738D01*
X2190585Y1435113*
X2190812Y1434488*
X2191040Y1433551*
Y1431988*
X2190812Y1431051*
X2190585Y1430426*
X2190131Y1429801*
X2189676Y1429488*
X2188767*
X2188312Y1429801*
X2187858Y1430426*
X2187631Y1431051*
X2187403Y1431988*
Y1433551*
X2187631Y1434488*
X2187858Y1435113*
X2188312Y1435738*
X2188767Y1436051*
X2189676*
X2185358D02*
Y1429488D01*
Y1436051D02*
X2183312D01*
X2182631Y1435738*
X2182403Y1435426*
X2182176Y1434801*
Y1433863*
X2182403Y1433238*
X2182631Y1432926*
X2183312Y1432613*
X2185358*
X2180131Y1436051D02*
Y1429488D01*
Y1436051D02*
X2178085D01*
X2177403Y1435738*
X2177176Y1435426*
X2176949Y1434801*
Y1433863*
X2177176Y1433238*
X2177403Y1432926*
X2178085Y1432613*
X2180131*
X2174903Y1436051D02*
Y1429488D01*
Y1436051D02*
X2171949D01*
X2174903Y1432926D02*
X2173085D01*
X2174903Y1429488D02*
X2171949D01*
X2169903Y1436051D02*
Y1429488D01*
Y1436051D02*
X2167858D01*
X2167176Y1435738*
X2166949Y1435426*
X2166722Y1434801*
Y1434176*
X2166949Y1433551*
X2167176Y1433238*
X2167858Y1432926*
X2169903*
X2168312D02*
X2166722Y1429488D01*
X1759252Y1394122D02*
Y1387559D01*
Y1394122D02*
X1761297D01*
X1761979Y1393809*
X1762207Y1393497*
X1762434Y1392872*
Y1392247*
X1762207Y1391622*
X1761979Y1391309*
X1761297Y1390997*
X1759252D02*
X1761297D01*
X1761979Y1390684*
X1762207Y1390372*
X1762434Y1389747*
Y1388809*
X1762207Y1388184*
X1761979Y1387872*
X1761297Y1387559*
X1759252*
X1765843Y1394122D02*
X1765388Y1393809D01*
X1764934Y1393184*
X1764707Y1392559*
X1764479Y1391622*
Y1390059*
X1764707Y1389122*
X1764934Y1388497*
X1765388Y1387872*
X1765843Y1387559*
X1766752*
X1767207Y1387872*
X1767661Y1388497*
X1767888Y1389122*
X1768116Y1390059*
Y1391622*
X1767888Y1392559*
X1767661Y1393184*
X1767207Y1393809*
X1766752Y1394122*
X1765843*
X1771979D02*
X1770161Y1387559D01*
X1771979Y1394122D02*
X1773797Y1387559D01*
X1770843Y1389747D02*
X1773116D01*
X1775843Y1394122D02*
Y1387559D01*
Y1394122D02*
X1777888D01*
X1778570Y1393809*
X1778797Y1393497*
X1779025Y1392872*
Y1392247*
X1778797Y1391622*
X1778570Y1391309*
X1777888Y1390997*
X1775843*
X1777434D02*
X1779025Y1387559D01*
X1781070Y1394122D02*
Y1387559D01*
Y1394122D02*
X1782661D01*
X1783343Y1393809*
X1783797Y1393184*
X1784025Y1392559*
X1784252Y1391622*
Y1390059*
X1784025Y1389122*
X1783797Y1388497*
X1783343Y1387872*
X1782661Y1387559*
X1781070*
X1793116Y1394122D02*
Y1387559D01*
X1791525Y1394122D02*
X1794707D01*
X1796752D02*
Y1387559D01*
X1799934Y1394122D02*
Y1387559D01*
X1796752Y1390997D02*
X1799934D01*
X1801979Y1394122D02*
Y1387559D01*
X1807434Y1392559D02*
X1807207Y1393184D01*
X1806752Y1393809*
X1806297Y1394122*
X1805388*
X1804934Y1393809*
X1804479Y1393184*
X1804252Y1392559*
X1804025Y1391622*
Y1390059*
X1804252Y1389122*
X1804479Y1388497*
X1804934Y1387872*
X1805388Y1387559*
X1806297*
X1806752Y1387872*
X1807207Y1388497*
X1807434Y1389122*
X1809479Y1394122D02*
Y1387559D01*
X1812661Y1394122D02*
X1809479Y1389747D01*
X1810616Y1391309D02*
X1812661Y1387559D01*
X1814707Y1394122D02*
Y1387559D01*
Y1394122D02*
X1817888Y1387559D01*
Y1394122D02*
Y1387559D01*
X1819934Y1394122D02*
Y1387559D01*
Y1394122D02*
X1822888D01*
X1819934Y1390997D02*
X1821752D01*
X1819934Y1387559D02*
X1822888D01*
X1828116Y1393184D02*
X1827661Y1393809D01*
X1826979Y1394122*
X1826070*
X1825388Y1393809*
X1824934Y1393184*
Y1392559*
X1825161Y1391934*
X1825388Y1391622*
X1825843Y1391309*
X1827207Y1390684*
X1827661Y1390372*
X1827888Y1390059*
X1828116Y1389434*
Y1388497*
X1827661Y1387872*
X1826979Y1387559*
X1826070*
X1825388Y1387872*
X1824934Y1388497*
X1833343Y1393184D02*
X1832888Y1393809D01*
X1832207Y1394122*
X1831297*
X1830616Y1393809*
X1830161Y1393184*
Y1392559*
X1830388Y1391934*
X1830616Y1391622*
X1831070Y1391309*
X1832434Y1390684*
X1832888Y1390372*
X1833116Y1390059*
X1833343Y1389434*
Y1388497*
X1832888Y1387872*
X1832207Y1387559*
X1831297*
X1830616Y1387872*
X1830161Y1388497*
X1840616Y1392872D02*
X1841070Y1393184D01*
X1841752Y1394122*
Y1387559*
X1844025Y1388184D02*
X1843797Y1387872D01*
X1844025Y1387559*
X1844252Y1387872*
X1844025Y1388184*
X1849025Y1393184D02*
X1848797Y1393809D01*
X1848116Y1394122*
X1847661*
X1846979Y1393809*
X1846525Y1392872*
X1846297Y1391309*
Y1389747*
X1846525Y1388497*
X1846979Y1387872*
X1847661Y1387559*
X1847888*
X1848570Y1387872*
X1849025Y1388497*
X1849252Y1389434*
Y1389747*
X1849025Y1390684*
X1848570Y1391309*
X1847888Y1391622*
X1847661*
X1846979Y1391309*
X1846525Y1390684*
X1846297Y1389747*
X1851297Y1391934D02*
Y1387559D01*
Y1390684D02*
X1851979Y1391622D01*
X1852434Y1391934*
X1853116*
X1853570Y1391622*
X1853797Y1390684*
Y1387559*
Y1390684D02*
X1854479Y1391622D01*
X1854934Y1391934*
X1855616*
X1856070Y1391622*
X1856297Y1390684*
Y1387559*
X1858343Y1391934D02*
Y1387559D01*
Y1390684D02*
X1859025Y1391622D01*
X1859479Y1391934*
X1860161*
X1860616Y1391622*
X1860843Y1390684*
Y1387559*
Y1390684D02*
X1861525Y1391622D01*
X1861979Y1391934*
X1862661*
X1863116Y1391622*
X1863343Y1390684*
Y1387559*
X1865843Y1387872D02*
X1865616Y1387559D01*
X1865388Y1387872*
X1865616Y1388184*
X1865843Y1387872*
Y1387247*
X1865616Y1386622*
X1865388Y1386309*
X1876525Y1392559D02*
X1876297Y1393184D01*
X1875843Y1393809*
X1875388Y1394122*
X1874479*
X1874025Y1393809*
X1873570Y1393184*
X1873343Y1392559*
X1873116Y1391622*
Y1390059*
X1873343Y1389122*
X1873570Y1388497*
X1874025Y1387872*
X1874479Y1387559*
X1875388*
X1875843Y1387872*
X1876297Y1388497*
X1876525Y1389122*
X1879934Y1394122D02*
X1879479Y1393809D01*
X1879025Y1393184*
X1878797Y1392559*
X1878570Y1391622*
Y1390059*
X1878797Y1389122*
X1879025Y1388497*
X1879479Y1387872*
X1879934Y1387559*
X1880843*
X1881297Y1387872*
X1881752Y1388497*
X1881979Y1389122*
X1882207Y1390059*
Y1391622*
X1881979Y1392559*
X1881752Y1393184*
X1881297Y1393809*
X1880843Y1394122*
X1879934*
X1884252D02*
Y1387559D01*
Y1394122D02*
X1886297D01*
X1886979Y1393809*
X1887207Y1393497*
X1887434Y1392872*
Y1391934*
X1887207Y1391309*
X1886979Y1390997*
X1886297Y1390684*
X1884252*
X1889479Y1394122D02*
Y1387559D01*
Y1394122D02*
X1891525D01*
X1892207Y1393809*
X1892434Y1393497*
X1892661Y1392872*
Y1391934*
X1892434Y1391309*
X1892207Y1390997*
X1891525Y1390684*
X1889479*
X1894707Y1394122D02*
Y1387559D01*
Y1394122D02*
X1897661D01*
X1894707Y1390997D02*
X1896525D01*
X1894707Y1387559D02*
X1897661D01*
X1899707Y1394122D02*
Y1387559D01*
Y1394122D02*
X1901752D01*
X1902434Y1393809*
X1902661Y1393497*
X1902888Y1392872*
Y1392247*
X1902661Y1391622*
X1902434Y1391309*
X1901752Y1390997*
X1899707*
X1901297D02*
X1902888Y1387559D01*
X1911752Y1394122D02*
Y1387559D01*
X1910161Y1394122D02*
X1913343D01*
X1915388D02*
Y1387559D01*
X1920843Y1392559D02*
X1920616Y1393184D01*
X1920161Y1393809*
X1919707Y1394122*
X1918797*
X1918343Y1393809*
X1917888Y1393184*
X1917661Y1392559*
X1917434Y1391622*
Y1390059*
X1917661Y1389122*
X1917888Y1388497*
X1918343Y1387872*
X1918797Y1387559*
X1919707*
X1920161Y1387872*
X1920616Y1388497*
X1920843Y1389122*
X1922888Y1394122D02*
Y1387559D01*
X1926070Y1394122D02*
X1922888Y1389747D01*
X1924025Y1391309D02*
X1926070Y1387559D01*
X1928116Y1394122D02*
Y1387559D01*
Y1394122D02*
X1931297Y1387559D01*
Y1394122D02*
Y1387559D01*
X1933343Y1394122D02*
Y1387559D01*
Y1394122D02*
X1936297D01*
X1933343Y1390997D02*
X1935161D01*
X1933343Y1387559D02*
X1936297D01*
X1941525Y1393184D02*
X1941070Y1393809D01*
X1940388Y1394122*
X1939479*
X1938797Y1393809*
X1938343Y1393184*
Y1392559*
X1938570Y1391934*
X1938797Y1391622*
X1939252Y1391309*
X1940616Y1390684*
X1941070Y1390372*
X1941297Y1390059*
X1941525Y1389434*
Y1388497*
X1941070Y1387872*
X1940388Y1387559*
X1939479*
X1938797Y1387872*
X1938343Y1388497*
X1946752Y1393184D02*
X1946297Y1393809D01*
X1945616Y1394122*
X1944707*
X1944025Y1393809*
X1943570Y1393184*
Y1392559*
X1943797Y1391934*
X1944025Y1391622*
X1944479Y1391309*
X1945843Y1390684*
X1946297Y1390372*
X1946525Y1390059*
X1946752Y1389434*
Y1388497*
X1946297Y1387872*
X1945616Y1387559*
X1944707*
X1944025Y1387872*
X1943570Y1388497*
X1954479Y1394122D02*
X1956979D01*
X1955616Y1391622*
X1956297*
X1956752Y1391309*
X1956979Y1390997*
X1957207Y1390059*
Y1389434*
X1956979Y1388497*
X1956525Y1387872*
X1955843Y1387559*
X1955161*
X1954479Y1387872*
X1954252Y1388184*
X1954025Y1388809*
X1962207Y1394122D02*
X1959934D01*
X1959707Y1391309*
X1959934Y1391622*
X1960616Y1391934*
X1961297*
X1961979Y1391622*
X1962434Y1390997*
X1962661Y1390059*
X1962434Y1389434*
X1962207Y1388497*
X1961752Y1387872*
X1961070Y1387559*
X1960388*
X1959707Y1387872*
X1959479Y1388184*
X1959252Y1388809*
X1964707Y1391934D02*
Y1388809D01*
X1964934Y1387872*
X1965388Y1387559*
X1966070*
X1966525Y1387872*
X1967207Y1388809*
Y1391934D02*
Y1387559D01*
X1969252Y1391934D02*
Y1387559D01*
Y1390684D02*
X1969934Y1391622D01*
X1970388Y1391934*
X1971070*
X1971525Y1391622*
X1971752Y1390684*
Y1387559*
Y1390684D02*
X1972434Y1391622D01*
X1972888Y1391934*
X1973570*
X1974025Y1391622*
X1974252Y1390684*
Y1387559*
X1976752Y1387872D02*
X1976525Y1387559D01*
X1976297Y1387872*
X1976525Y1388184*
X1976752Y1387872*
Y1387247*
X1976525Y1386622*
X1976297Y1386309*
X1987434Y1392559D02*
X1987207Y1393184D01*
X1986752Y1393809*
X1986297Y1394122*
X1985388*
X1984934Y1393809*
X1984479Y1393184*
X1984252Y1392559*
X1984025Y1391622*
Y1390059*
X1984252Y1389122*
X1984479Y1388497*
X1984934Y1387872*
X1985388Y1387559*
X1986297*
X1986752Y1387872*
X1987207Y1388497*
X1987434Y1389122*
X1989479Y1394122D02*
Y1387559D01*
X1992661Y1394122D02*
Y1387559D01*
X1989479Y1390997D02*
X1992661D01*
X1994707Y1394122D02*
Y1387559D01*
Y1394122D02*
X1997661D01*
X1994707Y1390997D02*
X1996525D01*
X1994707Y1387559D02*
X1997661D01*
X1999707Y1394122D02*
Y1387559D01*
Y1394122D02*
X2001525Y1387559D01*
X2003343Y1394122D02*
X2001525Y1387559D01*
X2003343Y1394122D02*
Y1387559D01*
X2005388Y1394122D02*
Y1387559D01*
X2010843Y1392559D02*
X2010616Y1393184D01*
X2010161Y1393809*
X2009707Y1394122*
X2008797*
X2008343Y1393809*
X2007888Y1393184*
X2007661Y1392559*
X2007434Y1391622*
Y1390059*
X2007661Y1389122*
X2007888Y1388497*
X2008343Y1387872*
X2008797Y1387559*
X2009707*
X2010161Y1387872*
X2010616Y1388497*
X2010843Y1389122*
X2014707Y1394122D02*
X2012888Y1387559D01*
X2014707Y1394122D02*
X2016525Y1387559D01*
X2013570Y1389747D02*
X2015843D01*
X2018570Y1394122D02*
Y1387559D01*
X2021297*
X2028570Y1394122D02*
Y1387559D01*
Y1394122D02*
X2031752Y1387559D01*
Y1394122D02*
Y1387559D01*
X2033797Y1394122D02*
X2034025Y1393809D01*
X2034252Y1394122*
X2034025Y1394434*
X2033797Y1394122*
X2034025Y1391934D02*
Y1387559D01*
X2036297Y1390372D02*
X2040388D01*
X2044252Y1394122D02*
X2042434Y1387559D01*
X2044252Y1394122D02*
X2046070Y1387559D01*
X2043116Y1389747D02*
X2045388D01*
X2048116Y1391934D02*
Y1388809D01*
X2048343Y1387872*
X2048797Y1387559*
X2049479*
X2049934Y1387872*
X2050616Y1388809*
Y1391934D02*
Y1387559D01*
X2057888Y1394122D02*
Y1387559D01*
Y1394122D02*
X2060843D01*
X2057888Y1390997D02*
X2059707D01*
X2062888Y1394122D02*
Y1387559D01*
X2064934Y1394122D02*
Y1387559D01*
Y1394122D02*
X2068116Y1387559D01*
Y1394122D02*
Y1387559D01*
X2070161Y1394122D02*
Y1387559D01*
X2075388Y1393184D02*
X2074934Y1393809D01*
X2074252Y1394122*
X2073343*
X2072661Y1393809*
X2072207Y1393184*
Y1392559*
X2072434Y1391934*
X2072661Y1391622*
X2073116Y1391309*
X2074479Y1390684*
X2074934Y1390372*
X2075161Y1390059*
X2075388Y1389434*
Y1388497*
X2074934Y1387872*
X2074252Y1387559*
X2073343*
X2072661Y1387872*
X2072207Y1388497*
X2077434Y1394122D02*
Y1387559D01*
X2080616Y1394122D02*
Y1387559D01*
X2077434Y1390997D02*
X2080616D01*
X2082661Y1394122D02*
Y1387559D01*
X2084707Y1394122D02*
Y1387559D01*
Y1394122D02*
X2087888Y1387559D01*
Y1394122D02*
Y1387559D01*
X2093343Y1392559D02*
X2093116Y1393184D01*
X2092661Y1393809*
X2092207Y1394122*
X2091297*
X2090843Y1393809*
X2090388Y1393184*
X2090161Y1392559*
X2089934Y1391622*
Y1390059*
X2090161Y1389122*
X2090388Y1388497*
X2090843Y1387872*
X2091297Y1387559*
X2092207*
X2092661Y1387872*
X2093116Y1388497*
X2093343Y1389122*
Y1390059*
X2092207D02*
X2093343D01*
X1811638Y1472618D02*
X2040748D01*
Y1639331*
X1811638*
Y1472618*
X1767520Y1828110D02*
X1747520D01*
Y1808110*
X1747441Y1391890D02*
Y1371890D01*
X1767441*
X2232087Y1372205D02*
X2252087D01*
Y1392205*
X2252559Y1808031D02*
Y1828031D01*
X2232559*
X1803543Y1640118D02*
Y1472598D01*
X1783465*
Y1639921*
X1803346*
X2040757Y1632696D02*
G75*
G03X2048757I4000J0D01*
G01X2048791Y1619988D02*
G03X2040791I-4000J-0D01*
G01X1803664Y1633822D02*
G03X1811664I4000J0D01*
G01X1811677Y1621551D02*
G03X1803677I-4000J0D01*
G01X1803664Y1489924D02*
G03X1811664I4000J0D01*
G01X1811612Y1477656D02*
G03X1803612I-4000J-0D01*
G01X2040672Y1490121D02*
G03X2048672I4000J0D01*
G01X2068504Y1472205D02*
X2048728D01*
Y1639331*
X2068504*
Y1472205*
X2048805Y1478060D02*
G03X2040805I-4000J-0D01*
G54D15*
G01X1981693Y1627736D02*
X1981752Y1627454D01*
Y1626016*
X1844494Y1512895D02*
X1851175D01*
Y1496227*
X1840951*
Y1502120*
X1844494*
Y1512895*
X1838411Y1502120D02*
Y1493655D01*
X1856883*
Y1486975*
X1830321*
Y1502120*
X1838411*
X1920282Y1503498D02*
X1925400D01*
Y1509206*
X1937789*
Y1485006*
X1928746*
Y1496030*
X1920282*
Y1503498*
X1891935Y1502710D02*
X1899994D01*
Y1485991*
X1883077*
Y1493655*
X1891935*
Y1502710*
X2001581D02*
X2009639D01*
Y1485991*
X1996069*
Y1493852*
X2001581*
Y1502710*
X1950584D02*
Y1493852D01*
X1968498*
Y1486778*
X1942526*
Y1502710*
X1950584*
X1953746D02*
Y1497211D01*
X1969679*
Y1512946*
X1960833*
Y1502710*
X1953746*
X2013589D02*
X2019691D01*
Y1512946*
X2026372*
Y1502850*
X2021847Y1496817*
X2013589*
Y1502710*
X1902565Y1512553D02*
X1909443D01*
Y1497211*
X1902565*
Y1512553*
X1844494Y1512785D02*
X1851175D01*
X1844494Y1512065D02*
X1851175D01*
X1844494Y1511345D02*
X1851175D01*
X1844494Y1510625D02*
X1851175D01*
X1844494Y1509905D02*
X1851175D01*
X1844494Y1509185D02*
X1851175D01*
X1844494Y1508465D02*
X1851175D01*
X1844494Y1507745D02*
X1851175D01*
X1844494Y1507025D02*
X1851175D01*
X1844494Y1506305D02*
X1851175D01*
X1844494Y1505585D02*
X1851175D01*
X1844494Y1504865D02*
X1851175D01*
X1844494Y1504145D02*
X1851175D01*
X1844494Y1503425D02*
X1851175D01*
X1844494Y1502705D02*
X1851175D01*
X1840951Y1501985D02*
X1851175D01*
X1840951Y1501265D02*
X1851175D01*
X1840951Y1500545D02*
X1851175D01*
X1840951Y1499825D02*
X1851175D01*
X1840951Y1499105D02*
X1851175D01*
X1840951Y1498385D02*
X1851175D01*
X1840951Y1497665D02*
X1851175D01*
X1840951Y1496945D02*
X1851175D01*
X1830321Y1493453D02*
X1856883D01*
X1830321Y1492733D02*
X1856883D01*
X1830321Y1492013D02*
X1856883D01*
X1830321Y1491293D02*
X1856883D01*
X1830321Y1490573D02*
X1856883D01*
X1830321Y1489853D02*
X1856883D01*
X1830321Y1489133D02*
X1856883D01*
X1830321Y1488413D02*
X1856883D01*
X1830321Y1487693D02*
X1856883D01*
X1830321Y1502093D02*
X1838411D01*
X1830321Y1501373D02*
X1838411D01*
X1830321Y1500653D02*
X1838411D01*
X1830321Y1499933D02*
X1838411D01*
X1830321Y1499213D02*
X1838411D01*
X1830321Y1498493D02*
X1838411D01*
X1830321Y1497773D02*
X1838411D01*
X1830321Y1497053D02*
X1838411D01*
X1830321Y1496333D02*
X1838411D01*
X1830321Y1495613D02*
X1838411D01*
X1830321Y1494893D02*
X1838411D01*
X1830321Y1494173D02*
X1838411D01*
X1925400Y1508765D02*
X1937789D01*
X1925400Y1508045D02*
X1937789D01*
X1925400Y1507325D02*
X1937789D01*
X1925400Y1506605D02*
X1937789D01*
X1925400Y1505885D02*
X1937789D01*
X1925400Y1505165D02*
X1937789D01*
X1925400Y1504445D02*
X1937789D01*
X1925400Y1503725D02*
X1937789D01*
X1920282Y1503005D02*
X1937789D01*
X1920282Y1502285D02*
X1937789D01*
X1920282Y1501565D02*
X1937789D01*
X1920282Y1500845D02*
X1937789D01*
X1920282Y1500125D02*
X1937789D01*
X1920282Y1499405D02*
X1937789D01*
X1920282Y1498685D02*
X1937789D01*
X1920282Y1497965D02*
X1937789D01*
X1920282Y1497245D02*
X1937789D01*
X1920282Y1496525D02*
X1937789D01*
X1928746Y1495805D02*
X1937789D01*
X1928746Y1495085D02*
X1937789D01*
X1928746Y1494365D02*
X1937789D01*
X1928746Y1493645D02*
X1937789D01*
X1928746Y1492925D02*
X1937789D01*
X1928746Y1492205D02*
X1937789D01*
X1928746Y1491485D02*
X1937789D01*
X1928746Y1490765D02*
X1937789D01*
X1928746Y1490045D02*
X1937789D01*
X1928746Y1489325D02*
X1937789D01*
X1928746Y1488605D02*
X1937789D01*
X1928746Y1487885D02*
X1937789D01*
X1928746Y1487165D02*
X1937789D01*
X1928746Y1486445D02*
X1937789D01*
X1928746Y1485725D02*
X1937789D01*
X1891935Y1502549D02*
X1899994D01*
X1891935Y1501829D02*
X1899994D01*
X1891935Y1501109D02*
X1899994D01*
X1891935Y1500389D02*
X1899994D01*
X1891935Y1499669D02*
X1899994D01*
X1891935Y1498949D02*
X1899994D01*
X1891935Y1498229D02*
X1899994D01*
X1891935Y1497509D02*
X1899994D01*
X1891935Y1496789D02*
X1899994D01*
X1891935Y1496069D02*
X1899994D01*
X1891935Y1495349D02*
X1899994D01*
X1891935Y1494629D02*
X1899994D01*
X1891935Y1493909D02*
X1899994D01*
X1883077Y1493189D02*
X1899994D01*
X1883077Y1492469D02*
X1899994D01*
X1883077Y1491749D02*
X1899994D01*
X1883077Y1491029D02*
X1899994D01*
X1883077Y1490309D02*
X1899994D01*
X1883077Y1489589D02*
X1899994D01*
X1883077Y1488869D02*
X1899994D01*
X1883077Y1488149D02*
X1899994D01*
X1883077Y1487429D02*
X1899994D01*
X1883077Y1486709D02*
X1899994D01*
X2001581Y1502549D02*
X2009639D01*
X2001581Y1501829D02*
X2009639D01*
X2001581Y1501109D02*
X2009639D01*
X2001581Y1500389D02*
X2009639D01*
X2001581Y1499669D02*
X2009639D01*
X2001581Y1498949D02*
X2009639D01*
X2001581Y1498229D02*
X2009639D01*
X2001581Y1497509D02*
X2009639D01*
X2001581Y1496789D02*
X2009639D01*
X2001581Y1496069D02*
X2009639D01*
X2001581Y1495349D02*
X2009639D01*
X2001581Y1494629D02*
X2009639D01*
X2001581Y1493909D02*
X2009639D01*
X1996069Y1493189D02*
X2009639D01*
X1996069Y1492469D02*
X2009639D01*
X1996069Y1491749D02*
X2009639D01*
X1996069Y1491029D02*
X2009639D01*
X1996069Y1490309D02*
X2009639D01*
X1996069Y1489589D02*
X2009639D01*
X1996069Y1488869D02*
X2009639D01*
X1996069Y1488149D02*
X2009639D01*
X1996069Y1487429D02*
X2009639D01*
X1996069Y1486709D02*
X2009639D01*
X1942526Y1493257D02*
X1968498D01*
X1942526Y1492537D02*
X1968498D01*
X1942526Y1491817D02*
X1968498D01*
X1942526Y1491097D02*
X1968498D01*
X1942526Y1490377D02*
X1968498D01*
X1942526Y1489657D02*
X1968498D01*
X1942526Y1488937D02*
X1968498D01*
X1942526Y1488217D02*
X1968498D01*
X1942526Y1487497D02*
X1968498D01*
X1942526Y1502617D02*
X1950584D01*
X1942526Y1501897D02*
X1950584D01*
X1942526Y1501177D02*
X1950584D01*
X1942526Y1500457D02*
X1950584D01*
X1942526Y1499737D02*
X1950584D01*
X1942526Y1499017D02*
X1950584D01*
X1942526Y1498297D02*
X1950584D01*
X1942526Y1497577D02*
X1950584D01*
X1942526Y1496857D02*
X1950584D01*
X1942526Y1496137D02*
X1950584D01*
X1942526Y1495417D02*
X1950584D01*
X1942526Y1494697D02*
X1950584D01*
X1942526Y1493977D02*
X1950584D01*
X1960833Y1512330D02*
X1969679D01*
X1960833Y1511610D02*
X1969679D01*
X1960833Y1510890D02*
X1969679D01*
X1960833Y1510170D02*
X1969679D01*
X1960833Y1509450D02*
X1969679D01*
X1960833Y1508730D02*
X1969679D01*
X1960833Y1508010D02*
X1969679D01*
X1960833Y1507290D02*
X1969679D01*
X1960833Y1506570D02*
X1969679D01*
X1960833Y1505850D02*
X1969679D01*
X1960833Y1505130D02*
X1969679D01*
X1960833Y1504410D02*
X1969679D01*
X1960833Y1503690D02*
X1969679D01*
X1960833Y1502970D02*
X1969679D01*
X1953746Y1502250D02*
X1969679D01*
X1953746Y1501530D02*
X1969679D01*
X1953746Y1500810D02*
X1969679D01*
X1953746Y1500090D02*
X1969679D01*
X1953746Y1499370D02*
X1969679D01*
X1953746Y1498650D02*
X1969679D01*
X1953746Y1497930D02*
X1969679D01*
X2019691Y1512656D02*
X2026372D01*
X2019691Y1511936D02*
X2026372D01*
X2019691Y1511216D02*
X2026372D01*
X2019691Y1510496D02*
X2026372D01*
X2019691Y1509776D02*
X2026372D01*
X2019691Y1509056D02*
X2026372D01*
X2019691Y1508336D02*
X2026372D01*
X2019691Y1507616D02*
X2026372D01*
X2019691Y1506896D02*
X2026372D01*
X2019691Y1506176D02*
X2026372D01*
X2019691Y1505456D02*
X2026372D01*
X2019691Y1504736D02*
X2026372D01*
X2019691Y1504016D02*
X2026372D01*
X2019691Y1503296D02*
X2026372D01*
X2013589Y1502576D02*
X2026166D01*
X2013589Y1501856D02*
X2025626D01*
X2013589Y1501136D02*
X2025086D01*
X2013589Y1500416D02*
X2024546D01*
X2013589Y1499696D02*
X2024006D01*
X2013589Y1498976D02*
X2023466D01*
X2013589Y1498256D02*
X2022926D01*
X2013589Y1497536D02*
X2022386D01*
X1902565Y1512330D02*
X1909443D01*
X1902565Y1511610D02*
X1909443D01*
X1902565Y1510890D02*
X1909443D01*
X1902565Y1510170D02*
X1909443D01*
X1902565Y1509450D02*
X1909443D01*
X1902565Y1508730D02*
X1909443D01*
X1902565Y1508010D02*
X1909443D01*
X1902565Y1507290D02*
X1909443D01*
X1902565Y1506570D02*
X1909443D01*
X1902565Y1505850D02*
X1909443D01*
X1902565Y1505130D02*
X1909443D01*
X1902565Y1504410D02*
X1909443D01*
X1902565Y1503690D02*
X1909443D01*
X1902565Y1502970D02*
X1909443D01*
X1902565Y1502250D02*
X1909443D01*
X1902565Y1501530D02*
X1909443D01*
X1902565Y1500810D02*
X1909443D01*
X1902565Y1500090D02*
X1909443D01*
X1902565Y1499370D02*
X1909443D01*
X1902565Y1498650D02*
X1909443D01*
X1902565Y1497930D02*
X1909443D01*
G54D16*
X1864567Y1629844D03*
Y1634644D03*
X1859449Y1629844D03*
Y1634644D03*
X1929528Y1602754D03*
Y1597954D03*
X1923622Y1602754D03*
Y1597954D03*
X1847835Y1595986D03*
Y1600786D03*
X2003740Y1581888D03*
Y1577088D03*
X1873425Y1554450D03*
Y1559250D03*
X1868504Y1554647D03*
Y1559447D03*
X1863386Y1569214D03*
Y1574014D03*
X1862008Y1588702D03*
Y1593502D03*
X1881496Y1618230D03*
Y1623030D03*
X1881299Y1627679D03*
Y1632479D03*
X1876181Y1618230D03*
Y1623030D03*
Y1627679D03*
Y1632479D03*
X1938386Y1618820D03*
Y1623620D03*
X1938583Y1629254D03*
Y1634054D03*
X1943898Y1618820D03*
Y1623620D03*
Y1629254D03*
Y1634054D03*
X1983268Y1564490D03*
Y1569290D03*
X1978937Y1584175D03*
Y1588975D03*
X1948622Y1568502D03*
Y1563702D03*
Y1579329D03*
Y1574529D03*
X1926969Y1560750D03*
Y1565550D03*
X1924016Y1570986D03*
Y1575786D03*
X1927165Y1550907D03*
Y1555707D03*
X1922047Y1550907D03*
Y1555707D03*
X1929528Y1575589D03*
Y1570789D03*
X1965945Y1478072D03*
Y1482872D03*
X1853346Y1477876D03*
Y1482676D03*
X1914764Y1478072D03*
Y1482872D03*
X1914173Y1536022D03*
Y1531222D03*
X1914961Y1622167D03*
Y1626967D03*
X1936417Y1595986D03*
Y1600786D03*
X1978937Y1573939D03*
Y1578739D03*
X1862205Y1579057D03*
Y1583857D03*
X1856693Y1525786D03*
Y1520986D03*
X1886024Y1525589D03*
Y1520789D03*
X1915551Y1526376D03*
Y1521576D03*
X1958071Y1526180D03*
Y1521380D03*
X1987008Y1525983D03*
Y1521183D03*
X2016732Y1526573D03*
Y1521773D03*
G54D19*
X1985395Y1631850D03*
X1990195D03*
X1980746Y1632047D03*
X1975946D03*
X1842754Y1581850D03*
X1837954D03*
X1838151Y1616496D03*
X1842951D03*
X2014014Y1561772D03*
X2009214D03*
X1837954Y1562362D03*
X1842754D03*
X2014014Y1615709D03*
X2009214D03*
X1842754Y1577126D03*
X1837954D03*
X1842951Y1572205D03*
X1838151D03*
X1873463Y1569055D03*
X1868663D03*
X1873463Y1573780D03*
X1868663D03*
X1859608Y1564331D03*
X1864408D03*
X1988348Y1553898D03*
X1993148D03*
X1992951Y1564331D03*
X1988151D03*
X1992951Y1569843D03*
X1988151D03*
X1978702Y1559016D03*
X1983502D03*
X1978899Y1553898D03*
X1983699D03*
X1842951Y1596614D03*
X1838151D03*
X1842951Y1601535D03*
X1838151D03*
X1842951Y1606457D03*
X1838151D03*
X1842951Y1611378D03*
X1838151D03*
X2009017Y1610787D03*
X2013817D03*
X2009017Y1596417D03*
X2013817D03*
X2009017Y1601142D03*
X2013817D03*
X2009017Y1581457D03*
X2013817D03*
X2009017Y1576535D03*
X2013817D03*
X2009017Y1571614D03*
X2013817D03*
X2009017Y1566693D03*
X2013817D03*
X2009017Y1605866D03*
X2013817D03*
X1842754Y1567087D03*
X1837954D03*
X1872600Y1606850D03*
X1877400D03*
X1936183Y1606063D03*
X1940983D03*
X1858711Y1530795D03*
X1853911D03*
X1989605Y1530866D03*
X1984805D03*
X2019329Y1531654D03*
X2014529D03*
X1988151Y1559016D03*
X1992951D03*
X1888211Y1530795D03*
X1883411D03*
X1882836Y1480079D03*
X1887636D03*
X1932049D03*
X1936849D03*
X2025356Y1494252D03*
X2030156D03*
X1864085Y1612476D03*
X1859285D03*
X1985211Y1613551D03*
X1980411D03*
X1915786Y1603898D03*
X1910986D03*
X1872009Y1600157D03*
X1876809D03*
X1928975Y1607638D03*
X1924175D03*
X1929172Y1593071D03*
X1924372D03*
X1901219Y1581457D03*
X1896419D03*
X1967557Y1585197D03*
X1962757D03*
X1981534Y1603701D03*
X1976734D03*
X1943935Y1558425D03*
X1939135D03*
X1993269Y1480079D03*
X1998069D03*
X1868663Y1564331D03*
X1873463D03*
X1960711Y1530795D03*
X1955911D03*
G54D27*
X1908858Y1566239D03*
Y1573839D03*
G54D28*
X1829811Y1508795D03*
X1838811D03*
X1847811D03*
X1858811D03*
X1867811D03*
X1876811D03*
X1887811D03*
X1896811D03*
X1905811D03*
X1847811Y1539795D03*
X1838811D03*
X1829811D03*
X1876811D03*
X1867811D03*
X1858811D03*
X1905811D03*
X1896811D03*
X1887811D03*
X1945811Y1508795D03*
X1954811D03*
X1963811D03*
X1975311D03*
X1984311D03*
X1993311D03*
X2004811D03*
X2013811D03*
X2022811D03*
X1963811Y1539795D03*
X1954811D03*
X1945811D03*
X1993311D03*
X1984311D03*
X1975311D03*
X2022811D03*
X2013811D03*
X2004811D03*
G54D29*
X1918311Y1489795D03*
X1933311D03*
X1854811D03*
X1869811D03*
X1884811D03*
X1966811D03*
X1981811D03*
X1996811D03*
G54D35*
X2034079Y1634035D03*
X2032110Y1508051D03*
X1819512D03*
G54D37*
X1939764Y1611378D03*
X1956102Y1623976D03*
X1952165Y1630866D03*
X1858858Y1603898D03*
X1893898Y1632441D03*
X1886811Y1625354D03*
X1908465Y1627126D03*
X1852362Y1609016D03*
X1918504Y1589331D03*
X1933071Y1557244D03*
X1883268Y1579291D03*
X1950000Y1554094D03*
X1963189Y1624370D03*
G54D43*
X1852953Y1560221D03*
Y1557071D03*
Y1553921D03*
Y1550771D03*
X1846953D03*
Y1553921D03*
Y1557071D03*
Y1560221D03*
X1899654Y1564528D03*
Y1561378D03*
Y1558228D03*
Y1555078D03*
X1893654D03*
Y1558228D03*
Y1561378D03*
Y1564528D03*
X1955268Y1561377D03*
Y1564527D03*
Y1567677D03*
Y1570827D03*
X1961268D03*
Y1567677D03*
Y1564527D03*
Y1561377D03*
G54D48*
X1844291Y1589528D03*
X2008268Y1588543D03*
G54D70*
G54D72*
X1829921Y1562264D02*
X1833465D01*
X1829921Y1567185D02*
X1833465D01*
X1829921Y1572106D02*
X1833465D01*
X1829921Y1577028D02*
X1833465D01*
X1829921Y1581949D02*
X1833465D01*
X1829921Y1586870D02*
X1833465D01*
X1829921Y1591791D02*
X1833465D01*
X1829921Y1596713D02*
X1833465D01*
X1829921Y1601634D02*
X1833465D01*
X1829921Y1606555D02*
X1833465D01*
X1829921Y1611476D02*
X1833465D01*
X1829921Y1616398D02*
X1833465D01*
X2021850Y1615610D02*
X2018307D01*
X2021850Y1610689D02*
X2018307D01*
X2021850Y1605768D02*
X2018307D01*
X2021850Y1600846D02*
X2018307D01*
X2021850Y1595925D02*
X2018307D01*
X2021850Y1591004D02*
X2018307D01*
X2021850Y1586083D02*
X2018307D01*
X2021850Y1581161D02*
X2018307D01*
X2021850Y1576240D02*
X2018307D01*
X2021850Y1571319D02*
X2018307D01*
X2021850Y1566398D02*
X2018307D01*
X2021850Y1561476D02*
X2018307D01*
G54D73*
X1818504Y1626437D02*
X1822047D01*
X1818504Y1552224D02*
X1822047D01*
X2033268Y1551437D02*
X2029724D01*
X2033268Y1625650D02*
X2029724D01*
G54D76*
X1850417Y1530295D02*
X1849630D01*
X1850417Y1527146D02*
X1849630D01*
X1850417Y1523996D02*
X1849630D01*
X1850417Y1520846D02*
X1849630D01*
X1850417Y1517697D02*
X1849630D01*
X1834669D02*
X1833882D01*
X1834669Y1520846D02*
X1833882D01*
X1834669Y1523996D02*
X1833882D01*
X1834669Y1527146D02*
X1833882D01*
X1834669Y1530295D02*
X1833882D01*
X1879705D02*
X1878917D01*
X1879705Y1527146D02*
X1878917D01*
X1879705Y1523996D02*
X1878917D01*
X1879705Y1520846D02*
X1878917D01*
X1879705Y1517697D02*
X1878917D01*
X1863957D02*
X1863169D01*
X1863957Y1520846D02*
X1863169D01*
X1863957Y1523996D02*
X1863169D01*
X1863957Y1527146D02*
X1863169D01*
X1863957Y1530295D02*
X1863169D01*
X1909705D02*
X1908917D01*
X1909705Y1527146D02*
X1908917D01*
X1909705Y1523996D02*
X1908917D01*
X1909705Y1520846D02*
X1908917D01*
X1909705Y1517697D02*
X1908917D01*
X1893957D02*
X1893169D01*
X1893957Y1520846D02*
X1893169D01*
X1893957Y1523996D02*
X1893169D01*
X1893957Y1527146D02*
X1893169D01*
X1893957Y1530295D02*
X1893169D01*
X1952205D02*
X1951417D01*
X1952205Y1527146D02*
X1951417D01*
X1952205Y1523996D02*
X1951417D01*
X1952205Y1520846D02*
X1951417D01*
X1952205Y1517697D02*
X1951417D01*
X1936457D02*
X1935669D01*
X1936457Y1520846D02*
X1935669D01*
X1936457Y1523996D02*
X1935669D01*
X1936457Y1527146D02*
X1935669D01*
X1936457Y1530295D02*
X1935669D01*
X1981205D02*
X1980417D01*
X1981205Y1527146D02*
X1980417D01*
X1981205Y1523996D02*
X1980417D01*
X1981205Y1520846D02*
X1980417D01*
X1981205Y1517697D02*
X1980417D01*
X1965457D02*
X1964669D01*
X1965457Y1520846D02*
X1964669D01*
X1965457Y1523996D02*
X1964669D01*
X1965457Y1527146D02*
X1964669D01*
X1965457Y1530295D02*
X1964669D01*
X2010205Y1530795D02*
X2009417D01*
X2010205Y1527646D02*
X2009417D01*
X2010205Y1524496D02*
X2009417D01*
X2010205Y1521346D02*
X2009417D01*
X2010205Y1518197D02*
X2009417D01*
X1994457D02*
X1993669D01*
X1994457Y1521346D02*
X1993669D01*
X1994457Y1524496D02*
X1993669D01*
X1994457Y1527646D02*
X1993669D01*
X1994457Y1530795D02*
X1993669D01*
G54D77*
X1842150Y1524783D02*
Y1523209D01*
X1871437Y1524783D02*
Y1523209D01*
X1901437Y1524783D02*
Y1523209D01*
X1943937Y1524783D02*
Y1523209D01*
X1972937Y1524783D02*
Y1523209D01*
X2001937Y1525283D02*
Y1523709D01*
G54D79*
X1929047Y1509846D02*
Y1514374D01*
X1923843Y1529244D02*
Y1533772D01*
G54D80*
X1921350Y1507327D02*
Y1509846D01*
X1931543Y1533768D02*
Y1536287D01*
G54D82*
X1829134Y1478504D02*
X1832067Y1478543D01*
Y1479528*
X1853346Y1482676D02*
X1856299D01*
X1856890Y1482479*
Y1482638*
X1857283*
X1850000Y1482441D02*
X1847047D01*
X1847067Y1479528*
X1850000Y1482441D02*
X1852203Y1482676D01*
X1853346*
X1842067Y1479528D02*
Y1478543D01*
X1845256Y1475354*
X1850275*
X1852796Y1477876*
X1853346*
X1887636Y1480079D02*
X1890748D01*
X1890945Y1480276*
X1887402Y1479844D02*
X1887636Y1480079D01*
X1890945Y1480276D02*
Y1480118D01*
X1893878*
X1879528Y1480079D02*
X1882836D01*
X1903878Y1480118D02*
Y1478346D01*
X1906476Y1475748*
X1911889*
X1914214Y1478072*
X1914764*
X1908878Y1480118D02*
X1911459D01*
X1914214Y1482872*
X1914764*
X1918072*
X1918307Y1482638*
X1928346Y1479882D02*
X1931299D01*
X1931496Y1480079*
X1932049*
X1936849D02*
X1939370D01*
X1939567Y1480276*
X1940748*
X1944311*
X1944469Y1480118*
X1965945Y1482872D02*
X1969450D01*
X1969488Y1482835*
X1954469Y1480118D02*
Y1478346D01*
X1957067Y1475748*
X1963070*
X1965395Y1478072*
X1965945*
X1959469Y1480118D02*
X1961594Y1482244D01*
X1961614*
X1962243Y1482872*
X1965945*
X1989567Y1480079D02*
X1993269D01*
X1998069D02*
X2001181D01*
X2001378Y1480276*
Y1480118*
X2004311*
X2019685Y1485984D02*
Y1487756D01*
X2022835Y1490906*
X2027359*
X2030156Y1493702*
Y1494252*
X2014311Y1480118D02*
Y1481890D01*
X2016929Y1484508*
Y1488346*
X2022835Y1494252*
X2025356*
X2019311Y1480118D02*
Y1485610D01*
X2019685Y1485984*
X1851175Y1512895D02*
X1854962Y1516682D01*
Y1520986*
X1876811Y1509213D02*
X1884293Y1516694D01*
X1909443Y1512553D02*
X1914411Y1517521D01*
X2030156Y1494252D02*
Y1497636D01*
X2030315Y1497795*
Y1500551*
X2019691Y1512756D02*
X2019882D01*
X1832480Y1532638D02*
X1834055D01*
X1834252Y1532441*
X1834276Y1530295*
Y1527146D02*
X1838213D01*
X1841339Y1524020*
Y1516496*
X1853911Y1530795D02*
X1852756D01*
X1853346Y1531386*
Y1534409*
X1850024Y1520846D02*
X1854803Y1520827D01*
X1854962Y1520986*
X1850024Y1523996D02*
X1853150Y1523976D01*
X1850024Y1527146D02*
X1855353Y1527126D01*
X1856693Y1525786*
X1850024Y1530295D02*
X1852756Y1530276D01*
Y1530795*
X1858711D02*
Y1530245D01*
X1860846Y1528110*
X1862598*
X1863563Y1527146*
X1854962Y1520986D02*
X1856693D01*
X1862205Y1532835D02*
X1863563Y1531476D01*
Y1530295*
Y1527146D02*
X1866319D01*
X1871437*
X1871437*
Y1523996*
X1888211Y1530795D02*
Y1530245D01*
X1890748Y1527708*
Y1527539*
X1891142Y1527146*
X1893563*
X1884293Y1519389D02*
Y1520789D01*
X1886024*
X1881890Y1530795D02*
X1882283Y1531189D01*
Y1534213*
X1881890Y1530795D02*
X1883411D01*
X1884293Y1516694D02*
Y1519389D01*
X1890945Y1533228D02*
X1891673D01*
Y1531791*
X1893169Y1530295*
X1893563*
Y1527146D02*
X1896063D01*
X1896260Y1527343*
Y1527087*
X1901437Y1527146*
Y1531260*
X1879311Y1520846D02*
X1879369Y1520789D01*
X1884293*
X1879311Y1523996D02*
X1881693D01*
X1882087Y1523602*
Y1523976*
X1879311Y1527146D02*
X1883445D01*
X1883661Y1526929*
X1883699*
X1886024Y1525589*
X1879311Y1530295D02*
X1879811Y1530795D01*
X1881890*
X1901437Y1531260D02*
X1903996Y1533819D01*
X1900394Y1516496D02*
Y1522953D01*
X1901437Y1523996*
X1909252Y1532638D02*
Y1532441D01*
X1901437Y1523996D02*
Y1531260D01*
X1909311Y1520846D02*
X1914271D01*
X1914411Y1520986*
X1909311Y1523996D02*
X1911614D01*
Y1524173*
X1909311Y1527146D02*
X1913798D01*
X1915551Y1526376*
X1909311Y1530295D02*
X1913246D01*
X1914173Y1531222*
X1914411Y1520176D02*
Y1520986D01*
X1915551Y1521576*
X1914411Y1517521D02*
Y1520176D01*
X1939370Y1515512D02*
X1943937Y1520079D01*
Y1523996*
X1936063Y1530295D02*
X1936457D01*
X1939587Y1533228*
X1949213*
X1936063Y1527146D02*
X1940787D01*
X1943937Y1523996*
X1951811Y1520846D02*
X1956812D01*
X1956952Y1520986*
X1951811Y1523996D02*
X1954331D01*
Y1523976*
X1951811Y1527146D02*
X1955136D01*
X1956220Y1526062*
X1957204*
X1958071Y1526180*
X1951811Y1530295D02*
X1955411D01*
X1955911Y1530795*
X1960711D02*
Y1530245D01*
X1963811Y1527146*
X1965063*
X1958129Y1519980D02*
X1961024Y1517504D01*
Y1512953*
X1958071Y1521380D02*
X1956952Y1520986D01*
X1958129Y1519980*
X1972047Y1515906D02*
Y1523106D01*
X1972937Y1523996*
X1965063Y1530295D02*
X1965457D01*
X1967602Y1532441*
X1968110*
X1965063Y1527146D02*
X1969787D01*
X1972937Y1523996*
X1989605Y1530866D02*
Y1530316D01*
X1992275Y1527646*
X1994063*
X1985910Y1520846D02*
X1986974Y1519783D01*
X1992032Y1514724*
X1992917*
X1993311Y1514331*
Y1508795*
X1981673Y1530866D02*
X1984805D01*
X1985861Y1520895D02*
X1985910Y1520846D01*
X1994063Y1530795D02*
X1994457D01*
X1996102Y1532441*
X1996850*
X1997244Y1532047*
X1994063Y1527646D02*
X1998787D01*
X2001937Y1524496*
X1980811Y1520846D02*
X1985262D01*
X1980811Y1523996D02*
X1983268D01*
X1983465Y1523799*
Y1523976*
X1980811Y1527146D02*
X1985610D01*
X1986811Y1525945*
X1980811Y1530295D02*
X1980906D01*
Y1530276*
X1981083*
X1981673Y1530866*
X2009811Y1521346D02*
X2015312D01*
X2015739Y1521773*
X2009811Y1524496D02*
X2012331D01*
X2012402Y1524567*
X2009811Y1527646D02*
X2012472D01*
X2013545Y1526573*
X2016732*
X2009811Y1530795D02*
X2013671D01*
X2014529Y1531654*
X2019329D02*
X2021850D01*
X2022244Y1532441*
X2017291Y1520373D02*
X2019685Y1518215D01*
Y1512756*
X2019691*
X2017291Y1520373D02*
X2015739Y1521773D01*
X2016732*
X1852953Y1550771D02*
Y1553921D01*
X1922047Y1551339D02*
X1926734D01*
X1927165Y1550907*
X1922047Y1551339D02*
Y1550907D01*
X1831693Y1572106D02*
X1831791Y1572205D01*
X1838151*
X1831693Y1567185D02*
X1831791Y1567087D01*
X1837954*
X1831693Y1562264D02*
X1831742Y1562313D01*
X1833120*
X1833169Y1562362*
X1837954*
X1820276Y1558425D02*
X1826083D01*
X1829921Y1562264*
X1831693*
X1842754Y1562362D02*
X1844920Y1564528D01*
X1845276*
X1845472Y1564724*
X1847835*
X1852953Y1553921D02*
Y1557071D01*
Y1560221*
X1863386Y1569214D02*
X1864408Y1568192D01*
Y1564331*
X1868504Y1559447D02*
Y1564172D01*
X1868663Y1564331*
X1864408D02*
X1868663D01*
X1873463Y1573780D02*
X1875060Y1575376D01*
Y1579716*
X1868663Y1569055D02*
Y1573780D01*
X1873463Y1569055D02*
Y1564331D01*
X1873425Y1559250D02*
Y1564293D01*
X1873463Y1564331*
X1859449Y1570039D02*
X1859608D01*
Y1564331*
X1913583Y1561181D02*
Y1556850D01*
X1918504Y1551929*
X1921457*
X1922047Y1551339*
X1913583Y1561181D02*
X1917913Y1565512D01*
X1899654Y1555078D02*
Y1558228D01*
Y1561378*
Y1564528*
X1929528Y1570789D02*
X1935176Y1565140D01*
Y1563968*
X1924016Y1570986D02*
X1926772D01*
X1926969Y1560750D02*
Y1558228D01*
X1926969*
X1927165*
X1927165*
Y1555707*
X1926969Y1565550D02*
Y1570789D01*
X1926772Y1570986*
X1929331*
X1929528Y1570789*
X1917913Y1570236D02*
Y1567874D01*
X1917520Y1557244D02*
X1920238D01*
X1922047Y1555707*
X1917913Y1565512D02*
Y1567874D01*
X1943935Y1558425D02*
X1947244D01*
X1939135Y1557875D02*
X1946656Y1550354D01*
X1960236*
X1968898Y1559016*
X1978702*
X1942776Y1572668D02*
X1945472D01*
Y1572598*
X1935176Y1572668D02*
Y1574118D01*
X1937791Y1576732*
X1945869*
X1948072Y1574529*
X1948622*
X1938976Y1563968D02*
Y1558584D01*
X1939135Y1558425*
X1942776Y1563968D02*
X1945245D01*
X1945510Y1563702*
X1948622*
X1955268Y1570827D02*
Y1574323D01*
X1955512Y1574567*
X1955268Y1570827D02*
Y1567677D01*
Y1564527*
Y1561377*
Y1558079*
X1955512Y1557835*
X1992951Y1564331D02*
Y1559016D01*
Y1554094*
X1993148Y1553898*
X1983268Y1564490D02*
Y1559644D01*
X1983502Y1559409*
Y1559016*
X1988151*
X1983502D02*
Y1554094D01*
X1983699Y1553898*
X1988151Y1564331D02*
Y1569843D01*
X1978543Y1562756D02*
X1978702D01*
Y1559016*
X2013817Y1566693D02*
X2019980Y1566496D01*
X2020079Y1566398*
X2013817Y1571614D02*
X2019980Y1571417D01*
X2020079Y1571319*
X2014014Y1561772D02*
X2019783D01*
X2020079Y1561476*
X2006299Y1561772D02*
X2009214D01*
X2020079Y1561476D02*
X2021850D01*
X2024902Y1558425*
X2029528*
X1831693Y1591791D02*
X1842028D01*
X1844291Y1589528*
X1831693Y1586870D02*
X1834350Y1586969D01*
X1844291*
Y1589528*
X1831693Y1581949D02*
X1831791Y1581850D01*
X1837954*
X1831693Y1577028D02*
X1831791Y1577126D01*
X1837954*
X1826575Y1591890D02*
X1826673Y1591791D01*
X1831693*
X1826575Y1586969D02*
X1826673Y1586870D01*
X1831693*
X1862205Y1583857D02*
X1870828D01*
X1871260Y1583425*
X1862008Y1593502D02*
X1865748D01*
Y1593661*
X1862008Y1588702D02*
X1862312D01*
X1862598Y1588416*
X1867460*
X1857087Y1584016D02*
Y1574567D01*
X1857677Y1573976*
X1857715Y1574014*
X1863386*
X1857087Y1584016D02*
Y1584331D01*
X1861458Y1588702*
X1862008*
X1871260Y1583425D02*
Y1586378D01*
X1859449Y1576535D02*
Y1579057D01*
X1862205*
X1867460Y1579716D02*
Y1574983D01*
X1868663Y1573780*
X1871260Y1579716D02*
Y1583425D01*
X1875000Y1592874D02*
Y1588476D01*
X1875060Y1588416*
X1899803Y1586969D02*
X1901219Y1585553D01*
Y1581457*
X1896457Y1589724D02*
Y1581494D01*
X1899213Y1589724D02*
Y1587559D01*
X1899803Y1586969*
X1929172Y1593071D02*
Y1597598D01*
X1929528Y1597954*
X1929172Y1593071D02*
X1933858D01*
X1936595Y1595808*
X1929528Y1575589D02*
X1932518D01*
X1934252Y1577323*
X1935236*
X1937243Y1579329*
X1948622*
X1924016Y1575786D02*
X1928150D01*
X1929528Y1575589*
X1923978Y1593071D02*
X1924372D01*
X1948622Y1574529D02*
Y1568502D01*
X1952559Y1579291D02*
X1948584D01*
X1948622Y1579329*
X1973228Y1578701D02*
Y1570236D01*
X1973819Y1569646*
X1980156*
X1980512Y1569290*
X1983268*
X1973228Y1578701D02*
Y1581419D01*
X1975984Y1584175*
X1978937*
X1967520Y1581457D02*
Y1585159D01*
X1967557Y1585197*
X1962205Y1589528D02*
Y1585750D01*
X1962757Y1585197*
X1964961Y1589528D02*
Y1588344D01*
X1967557Y1585747*
Y1585197*
X1978937Y1578739D02*
X1982124D01*
X1982480Y1579094*
X1988189*
X1988189*
Y1575385*
X1978937Y1584175D02*
X1981928D01*
X1982017Y1584085*
X1984389*
X1983858Y1589921D02*
X1987603D01*
X1991989Y1585535*
Y1584085*
X1975591Y1579291D02*
X1978384D01*
X1978937Y1578739*
X1975787Y1573976D02*
Y1573939D01*
X1978937*
Y1592677D02*
Y1588975D01*
X1984389Y1575385D02*
Y1573605D01*
X1988151Y1569843*
X1991989Y1575385D02*
Y1570805D01*
X1992951Y1569843*
X2013817Y1576535D02*
X2019980Y1576339D01*
X2020079Y1576240*
X2013817Y1581457D02*
X2019980Y1581260D01*
X2020079Y1581161*
X2003740Y1581888D02*
X2008586D01*
X2009017Y1581457*
X2008268Y1588543D02*
Y1586083D01*
X2020079*
Y1586181*
X2025591*
X2020079Y1591004D02*
X2025787Y1590906D01*
X1831693Y1611476D02*
X1831988Y1611181D01*
X1832185Y1611378*
X1838151*
X1831693Y1606555D02*
X1837106D01*
X1837205Y1606457*
X1838151*
X1831693Y1601634D02*
X1838053D01*
X1838151Y1601535*
X1831693Y1596713D02*
X1837106D01*
X1837205Y1596614*
X1838151*
X1842951D02*
X1845472D01*
X1846085Y1596220*
X1847835*
X1847835*
Y1595986*
X1859285Y1612476D02*
X1860626Y1613817D01*
Y1618012*
X1859285Y1612476D02*
Y1609180D01*
X1860433Y1609016*
Y1608425*
X1864085Y1612476D02*
Y1609301D01*
X1864173Y1609213*
X1869488Y1608031D02*
Y1607581D01*
X1870219Y1606850*
X1872600*
X1877400D02*
X1879921D01*
X1880118Y1606654*
Y1604094*
X1880315Y1603898*
X1883071*
X1910986D02*
X1912598Y1607638D01*
X1894488Y1601535D02*
Y1601732D01*
X1896654Y1603898*
Y1612953*
X1894488Y1601535D02*
X1895276D01*
X1899213Y1597598*
Y1589724*
X1905906Y1603898D02*
X1910986D01*
X1924175Y1607638D02*
Y1608188D01*
X1926123Y1610310*
Y1610532*
X1926378Y1610787*
X1915786Y1603898D02*
Y1598386D01*
X1916732*
Y1596220*
X1916732*
X1923622Y1597954D02*
Y1593427D01*
X1923978Y1593071*
X1923622Y1602754D02*
Y1607085D01*
X1924175Y1607638*
X1928937Y1602754D02*
X1928975Y1602792D01*
Y1607638*
X1926378Y1610787D02*
X1932008D01*
X1936142Y1606654*
X1936417Y1600786D02*
X1940945D01*
X1940983Y1606063D02*
X1941732D01*
X1944094Y1603701*
X1948819*
X1940945Y1600786D02*
X1943148D01*
X1943701Y1601339*
X1948819*
X1940945Y1600786D02*
Y1600945D01*
X1936595Y1595808D02*
X1938976Y1598189D01*
X1946260*
X1947047Y1598976*
X1948819*
X1960236Y1601339D02*
X1964961Y1596614D01*
Y1589528*
X1971654Y1603701D02*
X1976734D01*
X1990181Y1605295D02*
X1994709D01*
X1997858Y1608445*
Y1614350*
X2001402Y1617894*
Y1634213*
X1976734Y1603701D02*
Y1607206D01*
X1976772Y1607244*
X1981534Y1603701D02*
X1984843D01*
X1980411Y1613551D02*
X1981752Y1614892D01*
Y1619087*
X1985211Y1613551D02*
Y1608425D01*
X1985236*
X1980411Y1613551D02*
X1980411D01*
X1975394Y1612756D02*
X1979921D01*
X2013817Y1605866D02*
X2019980D01*
X2020079Y1605768*
X2013817Y1601142D02*
X2019783D01*
X2020079Y1600846*
X2013817Y1596417D02*
X2019587D01*
X2020079Y1595925*
X2013817Y1610787D02*
X2019980D01*
X2020079Y1610689*
X1831693Y1616398D02*
X1838053D01*
X1838151Y1616496*
X1817717Y1619646D02*
X1828346D01*
X1831693Y1616398*
X1842951Y1616496D02*
X1847047D01*
X1859449Y1629844D02*
X1859910Y1629643D01*
X1864291Y1629568D02*
X1864567Y1629844D01*
X1865744Y1624941D02*
X1868484D01*
X1868504Y1624961*
X1860626Y1618012D02*
X1860630D01*
X1863185D02*
Y1613376D01*
X1864085Y1612476*
X1876181Y1632479D02*
X1881299D01*
X1876181Y1627679D02*
Y1623030D01*
X1881299Y1627679D02*
Y1623227D01*
X1881496Y1623030*
X1908465Y1627126D02*
X1908624Y1626967D01*
X1921222*
X1921654Y1626535*
X1914961Y1619252D02*
Y1622167D01*
X1917951*
X1918701Y1621417*
X1926417*
X1931299Y1616535*
X1931496*
Y1621024D02*
Y1616535D01*
X1943898Y1623620D02*
Y1629254D01*
X1938386Y1623620D02*
Y1626732D01*
X1938583Y1626929*
Y1629254*
X1984252Y1622402D02*
X1986673D01*
X1986870Y1622598*
Y1626016*
X1984252Y1622402D02*
X1984311Y1622343D01*
Y1619087*
X1986870Y1626016D02*
X1989370D01*
Y1625945*
X1984311Y1619087D02*
Y1614451D01*
X1985211Y1613551*
X2014014Y1615709D02*
X2019980D01*
X2020079Y1615610*
X2006299Y1615709D02*
X2009214D01*
X2020079Y1615610D02*
X2020472Y1616102D01*
X2024016Y1619646*
X2029331*
X1869094Y1634606D02*
X1872441Y1631260D01*
Y1624567*
X1869094Y1634606D02*
Y1637142D01*
X1869709Y1637776*
X2000614*
X2001402Y1636988*
Y1634213*
X1872638Y1635000D02*
X1873250Y1634388D01*
Y1633864*
X1874803Y1632479*
X1876181*
X1943898Y1634054D02*
X1946829D01*
X1946850Y1634032*
Y1632835*
X1947047Y1632638*
X1948622Y1634213*
X1938583Y1634054D02*
X1943898D01*
G54D83*
X1834646Y1483819D02*
X1837067Y1481398D01*
Y1479528*
X1898878Y1480118D02*
Y1475295D01*
X1899016Y1475157*
X1949016Y1475354D02*
Y1479665D01*
X1949469Y1480118*
X2009311D02*
Y1481890D01*
X2012795Y1484783*
Y1485591*
X1921350Y1508587D02*
Y1517374D01*
X1924213Y1520236*
X1861220Y1517697D02*
Y1518898D01*
X1863169Y1520846*
X1863563*
X1861220Y1517697D02*
Y1516102D01*
X1862008Y1515315*
X1860630Y1524764D02*
X1862795D01*
X1863563Y1523996*
X1871437D02*
Y1516516D01*
X1871457Y1516496*
X1891142Y1515906D02*
Y1518819D01*
X1893169Y1520846*
X1893563*
X1890551Y1524173D02*
X1893386D01*
X1893563Y1523996*
X1909252Y1532441D02*
Y1532126D01*
X1909311Y1532067*
X1909311*
Y1530295*
X1926969Y1523386D02*
X1931102D01*
X1931713Y1523996*
X1936063*
X1933268Y1521024D02*
X1935886D01*
X1936063Y1520846*
X1955911Y1530795D02*
Y1531345D01*
X1957807Y1533241*
X1958188Y1533622*
X1962795*
X1963583Y1534409*
X1969488*
X1962402Y1523976D02*
X1965043D01*
X1965063Y1523996*
X1962402Y1520827D02*
X1965043D01*
X1965063Y1520846*
X1981673Y1530866D02*
X1984429Y1533622D01*
X1991732*
X1992126Y1534016*
X1999213*
X1991339Y1521220D02*
X1993402D01*
X1994063Y1521346*
X1991339Y1524370D02*
X1993937D01*
X1994063Y1524496*
X1998819Y1516890D02*
Y1521378D01*
X2001937Y1524496*
X1834252Y1552913D02*
X1841535D01*
X1842543Y1553921*
X1846953*
X1822933Y1539724D02*
Y1537307D01*
X1832110Y1528130*
Y1525768*
X1833882Y1523996*
X1834276*
X1822835Y1543465D02*
X1822933Y1543366D01*
Y1539724*
X1822835Y1543465D02*
X1824409Y1545039D01*
X1828346*
X1834078Y1550771*
X1846953*
X1817126Y1539724D02*
Y1539177D01*
X1821087Y1535217*
X1823055*
X1830732Y1527539*
Y1523996*
X1833882Y1520846*
X1834276*
X1817126Y1539724D02*
Y1540709D01*
X1822835Y1546417*
X1827756*
X1834252Y1552913*
X1819488Y1539724D02*
X1822933D01*
X1888583Y1552520D02*
X1897095D01*
X1899654Y1555078*
X1903996Y1533819D02*
X1904783Y1534606D01*
X1910039*
X1911024Y1535591*
Y1535628*
X1911417Y1536022*
X1914173*
X1928937Y1544252D02*
Y1538894D01*
X1931543Y1536287*
Y1535028*
X1935236Y1552323D02*
X1935433Y1552520D01*
X1939961*
X1945276Y1547205*
X1965748*
X1969685Y1543268*
Y1535591*
X1969488Y1534409D02*
X1976303D01*
X1980417Y1530295*
X1980811*
X1969488Y1534409D02*
Y1535394D01*
X1969685Y1535591*
X1984055Y1549764D02*
X1985630Y1551339D01*
X1986339*
X1988348Y1553348*
Y1553898*
X1999213Y1534016D02*
X2006197D01*
X2007934Y1532279*
X2009417Y1530795*
X2009811*
X1999213Y1534016D02*
X1999409Y1534213D01*
Y1546811*
X1830906Y1558031D02*
X1842323D01*
X1843701Y1559409*
X1846141*
X1846953Y1560221*
X1831693Y1553898D02*
X1833661D01*
X1834252Y1553307*
Y1552913*
X1842754Y1567087D02*
X1845079D01*
X1845669Y1567677*
Y1567874*
X1842951Y1572205D02*
X1845866D01*
X1839370Y1555669D02*
X1842323D01*
X1843725Y1557071*
X1846953*
X1850000Y1559409D02*
X1852141D01*
X1852953Y1560221*
X1846953D02*
X1849291Y1562559D01*
X1855315*
X1855774Y1562100*
X1856442*
X1861496Y1557047*
X1875591*
X1877953Y1559409*
Y1571024*
X1882677Y1575748*
X1888611*
X1890157Y1577295*
Y1578307*
X1873425Y1554450D02*
X1876537D01*
X1878150Y1556063*
X1864567Y1554882D02*
X1868269D01*
X1868504Y1554647*
X1880709Y1568858D02*
Y1569843D01*
X1885039Y1574173*
X1889173*
X1892323Y1577323*
Y1585000*
X1880709Y1568858D02*
Y1558031D01*
X1882480Y1556260*
X1885827*
X1885827*
Y1558228*
X1889567Y1557047D02*
X1891142Y1555472D01*
Y1555275*
X1891339Y1555078*
X1893654*
X1885827Y1558228D02*
X1887795D01*
X1888583Y1559016*
X1892866*
X1893654Y1558228*
X1882677Y1568858D02*
X1889323D01*
X1893654Y1564528*
X1883268Y1558425D02*
Y1558622D01*
X1886024Y1561378*
X1893654*
Y1555078D02*
X1896063D01*
X1896654Y1555669*
Y1566890*
X1900000Y1570236*
Y1573189*
X1908592Y1565974D02*
X1908858Y1566239D01*
X1899654Y1564528D02*
X1902558D01*
X1904005Y1565974*
X1908592*
X1933071Y1557244D02*
Y1556850D01*
X1935236Y1554685*
Y1552323*
X1939135Y1558425D02*
Y1557875D01*
X1948622Y1563702D02*
Y1560591D01*
X1950000Y1559213*
Y1554094*
X1952953Y1564527D02*
Y1575945D01*
X1954528Y1577520*
Y1579291*
X1952953Y1564527D02*
Y1557441D01*
X1954528Y1555866*
X1956496*
X1958465Y1557835*
Y1558574*
X1961268Y1561377*
X1950000Y1554094D02*
X1953937D01*
X1954528Y1553504*
X1964428Y1567677D02*
X1967323D01*
X1973622Y1567087D02*
X1974016D01*
X1961268Y1561377D02*
X1968306D01*
X1970472Y1563543*
X1974213*
X1961268Y1564527D02*
X1968307D01*
X1970866Y1567087*
X1973622*
X1961268Y1567677D02*
X1964428D01*
X1964428*
X1961268Y1570827D02*
X1964174D01*
X1964567Y1571220*
X1967323*
X1978899Y1553898D02*
Y1551142D01*
X1979687Y1550354*
X1980512*
X1981102Y1549764*
Y1547795*
X2006102Y1573780D02*
X2008858Y1576535D01*
X2009017*
X2005709Y1570630D02*
X2008033D01*
X2009017Y1571614*
X2000591Y1570236D02*
X2004134Y1566693D01*
X2009017*
X1842754Y1577126D02*
X1845669D01*
X1845866Y1577323*
X1842754Y1581850D02*
X1845669D01*
X1845866Y1582047*
X1888386Y1585000D02*
Y1586575D01*
X1888976Y1587165*
Y1589724*
X1888386Y1585000D02*
Y1582441D01*
X1890157Y1580669*
Y1578307*
X1879331Y1576142D02*
Y1578110D01*
X1879724Y1578504*
Y1587756*
X1882677Y1590709*
Y1594055*
X1883661Y1586969D02*
Y1585000D01*
X1883858Y1584803*
X1884646*
X1883268Y1579291D02*
Y1579685D01*
X1884646Y1581063*
Y1584803*
X1875060Y1579716D02*
X1877725D01*
X1877756Y1579685*
X1886220Y1589724D02*
X1887008Y1588937D01*
Y1579488*
X1888189Y1578307*
X1891732Y1589724D02*
Y1587559D01*
X1891732*
X1892323Y1586969*
Y1585000*
X1894094Y1589724D02*
Y1579291D01*
X1895669Y1577717*
X1897047*
X1900000Y1574764*
Y1573189*
X1896419Y1581457D02*
X1896457Y1581494D01*
X1901575Y1589724D02*
Y1589232D01*
X1905610Y1585197*
X1908661*
X1912598Y1581260*
X1915157Y1581457D02*
X1918504Y1584803D01*
Y1589331*
X1928937Y1589724D02*
Y1592836D01*
X1929172Y1593071*
X1915748Y1578898D02*
X1919094Y1582244D01*
X1933465*
X1935236Y1584016*
Y1589724*
X1941732Y1596220*
X1948819*
X1918504Y1589331D02*
X1922244Y1593071D01*
X1923978*
X1950197Y1589528D02*
Y1591496D01*
X1950787Y1592087*
X1957480*
X1957480*
Y1589528*
X1950197D02*
Y1584409D01*
X1953346Y1581260*
X1953543*
X1954528Y1580276*
Y1579291*
X1941535Y1588937D02*
X1944094Y1591496D01*
X1945571*
X1947933Y1593858*
X1948425*
X1951969Y1589528D02*
Y1587362D01*
X1951969*
X1952559Y1586772*
Y1584016*
X1953937Y1582638*
X1954134*
X1958268Y1578504*
Y1569843*
X1960433Y1567677*
X1964428*
X1970276Y1589528D02*
X1973013Y1586791D01*
X1981624*
X1982402Y1587569*
X1985847*
X1989764Y1583652*
Y1579060*
X1991989Y1576835*
Y1575385*
X1959449Y1581850D02*
Y1586772D01*
X1959843Y1587165*
Y1589528*
X1959449Y1581850D02*
X1962205D01*
X1971063Y1572992*
Y1571614*
X1971161Y1571516*
Y1569547*
X1973622Y1567087*
X1954724Y1584016D02*
Y1587362D01*
X1954724*
Y1589528*
Y1584016D02*
X1954724D01*
X1960457Y1578283*
Y1573873*
X1961268Y1573062*
X1961268*
Y1570827*
X1967323Y1589528D02*
X1970276D01*
X2003740Y1581888D02*
X2003899Y1582047D01*
X2006299*
X2001772Y1574173D02*
Y1576142D01*
X2002718Y1577088*
X2003740*
X2008268Y1588543D02*
X2010728Y1591004D01*
X2020079*
X2025591Y1586181D02*
X2025787D01*
X2025787*
X2025787*
X1842951Y1611378D02*
X1846457D01*
X1842951Y1606457D02*
X1845472D01*
X1846654Y1607638*
Y1608031*
X1842951Y1601535D02*
X1843898D01*
Y1601732*
X1846457Y1604291*
X1847835Y1600786D02*
X1848819Y1601770D01*
Y1602970*
X1848819*
Y1612953*
X1850000Y1614134*
X1847835Y1595986D02*
X1848385D01*
X1850984Y1598585*
Y1601732*
X1854528Y1605276*
X1852362Y1609016D02*
X1856102D01*
X1856693Y1609606*
X1872009Y1600157D02*
X1874765Y1597402D01*
X1878740*
X1880512Y1599173*
X1883071*
X1872835Y1611575D02*
Y1620233D01*
X1875631Y1623030*
X1876181*
X1872835Y1611575D02*
Y1610591D01*
X1873819Y1609606*
X1876378*
X1879331Y1612559*
X1881299*
X1883071Y1610787*
Y1608622*
X1871063Y1595827D02*
Y1599211D01*
X1872009Y1600157*
X1858858Y1603898D02*
X1863780D01*
X1865748Y1601929*
X1869291*
X1870866Y1603504*
X1875787*
X1876809Y1600157D02*
X1879134D01*
X1879921Y1600945*
Y1601142*
X1875787Y1595433D02*
X1879528D01*
X1880315Y1596417*
X1883071*
X1875787Y1603504D02*
X1876969Y1605472D01*
Y1606419*
X1877400Y1606850*
X1874803Y1611575D02*
Y1614331D01*
X1876181Y1615709*
Y1618230*
X1877362Y1613543D02*
X1878937Y1615118D01*
Y1616221*
X1880946Y1618230*
X1881496*
X1879921Y1601142D02*
X1882677D01*
X1883071Y1601535*
Y1606260D02*
X1885236D01*
Y1608622*
X1891535Y1612953D02*
Y1615709D01*
X1891732Y1615906*
Y1624764*
X1895276Y1628307*
X1898819*
X1888976Y1612953D02*
Y1615512D01*
X1890354Y1616890*
Y1625413*
X1892520Y1627579*
X1893898Y1628957*
Y1632441*
X1886417Y1612953D02*
Y1618465D01*
X1886811Y1618858*
Y1621024*
X1913583Y1594646D02*
X1913780Y1594843D01*
Y1596614*
X1905906Y1594055D02*
Y1591299D01*
X1908465Y1588740*
X1905906Y1596614D02*
X1908465D01*
X1908858Y1596220*
Y1596024*
X1910827Y1594055*
X1905906Y1599173D02*
X1909252D01*
X1911811Y1596614*
X1905906Y1601535D02*
X1908465D01*
X1909252Y1600748*
X1910630*
X1913780Y1597598*
Y1596614*
X1905906Y1606260D02*
X1908465D01*
X1909055Y1606850*
Y1607047*
X1905906Y1608622D02*
X1906102Y1609606D01*
X1909055*
X1899213Y1612953D02*
Y1610787D01*
X1904921*
X1910630Y1616535*
X1921496*
X1936417Y1595986D02*
X1936595Y1595808D01*
X1936142Y1606654D02*
X1936183D01*
Y1606063*
X1944882Y1609213D02*
X1946457Y1608425D01*
X1948819*
X1945472Y1606063D02*
X1948819D01*
X1939764Y1611378D02*
Y1607282D01*
X1940983Y1606063*
X1952165Y1612756D02*
Y1615512D01*
X1952756Y1616102*
Y1618268*
X1962402Y1610591D02*
X1964961D01*
X1964961*
Y1612756*
X1969488Y1608425D02*
Y1606063D01*
X1971654*
X1969488Y1608425D02*
Y1612559D01*
X1972441Y1615512*
X1971654Y1593858D02*
X1972835D01*
X1973622Y1593071*
Y1590906*
X1971654Y1596417D02*
X1972835D01*
X1974213Y1595039*
Y1594843*
X1975197Y1593858*
X1977165*
X1977953Y1594646*
X1987402*
X1994685Y1587362*
X1996260*
X1999016Y1584606*
Y1573976*
X2000787Y1572205*
X2002756*
X2003937Y1573386*
Y1573583*
X2004134Y1573780*
X2006102*
X1971654Y1598976D02*
X1973031D01*
X1976181Y1595827*
X1971654Y1601339D02*
X1974409D01*
X1975394Y1600354*
X1981693*
X1971654Y1608425D02*
X1972539D01*
X1974114Y1610000*
X1978740*
X1982283Y1606457*
X1986220*
X1987402Y1607638*
Y1613551*
X1957283Y1612756D02*
Y1617874D01*
X1959055Y1619646*
X1954724Y1612756D02*
Y1615315D01*
X1954724*
Y1620295*
X1954921Y1620492*
X1954921*
Y1622795*
X1956102Y1623976*
X2005118Y1596614D02*
X2008820D01*
X2009017Y1596417*
X2004921Y1606063D02*
X2008820D01*
X2009017Y1605866*
X2004724Y1601339D02*
X2006693D01*
Y1601142*
X2009017*
X2005512Y1609803D02*
X2008033D01*
X2009017Y1610787*
X1827780Y1628327D02*
Y1635217D01*
X1830319Y1637756*
X1847638*
X1847657Y1637776*
X1869709*
X1827780Y1628327D02*
Y1627299D01*
X1831496Y1623583*
X1832480*
Y1633425D02*
X1837012D01*
X1837228Y1633445*
X1840181*
X1852165Y1633425D02*
X1855512D01*
Y1633463*
X1856693Y1634644*
X1859449*
X1852165Y1623583D02*
X1853150D01*
X1854162Y1622571*
X1854652*
X1855608Y1621614*
X1867576*
X1867773Y1621417*
X1867913*
X1870472Y1623976*
Y1624961*
X1847244Y1620630D02*
X1850000Y1617874D01*
Y1614134*
X1852362Y1617087D02*
X1854724D01*
X1855650Y1618012*
X1858067*
X1859910Y1629643D02*
X1860626Y1628927D01*
Y1624941*
X1863185D02*
Y1628462D01*
X1864291Y1629568*
X1865744Y1618012D02*
Y1616795D01*
X1867520Y1615019*
Y1607047*
X1868110Y1606457*
Y1603898*
X1881496Y1623030D02*
X1882046D01*
X1884449Y1620627*
Y1610984*
X1885236Y1610197*
Y1608622*
X1893307Y1619449D02*
Y1617283D01*
X1894094Y1616496*
Y1612953*
X1893307Y1619449D02*
Y1621614D01*
X1886811Y1625354D02*
Y1621024D01*
X1893307Y1621614D02*
Y1623386D01*
X1895276Y1625354*
X1899016Y1623780D02*
X1900984Y1621811D01*
Y1617480*
X1901772Y1616693*
Y1612953*
X1921496Y1616535D02*
X1921693D01*
X1925472Y1612756*
X1927559*
X1927756Y1612559*
X1935827*
X1938780Y1615512*
X1944291*
X1949213Y1610591*
X1962402*
X1943898Y1618820D02*
X1944448D01*
X1946848Y1622205*
X1948622*
X1951772Y1624567D02*
Y1622205D01*
X1952756Y1621220*
Y1618268*
X1951772Y1624567D02*
X1952165Y1624961D01*
Y1630866*
X1935039Y1621417D02*
X1935827Y1620630D01*
Y1619646*
X1936652Y1618820*
X1938386*
X1972441Y1615512D02*
X1976835D01*
X1979193Y1617870*
Y1619087*
X1965945Y1619055D02*
Y1616890D01*
X1967520Y1615315*
Y1612756*
X1959646Y1617087D02*
Y1612756D01*
X1959843*
X1963189Y1624370D02*
Y1618661D01*
X1964370Y1617480*
Y1615906*
X1964961Y1615315*
Y1612756*
X1956102Y1623976D02*
X1961614Y1629488D01*
X1972441*
X1975394Y1626535*
Y1625157*
X1975946Y1632047D02*
Y1632597D01*
X1978152Y1634803*
X1992126*
X1992717Y1634213*
X1997244*
X1980746Y1632047D02*
Y1629057D01*
X1981693Y1628110*
Y1627736*
X1990195Y1631850D02*
Y1631300D01*
X1992520Y1628976*
Y1624961*
X1993110Y1624370*
X1997244*
X1984311Y1626016D02*
Y1627893D01*
X1985395Y1628977*
Y1631850*
X1986870Y1619087D02*
X1987402Y1618555D01*
Y1613551*
X2012031Y1624193D02*
X2016752D01*
X2016929Y1624370*
X1864567Y1634644D02*
X1865117D01*
X1867520Y1632241*
Y1629291*
X1870472Y1626339*
Y1624961*
X1931496Y1635000D02*
X1933071Y1633425D01*
X1934252*
X1936024Y1631654*
X1940948*
X1943348Y1629254*
X1943898*
X1919882Y1635591D02*
X1927756D01*
X1931299Y1632047*
X1933661*
X1936455Y1629254*
X1938583*
X2011614Y1634213D02*
X2016929D01*
G54D84*
X1887811Y1539795D02*
Y1547598D01*
X1888008Y1547795*
X1890354*
X1890945Y1548386*
X1913189*
X1918307Y1543268*
X1922071*
X1923843Y1541496*
Y1531508*
G54D86*
X1908858Y1573839D02*
X1913243D01*
X1915742Y1576339*
X1917126*
X1921063Y1580276*
X1932874*
X1901219Y1581457D02*
Y1577285D01*
X1902953Y1575551*
Y1571614*
X1908592Y1565974*
X1962402Y1612756D02*
Y1616496D01*
X1921654Y1626535D02*
X1921850D01*
X1925984Y1630669*
X1926772*
X1926969Y1630866*
Y1633228*
G54D87*
X1908858Y1566239D02*
X1909258D01*
X1913976Y1570957*
Y1571220*
X1916535Y1573780*
X1918663*
X1920669Y1575786*
X1924016*
X1932874Y1580276D02*
X1934449D01*
X1938386Y1584213*
Y1585787*
Y1589921*
X1829134Y1478504D03*
X1834646Y1483819D03*
X1850000Y1482441D03*
X1857283Y1482638D03*
X1890945Y1480276D03*
X1879528Y1480079D03*
X1899016Y1475157D03*
X1918307Y1482638D03*
X1928346Y1479882D03*
X1940748Y1480276D03*
X1949016Y1475354D03*
X1969488Y1482835D03*
X1989567Y1480079D03*
X2001378Y1480276D03*
X2012795Y1485591D03*
X2019685Y1485984D03*
X1932677Y1501929D03*
X1929134Y1502126D03*
X1925787D03*
X1922638D03*
Y1497795D03*
X1925787D03*
X1929134D03*
X1932677D03*
X1934646Y1512362D03*
X1936024Y1501929D03*
Y1497795D03*
X2030315Y1500551D03*
X1832480Y1532638D03*
X1841339Y1516496D03*
X1853150Y1523976D03*
X1862008Y1515315D03*
X1860630Y1524764D03*
X1871457Y1516496D03*
X1862205Y1532835D03*
X1891142Y1515906D03*
X1890551Y1524173D03*
X1890945Y1533228D03*
X1882087Y1523976D03*
X1900394Y1516496D03*
X1911614Y1524173D03*
X1909252Y1532638D03*
X1924213Y1520236D03*
X1929528Y1520039D03*
X1926969Y1523386D03*
X1933268Y1521024D03*
X1939370Y1515512D03*
X1949213Y1533228D03*
X1972047Y1515906D03*
X1962402Y1523976D03*
Y1520827D03*
X1954331Y1523976D03*
X1968110Y1532441D03*
X1983465Y1523976D03*
X1991339Y1521220D03*
Y1524370D03*
X1998819Y1516890D03*
X1997244Y1532047D03*
X2012402Y1524567D03*
X2022244Y1532441D03*
X1819488Y1539724D03*
Y1546220D03*
X1853346Y1534409D03*
X1888583Y1552520D03*
X1882283Y1534213D03*
X1928937Y1544252D03*
X1933071Y1546220D03*
X1935236Y1552323D03*
X1939961Y1552520D03*
X1954528Y1553504D03*
X1969685Y1535591D03*
X1981102Y1547795D03*
X1984055Y1549764D03*
X1999409Y1546811D03*
X1830906Y1558031D03*
X1831693Y1553898D03*
X1825197Y1566890D03*
X1820276Y1558425D03*
X1825000Y1572008D03*
X1825197Y1561772D03*
X1839370Y1555669D03*
X1845669Y1567874D03*
X1845866Y1572205D03*
X1847835Y1564724D03*
X1850000Y1559409D03*
X1852756Y1572008D03*
X1859449Y1570039D03*
X1864567Y1554882D03*
X1878150Y1556063D03*
X1889567Y1557047D03*
X1885827Y1558228D03*
X1882677Y1568858D03*
X1883268Y1558425D03*
X1922638Y1562165D03*
X1917913Y1570236D03*
X1917520Y1557244D03*
X1917913Y1567874D03*
Y1565512D03*
X1945472Y1572598D03*
X1947244Y1558425D03*
X1955512Y1557835D03*
X1967323Y1567677D03*
X1974016Y1567087D03*
X1967323Y1571220D03*
X1974213Y1563543D03*
X1978543Y1562756D03*
X2006102Y1573780D03*
X2005709Y1570630D03*
X2000591Y1570236D03*
X2006299Y1561772D03*
X2025787Y1571614D03*
Y1566890D03*
X2029528Y1558425D03*
X2025197Y1561969D03*
X1814197Y1593681D03*
Y1590728D03*
X1825197Y1581654D03*
Y1576732D03*
X1826575Y1591890D03*
Y1586969D03*
X1845866Y1582047D03*
Y1577323D03*
X1852559Y1579685D03*
X1852362Y1583228D03*
X1852559Y1575354D03*
X1871260Y1586378D03*
X1859449Y1576535D03*
X1865748Y1593661D03*
X1888189Y1578307D03*
X1879331Y1576142D03*
X1877756Y1579685D03*
X1890354Y1585000D03*
X1884646Y1584803D03*
X1883661Y1586969D03*
X1875000Y1592874D03*
X1908465Y1588740D03*
X1912598Y1581260D03*
X1909055Y1580079D03*
X1899803Y1586969D03*
X1915157Y1581457D03*
X1928937Y1589724D03*
X1932874Y1580276D03*
X1915748Y1578898D03*
X1938386Y1589921D03*
Y1585787D03*
X1941535Y1588937D03*
X1952559Y1579291D03*
X1968898Y1592677D03*
X1967520Y1581457D03*
X1955512Y1574567D03*
X1973622Y1590906D03*
X1983858Y1589921D03*
X1975591Y1579291D03*
X1975787Y1573976D03*
X1978937Y1592677D03*
X2006299Y1582047D03*
X2001772Y1574173D03*
X1996063Y1574567D03*
Y1578110D03*
Y1583622D03*
X1995866Y1591299D03*
X2025787Y1576339D03*
Y1581457D03*
Y1586181D03*
Y1590906D03*
X1825394Y1596024D03*
Y1600945D03*
Y1606260D03*
Y1611378D03*
X1846457Y1604291D03*
X1846654Y1608031D03*
X1846457Y1611378D03*
X1852756Y1595827D03*
X1854528Y1605276D03*
X1868110Y1603898D03*
X1864173Y1609213D03*
X1856693Y1609606D03*
X1871063Y1595827D03*
X1869488Y1608031D03*
X1860433Y1608425D03*
X1854331Y1599764D03*
X1862008D03*
X1875787Y1595433D03*
X1880315Y1610591D03*
X1875787Y1603504D03*
X1874803Y1611575D03*
X1877362Y1613543D03*
X1879921Y1601142D03*
X1911811Y1596614D03*
X1910827Y1594055D03*
X1913583Y1594646D03*
X1909055Y1607047D03*
Y1609606D03*
X1912598Y1607638D03*
X1916732Y1596220D03*
X1926575Y1600354D03*
X1926378Y1610787D03*
X1940945Y1600945D03*
X1944882Y1609213D03*
X1945472Y1606063D03*
X1967126Y1610000D03*
X1990181Y1605295D03*
X1979134Y1597008D03*
X1976181Y1595827D03*
X1981693Y1600354D03*
X1984843Y1603701D03*
X1985236Y1608425D03*
X1976772Y1607244D03*
X1975394Y1612756D03*
X2005118Y1596614D03*
X2000787Y1610000D03*
X2004921Y1606063D03*
X2004724Y1601339D03*
X2005512Y1609803D03*
X1995276Y1609016D03*
X1995866Y1599567D03*
Y1595433D03*
X2025591Y1596417D03*
X2025394Y1605866D03*
Y1601142D03*
Y1610787D03*
X1817717Y1619646D03*
X1826181Y1616496D03*
X1829748Y1628327D03*
X1840181Y1633445D03*
X1852559Y1619843D03*
X1847244Y1620630D03*
X1852362Y1617087D03*
X1847047Y1616496D03*
X1868504Y1624961D03*
X1872441Y1624567D03*
X1886811Y1621024D03*
X1893898Y1632441D03*
X1899016Y1619449D03*
X1895276Y1621614D03*
X1899016Y1623780D03*
X1898819Y1628307D03*
X1895276Y1625354D03*
X1910236Y1619449D03*
X1906693D03*
X1902953Y1619646D03*
X1923425Y1633228D03*
X1914961Y1619252D03*
X1931496Y1621024D03*
X1926969Y1633228D03*
X1952756Y1618268D03*
X1948622Y1622205D03*
X1935039Y1621417D03*
X1948622Y1619252D03*
X1965945Y1619055D03*
X1959055Y1619646D03*
X1959646Y1617087D03*
X1962402Y1616496D03*
X1972244Y1626732D03*
X1975394Y1625157D03*
X1989370Y1625945D03*
X2012031Y1624193D03*
X2006299Y1615709D03*
X2024803Y1615906D03*
X2029331Y1619646D03*
X2023031Y1623583D03*
X2018307Y1618858D03*
X1872638Y1635000D03*
X1899213Y1634803D03*
X1903740Y1634213D03*
X1931496Y1635000D03*
X1919882Y1635591D03*
X1934843D03*
X1948622Y1634213D03*
X2011614D03*
G54D89*
X1869811Y1489795D02*
Y1493465D01*
X1875894Y1499547*
X1876004*
X1876811Y1500354*
Y1508795*
X1981811Y1489795D02*
X1988236Y1496220D01*
X1990266*
X1993012Y1498967*
X1993311*
Y1508795*
G54D93*
X1893878Y1501890D02*
Y1498346D01*
X1898878Y1501890D02*
Y1498346D01*
X1903878Y1501890D02*
Y1498346D01*
X1908878Y1501890D02*
Y1498346D01*
Y1481890D02*
Y1478346D01*
X1903878Y1481890D02*
Y1478346D01*
X1898878Y1481890D02*
Y1478346D01*
X1893878Y1481890D02*
Y1478346D01*
X2004311Y1501890D02*
Y1498346D01*
X2009311Y1501890D02*
Y1498346D01*
X2014311Y1501890D02*
Y1498346D01*
X2019311Y1501890D02*
Y1498346D01*
Y1481890D02*
Y1478346D01*
X2014311Y1481890D02*
Y1478346D01*
X2009311Y1481890D02*
Y1478346D01*
X2004311Y1481890D02*
Y1478346D01*
X1832067Y1501299D02*
Y1497756D01*
X1837067Y1501299D02*
Y1497756D01*
X1842067Y1501299D02*
Y1497756D01*
X1847067Y1501299D02*
Y1497756D01*
Y1481299D02*
Y1477756D01*
X1842067Y1481299D02*
Y1477756D01*
X1837067Y1481299D02*
Y1477756D01*
X1832067Y1481299D02*
Y1477756D01*
X1944469Y1501890D02*
Y1498346D01*
X1949469Y1501890D02*
Y1498346D01*
X1954469Y1501890D02*
Y1498346D01*
X1959469Y1501890D02*
Y1498346D01*
Y1481890D02*
Y1478346D01*
X1954469Y1481890D02*
Y1478346D01*
X1949469Y1481890D02*
Y1478346D01*
X1944469Y1481890D02*
Y1478346D01*
G54D94*
X1886417Y1613839D02*
Y1612461D01*
X1888976Y1613839D02*
Y1612461D01*
X1891535Y1613839D02*
Y1612461D01*
X1894094Y1613839D02*
Y1612461D01*
X1896654Y1613839D02*
Y1612461D01*
X1899213Y1613839D02*
Y1612461D01*
X1901772Y1613839D02*
Y1612461D01*
X1906791Y1608622D02*
X1905413D01*
X1906791Y1606260D02*
X1905413D01*
X1906791Y1603898D02*
X1905413D01*
X1906791Y1601535D02*
X1905413D01*
X1906791Y1599173D02*
X1905413D01*
X1906791Y1596614D02*
X1905413D01*
X1906791Y1594055D02*
X1905413D01*
X1901575Y1590610D02*
Y1589232D01*
X1899213Y1590610D02*
Y1589232D01*
X1896457Y1590610D02*
Y1589232D01*
X1894094Y1590610D02*
Y1589232D01*
X1891732Y1590610D02*
Y1589232D01*
X1888976Y1590610D02*
Y1589232D01*
X1886220Y1590610D02*
Y1589232D01*
X1883563Y1594055D02*
X1882185D01*
X1883563Y1596417D02*
X1882185D01*
X1883563Y1599173D02*
X1882185D01*
X1883563Y1601535D02*
X1882185D01*
X1883563Y1603898D02*
X1882185D01*
X1883563Y1606260D02*
X1882185D01*
X1883563Y1608622D02*
X1882185D01*
X1952165Y1613642D02*
Y1612264D01*
X1954724Y1613642D02*
Y1612264D01*
X1957283Y1613642D02*
Y1612264D01*
X1959843Y1613642D02*
Y1612264D01*
X1962402Y1613642D02*
Y1612264D01*
X1964961Y1613642D02*
Y1612264D01*
X1967520Y1613642D02*
Y1612264D01*
X1972539Y1608425D02*
X1971161D01*
X1972539Y1606063D02*
X1971161D01*
X1972539Y1603701D02*
X1971161D01*
X1972539Y1601339D02*
X1971161D01*
X1972539Y1598976D02*
X1971161D01*
X1972539Y1596417D02*
X1971161D01*
X1972539Y1593858D02*
X1971161D01*
X1967323Y1590413D02*
Y1589035D01*
X1964961Y1590413D02*
Y1589035D01*
X1962205Y1590413D02*
Y1589035D01*
X1959843Y1590413D02*
Y1589035D01*
X1957480Y1590413D02*
Y1589035D01*
X1954724Y1590413D02*
Y1589035D01*
X1951969Y1590413D02*
Y1589035D01*
X1949311Y1593858D02*
X1947933D01*
X1949311Y1596220D02*
X1947933D01*
X1949311Y1598976D02*
X1947933D01*
X1949311Y1601339D02*
X1947933D01*
X1949311Y1603701D02*
X1947933D01*
X1949311Y1606063D02*
X1947933D01*
X1949311Y1608425D02*
X1947933D01*
G54D95*
X1894488Y1601339D03*
X1960236Y1601142D03*
G54D96*
X1931693Y1626535D02*
X1931299D01*
X1931693Y1616535D02*
X1931299D01*
X1921693D02*
X1921299D01*
X1921850Y1626535D02*
X1921457D01*
G54D97*
X1865744Y1616795D02*
Y1619229D01*
X1863185Y1616795D02*
Y1619229D01*
X1860626Y1616795D02*
Y1619229D01*
X1858067Y1616795D02*
Y1619229D01*
Y1623724D02*
Y1626158D01*
X1860626Y1623724D02*
Y1626158D01*
X1863185Y1623724D02*
Y1626158D01*
X1865744Y1623724D02*
Y1626158D01*
X1986870Y1617870D02*
Y1620304D01*
X1984311Y1617870D02*
Y1620304D01*
X1981752Y1617870D02*
Y1620304D01*
X1979193Y1617870D02*
Y1620304D01*
Y1624799D02*
Y1627233D01*
X1981752Y1624799D02*
Y1627233D01*
X1984311Y1624799D02*
Y1627233D01*
X1986870Y1624799D02*
Y1627233D01*
G54D98*
X1942776Y1562518D02*
Y1565418D01*
X1938976Y1562518D02*
Y1565418D01*
X1935176Y1562518D02*
Y1565418D01*
Y1571218D02*
Y1574118D01*
X1942776Y1571218D02*
Y1574118D01*
X1875060Y1578266D02*
Y1581166D01*
X1871260Y1578266D02*
Y1581166D01*
X1867460Y1578266D02*
Y1581166D01*
Y1586966D02*
Y1589866D01*
X1875060Y1586966D02*
Y1589866D01*
X1991989Y1573935D02*
Y1576835D01*
X1988189Y1573935D02*
Y1576835D01*
X1984389Y1573935D02*
Y1576835D01*
Y1582635D02*
Y1585535D01*
X1991989Y1582635D02*
Y1585535D01*
G54D99*
X1926575Y1600354D02*
X1928937Y1602717D01*
Y1602754*
G54D122*
X1820299Y1482461D03*
X2030929D03*
G54D123*
X1821811Y1524295D03*
G54D124*
X2029811D03*
G54D126*
X1851181Y1623583D02*
X1853150D01*
X1851181Y1628504D02*
X1853150D01*
X1851181Y1633425D02*
X1853150D01*
X1831496D02*
X1833465D01*
X1831496Y1623583D02*
X1833465D01*
X1998228Y1634213D02*
X1996260D01*
X1998228Y1629291D02*
X1996260D01*
X1998228Y1624370D02*
X1996260D01*
X2017913D02*
X2015945D01*
X2017913Y1634213D02*
X2015945D01*
G74*
X0Y0D02*
M02*
