*
*
G04 PADS Layout (Build Number 2007.21.1) generated Gerber (RS-274-X) file*
G04 PC Version=2.1*
*
%IN "2FOC-002.pcb"*%
*
%MOIN*%
*
%FSLAX35Y35*%
*
*
*
*
G04 PC Standard Apertures*
*
*
G04 Thermal Relief Aperture macro.*
%AMTER*
1,1,$1,0,0*
1,0,$1-$2,0,0*
21,0,$3,$4,0,0,45*
21,0,$3,$4,0,0,135*
%
*
*
G04 Annular Aperture macro.*
%AMANN*
1,1,$1,0,0*
1,0,$2,0,0*
%
*
*
G04 Odd Aperture macro.*
%AMODD*
1,1,$1,0,0*
1,0,$1-0.005,0,0*
%
*
*
G04 PC Custom Aperture Macros*
*
*
*
*
*
*
G04 PC Aperture Table*
*
%ADD010C,0.01*%
%ADD016R,0.035X0.024*%
%ADD019R,0.024X0.035*%
%ADD027R,0.06X0.052*%
%ADD035C,0.04*%
%ADD037C,0.05*%
%ADD043R,0.025X0.025*%
%ADD048R,0.16X0.076*%
%ADD070C,0.001*%
%ADD072R,0.02756X0.02756*%
%ADD073R,0.08268X0.08268*%
%ADD076R,0.01575X0.01575*%
%ADD077R,0.10236X0.10236*%
%ADD079R,0.07992X0.07992*%
%ADD080R,0.02992X0.02992*%
%ADD093R,0.02362X0.02362*%
%ADD094R,0.01378X0.01378*%
%ADD095R,0.14567X0.14567*%
%ADD096R,0.05906X0.05906*%
%ADD097R,0.017X0.017*%
%ADD098R,0.021X0.021*%
%ADD126R,0.03937X0.03937*%
*
*
*
*
G04 PC Circuitry*
G04 Layer Name 2FOC-002.pcb - circuitry*
%LPD*%
*
*
G04 PC Custom Flashes*
G04 Layer Name 2FOC-002.pcb - flashes*
%LPD*%
*
*
G04 PC Circuitry*
G04 Layer Name 2FOC-002.pcb - circuitry*
%LPD*%
*
G54D10*
G01X1930512Y1408492D02*
Y1401929D01*
Y1408492D02*
X1928466D01*
X1927785Y1408179*
X1927557Y1407867*
X1927330Y1407242*
Y1406304*
X1927557Y1405679*
X1927785Y1405367*
X1928466Y1405054*
X1930512*
X1923466Y1408492D02*
X1925285Y1401929D01*
X1923466Y1408492D02*
X1921648Y1401929D01*
X1924603Y1404117D02*
X1922330D01*
X1916421Y1407554D02*
X1916875Y1408179D01*
X1917557Y1408492*
X1918466*
X1919148Y1408179*
X1919603Y1407554*
Y1406929*
X1919375Y1406304*
X1919148Y1405992*
X1918694Y1405679*
X1917330Y1405054*
X1916875Y1404742*
X1916648Y1404429*
X1916421Y1403804*
Y1402867*
X1916875Y1402242*
X1917557Y1401929*
X1918466*
X1919148Y1402242*
X1919603Y1402867*
X1912785Y1408492D02*
Y1401929D01*
X1914375Y1408492D02*
X1911194D01*
X1909148D02*
Y1401929D01*
Y1408492D02*
X1906194D01*
X1909148Y1405367D02*
X1907330D01*
X1909148Y1401929D02*
X1906194D01*
X1898921Y1408492D02*
Y1401929D01*
Y1408492D02*
X1897103Y1401929D01*
X1895285Y1408492D02*
X1897103Y1401929D01*
X1895285Y1408492D02*
Y1401929D01*
X1891421Y1408492D02*
X1893239Y1401929D01*
X1891421Y1408492D02*
X1889603Y1401929D01*
X1892557Y1404117D02*
X1890285D01*
X1884375Y1407554D02*
X1884830Y1408179D01*
X1885512Y1408492*
X1886421*
X1887103Y1408179*
X1887557Y1407554*
Y1406929*
X1887330Y1406304*
X1887103Y1405992*
X1886648Y1405679*
X1885285Y1405054*
X1884830Y1404742*
X1884603Y1404429*
X1884375Y1403804*
Y1402867*
X1884830Y1402242*
X1885512Y1401929*
X1886421*
X1887103Y1402242*
X1887557Y1402867*
X1882330Y1408492D02*
Y1401929D01*
X1879148Y1408492D02*
X1882330Y1404117D01*
X1881194Y1405679D02*
X1879148Y1401929D01*
X1871875Y1408492D02*
Y1401929D01*
Y1408492D02*
X1869830D01*
X1869148Y1408179*
X1868921Y1407867*
X1868694Y1407242*
Y1406617*
X1868921Y1405992*
X1869148Y1405679*
X1869830Y1405367*
X1871875D02*
X1869830D01*
X1869148Y1405054*
X1868921Y1404742*
X1868694Y1404117*
Y1403179*
X1868921Y1402554*
X1869148Y1402242*
X1869830Y1401929*
X1871875*
X1865285Y1408492D02*
X1865739Y1408179D01*
X1866194Y1407554*
X1866421Y1406929*
X1866648Y1405992*
Y1404429*
X1866421Y1403492*
X1866194Y1402867*
X1865739Y1402242*
X1865285Y1401929*
X1864375*
X1863921Y1402242*
X1863466Y1402867*
X1863239Y1403492*
X1863012Y1404429*
Y1405992*
X1863239Y1406929*
X1863466Y1407554*
X1863921Y1408179*
X1864375Y1408492*
X1865285*
X1859375D02*
Y1401929D01*
X1860966Y1408492D02*
X1857785D01*
X1854148D02*
Y1401929D01*
X1855739Y1408492D02*
X1852557D01*
X1849148D02*
X1849603Y1408179D01*
X1850057Y1407554*
X1850285Y1406929*
X1850512Y1405992*
Y1404429*
X1850285Y1403492*
X1850057Y1402867*
X1849603Y1402242*
X1849148Y1401929*
X1848239*
X1847785Y1402242*
X1847330Y1402867*
X1847103Y1403492*
X1846875Y1404429*
Y1405992*
X1847103Y1406929*
X1847330Y1407554*
X1847785Y1408179*
X1848239Y1408492*
X1849148*
X1844830D02*
Y1401929D01*
Y1408492D02*
X1843012Y1401929D01*
X1841194Y1408492D02*
X1843012Y1401929D01*
X1841194Y1408492D02*
Y1401929D01*
X1759252Y1394122D02*
Y1387559D01*
Y1394122D02*
X1761297D01*
X1761979Y1393809*
X1762207Y1393497*
X1762434Y1392872*
Y1392247*
X1762207Y1391622*
X1761979Y1391309*
X1761297Y1390997*
X1759252D02*
X1761297D01*
X1761979Y1390684*
X1762207Y1390372*
X1762434Y1389747*
Y1388809*
X1762207Y1388184*
X1761979Y1387872*
X1761297Y1387559*
X1759252*
X1765843Y1394122D02*
X1765388Y1393809D01*
X1764934Y1393184*
X1764707Y1392559*
X1764479Y1391622*
Y1390059*
X1764707Y1389122*
X1764934Y1388497*
X1765388Y1387872*
X1765843Y1387559*
X1766752*
X1767207Y1387872*
X1767661Y1388497*
X1767888Y1389122*
X1768116Y1390059*
Y1391622*
X1767888Y1392559*
X1767661Y1393184*
X1767207Y1393809*
X1766752Y1394122*
X1765843*
X1771979D02*
X1770161Y1387559D01*
X1771979Y1394122D02*
X1773797Y1387559D01*
X1770843Y1389747D02*
X1773116D01*
X1775843Y1394122D02*
Y1387559D01*
Y1394122D02*
X1777888D01*
X1778570Y1393809*
X1778797Y1393497*
X1779025Y1392872*
Y1392247*
X1778797Y1391622*
X1778570Y1391309*
X1777888Y1390997*
X1775843*
X1777434D02*
X1779025Y1387559D01*
X1781070Y1394122D02*
Y1387559D01*
Y1394122D02*
X1782661D01*
X1783343Y1393809*
X1783797Y1393184*
X1784025Y1392559*
X1784252Y1391622*
Y1390059*
X1784025Y1389122*
X1783797Y1388497*
X1783343Y1387872*
X1782661Y1387559*
X1781070*
X1793116Y1394122D02*
Y1387559D01*
X1791525Y1394122D02*
X1794707D01*
X1796752D02*
Y1387559D01*
X1799934Y1394122D02*
Y1387559D01*
X1796752Y1390997D02*
X1799934D01*
X1801979Y1394122D02*
Y1387559D01*
X1807434Y1392559D02*
X1807207Y1393184D01*
X1806752Y1393809*
X1806297Y1394122*
X1805388*
X1804934Y1393809*
X1804479Y1393184*
X1804252Y1392559*
X1804025Y1391622*
Y1390059*
X1804252Y1389122*
X1804479Y1388497*
X1804934Y1387872*
X1805388Y1387559*
X1806297*
X1806752Y1387872*
X1807207Y1388497*
X1807434Y1389122*
X1809479Y1394122D02*
Y1387559D01*
X1812661Y1394122D02*
X1809479Y1389747D01*
X1810616Y1391309D02*
X1812661Y1387559D01*
X1814707Y1394122D02*
Y1387559D01*
Y1394122D02*
X1817888Y1387559D01*
Y1394122D02*
Y1387559D01*
X1819934Y1394122D02*
Y1387559D01*
Y1394122D02*
X1822888D01*
X1819934Y1390997D02*
X1821752D01*
X1819934Y1387559D02*
X1822888D01*
X1828116Y1393184D02*
X1827661Y1393809D01*
X1826979Y1394122*
X1826070*
X1825388Y1393809*
X1824934Y1393184*
Y1392559*
X1825161Y1391934*
X1825388Y1391622*
X1825843Y1391309*
X1827207Y1390684*
X1827661Y1390372*
X1827888Y1390059*
X1828116Y1389434*
Y1388497*
X1827661Y1387872*
X1826979Y1387559*
X1826070*
X1825388Y1387872*
X1824934Y1388497*
X1833343Y1393184D02*
X1832888Y1393809D01*
X1832207Y1394122*
X1831297*
X1830616Y1393809*
X1830161Y1393184*
Y1392559*
X1830388Y1391934*
X1830616Y1391622*
X1831070Y1391309*
X1832434Y1390684*
X1832888Y1390372*
X1833116Y1390059*
X1833343Y1389434*
Y1388497*
X1832888Y1387872*
X1832207Y1387559*
X1831297*
X1830616Y1387872*
X1830161Y1388497*
X1840616Y1392872D02*
X1841070Y1393184D01*
X1841752Y1394122*
Y1387559*
X1844025Y1388184D02*
X1843797Y1387872D01*
X1844025Y1387559*
X1844252Y1387872*
X1844025Y1388184*
X1849025Y1393184D02*
X1848797Y1393809D01*
X1848116Y1394122*
X1847661*
X1846979Y1393809*
X1846525Y1392872*
X1846297Y1391309*
Y1389747*
X1846525Y1388497*
X1846979Y1387872*
X1847661Y1387559*
X1847888*
X1848570Y1387872*
X1849025Y1388497*
X1849252Y1389434*
Y1389747*
X1849025Y1390684*
X1848570Y1391309*
X1847888Y1391622*
X1847661*
X1846979Y1391309*
X1846525Y1390684*
X1846297Y1389747*
X1851297Y1391934D02*
Y1387559D01*
Y1390684D02*
X1851979Y1391622D01*
X1852434Y1391934*
X1853116*
X1853570Y1391622*
X1853797Y1390684*
Y1387559*
Y1390684D02*
X1854479Y1391622D01*
X1854934Y1391934*
X1855616*
X1856070Y1391622*
X1856297Y1390684*
Y1387559*
X1858343Y1391934D02*
Y1387559D01*
Y1390684D02*
X1859025Y1391622D01*
X1859479Y1391934*
X1860161*
X1860616Y1391622*
X1860843Y1390684*
Y1387559*
Y1390684D02*
X1861525Y1391622D01*
X1861979Y1391934*
X1862661*
X1863116Y1391622*
X1863343Y1390684*
Y1387559*
X1865843Y1387872D02*
X1865616Y1387559D01*
X1865388Y1387872*
X1865616Y1388184*
X1865843Y1387872*
Y1387247*
X1865616Y1386622*
X1865388Y1386309*
X1876525Y1392559D02*
X1876297Y1393184D01*
X1875843Y1393809*
X1875388Y1394122*
X1874479*
X1874025Y1393809*
X1873570Y1393184*
X1873343Y1392559*
X1873116Y1391622*
Y1390059*
X1873343Y1389122*
X1873570Y1388497*
X1874025Y1387872*
X1874479Y1387559*
X1875388*
X1875843Y1387872*
X1876297Y1388497*
X1876525Y1389122*
X1879934Y1394122D02*
X1879479Y1393809D01*
X1879025Y1393184*
X1878797Y1392559*
X1878570Y1391622*
Y1390059*
X1878797Y1389122*
X1879025Y1388497*
X1879479Y1387872*
X1879934Y1387559*
X1880843*
X1881297Y1387872*
X1881752Y1388497*
X1881979Y1389122*
X1882207Y1390059*
Y1391622*
X1881979Y1392559*
X1881752Y1393184*
X1881297Y1393809*
X1880843Y1394122*
X1879934*
X1884252D02*
Y1387559D01*
Y1394122D02*
X1886297D01*
X1886979Y1393809*
X1887207Y1393497*
X1887434Y1392872*
Y1391934*
X1887207Y1391309*
X1886979Y1390997*
X1886297Y1390684*
X1884252*
X1889479Y1394122D02*
Y1387559D01*
Y1394122D02*
X1891525D01*
X1892207Y1393809*
X1892434Y1393497*
X1892661Y1392872*
Y1391934*
X1892434Y1391309*
X1892207Y1390997*
X1891525Y1390684*
X1889479*
X1894707Y1394122D02*
Y1387559D01*
Y1394122D02*
X1897661D01*
X1894707Y1390997D02*
X1896525D01*
X1894707Y1387559D02*
X1897661D01*
X1899707Y1394122D02*
Y1387559D01*
Y1394122D02*
X1901752D01*
X1902434Y1393809*
X1902661Y1393497*
X1902888Y1392872*
Y1392247*
X1902661Y1391622*
X1902434Y1391309*
X1901752Y1390997*
X1899707*
X1901297D02*
X1902888Y1387559D01*
X1911752Y1394122D02*
Y1387559D01*
X1910161Y1394122D02*
X1913343D01*
X1915388D02*
Y1387559D01*
X1920843Y1392559D02*
X1920616Y1393184D01*
X1920161Y1393809*
X1919707Y1394122*
X1918797*
X1918343Y1393809*
X1917888Y1393184*
X1917661Y1392559*
X1917434Y1391622*
Y1390059*
X1917661Y1389122*
X1917888Y1388497*
X1918343Y1387872*
X1918797Y1387559*
X1919707*
X1920161Y1387872*
X1920616Y1388497*
X1920843Y1389122*
X1922888Y1394122D02*
Y1387559D01*
X1926070Y1394122D02*
X1922888Y1389747D01*
X1924025Y1391309D02*
X1926070Y1387559D01*
X1928116Y1394122D02*
Y1387559D01*
Y1394122D02*
X1931297Y1387559D01*
Y1394122D02*
Y1387559D01*
X1933343Y1394122D02*
Y1387559D01*
Y1394122D02*
X1936297D01*
X1933343Y1390997D02*
X1935161D01*
X1933343Y1387559D02*
X1936297D01*
X1941525Y1393184D02*
X1941070Y1393809D01*
X1940388Y1394122*
X1939479*
X1938797Y1393809*
X1938343Y1393184*
Y1392559*
X1938570Y1391934*
X1938797Y1391622*
X1939252Y1391309*
X1940616Y1390684*
X1941070Y1390372*
X1941297Y1390059*
X1941525Y1389434*
Y1388497*
X1941070Y1387872*
X1940388Y1387559*
X1939479*
X1938797Y1387872*
X1938343Y1388497*
X1946752Y1393184D02*
X1946297Y1393809D01*
X1945616Y1394122*
X1944707*
X1944025Y1393809*
X1943570Y1393184*
Y1392559*
X1943797Y1391934*
X1944025Y1391622*
X1944479Y1391309*
X1945843Y1390684*
X1946297Y1390372*
X1946525Y1390059*
X1946752Y1389434*
Y1388497*
X1946297Y1387872*
X1945616Y1387559*
X1944707*
X1944025Y1387872*
X1943570Y1388497*
X1954479Y1394122D02*
X1956979D01*
X1955616Y1391622*
X1956297*
X1956752Y1391309*
X1956979Y1390997*
X1957207Y1390059*
Y1389434*
X1956979Y1388497*
X1956525Y1387872*
X1955843Y1387559*
X1955161*
X1954479Y1387872*
X1954252Y1388184*
X1954025Y1388809*
X1962207Y1394122D02*
X1959934D01*
X1959707Y1391309*
X1959934Y1391622*
X1960616Y1391934*
X1961297*
X1961979Y1391622*
X1962434Y1390997*
X1962661Y1390059*
X1962434Y1389434*
X1962207Y1388497*
X1961752Y1387872*
X1961070Y1387559*
X1960388*
X1959707Y1387872*
X1959479Y1388184*
X1959252Y1388809*
X1964707Y1391934D02*
Y1388809D01*
X1964934Y1387872*
X1965388Y1387559*
X1966070*
X1966525Y1387872*
X1967207Y1388809*
Y1391934D02*
Y1387559D01*
X1969252Y1391934D02*
Y1387559D01*
Y1390684D02*
X1969934Y1391622D01*
X1970388Y1391934*
X1971070*
X1971525Y1391622*
X1971752Y1390684*
Y1387559*
Y1390684D02*
X1972434Y1391622D01*
X1972888Y1391934*
X1973570*
X1974025Y1391622*
X1974252Y1390684*
Y1387559*
X1976752Y1387872D02*
X1976525Y1387559D01*
X1976297Y1387872*
X1976525Y1388184*
X1976752Y1387872*
Y1387247*
X1976525Y1386622*
X1976297Y1386309*
X1987434Y1392559D02*
X1987207Y1393184D01*
X1986752Y1393809*
X1986297Y1394122*
X1985388*
X1984934Y1393809*
X1984479Y1393184*
X1984252Y1392559*
X1984025Y1391622*
Y1390059*
X1984252Y1389122*
X1984479Y1388497*
X1984934Y1387872*
X1985388Y1387559*
X1986297*
X1986752Y1387872*
X1987207Y1388497*
X1987434Y1389122*
X1989479Y1394122D02*
Y1387559D01*
X1992661Y1394122D02*
Y1387559D01*
X1989479Y1390997D02*
X1992661D01*
X1994707Y1394122D02*
Y1387559D01*
Y1394122D02*
X1997661D01*
X1994707Y1390997D02*
X1996525D01*
X1994707Y1387559D02*
X1997661D01*
X1999707Y1394122D02*
Y1387559D01*
Y1394122D02*
X2001525Y1387559D01*
X2003343Y1394122D02*
X2001525Y1387559D01*
X2003343Y1394122D02*
Y1387559D01*
X2005388Y1394122D02*
Y1387559D01*
X2010843Y1392559D02*
X2010616Y1393184D01*
X2010161Y1393809*
X2009707Y1394122*
X2008797*
X2008343Y1393809*
X2007888Y1393184*
X2007661Y1392559*
X2007434Y1391622*
Y1390059*
X2007661Y1389122*
X2007888Y1388497*
X2008343Y1387872*
X2008797Y1387559*
X2009707*
X2010161Y1387872*
X2010616Y1388497*
X2010843Y1389122*
X2014707Y1394122D02*
X2012888Y1387559D01*
X2014707Y1394122D02*
X2016525Y1387559D01*
X2013570Y1389747D02*
X2015843D01*
X2018570Y1394122D02*
Y1387559D01*
X2021297*
X2028570Y1394122D02*
Y1387559D01*
Y1394122D02*
X2031752Y1387559D01*
Y1394122D02*
Y1387559D01*
X2033797Y1394122D02*
X2034025Y1393809D01*
X2034252Y1394122*
X2034025Y1394434*
X2033797Y1394122*
X2034025Y1391934D02*
Y1387559D01*
X2036297Y1390372D02*
X2040388D01*
X2044252Y1394122D02*
X2042434Y1387559D01*
X2044252Y1394122D02*
X2046070Y1387559D01*
X2043116Y1389747D02*
X2045388D01*
X2048116Y1391934D02*
Y1388809D01*
X2048343Y1387872*
X2048797Y1387559*
X2049479*
X2049934Y1387872*
X2050616Y1388809*
Y1391934D02*
Y1387559D01*
X2057888Y1394122D02*
Y1387559D01*
Y1394122D02*
X2060843D01*
X2057888Y1390997D02*
X2059707D01*
X2062888Y1394122D02*
Y1387559D01*
X2064934Y1394122D02*
Y1387559D01*
Y1394122D02*
X2068116Y1387559D01*
Y1394122D02*
Y1387559D01*
X2070161Y1394122D02*
Y1387559D01*
X2075388Y1393184D02*
X2074934Y1393809D01*
X2074252Y1394122*
X2073343*
X2072661Y1393809*
X2072207Y1393184*
Y1392559*
X2072434Y1391934*
X2072661Y1391622*
X2073116Y1391309*
X2074479Y1390684*
X2074934Y1390372*
X2075161Y1390059*
X2075388Y1389434*
Y1388497*
X2074934Y1387872*
X2074252Y1387559*
X2073343*
X2072661Y1387872*
X2072207Y1388497*
X2077434Y1394122D02*
Y1387559D01*
X2080616Y1394122D02*
Y1387559D01*
X2077434Y1390997D02*
X2080616D01*
X2082661Y1394122D02*
Y1387559D01*
X2084707Y1394122D02*
Y1387559D01*
Y1394122D02*
X2087888Y1387559D01*
Y1394122D02*
Y1387559D01*
X2093343Y1392559D02*
X2093116Y1393184D01*
X2092661Y1393809*
X2092207Y1394122*
X2091297*
X2090843Y1393809*
X2090388Y1393184*
X2090161Y1392559*
X2089934Y1391622*
Y1390059*
X2090161Y1389122*
X2090388Y1388497*
X2090843Y1387872*
X2091297Y1387559*
X2092207*
X2092661Y1387872*
X2093116Y1388497*
X2093343Y1389122*
Y1390059*
X2092207D02*
X2093343D01*
X1811638Y1472618D02*
X2040748D01*
Y1639331*
X1811638*
Y1472618*
X1767520Y1828110D02*
X1747520D01*
Y1808110*
X1747441Y1391890D02*
Y1371890D01*
X1767441*
X2232087Y1372205D02*
X2252087D01*
Y1392205*
X2252559Y1808031D02*
Y1828031D01*
X2232559*
G54D16*
X1864567Y1629844D03*
Y1634644D03*
X1859449Y1629844D03*
Y1634644D03*
X1929528Y1602754D03*
Y1597954D03*
X1923622Y1602754D03*
Y1597954D03*
X1847835Y1595986D03*
Y1600786D03*
X2003740Y1581888D03*
Y1577088D03*
X1873425Y1554450D03*
Y1559250D03*
X1868504Y1554647D03*
Y1559447D03*
X1863386Y1569214D03*
Y1574014D03*
X1862008Y1588702D03*
Y1593502D03*
X1881496Y1618230D03*
Y1623030D03*
X1881299Y1627679D03*
Y1632479D03*
X1876181Y1618230D03*
Y1623030D03*
Y1627679D03*
Y1632479D03*
X1938386Y1618820D03*
Y1623620D03*
X1938583Y1629254D03*
Y1634054D03*
X1943898Y1618820D03*
Y1623620D03*
Y1629254D03*
Y1634054D03*
X1983268Y1564490D03*
Y1569290D03*
X1978937Y1584175D03*
Y1588975D03*
X1948622Y1568502D03*
Y1563702D03*
Y1579329D03*
Y1574529D03*
X1926969Y1560750D03*
Y1565550D03*
X1924016Y1570986D03*
Y1575786D03*
X1927165Y1550907D03*
Y1555707D03*
X1922047Y1550907D03*
Y1555707D03*
X1929528Y1575589D03*
Y1570789D03*
X1965945Y1478072D03*
Y1482872D03*
X1853346Y1477876D03*
Y1482676D03*
X1914764Y1478072D03*
Y1482872D03*
X1914173Y1536022D03*
Y1531222D03*
X1914961Y1622167D03*
Y1626967D03*
X1936417Y1595986D03*
Y1600786D03*
X1978937Y1573939D03*
Y1578739D03*
X1862205Y1579057D03*
Y1583857D03*
X1856693Y1525786D03*
Y1520986D03*
X1886024Y1525589D03*
Y1520789D03*
X1915551Y1526376D03*
Y1521576D03*
X1958071Y1526180D03*
Y1521380D03*
X1987008Y1525983D03*
Y1521183D03*
X2016732Y1526573D03*
Y1521773D03*
G54D19*
X1985395Y1631850D03*
X1990195D03*
X1980746Y1632047D03*
X1975946D03*
X1842754Y1581850D03*
X1837954D03*
X1838151Y1616496D03*
X1842951D03*
X2014014Y1561772D03*
X2009214D03*
X1837954Y1562362D03*
X1842754D03*
X2014014Y1615709D03*
X2009214D03*
X1842754Y1577126D03*
X1837954D03*
X1842951Y1572205D03*
X1838151D03*
X1873463Y1569055D03*
X1868663D03*
X1873463Y1573780D03*
X1868663D03*
X1859608Y1564331D03*
X1864408D03*
X1988348Y1553898D03*
X1993148D03*
X1992951Y1564331D03*
X1988151D03*
X1992951Y1569843D03*
X1988151D03*
X1978702Y1559016D03*
X1983502D03*
X1978899Y1553898D03*
X1983699D03*
X1842951Y1596614D03*
X1838151D03*
X1842951Y1601535D03*
X1838151D03*
X1842951Y1606457D03*
X1838151D03*
X1842951Y1611378D03*
X1838151D03*
X2009017Y1610787D03*
X2013817D03*
X2009017Y1596417D03*
X2013817D03*
X2009017Y1601142D03*
X2013817D03*
X2009017Y1581457D03*
X2013817D03*
X2009017Y1576535D03*
X2013817D03*
X2009017Y1571614D03*
X2013817D03*
X2009017Y1566693D03*
X2013817D03*
X2009017Y1605866D03*
X2013817D03*
X1842754Y1567087D03*
X1837954D03*
X1872600Y1606850D03*
X1877400D03*
X1936183Y1606063D03*
X1940983D03*
X1858711Y1530795D03*
X1853911D03*
X1989605Y1530866D03*
X1984805D03*
X2019329Y1531654D03*
X2014529D03*
X1988151Y1559016D03*
X1992951D03*
X1888211Y1530795D03*
X1883411D03*
X1882836Y1480079D03*
X1887636D03*
X1932049D03*
X1936849D03*
X2025356Y1494252D03*
X2030156D03*
X1864085Y1612476D03*
X1859285D03*
X1985211Y1613551D03*
X1980411D03*
X1915786Y1603898D03*
X1910986D03*
X1872009Y1600157D03*
X1876809D03*
X1928975Y1607638D03*
X1924175D03*
X1929172Y1593071D03*
X1924372D03*
X1901219Y1581457D03*
X1896419D03*
X1967557Y1585197D03*
X1962757D03*
X1981534Y1603701D03*
X1976734D03*
X1943935Y1558425D03*
X1939135D03*
X1993269Y1480079D03*
X1998069D03*
X1868663Y1564331D03*
X1873463D03*
X1960711Y1530795D03*
X1955911D03*
G54D27*
X1908858Y1566239D03*
Y1573839D03*
G54D35*
X2034079Y1634035D03*
X2032110Y1508051D03*
X1819512D03*
G54D37*
X1939764Y1611378D03*
X1956102Y1623976D03*
X1952165Y1630866D03*
X1858858Y1603898D03*
X1893898Y1632441D03*
X1886811Y1625354D03*
X1908465Y1627126D03*
X1852362Y1609016D03*
X1918504Y1589331D03*
X1933071Y1557244D03*
X1883268Y1579291D03*
X1950000Y1554094D03*
X1963189Y1624370D03*
G54D43*
X1852953Y1560221D03*
Y1557071D03*
Y1553921D03*
Y1550771D03*
X1846953D03*
Y1553921D03*
Y1557071D03*
Y1560221D03*
X1899654Y1564528D03*
Y1561378D03*
Y1558228D03*
Y1555078D03*
X1893654D03*
Y1558228D03*
Y1561378D03*
Y1564528D03*
X1955268Y1561377D03*
Y1564527D03*
Y1567677D03*
Y1570827D03*
X1961268D03*
Y1567677D03*
Y1564527D03*
Y1561377D03*
G54D48*
X1844291Y1589528D03*
X2008268Y1588543D03*
G54D70*
G54D72*
X1829921Y1562264D02*
X1833465D01*
X1829921Y1567185D02*
X1833465D01*
X1829921Y1572106D02*
X1833465D01*
X1829921Y1577028D02*
X1833465D01*
X1829921Y1581949D02*
X1833465D01*
X1829921Y1586870D02*
X1833465D01*
X1829921Y1591791D02*
X1833465D01*
X1829921Y1596713D02*
X1833465D01*
X1829921Y1601634D02*
X1833465D01*
X1829921Y1606555D02*
X1833465D01*
X1829921Y1611476D02*
X1833465D01*
X1829921Y1616398D02*
X1833465D01*
X2021850Y1615610D02*
X2018307D01*
X2021850Y1610689D02*
X2018307D01*
X2021850Y1605768D02*
X2018307D01*
X2021850Y1600846D02*
X2018307D01*
X2021850Y1595925D02*
X2018307D01*
X2021850Y1591004D02*
X2018307D01*
X2021850Y1586083D02*
X2018307D01*
X2021850Y1581161D02*
X2018307D01*
X2021850Y1576240D02*
X2018307D01*
X2021850Y1571319D02*
X2018307D01*
X2021850Y1566398D02*
X2018307D01*
X2021850Y1561476D02*
X2018307D01*
G54D73*
X1818504Y1626437D02*
X1822047D01*
X1818504Y1552224D02*
X1822047D01*
X2033268Y1551437D02*
X2029724D01*
X2033268Y1625650D02*
X2029724D01*
G54D76*
X1850417Y1530295D02*
X1849630D01*
X1850417Y1527146D02*
X1849630D01*
X1850417Y1523996D02*
X1849630D01*
X1850417Y1520846D02*
X1849630D01*
X1850417Y1517697D02*
X1849630D01*
X1834669D02*
X1833882D01*
X1834669Y1520846D02*
X1833882D01*
X1834669Y1523996D02*
X1833882D01*
X1834669Y1527146D02*
X1833882D01*
X1834669Y1530295D02*
X1833882D01*
X1879705D02*
X1878917D01*
X1879705Y1527146D02*
X1878917D01*
X1879705Y1523996D02*
X1878917D01*
X1879705Y1520846D02*
X1878917D01*
X1879705Y1517697D02*
X1878917D01*
X1863957D02*
X1863169D01*
X1863957Y1520846D02*
X1863169D01*
X1863957Y1523996D02*
X1863169D01*
X1863957Y1527146D02*
X1863169D01*
X1863957Y1530295D02*
X1863169D01*
X1909705D02*
X1908917D01*
X1909705Y1527146D02*
X1908917D01*
X1909705Y1523996D02*
X1908917D01*
X1909705Y1520846D02*
X1908917D01*
X1909705Y1517697D02*
X1908917D01*
X1893957D02*
X1893169D01*
X1893957Y1520846D02*
X1893169D01*
X1893957Y1523996D02*
X1893169D01*
X1893957Y1527146D02*
X1893169D01*
X1893957Y1530295D02*
X1893169D01*
X1952205D02*
X1951417D01*
X1952205Y1527146D02*
X1951417D01*
X1952205Y1523996D02*
X1951417D01*
X1952205Y1520846D02*
X1951417D01*
X1952205Y1517697D02*
X1951417D01*
X1936457D02*
X1935669D01*
X1936457Y1520846D02*
X1935669D01*
X1936457Y1523996D02*
X1935669D01*
X1936457Y1527146D02*
X1935669D01*
X1936457Y1530295D02*
X1935669D01*
X1981205D02*
X1980417D01*
X1981205Y1527146D02*
X1980417D01*
X1981205Y1523996D02*
X1980417D01*
X1981205Y1520846D02*
X1980417D01*
X1981205Y1517697D02*
X1980417D01*
X1965457D02*
X1964669D01*
X1965457Y1520846D02*
X1964669D01*
X1965457Y1523996D02*
X1964669D01*
X1965457Y1527146D02*
X1964669D01*
X1965457Y1530295D02*
X1964669D01*
X2010205Y1530795D02*
X2009417D01*
X2010205Y1527646D02*
X2009417D01*
X2010205Y1524496D02*
X2009417D01*
X2010205Y1521346D02*
X2009417D01*
X2010205Y1518197D02*
X2009417D01*
X1994457D02*
X1993669D01*
X1994457Y1521346D02*
X1993669D01*
X1994457Y1524496D02*
X1993669D01*
X1994457Y1527646D02*
X1993669D01*
X1994457Y1530795D02*
X1993669D01*
G54D77*
X1842150Y1524783D02*
Y1523209D01*
X1871437Y1524783D02*
Y1523209D01*
X1901437Y1524783D02*
Y1523209D01*
X1943937Y1524783D02*
Y1523209D01*
X1972937Y1524783D02*
Y1523209D01*
X2001937Y1525283D02*
Y1523709D01*
G54D79*
X1929047Y1509846D02*
Y1514374D01*
X1923843Y1529244D02*
Y1533772D01*
G54D80*
X1921350Y1507327D02*
Y1509846D01*
X1931543Y1533768D02*
Y1536287D01*
G54D93*
X1893878Y1501890D02*
Y1498346D01*
X1898878Y1501890D02*
Y1498346D01*
X1903878Y1501890D02*
Y1498346D01*
X1908878Y1501890D02*
Y1498346D01*
Y1481890D02*
Y1478346D01*
X1903878Y1481890D02*
Y1478346D01*
X1898878Y1481890D02*
Y1478346D01*
X1893878Y1481890D02*
Y1478346D01*
X2004311Y1501890D02*
Y1498346D01*
X2009311Y1501890D02*
Y1498346D01*
X2014311Y1501890D02*
Y1498346D01*
X2019311Y1501890D02*
Y1498346D01*
Y1481890D02*
Y1478346D01*
X2014311Y1481890D02*
Y1478346D01*
X2009311Y1481890D02*
Y1478346D01*
X2004311Y1481890D02*
Y1478346D01*
X1832067Y1501299D02*
Y1497756D01*
X1837067Y1501299D02*
Y1497756D01*
X1842067Y1501299D02*
Y1497756D01*
X1847067Y1501299D02*
Y1497756D01*
Y1481299D02*
Y1477756D01*
X1842067Y1481299D02*
Y1477756D01*
X1837067Y1481299D02*
Y1477756D01*
X1832067Y1481299D02*
Y1477756D01*
X1944469Y1501890D02*
Y1498346D01*
X1949469Y1501890D02*
Y1498346D01*
X1954469Y1501890D02*
Y1498346D01*
X1959469Y1501890D02*
Y1498346D01*
Y1481890D02*
Y1478346D01*
X1954469Y1481890D02*
Y1478346D01*
X1949469Y1481890D02*
Y1478346D01*
X1944469Y1481890D02*
Y1478346D01*
G54D94*
X1886417Y1613839D02*
Y1612461D01*
X1888976Y1613839D02*
Y1612461D01*
X1891535Y1613839D02*
Y1612461D01*
X1894094Y1613839D02*
Y1612461D01*
X1896654Y1613839D02*
Y1612461D01*
X1899213Y1613839D02*
Y1612461D01*
X1901772Y1613839D02*
Y1612461D01*
X1906791Y1608622D02*
X1905413D01*
X1906791Y1606260D02*
X1905413D01*
X1906791Y1603898D02*
X1905413D01*
X1906791Y1601535D02*
X1905413D01*
X1906791Y1599173D02*
X1905413D01*
X1906791Y1596614D02*
X1905413D01*
X1906791Y1594055D02*
X1905413D01*
X1901575Y1590610D02*
Y1589232D01*
X1899213Y1590610D02*
Y1589232D01*
X1896457Y1590610D02*
Y1589232D01*
X1894094Y1590610D02*
Y1589232D01*
X1891732Y1590610D02*
Y1589232D01*
X1888976Y1590610D02*
Y1589232D01*
X1886220Y1590610D02*
Y1589232D01*
X1883563Y1594055D02*
X1882185D01*
X1883563Y1596417D02*
X1882185D01*
X1883563Y1599173D02*
X1882185D01*
X1883563Y1601535D02*
X1882185D01*
X1883563Y1603898D02*
X1882185D01*
X1883563Y1606260D02*
X1882185D01*
X1883563Y1608622D02*
X1882185D01*
X1952165Y1613642D02*
Y1612264D01*
X1954724Y1613642D02*
Y1612264D01*
X1957283Y1613642D02*
Y1612264D01*
X1959843Y1613642D02*
Y1612264D01*
X1962402Y1613642D02*
Y1612264D01*
X1964961Y1613642D02*
Y1612264D01*
X1967520Y1613642D02*
Y1612264D01*
X1972539Y1608425D02*
X1971161D01*
X1972539Y1606063D02*
X1971161D01*
X1972539Y1603701D02*
X1971161D01*
X1972539Y1601339D02*
X1971161D01*
X1972539Y1598976D02*
X1971161D01*
X1972539Y1596417D02*
X1971161D01*
X1972539Y1593858D02*
X1971161D01*
X1967323Y1590413D02*
Y1589035D01*
X1964961Y1590413D02*
Y1589035D01*
X1962205Y1590413D02*
Y1589035D01*
X1959843Y1590413D02*
Y1589035D01*
X1957480Y1590413D02*
Y1589035D01*
X1954724Y1590413D02*
Y1589035D01*
X1951969Y1590413D02*
Y1589035D01*
X1949311Y1593858D02*
X1947933D01*
X1949311Y1596220D02*
X1947933D01*
X1949311Y1598976D02*
X1947933D01*
X1949311Y1601339D02*
X1947933D01*
X1949311Y1603701D02*
X1947933D01*
X1949311Y1606063D02*
X1947933D01*
X1949311Y1608425D02*
X1947933D01*
G54D95*
X1894488Y1601339D03*
X1960236Y1601142D03*
G54D96*
X1931693Y1626535D02*
X1931299D01*
X1931693Y1616535D02*
X1931299D01*
X1921693D02*
X1921299D01*
X1921850Y1626535D02*
X1921457D01*
G54D97*
X1865744Y1616795D02*
Y1619229D01*
X1863185Y1616795D02*
Y1619229D01*
X1860626Y1616795D02*
Y1619229D01*
X1858067Y1616795D02*
Y1619229D01*
Y1623724D02*
Y1626158D01*
X1860626Y1623724D02*
Y1626158D01*
X1863185Y1623724D02*
Y1626158D01*
X1865744Y1623724D02*
Y1626158D01*
X1986870Y1617870D02*
Y1620304D01*
X1984311Y1617870D02*
Y1620304D01*
X1981752Y1617870D02*
Y1620304D01*
X1979193Y1617870D02*
Y1620304D01*
Y1624799D02*
Y1627233D01*
X1981752Y1624799D02*
Y1627233D01*
X1984311Y1624799D02*
Y1627233D01*
X1986870Y1624799D02*
Y1627233D01*
G54D98*
X1942776Y1562518D02*
Y1565418D01*
X1938976Y1562518D02*
Y1565418D01*
X1935176Y1562518D02*
Y1565418D01*
Y1571218D02*
Y1574118D01*
X1942776Y1571218D02*
Y1574118D01*
X1875060Y1578266D02*
Y1581166D01*
X1871260Y1578266D02*
Y1581166D01*
X1867460Y1578266D02*
Y1581166D01*
Y1586966D02*
Y1589866D01*
X1875060Y1586966D02*
Y1589866D01*
X1991989Y1573935D02*
Y1576835D01*
X1988189Y1573935D02*
Y1576835D01*
X1984389Y1573935D02*
Y1576835D01*
Y1582635D02*
Y1585535D01*
X1991989Y1582635D02*
Y1585535D01*
G54D126*
X1851181Y1623583D02*
X1853150D01*
X1851181Y1628504D02*
X1853150D01*
X1851181Y1633425D02*
X1853150D01*
X1831496D02*
X1833465D01*
X1831496Y1623583D02*
X1833465D01*
X1998228Y1634213D02*
X1996260D01*
X1998228Y1629291D02*
X1996260D01*
X1998228Y1624370D02*
X1996260D01*
X2017913D02*
X2015945D01*
X2017913Y1634213D02*
X2015945D01*
X0Y0D02*
M02*
