*
*
G04 PADS 9.5 Build Number: 522968 generated Gerber (RS-274-X) file*
G04 PC Version=2.1*
*
%IN "UDA_7.pcb"*%
*
%MOIN*%
*
%FSLAX35Y35*%
*
*
*
*
G04 PC Standard Apertures*
*
*
G04 Thermal Relief Aperture macro.*
%AMTER*
1,1,$1,0,0*
1,0,$1-$2,0,0*
21,0,$3,$4,0,0,45*
21,0,$3,$4,0,0,135*
%
*
*
G04 Annular Aperture macro.*
%AMANN*
1,1,$1,0,0*
1,0,$2,0,0*
%
*
*
G04 Odd Aperture macro.*
%AMODD*
1,1,$1,0,0*
1,0,$1-0.005,0,0*
%
*
*
G04 PC Custom Aperture Macros*
*
*
*
*
*
*
G04 PC Aperture Table*
*
%ADD010C,0.001*%
%ADD011C,0.01*%
%ADD050R,0.035X0.024*%
%ADD123R,0.024X0.035*%
%ADD127R,0.01575X0.03543*%
%ADD128R,0.04331X0.05709*%
%ADD129R,0.03937X0.05512*%
*
*
*
*
G04 PC Circuitry*
G04 Layer Name UDA_7.pcb - circuitry*
%LPD*%
*
*
G04 PC Custom Flashes*
G04 Layer Name UDA_7.pcb - flashes*
%LPD*%
*
*
G04 PC Circuitry*
G04 Layer Name UDA_7.pcb - circuitry*
%LPD*%
*
G54D10*
G54D11*
G01X1930512Y1408492D02*
Y1401929D01*
Y1408492D02*
X1928466D01*
X1927785Y1408179*
X1927557Y1407867*
X1927330Y1407242*
Y1406304*
X1927557Y1405679*
X1927785Y1405367*
X1928466Y1405054*
X1930512*
X1923466Y1408492D02*
X1925285Y1401929D01*
X1923466Y1408492D02*
X1921648Y1401929D01*
X1924603Y1404117D02*
X1922330D01*
X1916421Y1407554D02*
X1916875Y1408179D01*
X1917557Y1408492*
X1918466*
X1919148Y1408179*
X1919603Y1407554*
Y1406929*
X1919375Y1406304*
X1919148Y1405992*
X1918694Y1405679*
X1917330Y1405054*
X1916875Y1404742*
X1916648Y1404429*
X1916421Y1403804*
Y1402867*
X1916875Y1402242*
X1917557Y1401929*
X1918466*
X1919148Y1402242*
X1919603Y1402867*
X1912785Y1408492D02*
Y1401929D01*
X1914375Y1408492D02*
X1911194D01*
X1909148D02*
Y1401929D01*
Y1408492D02*
X1906194D01*
X1909148Y1405367D02*
X1907330D01*
X1909148Y1401929D02*
X1906194D01*
X1898921Y1408492D02*
Y1401929D01*
Y1408492D02*
X1897103Y1401929D01*
X1895285Y1408492D02*
X1897103Y1401929D01*
X1895285Y1408492D02*
Y1401929D01*
X1891421Y1408492D02*
X1893239Y1401929D01*
X1891421Y1408492D02*
X1889603Y1401929D01*
X1892557Y1404117D02*
X1890285D01*
X1884375Y1407554D02*
X1884830Y1408179D01*
X1885512Y1408492*
X1886421*
X1887103Y1408179*
X1887557Y1407554*
Y1406929*
X1887330Y1406304*
X1887103Y1405992*
X1886648Y1405679*
X1885285Y1405054*
X1884830Y1404742*
X1884603Y1404429*
X1884375Y1403804*
Y1402867*
X1884830Y1402242*
X1885512Y1401929*
X1886421*
X1887103Y1402242*
X1887557Y1402867*
X1882330Y1408492D02*
Y1401929D01*
X1879148Y1408492D02*
X1882330Y1404117D01*
X1881194Y1405679D02*
X1879148Y1401929D01*
X1871875Y1408492D02*
Y1401929D01*
Y1408492D02*
X1869830D01*
X1869148Y1408179*
X1868921Y1407867*
X1868694Y1407242*
Y1406617*
X1868921Y1405992*
X1869148Y1405679*
X1869830Y1405367*
X1871875D02*
X1869830D01*
X1869148Y1405054*
X1868921Y1404742*
X1868694Y1404117*
Y1403179*
X1868921Y1402554*
X1869148Y1402242*
X1869830Y1401929*
X1871875*
X1865285Y1408492D02*
X1865739Y1408179D01*
X1866194Y1407554*
X1866421Y1406929*
X1866648Y1405992*
Y1404429*
X1866421Y1403492*
X1866194Y1402867*
X1865739Y1402242*
X1865285Y1401929*
X1864375*
X1863921Y1402242*
X1863466Y1402867*
X1863239Y1403492*
X1863012Y1404429*
Y1405992*
X1863239Y1406929*
X1863466Y1407554*
X1863921Y1408179*
X1864375Y1408492*
X1865285*
X1859375D02*
Y1401929D01*
X1860966Y1408492D02*
X1857785D01*
X1854148D02*
Y1401929D01*
X1855739Y1408492D02*
X1852557D01*
X1849148D02*
X1849603Y1408179D01*
X1850057Y1407554*
X1850285Y1406929*
X1850512Y1405992*
Y1404429*
X1850285Y1403492*
X1850057Y1402867*
X1849603Y1402242*
X1849148Y1401929*
X1848239*
X1847785Y1402242*
X1847330Y1402867*
X1847103Y1403492*
X1846875Y1404429*
Y1405992*
X1847103Y1406929*
X1847330Y1407554*
X1847785Y1408179*
X1848239Y1408492*
X1849148*
X1844830D02*
Y1401929D01*
Y1408492D02*
X1843012Y1401929D01*
X1841194Y1408492D02*
X1843012Y1401929D01*
X1841194Y1408492D02*
Y1401929D01*
X1787425Y1462776D02*
Y1576949D01*
X1850811*
Y1462776*
X1787425*
X1767520Y1828110D02*
X1747520D01*
Y1808110*
X1747441Y1391890D02*
Y1371890D01*
X1767441*
X2232087Y1372205D02*
X2252087D01*
Y1392205*
X2252559Y1808031D02*
Y1828031D01*
X2232559*
G54D50*
X1833117Y1510156D03*
Y1505195D03*
X1809741Y1492513D03*
Y1497473D03*
X1825090Y1531106D03*
Y1536066D03*
G54D123*
X1828044Y1490396D03*
X1823083D03*
X1810884Y1541500D03*
X1815845D03*
X1838694Y1490396D03*
X1833733D03*
X1841631Y1541472D03*
X1836670D03*
X1824118Y1564154D03*
X1829079D03*
G54D127*
X1830240Y1541457D03*
X1827681D03*
X1825122D03*
X1822563D03*
Y1558504D03*
X1825122D03*
X1827681D03*
X1830240D03*
X1825713Y1499134D03*
X1823154D03*
X1820594D03*
X1818035D03*
Y1516181D03*
X1820594D03*
X1823154D03*
X1825713D03*
G54D128*
X1820630Y1482616D03*
X1826929D03*
X1823646Y1571437D03*
X1829945D03*
G54D129*
X1840448Y1526296D03*
X1832968D03*
X1836708Y1534957D03*
X0Y0D02*
M02*
