G04 CAM350 PRO V6.0 Date:  Tue Jul 03 08:51:24 2012 *
G04 Database: (Untitled) *
G04 Layer 11: ems4_1sa.lgr *
%FSLAX35Y35*%
%MOIN*%
%SFA1.000B1.000*%

%MIA0B0*%
%IPPOS*%
%ADD11C,0.00600*%
%ADD12C,0.00400*%
%ADD13C,0.00913*%
%ADD14C,0.01000*%
%ADD15R,0.03937X0.04331*%
%ADD16R,0.02087X0.04134*%
%ADD17C,0.00800*%
%ADD19R,0.02000X0.02000*%
%ADD21R,0.06000X0.05200*%
%ADD22R,0.05200X0.06000*%
%ADD24R,0.10600X0.06300*%
%ADD26R,0.10000X0.07400*%
%ADD73R,0.02756X0.06299*%
%ADD34R,0.01600X0.07000*%
%ADD35R,0.11800X0.11800*%
%ADD39R,0.16000X0.07600*%
%ADD42R,0.04000X0.04000*%
%ADD49C,0.05000*%
%ADD52C,0.01600*%
%ADD53C,0.20000*%
%ADD60C,0.02000*%
%ADD61C,0.01500*%
%ADD62C,0.01200*%
%ADD63C,0.02000*%
%ADD64R,0.01600X0.01600*%
%ADD65R,0.08268X0.11811*%
%ADD68R,0.01969X0.01969*%
%ADD69R,0.02559X0.02756*%
%ADD74R,0.02756X0.02559*%
%ADD75R,0.01102X0.03543*%
%ADD76R,0.03543X0.01102*%
%ADD167R,0.07400X0.10000*%
%ADD169R,0.01600X0.06300*%
%ADD174R,0.03740X0.03346*%
%ADD175R,0.01100X0.06200*%
%ADD176R,0.06200X0.01100*%
%ADD177C,0.04000*%
%ADD179R,0.04134X0.02087*%
%ADD180R,0.01575X0.01378*%
%ADD181R,0.01378X0.01575*%
%ADD182R,0.01181X0.01378*%
%ADD183R,0.01378X0.01181*%
%ADD184R,0.07874X0.11811*%
%ADD185C,0.08000*%
%LNems4_1sa.lgr*%
%SRX1Y1I0J0*%
%LPD*%
G54D19*
X1883000Y1692500D03*
X1886000D03*
X1889000D03*
X1892000Y1666500D03*
X1889000D03*
X1886000D03*
G54D21*
X1857500Y1623700D03*
Y1631300D03*
X1867500D03*
Y1623700D03*
G54D22*
X1840800Y1706000D03*
X1833200D03*
G54D15*
X1941500Y1652846D03*
Y1646154D03*
X1755500Y1710654D03*
Y1717346D03*
G54D24*
X1886500Y1637000D03*
Y1648000D03*
X1900000Y1637000D03*
Y1648000D03*
X1885000Y1686500D03*
Y1675500D03*
G54D26*
X1902900Y1626000D03*
X1887100D03*
G54D16*
X1763760Y1619823D03*
X1767500D03*
X1771240D03*
Y1610177D03*
X1767500D03*
X1763760D03*
X1767740Y1687677D03*
X1764000D03*
X1760260D03*
Y1697323D03*
X1764000D03*
X1767740D03*
X1788760Y1621323D03*
X1792500D03*
X1796240D03*
Y1611677D03*
X1792500D03*
X1788760D03*
X1871260Y1710323D03*
X1875000D03*
X1878740D03*
Y1700677D03*
X1875000D03*
X1871260D03*
X1920260Y1711823D03*
X1924000D03*
X1927740D03*
Y1702177D03*
X1924000D03*
X1920260D03*
X1955260Y1617323D03*
X1959000D03*
X1962740D03*
Y1607677D03*
X1959000D03*
X1955260D03*
G54D73*
X1911236Y1722500D03*
X1916157D03*
X1921079D03*
X1926000D03*
X1930921D03*
X1935843D03*
X1940764D03*
Y1597500D03*
X1935843D03*
X1930921D03*
X1926000D03*
X1921079D03*
X1916157D03*
X1911236D03*
X1789236Y1722500D03*
X1794157D03*
X1799079D03*
X1804000D03*
X1808921D03*
X1813843D03*
X1818764D03*
Y1597500D03*
X1813843D03*
X1808921D03*
X1804000D03*
X1799079D03*
X1794157D03*
X1789236D03*
X1850236Y1722500D03*
X1855157D03*
X1860079D03*
X1865000D03*
X1869921D03*
X1874843D03*
X1879764D03*
Y1597500D03*
X1874843D03*
X1869921D03*
X1865000D03*
X1860079D03*
X1855157D03*
X1850236D03*
G54D65*
X1901197Y1733917D03*
X1950803D03*
Y1586083D03*
X1901197D03*
X1779197Y1733917D03*
X1828803D03*
Y1586083D03*
X1779197D03*
X1840197Y1733917D03*
X1889803D03*
Y1586083D03*
X1840197D03*
G54D34*
X1937956Y1660200D03*
X1935397D03*
X1932838D03*
X1930279D03*
X1927720D03*
X1925161D03*
X1922602D03*
X1920043D03*
Y1683800D03*
X1922602D03*
X1925161D03*
X1927720D03*
X1930279D03*
X1932838D03*
X1935397D03*
X1937956D03*
G54D35*
X1929000Y1672000D03*
G54D39*
X1911000Y1610500D03*
G54D68*
X1902500Y1673945D03*
Y1692055D03*
G54D42*
X1788500Y1703500D03*
X1794000D03*
X1799500D03*
X1806800Y1622700D03*
X1860400Y1702700D03*
G54D69*
X1777469Y1718000D03*
X1773531D03*
X1822031Y1701500D03*
X1825969D03*
X1866531Y1671500D03*
X1870469D03*
X1869969Y1639000D03*
X1866031D03*
X1777969Y1688000D03*
X1774031D03*
X1929469Y1653000D03*
X1925531D03*
X1773531Y1713500D03*
X1777469D03*
X1822031Y1597000D03*
X1825969D03*
X1816031Y1716500D03*
X1819969D03*
X1793469Y1603500D03*
X1789531D03*
X1845969Y1722500D03*
X1842031D03*
X1884031Y1600000D03*
X1887969D03*
X1875031Y1716500D03*
X1878969D03*
X1854969Y1603500D03*
X1851031D03*
X1907969Y1723000D03*
X1904031D03*
X1936531Y1716500D03*
X1940469D03*
X1915469Y1603500D03*
X1911531D03*
X1767969Y1706000D03*
X1764031D03*
X1898469Y1655500D03*
X1894531D03*
X1774031Y1682000D03*
X1777969D03*
X1915531Y1654000D03*
X1919469D03*
X1964531Y1682000D03*
X1968469D03*
X1964531Y1687000D03*
X1968469D03*
Y1671000D03*
X1964531D03*
X1968469Y1677000D03*
X1964531D03*
X1968469Y1692000D03*
X1964531D03*
X1848469Y1692500D03*
X1844531D03*
X1759969Y1706000D03*
X1756031D03*
X1825969Y1705000D03*
X1822031D03*
X1771469Y1605000D03*
X1767531D03*
X1829031Y1597000D03*
X1832969D03*
X1829031Y1601000D03*
X1832969D03*
X1830469Y1722500D03*
X1826531D03*
X1781031Y1601500D03*
X1784969D03*
X1781031Y1597500D03*
X1784969D03*
X1838469Y1722500D03*
X1834531D03*
X1841969Y1718500D03*
X1838031D03*
X1887969D03*
X1884031D03*
X1887969Y1722500D03*
X1884031D03*
X1842031Y1597500D03*
X1845969D03*
X1900969Y1719000D03*
X1897031D03*
X1900969Y1723000D03*
X1897031D03*
X1948969Y1718500D03*
X1945031D03*
X1948969Y1722500D03*
X1945031D03*
X1899531Y1597500D03*
X1903469D03*
X1774031Y1650500D03*
X1777969D03*
X1774031Y1654500D03*
X1777969D03*
X1774031Y1658500D03*
X1777969D03*
X1774031Y1662500D03*
X1777969D03*
X1820969Y1604500D03*
X1817031D03*
X1774031Y1646500D03*
X1777969D03*
X1831969Y1698000D03*
X1828031D03*
X1886531Y1655500D03*
X1890469D03*
X1812469Y1716500D03*
X1808531D03*
X1822031Y1713000D03*
X1825969D03*
X1777969Y1675500D03*
X1774031D03*
X1777969Y1694000D03*
X1774031D03*
X1782469Y1630000D03*
X1778531D03*
X1822031Y1709000D03*
X1825969D03*
G54D74*
X1755500Y1696469D03*
Y1692531D03*
X1783000Y1614531D03*
Y1618469D03*
X1885000Y1703531D03*
Y1707469D03*
X1899000Y1604031D03*
Y1607969D03*
X1933000Y1705031D03*
Y1708969D03*
X1969000Y1610531D03*
Y1614469D03*
X1941000Y1682031D03*
Y1685969D03*
X1929500Y1649969D03*
Y1646031D03*
X1915500Y1658031D03*
Y1661969D03*
X1855500Y1696031D03*
Y1699969D03*
X1773500Y1705531D03*
Y1709469D03*
X1768000Y1709531D03*
Y1713469D03*
X1764000D03*
Y1709531D03*
X1788500Y1632969D03*
Y1629031D03*
X1851500Y1635031D03*
Y1638969D03*
X1838500Y1714969D03*
Y1711031D03*
X1785000Y1722469D03*
Y1718531D03*
X1834500Y1714969D03*
Y1711031D03*
X1945000Y1597531D03*
Y1601469D03*
X1777500Y1705531D03*
Y1709469D03*
X1846500Y1703031D03*
Y1706969D03*
X1921500Y1649969D03*
Y1646031D03*
X1925500Y1649969D03*
Y1646031D03*
X1917500D03*
Y1649969D03*
X1852000Y1699969D03*
Y1696031D03*
X1846500D03*
Y1699969D03*
X1776000Y1612969D03*
Y1609031D03*
X1758000Y1612969D03*
Y1609031D03*
Y1617031D03*
Y1620969D03*
X1776000Y1617031D03*
Y1620969D03*
X1965500Y1632031D03*
Y1635969D03*
X1818000Y1706031D03*
Y1709969D03*
X1958000Y1632031D03*
Y1635969D03*
Y1628469D03*
Y1624531D03*
X1965500Y1628469D03*
Y1624531D03*
X1770500Y1650031D03*
Y1653969D03*
X1762500Y1656031D03*
Y1659969D03*
X1758500Y1656031D03*
Y1659969D03*
X1781000Y1718531D03*
Y1722469D03*
X1823000Y1718531D03*
Y1722469D03*
X1815500Y1698531D03*
Y1702469D03*
X1892000Y1602469D03*
Y1598531D03*
X1896000Y1602469D03*
Y1598531D03*
X1846500Y1605069D03*
Y1601131D03*
X1949000Y1601469D03*
Y1597531D03*
X1947000Y1605031D03*
Y1608969D03*
X1907000Y1601469D03*
Y1597531D03*
X1843000Y1699969D03*
Y1696031D03*
X1851000Y1681531D03*
Y1685469D03*
X1916500Y1682031D03*
Y1685969D03*
X1760000Y1713469D03*
Y1709531D03*
X1762500Y1663031D03*
Y1666969D03*
G54D75*
X1864547Y1675240D03*
Y1692760D03*
X1870453D03*
Y1675240D03*
X1833453Y1623260D03*
Y1605740D03*
X1827547D03*
Y1623260D03*
X1870453Y1660760D03*
Y1643240D03*
X1864547D03*
Y1660760D03*
G54D76*
X1860630Y1677110D03*
Y1679079D03*
Y1681047D03*
Y1683016D03*
Y1684984D03*
Y1686953D03*
Y1688921D03*
Y1690890D03*
X1874370D03*
Y1688921D03*
Y1686953D03*
Y1684984D03*
Y1683016D03*
Y1681047D03*
Y1679079D03*
Y1677110D03*
X1837370Y1621390D03*
Y1619421D03*
Y1617453D03*
Y1615484D03*
Y1613516D03*
Y1611547D03*
Y1609579D03*
Y1607610D03*
X1823630D03*
Y1609579D03*
Y1611547D03*
Y1613516D03*
Y1615484D03*
Y1617453D03*
Y1619421D03*
Y1621390D03*
X1874370Y1658890D03*
Y1656921D03*
Y1654953D03*
Y1652984D03*
Y1651016D03*
Y1649047D03*
Y1647079D03*
Y1645110D03*
X1860630D03*
Y1647079D03*
Y1649047D03*
Y1651016D03*
Y1652984D03*
Y1654953D03*
Y1656921D03*
Y1658890D03*
G54D49*
X1755000Y1600500D03*
X1975500D03*
Y1719500D03*
G54D52*
X1771100Y1688500D03*
Y1686400D03*
Y1658600D03*
Y1656500D03*
X1755900Y1688600D03*
Y1686400D03*
Y1658600D03*
Y1656500D03*
X1772000Y1598000D03*
X1764000Y1616500D03*
X1770000Y1614000D03*
X1767500D03*
X1764000Y1613500D03*
X1786000Y1611173D03*
X1812000Y1615500D03*
X1779000Y1594500D03*
X1838900Y1605500D03*
X1847300Y1618600D03*
X1840400Y1607600D03*
X1820500Y1613500D03*
Y1617500D03*
X1820000Y1610000D03*
X1829500Y1607000D03*
X1815000Y1610500D03*
X1820500Y1615500D03*
X1826000Y1600000D03*
X1831000Y1604500D03*
X1871000Y1608500D03*
X1854500Y1607000D03*
X1901000Y1601500D03*
X1903500D03*
X1958500Y1597000D03*
X1935000Y1592000D03*
X1937728Y1614500D03*
X1943000Y1613500D03*
X1932500Y1614500D03*
X1947000Y1611500D03*
X1972000Y1612500D03*
X1771200Y1641200D03*
X1766100Y1642200D03*
X1766000Y1644500D03*
X1757900Y1648500D03*
X1762000Y1645500D03*
X1758100Y1641100D03*
X1791500Y1646500D03*
X1777000Y1638500D03*
X1801000Y1627500D03*
X1778700Y1626500D03*
X1809000Y1627500D03*
X1811500Y1624000D03*
X1773600Y1642600D03*
X1790000Y1651000D03*
Y1648500D03*
X1803000Y1625000D03*
Y1627500D03*
X1790700Y1656600D03*
X1779000Y1633000D03*
X1781000Y1647000D03*
Y1635000D03*
X1780400Y1654626D03*
X1780421Y1651779D03*
X1807000Y1643500D03*
X1785000Y1631500D03*
X1796000Y1643500D03*
X1778500Y1620500D03*
X1801000Y1643500D03*
X1778000Y1644000D03*
X1811930Y1653820D03*
X1786000Y1629000D03*
X1785000Y1620500D03*
X1793500Y1643000D03*
X1829100Y1627700D03*
X1831500Y1627600D03*
X1827800Y1637600D03*
X1850500Y1621200D03*
X1841300Y1626300D03*
X1831500Y1622000D03*
X1826000Y1627500D03*
X1815300D03*
X1823000D03*
X1813000D03*
X1835400Y1657800D03*
X1839500Y1645000D03*
X1836500Y1650500D03*
X1835000Y1654000D03*
X1850000Y1649000D03*
X1830000Y1637500D03*
X1831500Y1642000D03*
X1849500Y1644800D03*
X1820500Y1619500D03*
X1823300Y1622900D03*
X1841500Y1629500D03*
X1813830Y1646550D03*
X1826000Y1623500D03*
X1831000Y1646500D03*
X1850000Y1654500D03*
X1820500Y1643500D03*
X1850500Y1657500D03*
X1829000Y1639500D03*
X1817000Y1643000D03*
X1812500D03*
X1872500Y1639000D03*
X1853500Y1623700D03*
X1877900Y1649000D03*
X1855500Y1648500D03*
X1877000Y1651000D03*
X1855500Y1655000D03*
X1857500Y1647000D03*
X1873000Y1643500D03*
X1877000Y1647100D03*
Y1654600D03*
X1857000Y1657000D03*
X1879700Y1652700D03*
X1879000Y1644400D03*
X1868600Y1643800D03*
X1857900Y1653000D03*
X1877000Y1658900D03*
X1858000Y1645000D03*
X1857800Y1649000D03*
X1860500Y1643000D03*
X1917500Y1643300D03*
X1907500D03*
X1911500Y1653500D03*
X1912500Y1643500D03*
X1964700Y1641400D03*
X1955500Y1653100D03*
X1966900Y1641300D03*
X1949000Y1624000D03*
X1951500Y1653000D03*
X1959500D03*
X1935500Y1648000D03*
X1932500Y1635000D03*
X1955500Y1637500D03*
X1945500Y1639500D03*
X1960000D03*
X1954000Y1625677D03*
X1968500Y1624500D03*
X1947500Y1648000D03*
X1952500Y1628000D03*
X1935500Y1644500D03*
X1765600Y1678800D03*
X1759900Y1663600D03*
X1767300Y1665400D03*
X1759900Y1665700D03*
X1767400Y1671600D03*
X1767500Y1674200D03*
Y1677200D03*
X1761400Y1670800D03*
X1759500Y1676000D03*
X1761000Y1681000D03*
X1767000Y1680400D03*
X1765000Y1682000D03*
X1763500Y1691500D03*
X1767000D03*
X1759800Y1678800D03*
X1767000Y1660500D03*
X1763400Y1675100D03*
X1760400Y1693700D03*
X1808700Y1679900D03*
X1808600Y1683200D03*
X1782700Y1694900D03*
X1785800Y1698400D03*
X1795400Y1661700D03*
X1797700D03*
X1779800Y1678900D03*
X1791500Y1686200D03*
X1774700Y1665600D03*
X1789000Y1690500D03*
Y1696000D03*
Y1693500D03*
X1780000Y1670500D03*
X1783800Y1697100D03*
X1790000Y1662500D03*
X1791700Y1682900D03*
X1777300Y1678300D03*
X1780300Y1662500D03*
X1780500Y1659000D03*
X1794100Y1673800D03*
X1792000Y1674800D03*
X1805500Y1676900D03*
X1790237Y1679537D03*
X1811900Y1680000D03*
X1797500Y1669500D03*
X1780600Y1676000D03*
X1805670Y1670620D03*
X1811800Y1661130D03*
X1778000Y1690500D03*
X1772300Y1678800D03*
X1811300Y1688000D03*
X1801200Y1688100D03*
X1798000Y1681524D03*
X1808800Y1688000D03*
X1811700Y1670500D03*
X1797500Y1666000D03*
X1774031Y1685000D03*
X1811880Y1676790D03*
X1789500Y1667500D03*
X1808580Y1667330D03*
X1805000Y1688000D03*
X1837600Y1676200D03*
X1849800Y1669500D03*
X1851000Y1671100D03*
X1824800Y1686800D03*
X1826800Y1687900D03*
X1822500Y1687500D03*
X1839100Y1665700D03*
X1839900Y1686100D03*
X1834800Y1684500D03*
X1821200Y1680000D03*
X1818200Y1683100D03*
X1831300Y1684700D03*
X1815000Y1683100D03*
X1840000Y1697000D03*
X1842000Y1692500D03*
X1818170Y1676960D03*
X1824500Y1664300D03*
X1827500Y1670600D03*
X1827700Y1664300D03*
X1831500Y1671500D03*
X1827600Y1661100D03*
X1831400Y1675200D03*
X1827500Y1673700D03*
X1824500Y1680000D03*
X1849000Y1689000D03*
X1815000Y1670500D03*
X1818300D03*
X1836500Y1664925D03*
X1839500Y1672500D03*
X1821400Y1670600D03*
Y1667500D03*
X1839500Y1668500D03*
X1818200Y1661100D03*
X1824500D03*
X1856000Y1663700D03*
X1880200Y1669000D03*
X1854300Y1667600D03*
X1853400Y1692900D03*
X1877300Y1667000D03*
X1858000D03*
X1877000Y1685000D03*
X1858000D03*
X1856600Y1674700D03*
X1877100Y1671000D03*
X1876900Y1662100D03*
X1880000Y1660000D03*
X1857900Y1671000D03*
X1858000Y1673000D03*
X1877000Y1681000D03*
X1858000Y1689000D03*
X1877000D03*
X1858000Y1681000D03*
X1877000Y1678900D03*
X1857900Y1691300D03*
X1858000Y1669000D03*
Y1687000D03*
X1877000Y1693000D03*
X1857900Y1679000D03*
Y1683000D03*
X1868500Y1692000D03*
X1877000Y1691000D03*
Y1687000D03*
X1859500Y1674800D03*
X1853500Y1689000D03*
X1868900Y1676300D03*
X1867500Y1660000D03*
X1880100Y1671000D03*
X1866900Y1675200D03*
X1862500Y1698031D03*
X1941600Y1673500D03*
X1964300Y1696100D03*
X1968500Y1668500D03*
X1944500Y1689000D03*
X1941500Y1671000D03*
X1967000Y1696000D03*
X1939000Y1695500D03*
X1968469Y1684500D03*
X1964531Y1679500D03*
X1760700Y1716400D03*
X1763300D03*
X1760700Y1702100D03*
X1772000Y1722000D03*
X1763300Y1702200D03*
X1765800Y1716400D03*
X1769400Y1703200D03*
X1768500Y1717000D03*
X1782400Y1710400D03*
X1780200Y1708700D03*
X1787800Y1699800D03*
X1803000Y1711000D03*
X1794000Y1714700D03*
Y1710000D03*
Y1712600D03*
X1780200Y1711200D03*
X1777000Y1702500D03*
X1773500Y1703000D03*
X1779000Y1726000D03*
X1782000Y1702500D03*
X1809000Y1728000D03*
X1804000D03*
X1806000Y1715500D03*
X1779500Y1702500D03*
X1808500Y1700500D03*
X1790800Y1717900D03*
X1812500Y1702400D03*
X1818900Y1703200D03*
X1837500Y1726000D03*
X1851200Y1705400D03*
X1847500Y1711000D03*
X1834000Y1701000D03*
X1830000Y1718031D03*
X1844500Y1714000D03*
X1833500Y1725500D03*
X1828500Y1709000D03*
X1830500Y1713000D03*
X1850500Y1731000D03*
X1849500Y1699500D03*
X1828500Y1705000D03*
X1871500Y1716000D03*
X1856600Y1714484D03*
X1865500Y1711500D03*
X1867000Y1700500D03*
X1869000Y1715500D03*
X1867000Y1729000D03*
X1884057Y1730943D03*
X1882000Y1732000D03*
X1877000Y1731500D03*
X1862000D03*
X1853000D03*
X1887500Y1715500D03*
X1893500Y1714000D03*
X1927000Y1715500D03*
X1906700Y1714300D03*
X1906800Y1717000D03*
X1917500Y1709500D03*
X1904000Y1720000D03*
X1921000Y1728000D03*
X1926000D03*
X1897000Y1725500D03*
X1931000Y1712000D03*
X1896000Y1715500D03*
X1958000Y1722000D03*
X1948500Y1712500D03*
X1958500Y1707000D03*
X1952000Y1708500D03*
X1951500Y1726000D03*
X1943500Y1715031D03*
G54D53*
X1761000Y1731500D03*
X1969000D03*
Y1588500D03*
X1761000D03*
G54D60*
X1817594Y1750619D03*
X1822319D03*
X1817594Y1742745D03*
X1822319D03*
X1908146Y1750645D03*
X1912870D03*
X1908146Y1742745D03*
X1912870D03*
X1987274Y1711724D03*
X1979400D03*
Y1707000D03*
X1987274D03*
X1979400Y1612724D03*
Y1608000D03*
X1987274Y1612724D03*
X1987300Y1608024D03*
X1912870Y1577391D03*
X1908146D03*
Y1569517D03*
X1912870D03*
X1822319Y1577391D03*
X1817594D03*
Y1569517D03*
X1822319D03*
X2053594Y1577391D03*
X2058319D03*
X2053594Y1569517D03*
X2058319D03*
X2144146Y1577391D03*
X2148870D03*
X2144146Y1569517D03*
X2148870D03*
X2053594Y1742745D03*
X2058319D03*
Y1750619D03*
X2053594D03*
X2144146Y1750645D03*
X2148870D03*
Y1742745D03*
X2144146D03*
G54D64*
X1761000Y1615500D03*
X1782000Y1590000D03*
Y1586000D03*
Y1581500D03*
X1846000Y1616000D03*
Y1613500D03*
X1849000Y1606500D03*
X1846000Y1611000D03*
X1837000Y1600000D03*
X1843000Y1581500D03*
X1831000D03*
X1837000D03*
X1840000D03*
X1826500D03*
X1822500D03*
X1828500Y1617500D03*
Y1614500D03*
X1851500Y1606500D03*
X1884000Y1618000D03*
X1883000Y1594500D03*
X1864500Y1581500D03*
X1867500D03*
X1862000D03*
X1890000D03*
X1887000D03*
X1907500D03*
X1903000D03*
X1899000D03*
X1893000D03*
X1899000Y1610500D03*
X1951500Y1597500D03*
X1948000Y1590000D03*
Y1586000D03*
Y1581500D03*
X1757600Y1651800D03*
X1848000Y1629000D03*
X1846000D03*
X1844000D03*
X1889500Y1620000D03*
X1857500Y1635500D03*
X1864500Y1657000D03*
X1886500Y1620000D03*
X1880500Y1628000D03*
Y1626000D03*
X1866500Y1657000D03*
X1895500Y1620000D03*
X1916500Y1623000D03*
X1911500D03*
X1919000D03*
X1914000D03*
X1904000Y1642000D03*
X1899000D03*
X1901500D03*
X1892500Y1620000D03*
X1897300Y1658900D03*
X1921500Y1643500D03*
X1962500Y1630000D03*
X1975000Y1645500D03*
Y1648000D03*
Y1650500D03*
X1885500Y1669000D03*
Y1671000D03*
X1883000Y1661000D03*
Y1663000D03*
Y1659000D03*
X1869400Y1667700D03*
X1865100D03*
X1869500Y1684500D03*
X1866000D03*
X1909500Y1666500D03*
X1927800Y1693800D03*
X1929100Y1695800D03*
X1897300Y1663100D03*
Y1661000D03*
X1915000Y1696000D03*
Y1693500D03*
X1931500Y1677000D03*
X1926500Y1674000D03*
X1929000Y1677000D03*
X1924000D03*
X1931500Y1674000D03*
X1924000D03*
X1931500Y1671500D03*
X1926500D03*
X1929000Y1674000D03*
X1924000Y1671500D03*
X1929000D03*
X1926500Y1677000D03*
X1894500Y1669000D03*
Y1666500D03*
X1911000Y1695500D03*
Y1697500D03*
X1944500Y1666500D03*
X1964000Y1663000D03*
X1936100Y1695400D03*
X1933900D03*
X1778000Y1722500D03*
X1782000Y1734000D03*
Y1730000D03*
X1840000Y1734000D03*
Y1730000D03*
X1911000Y1699500D03*
X1941000Y1712000D03*
X1948000Y1730000D03*
Y1734000D03*
X1975000Y1709500D03*
Y1712000D03*
Y1714500D03*
X1782000Y1739000D03*
X1829500D03*
X1826000D03*
X1822500D03*
X1907000D03*
X1903500D03*
X1900000D03*
X1948000D03*
G54D167*
X1950000Y1681900D03*
Y1666100D03*
X1925000Y1619600D03*
Y1635400D03*
G54D179*
X1893823Y1614240D03*
Y1610500D03*
Y1606760D03*
X1884177D03*
Y1610500D03*
Y1614240D03*
G54D169*
X1767338Y1627583D03*
X1764779D03*
X1762220D03*
X1759661D03*
Y1650417D03*
X1762220D03*
X1764779D03*
X1767338D03*
G54D180*
X1792350Y1716453D03*
Y1714484D03*
Y1712516D03*
Y1710547D03*
X1788807D03*
Y1712516D03*
Y1714484D03*
Y1716453D03*
X1854850D03*
Y1714484D03*
Y1712516D03*
Y1710547D03*
X1851307D03*
Y1712516D03*
Y1714484D03*
Y1716453D03*
X1904850Y1715953D03*
Y1713984D03*
Y1712016D03*
Y1710047D03*
X1901307D03*
Y1712016D03*
Y1713984D03*
Y1715953D03*
X1937650Y1605047D03*
Y1607016D03*
Y1608984D03*
Y1610953D03*
X1941193D03*
Y1608984D03*
Y1607016D03*
Y1605047D03*
G54D181*
X1809453Y1612150D03*
X1807484D03*
X1805516D03*
X1803547D03*
Y1615693D03*
X1805516D03*
X1807484D03*
X1809453D03*
X1870453Y1610650D03*
X1868484D03*
X1866516D03*
X1864547D03*
Y1614193D03*
X1866516D03*
X1868484D03*
X1870453D03*
G54D182*
X1795728Y1710547D03*
Y1712516D03*
Y1714484D03*
Y1716453D03*
X1799272D03*
Y1714484D03*
Y1712516D03*
Y1710547D03*
X1908728Y1710047D03*
Y1712016D03*
Y1713984D03*
Y1715953D03*
X1912272D03*
Y1713984D03*
Y1712016D03*
Y1710047D03*
X1934272Y1610953D03*
Y1608984D03*
Y1607016D03*
Y1605047D03*
X1930728D03*
Y1607016D03*
Y1608984D03*
Y1610953D03*
G54D183*
X1803547Y1606272D03*
X1805516D03*
X1807484D03*
X1809453D03*
Y1602728D03*
X1807484D03*
X1805516D03*
X1803547D03*
X1865453Y1713728D03*
X1863484D03*
X1861516D03*
X1859547D03*
Y1717272D03*
X1861516D03*
X1863484D03*
X1865453D03*
X1864547Y1606272D03*
X1866516D03*
X1868484D03*
X1870453D03*
Y1602728D03*
X1868484D03*
X1866516D03*
X1864547D03*
G54D174*
X1806646Y1710764D03*
X1812354D03*
Y1706236D03*
X1806646D03*
G54D175*
X1791378Y1692421D03*
X1793346D03*
X1795315D03*
X1797283D03*
X1799252D03*
X1801220D03*
X1803189D03*
X1805157D03*
X1807126D03*
X1809094D03*
X1811063D03*
X1813031D03*
X1815000D03*
X1816969D03*
X1818937D03*
X1820906D03*
X1822874D03*
X1824843D03*
X1826811D03*
X1828780D03*
X1830748D03*
X1832717D03*
X1834685D03*
X1836654D03*
X1838622D03*
Y1632579D03*
X1836654D03*
X1834685D03*
X1832717D03*
X1830748D03*
X1828780D03*
X1826811D03*
X1824843D03*
X1822874D03*
X1820906D03*
X1818937D03*
X1816969D03*
X1815000D03*
X1813031D03*
X1811063D03*
X1809094D03*
X1807126D03*
X1805157D03*
X1803189D03*
X1801220D03*
X1799252D03*
X1797283D03*
X1795315D03*
X1793346D03*
X1791378D03*
G54D176*
X1844921Y1686122D03*
Y1684154D03*
Y1682185D03*
Y1680217D03*
Y1678248D03*
Y1676280D03*
Y1674311D03*
Y1672343D03*
Y1670374D03*
Y1668406D03*
Y1666437D03*
Y1664469D03*
Y1662500D03*
Y1660531D03*
Y1658563D03*
Y1656594D03*
Y1654626D03*
Y1652657D03*
Y1650689D03*
Y1648720D03*
Y1646752D03*
Y1644783D03*
Y1642815D03*
Y1640846D03*
Y1638878D03*
X1785079D03*
Y1640846D03*
Y1642815D03*
Y1644783D03*
Y1646752D03*
Y1648720D03*
Y1650689D03*
Y1652657D03*
Y1654626D03*
Y1656594D03*
Y1658563D03*
Y1660531D03*
Y1662500D03*
Y1664469D03*
Y1666437D03*
Y1668406D03*
Y1670374D03*
Y1672343D03*
Y1674311D03*
Y1676280D03*
Y1678248D03*
Y1680217D03*
Y1682185D03*
Y1684154D03*
Y1686122D03*
G54D177*
Y1692421D03*
X1844921Y1632579D03*
G54D184*
X1867500Y1684000D03*
X1830500Y1614500D03*
X1867500Y1652000D03*
G54D19*
X2119220Y1692504D03*
X2122220D03*
X2125220D03*
X2128220Y1666504D03*
X2125220D03*
X2122220D03*
G54D21*
X2093720Y1623704D03*
Y1631304D03*
X2103720D03*
Y1623704D03*
G54D22*
X2077020Y1706004D03*
X2069420D03*
G54D15*
X2177720Y1652850D03*
Y1646158D03*
X1991720Y1710658D03*
Y1717350D03*
G54D24*
X2122720Y1637004D03*
Y1648004D03*
X2136220Y1637004D03*
Y1648004D03*
X2121220Y1686504D03*
Y1675504D03*
G54D26*
X2139120Y1626004D03*
X2123320D03*
G54D16*
X1999980Y1619827D03*
X2003720D03*
X2007460D03*
Y1610181D03*
X2003720D03*
X1999980D03*
X2003960Y1687681D03*
X2000220D03*
X1996480D03*
Y1697327D03*
X2000220D03*
X2003960D03*
X2024980Y1621327D03*
X2028720D03*
X2032460D03*
Y1611681D03*
X2028720D03*
X2024980D03*
X2107480Y1710327D03*
X2111220D03*
X2114960D03*
Y1700681D03*
X2111220D03*
X2107480D03*
X2156480Y1711827D03*
X2160220D03*
X2163960D03*
Y1702181D03*
X2160220D03*
X2156480D03*
X2191480Y1617327D03*
X2195220D03*
X2198960D03*
Y1607681D03*
X2195220D03*
X2191480D03*
G54D73*
X2147456Y1722504D03*
X2152377D03*
X2157299D03*
X2162220D03*
X2167141D03*
X2172063D03*
X2176984D03*
Y1597504D03*
X2172063D03*
X2167141D03*
X2162220D03*
X2157299D03*
X2152377D03*
X2147456D03*
X2025456Y1722504D03*
X2030377D03*
X2035299D03*
X2040220D03*
X2045141D03*
X2050063D03*
X2054984D03*
Y1597504D03*
X2050063D03*
X2045141D03*
X2040220D03*
X2035299D03*
X2030377D03*
X2025456D03*
X2086456Y1722504D03*
X2091377D03*
X2096299D03*
X2101220D03*
X2106141D03*
X2111063D03*
X2115984D03*
Y1597504D03*
X2111063D03*
X2106141D03*
X2101220D03*
X2096299D03*
X2091377D03*
X2086456D03*
G54D65*
X2137417Y1733921D03*
X2187023D03*
Y1586087D03*
X2137417D03*
X2015417Y1733921D03*
X2065023D03*
Y1586087D03*
X2015417D03*
X2076417Y1733921D03*
X2126023D03*
Y1586087D03*
X2076417D03*
G54D34*
X2174176Y1660204D03*
X2171617D03*
X2169058D03*
X2166499D03*
X2163940D03*
X2161381D03*
X2158822D03*
X2156263D03*
Y1683804D03*
X2158822D03*
X2161381D03*
X2163940D03*
X2166499D03*
X2169058D03*
X2171617D03*
X2174176D03*
G54D35*
X2165220Y1672004D03*
G54D39*
X2147220Y1610504D03*
G54D68*
X2138720Y1673949D03*
Y1692059D03*
G54D42*
X2024720Y1703504D03*
X2030220D03*
X2035720D03*
X2043020Y1622704D03*
X2096620Y1702704D03*
G54D69*
X2013689Y1718004D03*
X2009751D03*
X2058251Y1701504D03*
X2062189D03*
X2102751Y1671504D03*
X2106689D03*
X2106189Y1639004D03*
X2102251D03*
X2014189Y1688004D03*
X2010251D03*
X2165689Y1653004D03*
X2161751D03*
X2009751Y1713504D03*
X2013689D03*
X2058251Y1597004D03*
X2062189D03*
X2052251Y1716504D03*
X2056189D03*
X2029689Y1603504D03*
X2025751D03*
X2082189Y1722504D03*
X2078251D03*
X2120251Y1600004D03*
X2124189D03*
X2111251Y1716504D03*
X2115189D03*
X2091189Y1603504D03*
X2087251D03*
X2144189Y1723004D03*
X2140251D03*
X2172751Y1716504D03*
X2176689D03*
X2151689Y1603504D03*
X2147751D03*
X2004189Y1706004D03*
X2000251D03*
X2134689Y1655504D03*
X2130751D03*
X2010251Y1682004D03*
X2014189D03*
X2151751Y1654004D03*
X2155689D03*
X2200751Y1682004D03*
X2204689D03*
X2200751Y1687004D03*
X2204689D03*
Y1671004D03*
X2200751D03*
X2204689Y1677004D03*
X2200751D03*
X2204689Y1692004D03*
X2200751D03*
X2084689Y1692504D03*
X2080751D03*
X1996189Y1706004D03*
X1992251D03*
X2062189Y1705004D03*
X2058251D03*
X2007689Y1605004D03*
X2003751D03*
X2065251Y1597004D03*
X2069189D03*
X2065251Y1601004D03*
X2069189D03*
X2066689Y1722504D03*
X2062751D03*
X2017251Y1601504D03*
X2021189D03*
X2017251Y1597504D03*
X2021189D03*
X2074689Y1722504D03*
X2070751D03*
X2078189Y1718504D03*
X2074251D03*
X2124189D03*
X2120251D03*
X2124189Y1722504D03*
X2120251D03*
X2078251Y1597504D03*
X2082189D03*
X2137189Y1719004D03*
X2133251D03*
X2137189Y1723004D03*
X2133251D03*
X2185189Y1718504D03*
X2181251D03*
X2185189Y1722504D03*
X2181251D03*
X2135751Y1597504D03*
X2139689D03*
X2010251Y1650504D03*
X2014189D03*
X2010251Y1654504D03*
X2014189D03*
X2010251Y1658504D03*
X2014189D03*
X2010251Y1662504D03*
X2014189D03*
X2057189Y1604504D03*
X2053251D03*
X2010251Y1646504D03*
X2014189D03*
X2068189Y1698004D03*
X2064251D03*
X2122751Y1655504D03*
X2126689D03*
X2048689Y1716504D03*
X2044751D03*
X2058251Y1713004D03*
X2062189D03*
X2014189Y1675504D03*
X2010251D03*
X2014189Y1694004D03*
X2010251D03*
X2018689Y1630004D03*
X2014751D03*
X2058251Y1709004D03*
X2062189D03*
G54D74*
X1991720Y1696473D03*
Y1692535D03*
X2019220Y1614535D03*
Y1618473D03*
X2121220Y1703535D03*
Y1707473D03*
X2135220Y1604035D03*
Y1607973D03*
X2169220Y1705035D03*
Y1708973D03*
X2205220Y1610535D03*
Y1614473D03*
X2177220Y1682035D03*
Y1685973D03*
X2165720Y1649973D03*
Y1646035D03*
X2151720Y1658035D03*
Y1661973D03*
X2091720Y1696035D03*
Y1699973D03*
X2009720Y1705535D03*
Y1709473D03*
X2004220Y1709535D03*
Y1713473D03*
X2000220D03*
Y1709535D03*
X2024720Y1632973D03*
Y1629035D03*
X2087720Y1635035D03*
Y1638973D03*
X2074720Y1714973D03*
Y1711035D03*
X2021220Y1722473D03*
Y1718535D03*
X2070720Y1714973D03*
Y1711035D03*
X2181220Y1597535D03*
Y1601473D03*
X2013720Y1705535D03*
Y1709473D03*
X2082720Y1703035D03*
Y1706973D03*
X2157720Y1649973D03*
Y1646035D03*
X2161720Y1649973D03*
Y1646035D03*
X2153720D03*
Y1649973D03*
X2088220Y1699973D03*
Y1696035D03*
X2082720D03*
Y1699973D03*
X2012220Y1612973D03*
Y1609035D03*
X1994220Y1612973D03*
Y1609035D03*
Y1617035D03*
Y1620973D03*
X2012220Y1617035D03*
Y1620973D03*
X2201720Y1632035D03*
Y1635973D03*
X2054220Y1706035D03*
Y1709973D03*
X2194220Y1632035D03*
Y1635973D03*
Y1628473D03*
Y1624535D03*
X2201720Y1628473D03*
Y1624535D03*
X2006720Y1650035D03*
Y1653973D03*
X1998720Y1656035D03*
Y1659973D03*
X1994720Y1656035D03*
Y1659973D03*
X2017220Y1718535D03*
Y1722473D03*
X2059220Y1718535D03*
Y1722473D03*
X2051720Y1698535D03*
Y1702473D03*
X2128220Y1602473D03*
Y1598535D03*
X2132220Y1602473D03*
Y1598535D03*
X2082720Y1605073D03*
Y1601135D03*
X2185220Y1601473D03*
Y1597535D03*
X2183220Y1605035D03*
Y1608973D03*
X2143220Y1601473D03*
Y1597535D03*
X2079220Y1699973D03*
Y1696035D03*
X2087220Y1681535D03*
Y1685473D03*
X2152720Y1682035D03*
Y1685973D03*
X1996220Y1713473D03*
Y1709535D03*
X1998720Y1663035D03*
Y1666973D03*
G54D75*
X2100767Y1675244D03*
Y1692764D03*
X2106673D03*
Y1675244D03*
X2069673Y1623264D03*
Y1605744D03*
X2063767D03*
Y1623264D03*
X2106673Y1660764D03*
Y1643244D03*
X2100767D03*
Y1660764D03*
G54D76*
X2096850Y1677114D03*
Y1679083D03*
Y1681051D03*
Y1683020D03*
Y1684988D03*
Y1686957D03*
Y1688925D03*
Y1690894D03*
X2110590D03*
Y1688925D03*
Y1686957D03*
Y1684988D03*
Y1683020D03*
Y1681051D03*
Y1679083D03*
Y1677114D03*
X2073590Y1621394D03*
Y1619425D03*
Y1617457D03*
Y1615488D03*
Y1613520D03*
Y1611551D03*
Y1609583D03*
Y1607614D03*
X2059850D03*
Y1609583D03*
Y1611551D03*
Y1613520D03*
Y1615488D03*
Y1617457D03*
Y1619425D03*
Y1621394D03*
X2110590Y1658894D03*
Y1656925D03*
Y1654957D03*
Y1652988D03*
Y1651020D03*
Y1649051D03*
Y1647083D03*
Y1645114D03*
X2096850D03*
Y1647083D03*
Y1649051D03*
Y1651020D03*
Y1652988D03*
Y1654957D03*
Y1656925D03*
Y1658894D03*
G54D49*
X1991220Y1600504D03*
X2211720D03*
Y1719504D03*
G54D52*
X2007320Y1688504D03*
Y1686404D03*
Y1658604D03*
Y1656504D03*
X1992120Y1688604D03*
Y1686404D03*
Y1658604D03*
Y1656504D03*
X2008220Y1598004D03*
X2000220Y1616504D03*
X2006220Y1614004D03*
X2003720D03*
X2000220Y1613504D03*
X2022220Y1611177D03*
X2048220Y1615504D03*
X2015220Y1594504D03*
X2075120Y1605504D03*
X2083520Y1618604D03*
X2076620Y1607604D03*
X2056720Y1613504D03*
Y1617504D03*
X2056220Y1610004D03*
X2065720Y1607004D03*
X2051220Y1610504D03*
X2056720Y1615504D03*
X2062220Y1600004D03*
X2067220Y1604504D03*
X2107220Y1608504D03*
X2090720Y1607004D03*
X2137220Y1601504D03*
X2139720D03*
X2194720Y1597004D03*
X2171220Y1592004D03*
X2173948Y1614504D03*
X2179220Y1613504D03*
X2168720Y1614504D03*
X2183220Y1611504D03*
X2208220Y1612504D03*
X2007420Y1641204D03*
X2002320Y1642204D03*
X2002220Y1644504D03*
X1994120Y1648504D03*
X1998220Y1645504D03*
X1994320Y1641104D03*
X2027720Y1646504D03*
X2013220Y1638504D03*
X2037220Y1627504D03*
X2014920Y1626504D03*
X2045220Y1627504D03*
X2047720Y1624004D03*
X2009820Y1642604D03*
X2026220Y1651004D03*
Y1648504D03*
X2039220Y1625004D03*
Y1627504D03*
X2026920Y1656604D03*
X2015220Y1633004D03*
X2017220Y1647004D03*
Y1635004D03*
X2016620Y1654630D03*
X2016641Y1651783D03*
X2043220Y1643504D03*
X2021220Y1631504D03*
X2032220Y1643504D03*
X2014720Y1620504D03*
X2037220Y1643504D03*
X2014220Y1644004D03*
X2048150Y1653824D03*
X2022220Y1629004D03*
X2021220Y1620504D03*
X2029720Y1643004D03*
X2065320Y1627704D03*
X2067720Y1627604D03*
X2064020Y1637604D03*
X2086720Y1621204D03*
X2077520Y1626304D03*
X2067720Y1622004D03*
X2062220Y1627504D03*
X2051520D03*
X2059220D03*
X2049220D03*
X2071620Y1657804D03*
X2075720Y1645004D03*
X2072720Y1650504D03*
X2071220Y1654004D03*
X2086220Y1649004D03*
X2066220Y1637504D03*
X2067720Y1642004D03*
X2085720Y1644804D03*
X2056720Y1619504D03*
X2059520Y1622904D03*
X2077720Y1629504D03*
X2050050Y1646554D03*
X2062220Y1623504D03*
X2067220Y1646504D03*
X2086220Y1654504D03*
X2056720Y1643504D03*
X2086720Y1657504D03*
X2065220Y1639504D03*
X2053220Y1643004D03*
X2048720D03*
X2108720Y1639004D03*
X2089720Y1623704D03*
X2114120Y1649004D03*
X2091720Y1648504D03*
X2113220Y1651004D03*
X2091720Y1655004D03*
X2093720Y1647004D03*
X2109220Y1643504D03*
X2113220Y1647104D03*
Y1654604D03*
X2093220Y1657004D03*
X2115920Y1652704D03*
X2115220Y1644404D03*
X2104820Y1643804D03*
X2094120Y1653004D03*
X2113220Y1658904D03*
X2094220Y1645004D03*
X2094020Y1649004D03*
X2096720Y1643004D03*
X2153720Y1643304D03*
X2143720D03*
X2147720Y1653504D03*
X2148720Y1643504D03*
X2200920Y1641404D03*
X2191720Y1653104D03*
X2203120Y1641304D03*
X2185220Y1624004D03*
X2187720Y1653004D03*
X2195720D03*
X2171720Y1648004D03*
X2168720Y1635004D03*
X2191720Y1637504D03*
X2181720Y1639504D03*
X2196220D03*
X2190220Y1625681D03*
X2204720Y1624504D03*
X2183720Y1648004D03*
X2188720Y1628004D03*
X2171720Y1644504D03*
X2001820Y1678804D03*
X1996120Y1663604D03*
X2003520Y1665404D03*
X1996120Y1665704D03*
X2003620Y1671604D03*
X2003720Y1674204D03*
Y1677204D03*
X1997620Y1670804D03*
X1995720Y1676004D03*
X1997220Y1681004D03*
X2003220Y1680404D03*
X2001220Y1682004D03*
X1999720Y1691504D03*
X2003220D03*
X1996020Y1678804D03*
X2003220Y1660504D03*
X1999620Y1675104D03*
X1996620Y1693704D03*
X2044920Y1679904D03*
X2044820Y1683204D03*
X2018920Y1694904D03*
X2022020Y1698404D03*
X2031620Y1661704D03*
X2033920D03*
X2016020Y1678904D03*
X2027720Y1686204D03*
X2010920Y1665604D03*
X2025220Y1690504D03*
Y1696004D03*
Y1693504D03*
X2016220Y1670504D03*
X2020020Y1697104D03*
X2026220Y1662504D03*
X2027920Y1682904D03*
X2013520Y1678304D03*
X2016520Y1662504D03*
X2016720Y1659004D03*
X2030320Y1673804D03*
X2028220Y1674804D03*
X2041720Y1676904D03*
X2026457Y1679541D03*
X2048120Y1680004D03*
X2033720Y1669504D03*
X2016820Y1676004D03*
X2041890Y1670624D03*
X2048020Y1661134D03*
X2014220Y1690504D03*
X2008520Y1678804D03*
X2047520Y1688004D03*
X2037420Y1688104D03*
X2034220Y1681528D03*
X2045020Y1688004D03*
X2047920Y1670504D03*
X2033720Y1666004D03*
X2010251Y1685004D03*
X2048100Y1676794D03*
X2025720Y1667504D03*
X2044800Y1667334D03*
X2041220Y1688004D03*
X2073820Y1676204D03*
X2086020Y1669504D03*
X2087220Y1671104D03*
X2061020Y1686804D03*
X2063020Y1687904D03*
X2058720Y1687504D03*
X2075320Y1665704D03*
X2076120Y1686104D03*
X2071020Y1684504D03*
X2057420Y1680004D03*
X2054420Y1683104D03*
X2067520Y1684704D03*
X2051220Y1683104D03*
X2076220Y1697004D03*
X2078220Y1692504D03*
X2054390Y1676964D03*
X2060720Y1664304D03*
X2063720Y1670604D03*
X2063920Y1664304D03*
X2067720Y1671504D03*
X2063820Y1661104D03*
X2067620Y1675204D03*
X2063720Y1673704D03*
X2060720Y1680004D03*
X2085220Y1689004D03*
X2051220Y1670504D03*
X2054520D03*
X2072720Y1664929D03*
X2075720Y1672504D03*
X2057620Y1670604D03*
Y1667504D03*
X2075720Y1668504D03*
X2054420Y1661104D03*
X2060720D03*
X2092220Y1663704D03*
X2116420Y1669004D03*
X2090520Y1667604D03*
X2089620Y1692904D03*
X2113520Y1667004D03*
X2094220D03*
X2113220Y1685004D03*
X2094220D03*
X2092820Y1674704D03*
X2113320Y1671004D03*
X2113120Y1662104D03*
X2116220Y1660004D03*
X2094120Y1671004D03*
X2094220Y1673004D03*
X2113220Y1681004D03*
X2094220Y1689004D03*
X2113220D03*
X2094220Y1681004D03*
X2113220Y1678904D03*
X2094120Y1691304D03*
X2094220Y1669004D03*
Y1687004D03*
X2113220Y1693004D03*
X2094120Y1679004D03*
Y1683004D03*
X2104720Y1692004D03*
X2113220Y1691004D03*
Y1687004D03*
X2095720Y1674804D03*
X2089720Y1689004D03*
X2105120Y1676304D03*
X2103720Y1660004D03*
X2116320Y1671004D03*
X2103120Y1675204D03*
X2098720Y1698035D03*
X2177820Y1673504D03*
X2200520Y1696104D03*
X2204720Y1668504D03*
X2180720Y1689004D03*
X2177720Y1671004D03*
X2203220Y1696004D03*
X2175220Y1695504D03*
X2204689Y1684504D03*
X2200751Y1679504D03*
X1996920Y1716404D03*
X1999520D03*
X1996920Y1702104D03*
X2008220Y1722004D03*
X1999520Y1702204D03*
X2002020Y1716404D03*
X2005620Y1703204D03*
X2004720Y1717004D03*
X2018620Y1710404D03*
X2016420Y1708704D03*
X2024020Y1699804D03*
X2039220Y1711004D03*
X2030220Y1714704D03*
Y1710004D03*
Y1712604D03*
X2016420Y1711204D03*
X2013220Y1702504D03*
X2009720Y1703004D03*
X2015220Y1726004D03*
X2018220Y1702504D03*
X2045220Y1728004D03*
X2040220D03*
X2042220Y1715504D03*
X2015720Y1702504D03*
X2044720Y1700504D03*
X2027020Y1717904D03*
X2048720Y1702404D03*
X2055120Y1703204D03*
X2073720Y1726004D03*
X2087420Y1705404D03*
X2083720Y1711004D03*
X2070220Y1701004D03*
X2066220Y1718035D03*
X2080720Y1714004D03*
X2069720Y1725504D03*
X2064720Y1709004D03*
X2066720Y1713004D03*
X2086720Y1731004D03*
X2085720Y1699504D03*
X2064720Y1705004D03*
X2107720Y1716004D03*
X2092820Y1714488D03*
X2101720Y1711504D03*
X2103220Y1700504D03*
X2105220Y1715504D03*
X2103220Y1729004D03*
X2120277Y1730947D03*
X2118220Y1732004D03*
X2113220Y1731504D03*
X2098220D03*
X2089220D03*
X2123720Y1715504D03*
X2129720Y1714004D03*
X2163220Y1715504D03*
X2142920Y1714304D03*
X2143020Y1717004D03*
X2153720Y1709504D03*
X2140220Y1720004D03*
X2157220Y1728004D03*
X2162220D03*
X2133220Y1725504D03*
X2167220Y1712004D03*
X2132220Y1715504D03*
X2194220Y1722004D03*
X2184720Y1712504D03*
X2194720Y1707004D03*
X2188220Y1708504D03*
X2187720Y1726004D03*
X2179720Y1715035D03*
G54D53*
X1997220Y1731504D03*
X2205220D03*
Y1588504D03*
X1997220D03*
G54D64*
Y1615504D03*
X2018220Y1590004D03*
Y1586004D03*
Y1581504D03*
X2082220Y1616004D03*
Y1613504D03*
X2085220Y1606504D03*
X2082220Y1611004D03*
X2073220Y1600004D03*
X2079220Y1581504D03*
X2067220D03*
X2073220D03*
X2076220D03*
X2062720D03*
X2058720D03*
X2064720Y1617504D03*
Y1614504D03*
X2087720Y1606504D03*
X2120220Y1618004D03*
X2119220Y1594504D03*
X2100720Y1581504D03*
X2103720D03*
X2098220D03*
X2126220D03*
X2123220D03*
X2143720D03*
X2139220D03*
X2135220D03*
X2129220D03*
X2135220Y1610504D03*
X2187720Y1597504D03*
X2184220Y1590004D03*
Y1586004D03*
Y1581504D03*
X1993820Y1651804D03*
X2084220Y1629004D03*
X2082220D03*
X2080220D03*
X2125720Y1620004D03*
X2093720Y1635504D03*
X2100720Y1657004D03*
X2122720Y1620004D03*
X2116720Y1628004D03*
Y1626004D03*
X2102720Y1657004D03*
X2131720Y1620004D03*
X2152720Y1623004D03*
X2147720D03*
X2155220D03*
X2150220D03*
X2140220Y1642004D03*
X2135220D03*
X2137720D03*
X2128720Y1620004D03*
X2133520Y1658904D03*
X2157720Y1643504D03*
X2198720Y1630004D03*
X2211220Y1645504D03*
Y1648004D03*
Y1650504D03*
X2121720Y1669004D03*
Y1671004D03*
X2119220Y1661004D03*
Y1663004D03*
Y1659004D03*
X2105620Y1667704D03*
X2101320D03*
X2105720Y1684504D03*
X2102220D03*
X2145720Y1666504D03*
X2164020Y1693804D03*
X2165320Y1695804D03*
X2133520Y1663104D03*
Y1661004D03*
X2151220Y1696004D03*
Y1693504D03*
X2167720Y1677004D03*
X2162720Y1674004D03*
X2165220Y1677004D03*
X2160220D03*
X2167720Y1674004D03*
X2160220D03*
X2167720Y1671504D03*
X2162720D03*
X2165220Y1674004D03*
X2160220Y1671504D03*
X2165220D03*
X2162720Y1677004D03*
X2130720Y1669004D03*
Y1666504D03*
X2147220Y1695504D03*
Y1697504D03*
X2180720Y1666504D03*
X2200220Y1663004D03*
X2172320Y1695404D03*
X2170120D03*
X2014220Y1722504D03*
X2018220Y1734004D03*
Y1730004D03*
X2076220Y1734004D03*
Y1730004D03*
X2147220Y1699504D03*
X2177220Y1712004D03*
X2184220Y1730004D03*
Y1734004D03*
X2211220Y1709504D03*
Y1712004D03*
Y1714504D03*
X2018220Y1739004D03*
X2065720D03*
X2062220D03*
X2058720D03*
X2143220D03*
X2139720D03*
X2136220D03*
X2184220D03*
G54D167*
X2186220Y1681904D03*
Y1666104D03*
X2161220Y1619604D03*
Y1635404D03*
G54D179*
X2130043Y1614244D03*
Y1610504D03*
Y1606764D03*
X2120397D03*
Y1610504D03*
Y1614244D03*
G54D169*
X2003558Y1627587D03*
X2000999D03*
X1998440D03*
X1995881D03*
Y1650421D03*
X1998440D03*
X2000999D03*
X2003558D03*
G54D180*
X2028570Y1716457D03*
Y1714488D03*
Y1712520D03*
Y1710551D03*
X2025027D03*
Y1712520D03*
Y1714488D03*
Y1716457D03*
X2091070D03*
Y1714488D03*
Y1712520D03*
Y1710551D03*
X2087527D03*
Y1712520D03*
Y1714488D03*
Y1716457D03*
X2141070Y1715957D03*
Y1713988D03*
Y1712020D03*
Y1710051D03*
X2137527D03*
Y1712020D03*
Y1713988D03*
Y1715957D03*
X2173870Y1605051D03*
Y1607020D03*
Y1608988D03*
Y1610957D03*
X2177413D03*
Y1608988D03*
Y1607020D03*
Y1605051D03*
G54D181*
X2045673Y1612154D03*
X2043704D03*
X2041736D03*
X2039767D03*
Y1615697D03*
X2041736D03*
X2043704D03*
X2045673D03*
X2106673Y1610654D03*
X2104704D03*
X2102736D03*
X2100767D03*
Y1614197D03*
X2102736D03*
X2104704D03*
X2106673D03*
G54D182*
X2031948Y1710551D03*
Y1712520D03*
Y1714488D03*
Y1716457D03*
X2035492D03*
Y1714488D03*
Y1712520D03*
Y1710551D03*
X2144948Y1710051D03*
Y1712020D03*
Y1713988D03*
Y1715957D03*
X2148492D03*
Y1713988D03*
Y1712020D03*
Y1710051D03*
X2170492Y1610957D03*
Y1608988D03*
Y1607020D03*
Y1605051D03*
X2166948D03*
Y1607020D03*
Y1608988D03*
Y1610957D03*
G54D183*
X2039767Y1606276D03*
X2041736D03*
X2043704D03*
X2045673D03*
Y1602732D03*
X2043704D03*
X2041736D03*
X2039767D03*
X2101673Y1713732D03*
X2099704D03*
X2097736D03*
X2095767D03*
Y1717276D03*
X2097736D03*
X2099704D03*
X2101673D03*
X2100767Y1606276D03*
X2102736D03*
X2104704D03*
X2106673D03*
Y1602732D03*
X2104704D03*
X2102736D03*
X2100767D03*
G54D174*
X2042866Y1710768D03*
X2048574D03*
Y1706240D03*
X2042866D03*
G54D175*
X2027598Y1692425D03*
X2029566D03*
X2031535D03*
X2033503D03*
X2035472D03*
X2037440D03*
X2039409D03*
X2041377D03*
X2043346D03*
X2045314D03*
X2047283D03*
X2049251D03*
X2051220D03*
X2053189D03*
X2055157D03*
X2057126D03*
X2059094D03*
X2061063D03*
X2063031D03*
X2065000D03*
X2066968D03*
X2068937D03*
X2070905D03*
X2072874D03*
X2074842D03*
Y1632583D03*
X2072874D03*
X2070905D03*
X2068937D03*
X2066968D03*
X2065000D03*
X2063031D03*
X2061063D03*
X2059094D03*
X2057126D03*
X2055157D03*
X2053189D03*
X2051220D03*
X2049251D03*
X2047283D03*
X2045314D03*
X2043346D03*
X2041377D03*
X2039409D03*
X2037440D03*
X2035472D03*
X2033503D03*
X2031535D03*
X2029566D03*
X2027598D03*
G54D176*
X2081141Y1686126D03*
Y1684158D03*
Y1682189D03*
Y1680221D03*
Y1678252D03*
Y1676284D03*
Y1674315D03*
Y1672347D03*
Y1670378D03*
Y1668410D03*
Y1666441D03*
Y1664473D03*
Y1662504D03*
Y1660535D03*
Y1658567D03*
Y1656598D03*
Y1654630D03*
Y1652661D03*
Y1650693D03*
Y1648724D03*
Y1646756D03*
Y1644787D03*
Y1642819D03*
Y1640850D03*
Y1638882D03*
X2021299D03*
Y1640850D03*
Y1642819D03*
Y1644787D03*
Y1646756D03*
Y1648724D03*
Y1650693D03*
Y1652661D03*
Y1654630D03*
Y1656598D03*
Y1658567D03*
Y1660535D03*
Y1662504D03*
Y1664473D03*
Y1666441D03*
Y1668410D03*
Y1670378D03*
Y1672347D03*
Y1674315D03*
Y1676284D03*
Y1678252D03*
Y1680221D03*
Y1682189D03*
Y1684158D03*
Y1686126D03*
G54D177*
Y1692425D03*
X2081141Y1632583D03*
G54D184*
X2103720Y1684004D03*
X2066720Y1614504D03*
X2103720Y1652004D03*
G54D11*
X1767500Y1610177D02*
G01X1767531Y1610146D01*
Y1605000*
X1803547Y1606272D02*
G01Y1608260D01*
Y1608417*
X1799000Y1601228D02*
G01Y1597579D01*
X1799079Y1597500*
X1799000Y1601228D02*
G01X1800500Y1602728D01*
X1803547*
Y1608417D02*
G01Y1612228D01*
X1788760Y1611173D02*
G01Y1609000D01*
X1789500Y1608260*
X1803547*
X1805516Y1608417D02*
G01Y1612228D01*
X1786000Y1611173D02*
G01X1788760D01*
X1804000Y1597500D02*
G01X1804016Y1597516D01*
Y1599500*
X1805516Y1601000*
Y1602728*
X1808921Y1597500D02*
G01X1809000Y1597579D01*
Y1599484*
X1807484Y1602728D02*
G01Y1601000D01*
X1809000Y1599484*
X1809453Y1602728D02*
G01X1809567Y1602843D01*
X1812500*
X1813843Y1601500*
Y1597500*
X1809453Y1606272D02*
G01Y1612228D01*
X1807484Y1606272D02*
G01Y1612228D01*
X1805516Y1608417D02*
G01Y1606272D01*
Y1605000*
X1806016Y1604500*
X1810453*
X1812000Y1606047*
Y1610000*
X1814447Y1612447*
X1816300*
X1817200Y1611547*
X1823709*
X1807484Y1612228D02*
G01Y1613500D01*
X1807984Y1614000*
X1811000*
X1812000Y1615000*
Y1615500*
X1809453Y1612228D02*
G01X1812000D01*
X1814500Y1614728*
Y1619600*
X1788760Y1611677D02*
G01Y1611173D01*
X1796240Y1611677D02*
G01X1796500Y1611937D01*
Y1613000*
X1797500Y1614000*
X1805016*
X1805516Y1613500*
Y1612228*
X1829672Y1603179D02*
G01X1830993Y1604500D01*
X1831000*
X1821069Y1604600D02*
G01X1825092D01*
X1826513Y1603179*
X1829672*
X1838900Y1605500D02*
G01X1841400D01*
X1842500Y1606600*
Y1608500*
X1820500Y1613500D02*
G01X1820516Y1613516D01*
X1823709*
X1820500Y1617500D02*
G01X1823661D01*
X1823709Y1617453*
X1820000Y1610000D02*
G01X1820400Y1609600D01*
X1823687*
X1823709Y1609579*
X1815000Y1610500D02*
G01X1815110Y1610390D01*
Y1608500*
X1816000Y1607610*
X1823709*
X1820500Y1615500D02*
G01X1823693D01*
X1823709Y1615484*
X1827547Y1605819D02*
G01X1827566Y1605800D01*
X1828300*
X1829500Y1607000*
X1837291Y1607610D02*
G01X1840390D01*
X1840400Y1607600*
X1837291Y1609579D02*
G01X1837313Y1609600D01*
X1841500*
X1842500Y1608600*
Y1608500*
X1837291Y1611547D02*
G01X1841453D01*
X1843500Y1609500*
X1854500*
X1858000Y1606000*
Y1594000*
X1858500Y1593500*
X1876500*
X1877385Y1594385*
Y1602500*
X1837291Y1613516D02*
G01X1839416D01*
X1844500Y1618600*
X1847300*
X1837291Y1615484D02*
G01X1837307Y1615500D01*
X1839400*
X1844300Y1620400*
X1848400*
X1851200Y1617600*
Y1613500*
X1852700Y1612000*
X1858000*
X1861500Y1608500*
Y1606000*
X1863000Y1604500*
X1866016*
X1866516Y1605000*
Y1606272*
X1837291Y1617453D02*
G01X1837439Y1617600D01*
X1839300*
X1843600Y1621900*
X1849800*
X1850500Y1621200*
X1877385Y1602500D02*
G01X1887500D01*
X1891500Y1606500*
X1893563*
X1893823Y1606760*
X1860000Y1601228D02*
G01Y1597579D01*
X1860079Y1597500*
X1860000Y1601228D02*
G01X1861500Y1602728D01*
X1864547*
X1862728Y1612500D02*
G01Y1616500D01*
X1864228Y1618000*
X1874740*
X1878500Y1614240*
X1884177*
X1862728Y1612500D02*
G01X1862776D01*
X1864547Y1610728*
X1870453D02*
G01Y1608500D01*
X1871000*
X1865000Y1597500D02*
G01Y1599484D01*
X1866516Y1601000*
Y1602728*
X1869921Y1597500D02*
G01X1870000Y1597579D01*
Y1599484*
X1868484Y1602728D02*
G01Y1601000D01*
X1870000Y1599484*
X1870453Y1602728D02*
G01X1873500D01*
X1874728Y1601500*
Y1597614*
X1874843Y1597500*
X1870453Y1608500D02*
G01Y1606272D01*
X1875500*
X1877772Y1604000*
X1886500*
X1890000Y1607500*
Y1612500*
X1891500Y1614000*
X1893583*
X1893823Y1614240*
X1868484Y1606272D02*
G01Y1605000D01*
X1868984Y1604500*
X1875000*
X1877000Y1602500*
X1877385*
X1866516Y1606272D02*
G01Y1610728D01*
X1864547Y1606272D02*
G01Y1610728D01*
X1866516D02*
G01Y1611516D01*
X1867500Y1612500*
X1873000*
X1878740Y1606760*
X1884177*
X1868484Y1610728D02*
G01Y1606272D01*
X1921000Y1602953D02*
G01Y1597579D01*
X1921079Y1597500*
X1921000Y1602953D02*
G01X1929000Y1610953D01*
X1930728*
X1929000Y1606000D02*
G01Y1603421D01*
X1930921Y1601500*
Y1597500*
X1929000Y1606000D02*
G01X1930000Y1607000D01*
X1930713*
X1930728Y1607016*
X1896000Y1598531D02*
G01X1896500D01*
X1899469Y1601500*
X1901000*
X1930728Y1605047D02*
G01X1931000Y1604776D01*
Y1603843*
X1932000Y1602843*
X1934500*
X1935843Y1601500*
Y1597500*
X1926000D02*
G01Y1605484D01*
X1929500Y1608984*
X1930728*
X1938500Y1593500D02*
G01X1939500Y1592500D01*
X1943000*
X1944000Y1593500*
X1951250*
X1953750Y1596000*
Y1598500*
X1955750Y1600500*
X1970000*
X1974500Y1605000*
X1938500Y1593500D02*
G01Y1602000D01*
X1939500Y1603000*
Y1606516*
X1935000Y1592000D02*
G01X1937000D01*
X1938500Y1593500*
X1937728Y1614500D02*
G01Y1615000D01*
X1938000*
X1938500Y1615500*
X1950260*
X1955260Y1610500*
Y1607677*
X1943000Y1613500D02*
G01X1949000D01*
X1952000Y1610500*
Y1605500*
X1953000Y1604500*
X1962000*
X1962740Y1605240*
Y1607677*
X1932500Y1614500D02*
G01Y1605547D01*
X1933000Y1605047*
X1934272*
X1932500Y1614500D02*
G01Y1615000D01*
X1934500Y1617000*
X1955260*
Y1617323*
X1934272Y1605047D02*
G01X1937728D01*
X1934272Y1607016D02*
G01X1937728D01*
X1934272Y1608984D02*
G01X1937728D01*
X1934272Y1610953D02*
G01X1937728D01*
Y1614500*
Y1608984D02*
G01X1938500D01*
X1939500Y1609984*
Y1612000*
X1941000Y1613500*
X1943000*
X1937728Y1607016D02*
G01X1939000D01*
X1939500Y1606516*
X1962740Y1617323D02*
G01Y1617500D01*
X1973000*
X1974500Y1616000*
Y1605000*
X1771200Y1641200D02*
G01X1771900Y1640500D01*
X1778378*
X1780000Y1638878*
X1785079*
X1766100Y1642200D02*
G01X1766700D01*
X1771300Y1637600*
Y1627400*
X1773800Y1624900*
X1784400*
X1786400Y1626900*
X1795883*
X1797283Y1628300*
Y1632579*
X1766000Y1644500D02*
G01X1769000D01*
X1770500Y1646000*
Y1650031*
X1757900Y1648500D02*
G01X1759661D01*
Y1648500D02*
G01Y1650417D01*
X1762000Y1645500D02*
G01Y1650197D01*
X1762220Y1650417*
X1758500Y1656031D02*
G01Y1654661D01*
Y1654661D02*
G01X1759661Y1653500D01*
Y1653500D02*
G01Y1650417D01*
X1762500Y1656031D02*
G01X1762531Y1656000D01*
X1762720*
X1758100Y1641100D02*
G01X1763900D01*
X1769900Y1635100*
Y1626300*
X1772800Y1623400*
X1785300*
X1787500Y1625600*
X1797452*
X1799252Y1627400*
Y1632579*
X1764779Y1650417D02*
G01Y1645721D01*
Y1645721D02*
G01X1766000Y1644500D01*
X1762220Y1650417D02*
G01Y1655500D01*
Y1655500D02*
G01X1762720Y1656000D01*
X1791500Y1646500D02*
G01X1792000Y1646000D01*
Y1639815*
X1795315Y1636500*
Y1632579*
X1806800Y1622700D02*
G01X1807126Y1623026D01*
Y1632579*
X1801000Y1627500D02*
G01Y1632358D01*
X1801220Y1632579*
X1809000Y1627500D02*
G01X1809900Y1626600D01*
Y1623100*
X1811000Y1622000*
X1817406*
X1820906Y1625500*
Y1632579*
X1811500Y1624000D02*
G01X1812000Y1623500D01*
X1817000*
X1819000Y1625500*
Y1628063*
X1773600Y1642600D02*
G01X1774200Y1642000D01*
X1779346*
X1780500Y1640846*
X1785079*
X1803000Y1625000D02*
G01X1805157Y1627157D01*
Y1632579*
X1803000Y1627500D02*
G01Y1632390D01*
X1803189Y1632579*
X1779000Y1633000D02*
G01Y1636500D01*
X1779500Y1637000*
X1788500*
X1789300Y1637800*
Y1642215*
X1781000Y1647000D02*
G01X1784831D01*
X1785079Y1646752*
X1781000Y1635000D02*
G01X1781500Y1635500D01*
X1789000*
X1790600Y1637100*
Y1643083*
X1780400Y1654626D02*
G01X1785079D01*
X1780421Y1651779D02*
G01X1781300Y1652657D01*
X1785079*
X1807000Y1643500D02*
G01X1809094D01*
Y1632579*
X1778531Y1630000D02*
G01X1778700Y1629831D01*
Y1626500*
X1785079Y1656594D02*
G01X1785084Y1656600D01*
X1790700*
X1785079Y1650689D02*
G01X1787989D01*
X1788000Y1650700*
X1789500*
X1789800Y1651000*
X1790000*
X1785079Y1648720D02*
G01X1789000D01*
X1790000Y1648500*
X1785079Y1644783D02*
G01X1788900D01*
X1790600Y1643083*
X1785079Y1642815D02*
G01X1788700D01*
X1789300Y1642215*
X1811063Y1632579D02*
G01Y1624500D01*
X1811500Y1624000*
X1777969Y1658500D02*
G01X1778031Y1658563D01*
X1780500Y1659000*
X1777969Y1654500D02*
G01X1778094Y1654626D01*
X1780400*
X1777969Y1650500D02*
G01X1779143D01*
X1780421Y1651779*
X1796240Y1621323D02*
G01Y1620000D01*
X1797240Y1619000*
X1797940Y1618300*
X1810300*
X1812000Y1616600*
Y1615500*
X1788760Y1621323D02*
G01Y1622760D01*
X1790500Y1624500*
X1798500*
X1803400Y1619600*
X1814500*
X1817100*
X1823400Y1625900*
X1834301*
X1837300Y1622901*
Y1621398*
X1831500Y1622000D02*
G01Y1623181D01*
X1833453*
X1813000Y1627500D02*
G01Y1627969D01*
X1813031Y1628000*
Y1632579*
X1813000Y1627500D02*
G01Y1626500D01*
X1814000Y1625500*
X1815969*
X1816969Y1626500*
Y1632579*
X1835400Y1657800D02*
G01X1838131Y1660531D01*
X1844921*
X1839500Y1645000D02*
G01X1841252Y1646752D01*
X1844921*
X1836500Y1650500D02*
G01X1838500D01*
X1840657Y1652657*
X1844921*
X1835000Y1654000D02*
G01X1837500D01*
X1840000Y1656500*
X1844827*
X1844921Y1656594*
X1850000Y1649000D02*
G01X1851062Y1647938D01*
X1830000Y1637500D02*
G01X1835500D01*
X1836500Y1636500*
Y1632732*
X1836654Y1632579*
X1831500Y1642000D02*
G01X1833500D01*
X1838622Y1636878*
Y1632579*
X1820500Y1619500D02*
G01X1823630D01*
X1823709Y1619421*
X1823300Y1622900D02*
G01X1823700Y1622500D01*
Y1621398*
X1823709Y1621390*
X1837291Y1619421D02*
G01X1839221D01*
X1843300Y1623500*
X1851100*
X1852900Y1621700*
Y1614621*
X1853821Y1613700*
X1859528*
X1862500Y1610728*
X1864547*
X1837291Y1621390D02*
G01X1837300Y1621398D01*
X1815000Y1632579D02*
G01Y1637000D01*
X1816000Y1638000*
X1817500*
X1822500Y1643000*
Y1652500*
X1831800Y1661800*
X1839900*
X1840600Y1662500*
X1844921*
X1815000Y1632579D02*
G01Y1627500D01*
X1815300*
X1816969Y1632579D02*
G01Y1635969D01*
X1823224Y1642224*
X1823500Y1642500*
Y1646563*
X1833000Y1656063*
X1837500*
X1840000Y1658563*
X1844921*
X1818937Y1632579D02*
G01Y1635937D01*
X1824937Y1641937*
Y1642937*
X1834126Y1652126*
X1838000*
X1840500Y1654626*
X1844921*
X1818937Y1632579D02*
G01X1819000Y1632516D01*
Y1628063*
X1820906Y1632579D02*
G01Y1636000D01*
X1829406Y1644500*
X1834500*
X1839000Y1649000*
X1839311*
X1841000Y1650689*
X1844921*
X1822874Y1632579D02*
G01Y1636000D01*
X1830374Y1643500*
X1835000*
X1839000Y1647500*
X1840280*
X1841500Y1648720*
X1844921*
X1822874Y1632579D02*
G01X1823000Y1632453D01*
Y1627500*
X1824843Y1632579D02*
G01Y1628000D01*
X1825343Y1627500*
X1826000*
X1826811Y1632579D02*
G01Y1636611D01*
X1827800Y1637600*
X1828780Y1632579D02*
G01Y1627700D01*
X1829100*
X1830748Y1632579D02*
G01Y1628352D01*
X1831500Y1627600*
X1832717Y1632579D02*
G01Y1629000D01*
X1835100Y1626617*
X1841000*
X1841300Y1626317*
Y1626300*
X1834685Y1632579D02*
G01Y1629000D01*
X1835500Y1628185*
X1841000*
X1841500Y1628685*
Y1629500*
X1844921Y1640846D02*
G01X1845075Y1641000D01*
X1849000*
X1849500Y1641500*
X1855500*
X1865500Y1631500*
X1867300*
X1867500Y1631300*
X1844921Y1642815D02*
G01X1850100D01*
X1851014Y1643729*
X1851062*
Y1647938*
X1844921Y1644783D02*
G01X1844938Y1644800D01*
X1849500*
X1873701Y1651016D02*
G01X1875984D01*
X1877000Y1651000*
X1860700Y1658898D02*
G01Y1661200D01*
X1863000Y1663500*
X1875500*
X1876900Y1662100*
X1860700Y1658898D02*
G01X1860709Y1658890D01*
X1855500Y1648500D02*
G01Y1649916D01*
X1856600Y1651016*
X1860709*
X1855500Y1655000D02*
G01X1860661D01*
X1860709Y1654953*
X1857500Y1647000D02*
G01X1860630D01*
X1860709Y1647079*
X1873000Y1643500D02*
G01Y1645110D01*
X1874291*
X1857000Y1657000D02*
G01X1860709D01*
Y1656921*
X1879700Y1652700D02*
G01X1879900D01*
Y1655100*
X1879000Y1644400D02*
G01X1880000Y1645400D01*
Y1650200*
X1857900Y1653000D02*
G01X1860693D01*
X1860709Y1652984*
X1858000Y1645000D02*
G01X1858110Y1645110D01*
X1860709*
X1857800Y1649000D02*
G01X1860661D01*
X1860709Y1649047*
X1864547Y1643319D02*
G01X1868100D01*
X1868581Y1643800*
X1868600*
X1874291Y1647079D02*
G01X1874313Y1647100D01*
X1877000*
X1874291Y1649047D02*
G01X1874339Y1649000D01*
X1877900*
X1874291Y1652984D02*
G01X1874307Y1653000D01*
X1877200*
X1880000Y1650200*
X1874291Y1654953D02*
G01X1877000D01*
Y1654600*
X1874291Y1656921D02*
G01X1874370Y1657000D01*
X1878000*
X1879900Y1655100*
X1874291Y1658890D02*
G01X1874302Y1658900D01*
X1877000*
X1917500Y1649969D02*
G01X1921500D01*
X1919469Y1654000D02*
G01X1921000D01*
X1922500Y1655500*
Y1660098*
Y1660098D02*
G01X1922602Y1660200D01*
X1925500Y1646031D02*
G01X1929500D01*
X1925500Y1649969D02*
G01Y1652969D01*
X1925531Y1653000*
X1921500Y1649969D02*
G01X1925500D01*
X1929469Y1653000D02*
G01X1929500Y1652969D01*
Y1649969*
X1929469Y1653000D02*
G01X1929500Y1653031D01*
Y1654220*
X1971600Y1638400D02*
G01X1972300Y1639100D01*
Y1655500*
X1974100Y1657300*
Y1694300*
X1966900Y1641300D02*
G01Y1653200D01*
X1972500Y1658800*
Y1690500*
X1754200Y1664500D02*
G01Y1642300D01*
X1755400Y1641100*
X1758100*
X1754200Y1664500D02*
G01X1757300Y1667600D01*
X1761869*
X1762500Y1666969*
X1757750Y1672050D02*
G01Y1681450D01*
X1758800Y1682500*
X1761800*
X1763700Y1680600*
Y1678000*
X1767500Y1674200*
X1757750Y1672050D02*
G01X1760600Y1669200D01*
X1764500*
X1766500Y1667200*
X1775900*
X1777600Y1665500*
X1779769*
X1780800Y1664469*
X1785079*
X1765600Y1678800D02*
G01X1768200D01*
X1769100Y1677900*
Y1674200*
X1771800Y1671500*
X1778657*
X1779500Y1672343*
X1785079*
X1759500Y1676000D02*
G01Y1674500D01*
X1761700Y1672300*
X1763000*
X1766800Y1668500*
X1777000*
X1778500Y1667000*
X1780437*
X1781000Y1666437*
X1785079*
X1765000Y1682000D02*
G01X1769400D01*
X1770300Y1681100*
Y1675000*
X1772534Y1672766*
X1776734*
X1777969Y1674000*
Y1675500*
X1767000Y1691500D02*
G01X1767740D01*
Y1687677*
X1759800Y1678800D02*
G01X1761300Y1677300D01*
Y1674400*
X1762400Y1673300*
X1763500*
X1767000Y1669800*
X1778000*
X1779394Y1668406*
X1785079*
X1755500Y1696469D02*
G01Y1699600D01*
X1756400Y1700500*
X1764100*
X1767740Y1697323D02*
G01X1768500Y1698083D01*
X1782000*
X1785500Y1701583*
Y1706400*
X1787600Y1708500*
X1790224*
X1792272Y1710547*
X1764000Y1697323D02*
G01Y1700400D01*
X1764100Y1700500*
X1760260Y1697323D02*
G01X1760400Y1697183D01*
Y1693700*
X1760260Y1687677D02*
G01Y1690500D01*
X1761260Y1691500*
X1763500*
X1781800Y1694000D02*
G01Y1690500D01*
X1784300Y1688000*
X1788700*
X1789800Y1686900*
X1781800Y1694000D02*
G01X1782700Y1694900D01*
X1779800Y1678900D02*
G01Y1678917D01*
X1781100Y1680217*
X1785079*
X1791500Y1686200D02*
G01X1792300Y1687000D01*
X1797000*
X1799252Y1689252*
Y1692421*
X1789000Y1690500D02*
G01Y1689600D01*
X1790383Y1688217*
X1796500*
X1797283Y1689000*
Y1692421*
X1789000Y1696000D02*
G01X1790000Y1697000D01*
X1792346*
X1793346Y1696000*
Y1692421*
X1789000Y1693500D02*
G01X1791378D01*
Y1692421*
X1780000Y1670500D02*
G01X1784953D01*
X1785079Y1670374*
X1791700Y1682900D02*
G01X1794100D01*
X1796400Y1685200*
X1797600*
X1798700Y1686300*
X1815469*
X1816969Y1687800*
Y1692421*
X1777300Y1678300D02*
G01X1777969D01*
Y1682000*
X1780300Y1662500D02*
G01Y1661200D01*
X1780969Y1660531*
X1785079*
X1780500Y1659000D02*
G01X1785079Y1658563D01*
X1805500Y1676900D02*
G01X1807300Y1675100D01*
X1825700*
X1828900Y1678300*
Y1684800*
X1830700Y1686600*
X1836322*
X1838622Y1688900*
Y1692421*
X1790237Y1679537D02*
G01X1793300D01*
X1797263Y1683500*
X1804500*
X1806000Y1685000*
X1817106*
X1820906Y1688800*
Y1692421*
X1785079Y1684154D02*
G01X1788900D01*
X1789800Y1685054*
Y1686900*
X1785079Y1678248D02*
G01X1789100D01*
X1789748Y1677600*
X1792848*
X1794100Y1676348*
Y1673800*
X1785079Y1676280D02*
G01X1790520D01*
X1792000Y1674800*
X1785079Y1662500D02*
G01X1790000D01*
X1777969Y1694000D02*
G01X1780569Y1696600D01*
X1783300*
X1783800Y1697100*
X1777969Y1675500D02*
G01X1779157Y1674311D01*
X1785079*
X1777969Y1662500D02*
G01X1780300D01*
X1777969Y1682000D02*
G01X1778154Y1682185D01*
X1785079*
X1837600Y1676200D02*
G01X1839000D01*
X1840889Y1674311*
X1844921*
X1824800Y1686800D02*
G01Y1692378D01*
X1824843Y1692421*
X1822500Y1687500D02*
G01Y1687526D01*
X1822874Y1687900*
Y1692421*
X1834500Y1698000D02*
G01Y1692606D01*
X1834685Y1692421*
X1834500Y1698000D02*
G01X1835500Y1699000D01*
X1842031*
X1843000Y1699969*
X1839100Y1665700D02*
G01Y1665737D01*
X1839800Y1666437*
X1844921*
X1838000Y1681717D02*
G01Y1686500D01*
X1840000Y1688500*
Y1697000*
X1838000Y1681717D02*
G01X1839500Y1680217D01*
X1844921*
X1839900Y1686100D02*
G01X1839922Y1686122D01*
X1844921*
X1831300Y1684700D02*
G01X1831500Y1684469D01*
X1833900Y1682069*
Y1663969*
X1834700Y1663169*
X1838700*
X1840000Y1664469*
X1844921*
X1815000Y1683100D02*
G01X1816600Y1681500D01*
X1819500*
X1821500Y1683500*
X1825900*
X1830300Y1687900*
X1835654*
X1836654Y1688900*
Y1692421*
X1844921Y1668406D02*
G01X1848494D01*
X1849550Y1667350*
Y1663900*
X1852200Y1661250*
Y1646900*
X1864000Y1635100*
X1872600*
X1876700Y1631000*
X1913500*
X1917600Y1626900*
X1939300*
X1954150Y1641750*
X1960450*
X1963800Y1638400*
X1971600*
X1844921Y1670374D02*
G01X1848926D01*
X1849800Y1669500*
X1844921Y1672343D02*
G01X1849757D01*
X1851000Y1671100*
X1844921Y1676280D02*
G01X1850000D01*
X1852700Y1673580*
Y1662800*
X1853600Y1661900*
Y1647200*
X1864500Y1636300*
X1873700*
X1877600Y1632400*
X1914200*
X1918400Y1628200*
X1938800*
X1971000Y1660400*
Y1675800*
X1844921Y1678248D02*
G01X1854500D01*
X1856300Y1680048*
Y1689200*
X1818937Y1692421D02*
G01X1819000Y1696906D01*
X1822000Y1699906*
Y1701469*
X1822031Y1701500*
X1815000Y1692421D02*
G01Y1698031D01*
X1815500Y1698531*
X1855500Y1696031D02*
G01X1852000D01*
X1852100Y1695931*
Y1694200*
X1853400Y1692900*
X1848469Y1692500D02*
G01X1852000Y1696031D01*
X1856000Y1663700D02*
G01X1856700Y1663000D01*
X1860500*
X1862300Y1664800*
X1878100*
X1878900Y1664000*
X1853400Y1692900D02*
G01Y1692100D01*
X1856300Y1689200*
Y1666600D02*
G01Y1674400D01*
X1856600Y1674700*
X1856300Y1666600D02*
G01Y1665900D01*
X1856900Y1665300*
X1860400*
X1861100Y1666000*
X1872000*
X1875000Y1669000*
X1880200*
X1879000Y1698900D02*
G01Y1700417D01*
X1858000Y1667000D02*
G01X1859000D01*
X1861400Y1669400*
X1872600*
X1874200Y1671000*
Y1677110*
X1874291*
X1858000Y1685000D02*
G01X1860693D01*
X1860709Y1684984*
X1858000Y1689000D02*
G01X1860630D01*
X1860709Y1688921*
X1858000Y1681000D02*
G01X1860553D01*
X1860600Y1681047*
X1860709*
X1857900Y1691300D02*
G01Y1690890D01*
X1860709*
X1858000Y1669000D02*
G01X1858900D01*
X1864547Y1674647*
Y1675319*
X1858000Y1687000D02*
G01X1860661D01*
X1860709Y1686953*
X1877000Y1693000D02*
G01X1878000D01*
X1878500Y1692500*
X1857900Y1679000D02*
G01X1857979Y1679079D01*
X1860709*
X1857900Y1683000D02*
G01X1860584D01*
X1860600Y1683016*
X1860709*
X1868500Y1692000D02*
G01X1869200Y1692700D01*
X1870434*
X1870453Y1692681*
X1859500Y1674800D02*
G01Y1677110D01*
X1860709*
X1870453Y1660681D02*
G01X1870534Y1660600D01*
X1878200*
X1878900Y1661300*
Y1664000*
X1874291Y1679079D02*
G01Y1678900D01*
X1877000*
X1874291Y1681047D02*
G01X1876953D01*
X1877000Y1681000*
X1874291Y1683016D02*
G01X1878000D01*
X1878500Y1683516*
Y1692500*
X1874291Y1684984D02*
G01X1874307Y1685000D01*
X1877000*
X1874291Y1686953D02*
G01X1874339Y1687000D01*
X1877000*
X1874291Y1688921D02*
G01X1874370Y1689000D01*
X1877000*
X1874291Y1690890D02*
G01Y1691000D01*
X1877000*
X1855500Y1696031D02*
G01X1857600D01*
X1860400Y1698831*
Y1702700*
X1916500Y1686969D02*
G01X1918031Y1688500D01*
Y1688500D02*
G01X1921602D01*
Y1688500D02*
G01X1922602Y1687500D01*
Y1687500D02*
G01Y1683800D01*
X1916500Y1686969D02*
G01X1917500D01*
Y1686969D02*
G01X1916500Y1685969D01*
X1915500Y1661969D02*
G01X1920043D01*
Y1661969D02*
G01Y1660200D01*
X1925161D02*
G01Y1653000D01*
Y1653000D02*
G01X1925531D01*
X1927720Y1660200D02*
G01Y1656000D01*
Y1656000D02*
G01X1929500Y1654220D01*
X1964300Y1696100D02*
G01Y1696600D01*
X1965700Y1698000*
X1970400*
X1974100Y1694300*
X1964531Y1693500D02*
G01Y1693531D01*
X1967000Y1696000*
X1964531Y1693500D02*
G01Y1692000D01*
Y1682000D02*
G01Y1679500D01*
Y1677000*
X1968469Y1692000D02*
G01X1971000D01*
X1972500Y1690500*
X1968469Y1677000D02*
G01X1969800D01*
X1971000Y1675800*
X1964531Y1671000D02*
G01Y1677000D01*
X1968469Y1671000D02*
G01X1968500Y1670969D01*
Y1668500*
X1964531Y1687000D02*
G01Y1692000D01*
X1937956Y1683800D02*
G01Y1682031D01*
Y1682031D02*
G01X1941000D01*
X1935397Y1660200D02*
G01Y1655000D01*
Y1655000D02*
G01X1938000Y1652397D01*
Y1652397D02*
G01Y1643000D01*
X1939500Y1641500*
X1947500*
X1949500Y1643500*
Y1654000*
X1958500Y1663000*
Y1707000*
X1937956Y1660200D02*
G01Y1657000D01*
Y1657000D02*
G01X1941500Y1653456D01*
Y1653456D02*
G01Y1652846D01*
X1764100Y1700500D02*
G01X1769800D01*
X1771000Y1699300*
X1759969Y1706000D02*
G01Y1709500D01*
X1760000Y1709531*
X1759969Y1706000D02*
G01X1760000Y1705969D01*
Y1702800*
X1760700Y1702100*
X1755500Y1710654D02*
G01X1756031Y1710122D01*
Y1706000*
X1794000Y1712516D02*
G01X1795728D01*
X1794000Y1710000D02*
G01Y1710547D01*
X1795728*
X1794100Y1714500D02*
G01Y1714484D01*
X1795728*
X1803000Y1708500D02*
G01Y1704000D01*
X1804000Y1703000*
X1809200*
X1810700Y1701500*
Y1699000*
X1813031Y1696669*
Y1692421*
X1803000Y1708500D02*
G01X1805000Y1710500D01*
X1806382*
X1806646Y1710764*
X1787800Y1699800D02*
G01X1789100Y1698500D01*
X1793315*
X1795315Y1696500*
Y1692421*
X1794000Y1714700D02*
G01X1794100Y1714600D01*
Y1714500*
X1794000Y1712600D02*
G01Y1712516D01*
X1806646Y1710764D02*
G01X1807000Y1711118D01*
Y1713031*
X1807500Y1713531*
X1811500*
X1812469Y1714500*
Y1716500*
X1777500Y1709469D02*
G01X1778431Y1710400D01*
X1779400*
X1780200Y1711200*
X1773500Y1709469D02*
G01X1777500D01*
X1799079Y1722500D02*
G01X1799200Y1722379D01*
Y1719416*
X1800816Y1717800*
Y1714900*
X1794157Y1722500D02*
G01X1794200Y1722457D01*
Y1719800*
X1795800Y1718200*
X1798372*
X1799272Y1717300*
Y1716453*
Y1710547D02*
G01X1800200D01*
X1803076Y1713424*
Y1715176*
X1808921Y1721021*
Y1722500*
X1799272Y1712516D02*
G01X1800300D01*
X1802000Y1714216*
Y1718000*
X1804000Y1720000*
Y1722500*
X1799272Y1714484D02*
G01X1800400D01*
X1800816Y1714900*
X1792272Y1710547D02*
G01X1794000D01*
X1792272Y1712516D02*
G01X1794000D01*
X1792272Y1714484D02*
G01X1792287Y1714500D01*
X1794100*
X1792272Y1716453D02*
G01X1795728D01*
X1790800Y1717900D02*
G01X1790824D01*
X1792272Y1716453*
X1799500Y1703500D02*
G01X1800000D01*
X1807126Y1696374*
Y1692421*
X1794000Y1703500D02*
G01Y1702000D01*
X1797000Y1699000*
X1802500*
X1805157Y1696343*
Y1692421*
X1788500Y1703500D02*
G01Y1702500D01*
X1791000Y1700000*
X1794000*
X1796500Y1697500*
X1801689*
X1803189Y1696000*
Y1692421*
X1812591Y1706000D02*
G01X1814500D01*
X1815500Y1707000*
Y1712000*
X1816500Y1713000*
X1822031*
X1812591Y1706000D02*
G01X1815500Y1703091D01*
Y1702469*
X1812354Y1706236D02*
G01X1812591Y1706000D01*
X1843000Y1699969D02*
G01X1846500D01*
X1822031Y1705000D02*
G01Y1701500D01*
X1818000Y1709969D02*
G01X1818031Y1710000D01*
X1821031*
X1822031Y1709000*
X1818000Y1706031D02*
G01X1819000Y1705031D01*
Y1705000*
X1822031*
X1846500Y1699969D02*
G01Y1703031D01*
X1860016Y1719500D02*
G01Y1722437D01*
X1860079Y1722500*
X1860016Y1719500D02*
G01X1861516Y1718000D01*
Y1717272*
X1865500Y1709500D02*
G01Y1708760D01*
X1871260Y1703000*
Y1700677*
X1853000Y1709200D02*
G01Y1712016D01*
X1853500Y1712516*
X1854772*
X1853000Y1709200D02*
G01X1854200Y1708000D01*
X1864000*
X1867000Y1705000*
Y1700500*
X1871500Y1716000D02*
G01Y1715500D01*
X1873000Y1714000*
X1877740*
X1878740Y1713000*
Y1710323*
X1856600Y1714484D02*
G01X1856800D01*
X1857700Y1713584*
Y1712600*
X1858400Y1711900*
X1860800*
X1861500Y1712600*
Y1713713*
X1861516Y1713728*
X1865500Y1711500D02*
G01Y1709500D01*
X1867000Y1700500D02*
G01Y1699500D01*
X1869008Y1697492*
X1877592*
X1879000Y1698900*
X1869000Y1715500D02*
G01Y1714500D01*
X1871260Y1712240*
Y1710323*
X1869921Y1722500D02*
G01X1870000Y1722421D01*
Y1718772*
X1855157Y1722500D02*
G01X1855272Y1722386D01*
Y1720800*
X1858800Y1717272*
X1859547*
X1865453D02*
G01X1868500D01*
X1870000Y1718772*
X1863484Y1717272D02*
G01Y1718000D01*
X1865000Y1719516*
Y1722500*
X1859547Y1713728D02*
G01X1859600Y1713781D01*
Y1714600*
X1860500Y1715500*
X1869000*
X1865453Y1713728D02*
G01X1865500Y1713681D01*
Y1711500*
X1854772Y1710547D02*
G01X1855819Y1709500D01*
X1865500*
X1854772Y1712516D02*
G01X1855700D01*
X1857616Y1710600*
X1862400*
X1863400Y1711600*
Y1713644*
X1863484Y1713728*
X1854772Y1714484D02*
G01X1856600D01*
X1854772Y1716453D02*
G01X1854819Y1716500D01*
X1856947*
X1859547Y1713900*
Y1713728*
X1878740Y1700677D02*
G01X1879000Y1700417D01*
X1917527Y1706728D02*
G01X1919000D01*
X1920260Y1705469*
Y1702177*
X1906800Y1715953D02*
G01X1908728D01*
Y1713984D02*
G01X1906700D01*
Y1714300*
X1903000Y1712016D02*
G01Y1717000D01*
X1904000Y1718000*
Y1720000*
X1904772Y1712016D02*
G01X1903000D01*
Y1707500*
X1905000Y1705500*
X1916500*
X1918000Y1704000*
Y1699800*
X1919300Y1698500*
X1925300*
X1927500Y1700700*
Y1701937*
X1927740Y1702177*
X1927000Y1715500D02*
G01X1927740D01*
Y1711823*
X1906800Y1717000D02*
G01Y1715953D01*
X1917500Y1709500D02*
G01X1917527Y1709473D01*
Y1706728*
X1912272Y1710047D02*
G01X1913500D01*
X1918500Y1715047*
X1923000*
X1925953Y1718000*
X1929500*
X1931000Y1719500*
X1912272Y1712016D02*
G01X1913500D01*
X1917984Y1716500*
X1922000*
X1926000Y1720500*
Y1722500*
X1912272Y1713984D02*
G01X1913000D01*
X1917000Y1717984*
X1920000*
X1921000Y1718984*
Y1722421*
X1921079Y1722500*
X1912272Y1715953D02*
G01X1916000Y1719681D01*
Y1722343*
X1916157Y1722500*
X1908728Y1715953D02*
G01X1910000D01*
X1910500Y1715453*
Y1708500*
X1911000Y1708000*
X1913500*
X1917500Y1712000*
X1920083*
X1920260Y1711823*
X1908728Y1710047D02*
G01Y1707500D01*
X1909500Y1706728*
X1917527*
X1904772Y1710047D02*
G01X1908728D01*
X1904772Y1712016D02*
G01X1908728D01*
X1904772Y1713984D02*
G01X1906700D01*
X1904772Y1715953D02*
G01X1906800D01*
X1930921Y1722500D02*
G01X1931000Y1722421D01*
Y1719500*
X1880300Y1683700D02*
G01Y1693276D01*
X1880624Y1693600*
X1892200*
Y1686024*
X1889876Y1683700*
X1880300*
Y1678200D02*
G01Y1673300D01*
X1887624*
X1888300Y1672624*
Y1667200*
X1882124*
X1881800Y1666876*
Y1659624*
X1882624Y1658800*
X1894376*
X1894700Y1659124*
Y1669876*
X1894376Y1670200*
X1890876*
X1890200Y1670876*
Y1678200*
X1880300*
X1880443Y1693419D02*
G01X1892200D01*
X1880300Y1692879D02*
G01X1892200D01*
X1880300Y1692339D02*
G01X1892200D01*
X1880300Y1691799D02*
G01X1892200D01*
X1880300Y1691259D02*
G01X1892200D01*
X1880300Y1690719D02*
G01X1892200D01*
X1880300Y1690179D02*
G01X1892200D01*
X1880300Y1689639D02*
G01X1892200D01*
X1880300Y1689099D02*
G01X1892200D01*
X1880300Y1688559D02*
G01X1892200D01*
X1880300Y1688019D02*
G01X1892200D01*
X1880300Y1687479D02*
G01X1892200D01*
X1880300Y1686939D02*
G01X1892200D01*
X1880300Y1686399D02*
G01X1892200D01*
X1880300Y1685859D02*
G01X1892034D01*
X1880300Y1685319D02*
G01X1891494D01*
X1880300Y1684779D02*
G01X1890954D01*
X1880300Y1684239D02*
G01X1890414D01*
X1888300Y1669599D02*
G01X1894700D01*
X1888300Y1669059D02*
G01X1894700D01*
X1888300Y1668519D02*
G01X1894700D01*
X1888300Y1667979D02*
G01X1894700D01*
X1888300Y1667439D02*
G01X1894700D01*
X1881823Y1666899D02*
G01X1894700D01*
X1881800Y1666359D02*
G01X1894700D01*
X1881800Y1665819D02*
G01X1894700D01*
X1881800Y1665279D02*
G01X1894700D01*
X1881800Y1664739D02*
G01X1894700D01*
X1881800Y1664199D02*
G01X1894700D01*
X1881800Y1663659D02*
G01X1894700D01*
X1881800Y1663119D02*
G01X1894700D01*
X1881800Y1662579D02*
G01X1894700D01*
X1881800Y1662039D02*
G01X1894700D01*
X1881800Y1661499D02*
G01X1894700D01*
X1881800Y1660959D02*
G01X1894700D01*
X1881800Y1660419D02*
G01X1894700D01*
X1881800Y1659879D02*
G01X1894700D01*
X1882086Y1659339D02*
G01X1894700D01*
X1888300Y1670139D02*
G01X1894437D01*
X1888300Y1670679D02*
G01X1890397D01*
X1880300Y1677699D02*
G01X1890200D01*
X1880300Y1677159D02*
G01X1890200D01*
X1880300Y1676619D02*
G01X1890200D01*
X1880300Y1676079D02*
G01X1890200D01*
X1880300Y1675539D02*
G01X1890200D01*
X1880300Y1674999D02*
G01X1890200D01*
X1880300Y1674459D02*
G01X1890200D01*
X1880300Y1673919D02*
G01X1890200D01*
X1880300Y1673379D02*
G01X1890200D01*
X1888086Y1672839D02*
G01X1890200D01*
X1888300Y1672299D02*
G01X1890200D01*
X1888300Y1671759D02*
G01X1890200D01*
X1888300Y1671219D02*
G01X1890200D01*
X1925400Y1682105D02*
G01Y1689173D01*
Y1689173D02*
G75*
G03X1925398Y1689177I-5D01*
Y1689177D02*
G01X1923377Y1691198D01*
Y1691198D02*
G03X1923373Y1691200I-4J-3D01*
Y1691200D02*
G01X1911376D01*
X1908700Y1693876*
Y1700373*
Y1700373D02*
G03X1908698Y1700377I-5D01*
Y1700377D02*
G01X1907377Y1701698D01*
Y1701698D02*
G03X1907373Y1701700I-4J-3D01*
Y1701700D02*
G01X1893627D01*
Y1701700D02*
G03X1893623Y1701698J-5D01*
Y1701698D02*
G01X1888302Y1696377D01*
Y1696377D02*
G03X1888300Y1696373I3J-4D01*
Y1696373D02*
G01Y1692343D01*
Y1692343D02*
G03X1888305Y1692337I5J-1D01*
Y1692337D02*
G01X1892662D01*
Y1692337D02*
G01X1894123Y1690877D01*
Y1690877D02*
G03X1894126Y1690876I3J3D01*
Y1690875D02*
G01X1906199D01*
X1910123Y1686952*
Y1686952D02*
G03X1910127Y1686950I4J3D01*
Y1686950D02*
G01X1912723D01*
Y1686950D02*
G03X1912727Y1686952J5D01*
Y1686952D02*
G01X1914276Y1688500D01*
X1915373*
Y1688500D02*
G03X1915377Y1688502J5D01*
Y1688502D02*
G01X1916876Y1690000D01*
X1922924*
X1924800Y1688124*
Y1682105*
Y1682105D02*
G03X1924805Y1682100I5D01*
Y1682100D02*
G01X1925395D01*
Y1682100D02*
G03X1925400Y1682105J5D01*
X1914700Y1666127D02*
G01Y1678873D01*
Y1678873D02*
G03X1914698Y1678877I-5D01*
Y1678877D02*
G01X1913877Y1679698D01*
Y1679698D02*
G03X1913873Y1679700I-4J-3D01*
Y1679700D02*
G01X1911127D01*
Y1679700D02*
G03X1911123Y1679698J-5D01*
Y1679698D02*
G01X1906624Y1675200D01*
X1892805*
Y1675200D02*
G03X1892800Y1675195J-5D01*
Y1675195D02*
G01Y1672805D01*
Y1672805D02*
G03X1892805Y1672800I5D01*
Y1672800D02*
G01X1898124D01*
X1899800Y1671124*
Y1657876*
X1898124Y1656200*
X1897805*
Y1656200D02*
G03X1897800Y1656195J-5D01*
Y1656195D02*
G01Y1653127D01*
Y1653127D02*
G03X1897802Y1653123I5D01*
Y1653123D02*
G01X1898623Y1652302D01*
Y1652302D02*
G03X1898627Y1652300I4J3D01*
Y1652300D02*
G01X1906873D01*
Y1652300D02*
G03X1906877Y1652302J5D01*
Y1652302D02*
G01X1912698Y1658123D01*
Y1658123D02*
G03X1912700Y1658127I-3J4D01*
Y1658127D02*
G01Y1664124D01*
X1914698Y1666123*
Y1666123D02*
G03X1914700Y1666127I-3J4D01*
X1904700Y1645305D02*
G01Y1650195D01*
Y1650195D02*
G03X1904695Y1650200I-5D01*
Y1650200D02*
G01X1889376D01*
X1887200Y1652376*
Y1662873*
Y1662873D02*
G03X1887198Y1662877I-5D01*
Y1662877D02*
G01X1886700Y1663376D01*
Y1666695*
Y1666695D02*
G03X1886695Y1666700I-5D01*
Y1666700D02*
G01X1882127D01*
Y1666700D02*
G03X1882123Y1666698J-5D01*
Y1666698D02*
G01X1881802Y1666377D01*
Y1666377D02*
G03X1881800Y1666373I3J-4D01*
Y1666373D02*
G01Y1645305D01*
Y1645305D02*
G03X1881805Y1645300I5D01*
Y1645300D02*
G01X1904695D01*
Y1645300D02*
G03X1904700Y1645305J5D01*
X1933300Y1638628D02*
G01Y1662595D01*
Y1662595D02*
G03X1933295Y1662600I-5D01*
Y1662600D02*
G01X1932505D01*
Y1662600D02*
G03X1932500Y1662595J-5D01*
Y1662595D02*
G01Y1643576D01*
X1930124Y1641200*
X1906376*
X1904877Y1642698*
Y1642698D02*
G03X1904873Y1642700I-4J-3D01*
Y1642700D02*
G01X1881668D01*
Y1642700D02*
G03X1881662Y1642695I-1J-5D01*
Y1642695D02*
G01Y1635264D01*
Y1635264D02*
G03X1881664Y1635260I6D01*
Y1635260D02*
G01X1882623Y1634302D01*
Y1634302D02*
G03X1882627Y1634300I4J3D01*
Y1634300D02*
G01X1928875D01*
Y1634300D02*
G03X1928879Y1634302J5D01*
Y1634302D02*
G01X1933298Y1638625D01*
Y1638625D02*
G03X1933299Y1638628I-3J3D01*
X1928200Y1681605D02*
G01Y1690873D01*
Y1690873D02*
G03X1928198Y1690877I-5D01*
Y1690877D02*
G01X1926716Y1692360D01*
X1926714Y1692361*
X1926361Y1692714D02*
G03X1926714Y1692361I639J286D01*
X1926361Y1692714D02*
G01X1926360Y1692716D01*
X1923477Y1695598*
Y1695598D02*
G03X1923473Y1695600I-4J-3D01*
Y1695600D02*
G01X1917585D01*
X1915787Y1697498*
Y1697498D02*
G03X1915783Y1697500I-4J-3D01*
Y1697500D02*
G01X1914505D01*
Y1697500D02*
G03X1914500Y1697495J-5D01*
Y1697495D02*
G01Y1692605D01*
Y1692605D02*
G03X1914505Y1692600I5D01*
Y1692600D02*
G01X1923924D01*
X1927300Y1689224*
Y1681605*
Y1681605D02*
G03X1927305Y1681600I5D01*
Y1681600D02*
G01X1928195D01*
Y1681600D02*
G03X1928200Y1681605J5D01*
X1891700Y1622805D02*
G01Y1629195D01*
Y1629195D02*
G03X1891695Y1629200I-5D01*
Y1629200D02*
G01X1878627D01*
Y1629200D02*
G03X1878623Y1629198J-5D01*
Y1629198D02*
G01X1878302Y1628877D01*
Y1628877D02*
G03X1878300Y1628873I3J-4D01*
Y1628873D02*
G01Y1623627D01*
Y1623627D02*
G03X1878302Y1623623I5D01*
Y1623623D02*
G01X1879123Y1622802D01*
Y1622802D02*
G03X1879127Y1622800I4J3D01*
Y1622800D02*
G01X1891695D01*
Y1622800D02*
G03X1891700Y1622805J5D01*
X1953100Y1677505D02*
G01Y1692673D01*
Y1692673D02*
G03X1953098Y1692677I-5D01*
Y1692677D02*
G01X1952177Y1693598D01*
Y1693598D02*
G03X1952173Y1693600I-4J-3D01*
Y1693600D02*
G01X1932027D01*
Y1693600D02*
G03X1932023Y1693598J-5D01*
Y1693598D02*
G01X1929802Y1691377D01*
Y1691377D02*
G03X1929800Y1691373I3J-4D01*
Y1691373D02*
G01Y1681305D01*
Y1681305D02*
G03X1929805Y1681300I5D01*
Y1681300D02*
G01X1930695D01*
Y1681300D02*
G03X1930700Y1681305J5D01*
Y1681305D02*
G01Y1689424D01*
X1932576Y1691300*
X1945624*
X1946800Y1690124*
Y1677505*
Y1677505D02*
G03X1946805Y1677500I5D01*
Y1677500D02*
G01X1953095D01*
Y1677500D02*
G03X1953100Y1677505J5D01*
X1953200Y1661805D02*
G01Y1670195D01*
Y1670195D02*
G03X1953195Y1670200I-5D01*
Y1670200D02*
G01X1946376D01*
X1945200Y1671376*
Y1685373*
Y1685373D02*
G03X1945198Y1685377I-5D01*
Y1685377D02*
G01X1940877Y1689698D01*
Y1689698D02*
G03X1940873Y1689700I-4J-3D01*
Y1689700D02*
G01X1934127D01*
Y1689700D02*
G03X1934123Y1689698J-5D01*
Y1689698D02*
G01X1932802Y1688377D01*
Y1688377D02*
G03X1932800Y1688373I3J-4D01*
Y1688373D02*
G01Y1688305D01*
Y1688305D02*
G03X1932805Y1688300I5D01*
Y1688300D02*
G01X1939624D01*
X1940300Y1687624*
Y1685305*
Y1685305D02*
G03X1940305Y1685300I5D01*
Y1685300D02*
G01X1942624D01*
X1943800Y1684124*
Y1679876*
X1943302Y1679377*
Y1679377D02*
G03X1943300Y1679373I3J-4D01*
Y1679373D02*
G01Y1662627D01*
Y1662627D02*
G03X1943302Y1662623I5D01*
Y1662623D02*
G01X1944123Y1661802D01*
Y1661802D02*
G03X1944127Y1661800I4J3D01*
Y1661800D02*
G01X1953195D01*
Y1661800D02*
G03X1953200Y1661805J5D01*
X1889700Y1666305D02*
G01Y1678195D01*
Y1678195D02*
G03X1889695Y1678200I-5D01*
Y1678200D02*
G01X1880305D01*
Y1678200D02*
G03X1880300Y1678195J-5D01*
Y1678195D02*
G01Y1672805D01*
Y1672805D02*
G03X1880305Y1672800I5D01*
Y1672800D02*
G01X1888300D01*
Y1666305*
Y1666305D02*
G03X1888305Y1666300I5D01*
Y1666300D02*
G01X1889695D01*
Y1666300D02*
G03X1889700Y1666305J5D01*
X1928200Y1615305D02*
G01Y1624195D01*
Y1624195D02*
G03X1928195Y1624200I-5D01*
Y1624200D02*
G01X1915376D01*
X1910377Y1629198*
Y1629198D02*
G03X1910373Y1629200I-4J-3D01*
Y1629200D02*
G01X1898305D01*
Y1629200D02*
G03X1898300Y1629195J-5D01*
Y1629195D02*
G01Y1620127D01*
Y1620127D02*
G03X1898302Y1620123I5D01*
Y1620123D02*
G01X1899123Y1619302D01*
Y1619302D02*
G03X1899127Y1619300I4J3D01*
Y1619300D02*
G01X1900624D01*
X1903623Y1616302*
Y1616302D02*
G03X1903627Y1616300I4J3D01*
Y1616300D02*
G01X1920624D01*
X1921623Y1615302*
Y1615302D02*
G03X1921627Y1615300I4J3D01*
Y1615300D02*
G01X1928195D01*
Y1615300D02*
G03X1928200Y1615305J5D01*
X1923806Y1689119D02*
G01X1925400D01*
X1924346Y1688579D02*
G01X1925400D01*
X1924800Y1688039D02*
G01X1925400D01*
X1924800Y1687499D02*
G01X1925400D01*
X1924800Y1686959D02*
G01X1925400D01*
X1924800Y1686419D02*
G01X1925400D01*
X1924800Y1685879D02*
G01X1925400D01*
X1924800Y1685339D02*
G01X1925400D01*
X1924800Y1684799D02*
G01X1925400D01*
X1924800Y1684259D02*
G01X1925400D01*
X1924800Y1683719D02*
G01X1925400D01*
X1924800Y1683179D02*
G01X1925400D01*
X1924800Y1682639D02*
G01X1925400D01*
X1923266Y1689659D02*
G01X1924917D01*
X1906876Y1690199D02*
G01X1924377D01*
X1906336Y1690739D02*
G01X1923837D01*
X1907416Y1689659D02*
G01X1916534D01*
X1907956Y1689119D02*
G01X1915994D01*
X1908496Y1688579D02*
G01X1915454D01*
X1909036Y1688039D02*
G01X1913814D01*
X1909576Y1687499D02*
G01X1913274D01*
X1910116Y1686959D02*
G01X1912734D01*
X1893721Y1691279D02*
G01X1911297D01*
X1893181Y1691819D02*
G01X1910757D01*
X1888300Y1692359D02*
G01X1910217D01*
X1888300Y1692899D02*
G01X1909677D01*
X1888300Y1693439D02*
G01X1909137D01*
X1891843Y1699919D02*
G01X1908700D01*
X1891303Y1699379D02*
G01X1908700D01*
X1890763Y1698839D02*
G01X1908700D01*
X1890223Y1698299D02*
G01X1908700D01*
X1889683Y1697759D02*
G01X1908700D01*
X1889143Y1697219D02*
G01X1908700D01*
X1888603Y1696679D02*
G01X1908700D01*
X1888300Y1696139D02*
G01X1908700D01*
X1888300Y1695599D02*
G01X1908700D01*
X1888300Y1695059D02*
G01X1908700D01*
X1888300Y1694519D02*
G01X1908700D01*
X1888300Y1693979D02*
G01X1908700D01*
X1892383Y1700459D02*
G01X1908617D01*
X1892923Y1700999D02*
G01X1908077D01*
X1893463Y1701539D02*
G01X1907537D01*
X1910183Y1678759D02*
G01X1914700D01*
X1909643Y1678219D02*
G01X1914700D01*
X1909103Y1677679D02*
G01X1914700D01*
X1908563Y1677139D02*
G01X1914700D01*
X1908023Y1676599D02*
G01X1914700D01*
X1907483Y1676059D02*
G01X1914700D01*
X1906943Y1675519D02*
G01X1914700D01*
X1892800Y1674979D02*
G01X1914700D01*
X1892800Y1674439D02*
G01X1914700D01*
X1892800Y1673899D02*
G01X1914700D01*
X1892800Y1673359D02*
G01X1914700D01*
X1892800Y1672819D02*
G01X1914700D01*
X1898646Y1672279D02*
G01X1914700D01*
X1899186Y1671739D02*
G01X1914700D01*
X1899726Y1671199D02*
G01X1914700D01*
X1899800Y1670659D02*
G01X1914700D01*
X1899800Y1670119D02*
G01X1914700D01*
X1899800Y1669579D02*
G01X1914700D01*
X1899800Y1669039D02*
G01X1914700D01*
X1899800Y1668499D02*
G01X1914700D01*
X1899800Y1667959D02*
G01X1914700D01*
X1899800Y1667419D02*
G01X1914700D01*
X1899800Y1666879D02*
G01X1914700D01*
X1899800Y1666339D02*
G01X1914700D01*
X1899800Y1665799D02*
G01X1914374D01*
X1910723Y1679299D02*
G01X1914277D01*
X1899800Y1665259D02*
G01X1913834D01*
X1899800Y1664719D02*
G01X1913294D01*
X1899800Y1664179D02*
G01X1912754D01*
X1899800Y1663639D02*
G01X1912700D01*
X1899800Y1663099D02*
G01X1912700D01*
X1899800Y1662559D02*
G01X1912700D01*
X1899800Y1662019D02*
G01X1912700D01*
X1899800Y1661479D02*
G01X1912700D01*
X1899800Y1660939D02*
G01X1912700D01*
X1899800Y1660399D02*
G01X1912700D01*
X1899800Y1659859D02*
G01X1912700D01*
X1899800Y1659319D02*
G01X1912700D01*
X1899800Y1658779D02*
G01X1912700D01*
X1899800Y1658239D02*
G01X1912700D01*
X1899623Y1657699D02*
G01X1912274D01*
X1899083Y1657159D02*
G01X1911734D01*
X1898543Y1656619D02*
G01X1911194D01*
X1897800Y1656079D02*
G01X1910654D01*
X1897800Y1655539D02*
G01X1910114D01*
X1897800Y1654999D02*
G01X1909574D01*
X1897800Y1654459D02*
G01X1909034D01*
X1897800Y1653919D02*
G01X1908494D01*
X1897800Y1653379D02*
G01X1907954D01*
X1898086Y1652839D02*
G01X1907414D01*
X1881800Y1650159D02*
G01X1904700D01*
X1881800Y1649619D02*
G01X1904700D01*
X1881800Y1649079D02*
G01X1904700D01*
X1881800Y1648539D02*
G01X1904700D01*
X1881800Y1647999D02*
G01X1904700D01*
X1881800Y1647459D02*
G01X1904700D01*
X1881800Y1646919D02*
G01X1904700D01*
X1881800Y1646379D02*
G01X1904700D01*
X1881800Y1645839D02*
G01X1904700D01*
X1881800Y1650699D02*
G01X1888877D01*
X1881800Y1651239D02*
G01X1888337D01*
X1881800Y1651779D02*
G01X1887797D01*
X1881800Y1652319D02*
G01X1887257D01*
X1881800Y1662579D02*
G01X1887200D01*
X1881800Y1662039D02*
G01X1887200D01*
X1881800Y1661499D02*
G01X1887200D01*
X1881800Y1660959D02*
G01X1887200D01*
X1881800Y1660419D02*
G01X1887200D01*
X1881800Y1659879D02*
G01X1887200D01*
X1881800Y1659339D02*
G01X1887200D01*
X1881800Y1658799D02*
G01X1887200D01*
X1881800Y1658259D02*
G01X1887200D01*
X1881800Y1657719D02*
G01X1887200D01*
X1881800Y1657179D02*
G01X1887200D01*
X1881800Y1656639D02*
G01X1887200D01*
X1881800Y1656099D02*
G01X1887200D01*
X1881800Y1655559D02*
G01X1887200D01*
X1881800Y1655019D02*
G01X1887200D01*
X1881800Y1654479D02*
G01X1887200D01*
X1881800Y1653939D02*
G01X1887200D01*
X1881800Y1653399D02*
G01X1887200D01*
X1881800Y1652859D02*
G01X1887200D01*
X1881800Y1663119D02*
G01X1886957D01*
X1881800Y1666359D02*
G01X1886700D01*
X1881800Y1665819D02*
G01X1886700D01*
X1881800Y1665279D02*
G01X1886700D01*
X1881800Y1664739D02*
G01X1886700D01*
X1881800Y1664199D02*
G01X1886700D01*
X1881800Y1663659D02*
G01X1886700D01*
X1932500Y1662379D02*
G01X1933300D01*
X1932500Y1661839D02*
G01X1933300D01*
X1932500Y1661299D02*
G01X1933300D01*
X1932500Y1660759D02*
G01X1933300D01*
X1932500Y1660219D02*
G01X1933300D01*
X1932500Y1659679D02*
G01X1933300D01*
X1932500Y1659139D02*
G01X1933300D01*
X1932500Y1658599D02*
G01X1933300D01*
X1932500Y1658059D02*
G01X1933300D01*
X1932500Y1657519D02*
G01X1933300D01*
X1932500Y1656979D02*
G01X1933300D01*
X1932500Y1656439D02*
G01X1933300D01*
X1932500Y1655899D02*
G01X1933300D01*
X1932500Y1655359D02*
G01X1933300D01*
X1932500Y1654819D02*
G01X1933300D01*
X1932500Y1654279D02*
G01X1933300D01*
X1932500Y1653739D02*
G01X1933300D01*
X1932500Y1653199D02*
G01X1933300D01*
X1932500Y1652659D02*
G01X1933300D01*
X1932500Y1652119D02*
G01X1933300D01*
X1932500Y1651579D02*
G01X1933300D01*
X1932500Y1651039D02*
G01X1933300D01*
X1932500Y1650499D02*
G01X1933300D01*
X1932500Y1649959D02*
G01X1933300D01*
X1932500Y1649419D02*
G01X1933300D01*
X1932500Y1648879D02*
G01X1933300D01*
X1932500Y1648339D02*
G01X1933300D01*
X1932500Y1647799D02*
G01X1933300D01*
X1932500Y1647259D02*
G01X1933300D01*
X1932500Y1646719D02*
G01X1933300D01*
X1932500Y1646179D02*
G01X1933300D01*
X1932500Y1645639D02*
G01X1933300D01*
X1932500Y1645099D02*
G01X1933300D01*
X1932500Y1644559D02*
G01X1933300D01*
X1932500Y1644019D02*
G01X1933300D01*
X1932403Y1643479D02*
G01X1933300D01*
X1931863Y1642939D02*
G01X1933300D01*
X1931323Y1642399D02*
G01X1933300D01*
X1930783Y1641859D02*
G01X1933300D01*
X1930243Y1641319D02*
G01X1933300D01*
X1881662Y1640779D02*
G01X1933300D01*
X1881662Y1640239D02*
G01X1933300D01*
X1881662Y1639699D02*
G01X1933300D01*
X1881662Y1639159D02*
G01X1933300D01*
X1881662Y1638619D02*
G01X1933292D01*
X1881662Y1638079D02*
G01X1932740D01*
X1881662Y1637539D02*
G01X1932188D01*
X1881662Y1636999D02*
G01X1931636D01*
X1881662Y1636459D02*
G01X1931084D01*
X1881662Y1635919D02*
G01X1930532D01*
X1881662Y1635379D02*
G01X1929980D01*
X1882086Y1634839D02*
G01X1929428D01*
X1881662Y1641319D02*
G01X1906257D01*
X1881662Y1641859D02*
G01X1905717D01*
X1881662Y1642399D02*
G01X1905177D01*
X1925746Y1690779D02*
G01X1928200D01*
X1926286Y1690239D02*
G01X1928200D01*
X1926826Y1689699D02*
G01X1928200D01*
X1927300Y1689159D02*
G01X1928200D01*
X1927300Y1688619D02*
G01X1928200D01*
X1927300Y1688079D02*
G01X1928200D01*
X1927300Y1687539D02*
G01X1928200D01*
X1927300Y1686999D02*
G01X1928200D01*
X1927300Y1686459D02*
G01X1928200D01*
X1927300Y1685919D02*
G01X1928200D01*
X1927300Y1685379D02*
G01X1928200D01*
X1927300Y1684839D02*
G01X1928200D01*
X1927300Y1684299D02*
G01X1928200D01*
X1927300Y1683759D02*
G01X1928200D01*
X1927300Y1683219D02*
G01X1928200D01*
X1927300Y1682679D02*
G01X1928200D01*
X1927300Y1682139D02*
G01X1928200D01*
X1925206Y1691319D02*
G01X1927757D01*
X1924666Y1691859D02*
G01X1927217D01*
X1924126Y1692399D02*
G01X1926642D01*
X1914500Y1692939D02*
G01X1926137D01*
X1914500Y1693479D02*
G01X1925597D01*
X1914500Y1694019D02*
G01X1925057D01*
X1914500Y1694559D02*
G01X1924517D01*
X1914500Y1695099D02*
G01X1923977D01*
X1914500Y1695639D02*
G01X1917548D01*
X1914500Y1696179D02*
G01X1917037D01*
X1914500Y1696719D02*
G01X1916525D01*
X1914500Y1697259D02*
G01X1916014D01*
X1878300Y1628739D02*
G01X1891700D01*
X1878300Y1628199D02*
G01X1891700D01*
X1878300Y1627659D02*
G01X1891700D01*
X1878300Y1627119D02*
G01X1891700D01*
X1878300Y1626579D02*
G01X1891700D01*
X1878300Y1626039D02*
G01X1891700D01*
X1878300Y1625499D02*
G01X1891700D01*
X1878300Y1624959D02*
G01X1891700D01*
X1878300Y1624419D02*
G01X1891700D01*
X1878300Y1623879D02*
G01X1891700D01*
X1878586Y1623339D02*
G01X1891700D01*
X1931043Y1692619D02*
G01X1953100D01*
X1930503Y1692079D02*
G01X1953100D01*
X1929963Y1691539D02*
G01X1953100D01*
X1945926Y1690999D02*
G01X1953100D01*
X1946466Y1690459D02*
G01X1953100D01*
X1946800Y1689919D02*
G01X1953100D01*
X1946800Y1689379D02*
G01X1953100D01*
X1946800Y1688839D02*
G01X1953100D01*
X1946800Y1688299D02*
G01X1953100D01*
X1946800Y1687759D02*
G01X1953100D01*
X1946800Y1687219D02*
G01X1953100D01*
X1946800Y1686679D02*
G01X1953100D01*
X1946800Y1686139D02*
G01X1953100D01*
X1946800Y1685599D02*
G01X1953100D01*
X1946800Y1685059D02*
G01X1953100D01*
X1946800Y1684519D02*
G01X1953100D01*
X1946800Y1683979D02*
G01X1953100D01*
X1946800Y1683439D02*
G01X1953100D01*
X1946800Y1682899D02*
G01X1953100D01*
X1946800Y1682359D02*
G01X1953100D01*
X1946800Y1681819D02*
G01X1953100D01*
X1946800Y1681279D02*
G01X1953100D01*
X1946800Y1680739D02*
G01X1953100D01*
X1946800Y1680199D02*
G01X1953100D01*
X1946800Y1679659D02*
G01X1953100D01*
X1946800Y1679119D02*
G01X1953100D01*
X1946800Y1678579D02*
G01X1953100D01*
X1946800Y1678039D02*
G01X1953100D01*
X1931583Y1693159D02*
G01X1952617D01*
X1929800Y1690999D02*
G01X1932274D01*
X1929800Y1690459D02*
G01X1931734D01*
X1929800Y1689919D02*
G01X1931194D01*
X1929800Y1689379D02*
G01X1930700D01*
X1929800Y1688839D02*
G01X1930700D01*
X1929800Y1688299D02*
G01X1930700D01*
X1929800Y1687759D02*
G01X1930700D01*
X1929800Y1687219D02*
G01X1930700D01*
X1929800Y1686679D02*
G01X1930700D01*
X1929800Y1686139D02*
G01X1930700D01*
X1929800Y1685599D02*
G01X1930700D01*
X1929800Y1685059D02*
G01X1930700D01*
X1929800Y1684519D02*
G01X1930700D01*
X1929800Y1683979D02*
G01X1930700D01*
X1929800Y1683439D02*
G01X1930700D01*
X1929800Y1682899D02*
G01X1930700D01*
X1929800Y1682359D02*
G01X1930700D01*
X1929800Y1681819D02*
G01X1930700D01*
X1943300Y1669899D02*
G01X1953200D01*
X1943300Y1669359D02*
G01X1953200D01*
X1943300Y1668819D02*
G01X1953200D01*
X1943300Y1668279D02*
G01X1953200D01*
X1943300Y1667739D02*
G01X1953200D01*
X1943300Y1667199D02*
G01X1953200D01*
X1943300Y1666659D02*
G01X1953200D01*
X1943300Y1666119D02*
G01X1953200D01*
X1943300Y1665579D02*
G01X1953200D01*
X1943300Y1665039D02*
G01X1953200D01*
X1943300Y1664499D02*
G01X1953200D01*
X1943300Y1663959D02*
G01X1953200D01*
X1943300Y1663419D02*
G01X1953200D01*
X1943300Y1662879D02*
G01X1953200D01*
X1943586Y1662339D02*
G01X1953200D01*
X1943300Y1670439D02*
G01X1946137D01*
X1943300Y1670979D02*
G01X1945597D01*
X1942906Y1685019D02*
G01X1945200D01*
X1943446Y1684479D02*
G01X1945200D01*
X1943800Y1683939D02*
G01X1945200D01*
X1943800Y1683399D02*
G01X1945200D01*
X1943800Y1682859D02*
G01X1945200D01*
X1943800Y1682319D02*
G01X1945200D01*
X1943800Y1681779D02*
G01X1945200D01*
X1943800Y1681239D02*
G01X1945200D01*
X1943800Y1680699D02*
G01X1945200D01*
X1943800Y1680159D02*
G01X1945200D01*
X1943543Y1679619D02*
G01X1945200D01*
X1943300Y1679079D02*
G01X1945200D01*
X1943300Y1678539D02*
G01X1945200D01*
X1943300Y1677999D02*
G01X1945200D01*
X1943300Y1677459D02*
G01X1945200D01*
X1943300Y1676919D02*
G01X1945200D01*
X1943300Y1676379D02*
G01X1945200D01*
X1943300Y1675839D02*
G01X1945200D01*
X1943300Y1675299D02*
G01X1945200D01*
X1943300Y1674759D02*
G01X1945200D01*
X1943300Y1674219D02*
G01X1945200D01*
X1943300Y1673679D02*
G01X1945200D01*
X1943300Y1673139D02*
G01X1945200D01*
X1943300Y1672599D02*
G01X1945200D01*
X1943300Y1672059D02*
G01X1945200D01*
X1943300Y1671519D02*
G01X1945200D01*
X1940300Y1685559D02*
G01X1945017D01*
X1940300Y1686099D02*
G01X1944477D01*
X1940300Y1686639D02*
G01X1943937D01*
X1940300Y1687179D02*
G01X1943397D01*
X1940206Y1687719D02*
G01X1942857D01*
X1939666Y1688259D02*
G01X1942317D01*
X1933223Y1688799D02*
G01X1941777D01*
X1933763Y1689339D02*
G01X1941237D01*
X1880300Y1678179D02*
G01X1889700D01*
X1880300Y1677639D02*
G01X1889700D01*
X1880300Y1677099D02*
G01X1889700D01*
X1880300Y1676559D02*
G01X1889700D01*
X1880300Y1676019D02*
G01X1889700D01*
X1880300Y1675479D02*
G01X1889700D01*
X1880300Y1674939D02*
G01X1889700D01*
X1880300Y1674399D02*
G01X1889700D01*
X1880300Y1673859D02*
G01X1889700D01*
X1880300Y1673319D02*
G01X1889700D01*
X1888300Y1672779D02*
G01X1889700D01*
X1888300Y1672239D02*
G01X1889700D01*
X1888300Y1671699D02*
G01X1889700D01*
X1888300Y1671159D02*
G01X1889700D01*
X1888300Y1670619D02*
G01X1889700D01*
X1888300Y1670079D02*
G01X1889700D01*
X1888300Y1669539D02*
G01X1889700D01*
X1888300Y1668999D02*
G01X1889700D01*
X1888300Y1668459D02*
G01X1889700D01*
X1888300Y1667919D02*
G01X1889700D01*
X1888300Y1667379D02*
G01X1889700D01*
X1888300Y1666839D02*
G01X1889700D01*
X1898300Y1623939D02*
G01X1928200D01*
X1898300Y1623399D02*
G01X1928200D01*
X1898300Y1622859D02*
G01X1928200D01*
X1898300Y1622319D02*
G01X1928200D01*
X1898300Y1621779D02*
G01X1928200D01*
X1898300Y1621239D02*
G01X1928200D01*
X1898300Y1620699D02*
G01X1928200D01*
X1898300Y1620159D02*
G01X1928200D01*
X1898806Y1619619D02*
G01X1928200D01*
X1900846Y1619079D02*
G01X1928200D01*
X1901386Y1618539D02*
G01X1928200D01*
X1901926Y1617999D02*
G01X1928200D01*
X1902466Y1617459D02*
G01X1928200D01*
X1903006Y1616919D02*
G01X1928200D01*
X1903546Y1616379D02*
G01X1928200D01*
X1921086Y1615839D02*
G01X1928200D01*
X1898300Y1624479D02*
G01X1915097D01*
X1898300Y1625019D02*
G01X1914557D01*
X1898300Y1625559D02*
G01X1914017D01*
X1898300Y1626099D02*
G01X1913477D01*
X1898300Y1626639D02*
G01X1912937D01*
X1898300Y1627179D02*
G01X1912397D01*
X1898300Y1627719D02*
G01X1911857D01*
X1898300Y1628259D02*
G01X1911317D01*
X1898300Y1628799D02*
G01X1910777D01*
G54D12*
X1770000Y1614000D02*
G01X1771240Y1612760D01*
Y1610177*
X1758000Y1609031D02*
G01X1763760D01*
Y1610177*
Y1613260*
X1764000Y1613500*
X1771240Y1610177D02*
G01Y1609031D01*
X1776000*
X1758000Y1620969D02*
G01X1763760D01*
Y1619823*
X1771240D02*
G01Y1620969D01*
X1776000*
X1763760Y1619823D02*
G01X1764000Y1619583D01*
Y1616500*
X1796000Y1643500D02*
G01X1798700D01*
X1805900Y1650700*
X1815500*
X1816800Y1652000*
Y1655600*
X1820800Y1659600*
Y1661700*
X1823400Y1664300*
X1824500*
X1801000Y1643500D02*
G01Y1644000D01*
X1806500Y1649500*
X1816000*
X1818000Y1651500*
Y1655000*
X1822000Y1659000*
Y1661200*
X1823500Y1662700*
X1826100*
X1827700Y1664300*
X1776000Y1620969D02*
G01X1776031Y1620500D01*
X1778500*
X1820500Y1643500D02*
G01Y1653000D01*
X1827600Y1660100*
Y1661100*
X1812500Y1643000D02*
G01X1814000D01*
X1819300Y1648300*
Y1653600*
X1824500Y1658800*
Y1661100*
X1955500Y1637500D02*
G01X1956469D01*
X1958000Y1635969*
X1960000Y1639500D02*
G01X1960800D01*
X1964300Y1636000*
X1965469*
X1965500Y1635969*
X1954000Y1625677D02*
G01X1955177Y1624500D01*
X1957969*
X1958000Y1624531*
X1965500D02*
G01X1965531Y1624500D01*
X1968500*
G54D13*
X1912476Y1672630D02*
G01X1892524D01*
Y1679591*
X1895552*
X1895598Y1679444*
X1895989Y1678686*
X1897082Y1677374*
X1898434Y1676331*
X1899980Y1675607*
X1901646Y1675236*
X1903354*
X1905020Y1675607*
X1906566Y1676331*
X1907918Y1677374*
X1909011Y1678686*
X1909402Y1679444*
X1909448Y1679591*
X1912476*
Y1672630*
X1892909D02*
G01Y1679591D01*
X1893366Y1672630D02*
G01Y1679591D01*
X1893823Y1672630D02*
G01Y1679591D01*
X1894280Y1672630D02*
G01Y1679591D01*
X1894736Y1672630D02*
G01Y1679591D01*
X1895193Y1672630D02*
G01Y1679591D01*
X1895650Y1672630D02*
G01Y1679344D01*
X1896106Y1672630D02*
G01Y1678545D01*
X1896563Y1672630D02*
G01Y1677997D01*
X1897020Y1672630D02*
G01Y1677448D01*
X1897476Y1672630D02*
G01Y1677070D01*
X1897933Y1672630D02*
G01Y1676717D01*
X1898390Y1672630D02*
G01Y1676365D01*
X1898846Y1672630D02*
G01Y1676138D01*
X1899303Y1672630D02*
G01Y1675924D01*
X1899760Y1672630D02*
G01Y1675710D01*
X1900217Y1672630D02*
G01Y1675554D01*
X1900673Y1672630D02*
G01Y1675453D01*
X1901130Y1672630D02*
G01Y1675351D01*
X1901587Y1672630D02*
G01Y1675249D01*
X1902043Y1672630D02*
G01Y1675236D01*
X1902500Y1672630D02*
G01Y1675236D01*
X1902957Y1672630D02*
G01Y1675236D01*
X1903413Y1672630D02*
G01Y1675249D01*
X1903870Y1672630D02*
G01Y1675351D01*
X1904327Y1672630D02*
G01Y1675453D01*
X1904783Y1672630D02*
G01Y1675554D01*
X1905240Y1672630D02*
G01Y1675710D01*
X1905697Y1672630D02*
G01Y1675924D01*
X1906154Y1672630D02*
G01Y1676138D01*
X1906610Y1672630D02*
G01Y1676365D01*
X1907067Y1672630D02*
G01Y1676717D01*
X1907524Y1672630D02*
G01Y1677070D01*
X1907980Y1672630D02*
G01Y1677448D01*
X1908437Y1672630D02*
G01Y1677997D01*
X1908894Y1672630D02*
G01Y1678545D01*
X1909350Y1672630D02*
G01Y1679344D01*
X1909807Y1672630D02*
G01Y1679591D01*
X1910264Y1672630D02*
G01Y1679591D01*
X1910720Y1672630D02*
G01Y1679591D01*
X1911177Y1672630D02*
G01Y1679591D01*
X1911634Y1672630D02*
G01Y1679591D01*
X1912091Y1672630D02*
G01Y1679591D01*
X1912476Y1686409D02*
G01X1909448D01*
X1909402Y1686556*
X1909011Y1687314*
X1907918Y1688626*
X1906566Y1689669*
X1905020Y1690393*
X1903354Y1690764*
X1901646*
X1899980Y1690393*
X1898434Y1689669*
X1897082Y1688626*
X1895989Y1687314*
X1895598Y1686556*
X1895552Y1686409*
X1892524*
Y1693370*
X1912476*
Y1686409*
X1892909D02*
G01Y1693370D01*
X1893366Y1686409D02*
G01Y1693370D01*
X1893823Y1686409D02*
G01Y1693370D01*
X1894280Y1686409D02*
G01Y1693370D01*
X1894736Y1686409D02*
G01Y1693370D01*
X1895193Y1686409D02*
G01Y1693370D01*
X1895650Y1686656D02*
G01Y1693370D01*
X1896106Y1687455D02*
G01Y1693370D01*
X1896563Y1688003D02*
G01Y1693370D01*
X1897020Y1688552D02*
G01Y1693370D01*
X1897476Y1688930D02*
G01Y1693370D01*
X1897933Y1689283D02*
G01Y1693370D01*
X1898390Y1689635D02*
G01Y1693370D01*
X1898846Y1689862D02*
G01Y1693370D01*
X1899303Y1690076D02*
G01Y1693370D01*
X1899760Y1690290D02*
G01Y1693370D01*
X1900217Y1690446D02*
G01Y1693370D01*
X1900673Y1690547D02*
G01Y1693370D01*
X1901130Y1690649D02*
G01Y1693370D01*
X1901587Y1690751D02*
G01Y1693370D01*
X1902043Y1690764D02*
G01Y1693370D01*
X1902500Y1690764D02*
G01Y1693370D01*
X1902957Y1690764D02*
G01Y1693370D01*
X1903413Y1690751D02*
G01Y1693370D01*
X1903870Y1690649D02*
G01Y1693370D01*
X1904327Y1690547D02*
G01Y1693370D01*
X1904783Y1690446D02*
G01Y1693370D01*
X1905240Y1690290D02*
G01Y1693370D01*
X1905697Y1690076D02*
G01Y1693370D01*
X1906154Y1689862D02*
G01Y1693370D01*
X1906610Y1689635D02*
G01Y1693370D01*
X1907067Y1689283D02*
G01Y1693370D01*
X1907524Y1688930D02*
G01Y1693370D01*
X1907980Y1688552D02*
G01Y1693370D01*
X1908437Y1688003D02*
G01Y1693370D01*
X1908894Y1687455D02*
G01Y1693370D01*
X1909350Y1686656D02*
G01Y1693370D01*
X1909807Y1686409D02*
G01Y1693370D01*
X1910264Y1686409D02*
G01Y1693370D01*
X1910720Y1686409D02*
G01Y1693370D01*
X1911177Y1686409D02*
G01Y1693370D01*
X1911634Y1686409D02*
G01Y1693370D01*
X1912091Y1686409D02*
G01Y1693370D01*
G54D14*
X1822500Y1476563D02*
G01Y1470000D01*
X1819773*
X1815909Y1476563D02*
G01X1817727Y1470000D01*
X1815909Y1476563D02*
G01X1814091Y1470000D01*
X1817045Y1472188D02*
G01X1814773D01*
X1810455Y1476563D02*
G01Y1470000D01*
X1812045Y1476563D02*
G01X1808864D01*
X1805455D02*
G01X1805909Y1476250D01*
X1806364Y1475625*
X1806591Y1475000*
X1806818Y1474063*
Y1474063D02*
G01Y1472500D01*
X1806591Y1471563*
Y1471563D02*
G01X1806364Y1470938D01*
Y1470938D02*
G01X1805909Y1470313D01*
Y1470313D02*
G01X1805455Y1470000D01*
X1804545*
X1804091Y1470313*
Y1470313D02*
G01X1803636Y1470938D01*
Y1470938D02*
G01X1803409Y1471563D01*
Y1471563D02*
G01X1803182Y1472500D01*
Y1474063*
Y1474063D02*
G01X1803409Y1475000D01*
X1803636Y1475625*
X1804091Y1476250*
X1804545Y1476563*
Y1476563D02*
G01X1805455D01*
X1792727Y1475625D02*
G01X1793182Y1476250D01*
X1793864Y1476563*
Y1476563D02*
G01X1794773D01*
Y1476563D02*
G01X1795455Y1476250D01*
X1795909Y1475625*
Y1475000*
X1795682Y1474375*
X1795455Y1474063*
Y1474063D02*
G01X1795000Y1473750D01*
X1793636Y1473125*
X1793182Y1472813*
Y1472813D02*
G01X1792955Y1472500D01*
X1792727Y1471875*
Y1470938*
Y1470938D02*
G01X1793182Y1470313D01*
Y1470313D02*
G01X1793864Y1470000D01*
X1794773*
X1795455Y1470313*
Y1470313D02*
G01X1795909Y1470938D01*
X1788864Y1476563D02*
G01X1790682Y1470000D01*
X1788864Y1476563D02*
G01X1787045Y1470000D01*
X1790000Y1472188D02*
G01X1787727D01*
X1785000Y1476563D02*
G01Y1470000D01*
X1782273*
X1780227Y1476563D02*
G01Y1470000D01*
Y1476563D02*
G01X1778636D01*
Y1476563D02*
G01X1777955Y1476250D01*
X1777500Y1475625*
X1777273Y1475000*
X1777045Y1474063*
Y1474063D02*
G01Y1472500D01*
X1777273Y1471563*
Y1471563D02*
G01X1777500Y1470938D01*
Y1470938D02*
G01X1777955Y1470313D01*
Y1470313D02*
G01X1778636Y1470000D01*
X1780227*
X1773182Y1476563D02*
G01X1775000Y1470000D01*
X1773182Y1476563D02*
G01X1771364Y1470000D01*
X1774318Y1472188D02*
G01X1772045D01*
X1767727Y1476563D02*
G01Y1470000D01*
X1769318Y1476563D02*
G01X1766136D01*
X1764091D02*
G01Y1471875D01*
X1763864Y1470938*
Y1470938D02*
G01X1763409Y1470313D01*
Y1470313D02*
G01X1762727Y1470000D01*
X1762273*
X1761591Y1470313*
Y1470313D02*
G01X1761136Y1470938D01*
Y1470938D02*
G01X1760909Y1471875D01*
Y1476563*
X1758864D02*
G01Y1470000D01*
Y1476563D02*
G01X1756818D01*
Y1476563D02*
G01X1756136Y1476250D01*
X1755909Y1475938*
Y1475938D02*
G01X1755682Y1475313D01*
Y1475313D02*
G01Y1474688D01*
Y1474688D02*
G01X1755909Y1474063D01*
Y1474063D02*
G01X1756136Y1473750D01*
X1756818Y1473438*
Y1473438D02*
G01X1758864D01*
X1757273D02*
G01X1755682Y1470000D01*
X1753636Y1476563D02*
G01Y1470000D01*
Y1476563D02*
G01X1750682D01*
X1753636Y1473438D02*
G01X1751818D01*
X1753636Y1470000D02*
G01X1750682D01*
X1771469Y1605000D02*
G01X1777500D01*
X1779100Y1606600*
Y1611400*
X1779700Y1612800D02*
G01Y1617169D01*
X1781000Y1618469*
X1783000*
X1779700Y1612800D02*
G01X1781100Y1611400D01*
Y1605000*
X1776000Y1612969D02*
G01X1776031Y1613000D01*
X1777500*
X1779100Y1611400*
X1783000Y1618469D02*
G01X1785000D01*
X1786000Y1617469*
X1791000*
X1792500Y1618969*
Y1621323*
X1783000Y1614531D02*
G01X1785000D01*
X1785969Y1615500*
X1791500*
X1792500Y1614500*
X1783000Y1614531D02*
G01Y1610000D01*
X1785000Y1608000*
X1787000*
X1788500Y1606500*
X1795400*
X1796700Y1605200*
Y1592800*
X1797500Y1592000*
X1817031Y1604500D02*
G01Y1603000D01*
X1818031Y1602000*
X1825000*
X1826000Y1601000*
Y1600000*
X1888000Y1614600D02*
G01Y1615500D01*
X1889500Y1617000*
X1900000*
X1868500Y1616000D02*
G01X1870453D01*
Y1614272*
X1866500Y1616000D02*
G01Y1614287D01*
X1866516Y1614272*
X1866500Y1616000D02*
G01X1868500D01*
X1870453Y1614272D02*
G01X1875500D01*
X1879272Y1610500*
X1884177*
X1868484Y1614272D02*
G01X1868500Y1614287D01*
Y1616000*
X1864547Y1614272D02*
G01Y1616000D01*
X1866500*
X1884177Y1610500D02*
G01X1887000D01*
X1888000Y1611500*
Y1614600*
X1900000Y1617000D02*
G01X1901500Y1615500D01*
X1896000Y1602469D02*
G01X1896031Y1602500D01*
X1899000Y1604031D02*
G01X1899031Y1604000D01*
X1900500*
X1901500Y1605000*
Y1615500*
X1943000Y1605047D02*
G01Y1603469D01*
X1945000Y1601469*
X1943000Y1605047D02*
G01Y1607000D01*
Y1609000*
X1941272Y1605047D02*
G01X1943000D01*
X1941272Y1607016D02*
G01X1941287Y1607000D01*
X1943000*
X1941272Y1608984D02*
G01X1941287Y1609000D01*
X1943000*
X1941272Y1610953D02*
G01X1943000D01*
Y1609000*
X1959000Y1607677D02*
G01Y1610000D01*
X1960500Y1611500*
X1965500*
X1966500Y1610500*
X1968969*
X1969000Y1610531*
X1959000Y1617323D02*
G01Y1614500D01*
X1960000Y1613500*
X1965531*
X1966500Y1614469*
X1969000*
X1767338Y1623500D02*
G01X1764779D01*
Y1623500D02*
G01X1762220D01*
X1759661Y1627583D02*
G01Y1623500D01*
Y1623500D02*
G01X1762220D01*
Y1627583D02*
G01Y1623500D01*
X1764779Y1627583D02*
G01Y1623500D01*
X1767338Y1627583D02*
G01Y1623500D01*
X1860500Y1643000D02*
G01X1864500Y1639000D01*
X1866031*
X1862500Y1698031D02*
G01Y1697047D01*
X1864547Y1695000*
Y1692681*
Y1660681D02*
G01Y1659000D01*
X1867500*
Y1660000*
X1864547Y1692681D02*
G01Y1692071D01*
X1866531Y1671500D02*
G01Y1674831D01*
X1866900Y1675200*
X1929800Y1698300D02*
G01X1933000Y1701500D01*
Y1705031*
X1771000Y1699300D02*
G01X1781300D01*
X1784100Y1702100*
Y1708700*
X1785947Y1710547*
X1787000*
X1768500Y1717000D02*
G01X1769531D01*
X1770531Y1716000*
Y1707000*
X1772000Y1705531*
X1773500*
X1806000Y1715500D02*
G01X1808531D01*
Y1716500*
X1849900Y1714400D02*
G01X1851144D01*
X1851228Y1714484*
X1849900D02*
G01Y1714400D01*
Y1716400D02*
G01Y1716453D01*
X1851228*
X1849900Y1716400D02*
G01Y1714484D01*
Y1714400D02*
G01Y1712516D01*
X1851228*
X1849900D02*
G01Y1710547D01*
X1851228*
X1844500Y1714000D02*
G01X1845000Y1713500D01*
Y1708469*
X1846500Y1706969*
X1901000Y1710047D02*
G01X1901228D01*
X1916500Y1703000D02*
G01Y1699100D01*
X1918600Y1697000*
X1926600*
X1927900Y1698300*
X1929800*
X1899500Y1714000D02*
G01Y1715953D01*
X1901228*
X1899500Y1714000D02*
G01X1901213D01*
X1901228Y1713984*
X1899500Y1714000D02*
G01Y1712000D01*
X1901213*
X1901228Y1712016*
X1899500Y1712000D02*
G01Y1710047D01*
X1901000*
Y1706000*
X1903000Y1704000*
X1915500*
X1916500Y1703000*
X1750827Y1577323D02*
G01X1979173D01*
Y1742677*
X1750827*
Y1577323*
X1755000Y1780000D02*
G01X1735000D01*
Y1760000*
Y1440000D02*
G01Y1420000D01*
X1755000*
X2265000Y1760000D02*
G01Y1780000D01*
X2245000*
Y1420000D02*
G01X2265000D01*
Y1440000*
X1987047Y1577323D02*
G01X2215394D01*
Y1742677*
X1987047*
Y1577323*
X1750827Y1569449D02*
G01X2215394D01*
Y1549764*
X1750827*
Y1569449*
Y1770236D02*
G01X2215394D01*
Y1750551*
X1750827*
Y1770236*
X1810695Y1569538D02*
G03X1810702Y1577300I163J3881D01*
X1829505Y1577290D02*
G03X1829498Y1569500I-163J-3895D01*
X1901295Y1569538D02*
G03X1901302Y1577300I163J3881D01*
X1920105Y1577290D02*
G03X1920098Y1569500I-163J-3895D01*
X1979410Y1619805D02*
G03X1987200Y1619798I3895J-163D01*
X1987162Y1600995D02*
G03X1979400Y1601002I-3881J163D01*
X1987162Y1699895D02*
G03X1979400Y1699902I-3881J163D01*
X1979410Y1718705D02*
G03X1987200Y1718698I3895J-163D01*
X1920205Y1750600D02*
G03X1920198Y1742600I-168J-4000D01*
X1901295D02*
G03X1901302Y1750600I168J4000D01*
X1829705D02*
G03X1829698Y1742600I-168J-4000D01*
X1810795D02*
G03X1810802Y1750600I168J4000D01*
X2137295Y1742600D02*
G03X2137302Y1750600I168J4000D01*
X2156205D02*
G03X2156198Y1742600I-168J-4000D01*
X2065705Y1750600D02*
G03X2065698Y1742600I-168J-4000D01*
X2046795D02*
G03X2046802Y1750600I168J4000D01*
X2046695Y1569538D02*
G03X2046702Y1577300I163J3881D01*
X2065505Y1577290D02*
G03X2065498Y1569500I-163J-3895D01*
X2137295Y1569538D02*
G03X2137302Y1577300I163J3881D01*
X2156105Y1577290D02*
G03X2156098Y1569500I-163J-3895D01*
G54D17*
X1805600Y1617100D02*
G01X1807500D01*
X1808853*
X1809453Y1616500*
Y1615772*
X1807484D02*
G01X1807500Y1615787D01*
Y1617100*
X1805516Y1615772D02*
G01X1805600Y1615856D01*
Y1617100*
X1803547Y1615772D02*
G01X1803600Y1615824D01*
Y1616600*
X1804100Y1617100*
X1805600*
X1831000Y1604500D02*
G01X1833453D01*
Y1605819*
X1828500Y1617500D02*
G01X1830500D01*
Y1614500*
X1828500D02*
G01X1830500D01*
X1833453*
Y1605819*
X1820969Y1604500D02*
G01X1821069Y1604600D01*
X1832969Y1601000D02*
G01X1833769Y1601800D01*
X1837800*
X1842700*
X1843900Y1603000*
Y1607200*
X1844900Y1608200*
X1853300*
X1854500Y1607000*
X1832969Y1597000D02*
G01X1833500D01*
X1836500Y1600000*
X1837000*
X1788500Y1629031D02*
G01X1789331Y1628200D01*
X1792846*
X1793346Y1628700*
Y1632579*
X1788500Y1632969D02*
G01X1791378D01*
Y1632579*
X1826000Y1623500D02*
G01X1827400D01*
Y1623181*
X1827547*
X1844921Y1638878D02*
G01X1848799Y1635000D01*
X1851469*
X1851500Y1635031*
X1864500Y1657000D02*
G01X1866500D01*
X1870453Y1639000D02*
G01Y1643319D01*
X1866500Y1657000D02*
G01Y1652000D01*
X1867500*
X1801200Y1688100D02*
G01X1801220D01*
Y1692421*
X1808800Y1688000D02*
G01X1809094D01*
Y1692421*
X1811063D02*
G01Y1688000D01*
X1811300*
X1777969D02*
G01X1778122Y1687846D01*
Y1687500*
X1779500Y1686122*
X1785079*
X1826800Y1687900D02*
G01Y1689200D01*
X1826811Y1689211*
Y1692421*
X1832717Y1697969D02*
G01Y1696752D01*
X1832000D02*
G01Y1697969D01*
X1844921Y1682185D02*
G01X1850346D01*
X1851000Y1681531*
X1844921Y1684154D02*
G01X1848500D01*
X1849846Y1685500*
X1850969*
X1851000Y1685469*
X1832717Y1692421D02*
G01Y1696752D01*
X1830748Y1692421D02*
G01Y1695500D01*
X1832000Y1696752*
X1828031Y1698000D02*
G01X1828780D01*
Y1692421*
X1832000Y1697969D02*
G01X1831969Y1698000D01*
X1832717*
Y1697969*
X1846500Y1696031D02*
G01X1846531Y1696000D01*
X1848500*
X1849500Y1697000*
Y1699500*
X1867500Y1684000D02*
G01Y1684500D01*
X1869500*
X1864547Y1692071D02*
G01Y1687453D01*
X1867500Y1684500*
X1868900Y1676300D02*
G01Y1675319D01*
X1870453*
X1866000Y1684500D02*
G01X1867500D01*
X1870453Y1675319D02*
G01Y1671500D01*
X1870469*
X1765800Y1716400D02*
G01Y1717900D01*
X1766900Y1719000*
X1772531*
X1773531Y1718000*
X1808500Y1700500D02*
G01X1809000Y1700000D01*
X1809094*
Y1692421*
X1777469Y1713500D02*
G01X1781400D01*
X1782400Y1712500*
Y1710400*
X1851200Y1708600D02*
G01Y1710519D01*
X1851228Y1710547*
X1851200Y1708600D02*
G01X1853200Y1706600D01*
X1863000*
X1865100Y1704500*
Y1697900*
X1867100Y1695900*
X1849500Y1699500D02*
G01X1852000D01*
Y1699969*
G54D61*
X1758000Y1615500D02*
G01X1761000D01*
X1754500Y1606500D02*
G01Y1611500D01*
X1756000Y1613000*
X1757969*
X1758000Y1612969*
X1754500Y1606500D02*
G01X1756500Y1604500D01*
X1762500*
X1765000Y1602000*
X1770469*
X1771469Y1603000*
Y1605000*
X1761000Y1588500D02*
G01X1766500D01*
X1775500Y1597500*
X1781031*
X1758000Y1617031D02*
G01Y1615500D01*
Y1612969*
X1797500Y1592000D02*
G01X1821469D01*
X1823000Y1593531*
X1824000*
X1825969Y1595500*
Y1597000*
X1792500Y1614500D02*
G01Y1611677D01*
X1781000Y1603500D02*
G01Y1604900D01*
X1781100Y1605000*
X1781000Y1603500D02*
G01Y1601531D01*
X1781031Y1601500*
X1781100Y1605000D02*
G01X1786500D01*
X1788000Y1603500*
X1789531*
X1784969Y1601500D02*
G01Y1597500D01*
X1789236*
X1776000Y1612969D02*
G01Y1617031D01*
X1793469Y1603500D02*
G01X1793969Y1603000D01*
Y1597689*
X1794157Y1597500*
X1783000Y1618469D02*
G01Y1618500D01*
X1785000Y1620500*
X1842031Y1587886D02*
G01Y1597500D01*
X1840197Y1586000D02*
G01X1840114Y1586083D01*
X1840000Y1586197*
X1842031Y1586083D02*
G01Y1587886D01*
X1840197Y1586000D02*
G01X1842031D01*
Y1586083*
X1849000Y1606500D02*
G01X1851500D01*
X1850236Y1597500D02*
G01X1845969D01*
Y1600600*
X1846500Y1601131*
Y1605069D02*
G01X1847931Y1606500D01*
X1849000*
X1829031Y1597000D02*
G01Y1601000D01*
X1851031Y1603500D02*
G01Y1606031D01*
X1851500Y1606500*
X1825969Y1597000D02*
G01X1829031D01*
X1840197Y1586083D02*
G01X1842000Y1587886D01*
X1818764Y1597500D02*
G01Y1597000D01*
X1822031*
X1891969Y1602500D02*
G01X1892000Y1602469D01*
X1883000Y1594500D02*
G01X1883500Y1594000D01*
X1891000*
X1892000Y1595000*
Y1598531*
Y1602469D02*
G01X1896000D01*
X1854969Y1603500D02*
G01X1855157Y1603311D01*
Y1597500*
X1887969Y1600000D02*
G01X1890469Y1602500D01*
X1891969*
X1889803Y1586083D02*
G01Y1581697D01*
X1890000Y1581500*
X1879764Y1597500D02*
G01X1881531D01*
X1884031Y1600000*
X1896031Y1602500D02*
G01X1897469D01*
X1899000Y1604031*
X1903500Y1601500D02*
G01X1906969D01*
X1907000Y1601469*
X1899000Y1610500D02*
G01Y1607969D01*
X1903469Y1597500D02*
G01X1903500Y1597531D01*
X1907000*
X1899531Y1597500D02*
G01Y1586083D01*
X1901197*
X1907000Y1597531D02*
G01X1911205D01*
X1911236Y1597500*
X1907000Y1601469D02*
G01X1909000Y1603469D01*
Y1603500*
X1911531*
X1915469D02*
G01X1916157D01*
Y1597500*
X1911000Y1610500D02*
G01X1911531D01*
Y1603500*
X1901197Y1586083D02*
G01X1903000Y1584280D01*
Y1581500*
X1893823Y1610500D02*
G01X1899000D01*
X1947000Y1601469D02*
G01X1949000D01*
X1947000Y1608969D02*
G01Y1611500D01*
Y1605031D02*
G01Y1601469D01*
X1949000Y1597531D02*
G01X1951469D01*
X1951500Y1597500*
X1949000Y1601469D02*
G01X1949031Y1601500D01*
X1951000*
X1952000Y1602500*
X1964500*
X1969000Y1607000*
Y1610531*
X1945000Y1601469D02*
G01X1947000D01*
X1969000Y1614469D02*
G01X1969031Y1614500D01*
X1971000*
X1972000Y1613500*
Y1612500*
X1940764Y1597500D02*
G01X1944969D01*
X1945000Y1597531*
X1770500Y1653969D02*
G01X1767338D01*
Y1653969D02*
G01Y1650417D01*
Y1623500D02*
G01X1767500Y1623338D01*
Y1623338D02*
G01Y1619823D01*
X1770500Y1653969D02*
G01X1774031D01*
X1767500Y1619823D02*
G01Y1614000D01*
X1774031Y1654500D02*
G01Y1653969D01*
Y1650500*
X1785000Y1631500D02*
G01X1786469Y1632969D01*
X1788500*
X1786000Y1629000D02*
G01X1788469D01*
X1788500Y1629031*
X1782469Y1630000D02*
G01X1783500D01*
X1785000Y1631500*
X1777969Y1646500D02*
G01X1778000Y1646469D01*
Y1644000*
X1774031Y1662500D02*
G01Y1658500D01*
Y1654500*
Y1650500D02*
G01Y1646500D01*
X1851500Y1638969D02*
G01X1855000D01*
X1857469Y1636500*
Y1635531*
X1857500Y1635500*
X1851500Y1635031D02*
G01X1852000Y1634531D01*
Y1625200*
X1853500Y1623700*
X1857500*
X1870453Y1639000D02*
G01X1872500D01*
X1890469Y1655500D02*
G01X1894531D01*
X1869969Y1639000D02*
G01X1870453D01*
X1886500Y1648000D02*
G01X1886531Y1648031D01*
X1857500Y1631300D02*
G01X1861000D01*
X1862300Y1630000*
Y1625000*
X1863300Y1624000*
X1867200*
X1867500Y1623700*
X1857500Y1631300D02*
G01Y1635500D01*
X1915531Y1654000D02*
G01X1915500D01*
Y1658031*
X1921500Y1643500D02*
G01Y1646031D01*
X1911500Y1653500D02*
G01X1912000Y1654000D01*
X1915500*
X1911500Y1653500D02*
G01Y1647531D01*
X1913000Y1646031*
X1917500*
X1958000Y1630000D02*
G01X1962500D01*
X1965500Y1628469D02*
G01Y1630000D01*
Y1632031*
X1962500Y1630000D02*
G01X1965500D01*
X1958000Y1628469D02*
G01Y1630000D01*
Y1632031*
X1941500Y1646154D02*
G01X1941654Y1646000D01*
X1945500*
X1947500Y1648000*
X1764000Y1684000D02*
G01X1774031D01*
X1753400Y1690500D02*
G01Y1685100D01*
X1754500Y1684000*
X1764000*
X1753400Y1690500D02*
G01X1753469D01*
X1755500Y1692531*
X1767000Y1660500D02*
G01X1767338Y1660162D01*
Y1660162D02*
G01Y1653969D01*
X1758500Y1659969D02*
G01X1762500D01*
X1763031Y1660500*
X1767000*
X1762500Y1659969D02*
G01Y1663031D01*
X1764000Y1687677D02*
G01Y1684000D01*
X1774031Y1682000D02*
G01Y1684000D01*
Y1685000*
Y1688000*
Y1675500D02*
G01X1774600Y1676069D01*
Y1681300*
X1774031Y1682000D02*
G01X1774600Y1681431D01*
Y1681300*
X1774031Y1688000D02*
G01Y1694000D01*
X1777969Y1688000D02*
G01Y1690469D01*
X1778000Y1690500*
X1842000Y1692500D02*
G01X1844531D01*
X1849000Y1689000D02*
G01X1851000Y1687000D01*
Y1685469*
X1831969Y1698000D02*
G01Y1700000D01*
X1832969Y1701000*
X1834000*
X1851000Y1681531D02*
G01X1852500D01*
X1854469Y1683500*
Y1688000*
X1843000Y1696031D02*
G01X1846500D01*
X1867100Y1695900D02*
G01X1880900D01*
X1885000Y1700000*
Y1703531*
X1883000Y1693600D02*
G01Y1694500D01*
X1896000Y1707500*
Y1715500*
X1853500Y1689000D02*
G01X1854469Y1688031D01*
Y1688000*
X1883000Y1663000D02*
G01X1886000D01*
Y1666500*
X1885000Y1686500D02*
G01X1886000D01*
Y1692500*
X1892000Y1666500D02*
G01X1894500D01*
X1889000Y1692500D02*
G01X1892200D01*
X1883000D02*
G01Y1693600D01*
X1899880Y1692500D02*
G01X1902055D01*
X1902500Y1692055*
X1892200Y1692500D02*
G01X1899880D01*
X1920043Y1682031D02*
G01Y1672000D01*
Y1672000D02*
G01X1929000D01*
X1894500Y1666500D02*
G01Y1669000D01*
X1916500Y1682031D02*
G01X1920043D01*
Y1682031D02*
G01Y1683800D01*
X1949631Y1666469D02*
G01X1950000Y1666100D01*
X1968469Y1687000D02*
G01Y1684500D01*
Y1682000*
X1932838Y1683800D02*
G01X1932900Y1683862D01*
Y1683862D02*
G01Y1688400D01*
X1933500Y1689000*
X1935397*
Y1689000D02*
G01Y1683800D01*
X1767900Y1705931D02*
G01Y1704700D01*
X1769400Y1703200*
X1767900Y1705931D02*
G01X1767969Y1706000D01*
X1763300Y1702200D02*
G01Y1705269D01*
X1764031Y1706000*
X1760000Y1713469D02*
G01X1764000D01*
X1767969Y1706000D02*
G01Y1709500D01*
X1768000Y1709531*
X1764000D02*
G01X1764031Y1709500D01*
Y1706000*
X1764000Y1713469D02*
G01X1768000D01*
X1768500Y1713969*
Y1717000*
X1755500Y1717346D02*
G01X1756500D01*
Y1716969*
X1760000Y1713469*
X1778000Y1722500D02*
G01X1780969D01*
X1781000Y1722469*
Y1718531D02*
G01X1785000D01*
X1777500Y1705531D02*
G01X1782000D01*
Y1702500*
X1785000Y1722469D02*
G01X1789205D01*
X1789236Y1722500*
X1773531Y1718000D02*
G01Y1713500D01*
X1777469Y1718000D02*
G01X1777969Y1718500D01*
X1780969*
X1781000Y1718531*
X1840900Y1706100D02*
G01X1841000Y1706200D01*
Y1708531*
X1840900Y1706100D02*
G01Y1706000D01*
X1834000Y1701000D02*
G01X1839000D01*
X1840900Y1702900*
Y1706000*
X1830000Y1718031D02*
G01X1830500Y1718500D01*
X1838031*
X1833500Y1725500D02*
G01X1834531D01*
Y1722500*
X1830500Y1713000D02*
G01X1832500Y1715000D01*
X1834469*
X1834500Y1714969*
X1828500Y1705000D02*
G01X1832500D01*
Y1705300*
X1833200Y1706000*
X1825969Y1709000D02*
G01X1828500D01*
X1825969Y1713000D02*
G01X1830500D01*
X1838031Y1718500D02*
G01Y1714969D01*
X1838500*
X1841969Y1718500D02*
G01X1846100D01*
X1848200Y1716400*
X1849900*
X1841969Y1718500D02*
G01Y1722437D01*
X1842031Y1722500*
X1838469D02*
G01X1842031D01*
X1823000Y1722469D02*
G01X1823031Y1722500D01*
X1826531*
X1823000Y1718531D02*
G01Y1717469D01*
X1825969Y1714500*
Y1713000*
Y1701500D02*
G01Y1705000D01*
X1828500*
X1852000Y1699969D02*
G01X1855500D01*
X1845969Y1722500D02*
G01X1850236D01*
X1819969Y1716500D02*
G01X1821000D01*
Y1716531*
X1823000Y1718531*
X1838500Y1711031D02*
G01X1841000Y1708531D01*
X1825969Y1701500D02*
G01X1826031Y1701437D01*
Y1698000*
X1828031*
X1828803Y1733917D02*
G01X1830469D01*
Y1722500*
X1818764D02*
G01X1818795Y1722469D01*
X1823000*
X1813843Y1722500D02*
G01X1814000D01*
Y1720000*
X1816031Y1718000*
Y1716500*
X1833200Y1706000D02*
G01X1834500Y1707300D01*
Y1711031*
X1840800Y1706000D02*
G01X1840900Y1706100D01*
X1887500Y1715500D02*
G01Y1718500D01*
X1887969*
Y1722500D02*
G01Y1733917D01*
X1889803*
X1884031Y1718500D02*
G01Y1722500D01*
X1878969Y1716500D02*
G01X1879969Y1715500D01*
X1887500*
X1885000Y1707469D02*
G01X1887500Y1709969D01*
Y1715500*
X1879764Y1722500D02*
G01X1884031D01*
X1874843D02*
G01X1875031Y1722311D01*
Y1716500*
X1875000Y1700677D02*
G01Y1703000D01*
X1876500Y1704500*
X1881531*
X1882500Y1703531*
X1885000*
X1875000Y1710323D02*
G01Y1708000D01*
X1876300Y1706700*
X1881900*
X1882600Y1707400*
X1884931*
X1885000Y1707469*
X1897000Y1725500D02*
G01X1897031Y1725469D01*
Y1723000*
X1900969Y1719000D02*
G01Y1723000D01*
X1904031*
X1900969Y1719000D02*
G01X1901228Y1718740D01*
Y1715953*
X1907969Y1723000D02*
G01X1911236D01*
Y1722500*
X1924000Y1702177D02*
G01Y1704500D01*
X1925500Y1706000*
X1930000*
X1931000Y1705000*
X1932969*
X1933000Y1705031*
X1924000Y1711823D02*
G01Y1709000D01*
X1925000Y1708000*
X1930531*
X1931500Y1708969*
X1933000*
X1943500Y1715031D02*
G01X1947000D01*
X1948969Y1717000*
Y1718500*
Y1722500D02*
G01X1954000D01*
X1963000Y1731500*
X1969000*
X1945031Y1718500D02*
G01Y1722500D01*
X1940469Y1716500D02*
G01X1941937Y1715031D01*
X1943500*
X1933000Y1708969D02*
G01X1942000D01*
X1943500Y1710469*
Y1715031*
X1940764Y1722500D02*
G01X1945031D01*
X1935843D02*
G01X1936031Y1722311D01*
Y1717000*
X1936531Y1716500*
G54D62*
X1792500Y1614500D02*
G01X1793772Y1615772D01*
X1803547*
X1788728Y1716453D02*
G01X1787000D01*
Y1714500*
X1788713*
X1788728Y1714484*
X1787000Y1714500D02*
G01Y1712500D01*
X1788713*
X1788728Y1712516*
Y1710547D02*
G01X1787000D01*
Y1712500*
X1785000Y1718531D02*
G01X1787000Y1716531D01*
Y1716453*
X1896000Y1715500D02*
G01X1897000Y1716500D01*
X1897031*
Y1719000*
G54D63*
X1840197Y1586000D02*
G01Y1586083D01*
X1840000Y1581500D02*
G01X1840197Y1581697D01*
Y1586000*
G54D185*
X1889803Y1733917D02*
G01X1901197D01*
G54D11*
X2003720Y1610181D02*
G01X2003751Y1610150D01*
Y1605004*
X2039767Y1606276D02*
G01Y1608264D01*
Y1608421*
X2035220Y1601232D02*
G01Y1597583D01*
X2035299Y1597504*
X2035220Y1601232D02*
G01X2036720Y1602732D01*
X2039767*
Y1608421D02*
G01Y1612232D01*
X2024980Y1611177D02*
G01Y1609004D01*
X2025720Y1608264*
X2039767*
X2041736Y1608421D02*
G01Y1612232D01*
X2022220Y1611177D02*
G01X2024980D01*
X2040220Y1597504D02*
G01X2040236Y1597520D01*
Y1599504*
X2041736Y1601004*
Y1602732*
X2045141Y1597504D02*
G01X2045220Y1597583D01*
Y1599488*
X2043704Y1602732D02*
G01Y1601004D01*
X2045220Y1599488*
X2045673Y1602732D02*
G01X2045787Y1602847D01*
X2048720*
X2050063Y1601504*
Y1597504*
X2045673Y1606276D02*
G01Y1612232D01*
X2043704Y1606276D02*
G01Y1612232D01*
X2041736Y1608421D02*
G01Y1606276D01*
Y1605004*
X2042236Y1604504*
X2046673*
X2048220Y1606051*
Y1610004*
X2050667Y1612451*
X2052520*
X2053420Y1611551*
X2059929*
X2043704Y1612232D02*
G01Y1613504D01*
X2044204Y1614004*
X2047220*
X2048220Y1615004*
Y1615504*
X2045673Y1612232D02*
G01X2048220D01*
X2050720Y1614732*
Y1619604*
X2024980Y1611681D02*
G01Y1611177D01*
X2032460Y1611681D02*
G01X2032720Y1611941D01*
Y1613004*
X2033720Y1614004*
X2041236*
X2041736Y1613504*
Y1612232*
X2065892Y1603183D02*
G01X2067213Y1604504D01*
X2067220*
X2057289Y1604604D02*
G01X2061312D01*
X2062733Y1603183*
X2065892*
X2075120Y1605504D02*
G01X2077620D01*
X2078720Y1606604*
Y1608504*
X2056720Y1613504D02*
G01X2056736Y1613520D01*
X2059929*
X2056720Y1617504D02*
G01X2059881D01*
X2059929Y1617457*
X2056220Y1610004D02*
G01X2056620Y1609604D01*
X2059907*
X2059929Y1609583*
X2051220Y1610504D02*
G01X2051330Y1610394D01*
Y1608504*
X2052220Y1607614*
X2059929*
X2056720Y1615504D02*
G01X2059913D01*
X2059929Y1615488*
X2063767Y1605823D02*
G01X2063786Y1605804D01*
X2064520*
X2065720Y1607004*
X2073511Y1607614D02*
G01X2076610D01*
X2076620Y1607604*
X2073511Y1609583D02*
G01X2073533Y1609604D01*
X2077720*
X2078720Y1608604*
Y1608504*
X2073511Y1611551D02*
G01X2077673D01*
X2079720Y1609504*
X2090720*
X2094220Y1606004*
Y1594004*
X2094720Y1593504*
X2112720*
X2113605Y1594389*
Y1602504*
X2073511Y1613520D02*
G01X2075636D01*
X2080720Y1618604*
X2083520*
X2073511Y1615488D02*
G01X2073527Y1615504D01*
X2075620*
X2080520Y1620404*
X2084620*
X2087420Y1617604*
Y1613504*
X2088920Y1612004*
X2094220*
X2097720Y1608504*
Y1606004*
X2099220Y1604504*
X2102236*
X2102736Y1605004*
Y1606276*
X2073511Y1617457D02*
G01X2073659Y1617604D01*
X2075520*
X2079820Y1621904*
X2086020*
X2086720Y1621204*
X2113605Y1602504D02*
G01X2123720D01*
X2127720Y1606504*
X2129783*
X2130043Y1606764*
X2096220Y1601232D02*
G01Y1597583D01*
X2096299Y1597504*
X2096220Y1601232D02*
G01X2097720Y1602732D01*
X2100767*
X2098948Y1612504D02*
G01Y1616504D01*
X2100448Y1618004*
X2110960*
X2114720Y1614244*
X2120397*
X2098948Y1612504D02*
G01X2098996D01*
X2100767Y1610732*
X2106673D02*
G01Y1608504D01*
X2107220*
X2101220Y1597504D02*
G01Y1599488D01*
X2102736Y1601004*
Y1602732*
X2106141Y1597504D02*
G01X2106220Y1597583D01*
Y1599488*
X2104704Y1602732D02*
G01Y1601004D01*
X2106220Y1599488*
X2106673Y1602732D02*
G01X2109720D01*
X2110948Y1601504*
Y1597618*
X2111063Y1597504*
X2106673Y1608504D02*
G01Y1606276D01*
X2111720*
X2113992Y1604004*
X2122720*
X2126220Y1607504*
Y1612504*
X2127720Y1614004*
X2129803*
X2130043Y1614244*
X2104704Y1606276D02*
G01Y1605004D01*
X2105204Y1604504*
X2111220*
X2113220Y1602504*
X2113605*
X2102736Y1606276D02*
G01Y1610732D01*
X2100767Y1606276D02*
G01Y1610732D01*
X2102736D02*
G01Y1611520D01*
X2103720Y1612504*
X2109220*
X2114960Y1606764*
X2120397*
X2104704Y1610732D02*
G01Y1606276D01*
X2157220Y1602957D02*
G01Y1597583D01*
X2157299Y1597504*
X2157220Y1602957D02*
G01X2165220Y1610957D01*
X2166948*
X2165220Y1606004D02*
G01Y1603425D01*
X2167141Y1601504*
Y1597504*
X2165220Y1606004D02*
G01X2166220Y1607004D01*
X2166933*
X2166948Y1607020*
X2132220Y1598535D02*
G01X2132720D01*
X2135689Y1601504*
X2137220*
X2166948Y1605051D02*
G01X2167220Y1604780D01*
Y1603847*
X2168220Y1602847*
X2170720*
X2172063Y1601504*
Y1597504*
X2162220D02*
G01Y1605488D01*
X2165720Y1608988*
X2166948*
X2174720Y1593504D02*
G01X2175720Y1592504D01*
X2179220*
X2180220Y1593504*
X2187470*
X2189970Y1596004*
Y1598504*
X2191970Y1600504*
X2206220*
X2210720Y1605004*
X2174720Y1593504D02*
G01Y1602004D01*
X2175720Y1603004*
Y1606520*
X2171220Y1592004D02*
G01X2173220D01*
X2174720Y1593504*
X2173948Y1614504D02*
G01Y1615004D01*
X2174220*
X2174720Y1615504*
X2186480*
X2191480Y1610504*
Y1607681*
X2179220Y1613504D02*
G01X2185220D01*
X2188220Y1610504*
Y1605504*
X2189220Y1604504*
X2198220*
X2198960Y1605244*
Y1607681*
X2168720Y1614504D02*
G01Y1605551D01*
X2169220Y1605051*
X2170492*
X2168720Y1614504D02*
G01Y1615004D01*
X2170720Y1617004*
X2191480*
Y1617327*
X2170492Y1605051D02*
G01X2173948D01*
X2170492Y1607020D02*
G01X2173948D01*
X2170492Y1608988D02*
G01X2173948D01*
X2170492Y1610957D02*
G01X2173948D01*
Y1614504*
Y1608988D02*
G01X2174720D01*
X2175720Y1609988*
Y1612004*
X2177220Y1613504*
X2179220*
X2173948Y1607020D02*
G01X2175220D01*
X2175720Y1606520*
X2198960Y1617327D02*
G01Y1617504D01*
X2209220*
X2210720Y1616004*
Y1605004*
X2007420Y1641204D02*
G01X2008120Y1640504D01*
X2014598*
X2016220Y1638882*
X2021299*
X2002320Y1642204D02*
G01X2002920D01*
X2007520Y1637604*
Y1627404*
X2010020Y1624904*
X2020620*
X2022620Y1626904*
X2032103*
X2033503Y1628304*
Y1632583*
X2002220Y1644504D02*
G01X2005220D01*
X2006720Y1646004*
Y1650035*
X1994120Y1648504D02*
G01X1995881D01*
Y1648504D02*
G01Y1650421D01*
X1998220Y1645504D02*
G01Y1650201D01*
X1998440Y1650421*
X1994720Y1656035D02*
G01Y1654665D01*
Y1654665D02*
G01X1995881Y1653504D01*
Y1653504D02*
G01Y1650421D01*
X1998720Y1656035D02*
G01X1998751Y1656004D01*
X1998940*
X1994320Y1641104D02*
G01X2000120D01*
X2006120Y1635104*
Y1626304*
X2009020Y1623404*
X2021520*
X2023720Y1625604*
X2033672*
X2035472Y1627404*
Y1632583*
X2000999Y1650421D02*
G01Y1645725D01*
Y1645725D02*
G01X2002220Y1644504D01*
X1998440Y1650421D02*
G01Y1655504D01*
Y1655504D02*
G01X1998940Y1656004D01*
X2027720Y1646504D02*
G01X2028220Y1646004D01*
Y1639819*
X2031535Y1636504*
Y1632583*
X2043020Y1622704D02*
G01X2043346Y1623030D01*
Y1632583*
X2037220Y1627504D02*
G01Y1632362D01*
X2037440Y1632583*
X2045220Y1627504D02*
G01X2046120Y1626604D01*
Y1623104*
X2047220Y1622004*
X2053626*
X2057126Y1625504*
Y1632583*
X2047720Y1624004D02*
G01X2048220Y1623504D01*
X2053220*
X2055220Y1625504*
Y1628067*
X2009820Y1642604D02*
G01X2010420Y1642004D01*
X2015566*
X2016720Y1640850*
X2021299*
X2039220Y1625004D02*
G01X2041377Y1627161D01*
Y1632583*
X2039220Y1627504D02*
G01Y1632394D01*
X2039409Y1632583*
X2015220Y1633004D02*
G01Y1636504D01*
X2015720Y1637004*
X2024720*
X2025520Y1637804*
Y1642219*
X2017220Y1647004D02*
G01X2021051D01*
X2021299Y1646756*
X2017220Y1635004D02*
G01X2017720Y1635504D01*
X2025220*
X2026820Y1637104*
Y1643087*
X2016620Y1654630D02*
G01X2021299D01*
X2016641Y1651783D02*
G01X2017520Y1652661D01*
X2021299*
X2043220Y1643504D02*
G01X2045314D01*
Y1632583*
X2014751Y1630004D02*
G01X2014920Y1629835D01*
Y1626504*
X2021299Y1656598D02*
G01X2021304Y1656604D01*
X2026920*
X2021299Y1650693D02*
G01X2024209D01*
X2024220Y1650704*
X2025720*
X2026020Y1651004*
X2026220*
X2021299Y1648724D02*
G01X2025220D01*
X2026220Y1648504*
X2021299Y1644787D02*
G01X2025120D01*
X2026820Y1643087*
X2021299Y1642819D02*
G01X2024920D01*
X2025520Y1642219*
X2047283Y1632583D02*
G01Y1624504D01*
X2047720Y1624004*
X2014189Y1658504D02*
G01X2014251Y1658567D01*
X2016720Y1659004*
X2014189Y1654504D02*
G01X2014314Y1654630D01*
X2016620*
X2014189Y1650504D02*
G01X2015363D01*
X2016641Y1651783*
X2032460Y1621327D02*
G01Y1620004D01*
X2033460Y1619004*
X2034160Y1618304*
X2046520*
X2048220Y1616604*
Y1615504*
X2024980Y1621327D02*
G01Y1622764D01*
X2026720Y1624504*
X2034720*
X2039620Y1619604*
X2050720*
X2053320*
X2059620Y1625904*
X2070521*
X2073520Y1622905*
Y1621402*
X2067720Y1622004D02*
G01Y1623185D01*
X2069673*
X2049220Y1627504D02*
G01Y1627973D01*
X2049251Y1628004*
Y1632583*
X2049220Y1627504D02*
G01Y1626504D01*
X2050220Y1625504*
X2052189*
X2053189Y1626504*
Y1632583*
X2071620Y1657804D02*
G01X2074351Y1660535D01*
X2081141*
X2075720Y1645004D02*
G01X2077472Y1646756D01*
X2081141*
X2072720Y1650504D02*
G01X2074720D01*
X2076877Y1652661*
X2081141*
X2071220Y1654004D02*
G01X2073720D01*
X2076220Y1656504*
X2081047*
X2081141Y1656598*
X2086220Y1649004D02*
G01X2087282Y1647942D01*
X2066220Y1637504D02*
G01X2071720D01*
X2072720Y1636504*
Y1632736*
X2072874Y1632583*
X2067720Y1642004D02*
G01X2069720D01*
X2074842Y1636882*
Y1632583*
X2056720Y1619504D02*
G01X2059850D01*
X2059929Y1619425*
X2059520Y1622904D02*
G01X2059920Y1622504D01*
Y1621402*
X2059929Y1621394*
X2073511Y1619425D02*
G01X2075441D01*
X2079520Y1623504*
X2087320*
X2089120Y1621704*
Y1614625*
X2090041Y1613704*
X2095748*
X2098720Y1610732*
X2100767*
X2073511Y1621394D02*
G01X2073520Y1621402D01*
X2051220Y1632583D02*
G01Y1637004D01*
X2052220Y1638004*
X2053720*
X2058720Y1643004*
Y1652504*
X2068020Y1661804*
X2076120*
X2076820Y1662504*
X2081141*
X2051220Y1632583D02*
G01Y1627504D01*
X2051520*
X2053189Y1632583D02*
G01Y1635973D01*
X2059444Y1642228*
X2059720Y1642504*
Y1646567*
X2069220Y1656067*
X2073720*
X2076220Y1658567*
X2081141*
X2055157Y1632583D02*
G01Y1635941D01*
X2061157Y1641941*
Y1642941*
X2070346Y1652130*
X2074220*
X2076720Y1654630*
X2081141*
X2055157Y1632583D02*
G01X2055220Y1632520D01*
Y1628067*
X2057126Y1632583D02*
G01Y1636004D01*
X2065626Y1644504*
X2070720*
X2075220Y1649004*
X2075531*
X2077220Y1650693*
X2081141*
X2059094Y1632583D02*
G01Y1636004D01*
X2066594Y1643504*
X2071220*
X2075220Y1647504*
X2076500*
X2077720Y1648724*
X2081141*
X2059094Y1632583D02*
G01X2059220Y1632457D01*
Y1627504*
X2061063Y1632583D02*
G01Y1628004D01*
X2061563Y1627504*
X2062220*
X2063031Y1632583D02*
G01Y1636615D01*
X2064020Y1637604*
X2065000Y1632583D02*
G01Y1627704D01*
X2065320*
X2066968Y1632583D02*
G01Y1628356D01*
X2067720Y1627604*
X2068937Y1632583D02*
G01Y1629004D01*
X2071320Y1626621*
X2077220*
X2077520Y1626321*
Y1626304*
X2070905Y1632583D02*
G01Y1629004D01*
X2071720Y1628189*
X2077220*
X2077720Y1628689*
Y1629504*
X2081141Y1640850D02*
G01X2081295Y1641004D01*
X2085220*
X2085720Y1641504*
X2091720*
X2101720Y1631504*
X2103520*
X2103720Y1631304*
X2081141Y1642819D02*
G01X2086320D01*
X2087234Y1643733*
X2087282*
Y1647942*
X2081141Y1644787D02*
G01X2081158Y1644804D01*
X2085720*
X2109921Y1651020D02*
G01X2112204D01*
X2113220Y1651004*
X2096920Y1658902D02*
G01Y1661204D01*
X2099220Y1663504*
X2111720*
X2113120Y1662104*
X2096920Y1658902D02*
G01X2096929Y1658894D01*
X2091720Y1648504D02*
G01Y1649920D01*
X2092820Y1651020*
X2096929*
X2091720Y1655004D02*
G01X2096881D01*
X2096929Y1654957*
X2093720Y1647004D02*
G01X2096850D01*
X2096929Y1647083*
X2109220Y1643504D02*
G01Y1645114D01*
X2110511*
X2093220Y1657004D02*
G01X2096929D01*
Y1656925*
X2115920Y1652704D02*
G01X2116120D01*
Y1655104*
X2115220Y1644404D02*
G01X2116220Y1645404D01*
Y1650204*
X2094120Y1653004D02*
G01X2096913D01*
X2096929Y1652988*
X2094220Y1645004D02*
G01X2094330Y1645114D01*
X2096929*
X2094020Y1649004D02*
G01X2096881D01*
X2096929Y1649051*
X2100767Y1643323D02*
G01X2104320D01*
X2104801Y1643804*
X2104820*
X2110511Y1647083D02*
G01X2110533Y1647104D01*
X2113220*
X2110511Y1649051D02*
G01X2110559Y1649004D01*
X2114120*
X2110511Y1652988D02*
G01X2110527Y1653004D01*
X2113420*
X2116220Y1650204*
X2110511Y1654957D02*
G01X2113220D01*
Y1654604*
X2110511Y1656925D02*
G01X2110590Y1657004D01*
X2114220*
X2116120Y1655104*
X2110511Y1658894D02*
G01X2110522Y1658904D01*
X2113220*
X2153720Y1649973D02*
G01X2157720D01*
X2155689Y1654004D02*
G01X2157220D01*
X2158720Y1655504*
Y1660102*
Y1660102D02*
G01X2158822Y1660204D01*
X2161720Y1646035D02*
G01X2165720D01*
X2161720Y1649973D02*
G01Y1652973D01*
X2161751Y1653004*
X2157720Y1649973D02*
G01X2161720D01*
X2165689Y1653004D02*
G01X2165720Y1652973D01*
Y1649973*
X2165689Y1653004D02*
G01X2165720Y1653035D01*
Y1654224*
X2207820Y1638404D02*
G01X2208520Y1639104D01*
Y1655504*
X2210320Y1657304*
Y1694304*
X2203120Y1641304D02*
G01Y1653204D01*
X2208720Y1658804*
Y1690504*
X1990420Y1664504D02*
G01Y1642304D01*
X1991620Y1641104*
X1994320*
X1990420Y1664504D02*
G01X1993520Y1667604D01*
X1998089*
X1998720Y1666973*
X1993970Y1672054D02*
G01Y1681454D01*
X1995020Y1682504*
X1998020*
X1999920Y1680604*
Y1678004*
X2003720Y1674204*
X1993970Y1672054D02*
G01X1996820Y1669204D01*
X2000720*
X2002720Y1667204*
X2012120*
X2013820Y1665504*
X2015989*
X2017020Y1664473*
X2021299*
X2001820Y1678804D02*
G01X2004420D01*
X2005320Y1677904*
Y1674204*
X2008020Y1671504*
X2014877*
X2015720Y1672347*
X2021299*
X1995720Y1676004D02*
G01Y1674504D01*
X1997920Y1672304*
X1999220*
X2003020Y1668504*
X2013220*
X2014720Y1667004*
X2016657*
X2017220Y1666441*
X2021299*
X2001220Y1682004D02*
G01X2005620D01*
X2006520Y1681104*
Y1675004*
X2008754Y1672770*
X2012954*
X2014189Y1674004*
Y1675504*
X2003220Y1691504D02*
G01X2003960D01*
Y1687681*
X1996020Y1678804D02*
G01X1997520Y1677304D01*
Y1674404*
X1998620Y1673304*
X1999720*
X2003220Y1669804*
X2014220*
X2015614Y1668410*
X2021299*
X1991720Y1696473D02*
G01Y1699604D01*
X1992620Y1700504*
X2000320*
X2003960Y1697327D02*
G01X2004720Y1698087D01*
X2018220*
X2021720Y1701587*
Y1706404*
X2023820Y1708504*
X2026444*
X2028492Y1710551*
X2000220Y1697327D02*
G01Y1700404D01*
X2000320Y1700504*
X1996480Y1697327D02*
G01X1996620Y1697187D01*
Y1693704*
X1996480Y1687681D02*
G01Y1690504D01*
X1997480Y1691504*
X1999720*
X2018020Y1694004D02*
G01Y1690504D01*
X2020520Y1688004*
X2024920*
X2026020Y1686904*
X2018020Y1694004D02*
G01X2018920Y1694904D01*
X2016020Y1678904D02*
G01Y1678921D01*
X2017320Y1680221*
X2021299*
X2027720Y1686204D02*
G01X2028520Y1687004D01*
X2033220*
X2035472Y1689256*
Y1692425*
X2025220Y1690504D02*
G01Y1689604D01*
X2026603Y1688221*
X2032720*
X2033503Y1689004*
Y1692425*
X2025220Y1696004D02*
G01X2026220Y1697004D01*
X2028566*
X2029566Y1696004*
Y1692425*
X2025220Y1693504D02*
G01X2027598D01*
Y1692425*
X2016220Y1670504D02*
G01X2021173D01*
X2021299Y1670378*
X2027920Y1682904D02*
G01X2030320D01*
X2032620Y1685204*
X2033820*
X2034920Y1686304*
X2051689*
X2053189Y1687804*
Y1692425*
X2013520Y1678304D02*
G01X2014189D01*
Y1682004*
X2016520Y1662504D02*
G01Y1661204D01*
X2017189Y1660535*
X2021299*
X2016720Y1659004D02*
G01X2021299Y1658567D01*
X2041720Y1676904D02*
G01X2043520Y1675104D01*
X2061920*
X2065120Y1678304*
Y1684804*
X2066920Y1686604*
X2072542*
X2074842Y1688904*
Y1692425*
X2026457Y1679541D02*
G01X2029520D01*
X2033483Y1683504*
X2040720*
X2042220Y1685004*
X2053326*
X2057126Y1688804*
Y1692425*
X2021299Y1684158D02*
G01X2025120D01*
X2026020Y1685058*
Y1686904*
X2021299Y1678252D02*
G01X2025320D01*
X2025968Y1677604*
X2029068*
X2030320Y1676352*
Y1673804*
X2021299Y1676284D02*
G01X2026740D01*
X2028220Y1674804*
X2021299Y1662504D02*
G01X2026220D01*
X2014189Y1694004D02*
G01X2016789Y1696604D01*
X2019520*
X2020020Y1697104*
X2014189Y1675504D02*
G01X2015377Y1674315D01*
X2021299*
X2014189Y1662504D02*
G01X2016520D01*
X2014189Y1682004D02*
G01X2014374Y1682189D01*
X2021299*
X2073820Y1676204D02*
G01X2075220D01*
X2077109Y1674315*
X2081141*
X2061020Y1686804D02*
G01Y1692382D01*
X2061063Y1692425*
X2058720Y1687504D02*
G01Y1687530D01*
X2059094Y1687904*
Y1692425*
X2070720Y1698004D02*
G01Y1692610D01*
X2070905Y1692425*
X2070720Y1698004D02*
G01X2071720Y1699004D01*
X2078251*
X2079220Y1699973*
X2075320Y1665704D02*
G01Y1665741D01*
X2076020Y1666441*
X2081141*
X2074220Y1681721D02*
G01Y1686504D01*
X2076220Y1688504*
Y1697004*
X2074220Y1681721D02*
G01X2075720Y1680221D01*
X2081141*
X2076120Y1686104D02*
G01X2076142Y1686126D01*
X2081141*
X2067520Y1684704D02*
G01X2067720Y1684473D01*
X2070120Y1682073*
Y1663973*
X2070920Y1663173*
X2074920*
X2076220Y1664473*
X2081141*
X2051220Y1683104D02*
G01X2052820Y1681504D01*
X2055720*
X2057720Y1683504*
X2062120*
X2066520Y1687904*
X2071874*
X2072874Y1688904*
Y1692425*
X2081141Y1668410D02*
G01X2084714D01*
X2085770Y1667354*
Y1663904*
X2088420Y1661254*
Y1646904*
X2100220Y1635104*
X2108820*
X2112920Y1631004*
X2149720*
X2153820Y1626904*
X2175520*
X2190370Y1641754*
X2196670*
X2200020Y1638404*
X2207820*
X2081141Y1670378D02*
G01X2085146D01*
X2086020Y1669504*
X2081141Y1672347D02*
G01X2085977D01*
X2087220Y1671104*
X2081141Y1676284D02*
G01X2086220D01*
X2088920Y1673584*
Y1662804*
X2089820Y1661904*
Y1647204*
X2100720Y1636304*
X2109920*
X2113820Y1632404*
X2150420*
X2154620Y1628204*
X2175020*
X2207220Y1660404*
Y1675804*
X2081141Y1678252D02*
G01X2090720D01*
X2092520Y1680052*
Y1689204*
X2055157Y1692425D02*
G01X2055220Y1696910D01*
X2058220Y1699910*
Y1701473*
X2058251Y1701504*
X2051220Y1692425D02*
G01Y1698035D01*
X2051720Y1698535*
X2091720Y1696035D02*
G01X2088220D01*
X2088320Y1695935*
Y1694204*
X2089620Y1692904*
X2084689Y1692504D02*
G01X2088220Y1696035D01*
X2092220Y1663704D02*
G01X2092920Y1663004D01*
X2096720*
X2098520Y1664804*
X2114320*
X2115120Y1664004*
X2089620Y1692904D02*
G01Y1692104D01*
X2092520Y1689204*
Y1666604D02*
G01Y1674404D01*
X2092820Y1674704*
X2092520Y1666604D02*
G01Y1665904D01*
X2093120Y1665304*
X2096620*
X2097320Y1666004*
X2108220*
X2111220Y1669004*
X2116420*
X2115220Y1698904D02*
G01Y1700421D01*
X2094220Y1667004D02*
G01X2095220D01*
X2097620Y1669404*
X2108820*
X2110420Y1671004*
Y1677114*
X2110511*
X2094220Y1685004D02*
G01X2096913D01*
X2096929Y1684988*
X2094220Y1689004D02*
G01X2096850D01*
X2096929Y1688925*
X2094220Y1681004D02*
G01X2096773D01*
X2096820Y1681051*
X2096929*
X2094120Y1691304D02*
G01Y1690894D01*
X2096929*
X2094220Y1669004D02*
G01X2095120D01*
X2100767Y1674651*
Y1675323*
X2094220Y1687004D02*
G01X2096881D01*
X2096929Y1686957*
X2113220Y1693004D02*
G01X2114220D01*
X2114720Y1692504*
X2094120Y1679004D02*
G01X2094199Y1679083D01*
X2096929*
X2094120Y1683004D02*
G01X2096804D01*
X2096820Y1683020*
X2096929*
X2104720Y1692004D02*
G01X2105420Y1692704D01*
X2106654*
X2106673Y1692685*
X2095720Y1674804D02*
G01Y1677114D01*
X2096929*
X2106673Y1660685D02*
G01X2106754Y1660604D01*
X2114420*
X2115120Y1661304*
Y1664004*
X2110511Y1679083D02*
G01Y1678904D01*
X2113220*
X2110511Y1681051D02*
G01X2113173D01*
X2113220Y1681004*
X2110511Y1683020D02*
G01X2114220D01*
X2114720Y1683520*
Y1692504*
X2110511Y1684988D02*
G01X2110527Y1685004D01*
X2113220*
X2110511Y1686957D02*
G01X2110559Y1687004D01*
X2113220*
X2110511Y1688925D02*
G01X2110590Y1689004D01*
X2113220*
X2110511Y1690894D02*
G01Y1691004D01*
X2113220*
X2091720Y1696035D02*
G01X2093820D01*
X2096620Y1698835*
Y1702704*
X2152720Y1686973D02*
G01X2154251Y1688504D01*
Y1688504D02*
G01X2157822D01*
Y1688504D02*
G01X2158822Y1687504D01*
Y1687504D02*
G01Y1683804D01*
X2152720Y1686973D02*
G01X2153720D01*
Y1686973D02*
G01X2152720Y1685973D01*
X2151720Y1661973D02*
G01X2156263D01*
Y1661973D02*
G01Y1660204D01*
X2161381D02*
G01Y1653004D01*
Y1653004D02*
G01X2161751D01*
X2163940Y1660204D02*
G01Y1656004D01*
Y1656004D02*
G01X2165720Y1654224D01*
X2200520Y1696104D02*
G01Y1696604D01*
X2201920Y1698004*
X2206620*
X2210320Y1694304*
X2200751Y1693504D02*
G01Y1693535D01*
X2203220Y1696004*
X2200751Y1693504D02*
G01Y1692004D01*
Y1682004D02*
G01Y1679504D01*
Y1677004*
X2204689Y1692004D02*
G01X2207220D01*
X2208720Y1690504*
X2204689Y1677004D02*
G01X2206020D01*
X2207220Y1675804*
X2200751Y1671004D02*
G01Y1677004D01*
X2204689Y1671004D02*
G01X2204720Y1670973D01*
Y1668504*
X2200751Y1687004D02*
G01Y1692004D01*
X2174176Y1683804D02*
G01Y1682035D01*
Y1682035D02*
G01X2177220D01*
X2171617Y1660204D02*
G01Y1655004D01*
Y1655004D02*
G01X2174220Y1652401D01*
Y1652401D02*
G01Y1643004D01*
X2175720Y1641504*
X2183720*
X2185720Y1643504*
Y1654004*
X2194720Y1663004*
Y1707004*
X2174176Y1660204D02*
G01Y1657004D01*
Y1657004D02*
G01X2177720Y1653460D01*
Y1653460D02*
G01Y1652850D01*
X2000320Y1700504D02*
G01X2006020D01*
X2007220Y1699304*
X1996189Y1706004D02*
G01Y1709504D01*
X1996220Y1709535*
X1996189Y1706004D02*
G01X1996220Y1705973D01*
Y1702804*
X1996920Y1702104*
X1991720Y1710658D02*
G01X1992251Y1710126D01*
Y1706004*
X2030220Y1712520D02*
G01X2031948D01*
X2030220Y1710004D02*
G01Y1710551D01*
X2031948*
X2030320Y1714504D02*
G01Y1714488D01*
X2031948*
X2039220Y1708504D02*
G01Y1704004D01*
X2040220Y1703004*
X2045420*
X2046920Y1701504*
Y1699004*
X2049251Y1696673*
Y1692425*
X2039220Y1708504D02*
G01X2041220Y1710504D01*
X2042602*
X2042866Y1710768*
X2024020Y1699804D02*
G01X2025320Y1698504D01*
X2029535*
X2031535Y1696504*
Y1692425*
X2030220Y1714704D02*
G01X2030320Y1714604D01*
Y1714504*
X2030220Y1712604D02*
G01Y1712520D01*
X2042866Y1710768D02*
G01X2043220Y1711122D01*
Y1713035*
X2043720Y1713535*
X2047720*
X2048689Y1714504*
Y1716504*
X2013720Y1709473D02*
G01X2014651Y1710404D01*
X2015620*
X2016420Y1711204*
X2009720Y1709473D02*
G01X2013720D01*
X2035299Y1722504D02*
G01X2035420Y1722383D01*
Y1719420*
X2037036Y1717804*
Y1714904*
X2030377Y1722504D02*
G01X2030420Y1722461D01*
Y1719804*
X2032020Y1718204*
X2034592*
X2035492Y1717304*
Y1716457*
Y1710551D02*
G01X2036420D01*
X2039296Y1713428*
Y1715180*
X2045141Y1721025*
Y1722504*
X2035492Y1712520D02*
G01X2036520D01*
X2038220Y1714220*
Y1718004*
X2040220Y1720004*
Y1722504*
X2035492Y1714488D02*
G01X2036620D01*
X2037036Y1714904*
X2028492Y1710551D02*
G01X2030220D01*
X2028492Y1712520D02*
G01X2030220D01*
X2028492Y1714488D02*
G01X2028507Y1714504D01*
X2030320*
X2028492Y1716457D02*
G01X2031948D01*
X2027020Y1717904D02*
G01X2027044D01*
X2028492Y1716457*
X2035720Y1703504D02*
G01X2036220D01*
X2043346Y1696378*
Y1692425*
X2030220Y1703504D02*
G01Y1702004D01*
X2033220Y1699004*
X2038720*
X2041377Y1696347*
Y1692425*
X2024720Y1703504D02*
G01Y1702504D01*
X2027220Y1700004*
X2030220*
X2032720Y1697504*
X2037909*
X2039409Y1696004*
Y1692425*
X2048811Y1706004D02*
G01X2050720D01*
X2051720Y1707004*
Y1712004*
X2052720Y1713004*
X2058251*
X2048811Y1706004D02*
G01X2051720Y1703095D01*
Y1702473*
X2048574Y1706240D02*
G01X2048811Y1706004D01*
X2079220Y1699973D02*
G01X2082720D01*
X2058251Y1705004D02*
G01Y1701504D01*
X2054220Y1709973D02*
G01X2054251Y1710004D01*
X2057251*
X2058251Y1709004*
X2054220Y1706035D02*
G01X2055220Y1705035D01*
Y1705004*
X2058251*
X2082720Y1699973D02*
G01Y1703035D01*
X2096236Y1719504D02*
G01Y1722441D01*
X2096299Y1722504*
X2096236Y1719504D02*
G01X2097736Y1718004D01*
Y1717276*
X2101720Y1709504D02*
G01Y1708764D01*
X2107480Y1703004*
Y1700681*
X2089220Y1709204D02*
G01Y1712020D01*
X2089720Y1712520*
X2090992*
X2089220Y1709204D02*
G01X2090420Y1708004D01*
X2100220*
X2103220Y1705004*
Y1700504*
X2107720Y1716004D02*
G01Y1715504D01*
X2109220Y1714004*
X2113960*
X2114960Y1713004*
Y1710327*
X2092820Y1714488D02*
G01X2093020D01*
X2093920Y1713588*
Y1712604*
X2094620Y1711904*
X2097020*
X2097720Y1712604*
Y1713717*
X2097736Y1713732*
X2101720Y1711504D02*
G01Y1709504D01*
X2103220Y1700504D02*
G01Y1699504D01*
X2105228Y1697496*
X2113812*
X2115220Y1698904*
X2105220Y1715504D02*
G01Y1714504D01*
X2107480Y1712244*
Y1710327*
X2106141Y1722504D02*
G01X2106220Y1722425D01*
Y1718776*
X2091377Y1722504D02*
G01X2091492Y1722390D01*
Y1720804*
X2095020Y1717276*
X2095767*
X2101673D02*
G01X2104720D01*
X2106220Y1718776*
X2099704Y1717276D02*
G01Y1718004D01*
X2101220Y1719520*
Y1722504*
X2095767Y1713732D02*
G01X2095820Y1713785D01*
Y1714604*
X2096720Y1715504*
X2105220*
X2101673Y1713732D02*
G01X2101720Y1713685D01*
Y1711504*
X2090992Y1710551D02*
G01X2092039Y1709504D01*
X2101720*
X2090992Y1712520D02*
G01X2091920D01*
X2093836Y1710604*
X2098620*
X2099620Y1711604*
Y1713648*
X2099704Y1713732*
X2090992Y1714488D02*
G01X2092820D01*
X2090992Y1716457D02*
G01X2091039Y1716504D01*
X2093167*
X2095767Y1713904*
Y1713732*
X2114960Y1700681D02*
G01X2115220Y1700421D01*
X2153747Y1706732D02*
G01X2155220D01*
X2156480Y1705473*
Y1702181*
X2143020Y1715957D02*
G01X2144948D01*
Y1713988D02*
G01X2142920D01*
Y1714304*
X2139220Y1712020D02*
G01Y1717004D01*
X2140220Y1718004*
Y1720004*
X2140992Y1712020D02*
G01X2139220D01*
Y1707504*
X2141220Y1705504*
X2152720*
X2154220Y1704004*
Y1699804*
X2155520Y1698504*
X2161520*
X2163720Y1700704*
Y1701941*
X2163960Y1702181*
X2163220Y1715504D02*
G01X2163960D01*
Y1711827*
X2143020Y1717004D02*
G01Y1715957D01*
X2153720Y1709504D02*
G01X2153747Y1709477D01*
Y1706732*
X2148492Y1710051D02*
G01X2149720D01*
X2154720Y1715051*
X2159220*
X2162173Y1718004*
X2165720*
X2167220Y1719504*
X2148492Y1712020D02*
G01X2149720D01*
X2154204Y1716504*
X2158220*
X2162220Y1720504*
Y1722504*
X2148492Y1713988D02*
G01X2149220D01*
X2153220Y1717988*
X2156220*
X2157220Y1718988*
Y1722425*
X2157299Y1722504*
X2148492Y1715957D02*
G01X2152220Y1719685D01*
Y1722347*
X2152377Y1722504*
X2144948Y1715957D02*
G01X2146220D01*
X2146720Y1715457*
Y1708504*
X2147220Y1708004*
X2149720*
X2153720Y1712004*
X2156303*
X2156480Y1711827*
X2144948Y1710051D02*
G01Y1707504D01*
X2145720Y1706732*
X2153747*
X2140992Y1710051D02*
G01X2144948D01*
X2140992Y1712020D02*
G01X2144948D01*
X2140992Y1713988D02*
G01X2142920D01*
X2140992Y1715957D02*
G01X2143020D01*
X2167141Y1722504D02*
G01X2167220Y1722425D01*
Y1719504*
X2116520Y1683704D02*
G01Y1693280D01*
X2116844Y1693604*
X2128420*
Y1686028*
X2126096Y1683704*
X2116520*
Y1678204D02*
G01Y1673304D01*
X2123844*
X2124520Y1672628*
Y1667204*
X2118344*
X2118020Y1666880*
Y1659628*
X2118844Y1658804*
X2130596*
X2130920Y1659128*
Y1669880*
X2130596Y1670204*
X2127096*
X2126420Y1670880*
Y1678204*
X2116520*
X2116663Y1693423D02*
G01X2128420D01*
X2116520Y1692883D02*
G01X2128420D01*
X2116520Y1692343D02*
G01X2128420D01*
X2116520Y1691803D02*
G01X2128420D01*
X2116520Y1691263D02*
G01X2128420D01*
X2116520Y1690723D02*
G01X2128420D01*
X2116520Y1690183D02*
G01X2128420D01*
X2116520Y1689643D02*
G01X2128420D01*
X2116520Y1689103D02*
G01X2128420D01*
X2116520Y1688563D02*
G01X2128420D01*
X2116520Y1688023D02*
G01X2128420D01*
X2116520Y1687483D02*
G01X2128420D01*
X2116520Y1686943D02*
G01X2128420D01*
X2116520Y1686403D02*
G01X2128420D01*
X2116520Y1685863D02*
G01X2128254D01*
X2116520Y1685323D02*
G01X2127714D01*
X2116520Y1684783D02*
G01X2127174D01*
X2116520Y1684243D02*
G01X2126634D01*
X2124520Y1669603D02*
G01X2130920D01*
X2124520Y1669063D02*
G01X2130920D01*
X2124520Y1668523D02*
G01X2130920D01*
X2124520Y1667983D02*
G01X2130920D01*
X2124520Y1667443D02*
G01X2130920D01*
X2118043Y1666903D02*
G01X2130920D01*
X2118020Y1666363D02*
G01X2130920D01*
X2118020Y1665823D02*
G01X2130920D01*
X2118020Y1665283D02*
G01X2130920D01*
X2118020Y1664743D02*
G01X2130920D01*
X2118020Y1664203D02*
G01X2130920D01*
X2118020Y1663663D02*
G01X2130920D01*
X2118020Y1663123D02*
G01X2130920D01*
X2118020Y1662583D02*
G01X2130920D01*
X2118020Y1662043D02*
G01X2130920D01*
X2118020Y1661503D02*
G01X2130920D01*
X2118020Y1660963D02*
G01X2130920D01*
X2118020Y1660423D02*
G01X2130920D01*
X2118020Y1659883D02*
G01X2130920D01*
X2118306Y1659343D02*
G01X2130920D01*
X2124520Y1670143D02*
G01X2130657D01*
X2124520Y1670683D02*
G01X2126617D01*
X2116520Y1677703D02*
G01X2126420D01*
X2116520Y1677163D02*
G01X2126420D01*
X2116520Y1676623D02*
G01X2126420D01*
X2116520Y1676083D02*
G01X2126420D01*
X2116520Y1675543D02*
G01X2126420D01*
X2116520Y1675003D02*
G01X2126420D01*
X2116520Y1674463D02*
G01X2126420D01*
X2116520Y1673923D02*
G01X2126420D01*
X2116520Y1673383D02*
G01X2126420D01*
X2124306Y1672843D02*
G01X2126420D01*
X2124520Y1672303D02*
G01X2126420D01*
X2124520Y1671763D02*
G01X2126420D01*
X2124520Y1671223D02*
G01X2126420D01*
X2161620Y1682109D02*
G01Y1689177D01*
Y1689177D02*
G03X2161618Y1689181I-5D01*
Y1689181D02*
G01X2159597Y1691202D01*
Y1691202D02*
G03X2159593Y1691204I-4J-3D01*
Y1691204D02*
G01X2147596D01*
X2144920Y1693880*
Y1700377*
Y1700377D02*
G03X2144918Y1700381I-5D01*
Y1700381D02*
G01X2143597Y1701702D01*
Y1701702D02*
G03X2143593Y1701704I-4J-3D01*
Y1701704D02*
G01X2129847D01*
Y1701704D02*
G03X2129843Y1701702J-5D01*
Y1701702D02*
G01X2124522Y1696381D01*
Y1696381D02*
G03X2124520Y1696377I3J-4D01*
Y1696377D02*
G01Y1692347D01*
Y1692347D02*
G03X2124525Y1692341I5J-1D01*
Y1692341D02*
G01X2128882D01*
Y1692341D02*
G01X2130343Y1690881D01*
Y1690881D02*
G03X2130346Y1690880I3J3D01*
Y1690879D02*
G01X2142419D01*
X2146343Y1686956*
Y1686956D02*
G03X2146347Y1686954I4J3D01*
Y1686954D02*
G01X2148943D01*
Y1686954D02*
G03X2148947Y1686956J5D01*
Y1686956D02*
G01X2150496Y1688504D01*
X2151593*
Y1688504D02*
G03X2151597Y1688506J5D01*
Y1688506D02*
G01X2153096Y1690004D01*
X2159144*
X2161020Y1688128*
Y1682109*
Y1682109D02*
G03X2161025Y1682104I5D01*
Y1682104D02*
G01X2161615D01*
Y1682104D02*
G03X2161620Y1682109J5D01*
X2150920Y1666131D02*
G01Y1678877D01*
Y1678877D02*
G03X2150918Y1678881I-5D01*
Y1678881D02*
G01X2150097Y1679702D01*
Y1679702D02*
G03X2150093Y1679704I-4J-3D01*
Y1679704D02*
G01X2147347D01*
Y1679704D02*
G03X2147343Y1679702J-5D01*
Y1679702D02*
G01X2142844Y1675204D01*
X2129025*
Y1675204D02*
G03X2129020Y1675199J-5D01*
Y1675199D02*
G01Y1672809D01*
Y1672809D02*
G03X2129025Y1672804I5D01*
Y1672804D02*
G01X2134344D01*
X2136020Y1671128*
Y1657880*
X2134344Y1656204*
X2134025*
Y1656204D02*
G03X2134020Y1656199J-5D01*
Y1656199D02*
G01Y1653131D01*
Y1653131D02*
G03X2134022Y1653127I5D01*
Y1653127D02*
G01X2134843Y1652306D01*
Y1652306D02*
G03X2134847Y1652304I4J3D01*
Y1652304D02*
G01X2143093D01*
Y1652304D02*
G03X2143097Y1652306J5D01*
Y1652306D02*
G01X2148918Y1658127D01*
Y1658127D02*
G03X2148920Y1658131I-3J4D01*
Y1658131D02*
G01Y1664128D01*
X2150918Y1666127*
Y1666127D02*
G03X2150920Y1666131I-3J4D01*
X2140920Y1645309D02*
G01Y1650199D01*
Y1650199D02*
G03X2140915Y1650204I-5D01*
Y1650204D02*
G01X2125596D01*
X2123420Y1652380*
Y1662877*
Y1662877D02*
G03X2123418Y1662881I-5D01*
Y1662881D02*
G01X2122920Y1663380D01*
Y1666699*
Y1666699D02*
G03X2122915Y1666704I-5D01*
Y1666704D02*
G01X2118347D01*
Y1666704D02*
G03X2118343Y1666702J-5D01*
Y1666702D02*
G01X2118022Y1666381D01*
Y1666381D02*
G03X2118020Y1666377I3J-4D01*
Y1666377D02*
G01Y1645309D01*
Y1645309D02*
G03X2118025Y1645304I5D01*
Y1645304D02*
G01X2140915D01*
Y1645304D02*
G03X2140920Y1645309J5D01*
X2169520Y1638632D02*
G01Y1662599D01*
Y1662599D02*
G03X2169515Y1662604I-5D01*
Y1662604D02*
G01X2168725D01*
Y1662604D02*
G03X2168720Y1662599J-5D01*
Y1662599D02*
G01Y1643580D01*
X2166344Y1641204*
X2142596*
X2141097Y1642702*
Y1642702D02*
G03X2141093Y1642704I-4J-3D01*
Y1642704D02*
G01X2117888D01*
Y1642704D02*
G03X2117882Y1642699I-1J-5D01*
Y1642699D02*
G01Y1635268D01*
Y1635268D02*
G03X2117884Y1635264I6D01*
Y1635264D02*
G01X2118843Y1634306D01*
Y1634306D02*
G03X2118847Y1634304I4J3D01*
Y1634304D02*
G01X2165095D01*
Y1634304D02*
G03X2165099Y1634306J5D01*
Y1634306D02*
G01X2169518Y1638629D01*
Y1638629D02*
G03X2169519Y1638632I-3J3D01*
X2164420Y1681609D02*
G01Y1690877D01*
Y1690877D02*
G03X2164418Y1690881I-5D01*
Y1690881D02*
G01X2162936Y1692364D01*
X2162934Y1692365*
X2162581Y1692718D02*
G03X2162934Y1692365I639J286D01*
X2162581Y1692718D02*
G01X2162580Y1692720D01*
X2159697Y1695602*
Y1695602D02*
G03X2159693Y1695604I-4J-3D01*
Y1695604D02*
G01X2153805D01*
X2152007Y1697502*
Y1697502D02*
G03X2152003Y1697504I-4J-3D01*
Y1697504D02*
G01X2150725D01*
Y1697504D02*
G03X2150720Y1697499J-5D01*
Y1697499D02*
G01Y1692609D01*
Y1692609D02*
G03X2150725Y1692604I5D01*
Y1692604D02*
G01X2160144D01*
X2163520Y1689228*
Y1681609*
Y1681609D02*
G03X2163525Y1681604I5D01*
Y1681604D02*
G01X2164415D01*
Y1681604D02*
G03X2164420Y1681609J5D01*
X2127920Y1622809D02*
G01Y1629199D01*
Y1629199D02*
G03X2127915Y1629204I-5D01*
Y1629204D02*
G01X2114847D01*
Y1629204D02*
G03X2114843Y1629202J-5D01*
Y1629202D02*
G01X2114522Y1628881D01*
Y1628881D02*
G03X2114520Y1628877I3J-4D01*
Y1628877D02*
G01Y1623631D01*
Y1623631D02*
G03X2114522Y1623627I5D01*
Y1623627D02*
G01X2115343Y1622806D01*
Y1622806D02*
G03X2115347Y1622804I4J3D01*
Y1622804D02*
G01X2127915D01*
Y1622804D02*
G03X2127920Y1622809J5D01*
X2189320Y1677509D02*
G01Y1692677D01*
Y1692677D02*
G03X2189318Y1692681I-5D01*
Y1692681D02*
G01X2188397Y1693602D01*
Y1693602D02*
G03X2188393Y1693604I-4J-3D01*
Y1693604D02*
G01X2168247D01*
Y1693604D02*
G03X2168243Y1693602J-5D01*
Y1693602D02*
G01X2166022Y1691381D01*
Y1691381D02*
G03X2166020Y1691377I3J-4D01*
Y1691377D02*
G01Y1681309D01*
Y1681309D02*
G03X2166025Y1681304I5D01*
Y1681304D02*
G01X2166915D01*
Y1681304D02*
G03X2166920Y1681309J5D01*
Y1681309D02*
G01Y1689428D01*
X2168796Y1691304*
X2181844*
X2183020Y1690128*
Y1677509*
Y1677509D02*
G03X2183025Y1677504I5D01*
Y1677504D02*
G01X2189315D01*
Y1677504D02*
G03X2189320Y1677509J5D01*
X2189420Y1661809D02*
G01Y1670199D01*
Y1670199D02*
G03X2189415Y1670204I-5D01*
Y1670204D02*
G01X2182596D01*
X2181420Y1671380*
Y1685377*
Y1685377D02*
G03X2181418Y1685381I-5D01*
Y1685381D02*
G01X2177097Y1689702D01*
Y1689702D02*
G03X2177093Y1689704I-4J-3D01*
Y1689704D02*
G01X2170347D01*
Y1689704D02*
G03X2170343Y1689702J-5D01*
Y1689702D02*
G01X2169022Y1688381D01*
Y1688381D02*
G03X2169020Y1688377I3J-4D01*
Y1688377D02*
G01Y1688309D01*
Y1688309D02*
G03X2169025Y1688304I5D01*
Y1688304D02*
G01X2175844D01*
X2176520Y1687628*
Y1685309*
Y1685309D02*
G03X2176525Y1685304I5D01*
Y1685304D02*
G01X2178844D01*
X2180020Y1684128*
Y1679880*
X2179522Y1679381*
Y1679381D02*
G03X2179520Y1679377I3J-4D01*
Y1679377D02*
G01Y1662631D01*
Y1662631D02*
G03X2179522Y1662627I5D01*
Y1662627D02*
G01X2180343Y1661806D01*
Y1661806D02*
G03X2180347Y1661804I4J3D01*
Y1661804D02*
G01X2189415D01*
Y1661804D02*
G03X2189420Y1661809J5D01*
X2125920Y1666309D02*
G01Y1678199D01*
Y1678199D02*
G03X2125915Y1678204I-5D01*
Y1678204D02*
G01X2116525D01*
Y1678204D02*
G03X2116520Y1678199J-5D01*
Y1678199D02*
G01Y1672809D01*
Y1672809D02*
G03X2116525Y1672804I5D01*
Y1672804D02*
G01X2124520D01*
Y1666309*
Y1666309D02*
G03X2124525Y1666304I5D01*
Y1666304D02*
G01X2125915D01*
Y1666304D02*
G03X2125920Y1666309J5D01*
X2164420Y1615309D02*
G01Y1624199D01*
Y1624199D02*
G03X2164415Y1624204I-5D01*
Y1624204D02*
G01X2151596D01*
X2146597Y1629202*
Y1629202D02*
G03X2146593Y1629204I-4J-3D01*
Y1629204D02*
G01X2134525D01*
Y1629204D02*
G03X2134520Y1629199J-5D01*
Y1629199D02*
G01Y1620131D01*
Y1620131D02*
G03X2134522Y1620127I5D01*
Y1620127D02*
G01X2135343Y1619306D01*
Y1619306D02*
G03X2135347Y1619304I4J3D01*
Y1619304D02*
G01X2136844D01*
X2139843Y1616306*
Y1616306D02*
G03X2139847Y1616304I4J3D01*
Y1616304D02*
G01X2156844D01*
X2157843Y1615306*
Y1615306D02*
G03X2157847Y1615304I4J3D01*
Y1615304D02*
G01X2164415D01*
Y1615304D02*
G03X2164420Y1615309J5D01*
X2160026Y1689123D02*
G01X2161620D01*
X2160566Y1688583D02*
G01X2161620D01*
X2161020Y1688043D02*
G01X2161620D01*
X2161020Y1687503D02*
G01X2161620D01*
X2161020Y1686963D02*
G01X2161620D01*
X2161020Y1686423D02*
G01X2161620D01*
X2161020Y1685883D02*
G01X2161620D01*
X2161020Y1685343D02*
G01X2161620D01*
X2161020Y1684803D02*
G01X2161620D01*
X2161020Y1684263D02*
G01X2161620D01*
X2161020Y1683723D02*
G01X2161620D01*
X2161020Y1683183D02*
G01X2161620D01*
X2161020Y1682643D02*
G01X2161620D01*
X2159486Y1689663D02*
G01X2161137D01*
X2143096Y1690203D02*
G01X2160597D01*
X2142556Y1690743D02*
G01X2160057D01*
X2143636Y1689663D02*
G01X2152754D01*
X2144176Y1689123D02*
G01X2152214D01*
X2144716Y1688583D02*
G01X2151674D01*
X2145256Y1688043D02*
G01X2150034D01*
X2145796Y1687503D02*
G01X2149494D01*
X2146336Y1686963D02*
G01X2148954D01*
X2129941Y1691283D02*
G01X2147517D01*
X2129401Y1691823D02*
G01X2146977D01*
X2124520Y1692363D02*
G01X2146437D01*
X2124520Y1692903D02*
G01X2145897D01*
X2124520Y1693443D02*
G01X2145357D01*
X2128063Y1699923D02*
G01X2144920D01*
X2127523Y1699383D02*
G01X2144920D01*
X2126983Y1698843D02*
G01X2144920D01*
X2126443Y1698303D02*
G01X2144920D01*
X2125903Y1697763D02*
G01X2144920D01*
X2125363Y1697223D02*
G01X2144920D01*
X2124823Y1696683D02*
G01X2144920D01*
X2124520Y1696143D02*
G01X2144920D01*
X2124520Y1695603D02*
G01X2144920D01*
X2124520Y1695063D02*
G01X2144920D01*
X2124520Y1694523D02*
G01X2144920D01*
X2124520Y1693983D02*
G01X2144920D01*
X2128603Y1700463D02*
G01X2144837D01*
X2129143Y1701003D02*
G01X2144297D01*
X2129683Y1701543D02*
G01X2143757D01*
X2146403Y1678763D02*
G01X2150920D01*
X2145863Y1678223D02*
G01X2150920D01*
X2145323Y1677683D02*
G01X2150920D01*
X2144783Y1677143D02*
G01X2150920D01*
X2144243Y1676603D02*
G01X2150920D01*
X2143703Y1676063D02*
G01X2150920D01*
X2143163Y1675523D02*
G01X2150920D01*
X2129020Y1674983D02*
G01X2150920D01*
X2129020Y1674443D02*
G01X2150920D01*
X2129020Y1673903D02*
G01X2150920D01*
X2129020Y1673363D02*
G01X2150920D01*
X2129020Y1672823D02*
G01X2150920D01*
X2134866Y1672283D02*
G01X2150920D01*
X2135406Y1671743D02*
G01X2150920D01*
X2135946Y1671203D02*
G01X2150920D01*
X2136020Y1670663D02*
G01X2150920D01*
X2136020Y1670123D02*
G01X2150920D01*
X2136020Y1669583D02*
G01X2150920D01*
X2136020Y1669043D02*
G01X2150920D01*
X2136020Y1668503D02*
G01X2150920D01*
X2136020Y1667963D02*
G01X2150920D01*
X2136020Y1667423D02*
G01X2150920D01*
X2136020Y1666883D02*
G01X2150920D01*
X2136020Y1666343D02*
G01X2150920D01*
X2136020Y1665803D02*
G01X2150594D01*
X2146943Y1679303D02*
G01X2150497D01*
X2136020Y1665263D02*
G01X2150054D01*
X2136020Y1664723D02*
G01X2149514D01*
X2136020Y1664183D02*
G01X2148974D01*
X2136020Y1663643D02*
G01X2148920D01*
X2136020Y1663103D02*
G01X2148920D01*
X2136020Y1662563D02*
G01X2148920D01*
X2136020Y1662023D02*
G01X2148920D01*
X2136020Y1661483D02*
G01X2148920D01*
X2136020Y1660943D02*
G01X2148920D01*
X2136020Y1660403D02*
G01X2148920D01*
X2136020Y1659863D02*
G01X2148920D01*
X2136020Y1659323D02*
G01X2148920D01*
X2136020Y1658783D02*
G01X2148920D01*
X2136020Y1658243D02*
G01X2148920D01*
X2135843Y1657703D02*
G01X2148494D01*
X2135303Y1657163D02*
G01X2147954D01*
X2134763Y1656623D02*
G01X2147414D01*
X2134020Y1656083D02*
G01X2146874D01*
X2134020Y1655543D02*
G01X2146334D01*
X2134020Y1655003D02*
G01X2145794D01*
X2134020Y1654463D02*
G01X2145254D01*
X2134020Y1653923D02*
G01X2144714D01*
X2134020Y1653383D02*
G01X2144174D01*
X2134306Y1652843D02*
G01X2143634D01*
X2118020Y1650163D02*
G01X2140920D01*
X2118020Y1649623D02*
G01X2140920D01*
X2118020Y1649083D02*
G01X2140920D01*
X2118020Y1648543D02*
G01X2140920D01*
X2118020Y1648003D02*
G01X2140920D01*
X2118020Y1647463D02*
G01X2140920D01*
X2118020Y1646923D02*
G01X2140920D01*
X2118020Y1646383D02*
G01X2140920D01*
X2118020Y1645843D02*
G01X2140920D01*
X2118020Y1650703D02*
G01X2125097D01*
X2118020Y1651243D02*
G01X2124557D01*
X2118020Y1651783D02*
G01X2124017D01*
X2118020Y1652323D02*
G01X2123477D01*
X2118020Y1662583D02*
G01X2123420D01*
X2118020Y1662043D02*
G01X2123420D01*
X2118020Y1661503D02*
G01X2123420D01*
X2118020Y1660963D02*
G01X2123420D01*
X2118020Y1660423D02*
G01X2123420D01*
X2118020Y1659883D02*
G01X2123420D01*
X2118020Y1659343D02*
G01X2123420D01*
X2118020Y1658803D02*
G01X2123420D01*
X2118020Y1658263D02*
G01X2123420D01*
X2118020Y1657723D02*
G01X2123420D01*
X2118020Y1657183D02*
G01X2123420D01*
X2118020Y1656643D02*
G01X2123420D01*
X2118020Y1656103D02*
G01X2123420D01*
X2118020Y1655563D02*
G01X2123420D01*
X2118020Y1655023D02*
G01X2123420D01*
X2118020Y1654483D02*
G01X2123420D01*
X2118020Y1653943D02*
G01X2123420D01*
X2118020Y1653403D02*
G01X2123420D01*
X2118020Y1652863D02*
G01X2123420D01*
X2118020Y1663123D02*
G01X2123177D01*
X2118020Y1666363D02*
G01X2122920D01*
X2118020Y1665823D02*
G01X2122920D01*
X2118020Y1665283D02*
G01X2122920D01*
X2118020Y1664743D02*
G01X2122920D01*
X2118020Y1664203D02*
G01X2122920D01*
X2118020Y1663663D02*
G01X2122920D01*
X2168720Y1662383D02*
G01X2169520D01*
X2168720Y1661843D02*
G01X2169520D01*
X2168720Y1661303D02*
G01X2169520D01*
X2168720Y1660763D02*
G01X2169520D01*
X2168720Y1660223D02*
G01X2169520D01*
X2168720Y1659683D02*
G01X2169520D01*
X2168720Y1659143D02*
G01X2169520D01*
X2168720Y1658603D02*
G01X2169520D01*
X2168720Y1658063D02*
G01X2169520D01*
X2168720Y1657523D02*
G01X2169520D01*
X2168720Y1656983D02*
G01X2169520D01*
X2168720Y1656443D02*
G01X2169520D01*
X2168720Y1655903D02*
G01X2169520D01*
X2168720Y1655363D02*
G01X2169520D01*
X2168720Y1654823D02*
G01X2169520D01*
X2168720Y1654283D02*
G01X2169520D01*
X2168720Y1653743D02*
G01X2169520D01*
X2168720Y1653203D02*
G01X2169520D01*
X2168720Y1652663D02*
G01X2169520D01*
X2168720Y1652123D02*
G01X2169520D01*
X2168720Y1651583D02*
G01X2169520D01*
X2168720Y1651043D02*
G01X2169520D01*
X2168720Y1650503D02*
G01X2169520D01*
X2168720Y1649963D02*
G01X2169520D01*
X2168720Y1649423D02*
G01X2169520D01*
X2168720Y1648883D02*
G01X2169520D01*
X2168720Y1648343D02*
G01X2169520D01*
X2168720Y1647803D02*
G01X2169520D01*
X2168720Y1647263D02*
G01X2169520D01*
X2168720Y1646723D02*
G01X2169520D01*
X2168720Y1646183D02*
G01X2169520D01*
X2168720Y1645643D02*
G01X2169520D01*
X2168720Y1645103D02*
G01X2169520D01*
X2168720Y1644563D02*
G01X2169520D01*
X2168720Y1644023D02*
G01X2169520D01*
X2168623Y1643483D02*
G01X2169520D01*
X2168083Y1642943D02*
G01X2169520D01*
X2167543Y1642403D02*
G01X2169520D01*
X2167003Y1641863D02*
G01X2169520D01*
X2166463Y1641323D02*
G01X2169520D01*
X2117882Y1640783D02*
G01X2169520D01*
X2117882Y1640243D02*
G01X2169520D01*
X2117882Y1639703D02*
G01X2169520D01*
X2117882Y1639163D02*
G01X2169520D01*
X2117882Y1638623D02*
G01X2169512D01*
X2117882Y1638083D02*
G01X2168960D01*
X2117882Y1637543D02*
G01X2168408D01*
X2117882Y1637003D02*
G01X2167856D01*
X2117882Y1636463D02*
G01X2167304D01*
X2117882Y1635923D02*
G01X2166752D01*
X2117882Y1635383D02*
G01X2166200D01*
X2118306Y1634843D02*
G01X2165648D01*
X2117882Y1641323D02*
G01X2142477D01*
X2117882Y1641863D02*
G01X2141937D01*
X2117882Y1642403D02*
G01X2141397D01*
X2161966Y1690783D02*
G01X2164420D01*
X2162506Y1690243D02*
G01X2164420D01*
X2163046Y1689703D02*
G01X2164420D01*
X2163520Y1689163D02*
G01X2164420D01*
X2163520Y1688623D02*
G01X2164420D01*
X2163520Y1688083D02*
G01X2164420D01*
X2163520Y1687543D02*
G01X2164420D01*
X2163520Y1687003D02*
G01X2164420D01*
X2163520Y1686463D02*
G01X2164420D01*
X2163520Y1685923D02*
G01X2164420D01*
X2163520Y1685383D02*
G01X2164420D01*
X2163520Y1684843D02*
G01X2164420D01*
X2163520Y1684303D02*
G01X2164420D01*
X2163520Y1683763D02*
G01X2164420D01*
X2163520Y1683223D02*
G01X2164420D01*
X2163520Y1682683D02*
G01X2164420D01*
X2163520Y1682143D02*
G01X2164420D01*
X2161426Y1691323D02*
G01X2163977D01*
X2160886Y1691863D02*
G01X2163437D01*
X2160346Y1692403D02*
G01X2162862D01*
X2150720Y1692943D02*
G01X2162357D01*
X2150720Y1693483D02*
G01X2161817D01*
X2150720Y1694023D02*
G01X2161277D01*
X2150720Y1694563D02*
G01X2160737D01*
X2150720Y1695103D02*
G01X2160197D01*
X2150720Y1695643D02*
G01X2153768D01*
X2150720Y1696183D02*
G01X2153257D01*
X2150720Y1696723D02*
G01X2152745D01*
X2150720Y1697263D02*
G01X2152234D01*
X2114520Y1628743D02*
G01X2127920D01*
X2114520Y1628203D02*
G01X2127920D01*
X2114520Y1627663D02*
G01X2127920D01*
X2114520Y1627123D02*
G01X2127920D01*
X2114520Y1626583D02*
G01X2127920D01*
X2114520Y1626043D02*
G01X2127920D01*
X2114520Y1625503D02*
G01X2127920D01*
X2114520Y1624963D02*
G01X2127920D01*
X2114520Y1624423D02*
G01X2127920D01*
X2114520Y1623883D02*
G01X2127920D01*
X2114806Y1623343D02*
G01X2127920D01*
X2167263Y1692623D02*
G01X2189320D01*
X2166723Y1692083D02*
G01X2189320D01*
X2166183Y1691543D02*
G01X2189320D01*
X2182146Y1691003D02*
G01X2189320D01*
X2182686Y1690463D02*
G01X2189320D01*
X2183020Y1689923D02*
G01X2189320D01*
X2183020Y1689383D02*
G01X2189320D01*
X2183020Y1688843D02*
G01X2189320D01*
X2183020Y1688303D02*
G01X2189320D01*
X2183020Y1687763D02*
G01X2189320D01*
X2183020Y1687223D02*
G01X2189320D01*
X2183020Y1686683D02*
G01X2189320D01*
X2183020Y1686143D02*
G01X2189320D01*
X2183020Y1685603D02*
G01X2189320D01*
X2183020Y1685063D02*
G01X2189320D01*
X2183020Y1684523D02*
G01X2189320D01*
X2183020Y1683983D02*
G01X2189320D01*
X2183020Y1683443D02*
G01X2189320D01*
X2183020Y1682903D02*
G01X2189320D01*
X2183020Y1682363D02*
G01X2189320D01*
X2183020Y1681823D02*
G01X2189320D01*
X2183020Y1681283D02*
G01X2189320D01*
X2183020Y1680743D02*
G01X2189320D01*
X2183020Y1680203D02*
G01X2189320D01*
X2183020Y1679663D02*
G01X2189320D01*
X2183020Y1679123D02*
G01X2189320D01*
X2183020Y1678583D02*
G01X2189320D01*
X2183020Y1678043D02*
G01X2189320D01*
X2167803Y1693163D02*
G01X2188837D01*
X2166020Y1691003D02*
G01X2168494D01*
X2166020Y1690463D02*
G01X2167954D01*
X2166020Y1689923D02*
G01X2167414D01*
X2166020Y1689383D02*
G01X2166920D01*
X2166020Y1688843D02*
G01X2166920D01*
X2166020Y1688303D02*
G01X2166920D01*
X2166020Y1687763D02*
G01X2166920D01*
X2166020Y1687223D02*
G01X2166920D01*
X2166020Y1686683D02*
G01X2166920D01*
X2166020Y1686143D02*
G01X2166920D01*
X2166020Y1685603D02*
G01X2166920D01*
X2166020Y1685063D02*
G01X2166920D01*
X2166020Y1684523D02*
G01X2166920D01*
X2166020Y1683983D02*
G01X2166920D01*
X2166020Y1683443D02*
G01X2166920D01*
X2166020Y1682903D02*
G01X2166920D01*
X2166020Y1682363D02*
G01X2166920D01*
X2166020Y1681823D02*
G01X2166920D01*
X2179520Y1669903D02*
G01X2189420D01*
X2179520Y1669363D02*
G01X2189420D01*
X2179520Y1668823D02*
G01X2189420D01*
X2179520Y1668283D02*
G01X2189420D01*
X2179520Y1667743D02*
G01X2189420D01*
X2179520Y1667203D02*
G01X2189420D01*
X2179520Y1666663D02*
G01X2189420D01*
X2179520Y1666123D02*
G01X2189420D01*
X2179520Y1665583D02*
G01X2189420D01*
X2179520Y1665043D02*
G01X2189420D01*
X2179520Y1664503D02*
G01X2189420D01*
X2179520Y1663963D02*
G01X2189420D01*
X2179520Y1663423D02*
G01X2189420D01*
X2179520Y1662883D02*
G01X2189420D01*
X2179806Y1662343D02*
G01X2189420D01*
X2179520Y1670443D02*
G01X2182357D01*
X2179520Y1670983D02*
G01X2181817D01*
X2179126Y1685023D02*
G01X2181420D01*
X2179666Y1684483D02*
G01X2181420D01*
X2180020Y1683943D02*
G01X2181420D01*
X2180020Y1683403D02*
G01X2181420D01*
X2180020Y1682863D02*
G01X2181420D01*
X2180020Y1682323D02*
G01X2181420D01*
X2180020Y1681783D02*
G01X2181420D01*
X2180020Y1681243D02*
G01X2181420D01*
X2180020Y1680703D02*
G01X2181420D01*
X2180020Y1680163D02*
G01X2181420D01*
X2179763Y1679623D02*
G01X2181420D01*
X2179520Y1679083D02*
G01X2181420D01*
X2179520Y1678543D02*
G01X2181420D01*
X2179520Y1678003D02*
G01X2181420D01*
X2179520Y1677463D02*
G01X2181420D01*
X2179520Y1676923D02*
G01X2181420D01*
X2179520Y1676383D02*
G01X2181420D01*
X2179520Y1675843D02*
G01X2181420D01*
X2179520Y1675303D02*
G01X2181420D01*
X2179520Y1674763D02*
G01X2181420D01*
X2179520Y1674223D02*
G01X2181420D01*
X2179520Y1673683D02*
G01X2181420D01*
X2179520Y1673143D02*
G01X2181420D01*
X2179520Y1672603D02*
G01X2181420D01*
X2179520Y1672063D02*
G01X2181420D01*
X2179520Y1671523D02*
G01X2181420D01*
X2176520Y1685563D02*
G01X2181237D01*
X2176520Y1686103D02*
G01X2180697D01*
X2176520Y1686643D02*
G01X2180157D01*
X2176520Y1687183D02*
G01X2179617D01*
X2176426Y1687723D02*
G01X2179077D01*
X2175886Y1688263D02*
G01X2178537D01*
X2169443Y1688803D02*
G01X2177997D01*
X2169983Y1689343D02*
G01X2177457D01*
X2116520Y1678183D02*
G01X2125920D01*
X2116520Y1677643D02*
G01X2125920D01*
X2116520Y1677103D02*
G01X2125920D01*
X2116520Y1676563D02*
G01X2125920D01*
X2116520Y1676023D02*
G01X2125920D01*
X2116520Y1675483D02*
G01X2125920D01*
X2116520Y1674943D02*
G01X2125920D01*
X2116520Y1674403D02*
G01X2125920D01*
X2116520Y1673863D02*
G01X2125920D01*
X2116520Y1673323D02*
G01X2125920D01*
X2124520Y1672783D02*
G01X2125920D01*
X2124520Y1672243D02*
G01X2125920D01*
X2124520Y1671703D02*
G01X2125920D01*
X2124520Y1671163D02*
G01X2125920D01*
X2124520Y1670623D02*
G01X2125920D01*
X2124520Y1670083D02*
G01X2125920D01*
X2124520Y1669543D02*
G01X2125920D01*
X2124520Y1669003D02*
G01X2125920D01*
X2124520Y1668463D02*
G01X2125920D01*
X2124520Y1667923D02*
G01X2125920D01*
X2124520Y1667383D02*
G01X2125920D01*
X2124520Y1666843D02*
G01X2125920D01*
X2134520Y1623943D02*
G01X2164420D01*
X2134520Y1623403D02*
G01X2164420D01*
X2134520Y1622863D02*
G01X2164420D01*
X2134520Y1622323D02*
G01X2164420D01*
X2134520Y1621783D02*
G01X2164420D01*
X2134520Y1621243D02*
G01X2164420D01*
X2134520Y1620703D02*
G01X2164420D01*
X2134520Y1620163D02*
G01X2164420D01*
X2135026Y1619623D02*
G01X2164420D01*
X2137066Y1619083D02*
G01X2164420D01*
X2137606Y1618543D02*
G01X2164420D01*
X2138146Y1618003D02*
G01X2164420D01*
X2138686Y1617463D02*
G01X2164420D01*
X2139226Y1616923D02*
G01X2164420D01*
X2139766Y1616383D02*
G01X2164420D01*
X2157306Y1615843D02*
G01X2164420D01*
X2134520Y1624483D02*
G01X2151317D01*
X2134520Y1625023D02*
G01X2150777D01*
X2134520Y1625563D02*
G01X2150237D01*
X2134520Y1626103D02*
G01X2149697D01*
X2134520Y1626643D02*
G01X2149157D01*
X2134520Y1627183D02*
G01X2148617D01*
X2134520Y1627723D02*
G01X2148077D01*
X2134520Y1628263D02*
G01X2147537D01*
X2134520Y1628803D02*
G01X2146997D01*
G54D12*
X2006220Y1614004D02*
G01X2007460Y1612764D01*
Y1610181*
X1994220Y1609035D02*
G01X1999980D01*
Y1610181*
Y1613264*
X2000220Y1613504*
X2007460Y1610181D02*
G01Y1609035D01*
X2012220*
X1994220Y1620973D02*
G01X1999980D01*
Y1619827*
X2007460D02*
G01Y1620973D01*
X2012220*
X1999980Y1619827D02*
G01X2000220Y1619587D01*
Y1616504*
X2032220Y1643504D02*
G01X2034920D01*
X2042120Y1650704*
X2051720*
X2053020Y1652004*
Y1655604*
X2057020Y1659604*
Y1661704*
X2059620Y1664304*
X2060720*
X2037220Y1643504D02*
G01Y1644004D01*
X2042720Y1649504*
X2052220*
X2054220Y1651504*
Y1655004*
X2058220Y1659004*
Y1661204*
X2059720Y1662704*
X2062320*
X2063920Y1664304*
X2012220Y1620973D02*
G01X2012251Y1620504D01*
X2014720*
X2056720Y1643504D02*
G01Y1653004D01*
X2063820Y1660104*
Y1661104*
X2048720Y1643004D02*
G01X2050220D01*
X2055520Y1648304*
Y1653604*
X2060720Y1658804*
Y1661104*
X2191720Y1637504D02*
G01X2192689D01*
X2194220Y1635973*
X2196220Y1639504D02*
G01X2197020D01*
X2200520Y1636004*
X2201689*
X2201720Y1635973*
X2190220Y1625681D02*
G01X2191397Y1624504D01*
X2194189*
X2194220Y1624535*
X2201720D02*
G01X2201751Y1624504D01*
X2204720*
G54D13*
X2148696Y1672634D02*
G01X2128744D01*
Y1679595*
X2131772*
X2131818Y1679448*
X2132209Y1678690*
X2133302Y1677378*
X2134654Y1676335*
X2136200Y1675611*
X2137866Y1675240*
X2139574*
X2141240Y1675611*
X2142786Y1676335*
X2144138Y1677378*
X2145231Y1678690*
X2145622Y1679448*
X2145668Y1679595*
X2148696*
Y1672634*
X2129129D02*
G01Y1679595D01*
X2129586Y1672634D02*
G01Y1679595D01*
X2130043Y1672634D02*
G01Y1679595D01*
X2130500Y1672634D02*
G01Y1679595D01*
X2130956Y1672634D02*
G01Y1679595D01*
X2131413Y1672634D02*
G01Y1679595D01*
X2131870Y1672634D02*
G01Y1679348D01*
X2132326Y1672634D02*
G01Y1678549D01*
X2132783Y1672634D02*
G01Y1678001D01*
X2133240Y1672634D02*
G01Y1677452D01*
X2133696Y1672634D02*
G01Y1677074D01*
X2134153Y1672634D02*
G01Y1676721D01*
X2134610Y1672634D02*
G01Y1676369D01*
X2135066Y1672634D02*
G01Y1676142D01*
X2135523Y1672634D02*
G01Y1675928D01*
X2135980Y1672634D02*
G01Y1675714D01*
X2136437Y1672634D02*
G01Y1675558D01*
X2136893Y1672634D02*
G01Y1675457D01*
X2137350Y1672634D02*
G01Y1675355D01*
X2137807Y1672634D02*
G01Y1675253D01*
X2138263Y1672634D02*
G01Y1675240D01*
X2138720Y1672634D02*
G01Y1675240D01*
X2139177Y1672634D02*
G01Y1675240D01*
X2139633Y1672634D02*
G01Y1675253D01*
X2140090Y1672634D02*
G01Y1675355D01*
X2140547Y1672634D02*
G01Y1675457D01*
X2141003Y1672634D02*
G01Y1675558D01*
X2141460Y1672634D02*
G01Y1675714D01*
X2141917Y1672634D02*
G01Y1675928D01*
X2142374Y1672634D02*
G01Y1676142D01*
X2142830Y1672634D02*
G01Y1676369D01*
X2143287Y1672634D02*
G01Y1676721D01*
X2143744Y1672634D02*
G01Y1677074D01*
X2144200Y1672634D02*
G01Y1677452D01*
X2144657Y1672634D02*
G01Y1678001D01*
X2145114Y1672634D02*
G01Y1678549D01*
X2145570Y1672634D02*
G01Y1679348D01*
X2146027Y1672634D02*
G01Y1679595D01*
X2146484Y1672634D02*
G01Y1679595D01*
X2146940Y1672634D02*
G01Y1679595D01*
X2147397Y1672634D02*
G01Y1679595D01*
X2147854Y1672634D02*
G01Y1679595D01*
X2148311Y1672634D02*
G01Y1679595D01*
X2148696Y1686413D02*
G01X2145668D01*
X2145622Y1686560*
X2145231Y1687318*
X2144138Y1688630*
X2142786Y1689673*
X2141240Y1690397*
X2139574Y1690768*
X2137866*
X2136200Y1690397*
X2134654Y1689673*
X2133302Y1688630*
X2132209Y1687318*
X2131818Y1686560*
X2131772Y1686413*
X2128744*
Y1693374*
X2148696*
Y1686413*
X2129129D02*
G01Y1693374D01*
X2129586Y1686413D02*
G01Y1693374D01*
X2130043Y1686413D02*
G01Y1693374D01*
X2130500Y1686413D02*
G01Y1693374D01*
X2130956Y1686413D02*
G01Y1693374D01*
X2131413Y1686413D02*
G01Y1693374D01*
X2131870Y1686660D02*
G01Y1693374D01*
X2132326Y1687459D02*
G01Y1693374D01*
X2132783Y1688007D02*
G01Y1693374D01*
X2133240Y1688556D02*
G01Y1693374D01*
X2133696Y1688934D02*
G01Y1693374D01*
X2134153Y1689287D02*
G01Y1693374D01*
X2134610Y1689639D02*
G01Y1693374D01*
X2135066Y1689866D02*
G01Y1693374D01*
X2135523Y1690080D02*
G01Y1693374D01*
X2135980Y1690294D02*
G01Y1693374D01*
X2136437Y1690450D02*
G01Y1693374D01*
X2136893Y1690551D02*
G01Y1693374D01*
X2137350Y1690653D02*
G01Y1693374D01*
X2137807Y1690755D02*
G01Y1693374D01*
X2138263Y1690768D02*
G01Y1693374D01*
X2138720Y1690768D02*
G01Y1693374D01*
X2139177Y1690768D02*
G01Y1693374D01*
X2139633Y1690755D02*
G01Y1693374D01*
X2140090Y1690653D02*
G01Y1693374D01*
X2140547Y1690551D02*
G01Y1693374D01*
X2141003Y1690450D02*
G01Y1693374D01*
X2141460Y1690294D02*
G01Y1693374D01*
X2141917Y1690080D02*
G01Y1693374D01*
X2142374Y1689866D02*
G01Y1693374D01*
X2142830Y1689639D02*
G01Y1693374D01*
X2143287Y1689287D02*
G01Y1693374D01*
X2143744Y1688934D02*
G01Y1693374D01*
X2144200Y1688556D02*
G01Y1693374D01*
X2144657Y1688007D02*
G01Y1693374D01*
X2145114Y1687459D02*
G01Y1693374D01*
X2145570Y1686660D02*
G01Y1693374D01*
X2146027Y1686413D02*
G01Y1693374D01*
X2146484Y1686413D02*
G01Y1693374D01*
X2146940Y1686413D02*
G01Y1693374D01*
X2147397Y1686413D02*
G01Y1693374D01*
X2147854Y1686413D02*
G01Y1693374D01*
X2148311Y1686413D02*
G01Y1693374D01*
G54D14*
X2007689Y1605004D02*
G01X2013720D01*
X2015320Y1606604*
Y1611404*
X2015920Y1612804D02*
G01Y1617173D01*
X2017220Y1618473*
X2019220*
X2015920Y1612804D02*
G01X2017320Y1611404D01*
Y1605004*
X2012220Y1612973D02*
G01X2012251Y1613004D01*
X2013720*
X2015320Y1611404*
X2019220Y1618473D02*
G01X2021220D01*
X2022220Y1617473*
X2027220*
X2028720Y1618973*
Y1621327*
X2019220Y1614535D02*
G01X2021220D01*
X2022189Y1615504*
X2027720*
X2028720Y1614504*
X2019220Y1614535D02*
G01Y1610004D01*
X2021220Y1608004*
X2023220*
X2024720Y1606504*
X2031620*
X2032920Y1605204*
Y1592804*
X2033720Y1592004*
X2053251Y1604504D02*
G01Y1603004D01*
X2054251Y1602004*
X2061220*
X2062220Y1601004*
Y1600004*
X2124220Y1614604D02*
G01Y1615504D01*
X2125720Y1617004*
X2136220*
X2104720Y1616004D02*
G01X2106673D01*
Y1614276*
X2102720Y1616004D02*
G01Y1614291D01*
X2102736Y1614276*
X2102720Y1616004D02*
G01X2104720D01*
X2106673Y1614276D02*
G01X2111720D01*
X2115492Y1610504*
X2120397*
X2104704Y1614276D02*
G01X2104720Y1614291D01*
Y1616004*
X2100767Y1614276D02*
G01Y1616004D01*
X2102720*
X2120397Y1610504D02*
G01X2123220D01*
X2124220Y1611504*
Y1614604*
X2136220Y1617004D02*
G01X2137720Y1615504D01*
X2132220Y1602473D02*
G01X2132251Y1602504D01*
X2135220Y1604035D02*
G01X2135251Y1604004D01*
X2136720*
X2137720Y1605004*
Y1615504*
X2179220Y1605051D02*
G01Y1603473D01*
X2181220Y1601473*
X2179220Y1605051D02*
G01Y1607004D01*
Y1609004*
X2177492Y1605051D02*
G01X2179220D01*
X2177492Y1607020D02*
G01X2177507Y1607004D01*
X2179220*
X2177492Y1608988D02*
G01X2177507Y1609004D01*
X2179220*
X2177492Y1610957D02*
G01X2179220D01*
Y1609004*
X2195220Y1607681D02*
G01Y1610004D01*
X2196720Y1611504*
X2201720*
X2202720Y1610504*
X2205189*
X2205220Y1610535*
X2195220Y1617327D02*
G01Y1614504D01*
X2196220Y1613504*
X2201751*
X2202720Y1614473*
X2205220*
X2003558Y1623504D02*
G01X2000999D01*
Y1623504D02*
G01X1998440D01*
X1995881Y1627587D02*
G01Y1623504D01*
Y1623504D02*
G01X1998440D01*
Y1627587D02*
G01Y1623504D01*
X2000999Y1627587D02*
G01Y1623504D01*
X2003558Y1627587D02*
G01Y1623504D01*
X2096720Y1643004D02*
G01X2100720Y1639004D01*
X2102251*
X2098720Y1698035D02*
G01Y1697051D01*
X2100767Y1695004*
Y1692685*
Y1660685D02*
G01Y1659004D01*
X2103720*
Y1660004*
X2100767Y1692685D02*
G01Y1692075D01*
X2102751Y1671504D02*
G01Y1674835D01*
X2103120Y1675204*
X2166020Y1698304D02*
G01X2169220Y1701504D01*
Y1705035*
X2007220Y1699304D02*
G01X2017520D01*
X2020320Y1702104*
Y1708704*
X2022167Y1710551*
X2023220*
X2004720Y1717004D02*
G01X2005751D01*
X2006751Y1716004*
Y1707004*
X2008220Y1705535*
X2009720*
X2042220Y1715504D02*
G01X2044751D01*
Y1716504*
X2086120Y1714404D02*
G01X2087364D01*
X2087448Y1714488*
X2086120D02*
G01Y1714404D01*
Y1716404D02*
G01Y1716457D01*
X2087448*
X2086120Y1716404D02*
G01Y1714488D01*
Y1714404D02*
G01Y1712520D01*
X2087448*
X2086120D02*
G01Y1710551D01*
X2087448*
X2080720Y1714004D02*
G01X2081220Y1713504D01*
Y1708473*
X2082720Y1706973*
X2137220Y1710051D02*
G01X2137448D01*
X2152720Y1703004D02*
G01Y1699104D01*
X2154820Y1697004*
X2162820*
X2164120Y1698304*
X2166020*
X2135720Y1714004D02*
G01Y1715957D01*
X2137448*
X2135720Y1714004D02*
G01X2137433D01*
X2137448Y1713988*
X2135720Y1714004D02*
G01Y1712004D01*
X2137433*
X2137448Y1712020*
X2135720Y1712004D02*
G01Y1710051D01*
X2137220*
Y1706004*
X2139220Y1704004*
X2151720*
X2152720Y1703004*
X1987047Y1577327D02*
G01X2215393D01*
Y1742681*
X1987047*
Y1577327*
G54D17*
X2041820Y1617104D02*
G01X2043720D01*
X2045073*
X2045673Y1616504*
Y1615776*
X2043704D02*
G01X2043720Y1615791D01*
Y1617104*
X2041736Y1615776D02*
G01X2041820Y1615860D01*
Y1617104*
X2039767Y1615776D02*
G01X2039820Y1615828D01*
Y1616604*
X2040320Y1617104*
X2041820*
X2067220Y1604504D02*
G01X2069673D01*
Y1605823*
X2064720Y1617504D02*
G01X2066720D01*
Y1614504*
X2064720D02*
G01X2066720D01*
X2069673*
Y1605823*
X2057189Y1604504D02*
G01X2057289Y1604604D01*
X2069189Y1601004D02*
G01X2069989Y1601804D01*
X2074020*
X2078920*
X2080120Y1603004*
Y1607204*
X2081120Y1608204*
X2089520*
X2090720Y1607004*
X2069189Y1597004D02*
G01X2069720D01*
X2072720Y1600004*
X2073220*
X2024720Y1629035D02*
G01X2025551Y1628204D01*
X2029066*
X2029566Y1628704*
Y1632583*
X2024720Y1632973D02*
G01X2027598D01*
Y1632583*
X2062220Y1623504D02*
G01X2063620D01*
Y1623185*
X2063767*
X2081141Y1638882D02*
G01X2085019Y1635004D01*
X2087689*
X2087720Y1635035*
X2100720Y1657004D02*
G01X2102720D01*
X2106673Y1639004D02*
G01Y1643323D01*
X2102720Y1657004D02*
G01Y1652004D01*
X2103720*
X2037420Y1688104D02*
G01X2037440D01*
Y1692425*
X2045020Y1688004D02*
G01X2045314D01*
Y1692425*
X2047283D02*
G01Y1688004D01*
X2047520*
X2014189D02*
G01X2014342Y1687850D01*
Y1687504*
X2015720Y1686126*
X2021299*
X2063020Y1687904D02*
G01Y1689204D01*
X2063031Y1689215*
Y1692425*
X2068937Y1697973D02*
G01Y1696756D01*
X2068220D02*
G01Y1697973D01*
X2081141Y1682189D02*
G01X2086566D01*
X2087220Y1681535*
X2081141Y1684158D02*
G01X2084720D01*
X2086066Y1685504*
X2087189*
X2087220Y1685473*
X2068937Y1692425D02*
G01Y1696756D01*
X2066968Y1692425D02*
G01Y1695504D01*
X2068220Y1696756*
X2064251Y1698004D02*
G01X2065000D01*
Y1692425*
X2068220Y1697973D02*
G01X2068189Y1698004D01*
X2068937*
Y1697973*
X2082720Y1696035D02*
G01X2082751Y1696004D01*
X2084720*
X2085720Y1697004*
Y1699504*
X2103720Y1684004D02*
G01Y1684504D01*
X2105720*
X2100767Y1692075D02*
G01Y1687457D01*
X2103720Y1684504*
X2105120Y1676304D02*
G01Y1675323D01*
X2106673*
X2102220Y1684504D02*
G01X2103720D01*
X2106673Y1675323D02*
G01Y1671504D01*
X2106689*
X2002020Y1716404D02*
G01Y1717904D01*
X2003120Y1719004*
X2008751*
X2009751Y1718004*
X2044720Y1700504D02*
G01X2045220Y1700004D01*
X2045314*
Y1692425*
X2013689Y1713504D02*
G01X2017620D01*
X2018620Y1712504*
Y1710404*
X2087420Y1708604D02*
G01Y1710523D01*
X2087448Y1710551*
X2087420Y1708604D02*
G01X2089420Y1706604D01*
X2099220*
X2101320Y1704504*
Y1697904*
X2103320Y1695904*
X2085720Y1699504D02*
G01X2088220D01*
Y1699973*
G54D61*
X1994220Y1615504D02*
G01X1997220D01*
X1990720Y1606504D02*
G01Y1611504D01*
X1992220Y1613004*
X1994189*
X1994220Y1612973*
X1990720Y1606504D02*
G01X1992720Y1604504D01*
X1998720*
X2001220Y1602004*
X2006689*
X2007689Y1603004*
Y1605004*
X1997220Y1588504D02*
G01X2002720D01*
X2011720Y1597504*
X2017251*
X1994220Y1617035D02*
G01Y1615504D01*
Y1612973*
X2033720Y1592004D02*
G01X2057689D01*
X2059220Y1593535*
X2060220*
X2062189Y1595504*
Y1597004*
X2028720Y1614504D02*
G01Y1611681D01*
X2017220Y1603504D02*
G01Y1604904D01*
X2017320Y1605004*
X2017220Y1603504D02*
G01Y1601535D01*
X2017251Y1601504*
X2017320Y1605004D02*
G01X2022720D01*
X2024220Y1603504*
X2025751*
X2021189Y1601504D02*
G01Y1597504D01*
X2025456*
X2012220Y1612973D02*
G01Y1617035D01*
X2029689Y1603504D02*
G01X2030189Y1603004D01*
Y1597693*
X2030377Y1597504*
X2019220Y1618473D02*
G01Y1618504D01*
X2021220Y1620504*
X2078251Y1587890D02*
G01Y1597504D01*
X2076417Y1586004D02*
G01X2076334Y1586087D01*
X2076220Y1586201*
X2078251Y1586087D02*
G01Y1587890D01*
X2076417Y1586004D02*
G01X2078251D01*
Y1586087*
X2085220Y1606504D02*
G01X2087720D01*
X2086456Y1597504D02*
G01X2082189D01*
Y1600604*
X2082720Y1601135*
Y1605073D02*
G01X2084151Y1606504D01*
X2085220*
X2065251Y1597004D02*
G01Y1601004D01*
X2087251Y1603504D02*
G01Y1606035D01*
X2087720Y1606504*
X2062189Y1597004D02*
G01X2065251D01*
X2076417Y1586087D02*
G01X2078220Y1587890D01*
X2054984Y1597504D02*
G01Y1597004D01*
X2058251*
X2128189Y1602504D02*
G01X2128220Y1602473D01*
X2119220Y1594504D02*
G01X2119720Y1594004D01*
X2127220*
X2128220Y1595004*
Y1598535*
Y1602473D02*
G01X2132220D01*
X2091189Y1603504D02*
G01X2091377Y1603315D01*
Y1597504*
X2124189Y1600004D02*
G01X2126689Y1602504D01*
X2128189*
X2126023Y1586087D02*
G01Y1581701D01*
X2126220Y1581504*
X2115984Y1597504D02*
G01X2117751D01*
X2120251Y1600004*
X2132251Y1602504D02*
G01X2133689D01*
X2135220Y1604035*
X2139720Y1601504D02*
G01X2143189D01*
X2143220Y1601473*
X2135220Y1610504D02*
G01Y1607973D01*
X2139689Y1597504D02*
G01X2139720Y1597535D01*
X2143220*
X2135751Y1597504D02*
G01Y1586087D01*
X2137417*
X2143220Y1597535D02*
G01X2147425D01*
X2147456Y1597504*
X2143220Y1601473D02*
G01X2145220Y1603473D01*
Y1603504*
X2147751*
X2151689D02*
G01X2152377D01*
Y1597504*
X2147220Y1610504D02*
G01X2147751D01*
Y1603504*
X2137417Y1586087D02*
G01X2139220Y1584284D01*
Y1581504*
X2130043Y1610504D02*
G01X2135220D01*
X2183220Y1601473D02*
G01X2185220D01*
X2183220Y1608973D02*
G01Y1611504D01*
Y1605035D02*
G01Y1601473D01*
X2185220Y1597535D02*
G01X2187689D01*
X2187720Y1597504*
X2185220Y1601473D02*
G01X2185251Y1601504D01*
X2187220*
X2188220Y1602504*
X2200720*
X2205220Y1607004*
Y1610535*
X2181220Y1601473D02*
G01X2183220D01*
X2205220Y1614473D02*
G01X2205251Y1614504D01*
X2207220*
X2208220Y1613504*
Y1612504*
X2176984Y1597504D02*
G01X2181189D01*
X2181220Y1597535*
X2006720Y1653973D02*
G01X2003558D01*
Y1653973D02*
G01Y1650421D01*
Y1623504D02*
G01X2003720Y1623342D01*
Y1623342D02*
G01Y1619827D01*
X2006720Y1653973D02*
G01X2010251D01*
X2003720Y1619827D02*
G01Y1614004D01*
X2010251Y1654504D02*
G01Y1653973D01*
Y1650504*
X2021220Y1631504D02*
G01X2022689Y1632973D01*
X2024720*
X2022220Y1629004D02*
G01X2024689D01*
X2024720Y1629035*
X2018689Y1630004D02*
G01X2019720D01*
X2021220Y1631504*
X2014189Y1646504D02*
G01X2014220Y1646473D01*
Y1644004*
X2010251Y1662504D02*
G01Y1658504D01*
Y1654504*
Y1650504D02*
G01Y1646504D01*
X2087720Y1638973D02*
G01X2091220D01*
X2093689Y1636504*
Y1635535*
X2093720Y1635504*
X2087720Y1635035D02*
G01X2088220Y1634535D01*
Y1625204*
X2089720Y1623704*
X2093720*
X2106673Y1639004D02*
G01X2108720D01*
X2126689Y1655504D02*
G01X2130751D01*
X2106189Y1639004D02*
G01X2106673D01*
X2122720Y1648004D02*
G01X2122751Y1648035D01*
X2093720Y1631304D02*
G01X2097220D01*
X2098520Y1630004*
Y1625004*
X2099520Y1624004*
X2103420*
X2103720Y1623704*
X2093720Y1631304D02*
G01Y1635504D01*
X2151751Y1654004D02*
G01X2151720D01*
Y1658035*
X2157720Y1643504D02*
G01Y1646035D01*
X2147720Y1653504D02*
G01X2148220Y1654004D01*
X2151720*
X2147720Y1653504D02*
G01Y1647535D01*
X2149220Y1646035*
X2153720*
X2194220Y1630004D02*
G01X2198720D01*
X2201720Y1628473D02*
G01Y1630004D01*
Y1632035*
X2198720Y1630004D02*
G01X2201720D01*
X2194220Y1628473D02*
G01Y1630004D01*
Y1632035*
X2177720Y1646158D02*
G01X2177874Y1646004D01*
X2181720*
X2183720Y1648004*
X2000220Y1684004D02*
G01X2010251D01*
X1989620Y1690504D02*
G01Y1685104D01*
X1990720Y1684004*
X2000220*
X1989620Y1690504D02*
G01X1989689D01*
X1991720Y1692535*
X2003220Y1660504D02*
G01X2003558Y1660166D01*
Y1660166D02*
G01Y1653973D01*
X1994720Y1659973D02*
G01X1998720D01*
X1999251Y1660504*
X2003220*
X1998720Y1659973D02*
G01Y1663035D01*
X2000220Y1687681D02*
G01Y1684004D01*
X2010251Y1682004D02*
G01Y1684004D01*
Y1685004*
Y1688004*
Y1675504D02*
G01X2010820Y1676073D01*
Y1681304*
X2010251Y1682004D02*
G01X2010820Y1681435D01*
Y1681304*
X2010251Y1688004D02*
G01Y1694004D01*
X2014189Y1688004D02*
G01Y1690473D01*
X2014220Y1690504*
X2078220Y1692504D02*
G01X2080751D01*
X2085220Y1689004D02*
G01X2087220Y1687004D01*
Y1685473*
X2068189Y1698004D02*
G01Y1700004D01*
X2069189Y1701004*
X2070220*
X2087220Y1681535D02*
G01X2088720D01*
X2090689Y1683504*
Y1688004*
X2079220Y1696035D02*
G01X2082720D01*
X2103320Y1695904D02*
G01X2117120D01*
X2121220Y1700004*
Y1703535*
X2119220Y1693604D02*
G01Y1694504D01*
X2132220Y1707504*
Y1715504*
X2089720Y1689004D02*
G01X2090689Y1688035D01*
Y1688004*
X2119220Y1663004D02*
G01X2122220D01*
Y1666504*
X2121220Y1686504D02*
G01X2122220D01*
Y1692504*
X2128220Y1666504D02*
G01X2130720D01*
X2125220Y1692504D02*
G01X2128420D01*
X2119220D02*
G01Y1693604D01*
X2136100Y1692504D02*
G01X2138275D01*
X2138720Y1692059*
X2128420Y1692504D02*
G01X2136100D01*
X2156263Y1682035D02*
G01Y1672004D01*
Y1672004D02*
G01X2165220D01*
X2130720Y1666504D02*
G01Y1669004D01*
X2152720Y1682035D02*
G01X2156263D01*
Y1682035D02*
G01Y1683804D01*
X2185851Y1666473D02*
G01X2186220Y1666104D01*
X2204689Y1687004D02*
G01Y1684504D01*
Y1682004*
X2169058Y1683804D02*
G01X2169120Y1683866D01*
Y1683866D02*
G01Y1688404D01*
X2169720Y1689004*
X2171617*
Y1689004D02*
G01Y1683804D01*
X2004120Y1705935D02*
G01Y1704704D01*
X2005620Y1703204*
X2004120Y1705935D02*
G01X2004189Y1706004D01*
X1999520Y1702204D02*
G01Y1705273D01*
X2000251Y1706004*
X1996220Y1713473D02*
G01X2000220D01*
X2004189Y1706004D02*
G01Y1709504D01*
X2004220Y1709535*
X2000220D02*
G01X2000251Y1709504D01*
Y1706004*
X2000220Y1713473D02*
G01X2004220D01*
X2004720Y1713973*
Y1717004*
X1991720Y1717350D02*
G01X1992720D01*
Y1716973*
X1996220Y1713473*
X2014220Y1722504D02*
G01X2017189D01*
X2017220Y1722473*
Y1718535D02*
G01X2021220D01*
X2013720Y1705535D02*
G01X2018220D01*
Y1702504*
X2021220Y1722473D02*
G01X2025425D01*
X2025456Y1722504*
X2009751Y1718004D02*
G01Y1713504D01*
X2013689Y1718004D02*
G01X2014189Y1718504D01*
X2017189*
X2017220Y1718535*
X2077120Y1706104D02*
G01X2077220Y1706204D01*
Y1708535*
X2077120Y1706104D02*
G01Y1706004D01*
X2070220Y1701004D02*
G01X2075220D01*
X2077120Y1702904*
Y1706004*
X2066220Y1718035D02*
G01X2066720Y1718504D01*
X2074251*
X2069720Y1725504D02*
G01X2070751D01*
Y1722504*
X2066720Y1713004D02*
G01X2068720Y1715004D01*
X2070689*
X2070720Y1714973*
X2064720Y1705004D02*
G01X2068720D01*
Y1705304*
X2069420Y1706004*
X2062189Y1709004D02*
G01X2064720D01*
X2062189Y1713004D02*
G01X2066720D01*
X2074251Y1718504D02*
G01Y1714973D01*
X2074720*
X2078189Y1718504D02*
G01X2082320D01*
X2084420Y1716404*
X2086120*
X2078189Y1718504D02*
G01Y1722441D01*
X2078251Y1722504*
X2074689D02*
G01X2078251D01*
X2059220Y1722473D02*
G01X2059251Y1722504D01*
X2062751*
X2059220Y1718535D02*
G01Y1717473D01*
X2062189Y1714504*
Y1713004*
Y1701504D02*
G01Y1705004D01*
X2064720*
X2088220Y1699973D02*
G01X2091720D01*
X2082189Y1722504D02*
G01X2086456D01*
X2056189Y1716504D02*
G01X2057220D01*
Y1716535*
X2059220Y1718535*
X2074720Y1711035D02*
G01X2077220Y1708535D01*
X2062189Y1701504D02*
G01X2062251Y1701441D01*
Y1698004*
X2064251*
X2065023Y1733921D02*
G01X2066689D01*
Y1722504*
X2054984D02*
G01X2055015Y1722473D01*
X2059220*
X2050063Y1722504D02*
G01X2050220D01*
Y1720004*
X2052251Y1718004*
Y1716504*
X2069420Y1706004D02*
G01X2070720Y1707304D01*
Y1711035*
X2077020Y1706004D02*
G01X2077120Y1706104D01*
X2123720Y1715504D02*
G01Y1718504D01*
X2124189*
Y1722504D02*
G01Y1733921D01*
X2126023*
X2120251Y1718504D02*
G01Y1722504D01*
X2115189Y1716504D02*
G01X2116189Y1715504D01*
X2123720*
X2121220Y1707473D02*
G01X2123720Y1709973D01*
Y1715504*
X2115984Y1722504D02*
G01X2120251D01*
X2111063D02*
G01X2111251Y1722315D01*
Y1716504*
X2111220Y1700681D02*
G01Y1703004D01*
X2112720Y1704504*
X2117751*
X2118720Y1703535*
X2121220*
X2111220Y1710327D02*
G01Y1708004D01*
X2112520Y1706704*
X2118120*
X2118820Y1707404*
X2121151*
X2121220Y1707473*
X2133220Y1725504D02*
G01X2133251Y1725473D01*
Y1723004*
X2137189Y1719004D02*
G01Y1723004D01*
X2140251*
X2137189Y1719004D02*
G01X2137448Y1718744D01*
Y1715957*
X2144189Y1723004D02*
G01X2147456D01*
Y1722504*
X2160220Y1702181D02*
G01Y1704504D01*
X2161720Y1706004*
X2166220*
X2167220Y1705004*
X2169189*
X2169220Y1705035*
X2160220Y1711827D02*
G01Y1709004D01*
X2161220Y1708004*
X2166751*
X2167720Y1708973*
X2169220*
X2179720Y1715035D02*
G01X2183220D01*
X2185189Y1717004*
Y1718504*
Y1722504D02*
G01X2190220D01*
X2199220Y1731504*
X2205220*
X2181251Y1718504D02*
G01Y1722504D01*
X2176689Y1716504D02*
G01X2178157Y1715035D01*
X2179720*
X2169220Y1708973D02*
G01X2178220D01*
X2179720Y1710473*
Y1715035*
X2176984Y1722504D02*
G01X2181251D01*
X2172063D02*
G01X2172251Y1722315D01*
Y1717004*
X2172751Y1716504*
G54D62*
X2028720Y1614504D02*
G01X2029992Y1615776D01*
X2039767*
X2024948Y1716457D02*
G01X2023220D01*
Y1714504*
X2024933*
X2024948Y1714488*
X2023220Y1714504D02*
G01Y1712504D01*
X2024933*
X2024948Y1712520*
Y1710551D02*
G01X2023220D01*
Y1712504*
X2021220Y1718535D02*
G01X2023220Y1716535D01*
Y1716457*
X2132220Y1715504D02*
G01X2133220Y1716504D01*
X2133251*
Y1719004*
G54D63*
X2076417Y1586004D02*
G01Y1586087D01*
X2076220Y1581504D02*
G01X2076417Y1581701D01*
Y1586004*
G54D185*
X2126023Y1733921D02*
G01X2137417D01*
M02*
