G04 CAM350 PRO V6.0 Date:  Tue Jul 03 08:51:23 2012 *
G04 Database: (Untitled) *
G04 Layer 4: ems4_1i2.lgr *
%FSLAX35Y35*%
%MOIN*%
%SFA1.000B1.000*%

%MIA0B0*%
%IPPOS*%
%ADD11C,0.00600*%
%ADD12C,0.00400*%
%ADD14C,0.01000*%
%ADD52C,0.01600*%
%ADD53C,0.20000*%
%ADD60C,0.02000*%
%ADD61C,0.01500*%
%ADD64R,0.01600X0.01600*%
%LNems4_1i2.lgr*%
%SRX1Y1I0J0*%
%LPD*%
G54D52*
X1771100Y1688500D03*
Y1686400D03*
Y1658600D03*
Y1656500D03*
X1755900Y1688600D03*
Y1686400D03*
Y1658600D03*
Y1656500D03*
X1772000Y1598000D03*
X1764000Y1616500D03*
X1770000Y1614000D03*
X1767500D03*
X1764000Y1613500D03*
X1786000Y1611173D03*
X1812000Y1615500D03*
X1779000Y1594500D03*
X1838900Y1605500D03*
X1847300Y1618600D03*
X1840400Y1607600D03*
X1820500Y1613500D03*
Y1617500D03*
X1820000Y1610000D03*
X1829500Y1607000D03*
X1815000Y1610500D03*
X1820500Y1615500D03*
X1826000Y1600000D03*
X1831000Y1604500D03*
X1871000Y1608500D03*
X1854500Y1607000D03*
X1901000Y1601500D03*
X1903500D03*
X1958500Y1597000D03*
X1935000Y1592000D03*
X1937728Y1614500D03*
X1943000Y1613500D03*
X1932500Y1614500D03*
X1947000Y1611500D03*
X1972000Y1612500D03*
X1771200Y1641200D03*
X1766100Y1642200D03*
X1766000Y1644500D03*
X1757900Y1648500D03*
X1762000Y1645500D03*
X1758100Y1641100D03*
X1791500Y1646500D03*
X1777000Y1638500D03*
X1801000Y1627500D03*
X1778700Y1626500D03*
X1809000Y1627500D03*
X1811500Y1624000D03*
X1773600Y1642600D03*
X1790000Y1651000D03*
Y1648500D03*
X1803000Y1625000D03*
Y1627500D03*
X1790700Y1656600D03*
X1779000Y1633000D03*
X1781000Y1647000D03*
Y1635000D03*
X1780400Y1654626D03*
X1780421Y1651779D03*
X1807000Y1643500D03*
X1785000Y1631500D03*
X1796000Y1643500D03*
X1778500Y1620500D03*
X1801000Y1643500D03*
X1778000Y1644000D03*
X1811930Y1653820D03*
X1786000Y1629000D03*
X1785000Y1620500D03*
X1793500Y1643000D03*
X1829100Y1627700D03*
X1831500Y1627600D03*
X1827800Y1637600D03*
X1850500Y1621200D03*
X1841300Y1626300D03*
X1831500Y1622000D03*
X1826000Y1627500D03*
X1815300D03*
X1823000D03*
X1813000D03*
X1835400Y1657800D03*
X1839500Y1645000D03*
X1836500Y1650500D03*
X1835000Y1654000D03*
X1850000Y1649000D03*
X1830000Y1637500D03*
X1831500Y1642000D03*
X1849500Y1644800D03*
X1820500Y1619500D03*
X1823300Y1622900D03*
X1841500Y1629500D03*
X1813830Y1646550D03*
X1826000Y1623500D03*
X1831000Y1646500D03*
X1850000Y1654500D03*
X1820500Y1643500D03*
X1850500Y1657500D03*
X1829000Y1639500D03*
X1817000Y1643000D03*
X1812500D03*
X1872500Y1639000D03*
X1853500Y1623700D03*
X1877900Y1649000D03*
X1855500Y1648500D03*
X1877000Y1651000D03*
X1855500Y1655000D03*
X1857500Y1647000D03*
X1873000Y1643500D03*
X1877000Y1647100D03*
Y1654600D03*
X1857000Y1657000D03*
X1879700Y1652700D03*
X1879000Y1644400D03*
X1868600Y1643800D03*
X1857900Y1653000D03*
X1877000Y1658900D03*
X1858000Y1645000D03*
X1857800Y1649000D03*
X1860500Y1643000D03*
X1917500Y1643300D03*
X1907500D03*
X1911500Y1653500D03*
X1912500Y1643500D03*
X1964700Y1641400D03*
X1955500Y1653100D03*
X1966900Y1641300D03*
X1949000Y1624000D03*
X1951500Y1653000D03*
X1959500D03*
X1935500Y1648000D03*
X1932500Y1635000D03*
X1955500Y1637500D03*
X1945500Y1639500D03*
X1960000D03*
X1954000Y1625677D03*
X1968500Y1624500D03*
X1947500Y1648000D03*
X1952500Y1628000D03*
X1935500Y1644500D03*
X1765600Y1678800D03*
X1759900Y1663600D03*
X1767300Y1665400D03*
X1759900Y1665700D03*
X1767400Y1671600D03*
X1767500Y1674200D03*
Y1677200D03*
X1761400Y1670800D03*
X1759500Y1676000D03*
X1761000Y1681000D03*
X1767000Y1680400D03*
X1765000Y1682000D03*
X1763500Y1691500D03*
X1767000D03*
X1759800Y1678800D03*
X1767000Y1660500D03*
X1763400Y1675100D03*
X1760400Y1693700D03*
X1808700Y1679900D03*
X1808600Y1683200D03*
X1782700Y1694900D03*
X1785800Y1698400D03*
X1795400Y1661700D03*
X1797700D03*
X1779800Y1678900D03*
X1791500Y1686200D03*
X1774700Y1665600D03*
X1789000Y1690500D03*
Y1696000D03*
Y1693500D03*
X1780000Y1670500D03*
X1783800Y1697100D03*
X1790000Y1662500D03*
X1791700Y1682900D03*
X1777300Y1678300D03*
X1780300Y1662500D03*
X1780500Y1659000D03*
X1794100Y1673800D03*
X1792000Y1674800D03*
X1805500Y1676900D03*
X1790237Y1679537D03*
X1811900Y1680000D03*
X1797500Y1669500D03*
X1780600Y1676000D03*
X1805670Y1670620D03*
X1811800Y1661130D03*
X1778000Y1690500D03*
X1772300Y1678800D03*
X1811300Y1688000D03*
X1801200Y1688100D03*
X1798000Y1681524D03*
X1808800Y1688000D03*
X1811700Y1670500D03*
X1797500Y1666000D03*
X1774031Y1685000D03*
X1811880Y1676790D03*
X1789500Y1667500D03*
X1808580Y1667330D03*
X1805000Y1688000D03*
X1837600Y1676200D03*
X1849800Y1669500D03*
X1851000Y1671100D03*
X1824800Y1686800D03*
X1826800Y1687900D03*
X1822500Y1687500D03*
X1839100Y1665700D03*
X1839900Y1686100D03*
X1834800Y1684500D03*
X1821200Y1680000D03*
X1818200Y1683100D03*
X1831300Y1684700D03*
X1815000Y1683100D03*
X1840000Y1697000D03*
X1842000Y1692500D03*
X1818170Y1676960D03*
X1824500Y1664300D03*
X1827500Y1670600D03*
X1827700Y1664300D03*
X1831500Y1671500D03*
X1827600Y1661100D03*
X1831400Y1675200D03*
X1827500Y1673700D03*
X1824500Y1680000D03*
X1849000Y1689000D03*
X1815000Y1670500D03*
X1818300D03*
X1836500Y1664925D03*
X1839500Y1672500D03*
X1821400Y1670600D03*
Y1667500D03*
X1839500Y1668500D03*
X1818200Y1661100D03*
X1824500D03*
X1856000Y1663700D03*
X1880200Y1669000D03*
X1854300Y1667600D03*
X1853400Y1692900D03*
X1877300Y1667000D03*
X1858000D03*
X1877000Y1685000D03*
X1858000D03*
X1856600Y1674700D03*
X1877100Y1671000D03*
X1876900Y1662100D03*
X1880000Y1660000D03*
X1857900Y1671000D03*
X1858000Y1673000D03*
X1877000Y1681000D03*
X1858000Y1689000D03*
X1877000D03*
X1858000Y1681000D03*
X1877000Y1678900D03*
X1857900Y1691300D03*
X1858000Y1669000D03*
Y1687000D03*
X1877000Y1693000D03*
X1857900Y1679000D03*
Y1683000D03*
X1868500Y1692000D03*
X1877000Y1691000D03*
Y1687000D03*
X1859500Y1674800D03*
X1853500Y1689000D03*
X1868900Y1676300D03*
X1867500Y1660000D03*
X1880100Y1671000D03*
X1866900Y1675200D03*
X1862500Y1698031D03*
X1941600Y1673500D03*
X1964300Y1696100D03*
X1968500Y1668500D03*
X1944500Y1689000D03*
X1941500Y1671000D03*
X1967000Y1696000D03*
X1939000Y1695500D03*
X1968469Y1684500D03*
X1964531Y1679500D03*
X1760700Y1716400D03*
X1763300D03*
X1760700Y1702100D03*
X1772000Y1722000D03*
X1763300Y1702200D03*
X1765800Y1716400D03*
X1769400Y1703200D03*
X1768500Y1717000D03*
X1782400Y1710400D03*
X1780200Y1708700D03*
X1787800Y1699800D03*
X1803000Y1711000D03*
X1794000Y1714700D03*
Y1710000D03*
Y1712600D03*
X1780200Y1711200D03*
X1777000Y1702500D03*
X1773500Y1703000D03*
X1779000Y1726000D03*
X1782000Y1702500D03*
X1809000Y1728000D03*
X1804000D03*
X1806000Y1715500D03*
X1779500Y1702500D03*
X1808500Y1700500D03*
X1790800Y1717900D03*
X1812500Y1702400D03*
X1818900Y1703200D03*
X1837500Y1726000D03*
X1851200Y1705400D03*
X1847500Y1711000D03*
X1834000Y1701000D03*
X1830000Y1718031D03*
X1844500Y1714000D03*
X1833500Y1725500D03*
X1828500Y1709000D03*
X1830500Y1713000D03*
X1850500Y1731000D03*
X1849500Y1699500D03*
X1828500Y1705000D03*
X1871500Y1716000D03*
X1856600Y1714484D03*
X1865500Y1711500D03*
X1867000Y1700500D03*
X1869000Y1715500D03*
X1867000Y1729000D03*
X1884057Y1730943D03*
X1882000Y1732000D03*
X1877000Y1731500D03*
X1862000D03*
X1853000D03*
X1887500Y1715500D03*
X1893500Y1714000D03*
X1927000Y1715500D03*
X1906700Y1714300D03*
X1906800Y1717000D03*
X1917500Y1709500D03*
X1904000Y1720000D03*
X1921000Y1728000D03*
X1926000D03*
X1897000Y1725500D03*
X1931000Y1712000D03*
X1896000Y1715500D03*
X1958000Y1722000D03*
X1948500Y1712500D03*
X1958500Y1707000D03*
X1952000Y1708500D03*
X1951500Y1726000D03*
X1943500Y1715031D03*
G54D53*
X1761000Y1731500D03*
X1969000D03*
Y1588500D03*
X1761000D03*
G54D60*
X1817594Y1750619D03*
X1822319D03*
X1817594Y1742745D03*
X1822319D03*
X1908146Y1750645D03*
X1912870D03*
X1908146Y1742745D03*
X1912870D03*
X1987274Y1711724D03*
X1979400D03*
Y1707000D03*
X1987274D03*
X1979400Y1612724D03*
Y1608000D03*
X1987274Y1612724D03*
X1987300Y1608024D03*
X1912870Y1577391D03*
X1908146D03*
Y1569517D03*
X1912870D03*
X1822319Y1577391D03*
X1817594D03*
Y1569517D03*
X1822319D03*
X2053594Y1577391D03*
X2058319D03*
X2053594Y1569517D03*
X2058319D03*
X2144146Y1577391D03*
X2148870D03*
X2144146Y1569517D03*
X2148870D03*
X2053594Y1742745D03*
X2058319D03*
Y1750619D03*
X2053594D03*
X2144146Y1750645D03*
X2148870D03*
Y1742745D03*
X2144146D03*
G54D64*
X1761000Y1615500D03*
X1782000Y1590000D03*
Y1586000D03*
Y1581500D03*
X1846000Y1616000D03*
Y1613500D03*
X1849000Y1606500D03*
X1846000Y1611000D03*
X1837000Y1600000D03*
X1843000Y1581500D03*
X1831000D03*
X1837000D03*
X1840000D03*
X1826500D03*
X1822500D03*
X1828500Y1617500D03*
Y1614500D03*
X1851500Y1606500D03*
X1884000Y1618000D03*
X1883000Y1594500D03*
X1864500Y1581500D03*
X1867500D03*
X1862000D03*
X1890000D03*
X1887000D03*
X1907500D03*
X1903000D03*
X1899000D03*
X1893000D03*
X1899000Y1610500D03*
X1951500Y1597500D03*
X1948000Y1590000D03*
Y1586000D03*
Y1581500D03*
X1757600Y1651800D03*
X1848000Y1629000D03*
X1846000D03*
X1844000D03*
X1889500Y1620000D03*
X1857500Y1635500D03*
X1864500Y1657000D03*
X1886500Y1620000D03*
X1880500Y1628000D03*
Y1626000D03*
X1866500Y1657000D03*
X1895500Y1620000D03*
X1916500Y1623000D03*
X1911500D03*
X1919000D03*
X1914000D03*
X1904000Y1642000D03*
X1899000D03*
X1901500D03*
X1892500Y1620000D03*
X1897300Y1658900D03*
X1921500Y1643500D03*
X1962500Y1630000D03*
X1975000Y1645500D03*
Y1648000D03*
Y1650500D03*
X1885500Y1669000D03*
Y1671000D03*
X1883000Y1661000D03*
Y1663000D03*
Y1659000D03*
X1869400Y1667700D03*
X1865100D03*
X1869500Y1684500D03*
X1866000D03*
X1909500Y1666500D03*
X1927800Y1693800D03*
X1929100Y1695800D03*
X1897300Y1663100D03*
Y1661000D03*
X1915000Y1696000D03*
Y1693500D03*
X1931500Y1677000D03*
X1926500Y1674000D03*
X1929000Y1677000D03*
X1924000D03*
X1931500Y1674000D03*
X1924000D03*
X1931500Y1671500D03*
X1926500D03*
X1929000Y1674000D03*
X1924000Y1671500D03*
X1929000D03*
X1926500Y1677000D03*
X1894500Y1669000D03*
Y1666500D03*
X1911000Y1695500D03*
Y1697500D03*
X1944500Y1666500D03*
X1964000Y1663000D03*
X1936100Y1695400D03*
X1933900D03*
X1778000Y1722500D03*
X1782000Y1734000D03*
Y1730000D03*
X1840000Y1734000D03*
Y1730000D03*
X1911000Y1699500D03*
X1941000Y1712000D03*
X1948000Y1730000D03*
Y1734000D03*
X1975000Y1709500D03*
Y1712000D03*
Y1714500D03*
X1782000Y1739000D03*
X1829500D03*
X1826000D03*
X1822500D03*
X1907000D03*
X1903500D03*
X1900000D03*
X1948000D03*
G54D52*
X2007320Y1688504D03*
Y1686404D03*
Y1658604D03*
Y1656504D03*
X1992120Y1688604D03*
Y1686404D03*
Y1658604D03*
Y1656504D03*
X2008220Y1598004D03*
X2000220Y1616504D03*
X2006220Y1614004D03*
X2003720D03*
X2000220Y1613504D03*
X2022220Y1611177D03*
X2048220Y1615504D03*
X2015220Y1594504D03*
X2075120Y1605504D03*
X2083520Y1618604D03*
X2076620Y1607604D03*
X2056720Y1613504D03*
Y1617504D03*
X2056220Y1610004D03*
X2065720Y1607004D03*
X2051220Y1610504D03*
X2056720Y1615504D03*
X2062220Y1600004D03*
X2067220Y1604504D03*
X2107220Y1608504D03*
X2090720Y1607004D03*
X2137220Y1601504D03*
X2139720D03*
X2194720Y1597004D03*
X2171220Y1592004D03*
X2173948Y1614504D03*
X2179220Y1613504D03*
X2168720Y1614504D03*
X2183220Y1611504D03*
X2208220Y1612504D03*
X2007420Y1641204D03*
X2002320Y1642204D03*
X2002220Y1644504D03*
X1994120Y1648504D03*
X1998220Y1645504D03*
X1994320Y1641104D03*
X2027720Y1646504D03*
X2013220Y1638504D03*
X2037220Y1627504D03*
X2014920Y1626504D03*
X2045220Y1627504D03*
X2047720Y1624004D03*
X2009820Y1642604D03*
X2026220Y1651004D03*
Y1648504D03*
X2039220Y1625004D03*
Y1627504D03*
X2026920Y1656604D03*
X2015220Y1633004D03*
X2017220Y1647004D03*
Y1635004D03*
X2016620Y1654630D03*
X2016641Y1651783D03*
X2043220Y1643504D03*
X2021220Y1631504D03*
X2032220Y1643504D03*
X2014720Y1620504D03*
X2037220Y1643504D03*
X2014220Y1644004D03*
X2048150Y1653824D03*
X2022220Y1629004D03*
X2021220Y1620504D03*
X2029720Y1643004D03*
X2065320Y1627704D03*
X2067720Y1627604D03*
X2064020Y1637604D03*
X2086720Y1621204D03*
X2077520Y1626304D03*
X2067720Y1622004D03*
X2062220Y1627504D03*
X2051520D03*
X2059220D03*
X2049220D03*
X2071620Y1657804D03*
X2075720Y1645004D03*
X2072720Y1650504D03*
X2071220Y1654004D03*
X2086220Y1649004D03*
X2066220Y1637504D03*
X2067720Y1642004D03*
X2085720Y1644804D03*
X2056720Y1619504D03*
X2059520Y1622904D03*
X2077720Y1629504D03*
X2050050Y1646554D03*
X2062220Y1623504D03*
X2067220Y1646504D03*
X2086220Y1654504D03*
X2056720Y1643504D03*
X2086720Y1657504D03*
X2065220Y1639504D03*
X2053220Y1643004D03*
X2048720D03*
X2108720Y1639004D03*
X2089720Y1623704D03*
X2114120Y1649004D03*
X2091720Y1648504D03*
X2113220Y1651004D03*
X2091720Y1655004D03*
X2093720Y1647004D03*
X2109220Y1643504D03*
X2113220Y1647104D03*
Y1654604D03*
X2093220Y1657004D03*
X2115920Y1652704D03*
X2115220Y1644404D03*
X2104820Y1643804D03*
X2094120Y1653004D03*
X2113220Y1658904D03*
X2094220Y1645004D03*
X2094020Y1649004D03*
X2096720Y1643004D03*
X2153720Y1643304D03*
X2143720D03*
X2147720Y1653504D03*
X2148720Y1643504D03*
X2200920Y1641404D03*
X2191720Y1653104D03*
X2203120Y1641304D03*
X2185220Y1624004D03*
X2187720Y1653004D03*
X2195720D03*
X2171720Y1648004D03*
X2168720Y1635004D03*
X2191720Y1637504D03*
X2181720Y1639504D03*
X2196220D03*
X2190220Y1625681D03*
X2204720Y1624504D03*
X2183720Y1648004D03*
X2188720Y1628004D03*
X2171720Y1644504D03*
X2001820Y1678804D03*
X1996120Y1663604D03*
X2003520Y1665404D03*
X1996120Y1665704D03*
X2003620Y1671604D03*
X2003720Y1674204D03*
Y1677204D03*
X1997620Y1670804D03*
X1995720Y1676004D03*
X1997220Y1681004D03*
X2003220Y1680404D03*
X2001220Y1682004D03*
X1999720Y1691504D03*
X2003220D03*
X1996020Y1678804D03*
X2003220Y1660504D03*
X1999620Y1675104D03*
X1996620Y1693704D03*
X2044920Y1679904D03*
X2044820Y1683204D03*
X2018920Y1694904D03*
X2022020Y1698404D03*
X2031620Y1661704D03*
X2033920D03*
X2016020Y1678904D03*
X2027720Y1686204D03*
X2010920Y1665604D03*
X2025220Y1690504D03*
Y1696004D03*
Y1693504D03*
X2016220Y1670504D03*
X2020020Y1697104D03*
X2026220Y1662504D03*
X2027920Y1682904D03*
X2013520Y1678304D03*
X2016520Y1662504D03*
X2016720Y1659004D03*
X2030320Y1673804D03*
X2028220Y1674804D03*
X2041720Y1676904D03*
X2026457Y1679541D03*
X2048120Y1680004D03*
X2033720Y1669504D03*
X2016820Y1676004D03*
X2041890Y1670624D03*
X2048020Y1661134D03*
X2014220Y1690504D03*
X2008520Y1678804D03*
X2047520Y1688004D03*
X2037420Y1688104D03*
X2034220Y1681528D03*
X2045020Y1688004D03*
X2047920Y1670504D03*
X2033720Y1666004D03*
X2010251Y1685004D03*
X2048100Y1676794D03*
X2025720Y1667504D03*
X2044800Y1667334D03*
X2041220Y1688004D03*
X2073820Y1676204D03*
X2086020Y1669504D03*
X2087220Y1671104D03*
X2061020Y1686804D03*
X2063020Y1687904D03*
X2058720Y1687504D03*
X2075320Y1665704D03*
X2076120Y1686104D03*
X2071020Y1684504D03*
X2057420Y1680004D03*
X2054420Y1683104D03*
X2067520Y1684704D03*
X2051220Y1683104D03*
X2076220Y1697004D03*
X2078220Y1692504D03*
X2054390Y1676964D03*
X2060720Y1664304D03*
X2063720Y1670604D03*
X2063920Y1664304D03*
X2067720Y1671504D03*
X2063820Y1661104D03*
X2067620Y1675204D03*
X2063720Y1673704D03*
X2060720Y1680004D03*
X2085220Y1689004D03*
X2051220Y1670504D03*
X2054520D03*
X2072720Y1664929D03*
X2075720Y1672504D03*
X2057620Y1670604D03*
Y1667504D03*
X2075720Y1668504D03*
X2054420Y1661104D03*
X2060720D03*
X2092220Y1663704D03*
X2116420Y1669004D03*
X2090520Y1667604D03*
X2089620Y1692904D03*
X2113520Y1667004D03*
X2094220D03*
X2113220Y1685004D03*
X2094220D03*
X2092820Y1674704D03*
X2113320Y1671004D03*
X2113120Y1662104D03*
X2116220Y1660004D03*
X2094120Y1671004D03*
X2094220Y1673004D03*
X2113220Y1681004D03*
X2094220Y1689004D03*
X2113220D03*
X2094220Y1681004D03*
X2113220Y1678904D03*
X2094120Y1691304D03*
X2094220Y1669004D03*
Y1687004D03*
X2113220Y1693004D03*
X2094120Y1679004D03*
Y1683004D03*
X2104720Y1692004D03*
X2113220Y1691004D03*
Y1687004D03*
X2095720Y1674804D03*
X2089720Y1689004D03*
X2105120Y1676304D03*
X2103720Y1660004D03*
X2116320Y1671004D03*
X2103120Y1675204D03*
X2098720Y1698035D03*
X2177820Y1673504D03*
X2200520Y1696104D03*
X2204720Y1668504D03*
X2180720Y1689004D03*
X2177720Y1671004D03*
X2203220Y1696004D03*
X2175220Y1695504D03*
X2204689Y1684504D03*
X2200751Y1679504D03*
X1996920Y1716404D03*
X1999520D03*
X1996920Y1702104D03*
X2008220Y1722004D03*
X1999520Y1702204D03*
X2002020Y1716404D03*
X2005620Y1703204D03*
X2004720Y1717004D03*
X2018620Y1710404D03*
X2016420Y1708704D03*
X2024020Y1699804D03*
X2039220Y1711004D03*
X2030220Y1714704D03*
Y1710004D03*
Y1712604D03*
X2016420Y1711204D03*
X2013220Y1702504D03*
X2009720Y1703004D03*
X2015220Y1726004D03*
X2018220Y1702504D03*
X2045220Y1728004D03*
X2040220D03*
X2042220Y1715504D03*
X2015720Y1702504D03*
X2044720Y1700504D03*
X2027020Y1717904D03*
X2048720Y1702404D03*
X2055120Y1703204D03*
X2073720Y1726004D03*
X2087420Y1705404D03*
X2083720Y1711004D03*
X2070220Y1701004D03*
X2066220Y1718035D03*
X2080720Y1714004D03*
X2069720Y1725504D03*
X2064720Y1709004D03*
X2066720Y1713004D03*
X2086720Y1731004D03*
X2085720Y1699504D03*
X2064720Y1705004D03*
X2107720Y1716004D03*
X2092820Y1714488D03*
X2101720Y1711504D03*
X2103220Y1700504D03*
X2105220Y1715504D03*
X2103220Y1729004D03*
X2120277Y1730947D03*
X2118220Y1732004D03*
X2113220Y1731504D03*
X2098220D03*
X2089220D03*
X2123720Y1715504D03*
X2129720Y1714004D03*
X2163220Y1715504D03*
X2142920Y1714304D03*
X2143020Y1717004D03*
X2153720Y1709504D03*
X2140220Y1720004D03*
X2157220Y1728004D03*
X2162220D03*
X2133220Y1725504D03*
X2167220Y1712004D03*
X2132220Y1715504D03*
X2194220Y1722004D03*
X2184720Y1712504D03*
X2194720Y1707004D03*
X2188220Y1708504D03*
X2187720Y1726004D03*
X2179720Y1715035D03*
G54D53*
X1997220Y1731504D03*
X2205220D03*
Y1588504D03*
X1997220D03*
G54D64*
Y1615504D03*
X2018220Y1590004D03*
Y1586004D03*
Y1581504D03*
X2082220Y1616004D03*
Y1613504D03*
X2085220Y1606504D03*
X2082220Y1611004D03*
X2073220Y1600004D03*
X2079220Y1581504D03*
X2067220D03*
X2073220D03*
X2076220D03*
X2062720D03*
X2058720D03*
X2064720Y1617504D03*
Y1614504D03*
X2087720Y1606504D03*
X2120220Y1618004D03*
X2119220Y1594504D03*
X2100720Y1581504D03*
X2103720D03*
X2098220D03*
X2126220D03*
X2123220D03*
X2143720D03*
X2139220D03*
X2135220D03*
X2129220D03*
X2135220Y1610504D03*
X2187720Y1597504D03*
X2184220Y1590004D03*
Y1586004D03*
Y1581504D03*
X1993820Y1651804D03*
X2084220Y1629004D03*
X2082220D03*
X2080220D03*
X2125720Y1620004D03*
X2093720Y1635504D03*
X2100720Y1657004D03*
X2122720Y1620004D03*
X2116720Y1628004D03*
Y1626004D03*
X2102720Y1657004D03*
X2131720Y1620004D03*
X2152720Y1623004D03*
X2147720D03*
X2155220D03*
X2150220D03*
X2140220Y1642004D03*
X2135220D03*
X2137720D03*
X2128720Y1620004D03*
X2133520Y1658904D03*
X2157720Y1643504D03*
X2198720Y1630004D03*
X2211220Y1645504D03*
Y1648004D03*
Y1650504D03*
X2121720Y1669004D03*
Y1671004D03*
X2119220Y1661004D03*
Y1663004D03*
Y1659004D03*
X2105620Y1667704D03*
X2101320D03*
X2105720Y1684504D03*
X2102220D03*
X2145720Y1666504D03*
X2164020Y1693804D03*
X2165320Y1695804D03*
X2133520Y1663104D03*
Y1661004D03*
X2151220Y1696004D03*
Y1693504D03*
X2167720Y1677004D03*
X2162720Y1674004D03*
X2165220Y1677004D03*
X2160220D03*
X2167720Y1674004D03*
X2160220D03*
X2167720Y1671504D03*
X2162720D03*
X2165220Y1674004D03*
X2160220Y1671504D03*
X2165220D03*
X2162720Y1677004D03*
X2130720Y1669004D03*
Y1666504D03*
X2147220Y1695504D03*
Y1697504D03*
X2180720Y1666504D03*
X2200220Y1663004D03*
X2172320Y1695404D03*
X2170120D03*
X2014220Y1722504D03*
X2018220Y1734004D03*
Y1730004D03*
X2076220Y1734004D03*
Y1730004D03*
X2147220Y1699504D03*
X2177220Y1712004D03*
X2184220Y1730004D03*
Y1734004D03*
X2211220Y1709504D03*
Y1712004D03*
Y1714504D03*
X2018220Y1739004D03*
X2065720D03*
X2062220D03*
X2058720D03*
X2143220D03*
X2139720D03*
X2136220D03*
X2184220D03*
G54D11*
X1810500Y1594500D02*
G01Y1623000D01*
X1811500Y1624000*
X1810500Y1594500D02*
G01X1819500Y1585500D01*
X1938500*
X1941500Y1588500*
Y1603000*
X1943000Y1604500*
X1957500*
X1975000Y1622000*
Y1642000*
X1812000Y1595000D02*
G01Y1612000D01*
X1814000Y1614000*
X1812000Y1595000D02*
G01X1820000Y1587000D01*
X1937500*
X1940000Y1589500*
Y1604500*
X1941500Y1606000*
X1957000*
X1973500Y1622500*
Y1641000*
X1818500Y1593000D02*
G01Y1623000D01*
X1823000Y1627500*
X1818500Y1593000D02*
G01X1821500Y1590000D01*
X1936000*
X1937000Y1591000*
Y1606500*
X1939500Y1609000*
X1956000*
X1970500Y1623500*
Y1637700*
X1820500Y1613500D02*
G01X1821550Y1612450D01*
X1838350*
X1844500Y1618600*
X1847300*
X1820000Y1610000D02*
G01X1835500D01*
X1836000Y1610500*
X1842500*
X1843500Y1609500*
X1849000*
X1850500Y1611000*
Y1621200*
X1829500Y1607000D02*
G01X1834000D01*
X1836500Y1609500*
X1841500*
X1842500Y1608500*
X1871000*
X1752600Y1642900D02*
G01Y1716200D01*
X1754500Y1718100*
X1762400*
X1752600Y1642900D02*
G01X1754400Y1641100D01*
X1758100*
X1759000Y1637000D02*
G01Y1611000D01*
X1772000Y1598000*
X1759000Y1637000D02*
G01X1760500Y1638500D01*
X1777000*
X1766000Y1644500D02*
G01X1772200D01*
X1776300Y1648600*
X1784700*
X1789100Y1653000*
X1793500*
X1794700Y1651800*
X1823500*
X1827000Y1648300*
Y1638400*
X1827800Y1637600*
X1757900Y1648500D02*
G01Y1647000D01*
X1761400Y1643500*
X1763000*
X1764500Y1645000*
Y1645600*
X1765800Y1646900*
X1772300*
X1775800Y1650400*
Y1656600*
X1776900Y1657700*
Y1663500*
X1779600Y1666200*
X1781500*
X1788000Y1672700*
X1793000*
X1794100Y1673800*
X1762000Y1645500D02*
G01X1764700Y1648200D01*
X1771200*
X1774400Y1651400*
Y1657500*
X1775900Y1659000*
Y1664500*
X1779900Y1668500*
X1780700*
X1787000Y1674800*
X1790500*
X1777000Y1655800D02*
G01Y1651500D01*
X1778500Y1650000*
X1784000*
X1788600Y1654600*
X1808600*
X1810000Y1656000*
X1824000*
X1833200Y1646800*
X1853800*
X1855500Y1648500*
X1777000Y1655800D02*
G01X1778500Y1657300D01*
X1782800*
X1788000Y1662500*
X1790000*
X1778500Y1654500D02*
G01Y1652779D01*
X1779500Y1651779*
X1780421*
X1778500Y1654500D02*
G01Y1655500D01*
X1779200Y1656200*
X1784700*
X1788500Y1660000*
X1790000*
X1792000Y1662000*
Y1666000*
X1794000Y1668000*
X1803500*
X1806000Y1665500*
X1810000*
X1813500Y1669000*
Y1673000*
X1814400Y1673900*
X1819800*
X1823800Y1677900*
X1828300*
X1829400Y1679000*
X1849500*
X1855500Y1673000*
X1858000*
X1809000Y1627500D02*
G01Y1593500D01*
X1818500Y1584000*
X1939500*
X1943000Y1587500*
Y1601500*
X1944500Y1603000*
X1958000*
X1976500Y1621500*
Y1660500*
X1790700Y1656600D02*
G01X1791300Y1656000D01*
X1807500*
X1809400Y1657900*
X1824600*
X1834000Y1648500*
X1838000*
X1840500Y1651000*
X1858400*
X1860900Y1648500*
X1874500*
X1877000Y1651000*
X1780400Y1654626D02*
G01X1785626D01*
X1789500Y1658500*
X1790500*
X1793500Y1661500*
Y1663000*
X1794500Y1664000*
X1811000*
X1813000Y1666000*
X1816700*
X1819800Y1669100*
Y1671700*
X1824900Y1676800*
X1829100*
X1830300Y1678000*
X1846000*
X1848600*
X1854800Y1671800*
X1856300*
X1857124Y1670976*
X1857147Y1671000*
X1857900*
X1815300Y1627500D02*
G01Y1614000D01*
X1817000Y1612300*
Y1592500*
X1821000Y1588500*
X1936500*
X1938500Y1590500*
Y1606000*
X1940000Y1607500*
X1956500*
X1972000Y1623000*
Y1640500*
X1813000Y1627500D02*
G01Y1625500D01*
X1814000Y1624500*
Y1614000*
X1849500Y1644800D02*
G01X1853600Y1640700D01*
X1861400*
X1867800Y1647100*
X1877000*
X1877150Y1644900D02*
G01Y1642350D01*
X1902000Y1617500*
X1932500*
X1934500Y1615500*
Y1592500*
X1935000Y1592000*
X1877150Y1644900D02*
G01X1878700Y1646400D01*
Y1648200*
X1877900Y1649000D02*
G01X1878700Y1648200D01*
X1879700Y1652700D02*
G01X1880600D01*
X1882000Y1651300*
X1891800Y1641500*
Y1637200*
X1908500Y1620500*
X1934728*
X1937728Y1617500*
Y1614500*
X1879000Y1644400D02*
G01Y1642500D01*
X1902500Y1619000*
X1933500*
X1936000Y1616500*
Y1613500*
X1937000Y1612500*
X1942000*
X1943000Y1613500*
X1868600Y1643800D02*
G01X1868700Y1643700D01*
Y1618800*
X1872000Y1615500*
X1931500*
X1932500Y1614500*
X1966900Y1641300D02*
G01X1970500Y1637700D01*
X1951500Y1653000D02*
G01Y1655200D01*
X1953300Y1657000*
X1960200*
X1962500Y1654700*
Y1650000*
X1972000Y1640500*
X1756500Y1694900D02*
G01Y1711500D01*
X1758000Y1713000*
X1769600*
X1775300Y1718700*
Y1729900*
X1777400Y1732000*
X1785100*
X1788600Y1735500*
X1831500*
X1835000Y1739000*
X1851000*
X1864000Y1726000*
X1891500*
X1894500Y1729000*
X1901000*
X1904000Y1726000*
X1949000*
X1952930Y1722070*
X1958000*
Y1722000*
X1756500Y1694900D02*
G01X1768700Y1682700D01*
Y1679400*
X1766500Y1695500D02*
G01Y1708500D01*
X1768000Y1710000*
X1771200*
X1787200Y1726000*
X1811500*
X1817500Y1732000*
X1845500*
X1854500Y1723000*
X1942000*
X1948500Y1716500*
Y1712500*
X1766500Y1695500D02*
G01X1779800Y1682200D01*
Y1678900*
X1755000Y1694300D02*
G01X1757500Y1691800D01*
Y1681100*
X1759800Y1678800*
X1765600D02*
G01X1768100D01*
X1768700Y1679400*
X1778600Y1663400D02*
G01Y1660300D01*
X1779900Y1659000*
X1780500*
X1778600Y1663400D02*
G01X1779700Y1664500D01*
X1782000*
X1788500Y1671000*
X1794000*
X1798000Y1675000*
X1812500*
X1820350Y1682850*
X1833150*
X1834000Y1682000*
X1850200*
X1855900Y1676300*
X1863300*
X1866900Y1672700*
X1875400*
X1877100Y1671000*
X1790500Y1674800D02*
G01X1792000D01*
X1795400Y1661700D02*
G01Y1660500D01*
X1796400Y1659500*
X1825000*
X1828500Y1656000*
X1836000*
X1839000Y1653000*
X1855700*
X1857200Y1654500*
X1858900*
X1860400Y1653000*
X1877600*
X1879000Y1654400*
X1882400*
X1893100Y1643700*
Y1638600*
X1899700Y1632000*
X1941000*
X1949000Y1624000*
X1780000Y1670500D02*
G01X1782500Y1673000D01*
Y1680500*
X1783800Y1697100D02*
G01X1783900D01*
X1784200Y1696800*
X1787300*
X1788500Y1698000*
X1807000*
X1821000Y1684000*
X1830400*
X1831100Y1684700*
X1831300*
X1780300Y1662500D02*
G01X1782000D01*
X1789000Y1669500*
X1795000*
X1798000Y1672500*
X1811500*
X1820700Y1681700*
X1831300*
X1832500Y1680500*
X1849700*
X1855500Y1674700*
X1856600*
X1824800Y1686800D02*
G01Y1688400D01*
X1825900Y1689500*
X1845500*
X1848500Y1686500*
X1851100*
X1856600Y1681000*
X1858000*
X1822500Y1687500D02*
G01Y1687800D01*
X1825500Y1690800*
X1857800*
Y1691200*
X1857900Y1691300*
X1839100Y1665700D02*
G01X1856600D01*
X1858700Y1663600*
X1863800*
X1866100Y1665900*
X1872400*
X1875300Y1668800*
X1839900Y1686100D02*
G01X1840100D01*
X1841500Y1684700*
X1849600*
X1856900Y1677400*
X1860400*
X1861400Y1678400*
X1870800*
X1840000Y1697000D02*
G01X1841100Y1695900D01*
X1853000*
X1854500Y1697400*
X1860500*
X1863100Y1694800*
X1868000*
X1872100Y1690700*
Y1689200*
X1874400Y1686900*
Y1685200*
X1876600Y1683000*
X1910500*
X1926500Y1699000*
X1942500*
X1952000Y1708500*
X1853400Y1692900D02*
G01X1862800D01*
X1865900Y1689800*
X1869600*
X1873100Y1686300*
Y1680500*
X1876600Y1677000*
X1912000*
X1917500Y1682500*
X1935500*
X1939000Y1686000*
Y1695500*
X1870800Y1678400D02*
G01X1875100Y1674100D01*
X1896300*
X1919000Y1651400*
X1929500*
X1931000Y1649900*
X1953600*
X1955500Y1651800*
Y1653100*
X1875300Y1668800D02*
G01X1878000D01*
X1879600Y1667200*
X1885600*
X1902900Y1649900*
X1928800*
X1932400Y1646300*
X1954800*
X1957600Y1649100*
Y1654300*
X1939500Y1672600D02*
G01Y1669700D01*
X1940200Y1669000*
X1946100*
X1939500Y1672600D02*
G01X1940500Y1673600D01*
X1941500*
X1941600Y1673500*
X1946100Y1669000D02*
G01X1947900Y1667200D01*
Y1653300*
X1950000Y1651200*
X1952500*
X1953300Y1652000*
Y1653600*
X1954700Y1655000*
X1956900*
X1957600Y1654300*
X1968500Y1668500D02*
G01X1976500Y1660500D01*
X1944500Y1689000D02*
G01Y1677100D01*
X1966000Y1655600*
Y1651000*
X1975000Y1642000*
X1941500Y1671000D02*
G01X1948700D01*
X1964800Y1654900*
Y1649700*
X1973500Y1641000*
X1762400Y1718100D02*
G01X1763300Y1717200D01*
Y1716400*
X1772000Y1700900D02*
G01Y1708700D01*
X1787800Y1724500*
X1829500*
X1833000Y1728000*
X1838500*
X1842000Y1724500*
X1851000*
X1854000Y1721500*
X1886000*
X1893500Y1714000*
X1772000Y1700900D02*
G01X1773800Y1699100D01*
Y1697400*
X1782500Y1688700*
Y1680500*
X1765000Y1709000D02*
G01X1767500Y1711500D01*
X1770600*
X1793100Y1734000*
X1832500*
X1836000Y1737500*
X1850500*
X1863500Y1724500*
X1892500*
X1895500Y1727500*
X1900000*
X1903000Y1724500*
X1948500*
X1958500Y1714500*
Y1707000*
X1765000Y1709000D02*
G01X1765100Y1708900D01*
Y1688900*
X1775700Y1678300*
X1777300*
X1755000Y1694300D02*
G01Y1712000D01*
X1757500Y1714500*
X1769200*
X1774000Y1719300*
Y1730900*
X1780100Y1737000*
X1831000*
X1834500Y1740500*
X1873500*
X1882000Y1732000*
X1777000Y1702500D02*
G01X1776800Y1702393D01*
Y1698200*
X1786800Y1688200*
Y1680700*
X1790300Y1677200*
X1792400*
X1794100Y1675500*
Y1673800*
X1791500Y1711600D02*
G01Y1709500D01*
X1793000Y1708000*
X1796000*
X1808000Y1720000*
X1831000*
X1833500Y1717500*
X1847000*
X1851000Y1713500*
Y1710500*
X1855500Y1706000*
X1868500*
X1871000Y1703500*
Y1693800*
X1874000Y1690800*
Y1689200*
X1876200Y1687000*
X1877000*
X1791500Y1711600D02*
G01X1792500Y1712600D01*
X1794000*
X1780200Y1708700D02*
G01X1780300D01*
X1785800Y1703200*
Y1698400*
X1790000Y1717100D02*
G01Y1708500D01*
X1792000Y1706500*
X1801500*
X1811000Y1716000*
X1846000*
X1849500Y1712500*
Y1707100*
X1851200Y1705400*
X1790000Y1717100D02*
G01X1790800Y1717900D01*
X1794000Y1714700D02*
G01X1796000D01*
X1804300Y1723000*
X1833000*
X1835500Y1720500*
X1848500*
X1853500Y1715500*
Y1712500*
X1857000Y1709000*
X1873000*
X1877000Y1705000*
Y1693000*
X1794000Y1710000D02*
G01X1795000D01*
X1806500Y1721500*
X1832000*
X1834500Y1719000*
X1848000*
X1852000Y1715000*
Y1711500*
X1856000Y1707500*
X1871000*
X1873500Y1705000*
Y1693700*
X1876200Y1691000*
X1877000*
X1773500Y1703000D02*
G01Y1701700D01*
X1775300Y1699900*
Y1698000*
X1785400Y1687900*
Y1679900*
X1790500Y1674800*
X1856600Y1714484D02*
G01X1859616Y1717500D01*
X1870000*
X1871500Y1716000*
X1867000Y1729000D02*
G01X1868500Y1727500D01*
X1887000*
X1890000Y1730500*
X1918500*
X1921000Y1728000*
X1877000Y1731500D02*
G01X1879500Y1729000D01*
X1886000*
X1889000Y1732000*
X1922000*
X1926000Y1728000*
G54D12*
X1764000Y1616500D02*
G01X1766500Y1619000D01*
X1779200*
X1784500Y1624300*
X1788500*
X1797200Y1633000*
Y1641900*
X1798800Y1643500*
X1801000*
X1770000Y1614000D02*
G01X1770500Y1614500D01*
X1802000*
X1807000Y1619500*
Y1634000*
X1814000Y1641000*
X1818000*
X1820500Y1643500*
X1764000Y1613500D02*
G01X1766200Y1615700D01*
X1801500*
X1805800Y1620000*
Y1634500*
X1812500Y1641200*
Y1643000*
X1778500Y1620500D02*
G01X1779000D01*
X1784000Y1625500*
X1788000*
X1796000Y1633500*
Y1643500*
X1932500Y1635000D02*
G01X1934800Y1637300D01*
X1955300*
X1955500Y1637500*
X1945500Y1639500D02*
G01X1960000D01*
X1827500Y1670600D02*
G01X1829600Y1668500D01*
Y1663500*
X1833300Y1659800*
X1851400*
X1852600Y1658600*
X1857800*
X1862100Y1654300*
X1874100*
X1875900Y1656100*
X1882500*
X1894400Y1644200*
Y1639800*
X1896900Y1637300*
X1930200*
X1932500Y1635000*
X1831500Y1671500D02*
G01Y1663300D01*
X1833800Y1661000*
X1851900*
X1853100Y1659800*
X1858400*
X1862700Y1655500*
X1873500*
X1875300Y1657300*
X1883000*
X1895600Y1644700*
Y1640300*
X1897400Y1638500*
X1944500*
X1945500Y1639500*
X1831400Y1675200D02*
G01X1832345D01*
X1834300Y1673245*
Y1664600*
X1835700Y1663200*
X1852700*
X1854000Y1661900*
X1864200*
X1867000Y1664700*
X1879900*
X1881500Y1666300*
X1884900*
X1894672Y1656528*
X1903900Y1647300*
X1913500*
X1917500Y1643300*
X1827500Y1673700D02*
G01Y1673500D01*
X1832300*
X1833100Y1672700*
Y1664100*
X1835200Y1662000*
X1852100*
X1853400Y1660700*
X1865100*
X1867900Y1663500*
X1880400*
X1882000Y1665100*
X1884200*
X1905900Y1643400*
X1907400*
X1907500Y1643300*
G54D14*
X1750227Y1512500D02*
G01Y1512813D01*
Y1512813D02*
G01X1750455Y1513438D01*
Y1513438D02*
G01X1750682Y1513750D01*
X1751136Y1514063*
Y1514063D02*
G01X1752045D01*
Y1514063D02*
G01X1752500Y1513750D01*
X1752727Y1513438*
Y1513438D02*
G01X1752955Y1512813D01*
Y1512813D02*
G01Y1512188D01*
Y1512188D02*
G01X1752727Y1511563D01*
Y1511563D02*
G01X1752273Y1510625D01*
X1750000Y1507500*
X1753182*
X1763636Y1513125D02*
G01X1763182Y1513750D01*
X1762500Y1514063*
Y1514063D02*
G01X1761591D01*
Y1514063D02*
G01X1760909Y1513750D01*
X1760455Y1513125*
Y1512500*
X1760682Y1511875*
X1760909Y1511563*
Y1511563D02*
G01X1761364Y1511250D01*
X1762727Y1510625*
X1763182Y1510313*
Y1510313D02*
G01X1763409Y1510000D01*
X1763636Y1509375*
Y1508438*
Y1508438D02*
G01X1763182Y1507813D01*
Y1507813D02*
G01X1762500Y1507500D01*
X1761591*
X1760909Y1507813*
Y1507813D02*
G01X1760455Y1508438D01*
X1767273Y1514063D02*
G01Y1507500D01*
X1765682Y1514063D02*
G01X1768864D01*
X1770909D02*
G01Y1507500D01*
Y1514063D02*
G01X1772955D01*
Y1514063D02*
G01X1773636Y1513750D01*
X1773864Y1513438*
Y1513438D02*
G01X1774091Y1512813D01*
Y1512813D02*
G01Y1512188D01*
Y1512188D02*
G01X1773864Y1511563D01*
Y1511563D02*
G01X1773636Y1511250D01*
X1772955Y1510938*
Y1510938D02*
G01X1770909D01*
X1772500D02*
G01X1774091Y1507500D01*
X1777955Y1514063D02*
G01X1776136Y1507500D01*
X1777955Y1514063D02*
G01X1779773Y1507500D01*
X1776818Y1509688D02*
G01X1779091D01*
X1783409Y1514063D02*
G01Y1507500D01*
X1781818Y1514063D02*
G01X1785000D01*
X1788409D02*
G01X1787955Y1513750D01*
X1787500Y1513125*
X1787273Y1512500*
X1787045Y1511563*
Y1511563D02*
G01Y1510000D01*
X1787273Y1509063*
Y1509063D02*
G01X1787500Y1508438D01*
Y1508438D02*
G01X1787955Y1507813D01*
Y1507813D02*
G01X1788409Y1507500D01*
X1789318*
X1789773Y1507813*
Y1507813D02*
G01X1790227Y1508438D01*
Y1508438D02*
G01X1790455Y1509063D01*
Y1509063D02*
G01X1790682Y1510000D01*
Y1511563*
Y1511563D02*
G01X1790455Y1512500D01*
X1790227Y1513125*
X1789773Y1513750*
X1789318Y1514063*
Y1514063D02*
G01X1788409D01*
X1797955D02*
G01Y1507500D01*
X1800000Y1514063D02*
G01Y1507500D01*
Y1514063D02*
G01X1803182Y1507500D01*
Y1514063D02*
G01Y1507500D01*
X1806818Y1514063D02*
G01Y1507500D01*
X1805227Y1514063D02*
G01X1808409D01*
X1810455D02*
G01Y1507500D01*
Y1514063D02*
G01X1813409D01*
X1810455Y1510938D02*
G01X1812273D01*
X1810455Y1507500D02*
G01X1813409D01*
X1815455Y1514063D02*
G01Y1507500D01*
Y1514063D02*
G01X1817500D01*
Y1514063D02*
G01X1818182Y1513750D01*
X1818409Y1513438*
Y1513438D02*
G01X1818636Y1512813D01*
Y1512813D02*
G01Y1512188D01*
Y1512188D02*
G01X1818409Y1511563D01*
Y1511563D02*
G01X1818182Y1511250D01*
X1817500Y1510938*
Y1510938D02*
G01X1815455D01*
X1817045D02*
G01X1818636Y1507500D01*
X1820682Y1514063D02*
G01Y1507500D01*
Y1514063D02*
G01X1823864Y1507500D01*
Y1514063D02*
G01Y1507500D01*
X1827273Y1514063D02*
G01X1826818Y1513750D01*
X1826364Y1513125*
X1826136Y1512500*
X1825909Y1511563*
Y1511563D02*
G01Y1510000D01*
X1826136Y1509063*
Y1509063D02*
G01X1826364Y1508438D01*
Y1508438D02*
G01X1826818Y1507813D01*
Y1507813D02*
G01X1827273Y1507500D01*
X1828182*
X1828636Y1507813*
Y1507813D02*
G01X1829091Y1508438D01*
Y1508438D02*
G01X1829318Y1509063D01*
Y1509063D02*
G01X1829545Y1510000D01*
Y1511563*
Y1511563D02*
G01X1829318Y1512500D01*
X1829091Y1513125*
X1828636Y1513750*
X1828182Y1514063*
Y1514063D02*
G01X1827273D01*
X1750827Y1577323D02*
G01X1979173D01*
Y1742677*
X1750827*
Y1577323*
X1755000Y1780000D02*
G01X1735000D01*
Y1760000*
Y1440000D02*
G01Y1420000D01*
X1755000*
X2265000Y1760000D02*
G01Y1780000D01*
X2245000*
Y1420000D02*
G01X2265000D01*
Y1440000*
X1987047Y1577323D02*
G01X2215394D01*
Y1742677*
X1987047*
Y1577323*
X1750827Y1569449D02*
G01X2215394D01*
Y1549764*
X1750827*
Y1569449*
Y1770236D02*
G01X2215394D01*
Y1750551*
X1750827*
Y1770236*
X1810695Y1569538D02*
G75*
G03X1810702Y1577300I163J3881D01*
X1829505Y1577290D02*
G03X1829498Y1569500I-163J-3895D01*
X1901295Y1569538D02*
G03X1901302Y1577300I163J3881D01*
X1920105Y1577290D02*
G03X1920098Y1569500I-163J-3895D01*
X1979410Y1619805D02*
G03X1987200Y1619798I3895J-163D01*
X1987162Y1600995D02*
G03X1979400Y1601002I-3881J163D01*
X1987162Y1699895D02*
G03X1979400Y1699902I-3881J163D01*
X1979410Y1718705D02*
G03X1987200Y1718698I3895J-163D01*
X1920205Y1750600D02*
G03X1920198Y1742600I-168J-4000D01*
X1901295D02*
G03X1901302Y1750600I168J4000D01*
X1829705D02*
G03X1829698Y1742600I-168J-4000D01*
X1810795D02*
G03X1810802Y1750600I168J4000D01*
X2137295Y1742600D02*
G03X2137302Y1750600I168J4000D01*
X2156205D02*
G03X2156198Y1742600I-168J-4000D01*
X2065705Y1750600D02*
G03X2065698Y1742600I-168J-4000D01*
X2046795D02*
G03X2046802Y1750600I168J4000D01*
X2046695Y1569538D02*
G03X2046702Y1577300I163J3881D01*
X2065505Y1577290D02*
G03X2065498Y1569500I-163J-3895D01*
X2137295Y1569538D02*
G03X2137302Y1577300I163J3881D01*
X2156105Y1577290D02*
G03X2156098Y1569500I-163J-3895D01*
G54D61*
X1761000Y1615500D02*
G01Y1619500D01*
X1771700Y1630200*
X1780200*
X1784000Y1634000*
X1789500*
X1793500Y1638000*
Y1643000*
Y1648000*
X1795000Y1649500*
X1815500*
X1817000Y1648000*
Y1643000*
X1912500Y1643500D02*
G01X1915000Y1641000D01*
X1932000*
X1935500Y1644500*
X1961000*
X1962500Y1643000*
Y1630000*
X1909500Y1666500D02*
G01X1944500D01*
X1833500Y1725500D02*
G01X1836500Y1722500D01*
X1850000*
X1853000Y1719500*
X1874000*
X1887000Y1706500*
X1896000*
X1938500*
X1941000Y1709000*
Y1712000*
X1896000Y1706500D02*
G01Y1715500D01*
G54D11*
X2046720Y1594504D02*
G01Y1623004D01*
X2047720Y1624004*
X2046720Y1594504D02*
G01X2055720Y1585504D01*
X2174720*
X2177720Y1588504*
Y1603004*
X2179220Y1604504*
X2193720*
X2211220Y1622004*
Y1642004*
X2048220Y1595004D02*
G01Y1612004D01*
X2050220Y1614004*
X2048220Y1595004D02*
G01X2056220Y1587004D01*
X2173720*
X2176220Y1589504*
Y1604504*
X2177720Y1606004*
X2193220*
X2209720Y1622504*
Y1641004*
X2054720Y1593004D02*
G01Y1623004D01*
X2059220Y1627504*
X2054720Y1593004D02*
G01X2057720Y1590004D01*
X2172220*
X2173220Y1591004*
Y1606504*
X2175720Y1609004*
X2192220*
X2206720Y1623504*
Y1637704*
X2056720Y1613504D02*
G01X2057770Y1612454D01*
X2074570*
X2080720Y1618604*
X2083520*
X2056220Y1610004D02*
G01X2071720D01*
X2072220Y1610504*
X2078720*
X2079720Y1609504*
X2085220*
X2086720Y1611004*
Y1621204*
X2065720Y1607004D02*
G01X2070220D01*
X2072720Y1609504*
X2077720*
X2078720Y1608504*
X2107220*
X1988820Y1642904D02*
G01Y1716204D01*
X1990720Y1718104*
X1998620*
X1988820Y1642904D02*
G01X1990620Y1641104D01*
X1994320*
X1995220Y1637004D02*
G01Y1611004D01*
X2008220Y1598004*
X1995220Y1637004D02*
G01X1996720Y1638504D01*
X2013220*
X2002220Y1644504D02*
G01X2008420D01*
X2012520Y1648604*
X2020920*
X2025320Y1653004*
X2029720*
X2030920Y1651804*
X2059720*
X2063220Y1648304*
Y1638404*
X2064020Y1637604*
X1994120Y1648504D02*
G01Y1647004D01*
X1997620Y1643504*
X1999220*
X2000720Y1645004*
Y1645604*
X2002020Y1646904*
X2008520*
X2012020Y1650404*
Y1656604*
X2013120Y1657704*
Y1663504*
X2015820Y1666204*
X2017720*
X2024220Y1672704*
X2029220*
X2030320Y1673804*
X1998220Y1645504D02*
G01X2000920Y1648204D01*
X2007420*
X2010620Y1651404*
Y1657504*
X2012120Y1659004*
Y1664504*
X2016120Y1668504*
X2016920*
X2023220Y1674804*
X2026720*
X2013220Y1655804D02*
G01Y1651504D01*
X2014720Y1650004*
X2020220*
X2024820Y1654604*
X2044820*
X2046220Y1656004*
X2060220*
X2069420Y1646804*
X2090020*
X2091720Y1648504*
X2013220Y1655804D02*
G01X2014720Y1657304D01*
X2019020*
X2024220Y1662504*
X2026220*
X2014720Y1654504D02*
G01Y1652783D01*
X2015720Y1651783*
X2016641*
X2014720Y1654504D02*
G01Y1655504D01*
X2015420Y1656204*
X2020920*
X2024720Y1660004*
X2026220*
X2028220Y1662004*
Y1666004*
X2030220Y1668004*
X2039720*
X2042220Y1665504*
X2046220*
X2049720Y1669004*
Y1673004*
X2050620Y1673904*
X2056020*
X2060020Y1677904*
X2064520*
X2065620Y1679004*
X2085720*
X2091720Y1673004*
X2094220*
X2045220Y1627504D02*
G01Y1593504D01*
X2054720Y1584004*
X2175720*
X2179220Y1587504*
Y1601504*
X2180720Y1603004*
X2194220*
X2212720Y1621504*
Y1660504*
X2026920Y1656604D02*
G01X2027520Y1656004D01*
X2043720*
X2045620Y1657904*
X2060820*
X2070220Y1648504*
X2074220*
X2076720Y1651004*
X2094620*
X2097120Y1648504*
X2110720*
X2113220Y1651004*
X2016620Y1654630D02*
G01X2021846D01*
X2025720Y1658504*
X2026720*
X2029720Y1661504*
Y1663004*
X2030720Y1664004*
X2047220*
X2049220Y1666004*
X2052920*
X2056020Y1669104*
Y1671704*
X2061120Y1676804*
X2065320*
X2066520Y1678004*
X2082220*
X2084820*
X2091020Y1671804*
X2092520*
X2093344Y1670980*
X2093367Y1671004*
X2094120*
X2051520Y1627504D02*
G01Y1614004D01*
X2053220Y1612304*
Y1592504*
X2057220Y1588504*
X2172720*
X2174720Y1590504*
Y1606004*
X2176220Y1607504*
X2192720*
X2208220Y1623004*
Y1640504*
X2049220Y1627504D02*
G01Y1625504D01*
X2050220Y1624504*
Y1614004*
X2085720Y1644804D02*
G01X2089820Y1640704D01*
X2097620*
X2104020Y1647104*
X2113220*
X2113370Y1644904D02*
G01Y1642354D01*
X2138220Y1617504*
X2168720*
X2170720Y1615504*
Y1592504*
X2171220Y1592004*
X2113370Y1644904D02*
G01X2114920Y1646404D01*
Y1648204*
X2114120Y1649004D02*
G01X2114920Y1648204D01*
X2115920Y1652704D02*
G01X2116820D01*
X2118220Y1651304*
X2128020Y1641504*
Y1637204*
X2144720Y1620504*
X2170948*
X2173948Y1617504*
Y1614504*
X2115220Y1644404D02*
G01Y1642504D01*
X2138720Y1619004*
X2169720*
X2172220Y1616504*
Y1613504*
X2173220Y1612504*
X2178220*
X2179220Y1613504*
X2104820Y1643804D02*
G01X2104920Y1643704D01*
Y1618804*
X2108220Y1615504*
X2167720*
X2168720Y1614504*
X2203120Y1641304D02*
G01X2206720Y1637704D01*
X2187720Y1653004D02*
G01Y1655204D01*
X2189520Y1657004*
X2196420*
X2198720Y1654704*
Y1650004*
X2208220Y1640504*
X1992720Y1694904D02*
G01Y1711504D01*
X1994220Y1713004*
X2005820*
X2011520Y1718704*
Y1729904*
X2013620Y1732004*
X2021320*
X2024820Y1735504*
X2067720*
X2071220Y1739004*
X2087220*
X2100220Y1726004*
X2127720*
X2130720Y1729004*
X2137220*
X2140220Y1726004*
X2185220*
X2189150Y1722074*
X2194220*
Y1722004*
X1992720Y1694904D02*
G01X2004920Y1682704D01*
Y1679404*
X2002720Y1695504D02*
G01Y1708504D01*
X2004220Y1710004*
X2007420*
X2023420Y1726004*
X2047720*
X2053720Y1732004*
X2081720*
X2090720Y1723004*
X2178220*
X2184720Y1716504*
Y1712504*
X2002720Y1695504D02*
G01X2016020Y1682204D01*
Y1678904*
X1991220Y1694304D02*
G01X1993720Y1691804D01*
Y1681104*
X1996020Y1678804*
X2001820D02*
G01X2004320D01*
X2004920Y1679404*
X2014820Y1663404D02*
G01Y1660304D01*
X2016120Y1659004*
X2016720*
X2014820Y1663404D02*
G01X2015920Y1664504D01*
X2018220*
X2024720Y1671004*
X2030220*
X2034220Y1675004*
X2048720*
X2056570Y1682854*
X2069370*
X2070220Y1682004*
X2086420*
X2092120Y1676304*
X2099520*
X2103120Y1672704*
X2111620*
X2113320Y1671004*
X2026720Y1674804D02*
G01X2028220D01*
X2031620Y1661704D02*
G01Y1660504D01*
X2032620Y1659504*
X2061220*
X2064720Y1656004*
X2072220*
X2075220Y1653004*
X2091920*
X2093420Y1654504*
X2095120*
X2096620Y1653004*
X2113820*
X2115220Y1654404*
X2118620*
X2129320Y1643704*
Y1638604*
X2135920Y1632004*
X2177220*
X2185220Y1624004*
X2016220Y1670504D02*
G01X2018720Y1673004D01*
Y1680504*
X2020020Y1697104D02*
G01X2020120D01*
X2020420Y1696804*
X2023520*
X2024720Y1698004*
X2043220*
X2057220Y1684004*
X2066620*
X2067320Y1684704*
X2067520*
X2016520Y1662504D02*
G01X2018220D01*
X2025220Y1669504*
X2031220*
X2034220Y1672504*
X2047720*
X2056920Y1681704*
X2067520*
X2068720Y1680504*
X2085920*
X2091720Y1674704*
X2092820*
X2061020Y1686804D02*
G01Y1688404D01*
X2062120Y1689504*
X2081720*
X2084720Y1686504*
X2087320*
X2092820Y1681004*
X2094220*
X2058720Y1687504D02*
G01Y1687804D01*
X2061720Y1690804*
X2094020*
Y1691204*
X2094120Y1691304*
X2075320Y1665704D02*
G01X2092820D01*
X2094920Y1663604*
X2100020*
X2102320Y1665904*
X2108620*
X2111520Y1668804*
X2076120Y1686104D02*
G01X2076320D01*
X2077720Y1684704*
X2085820*
X2093120Y1677404*
X2096620*
X2097620Y1678404*
X2107020*
X2076220Y1697004D02*
G01X2077320Y1695904D01*
X2089220*
X2090720Y1697404*
X2096720*
X2099320Y1694804*
X2104220*
X2108320Y1690704*
Y1689204*
X2110620Y1686904*
Y1685204*
X2112820Y1683004*
X2146720*
X2162720Y1699004*
X2178720*
X2188220Y1708504*
X2089620Y1692904D02*
G01X2099020D01*
X2102120Y1689804*
X2105820*
X2109320Y1686304*
Y1680504*
X2112820Y1677004*
X2148220*
X2153720Y1682504*
X2171720*
X2175220Y1686004*
Y1695504*
X2107020Y1678404D02*
G01X2111320Y1674104D01*
X2132520*
X2155220Y1651404*
X2165720*
X2167220Y1649904*
X2189820*
X2191720Y1651804*
Y1653104*
X2111520Y1668804D02*
G01X2114220D01*
X2115820Y1667204*
X2121820*
X2139120Y1649904*
X2165020*
X2168620Y1646304*
X2191020*
X2193820Y1649104*
Y1654304*
X2175720Y1672604D02*
G01Y1669704D01*
X2176420Y1669004*
X2182320*
X2175720Y1672604D02*
G01X2176720Y1673604D01*
X2177720*
X2177820Y1673504*
X2182320Y1669004D02*
G01X2184120Y1667204D01*
Y1653304*
X2186220Y1651204*
X2188720*
X2189520Y1652004*
Y1653604*
X2190920Y1655004*
X2193120*
X2193820Y1654304*
X2204720Y1668504D02*
G01X2212720Y1660504D01*
X2180720Y1689004D02*
G01Y1677104D01*
X2202220Y1655604*
Y1651004*
X2211220Y1642004*
X2177720Y1671004D02*
G01X2184920D01*
X2201020Y1654904*
Y1649704*
X2209720Y1641004*
X1998620Y1718104D02*
G01X1999520Y1717204D01*
Y1716404*
X2008220Y1700904D02*
G01Y1708704D01*
X2024020Y1724504*
X2065720*
X2069220Y1728004*
X2074720*
X2078220Y1724504*
X2087220*
X2090220Y1721504*
X2122220*
X2129720Y1714004*
X2008220Y1700904D02*
G01X2010020Y1699104D01*
Y1697404*
X2018720Y1688704*
Y1680504*
X2001220Y1709004D02*
G01X2003720Y1711504D01*
X2006820*
X2029320Y1734004*
X2068720*
X2072220Y1737504*
X2086720*
X2099720Y1724504*
X2128720*
X2131720Y1727504*
X2136220*
X2139220Y1724504*
X2184720*
X2194720Y1714504*
Y1707004*
X2001220Y1709004D02*
G01X2001320Y1708904D01*
Y1688904*
X2011920Y1678304*
X2013520*
X1991220Y1694304D02*
G01Y1712004D01*
X1993720Y1714504*
X2005420*
X2010220Y1719304*
Y1730904*
X2016320Y1737004*
X2067220*
X2070720Y1740504*
X2109720*
X2118220Y1732004*
X2013220Y1702504D02*
G01X2013020Y1702397D01*
Y1698204*
X2023020Y1688204*
Y1680704*
X2026520Y1677204*
X2028620*
X2030320Y1675504*
Y1673804*
X2027720Y1711604D02*
G01Y1709504D01*
X2029220Y1708004*
X2032220*
X2044220Y1720004*
X2067220*
X2069720Y1717504*
X2083220*
X2087220Y1713504*
Y1710504*
X2091720Y1706004*
X2104720*
X2107220Y1703504*
Y1693804*
X2110220Y1690804*
Y1689204*
X2112420Y1687004*
X2113220*
X2027720Y1711604D02*
G01X2028720Y1712604D01*
X2030220*
X2016420Y1708704D02*
G01X2016520D01*
X2022020Y1703204*
Y1698404*
X2026220Y1717104D02*
G01Y1708504D01*
X2028220Y1706504*
X2037720*
X2047220Y1716004*
X2082220*
X2085720Y1712504*
Y1707104*
X2087420Y1705404*
X2026220Y1717104D02*
G01X2027020Y1717904D01*
X2030220Y1714704D02*
G01X2032220D01*
X2040520Y1723004*
X2069220*
X2071720Y1720504*
X2084720*
X2089720Y1715504*
Y1712504*
X2093220Y1709004*
X2109220*
X2113220Y1705004*
Y1693004*
X2030220Y1710004D02*
G01X2031220D01*
X2042720Y1721504*
X2068220*
X2070720Y1719004*
X2084220*
X2088220Y1715004*
Y1711504*
X2092220Y1707504*
X2107220*
X2109720Y1705004*
Y1693704*
X2112420Y1691004*
X2113220*
X2009720Y1703004D02*
G01Y1701704D01*
X2011520Y1699904*
Y1698004*
X2021620Y1687904*
Y1679904*
X2026720Y1674804*
X2092820Y1714488D02*
G01X2095836Y1717504D01*
X2106220*
X2107720Y1716004*
X2103220Y1729004D02*
G01X2104720Y1727504D01*
X2123220*
X2126220Y1730504*
X2154720*
X2157220Y1728004*
X2113220Y1731504D02*
G01X2115720Y1729004D01*
X2122220*
X2125220Y1732004*
X2158220*
X2162220Y1728004*
G54D12*
X2000220Y1616504D02*
G01X2002720Y1619004D01*
X2015420*
X2020720Y1624304*
X2024720*
X2033420Y1633004*
Y1641904*
X2035020Y1643504*
X2037220*
X2006220Y1614004D02*
G01X2006720Y1614504D01*
X2038220*
X2043220Y1619504*
Y1634004*
X2050220Y1641004*
X2054220*
X2056720Y1643504*
X2000220Y1613504D02*
G01X2002420Y1615704D01*
X2037720*
X2042020Y1620004*
Y1634504*
X2048720Y1641204*
Y1643004*
X2014720Y1620504D02*
G01X2015220D01*
X2020220Y1625504*
X2024220*
X2032220Y1633504*
Y1643504*
X2168720Y1635004D02*
G01X2171020Y1637304D01*
X2191520*
X2191720Y1637504*
X2181720Y1639504D02*
G01X2196220D01*
X2063720Y1670604D02*
G01X2065820Y1668504D01*
Y1663504*
X2069520Y1659804*
X2087620*
X2088820Y1658604*
X2094020*
X2098320Y1654304*
X2110320*
X2112120Y1656104*
X2118720*
X2130620Y1644204*
Y1639804*
X2133120Y1637304*
X2166420*
X2168720Y1635004*
X2067720Y1671504D02*
G01Y1663304D01*
X2070020Y1661004*
X2088120*
X2089320Y1659804*
X2094620*
X2098920Y1655504*
X2109720*
X2111520Y1657304*
X2119220*
X2131820Y1644704*
Y1640304*
X2133620Y1638504*
X2180720*
X2181720Y1639504*
X2067620Y1675204D02*
G01X2068565D01*
X2070520Y1673249*
Y1664604*
X2071920Y1663204*
X2088920*
X2090220Y1661904*
X2100420*
X2103220Y1664704*
X2116120*
X2117720Y1666304*
X2121120*
X2130892Y1656532*
X2140120Y1647304*
X2149720*
X2153720Y1643304*
X2063720Y1673704D02*
G01Y1673504D01*
X2068520*
X2069320Y1672704*
Y1664104*
X2071420Y1662004*
X2088320*
X2089620Y1660704*
X2101320*
X2104120Y1663504*
X2116620*
X2118220Y1665104*
X2120420*
X2142120Y1643404*
X2143620*
X2143720Y1643304*
G54D14*
X1987047Y1577327D02*
G01X2215393D01*
Y1742681*
X1987047*
Y1577327*
G54D61*
X1997220Y1615504D02*
G01Y1619504D01*
X2007920Y1630204*
X2016420*
X2020220Y1634004*
X2025720*
X2029720Y1638004*
Y1643004*
Y1648004*
X2031220Y1649504*
X2051720*
X2053220Y1648004*
Y1643004*
X2148720Y1643504D02*
G01X2151220Y1641004D01*
X2168220*
X2171720Y1644504*
X2197220*
X2198720Y1643004*
Y1630004*
X2145720Y1666504D02*
G01X2180720D01*
X2069720Y1725504D02*
G01X2072720Y1722504D01*
X2086220*
X2089220Y1719504*
X2110220*
X2123220Y1706504*
X2132220*
X2174720*
X2177220Y1709004*
Y1712004*
X2132220Y1706504D02*
G01Y1715504D01*
M02*
