*
*
G04 PADS 9.5 Build Number: 522968 generated Gerber (RS-274-X) file*
G04 PC Version=2.1*
*
%IN "BBA.pcb"*%
*
%MOIN*%
*
%FSLAX35Y35*%
*
*
*
*
G04 PC Standard Apertures*
*
*
G04 Thermal Relief Aperture macro.*
%AMTER*
1,1,$1,0,0*
1,0,$1-$2,0,0*
21,0,$3,$4,0,0,45*
21,0,$3,$4,0,0,135*
%
*
*
G04 Annular Aperture macro.*
%AMANN*
1,1,$1,0,0*
1,0,$2,0,0*
%
*
*
G04 Odd Aperture macro.*
%AMODD*
1,1,$1,0,0*
1,0,$1-0.005,0,0*
%
*
*
G04 PC Custom Aperture Macros*
*
*
*
*
*
*
G04 PC Aperture Table*
*
%ADD011C,0.01*%
%ADD016C,0.008*%
%ADD033C,0.001*%
%ADD057C,0.01181*%
*
*
*
*
G04 PC Circuitry*
G04 Layer Name BBA.pcb - circuitry*
%LPD*%
*
*
G04 PC Custom Flashes*
G04 Layer Name BBA.pcb - flashes*
%LPD*%
*
*
G04 PC Circuitry*
G04 Layer Name BBA.pcb - circuitry*
%LPD*%
*
G54D11*
G01X978969Y404050D02*
X978515Y404675D01*
X977833Y404988*
X976924*
X976242Y404675*
X975787Y404050*
Y403425*
X976015Y402800*
X976242Y402488*
X976696Y402175*
X978060Y401550*
X978515Y401238*
X978742Y400925*
X978969Y400300*
Y399363*
X978515Y398738*
X977833Y398425*
X976924*
X976242Y398738*
X975787Y399363*
X981015Y404988D02*
Y398425D01*
X983060Y404988D02*
Y398425D01*
X985787*
X987833Y404988D02*
Y398425D01*
X991015Y404988D02*
X987833Y400613D01*
X988969Y402175D02*
X991015Y398425D01*
X996242Y404050D02*
X995787Y404675D01*
X995106Y404988*
X994196*
X993515Y404675*
X993060Y404050*
Y403425*
X993287Y402800*
X993515Y402488*
X993969Y402175*
X995333Y401550*
X995787Y401238*
X996015Y400925*
X996242Y400300*
Y399363*
X995787Y398738*
X995106Y398425*
X994196*
X993515Y398738*
X993060Y399363*
X1001696Y403425D02*
X1001469Y404050D01*
X1001015Y404675*
X1000560Y404988*
X999651*
X999196Y404675*
X998742Y404050*
X998515Y403425*
X998287Y402488*
Y400925*
X998515Y399988*
X998742Y399363*
X999196Y398738*
X999651Y398425*
X1000560*
X1001015Y398738*
X1001469Y399363*
X1001696Y399988*
X1003742Y404988D02*
Y398425D01*
Y404988D02*
X1005787D01*
X1006469Y404675*
X1006696Y404363*
X1006924Y403738*
Y403113*
X1006696Y402488*
X1006469Y402175*
X1005787Y401863*
X1003742*
X1005333D02*
X1006924Y398425D01*
X1008969Y404988D02*
Y398425D01*
Y404988D02*
X1011924D01*
X1008969Y401863D02*
X1010787D01*
X1008969Y398425D02*
X1011924D01*
X1013969Y404988D02*
Y398425D01*
Y404988D02*
X1016924D01*
X1013969Y401863D02*
X1015787D01*
X1013969Y398425D02*
X1016924D01*
X1018969Y404988D02*
Y398425D01*
Y404988D02*
X1022151Y398425D01*
Y404988D02*
Y398425D01*
X1029424Y404988D02*
Y398425D01*
Y404988D02*
X1031469D01*
X1032151Y404675*
X1032378Y404363*
X1032606Y403738*
Y403113*
X1032378Y402488*
X1032151Y402175*
X1031469Y401863*
X1029424D02*
X1031469D01*
X1032151Y401550*
X1032378Y401238*
X1032606Y400613*
Y399675*
X1032378Y399050*
X1032151Y398738*
X1031469Y398425*
X1029424*
X1036015Y404988D02*
X1035560Y404675D01*
X1035106Y404050*
X1034878Y403425*
X1034651Y402488*
Y400925*
X1034878Y399988*
X1035106Y399363*
X1035560Y398738*
X1036015Y398425*
X1036924*
X1037378Y398738*
X1037833Y399363*
X1038060Y399988*
X1038287Y400925*
Y402488*
X1038060Y403425*
X1037833Y404050*
X1037378Y404675*
X1036924Y404988*
X1036015*
X1041924D02*
Y398425D01*
X1040333Y404988D02*
X1043515D01*
X1047151D02*
Y398425D01*
X1045560Y404988D02*
X1048742D01*
X1052151D02*
X1051696Y404675D01*
X1051242Y404050*
X1051015Y403425*
X1050787Y402488*
Y400925*
X1051015Y399988*
X1051242Y399363*
X1051696Y398738*
X1052151Y398425*
X1053060*
X1053515Y398738*
X1053969Y399363*
X1054196Y399988*
X1054424Y400925*
Y402488*
X1054196Y403425*
X1053969Y404050*
X1053515Y404675*
X1053060Y404988*
X1052151*
X1056469D02*
Y398425D01*
Y404988D02*
X1058287Y398425D01*
X1060106Y404988D02*
X1058287Y398425D01*
X1060106Y404988D02*
Y398425D01*
X805315Y443110D02*
Y449016D01*
X836811D02*
G75*
G03X805315I-15748J-0D01*
G01X836811D02*
Y443110D01*
X840748Y439173*
X899016*
X902953Y443110*
Y517913*
X899016Y521850*
X767126*
X763189Y517913*
Y504134*
X745472D02*
G03X763189I8859J-0D01*
G01X745472D02*
Y553346D01*
X741535Y557283*
X650984*
X647047Y553346*
Y504134*
X629331D02*
G03X647047I8858J-0D01*
G01X629331D02*
Y517913D01*
X625394Y521850*
X493504*
X489567Y517913*
Y443110*
X493504Y439173*
X551772*
X555709Y443110*
Y449016*
X587205D02*
G03X555709I-15748J-0D01*
G01X587205D02*
Y443110D01*
X591142Y439173*
X801378*
X805315Y443110*
X766260Y629173D02*
X1024260D01*
X766260Y605173D02*
X1024260D01*
X766260Y581173D02*
X1024260D01*
X766260Y557173D02*
X1024260D01*
X766260Y533173D02*
X1024260D01*
X766260Y509173D02*
X1024260D01*
X766260Y629173D02*
Y509173D01*
X850260Y629173D02*
Y509173D01*
X886260Y629173D02*
Y509173D01*
X922260Y629173D02*
Y509173D01*
X976260Y629173D02*
Y509173D01*
X1024260Y629173D02*
Y509173D01*
G54D16*
X612535Y468638D02*
X620535D01*
X612535Y476638*
X620535*
X612535Y468638*
X669760Y539110D02*
X677760Y547110D01*
Y539110*
X669760Y547110*
Y539110*
X684760D02*
X692760Y547110D01*
Y539110*
X684760Y547110*
Y539110*
X699760D02*
X707760Y547110D01*
Y539110*
X699760Y547110*
Y539110*
X714760D02*
X722760Y547110D01*
Y539110*
X714760Y547110*
Y539110*
Y508008D02*
X722760Y516008D01*
Y508008*
X714760Y516008*
Y508008*
X699760D02*
X707760Y516008D01*
Y508008*
X699760Y516008*
Y508008*
X684760D02*
X692760Y516008D01*
Y508008*
X684760Y516008*
Y508008*
X669760D02*
X677760Y516008D01*
Y508008*
X669760Y516008*
Y508008*
X886748Y459071D02*
X894748D01*
Y467071*
X886748*
Y459071*
X890748Y463071D02*
Y467071D01*
X886748Y449071D02*
X894748D01*
Y457071*
X886748*
Y449071*
X890748Y453071D02*
Y457071D01*
X771984Y468638D02*
X779984D01*
X771984Y476638*
X779984*
X771984Y468638*
X873425Y455193D02*
X877425Y459193D01*
X873425Y463193*
X869425Y459193*
X873425Y455193*
Y459193D02*
Y463193D01*
X857677Y455193D02*
X861677Y459193D01*
X857677Y463193*
X853677Y459193*
X857677Y455193*
Y459193D02*
Y463193D01*
X534843Y455193D02*
X538843Y459193D01*
X534843Y463193*
X530843Y459193*
X534843Y455193*
Y459193D02*
Y463193D01*
X519094Y455193D02*
X523094Y459193D01*
X519094Y463193*
X515094Y459193*
X519094Y455193*
Y459193D02*
Y463193D01*
X801860Y617923D02*
X801314Y618673D01*
X800496Y619048*
X799405*
X798587Y618673*
X798042Y617923*
Y617173*
X798314Y616423*
X798587Y616048*
X799133Y615673*
X800769Y614923*
X801314Y614548*
X801587Y614173*
X801860Y613423*
Y612298*
X801314Y611548*
X800496Y611173*
X799405*
X798587Y611548*
X798042Y612298*
X804314Y619048D02*
Y611173D01*
X810587Y619048D02*
X806769Y611173D01*
Y619048D02*
X810587D01*
X806769Y611173D02*
X810587D01*
X813042Y619048D02*
Y611173D01*
Y619048D02*
X816587D01*
X813042Y615298D02*
X815223D01*
X813042Y611173D02*
X816587D01*
X860223Y619048D02*
X859678Y618673D01*
X859133Y617923*
X858860Y617173*
X858587Y616048*
Y614173*
X858860Y613048*
X859133Y612298*
X859678Y611548*
X860223Y611173*
X861314*
X861860Y611548*
X862405Y612298*
X862678Y613048*
X862951Y614173*
Y616048*
X862678Y617173*
X862405Y617923*
X861860Y618673*
X861314Y619048*
X860223*
X861042Y612673D02*
X862678Y610423D01*
X867314Y619048D02*
Y611173D01*
X865405Y619048D02*
X869223D01*
X871678D02*
X873860Y615298D01*
Y611173*
X876042Y619048D02*
X873860Y615298D01*
X898405Y617923D02*
X897860Y618673D01*
X897042Y619048*
X895951*
X895133Y618673*
X894587Y617923*
Y617173*
X894860Y616423*
X895133Y616048*
X895678Y615673*
X897314Y614923*
X897860Y614548*
X898133Y614173*
X898405Y613423*
Y612298*
X897860Y611548*
X897042Y611173*
X895951*
X895133Y611548*
X894587Y612298*
X900860Y619048D02*
X903042Y615298D01*
Y611173*
X905223Y619048D02*
X903042Y615298D01*
X907678Y619048D02*
Y611173D01*
Y619048D02*
X909860Y611173D01*
X912042Y619048D02*
X909860Y611173D01*
X912042Y619048D02*
Y611173D01*
X933860Y619048D02*
Y611173D01*
Y619048D02*
X936314D01*
X937133Y618673*
X937405Y618298*
X937678Y617548*
Y616423*
X937405Y615673*
X937133Y615298*
X936314Y614923*
X933860*
X940133Y619048D02*
Y611173D01*
X943405*
X948042Y619048D02*
X945860Y611173D01*
X948042Y619048D02*
X950223Y611173D01*
X946678Y613798D02*
X949405D01*
X954587Y619048D02*
Y611173D01*
X952678Y619048D02*
X956496D01*
X958951D02*
Y611173D01*
Y619048D02*
X962496D01*
X958951Y615298D02*
X961133D01*
X958951Y611173D02*
X962496D01*
X964951Y619048D02*
Y611173D01*
Y619048D02*
X966860D01*
X967678Y618673*
X968223Y617923*
X968496Y617173*
X968769Y616048*
Y614173*
X968496Y613048*
X968223Y612298*
X967678Y611548*
X966860Y611173*
X964951*
X993042Y619048D02*
Y611173D01*
X991133Y619048D02*
X994951D01*
X999042D02*
X998496Y618673D01*
X997951Y617923*
X997678Y617173*
X997405Y616048*
Y614173*
X997678Y613048*
X997951Y612298*
X998496Y611548*
X999042Y611173*
X1000133*
X1000678Y611548*
X1001223Y612298*
X1001496Y613048*
X1001769Y614173*
Y616048*
X1001496Y617173*
X1001223Y617923*
X1000678Y618673*
X1000133Y619048*
X999042*
X1004223D02*
Y611173D01*
X1007496*
X774987Y595048D02*
X772260Y589798D01*
X776351*
X774987Y595048D02*
Y587173D01*
X782623Y595048D02*
X779896Y587173D01*
X778805Y595048D02*
X782623D01*
X865678Y593173D02*
Y593548D01*
X865951Y594298*
X866223Y594673*
X866769Y595048*
X867860*
X868405Y594673*
X868678Y594298*
X868951Y593548*
Y592798*
X868678Y592048*
X868133Y590923*
X865405Y587173*
X869223*
X898260D02*
X910260D01*
Y599173*
X898260*
Y587173*
X904260Y593173D02*
Y599173D01*
X930996Y595048D02*
X933178Y591298D01*
Y587173*
X935360Y595048D02*
X933178Y591298D01*
X937814Y595048D02*
Y587173D01*
Y595048D02*
X941360D01*
X937814Y591298D02*
X939996D01*
X937814Y587173D02*
X941360D01*
X947633Y593923D02*
X947087Y594673D01*
X946269Y595048*
X945178*
X944360Y594673*
X943814Y593923*
Y593173*
X944087Y592423*
X944360Y592048*
X944905Y591673*
X946542Y590923*
X947087Y590548*
X947360Y590173*
X947633Y589423*
Y588298*
X947087Y587548*
X946269Y587173*
X945178*
X944360Y587548*
X943814Y588298*
X984178Y593923D02*
Y587173D01*
X981723Y590548D02*
X986633D01*
X993996Y596548D02*
X989087Y584548D01*
X996451Y590548D02*
X1001360D01*
X1005451Y595048D02*
X1004633Y594673D01*
X1004087Y593548*
X1003814Y591673*
Y590548*
X1004087Y588673*
X1004633Y587548*
X1005451Y587173*
X1005996*
X1006814Y587548*
X1007360Y588673*
X1007633Y590548*
Y591673*
X1007360Y593548*
X1006814Y594673*
X1005996Y595048*
X1005451*
X1010360Y587923D02*
X1010087Y587548D01*
X1010360Y587173*
X1010633Y587548*
X1010360Y587923*
X1014723Y595048D02*
X1013905Y594673D01*
X1013360Y593548*
X1013087Y591673*
Y590548*
X1013360Y588673*
X1013905Y587548*
X1014723Y587173*
X1015269*
X1016087Y587548*
X1016633Y588673*
X1016905Y590548*
Y591673*
X1016633Y593548*
X1016087Y594673*
X1015269Y595048*
X1014723*
X775805Y571048D02*
X773078D01*
X772805Y567673*
X773078Y568048*
X773896Y568423*
X774714*
X775533Y568048*
X776078Y567298*
X776351Y566173*
X776078Y565423*
X775805Y564298*
X775260Y563548*
X774442Y563173*
X773623*
X772805Y563548*
X772533Y563923*
X772260Y564673*
X779351Y571048D02*
X782351D01*
X780714Y568048*
X781533*
X782078Y567673*
X782351Y567298*
X782623Y566173*
Y565423*
X782351Y564298*
X781805Y563548*
X780987Y563173*
X780169*
X779351Y563548*
X779078Y563923*
X778805Y564673*
X785351Y563923D02*
X785078Y563548D01*
X785351Y563173*
X785623Y563548*
X785351Y563923*
X788078Y569548D02*
X788623Y569923D01*
X789442Y571048*
Y563173*
X795442Y571048D02*
X792714D01*
X792442Y567673*
X792714Y568048*
X793533Y568423*
X794351*
X795169Y568048*
X795714Y567298*
X795987Y566173*
X795714Y565423*
X795442Y564298*
X794896Y563548*
X794078Y563173*
X793260*
X792442Y563548*
X792169Y563923*
X791896Y564673*
X867996Y571048D02*
X865269Y565798D01*
X869360*
X867996Y571048D02*
Y563173D01*
X904260D02*
X910260Y569173D01*
X904260Y575173*
X898260Y569173*
X904260Y563173*
Y569173D02*
Y575173D01*
X933996Y571048D02*
Y563173D01*
Y571048D02*
X937814Y563173D01*
Y571048D02*
Y563173D01*
X941905Y571048D02*
X941360Y570673D01*
X940814Y569923*
X940542Y569173*
X940269Y568048*
Y566173*
X940542Y565048*
X940814Y564298*
X941360Y563548*
X941905Y563173*
X942996*
X943542Y563548*
X944087Y564298*
X944360Y565048*
X944633Y566173*
Y568048*
X944360Y569173*
X944087Y569923*
X943542Y570673*
X942996Y571048*
X941905*
X984178Y569923D02*
Y563173D01*
X981723Y566548D02*
X986633D01*
X993996Y572548D02*
X989087Y560548D01*
X996451Y566548D02*
X1001360D01*
X1005451Y571048D02*
X1004633Y570673D01*
X1004087Y569548*
X1003814Y567673*
Y566548*
X1004087Y564673*
X1004633Y563548*
X1005451Y563173*
X1005996*
X1006814Y563548*
X1007360Y564673*
X1007633Y566548*
Y567673*
X1007360Y569548*
X1006814Y570673*
X1005996Y571048*
X1005451*
X1010360Y563923D02*
X1010087Y563548D01*
X1010360Y563173*
X1010633Y563548*
X1010360Y563923*
X1014723Y571048D02*
X1013905Y570673D01*
X1013360Y569548*
X1013087Y567673*
Y566548*
X1013360Y564673*
X1013905Y563548*
X1014723Y563173*
X1015269*
X1016087Y563548*
X1016633Y564673*
X1016905Y566548*
Y567673*
X1016633Y569548*
X1016087Y570673*
X1015269Y571048*
X1014723*
X772260Y545548D02*
X772805Y545923D01*
X773623Y547048*
Y539173*
X779351Y545923D02*
X779078Y546673D01*
X778260Y547048*
X777714*
X776896Y546673*
X776351Y545548*
X776078Y543673*
Y541798*
X776351Y540298*
X776896Y539548*
X777714Y539173*
X777987*
X778805Y539548*
X779351Y540298*
X779623Y541423*
Y541798*
X779351Y542923*
X778805Y543673*
X777987Y544048*
X777714*
X776896Y543673*
X776351Y542923*
X776078Y541798*
X782078Y545548D02*
X782623Y545923D01*
X783442Y547048*
Y539173*
X786169Y539923D02*
X785896Y539548D01*
X786169Y539173*
X786442Y539548*
X786169Y539923*
X791623Y547048D02*
X788896Y541798D01*
X792987*
X791623Y547048D02*
Y539173D01*
X795714Y545173D02*
Y545548D01*
X795987Y546298*
X796260Y546673*
X796805Y547048*
X797896*
X798442Y546673*
X798714Y546298*
X798987Y545548*
Y544798*
X798714Y544048*
X798169Y542923*
X795442Y539173*
X799260*
X865678Y545173D02*
Y545548D01*
X865951Y546298*
X866223Y546673*
X866769Y547048*
X867860*
X868405Y546673*
X868678Y546298*
X868951Y545548*
Y544798*
X868678Y544048*
X868133Y542923*
X865405Y539173*
X869223*
X898260D02*
X910260D01*
X898260Y551173*
X910260*
X898260Y539173*
X933996Y547048D02*
Y539173D01*
Y547048D02*
X937814Y539173D01*
Y547048D02*
Y539173D01*
X941905Y547048D02*
X941360Y546673D01*
X940814Y545923*
X940542Y545173*
X940269Y544048*
Y542173*
X940542Y541048*
X940814Y540298*
X941360Y539548*
X941905Y539173*
X942996*
X943542Y539548*
X944087Y540298*
X944360Y541048*
X944633Y542173*
Y544048*
X944360Y545173*
X944087Y545923*
X943542Y546673*
X942996Y547048*
X941905*
X984178Y545923D02*
Y539173D01*
X981723Y542548D02*
X986633D01*
X993996Y548548D02*
X989087Y536548D01*
X996451Y542548D02*
X1001360D01*
X1005451Y547048D02*
X1004633Y546673D01*
X1004087Y545548*
X1003814Y543673*
Y542548*
X1004087Y540673*
X1004633Y539548*
X1005451Y539173*
X1005996*
X1006814Y539548*
X1007360Y540673*
X1007633Y542548*
Y543673*
X1007360Y545548*
X1006814Y546673*
X1005996Y547048*
X1005451*
X1010360Y539923D02*
X1010087Y539548D01*
X1010360Y539173*
X1010633Y539548*
X1010360Y539923*
X1014723Y547048D02*
X1013905Y546673D01*
X1013360Y545548*
X1013087Y543673*
Y542548*
X1013360Y540673*
X1013905Y539548*
X1014723Y539173*
X1015269*
X1016087Y539548*
X1016633Y540673*
X1016905Y542548*
Y543673*
X1016633Y545548*
X1016087Y546673*
X1015269Y547048*
X1014723*
X775533Y521923D02*
X775260Y522673D01*
X774442Y523048*
X773896*
X773078Y522673*
X772533Y521548*
X772260Y519673*
Y517798*
X772533Y516298*
X773078Y515548*
X773896Y515173*
X774169*
X774987Y515548*
X775533Y516298*
X775805Y517423*
Y517798*
X775533Y518923*
X774987Y519673*
X774169Y520048*
X773896*
X773078Y519673*
X772533Y518923*
X772260Y517798*
X779896Y523048D02*
X779078Y522673D01*
X778533Y521548*
X778260Y519673*
Y518548*
X778533Y516673*
X779078Y515548*
X779896Y515173*
X780442*
X781260Y515548*
X781805Y516673*
X782078Y518548*
Y519673*
X781805Y521548*
X781260Y522673*
X780442Y523048*
X779896*
X866769D02*
X865951Y522673D01*
X865678Y521923*
Y521173*
X865951Y520423*
X866496Y520048*
X867587Y519673*
X868405Y519298*
X868951Y518548*
X869223Y517798*
Y516673*
X868951Y515923*
X868678Y515548*
X867860Y515173*
X866769*
X865951Y515548*
X865678Y515923*
X865405Y516673*
Y517798*
X865678Y518548*
X866223Y519298*
X867042Y519673*
X868133Y520048*
X868678Y520423*
X868951Y521173*
Y521923*
X868678Y522673*
X867860Y523048*
X866769*
X898260Y515173D02*
X910260Y527173D01*
Y515173*
X898260Y527173*
Y515173*
X930996Y523048D02*
X933178Y519298D01*
Y515173*
X935360Y523048D02*
X933178Y519298D01*
X937814Y523048D02*
Y515173D01*
Y523048D02*
X941360D01*
X937814Y519298D02*
X939996D01*
X937814Y515173D02*
X941360D01*
X947633Y521923D02*
X947087Y522673D01*
X946269Y523048*
X945178*
X944360Y522673*
X943814Y521923*
Y521173*
X944087Y520423*
X944360Y520048*
X944905Y519673*
X946542Y518923*
X947087Y518548*
X947360Y518173*
X947633Y517423*
Y516298*
X947087Y515548*
X946269Y515173*
X945178*
X944360Y515548*
X943814Y516298*
X984178Y521923D02*
Y515173D01*
X981723Y518548D02*
X986633D01*
X993996Y524548D02*
X989087Y512548D01*
X996451Y518548D02*
X1001360D01*
X1005451Y523048D02*
X1004633Y522673D01*
X1004087Y521548*
X1003814Y519673*
Y518548*
X1004087Y516673*
X1004633Y515548*
X1005451Y515173*
X1005996*
X1006814Y515548*
X1007360Y516673*
X1007633Y518548*
Y519673*
X1007360Y521548*
X1006814Y522673*
X1005996Y523048*
X1005451*
X1010360Y515923D02*
X1010087Y515548D01*
X1010360Y515173*
X1010633Y515548*
X1010360Y515923*
X1014723Y523048D02*
X1013905Y522673D01*
X1013360Y521548*
X1013087Y519673*
Y518548*
X1013360Y516673*
X1013905Y515548*
X1014723Y515173*
X1015269*
X1016087Y515548*
X1016633Y516673*
X1016905Y518548*
Y519673*
X1016633Y521548*
X1016087Y522673*
X1015269Y523048*
X1014723*
G54D33*
G54D57*
X396850Y560433D02*
Y582677D01*
X423031*
X1111220Y558858D02*
Y581102D01*
X1085039*
X1108661Y416535D02*
Y394291D01*
X1082480*
X394291Y418110D02*
Y395866D01*
X420472*
G74*
X0Y0D02*
M02*
