%
T1C.00787F0S0
X-003642Y-005886
X-002697Y-004272
X-001713Y-003602
X-001043Y-003957
X-000256Y-003957
X-001614Y-004134
X-000059Y-004154
X-001988Y-005768
X-00063Y-005768
X-00122Y-006043
X-000787Y-006339
X-001811Y-006555
X-001516Y-006555
X000768Y-006024
X002047Y-005098
X001732Y-005098
T2C.06299F089S55
X-004516Y-00645
X003328Y-007136
T3C.07874F081S55
X-003328Y-007136
X002038Y-007606
M30
