*
*
G04 PADS 9.5 Build Number: 522968 generated Gerber (RS-274-X) file*
G04 PC Version=2.1*
*
%IN "LCORE_3_1.pcb"*%
*
%MOIN*%
*
%FSLAX35Y35*%
*
*
*
*
G04 PC Standard Apertures*
*
*
G04 Thermal Relief Aperture macro.*
%AMTER*
1,1,$1,0,0*
1,0,$1-$2,0,0*
21,0,$3,$4,0,0,45*
21,0,$3,$4,0,0,135*
%
*
*
G04 Annular Aperture macro.*
%AMANN*
1,1,$1,0,0*
1,0,$2,0,0*
%
*
*
G04 Odd Aperture macro.*
%AMODD*
1,1,$1,0,0*
1,0,$1-0.005,0,0*
%
*
*
G04 PC Custom Aperture Macros*
*
*
*
*
*
*
G04 PC Aperture Table*
*
%ADD010C,0.001*%
%ADD017C,0.01*%
%ADD020C,0.00787*%
%ADD022R,0.02X0.025*%
%ADD023R,0.0315X0.01181*%
%ADD024R,0.02953X0.04724*%
%ADD025C,0.16496*%
%ADD026R,0.01181X0.0315*%
%ADD027R,0.025X0.02*%
%ADD028R,0.0315X0.01378*%
%ADD029R,0.01378X0.0315*%
%ADD030R,0.02756X0.06299*%
%ADD031R,0.08268X0.11811*%
%ADD032R,0.024X0.035*%
%ADD033C,0.01772*%
*
*
*
*
G04 PC Circuitry*
G04 Layer Name LCORE_3_1.pcb - circuitry*
%LPD*%
*
*
G04 PC Custom Flashes*
G04 Layer Name LCORE_3_1.pcb - flashes*
%LPD*%
*
*
G04 PC Circuitry*
G04 Layer Name LCORE_3_1.pcb - circuitry*
%LPD*%
*
G54D10*
G54D17*
G01X388189Y372047D02*
X399213D01*
X403150Y375984*
Y379921*
X407087D02*
G75*
G03X403150I-1969J0D01*
G01X407087D02*
X414961D01*
G03X418898Y383858I-0J3937*
G01Y416142*
Y420079D02*
G03Y416142I-0J-1969D01*
G01Y420079D02*
X425197D01*
Y433071*
X423590*
X419712Y437692D02*
G03X423590Y433071I3878J-684D01*
G01X419712Y437692D02*
X422655Y454383D01*
G03X420717Y456693I-1938J341*
G01X366685*
G03X364746Y454383I-0J-1969*
G01X367689Y437692*
X363812Y433071D02*
G03X367689Y437692I-0J3937D01*
G01X363812Y433071D02*
X362205D01*
Y420079*
X368504*
Y416142D02*
G03Y420079I-0J1968D01*
G01Y416142D02*
Y383858D01*
G03X372441Y379921I3937J0*
G01X380315*
X384252D02*
G03X380315I-1969J0D01*
G01X384252D02*
Y375984D01*
X388189Y372047*
G54D20*
X370472Y383071D02*
Y383198D01*
X370474Y383200*
X373460*
Y386041*
X377397Y383200D02*
Y386041D01*
X405512Y383858D02*
Y383687D01*
X408403*
Y383684*
X377397Y386041D02*
Y383465D01*
X382579*
X386733Y387618*
X387303*
X376010Y389527D02*
Y392095D01*
X379978Y396063*
X382277*
X384950Y398736*
Y401462*
X381915Y389527D02*
Y386982D01*
X382677Y386220*
X379947Y389527D02*
Y392095D01*
X379978Y392126*
X383356*
X384930Y390551*
X388039*
X389961Y388630*
Y383681*
X377978Y389527D02*
Y392095D01*
X379584Y393701*
X384190*
X385765Y392126*
X389882*
X397441Y384567*
Y383681*
X387303Y387618D02*
X387402D01*
Y385433*
X407567Y391916D02*
Y396716D01*
X409989Y399138*
X407567Y391916D02*
Y387508D01*
X408320*
X404156Y387470D02*
Y387508D01*
X408320*
X404156Y391407D02*
X404160D01*
Y395251*
X404163*
X400098Y387618D02*
Y386516D01*
X401575Y385039*
X411504Y391916D02*
Y397244D01*
X411811*
X411504Y391916D02*
Y389764D01*
X413472*
Y391916*
X412257Y387508D02*
X412340D01*
Y383684*
X412257Y387508D02*
Y387706D01*
X413475*
X415354Y385827*
X376010Y402913D02*
X374409D01*
Y400000*
X377165Y397638D02*
Y399606D01*
X377978Y400419*
Y402913*
X372136Y402858D02*
Y402913D01*
X374409*
X384950Y401462D02*
X383500Y402913D01*
X385983*
X389485Y406414*
X396719*
X397019Y406713*
X397698Y408499*
X398804*
X381915Y402913D02*
X383500D01*
X387303Y394705D02*
X389652D01*
X394593Y389764*
X396063*
X394488Y400000D02*
X394732D01*
Y403169*
X389764Y401969D02*
X389961D01*
Y398642*
X394732Y403169D02*
X392539D01*
Y398017*
X393701Y396855*
Y393701*
X397441Y398642D02*
Y403169D01*
X397499*
X404163Y399188D02*
X404331D01*
Y401969*
X400098Y394705D02*
Y395000D01*
X404163*
Y395251*
X409989Y399138D02*
X410614Y399763D01*
X416358*
X411811Y397244D02*
X413803D01*
X415221Y395826*
X416358*
X409449Y395669D02*
X409535D01*
Y391916*
X372047Y409843D02*
X372136D01*
Y406795*
X372047Y409843D02*
Y409345D01*
X376753*
X378740Y406299D02*
X379129D01*
X379947Y405481*
Y402913*
X380690Y409345D02*
X381546D01*
Y406643*
X381915Y406274*
Y402913*
X384531Y408668D02*
Y408499D01*
X389749*
X384531Y408668D02*
Y406020D01*
X385039Y405512*
X384531Y412605D02*
Y412765D01*
X386525*
X387377Y413617*
X389749*
X394276Y411058D02*
X394094D01*
Y413420*
X395276Y414961*
X401969Y412992D02*
X402298Y411983D01*
Y410066*
X402904*
X398804Y413617D02*
X400588D01*
X401969Y412992*
X398804Y408499D02*
X401337D01*
X402904Y410066*
X407567Y405302D02*
X407763D01*
Y409863*
X407922*
X402904Y406129D02*
Y403395D01*
X404331Y401969*
X402904Y410066D02*
Y409816D01*
X405512Y407208*
Y403616*
X409989Y399138*
X409535Y405302D02*
Y402670D01*
X410236Y401969*
X410630*
X413472Y405302D02*
X414961D01*
X416358Y403905*
Y399763*
X411859Y409863D02*
X413413Y411417D01*
X414961*
X391924Y417514D02*
Y417323D01*
X398104*
X391924Y417514D02*
Y419444D01*
X389370Y420545D02*
X390478Y421654D01*
X393401*
X395611Y419444*
X395861*
X389370Y420545D02*
Y415748D01*
X389749Y415369*
Y413617*
X391339Y416929D02*
X391924Y417514D01*
X398104Y417323D02*
X400073Y415354D01*
X402362*
X407854Y409863*
X407922*
X393567Y425113D02*
Y425197D01*
X393622Y425841*
X393567Y425113D02*
X396240Y422441D01*
X396519*
X398104Y420855*
Y417323*
X390945Y429921D02*
X391329Y430306D01*
Y433849*
X393701Y436220*
X393622Y429778D02*
Y429769D01*
X396612*
Y425832D02*
X399213Y428433D01*
Y429921*
X396612Y429769D02*
Y430019D01*
X398483Y431890*
X400984*
X403543Y434449*
Y436220*
X383858D02*
Y440945D01*
X397244D02*
X397638Y440157D01*
Y436220*
X398622*
X388583Y442126D02*
X388780D01*
Y436220*
X403543D02*
Y440551D01*
X405512Y442520*
G54D22*
X416358Y399763D03*
Y395826D03*
X404163Y399188D03*
Y395251D03*
X404156Y391407D03*
Y387470D03*
X402904Y410066D03*
Y406129D03*
X396612Y429769D03*
Y425832D03*
X393622Y425841D03*
Y429778D03*
X384531Y412605D03*
Y408668D03*
X372136Y402858D03*
Y406795D03*
G54D23*
X389749Y413617D03*
Y411058D03*
Y408499D03*
X398804D03*
Y411058D03*
Y413617D03*
G54D24*
X394276Y411058D03*
G54D25*
X407480Y423228D03*
X379921D03*
G54D26*
X407567Y391916D03*
X409535D03*
X411504D03*
X413472D03*
Y405302D03*
X411504D03*
X409535D03*
X407567D03*
X376010Y389527D03*
X377978D03*
X379947D03*
X381915D03*
Y402913D03*
X379947D03*
X377978D03*
X376010D03*
G54D27*
X408403Y383684D03*
X412340D03*
X412257Y387508D03*
X408320D03*
X407922Y409863D03*
X411859D03*
X391924Y419444D03*
X395861D03*
X380690Y409345D03*
X376753D03*
X377397Y386041D03*
X373460D03*
X377397Y383200D03*
X373460D03*
G54D28*
X387303Y394705D03*
Y387618D03*
X400098D03*
Y394705D03*
G54D29*
X389961Y383681D03*
X397441D03*
Y398642D03*
X389961D03*
G54D30*
X403543Y436220D03*
X398622D03*
X393701D03*
X388780D03*
X383858D03*
G54D31*
X413583Y447638D03*
X373819D03*
G54D32*
X392539Y403169D03*
X397499D03*
G54D33*
X370472Y383071D03*
X405512Y383858D03*
X387402Y385433D03*
X382677Y386220D03*
X393701Y393701D03*
X396063Y389764D03*
X401575Y385039D03*
X415354Y385827D03*
X374409Y400000D03*
X377165Y397638D03*
X394488Y400000D03*
X389764Y401969D03*
X404331D03*
X411811Y397244D03*
X409449Y395669D03*
X410630Y401969D03*
X372047Y409843D03*
X385039Y405512D03*
X378740Y406299D03*
X401969Y412992D03*
X414961Y411417D03*
X395276Y414961D03*
X391339Y416929D03*
X390945Y429921D03*
X399213D03*
X383858Y440945D03*
X397244D03*
X388583Y442126D03*
X405512Y442520D03*
G74*
X0Y0D02*
M02*
