M48
INCH,LZ
VER,1
FMAT,2
T01C0.02756F197B1S55H2000
T02C0.035F197B1S55H2000
T03C0.03543F197B1S55H2000
T04C0.03543F197B1S55H2000
T05C0.03937F197B1S55H2000
T06C0.04331F139B1S55H2000
T07C0.047F139B1S55H2000
T08C0.059F107B1S55H2000
T09C0.06299F089B1S55H2000
T10C0.0689F089B1S55H2000
T11C0.07087F081B1S55H2000
T12C0.07874F081B1S55H2000
T13C0.07874F081B1S55H2000
T14C0.09843F066B1S55H2000
T15C0.10236F069B1S658H2000
T16C0.11811F069B1S658H2000
DETECT,ON
ATC,ON
%
T01
X016535Y033858
X010039Y03622
Y037205
Y038189
Y038976
X010827Y061417
X019291Y03937
Y038386
X023185Y037609
X019291Y037598
X023845Y037052
X019291Y036811
Y036024
X024481Y035198
X02518Y034633
X022835Y029528
X023819Y009055
X024409Y007874
X025Y007283
X037795Y009252
X038386Y012402
X037992Y033642
X030717Y035198
X029134Y037052
X028543Y037609
X034252Y048819
X038189Y051969
X043307Y048819
X041732Y048031
X052362Y034724
X049606Y017323
X051575Y015354
X052165Y009134
X051575Y008268
X050984Y007677
X050394Y007087
X055906Y034717
X061811Y035039
X055906Y035827
X061811Y036417
X055906Y037008
X061811Y037205
Y037992
X055906
Y03885
X061811
X06322Y04972
X06037Y05172
T02
X003756Y063157
Y064157
X00848Y067488
X00948
X01048
X01148
X01248
X01348
X01448
X01548
X01648
X01748
X01848
X01948
X02048
X016339Y023031
Y022031
X023622
Y023031
X026772Y038189
Y039189
X025016Y063157
Y064157
X02148Y067488
X031496Y04252
X032496
X033496
X034496
X035496
X037496
X036496
X031102Y023031
Y022031
X039173
Y023031
X040496Y04252
X039496
X038496
X041496
X042496
X043496
X044496
X042835Y054331
X041835
X048031Y039189
Y038189
X046654Y023031
X054134
X046654Y022031
X054134
X067469Y044969
X066469
X067469Y045969
X066469
X067469Y046969
X066469
Y047969
X067469
T03
X029866Y036024
X02965Y039065
X015513Y064251
X035594Y041309
X031776Y03997
X038035Y039547
X036992Y039143
X032602Y03875
X032669Y037953
X036429Y037805
X037248Y035639
X043685Y038352
X043665Y039222
X046047Y040206
T04
X00685Y060992
X013413Y062773
X009654Y062921
X009587Y063718
X006634Y064033
X00876Y064939
X012579Y066277
X023031Y065175
X01502Y064516
X02065Y064191
X013976Y064112
X020669Y06332
X014232Y060608
X038529Y039282
T05
X016339Y017913
X022339
Y020866
X016339
Y024016
X022339
X023622
X029622
X031102
X029622Y020866
X031102
X023622
X031102Y017913
X029622
X023622
X037102
X039173
X045173
X037102Y020866
X039173
X045173
Y024016
X039173
X037102
X046654
X052654
X054134
X052654Y020866
X054134
X046654
X052654Y017913
X054134
X046654
X060134
Y020866
Y024016
T06
X003469Y012469
Y015469
Y017469
Y019469
Y021469
Y023469
Y025969
Y028969
Y031469
Y033469
Y035469
Y037469
Y039469
Y041969
X00547Y049469
X00712Y053969
X010219
X013219
X016469
X01177Y049469
X00862
X014919
X018069
X016732Y043307
X012606Y004787
X015606
X025591Y003543
X021606Y004787
X018606
X022244Y043268
X028071Y048898
X021219Y049469
X028071Y050472
Y052008
X026018Y053969
X022969
X019719
X029561
X032317
X03622Y005709
X031299Y004921
X034055
X02874
X038189Y002953
X041535Y004921
X044094
X046654
X039567Y005709
X047047Y048937
Y050551
Y052205
X045969Y053969
X049219
X052469
X057514
X052598Y043307
X058228
X054693Y00452
X057693
X060693
X063693
X069969Y008028
Y010528
Y012528
Y014528
Y016528
Y018528
Y021028
Y024528
Y027028
Y029028
Y031028
Y033028
Y035028
Y037528
T07
X00374Y008108
Y009608
T08
X028092Y009134
X029892
X028992
X029892Y01252
X028992
X028092
X032806
X031906
X031006
X035719
X034819
X033919
Y009134
X034819
X035719
X031006
X031906
X032806
X039667
X040567
X041467
X04258
X04348
X04438
X045494
X039667Y01252
X045494
X04438
X04348
X04258
X041467
X040567
X047294
X046394
Y009134
X047294
T09
X009646Y007705
Y012205
T10
X027805Y030256
X028705
X029605
X030718
X031618
X032522
X034531
X033631
X035431
X04028
X03938
X04118
X043193
X042293
X044093
X045206
X047006
T11
X030591Y027844
X029605Y033642
X028705
X030718
X027805
X031618
X032518
X033631
X034531
X035431
X032091Y027874
X033591Y027844
X036656
X038156
X04122
X04422
X04272Y027874
X042293Y033642
X04118
X03938
X043193
X045206
X044093
X04028
X047006
X046106
Y030256
T12
X060369Y046469
X062169
X063969
T13
X026875Y031949
X027165Y03622
X024425Y061189
X00415
X047638Y03622
X047938Y031949
T14
X00399Y066774
X02479
T15
X027006Y027505
X027007Y027506
X027006Y041805
X047806
Y027505
T16
X003937Y003937
X022047Y03189
X003937Y053937
X069469Y053969
X052953Y03189
X069469Y003969
M30
