*
*
G04 PADS VX.2.8 Build Number: 19810023 generated Gerber (RS-274-X) file*
G04 PC Version=2.1*
*
%IN "FT2_L3.pcb"*%
*
%MOIN*%
*
%FSLAX35Y35*%
*
*
*
*
G04 PC Standard Apertures*
*
*
G04 Thermal Relief Aperture macro.*
%AMTER*
1,1,$1,0,0*
1,0,$1-$2,0,0*
21,0,$3,$4,0,0,45*
21,0,$3,$4,0,0,135*
%
*
*
G04 Annular Aperture macro.*
%AMANN*
1,1,$1,0,0*
1,0,$2,0,0*
%
*
*
G04 Odd Aperture macro.*
%AMODD*
1,1,$1,0,0*
1,0,$1-0.005,0,0*
%
*
*
G04 PC Custom Aperture Macros*
*
*
*
*
*
*
G04 PC Aperture Table*
*
%ADD010C,0.001*%
%ADD013C,0.00394*%
%ADD015C,0.00591*%
%ADD026C,0.00787*%
%ADD035C,0.01181*%
%ADD105C,0*%
%ADD106O,0.01181X0.02756*%
%ADD107O,0.02756X0.01181*%
*
*
*
*
G04 PC Circuitry*
G04 Layer Name FT2_L3.pcb - circuitry*
%LPD*%
*
*
G04 PC Custom Flashes*
G04 Layer Name FT2_L3.pcb - flashes*
%LPD*%
*
*
G04 PC Circuitry*
G04 Layer Name FT2_L3.pcb - circuitry*
%LPD*%
*
G54D10*
G54D13*
G01X432441Y373622D02*
X431575D01*
Y374606*
X432441*
Y373622*
X431575D02*
X432441D01*
X431575Y374016D02*
X432441D01*
X431575Y374409D02*
X432441D01*
X431890Y373622D02*
Y374606D01*
X432283Y373622D02*
Y374606D01*
X430236Y373622D02*
X429370D01*
Y374606*
X430236*
Y373622*
X429370D02*
X430236D01*
X429370Y374016D02*
X430236D01*
X429370Y374409D02*
X430236D01*
X429528Y373622D02*
Y374606D01*
X429921Y373622D02*
Y374606D01*
X428780Y371555D02*
X429646D01*
Y370571*
X428780*
Y371555*
Y370571D02*
X429646D01*
X428780Y370965D02*
X429646D01*
X428780Y371358D02*
X429646D01*
X429134Y370571D02*
Y371555D01*
X429528Y370571D02*
Y371555D01*
X430984D02*
X431850D01*
Y370571*
X430984*
Y371555*
Y370571D02*
X431850D01*
X430984Y370965D02*
X431850D01*
X430984Y371358D02*
X431850D01*
X431102Y370571D02*
Y371555D01*
X431496Y370571D02*
Y371555D01*
G54D15*
X566677Y444009D02*
Y441425D01*
Y444009D02*
X565514D01*
X566677Y442779D02*
X565961D01*
X564082Y444009D02*
Y441425D01*
X564709Y444009D02*
X563456D01*
X562561Y443394D02*
Y443517D01*
X562472Y443763*
X562382Y443886*
X562203Y444009*
X561845*
X561666Y443886*
X561577Y443763*
X561487Y443517*
Y443271*
X561577Y443025*
X561756Y442656*
X562651Y441425*
X561398*
X560593Y442532D02*
X558982D01*
X558177Y444009D02*
Y441425D01*
X557103*
X556119Y444009D02*
X555135D01*
X555671Y443025*
X555403*
X555224Y442902*
X555135Y442779*
X555045Y442409*
Y442163*
X555135Y441794*
X555314Y441548*
X555582Y441425*
X555850*
X556119Y441548*
X556208Y441671*
X556298Y441917*
X554240Y440933D02*
X552361D01*
X551824Y443517D02*
X551645Y443640D01*
X551377Y444009*
Y441425*
X550392Y444009D02*
X549408D01*
X549945Y443025*
X549676*
X549497Y442902*
X549408Y442779*
X549319Y442409*
Y442163*
X549408Y441794*
X549587Y441548*
X549855Y441425*
X550124*
X550392Y441548*
X550482Y441671*
X550571Y441917*
X548066Y444009D02*
X548334Y443886D01*
X548424Y443640*
Y443394*
X548334Y443148*
X548155Y443025*
X547797Y442902*
X547529Y442779*
X547350Y442532*
X547261Y442286*
Y441917*
X547350Y441671*
X547440Y441548*
X547708Y441425*
X548066*
X548334Y441548*
X548424Y441671*
X548513Y441917*
Y442286*
X548424Y442532*
X548245Y442779*
X547976Y442902*
X547618Y443025*
X547440Y443148*
X547350Y443394*
Y443640*
X547440Y443886*
X547708Y444009*
X548066*
X545292D02*
X546187D01*
X546276Y442902*
X546187Y443025*
X545918Y443148*
X545650*
X545382Y443025*
X545203Y442779*
X545113Y442409*
X545203Y442163*
X545292Y441794*
X545471Y441548*
X545739Y441425*
X546008*
X546276Y441548*
X546366Y441671*
X546455Y441917*
X543145Y444009D02*
X544039D01*
X544129Y442902*
X544039Y443025*
X543771Y443148*
X543503*
X543234Y443025*
X543055Y442779*
X542966Y442409*
X543055Y442163*
X543145Y441794*
X543324Y441548*
X543592Y441425*
X543860*
X544129Y441548*
X544218Y441671*
X544308Y441917*
X542160Y440933D02*
X540281D01*
X539565Y444009D02*
X538581D01*
X539118Y443025*
X538850*
X538671Y442902*
X538581Y442779*
X538492Y442409*
Y442163*
X538581Y441794*
X538760Y441548*
X539029Y441425*
X539297*
X539565Y441548*
X539565D02*
X539655Y441671D01*
X539744Y441917*
X537686Y440933D02*
X535807D01*
X535271Y444009D02*
Y441425D01*
Y444009D02*
X534465D01*
X534197Y443886*
X534107Y443763*
X534018Y443517*
Y443148*
X534107Y442902*
X534197Y442779*
X534465Y442656*
X535271*
X532497Y444009D02*
X533213Y441425D01*
X532497Y444009D02*
X531781Y441425D01*
X532944Y442286D02*
X532049D01*
X529723Y443640D02*
X529902Y443886D01*
X530170Y444009*
X530528*
X530797Y443886*
X530976Y443640*
Y443394*
X530886Y443148*
X530797Y443025*
X530618Y442902*
X530081Y442656*
X529902Y442532*
X529812Y442409*
X529723Y442163*
Y441794*
X529902Y441548*
X530170Y441425*
X530528*
X530797Y441548*
X530976Y441794*
X528291Y444009D02*
Y441425D01*
X528918Y444009D02*
X527665D01*
X526860D02*
Y441425D01*
Y444009D02*
X525696D01*
X526860Y442779D02*
X526144D01*
X526860Y441425D02*
X525696D01*
X524891Y440933D02*
X523012D01*
X522475Y444009D02*
Y441425D01*
Y444009D02*
X521759Y441425D01*
X521044Y444009D02*
X521759Y441425D01*
X521044Y444009D02*
Y441425D01*
X519523Y444009D02*
X520238Y441425D01*
X519523Y444009D02*
X518807Y441425D01*
X519970Y442286D02*
X519075D01*
X516749Y443640D02*
X516928Y443886D01*
X517196Y444009*
X517554*
X517822Y443886*
X518001Y443640*
Y443394*
X517912Y443148*
X517822Y443025*
X517644Y442902*
X517107Y442656*
X516928Y442532*
X516838Y442409*
X516749Y442163*
Y441794*
X516928Y441548*
X517196Y441425*
X517554*
X517822Y441548*
X518001Y441794*
X515943Y444009D02*
Y441425D01*
X514691Y444009D02*
X515943Y442286D01*
X515496Y442902D02*
X514691Y441425D01*
X513885Y440933D02*
X512006D01*
X511470Y444009D02*
Y441425D01*
Y444009D02*
X510664D01*
X510396Y443886*
X510306Y443763*
X510217Y443517*
Y443271*
X510306Y443025*
X510396Y442902*
X510664Y442779*
X511470D02*
X510664D01*
X510396Y442656*
X510306Y442532*
X510217Y442286*
Y441917*
X510306Y441671*
X510396Y441548*
X510664Y441425*
X511470*
X508875Y444009D02*
X509054Y443886D01*
X509233Y443640*
X509322Y443394*
X509412Y443025*
Y442409*
X509322Y442040*
X509233Y441794*
X509054Y441548*
X508875Y441425*
X508517*
X508338Y441548*
X508159Y441794*
X508069Y442040*
X507980Y442409*
Y443025*
X508069Y443394*
X508159Y443640*
X508338Y443886*
X508517Y444009*
X508875*
X506548D02*
Y441425D01*
X507175Y444009D02*
X505922D01*
G54D26*
X416535Y376491D02*
Y377279D01*
X417323*
Y376491*
X416535*
Y377279*
X416929Y376491D02*
Y377279D01*
X416535Y379641D02*
Y380428D01*
X417323*
Y379641*
X416535*
Y380428*
X416929Y379641D02*
Y380428D01*
X419685Y379641D02*
Y380428D01*
X420472*
Y379641*
X419685*
Y380428*
X420079Y379641D02*
Y380428D01*
X419685Y376491D02*
Y377279D01*
X420472*
Y376491*
X419685*
Y377279*
X420079Y376491D02*
Y377279D01*
G54D35*
X418504Y378460D03*
G54D105*
X457634Y405512D02*
G75*
G03X445823I-5906J-0D01*
G01X445028Y404546D02*
G03X445823Y405512I-190J966D01*
G01X444870Y404528D02*
G03X445028Y404546I0J684D01*
G01X444870Y404528D02*
X443053D01*
X442068Y405512D02*
G03X443053Y404528I985J-0D01*
G01X447056Y417647D02*
G03X442068Y405512I12267J-12135D01*
G01X447768Y418326D02*
G03X447056Y417647I-359J-336D01*
G01X459323Y422767D02*
G03X447768Y418326I0J-17255D01*
G01X459323Y422767D02*
Y437224D01*
G03X459026Y437933I-1005J-5*
X458323Y438208I-680J-703*
X436829Y429262I1000J-32696*
G01X436125Y428575D02*
G03X436829Y429262I349J346D01*
G01X436125Y428575D02*
G03X426612Y405512I23198J-23063D01*
G01X425628Y404528D02*
G03X426612Y405512I-0J984D01*
G01X425628Y404528D02*
X423425D01*
X422441Y405512D02*
G03X423425Y404528I984J-0D01*
G01X422521Y405907D02*
G03X422441Y405512I882J-384D01*
G01X422743Y406223D02*
G03X422521Y405907I710J-735D01*
G01X423056Y406433D02*
G03X422743Y406223I398J-932D01*
G01X423425Y406504D02*
G03X423056Y406433I-11J-938D01*
G01X423425Y406504D02*
X424409D01*
Y432202*
X424055Y432353D02*
G03X424409Y432202I349J325D01*
G01X423917Y432698D02*
G03X424055Y432353I474J-10D01*
G01X424063Y433050D02*
G03X423917Y432698I335J-345D01*
G01X424409Y433194D02*
G03X424063Y433050I-7J-472D01*
G01X424409Y433194D02*
Y469129D01*
G03X423425Y470114I-984J0*
G01X394685*
G03X393701Y469129I0J-985*
G01Y465488*
Y464503D02*
G03Y465488I-0J492D01*
G01Y464503D02*
Y433194D01*
X394055Y433042D02*
G03X393701Y433194I-349J-326D01*
G01X394193Y432698D02*
G03X394055Y433042I-475J9D01*
G01X394047Y432346D02*
G03X394193Y432698I-335J344D01*
G01X393701Y432202D02*
G03X394047Y432346I7J471D01*
G01X393701Y432202D02*
Y400098D01*
Y399114D02*
G03Y400098I-0J492D01*
G01Y399114D02*
Y398425D01*
G03X394685Y397441I984J0*
G01X397441*
X398425Y396457D02*
G03X397441Y397441I-984J-0D01*
G01X398425Y396457D02*
Y383184D01*
G03X399409Y382200I984J0*
G01X401575*
Y374326D02*
G03Y382200I-0J3937D01*
G01Y374326D02*
X395472D01*
G03X394488Y373342I0J-984*
G01Y363105*
G03X395472Y362121I984J0*
G01X408858*
G03X409843Y363105I0J984*
G01Y364680*
X410827Y365664D02*
G03X409843Y364680I-0J-984D01*
G01X410827Y365664D02*
X425197D01*
G03X427008Y366220I-132J3658*
G01X437795Y372441*
G03X438583Y373622I-629J1272*
G01Y383110*
G03X437795Y384134I-1282J-171*
G01X427000Y390336*
G03X426508Y390468I-492J-853*
G01X424016*
X420866Y393617D02*
G03X424016Y390468I3150J0D01*
G01X420866Y393617D02*
Y396457D01*
X422835D02*
G03X420866I-985J-0D01*
G01X422835D02*
Y395472D01*
G03X423819Y394488I984J0*
G01X434303*
X435287D02*
G03X434303I-492J0D01*
G01X435287D02*
X468169D01*
X469154D02*
G03X468169I-493J0D01*
G01X469154D02*
X476087D01*
G03X477072Y395472I0J984*
G01Y403543*
G03X476087Y404528I-985J0*
G01X458586*
X458429Y404546D02*
G03X458586Y404528I157J666D01*
G01X457634Y405512D02*
G03X458429Y404546I984J-0D01*
G54D106*
G01X413583Y386334D03*
X415551D03*
X417520D03*
X419488D03*
X421457D03*
X423425D03*
Y370586D03*
X421457D03*
X419488D03*
X417520D03*
X415551D03*
X413583D03*
G54D107*
X426378Y383381D03*
Y381412D03*
Y379444D03*
Y377475D03*
Y375507D03*
Y373538D03*
X410630D03*
Y375507D03*
Y377475D03*
Y379444D03*
Y381412D03*
Y383381D03*
G74*
X0Y0D02*
M02*
