*
*
G04 PADS VX.2.8 Build Number: 19810023 generated Gerber (RS-274-X) file*
G04 PC Version=2.1*
*
%IN "FT2R_0.pcb"*%
*
%MOIN*%
*
%FSLAX35Y35*%
*
*
*
*
G04 PC Standard Apertures*
*
*
G04 Thermal Relief Aperture macro.*
%AMTER*
1,1,$1,0,0*
1,0,$1-$2,0,0*
21,0,$3,$4,0,0,45*
21,0,$3,$4,0,0,135*
%
*
*
G04 Annular Aperture macro.*
%AMANN*
1,1,$1,0,0*
1,0,$2,0,0*
%
*
*
G04 Odd Aperture macro.*
%AMODD*
1,1,$1,0,0*
1,0,$1-0.005,0,0*
%
*
*
G04 PC Custom Aperture Macros*
*
*
*
*
*
*
G04 PC Aperture Table*
*
%ADD010C,0.001*%
%ADD013C,0.00394*%
%ADD015C,0.00591*%
%ADD044C,0.01969*%
%ADD105C,0*%
%ADD108O,0.01575X0.0315*%
%ADD109O,0.0315X0.01575*%
*
*
*
*
G04 PC Circuitry*
G04 Layer Name FT2R_0.pcb - circuitry*
%LPD*%
*
*
G04 PC Custom Flashes*
G04 Layer Name FT2R_0.pcb - flashes*
%LPD*%
*
*
G04 PC Circuitry*
G04 Layer Name FT2R_0.pcb - circuitry*
%LPD*%
*
G54D10*
G54D13*
G01X433386Y374941D02*
X434646D01*
Y373563*
X433386*
Y374941*
Y373563D02*
X434646D01*
X433386Y373957D02*
X434646D01*
X433386Y374350D02*
X434646D01*
X433386Y374744D02*
X434646D01*
X433465Y373563D02*
Y374941D01*
X433858Y373563D02*
Y374941D01*
X434252Y373563D02*
Y374941D01*
X434646Y373563D02*
Y374941D01*
X431181D02*
X432441D01*
Y373563*
X431181*
Y374941*
Y373563D02*
X432441D01*
X431181Y373957D02*
X432441D01*
X431181Y374350D02*
X432441D01*
X431181Y374744D02*
X432441D01*
X431496Y373563D02*
Y374941D01*
X431890Y373563D02*
Y374941D01*
X432283Y373563D02*
Y374941D01*
X429843Y370374D02*
X428583D01*
Y371752*
X429843*
Y370374*
X428583D02*
X429843D01*
X428583Y370768D02*
X429843D01*
X428583Y371161D02*
X429843D01*
X428583Y371555D02*
X429843D01*
X428740Y370374D02*
Y371752D01*
X429134Y370374D02*
Y371752D01*
X429528Y370374D02*
Y371752D01*
X432047Y370374D02*
X430787D01*
Y371752*
X432047*
Y370374*
X430787D02*
X432047D01*
X430787Y370768D02*
X432047D01*
X430787Y371161D02*
X432047D01*
X430787Y371555D02*
X432047D01*
X431102Y370374D02*
Y371752D01*
X431496Y370374D02*
Y371752D01*
X431890Y370374D02*
Y371752D01*
G54D15*
X504980Y456304D02*
Y453720D01*
Y456304D02*
X506144D01*
X504980Y455074D02*
X505696D01*
X507575Y456304D02*
Y453720D01*
X506949Y456304D02*
X508202D01*
X509096Y455689D02*
Y455812D01*
X509186Y456058*
X509275Y456181*
X509454Y456304*
X509812*
X509991Y456181*
X510081Y456058*
X510170Y455812*
Y455566*
X510081Y455320*
X509902Y454951*
X509007Y453720*
X510259*
X511065Y454828D02*
X512675D01*
X513481Y456304D02*
Y453720D01*
Y456304D02*
X514286D01*
X514554Y456181*
X514644Y456058*
X514733Y455812*
Y455566*
X514644Y455320*
X514554Y455197*
X514286Y455074*
X513481*
X514107D02*
X514733Y453720D01*
X516076Y456304D02*
X515807Y456181D01*
X515628Y455812*
X515539Y455197*
Y454828*
X515628Y454213*
X515807Y453844*
X516076Y453720*
X516254*
X516523Y453844*
X516702Y454213*
X516791Y454828*
Y455197*
X516702Y455812*
X516523Y456181*
X516254Y456304*
X516076*
X517597Y453228D02*
X519476D01*
X520013Y455812D02*
X520191Y455935D01*
X520460Y456304*
Y453720*
X522339Y455935D02*
X522249Y456181D01*
X521981Y456304*
X521802*
X521534Y456181*
X521355Y455812*
X521265Y455197*
Y454582*
X521355Y454090*
X521534Y453844*
X521802Y453720*
X521892*
X522160Y453844*
X522339Y454090*
X522428Y454459*
Y454582*
X522339Y454951*
X522160Y455197*
X521892Y455320*
X521802*
X521534Y455197*
X521355Y454951*
X521265Y454582*
X524128Y456304D02*
X523234Y454582D01*
X524576*
X524128Y456304D02*
Y453720D01*
X526634Y456304D02*
X525739Y453720D01*
X525381Y456304D02*
X526634D01*
X528602D02*
X527708D01*
X527618Y455197*
X527708Y455320*
X527976Y455443*
X528244*
X528513Y455320*
X528692Y455074*
X528781Y454705*
X528692Y454459*
X528602Y454090*
X528423Y453844*
X528155Y453720*
X527887*
X527618Y453844*
X527529Y453967*
X527439Y454213*
X529587Y453228D02*
X531466D01*
X532181Y456304D02*
X533166D01*
X532629Y455320*
X532897*
X533076Y455197*
X533166Y455074*
X533255Y454705*
Y454459*
X533166Y454090*
X532987Y453844*
X532718Y453720*
X532450*
X532181Y453844*
X532092Y453967*
X532003Y454213*
X534060Y453228D02*
X535940D01*
X537729Y455935D02*
X537550Y456181D01*
X537282Y456304*
X536924*
X536655Y456181*
X536476Y455935*
Y455689*
X536566Y455443*
X536655Y455320*
X536834Y455197*
X537371Y454951*
X537550Y454828*
X537640Y454705*
X537729Y454459*
Y454090*
X537550Y453844*
X537282Y453720*
X536924*
X536655Y453844*
X536476Y454090*
X539071Y456304D02*
X538892Y456181D01*
X538713Y455935*
X538624Y455689*
X538534Y455320*
Y454705*
X538624Y454336*
X538713Y454090*
X538892Y453844*
X539071Y453720*
X539429*
X539608Y453844*
X539787Y454090*
X539877Y454336*
X539966Y454705*
Y455320*
X539877Y455689*
X539787Y455935*
X539608Y456181*
X539429Y456304*
X539071*
X540771D02*
Y453720D01*
X541845*
X542650Y456304D02*
Y453720D01*
Y456304D02*
X543277D01*
X543545Y456181*
X543724Y455935*
X543814Y455689*
X543903Y455320*
Y454705*
X543814Y454336*
X543724Y454090*
X543545Y453844*
X543277Y453720*
X542650*
X544708Y456304D02*
Y453720D01*
Y456304D02*
X545872D01*
X544708Y455074D02*
X545424D01*
X544708Y453720D02*
X545872D01*
X546677Y456304D02*
Y453720D01*
Y456304D02*
X547482D01*
X547751Y456181*
X547840Y456058*
X547929Y455812*
Y455566*
X547840Y455320*
X547751Y455197*
X547482Y455074*
X546677*
X547303D02*
X547929Y453720D01*
X548735Y453228D02*
X550614D01*
X551151Y456304D02*
Y453720D01*
Y456304D02*
X551866Y453720D01*
X552582Y456304D02*
X551866Y453720D01*
X552582Y456304D02*
Y453720D01*
X554103Y456304D02*
X553388Y453720D01*
X554103Y456304D02*
X554819Y453720D01*
X553656Y454582D02*
X554551D01*
X556877Y455935D02*
X556698Y456181D01*
X556430Y456304*
X556072*
X555804Y456181*
X555625Y455935*
Y455689*
X555714Y455443*
X555804Y455320*
X555982Y455197*
X556519Y454951*
X556698Y454828*
X556788Y454705*
X556877Y454459*
Y454090*
X556698Y453844*
X556430Y453720*
X556072*
X555804Y453844*
X555625Y454090*
X557683Y456304D02*
Y453720D01*
X558935Y456304D02*
X557683Y454582D01*
X558130Y455197D02*
X558935Y453720D01*
X559741Y453228D02*
X561620D01*
X562783Y456304D02*
Y453720D01*
X562156Y456304D02*
X563409D01*
X564751D02*
X564572Y456181D01*
X564393Y455935*
X564304Y455689*
X564214Y455320*
Y454705*
X564304Y454336*
X564393Y454090*
X564572Y453844*
X564751Y453720*
X565109*
X565288Y453844*
X565467Y454090*
X565557Y454336*
X565646Y454705*
Y455320*
X565557Y455689*
X565467Y455935*
X565288Y456181*
X565109Y456304*
X564751*
X566451D02*
Y453720D01*
Y456304D02*
X567257D01*
X567525Y456181*
X567615Y456058*
X567704Y455812*
Y455443*
X567615Y455197*
X567525Y455074*
X567257Y454951*
X566451*
G54D44*
X414961Y374916D02*
Y382003D01*
X422047*
Y374916*
X414961*
X422047*
X414961Y376885D02*
X422047D01*
X414961Y378853D02*
X422047D01*
X414961Y380822D02*
X422047D01*
X415354Y374916D02*
Y382003D01*
X417323Y374916D02*
Y382003D01*
X419291Y374916D02*
Y382003D01*
X421260Y374916D02*
Y382003D01*
G54D105*
X457760Y405575D02*
G75*
G03X445949I-5906J-0D01*
G01X445154Y404609D02*
G03X445949Y405575I-190J966D01*
G01X444996Y404591D02*
G03X445154Y404609I0J684D01*
G01X444996Y404591D02*
X443179D01*
X442194Y405575D02*
G03X443179Y404591I985J-0D01*
G01X447182Y417710D02*
G03X442194Y405575I12267J-12135D01*
G01X447894Y418389D02*
G03X447182Y417710I-359J-336D01*
G01X459449Y422830D02*
G03X447894Y418389I0J-17255D01*
G01X459449Y422830D02*
Y437287D01*
G03X459152Y437996I-1005J-5*
X458449Y438271I-680J-703*
X436955Y429325I1000J-32696*
G01X436251Y428637D02*
G03X436955Y429325I349J347D01*
G01X436251Y428637D02*
G03X426738Y405575I23198J-23062D01*
G01X425753Y404591D02*
G03X426738Y405575I0J984D01*
G01X425753Y404591D02*
X423551D01*
X422567Y405575D02*
G03X423551Y404591I984J-0D01*
G01X422647Y405970D02*
G03X422567Y405575I882J-384D01*
G01X422869Y406286D02*
G03X422647Y405970I710J-735D01*
G01X423182Y406496D02*
G03X422869Y406286I398J-932D01*
G01X423551Y406567D02*
G03X423182Y406496I-11J-938D01*
G01X423551Y406567D02*
X424535D01*
Y432265*
X424181Y432416D02*
G03X424535Y432265I349J325D01*
G01X424043Y432761D02*
G03X424181Y432416I474J-10D01*
G01X424189Y433113D02*
G03X424043Y432761I335J-345D01*
G01X424535Y433257D02*
G03X424189Y433113I-7J-472D01*
G01X424535Y433257D02*
Y469192D01*
G03X423551Y470177I-984J0*
G01X394811*
G03X393827Y469192I0J-985*
G01Y465551*
Y464566D02*
G03Y465551I-0J492D01*
G01Y464566D02*
Y433257D01*
X394181Y433105D02*
G03X393827Y433257I-349J-326D01*
G01X394319Y432761D02*
G03X394181Y433105I-475J9D01*
G01X394173Y432409D02*
G03X394319Y432761I-335J344D01*
G01X393827Y432265D02*
G03X394173Y432409I7J471D01*
G01X393827Y432265D02*
Y400161D01*
Y399177D02*
G03Y400161I-0J492D01*
G01Y399177D02*
Y398488D01*
G03X394811Y397504I984J0*
G01X397567*
X398551Y396520D02*
G03X397567Y397504I-984J-0D01*
G01X398551Y396520D02*
Y383247D01*
G03X399535Y382263I984J0*
G01X401701*
Y374389D02*
G03Y382263I-0J3937D01*
G01Y374389D02*
X395598D01*
G03X394614Y373405I0J-984*
G01Y363168*
G03X395598Y362184I984J0*
G01X408984*
G03X409969Y363168I0J984*
G01Y364743*
X410953Y365727D02*
G03X409969Y364743I-0J-984D01*
G01X410953Y365727D02*
X425323D01*
G03X427134Y366283I-132J3658*
G01X437921Y372504*
G03X438709Y373685I-629J1272*
G01Y383173*
G03X437921Y384197I-1282J-171*
G01X427126Y390399*
G03X426634Y390531I-492J-853*
G01X424142*
X420992Y393680D02*
G03X424142Y390531I3150J0D01*
G01X420992Y393680D02*
Y396520D01*
X422961D02*
G03X420992I-985J-0D01*
G01X422961D02*
Y395535D01*
G03X423945Y394551I984J0*
G01X434429*
X435413D02*
G03X434429I-492J0D01*
G01X435413D02*
X468295D01*
X469280D02*
G03X468295I-493J0D01*
G01X469280D02*
X476213D01*
G03X477198Y395535I0J984*
G01Y403606*
G03X476213Y404591I-985J0*
G01X458712*
X458555Y404609D02*
G03X458712Y404591I157J666D01*
G01X457760Y405575D02*
G03X458555Y404609I984J-0D01*
G54D108*
G01X413583Y370586D03*
X415551D03*
X417520D03*
X419488D03*
X421457D03*
X423425D03*
Y386334D03*
X421457D03*
X419488D03*
X417520D03*
X415551D03*
X413583D03*
G54D109*
X410630Y383381D03*
Y381412D03*
Y379444D03*
Y377475D03*
Y375507D03*
Y373538D03*
X426378D03*
Y375507D03*
Y377475D03*
Y379444D03*
Y381412D03*
Y383381D03*
G74*
X0Y0D02*
M02*
