*
*
G04 PADS9.1 Build Number: 392894 generated Gerber (RS-274-X) file*
G04 PC Version=2.1*
*
%IN "AEA_002.pcb"*%
*
%MOIN*%
*
%FSLAX35Y35*%
*
*
*
*
G04 PC Standard Apertures*
*
*
G04 Thermal Relief Aperture macro.*
%AMTER*
1,1,$1,0,0*
1,0,$1-$2,0,0*
21,0,$3,$4,0,0,45*
21,0,$3,$4,0,0,135*
%
*
*
G04 Annular Aperture macro.*
%AMANN*
1,1,$1,0,0*
1,0,$2,0,0*
%
*
*
G04 Odd Aperture macro.*
%AMODD*
1,1,$1,0,0*
1,0,$1-0.005,0,0*
%
*
*
G04 PC Custom Aperture Macros*
*
*
*
*
*
*
G04 PC Aperture Table*
*
%ADD010C,0.01*%
%ADD012C,0.006*%
%ADD014C,0.008*%
%ADD016C,0.001*%
*
*
*
*
G04 PC Circuitry*
G04 Layer Name AEA_002.pcb - circuitry*
%LPD*%
*
*
G04 PC Custom Flashes*
G04 Layer Name AEA_002.pcb - flashes*
%LPD*%
*
*
G04 PC Circuitry*
G04 Layer Name AEA_002.pcb - circuitry*
%LPD*%
*
G54D10*
G01X1490000Y1238000D02*
X1748000D01*
X1490000Y1214000D02*
X1748000D01*
X1490000Y1190000D02*
X1748000D01*
X1490000Y1238000D02*
Y1190000D01*
X1574000Y1238000D02*
Y1190000D01*
X1610000Y1238000D02*
Y1190000D01*
X1646000Y1238000D02*
Y1190000D01*
X1700000Y1238000D02*
Y1190000D01*
X1748000Y1238000D02*
Y1190000D01*
G54D12*
X1014567Y972441D02*
X1010630Y968504D01*
X989370*
X985433Y972441*
Y1027559*
X989370Y1031496*
X1010630*
X1014567Y1027559*
Y972441*
G54D14*
X1004874Y972197D02*
X1010874D01*
Y978197*
X1004874*
Y972197*
X1007874Y975197D02*
Y978197D01*
X989126Y1021803D02*
X995126D01*
Y1027803*
X989126*
Y1021803*
X992126Y1024803D02*
Y1027803D01*
X1004874Y1021803D02*
X1010874D01*
Y1027803*
X1004874*
Y1021803*
X1007874Y1024803D02*
Y1027803D01*
X989126Y972197D02*
X995126D01*
Y978197*
X989126*
Y972197*
X992126Y975197D02*
Y978197D01*
X986803Y994724D02*
X992803D01*
X989803Y991724D02*
Y997724D01*
X1007984Y1010157D02*
X1013984D01*
X1010984Y1007157D02*
Y1013157D01*
X1004874Y991142D02*
X1010874D01*
X1007874Y988142D02*
Y994142D01*
X1009087Y987638D02*
X1015087D01*
X1012087Y984638D02*
Y990638D01*
X1000386Y1007323D02*
X1006386D01*
X1003386Y1004323D02*
Y1010323D01*
X992866Y1000787D02*
X998866D01*
X995866Y997787D02*
Y1003787D01*
X990228Y989803D02*
X996228D01*
X993228Y986803D02*
Y992803D01*
X1001961Y990866D02*
X1007961D01*
X1004961Y987866D02*
Y993866D01*
X1007787Y1002795D02*
X1013787D01*
X1010787Y999795D02*
Y1005795D01*
X996606Y1001575D02*
X1002606D01*
X999606Y998575D02*
Y1004575D01*
X998772Y990472D02*
X1004772D01*
X1001772Y987472D02*
Y993472D01*
X1009087Y984646D02*
X1015087D01*
X1012087Y981646D02*
Y987646D01*
X1000504Y1009528D02*
X1006504D01*
X1003504Y1006528D02*
Y1012528D01*
X1525600Y1226750D02*
X1525055Y1227500D01*
X1524236Y1227875*
X1523145*
X1522327Y1227500*
X1521782Y1226750*
Y1226000*
X1522055Y1225250*
X1522327Y1224875*
X1522873Y1224500*
X1524509Y1223750*
X1525055Y1223375*
X1525327Y1223000*
X1525600Y1222250*
Y1221125*
X1525055Y1220375*
X1524236Y1220000*
X1523145*
X1522327Y1220375*
X1521782Y1221125*
X1528055Y1227875D02*
Y1220000D01*
X1534327Y1227875D02*
X1530509Y1220000D01*
Y1227875D02*
X1534327D01*
X1530509Y1220000D02*
X1534327D01*
X1536782Y1227875D02*
Y1220000D01*
Y1227875D02*
X1540327D01*
X1536782Y1224125D02*
X1538964D01*
X1536782Y1220000D02*
X1540327D01*
X1583964Y1227875D02*
X1583418Y1227500D01*
X1582873Y1226750*
X1582600Y1226000*
X1582327Y1224875*
Y1223000*
X1582600Y1221875*
X1582873Y1221125*
X1583418Y1220375*
X1583964Y1220000*
X1585055*
X1585600Y1220375*
X1586145Y1221125*
X1586418Y1221875*
X1586691Y1223000*
Y1224875*
X1586418Y1226000*
X1586145Y1226750*
X1585600Y1227500*
X1585055Y1227875*
X1583964*
X1584782Y1221500D02*
X1586418Y1219250D01*
X1591055Y1227875D02*
Y1220000D01*
X1589145Y1227875D02*
X1592964D01*
X1595418D02*
X1597600Y1224125D01*
Y1220000*
X1599782Y1227875D02*
X1597600Y1224125D01*
X1622145Y1226750D02*
X1621600Y1227500D01*
X1620782Y1227875*
X1619691*
X1618873Y1227500*
X1618327Y1226750*
Y1226000*
X1618600Y1225250*
X1618873Y1224875*
X1619418Y1224500*
X1621055Y1223750*
X1621600Y1223375*
X1621873Y1223000*
X1622145Y1222250*
Y1221125*
X1621600Y1220375*
X1620782Y1220000*
X1619691*
X1618873Y1220375*
X1618327Y1221125*
X1624600Y1227875D02*
X1626782Y1224125D01*
Y1220000*
X1628964Y1227875D02*
X1626782Y1224125D01*
X1631418Y1227875D02*
Y1220000D01*
Y1227875D02*
X1633600Y1220000D01*
X1635782Y1227875D02*
X1633600Y1220000D01*
X1635782Y1227875D02*
Y1220000D01*
X1657600Y1227875D02*
Y1220000D01*
Y1227875D02*
X1660055D01*
X1660873Y1227500*
X1661145Y1227125*
X1661418Y1226375*
Y1225250*
X1661145Y1224500*
X1660873Y1224125*
X1660055Y1223750*
X1657600*
X1663873Y1227875D02*
Y1220000D01*
X1667145*
X1671782Y1227875D02*
X1669600Y1220000D01*
X1671782Y1227875D02*
X1673964Y1220000D01*
X1670418Y1222625D02*
X1673145D01*
X1678327Y1227875D02*
Y1220000D01*
X1676418Y1227875D02*
X1680236D01*
X1682691D02*
Y1220000D01*
Y1227875D02*
X1686236D01*
X1682691Y1224125D02*
X1684873D01*
X1682691Y1220000D02*
X1686236D01*
X1688691Y1227875D02*
Y1220000D01*
Y1227875D02*
X1690600D01*
X1691418Y1227500*
X1691964Y1226750*
X1692236Y1226000*
X1692509Y1224875*
Y1223000*
X1692236Y1221875*
X1691964Y1221125*
X1691418Y1220375*
X1690600Y1220000*
X1688691*
X1716782Y1227875D02*
Y1220000D01*
X1714873Y1227875D02*
X1718691D01*
X1722782D02*
X1722236Y1227500D01*
X1721691Y1226750*
X1721418Y1226000*
X1721145Y1224875*
Y1223000*
X1721418Y1221875*
X1721691Y1221125*
X1722236Y1220375*
X1722782Y1220000*
X1723873*
X1724418Y1220375*
X1724964Y1221125*
X1725236Y1221875*
X1725509Y1223000*
Y1224875*
X1725236Y1226000*
X1724964Y1226750*
X1724418Y1227500*
X1723873Y1227875*
X1722782*
X1727964D02*
Y1220000D01*
X1731236*
X1497364Y1203875D02*
X1496545Y1203500D01*
X1496273Y1202750*
Y1202000*
X1496545Y1201250*
X1497091Y1200875*
X1498182Y1200500*
X1499000Y1200125*
X1499545Y1199375*
X1499818Y1198625*
Y1197500*
X1499545Y1196750*
X1499273Y1196375*
X1498455Y1196000*
X1497364*
X1496545Y1196375*
X1496273Y1196750*
X1496000Y1197500*
Y1198625*
X1496273Y1199375*
X1496818Y1200125*
X1497636Y1200500*
X1498727Y1200875*
X1499273Y1201250*
X1499545Y1202000*
Y1202750*
X1499273Y1203500*
X1498455Y1203875*
X1497364*
X1587236Y1202375D02*
X1587782Y1202750D01*
X1588600Y1203875*
Y1196000*
X1591600Y1203875D02*
X1594600D01*
X1592964Y1200875*
X1593782*
X1594327Y1200500*
X1594600Y1200125*
X1594873Y1199000*
Y1198250*
X1594600Y1197125*
X1594055Y1196375*
X1593236Y1196000*
X1592418*
X1591600Y1196375*
X1591327Y1196750*
X1591055Y1197500*
X1622000Y1202000D02*
X1634000D01*
X1628000Y1196000D02*
Y1208000D01*
X1654736Y1203875D02*
X1656918Y1200125D01*
Y1196000*
X1659100Y1203875D02*
X1656918Y1200125D01*
X1661555Y1203875D02*
Y1196000D01*
Y1203875D02*
X1665100D01*
X1661555Y1200125D02*
X1663736D01*
X1661555Y1196000D02*
X1665100D01*
X1671373Y1202750D02*
X1670827Y1203500D01*
X1670009Y1203875*
X1668918*
X1668100Y1203500*
X1667555Y1202750*
Y1202000*
X1667827Y1201250*
X1668100Y1200875*
X1668645Y1200500*
X1670282Y1199750*
X1670827Y1199375*
X1671100Y1199000*
X1671373Y1198250*
Y1197125*
X1670827Y1196375*
X1670009Y1196000*
X1668918*
X1668100Y1196375*
X1667555Y1197125*
X1712555Y1202750D02*
Y1196000D01*
X1710100Y1199375D02*
X1715009D01*
X1722373Y1205375D02*
X1717464Y1193375D01*
X1724827Y1199375D02*
X1729736D01*
X1732464Y1202000D02*
Y1202375D01*
X1732736Y1203125*
X1733009Y1203500*
X1733555Y1203875*
X1734645*
X1735191Y1203500*
X1735464Y1203125*
X1735736Y1202375*
Y1201625*
X1735464Y1200875*
X1734918Y1199750*
X1732191Y1196000*
X1736009*
G54D16*
X0Y0D02*
M02*
