*
*
G04 PADS9.1 Build Number: 392894 generated Gerber (RS-274-X) file*
G04 PC Version=2.1*
*
%IN "AEA_002.pcb"*%
*
%MOIN*%
*
%FSLAX35Y35*%
*
*
*
*
G04 PC Standard Apertures*
*
*
G04 Thermal Relief Aperture macro.*
%AMTER*
1,1,$1,0,0*
1,0,$1-$2,0,0*
21,0,$3,$4,0,0,45*
21,0,$3,$4,0,0,135*
%
*
*
G04 Annular Aperture macro.*
%AMANN*
1,1,$1,0,0*
1,0,$2,0,0*
%
*
*
G04 Odd Aperture macro.*
%AMODD*
1,1,$1,0,0*
1,0,$1-0.005,0,0*
%
*
*
G04 PC Custom Aperture Macros*
*
*
*
*
*
*
G04 PC Aperture Table*
*
%ADD010C,0.01*%
%ADD012C,0.006*%
%ADD013C,0.00787*%
%ADD014C,0.008*%
%ADD016C,0.001*%
%ADD022R,0.035X0.024*%
%ADD024C,0.01181*%
%ADD040C,0.06299*%
%ADD052R,0.02165X0.02165*%
%ADD053R,0.01378X0.01181*%
%ADD057C,0.0315*%
%ADD058O,0.07874X0.04724*%
%ADD059C,0.01575*%
%ADD062C,0.012*%
%ADD063C,0.016*%
*
*
*
*
G04 PC Circuitry*
G04 Layer Name AEA_002.pcb - circuitry*
%LPD*%
*
*
G04 PC Custom Flashes*
G04 Layer Name AEA_002.pcb - flashes*
%LPD*%
*
*
G04 PC Circuitry*
G04 Layer Name AEA_002.pcb - circuitry*
%LPD*%
*
G54D10*
G01X990261Y999644D02*
X991316Y1000530D01*
G54D12*
X994941Y999322D02*
Y994197D01*
X996378Y992760*
Y988362*
X999110Y985630*
X1002353*
X1003238Y984744*
Y983877*
X994941Y999322D02*
X995866Y1000787D01*
X1014567Y972441D02*
X1010630Y968504D01*
X989370*
X985433Y972441*
Y1027559*
X989370Y1031496*
X1010630*
X1014567Y1027559*
Y972441*
G54D13*
X1087079Y1040600D02*
Y1035433D01*
X1085827Y1040600D02*
X1088332D01*
X1091016D02*
X1090659Y1040354D01*
X1090301Y1039862*
X1090122Y1039370*
X1089943Y1038632*
Y1037402*
X1090122Y1036663*
X1090301Y1036171*
X1090659Y1035679*
X1091016Y1035433*
X1091732*
X1092090Y1035679*
X1092448Y1036171*
X1092627Y1036663*
X1092806Y1037402*
Y1038632*
X1092627Y1039370*
X1092448Y1039862*
X1092090Y1040354*
X1091732Y1040600*
X1091016*
X1094417D02*
Y1035433D01*
Y1040600D02*
X1096027D01*
X1096564Y1040354*
X1096743Y1040108*
X1096922Y1039616*
Y1038878*
X1096743Y1038386*
X1096564Y1038140*
X1096027Y1037894*
X1094417*
X1105333Y1039370D02*
X1105154Y1039862D01*
X1104796Y1040354*
X1104438Y1040600*
X1103722*
X1103364Y1040354*
X1103006Y1039862*
X1102827Y1039370*
X1102649Y1038632*
Y1037402*
X1102827Y1036663*
X1103006Y1036171*
X1103364Y1035679*
X1103722Y1035433*
X1104438*
X1104796Y1035679*
X1105154Y1036171*
X1105333Y1036663*
X1108017Y1040600D02*
X1107659Y1040354D01*
X1107301Y1039862*
X1107122Y1039370*
X1106943Y1038632*
Y1037402*
X1107122Y1036663*
X1107301Y1036171*
X1107659Y1035679*
X1108017Y1035433*
X1108733*
X1109091Y1035679*
X1109449Y1036171*
X1109628Y1036663*
X1109807Y1037402*
Y1038632*
X1109628Y1039370*
X1109449Y1039862*
X1109091Y1040354*
X1108733Y1040600*
X1108017*
X1111417D02*
Y1035433D01*
Y1040600D02*
X1113028D01*
X1113565Y1040354*
X1113744Y1040108*
X1113923Y1039616*
Y1038878*
X1113744Y1038386*
X1113565Y1038140*
X1113028Y1037894*
X1111417*
X1115533Y1040600D02*
Y1035433D01*
Y1040600D02*
X1117144D01*
X1117681Y1040354*
X1117860Y1040108*
X1118039Y1039616*
Y1038878*
X1117860Y1038386*
X1117681Y1038140*
X1117144Y1037894*
X1115533*
X1119649Y1040600D02*
Y1035433D01*
Y1040600D02*
X1121976D01*
X1119649Y1038140D02*
X1121081D01*
X1119649Y1035433D02*
X1121976D01*
X1123586Y1040600D02*
Y1035433D01*
Y1040600D02*
X1125197D01*
X1125734Y1040354*
X1125913Y1040108*
X1126092Y1039616*
Y1039124*
X1125913Y1038632*
X1125734Y1038386*
X1125197Y1038140*
X1123586*
X1124839D02*
X1126092Y1035433D01*
G54D14*
X989473Y1003611D02*
X987120Y1001258D01*
Y983794*
X988907Y982008*
X1004345*
X1005207Y982869*
Y983877*
X992008Y997244D02*
Y993556D01*
X995039Y990524*
Y987790*
X998952Y983877*
X1001270*
X989473Y1005943D02*
X990529Y1006829D01*
X989803Y994724D02*
Y990292D01*
X990070*
Y985492D02*
Y985448D01*
X990664*
X993228Y988013*
Y989803*
X1010354Y1000610D02*
X1010164Y999644D01*
X1009918Y998395*
X1011488Y1012664D02*
X1012171D01*
X1010984Y1010157D02*
X1012171Y1011344D01*
Y1012664*
X1010787Y1002795D02*
X1012480Y1001102D01*
X1003504Y1009528D02*
X1006640Y1012664D01*
X1008907*
X1004581Y993341D02*
X1004882D01*
X1004961Y993262*
Y990866*
X1012068Y994740D02*
Y997453D01*
X1012480Y997865*
Y1001102*
X1008907Y1016207D02*
X1012171D01*
X999978Y997380D02*
X1001037D01*
Y993341*
X1008639Y1000530D02*
X1009695Y999644D01*
X1010354Y1000610*
X998629Y993375D02*
Y993341D01*
X1001037*
X998629Y989832D02*
Y990514D01*
X1001772*
Y990472*
X1009595Y983409D02*
Y983882D01*
X1012087Y984646*
X1009595Y986952D02*
Y987581D01*
X1012073Y987776*
X1012084Y987638*
X1012087*
X1007175Y983877D02*
Y984852D01*
X1007954Y985630*
X1008131*
X1008170Y985669*
X1008267*
X1008306Y985709*
X1008440*
X1009595Y986864*
Y986952*
X1001270Y987421D02*
Y989971D01*
X1001772Y990472*
X1003238Y987421D02*
Y988625D01*
X1004961Y990347*
Y990866*
X1005207Y987421D02*
Y988475D01*
X1007874Y991142*
X1007175Y987421D02*
Y988395D01*
X1008072Y989291*
X1008556*
X1009724Y990460*
Y996575*
X1009918Y996769*
G54D16*
X831890Y477953D02*
Y1304724D01*
Y477953D02*
X2001181D01*
X831890Y1304724D02*
X2001181D01*
Y477953D02*
Y1304724D01*
G54D22*
X990070Y985492D03*
Y990292D03*
G54D24*
X999606Y1001575D02*
Y1008432D01*
X1005584Y1014409*
X1006518*
X1008611Y1016503*
Y1016207*
X1008907*
X1012068Y991196D02*
Y987795D01*
X1012087*
Y987638*
X901575Y950787D02*
X909055D01*
Y943307*
X901575*
Y950787*
Y1074803D02*
X909055D01*
Y1067323*
X901575*
Y1074803*
X1110630D02*
X1118110D01*
Y1067323*
X1110630*
Y1074803*
Y950787D02*
X1118110D01*
Y943307*
X1110630*
Y950787*
G54D40*
X1007874Y975197D03*
X992126Y1024803D03*
X1007874D03*
X992126Y975197D03*
G54D52*
X1008907Y1012664D03*
Y1016207D03*
X1012171Y1012664D03*
Y1016207D03*
X1012068Y991196D03*
Y994740D03*
X1009595Y986952D03*
Y983409D03*
X1004581Y993341D03*
X1001037D03*
X998629Y989832D03*
Y993375D03*
G54D53*
X1007175Y987421D03*
X1005207D03*
X1003238D03*
X1001270D03*
Y983877D03*
X1003238D03*
X1005207D03*
X1007175D03*
G54D57*
X1007583Y1001415D02*
X1009695Y999644D01*
X992372Y1001415D02*
X990261Y999644D01*
X1008371Y1007715D02*
X1010482Y1005943D01*
X991584Y1007715D02*
X989473Y1005943D01*
G54D58*
X999978Y997380D03*
G54D59*
X999606Y1001575D02*
Y997380D01*
X999978*
G54D62*
X990261Y999644D02*
X992008Y997244D01*
X989473Y1005943D02*
Y1003611D01*
X1009918Y996769D02*
Y998395D01*
X1003386Y1007323D02*
X1006846D01*
X1009426Y1006829*
G54D63*
X989803Y994724D03*
X1010984Y1010157D03*
X1007874Y991142D03*
X1012087Y987638D03*
X1003386Y1007323D03*
X995866Y1000787D03*
X993228Y989803D03*
X1004961Y990866D03*
X1010787Y1002795D03*
X999606Y1001575D03*
X1001772Y990472D03*
X1012087Y984646D03*
X1003504Y1009528D03*
X0Y0D02*
M02*
