*
*
G04 PADS9.1 Build Number: 392894 generated Gerber (RS-274-X) file*
G04 PC Version=2.1*
*
%IN "AEA_002.pcb"*%
*
%MOIN*%
*
%FSLAX35Y35*%
*
*
*
*
G04 PC Standard Apertures*
*
*
G04 Thermal Relief Aperture macro.*
%AMTER*
1,1,$1,0,0*
1,0,$1-$2,0,0*
21,0,$3,$4,0,0,45*
21,0,$3,$4,0,0,135*
%
*
*
G04 Annular Aperture macro.*
%AMANN*
1,1,$1,0,0*
1,0,$2,0,0*
%
*
*
G04 Odd Aperture macro.*
%AMODD*
1,1,$1,0,0*
1,0,$1-0.005,0,0*
%
*
*
G04 PC Custom Aperture Macros*
*
*
*
*
*
*
G04 PC Aperture Table*
*
%ADD013C,0.00787*%
%ADD016C,0.001*%
%ADD024C,0.01181*%
%ADD025C,0.00591*%
*
*
*
*
G04 PC Circuitry*
G04 Layer Name AEA_002.pcb - circuitry*
%LPD*%
*
*
G04 PC Custom Flashes*
G04 Layer Name AEA_002.pcb - flashes*
%LPD*%
*
*
G04 PC Circuitry*
G04 Layer Name AEA_002.pcb - circuitry*
%LPD*%
*
G54D13*
G01X1088332Y1002461D02*
X1087974Y1002953D01*
X1087437Y1003199*
X1086722*
X1086185Y1002953*
X1085827Y1002461*
Y1001969*
X1086006Y1001476*
X1086185Y1001230*
X1086543Y1000984*
X1087616Y1000492*
X1087974Y1000246*
X1088153Y1000000*
X1088332Y999508*
Y998770*
X1087974Y998278*
X1087437Y998031*
X1086722*
X1086185Y998278*
X1085827Y998770*
X1089943Y1003199D02*
Y998031D01*
X1091553Y1003199D02*
Y998031D01*
X1093701*
X1095311Y1003199D02*
Y998031D01*
X1097817Y1003199D02*
X1095311Y999754D01*
X1096206Y1000984D02*
X1097817Y998031D01*
X1101933Y1002461D02*
X1101575Y1002953D01*
X1101038Y1003199*
X1100322*
X1099785Y1002953*
X1099427Y1002461*
Y1001969*
X1099606Y1001476*
X1099785Y1001230*
X1100143Y1000984*
X1101217Y1000492*
X1101575Y1000246*
X1101754Y1000000*
X1101933Y999508*
Y998770*
X1101575Y998278*
X1101038Y998031*
X1100322*
X1099785Y998278*
X1099427Y998770*
X1106228Y1001969D02*
X1106049Y1002461D01*
X1105691Y1002953*
X1105333Y1003199*
X1104617*
X1104259Y1002953*
X1103901Y1002461*
X1103722Y1001969*
X1103543Y1001230*
Y1000000*
X1103722Y999262*
X1103901Y998770*
X1104259Y998278*
X1104617Y998031*
X1105333*
X1105691Y998278*
X1106049Y998770*
X1106228Y999262*
X1107838Y1003199D02*
Y998031D01*
Y1003199D02*
X1109449D01*
X1109986Y1002953*
X1110165Y1002707*
X1110344Y1002215*
Y1001722*
X1110165Y1001230*
X1109986Y1000984*
X1109449Y1000738*
X1107838*
X1109091D02*
X1110344Y998031D01*
X1111954Y1003199D02*
Y998031D01*
Y1003199D02*
X1114281D01*
X1111954Y1000738D02*
X1113386D01*
X1111954Y998031D02*
X1114281D01*
X1115891Y1003199D02*
Y998031D01*
Y1003199D02*
X1118218D01*
X1115891Y1000738D02*
X1117323D01*
X1115891Y998031D02*
X1118218D01*
X1119828Y1003199D02*
Y998031D01*
Y1003199D02*
X1122334Y998031D01*
Y1003199D02*
Y998031D01*
X1128060Y1003199D02*
Y998031D01*
Y1003199D02*
X1129671D01*
X1130208Y1002953*
X1130387Y1002707*
X1130565Y1002215*
X1130565D02*
Y1001722D01*
X1130565D02*
X1130387Y1001230D01*
X1130208Y1000984*
X1129671Y1000738*
X1128060D02*
X1129671D01*
X1130208Y1000492*
X1130387Y1000246*
X1130565Y999754*
X1130565D02*
Y999016D01*
X1130565D02*
X1130387Y998524D01*
X1130208Y998278*
X1129671Y998031*
X1128060*
X1133250Y1003199D02*
X1132892Y1002953D01*
X1132534Y1002461*
X1132355Y1001969*
X1132176Y1001230*
Y1000000*
X1132355Y999262*
X1132534Y998770*
X1132892Y998278*
X1133250Y998031*
X1133966*
X1134324Y998278*
X1134681Y998770*
X1134860Y999262*
X1135039Y1000000*
Y1001230*
X1134860Y1001969*
X1134681Y1002461*
X1134324Y1002953*
X1133966Y1003199*
X1133250*
X1137903D02*
Y998031D01*
X1136650Y1003199D02*
X1139155D01*
X1142019D02*
Y998031D01*
X1140766Y1003199D02*
X1143271D01*
X1145956D02*
X1145598Y1002953D01*
X1145240Y1002461*
X1145061Y1001969*
X1144882Y1001230*
Y1000000*
X1145061Y999262*
X1145240Y998770*
X1145598Y998278*
X1145956Y998031*
X1146671*
X1147029Y998278*
X1147387Y998770*
X1147566Y999262*
X1147745Y1000000*
Y1001230*
X1147566Y1001969*
X1147387Y1002461*
X1147029Y1002953*
X1146671Y1003199*
X1145956*
X1149356D02*
Y998031D01*
Y1003199D02*
X1150787Y998031D01*
X1152219Y1003199D02*
X1150787Y998031D01*
X1152219Y1003199D02*
Y998031D01*
G54D16*
X831890Y477953D02*
Y1304724D01*
Y477953D02*
X2001181D01*
X831890Y1304724D02*
X2001181D01*
Y477953D02*
Y1304724D01*
G54D24*
X901575Y950787D02*
X909055D01*
Y943307*
X901575*
Y950787*
Y1074803D02*
X909055D01*
Y1067323*
X901575*
Y1074803*
X1110630D02*
X1118110D01*
Y1067323*
X1110630*
Y1074803*
Y950787D02*
X1118110D01*
Y943307*
X1110630*
Y950787*
G54D25*
X986270Y1015753D02*
X988484Y1015750D01*
X988927Y1015641*
X989222Y1015426*
X989369Y1015104*
Y1014889*
X989220Y1014567*
X988925Y1014353*
X988482Y1014246*
X986267Y1014250*
X986856Y1013283D02*
X986708Y1013068D01*
X986264Y1012747*
X989365Y1012742*
X0Y0D02*
M02*
