*
*
G04 PADS9.1 Build Number: 392894 generated Gerber (RS-274-X) file*
G04 PC Version=2.1*
*
%IN "AEA_002.pcb"*%
*
%MOIN*%
*
%FSLAX35Y35*%
*
*
*
*
G04 PC Standard Apertures*
*
*
G04 Thermal Relief Aperture macro.*
%AMTER*
1,1,$1,0,0*
1,0,$1-$2,0,0*
21,0,$3,$4,0,0,45*
21,0,$3,$4,0,0,135*
%
*
*
G04 Annular Aperture macro.*
%AMANN*
1,1,$1,0,0*
1,0,$2,0,0*
%
*
*
G04 Odd Aperture macro.*
%AMODD*
1,1,$1,0,0*
1,0,$1-0.005,0,0*
%
*
*
G04 PC Custom Aperture Macros*
*
*
*
*
*
*
G04 PC Aperture Table*
*
%ADD013C,0.00787*%
%ADD016C,0.001*%
%ADD022R,0.035X0.024*%
%ADD024C,0.01181*%
%ADD052R,0.02165X0.02165*%
%ADD053R,0.01378X0.01181*%
%ADD057C,0.0315*%
%ADD058O,0.07874X0.04724*%
*
*
*
*
G04 PC Circuitry*
G04 Layer Name AEA_002.pcb - circuitry*
%LPD*%
*
*
G04 PC Custom Flashes*
G04 Layer Name AEA_002.pcb - flashes*
%LPD*%
*
*
G04 PC Circuitry*
G04 Layer Name AEA_002.pcb - circuitry*
%LPD*%
*
G54D13*
G01X1085827Y996112D02*
Y990945D01*
Y996112D02*
X1087437D01*
X1087974Y995866*
X1088153Y995620*
X1088332Y995128*
Y994390*
X1088153Y993898*
X1087974Y993652*
X1087437Y993406*
X1085827*
X1091374Y996112D02*
X1089943Y990945D01*
X1091374Y996112D02*
X1092806Y990945D01*
X1090480Y992667D02*
X1092269D01*
X1096922Y995374D02*
X1096564Y995866D01*
X1096027Y996112*
X1095311*
X1094775Y995866*
X1094417Y995374*
Y994882*
X1094596Y994390*
X1094775Y994144*
X1095132Y993898*
X1096206Y993406*
X1096564Y993159*
X1096743Y992913*
X1096922Y992421*
Y991683*
X1096564Y991191*
X1096027Y990945*
X1095311*
X1094775Y991191*
X1094417Y991683*
X1099785Y996112D02*
Y990945D01*
X1098533Y996112D02*
X1101038D01*
X1106764D02*
Y990945D01*
Y996112D02*
X1108196Y990945D01*
X1109628Y996112D02*
X1108196Y990945D01*
X1109628Y996112D02*
Y990945D01*
X1112670Y996112D02*
X1111238Y990945D01*
X1112670Y996112D02*
X1114102Y990945D01*
X1111775Y992667D02*
X1113565D01*
X1118218Y995374D02*
X1117860Y995866D01*
X1117323Y996112*
X1116607*
X1116070Y995866*
X1115712Y995374*
Y994882*
X1115891Y994390*
X1116070Y994144*
X1116428Y993898*
X1117502Y993406*
X1117860Y993159*
X1118039Y992913*
X1118218Y992421*
Y991683*
X1117860Y991191*
X1117323Y990945*
X1116607*
X1116070Y991191*
X1115712Y991683*
X1119828Y996112D02*
Y990945D01*
X1122334Y996112D02*
X1119828Y992667D01*
X1120723Y993898D02*
X1122334Y990945D01*
X1129313Y996112D02*
Y990945D01*
X1128060Y996112D02*
X1130565D01*
X1133250D02*
X1132892Y995866D01*
X1132534Y995374*
X1132355Y994882*
X1132176Y994144*
Y992913*
X1132355Y992175*
X1132534Y991683*
X1132892Y991191*
X1133250Y990945*
X1133966*
X1134324Y991191*
X1134681Y991683*
X1134860Y992175*
X1135039Y992913*
Y994144*
X1134860Y994882*
X1134681Y995374*
X1134324Y995866*
X1133966Y996112*
X1133250*
X1136650D02*
Y990945D01*
Y996112D02*
X1138261D01*
X1138797Y995866*
X1138976Y995620*
X1139155Y995128*
Y994390*
X1138976Y993898*
X1138797Y993652*
X1138261Y993406*
X1136650*
G54D16*
X831890Y477953D02*
Y1304724D01*
Y477953D02*
X2001181D01*
X831890Y1304724D02*
X2001181D01*
Y477953D02*
Y1304724D01*
G54D22*
X990070Y985492D03*
Y990292D03*
G54D24*
X901575Y950787D02*
X909055D01*
Y943307*
X901575*
Y950787*
Y1074803D02*
X909055D01*
Y1067323*
X901575*
Y1074803*
X1110630D02*
X1118110D01*
Y1067323*
X1110630*
Y1074803*
Y950787D02*
X1118110D01*
Y943307*
X1110630*
Y950787*
G54D52*
X1008907Y1012664D03*
Y1016207D03*
X1012171Y1012664D03*
Y1016207D03*
X1012068Y991196D03*
Y994740D03*
X1009595Y986952D03*
Y983409D03*
X1004581Y993341D03*
X1001037D03*
X998629Y989832D03*
Y993375D03*
G54D53*
X1007175Y987421D03*
X1005207D03*
X1003238D03*
X1001270D03*
Y983877D03*
X1003238D03*
X1005207D03*
X1007175D03*
G54D57*
X1007583Y1001415D02*
X1009695Y999644D01*
X992372Y1001415D02*
X990261Y999644D01*
X1008371Y1007715D02*
X1010482Y1005943D01*
X991584Y1007715D02*
X989473Y1005943D01*
G54D58*
X999978Y997380D03*
X0Y0D02*
M02*
