*
*
G04 PADS VX.0 Build Number: 635560 generated Gerber (RS-274-X) file*
G04 PC Version=2.1*
*
%IN "FTC_001.pcb"*%
*
%MOIN*%
*
%FSLAX35Y35*%
*
*
*
*
G04 PC Standard Apertures*
*
*
G04 Thermal Relief Aperture macro.*
%AMTER*
1,1,$1,0,0*
1,0,$1-$2,0,0*
21,0,$3,$4,0,0,45*
21,0,$3,$4,0,0,135*
%
*
*
G04 Annular Aperture macro.*
%AMANN*
1,1,$1,0,0*
1,0,$2,0,0*
%
*
*
G04 Odd Aperture macro.*
%AMODD*
1,1,$1,0,0*
1,0,$1-0.005,0,0*
%
*
*
G04 PC Custom Aperture Macros*
*
*
*
*
*
*
G04 PC Aperture Table*
*
%ADD010C,0.01*%
%ADD040C,0.001*%
%ADD070C,0.07874*%
%ADD091C,0.01181*%
%ADD093C,0.00591*%
%ADD132C,0.09843*%
%ADD160C,0.02795*%
%ADD164R,0.03X0.06*%
*
*
*
*
G04 PC Circuitry*
G04 Layer Name FTC_001.pcb - circuitry*
%LPD*%
*
*
G04 PC Custom Flashes*
G04 Layer Name FTC_001.pcb - flashes*
%LPD*%
*
*
G04 PC Circuitry*
G04 Layer Name FTC_001.pcb - circuitry*
%LPD*%
*
G54D10*
G01X570472Y345933D02*
Y339370D01*
X573200*
X578427Y344995D02*
X577972Y345620D01*
X577291Y345933*
X576382*
X575700Y345620*
X575245Y344995*
Y344370*
X575472Y343745*
X575700Y343433*
X576154Y343120*
X577518Y342495*
X577972Y342183*
X578200Y341870*
X578427Y341245*
Y340308*
X577972Y339683*
X577291Y339370*
X576382*
X575700Y339683*
X575245Y340308*
X585700Y342183D02*
X589791D01*
X597063Y345933D02*
Y339370D01*
X599791*
X604563Y343745D02*
Y339370D01*
Y342808D02*
X604109Y343433D01*
X603654Y343745*
X602972*
X602518Y343433*
X602063Y342808*
X601836Y341870*
Y341245*
X602063Y340308*
X602518Y339683*
X602972Y339370*
X603654*
X604109Y339683*
X604563Y340308*
X607291Y345933D02*
Y340620D01*
X607518Y339683*
X607972Y339370*
X608427*
X606609Y343745D02*
X608200D01*
X611609D02*
X611154Y343433D01*
X610700Y342808*
X610472Y341870*
Y341245*
X610700Y340308*
X611154Y339683*
X611609Y339370*
X612291*
X612745Y339683*
X613200Y340308*
X613427Y341245*
Y341870*
X613200Y342808*
X612745Y343433*
X612291Y343745*
X611609*
X623200Y342808D02*
X622972Y343433D01*
X622291Y343745*
X621609*
X620927Y343433*
X620700Y342808*
X620927Y342183*
X621382Y341870*
X622518Y341558*
X622972Y341245*
X623200Y340620*
Y340308*
X622972Y339683*
X622291Y339370*
X621609*
X620927Y339683*
X620700Y340308*
X627972Y343745D02*
Y339370D01*
Y342808D02*
X627518Y343433D01*
X627063Y343745*
X626382*
X625927Y343433*
X625472Y342808*
X625245Y341870*
Y341245*
X625472Y340308*
X625927Y339683*
X626382Y339370*
X627063*
X627518Y339683*
X627972Y340308*
X630018Y345933D02*
Y339370D01*
X634791Y345933D02*
Y339370D01*
Y342808D02*
X634336Y343433D01*
X633882Y343745*
X633200*
X632745Y343433*
X632291Y342808*
X632063Y341870*
Y341245*
X632291Y340308*
X632745Y339683*
X633200Y339370*
X633882*
X634336Y339683*
X634791Y340308*
X639563Y343745D02*
Y339370D01*
Y342808D02*
X639109Y343433D01*
X638654Y343745*
X637972*
X637518Y343433*
X637063Y342808*
X636836Y341870*
Y341245*
X637063Y340308*
X637518Y339683*
X637972Y339370*
X638654*
X639109Y339683*
X639563Y340308*
X642291Y345933D02*
Y340620D01*
X642518Y339683*
X642972Y339370*
X643427*
X641609Y343745D02*
X643200D01*
X645472D02*
Y340620D01*
X645700Y339683*
X646154Y339370*
X646836*
X647291Y339683*
X647972Y340620*
Y343745D02*
Y339370D01*
X650018Y343745D02*
Y339370D01*
Y341870D02*
X650245Y342808D01*
X650700Y343433*
X651154Y343745*
X651836*
X653882Y341870D02*
X656609D01*
Y342495*
X656382Y343120*
X656154Y343433*
X655700Y343745*
X655018*
X654563Y343433*
X654109Y342808*
X653882Y341870*
Y341245*
X654109Y340308*
X654563Y339683*
X655018Y339370*
X655700*
X656154Y339683*
X656609Y340308*
X333858Y378346D02*
X331102Y375591D01*
X324673*
X322206Y378058*
X324803Y369291D02*
X320472Y374409D01*
Y414567*
X364173Y369685D02*
X358147Y375711D01*
Y376498*
X352756Y381890*
Y414567*
X396063Y369685D02*
X384192Y381556D01*
Y414567*
X428740Y369685D02*
X422835Y374909D01*
X420044Y377699*
Y414510*
X453937Y369685D02*
X449613Y374009D01*
X449089*
X444395Y378703*
X468504Y377165D02*
X465354Y374016D01*
X458661*
X455512Y377165*
Y378346*
X322206Y378058D02*
Y394646D01*
X326378Y398819*
Y414567*
X324803Y382677D02*
X331890Y389764D01*
Y414567*
X325591Y378346D02*
X337402Y390157D01*
Y414567*
X345276Y387008D02*
Y390111D01*
X348685Y393520*
Y416693*
X350759Y418767*
X403029*
X369291Y380315D02*
Y414567D01*
X359843Y379134D02*
Y395262D01*
X358268Y396837*
Y414567*
X365748Y381102D02*
Y396049D01*
X363780Y398018*
Y414567*
X396298Y380026D02*
X394529Y378257D01*
X392913*
X390107Y379832*
X390157Y379921*
X396298Y380026D02*
Y395634D01*
X395609Y396323*
Y414478*
X393701Y381102D02*
Y395065D01*
X389764Y399002*
Y414567*
X400394Y381496D02*
Y396823D01*
X401121Y397549*
Y414478*
X426378Y380709D02*
Y396594D01*
X425950Y397022*
Y414510*
X422835Y379921D02*
Y417592D01*
X424140Y418898*
X428968*
X431890Y379134D02*
Y393176D01*
X437761Y399047*
Y414510*
X444395Y378703D02*
Y417993D01*
X445300Y418898*
X467815*
X452520Y387368D02*
Y403621D01*
X453001Y404101*
Y414496*
X448031Y378740D02*
Y395349D01*
X447095Y396285*
Y414496*
X463386Y378346D02*
X463159Y377945D01*
X460361Y379528*
X452520Y387368*
X468504Y377165D02*
Y404724D01*
X464812Y408417*
Y414496*
X462598Y384252D02*
Y390046D01*
X458906Y393739*
Y414496*
X342913Y406299D02*
Y414567D01*
X416142Y403937D02*
X409268Y410811D01*
Y412528*
X403029Y418767*
X431855Y414510D02*
Y416010D01*
X428968Y418898*
X470717Y414496D02*
Y415996D01*
X467815Y418898*
X441574Y385827D02*
G75*
G03X441574I-2598J0D01*
G01X376220Y388976D02*
G03X376220I-2598J0D01*
G01X408897Y387795D02*
G03X408897I-2598J0D01*
G01X457206Y398396D02*
Y410313D01*
X456206Y411496D02*
G03X457206Y410313I1200J-0D01*
G01X456206Y411496D02*
Y417198D01*
X455701*
Y411496*
X454701Y410313D02*
G03X455701Y411496I-200J1183D01*
G01X454701Y410313D02*
Y404101D01*
X454220Y402917D02*
G03X454701Y404101I-1219J1184D01*
G01X454220Y402917D02*
Y399288D01*
X457206Y398396D02*
G03X454220Y399288I-2088J-1546D01*
G01X466804Y377870D02*
Y391939D01*
X462766Y394314D02*
G03X466804Y391939I2588J-220D01*
G01X460606Y394803D02*
G03X462766Y394314I1599J2047D01*
G01X460606Y394803D02*
Y394443D01*
X463801Y391249*
X464298Y390046D02*
G03X463801Y391249I-1700J0D01*
G01X464298Y390046D02*
Y386216D01*
X460898D02*
G03X464298I1700J-1964D01*
G01X460898D02*
Y389342D01*
X457704Y392537*
X457206Y393739D02*
G03X457704Y392537I1700J-0D01*
G01X457206Y393739D02*
Y395305D01*
X454220Y394413D02*
G03X457206Y395305I898J2437D01*
G01X454220Y394413D02*
Y388072D01*
X461399Y380893*
X462008Y380549*
X461067Y377175D02*
G03X462008Y380549I2319J1171D01*
G01X461067Y377175D02*
X459524Y378048D01*
X459158Y378325D02*
G03X459524Y378048I1203J1203D01*
G01X459158Y378325D02*
X457620Y379863D01*
X457855Y377226D02*
G03X457620Y379863I-2343J1120D01*
G01X457855Y377226D02*
X459366Y375716D01*
X464650*
X466804Y377870*
Y396250D02*
Y404020D01*
X463610Y407215*
X463112Y408417D02*
G03X463610Y407215I1700J-0D01*
G01X463112Y408417D02*
Y410313D01*
X462112Y411496D02*
G03X463112Y410313I1200J-0D01*
G01X462112Y411496D02*
Y417198D01*
X461606*
Y411496*
X460606Y410313D02*
G03X461606Y411496I-200J1183D01*
G01X460606Y410313D02*
Y398898D01*
X464793Y396631D02*
G03X460606Y398898I-2588J219D01*
G01X466804Y396250D02*
G03X464793Y396631I-1450J-2156D01*
G01X474303Y366445D02*
Y417774D01*
X471120Y420957*
X412205*
X406433Y425287D02*
G03X412205Y420957I5772J1682D01*
G01X406433Y425287D02*
X397106D01*
X390296D02*
G03X397106I3405J3847D01*
G01X390296D02*
X380969D01*
X375197Y420957D02*
G03X380969Y425287I-0J6012D01*
G01X375197Y420957D02*
X316281D01*
X313098Y417774*
Y369628*
X316281Y366445*
X474303*
X470204Y398632D02*
G03Y402943I1450J2155D01*
G01Y398632D02*
Y377165D01*
X469706Y375963D02*
G03X470204Y377165I-1202J1202D01*
G01X469706Y375963D02*
X466556Y372814D01*
X465354Y372316D02*
G03X466556Y372814I0J1700D01*
G01X465354Y372316D02*
X458661D01*
X457459Y372814D02*
G03X458661Y372316I1202J1202D01*
G01X457459Y372814D02*
X454310Y375963D01*
X454169Y376123D02*
G03X454310Y375963I1343J1042D01*
G01X457029Y380455D02*
G03X454169Y376123I-1517J-2109D01*
G01X457029Y380455D02*
X451318Y386166D01*
X450820Y387368D02*
G03X451318Y386166I1700J-0D01*
G01X450820Y387368D02*
Y403621D01*
X451301Y404805D02*
G03X450820Y403621I1219J-1184D01*
G01X451301Y404805D02*
Y410313D01*
X450301Y411496D02*
G03X451301Y410313I1200J-0D01*
G01X450301Y411496D02*
Y417198D01*
X449795*
Y411496*
X448795Y410313D02*
G03X449795Y411496I-200J1183D01*
G01X448795Y410313D02*
Y396989D01*
X449234Y396551*
X449732Y395349D02*
G03X449234Y396551I-1701J-0D01*
G01X449732Y395349D02*
Y380704D01*
X449120Y376382D02*
G03X449732Y380704I-1089J2358D01*
G01X449120Y376382D02*
X449804Y375698D01*
X450815Y375211D02*
G03X449804Y375698I-1202J-1202D01*
G01X450815Y375211D02*
X453750Y372276D01*
X451346Y369872D02*
G03X453750Y372276I2591J-187D01*
G01X451346Y369872D02*
X448898Y372320D01*
X447887Y372807D02*
G03X448898Y372320I1202J1202D01*
G01X447887Y372807D02*
X443193Y377501D01*
X442695Y378703D02*
G03X443193Y377501I1700J-0D01*
G01X442695Y378703D02*
Y417993D01*
X443193Y419195D02*
G03X442695Y417993I1202J-1202D01*
G01X443193Y419195D02*
X444098Y420100D01*
X445300Y420598D02*
G03X444098Y420100I-0J-1700D01*
G01X445300Y420598D02*
X467815D01*
X469018Y420100D02*
G03X467815Y420598I-1203J-1202D01*
G01X469018Y420100D02*
X470421Y418696D01*
X472217*
X473417Y417496D02*
G03X472217Y418696I-1200J-0D01*
G01X473417Y417496D02*
Y411496D01*
X472217Y410296D02*
G03X473417Y411496I0J1200D01*
G01X472217Y410296D02*
X469217D01*
X468017Y411496D02*
G03X469217Y410296I1200J-0D01*
G01X468017Y411496D02*
Y416292D01*
X467512Y416797*
Y411496*
X466512Y410313D02*
G03X467512Y411496I-200J1183D01*
G01X466512Y410313D02*
Y409121D01*
X469706Y405927*
X470204Y404724D02*
G03X469706Y405927I-1700J0D01*
G01X470204Y404724D02*
Y402943D01*
X441574Y385827D02*
G03X441574I-2598J0D01*
G01X440461Y417510D02*
Y411510D01*
X439461Y410327D02*
G03X440461Y411510I-200J1183D01*
G01X439461Y410327D02*
Y399047D01*
X438963Y397845D02*
G03X439461Y399047I-1202J1202D01*
G01X438963Y397845D02*
X433590Y392472D01*
Y381098*
X430190D02*
G03X433590I1700J-1964D01*
G01X430190D02*
Y393176D01*
X430688Y394379D02*
G03X430190Y393176I1202J-1203D01*
G01X430688Y394379D02*
X436061Y399752D01*
Y410327*
X435061Y411510D02*
G03X436061Y410327I1200J0D01*
G01X435061Y411510D02*
Y417510D01*
X436261Y418710D02*
G03X435061Y417510I-0J-1200D01*
G01X436261Y418710D02*
X439261D01*
X440461Y417510D02*
G03X439261Y418710I-1200J0D01*
G01X434555Y417510D02*
Y411510D01*
X433355Y410310D02*
G03X434555Y411510I0J1200D01*
G01X433355Y410310D02*
X430355D01*
X429155Y411510D02*
G03X430355Y410310I1200J0D01*
G01X429155Y411510D02*
Y416306D01*
X428650Y416811*
Y411510*
X427650Y410327D02*
G03X428650Y411510I-200J1183D01*
G01X427650Y410327D02*
Y397722D01*
X428078Y396594D02*
G03X427650Y397722I-1700J0D01*
G01X428078Y396594D02*
Y382673D01*
X425009Y378501D02*
G03X428078Y382673I1369J2208D01*
G01X422824Y377324D02*
G03X425009Y378501I11J2597D01*
G01X422824Y377324D02*
X424000Y376148D01*
X428395Y372260*
X426143Y369713D02*
G03X428395Y372260I2597J-28D01*
G01X426143Y369713D02*
X421708Y373636D01*
X421633Y373707D02*
G03X421708Y373636I1202J1202D01*
G01X421633Y373707D02*
X418842Y376497D01*
X418344Y377699D02*
G03X418842Y376497I1700J0D01*
G01X418344Y377699D02*
Y402560D01*
X413551Y404124D02*
G03X418344Y402560I2591J-187D01*
G01X413551Y404124D02*
X408066Y409609D01*
X407568Y410811D02*
G03X408066Y409609I1700J-0D01*
G01X407568Y410811D02*
Y411824D01*
X403821Y415571*
Y411478*
X402821Y410295D02*
G03X403821Y411478I-200J1183D01*
G01X402821Y410295D02*
Y397549D01*
X402323Y396347D02*
G03X402821Y397549I-1202J1202D01*
G01X402323Y396347D02*
X402094Y396118D01*
Y383460*
X397998Y380491D02*
G03X402094Y383460I2396J1005D01*
G01X397998Y380491D02*
Y380026D01*
X397501Y378824D02*
G03X397998Y380026I-1203J1202D01*
G01X397501Y378824D02*
X395731Y377055D01*
X394529Y376557D02*
G03X395731Y377055I0J1700D01*
G01X394529Y376557D02*
X392913D01*
X392081Y376775D02*
G03X392913Y376557I832J1482D01*
G01X392081Y376775D02*
X390907Y377434D01*
X390758Y377394D02*
G03X390907Y377434I-601J2527D01*
G01X390758Y377394D02*
X395876Y372276D01*
X393472Y369872D02*
G03X395876Y372276I2591J-187D01*
G01X393472Y369872D02*
X382990Y380354D01*
X382492Y381556D02*
G03X382990Y380354I1700J-0D01*
G01X382492Y381556D02*
Y410384D01*
X381492Y411567D02*
G03X382492Y410384I1200J-0D01*
G01X381492Y411567D02*
Y417067D01*
X371991*
Y411567*
X370991Y410384D02*
G03X371991Y411567I-200J1183D01*
G01X370991Y410384D02*
Y382279D01*
X367117Y378894D02*
G03X370991Y382279I2174J1421D01*
G01X364048Y383066D02*
G03X367117Y378894I1700J-1964D01*
G01X364048Y383066D02*
Y395345D01*
X362577Y396816*
X362080Y398018D02*
G03X362577Y396816I1700J-0D01*
G01X362080Y398018D02*
Y410384D01*
X361080Y411567D02*
G03X362080Y410384I1200J-0D01*
G01X361080Y411567D02*
Y417067D01*
X360968*
Y411567*
X359968Y410384D02*
G03X360968Y411567I-200J1183D01*
G01X359968Y410384D02*
Y397541D01*
X361045Y396464*
X361543Y395262D02*
G03X361045Y396464I-1700J-0D01*
G01X361543Y395262D02*
Y381098D01*
X359847Y376536D02*
G03X361543Y381098I-4J2598D01*
G01X359847Y376498D02*
G03Y376536I-1700J0D01*
G01Y376498D02*
Y376415D01*
X363986Y372276*
X361582Y369872D02*
G03X363986Y372276I2591J-187D01*
G01X361582Y369872D02*
X356945Y374509D01*
X356447Y375711D02*
G03X356945Y374509I1700J0D01*
G01X356447Y375711D02*
Y375794D01*
X351554Y380688*
X351056Y381890D02*
G03X351554Y380688I1700J-0D01*
G01X351056Y381890D02*
Y410384D01*
X350385Y410742D02*
G03X351056Y410384I871J825D01*
G01X350385Y410742D02*
Y393520D01*
X349887Y392317D02*
G03X350385Y393520I-1202J1203D01*
G01X349887Y392317D02*
X346976Y389406D01*
Y388972*
X342933Y385885D02*
G03X346976Y388972I2343J1123D01*
G01X343576Y390019D02*
G03X342933Y385885I-1844J-1830D01*
G01X343576Y390019D02*
Y390111D01*
X344073Y391313D02*
G03X343576Y390111I1203J-1202D01*
G01X344073Y391313D02*
X346985Y394224D01*
Y416693*
X347483Y417895D02*
G03X346985Y416693I1202J-1202D01*
G01X347483Y417895D02*
X349557Y419969D01*
X350759Y420467D02*
G03X349557Y419969I-0J-1700D01*
G01X350759Y420467D02*
X403029D01*
X404231Y419969D02*
G03X403029Y420467I-1202J-1202D01*
G01X404231Y419969D02*
X410470Y413730D01*
X410968Y412528D02*
G03X410470Y413730I-1700J-0D01*
G01X410968Y412528D02*
Y411515D01*
X415955Y406528*
X418344Y405314D02*
G03X415955Y406528I-2202J-1377D01*
G01X418344Y405314D02*
Y410327D01*
X417344Y411510D02*
G03X418344Y410327I1200J0D01*
G01X417344Y411510D02*
Y417510D01*
X418544Y418710D02*
G03X417344Y417510I0J-1200D01*
G01X418544Y418710D02*
X421544D01*
X421554D02*
G03X421544I-10J-1200D01*
G01X421633Y418794D02*
G03X421554Y418710I1202J-1202D01*
G01X421633Y418794D02*
X422938Y420100D01*
X424140Y420598D02*
G03X422938Y420100I0J-1700D01*
G01X424140Y420598D02*
X428968D01*
X430170Y420100D02*
G03X428968Y420598I-1202J-1202D01*
G01X430170Y420100D02*
X431559Y418710D01*
X433355*
X434555Y417510D02*
G03X433355Y418710I-1200J0D01*
G01X345613Y417567D02*
Y411567D01*
X344613Y410384D02*
G03X345613Y411567I-200J1183D01*
G01X344613Y410384D02*
Y408263D01*
X342828Y403703D02*
G03X344613Y408263I85J2596D01*
G01X339102Y400254D02*
G03X342828Y403703I2237J1321D01*
G01X339102Y400254D02*
Y390157D01*
X338604Y388955D02*
G03X339102Y390157I-1202J1202D01*
G01X338604Y388955D02*
X328181Y378533D01*
X327964Y377291D02*
G03X328181Y378533I-2373J1055D01*
G01X327964Y377291D02*
X330398D01*
X331267Y378160*
X333672Y375756D02*
G03X331267Y378160I186J2590D01*
G01X333672Y375756D02*
X332304Y374388D01*
X331102Y373891D02*
G03X332304Y374388I0J1700D01*
G01X331102Y373891D02*
X324673D01*
X323471Y374388D02*
G03X324673Y373891I1202J1203D01*
G01X323471Y374388D02*
X322172Y375687D01*
Y375032*
X324832Y371889*
X322237Y369693D02*
G03X324832Y371889I2566J-402D01*
G01X322237Y369693D02*
X319175Y373311D01*
X318772Y374409D02*
G03X319175Y373311I1700J0D01*
G01X318772Y374409D02*
Y410384D01*
X317772Y411567D02*
G03X318772Y410384I1200J-0D01*
G01X317772Y411567D02*
Y417567D01*
X318972Y418767D02*
G03X317772Y417567I0J-1200D01*
G01X318972Y418767D02*
X321972D01*
X323172Y417567D02*
G03X321972Y418767I-1200J-0D01*
G01X323172Y417567D02*
Y411567D01*
X322172Y410384D02*
G03X323172Y411567I-200J1183D01*
G01X322172Y410384D02*
Y397018D01*
X324678Y399523*
Y410384*
X323678Y411567D02*
G03X324678Y410384I1200J-0D01*
G01X323678Y411567D02*
Y417567D01*
X324878Y418767D02*
G03X323678Y417567I-0J-1200D01*
G01X324878Y418767D02*
X327878D01*
X329078Y417567D02*
G03X327878Y418767I-1200J-0D01*
G01X329078Y417567D02*
Y411567D01*
X328078Y410384D02*
G03X329078Y411567I-200J1183D01*
G01X328078Y410384D02*
Y398819D01*
X327580Y397617D02*
G03X328078Y398819I-1202J1202D01*
G01X327580Y397617D02*
X323906Y393942D01*
Y385115*
X324990Y385268D02*
G03X323906Y385115I-187J-2591D01*
G01X324990Y385268D02*
X330190Y390468D01*
Y410384*
X329190Y411567D02*
G03X330190Y410384I1200J-0D01*
G01X329190Y411567D02*
Y417567D01*
X330390Y418767D02*
G03X329190Y417567I-0J-1200D01*
G01X330390Y418767D02*
X333390D01*
X334590Y417567D02*
G03X333390Y418767I-1200J-0D01*
G01X334590Y417567D02*
Y411567D01*
X333590Y410384D02*
G03X334590Y411567I-200J1183D01*
G01X333590Y410384D02*
Y389764D01*
X333092Y388562D02*
G03X333590Y389764I-1202J1202D01*
G01X333092Y388562D02*
X327394Y382864D01*
X327398Y382558D02*
G03X327394Y382864I-2595J119D01*
G01X327398Y382558D02*
X335702Y390862D01*
Y410384*
X334702Y411567D02*
G03X335702Y410384I1200J-0D01*
G01X334702Y411567D02*
Y417567D01*
X335902Y418767D02*
G03X334702Y417567I-0J-1200D01*
G01X335902Y418767D02*
X338902D01*
X340102Y417567D02*
G03X338902Y418767I-1200J-0D01*
G01X340102Y417567D02*
Y411567D01*
X339102Y410384D02*
G03X340102Y411567I-200J1183D01*
G01X339102Y410384D02*
Y402895D01*
X341424Y404171D02*
G03X339102Y402895I-85J-2596D01*
G01X341213Y408263D02*
G03X341424Y404171I1700J-1964D01*
G01X341213Y408263D02*
Y410384D01*
X340213Y411567D02*
G03X341213Y410384I1200J-0D01*
G01X340213Y411567D02*
Y417567D01*
X341413Y418767D02*
G03X340213Y417567I0J-1200D01*
G01X341413Y418767D02*
X344413D01*
X345613Y417567D02*
G03X344413Y418767I-1200J-0D01*
G01X376220Y388976D02*
G03X376220I-2598J0D01*
G01X408897Y387795D02*
G03X408897I-2598J0D01*
G01X460606Y403176D02*
X466804D01*
X460606Y402276D02*
X466804D01*
X460606Y401376D02*
X466804D01*
X460606Y400476D02*
X466804D01*
X460606Y399576D02*
X466804D01*
X464053Y398676D02*
X466804D01*
X464632Y397776D02*
X466804D01*
X464802Y396876D02*
X466804D01*
X460606Y404076D02*
X466748D01*
X460606Y404976D02*
X465848D01*
X460606Y405876D02*
X464948D01*
X460606Y406776D02*
X464048D01*
X460606Y407676D02*
X463282D01*
X460606Y409476D02*
X463112D01*
X460606Y408576D02*
X463112D01*
X460837Y410376D02*
X462881D01*
X461586Y411276D02*
X462132D01*
X461606Y416676D02*
X462112D01*
X461606Y415776D02*
X462112D01*
X461606Y414876D02*
X462112D01*
X461606Y413976D02*
X462112D01*
X461606Y413076D02*
X462112D01*
X461606Y412176D02*
X462112D01*
X463573Y391476D02*
X466804D01*
X464214Y390576D02*
X466804D01*
X464298Y389676D02*
X466804D01*
X464298Y388776D02*
X466804D01*
X464298Y387876D02*
X466804D01*
X464298Y386976D02*
X466804D01*
X464448Y386076D02*
X466804D01*
X465026Y385176D02*
X466804D01*
X465196Y384276D02*
X466804D01*
X465044Y383376D02*
X466804D01*
X464494Y382476D02*
X466804D01*
X460716Y381576D02*
X466804D01*
X464535Y380676D02*
X466804D01*
X465555Y379776D02*
X466804D01*
X465929Y378876D02*
X466804D01*
X465957Y377976D02*
X466804D01*
X465652Y377076D02*
X466010D01*
X464813Y376176D02*
X465110D01*
X462673Y392376D02*
X463406D01*
X461773Y393276D02*
X462889D01*
X460873Y394176D02*
X462758D01*
X461784Y380676D02*
X462236D01*
X458906Y376176D02*
X461959D01*
X458006Y377076D02*
X461120D01*
X454220Y388776D02*
X460898D01*
X454416Y387876D02*
X460898D01*
X455316Y386976D02*
X460898D01*
X456216Y386076D02*
X460749D01*
X459816Y382476D02*
X460703D01*
X454220Y389676D02*
X460565D01*
X457116Y385176D02*
X460171D01*
X458916Y383376D02*
X460153D01*
X458016Y384276D02*
X460001D01*
X454220Y390576D02*
X459665D01*
X458083Y377976D02*
X459651D01*
X454220Y391476D02*
X458765D01*
X458055Y378876D02*
X458608D01*
X454220Y392376D02*
X457865D01*
X457681Y379776D02*
X457708D01*
X454220Y393276D02*
X457270D01*
X457015Y395076D02*
X457206D01*
X454220Y394176D02*
X457206D01*
X454701Y409476D02*
X457206D01*
X454701Y408576D02*
X457206D01*
X454701Y407676D02*
X457206D01*
X454701Y406776D02*
X457206D01*
X454701Y405876D02*
X457206D01*
X454701Y404976D02*
X457206D01*
X454700Y404076D02*
X457206D01*
X454427Y403176D02*
X457206D01*
X454220Y402276D02*
X457206D01*
X454220Y401376D02*
X457206D01*
X454220Y400476D02*
X457206D01*
X454220Y399576D02*
X457206D01*
X456966Y398676D02*
X457206D01*
X454931Y410376D02*
X456975D01*
X455680Y411276D02*
X456226D01*
X455701Y416676D02*
X456206D01*
X455701Y415776D02*
X456206D01*
X455701Y414876D02*
X456206D01*
X455701Y413976D02*
X456206D01*
X455701Y413076D02*
X456206D01*
X455701Y412176D02*
X456206D01*
X473391Y417744D02*
X474303D01*
X473417Y416844D02*
X474303D01*
X473417Y415944D02*
X474303D01*
X473417Y415044D02*
X474303D01*
X473417Y414144D02*
X474303D01*
X473417Y413244D02*
X474303D01*
X473417Y412344D02*
X474303D01*
X473416Y411444D02*
X474303D01*
X472947Y410544D02*
X474303D01*
X466512Y409644D02*
X474303D01*
X466889Y408744D02*
X474303D01*
X467789Y407844D02*
X474303D01*
X468689Y406944D02*
X474303D01*
X469589Y406044D02*
X474303D01*
X470151Y405144D02*
X474303D01*
X470204Y404244D02*
X474303D01*
X472116Y403344D02*
X474303D01*
X473655Y402444D02*
X474303D01*
X474139Y401544D02*
X474303D01*
X474247Y400644D02*
X474303D01*
X474032Y399744D02*
X474303D01*
X473377Y398844D02*
X474303D01*
X470204Y397944D02*
X474303D01*
X470204Y397044D02*
X474303D01*
X470204Y396144D02*
X474303D01*
X470204Y395244D02*
X474303D01*
X470204Y394344D02*
X474303D01*
X470204Y393444D02*
X474303D01*
X470204Y392544D02*
X474303D01*
X470204Y391644D02*
X474303D01*
X470204Y390744D02*
X474303D01*
X470204Y389844D02*
X474303D01*
X470204Y388944D02*
X474303D01*
X470204Y388044D02*
X474303D01*
X470204Y387144D02*
X474303D01*
X470204Y386244D02*
X474303D01*
X470204Y385344D02*
X474303D01*
X470204Y384444D02*
X474303D01*
X470204Y383544D02*
X474303D01*
X470204Y382644D02*
X474303D01*
X470204Y381744D02*
X474303D01*
X470204Y380844D02*
X474303D01*
X470204Y379944D02*
X474303D01*
X470204Y379044D02*
X474303D01*
X470204Y378144D02*
X474303D01*
X470204Y377244D02*
X474303D01*
X469992Y376344D02*
X474303D01*
X469186Y375444D02*
X474303D01*
X468286Y374544D02*
X474303D01*
X467386Y373644D02*
X474303D01*
X466482Y372744D02*
X474303D01*
X455382Y371844D02*
X474303D01*
X456209Y370944D02*
X474303D01*
X456510Y370044D02*
X474303D01*
X456478Y369144D02*
X474303D01*
X456098Y368244D02*
X474303D01*
X455062Y367344D02*
X474303D01*
X472568Y418644D02*
X473433D01*
X469574Y419544D02*
X472533D01*
X468523Y420444D02*
X471633D01*
X470204Y403344D02*
X471191D01*
X467042Y410544D02*
X468487D01*
X467511Y411444D02*
X468018D01*
X467512Y415944D02*
X468017D01*
X467512Y415044D02*
X468017D01*
X467512Y414144D02*
X468017D01*
X467512Y413244D02*
X468017D01*
X467512Y412344D02*
X468017D01*
X453283Y372744D02*
X457534D01*
X456227Y380844D02*
X456640D01*
X452383Y373644D02*
X456629D01*
X449732Y381744D02*
X455740D01*
X451483Y374544D02*
X455729D01*
X449732Y382644D02*
X454840D01*
X450525Y375444D02*
X454829D01*
X449732Y380844D02*
X454796D01*
X449732Y383544D02*
X453940D01*
X449159Y376344D02*
X453858D01*
X450334Y379944D02*
X453463D01*
X450155Y377244D02*
X453160D01*
X449732Y384444D02*
X453040D01*
X450611Y379044D02*
X453009D01*
X450560Y378144D02*
X452922D01*
X429865Y367344D02*
X452812D01*
X449732Y385344D02*
X452140D01*
X430901Y368244D02*
X451776D01*
X431281Y369144D02*
X451396D01*
X448795Y409644D02*
X451301D01*
X448795Y408744D02*
X451301D01*
X448795Y407844D02*
X451301D01*
X448795Y406944D02*
X451301D01*
X448795Y406044D02*
X451301D01*
X448795Y405144D02*
X451301D01*
X449732Y386244D02*
X451245D01*
X431313Y370044D02*
X451174D01*
X448795Y404244D02*
X450939D01*
X449732Y387144D02*
X450835D01*
X448795Y403344D02*
X450820D01*
X448795Y402444D02*
X450820D01*
X448795Y401544D02*
X450820D01*
X448795Y400644D02*
X450820D01*
X448795Y399744D02*
X450820D01*
X448795Y398844D02*
X450820D01*
X448795Y397944D02*
X450820D01*
X448795Y397044D02*
X450820D01*
X449534Y396144D02*
X450820D01*
X449732Y395244D02*
X450820D01*
X449732Y394344D02*
X450820D01*
X449732Y393444D02*
X450820D01*
X449732Y392544D02*
X450820D01*
X449732Y391644D02*
X450820D01*
X449732Y390744D02*
X450820D01*
X449732Y389844D02*
X450820D01*
X449732Y388944D02*
X450820D01*
X449732Y388044D02*
X450820D01*
X449325Y410544D02*
X450770D01*
X449794Y411444D02*
X450302D01*
X449795Y416844D02*
X450301D01*
X449795Y415944D02*
X450301D01*
X449795Y415044D02*
X450301D01*
X449795Y414144D02*
X450301D01*
X449795Y413244D02*
X450301D01*
X449795Y412344D02*
X450301D01*
X431013Y370944D02*
X450274D01*
X430185Y371844D02*
X449374D01*
X427848Y372744D02*
X447954D01*
X426831Y373644D02*
X447050D01*
X425813Y374544D02*
X446150D01*
X424796Y375444D02*
X445250D01*
X429675Y420444D02*
X444593D01*
X423804Y376344D02*
X444350D01*
X430726Y419544D02*
X443542D01*
X433672Y377244D02*
X443450D01*
X439655Y418644D02*
X442825D01*
X434291Y378144D02*
X442790D01*
X440438Y417744D02*
X442695D01*
X440461Y416844D02*
X442695D01*
X440461Y415944D02*
X442695D01*
X440461Y415044D02*
X442695D01*
X440461Y414144D02*
X442695D01*
X440461Y413244D02*
X442695D01*
X440461Y412344D02*
X442695D01*
X440459Y411444D02*
X442695D01*
X439972Y410544D02*
X442695D01*
X439461Y409644D02*
X442695D01*
X439461Y408744D02*
X442695D01*
X439461Y407844D02*
X442695D01*
X439461Y406944D02*
X442695D01*
X439461Y406044D02*
X442695D01*
X439461Y405144D02*
X442695D01*
X439461Y404244D02*
X442695D01*
X439461Y403344D02*
X442695D01*
X439461Y402444D02*
X442695D01*
X439461Y401544D02*
X442695D01*
X439461Y400644D02*
X442695D01*
X439461Y399744D02*
X442695D01*
X439449Y398844D02*
X442695D01*
X439054Y397944D02*
X442695D01*
X438161Y397044D02*
X442695D01*
X437261Y396144D02*
X442695D01*
X436361Y395244D02*
X442695D01*
X435461Y394344D02*
X442695D01*
X434561Y393444D02*
X442695D01*
X433661Y392544D02*
X442695D01*
X433590Y391644D02*
X442695D01*
X433590Y390744D02*
X442695D01*
X433590Y389844D02*
X442695D01*
X433590Y388944D02*
X442695D01*
X440330Y388044D02*
X442695D01*
X441216Y387144D02*
X442695D01*
X441540Y386244D02*
X442695D01*
X441529Y385344D02*
X442695D01*
X441175Y384444D02*
X442695D01*
X440215Y383544D02*
X442695D01*
X433590Y382644D02*
X442695D01*
X433590Y381744D02*
X442695D01*
X433845Y380844D02*
X442695D01*
X434358Y379944D02*
X442695D01*
X434486Y379044D02*
X442695D01*
X433590Y383544D02*
X437737D01*
X433590Y388044D02*
X437622D01*
X433590Y384444D02*
X436778D01*
X433590Y387144D02*
X436737D01*
X433590Y385344D02*
X436424D01*
X433590Y386244D02*
X436412D01*
X427650Y409644D02*
X436061D01*
X427650Y408744D02*
X436061D01*
X427650Y407844D02*
X436061D01*
X427650Y406944D02*
X436061D01*
X427650Y406044D02*
X436061D01*
X427650Y405144D02*
X436061D01*
X427650Y404244D02*
X436061D01*
X427650Y403344D02*
X436061D01*
X427650Y402444D02*
X436061D01*
X427650Y401544D02*
X436061D01*
X427650Y400644D02*
X436061D01*
X427650Y399744D02*
X436053D01*
X433749Y418644D02*
X435867D01*
X434067Y410544D02*
X435550D01*
X427650Y398844D02*
X435153D01*
X434532Y417744D02*
X435084D01*
X434553Y411444D02*
X435063D01*
X434555Y416844D02*
X435061D01*
X434555Y415944D02*
X435061D01*
X434555Y415044D02*
X435061D01*
X434555Y414144D02*
X435061D01*
X434555Y413244D02*
X435061D01*
X434555Y412344D02*
X435061D01*
X427650Y397944D02*
X434253D01*
X428017Y397044D02*
X433353D01*
X428078Y396144D02*
X432453D01*
X428078Y395244D02*
X431553D01*
X428078Y394344D02*
X430654D01*
X428078Y393444D02*
X430211D01*
X428078Y392544D02*
X430190D01*
X428078Y391644D02*
X430190D01*
X428078Y390744D02*
X430190D01*
X428078Y389844D02*
X430190D01*
X428078Y388944D02*
X430190D01*
X428078Y388044D02*
X430190D01*
X428078Y387144D02*
X430190D01*
X428078Y386244D02*
X430190D01*
X428078Y385344D02*
X430190D01*
X428078Y384444D02*
X430190D01*
X428078Y383544D02*
X430190D01*
X428111Y382644D02*
X430190D01*
X428761Y381744D02*
X430190D01*
X422904Y377244D02*
X430108D01*
X428972Y380844D02*
X429934D01*
X428161Y410544D02*
X429644D01*
X426788Y378144D02*
X429488D01*
X428860Y379944D02*
X429422D01*
X428372Y379044D02*
X429294D01*
X428648Y411444D02*
X429157D01*
X428650Y415944D02*
X429155D01*
X428650Y415044D02*
X429155D01*
X428650Y414144D02*
X429155D01*
X428650Y413244D02*
X429155D01*
X428650Y412344D02*
X429155D01*
X397188Y367344D02*
X427615D01*
X398224Y368244D02*
X426579D01*
X398604Y369144D02*
X426200D01*
X424729Y378144D02*
X425968D01*
X398636Y370044D02*
X425769D01*
X398335Y370944D02*
X424752D01*
X397508Y371844D02*
X423734D01*
X403310Y420444D02*
X423433D01*
X395409Y372744D02*
X422717D01*
X404657Y419544D02*
X422382D01*
X394509Y373644D02*
X421699D01*
X393609Y374544D02*
X420796D01*
X392709Y375444D02*
X419896D01*
X391809Y376344D02*
X418996D01*
X395920Y377244D02*
X418406D01*
X412839Y409644D02*
X418344D01*
X413739Y408744D02*
X418344D01*
X414639Y407844D02*
X418344D01*
X415539Y406944D02*
X418344D01*
X417662Y406044D02*
X418344D01*
X418267Y402444D02*
X418344D01*
X417151Y401544D02*
X418344D01*
X402821Y400644D02*
X418344D01*
X402821Y399744D02*
X418344D01*
X402821Y398844D02*
X418344D01*
X402821Y397944D02*
X418344D01*
X402744Y397044D02*
X418344D01*
X402119Y396144D02*
X418344D01*
X402094Y395244D02*
X418344D01*
X402094Y394344D02*
X418344D01*
X402094Y393444D02*
X418344D01*
X402094Y392544D02*
X418344D01*
X402094Y391644D02*
X418344D01*
X402094Y390744D02*
X418344D01*
X407897Y389844D02*
X418344D01*
X408629Y388944D02*
X418344D01*
X408885Y388044D02*
X418344D01*
X408814Y387144D02*
X418344D01*
X408383Y386244D02*
X418344D01*
X407158Y385344D02*
X418344D01*
X402094Y384444D02*
X418344D01*
X402094Y383544D02*
X418344D01*
X402724Y382644D02*
X418344D01*
X402980Y381744D02*
X418344D01*
X402908Y380844D02*
X418344D01*
X402476Y379944D02*
X418344D01*
X401250Y379044D02*
X418344D01*
X396820Y378144D02*
X418344D01*
X405557Y418644D02*
X418150D01*
X411939Y410544D02*
X417833D01*
X406457Y417744D02*
X417367D01*
X411039Y411444D02*
X417346D01*
X407357Y416844D02*
X417344D01*
X408257Y415944D02*
X417344D01*
X409157Y415044D02*
X417344D01*
X410057Y414144D02*
X417344D01*
X410810Y413244D02*
X417344D01*
X410968Y412344D02*
X417344D01*
X402821Y401544D02*
X415132D01*
X402821Y402444D02*
X414016D01*
X402821Y403344D02*
X413613D01*
X402821Y404244D02*
X413431D01*
X402821Y405144D02*
X412531D01*
X402821Y406044D02*
X411631D01*
X402821Y406944D02*
X410731D01*
X377319Y421344D02*
X410083D01*
X402821Y407844D02*
X409831D01*
X402821Y408744D02*
X408931D01*
X378914Y422244D02*
X408488D01*
X402821Y409644D02*
X408032D01*
X403373Y410544D02*
X407589D01*
X403820Y411444D02*
X407568D01*
X379835Y423144D02*
X407567D01*
X403821Y412344D02*
X407048D01*
X394392Y424044D02*
X406952D01*
X396672Y424944D02*
X406544D01*
X403821Y413244D02*
X406148D01*
X402094Y385344D02*
X405441D01*
X403821Y414144D02*
X405248D01*
X402094Y389844D02*
X404702D01*
X403821Y415044D02*
X404348D01*
X402094Y386244D02*
X404216D01*
X402094Y388944D02*
X403969D01*
X402094Y387144D02*
X403785D01*
X402094Y388044D02*
X403713D01*
X397686Y379044D02*
X399537D01*
X397996Y379944D02*
X398311D01*
X365298Y367344D02*
X394938D01*
X366334Y368244D02*
X393902D01*
X366714Y369144D02*
X393522D01*
X366746Y370044D02*
X393300D01*
X380449Y424044D02*
X393009D01*
X366446Y370944D02*
X392400D01*
X365618Y371844D02*
X391500D01*
X390909Y377244D02*
X391246D01*
X380857Y424944D02*
X390729D01*
X363519Y372744D02*
X390600D01*
X362619Y373644D02*
X389700D01*
X361719Y374544D02*
X388800D01*
X360819Y375444D02*
X387900D01*
X359919Y376344D02*
X387000D01*
X361624Y377244D02*
X386100D01*
X370717Y378144D02*
X385200D01*
X371557Y379044D02*
X384300D01*
X371862Y379944D02*
X383400D01*
X371835Y380844D02*
X382648D01*
X370991Y409644D02*
X382492D01*
X370991Y408744D02*
X382492D01*
X370991Y407844D02*
X382492D01*
X370991Y406944D02*
X382492D01*
X370991Y406044D02*
X382492D01*
X370991Y405144D02*
X382492D01*
X370991Y404244D02*
X382492D01*
X370991Y403344D02*
X382492D01*
X370991Y402444D02*
X382492D01*
X370991Y401544D02*
X382492D01*
X370991Y400644D02*
X382492D01*
X370991Y399744D02*
X382492D01*
X370991Y398844D02*
X382492D01*
X370991Y397944D02*
X382492D01*
X370991Y397044D02*
X382492D01*
X370991Y396144D02*
X382492D01*
X370991Y395244D02*
X382492D01*
X370991Y394344D02*
X382492D01*
X370991Y393444D02*
X382492D01*
X370991Y392544D02*
X382492D01*
X370991Y391644D02*
X382492D01*
X375526Y390744D02*
X382492D01*
X376071Y389844D02*
X382492D01*
X376219Y388944D02*
X382492D01*
X376046Y388044D02*
X382492D01*
X375463Y387144D02*
X382492D01*
X370991Y386244D02*
X382492D01*
X370991Y385344D02*
X382492D01*
X370991Y384444D02*
X382492D01*
X370991Y383544D02*
X382492D01*
X370991Y382644D02*
X382492D01*
X371461Y381744D02*
X382492D01*
X371418Y410544D02*
X382065D01*
X371985Y411444D02*
X381498D01*
X371991Y416844D02*
X381492D01*
X371991Y415944D02*
X381492D01*
X371991Y415044D02*
X381492D01*
X371991Y414144D02*
X381492D01*
X371991Y413244D02*
X381492D01*
X371991Y412344D02*
X381492D01*
X370991Y387144D02*
X371781D01*
X370991Y390744D02*
X371718D01*
X370991Y388044D02*
X371198D01*
X370991Y389844D02*
X371173D01*
X370991Y388944D02*
X371025D01*
X362244Y378144D02*
X367866D01*
X362439Y379044D02*
X364164D01*
X361543Y395244D02*
X364048D01*
X361543Y394344D02*
X364048D01*
X361543Y393444D02*
X364048D01*
X361543Y392544D02*
X364048D01*
X361543Y391644D02*
X364048D01*
X361543Y390744D02*
X364048D01*
X361543Y389844D02*
X364048D01*
X361543Y388944D02*
X364048D01*
X361543Y388044D02*
X364048D01*
X361543Y387144D02*
X364048D01*
X361543Y386244D02*
X364048D01*
X361543Y385344D02*
X364048D01*
X361543Y384444D02*
X364048D01*
X361543Y383544D02*
X364048D01*
X361543Y382644D02*
X363657D01*
X362311Y379944D02*
X363423D01*
X361296Y396144D02*
X363249D01*
X361543Y381744D02*
X363231D01*
X361798Y380844D02*
X363163D01*
X326522Y367344D02*
X363048D01*
X360465Y397044D02*
X362386D01*
X359968Y397944D02*
X362081D01*
X359968Y409644D02*
X362080D01*
X359968Y408744D02*
X362080D01*
X359968Y407844D02*
X362080D01*
X359968Y406944D02*
X362080D01*
X359968Y406044D02*
X362080D01*
X359968Y405144D02*
X362080D01*
X359968Y404244D02*
X362080D01*
X359968Y403344D02*
X362080D01*
X359968Y402444D02*
X362080D01*
X359968Y401544D02*
X362080D01*
X359968Y400644D02*
X362080D01*
X359968Y399744D02*
X362080D01*
X359968Y398844D02*
X362080D01*
X327180Y368244D02*
X362012D01*
X360394Y410544D02*
X361653D01*
X327397Y369144D02*
X361633D01*
X327290Y370044D02*
X361410D01*
X360961Y411444D02*
X361086D01*
X360968Y416844D02*
X361080D01*
X360968Y415944D02*
X361080D01*
X360968Y415044D02*
X361080D01*
X360968Y414144D02*
X361080D01*
X360968Y413244D02*
X361080D01*
X360968Y412344D02*
X361080D01*
X326808Y370944D02*
X360510D01*
X325287Y371844D02*
X359610D01*
X324109Y372744D02*
X358710D01*
X323347Y373644D02*
X357810D01*
X332460Y374544D02*
X356911D01*
X333360Y375444D02*
X356468D01*
X335512Y376344D02*
X355898D01*
X336210Y377244D02*
X354998D01*
X336448Y378144D02*
X354098D01*
X336361Y379044D02*
X353198D01*
X335907Y379944D02*
X352298D01*
X334574Y380844D02*
X351416D01*
X331392Y381744D02*
X351062D01*
X350385Y409644D02*
X351056D01*
X350385Y408744D02*
X351056D01*
X350385Y407844D02*
X351056D01*
X350385Y406944D02*
X351056D01*
X350385Y406044D02*
X351056D01*
X350385Y405144D02*
X351056D01*
X350385Y404244D02*
X351056D01*
X350385Y403344D02*
X351056D01*
X350385Y402444D02*
X351056D01*
X350385Y401544D02*
X351056D01*
X350385Y400644D02*
X351056D01*
X350385Y399744D02*
X351056D01*
X350385Y398844D02*
X351056D01*
X350385Y397944D02*
X351056D01*
X350385Y397044D02*
X351056D01*
X350385Y396144D02*
X351056D01*
X350385Y395244D02*
X351056D01*
X350385Y394344D02*
X351056D01*
X350383Y393444D02*
X351056D01*
X350077Y392544D02*
X351056D01*
X349213Y391644D02*
X351056D01*
X348313Y390744D02*
X351056D01*
X347413Y389844D02*
X351056D01*
X347008Y388944D02*
X351056D01*
X347658Y388044D02*
X351056D01*
X347870Y387144D02*
X351056D01*
X347758Y386244D02*
X351056D01*
X347270Y385344D02*
X351056D01*
X345691Y384444D02*
X351056D01*
X333192Y383544D02*
X351056D01*
X332292Y382644D02*
X351056D01*
X350385Y410544D02*
X350629D01*
X315768Y420444D02*
X350478D01*
X314868Y419544D02*
X349131D01*
X344943Y418644D02*
X348231D01*
X345600Y417744D02*
X347348D01*
X345613Y416844D02*
X346991D01*
X345613Y415944D02*
X346985D01*
X345613Y415044D02*
X346985D01*
X345613Y414144D02*
X346985D01*
X345613Y413244D02*
X346985D01*
X345613Y412344D02*
X346985D01*
X345607Y411444D02*
X346985D01*
X345040Y410544D02*
X346985D01*
X344613Y409644D02*
X346985D01*
X344613Y408744D02*
X346985D01*
X345002Y407844D02*
X346985D01*
X345430Y406944D02*
X346985D01*
X345498Y406044D02*
X346985D01*
X345240Y405144D02*
X346985D01*
X344502Y404244D02*
X346985D01*
X343241Y403344D02*
X346985D01*
X343787Y402444D02*
X346985D01*
X343936Y401544D02*
X346985D01*
X343764Y400644D02*
X346985D01*
X343181Y399744D02*
X346985D01*
X339102Y398844D02*
X346985D01*
X339102Y397944D02*
X346985D01*
X339102Y397044D02*
X346985D01*
X339102Y396144D02*
X346985D01*
X339102Y395244D02*
X346985D01*
X339102Y394344D02*
X346985D01*
X339102Y393444D02*
X346204D01*
X339102Y392544D02*
X345304D01*
X334092Y384444D02*
X344861D01*
X339102Y391644D02*
X344404D01*
X342203Y390744D02*
X343698D01*
X334992Y385344D02*
X343281D01*
X339102Y404244D02*
X341325D01*
X339102Y390744D02*
X341261D01*
X339102Y409644D02*
X341213D01*
X339102Y408744D02*
X341213D01*
X339432Y418644D02*
X340883D01*
X339102Y407844D02*
X340825D01*
X339528Y410544D02*
X340787D01*
X339102Y405144D02*
X340587D01*
X339102Y406944D02*
X340397D01*
X339102Y406044D02*
X340328D01*
X340089Y417744D02*
X340226D01*
X340095Y411444D02*
X340220D01*
X340102Y416844D02*
X340213D01*
X340102Y415944D02*
X340213D01*
X340102Y415044D02*
X340213D01*
X340102Y414144D02*
X340213D01*
X340102Y413244D02*
X340213D01*
X340102Y412344D02*
X340213D01*
X335892Y386244D02*
X340011D01*
X339072Y389844D02*
X339730D01*
X339102Y399744D02*
X339496D01*
X339102Y403344D02*
X339436D01*
X336792Y387144D02*
X339354D01*
X338592Y388944D02*
X339247D01*
X337692Y388044D02*
X339139D01*
X333590Y409644D02*
X335702D01*
X333590Y408744D02*
X335702D01*
X333590Y407844D02*
X335702D01*
X333590Y406944D02*
X335702D01*
X333590Y406044D02*
X335702D01*
X333590Y405144D02*
X335702D01*
X333590Y404244D02*
X335702D01*
X333590Y403344D02*
X335702D01*
X333590Y402444D02*
X335702D01*
X333590Y401544D02*
X335702D01*
X333590Y400644D02*
X335702D01*
X333590Y399744D02*
X335702D01*
X333590Y398844D02*
X335702D01*
X333590Y397944D02*
X335702D01*
X333590Y397044D02*
X335702D01*
X333590Y396144D02*
X335702D01*
X333590Y395244D02*
X335702D01*
X333590Y394344D02*
X335702D01*
X333590Y393444D02*
X335702D01*
X333590Y392544D02*
X335702D01*
X333590Y391644D02*
X335702D01*
X333590Y390744D02*
X335583D01*
X333920Y418644D02*
X335372D01*
X334017Y410544D02*
X335275D01*
X334577Y417744D02*
X334715D01*
X334583Y411444D02*
X334708D01*
X334590Y416844D02*
X334702D01*
X334590Y415944D02*
X334702D01*
X334590Y415044D02*
X334702D01*
X334590Y414144D02*
X334702D01*
X334590Y413244D02*
X334702D01*
X334590Y412344D02*
X334702D01*
X333590Y389844D02*
X334683D01*
X333379Y388944D02*
X333783D01*
X330492Y380844D02*
X333143D01*
X332574Y388044D02*
X332883D01*
X331674Y387144D02*
X331983D01*
X329592Y379944D02*
X331810D01*
X328692Y379044D02*
X331356D01*
X328180Y378144D02*
X331251D01*
X330774Y386244D02*
X331083D01*
X328078Y409644D02*
X330190D01*
X328078Y408744D02*
X330190D01*
X328078Y407844D02*
X330190D01*
X328078Y406944D02*
X330190D01*
X328078Y406044D02*
X330190D01*
X328078Y405144D02*
X330190D01*
X328078Y404244D02*
X330190D01*
X328078Y403344D02*
X330190D01*
X328078Y402444D02*
X330190D01*
X328078Y401544D02*
X330190D01*
X328078Y400644D02*
X330190D01*
X328078Y399744D02*
X330190D01*
X328078Y398844D02*
X330190D01*
X327835Y397944D02*
X330190D01*
X327007Y397044D02*
X330190D01*
X326107Y396144D02*
X330190D01*
X325207Y395244D02*
X330190D01*
X324307Y394344D02*
X330190D01*
X323906Y393444D02*
X330190D01*
X323906Y392544D02*
X330190D01*
X323906Y391644D02*
X330190D01*
X323906Y390744D02*
X330190D01*
X329874Y385344D02*
X330183D01*
X328408Y418644D02*
X329860D01*
X328505Y410544D02*
X329763D01*
X323906Y389844D02*
X329565D01*
X328974Y384444D02*
X329283D01*
X329065Y417744D02*
X329203D01*
X329072Y411444D02*
X329196D01*
X329078Y416844D02*
X329190D01*
X329078Y415944D02*
X329190D01*
X329078Y415044D02*
X329190D01*
X329078Y414144D02*
X329190D01*
X329078Y413244D02*
X329190D01*
X329078Y412344D02*
X329190D01*
X323906Y388944D02*
X328665D01*
X328074Y383544D02*
X328383D01*
X323906Y388044D02*
X327765D01*
X327401Y382644D02*
X327483D01*
X323906Y387144D02*
X326865D01*
X323906Y386244D02*
X325965D01*
X323906Y385344D02*
X325065D01*
X322172Y409644D02*
X324678D01*
X322172Y408744D02*
X324678D01*
X322172Y407844D02*
X324678D01*
X322172Y406944D02*
X324678D01*
X322172Y406044D02*
X324678D01*
X322172Y405144D02*
X324678D01*
X322172Y404244D02*
X324678D01*
X322172Y403344D02*
X324678D01*
X322172Y402444D02*
X324678D01*
X322172Y401544D02*
X324678D01*
X322172Y400644D02*
X324678D01*
X322172Y399744D02*
X324678D01*
X322502Y418644D02*
X324348D01*
X322599Y410544D02*
X324251D01*
X322172Y398844D02*
X323998D01*
X323159Y417744D02*
X323691D01*
X323166Y411444D02*
X323684D01*
X323172Y416844D02*
X323678D01*
X323172Y415944D02*
X323678D01*
X323172Y415044D02*
X323678D01*
X323172Y414144D02*
X323678D01*
X323172Y413244D02*
X323678D01*
X323172Y412344D02*
X323678D01*
X322586Y374544D02*
X323316D01*
X322172Y397944D02*
X323098D01*
X315383Y367344D02*
X323084D01*
X314483Y368244D02*
X322426D01*
X322172Y375444D02*
X322416D01*
X313583Y369144D02*
X322210D01*
X322172Y397044D02*
X322198D01*
X313098Y370044D02*
X321940D01*
X313098Y370944D02*
X321178D01*
X313098Y371844D02*
X320417D01*
X313098Y372744D02*
X319655D01*
X313098Y373644D02*
X318955D01*
X313098Y409644D02*
X318772D01*
X313098Y408744D02*
X318772D01*
X313098Y407844D02*
X318772D01*
X313098Y406944D02*
X318772D01*
X313098Y406044D02*
X318772D01*
X313098Y405144D02*
X318772D01*
X313098Y404244D02*
X318772D01*
X313098Y403344D02*
X318772D01*
X313098Y402444D02*
X318772D01*
X313098Y401544D02*
X318772D01*
X313098Y400644D02*
X318772D01*
X313098Y399744D02*
X318772D01*
X313098Y398844D02*
X318772D01*
X313098Y397944D02*
X318772D01*
X313098Y397044D02*
X318772D01*
X313098Y396144D02*
X318772D01*
X313098Y395244D02*
X318772D01*
X313098Y394344D02*
X318772D01*
X313098Y393444D02*
X318772D01*
X313098Y392544D02*
X318772D01*
X313098Y391644D02*
X318772D01*
X313098Y390744D02*
X318772D01*
X313098Y389844D02*
X318772D01*
X313098Y388944D02*
X318772D01*
X313098Y388044D02*
X318772D01*
X313098Y387144D02*
X318772D01*
X313098Y386244D02*
X318772D01*
X313098Y385344D02*
X318772D01*
X313098Y384444D02*
X318772D01*
X313098Y383544D02*
X318772D01*
X313098Y382644D02*
X318772D01*
X313098Y381744D02*
X318772D01*
X313098Y380844D02*
X318772D01*
X313098Y379944D02*
X318772D01*
X313098Y379044D02*
X318772D01*
X313098Y378144D02*
X318772D01*
X313098Y377244D02*
X318772D01*
X313098Y376344D02*
X318772D01*
X313098Y375444D02*
X318772D01*
X313098Y374544D02*
X318772D01*
X313968Y418644D02*
X318442D01*
X313098Y410544D02*
X318346D01*
X313098Y417744D02*
X317785D01*
X313098Y411444D02*
X317779D01*
X313098Y416844D02*
X317772D01*
X313098Y415944D02*
X317772D01*
X313098Y415044D02*
X317772D01*
X313098Y414144D02*
X317772D01*
X313098Y413244D02*
X317772D01*
X313098Y412344D02*
X317772D01*
G54D40*
X606890Y197666D02*
X647047D01*
Y234673*
X625787Y429162D02*
Y469319D01*
X588780*
X268701Y244122D02*
Y203965D01*
X305709*
X323425Y469319D02*
X283268D01*
Y432311*
G54D70*
X393701Y429134D03*
G54D91*
X341732Y386614D02*
Y388189D01*
X406299Y387795D02*
Y389370D01*
X463644Y381496D02*
X465354Y383206D01*
Y394094*
X463644Y381496D02*
X461553D01*
X458268Y384781*
Y389796*
X455118Y392945*
Y396850*
X465354Y394094D02*
X464567Y394882D01*
X462992*
Y396063*
X462205Y396850*
X341339Y398425D02*
Y401575D01*
X471654Y400787D02*
Y403937D01*
G54D93*
X456955Y398687D02*
X456106Y397839D01*
X456955Y395014D02*
X456106Y395862D01*
X343175Y403412D02*
X342327Y402563D01*
X339502Y403412D02*
X340350Y402563D01*
X339502Y399738D02*
X340350Y400587D01*
X343175Y399738D02*
X342327Y400587D01*
X473490Y402624D02*
X472642Y401776D01*
X473490Y398951D02*
X472642Y399799D01*
X463518Y392258D02*
X464366Y393106D01*
X343569Y390026D02*
X342721Y389177D01*
X339895Y390026D02*
X340744Y389177D01*
X339895Y386352D02*
X340744Y387201D01*
X408136Y389632D02*
X407287Y388784D01*
X404462Y389632D02*
X405311Y388784D01*
X404462Y385958D02*
X405311Y386807D01*
X408136Y385958D02*
X407287Y386807D01*
X375459Y390813D02*
X374610Y389965D01*
X371785Y390813D02*
X372634Y389965D01*
X371785Y387140D02*
X372634Y387988D01*
X375459Y387140D02*
X374610Y387988D01*
X440813Y387664D02*
X439965Y386815D01*
X437140Y387664D02*
X437988Y386815D01*
X437140Y383990D02*
X437988Y384838D01*
X440813Y383990D02*
X439965Y384838D01*
X464042Y398687D02*
X463193Y397839D01*
G54D132*
X393701Y442913D03*
G54D160*
X324803Y369291D03*
X364173Y369685D03*
X396063D03*
X428740D03*
X453937D03*
X333858Y378346D03*
X324803Y382677D03*
X325591Y378346D03*
X345276Y387008D03*
X341732Y388189D03*
X369291Y380315D03*
X359843Y379134D03*
X365748Y381102D03*
X373622Y388976D03*
X393701Y381102D03*
X390157Y379921D03*
X400394Y381496D03*
X406299Y387795D03*
X426378Y380709D03*
X422835Y379921D03*
X431890Y379134D03*
X448031Y378740D03*
X455512Y378346D03*
X455118Y396850D03*
X438976Y385827D03*
X462598Y384252D03*
X463386Y378346D03*
X462205Y396850D03*
X465354Y394094D03*
X342913Y406299D03*
X341339Y401575D03*
X416142Y403937D03*
X471654Y400787D03*
G54D164*
X447095Y414496D03*
X464812D03*
X458906D03*
X453001D03*
X470717D03*
X431855Y414510D03*
X437761D03*
X425950D03*
X420044D03*
X389764Y414567D03*
X384192D03*
X401121Y414478D03*
X395609D03*
X369291Y414567D03*
X352756D03*
X358268D03*
X363780D03*
X342913D03*
X326378D03*
X331890D03*
X337402D03*
X320472D03*
G74*
X0Y0D02*
M02*
