%
T1C.016F095S3
X00311Y007559
X004016Y008465
X003189Y008465
X00311Y008898
X005157Y009331
X004803Y009449
X004764Y010787
X004921Y01126
X007992Y009528
X007205Y00874
X007559Y008661
X006614Y008543
X007047Y007598
X010236Y007598
X009646Y008622
X01Y00874
X012244Y011024
X01126Y009409
X010669Y00878
X012913Y008622
X013504Y007598
X015433Y008504
X013819Y008543
X013268Y008701
X014528Y009213
X017795Y010709
X01685Y010315
X016142Y010315
X017165Y010039
X01689Y009055
X016969Y008465
X016181Y008465
X016024Y007598
T2C.07874F081S55
X01Y013543
T3C.09843F066S55
X01Y014921
M30
