*
*
G04 PADS VX.2.8 Build Number: 19810023 generated Gerber (RS-274-X) file*
G04 PC Version=2.1*
*
%IN "FT2_L0.pcb"*%
*
%MOIN*%
*
%FSLAX35Y35*%
*
*
*
*
G04 PC Standard Apertures*
*
*
G04 Thermal Relief Aperture macro.*
%AMTER*
1,1,$1,0,0*
1,0,$1-$2,0,0*
21,0,$3,$4,0,0,45*
21,0,$3,$4,0,0,135*
%
*
*
G04 Annular Aperture macro.*
%AMANN*
1,1,$1,0,0*
1,0,$2,0,0*
%
*
*
G04 Odd Aperture macro.*
%AMODD*
1,1,$1,0,0*
1,0,$1-0.005,0,0*
%
*
*
G04 PC Custom Aperture Macros*
*
*
*
*
*
*
G04 PC Aperture Table*
*
%ADD010C,0.001*%
%ADD013C,0.00394*%
%ADD015C,0.00591*%
%ADD105C,0*%
*
*
*
*
G04 PC Circuitry*
G04 Layer Name FT2_L0.pcb - circuitry*
%LPD*%
*
*
G04 PC Custom Flashes*
G04 Layer Name FT2_L0.pcb - flashes*
%LPD*%
*
*
G04 PC Circuitry*
G04 Layer Name FT2_L0.pcb - circuitry*
%LPD*%
*
G54D10*
G54D13*
G01X445965Y387665D02*
X447101Y381102D01*
X448237Y387665D02*
X447101Y381102D01*
X448237Y387665D02*
X449374Y381102D01*
X450510Y387665D02*
X449374Y381102D01*
X452555Y387665D02*
Y381102D01*
X456192Y387665D02*
Y381102D01*
X454601Y387665D02*
X457783D01*
X459828D02*
Y381102D01*
X463010Y387665D02*
Y381102D01*
X459828Y384540D02*
X463010D01*
X466419Y387665D02*
X465965Y387352D01*
X465510Y386727*
X465283Y386102*
X465055Y385165*
Y383602*
X465283Y382665*
X465510Y382040*
X465965Y381415*
X466419Y381102*
X467328*
X467783Y381415*
X468237Y382040*
X468465Y382665*
X468692Y383602*
Y385165*
X468465Y386102*
X468237Y386727*
X467783Y387352*
X467328Y387665*
X466419*
X470737D02*
Y382977D01*
X470965Y382040*
X471419Y381415*
X472101Y381102*
X472555*
X473237Y381415*
X473692Y382040*
X473919Y382977*
Y387665*
X477555D02*
Y381102D01*
X475965Y387665D02*
X479146D01*
X486419D02*
Y381102D01*
Y387665D02*
X488465D01*
X489146Y387352*
X489374Y387040*
X489601Y386415*
Y385790*
X489374Y385165*
X489146Y384852*
X488465Y384540*
X486419D02*
X488465D01*
X489146Y384227*
X489374Y383915*
X489601Y383290*
Y382352*
X489374Y381727*
X489146Y381415*
X488465Y381102*
X486419*
X491646Y387665D02*
Y381102D01*
X495510Y387665D02*
X493692Y381102D01*
X495510Y387665D02*
X497328Y381102D01*
X494374Y383290D02*
X496646D01*
X499374Y387665D02*
Y381102D01*
Y387665D02*
X500965D01*
X501646Y387352*
X502101Y386727*
X502328Y386102*
X502555Y385165*
Y383602*
X502328Y382665*
X502101Y382040*
X501646Y381415*
X500965Y381102*
X499374*
X504601Y387665D02*
Y381102D01*
X507783Y387665D02*
Y381102D01*
X504601Y384540D02*
X507783D01*
X509828Y387665D02*
Y381102D01*
Y387665D02*
X512783D01*
X509828Y384540D02*
X511646D01*
X509828Y381102D02*
X512783D01*
X518010Y386727D02*
X517555Y387352D01*
X516874Y387665*
X515965*
X515283Y387352*
X514828Y386727*
Y386102*
X515055Y385477*
X515283Y385165*
X515737Y384852*
X517101Y384227*
X517555Y383915*
X517783Y383602*
X518010Y382977*
Y382040*
X517555Y381415*
X516874Y381102*
X515965*
X515283Y381415*
X514828Y382040*
X520055Y387665D02*
Y381102D01*
X522101Y387665D02*
X523919Y381102D01*
X525737Y387665D02*
X523919Y381102D01*
X527783Y387665D02*
Y381102D01*
Y387665D02*
X530737D01*
X527783Y384540D02*
X529601D01*
X527783Y381102D02*
X530737D01*
X541192Y387665D02*
X538010Y381102D01*
Y387665D02*
X541192D01*
X538010Y381102D02*
X541192D01*
X544601Y387665D02*
X544146Y387352D01*
X543692Y386727*
X543465Y386102*
X543237Y385165*
Y383602*
X543465Y382665*
X543692Y382040*
X544146Y381415*
X544601Y381102*
X545510*
X545965Y381415*
X546419Y382040*
X546646Y382665*
X546874Y383602*
Y385165*
X546646Y386102*
X546419Y386727*
X545965Y387352*
X545510Y387665*
X544601*
X548919D02*
Y381102D01*
Y387665D02*
X552101Y381102D01*
Y387665D02*
Y381102D01*
X554146Y387665D02*
Y381102D01*
Y387665D02*
X557101D01*
X554146Y384540D02*
X555965D01*
X554146Y381102D02*
X557101D01*
X564374Y383915D02*
X568465D01*
X575737Y387665D02*
Y381102D01*
Y387665D02*
X577783D01*
X578465Y387352*
X578692Y387040*
X578919Y386415*
Y385790*
X578692Y385165*
X578465Y384852*
X577783Y384540*
X575737D02*
X577783D01*
X578465Y384227*
X578692Y383915*
X578919Y383290*
Y382352*
X578692Y381727*
X578465Y381415*
X577783Y381102*
X575737*
X582328Y387665D02*
X581874Y387352D01*
X581419Y386727*
X581192Y386102*
X580965Y385165*
Y383602*
X581192Y382665*
X581419Y382040*
X581874Y381415*
X582328Y381102*
X583237*
X583692Y381415*
X584146Y382040*
X584374Y382665*
X584601Y383602*
Y385165*
X584374Y386102*
X584146Y386727*
X583692Y387352*
X583237Y387665*
X582328*
X588237D02*
Y381102D01*
X586646Y387665D02*
X589828D01*
X593465D02*
Y381102D01*
X591874Y387665D02*
X595055D01*
X598465D02*
X598010Y387352D01*
X597555Y386727*
X597328Y386102*
X597101Y385165*
Y383602*
X597328Y382665*
X597555Y382040*
X598010Y381415*
X598465Y381102*
X599374*
X599828Y381415*
X600283Y382040*
X600510Y382665*
X600737Y383602*
Y385165*
X600510Y386102*
X600283Y386727*
X599828Y387352*
X599374Y387665*
X598465*
X602783D02*
Y381102D01*
Y387665D02*
X604601Y381102D01*
X606419Y387665D02*
X604601Y381102D01*
X606419Y387665D02*
Y381102D01*
X616874Y386727D02*
X616419Y387352D01*
X615737Y387665*
X614828*
X614146Y387352*
X613692Y386727*
Y386102*
X613919Y385477*
X614146Y385165*
X614601Y384852*
X615965Y384227*
X616419Y383915*
X616646Y383602*
X616874Y382977*
Y382040*
X616419Y381415*
X615737Y381102*
X614828*
X614146Y381415*
X613692Y382040*
X618919Y387665D02*
Y381102D01*
X620965Y387665D02*
Y381102D01*
Y387665D02*
X622555D01*
X623237Y387352*
X623692Y386727*
X623919Y386102*
X624146Y385165*
Y383602*
X623919Y382665*
X623692Y382040*
X623237Y381415*
X622555Y381102*
X620965*
X626192Y387665D02*
Y381102D01*
Y387665D02*
X629146D01*
X626192Y384540D02*
X628010D01*
X626192Y381102D02*
X629146D01*
X406673Y392323D02*
G75*
G03X404902Y390551I0J-1772D01*
G01Y367717*
G03X406673Y365945I1771J-0*
G01X437205*
G03X438976Y367717I-0J1772*
G01Y377551*
G03X437205Y379323I-1771J0*
G01X434252*
X432087Y381488D02*
G03X434252Y379323I2165J0D01*
G01X432087Y381488D02*
Y390551D01*
G03X430315Y392323I-1772J0*
G01X406673*
X404902Y377282D02*
X438976D01*
X404902Y376928D02*
X438976D01*
X404902Y376573D02*
X438976D01*
X404902Y376219D02*
X438976D01*
X404902Y375865D02*
X438976D01*
X404902Y375510D02*
X438976D01*
X404902Y375156D02*
X438976D01*
X404902Y374802D02*
X438976D01*
X404902Y374448D02*
X438976D01*
X404902Y374093D02*
X438976D01*
X404902Y373739D02*
X438976D01*
X404902Y373385D02*
X438976D01*
X404902Y373030D02*
X438976D01*
X404902Y372676D02*
X438976D01*
X404902Y372322D02*
X438976D01*
X404902Y371967D02*
X438976D01*
X404902Y371613D02*
X438976D01*
X404902Y371259D02*
X438976D01*
X404902Y370904D02*
X438976D01*
X404902Y370550D02*
X438976D01*
X404902Y370196D02*
X438976D01*
X404902Y369841D02*
X438976D01*
X404902Y369487D02*
X438976D01*
X404902Y369133D02*
X438976D01*
X404902Y368778D02*
X438976D01*
X404902Y368424D02*
X438976D01*
X404902Y368070D02*
X438976D01*
X404902Y367715D02*
X438976D01*
X404902Y377636D02*
X438974D01*
X404938Y367361D02*
X438940D01*
X404902Y377991D02*
X438921D01*
X405050Y367007D02*
X438828D01*
X404902Y378345D02*
X438789D01*
X405257Y366652D02*
X438621D01*
X404902Y378699D02*
X438554D01*
X405612Y366298D02*
X438266D01*
X404902Y379054D02*
X438143D01*
X404902Y379408D02*
X433650D01*
X404902Y379762D02*
X432944D01*
X404902Y380117D02*
X432576D01*
X404902Y380471D02*
X432340D01*
X404902Y380825D02*
X432191D01*
X404902Y381180D02*
X432109D01*
X404902Y390392D02*
X432087D01*
X404902Y390038D02*
X432087D01*
X404902Y389684D02*
X432087D01*
X404902Y389329D02*
X432087D01*
X404902Y388975D02*
X432087D01*
X404902Y388621D02*
X432087D01*
X404902Y388266D02*
X432087D01*
X404902Y387912D02*
X432087D01*
X404902Y387558D02*
X432087D01*
X404902Y387203D02*
X432087D01*
X404902Y386849D02*
X432087D01*
X404902Y386495D02*
X432087D01*
X404902Y386140D02*
X432087D01*
X404902Y385786D02*
X432087D01*
X404902Y385432D02*
X432087D01*
X404902Y385077D02*
X432087D01*
X404902Y384723D02*
X432087D01*
X404902Y384369D02*
X432087D01*
X404902Y384014D02*
X432087D01*
X404902Y383660D02*
X432087D01*
X404902Y383306D02*
X432087D01*
X404902Y382951D02*
X432087D01*
X404902Y382597D02*
X432087D01*
X404902Y382243D02*
X432087D01*
X404902Y381888D02*
X432087D01*
X404902Y381534D02*
X432087D01*
X404912Y390747D02*
X432076D01*
X404989Y391101D02*
X431999D01*
X405150Y391455D02*
X431839D01*
X405426Y391810D02*
X431562D01*
X405940Y392164D02*
X431048D01*
G54D15*
X561024Y435655D02*
Y433071D01*
Y435655D02*
X559860D01*
X561024Y434424D02*
X560308D01*
X558429Y435655D02*
Y433071D01*
X559055Y435655D02*
X557802D01*
X556908Y435039D02*
Y435162D01*
X556818Y435408*
X556729Y435531*
X556550Y435655*
X556192*
X556013Y435531*
X555923Y435408*
X555834Y435162*
Y434916*
X555923Y434670*
X556102Y434301*
X556997Y433071*
X555744*
X554939Y434178D02*
X553329D01*
X552523Y435655D02*
Y433071D01*
X551450*
X550107Y435655D02*
X550376Y435531D01*
X550555Y435162*
X550644Y434547*
Y434178*
X550555Y433563*
X550376Y433194*
X550107Y433071*
X549928*
X549660Y433194*
X549481Y433563*
X549392Y434178*
Y434547*
X549481Y435162*
X549660Y435531*
X549928Y435655*
X550107*
X548586Y432579D02*
X546707D01*
X546170Y435162D02*
X545991Y435285D01*
X545723Y435655*
Y433071*
X544739Y435655D02*
X543754D01*
X544291Y434670*
X544023*
X543844Y434547*
X543754Y434424*
X543665Y434055*
Y433809*
X543754Y433440*
X543933Y433194*
X544202Y433071*
X544470*
X544739Y433194*
X544828Y433317*
X544918Y433563*
X542412Y435655D02*
X542681Y435531D01*
X542770Y435285*
Y435039*
X542681Y434793*
X542502Y434670*
X542144Y434547*
X541875Y434424*
X541696Y434178*
X541607Y433932*
Y433563*
X541696Y433317*
X541786Y433194*
X542054Y433071*
X542412*
X542681Y433194*
X542770Y433317*
X542860Y433563*
Y433932*
X542770Y434178*
X542591Y434424*
X542323Y434547*
X541965Y434670*
X541786Y434793*
X541696Y435039*
Y435285*
X541786Y435531*
X542054Y435655*
X542412*
X539639D02*
X540533D01*
X540623Y434547*
X540533Y434670*
X540265Y434793*
X539996*
X539728Y434670*
X539549Y434424*
X539460Y434055*
X539549Y433809*
X539639Y433440*
X539817Y433194*
X540086Y433071*
X540354*
X540623Y433194*
X540712Y433317*
X540802Y433563*
X538565Y435039D02*
Y435162D01*
X538475Y435408*
X538386Y435531*
X538207Y435655*
X537849*
X537670Y435531*
X537581Y435408*
X537491Y435162*
Y434916*
X537581Y434670*
X537759Y434301*
X538654Y433071*
X537402*
X536596Y432579D02*
X534717D01*
X534001Y435655D02*
X533017D01*
X533554Y434670*
X533286*
X533107Y434547*
X533017Y434424*
X532928Y434055*
Y433809*
X533017Y433440*
X533196Y433194*
X533465Y433071*
X533733*
X534001Y433194*
X534091Y433317*
X534180Y433563*
X532122Y432579D02*
X530243D01*
X529707Y435655D02*
Y433071D01*
Y435655D02*
X528901D01*
X528633Y435531*
X528543Y435408*
X528454Y435162*
Y434916*
X528543Y434670*
X528633Y434547*
X528901Y434424*
X529707D02*
X528901D01*
X528633Y434301*
X528543Y434178*
X528454Y433932*
Y433563*
X528543Y433317*
X528633Y433194*
X528901Y433071*
X529707*
X527649Y435655D02*
Y433071D01*
X526127Y435655D02*
X526843Y433071D01*
X526127Y435655D02*
X525412Y433071D01*
X526575Y433932D02*
X525680D01*
X524606Y435655D02*
Y433071D01*
Y435655D02*
X523980D01*
X523712Y435531*
X523533Y435285*
X523443Y435039*
X523354Y434670*
Y434055*
X523443Y433686*
X523533Y433440*
X523712Y433194*
X523980Y433071*
X524606*
X522548Y435655D02*
Y433071D01*
X521296Y435655D02*
Y433071D01*
X522548Y434424D02*
X521296D01*
X520490Y435655D02*
Y433071D01*
Y435655D02*
X519327D01*
X520490Y434424D02*
X519775D01*
X520490Y433071D02*
X519327D01*
X517269Y435285D02*
X517448Y435531D01*
X517717Y435655*
X518074*
X518343Y435531*
X518522Y435285*
Y435039*
X518432Y434793*
X518343Y434670*
X518164Y434547*
X517627Y434301*
X517448Y434178*
X517359Y434055*
X517269Y433809*
Y433440*
X517448Y433194*
X517717Y433071*
X518074*
X518343Y433194*
X518522Y433440*
X516464Y435655D02*
Y433071D01*
X515659Y435655D02*
X514943Y433071D01*
X514227Y435655D02*
X514943Y433071D01*
X513422Y435655D02*
Y433071D01*
Y435655D02*
X512258D01*
X513422Y434424D02*
X512706D01*
X513422Y433071D02*
X512258D01*
X511453Y432579D02*
X509574D01*
X509037Y435655D02*
Y433071D01*
X507785Y435655D02*
X509037Y433932D01*
X508590Y434547D02*
X507785Y433071D01*
X506979Y435655D02*
Y433071D01*
Y435655D02*
X505816D01*
X506979Y434424D02*
X506263D01*
X506979Y433071D02*
X505816D01*
X505011Y435655D02*
Y433071D01*
Y435655D02*
X503848D01*
X505011Y434424D02*
X504295D01*
X505011Y433071D02*
X503848D01*
X503042Y435655D02*
Y433071D01*
Y435655D02*
X502237D01*
X501969Y435531*
X501879Y435408*
X501790Y435162*
Y434793*
X501879Y434547*
X501969Y434424*
X502237Y434301*
X503042*
X500447Y435655D02*
X500626Y435531D01*
X500805Y435285*
X500895Y435039*
X500984Y434670*
Y434055*
X500895Y433686*
X500805Y433440*
X500626Y433194*
X500447Y433071*
X500089*
X499911Y433194*
X499732Y433440*
X499642Y433686*
X499553Y434055*
Y434670*
X499642Y435039*
X499732Y435285*
X499911Y435531*
X500089Y435655*
X500447*
X498747D02*
Y433809D01*
X498658Y433440*
X498479Y433194*
X498210Y433071*
X498031*
X497763Y433194*
X497584Y433440*
X497495Y433809*
Y435655*
X496063D02*
Y433071D01*
X496689Y435655D02*
X495437D01*
G54D105*
X457634Y405512D02*
G03X445823I-5906J-0D01*
G01X445028Y404546D02*
G03X445823Y405512I-190J966D01*
G01X444870Y404528D02*
G03X445028Y404546I0J684D01*
G01X444870Y404528D02*
X443053D01*
X442068Y405512D02*
G03X443053Y404528I985J-0D01*
G01X447056Y417647D02*
G03X442068Y405512I12267J-12135D01*
G01X447768Y418326D02*
G03X447056Y417647I-359J-336D01*
G01X459323Y422767D02*
G03X447768Y418326I0J-17255D01*
G01X459323Y422767D02*
Y437224D01*
G03X459026Y437933I-1005J-5*
X458323Y438208I-680J-703*
X436829Y429262I1000J-32696*
G01X436125Y428575D02*
G03X436829Y429262I349J346D01*
G01X436125Y428575D02*
G03X426612Y405512I23198J-23063D01*
G01X425628Y404528D02*
G03X426612Y405512I-0J984D01*
G01X425628Y404528D02*
X423425D01*
X422441Y405512D02*
G03X423425Y404528I984J-0D01*
G01X422521Y405907D02*
G03X422441Y405512I882J-384D01*
G01X422743Y406223D02*
G03X422521Y405907I710J-735D01*
G01X423056Y406433D02*
G03X422743Y406223I398J-932D01*
G01X423425Y406504D02*
G03X423056Y406433I-11J-938D01*
G01X423425Y406504D02*
X424409D01*
Y432202*
X424055Y432353D02*
G03X424409Y432202I349J325D01*
G01X423917Y432698D02*
G03X424055Y432353I474J-10D01*
G01X424063Y433050D02*
G03X423917Y432698I335J-345D01*
G01X424409Y433194D02*
G03X424063Y433050I-7J-472D01*
G01X424409Y433194D02*
Y469129D01*
G03X423425Y470114I-984J0*
G01X394685*
G03X393701Y469129I0J-985*
G01Y465488*
Y464503D02*
G03Y465488I-0J492D01*
G01Y464503D02*
Y433194D01*
X394055Y433042D02*
G03X393701Y433194I-349J-326D01*
G01X394193Y432698D02*
G03X394055Y433042I-475J9D01*
G01X394047Y432346D02*
G03X394193Y432698I-335J344D01*
G01X393701Y432202D02*
G03X394047Y432346I7J471D01*
G01X393701Y432202D02*
Y400098D01*
Y399114D02*
G03Y400098I-0J492D01*
G01Y399114D02*
Y398425D01*
G03X394685Y397441I984J0*
G01X397441*
X398425Y396457D02*
G03X397441Y397441I-984J-0D01*
G01X398425Y396457D02*
Y383184D01*
G03X399409Y382200I984J0*
G01X401575*
Y374326D02*
G03Y382200I-0J3937D01*
G01Y374326D02*
X395472D01*
G03X394488Y373342I0J-984*
G01Y363105*
G03X395472Y362121I984J0*
G01X408858*
G03X409843Y363105I0J984*
G01Y364680*
X410827Y365664D02*
G03X409843Y364680I-0J-984D01*
G01X410827Y365664D02*
X425197D01*
G03X427008Y366220I-132J3658*
G01X437795Y372441*
G03X438583Y373622I-629J1272*
G01Y383110*
G03X437795Y384134I-1282J-171*
G01X427000Y390336*
G03X426508Y390468I-492J-853*
G01X424016*
X420866Y393617D02*
G03X424016Y390468I3150J0D01*
G01X420866Y393617D02*
Y396457D01*
X422835D02*
G03X420866I-985J-0D01*
G01X422835D02*
Y395472D01*
G03X423819Y394488I984J0*
G01X434303*
X435287D02*
G03X434303I-492J0D01*
G01X435287D02*
X468169D01*
X469154D02*
G03X468169I-493J0D01*
G01X469154D02*
X476087D01*
G03X477072Y395472I0J984*
G01Y403543*
G03X476087Y404528I-985J0*
G01X458586*
X458429Y404546D02*
G03X458586Y404528I157J666D01*
G01X457634Y405512D02*
G03X458429Y404546I984J-0D01*
G74*
G01X0Y0D02*
M02*
