  0
SECTION
  2
HEADER
  9
$EXTMIN
 10
6.37818
 20
8.479998
 30
0.00
  9
$EXTMAX
 10
70.131104
 20
21.53
 30
0.00
  0
ENDSEC
  0
SECTION
  2
TABLES
  0
TABLE
  2
LTYPE
 70
3
  0
LTYPE
  2
BYBLOCK
 70
0
  3

 72
65
 73
0
 40
0.00
  0
LTYPE
  2
BYLAYER
 70
0
  3

 72
65
 73
0
 40
0.00
  0
LTYPE
  2
CONTINUOUS
 70
0
  3
Solid line
 72
65
 73
0
 40
0.00
  0
ENDTAB
  0
TABLE
  2
LAYER
 70
1
  0
LAYER
  2
0
 70
0
 62
7
  6
CONTINUOUS
  0
LAYER
  2
TOPLAYER
 70
0
 62
7
  6
CONTINUOUS
  0
ENDTAB
  0
TABLE
  2
STYLE
 70
0
  0
ENDTAB
  0
ENDSEC
  0
SECTION
  2
BLOCKS
  0
BLOCK
  2
ROUND_1
  3
ROUND_1
 70
64
 10
0.00
 20
0.00
 30
0.00
  0
CIRCLE
  8
0
 10
0.00
 20
0.00
 30
0.00
 40
0.10
  0
ENDBLK
  0
BLOCK
  2
ROUND_2
  3
ROUND_2
 70
64
 10
0.00
 20
0.00
 30
0.00
  0
CIRCLE
  8
0
 10
0.00
 20
0.00
 30
0.00
 40
0.50
  0
ENDBLK
  0
BLOCK
  2
ROUND_3
  3
ROUND_3
 70
64
 10
0.00
 20
0.00
 30
0.00
  0
CIRCLE
  8
0
 10
0.00
 20
0.00
 30
0.00
 40
0.95
  0
ENDBLK
  0
ENDSEC
  0
SECTION
  2
ENTITIES
  0
INSERT
  2
ROUND_1
  8
TOPLAYER
 10
65.0011
 20
15.0012
 30
0.00
 41
1.00
 42
1.00
 50
0.00
  0
INSERT
  2
ROUND_1
  8
TOPLAYER
 10
11.5011
 20
15.0012
 30
0.00
 41
1.00
 42
1.00
 50
0.00
  0
INSERT
  2
ROUND_3
  8
TOPLAYER
 10
65.0011
 20
15.0012
 30
0.00
 41
1.00
 42
1.00
 50
0.00
  0
INSERT
  2
ROUND_3
  8
TOPLAYER
 10
11.5011
 20
15.0012
 30
0.00
 41
1.00
 42
1.00
 50
0.00
  0
POLYLINE
  8
TOPLAYER
 66
1
 10
0.00
 20
0.00
 30
0.00
 40
0.20
 41
0.20
  0
VERTEX
  8
TOPLAYER
 10
9.215
 20
17.935
 30
0.00
  0
VERTEX
  8
TOPLAYER
 10
9.215
 20
17.815
 30
0.00
  0
VERTEX
  8
TOPLAYER
 10
9.335
 20
17.815
 30
0.00
  0
SEQEND
  0
POLYLINE
  8
TOPLAYER
 66
1
 10
0.00
 20
0.00
 30
0.00
 40
0.20
 41
0.20
  0
VERTEX
  8
TOPLAYER
 10
9.215
 20
17.935
 30
0.00
 42
0.1006644
  0
VERTEX
  8
TOPLAYER
 10
9.335
 20
17.815
 30
0.00
 42
0.00
  0
SEQEND
  0
POLYLINE
  8
TOPLAYER
 66
1
 10
0.00
 20
0.00
 30
0.00
 40
0.20
 41
0.20
  0
VERTEX
  8
TOPLAYER
 10
9.335
 20
20.295
 30
0.00
  0
VERTEX
  8
TOPLAYER
 10
9.215
 20
20.295
 30
0.00
  0
VERTEX
  8
TOPLAYER
 10
9.22
 20
20.18
 30
0.00
  0
SEQEND
  0
POLYLINE
  8
TOPLAYER
 66
1
 10
0.00
 20
0.00
 30
0.00
 40
0.20
 41
0.20
  0
VERTEX
  8
TOPLAYER
 10
9.335
 20
20.295
 30
0.00
 42
0.0965439
  0
VERTEX
  8
TOPLAYER
 10
9.218882
 20
20.180764
 30
0.00
 42
0.00
  0
SEQEND
  0
POLYLINE
  8
TOPLAYER
 66
1
 10
0.00
 20
0.00
 30
0.00
 40
0.20
 41
0.20
  0
VERTEX
  8
TOPLAYER
 10
11.795
 20
20.295
 30
0.00
  0
VERTEX
  8
TOPLAYER
 10
11.675
 20
20.295
 30
0.00
  0
SEQEND
  0
POLYLINE
  8
TOPLAYER
 66
1
 10
0.00
 20
0.00
 30
0.00
 40
0.20
 41
0.20
  0
VERTEX
  8
TOPLAYER
 10
11.795
 20
20.175
 30
0.00
 42
0.1006644
  0
VERTEX
  8
TOPLAYER
 10
11.675
 20
20.295
 30
0.00
 42
0.00
  0
SEQEND
  0
POLYLINE
  8
TOPLAYER
 66
1
 10
0.00
 20
0.00
 30
0.00
 40
0.20
 41
0.20
  0
VERTEX
  8
TOPLAYER
 10
11.795
 20
20.175
 30
0.00
  0
VERTEX
  8
TOPLAYER
 10
11.795
 20
20.295
 30
0.00
  0
SEQEND
  0
POLYLINE
  8
TOPLAYER
 66
1
 10
0.00
 20
0.00
 30
0.00
 40
0.20
 41
0.20
  0
VERTEX
  8
TOPLAYER
 10
11.68
 20
17.815
 30
0.00
 42
0.0916627
  0
VERTEX
  8
TOPLAYER
 10
11.794994
 20
17.925002
 30
0.00
 42
0.00
  0
SEQEND
  0
POLYLINE
  8
TOPLAYER
 66
1
 10
0.00
 20
0.00
 30
0.00
 40
0.20
 41
0.20
  0
VERTEX
  8
TOPLAYER
 10
11.68
 20
17.815
 30
0.00
  0
VERTEX
  8
TOPLAYER
 10
11.795
 20
17.815
 30
0.00
  0
VERTEX
  8
TOPLAYER
 10
11.795
 20
17.925
 30
0.00
  0
SEQEND
  0
POLYLINE
  8
TOPLAYER
 66
1
 10
0.00
 20
0.00
 30
0.00
 40
1.00
 41
1.00
  0
VERTEX
  8
TOPLAYER
 10
10.92
 20
18.17
 30
0.00
  0
VERTEX
  8
TOPLAYER
 10
10.92
 20
19.94
 30
0.00
  0
VERTEX
  8
TOPLAYER
 10
10.92
 20
19.62
 30
0.00
  0
VERTEX
  8
TOPLAYER
 10
10.08
 20
19.62
 30
0.00
  0
VERTEX
  8
TOPLAYER
 10
10.08
 20
19.94
 30
0.00
  0
VERTEX
  8
TOPLAYER
 10
10.08
 20
18.17
 30
0.00
  0
SEQEND
  0
POLYLINE
  8
TOPLAYER
 66
1
 10
0.00
 20
0.00
 30
0.00
 40
1.00
 41
1.00
  0
VERTEX
  8
TOPLAYER
 10
9.57
 20
19.94
 30
0.00
  0
VERTEX
  8
TOPLAYER
 10
11.44
 20
19.94
 30
0.00
  0
VERTEX
  8
TOPLAYER
 10
11.44
 20
18.17
 30
0.00
  0
VERTEX
  8
TOPLAYER
 10
9.57
 20
18.17
 30
0.00
  0
VERTEX
  8
TOPLAYER
 10
9.57
 20
19.94
 30
0.00
  0
SEQEND
  0
POLYLINE
  8
TOPLAYER
 66
1
 10
0.00
 20
0.00
 30
0.00
 40
0.20
 41
0.20
  0
VERTEX
  8
TOPLAYER
 10
9.215
 20
17.935
 30
0.00
  0
VERTEX
  8
TOPLAYER
 10
9.215
 20
17.815
 30
0.00
  0
VERTEX
  8
TOPLAYER
 10
9.335
 20
17.815
 30
0.00
  0
SEQEND
  0
POLYLINE
  8
TOPLAYER
 66
1
 10
0.00
 20
0.00
 30
0.00
 40
0.20
 41
0.20
  0
VERTEX
  8
TOPLAYER
 10
9.215
 20
17.935
 30
0.00
 42
0.1006644
  0
VERTEX
  8
TOPLAYER
 10
9.335
 20
17.815
 30
0.00
 42
0.00
  0
SEQEND
  0
POLYLINE
  8
TOPLAYER
 66
1
 10
0.00
 20
0.00
 30
0.00
 40
0.20
 41
0.20
  0
VERTEX
  8
TOPLAYER
 10
9.335
 20
20.295
 30
0.00
  0
VERTEX
  8
TOPLAYER
 10
9.215
 20
20.295
 30
0.00
  0
VERTEX
  8
TOPLAYER
 10
9.22
 20
20.18
 30
0.00
  0
SEQEND
  0
POLYLINE
  8
TOPLAYER
 66
1
 10
0.00
 20
0.00
 30
0.00
 40
0.20
 41
0.20
  0
VERTEX
  8
TOPLAYER
 10
9.335
 20
20.295
 30
0.00
 42
0.0965439
  0
VERTEX
  8
TOPLAYER
 10
9.218882
 20
20.180764
 30
0.00
 42
0.00
  0
SEQEND
  0
POLYLINE
  8
TOPLAYER
 66
1
 10
0.00
 20
0.00
 30
0.00
 40
0.20
 41
0.20
  0
VERTEX
  8
TOPLAYER
 10
11.795
 20
20.295
 30
0.00
  0
VERTEX
  8
TOPLAYER
 10
11.675
 20
20.295
 30
0.00
  0
SEQEND
  0
POLYLINE
  8
TOPLAYER
 66
1
 10
0.00
 20
0.00
 30
0.00
 40
0.20
 41
0.20
  0
VERTEX
  8
TOPLAYER
 10
11.795
 20
20.175
 30
0.00
 42
0.1006644
  0
VERTEX
  8
TOPLAYER
 10
11.675
 20
20.295
 30
0.00
 42
0.00
  0
SEQEND
  0
POLYLINE
  8
TOPLAYER
 66
1
 10
0.00
 20
0.00
 30
0.00
 40
0.20
 41
0.20
  0
VERTEX
  8
TOPLAYER
 10
11.795
 20
20.175
 30
0.00
  0
VERTEX
  8
TOPLAYER
 10
11.795
 20
20.295
 30
0.00
  0
SEQEND
  0
POLYLINE
  8
TOPLAYER
 66
1
 10
0.00
 20
0.00
 30
0.00
 40
0.20
 41
0.20
  0
VERTEX
  8
TOPLAYER
 10
11.68
 20
17.815
 30
0.00
 42
0.0916627
  0
VERTEX
  8
TOPLAYER
 10
11.794994
 20
17.925002
 30
0.00
 42
0.00
  0
SEQEND
  0
POLYLINE
  8
TOPLAYER
 66
1
 10
0.00
 20
0.00
 30
0.00
 40
0.20
 41
0.20
  0
VERTEX
  8
TOPLAYER
 10
11.68
 20
17.815
 30
0.00
  0
VERTEX
  8
TOPLAYER
 10
11.795
 20
17.815
 30
0.00
  0
VERTEX
  8
TOPLAYER
 10
11.795
 20
17.925
 30
0.00
  0
SEQEND
  0
POLYLINE
  8
TOPLAYER
 66
1
 10
0.00
 20
0.00
 30
0.00
 40
1.00
 41
1.00
  0
VERTEX
  8
TOPLAYER
 10
10.92
 20
18.17
 30
0.00
  0
VERTEX
  8
TOPLAYER
 10
10.92
 20
19.94
 30
0.00
  0
VERTEX
  8
TOPLAYER
 10
10.92
 20
19.62
 30
0.00
  0
VERTEX
  8
TOPLAYER
 10
10.08
 20
19.62
 30
0.00
  0
VERTEX
  8
TOPLAYER
 10
10.08
 20
19.94
 30
0.00
  0
VERTEX
  8
TOPLAYER
 10
10.08
 20
18.17
 30
0.00
  0
SEQEND
  0
POLYLINE
  8
TOPLAYER
 66
1
 10
0.00
 20
0.00
 30
0.00
 40
1.00
 41
1.00
  0
VERTEX
  8
TOPLAYER
 10
9.57
 20
19.94
 30
0.00
  0
VERTEX
  8
TOPLAYER
 10
11.44
 20
19.94
 30
0.00
  0
VERTEX
  8
TOPLAYER
 10
11.44
 20
18.17
 30
0.00
  0
VERTEX
  8
TOPLAYER
 10
9.57
 20
18.17
 30
0.00
  0
VERTEX
  8
TOPLAYER
 10
9.57
 20
19.94
 30
0.00
  0
SEQEND
  0
POLYLINE
  8
TOPLAYER
 66
1
 10
0.00
 20
0.00
 30
0.00
 40
0.20
 41
0.20
  0
VERTEX
  8
TOPLAYER
 10
11.88
 20
20.38
 30
0.00
  0
VERTEX
  8
TOPLAYER
 10
9.13
 20
20.38
 30
0.00
  0
VERTEX
  8
TOPLAYER
 10
9.13
 20
17.73
 30
0.00
  0
VERTEX
  8
TOPLAYER
 10
11.88
 20
17.73
 30
0.00
  0
VERTEX
  8
TOPLAYER
 10
11.88
 20
20.38
 30
0.00
  0
SEQEND
  0
POLYLINE
  8
TOPLAYER
 66
1
 10
0.00
 20
0.00
 30
0.00
 40
0.20
 41
0.20
  0
VERTEX
  8
TOPLAYER
 10
9.215
 20
17.935
 30
0.00
  0
VERTEX
  8
TOPLAYER
 10
9.215
 20
17.815
 30
0.00
  0
VERTEX
  8
TOPLAYER
 10
9.335
 20
17.815
 30
0.00
  0
SEQEND
  0
POLYLINE
  8
TOPLAYER
 66
1
 10
0.00
 20
0.00
 30
0.00
 40
0.20
 41
0.20
  0
VERTEX
  8
TOPLAYER
 10
9.215
 20
17.935
 30
0.00
 42
0.1006644
  0
VERTEX
  8
TOPLAYER
 10
9.335
 20
17.815
 30
0.00
 42
0.00
  0
SEQEND
  0
POLYLINE
  8
TOPLAYER
 66
1
 10
0.00
 20
0.00
 30
0.00
 40
0.20
 41
0.20
  0
VERTEX
  8
TOPLAYER
 10
9.335
 20
20.295
 30
0.00
  0
VERTEX
  8
TOPLAYER
 10
9.215
 20
20.295
 30
0.00
  0
VERTEX
  8
TOPLAYER
 10
9.22
 20
20.18
 30
0.00
  0
SEQEND
  0
POLYLINE
  8
TOPLAYER
 66
1
 10
0.00
 20
0.00
 30
0.00
 40
0.20
 41
0.20
  0
VERTEX
  8
TOPLAYER
 10
9.335
 20
20.295
 30
0.00
 42
0.0965439
  0
VERTEX
  8
TOPLAYER
 10
9.218882
 20
20.180764
 30
0.00
 42
0.00
  0
SEQEND
  0
POLYLINE
  8
TOPLAYER
 66
1
 10
0.00
 20
0.00
 30
0.00
 40
0.20
 41
0.20
  0
VERTEX
  8
TOPLAYER
 10
11.795
 20
20.295
 30
0.00
  0
VERTEX
  8
TOPLAYER
 10
11.675
 20
20.295
 30
0.00
  0
SEQEND
  0
POLYLINE
  8
TOPLAYER
 66
1
 10
0.00
 20
0.00
 30
0.00
 40
0.20
 41
0.20
  0
VERTEX
  8
TOPLAYER
 10
11.795
 20
20.175
 30
0.00
 42
0.1006644
  0
VERTEX
  8
TOPLAYER
 10
11.675
 20
20.295
 30
0.00
 42
0.00
  0
SEQEND
  0
POLYLINE
  8
TOPLAYER
 66
1
 10
0.00
 20
0.00
 30
0.00
 40
0.20
 41
0.20
  0
VERTEX
  8
TOPLAYER
 10
11.795
 20
20.175
 30
0.00
  0
VERTEX
  8
TOPLAYER
 10
11.795
 20
20.295
 30
0.00
  0
SEQEND
  0
POLYLINE
  8
TOPLAYER
 66
1
 10
0.00
 20
0.00
 30
0.00
 40
0.20
 41
0.20
  0
VERTEX
  8
TOPLAYER
 10
11.68
 20
17.815
 30
0.00
 42
0.0916627
  0
VERTEX
  8
TOPLAYER
 10
11.794994
 20
17.925002
 30
0.00
 42
0.00
  0
SEQEND
  0
POLYLINE
  8
TOPLAYER
 66
1
 10
0.00
 20
0.00
 30
0.00
 40
0.20
 41
0.20
  0
VERTEX
  8
TOPLAYER
 10
11.68
 20
17.815
 30
0.00
  0
VERTEX
  8
TOPLAYER
 10
11.795
 20
17.815
 30
0.00
  0
VERTEX
  8
TOPLAYER
 10
11.795
 20
17.925
 30
0.00
  0
SEQEND
  0
POLYLINE
  8
TOPLAYER
 66
1
 10
0.00
 20
0.00
 30
0.00
 40
1.00
 41
1.00
  0
VERTEX
  8
TOPLAYER
 10
10.92
 20
18.17
 30
0.00
  0
VERTEX
  8
TOPLAYER
 10
10.92
 20
19.94
 30
0.00
  0
VERTEX
  8
TOPLAYER
 10
10.92
 20
19.62
 30
0.00
  0
VERTEX
  8
TOPLAYER
 10
10.08
 20
19.62
 30
0.00
  0
VERTEX
  8
TOPLAYER
 10
10.08
 20
19.94
 30
0.00
  0
VERTEX
  8
TOPLAYER
 10
10.08
 20
18.17
 30
0.00
  0
SEQEND
  0
POLYLINE
  8
TOPLAYER
 66
1
 10
0.00
 20
0.00
 30
0.00
 40
1.00
 41
1.00
  0
VERTEX
  8
TOPLAYER
 10
9.57
 20
19.94
 30
0.00
  0
VERTEX
  8
TOPLAYER
 10
11.44
 20
19.94
 30
0.00
  0
VERTEX
  8
TOPLAYER
 10
11.44
 20
18.17
 30
0.00
  0
VERTEX
  8
TOPLAYER
 10
9.57
 20
18.17
 30
0.00
  0
VERTEX
  8
TOPLAYER
 10
9.57
 20
19.94
 30
0.00
  0
SEQEND
  0
POLYLINE
  8
TOPLAYER
 66
1
 10
0.00
 20
0.00
 30
0.00
 40
0.20
 41
0.20
  0
VERTEX
  8
TOPLAYER
 10
9.215
 20
17.935
 30
0.00
  0
VERTEX
  8
TOPLAYER
 10
9.215
 20
17.815
 30
0.00
  0
VERTEX
  8
TOPLAYER
 10
9.335
 20
17.815
 30
0.00
  0
SEQEND
  0
POLYLINE
  8
TOPLAYER
 66
1
 10
0.00
 20
0.00
 30
0.00
 40
0.20
 41
0.20
  0
VERTEX
  8
TOPLAYER
 10
9.215
 20
17.935
 30
0.00
 42
0.1006644
  0
VERTEX
  8
TOPLAYER
 10
9.335
 20
17.815
 30
0.00
 42
0.00
  0
SEQEND
  0
POLYLINE
  8
TOPLAYER
 66
1
 10
0.00
 20
0.00
 30
0.00
 40
0.20
 41
0.20
  0
VERTEX
  8
TOPLAYER
 10
9.335
 20
20.295
 30
0.00
  0
VERTEX
  8
TOPLAYER
 10
9.215
 20
20.295
 30
0.00
  0
VERTEX
  8
TOPLAYER
 10
9.22
 20
20.18
 30
0.00
  0
SEQEND
  0
POLYLINE
  8
TOPLAYER
 66
1
 10
0.00
 20
0.00
 30
0.00
 40
0.20
 41
0.20
  0
VERTEX
  8
TOPLAYER
 10
9.335
 20
20.295
 30
0.00
 42
0.0965439
  0
VERTEX
  8
TOPLAYER
 10
9.218882
 20
20.180764
 30
0.00
 42
0.00
  0
SEQEND
  0
POLYLINE
  8
TOPLAYER
 66
1
 10
0.00
 20
0.00
 30
0.00
 40
0.20
 41
0.20
  0
VERTEX
  8
TOPLAYER
 10
11.795
 20
20.295
 30
0.00
  0
VERTEX
  8
TOPLAYER
 10
11.675
 20
20.295
 30
0.00
  0
SEQEND
  0
POLYLINE
  8
TOPLAYER
 66
1
 10
0.00
 20
0.00
 30
0.00
 40
0.20
 41
0.20
  0
VERTEX
  8
TOPLAYER
 10
11.795
 20
20.175
 30
0.00
 42
0.1006644
  0
VERTEX
  8
TOPLAYER
 10
11.675
 20
20.295
 30
0.00
 42
0.00
  0
SEQEND
  0
POLYLINE
  8
TOPLAYER
 66
1
 10
0.00
 20
0.00
 30
0.00
 40
0.20
 41
0.20
  0
VERTEX
  8
TOPLAYER
 10
11.795
 20
20.175
 30
0.00
  0
VERTEX
  8
TOPLAYER
 10
11.795
 20
20.295
 30
0.00
  0
SEQEND
  0
POLYLINE
  8
TOPLAYER
 66
1
 10
0.00
 20
0.00
 30
0.00
 40
0.20
 41
0.20
  0
VERTEX
  8
TOPLAYER
 10
11.68
 20
17.815
 30
0.00
 42
0.0916627
  0
VERTEX
  8
TOPLAYER
 10
11.794994
 20
17.925002
 30
0.00
 42
0.00
  0
SEQEND
  0
POLYLINE
  8
TOPLAYER
 66
1
 10
0.00
 20
0.00
 30
0.00
 40
0.20
 41
0.20
  0
VERTEX
  8
TOPLAYER
 10
11.68
 20
17.815
 30
0.00
  0
VERTEX
  8
TOPLAYER
 10
11.795
 20
17.815
 30
0.00
  0
VERTEX
  8
TOPLAYER
 10
11.795
 20
17.925
 30
0.00
  0
SEQEND
  0
POLYLINE
  8
TOPLAYER
 66
1
 10
0.00
 20
0.00
 30
0.00
 40
1.00
 41
1.00
  0
VERTEX
  8
TOPLAYER
 10
10.92
 20
18.17
 30
0.00
  0
VERTEX
  8
TOPLAYER
 10
10.92
 20
19.94
 30
0.00
  0
VERTEX
  8
TOPLAYER
 10
10.92
 20
19.62
 30
0.00
  0
VERTEX
  8
TOPLAYER
 10
10.08
 20
19.62
 30
0.00
  0
VERTEX
  8
TOPLAYER
 10
10.08
 20
19.94
 30
0.00
  0
VERTEX
  8
TOPLAYER
 10
10.08
 20
18.17
 30
0.00
  0
SEQEND
  0
POLYLINE
  8
TOPLAYER
 66
1
 10
0.00
 20
0.00
 30
0.00
 40
1.00
 41
1.00
  0
VERTEX
  8
TOPLAYER
 10
9.57
 20
19.94
 30
0.00
  0
VERTEX
  8
TOPLAYER
 10
11.44
 20
19.94
 30
0.00
  0
VERTEX
  8
TOPLAYER
 10
11.44
 20
18.17
 30
0.00
  0
VERTEX
  8
TOPLAYER
 10
9.57
 20
18.17
 30
0.00
  0
VERTEX
  8
TOPLAYER
 10
9.57
 20
19.94
 30
0.00
  0
SEQEND
  0
POLYLINE
  8
TOPLAYER
 66
1
 10
0.00
 20
0.00
 30
0.00
 40
0.20
 41
0.20
  0
VERTEX
  8
TOPLAYER
 10
9.215
 20
17.935
 30
0.00
  0
VERTEX
  8
TOPLAYER
 10
9.215
 20
17.815
 30
0.00
  0
VERTEX
  8
TOPLAYER
 10
9.335
 20
17.815
 30
0.00
  0
SEQEND
  0
POLYLINE
  8
TOPLAYER
 66
1
 10
0.00
 20
0.00
 30
0.00
 40
0.20
 41
0.20
  0
VERTEX
  8
TOPLAYER
 10
9.215
 20
17.935
 30
0.00
 42
0.1006644
  0
VERTEX
  8
TOPLAYER
 10
9.335
 20
17.815
 30
0.00
 42
0.00
  0
SEQEND
  0
POLYLINE
  8
TOPLAYER
 66
1
 10
0.00
 20
0.00
 30
0.00
 40
0.20
 41
0.20
  0
VERTEX
  8
TOPLAYER
 10
9.335
 20
20.295
 30
0.00
  0
VERTEX
  8
TOPLAYER
 10
9.215
 20
20.295
 30
0.00
  0
VERTEX
  8
TOPLAYER
 10
9.22
 20
20.18
 30
0.00
  0
SEQEND
  0
POLYLINE
  8
TOPLAYER
 66
1
 10
0.00
 20
0.00
 30
0.00
 40
0.20
 41
0.20
  0
VERTEX
  8
TOPLAYER
 10
9.335
 20
20.295
 30
0.00
 42
0.0965439
  0
VERTEX
  8
TOPLAYER
 10
9.218882
 20
20.180764
 30
0.00
 42
0.00
  0
SEQEND
  0
POLYLINE
  8
TOPLAYER
 66
1
 10
0.00
 20
0.00
 30
0.00
 40
0.20
 41
0.20
  0
VERTEX
  8
TOPLAYER
 10
11.795
 20
20.295
 30
0.00
  0
VERTEX
  8
TOPLAYER
 10
11.675
 20
20.295
 30
0.00
  0
SEQEND
  0
POLYLINE
  8
TOPLAYER
 66
1
 10
0.00
 20
0.00
 30
0.00
 40
0.20
 41
0.20
  0
VERTEX
  8
TOPLAYER
 10
11.795
 20
20.175
 30
0.00
 42
0.1006644
  0
VERTEX
  8
TOPLAYER
 10
11.675
 20
20.295
 30
0.00
 42
0.00
  0
SEQEND
  0
POLYLINE
  8
TOPLAYER
 66
1
 10
0.00
 20
0.00
 30
0.00
 40
0.20
 41
0.20
  0
VERTEX
  8
TOPLAYER
 10
11.795
 20
20.175
 30
0.00
  0
VERTEX
  8
TOPLAYER
 10
11.795
 20
20.295
 30
0.00
  0
SEQEND
  0
POLYLINE
  8
TOPLAYER
 66
1
 10
0.00
 20
0.00
 30
0.00
 40
0.20
 41
0.20
  0
VERTEX
  8
TOPLAYER
 10
11.68
 20
17.815
 30
0.00
 42
0.0916627
  0
VERTEX
  8
TOPLAYER
 10
11.794994
 20
17.925002
 30
0.00
 42
0.00
  0
SEQEND
  0
POLYLINE
  8
TOPLAYER
 66
1
 10
0.00
 20
0.00
 30
0.00
 40
0.20
 41
0.20
  0
VERTEX
  8
TOPLAYER
 10
11.68
 20
17.815
 30
0.00
  0
VERTEX
  8
TOPLAYER
 10
11.795
 20
17.815
 30
0.00
  0
VERTEX
  8
TOPLAYER
 10
11.795
 20
17.925
 30
0.00
  0
SEQEND
  0
POLYLINE
  8
TOPLAYER
 66
1
 10
0.00
 20
0.00
 30
0.00
 40
1.00
 41
1.00
  0
VERTEX
  8
TOPLAYER
 10
10.92
 20
18.17
 30
0.00
  0
VERTEX
  8
TOPLAYER
 10
10.92
 20
19.94
 30
0.00
  0
VERTEX
  8
TOPLAYER
 10
10.92
 20
19.62
 30
0.00
  0
VERTEX
  8
TOPLAYER
 10
10.08
 20
19.62
 30
0.00
  0
VERTEX
  8
TOPLAYER
 10
10.08
 20
19.94
 30
0.00
  0
VERTEX
  8
TOPLAYER
 10
10.08
 20
18.17
 30
0.00
  0
SEQEND
  0
POLYLINE
  8
TOPLAYER
 66
1
 10
0.00
 20
0.00
 30
0.00
 40
1.00
 41
1.00
  0
VERTEX
  8
TOPLAYER
 10
9.57
 20
19.94
 30
0.00
  0
VERTEX
  8
TOPLAYER
 10
11.44
 20
19.94
 30
0.00
  0
VERTEX
  8
TOPLAYER
 10
11.44
 20
18.17
 30
0.00
  0
VERTEX
  8
TOPLAYER
 10
9.57
 20
18.17
 30
0.00
  0
VERTEX
  8
TOPLAYER
 10
9.57
 20
19.94
 30
0.00
  0
SEQEND
  0
POLYLINE
  8
TOPLAYER
 66
1
 10
0.00
 20
0.00
 30
0.00
 40
0.20
 41
0.20
  0
VERTEX
  8
TOPLAYER
 10
11.88
 20
20.38
 30
0.00
  0
VERTEX
  8
TOPLAYER
 10
9.13
 20
20.38
 30
0.00
  0
VERTEX
  8
TOPLAYER
 10
9.13
 20
17.73
 30
0.00
  0
VERTEX
  8
TOPLAYER
 10
11.88
 20
17.73
 30
0.00
  0
VERTEX
  8
TOPLAYER
 10
11.88
 20
20.38
 30
0.00
  0
SEQEND
  0
POLYLINE
  8
TOPLAYER
 66
1
 10
0.00
 20
0.00
 30
0.00
 40
0.20
 41
0.20
  0
VERTEX
  8
TOPLAYER
 10
9.215
 20
17.935
 30
0.00
  0
VERTEX
  8
TOPLAYER
 10
9.215
 20
17.815
 30
0.00
  0
VERTEX
  8
TOPLAYER
 10
9.335
 20
17.815
 30
0.00
  0
SEQEND
  0
POLYLINE
  8
TOPLAYER
 66
1
 10
0.00
 20
0.00
 30
0.00
 40
0.20
 41
0.20
  0
VERTEX
  8
TOPLAYER
 10
9.215
 20
17.935
 30
0.00
 42
0.1006644
  0
VERTEX
  8
TOPLAYER
 10
9.335
 20
17.815
 30
0.00
 42
0.00
  0
SEQEND
  0
POLYLINE
  8
TOPLAYER
 66
1
 10
0.00
 20
0.00
 30
0.00
 40
0.20
 41
0.20
  0
VERTEX
  8
TOPLAYER
 10
9.335
 20
20.295
 30
0.00
  0
VERTEX
  8
TOPLAYER
 10
9.215
 20
20.295
 30
0.00
  0
VERTEX
  8
TOPLAYER
 10
9.22
 20
20.18
 30
0.00
  0
SEQEND
  0
POLYLINE
  8
TOPLAYER
 66
1
 10
0.00
 20
0.00
 30
0.00
 40
0.20
 41
0.20
  0
VERTEX
  8
TOPLAYER
 10
9.335
 20
20.295
 30
0.00
 42
0.0965439
  0
VERTEX
  8
TOPLAYER
 10
9.218882
 20
20.180764
 30
0.00
 42
0.00
  0
SEQEND
  0
POLYLINE
  8
TOPLAYER
 66
1
 10
0.00
 20
0.00
 30
0.00
 40
0.20
 41
0.20
  0
VERTEX
  8
TOPLAYER
 10
11.795
 20
20.295
 30
0.00
  0
VERTEX
  8
TOPLAYER
 10
11.675
 20
20.295
 30
0.00
  0
SEQEND
  0
POLYLINE
  8
TOPLAYER
 66
1
 10
0.00
 20
0.00
 30
0.00
 40
0.20
 41
0.20
  0
VERTEX
  8
TOPLAYER
 10
11.795
 20
20.175
 30
0.00
 42
0.1006644
  0
VERTEX
  8
TOPLAYER
 10
11.675
 20
20.295
 30
0.00
 42
0.00
  0
SEQEND
  0
POLYLINE
  8
TOPLAYER
 66
1
 10
0.00
 20
0.00
 30
0.00
 40
0.20
 41
0.20
  0
VERTEX
  8
TOPLAYER
 10
11.795
 20
20.175
 30
0.00
  0
VERTEX
  8
TOPLAYER
 10
11.795
 20
20.295
 30
0.00
  0
SEQEND
  0
POLYLINE
  8
TOPLAYER
 66
1
 10
0.00
 20
0.00
 30
0.00
 40
0.20
 41
0.20
  0
VERTEX
  8
TOPLAYER
 10
11.68
 20
17.815
 30
0.00
 42
0.0916627
  0
VERTEX
  8
TOPLAYER
 10
11.794994
 20
17.925002
 30
0.00
 42
0.00
  0
SEQEND
  0
POLYLINE
  8
TOPLAYER
 66
1
 10
0.00
 20
0.00
 30
0.00
 40
0.20
 41
0.20
  0
VERTEX
  8
TOPLAYER
 10
11.68
 20
17.815
 30
0.00
  0
VERTEX
  8
TOPLAYER
 10
11.795
 20
17.815
 30
0.00
  0
VERTEX
  8
TOPLAYER
 10
11.795
 20
17.925
 30
0.00
  0
SEQEND
  0
POLYLINE
  8
TOPLAYER
 66
1
 10
0.00
 20
0.00
 30
0.00
 40
1.00
 41
1.00
  0
VERTEX
  8
TOPLAYER
 10
10.92
 20
18.17
 30
0.00
  0
VERTEX
  8
TOPLAYER
 10
10.92
 20
19.94
 30
0.00
  0
VERTEX
  8
TOPLAYER
 10
10.92
 20
19.62
 30
0.00
  0
VERTEX
  8
TOPLAYER
 10
10.08
 20
19.62
 30
0.00
  0
VERTEX
  8
TOPLAYER
 10
10.08
 20
19.94
 30
0.00
  0
VERTEX
  8
TOPLAYER
 10
10.08
 20
18.17
 30
0.00
  0
SEQEND
  0
POLYLINE
  8
TOPLAYER
 66
1
 10
0.00
 20
0.00
 30
0.00
 40
1.00
 41
1.00
  0
VERTEX
  8
TOPLAYER
 10
9.57
 20
19.94
 30
0.00
  0
VERTEX
  8
TOPLAYER
 10
11.44
 20
19.94
 30
0.00
  0
VERTEX
  8
TOPLAYER
 10
11.44
 20
18.17
 30
0.00
  0
VERTEX
  8
TOPLAYER
 10
9.57
 20
18.17
 30
0.00
  0
VERTEX
  8
TOPLAYER
 10
9.57
 20
19.94
 30
0.00
  0
SEQEND
  0
POLYLINE
  8
TOPLAYER
 66
1
 10
0.00
 20
0.00
 30
0.00
 40
0.20
 41
0.20
  0
VERTEX
  8
TOPLAYER
 10
62.495
 20
17.695
 30
0.00
  0
VERTEX
  8
TOPLAYER
 10
62.375
 20
17.695
 30
0.00
  0
SEQEND
  0
POLYLINE
  8
TOPLAYER
 66
1
 10
0.00
 20
0.00
 30
0.00
 40
0.20
 41
0.20
  0
VERTEX
  8
TOPLAYER
 10
62.495
 20
17.575
 30
0.00
 42
0.1006644
  0
VERTEX
  8
TOPLAYER
 10
62.375
 20
17.695
 30
0.00
 42
0.00
  0
SEQEND
  0
POLYLINE
  8
TOPLAYER
 66
1
 10
0.00
 20
0.00
 30
0.00
 40
0.20
 41
0.20
  0
VERTEX
  8
TOPLAYER
 10
62.495
 20
17.575
 30
0.00
  0
VERTEX
  8
TOPLAYER
 10
62.495
 20
17.695
 30
0.00
  0
SEQEND
  0
POLYLINE
  8
TOPLAYER
 66
1
 10
0.00
 20
0.00
 30
0.00
 40
0.20
 41
0.20
  0
VERTEX
  8
TOPLAYER
 10
62.58
 20
17.78
 30
0.00
  0
VERTEX
  8
TOPLAYER
 10
41.99
 20
17.78
 30
0.00
  0
VERTEX
  8
TOPLAYER
 10
41.955
 20
17.785
 30
0.00
  0
VERTEX
  8
TOPLAYER
 10
41.94
 20
17.79
 30
0.00
  0
SEQEND
  0
POLYLINE
  8
TOPLAYER
 66
1
 10
0.00
 20
0.00
 30
0.00
 40
0.20
 41
0.20
  0
VERTEX
  8
TOPLAYER
 10
41.78
 20
18.005
 30
0.00
 42
0.3305895
  0
VERTEX
  8
TOPLAYER
 10
41.94
 20
17.79
 30
0.00
 42
0.00
  0
SEQEND
  0
POLYLINE
  8
TOPLAYER
 66
1
 10
0.00
 20
0.00
 30
0.00
 40
0.20
 41
0.20
  0
VERTEX
  8
TOPLAYER
 10
41.78
 20
18.005
 30
0.00
  0
VERTEX
  8
TOPLAYER
 10
41.78
 20
20.78
 30
0.00
  0
VERTEX
  8
TOPLAYER
 10
34.73
 20
20.78
 30
0.00
  0
VERTEX
  8
TOPLAYER
 10
34.73
 20
18.005
 30
0.00
  0
SEQEND
  0
POLYLINE
  8
TOPLAYER
 66
1
 10
0.00
 20
0.00
 30
0.00
 40
0.20
 41
0.20
  0
VERTEX
  8
TOPLAYER
 10
34.505
 20
17.78
 30
0.00
 42
0.4142136
  0
VERTEX
  8
TOPLAYER
 10
34.73
 20
18.005
 30
0.00
 42
0.00
  0
SEQEND
  0
POLYLINE
  8
TOPLAYER
 66
1
 10
0.00
 20
0.00
 30
0.00
 40
0.20
 41
0.20
  0
VERTEX
  8
TOPLAYER
 10
34.505
 20
17.78
 30
0.00
  0
VERTEX
  8
TOPLAYER
 10
14.03
 20
17.78
 30
0.00
  0
VERTEX
  8
TOPLAYER
 10
14.03
 20
12.23
 30
0.00
  0
VERTEX
  8
TOPLAYER
 10
34.405
 20
12.23
 30
0.00
  0
SEQEND
  0
POLYLINE
  8
TOPLAYER
 66
1
 10
0.00
 20
0.00
 30
0.00
 40
0.20
 41
0.20
  0
VERTEX
  8
TOPLAYER
 10
34.63
 20
12.005
 30
0.00
 42
0.4142136
  0
VERTEX
  8
TOPLAYER
 10
34.405
 20
12.23
 30
0.00
 42
0.00
  0
SEQEND
  0
POLYLINE
  8
TOPLAYER
 66
1
 10
0.00
 20
0.00
 30
0.00
 40
0.20
 41
0.20
  0
VERTEX
  8
TOPLAYER
 10
34.63
 20
12.005
 30
0.00
  0
VERTEX
  8
TOPLAYER
 10
34.63
 20
9.23
 30
0.00
  0
VERTEX
  8
TOPLAYER
 10
41.78
 20
9.23
 30
0.00
  0
VERTEX
  8
TOPLAYER
 10
41.78
 20
12.005
 30
0.00
  0
SEQEND
  0
POLYLINE
  8
TOPLAYER
 66
1
 10
0.00
 20
0.00
 30
0.00
 40
0.20
 41
0.20
  0
VERTEX
  8
TOPLAYER
 10
42.005
 20
12.23
 30
0.00
 42
0.4142136
  0
VERTEX
  8
TOPLAYER
 10
41.78
 20
12.005
 30
0.00
 42
0.00
  0
SEQEND
  0
POLYLINE
  8
TOPLAYER
 66
1
 10
0.00
 20
0.00
 30
0.00
 40
0.20
 41
0.20
  0
VERTEX
  8
TOPLAYER
 10
42.005
 20
12.23
 30
0.00
  0
VERTEX
  8
TOPLAYER
 10
62.58
 20
12.23
 30
0.00
  0
VERTEX
  8
TOPLAYER
 10
62.58
 20
17.78
 30
0.00
  0
SEQEND
  0
POLYLINE
  8
TOPLAYER
 66
1
 10
0.00
 20
0.00
 30
0.00
 40
0.20
 41
0.20
  0
VERTEX
  8
TOPLAYER
 10
70.005
 20
21.43
 30
0.00
  0
VERTEX
  8
TOPLAYER
 10
6.505
 20
21.43
 30
0.00
  0
SEQEND
  0
POLYLINE
  8
TOPLAYER
 66
1
 10
0.00
 20
0.00
 30
0.00
 40
0.20
 41
0.20
  0
VERTEX
  8
TOPLAYER
 10
6.505
 20
21.43
 30
0.00
 42
0.236068
  0
VERTEX
  8
TOPLAYER
 10
6.485
 20
21.42
 30
0.00
 42
0.00
  0
SEQEND
  0
POLYLINE
  8
TOPLAYER
 66
1
 10
0.00
 20
0.00
 30
0.00
 40
0.20
 41
0.20
  0
VERTEX
  8
TOPLAYER
 10
6.485
 20
21.42
 30
0.00
  0
VERTEX
  8
TOPLAYER
 10
6.48
 20
21.415
 30
0.00
  0
SEQEND
  0
POLYLINE
  8
TOPLAYER
 66
1
 10
0.00
 20
0.00
 30
0.00
 40
0.20
 41
0.20
  0
VERTEX
  8
TOPLAYER
 10
6.48
 20
21.405
 30
0.00
 42
0.0249213
  0
VERTEX
  8
TOPLAYER
 10
6.479504
 20
21.41495
 30
0.00
 42
0.00
  0
SEQEND
  0
POLYLINE
  8
TOPLAYER
 66
1
 10
0.00
 20
0.00
 30
0.00
 40
0.20
 41
0.20
  0
VERTEX
  8
TOPLAYER
 10
6.48
 20
21.405
 30
0.00
  0
VERTEX
  8
TOPLAYER
 10
6.48
 20
8.67
 30
0.00
  0
SEQEND
  0
POLYLINE
  8
TOPLAYER
 66
1
 10
0.00
 20
0.00
 30
0.00
 40
0.20
 41
0.20
  0
VERTEX
  8
TOPLAYER
 10
6.48
 20
8.655
 30
0.00
 42
0.036876
  0
VERTEX
  8
TOPLAYER
 10
6.47818
 20
8.669636
 30
0.00
 42
0.00
  0
SEQEND
  0
POLYLINE
  8
TOPLAYER
 66
1
 10
0.00
 20
0.00
 30
0.00
 40
0.20
 41
0.20
  0
VERTEX
  8
TOPLAYER
 10
6.48
 20
8.655
 30
0.00
  0
VERTEX
  8
TOPLAYER
 10
6.48
 20
8.65
 30
0.00
  0
SEQEND
  0
POLYLINE
  8
TOPLAYER
 66
1
 10
0.00
 20
0.00
 30
0.00
 40
0.20
 41
0.20
  0
VERTEX
  8
TOPLAYER
 10
6.485
 20
8.625
 30
0.00
 42
0.0613202
  0
VERTEX
  8
TOPLAYER
 10
6.481866
 20
8.650466
 30
0.00
 42
0.00
  0
SEQEND
  0
POLYLINE
  8
TOPLAYER
 66
1
 10
0.00
 20
0.00
 30
0.00
 40
0.20
 41
0.20
  0
VERTEX
  8
TOPLAYER
 10
6.48
 20
8.61
 30
0.00
 42
0.0372397
  0
VERTEX
  8
TOPLAYER
 10
6.481118
 20
8.625
 30
0.00
 42
0.00
  0
SEQEND
  0
POLYLINE
  8
TOPLAYER
 66
1
 10
0.00
 20
0.00
 30
0.00
 40
0.20
 41
0.20
  0
VERTEX
  8
TOPLAYER
 10
6.48
 20
8.61
 30
0.00
 42
0.0965276
  0
VERTEX
  8
TOPLAYER
 10
6.48
 20
8.60
 30
0.00
 42
0.00
  0
SEQEND
  0
POLYLINE
  8
TOPLAYER
 66
1
 10
0.00
 20
0.00
 30
0.00
 40
0.20
 41
0.20
  0
VERTEX
  8
TOPLAYER
 10
6.48
 20
8.60
 30
0.00
  0
VERTEX
  8
TOPLAYER
 10
6.48
 20
8.595
 30
0.00
  0
VERTEX
  8
TOPLAYER
 10
6.49
 20
8.585
 30
0.00
  0
VERTEX
  8
TOPLAYER
 10
6.52
 20
8.58
 30
0.00
  0
VERTEX
  8
TOPLAYER
 10
69.99
 20
8.58
 30
0.00
  0
VERTEX
  8
TOPLAYER
 10
70.02
 20
8.585
 30
0.00
  0
SEQEND
  0
POLYLINE
  8
TOPLAYER
 66
1
 10
0.00
 20
0.00
 30
0.00
 40
0.20
 41
0.20
  0
VERTEX
  8
TOPLAYER
 10
70.02
 20
8.585
 30
0.00
 42
0.2330889
  0
VERTEX
  8
TOPLAYER
 10
70.03
 20
8.605
 30
0.00
 42
0.00
  0
SEQEND
  0
POLYLINE
  8
TOPLAYER
 66
1
 10
0.00
 20
0.00
 30
0.00
 40
0.20
 41
0.20
  0
VERTEX
  8
TOPLAYER
 10
70.03
 20
8.605
 30
0.00
  0
VERTEX
  8
TOPLAYER
 10
70.03
 20
21.405
 30
0.00
  0
SEQEND
  0
POLYLINE
  8
TOPLAYER
 66
1
 10
0.00
 20
0.00
 30
0.00
 40
0.20
 41
0.20
  0
VERTEX
  8
TOPLAYER
 10
70.025
 20
21.42
 30
0.00
 42
0.0389191
  0
VERTEX
  8
TOPLAYER
 10
70.029306
 20
21.404744
 30
0.00
 42
0.00
  0
SEQEND
  0
POLYLINE
  8
TOPLAYER
 66
1
 10
0.00
 20
0.00
 30
0.00
 40
0.20
 41
0.20
  0
VERTEX
  8
TOPLAYER
 10
70.025
 20
21.42
 30
0.00
  0
VERTEX
  8
TOPLAYER
 10
70.02
 20
21.425
 30
0.00
  0
SEQEND
  0
POLYLINE
  8
TOPLAYER
 66
1
 10
0.00
 20
0.00
 30
0.00
 40
0.20
 41
0.20
  0
VERTEX
  8
TOPLAYER
 10
70.02
 20
21.425
 30
0.00
 42
0.1587417
  0
VERTEX
  8
TOPLAYER
 10
70.005
 20
21.43
 30
0.00
 42
0.00
  0
SEQEND
  0
POLYLINE
  8
TOPLAYER
 66
1
 10
0.00
 20
0.00
 30
0.00
 40
0.20
 41
0.20
  0
VERTEX
  8
TOPLAYER
 10
69.945
 20
21.345
 30
0.00
  0
VERTEX
  8
TOPLAYER
 10
69.825
 20
21.345
 30
0.00
  0
SEQEND
  0
POLYLINE
  8
TOPLAYER
 66
1
 10
0.00
 20
0.00
 30
0.00
 40
0.20
 41
0.20
  0
VERTEX
  8
TOPLAYER
 10
69.945
 20
21.225
 30
0.00
 42
0.1006644
  0
VERTEX
  8
TOPLAYER
 10
69.825
 20
21.345
 30
0.00
 42
0.00
  0
SEQEND
  0
POLYLINE
  8
TOPLAYER
 66
1
 10
0.00
 20
0.00
 30
0.00
 40
0.20
 41
0.20
  0
VERTEX
  8
TOPLAYER
 10
69.945
 20
21.225
 30
0.00
  0
VERTEX
  8
TOPLAYER
 10
69.945
 20
21.345
 30
0.00
  0
SEQEND
  0
POLYLINE
  8
TOPLAYER
 66
1
 10
0.00
 20
0.00
 30
0.00
 40
0.20
 41
0.20
  0
VERTEX
  8
TOPLAYER
 10
67.38
 20
12.28
 30
0.00
  0
VERTEX
  8
TOPLAYER
 10
64.63
 20
12.28
 30
0.00
  0
VERTEX
  8
TOPLAYER
 10
64.63
 20
9.63
 30
0.00
  0
VERTEX
  8
TOPLAYER
 10
67.38
 20
9.63
 30
0.00
  0
VERTEX
  8
TOPLAYER
 10
67.38
 20
12.28
 30
0.00
  0
SEQEND
  0
POLYLINE
  8
TOPLAYER
 66
1
 10
0.00
 20
0.00
 30
0.00
 40
0.20
 41
0.20
  0
VERTEX
  8
TOPLAYER
 10
67.295
 20
12.195
 30
0.00
  0
VERTEX
  8
TOPLAYER
 10
67.175
 20
12.195
 30
0.00
  0
SEQEND
  0
POLYLINE
  8
TOPLAYER
 66
1
 10
0.00
 20
0.00
 30
0.00
 40
0.20
 41
0.20
  0
VERTEX
  8
TOPLAYER
 10
67.295
 20
12.075
 30
0.00
 42
0.1006644
  0
VERTEX
  8
TOPLAYER
 10
67.175
 20
12.195
 30
0.00
 42
0.00
  0
SEQEND
  0
POLYLINE
  8
TOPLAYER
 66
1
 10
0.00
 20
0.00
 30
0.00
 40
0.20
 41
0.20
  0
VERTEX
  8
TOPLAYER
 10
67.295
 20
12.075
 30
0.00
  0
VERTEX
  8
TOPLAYER
 10
67.295
 20
12.195
 30
0.00
  0
SEQEND
  0
POLYLINE
  8
TOPLAYER
 66
1
 10
0.00
 20
0.00
 30
0.00
 40
0.20
 41
0.20
  0
VERTEX
  8
TOPLAYER
 10
69.825
 20
8.665
 30
0.00
 42
0.0965523
  0
VERTEX
  8
TOPLAYER
 10
69.944994
 20
8.780002
 30
0.00
 42
0.00
  0
SEQEND
  0
POLYLINE
  8
TOPLAYER
 66
1
 10
0.00
 20
0.00
 30
0.00
 40
0.20
 41
0.20
  0
VERTEX
  8
TOPLAYER
 10
69.825
 20
8.665
 30
0.00
  0
VERTEX
  8
TOPLAYER
 10
69.945
 20
8.665
 30
0.00
  0
VERTEX
  8
TOPLAYER
 10
69.945
 20
8.78
 30
0.00
  0
SEQEND
  0
POLYLINE
  8
TOPLAYER
 66
1
 10
0.00
 20
0.00
 30
0.00
 40
0.20
 41
0.20
  0
VERTEX
  8
TOPLAYER
 10
67.18
 20
9.715
 30
0.00
 42
0.0916627
  0
VERTEX
  8
TOPLAYER
 10
67.294994
 20
9.825002
 30
0.00
 42
0.00
  0
SEQEND
  0
POLYLINE
  8
TOPLAYER
 66
1
 10
0.00
 20
0.00
 30
0.00
 40
0.20
 41
0.20
  0
VERTEX
  8
TOPLAYER
 10
67.18
 20
9.715
 30
0.00
  0
VERTEX
  8
TOPLAYER
 10
67.295
 20
9.715
 30
0.00
  0
VERTEX
  8
TOPLAYER
 10
67.295
 20
9.825
 30
0.00
  0
SEQEND
  0
POLYLINE
  8
TOPLAYER
 66
1
 10
0.00
 20
0.00
 30
0.00
 40
0.20
 41
0.20
  0
VERTEX
  8
TOPLAYER
 10
64.715
 20
9.835
 30
0.00
  0
VERTEX
  8
TOPLAYER
 10
64.715
 20
9.715
 30
0.00
  0
VERTEX
  8
TOPLAYER
 10
64.835
 20
9.715
 30
0.00
  0
SEQEND
  0
POLYLINE
  8
TOPLAYER
 66
1
 10
0.00
 20
0.00
 30
0.00
 40
0.20
 41
0.20
  0
VERTEX
  8
TOPLAYER
 10
64.715
 20
9.835
 30
0.00
 42
0.1006644
  0
VERTEX
  8
TOPLAYER
 10
64.835
 20
9.715
 30
0.00
 42
0.00
  0
SEQEND
  0
POLYLINE
  8
TOPLAYER
 66
1
 10
0.00
 20
0.00
 30
0.00
 40
0.20
 41
0.20
  0
VERTEX
  8
TOPLAYER
 10
64.835
 20
12.195
 30
0.00
  0
VERTEX
  8
TOPLAYER
 10
64.715
 20
12.195
 30
0.00
  0
VERTEX
  8
TOPLAYER
 10
64.72
 20
12.08
 30
0.00
  0
SEQEND
  0
POLYLINE
  8
TOPLAYER
 66
1
 10
0.00
 20
0.00
 30
0.00
 40
0.20
 41
0.20
  0
VERTEX
  8
TOPLAYER
 10
64.835
 20
12.195
 30
0.00
 42
0.0965439
  0
VERTEX
  8
TOPLAYER
 10
64.718882
 20
12.080764
 30
0.00
 42
0.00
  0
SEQEND
  0
POLYLINE
  8
TOPLAYER
 66
1
 10
0.00
 20
0.00
 30
0.00
 40
0.20
 41
0.20
  0
VERTEX
  8
TOPLAYER
 10
62.375
 20
12.315
 30
0.00
 42
0.0965523
  0
VERTEX
  8
TOPLAYER
 10
62.494994
 20
12.430002
 30
0.00
 42
0.00
  0
SEQEND
  0
POLYLINE
  8
TOPLAYER
 66
1
 10
0.00
 20
0.00
 30
0.00
 40
0.20
 41
0.20
  0
VERTEX
  8
TOPLAYER
 10
62.375
 20
12.315
 30
0.00
  0
VERTEX
  8
TOPLAYER
 10
62.495
 20
12.315
 30
0.00
  0
VERTEX
  8
TOPLAYER
 10
62.495
 20
12.43
 30
0.00
  0
SEQEND
  0
POLYLINE
  8
TOPLAYER
 66
1
 10
0.00
 20
0.00
 30
0.00
 40
0.20
 41
0.20
  0
VERTEX
  8
TOPLAYER
 10
42.435
 20
11.695
 30
0.00
  0
VERTEX
  8
TOPLAYER
 10
42.315
 20
11.695
 30
0.00
  0
VERTEX
  8
TOPLAYER
 10
42.32
 20
11.58
 30
0.00
  0
SEQEND
  0
POLYLINE
  8
TOPLAYER
 66
1
 10
0.00
 20
0.00
 30
0.00
 40
0.20
 41
0.20
  0
VERTEX
  8
TOPLAYER
 10
42.435
 20
11.695
 30
0.00
 42
0.0965439
  0
VERTEX
  8
TOPLAYER
 10
42.318882
 20
11.580764
 30
0.00
 42
0.00
  0
SEQEND
  0
POLYLINE
  8
TOPLAYER
 66
1
 10
0.00
 20
0.00
 30
0.00
 40
0.20
 41
0.20
  0
VERTEX
  8
TOPLAYER
 10
42.12
 20
8.715
 30
0.00
 42
0.1723253
  0
VERTEX
  8
TOPLAYER
 10
42.279976
 20
8.855012
 30
0.00
 42
0.00
  0
SEQEND
  0
POLYLINE
  8
TOPLAYER
 66
1
 10
0.00
 20
0.00
 30
0.00
 40
0.20
 41
0.20
  0
VERTEX
  8
TOPLAYER
 10
42.12
 20
8.715
 30
0.00
  0
VERTEX
  8
TOPLAYER
 10
42.105
 20
8.71
 30
0.00
  0
SEQEND
  0
POLYLINE
  8
TOPLAYER
 66
1
 10
0.00
 20
0.00
 30
0.00
 40
0.20
 41
0.20
  0
VERTEX
  8
TOPLAYER
 10
42.065
 20
8.70
 30
0.00
 42
0.0553851
  0
VERTEX
  8
TOPLAYER
 10
42.105
 20
8.71
 30
0.00
 42
0.00
  0
SEQEND
  0
POLYLINE
  8
TOPLAYER
 66
1
 10
0.00
 20
0.00
 30
0.00
 40
0.20
 41
0.20
  0
VERTEX
  8
TOPLAYER
 10
42.065
 20
8.70
 30
0.00
  0
VERTEX
  8
TOPLAYER
 10
42.03
 20
8.695
 30
0.00
  0
VERTEX
  8
TOPLAYER
 10
34.405
 20
8.695
 30
0.00
  0
SEQEND
  0
POLYLINE
  8
TOPLAYER
 66
1
 10
0.00
 20
0.00
 30
0.00
 40
0.20
 41
0.20
  0
VERTEX
  8
TOPLAYER
 10
34.13
 20
8.85
 30
0.00
 42
0.2685752
  0
VERTEX
  8
TOPLAYER
 10
34.405
 20
8.694968
 30
0.00
 42
0.00
  0
SEQEND
  0
POLYLINE
  8
TOPLAYER
 66
1
 10
0.00
 20
0.00
 30
0.00
 40
0.20
 41
0.20
  0
VERTEX
  8
TOPLAYER
 10
33.98
 20
8.665
 30
0.00
 42
0.1422611
  0
VERTEX
  8
TOPLAYER
 10
34.132816
 20
8.84877
 30
0.00
 42
0.00
  0
SEQEND
  0
POLYLINE
  8
TOPLAYER
 66
1
 10
0.00
 20
0.00
 30
0.00
 40
0.20
 41
0.20
  0
VERTEX
  8
TOPLAYER
 10
33.98
 20
8.665
 30
0.00
  0
VERTEX
  8
TOPLAYER
 10
42.435
 20
8.665
 30
0.00
  0
SEQEND
  0
POLYLINE
  8
TOPLAYER
 66
1
 10
0.00
 20
0.00
 30
0.00
 40
0.20
 41
0.20
  0
VERTEX
  8
TOPLAYER
 10
42.28
 20
8.855
 30
0.00
 42
0.1475081
  0
VERTEX
  8
TOPLAYER
 10
42.43625
 20
8.66689
 30
0.00
 42
0.00
  0
SEQEND
  0
POLYLINE
  8
TOPLAYER
 66
1
 10
0.00
 20
0.00
 30
0.00
 40
0.20
 41
0.20
  0
VERTEX
  8
TOPLAYER
 10
41.575
 20
9.315
 30
0.00
 42
0.0965523
  0
VERTEX
  8
TOPLAYER
 10
41.694994
 20
9.430002
 30
0.00
 42
0.00
  0
SEQEND
  0
POLYLINE
  8
TOPLAYER
 66
1
 10
0.00
 20
0.00
 30
0.00
 40
0.20
 41
0.20
  0
VERTEX
  8
TOPLAYER
 10
41.575
 20
9.315
 30
0.00
  0
VERTEX
  8
TOPLAYER
 10
41.695
 20
9.315
 30
0.00
  0
VERTEX
  8
TOPLAYER
 10
41.695
 20
9.43
 30
0.00
  0
SEQEND
  0
POLYLINE
  8
TOPLAYER
 66
1
 10
0.00
 20
0.00
 30
0.00
 40
0.20
 41
0.20
  0
VERTEX
  8
TOPLAYER
 10
34.715
 20
9.435
 30
0.00
  0
VERTEX
  8
TOPLAYER
 10
34.715
 20
9.315
 30
0.00
  0
VERTEX
  8
TOPLAYER
 10
34.835
 20
9.315
 30
0.00
  0
SEQEND
  0
POLYLINE
  8
TOPLAYER
 66
1
 10
0.00
 20
0.00
 30
0.00
 40
0.20
 41
0.20
  0
VERTEX
  8
TOPLAYER
 10
34.715
 20
9.435
 30
0.00
 42
0.1006644
  0
VERTEX
  8
TOPLAYER
 10
34.835
 20
9.315
 30
0.00
 42
0.00
  0
SEQEND
  0
POLYLINE
  8
TOPLAYER
 66
1
 10
0.00
 20
0.00
 30
0.00
 40
0.20
 41
0.20
  0
VERTEX
  8
TOPLAYER
 10
34.095
 20
11.695
 30
0.00
  0
VERTEX
  8
TOPLAYER
 10
33.975
 20
11.695
 30
0.00
  0
SEQEND
  0
POLYLINE
  8
TOPLAYER
 66
1
 10
0.00
 20
0.00
 30
0.00
 40
0.20
 41
0.20
  0
VERTEX
  8
TOPLAYER
 10
34.095
 20
11.575
 30
0.00
 42
0.1006644
  0
VERTEX
  8
TOPLAYER
 10
33.975
 20
11.695
 30
0.00
 42
0.00
  0
SEQEND
  0
POLYLINE
  8
TOPLAYER
 66
1
 10
0.00
 20
0.00
 30
0.00
 40
0.20
 41
0.20
  0
VERTEX
  8
TOPLAYER
 10
34.095
 20
11.575
 30
0.00
  0
VERTEX
  8
TOPLAYER
 10
34.095
 20
11.695
 30
0.00
  0
SEQEND
  0
POLYLINE
  8
TOPLAYER
 66
1
 10
0.00
 20
0.00
 30
0.00
 40
0.20
 41
0.20
  0
VERTEX
  8
TOPLAYER
 10
14.115
 20
12.435
 30
0.00
  0
VERTEX
  8
TOPLAYER
 10
14.115
 20
12.315
 30
0.00
  0
VERTEX
  8
TOPLAYER
 10
14.235
 20
12.315
 30
0.00
  0
SEQEND
  0
POLYLINE
  8
TOPLAYER
 66
1
 10
0.00
 20
0.00
 30
0.00
 40
0.20
 41
0.20
  0
VERTEX
  8
TOPLAYER
 10
14.115
 20
12.435
 30
0.00
 42
0.1006644
  0
VERTEX
  8
TOPLAYER
 10
14.235
 20
12.315
 30
0.00
 42
0.00
  0
SEQEND
  0
POLYLINE
  8
TOPLAYER
 66
1
 10
0.00
 20
0.00
 30
0.00
 40
0.20
 41
0.20
  0
VERTEX
  8
TOPLAYER
 10
6.565
 20
8.785
 30
0.00
  0
VERTEX
  8
TOPLAYER
 10
6.565
 20
8.665
 30
0.00
  0
VERTEX
  8
TOPLAYER
 10
6.685
 20
8.665
 30
0.00
  0
SEQEND
  0
POLYLINE
  8
TOPLAYER
 66
1
 10
0.00
 20
0.00
 30
0.00
 40
0.20
 41
0.20
  0
VERTEX
  8
TOPLAYER
 10
6.565
 20
8.785
 30
0.00
 42
0.1006644
  0
VERTEX
  8
TOPLAYER
 10
6.685
 20
8.665
 30
0.00
 42
0.00
  0
SEQEND
  0
POLYLINE
  8
TOPLAYER
 66
1
 10
0.00
 20
0.00
 30
0.00
 40
0.20
 41
0.20
  0
VERTEX
  8
TOPLAYER
 10
6.685
 20
21.345
 30
0.00
  0
VERTEX
  8
TOPLAYER
 10
6.565
 20
21.345
 30
0.00
  0
VERTEX
  8
TOPLAYER
 10
6.57
 20
21.23
 30
0.00
  0
SEQEND
  0
POLYLINE
  8
TOPLAYER
 66
1
 10
0.00
 20
0.00
 30
0.00
 40
0.20
 41
0.20
  0
VERTEX
  8
TOPLAYER
 10
6.685
 20
21.345
 30
0.00
 42
0.0965439
  0
VERTEX
  8
TOPLAYER
 10
6.568882
 20
21.230764
 30
0.00
 42
0.00
  0
SEQEND
  0
POLYLINE
  8
TOPLAYER
 66
1
 10
0.00
 20
0.00
 30
0.00
 40
0.20
 41
0.20
  0
VERTEX
  8
TOPLAYER
 10
14.235
 20
17.695
 30
0.00
  0
VERTEX
  8
TOPLAYER
 10
14.115
 20
17.695
 30
0.00
  0
VERTEX
  8
TOPLAYER
 10
14.12
 20
17.58
 30
0.00
  0
SEQEND
  0
POLYLINE
  8
TOPLAYER
 66
1
 10
0.00
 20
0.00
 30
0.00
 40
0.20
 41
0.20
  0
VERTEX
  8
TOPLAYER
 10
14.235
 20
17.695
 30
0.00
 42
0.0965439
  0
VERTEX
  8
TOPLAYER
 10
14.118882
 20
17.580764
 30
0.00
 42
0.00
  0
SEQEND
  0
POLYLINE
  8
TOPLAYER
 66
1
 10
0.00
 20
0.00
 30
0.00
 40
0.20
 41
0.20
  0
VERTEX
  8
TOPLAYER
 10
34.075
 20
18.315
 30
0.00
 42
0.0965523
  0
VERTEX
  8
TOPLAYER
 10
34.194994
 20
18.430002
 30
0.00
 42
0.00
  0
SEQEND
  0
POLYLINE
  8
TOPLAYER
 66
1
 10
0.00
 20
0.00
 30
0.00
 40
0.20
 41
0.20
  0
VERTEX
  8
TOPLAYER
 10
34.075
 20
18.315
 30
0.00
  0
VERTEX
  8
TOPLAYER
 10
34.195
 20
18.315
 30
0.00
  0
VERTEX
  8
TOPLAYER
 10
34.195
 20
18.43
 30
0.00
  0
SEQEND
  0
POLYLINE
  8
TOPLAYER
 66
1
 10
0.00
 20
0.00
 30
0.00
 40
0.20
 41
0.20
  0
VERTEX
  8
TOPLAYER
 10
34.935
 20
20.695
 30
0.00
  0
VERTEX
  8
TOPLAYER
 10
34.815
 20
20.695
 30
0.00
  0
VERTEX
  8
TOPLAYER
 10
34.82
 20
20.58
 30
0.00
  0
SEQEND
  0
POLYLINE
  8
TOPLAYER
 66
1
 10
0.00
 20
0.00
 30
0.00
 40
0.20
 41
0.20
  0
VERTEX
  8
TOPLAYER
 10
34.935
 20
20.695
 30
0.00
 42
0.0965439
  0
VERTEX
  8
TOPLAYER
 10
34.818882
 20
20.580764
 30
0.00
 42
0.00
  0
SEQEND
  0
POLYLINE
  8
TOPLAYER
 66
1
 10
0.00
 20
0.00
 30
0.00
 40
0.20
 41
0.20
  0
VERTEX
  8
TOPLAYER
 10
41.695
 20
20.695
 30
0.00
  0
VERTEX
  8
TOPLAYER
 10
41.575
 20
20.695
 30
0.00
  0
SEQEND
  0
POLYLINE
  8
TOPLAYER
 66
1
 10
0.00
 20
0.00
 30
0.00
 40
0.20
 41
0.20
  0
VERTEX
  8
TOPLAYER
 10
41.695
 20
20.575
 30
0.00
 42
0.1006644
  0
VERTEX
  8
TOPLAYER
 10
41.575
 20
20.695
 30
0.00
 42
0.00
  0
SEQEND
  0
POLYLINE
  8
TOPLAYER
 66
1
 10
0.00
 20
0.00
 30
0.00
 40
0.20
 41
0.20
  0
VERTEX
  8
TOPLAYER
 10
41.695
 20
20.575
 30
0.00
  0
VERTEX
  8
TOPLAYER
 10
41.695
 20
20.695
 30
0.00
  0
SEQEND
  0
POLYLINE
  8
TOPLAYER
 66
1
 10
0.00
 20
0.00
 30
0.00
 40
0.20
 41
0.20
  0
VERTEX
  8
TOPLAYER
 10
42.435
 20
21.345
 30
0.00
  0
VERTEX
  8
TOPLAYER
 10
34.075
 20
21.345
 30
0.00
  0
SEQEND
  0
POLYLINE
  8
TOPLAYER
 66
1
 10
0.00
 20
0.00
 30
0.00
 40
0.20
 41
0.20
  0
VERTEX
  8
TOPLAYER
 10
34.235
 20
21.155
 30
0.00
 42
0.147504
  0
VERTEX
  8
TOPLAYER
 10
34.07499
 20
21.344984
 30
0.00
 42
0.00
  0
SEQEND
  0
POLYLINE
  8
TOPLAYER
 66
1
 10
0.00
 20
0.00
 30
0.00
 40
0.20
 41
0.20
  0
VERTEX
  8
TOPLAYER
 10
34.505
 20
21.315
 30
0.00
 42
0.2723777
  0
VERTEX
  8
TOPLAYER
 10
34.235
 20
21.155
 30
0.00
 42
0.00
  0
SEQEND
  0
POLYLINE
  8
TOPLAYER
 66
1
 10
0.00
 20
0.00
 30
0.00
 40
0.20
 41
0.20
  0
VERTEX
  8
TOPLAYER
 10
34.505
 20
21.315
 30
0.00
  0
VERTEX
  8
TOPLAYER
 10
42.005
 20
21.315
 30
0.00
  0
SEQEND
  0
POLYLINE
  8
TOPLAYER
 66
1
 10
0.00
 20
0.00
 30
0.00
 40
0.20
 41
0.20
  0
VERTEX
  8
TOPLAYER
 10
42.28
 20
21.155
 30
0.00
 42
0.2723474
  0
VERTEX
  8
TOPLAYER
 10
42.004998
 20
21.315024
 30
0.00
 42
0.00
  0
SEQEND
  0
POLYLINE
  8
TOPLAYER
 66
1
 10
0.00
 20
0.00
 30
0.00
 40
0.20
 41
0.20
  0
VERTEX
  8
TOPLAYER
 10
42.435
 20
21.345
 30
0.00
 42
0.1475099
  0
VERTEX
  8
TOPLAYER
 10
42.27791
 20
21.155882
 30
0.00
 42
0.00
  0
SEQEND
  0
POLYLINE
  8
TOPLAYER
 66
1
 10
0.00
 20
0.00
 30
0.00
 40
0.20
 41
0.20
  0
VERTEX
  8
TOPLAYER
 10
42.315
 20
18.435
 30
0.00
  0
VERTEX
  8
TOPLAYER
 10
42.315
 20
18.315
 30
0.00
  0
VERTEX
  8
TOPLAYER
 10
42.435
 20
18.315
 30
0.00
  0
SEQEND
  0
POLYLINE
  8
TOPLAYER
 66
1
 10
0.00
 20
0.00
 30
0.00
 40
0.20
 41
0.20
  0
VERTEX
  8
TOPLAYER
 10
42.315
 20
18.435
 30
0.00
 42
0.1006644
  0
VERTEX
  8
TOPLAYER
 10
42.435
 20
18.315
 30
0.00
 42
0.00
  0
SEQEND
  0
POLYLINE
  8
TOPLAYER
 66
1
 10
0.00
 20
0.00
 30
0.00
 40
1.00
 41
1.00
  0
VERTEX
  8
TOPLAYER
 10
65.07
 20
11.84
 30
0.00
  0
VERTEX
  8
TOPLAYER
 10
66.94
 20
11.84
 30
0.00
  0
VERTEX
  8
TOPLAYER
 10
66.94
 20
10.07
 30
0.00
  0
VERTEX
  8
TOPLAYER
 10
65.07
 20
10.07
 30
0.00
  0
VERTEX
  8
TOPLAYER
 10
65.07
 20
11.84
 30
0.00
  0
SEQEND
  0
POLYLINE
  8
TOPLAYER
 66
1
 10
0.00
 20
0.00
 30
0.00
 40
1.00
 41
1.00
  0
VERTEX
  8
TOPLAYER
 10
66.36
 20
10.07
 30
0.00
  0
VERTEX
  8
TOPLAYER
 10
66.36
 20
11.84
 30
0.00
  0
VERTEX
  8
TOPLAYER
 10
66.36
 20
11.52
 30
0.00
  0
VERTEX
  8
TOPLAYER
 10
65.52
 20
11.52
 30
0.00
  0
VERTEX
  8
TOPLAYER
 10
65.52
 20
11.84
 30
0.00
  0
VERTEX
  8
TOPLAYER
 10
65.52
 20
10.07
 30
0.00
  0
SEQEND
  0
POLYLINE
  8
TOPLAYER
 66
1
 10
0.00
 20
0.00
 30
0.00
 40
1.00
 41
1.00
  0
VERTEX
  8
TOPLAYER
 10
61.32
 20
12.67
 30
0.00
  0
VERTEX
  8
TOPLAYER
 10
61.32
 20
17.34
 30
0.00
  0
VERTEX
  8
TOPLAYER
 10
61.32
 20
17.02
 30
0.00
  0
VERTEX
  8
TOPLAYER
 10
60.48
 20
17.02
 30
0.00
  0
VERTEX
  8
TOPLAYER
 10
60.48
 20
17.34
 30
0.00
  0
VERTEX
  8
TOPLAYER
 10
60.48
 20
12.67
 30
0.00
  0
VERTEX
  8
TOPLAYER
 10
60.48
 20
12.99
 30
0.00
  0
VERTEX
  8
TOPLAYER
 10
59.64
 20
12.99
 30
0.00
  0
VERTEX
  8
TOPLAYER
 10
59.64
 20
12.67
 30
0.00
  0
VERTEX
  8
TOPLAYER
 10
59.64
 20
17.34
 30
0.00
  0
VERTEX
  8
TOPLAYER
 10
59.64
 20
17.02
 30
0.00
  0
VERTEX
  8
TOPLAYER
 10
58.80
 20
17.02
 30
0.00
  0
VERTEX
  8
TOPLAYER
 10
58.80
 20
17.34
 30
0.00
  0
VERTEX
  8
TOPLAYER
 10
58.80
 20
12.67
 30
0.00
  0
VERTEX
  8
TOPLAYER
 10
58.80
 20
12.99
 30
0.00
  0
VERTEX
  8
TOPLAYER
 10
57.96
 20
12.99
 30
0.00
  0
VERTEX
  8
TOPLAYER
 10
57.96
 20
12.67
 30
0.00
  0
VERTEX
  8
TOPLAYER
 10
57.96
 20
17.34
 30
0.00
  0
VERTEX
  8
TOPLAYER
 10
57.96
 20
17.02
 30
0.00
  0
VERTEX
  8
TOPLAYER
 10
57.12
 20
17.02
 30
0.00
  0
VERTEX
  8
TOPLAYER
 10
57.12
 20
17.34
 30
0.00
  0
VERTEX
  8
TOPLAYER
 10
57.12
 20
12.67
 30
0.00
  0
VERTEX
  8
TOPLAYER
 10
57.12
 20
12.99
 30
0.00
  0
VERTEX
  8
TOPLAYER
 10
56.28
 20
12.99
 30
0.00
  0
VERTEX
  8
TOPLAYER
 10
56.28
 20
12.67
 30
0.00
  0
VERTEX
  8
TOPLAYER
 10
56.28
 20
17.34
 30
0.00
  0
VERTEX
  8
TOPLAYER
 10
56.28
 20
17.02
 30
0.00
  0
VERTEX
  8
TOPLAYER
 10
55.44
 20
17.02
 30
0.00
  0
VERTEX
  8
TOPLAYER
 10
55.44
 20
17.34
 30
0.00
  0
VERTEX
  8
TOPLAYER
 10
55.44
 20
12.67
 30
0.00
  0
VERTEX
  8
TOPLAYER
 10
55.44
 20
12.99
 30
0.00
  0
VERTEX
  8
TOPLAYER
 10
54.60
 20
12.99
 30
0.00
  0
VERTEX
  8
TOPLAYER
 10
54.60
 20
12.67
 30
0.00
  0
VERTEX
  8
TOPLAYER
 10
54.60
 20
17.34
 30
0.00
  0
VERTEX
  8
TOPLAYER
 10
54.60
 20
17.02
 30
0.00
  0
VERTEX
  8
TOPLAYER
 10
53.76
 20
17.02
 30
0.00
  0
VERTEX
  8
TOPLAYER
 10
53.76
 20
17.34
 30
0.00
  0
VERTEX
  8
TOPLAYER
 10
53.76
 20
12.67
 30
0.00
  0
VERTEX
  8
TOPLAYER
 10
53.76
 20
12.99
 30
0.00
  0
VERTEX
  8
TOPLAYER
 10
52.92
 20
12.99
 30
0.00
  0
VERTEX
  8
TOPLAYER
 10
52.92
 20
12.67
 30
0.00
  0
VERTEX
  8
TOPLAYER
 10
52.92
 20
17.34
 30
0.00
  0
VERTEX
  8
TOPLAYER
 10
52.92
 20
17.02
 30
0.00
  0
VERTEX
  8
TOPLAYER
 10
52.08
 20
17.02
 30
0.00
  0
VERTEX
  8
TOPLAYER
 10
52.08
 20
17.34
 30
0.00
  0
VERTEX
  8
TOPLAYER
 10
52.08
 20
12.67
 30
0.00
  0
VERTEX
  8
TOPLAYER
 10
52.08
 20
12.99
 30
0.00
  0
VERTEX
  8
TOPLAYER
 10
51.24
 20
12.99
 30
0.00
  0
VERTEX
  8
TOPLAYER
 10
51.24
 20
12.67
 30
0.00
  0
VERTEX
  8
TOPLAYER
 10
51.24
 20
17.34
 30
0.00
  0
VERTEX
  8
TOPLAYER
 10
51.24
 20
17.02
 30
0.00
  0
VERTEX
  8
TOPLAYER
 10
50.40
 20
17.02
 30
0.00
  0
VERTEX
  8
TOPLAYER
 10
50.40
 20
17.34
 30
0.00
  0
VERTEX
  8
TOPLAYER
 10
50.40
 20
12.67
 30
0.00
  0
VERTEX
  8
TOPLAYER
 10
50.40
 20
12.99
 30
0.00
  0
VERTEX
  8
TOPLAYER
 10
49.56
 20
12.99
 30
0.00
  0
VERTEX
  8
TOPLAYER
 10
49.56
 20
12.67
 30
0.00
  0
VERTEX
  8
TOPLAYER
 10
49.56
 20
17.34
 30
0.00
  0
VERTEX
  8
TOPLAYER
 10
49.56
 20
17.02
 30
0.00
  0
VERTEX
  8
TOPLAYER
 10
48.72
 20
17.02
 30
0.00
  0
VERTEX
  8
TOPLAYER
 10
48.72
 20
17.34
 30
0.00
  0
VERTEX
  8
TOPLAYER
 10
48.72
 20
12.67
 30
0.00
  0
VERTEX
  8
TOPLAYER
 10
48.72
 20
12.99
 30
0.00
  0
VERTEX
  8
TOPLAYER
 10
47.88
 20
12.99
 30
0.00
  0
VERTEX
  8
TOPLAYER
 10
47.88
 20
12.67
 30
0.00
  0
VERTEX
  8
TOPLAYER
 10
47.88
 20
17.34
 30
0.00
  0
VERTEX
  8
TOPLAYER
 10
47.88
 20
17.02
 30
0.00
  0
VERTEX
  8
TOPLAYER
 10
47.04
 20
17.02
 30
0.00
  0
VERTEX
  8
TOPLAYER
 10
47.04
 20
17.34
 30
0.00
  0
VERTEX
  8
TOPLAYER
 10
47.04
 20
12.67
 30
0.00
  0
VERTEX
  8
TOPLAYER
 10
47.04
 20
12.99
 30
0.00
  0
VERTEX
  8
TOPLAYER
 10
46.20
 20
12.99
 30
0.00
  0
VERTEX
  8
TOPLAYER
 10
46.20
 20
12.67
 30
0.00
  0
VERTEX
  8
TOPLAYER
 10
46.20
 20
17.34
 30
0.00
  0
VERTEX
  8
TOPLAYER
 10
46.20
 20
17.02
 30
0.00
  0
VERTEX
  8
TOPLAYER
 10
45.36
 20
17.02
 30
0.00
  0
VERTEX
  8
TOPLAYER
 10
45.36
 20
17.34
 30
0.00
  0
VERTEX
  8
TOPLAYER
 10
45.36
 20
12.67
 30
0.00
  0
VERTEX
  8
TOPLAYER
 10
45.36
 20
12.99
 30
0.00
  0
VERTEX
  8
TOPLAYER
 10
44.52
 20
12.99
 30
0.00
  0
VERTEX
  8
TOPLAYER
 10
44.52
 20
12.67
 30
0.00
  0
VERTEX
  8
TOPLAYER
 10
44.52
 20
17.34
 30
0.00
  0
VERTEX
  8
TOPLAYER
 10
44.52
 20
17.02
 30
0.00
  0
VERTEX
  8
TOPLAYER
 10
43.68
 20
17.02
 30
0.00
  0
VERTEX
  8
TOPLAYER
 10
43.68
 20
17.34
 30
0.00
  0
VERTEX
  8
TOPLAYER
 10
43.68
 20
12.67
 30
0.00
  0
VERTEX
  8
TOPLAYER
 10
43.68
 20
12.99
 30
0.00
  0
VERTEX
  8
TOPLAYER
 10
42.84
 20
12.99
 30
0.00
  0
VERTEX
  8
TOPLAYER
 10
42.84
 20
12.67
 30
0.00
  0
VERTEX
  8
TOPLAYER
 10
42.84
 20
17.34
 30
0.00
  0
VERTEX
  8
TOPLAYER
 10
42.84
 20
17.02
 30
0.00
  0
VERTEX
  8
TOPLAYER
 10
42.00
 20
17.02
 30
0.00
  0
VERTEX
  8
TOPLAYER
 10
42.00
 20
17.34
 30
0.00
  0
VERTEX
  8
TOPLAYER
 10
42.00
 20
12.67
 30
0.00
  0
VERTEX
  8
TOPLAYER
 10
41.16
 20
12.67
 30
0.00
  0
VERTEX
  8
TOPLAYER
 10
41.16
 20
9.67
 30
0.00
  0
VERTEX
  8
TOPLAYER
 10
41.16
 20
20.34
 30
0.00
  0
VERTEX
  8
TOPLAYER
 10
41.16
 20
20.02
 30
0.00
  0
VERTEX
  8
TOPLAYER
 10
40.32
 20
20.02
 30
0.00
  0
VERTEX
  8
TOPLAYER
 10
40.32
 20
20.34
 30
0.00
  0
VERTEX
  8
TOPLAYER
 10
40.32
 20
9.67
 30
0.00
  0
VERTEX
  8
TOPLAYER
 10
40.32
 20
9.99
 30
0.00
  0
VERTEX
  8
TOPLAYER
 10
39.48
 20
9.99
 30
0.00
  0
VERTEX
  8
TOPLAYER
 10
39.48
 20
9.67
 30
0.00
  0
VERTEX
  8
TOPLAYER
 10
39.48
 20
20.34
 30
0.00
  0
VERTEX
  8
TOPLAYER
 10
39.48
 20
20.02
 30
0.00
  0
VERTEX
  8
TOPLAYER
 10
38.64
 20
20.02
 30
0.00
  0
VERTEX
  8
TOPLAYER
 10
38.64
 20
20.34
 30
0.00
  0
VERTEX
  8
TOPLAYER
 10
38.64
 20
9.67
 30
0.00
  0
VERTEX
  8
TOPLAYER
 10
38.64
 20
9.99
 30
0.00
  0
VERTEX
  8
TOPLAYER
 10
37.80
 20
9.99
 30
0.00
  0
VERTEX
  8
TOPLAYER
 10
37.80
 20
9.67
 30
0.00
  0
VERTEX
  8
TOPLAYER
 10
37.80
 20
20.34
 30
0.00
  0
VERTEX
  8
TOPLAYER
 10
37.80
 20
20.02
 30
0.00
  0
VERTEX
  8
TOPLAYER
 10
36.96
 20
20.02
 30
0.00
  0
VERTEX
  8
TOPLAYER
 10
36.96
 20
20.34
 30
0.00
  0
VERTEX
  8
TOPLAYER
 10
36.96
 20
9.67
 30
0.00
  0
VERTEX
  8
TOPLAYER
 10
36.96
 20
9.99
 30
0.00
  0
VERTEX
  8
TOPLAYER
 10
36.12
 20
9.99
 30
0.00
  0
VERTEX
  8
TOPLAYER
 10
36.12
 20
9.67
 30
0.00
  0
VERTEX
  8
TOPLAYER
 10
36.12
 20
20.34
 30
0.00
  0
VERTEX
  8
TOPLAYER
 10
36.12
 20
20.02
 30
0.00
  0
VERTEX
  8
TOPLAYER
 10
35.28
 20
20.02
 30
0.00
  0
VERTEX
  8
TOPLAYER
 10
35.28
 20
20.34
 30
0.00
  0
VERTEX
  8
TOPLAYER
 10
35.28
 20
9.67
 30
0.00
  0
VERTEX
  8
TOPLAYER
 10
35.28
 20
12.67
 30
0.00
  0
VERTEX
  8
TOPLAYER
 10
34.44
 20
12.67
 30
0.00
  0
SEQEND
  0
POLYLINE
  8
TOPLAYER
 66
1
 10
0.00
 20
0.00
 30
0.00
 40
1.00
 41
1.00
  0
VERTEX
  8
TOPLAYER
 10
34.44
 20
12.67
 30
0.00
  0
VERTEX
  8
TOPLAYER
 10
34.44
 20
17.34
 30
0.00
  0
VERTEX
  8
TOPLAYER
 10
34.44
 20
17.02
 30
0.00
  0
VERTEX
  8
TOPLAYER
 10
33.60
 20
17.02
 30
0.00
  0
VERTEX
  8
TOPLAYER
 10
33.60
 20
17.34
 30
0.00
  0
VERTEX
  8
TOPLAYER
 10
33.60
 20
12.67
 30
0.00
  0
VERTEX
  8
TOPLAYER
 10
33.60
 20
12.99
 30
0.00
  0
VERTEX
  8
TOPLAYER
 10
32.76
 20
12.99
 30
0.00
  0
VERTEX
  8
TOPLAYER
 10
32.76
 20
12.67
 30
0.00
  0
VERTEX
  8
TOPLAYER
 10
32.76
 20
17.34
 30
0.00
  0
VERTEX
  8
TOPLAYER
 10
32.76
 20
17.02
 30
0.00
  0
VERTEX
  8
TOPLAYER
 10
31.92
 20
17.02
 30
0.00
  0
VERTEX
  8
TOPLAYER
 10
31.92
 20
17.34
 30
0.00
  0
VERTEX
  8
TOPLAYER
 10
31.92
 20
12.67
 30
0.00
  0
VERTEX
  8
TOPLAYER
 10
31.92
 20
12.99
 30
0.00
  0
VERTEX
  8
TOPLAYER
 10
31.08
 20
12.99
 30
0.00
  0
VERTEX
  8
TOPLAYER
 10
31.08
 20
12.67
 30
0.00
  0
VERTEX
  8
TOPLAYER
 10
31.08
 20
17.34
 30
0.00
  0
VERTEX
  8
TOPLAYER
 10
31.08
 20
17.02
 30
0.00
  0
VERTEX
  8
TOPLAYER
 10
30.24
 20
17.02
 30
0.00
  0
VERTEX
  8
TOPLAYER
 10
30.24
 20
17.34
 30
0.00
  0
VERTEX
  8
TOPLAYER
 10
30.24
 20
12.67
 30
0.00
  0
VERTEX
  8
TOPLAYER
 10
30.24
 20
12.99
 30
0.00
  0
VERTEX
  8
TOPLAYER
 10
29.40
 20
12.99
 30
0.00
  0
VERTEX
  8
TOPLAYER
 10
29.40
 20
12.67
 30
0.00
  0
VERTEX
  8
TOPLAYER
 10
29.40
 20
17.34
 30
0.00
  0
VERTEX
  8
TOPLAYER
 10
29.40
 20
17.02
 30
0.00
  0
VERTEX
  8
TOPLAYER
 10
28.56
 20
17.02
 30
0.00
  0
VERTEX
  8
TOPLAYER
 10
28.56
 20
17.34
 30
0.00
  0
VERTEX
  8
TOPLAYER
 10
28.56
 20
12.67
 30
0.00
  0
VERTEX
  8
TOPLAYER
 10
28.56
 20
12.99
 30
0.00
  0
VERTEX
  8
TOPLAYER
 10
27.72
 20
12.99
 30
0.00
  0
VERTEX
  8
TOPLAYER
 10
27.72
 20
12.67
 30
0.00
  0
VERTEX
  8
TOPLAYER
 10
27.72
 20
17.34
 30
0.00
  0
VERTEX
  8
TOPLAYER
 10
27.72
 20
17.02
 30
0.00
  0
VERTEX
  8
TOPLAYER
 10
26.88
 20
17.02
 30
0.00
  0
VERTEX
  8
TOPLAYER
 10
26.88
 20
17.34
 30
0.00
  0
VERTEX
  8
TOPLAYER
 10
26.88
 20
12.67
 30
0.00
  0
VERTEX
  8
TOPLAYER
 10
26.88
 20
12.99
 30
0.00
  0
VERTEX
  8
TOPLAYER
 10
26.04
 20
12.99
 30
0.00
  0
VERTEX
  8
TOPLAYER
 10
26.04
 20
12.67
 30
0.00
  0
VERTEX
  8
TOPLAYER
 10
26.04
 20
17.34
 30
0.00
  0
VERTEX
  8
TOPLAYER
 10
26.04
 20
17.02
 30
0.00
  0
VERTEX
  8
TOPLAYER
 10
25.20
 20
17.02
 30
0.00
  0
VERTEX
  8
TOPLAYER
 10
25.20
 20
17.34
 30
0.00
  0
VERTEX
  8
TOPLAYER
 10
25.20
 20
12.67
 30
0.00
  0
VERTEX
  8
TOPLAYER
 10
25.20
 20
12.99
 30
0.00
  0
VERTEX
  8
TOPLAYER
 10
24.36
 20
12.99
 30
0.00
  0
VERTEX
  8
TOPLAYER
 10
24.36
 20
12.67
 30
0.00
  0
VERTEX
  8
TOPLAYER
 10
24.36
 20
17.34
 30
0.00
  0
VERTEX
  8
TOPLAYER
 10
24.36
 20
17.02
 30
0.00
  0
VERTEX
  8
TOPLAYER
 10
23.52
 20
17.02
 30
0.00
  0
VERTEX
  8
TOPLAYER
 10
23.52
 20
17.34
 30
0.00
  0
VERTEX
  8
TOPLAYER
 10
23.52
 20
12.67
 30
0.00
  0
VERTEX
  8
TOPLAYER
 10
23.52
 20
12.99
 30
0.00
  0
VERTEX
  8
TOPLAYER
 10
22.68
 20
12.99
 30
0.00
  0
VERTEX
  8
TOPLAYER
 10
22.68
 20
12.67
 30
0.00
  0
VERTEX
  8
TOPLAYER
 10
22.68
 20
17.34
 30
0.00
  0
VERTEX
  8
TOPLAYER
 10
22.68
 20
17.02
 30
0.00
  0
VERTEX
  8
TOPLAYER
 10
21.84
 20
17.02
 30
0.00
  0
VERTEX
  8
TOPLAYER
 10
21.84
 20
17.34
 30
0.00
  0
VERTEX
  8
TOPLAYER
 10
21.84
 20
12.67
 30
0.00
  0
VERTEX
  8
TOPLAYER
 10
21.84
 20
12.99
 30
0.00
  0
VERTEX
  8
TOPLAYER
 10
21.00
 20
12.99
 30
0.00
  0
VERTEX
  8
TOPLAYER
 10
21.00
 20
12.67
 30
0.00
  0
VERTEX
  8
TOPLAYER
 10
21.00
 20
17.34
 30
0.00
  0
VERTEX
  8
TOPLAYER
 10
21.00
 20
17.02
 30
0.00
  0
VERTEX
  8
TOPLAYER
 10
20.16
 20
17.02
 30
0.00
  0
VERTEX
  8
TOPLAYER
 10
20.16
 20
17.34
 30
0.00
  0
VERTEX
  8
TOPLAYER
 10
20.16
 20
12.67
 30
0.00
  0
VERTEX
  8
TOPLAYER
 10
20.16
 20
12.99
 30
0.00
  0
VERTEX
  8
TOPLAYER
 10
19.32
 20
12.99
 30
0.00
  0
VERTEX
  8
TOPLAYER
 10
19.32
 20
12.67
 30
0.00
  0
VERTEX
  8
TOPLAYER
 10
19.32
 20
17.34
 30
0.00
  0
VERTEX
  8
TOPLAYER
 10
19.32
 20
17.02
 30
0.00
  0
VERTEX
  8
TOPLAYER
 10
18.48
 20
17.02
 30
0.00
  0
VERTEX
  8
TOPLAYER
 10
18.48
 20
17.34
 30
0.00
  0
VERTEX
  8
TOPLAYER
 10
18.48
 20
12.67
 30
0.00
  0
VERTEX
  8
TOPLAYER
 10
18.48
 20
12.99
 30
0.00
  0
VERTEX
  8
TOPLAYER
 10
17.64
 20
12.99
 30
0.00
  0
VERTEX
  8
TOPLAYER
 10
17.64
 20
12.67
 30
0.00
  0
VERTEX
  8
TOPLAYER
 10
17.64
 20
17.34
 30
0.00
  0
VERTEX
  8
TOPLAYER
 10
17.64
 20
17.02
 30
0.00
  0
VERTEX
  8
TOPLAYER
 10
16.80
 20
17.02
 30
0.00
  0
VERTEX
  8
TOPLAYER
 10
16.80
 20
17.34
 30
0.00
  0
VERTEX
  8
TOPLAYER
 10
16.80
 20
12.67
 30
0.00
  0
VERTEX
  8
TOPLAYER
 10
16.80
 20
12.99
 30
0.00
  0
VERTEX
  8
TOPLAYER
 10
15.96
 20
12.99
 30
0.00
  0
VERTEX
  8
TOPLAYER
 10
15.96
 20
12.67
 30
0.00
  0
VERTEX
  8
TOPLAYER
 10
15.96
 20
17.34
 30
0.00
  0
VERTEX
  8
TOPLAYER
 10
15.96
 20
17.02
 30
0.00
  0
VERTEX
  8
TOPLAYER
 10
15.12
 20
17.02
 30
0.00
  0
VERTEX
  8
TOPLAYER
 10
15.12
 20
17.34
 30
0.00
  0
VERTEX
  8
TOPLAYER
 10
15.12
 20
12.67
 30
0.00
  0
SEQEND
  0
POLYLINE
  8
TOPLAYER
 66
1
 10
0.00
 20
0.00
 30
0.00
 40
1.00
 41
1.00
  0
VERTEX
  8
TOPLAYER
 10
35.17
 20
20.34
 30
0.00
  0
VERTEX
  8
TOPLAYER
 10
41.34
 20
20.34
 30
0.00
  0
VERTEX
  8
TOPLAYER
 10
41.34
 20
18.005
 30
0.00
  0
SEQEND
  0
POLYLINE
  8
TOPLAYER
 66
1
 10
0.00
 20
0.00
 30
0.00
 40
1.00
 41
1.00
  0
VERTEX
  8
TOPLAYER
 10
41.34
 20
18.005
 30
0.00
 42
0.3333214
  0
VERTEX
  8
TOPLAYER
 10
41.82
 20
17.365
 30
0.00
 42
0.00
  0
SEQEND
  0
POLYLINE
  8
TOPLAYER
 66
1
 10
0.00
 20
0.00
 30
0.00
 40
1.00
 41
1.00
  0
VERTEX
  8
TOPLAYER
 10
41.82
 20
17.365
 30
0.00
 42
0.0331135
  0
VERTEX
  8
TOPLAYER
 10
41.89
 20
17.35
 30
0.00
 42
0.00
  0
SEQEND
  0
POLYLINE
  8
TOPLAYER
 66
1
 10
0.00
 20
0.00
 30
0.00
 40
1.00
 41
1.00
  0
VERTEX
  8
TOPLAYER
 10
41.89
 20
17.35
 30
0.00
  0
VERTEX
  8
TOPLAYER
 10
41.93
 20
17.345
 30
0.00
  0
SEQEND
  0
POLYLINE
  8
TOPLAYER
 66
1
 10
0.00
 20
0.00
 30
0.00
 40
1.00
 41
1.00
  0
VERTEX
  8
TOPLAYER
 10
41.93
 20
17.345
 30
0.00
 42
0.034834
  0
VERTEX
  8
TOPLAYER
 10
42.005
 20
17.34
 30
0.00
 42
0.00
  0
SEQEND
  0
POLYLINE
  8
TOPLAYER
 66
1
 10
0.00
 20
0.00
 30
0.00
 40
1.00
 41
1.00
  0
VERTEX
  8
TOPLAYER
 10
42.005
 20
17.34
 30
0.00
  0
VERTEX
  8
TOPLAYER
 10
62.14
 20
17.34
 30
0.00
  0
VERTEX
  8
TOPLAYER
 10
62.14
 20
12.67
 30
0.00
  0
VERTEX
  8
TOPLAYER
 10
42.005
 20
12.67
 30
0.00
  0
SEQEND
  0
POLYLINE
  8
TOPLAYER
 66
1
 10
0.00
 20
0.00
 30
0.00
 40
1.00
 41
1.00
  0
VERTEX
  8
TOPLAYER
 10
42.005
 20
12.67
 30
0.00
 42
0.4142136
  0
VERTEX
  8
TOPLAYER
 10
41.34
 20
12.005
 30
0.00
 42
0.00
  0
SEQEND
  0
POLYLINE
  8
TOPLAYER
 66
1
 10
0.00
 20
0.00
 30
0.00
 40
1.00
 41
1.00
  0
VERTEX
  8
TOPLAYER
 10
41.34
 20
12.005
 30
0.00
  0
VERTEX
  8
TOPLAYER
 10
41.34
 20
9.67
 30
0.00
  0
VERTEX
  8
TOPLAYER
 10
35.07
 20
9.67
 30
0.00
  0
VERTEX
  8
TOPLAYER
 10
35.07
 20
12.005
 30
0.00
  0
SEQEND
  0
POLYLINE
  8
TOPLAYER
 66
1
 10
0.00
 20
0.00
 30
0.00
 40
1.00
 41
1.00
  0
VERTEX
  8
TOPLAYER
 10
35.07
 20
12.005
 30
0.00
 42
0.023111
  0
VERTEX
  8
TOPLAYER
 10
35.07
 20
12.055
 30
0.00
 42
0.00
  0
SEQEND
  0
POLYLINE
  8
TOPLAYER
 66
1
 10
0.00
 20
0.00
 30
0.00
 40
1.00
 41
1.00
  0
VERTEX
  8
TOPLAYER
 10
35.07
 20
12.055
 30
0.00
  0
VERTEX
  8
TOPLAYER
 10
35.07
 20
12.06
 30
0.00
  0
SEQEND
  0
POLYLINE
  8
TOPLAYER
 66
1
 10
0.00
 20
0.00
 30
0.00
 40
1.00
 41
1.00
  0
VERTEX
  8
TOPLAYER
 10
35.07
 20
12.06
 30
0.00
 42
0.3902467
  0
VERTEX
  8
TOPLAYER
 10
34.405
 20
12.67
 30
0.00
 42
0.00
  0
SEQEND
  0
POLYLINE
  8
TOPLAYER
 66
1
 10
0.00
 20
0.00
 30
0.00
 40
1.00
 41
1.00
  0
VERTEX
  8
TOPLAYER
 10
34.405
 20
12.67
 30
0.00
  0
VERTEX
  8
TOPLAYER
 10
14.47
 20
12.67
 30
0.00
  0
VERTEX
  8
TOPLAYER
 10
14.47
 20
17.34
 30
0.00
  0
VERTEX
  8
TOPLAYER
 10
34.505
 20
17.34
 30
0.00
  0
VERTEX
  8
TOPLAYER
 10
34.585
 20
17.345
 30
0.00
  0
SEQEND
  0
POLYLINE
  8
TOPLAYER
 66
1
 10
0.00
 20
0.00
 30
0.00
 40
1.00
 41
1.00
  0
VERTEX
  8
TOPLAYER
 10
34.585
 20
17.345
 30
0.00
 42
0.3793087
  0
VERTEX
  8
TOPLAYER
 10
35.17
 20
18.005
 30
0.00
 42
0.00
  0
SEQEND
  0
POLYLINE
  8
TOPLAYER
 66
1
 10
0.00
 20
0.00
 30
0.00
 40
1.00
 41
1.00
  0
VERTEX
  8
TOPLAYER
 10
35.17
 20
18.005
 30
0.00
  0
VERTEX
  8
TOPLAYER
 10
35.17
 20
20.34
 30
0.00
  0
SEQEND
  0
POLYLINE
  8
TOPLAYER
 66
1
 10
0.00
 20
0.00
 30
0.00
 40
0.20
 41
0.20
  0
VERTEX
  8
TOPLAYER
 10
9.215
 20
17.935
 30
0.00
  0
VERTEX
  8
TOPLAYER
 10
9.215
 20
17.815
 30
0.00
  0
VERTEX
  8
TOPLAYER
 10
9.335
 20
17.815
 30
0.00
  0
SEQEND
  0
POLYLINE
  8
TOPLAYER
 66
1
 10
0.00
 20
0.00
 30
0.00
 40
0.20
 41
0.20
  0
VERTEX
  8
TOPLAYER
 10
9.215
 20
17.935
 30
0.00
 42
0.1006644
  0
VERTEX
  8
TOPLAYER
 10
9.335
 20
17.815
 30
0.00
 42
0.00
  0
SEQEND
  0
POLYLINE
  8
TOPLAYER
 66
1
 10
0.00
 20
0.00
 30
0.00
 40
0.20
 41
0.20
  0
VERTEX
  8
TOPLAYER
 10
9.335
 20
20.295
 30
0.00
  0
VERTEX
  8
TOPLAYER
 10
9.215
 20
20.295
 30
0.00
  0
VERTEX
  8
TOPLAYER
 10
9.22
 20
20.18
 30
0.00
  0
SEQEND
  0
POLYLINE
  8
TOPLAYER
 66
1
 10
0.00
 20
0.00
 30
0.00
 40
0.20
 41
0.20
  0
VERTEX
  8
TOPLAYER
 10
9.335
 20
20.295
 30
0.00
 42
0.0965439
  0
VERTEX
  8
TOPLAYER
 10
9.218882
 20
20.180764
 30
0.00
 42
0.00
  0
SEQEND
  0
POLYLINE
  8
TOPLAYER
 66
1
 10
0.00
 20
0.00
 30
0.00
 40
0.20
 41
0.20
  0
VERTEX
  8
TOPLAYER
 10
11.795
 20
20.295
 30
0.00
  0
VERTEX
  8
TOPLAYER
 10
11.675
 20
20.295
 30
0.00
  0
SEQEND
  0
POLYLINE
  8
TOPLAYER
 66
1
 10
0.00
 20
0.00
 30
0.00
 40
0.20
 41
0.20
  0
VERTEX
  8
TOPLAYER
 10
11.795
 20
20.175
 30
0.00
 42
0.1006644
  0
VERTEX
  8
TOPLAYER
 10
11.675
 20
20.295
 30
0.00
 42
0.00
  0
SEQEND
  0
POLYLINE
  8
TOPLAYER
 66
1
 10
0.00
 20
0.00
 30
0.00
 40
0.20
 41
0.20
  0
VERTEX
  8
TOPLAYER
 10
11.795
 20
20.175
 30
0.00
  0
VERTEX
  8
TOPLAYER
 10
11.795
 20
20.295
 30
0.00
  0
SEQEND
  0
POLYLINE
  8
TOPLAYER
 66
1
 10
0.00
 20
0.00
 30
0.00
 40
0.20
 41
0.20
  0
VERTEX
  8
TOPLAYER
 10
11.68
 20
17.815
 30
0.00
 42
0.0916627
  0
VERTEX
  8
TOPLAYER
 10
11.794994
 20
17.925002
 30
0.00
 42
0.00
  0
SEQEND
  0
POLYLINE
  8
TOPLAYER
 66
1
 10
0.00
 20
0.00
 30
0.00
 40
0.20
 41
0.20
  0
VERTEX
  8
TOPLAYER
 10
11.68
 20
17.815
 30
0.00
  0
VERTEX
  8
TOPLAYER
 10
11.795
 20
17.815
 30
0.00
  0
VERTEX
  8
TOPLAYER
 10
11.795
 20
17.925
 30
0.00
  0
SEQEND
  0
POLYLINE
  8
TOPLAYER
 66
1
 10
0.00
 20
0.00
 30
0.00
 40
1.00
 41
1.00
  0
VERTEX
  8
TOPLAYER
 10
10.92
 20
18.17
 30
0.00
  0
VERTEX
  8
TOPLAYER
 10
10.92
 20
19.94
 30
0.00
  0
VERTEX
  8
TOPLAYER
 10
10.92
 20
19.62
 30
0.00
  0
VERTEX
  8
TOPLAYER
 10
10.08
 20
19.62
 30
0.00
  0
VERTEX
  8
TOPLAYER
 10
10.08
 20
19.94
 30
0.00
  0
VERTEX
  8
TOPLAYER
 10
10.08
 20
18.17
 30
0.00
  0
SEQEND
  0
POLYLINE
  8
TOPLAYER
 66
1
 10
0.00
 20
0.00
 30
0.00
 40
1.00
 41
1.00
  0
VERTEX
  8
TOPLAYER
 10
9.57
 20
19.94
 30
0.00
  0
VERTEX
  8
TOPLAYER
 10
11.44
 20
19.94
 30
0.00
  0
VERTEX
  8
TOPLAYER
 10
11.44
 20
18.17
 30
0.00
  0
VERTEX
  8
TOPLAYER
 10
9.57
 20
18.17
 30
0.00
  0
VERTEX
  8
TOPLAYER
 10
9.57
 20
19.94
 30
0.00
  0
SEQEND
  0
POLYLINE
  8
TOPLAYER
 66
1
 10
0.00
 20
0.00
 30
0.00
 40
0.20
 41
0.20
  0
VERTEX
  8
TOPLAYER
 10
9.215
 20
17.935
 30
0.00
  0
VERTEX
  8
TOPLAYER
 10
9.215
 20
17.815
 30
0.00
  0
VERTEX
  8
TOPLAYER
 10
9.335
 20
17.815
 30
0.00
  0
SEQEND
  0
POLYLINE
  8
TOPLAYER
 66
1
 10
0.00
 20
0.00
 30
0.00
 40
0.20
 41
0.20
  0
VERTEX
  8
TOPLAYER
 10
9.215
 20
17.935
 30
0.00
 42
0.1006644
  0
VERTEX
  8
TOPLAYER
 10
9.335
 20
17.815
 30
0.00
 42
0.00
  0
SEQEND
  0
POLYLINE
  8
TOPLAYER
 66
1
 10
0.00
 20
0.00
 30
0.00
 40
0.20
 41
0.20
  0
VERTEX
  8
TOPLAYER
 10
9.335
 20
20.295
 30
0.00
  0
VERTEX
  8
TOPLAYER
 10
9.215
 20
20.295
 30
0.00
  0
VERTEX
  8
TOPLAYER
 10
9.22
 20
20.18
 30
0.00
  0
SEQEND
  0
POLYLINE
  8
TOPLAYER
 66
1
 10
0.00
 20
0.00
 30
0.00
 40
0.20
 41
0.20
  0
VERTEX
  8
TOPLAYER
 10
9.335
 20
20.295
 30
0.00
 42
0.0965439
  0
VERTEX
  8
TOPLAYER
 10
9.218882
 20
20.180764
 30
0.00
 42
0.00
  0
SEQEND
  0
POLYLINE
  8
TOPLAYER
 66
1
 10
0.00
 20
0.00
 30
0.00
 40
0.20
 41
0.20
  0
VERTEX
  8
TOPLAYER
 10
11.795
 20
20.295
 30
0.00
  0
VERTEX
  8
TOPLAYER
 10
11.675
 20
20.295
 30
0.00
  0
SEQEND
  0
POLYLINE
  8
TOPLAYER
 66
1
 10
0.00
 20
0.00
 30
0.00
 40
0.20
 41
0.20
  0
VERTEX
  8
TOPLAYER
 10
11.795
 20
20.175
 30
0.00
 42
0.1006644
  0
VERTEX
  8
TOPLAYER
 10
11.675
 20
20.295
 30
0.00
 42
0.00
  0
SEQEND
  0
POLYLINE
  8
TOPLAYER
 66
1
 10
0.00
 20
0.00
 30
0.00
 40
0.20
 41
0.20
  0
VERTEX
  8
TOPLAYER
 10
11.795
 20
20.175
 30
0.00
  0
VERTEX
  8
TOPLAYER
 10
11.795
 20
20.295
 30
0.00
  0
SEQEND
  0
POLYLINE
  8
TOPLAYER
 66
1
 10
0.00
 20
0.00
 30
0.00
 40
0.20
 41
0.20
  0
VERTEX
  8
TOPLAYER
 10
11.68
 20
17.815
 30
0.00
 42
0.0916627
  0
VERTEX
  8
TOPLAYER
 10
11.794994
 20
17.925002
 30
0.00
 42
0.00
  0
SEQEND
  0
POLYLINE
  8
TOPLAYER
 66
1
 10
0.00
 20
0.00
 30
0.00
 40
0.20
 41
0.20
  0
VERTEX
  8
TOPLAYER
 10
11.68
 20
17.815
 30
0.00
  0
VERTEX
  8
TOPLAYER
 10
11.795
 20
17.815
 30
0.00
  0
VERTEX
  8
TOPLAYER
 10
11.795
 20
17.925
 30
0.00
  0
SEQEND
  0
POLYLINE
  8
TOPLAYER
 66
1
 10
0.00
 20
0.00
 30
0.00
 40
1.00
 41
1.00
  0
VERTEX
  8
TOPLAYER
 10
10.92
 20
18.17
 30
0.00
  0
VERTEX
  8
TOPLAYER
 10
10.92
 20
19.94
 30
0.00
  0
VERTEX
  8
TOPLAYER
 10
10.92
 20
19.62
 30
0.00
  0
VERTEX
  8
TOPLAYER
 10
10.08
 20
19.62
 30
0.00
  0
VERTEX
  8
TOPLAYER
 10
10.08
 20
19.94
 30
0.00
  0
VERTEX
  8
TOPLAYER
 10
10.08
 20
18.17
 30
0.00
  0
SEQEND
  0
POLYLINE
  8
TOPLAYER
 66
1
 10
0.00
 20
0.00
 30
0.00
 40
1.00
 41
1.00
  0
VERTEX
  8
TOPLAYER
 10
9.57
 20
19.94
 30
0.00
  0
VERTEX
  8
TOPLAYER
 10
11.44
 20
19.94
 30
0.00
  0
VERTEX
  8
TOPLAYER
 10
11.44
 20
18.17
 30
0.00
  0
VERTEX
  8
TOPLAYER
 10
9.57
 20
18.17
 30
0.00
  0
VERTEX
  8
TOPLAYER
 10
9.57
 20
19.94
 30
0.00
  0
SEQEND
  0
POLYLINE
  8
TOPLAYER
 66
1
 10
0.00
 20
0.00
 30
0.00
 40
0.20
 41
0.20
  0
VERTEX
  8
TOPLAYER
 10
11.88
 20
20.38
 30
0.00
  0
VERTEX
  8
TOPLAYER
 10
9.13
 20
20.38
 30
0.00
  0
VERTEX
  8
TOPLAYER
 10
9.13
 20
17.73
 30
0.00
  0
VERTEX
  8
TOPLAYER
 10
11.88
 20
17.73
 30
0.00
  0
VERTEX
  8
TOPLAYER
 10
11.88
 20
20.38
 30
0.00
  0
SEQEND
  0
POLYLINE
  8
TOPLAYER
 66
1
 10
0.00
 20
0.00
 30
0.00
 40
0.20
 41
0.20
  0
VERTEX
  8
TOPLAYER
 10
9.215
 20
17.935
 30
0.00
  0
VERTEX
  8
TOPLAYER
 10
9.215
 20
17.815
 30
0.00
  0
VERTEX
  8
TOPLAYER
 10
9.335
 20
17.815
 30
0.00
  0
SEQEND
  0
POLYLINE
  8
TOPLAYER
 66
1
 10
0.00
 20
0.00
 30
0.00
 40
0.20
 41
0.20
  0
VERTEX
  8
TOPLAYER
 10
9.215
 20
17.935
 30
0.00
 42
0.1006644
  0
VERTEX
  8
TOPLAYER
 10
9.335
 20
17.815
 30
0.00
 42
0.00
  0
SEQEND
  0
POLYLINE
  8
TOPLAYER
 66
1
 10
0.00
 20
0.00
 30
0.00
 40
0.20
 41
0.20
  0
VERTEX
  8
TOPLAYER
 10
9.335
 20
20.295
 30
0.00
  0
VERTEX
  8
TOPLAYER
 10
9.215
 20
20.295
 30
0.00
  0
VERTEX
  8
TOPLAYER
 10
9.22
 20
20.18
 30
0.00
  0
SEQEND
  0
POLYLINE
  8
TOPLAYER
 66
1
 10
0.00
 20
0.00
 30
0.00
 40
0.20
 41
0.20
  0
VERTEX
  8
TOPLAYER
 10
9.335
 20
20.295
 30
0.00
 42
0.0965439
  0
VERTEX
  8
TOPLAYER
 10
9.218882
 20
20.180764
 30
0.00
 42
0.00
  0
SEQEND
  0
POLYLINE
  8
TOPLAYER
 66
1
 10
0.00
 20
0.00
 30
0.00
 40
0.20
 41
0.20
  0
VERTEX
  8
TOPLAYER
 10
11.795
 20
20.295
 30
0.00
  0
VERTEX
  8
TOPLAYER
 10
11.675
 20
20.295
 30
0.00
  0
SEQEND
  0
POLYLINE
  8
TOPLAYER
 66
1
 10
0.00
 20
0.00
 30
0.00
 40
0.20
 41
0.20
  0
VERTEX
  8
TOPLAYER
 10
11.795
 20
20.175
 30
0.00
 42
0.1006644
  0
VERTEX
  8
TOPLAYER
 10
11.675
 20
20.295
 30
0.00
 42
0.00
  0
SEQEND
  0
POLYLINE
  8
TOPLAYER
 66
1
 10
0.00
 20
0.00
 30
0.00
 40
0.20
 41
0.20
  0
VERTEX
  8
TOPLAYER
 10
11.795
 20
20.175
 30
0.00
  0
VERTEX
  8
TOPLAYER
 10
11.795
 20
20.295
 30
0.00
  0
SEQEND
  0
POLYLINE
  8
TOPLAYER
 66
1
 10
0.00
 20
0.00
 30
0.00
 40
0.20
 41
0.20
  0
VERTEX
  8
TOPLAYER
 10
11.68
 20
17.815
 30
0.00
 42
0.0916627
  0
VERTEX
  8
TOPLAYER
 10
11.794994
 20
17.925002
 30
0.00
 42
0.00
  0
SEQEND
  0
POLYLINE
  8
TOPLAYER
 66
1
 10
0.00
 20
0.00
 30
0.00
 40
0.20
 41
0.20
  0
VERTEX
  8
TOPLAYER
 10
11.68
 20
17.815
 30
0.00
  0
VERTEX
  8
TOPLAYER
 10
11.795
 20
17.815
 30
0.00
  0
VERTEX
  8
TOPLAYER
 10
11.795
 20
17.925
 30
0.00
  0
SEQEND
  0
POLYLINE
  8
TOPLAYER
 66
1
 10
0.00
 20
0.00
 30
0.00
 40
1.00
 41
1.00
  0
VERTEX
  8
TOPLAYER
 10
10.92
 20
18.17
 30
0.00
  0
VERTEX
  8
TOPLAYER
 10
10.92
 20
19.94
 30
0.00
  0
VERTEX
  8
TOPLAYER
 10
10.92
 20
19.62
 30
0.00
  0
VERTEX
  8
TOPLAYER
 10
10.08
 20
19.62
 30
0.00
  0
VERTEX
  8
TOPLAYER
 10
10.08
 20
19.94
 30
0.00
  0
VERTEX
  8
TOPLAYER
 10
10.08
 20
18.17
 30
0.00
  0
SEQEND
  0
POLYLINE
  8
TOPLAYER
 66
1
 10
0.00
 20
0.00
 30
0.00
 40
1.00
 41
1.00
  0
VERTEX
  8
TOPLAYER
 10
9.57
 20
19.94
 30
0.00
  0
VERTEX
  8
TOPLAYER
 10
11.44
 20
19.94
 30
0.00
  0
VERTEX
  8
TOPLAYER
 10
11.44
 20
18.17
 30
0.00
  0
VERTEX
  8
TOPLAYER
 10
9.57
 20
18.17
 30
0.00
  0
VERTEX
  8
TOPLAYER
 10
9.57
 20
19.94
 30
0.00
  0
SEQEND
  0
POLYLINE
  8
TOPLAYER
 66
1
 10
0.00
 20
0.00
 30
0.00
 40
0.20
 41
0.20
  0
VERTEX
  8
TOPLAYER
 10
9.2226
 20
9.70
 30
0.00
  0
VERTEX
  8
TOPLAYER
 10
9.2226
 20
9.58
 30
0.00
  0
VERTEX
  8
TOPLAYER
 10
9.3426
 20
9.58
 30
0.00
  0
SEQEND
  0
POLYLINE
  8
TOPLAYER
 66
1
 10
0.00
 20
0.00
 30
0.00
 40
0.20
 41
0.20
  0
VERTEX
  8
TOPLAYER
 10
9.2226
 20
9.70
 30
0.00
 42
0.1006644
  0
VERTEX
  8
TOPLAYER
 10
9.3426
 20
9.58
 30
0.00
 42
0.00
  0
SEQEND
  0
POLYLINE
  8
TOPLAYER
 66
1
 10
0.00
 20
0.00
 30
0.00
 40
0.20
 41
0.20
  0
VERTEX
  8
TOPLAYER
 10
9.3426
 20
12.06
 30
0.00
  0
VERTEX
  8
TOPLAYER
 10
9.2226
 20
12.06
 30
0.00
  0
VERTEX
  8
TOPLAYER
 10
9.2276
 20
11.945
 30
0.00
  0
SEQEND
  0
POLYLINE
  8
TOPLAYER
 66
1
 10
0.00
 20
0.00
 30
0.00
 40
0.20
 41
0.20
  0
VERTEX
  8
TOPLAYER
 10
9.3426
 20
12.06
 30
0.00
 42
0.0965439
  0
VERTEX
  8
TOPLAYER
 10
9.226482
 20
11.945764
 30
0.00
 42
0.00
  0
SEQEND
  0
POLYLINE
  8
TOPLAYER
 66
1
 10
0.00
 20
0.00
 30
0.00
 40
0.20
 41
0.20
  0
VERTEX
  8
TOPLAYER
 10
11.8026
 20
12.06
 30
0.00
  0
VERTEX
  8
TOPLAYER
 10
11.6826
 20
12.06
 30
0.00
  0
SEQEND
  0
POLYLINE
  8
TOPLAYER
 66
1
 10
0.00
 20
0.00
 30
0.00
 40
0.20
 41
0.20
  0
VERTEX
  8
TOPLAYER
 10
11.8026
 20
11.94
 30
0.00
 42
0.1006644
  0
VERTEX
  8
TOPLAYER
 10
11.6826
 20
12.06
 30
0.00
 42
0.00
  0
SEQEND
  0
POLYLINE
  8
TOPLAYER
 66
1
 10
0.00
 20
0.00
 30
0.00
 40
0.20
 41
0.20
  0
VERTEX
  8
TOPLAYER
 10
11.8026
 20
11.94
 30
0.00
  0
VERTEX
  8
TOPLAYER
 10
11.8026
 20
12.06
 30
0.00
  0
SEQEND
  0
POLYLINE
  8
TOPLAYER
 66
1
 10
0.00
 20
0.00
 30
0.00
 40
0.20
 41
0.20
  0
VERTEX
  8
TOPLAYER
 10
11.6876
 20
9.58
 30
0.00
 42
0.0916627
  0
VERTEX
  8
TOPLAYER
 10
11.802594
 20
9.690002
 30
0.00
 42
0.00
  0
SEQEND
  0
POLYLINE
  8
TOPLAYER
 66
1
 10
0.00
 20
0.00
 30
0.00
 40
0.20
 41
0.20
  0
VERTEX
  8
TOPLAYER
 10
11.6876
 20
9.58
 30
0.00
  0
VERTEX
  8
TOPLAYER
 10
11.8026
 20
9.58
 30
0.00
  0
VERTEX
  8
TOPLAYER
 10
11.8026
 20
9.69
 30
0.00
  0
SEQEND
  0
POLYLINE
  8
TOPLAYER
 66
1
 10
0.00
 20
0.00
 30
0.00
 40
1.00
 41
1.00
  0
VERTEX
  8
TOPLAYER
 10
10.9276
 20
9.935
 30
0.00
  0
VERTEX
  8
TOPLAYER
 10
10.9276
 20
11.705
 30
0.00
  0
VERTEX
  8
TOPLAYER
 10
10.9276
 20
11.385
 30
0.00
  0
VERTEX
  8
TOPLAYER
 10
10.0876
 20
11.385
 30
0.00
  0
VERTEX
  8
TOPLAYER
 10
10.0876
 20
11.705
 30
0.00
  0
VERTEX
  8
TOPLAYER
 10
10.0876
 20
9.935
 30
0.00
  0
SEQEND
  0
POLYLINE
  8
TOPLAYER
 66
1
 10
0.00
 20
0.00
 30
0.00
 40
1.00
 41
1.00
  0
VERTEX
  8
TOPLAYER
 10
9.5776
 20
11.705
 30
0.00
  0
VERTEX
  8
TOPLAYER
 10
11.4476
 20
11.705
 30
0.00
  0
VERTEX
  8
TOPLAYER
 10
11.4476
 20
9.935
 30
0.00
  0
VERTEX
  8
TOPLAYER
 10
9.5776
 20
9.935
 30
0.00
  0
VERTEX
  8
TOPLAYER
 10
9.5776
 20
11.705
 30
0.00
  0
SEQEND
  0
POLYLINE
  8
TOPLAYER
 66
1
 10
0.00
 20
0.00
 30
0.00
 40
0.20
 41
0.20
  0
VERTEX
  8
TOPLAYER
 10
9.2226
 20
9.70
 30
0.00
  0
VERTEX
  8
TOPLAYER
 10
9.2226
 20
9.58
 30
0.00
  0
VERTEX
  8
TOPLAYER
 10
9.3426
 20
9.58
 30
0.00
  0
SEQEND
  0
POLYLINE
  8
TOPLAYER
 66
1
 10
0.00
 20
0.00
 30
0.00
 40
0.20
 41
0.20
  0
VERTEX
  8
TOPLAYER
 10
9.2226
 20
9.70
 30
0.00
 42
0.1006644
  0
VERTEX
  8
TOPLAYER
 10
9.3426
 20
9.58
 30
0.00
 42
0.00
  0
SEQEND
  0
POLYLINE
  8
TOPLAYER
 66
1
 10
0.00
 20
0.00
 30
0.00
 40
0.20
 41
0.20
  0
VERTEX
  8
TOPLAYER
 10
9.3426
 20
12.06
 30
0.00
  0
VERTEX
  8
TOPLAYER
 10
9.2226
 20
12.06
 30
0.00
  0
VERTEX
  8
TOPLAYER
 10
9.2276
 20
11.945
 30
0.00
  0
SEQEND
  0
POLYLINE
  8
TOPLAYER
 66
1
 10
0.00
 20
0.00
 30
0.00
 40
0.20
 41
0.20
  0
VERTEX
  8
TOPLAYER
 10
9.3426
 20
12.06
 30
0.00
 42
0.0965439
  0
VERTEX
  8
TOPLAYER
 10
9.226482
 20
11.945764
 30
0.00
 42
0.00
  0
SEQEND
  0
POLYLINE
  8
TOPLAYER
 66
1
 10
0.00
 20
0.00
 30
0.00
 40
0.20
 41
0.20
  0
VERTEX
  8
TOPLAYER
 10
11.8026
 20
12.06
 30
0.00
  0
VERTEX
  8
TOPLAYER
 10
11.6826
 20
12.06
 30
0.00
  0
SEQEND
  0
POLYLINE
  8
TOPLAYER
 66
1
 10
0.00
 20
0.00
 30
0.00
 40
0.20
 41
0.20
  0
VERTEX
  8
TOPLAYER
 10
11.8026
 20
11.94
 30
0.00
 42
0.1006644
  0
VERTEX
  8
TOPLAYER
 10
11.6826
 20
12.06
 30
0.00
 42
0.00
  0
SEQEND
  0
POLYLINE
  8
TOPLAYER
 66
1
 10
0.00
 20
0.00
 30
0.00
 40
0.20
 41
0.20
  0
VERTEX
  8
TOPLAYER
 10
11.8026
 20
11.94
 30
0.00
  0
VERTEX
  8
TOPLAYER
 10
11.8026
 20
12.06
 30
0.00
  0
SEQEND
  0
POLYLINE
  8
TOPLAYER
 66
1
 10
0.00
 20
0.00
 30
0.00
 40
0.20
 41
0.20
  0
VERTEX
  8
TOPLAYER
 10
11.6876
 20
9.58
 30
0.00
 42
0.0916627
  0
VERTEX
  8
TOPLAYER
 10
11.802594
 20
9.690002
 30
0.00
 42
0.00
  0
SEQEND
  0
POLYLINE
  8
TOPLAYER
 66
1
 10
0.00
 20
0.00
 30
0.00
 40
0.20
 41
0.20
  0
VERTEX
  8
TOPLAYER
 10
11.6876
 20
9.58
 30
0.00
  0
VERTEX
  8
TOPLAYER
 10
11.8026
 20
9.58
 30
0.00
  0
VERTEX
  8
TOPLAYER
 10
11.8026
 20
9.69
 30
0.00
  0
SEQEND
  0
POLYLINE
  8
TOPLAYER
 66
1
 10
0.00
 20
0.00
 30
0.00
 40
1.00
 41
1.00
  0
VERTEX
  8
TOPLAYER
 10
10.9276
 20
9.935
 30
0.00
  0
VERTEX
  8
TOPLAYER
 10
10.9276
 20
11.705
 30
0.00
  0
VERTEX
  8
TOPLAYER
 10
10.9276
 20
11.385
 30
0.00
  0
VERTEX
  8
TOPLAYER
 10
10.0876
 20
11.385
 30
0.00
  0
VERTEX
  8
TOPLAYER
 10
10.0876
 20
11.705
 30
0.00
  0
VERTEX
  8
TOPLAYER
 10
10.0876
 20
9.935
 30
0.00
  0
SEQEND
  0
POLYLINE
  8
TOPLAYER
 66
1
 10
0.00
 20
0.00
 30
0.00
 40
1.00
 41
1.00
  0
VERTEX
  8
TOPLAYER
 10
9.5776
 20
11.705
 30
0.00
  0
VERTEX
  8
TOPLAYER
 10
11.4476
 20
11.705
 30
0.00
  0
VERTEX
  8
TOPLAYER
 10
11.4476
 20
9.935
 30
0.00
  0
VERTEX
  8
TOPLAYER
 10
9.5776
 20
9.935
 30
0.00
  0
VERTEX
  8
TOPLAYER
 10
9.5776
 20
11.705
 30
0.00
  0
SEQEND
  0
POLYLINE
  8
TOPLAYER
 66
1
 10
0.00
 20
0.00
 30
0.00
 40
0.20
 41
0.20
  0
VERTEX
  8
TOPLAYER
 10
11.8876
 20
12.145
 30
0.00
  0
VERTEX
  8
TOPLAYER
 10
9.1376
 20
12.145
 30
0.00
  0
VERTEX
  8
TOPLAYER
 10
9.1376
 20
9.495
 30
0.00
  0
VERTEX
  8
TOPLAYER
 10
11.8876
 20
9.495
 30
0.00
  0
VERTEX
  8
TOPLAYER
 10
11.8876
 20
12.145
 30
0.00
  0
SEQEND
  0
POLYLINE
  8
TOPLAYER
 66
1
 10
0.00
 20
0.00
 30
0.00
 40
0.20
 41
0.20
  0
VERTEX
  8
TOPLAYER
 10
9.2226
 20
9.70
 30
0.00
  0
VERTEX
  8
TOPLAYER
 10
9.2226
 20
9.58
 30
0.00
  0
VERTEX
  8
TOPLAYER
 10
9.3426
 20
9.58
 30
0.00
  0
SEQEND
  0
POLYLINE
  8
TOPLAYER
 66
1
 10
0.00
 20
0.00
 30
0.00
 40
0.20
 41
0.20
  0
VERTEX
  8
TOPLAYER
 10
9.2226
 20
9.70
 30
0.00
 42
0.1006644
  0
VERTEX
  8
TOPLAYER
 10
9.3426
 20
9.58
 30
0.00
 42
0.00
  0
SEQEND
  0
POLYLINE
  8
TOPLAYER
 66
1
 10
0.00
 20
0.00
 30
0.00
 40
0.20
 41
0.20
  0
VERTEX
  8
TOPLAYER
 10
9.3426
 20
12.06
 30
0.00
  0
VERTEX
  8
TOPLAYER
 10
9.2226
 20
12.06
 30
0.00
  0
VERTEX
  8
TOPLAYER
 10
9.2276
 20
11.945
 30
0.00
  0
SEQEND
  0
POLYLINE
  8
TOPLAYER
 66
1
 10
0.00
 20
0.00
 30
0.00
 40
0.20
 41
0.20
  0
VERTEX
  8
TOPLAYER
 10
9.3426
 20
12.06
 30
0.00
 42
0.0965439
  0
VERTEX
  8
TOPLAYER
 10
9.226482
 20
11.945764
 30
0.00
 42
0.00
  0
SEQEND
  0
POLYLINE
  8
TOPLAYER
 66
1
 10
0.00
 20
0.00
 30
0.00
 40
0.20
 41
0.20
  0
VERTEX
  8
TOPLAYER
 10
11.8026
 20
12.06
 30
0.00
  0
VERTEX
  8
TOPLAYER
 10
11.6826
 20
12.06
 30
0.00
  0
SEQEND
  0
POLYLINE
  8
TOPLAYER
 66
1
 10
0.00
 20
0.00
 30
0.00
 40
0.20
 41
0.20
  0
VERTEX
  8
TOPLAYER
 10
11.8026
 20
11.94
 30
0.00
 42
0.1006644
  0
VERTEX
  8
TOPLAYER
 10
11.6826
 20
12.06
 30
0.00
 42
0.00
  0
SEQEND
  0
POLYLINE
  8
TOPLAYER
 66
1
 10
0.00
 20
0.00
 30
0.00
 40
0.20
 41
0.20
  0
VERTEX
  8
TOPLAYER
 10
11.8026
 20
11.94
 30
0.00
  0
VERTEX
  8
TOPLAYER
 10
11.8026
 20
12.06
 30
0.00
  0
SEQEND
  0
POLYLINE
  8
TOPLAYER
 66
1
 10
0.00
 20
0.00
 30
0.00
 40
0.20
 41
0.20
  0
VERTEX
  8
TOPLAYER
 10
11.6876
 20
9.58
 30
0.00
 42
0.0916627
  0
VERTEX
  8
TOPLAYER
 10
11.802594
 20
9.690002
 30
0.00
 42
0.00
  0
SEQEND
  0
POLYLINE
  8
TOPLAYER
 66
1
 10
0.00
 20
0.00
 30
0.00
 40
0.20
 41
0.20
  0
VERTEX
  8
TOPLAYER
 10
11.6876
 20
9.58
 30
0.00
  0
VERTEX
  8
TOPLAYER
 10
11.8026
 20
9.58
 30
0.00
  0
VERTEX
  8
TOPLAYER
 10
11.8026
 20
9.69
 30
0.00
  0
SEQEND
  0
POLYLINE
  8
TOPLAYER
 66
1
 10
0.00
 20
0.00
 30
0.00
 40
1.00
 41
1.00
  0
VERTEX
  8
TOPLAYER
 10
10.9276
 20
9.935
 30
0.00
  0
VERTEX
  8
TOPLAYER
 10
10.9276
 20
11.705
 30
0.00
  0
VERTEX
  8
TOPLAYER
 10
10.9276
 20
11.385
 30
0.00
  0
VERTEX
  8
TOPLAYER
 10
10.0876
 20
11.385
 30
0.00
  0
VERTEX
  8
TOPLAYER
 10
10.0876
 20
11.705
 30
0.00
  0
VERTEX
  8
TOPLAYER
 10
10.0876
 20
9.935
 30
0.00
  0
SEQEND
  0
POLYLINE
  8
TOPLAYER
 66
1
 10
0.00
 20
0.00
 30
0.00
 40
1.00
 41
1.00
  0
VERTEX
  8
TOPLAYER
 10
9.5776
 20
11.705
 30
0.00
  0
VERTEX
  8
TOPLAYER
 10
11.4476
 20
11.705
 30
0.00
  0
VERTEX
  8
TOPLAYER
 10
11.4476
 20
9.935
 30
0.00
  0
VERTEX
  8
TOPLAYER
 10
9.5776
 20
9.935
 30
0.00
  0
VERTEX
  8
TOPLAYER
 10
9.5776
 20
11.705
 30
0.00
  0
SEQEND
  0
POLYLINE
  8
TOPLAYER
 66
1
 10
0.00
 20
0.00
 30
0.00
 40
0.20
 41
0.20
  0
VERTEX
  8
TOPLAYER
 10
9.2226
 20
9.70
 30
0.00
  0
VERTEX
  8
TOPLAYER
 10
9.2226
 20
9.58
 30
0.00
  0
VERTEX
  8
TOPLAYER
 10
9.3426
 20
9.58
 30
0.00
  0
SEQEND
  0
POLYLINE
  8
TOPLAYER
 66
1
 10
0.00
 20
0.00
 30
0.00
 40
0.20
 41
0.20
  0
VERTEX
  8
TOPLAYER
 10
9.2226
 20
9.70
 30
0.00
 42
0.1006644
  0
VERTEX
  8
TOPLAYER
 10
9.3426
 20
9.58
 30
0.00
 42
0.00
  0
SEQEND
  0
POLYLINE
  8
TOPLAYER
 66
1
 10
0.00
 20
0.00
 30
0.00
 40
0.20
 41
0.20
  0
VERTEX
  8
TOPLAYER
 10
9.3426
 20
12.06
 30
0.00
  0
VERTEX
  8
TOPLAYER
 10
9.2226
 20
12.06
 30
0.00
  0
VERTEX
  8
TOPLAYER
 10
9.2276
 20
11.945
 30
0.00
  0
SEQEND
  0
POLYLINE
  8
TOPLAYER
 66
1
 10
0.00
 20
0.00
 30
0.00
 40
0.20
 41
0.20
  0
VERTEX
  8
TOPLAYER
 10
9.3426
 20
12.06
 30
0.00
 42
0.0965439
  0
VERTEX
  8
TOPLAYER
 10
9.226482
 20
11.945764
 30
0.00
 42
0.00
  0
SEQEND
  0
POLYLINE
  8
TOPLAYER
 66
1
 10
0.00
 20
0.00
 30
0.00
 40
0.20
 41
0.20
  0
VERTEX
  8
TOPLAYER
 10
11.8026
 20
12.06
 30
0.00
  0
VERTEX
  8
TOPLAYER
 10
11.6826
 20
12.06
 30
0.00
  0
SEQEND
  0
POLYLINE
  8
TOPLAYER
 66
1
 10
0.00
 20
0.00
 30
0.00
 40
0.20
 41
0.20
  0
VERTEX
  8
TOPLAYER
 10
11.8026
 20
11.94
 30
0.00
 42
0.1006644
  0
VERTEX
  8
TOPLAYER
 10
11.6826
 20
12.06
 30
0.00
 42
0.00
  0
SEQEND
  0
POLYLINE
  8
TOPLAYER
 66
1
 10
0.00
 20
0.00
 30
0.00
 40
0.20
 41
0.20
  0
VERTEX
  8
TOPLAYER
 10
11.8026
 20
11.94
 30
0.00
  0
VERTEX
  8
TOPLAYER
 10
11.8026
 20
12.06
 30
0.00
  0
SEQEND
  0
POLYLINE
  8
TOPLAYER
 66
1
 10
0.00
 20
0.00
 30
0.00
 40
0.20
 41
0.20
  0
VERTEX
  8
TOPLAYER
 10
11.6876
 20
9.58
 30
0.00
 42
0.0916627
  0
VERTEX
  8
TOPLAYER
 10
11.802594
 20
9.690002
 30
0.00
 42
0.00
  0
SEQEND
  0
POLYLINE
  8
TOPLAYER
 66
1
 10
0.00
 20
0.00
 30
0.00
 40
0.20
 41
0.20
  0
VERTEX
  8
TOPLAYER
 10
11.6876
 20
9.58
 30
0.00
  0
VERTEX
  8
TOPLAYER
 10
11.8026
 20
9.58
 30
0.00
  0
VERTEX
  8
TOPLAYER
 10
11.8026
 20
9.69
 30
0.00
  0
SEQEND
  0
POLYLINE
  8
TOPLAYER
 66
1
 10
0.00
 20
0.00
 30
0.00
 40
1.00
 41
1.00
  0
VERTEX
  8
TOPLAYER
 10
10.9276
 20
9.935
 30
0.00
  0
VERTEX
  8
TOPLAYER
 10
10.9276
 20
11.705
 30
0.00
  0
VERTEX
  8
TOPLAYER
 10
10.9276
 20
11.385
 30
0.00
  0
VERTEX
  8
TOPLAYER
 10
10.0876
 20
11.385
 30
0.00
  0
VERTEX
  8
TOPLAYER
 10
10.0876
 20
11.705
 30
0.00
  0
VERTEX
  8
TOPLAYER
 10
10.0876
 20
9.935
 30
0.00
  0
SEQEND
  0
POLYLINE
  8
TOPLAYER
 66
1
 10
0.00
 20
0.00
 30
0.00
 40
1.00
 41
1.00
  0
VERTEX
  8
TOPLAYER
 10
9.5776
 20
11.705
 30
0.00
  0
VERTEX
  8
TOPLAYER
 10
11.4476
 20
11.705
 30
0.00
  0
VERTEX
  8
TOPLAYER
 10
11.4476
 20
9.935
 30
0.00
  0
VERTEX
  8
TOPLAYER
 10
9.5776
 20
9.935
 30
0.00
  0
VERTEX
  8
TOPLAYER
 10
9.5776
 20
11.705
 30
0.00
  0
SEQEND
  0
POLYLINE
  8
TOPLAYER
 66
1
 10
0.00
 20
0.00
 30
0.00
 40
0.20
 41
0.20
  0
VERTEX
  8
TOPLAYER
 10
9.2226
 20
9.70
 30
0.00
  0
VERTEX
  8
TOPLAYER
 10
9.2226
 20
9.58
 30
0.00
  0
VERTEX
  8
TOPLAYER
 10
9.3426
 20
9.58
 30
0.00
  0
SEQEND
  0
POLYLINE
  8
TOPLAYER
 66
1
 10
0.00
 20
0.00
 30
0.00
 40
0.20
 41
0.20
  0
VERTEX
  8
TOPLAYER
 10
9.2226
 20
9.70
 30
0.00
 42
0.1006644
  0
VERTEX
  8
TOPLAYER
 10
9.3426
 20
9.58
 30
0.00
 42
0.00
  0
SEQEND
  0
POLYLINE
  8
TOPLAYER
 66
1
 10
0.00
 20
0.00
 30
0.00
 40
0.20
 41
0.20
  0
VERTEX
  8
TOPLAYER
 10
9.3426
 20
12.06
 30
0.00
  0
VERTEX
  8
TOPLAYER
 10
9.2226
 20
12.06
 30
0.00
  0
VERTEX
  8
TOPLAYER
 10
9.2276
 20
11.945
 30
0.00
  0
SEQEND
  0
POLYLINE
  8
TOPLAYER
 66
1
 10
0.00
 20
0.00
 30
0.00
 40
0.20
 41
0.20
  0
VERTEX
  8
TOPLAYER
 10
9.3426
 20
12.06
 30
0.00
 42
0.0965439
  0
VERTEX
  8
TOPLAYER
 10
9.226482
 20
11.945764
 30
0.00
 42
0.00
  0
SEQEND
  0
POLYLINE
  8
TOPLAYER
 66
1
 10
0.00
 20
0.00
 30
0.00
 40
0.20
 41
0.20
  0
VERTEX
  8
TOPLAYER
 10
11.8026
 20
12.06
 30
0.00
  0
VERTEX
  8
TOPLAYER
 10
11.6826
 20
12.06
 30
0.00
  0
SEQEND
  0
POLYLINE
  8
TOPLAYER
 66
1
 10
0.00
 20
0.00
 30
0.00
 40
0.20
 41
0.20
  0
VERTEX
  8
TOPLAYER
 10
11.8026
 20
11.94
 30
0.00
 42
0.1006644
  0
VERTEX
  8
TOPLAYER
 10
11.6826
 20
12.06
 30
0.00
 42
0.00
  0
SEQEND
  0
POLYLINE
  8
TOPLAYER
 66
1
 10
0.00
 20
0.00
 30
0.00
 40
0.20
 41
0.20
  0
VERTEX
  8
TOPLAYER
 10
11.8026
 20
11.94
 30
0.00
  0
VERTEX
  8
TOPLAYER
 10
11.8026
 20
12.06
 30
0.00
  0
SEQEND
  0
POLYLINE
  8
TOPLAYER
 66
1
 10
0.00
 20
0.00
 30
0.00
 40
0.20
 41
0.20
  0
VERTEX
  8
TOPLAYER
 10
11.6876
 20
9.58
 30
0.00
 42
0.0916627
  0
VERTEX
  8
TOPLAYER
 10
11.802594
 20
9.690002
 30
0.00
 42
0.00
  0
SEQEND
  0
POLYLINE
  8
TOPLAYER
 66
1
 10
0.00
 20
0.00
 30
0.00
 40
0.20
 41
0.20
  0
VERTEX
  8
TOPLAYER
 10
11.6876
 20
9.58
 30
0.00
  0
VERTEX
  8
TOPLAYER
 10
11.8026
 20
9.58
 30
0.00
  0
VERTEX
  8
TOPLAYER
 10
11.8026
 20
9.69
 30
0.00
  0
SEQEND
  0
POLYLINE
  8
TOPLAYER
 66
1
 10
0.00
 20
0.00
 30
0.00
 40
1.00
 41
1.00
  0
VERTEX
  8
TOPLAYER
 10
10.9276
 20
9.935
 30
0.00
  0
VERTEX
  8
TOPLAYER
 10
10.9276
 20
11.705
 30
0.00
  0
VERTEX
  8
TOPLAYER
 10
10.9276
 20
11.385
 30
0.00
  0
VERTEX
  8
TOPLAYER
 10
10.0876
 20
11.385
 30
0.00
  0
VERTEX
  8
TOPLAYER
 10
10.0876
 20
11.705
 30
0.00
  0
VERTEX
  8
TOPLAYER
 10
10.0876
 20
9.935
 30
0.00
  0
SEQEND
  0
POLYLINE
  8
TOPLAYER
 66
1
 10
0.00
 20
0.00
 30
0.00
 40
1.00
 41
1.00
  0
VERTEX
  8
TOPLAYER
 10
9.5776
 20
11.705
 30
0.00
  0
VERTEX
  8
TOPLAYER
 10
11.4476
 20
11.705
 30
0.00
  0
VERTEX
  8
TOPLAYER
 10
11.4476
 20
9.935
 30
0.00
  0
VERTEX
  8
TOPLAYER
 10
9.5776
 20
9.935
 30
0.00
  0
VERTEX
  8
TOPLAYER
 10
9.5776
 20
11.705
 30
0.00
  0
SEQEND
  0
POLYLINE
  8
TOPLAYER
 66
1
 10
0.00
 20
0.00
 30
0.00
 40
0.20
 41
0.20
  0
VERTEX
  8
TOPLAYER
 10
11.8876
 20
12.145
 30
0.00
  0
VERTEX
  8
TOPLAYER
 10
9.1376
 20
12.145
 30
0.00
  0
VERTEX
  8
TOPLAYER
 10
9.1376
 20
9.495
 30
0.00
  0
VERTEX
  8
TOPLAYER
 10
11.8876
 20
9.495
 30
0.00
  0
VERTEX
  8
TOPLAYER
 10
11.8876
 20
12.145
 30
0.00
  0
SEQEND
  0
POLYLINE
  8
TOPLAYER
 66
1
 10
0.00
 20
0.00
 30
0.00
 40
0.20
 41
0.20
  0
VERTEX
  8
TOPLAYER
 10
9.2226
 20
9.70
 30
0.00
  0
VERTEX
  8
TOPLAYER
 10
9.2226
 20
9.58
 30
0.00
  0
VERTEX
  8
TOPLAYER
 10
9.3426
 20
9.58
 30
0.00
  0
SEQEND
  0
POLYLINE
  8
TOPLAYER
 66
1
 10
0.00
 20
0.00
 30
0.00
 40
0.20
 41
0.20
  0
VERTEX
  8
TOPLAYER
 10
9.2226
 20
9.70
 30
0.00
 42
0.1006644
  0
VERTEX
  8
TOPLAYER
 10
9.3426
 20
9.58
 30
0.00
 42
0.00
  0
SEQEND
  0
POLYLINE
  8
TOPLAYER
 66
1
 10
0.00
 20
0.00
 30
0.00
 40
0.20
 41
0.20
  0
VERTEX
  8
TOPLAYER
 10
9.3426
 20
12.06
 30
0.00
  0
VERTEX
  8
TOPLAYER
 10
9.2226
 20
12.06
 30
0.00
  0
VERTEX
  8
TOPLAYER
 10
9.2276
 20
11.945
 30
0.00
  0
SEQEND
  0
POLYLINE
  8
TOPLAYER
 66
1
 10
0.00
 20
0.00
 30
0.00
 40
0.20
 41
0.20
  0
VERTEX
  8
TOPLAYER
 10
9.3426
 20
12.06
 30
0.00
 42
0.0965439
  0
VERTEX
  8
TOPLAYER
 10
9.226482
 20
11.945764
 30
0.00
 42
0.00
  0
SEQEND
  0
POLYLINE
  8
TOPLAYER
 66
1
 10
0.00
 20
0.00
 30
0.00
 40
0.20
 41
0.20
  0
VERTEX
  8
TOPLAYER
 10
11.8026
 20
12.06
 30
0.00
  0
VERTEX
  8
TOPLAYER
 10
11.6826
 20
12.06
 30
0.00
  0
SEQEND
  0
POLYLINE
  8
TOPLAYER
 66
1
 10
0.00
 20
0.00
 30
0.00
 40
0.20
 41
0.20
  0
VERTEX
  8
TOPLAYER
 10
11.8026
 20
11.94
 30
0.00
 42
0.1006644
  0
VERTEX
  8
TOPLAYER
 10
11.6826
 20
12.06
 30
0.00
 42
0.00
  0
SEQEND
  0
POLYLINE
  8
TOPLAYER
 66
1
 10
0.00
 20
0.00
 30
0.00
 40
0.20
 41
0.20
  0
VERTEX
  8
TOPLAYER
 10
11.8026
 20
11.94
 30
0.00
  0
VERTEX
  8
TOPLAYER
 10
11.8026
 20
12.06
 30
0.00
  0
SEQEND
  0
POLYLINE
  8
TOPLAYER
 66
1
 10
0.00
 20
0.00
 30
0.00
 40
0.20
 41
0.20
  0
VERTEX
  8
TOPLAYER
 10
11.6876
 20
9.58
 30
0.00
 42
0.0916627
  0
VERTEX
  8
TOPLAYER
 10
11.802594
 20
9.690002
 30
0.00
 42
0.00
  0
SEQEND
  0
POLYLINE
  8
TOPLAYER
 66
1
 10
0.00
 20
0.00
 30
0.00
 40
0.20
 41
0.20
  0
VERTEX
  8
TOPLAYER
 10
11.6876
 20
9.58
 30
0.00
  0
VERTEX
  8
TOPLAYER
 10
11.8026
 20
9.58
 30
0.00
  0
VERTEX
  8
TOPLAYER
 10
11.8026
 20
9.69
 30
0.00
  0
SEQEND
  0
POLYLINE
  8
TOPLAYER
 66
1
 10
0.00
 20
0.00
 30
0.00
 40
1.00
 41
1.00
  0
VERTEX
  8
TOPLAYER
 10
10.9276
 20
9.935
 30
0.00
  0
VERTEX
  8
TOPLAYER
 10
10.9276
 20
11.705
 30
0.00
  0
VERTEX
  8
TOPLAYER
 10
10.9276
 20
11.385
 30
0.00
  0
VERTEX
  8
TOPLAYER
 10
10.0876
 20
11.385
 30
0.00
  0
VERTEX
  8
TOPLAYER
 10
10.0876
 20
11.705
 30
0.00
  0
VERTEX
  8
TOPLAYER
 10
10.0876
 20
9.935
 30
0.00
  0
SEQEND
  0
POLYLINE
  8
TOPLAYER
 66
1
 10
0.00
 20
0.00
 30
0.00
 40
1.00
 41
1.00
  0
VERTEX
  8
TOPLAYER
 10
9.5776
 20
11.705
 30
0.00
  0
VERTEX
  8
TOPLAYER
 10
11.4476
 20
11.705
 30
0.00
  0
VERTEX
  8
TOPLAYER
 10
11.4476
 20
9.935
 30
0.00
  0
VERTEX
  8
TOPLAYER
 10
9.5776
 20
9.935
 30
0.00
  0
VERTEX
  8
TOPLAYER
 10
9.5776
 20
11.705
 30
0.00
  0
SEQEND
  0
POLYLINE
  8
TOPLAYER
 66
1
 10
0.00
 20
0.00
 30
0.00
 40
0.20
 41
0.20
  0
VERTEX
  8
TOPLAYER
 10
9.2226
 20
9.70
 30
0.00
  0
VERTEX
  8
TOPLAYER
 10
9.2226
 20
9.58
 30
0.00
  0
VERTEX
  8
TOPLAYER
 10
9.3426
 20
9.58
 30
0.00
  0
SEQEND
  0
POLYLINE
  8
TOPLAYER
 66
1
 10
0.00
 20
0.00
 30
0.00
 40
0.20
 41
0.20
  0
VERTEX
  8
TOPLAYER
 10
9.2226
 20
9.70
 30
0.00
 42
0.1006644
  0
VERTEX
  8
TOPLAYER
 10
9.3426
 20
9.58
 30
0.00
 42
0.00
  0
SEQEND
  0
POLYLINE
  8
TOPLAYER
 66
1
 10
0.00
 20
0.00
 30
0.00
 40
0.20
 41
0.20
  0
VERTEX
  8
TOPLAYER
 10
9.3426
 20
12.06
 30
0.00
  0
VERTEX
  8
TOPLAYER
 10
9.2226
 20
12.06
 30
0.00
  0
VERTEX
  8
TOPLAYER
 10
9.2276
 20
11.945
 30
0.00
  0
SEQEND
  0
POLYLINE
  8
TOPLAYER
 66
1
 10
0.00
 20
0.00
 30
0.00
 40
0.20
 41
0.20
  0
VERTEX
  8
TOPLAYER
 10
9.3426
 20
12.06
 30
0.00
 42
0.0965439
  0
VERTEX
  8
TOPLAYER
 10
9.226482
 20
11.945764
 30
0.00
 42
0.00
  0
SEQEND
  0
POLYLINE
  8
TOPLAYER
 66
1
 10
0.00
 20
0.00
 30
0.00
 40
0.20
 41
0.20
  0
VERTEX
  8
TOPLAYER
 10
11.8026
 20
12.06
 30
0.00
  0
VERTEX
  8
TOPLAYER
 10
11.6826
 20
12.06
 30
0.00
  0
SEQEND
  0
POLYLINE
  8
TOPLAYER
 66
1
 10
0.00
 20
0.00
 30
0.00
 40
0.20
 41
0.20
  0
VERTEX
  8
TOPLAYER
 10
11.8026
 20
11.94
 30
0.00
 42
0.1006644
  0
VERTEX
  8
TOPLAYER
 10
11.6826
 20
12.06
 30
0.00
 42
0.00
  0
SEQEND
  0
POLYLINE
  8
TOPLAYER
 66
1
 10
0.00
 20
0.00
 30
0.00
 40
0.20
 41
0.20
  0
VERTEX
  8
TOPLAYER
 10
11.8026
 20
11.94
 30
0.00
  0
VERTEX
  8
TOPLAYER
 10
11.8026
 20
12.06
 30
0.00
  0
SEQEND
  0
POLYLINE
  8
TOPLAYER
 66
1
 10
0.00
 20
0.00
 30
0.00
 40
0.20
 41
0.20
  0
VERTEX
  8
TOPLAYER
 10
11.6876
 20
9.58
 30
0.00
 42
0.0916627
  0
VERTEX
  8
TOPLAYER
 10
11.802594
 20
9.690002
 30
0.00
 42
0.00
  0
SEQEND
  0
POLYLINE
  8
TOPLAYER
 66
1
 10
0.00
 20
0.00
 30
0.00
 40
0.20
 41
0.20
  0
VERTEX
  8
TOPLAYER
 10
11.6876
 20
9.58
 30
0.00
  0
VERTEX
  8
TOPLAYER
 10
11.8026
 20
9.58
 30
0.00
  0
VERTEX
  8
TOPLAYER
 10
11.8026
 20
9.69
 30
0.00
  0
SEQEND
  0
POLYLINE
  8
TOPLAYER
 66
1
 10
0.00
 20
0.00
 30
0.00
 40
1.00
 41
1.00
  0
VERTEX
  8
TOPLAYER
 10
10.9276
 20
9.935
 30
0.00
  0
VERTEX
  8
TOPLAYER
 10
10.9276
 20
11.705
 30
0.00
  0
VERTEX
  8
TOPLAYER
 10
10.9276
 20
11.385
 30
0.00
  0
VERTEX
  8
TOPLAYER
 10
10.0876
 20
11.385
 30
0.00
  0
VERTEX
  8
TOPLAYER
 10
10.0876
 20
11.705
 30
0.00
  0
VERTEX
  8
TOPLAYER
 10
10.0876
 20
9.935
 30
0.00
  0
SEQEND
  0
POLYLINE
  8
TOPLAYER
 66
1
 10
0.00
 20
0.00
 30
0.00
 40
1.00
 41
1.00
  0
VERTEX
  8
TOPLAYER
 10
9.5776
 20
11.705
 30
0.00
  0
VERTEX
  8
TOPLAYER
 10
11.4476
 20
11.705
 30
0.00
  0
VERTEX
  8
TOPLAYER
 10
11.4476
 20
9.935
 30
0.00
  0
VERTEX
  8
TOPLAYER
 10
9.5776
 20
9.935
 30
0.00
  0
VERTEX
  8
TOPLAYER
 10
9.5776
 20
11.705
 30
0.00
  0
SEQEND
  0
POLYLINE
  8
TOPLAYER
 66
1
 10
0.00
 20
0.00
 30
0.00
 40
0.20
 41
0.20
  0
VERTEX
  8
TOPLAYER
 10
9.2226
 20
9.70
 30
0.00
  0
VERTEX
  8
TOPLAYER
 10
9.2226
 20
9.58
 30
0.00
  0
VERTEX
  8
TOPLAYER
 10
9.3426
 20
9.58
 30
0.00
  0
SEQEND
  0
POLYLINE
  8
TOPLAYER
 66
1
 10
0.00
 20
0.00
 30
0.00
 40
0.20
 41
0.20
  0
VERTEX
  8
TOPLAYER
 10
9.2226
 20
9.70
 30
0.00
 42
0.1006644
  0
VERTEX
  8
TOPLAYER
 10
9.3426
 20
9.58
 30
0.00
 42
0.00
  0
SEQEND
  0
POLYLINE
  8
TOPLAYER
 66
1
 10
0.00
 20
0.00
 30
0.00
 40
0.20
 41
0.20
  0
VERTEX
  8
TOPLAYER
 10
9.3426
 20
12.06
 30
0.00
  0
VERTEX
  8
TOPLAYER
 10
9.2226
 20
12.06
 30
0.00
  0
VERTEX
  8
TOPLAYER
 10
9.2276
 20
11.945
 30
0.00
  0
SEQEND
  0
POLYLINE
  8
TOPLAYER
 66
1
 10
0.00
 20
0.00
 30
0.00
 40
0.20
 41
0.20
  0
VERTEX
  8
TOPLAYER
 10
9.3426
 20
12.06
 30
0.00
 42
0.0965439
  0
VERTEX
  8
TOPLAYER
 10
9.226482
 20
11.945764
 30
0.00
 42
0.00
  0
SEQEND
  0
POLYLINE
  8
TOPLAYER
 66
1
 10
0.00
 20
0.00
 30
0.00
 40
0.20
 41
0.20
  0
VERTEX
  8
TOPLAYER
 10
11.8026
 20
12.06
 30
0.00
  0
VERTEX
  8
TOPLAYER
 10
11.6826
 20
12.06
 30
0.00
  0
SEQEND
  0
POLYLINE
  8
TOPLAYER
 66
1
 10
0.00
 20
0.00
 30
0.00
 40
0.20
 41
0.20
  0
VERTEX
  8
TOPLAYER
 10
11.8026
 20
11.94
 30
0.00
 42
0.1006644
  0
VERTEX
  8
TOPLAYER
 10
11.6826
 20
12.06
 30
0.00
 42
0.00
  0
SEQEND
  0
POLYLINE
  8
TOPLAYER
 66
1
 10
0.00
 20
0.00
 30
0.00
 40
0.20
 41
0.20
  0
VERTEX
  8
TOPLAYER
 10
11.8026
 20
11.94
 30
0.00
  0
VERTEX
  8
TOPLAYER
 10
11.8026
 20
12.06
 30
0.00
  0
SEQEND
  0
POLYLINE
  8
TOPLAYER
 66
1
 10
0.00
 20
0.00
 30
0.00
 40
0.20
 41
0.20
  0
VERTEX
  8
TOPLAYER
 10
11.6876
 20
9.58
 30
0.00
 42
0.0916627
  0
VERTEX
  8
TOPLAYER
 10
11.802594
 20
9.690002
 30
0.00
 42
0.00
  0
SEQEND
  0
POLYLINE
  8
TOPLAYER
 66
1
 10
0.00
 20
0.00
 30
0.00
 40
0.20
 41
0.20
  0
VERTEX
  8
TOPLAYER
 10
11.6876
 20
9.58
 30
0.00
  0
VERTEX
  8
TOPLAYER
 10
11.8026
 20
9.58
 30
0.00
  0
VERTEX
  8
TOPLAYER
 10
11.8026
 20
9.69
 30
0.00
  0
SEQEND
  0
POLYLINE
  8
TOPLAYER
 66
1
 10
0.00
 20
0.00
 30
0.00
 40
1.00
 41
1.00
  0
VERTEX
  8
TOPLAYER
 10
10.9276
 20
9.935
 30
0.00
  0
VERTEX
  8
TOPLAYER
 10
10.9276
 20
11.705
 30
0.00
  0
VERTEX
  8
TOPLAYER
 10
10.9276
 20
11.385
 30
0.00
  0
VERTEX
  8
TOPLAYER
 10
10.0876
 20
11.385
 30
0.00
  0
VERTEX
  8
TOPLAYER
 10
10.0876
 20
11.705
 30
0.00
  0
VERTEX
  8
TOPLAYER
 10
10.0876
 20
9.935
 30
0.00
  0
SEQEND
  0
POLYLINE
  8
TOPLAYER
 66
1
 10
0.00
 20
0.00
 30
0.00
 40
1.00
 41
1.00
  0
VERTEX
  8
TOPLAYER
 10
9.5776
 20
11.705
 30
0.00
  0
VERTEX
  8
TOPLAYER
 10
11.4476
 20
11.705
 30
0.00
  0
VERTEX
  8
TOPLAYER
 10
11.4476
 20
9.935
 30
0.00
  0
VERTEX
  8
TOPLAYER
 10
9.5776
 20
9.935
 30
0.00
  0
VERTEX
  8
TOPLAYER
 10
9.5776
 20
11.705
 30
0.00
  0
SEQEND
  0
POLYLINE
  8
TOPLAYER
 66
1
 10
0.00
 20
0.00
 30
0.00
 40
0.20
 41
0.20
  0
VERTEX
  8
TOPLAYER
 10
11.8876
 20
12.145
 30
0.00
  0
VERTEX
  8
TOPLAYER
 10
9.1376
 20
12.145
 30
0.00
  0
VERTEX
  8
TOPLAYER
 10
9.1376
 20
9.495
 30
0.00
  0
VERTEX
  8
TOPLAYER
 10
11.8876
 20
9.495
 30
0.00
  0
VERTEX
  8
TOPLAYER
 10
11.8876
 20
12.145
 30
0.00
  0
SEQEND
  0
POLYLINE
  8
TOPLAYER
 66
1
 10
0.00
 20
0.00
 30
0.00
 40
0.20
 41
0.20
  0
VERTEX
  8
TOPLAYER
 10
9.2226
 20
9.70
 30
0.00
  0
VERTEX
  8
TOPLAYER
 10
9.2226
 20
9.58
 30
0.00
  0
VERTEX
  8
TOPLAYER
 10
9.3426
 20
9.58
 30
0.00
  0
SEQEND
  0
POLYLINE
  8
TOPLAYER
 66
1
 10
0.00
 20
0.00
 30
0.00
 40
0.20
 41
0.20
  0
VERTEX
  8
TOPLAYER
 10
9.2226
 20
9.70
 30
0.00
 42
0.1006644
  0
VERTEX
  8
TOPLAYER
 10
9.3426
 20
9.58
 30
0.00
 42
0.00
  0
SEQEND
  0
POLYLINE
  8
TOPLAYER
 66
1
 10
0.00
 20
0.00
 30
0.00
 40
0.20
 41
0.20
  0
VERTEX
  8
TOPLAYER
 10
9.3426
 20
12.06
 30
0.00
  0
VERTEX
  8
TOPLAYER
 10
9.2226
 20
12.06
 30
0.00
  0
VERTEX
  8
TOPLAYER
 10
9.2276
 20
11.945
 30
0.00
  0
SEQEND
  0
POLYLINE
  8
TOPLAYER
 66
1
 10
0.00
 20
0.00
 30
0.00
 40
0.20
 41
0.20
  0
VERTEX
  8
TOPLAYER
 10
9.3426
 20
12.06
 30
0.00
 42
0.0965439
  0
VERTEX
  8
TOPLAYER
 10
9.226482
 20
11.945764
 30
0.00
 42
0.00
  0
SEQEND
  0
POLYLINE
  8
TOPLAYER
 66
1
 10
0.00
 20
0.00
 30
0.00
 40
0.20
 41
0.20
  0
VERTEX
  8
TOPLAYER
 10
11.8026
 20
12.06
 30
0.00
  0
VERTEX
  8
TOPLAYER
 10
11.6826
 20
12.06
 30
0.00
  0
SEQEND
  0
POLYLINE
  8
TOPLAYER
 66
1
 10
0.00
 20
0.00
 30
0.00
 40
0.20
 41
0.20
  0
VERTEX
  8
TOPLAYER
 10
11.8026
 20
11.94
 30
0.00
 42
0.1006644
  0
VERTEX
  8
TOPLAYER
 10
11.6826
 20
12.06
 30
0.00
 42
0.00
  0
SEQEND
  0
POLYLINE
  8
TOPLAYER
 66
1
 10
0.00
 20
0.00
 30
0.00
 40
0.20
 41
0.20
  0
VERTEX
  8
TOPLAYER
 10
11.8026
 20
11.94
 30
0.00
  0
VERTEX
  8
TOPLAYER
 10
11.8026
 20
12.06
 30
0.00
  0
SEQEND
  0
POLYLINE
  8
TOPLAYER
 66
1
 10
0.00
 20
0.00
 30
0.00
 40
0.20
 41
0.20
  0
VERTEX
  8
TOPLAYER
 10
11.6876
 20
9.58
 30
0.00
 42
0.0916627
  0
VERTEX
  8
TOPLAYER
 10
11.802594
 20
9.690002
 30
0.00
 42
0.00
  0
SEQEND
  0
POLYLINE
  8
TOPLAYER
 66
1
 10
0.00
 20
0.00
 30
0.00
 40
0.20
 41
0.20
  0
VERTEX
  8
TOPLAYER
 10
11.6876
 20
9.58
 30
0.00
  0
VERTEX
  8
TOPLAYER
 10
11.8026
 20
9.58
 30
0.00
  0
VERTEX
  8
TOPLAYER
 10
11.8026
 20
9.69
 30
0.00
  0
SEQEND
  0
POLYLINE
  8
TOPLAYER
 66
1
 10
0.00
 20
0.00
 30
0.00
 40
1.00
 41
1.00
  0
VERTEX
  8
TOPLAYER
 10
10.9276
 20
9.935
 30
0.00
  0
VERTEX
  8
TOPLAYER
 10
10.9276
 20
11.705
 30
0.00
  0
VERTEX
  8
TOPLAYER
 10
10.9276
 20
11.385
 30
0.00
  0
VERTEX
  8
TOPLAYER
 10
10.0876
 20
11.385
 30
0.00
  0
VERTEX
  8
TOPLAYER
 10
10.0876
 20
11.705
 30
0.00
  0
VERTEX
  8
TOPLAYER
 10
10.0876
 20
9.935
 30
0.00
  0
SEQEND
  0
POLYLINE
  8
TOPLAYER
 66
1
 10
0.00
 20
0.00
 30
0.00
 40
1.00
 41
1.00
  0
VERTEX
  8
TOPLAYER
 10
9.5776
 20
11.705
 30
0.00
  0
VERTEX
  8
TOPLAYER
 10
11.4476
 20
11.705
 30
0.00
  0
VERTEX
  8
TOPLAYER
 10
11.4476
 20
9.935
 30
0.00
  0
VERTEX
  8
TOPLAYER
 10
9.5776
 20
9.935
 30
0.00
  0
VERTEX
  8
TOPLAYER
 10
9.5776
 20
11.705
 30
0.00
  0
SEQEND
  0
POLYLINE
  8
TOPLAYER
 66
1
 10
0.00
 20
0.00
 30
0.00
 40
0.20
 41
0.20
  0
VERTEX
  8
TOPLAYER
 10
64.7226
 20
18.10
 30
0.00
  0
VERTEX
  8
TOPLAYER
 10
64.7226
 20
17.98
 30
0.00
  0
VERTEX
  8
TOPLAYER
 10
64.8426
 20
17.98
 30
0.00
  0
SEQEND
  0
POLYLINE
  8
TOPLAYER
 66
1
 10
0.00
 20
0.00
 30
0.00
 40
0.20
 41
0.20
  0
VERTEX
  8
TOPLAYER
 10
64.7226
 20
18.10
 30
0.00
 42
0.1006644
  0
VERTEX
  8
TOPLAYER
 10
64.8426
 20
17.98
 30
0.00
 42
0.00
  0
SEQEND
  0
POLYLINE
  8
TOPLAYER
 66
1
 10
0.00
 20
0.00
 30
0.00
 40
0.20
 41
0.20
  0
VERTEX
  8
TOPLAYER
 10
64.8426
 20
20.46
 30
0.00
  0
VERTEX
  8
TOPLAYER
 10
64.7226
 20
20.46
 30
0.00
  0
VERTEX
  8
TOPLAYER
 10
64.7276
 20
20.345
 30
0.00
  0
SEQEND
  0
POLYLINE
  8
TOPLAYER
 66
1
 10
0.00
 20
0.00
 30
0.00
 40
0.20
 41
0.20
  0
VERTEX
  8
TOPLAYER
 10
64.8426
 20
20.46
 30
0.00
 42
0.0965439
  0
VERTEX
  8
TOPLAYER
 10
64.726482
 20
20.345764
 30
0.00
 42
0.00
  0
SEQEND
  0
POLYLINE
  8
TOPLAYER
 66
1
 10
0.00
 20
0.00
 30
0.00
 40
0.20
 41
0.20
  0
VERTEX
  8
TOPLAYER
 10
67.3026
 20
20.46
 30
0.00
  0
VERTEX
  8
TOPLAYER
 10
67.1826
 20
20.46
 30
0.00
  0
SEQEND
  0
POLYLINE
  8
TOPLAYER
 66
1
 10
0.00
 20
0.00
 30
0.00
 40
0.20
 41
0.20
  0
VERTEX
  8
TOPLAYER
 10
67.3026
 20
20.34
 30
0.00
 42
0.1006644
  0
VERTEX
  8
TOPLAYER
 10
67.1826
 20
20.46
 30
0.00
 42
0.00
  0
SEQEND
  0
POLYLINE
  8
TOPLAYER
 66
1
 10
0.00
 20
0.00
 30
0.00
 40
0.20
 41
0.20
  0
VERTEX
  8
TOPLAYER
 10
67.3026
 20
20.34
 30
0.00
  0
VERTEX
  8
TOPLAYER
 10
67.3026
 20
20.46
 30
0.00
  0
SEQEND
  0
POLYLINE
  8
TOPLAYER
 66
1
 10
0.00
 20
0.00
 30
0.00
 40
0.20
 41
0.20
  0
VERTEX
  8
TOPLAYER
 10
67.1876
 20
17.98
 30
0.00
 42
0.0916627
  0
VERTEX
  8
TOPLAYER
 10
67.302594
 20
18.090002
 30
0.00
 42
0.00
  0
SEQEND
  0
POLYLINE
  8
TOPLAYER
 66
1
 10
0.00
 20
0.00
 30
0.00
 40
0.20
 41
0.20
  0
VERTEX
  8
TOPLAYER
 10
67.1876
 20
17.98
 30
0.00
  0
VERTEX
  8
TOPLAYER
 10
67.3026
 20
17.98
 30
0.00
  0
VERTEX
  8
TOPLAYER
 10
67.3026
 20
18.09
 30
0.00
  0
SEQEND
  0
POLYLINE
  8
TOPLAYER
 66
1
 10
0.00
 20
0.00
 30
0.00
 40
1.00
 41
1.00
  0
VERTEX
  8
TOPLAYER
 10
66.4276
 20
18.335
 30
0.00
  0
VERTEX
  8
TOPLAYER
 10
66.4276
 20
20.105
 30
0.00
  0
VERTEX
  8
TOPLAYER
 10
66.4276
 20
19.785
 30
0.00
  0
VERTEX
  8
TOPLAYER
 10
65.5876
 20
19.785
 30
0.00
  0
VERTEX
  8
TOPLAYER
 10
65.5876
 20
20.105
 30
0.00
  0
VERTEX
  8
TOPLAYER
 10
65.5876
 20
18.335
 30
0.00
  0
SEQEND
  0
POLYLINE
  8
TOPLAYER
 66
1
 10
0.00
 20
0.00
 30
0.00
 40
1.00
 41
1.00
  0
VERTEX
  8
TOPLAYER
 10
65.0776
 20
20.105
 30
0.00
  0
VERTEX
  8
TOPLAYER
 10
66.9476
 20
20.105
 30
0.00
  0
VERTEX
  8
TOPLAYER
 10
66.9476
 20
18.335
 30
0.00
  0
VERTEX
  8
TOPLAYER
 10
65.0776
 20
18.335
 30
0.00
  0
VERTEX
  8
TOPLAYER
 10
65.0776
 20
20.105
 30
0.00
  0
SEQEND
  0
POLYLINE
  8
TOPLAYER
 66
1
 10
0.00
 20
0.00
 30
0.00
 40
0.20
 41
0.20
  0
VERTEX
  8
TOPLAYER
 10
64.7226
 20
18.10
 30
0.00
  0
VERTEX
  8
TOPLAYER
 10
64.7226
 20
17.98
 30
0.00
  0
VERTEX
  8
TOPLAYER
 10
64.8426
 20
17.98
 30
0.00
  0
SEQEND
  0
POLYLINE
  8
TOPLAYER
 66
1
 10
0.00
 20
0.00
 30
0.00
 40
0.20
 41
0.20
  0
VERTEX
  8
TOPLAYER
 10
64.7226
 20
18.10
 30
0.00
 42
0.1006644
  0
VERTEX
  8
TOPLAYER
 10
64.8426
 20
17.98
 30
0.00
 42
0.00
  0
SEQEND
  0
POLYLINE
  8
TOPLAYER
 66
1
 10
0.00
 20
0.00
 30
0.00
 40
0.20
 41
0.20
  0
VERTEX
  8
TOPLAYER
 10
64.8426
 20
20.46
 30
0.00
  0
VERTEX
  8
TOPLAYER
 10
64.7226
 20
20.46
 30
0.00
  0
VERTEX
  8
TOPLAYER
 10
64.7276
 20
20.345
 30
0.00
  0
SEQEND
  0
POLYLINE
  8
TOPLAYER
 66
1
 10
0.00
 20
0.00
 30
0.00
 40
0.20
 41
0.20
  0
VERTEX
  8
TOPLAYER
 10
64.8426
 20
20.46
 30
0.00
 42
0.0965439
  0
VERTEX
  8
TOPLAYER
 10
64.726482
 20
20.345764
 30
0.00
 42
0.00
  0
SEQEND
  0
POLYLINE
  8
TOPLAYER
 66
1
 10
0.00
 20
0.00
 30
0.00
 40
0.20
 41
0.20
  0
VERTEX
  8
TOPLAYER
 10
67.3026
 20
20.46
 30
0.00
  0
VERTEX
  8
TOPLAYER
 10
67.1826
 20
20.46
 30
0.00
  0
SEQEND
  0
POLYLINE
  8
TOPLAYER
 66
1
 10
0.00
 20
0.00
 30
0.00
 40
0.20
 41
0.20
  0
VERTEX
  8
TOPLAYER
 10
67.3026
 20
20.34
 30
0.00
 42
0.1006644
  0
VERTEX
  8
TOPLAYER
 10
67.1826
 20
20.46
 30
0.00
 42
0.00
  0
SEQEND
  0
POLYLINE
  8
TOPLAYER
 66
1
 10
0.00
 20
0.00
 30
0.00
 40
0.20
 41
0.20
  0
VERTEX
  8
TOPLAYER
 10
67.3026
 20
20.34
 30
0.00
  0
VERTEX
  8
TOPLAYER
 10
67.3026
 20
20.46
 30
0.00
  0
SEQEND
  0
POLYLINE
  8
TOPLAYER
 66
1
 10
0.00
 20
0.00
 30
0.00
 40
0.20
 41
0.20
  0
VERTEX
  8
TOPLAYER
 10
67.1876
 20
17.98
 30
0.00
 42
0.0916627
  0
VERTEX
  8
TOPLAYER
 10
67.302594
 20
18.090002
 30
0.00
 42
0.00
  0
SEQEND
  0
POLYLINE
  8
TOPLAYER
 66
1
 10
0.00
 20
0.00
 30
0.00
 40
0.20
 41
0.20
  0
VERTEX
  8
TOPLAYER
 10
67.1876
 20
17.98
 30
0.00
  0
VERTEX
  8
TOPLAYER
 10
67.3026
 20
17.98
 30
0.00
  0
VERTEX
  8
TOPLAYER
 10
67.3026
 20
18.09
 30
0.00
  0
SEQEND
  0
POLYLINE
  8
TOPLAYER
 66
1
 10
0.00
 20
0.00
 30
0.00
 40
1.00
 41
1.00
  0
VERTEX
  8
TOPLAYER
 10
66.4276
 20
18.335
 30
0.00
  0
VERTEX
  8
TOPLAYER
 10
66.4276
 20
20.105
 30
0.00
  0
VERTEX
  8
TOPLAYER
 10
66.4276
 20
19.785
 30
0.00
  0
VERTEX
  8
TOPLAYER
 10
65.5876
 20
19.785
 30
0.00
  0
VERTEX
  8
TOPLAYER
 10
65.5876
 20
20.105
 30
0.00
  0
VERTEX
  8
TOPLAYER
 10
65.5876
 20
18.335
 30
0.00
  0
SEQEND
  0
POLYLINE
  8
TOPLAYER
 66
1
 10
0.00
 20
0.00
 30
0.00
 40
1.00
 41
1.00
  0
VERTEX
  8
TOPLAYER
 10
65.0776
 20
20.105
 30
0.00
  0
VERTEX
  8
TOPLAYER
 10
66.9476
 20
20.105
 30
0.00
  0
VERTEX
  8
TOPLAYER
 10
66.9476
 20
18.335
 30
0.00
  0
VERTEX
  8
TOPLAYER
 10
65.0776
 20
18.335
 30
0.00
  0
VERTEX
  8
TOPLAYER
 10
65.0776
 20
20.105
 30
0.00
  0
SEQEND
  0
POLYLINE
  8
TOPLAYER
 66
1
 10
0.00
 20
0.00
 30
0.00
 40
0.20
 41
0.20
  0
VERTEX
  8
TOPLAYER
 10
67.3876
 20
20.545
 30
0.00
  0
VERTEX
  8
TOPLAYER
 10
64.6376
 20
20.545
 30
0.00
  0
VERTEX
  8
TOPLAYER
 10
64.6376
 20
17.895
 30
0.00
  0
VERTEX
  8
TOPLAYER
 10
67.3876
 20
17.895
 30
0.00
  0
VERTEX
  8
TOPLAYER
 10
67.3876
 20
20.545
 30
0.00
  0
SEQEND
  0
POLYLINE
  8
TOPLAYER
 66
1
 10
0.00
 20
0.00
 30
0.00
 40
0.20
 41
0.20
  0
VERTEX
  8
TOPLAYER
 10
64.7226
 20
18.10
 30
0.00
  0
VERTEX
  8
TOPLAYER
 10
64.7226
 20
17.98
 30
0.00
  0
VERTEX
  8
TOPLAYER
 10
64.8426
 20
17.98
 30
0.00
  0
SEQEND
  0
POLYLINE
  8
TOPLAYER
 66
1
 10
0.00
 20
0.00
 30
0.00
 40
0.20
 41
0.20
  0
VERTEX
  8
TOPLAYER
 10
64.7226
 20
18.10
 30
0.00
 42
0.1006644
  0
VERTEX
  8
TOPLAYER
 10
64.8426
 20
17.98
 30
0.00
 42
0.00
  0
SEQEND
  0
POLYLINE
  8
TOPLAYER
 66
1
 10
0.00
 20
0.00
 30
0.00
 40
0.20
 41
0.20
  0
VERTEX
  8
TOPLAYER
 10
64.8426
 20
20.46
 30
0.00
  0
VERTEX
  8
TOPLAYER
 10
64.7226
 20
20.46
 30
0.00
  0
VERTEX
  8
TOPLAYER
 10
64.7276
 20
20.345
 30
0.00
  0
SEQEND
  0
POLYLINE
  8
TOPLAYER
 66
1
 10
0.00
 20
0.00
 30
0.00
 40
0.20
 41
0.20
  0
VERTEX
  8
TOPLAYER
 10
64.8426
 20
20.46
 30
0.00
 42
0.0965439
  0
VERTEX
  8
TOPLAYER
 10
64.726482
 20
20.345764
 30
0.00
 42
0.00
  0
SEQEND
  0
POLYLINE
  8
TOPLAYER
 66
1
 10
0.00
 20
0.00
 30
0.00
 40
0.20
 41
0.20
  0
VERTEX
  8
TOPLAYER
 10
67.3026
 20
20.46
 30
0.00
  0
VERTEX
  8
TOPLAYER
 10
67.1826
 20
20.46
 30
0.00
  0
SEQEND
  0
POLYLINE
  8
TOPLAYER
 66
1
 10
0.00
 20
0.00
 30
0.00
 40
0.20
 41
0.20
  0
VERTEX
  8
TOPLAYER
 10
67.3026
 20
20.34
 30
0.00
 42
0.1006644
  0
VERTEX
  8
TOPLAYER
 10
67.1826
 20
20.46
 30
0.00
 42
0.00
  0
SEQEND
  0
POLYLINE
  8
TOPLAYER
 66
1
 10
0.00
 20
0.00
 30
0.00
 40
0.20
 41
0.20
  0
VERTEX
  8
TOPLAYER
 10
67.3026
 20
20.34
 30
0.00
  0
VERTEX
  8
TOPLAYER
 10
67.3026
 20
20.46
 30
0.00
  0
SEQEND
  0
POLYLINE
  8
TOPLAYER
 66
1
 10
0.00
 20
0.00
 30
0.00
 40
0.20
 41
0.20
  0
VERTEX
  8
TOPLAYER
 10
67.1876
 20
17.98
 30
0.00
 42
0.0916627
  0
VERTEX
  8
TOPLAYER
 10
67.302594
 20
18.090002
 30
0.00
 42
0.00
  0
SEQEND
  0
POLYLINE
  8
TOPLAYER
 66
1
 10
0.00
 20
0.00
 30
0.00
 40
0.20
 41
0.20
  0
VERTEX
  8
TOPLAYER
 10
67.1876
 20
17.98
 30
0.00
  0
VERTEX
  8
TOPLAYER
 10
67.3026
 20
17.98
 30
0.00
  0
VERTEX
  8
TOPLAYER
 10
67.3026
 20
18.09
 30
0.00
  0
SEQEND
  0
POLYLINE
  8
TOPLAYER
 66
1
 10
0.00
 20
0.00
 30
0.00
 40
1.00
 41
1.00
  0
VERTEX
  8
TOPLAYER
 10
66.4276
 20
18.335
 30
0.00
  0
VERTEX
  8
TOPLAYER
 10
66.4276
 20
20.105
 30
0.00
  0
VERTEX
  8
TOPLAYER
 10
66.4276
 20
19.785
 30
0.00
  0
VERTEX
  8
TOPLAYER
 10
65.5876
 20
19.785
 30
0.00
  0
VERTEX
  8
TOPLAYER
 10
65.5876
 20
20.105
 30
0.00
  0
VERTEX
  8
TOPLAYER
 10
65.5876
 20
18.335
 30
0.00
  0
SEQEND
  0
POLYLINE
  8
TOPLAYER
 66
1
 10
0.00
 20
0.00
 30
0.00
 40
1.00
 41
1.00
  0
VERTEX
  8
TOPLAYER
 10
65.0776
 20
20.105
 30
0.00
  0
VERTEX
  8
TOPLAYER
 10
66.9476
 20
20.105
 30
0.00
  0
VERTEX
  8
TOPLAYER
 10
66.9476
 20
18.335
 30
0.00
  0
VERTEX
  8
TOPLAYER
 10
65.0776
 20
18.335
 30
0.00
  0
VERTEX
  8
TOPLAYER
 10
65.0776
 20
20.105
 30
0.00
  0
SEQEND
  0
POLYLINE
  8
TOPLAYER
 66
1
 10
0.00
 20
0.00
 30
0.00
 40
0.20
 41
0.20
  0
VERTEX
  8
TOPLAYER
 10
64.7226
 20
18.10
 30
0.00
  0
VERTEX
  8
TOPLAYER
 10
64.7226
 20
17.98
 30
0.00
  0
VERTEX
  8
TOPLAYER
 10
64.8426
 20
17.98
 30
0.00
  0
SEQEND
  0
POLYLINE
  8
TOPLAYER
 66
1
 10
0.00
 20
0.00
 30
0.00
 40
0.20
 41
0.20
  0
VERTEX
  8
TOPLAYER
 10
64.7226
 20
18.10
 30
0.00
 42
0.1006644
  0
VERTEX
  8
TOPLAYER
 10
64.8426
 20
17.98
 30
0.00
 42
0.00
  0
SEQEND
  0
POLYLINE
  8
TOPLAYER
 66
1
 10
0.00
 20
0.00
 30
0.00
 40
0.20
 41
0.20
  0
VERTEX
  8
TOPLAYER
 10
64.8426
 20
20.46
 30
0.00
  0
VERTEX
  8
TOPLAYER
 10
64.7226
 20
20.46
 30
0.00
  0
VERTEX
  8
TOPLAYER
 10
64.7276
 20
20.345
 30
0.00
  0
SEQEND
  0
POLYLINE
  8
TOPLAYER
 66
1
 10
0.00
 20
0.00
 30
0.00
 40
0.20
 41
0.20
  0
VERTEX
  8
TOPLAYER
 10
64.8426
 20
20.46
 30
0.00
 42
0.0965439
  0
VERTEX
  8
TOPLAYER
 10
64.726482
 20
20.345764
 30
0.00
 42
0.00
  0
SEQEND
  0
POLYLINE
  8
TOPLAYER
 66
1
 10
0.00
 20
0.00
 30
0.00
 40
0.20
 41
0.20
  0
VERTEX
  8
TOPLAYER
 10
67.3026
 20
20.46
 30
0.00
  0
VERTEX
  8
TOPLAYER
 10
67.1826
 20
20.46
 30
0.00
  0
SEQEND
  0
POLYLINE
  8
TOPLAYER
 66
1
 10
0.00
 20
0.00
 30
0.00
 40
0.20
 41
0.20
  0
VERTEX
  8
TOPLAYER
 10
67.3026
 20
20.34
 30
0.00
 42
0.1006644
  0
VERTEX
  8
TOPLAYER
 10
67.1826
 20
20.46
 30
0.00
 42
0.00
  0
SEQEND
  0
POLYLINE
  8
TOPLAYER
 66
1
 10
0.00
 20
0.00
 30
0.00
 40
0.20
 41
0.20
  0
VERTEX
  8
TOPLAYER
 10
67.3026
 20
20.34
 30
0.00
  0
VERTEX
  8
TOPLAYER
 10
67.3026
 20
20.46
 30
0.00
  0
SEQEND
  0
POLYLINE
  8
TOPLAYER
 66
1
 10
0.00
 20
0.00
 30
0.00
 40
0.20
 41
0.20
  0
VERTEX
  8
TOPLAYER
 10
67.1876
 20
17.98
 30
0.00
 42
0.0916627
  0
VERTEX
  8
TOPLAYER
 10
67.302594
 20
18.090002
 30
0.00
 42
0.00
  0
SEQEND
  0
POLYLINE
  8
TOPLAYER
 66
1
 10
0.00
 20
0.00
 30
0.00
 40
0.20
 41
0.20
  0
VERTEX
  8
TOPLAYER
 10
67.1876
 20
17.98
 30
0.00
  0
VERTEX
  8
TOPLAYER
 10
67.3026
 20
17.98
 30
0.00
  0
VERTEX
  8
TOPLAYER
 10
67.3026
 20
18.09
 30
0.00
  0
SEQEND
  0
POLYLINE
  8
TOPLAYER
 66
1
 10
0.00
 20
0.00
 30
0.00
 40
1.00
 41
1.00
  0
VERTEX
  8
TOPLAYER
 10
66.4276
 20
18.335
 30
0.00
  0
VERTEX
  8
TOPLAYER
 10
66.4276
 20
20.105
 30
0.00
  0
VERTEX
  8
TOPLAYER
 10
66.4276
 20
19.785
 30
0.00
  0
VERTEX
  8
TOPLAYER
 10
65.5876
 20
19.785
 30
0.00
  0
VERTEX
  8
TOPLAYER
 10
65.5876
 20
20.105
 30
0.00
  0
VERTEX
  8
TOPLAYER
 10
65.5876
 20
18.335
 30
0.00
  0
SEQEND
  0
POLYLINE
  8
TOPLAYER
 66
1
 10
0.00
 20
0.00
 30
0.00
 40
1.00
 41
1.00
  0
VERTEX
  8
TOPLAYER
 10
65.0776
 20
20.105
 30
0.00
  0
VERTEX
  8
TOPLAYER
 10
66.9476
 20
20.105
 30
0.00
  0
VERTEX
  8
TOPLAYER
 10
66.9476
 20
18.335
 30
0.00
  0
VERTEX
  8
TOPLAYER
 10
65.0776
 20
18.335
 30
0.00
  0
VERTEX
  8
TOPLAYER
 10
65.0776
 20
20.105
 30
0.00
  0
SEQEND
  0
POLYLINE
  8
TOPLAYER
 66
1
 10
0.00
 20
0.00
 30
0.00
 40
0.20
 41
0.20
  0
VERTEX
  8
TOPLAYER
 10
64.7226
 20
18.10
 30
0.00
  0
VERTEX
  8
TOPLAYER
 10
64.7226
 20
17.98
 30
0.00
  0
VERTEX
  8
TOPLAYER
 10
64.8426
 20
17.98
 30
0.00
  0
SEQEND
  0
POLYLINE
  8
TOPLAYER
 66
1
 10
0.00
 20
0.00
 30
0.00
 40
0.20
 41
0.20
  0
VERTEX
  8
TOPLAYER
 10
64.7226
 20
18.10
 30
0.00
 42
0.1006644
  0
VERTEX
  8
TOPLAYER
 10
64.8426
 20
17.98
 30
0.00
 42
0.00
  0
SEQEND
  0
POLYLINE
  8
TOPLAYER
 66
1
 10
0.00
 20
0.00
 30
0.00
 40
0.20
 41
0.20
  0
VERTEX
  8
TOPLAYER
 10
64.8426
 20
20.46
 30
0.00
  0
VERTEX
  8
TOPLAYER
 10
64.7226
 20
20.46
 30
0.00
  0
VERTEX
  8
TOPLAYER
 10
64.7276
 20
20.345
 30
0.00
  0
SEQEND
  0
POLYLINE
  8
TOPLAYER
 66
1
 10
0.00
 20
0.00
 30
0.00
 40
0.20
 41
0.20
  0
VERTEX
  8
TOPLAYER
 10
64.8426
 20
20.46
 30
0.00
 42
0.0965439
  0
VERTEX
  8
TOPLAYER
 10
64.726482
 20
20.345764
 30
0.00
 42
0.00
  0
SEQEND
  0
POLYLINE
  8
TOPLAYER
 66
1
 10
0.00
 20
0.00
 30
0.00
 40
0.20
 41
0.20
  0
VERTEX
  8
TOPLAYER
 10
67.3026
 20
20.46
 30
0.00
  0
VERTEX
  8
TOPLAYER
 10
67.1826
 20
20.46
 30
0.00
  0
SEQEND
  0
POLYLINE
  8
TOPLAYER
 66
1
 10
0.00
 20
0.00
 30
0.00
 40
0.20
 41
0.20
  0
VERTEX
  8
TOPLAYER
 10
67.3026
 20
20.34
 30
0.00
 42
0.1006644
  0
VERTEX
  8
TOPLAYER
 10
67.1826
 20
20.46
 30
0.00
 42
0.00
  0
SEQEND
  0
POLYLINE
  8
TOPLAYER
 66
1
 10
0.00
 20
0.00
 30
0.00
 40
0.20
 41
0.20
  0
VERTEX
  8
TOPLAYER
 10
67.3026
 20
20.34
 30
0.00
  0
VERTEX
  8
TOPLAYER
 10
67.3026
 20
20.46
 30
0.00
  0
SEQEND
  0
POLYLINE
  8
TOPLAYER
 66
1
 10
0.00
 20
0.00
 30
0.00
 40
0.20
 41
0.20
  0
VERTEX
  8
TOPLAYER
 10
67.1876
 20
17.98
 30
0.00
 42
0.0916627
  0
VERTEX
  8
TOPLAYER
 10
67.302594
 20
18.090002
 30
0.00
 42
0.00
  0
SEQEND
  0
POLYLINE
  8
TOPLAYER
 66
1
 10
0.00
 20
0.00
 30
0.00
 40
0.20
 41
0.20
  0
VERTEX
  8
TOPLAYER
 10
67.1876
 20
17.98
 30
0.00
  0
VERTEX
  8
TOPLAYER
 10
67.3026
 20
17.98
 30
0.00
  0
VERTEX
  8
TOPLAYER
 10
67.3026
 20
18.09
 30
0.00
  0
SEQEND
  0
POLYLINE
  8
TOPLAYER
 66
1
 10
0.00
 20
0.00
 30
0.00
 40
1.00
 41
1.00
  0
VERTEX
  8
TOPLAYER
 10
66.4276
 20
18.335
 30
0.00
  0
VERTEX
  8
TOPLAYER
 10
66.4276
 20
20.105
 30
0.00
  0
VERTEX
  8
TOPLAYER
 10
66.4276
 20
19.785
 30
0.00
  0
VERTEX
  8
TOPLAYER
 10
65.5876
 20
19.785
 30
0.00
  0
VERTEX
  8
TOPLAYER
 10
65.5876
 20
20.105
 30
0.00
  0
VERTEX
  8
TOPLAYER
 10
65.5876
 20
18.335
 30
0.00
  0
SEQEND
  0
POLYLINE
  8
TOPLAYER
 66
1
 10
0.00
 20
0.00
 30
0.00
 40
1.00
 41
1.00
  0
VERTEX
  8
TOPLAYER
 10
65.0776
 20
20.105
 30
0.00
  0
VERTEX
  8
TOPLAYER
 10
66.9476
 20
20.105
 30
0.00
  0
VERTEX
  8
TOPLAYER
 10
66.9476
 20
18.335
 30
0.00
  0
VERTEX
  8
TOPLAYER
 10
65.0776
 20
18.335
 30
0.00
  0
VERTEX
  8
TOPLAYER
 10
65.0776
 20
20.105
 30
0.00
  0
SEQEND
  0
POLYLINE
  8
TOPLAYER
 66
1
 10
0.00
 20
0.00
 30
0.00
 40
0.20
 41
0.20
  0
VERTEX
  8
TOPLAYER
 10
67.3876
 20
20.545
 30
0.00
  0
VERTEX
  8
TOPLAYER
 10
64.6376
 20
20.545
 30
0.00
  0
VERTEX
  8
TOPLAYER
 10
64.6376
 20
17.895
 30
0.00
  0
VERTEX
  8
TOPLAYER
 10
67.3876
 20
17.895
 30
0.00
  0
VERTEX
  8
TOPLAYER
 10
67.3876
 20
20.545
 30
0.00
  0
SEQEND
  0
POLYLINE
  8
TOPLAYER
 66
1
 10
0.00
 20
0.00
 30
0.00
 40
0.20
 41
0.20
  0
VERTEX
  8
TOPLAYER
 10
64.7226
 20
18.10
 30
0.00
  0
VERTEX
  8
TOPLAYER
 10
64.7226
 20
17.98
 30
0.00
  0
VERTEX
  8
TOPLAYER
 10
64.8426
 20
17.98
 30
0.00
  0
SEQEND
  0
POLYLINE
  8
TOPLAYER
 66
1
 10
0.00
 20
0.00
 30
0.00
 40
0.20
 41
0.20
  0
VERTEX
  8
TOPLAYER
 10
64.7226
 20
18.10
 30
0.00
 42
0.1006644
  0
VERTEX
  8
TOPLAYER
 10
64.8426
 20
17.98
 30
0.00
 42
0.00
  0
SEQEND
  0
POLYLINE
  8
TOPLAYER
 66
1
 10
0.00
 20
0.00
 30
0.00
 40
0.20
 41
0.20
  0
VERTEX
  8
TOPLAYER
 10
64.8426
 20
20.46
 30
0.00
  0
VERTEX
  8
TOPLAYER
 10
64.7226
 20
20.46
 30
0.00
  0
VERTEX
  8
TOPLAYER
 10
64.7276
 20
20.345
 30
0.00
  0
SEQEND
  0
POLYLINE
  8
TOPLAYER
 66
1
 10
0.00
 20
0.00
 30
0.00
 40
0.20
 41
0.20
  0
VERTEX
  8
TOPLAYER
 10
64.8426
 20
20.46
 30
0.00
 42
0.0965439
  0
VERTEX
  8
TOPLAYER
 10
64.726482
 20
20.345764
 30
0.00
 42
0.00
  0
SEQEND
  0
POLYLINE
  8
TOPLAYER
 66
1
 10
0.00
 20
0.00
 30
0.00
 40
0.20
 41
0.20
  0
VERTEX
  8
TOPLAYER
 10
67.3026
 20
20.46
 30
0.00
  0
VERTEX
  8
TOPLAYER
 10
67.1826
 20
20.46
 30
0.00
  0
SEQEND
  0
POLYLINE
  8
TOPLAYER
 66
1
 10
0.00
 20
0.00
 30
0.00
 40
0.20
 41
0.20
  0
VERTEX
  8
TOPLAYER
 10
67.3026
 20
20.34
 30
0.00
 42
0.1006644
  0
VERTEX
  8
TOPLAYER
 10
67.1826
 20
20.46
 30
0.00
 42
0.00
  0
SEQEND
  0
POLYLINE
  8
TOPLAYER
 66
1
 10
0.00
 20
0.00
 30
0.00
 40
0.20
 41
0.20
  0
VERTEX
  8
TOPLAYER
 10
67.3026
 20
20.34
 30
0.00
  0
VERTEX
  8
TOPLAYER
 10
67.3026
 20
20.46
 30
0.00
  0
SEQEND
  0
POLYLINE
  8
TOPLAYER
 66
1
 10
0.00
 20
0.00
 30
0.00
 40
0.20
 41
0.20
  0
VERTEX
  8
TOPLAYER
 10
67.1876
 20
17.98
 30
0.00
 42
0.0916627
  0
VERTEX
  8
TOPLAYER
 10
67.302594
 20
18.090002
 30
0.00
 42
0.00
  0
SEQEND
  0
POLYLINE
  8
TOPLAYER
 66
1
 10
0.00
 20
0.00
 30
0.00
 40
0.20
 41
0.20
  0
VERTEX
  8
TOPLAYER
 10
67.1876
 20
17.98
 30
0.00
  0
VERTEX
  8
TOPLAYER
 10
67.3026
 20
17.98
 30
0.00
  0
VERTEX
  8
TOPLAYER
 10
67.3026
 20
18.09
 30
0.00
  0
SEQEND
  0
POLYLINE
  8
TOPLAYER
 66
1
 10
0.00
 20
0.00
 30
0.00
 40
1.00
 41
1.00
  0
VERTEX
  8
TOPLAYER
 10
66.4276
 20
18.335
 30
0.00
  0
VERTEX
  8
TOPLAYER
 10
66.4276
 20
20.105
 30
0.00
  0
VERTEX
  8
TOPLAYER
 10
66.4276
 20
19.785
 30
0.00
  0
VERTEX
  8
TOPLAYER
 10
65.5876
 20
19.785
 30
0.00
  0
VERTEX
  8
TOPLAYER
 10
65.5876
 20
20.105
 30
0.00
  0
VERTEX
  8
TOPLAYER
 10
65.5876
 20
18.335
 30
0.00
  0
SEQEND
  0
POLYLINE
  8
TOPLAYER
 66
1
 10
0.00
 20
0.00
 30
0.00
 40
1.00
 41
1.00
  0
VERTEX
  8
TOPLAYER
 10
65.0776
 20
20.105
 30
0.00
  0
VERTEX
  8
TOPLAYER
 10
66.9476
 20
20.105
 30
0.00
  0
VERTEX
  8
TOPLAYER
 10
66.9476
 20
18.335
 30
0.00
  0
VERTEX
  8
TOPLAYER
 10
65.0776
 20
18.335
 30
0.00
  0
VERTEX
  8
TOPLAYER
 10
65.0776
 20
20.105
 30
0.00
  0
SEQEND
  0
POLYLINE
  8
TOPLAYER
 66
1
 10
0.00
 20
0.00
 30
0.00
 40
0.20
 41
0.20
  0
VERTEX
  8
TOPLAYER
 10
64.7226
 20
18.10
 30
0.00
  0
VERTEX
  8
TOPLAYER
 10
64.7226
 20
17.98
 30
0.00
  0
VERTEX
  8
TOPLAYER
 10
64.8426
 20
17.98
 30
0.00
  0
SEQEND
  0
POLYLINE
  8
TOPLAYER
 66
1
 10
0.00
 20
0.00
 30
0.00
 40
0.20
 41
0.20
  0
VERTEX
  8
TOPLAYER
 10
64.7226
 20
18.10
 30
0.00
 42
0.1006644
  0
VERTEX
  8
TOPLAYER
 10
64.8426
 20
17.98
 30
0.00
 42
0.00
  0
SEQEND
  0
POLYLINE
  8
TOPLAYER
 66
1
 10
0.00
 20
0.00
 30
0.00
 40
0.20
 41
0.20
  0
VERTEX
  8
TOPLAYER
 10
64.8426
 20
20.46
 30
0.00
  0
VERTEX
  8
TOPLAYER
 10
64.7226
 20
20.46
 30
0.00
  0
VERTEX
  8
TOPLAYER
 10
64.7276
 20
20.345
 30
0.00
  0
SEQEND
  0
POLYLINE
  8
TOPLAYER
 66
1
 10
0.00
 20
0.00
 30
0.00
 40
0.20
 41
0.20
  0
VERTEX
  8
TOPLAYER
 10
64.8426
 20
20.46
 30
0.00
 42
0.0965439
  0
VERTEX
  8
TOPLAYER
 10
64.726482
 20
20.345764
 30
0.00
 42
0.00
  0
SEQEND
  0
POLYLINE
  8
TOPLAYER
 66
1
 10
0.00
 20
0.00
 30
0.00
 40
0.20
 41
0.20
  0
VERTEX
  8
TOPLAYER
 10
67.3026
 20
20.46
 30
0.00
  0
VERTEX
  8
TOPLAYER
 10
67.1826
 20
20.46
 30
0.00
  0
SEQEND
  0
POLYLINE
  8
TOPLAYER
 66
1
 10
0.00
 20
0.00
 30
0.00
 40
0.20
 41
0.20
  0
VERTEX
  8
TOPLAYER
 10
67.3026
 20
20.34
 30
0.00
 42
0.1006644
  0
VERTEX
  8
TOPLAYER
 10
67.1826
 20
20.46
 30
0.00
 42
0.00
  0
SEQEND
  0
POLYLINE
  8
TOPLAYER
 66
1
 10
0.00
 20
0.00
 30
0.00
 40
0.20
 41
0.20
  0
VERTEX
  8
TOPLAYER
 10
67.3026
 20
20.34
 30
0.00
  0
VERTEX
  8
TOPLAYER
 10
67.3026
 20
20.46
 30
0.00
  0
SEQEND
  0
POLYLINE
  8
TOPLAYER
 66
1
 10
0.00
 20
0.00
 30
0.00
 40
0.20
 41
0.20
  0
VERTEX
  8
TOPLAYER
 10
67.1876
 20
17.98
 30
0.00
 42
0.0916627
  0
VERTEX
  8
TOPLAYER
 10
67.302594
 20
18.090002
 30
0.00
 42
0.00
  0
SEQEND
  0
POLYLINE
  8
TOPLAYER
 66
1
 10
0.00
 20
0.00
 30
0.00
 40
0.20
 41
0.20
  0
VERTEX
  8
TOPLAYER
 10
67.1876
 20
17.98
 30
0.00
  0
VERTEX
  8
TOPLAYER
 10
67.3026
 20
17.98
 30
0.00
  0
VERTEX
  8
TOPLAYER
 10
67.3026
 20
18.09
 30
0.00
  0
SEQEND
  0
POLYLINE
  8
TOPLAYER
 66
1
 10
0.00
 20
0.00
 30
0.00
 40
1.00
 41
1.00
  0
VERTEX
  8
TOPLAYER
 10
66.4276
 20
18.335
 30
0.00
  0
VERTEX
  8
TOPLAYER
 10
66.4276
 20
20.105
 30
0.00
  0
VERTEX
  8
TOPLAYER
 10
66.4276
 20
19.785
 30
0.00
  0
VERTEX
  8
TOPLAYER
 10
65.5876
 20
19.785
 30
0.00
  0
VERTEX
  8
TOPLAYER
 10
65.5876
 20
20.105
 30
0.00
  0
VERTEX
  8
TOPLAYER
 10
65.5876
 20
18.335
 30
0.00
  0
SEQEND
  0
POLYLINE
  8
TOPLAYER
 66
1
 10
0.00
 20
0.00
 30
0.00
 40
1.00
 41
1.00
  0
VERTEX
  8
TOPLAYER
 10
65.0776
 20
20.105
 30
0.00
  0
VERTEX
  8
TOPLAYER
 10
66.9476
 20
20.105
 30
0.00
  0
VERTEX
  8
TOPLAYER
 10
66.9476
 20
18.335
 30
0.00
  0
VERTEX
  8
TOPLAYER
 10
65.0776
 20
18.335
 30
0.00
  0
VERTEX
  8
TOPLAYER
 10
65.0776
 20
20.105
 30
0.00
  0
SEQEND
  0
POLYLINE
  8
TOPLAYER
 66
1
 10
0.00
 20
0.00
 30
0.00
 40
0.20
 41
0.20
  0
VERTEX
  8
TOPLAYER
 10
64.7226
 20
18.10
 30
0.00
  0
VERTEX
  8
TOPLAYER
 10
64.7226
 20
17.98
 30
0.00
  0
VERTEX
  8
TOPLAYER
 10
64.8426
 20
17.98
 30
0.00
  0
SEQEND
  0
POLYLINE
  8
TOPLAYER
 66
1
 10
0.00
 20
0.00
 30
0.00
 40
0.20
 41
0.20
  0
VERTEX
  8
TOPLAYER
 10
64.7226
 20
18.10
 30
0.00
 42
0.1006644
  0
VERTEX
  8
TOPLAYER
 10
64.8426
 20
17.98
 30
0.00
 42
0.00
  0
SEQEND
  0
POLYLINE
  8
TOPLAYER
 66
1
 10
0.00
 20
0.00
 30
0.00
 40
0.20
 41
0.20
  0
VERTEX
  8
TOPLAYER
 10
64.8426
 20
20.46
 30
0.00
  0
VERTEX
  8
TOPLAYER
 10
64.7226
 20
20.46
 30
0.00
  0
VERTEX
  8
TOPLAYER
 10
64.7276
 20
20.345
 30
0.00
  0
SEQEND
  0
POLYLINE
  8
TOPLAYER
 66
1
 10
0.00
 20
0.00
 30
0.00
 40
0.20
 41
0.20
  0
VERTEX
  8
TOPLAYER
 10
64.8426
 20
20.46
 30
0.00
 42
0.0965439
  0
VERTEX
  8
TOPLAYER
 10
64.726482
 20
20.345764
 30
0.00
 42
0.00
  0
SEQEND
  0
POLYLINE
  8
TOPLAYER
 66
1
 10
0.00
 20
0.00
 30
0.00
 40
0.20
 41
0.20
  0
VERTEX
  8
TOPLAYER
 10
67.3026
 20
20.46
 30
0.00
  0
VERTEX
  8
TOPLAYER
 10
67.1826
 20
20.46
 30
0.00
  0
SEQEND
  0
POLYLINE
  8
TOPLAYER
 66
1
 10
0.00
 20
0.00
 30
0.00
 40
0.20
 41
0.20
  0
VERTEX
  8
TOPLAYER
 10
67.3026
 20
20.34
 30
0.00
 42
0.1006644
  0
VERTEX
  8
TOPLAYER
 10
67.1826
 20
20.46
 30
0.00
 42
0.00
  0
SEQEND
  0
POLYLINE
  8
TOPLAYER
 66
1
 10
0.00
 20
0.00
 30
0.00
 40
0.20
 41
0.20
  0
VERTEX
  8
TOPLAYER
 10
67.3026
 20
20.34
 30
0.00
  0
VERTEX
  8
TOPLAYER
 10
67.3026
 20
20.46
 30
0.00
  0
SEQEND
  0
POLYLINE
  8
TOPLAYER
 66
1
 10
0.00
 20
0.00
 30
0.00
 40
0.20
 41
0.20
  0
VERTEX
  8
TOPLAYER
 10
67.1876
 20
17.98
 30
0.00
 42
0.0916627
  0
VERTEX
  8
TOPLAYER
 10
67.302594
 20
18.090002
 30
0.00
 42
0.00
  0
SEQEND
  0
POLYLINE
  8
TOPLAYER
 66
1
 10
0.00
 20
0.00
 30
0.00
 40
0.20
 41
0.20
  0
VERTEX
  8
TOPLAYER
 10
67.1876
 20
17.98
 30
0.00
  0
VERTEX
  8
TOPLAYER
 10
67.3026
 20
17.98
 30
0.00
  0
VERTEX
  8
TOPLAYER
 10
67.3026
 20
18.09
 30
0.00
  0
SEQEND
  0
POLYLINE
  8
TOPLAYER
 66
1
 10
0.00
 20
0.00
 30
0.00
 40
1.00
 41
1.00
  0
VERTEX
  8
TOPLAYER
 10
66.4276
 20
18.335
 30
0.00
  0
VERTEX
  8
TOPLAYER
 10
66.4276
 20
20.105
 30
0.00
  0
VERTEX
  8
TOPLAYER
 10
66.4276
 20
19.785
 30
0.00
  0
VERTEX
  8
TOPLAYER
 10
65.5876
 20
19.785
 30
0.00
  0
VERTEX
  8
TOPLAYER
 10
65.5876
 20
20.105
 30
0.00
  0
VERTEX
  8
TOPLAYER
 10
65.5876
 20
18.335
 30
0.00
  0
SEQEND
  0
POLYLINE
  8
TOPLAYER
 66
1
 10
0.00
 20
0.00
 30
0.00
 40
1.00
 41
1.00
  0
VERTEX
  8
TOPLAYER
 10
65.0776
 20
20.105
 30
0.00
  0
VERTEX
  8
TOPLAYER
 10
66.9476
 20
20.105
 30
0.00
  0
VERTEX
  8
TOPLAYER
 10
66.9476
 20
18.335
 30
0.00
  0
VERTEX
  8
TOPLAYER
 10
65.0776
 20
18.335
 30
0.00
  0
VERTEX
  8
TOPLAYER
 10
65.0776
 20
20.105
 30
0.00
  0
SEQEND
  0
POLYLINE
  8
TOPLAYER
 66
1
 10
0.00
 20
0.00
 30
0.00
 40
0.20
 41
0.20
  0
VERTEX
  8
TOPLAYER
 10
67.3876
 20
20.545
 30
0.00
  0
VERTEX
  8
TOPLAYER
 10
64.6376
 20
20.545
 30
0.00
  0
VERTEX
  8
TOPLAYER
 10
64.6376
 20
17.895
 30
0.00
  0
VERTEX
  8
TOPLAYER
 10
67.3876
 20
17.895
 30
0.00
  0
VERTEX
  8
TOPLAYER
 10
67.3876
 20
20.545
 30
0.00
  0
SEQEND
  0
POLYLINE
  8
TOPLAYER
 66
1
 10
0.00
 20
0.00
 30
0.00
 40
0.20
 41
0.20
  0
VERTEX
  8
TOPLAYER
 10
64.7226
 20
18.10
 30
0.00
  0
VERTEX
  8
TOPLAYER
 10
64.7226
 20
17.98
 30
0.00
  0
VERTEX
  8
TOPLAYER
 10
64.8426
 20
17.98
 30
0.00
  0
SEQEND
  0
POLYLINE
  8
TOPLAYER
 66
1
 10
0.00
 20
0.00
 30
0.00
 40
0.20
 41
0.20
  0
VERTEX
  8
TOPLAYER
 10
64.7226
 20
18.10
 30
0.00
 42
0.1006644
  0
VERTEX
  8
TOPLAYER
 10
64.8426
 20
17.98
 30
0.00
 42
0.00
  0
SEQEND
  0
POLYLINE
  8
TOPLAYER
 66
1
 10
0.00
 20
0.00
 30
0.00
 40
0.20
 41
0.20
  0
VERTEX
  8
TOPLAYER
 10
64.8426
 20
20.46
 30
0.00
  0
VERTEX
  8
TOPLAYER
 10
64.7226
 20
20.46
 30
0.00
  0
VERTEX
  8
TOPLAYER
 10
64.7276
 20
20.345
 30
0.00
  0
SEQEND
  0
POLYLINE
  8
TOPLAYER
 66
1
 10
0.00
 20
0.00
 30
0.00
 40
0.20
 41
0.20
  0
VERTEX
  8
TOPLAYER
 10
64.8426
 20
20.46
 30
0.00
 42
0.0965439
  0
VERTEX
  8
TOPLAYER
 10
64.726482
 20
20.345764
 30
0.00
 42
0.00
  0
SEQEND
  0
POLYLINE
  8
TOPLAYER
 66
1
 10
0.00
 20
0.00
 30
0.00
 40
0.20
 41
0.20
  0
VERTEX
  8
TOPLAYER
 10
67.3026
 20
20.46
 30
0.00
  0
VERTEX
  8
TOPLAYER
 10
67.1826
 20
20.46
 30
0.00
  0
SEQEND
  0
POLYLINE
  8
TOPLAYER
 66
1
 10
0.00
 20
0.00
 30
0.00
 40
0.20
 41
0.20
  0
VERTEX
  8
TOPLAYER
 10
67.3026
 20
20.34
 30
0.00
 42
0.1006644
  0
VERTEX
  8
TOPLAYER
 10
67.1826
 20
20.46
 30
0.00
 42
0.00
  0
SEQEND
  0
POLYLINE
  8
TOPLAYER
 66
1
 10
0.00
 20
0.00
 30
0.00
 40
0.20
 41
0.20
  0
VERTEX
  8
TOPLAYER
 10
67.3026
 20
20.34
 30
0.00
  0
VERTEX
  8
TOPLAYER
 10
67.3026
 20
20.46
 30
0.00
  0
SEQEND
  0
POLYLINE
  8
TOPLAYER
 66
1
 10
0.00
 20
0.00
 30
0.00
 40
0.20
 41
0.20
  0
VERTEX
  8
TOPLAYER
 10
67.1876
 20
17.98
 30
0.00
 42
0.0916627
  0
VERTEX
  8
TOPLAYER
 10
67.302594
 20
18.090002
 30
0.00
 42
0.00
  0
SEQEND
  0
POLYLINE
  8
TOPLAYER
 66
1
 10
0.00
 20
0.00
 30
0.00
 40
0.20
 41
0.20
  0
VERTEX
  8
TOPLAYER
 10
67.1876
 20
17.98
 30
0.00
  0
VERTEX
  8
TOPLAYER
 10
67.3026
 20
17.98
 30
0.00
  0
VERTEX
  8
TOPLAYER
 10
67.3026
 20
18.09
 30
0.00
  0
SEQEND
  0
POLYLINE
  8
TOPLAYER
 66
1
 10
0.00
 20
0.00
 30
0.00
 40
1.00
 41
1.00
  0
VERTEX
  8
TOPLAYER
 10
66.4276
 20
18.335
 30
0.00
  0
VERTEX
  8
TOPLAYER
 10
66.4276
 20
20.105
 30
0.00
  0
VERTEX
  8
TOPLAYER
 10
66.4276
 20
19.785
 30
0.00
  0
VERTEX
  8
TOPLAYER
 10
65.5876
 20
19.785
 30
0.00
  0
VERTEX
  8
TOPLAYER
 10
65.5876
 20
20.105
 30
0.00
  0
VERTEX
  8
TOPLAYER
 10
65.5876
 20
18.335
 30
0.00
  0
SEQEND
  0
POLYLINE
  8
TOPLAYER
 66
1
 10
0.00
 20
0.00
 30
0.00
 40
1.00
 41
1.00
  0
VERTEX
  8
TOPLAYER
 10
65.0776
 20
20.105
 30
0.00
  0
VERTEX
  8
TOPLAYER
 10
66.9476
 20
20.105
 30
0.00
  0
VERTEX
  8
TOPLAYER
 10
66.9476
 20
18.335
 30
0.00
  0
VERTEX
  8
TOPLAYER
 10
65.0776
 20
18.335
 30
0.00
  0
VERTEX
  8
TOPLAYER
 10
65.0776
 20
20.105
 30
0.00
  0
SEQEND
  0
POLYLINE
  8
TOPLAYER
 66
1
 10
0.00
 20
0.00
 30
0.00
 40
0.20
 41
0.20
  0
VERTEX
  8
TOPLAYER
 10
6.5049
 20
8.605
 30
0.00
  0
VERTEX
  8
TOPLAYER
 10
70.0049
 20
8.605
 30
0.00
  0
VERTEX
  8
TOPLAYER
 10
70.0049
 20
21.4051
 30
0.00
  0
VERTEX
  8
TOPLAYER
 10
6.5049
 20
21.4051
 30
0.00
  0
VERTEX
  8
TOPLAYER
 10
6.5049
 20
8.605
 30
0.00
  0
SEQEND
  0
POLYLINE
  8
TOPLAYER
 66
1
 10
0.00
 20
0.00
 30
0.00
 40
0.20
 41
0.20
  0
VERTEX
  8
TOPLAYER
 10
69.83
 20
8.665
 30
0.00
 42
0.0916627
  0
VERTEX
  8
TOPLAYER
 10
69.944994
 20
8.775002
 30
0.00
 42
0.00
  0
SEQEND
  0
POLYLINE
  8
TOPLAYER
 66
1
 10
0.00
 20
0.00
 30
0.00
 40
0.20
 41
0.20
  0
VERTEX
  8
TOPLAYER
 10
69.83
 20
8.665
 30
0.00
  0
VERTEX
  8
TOPLAYER
 10
69.945
 20
8.665
 30
0.00
  0
VERTEX
  8
TOPLAYER
 10
69.945
 20
8.775
 30
0.00
  0
SEQEND
  0
POLYLINE
  8
TOPLAYER
 66
1
 10
0.00
 20
0.00
 30
0.00
 40
0.20
 41
0.20
  0
VERTEX
  8
TOPLAYER
 10
69.945
 20
21.345
 30
0.00
  0
VERTEX
  8
TOPLAYER
 10
69.825
 20
21.345
 30
0.00
  0
SEQEND
  0
POLYLINE
  8
TOPLAYER
 66
1
 10
0.00
 20
0.00
 30
0.00
 40
0.20
 41
0.20
  0
VERTEX
  8
TOPLAYER
 10
69.945
 20
21.225
 30
0.00
 42
0.1006644
  0
VERTEX
  8
TOPLAYER
 10
69.825
 20
21.345
 30
0.00
 42
0.00
  0
SEQEND
  0
POLYLINE
  8
TOPLAYER
 66
1
 10
0.00
 20
0.00
 30
0.00
 40
0.20
 41
0.20
  0
VERTEX
  8
TOPLAYER
 10
69.945
 20
21.225
 30
0.00
  0
VERTEX
  8
TOPLAYER
 10
69.945
 20
21.345
 30
0.00
  0
SEQEND
  0
POLYLINE
  8
TOPLAYER
 66
1
 10
0.00
 20
0.00
 30
0.00
 40
0.20
 41
0.20
  0
VERTEX
  8
TOPLAYER
 10
70.005
 20
21.43
 30
0.00
  0
VERTEX
  8
TOPLAYER
 10
6.505
 20
21.43
 30
0.00
  0
SEQEND
  0
POLYLINE
  8
TOPLAYER
 66
1
 10
0.00
 20
0.00
 30
0.00
 40
0.20
 41
0.20
  0
VERTEX
  8
TOPLAYER
 10
6.505
 20
21.43
 30
0.00
 42
0.4142136
  0
VERTEX
  8
TOPLAYER
 10
6.48
 20
21.405
 30
0.00
 42
0.00
  0
SEQEND
  0
POLYLINE
  8
TOPLAYER
 66
1
 10
0.00
 20
0.00
 30
0.00
 40
0.20
 41
0.20
  0
VERTEX
  8
TOPLAYER
 10
6.48
 20
21.405
 30
0.00
  0
VERTEX
  8
TOPLAYER
 10
6.48
 20
8.65
 30
0.00
  0
SEQEND
  0
POLYLINE
  8
TOPLAYER
 66
1
 10
0.00
 20
0.00
 30
0.00
 40
0.20
 41
0.20
  0
VERTEX
  8
TOPLAYER
 10
6.485
 20
8.625
 30
0.00
 42
0.0613202
  0
VERTEX
  8
TOPLAYER
 10
6.481866
 20
8.650466
 30
0.00
 42
0.00
  0
SEQEND
  0
POLYLINE
  8
TOPLAYER
 66
1
 10
0.00
 20
0.00
 30
0.00
 40
0.20
 41
0.20
  0
VERTEX
  8
TOPLAYER
 10
6.48
 20
8.61
 30
0.00
 42
0.0372397
  0
VERTEX
  8
TOPLAYER
 10
6.481118
 20
8.625
 30
0.00
 42
0.00
  0
SEQEND
  0
POLYLINE
  8
TOPLAYER
 66
1
 10
0.00
 20
0.00
 30
0.00
 40
0.20
 41
0.20
  0
VERTEX
  8
TOPLAYER
 10
6.48
 20
8.61
 30
0.00
 42
0.473828
  0
VERTEX
  8
TOPLAYER
 10
6.505
 20
8.58
 30
0.00
 42
0.00
  0
SEQEND
  0
POLYLINE
  8
TOPLAYER
 66
1
 10
0.00
 20
0.00
 30
0.00
 40
0.20
 41
0.20
  0
VERTEX
  8
TOPLAYER
 10
6.505
 20
8.58
 30
0.00
  0
VERTEX
  8
TOPLAYER
 10
70.005
 20
8.58
 30
0.00
  0
SEQEND
  0
POLYLINE
  8
TOPLAYER
 66
1
 10
0.00
 20
0.00
 30
0.00
 40
0.20
 41
0.20
  0
VERTEX
  8
TOPLAYER
 10
70.005
 20
8.58
 30
0.00
 42
0.4738232
  0
VERTEX
  8
TOPLAYER
 10
70.03
 20
8.61
 30
0.00
 42
0.00
  0
SEQEND
  0
POLYLINE
  8
TOPLAYER
 66
1
 10
0.00
 20
0.00
 30
0.00
 40
0.20
 41
0.20
  0
VERTEX
  8
TOPLAYER
 10
70.03
 20
8.625
 30
0.00
 42
0.0372436
  0
VERTEX
  8
TOPLAYER
 10
70.031104
 20
8.610164
 30
0.00
 42
0.00
  0
SEQEND
  0
POLYLINE
  8
TOPLAYER
 66
1
 10
0.00
 20
0.00
 30
0.00
 40
0.20
 41
0.20
  0
VERTEX
  8
TOPLAYER
 10
70.03
 20
8.625
 30
0.00
  0
VERTEX
  8
TOPLAYER
 10
70.03
 20
21.405
 30
0.00
  0
SEQEND
  0
POLYLINE
  8
TOPLAYER
 66
1
 10
0.00
 20
0.00
 30
0.00
 40
0.20
 41
0.20
  0
VERTEX
  8
TOPLAYER
 10
70.03
 20
21.405
 30
0.00
 42
0.4142136
  0
VERTEX
  8
TOPLAYER
 10
70.005
 20
21.43
 30
0.00
 42
0.00
  0
SEQEND
  0
POLYLINE
  8
TOPLAYER
 66
1
 10
0.00
 20
0.00
 30
0.00
 40
0.20
 41
0.20
  0
VERTEX
  8
TOPLAYER
 10
6.5049
 20
8.605
 30
0.00
  0
VERTEX
  8
TOPLAYER
 10
70.0049
 20
8.605
 30
0.00
  0
VERTEX
  8
TOPLAYER
 10
70.0049
 20
21.4051
 30
0.00
  0
VERTEX
  8
TOPLAYER
 10
6.5049
 20
21.4051
 30
0.00
  0
VERTEX
  8
TOPLAYER
 10
6.5049
 20
8.605
 30
0.00
  0
SEQEND
  0
POLYLINE
  8
TOPLAYER
 66
1
 10
0.00
 20
0.00
 30
0.00
 40
0.20
 41
0.20
  0
VERTEX
  8
TOPLAYER
 10
69.83
 20
8.665
 30
0.00
 42
0.0916627
  0
VERTEX
  8
TOPLAYER
 10
69.944994
 20
8.775002
 30
0.00
 42
0.00
  0
SEQEND
  0
POLYLINE
  8
TOPLAYER
 66
1
 10
0.00
 20
0.00
 30
0.00
 40
0.20
 41
0.20
  0
VERTEX
  8
TOPLAYER
 10
69.83
 20
8.665
 30
0.00
  0
VERTEX
  8
TOPLAYER
 10
69.945
 20
8.665
 30
0.00
  0
VERTEX
  8
TOPLAYER
 10
69.945
 20
8.775
 30
0.00
  0
SEQEND
  0
POLYLINE
  8
TOPLAYER
 66
1
 10
0.00
 20
0.00
 30
0.00
 40
0.20
 41
0.20
  0
VERTEX
  8
TOPLAYER
 10
69.945
 20
21.345
 30
0.00
  0
VERTEX
  8
TOPLAYER
 10
69.825
 20
21.345
 30
0.00
  0
SEQEND
  0
POLYLINE
  8
TOPLAYER
 66
1
 10
0.00
 20
0.00
 30
0.00
 40
0.20
 41
0.20
  0
VERTEX
  8
TOPLAYER
 10
69.945
 20
21.225
 30
0.00
 42
0.1006644
  0
VERTEX
  8
TOPLAYER
 10
69.825
 20
21.345
 30
0.00
 42
0.00
  0
SEQEND
  0
POLYLINE
  8
TOPLAYER
 66
1
 10
0.00
 20
0.00
 30
0.00
 40
0.20
 41
0.20
  0
VERTEX
  8
TOPLAYER
 10
69.945
 20
21.225
 30
0.00
  0
VERTEX
  8
TOPLAYER
 10
69.945
 20
21.345
 30
0.00
  0
SEQEND
  0
POLYLINE
  8
TOPLAYER
 66
1
 10
0.00
 20
0.00
 30
0.00
 40
0.20
 41
0.20
  0
VERTEX
  8
TOPLAYER
 10
70.005
 20
21.43
 30
0.00
  0
VERTEX
  8
TOPLAYER
 10
6.505
 20
21.43
 30
0.00
  0
SEQEND
  0
POLYLINE
  8
TOPLAYER
 66
1
 10
0.00
 20
0.00
 30
0.00
 40
0.20
 41
0.20
  0
VERTEX
  8
TOPLAYER
 10
6.505
 20
21.43
 30
0.00
 42
0.4142136
  0
VERTEX
  8
TOPLAYER
 10
6.48
 20
21.405
 30
0.00
 42
0.00
  0
SEQEND
  0
POLYLINE
  8
TOPLAYER
 66
1
 10
0.00
 20
0.00
 30
0.00
 40
0.20
 41
0.20
  0
VERTEX
  8
TOPLAYER
 10
6.48
 20
21.405
 30
0.00
  0
VERTEX
  8
TOPLAYER
 10
6.48
 20
8.65
 30
0.00
  0
SEQEND
  0
POLYLINE
  8
TOPLAYER
 66
1
 10
0.00
 20
0.00
 30
0.00
 40
0.20
 41
0.20
  0
VERTEX
  8
TOPLAYER
 10
6.485
 20
8.625
 30
0.00
 42
0.0613202
  0
VERTEX
  8
TOPLAYER
 10
6.481866
 20
8.650466
 30
0.00
 42
0.00
  0
SEQEND
  0
POLYLINE
  8
TOPLAYER
 66
1
 10
0.00
 20
0.00
 30
0.00
 40
0.20
 41
0.20
  0
VERTEX
  8
TOPLAYER
 10
6.48
 20
8.61
 30
0.00
 42
0.0372397
  0
VERTEX
  8
TOPLAYER
 10
6.481118
 20
8.625
 30
0.00
 42
0.00
  0
SEQEND
  0
POLYLINE
  8
TOPLAYER
 66
1
 10
0.00
 20
0.00
 30
0.00
 40
0.20
 41
0.20
  0
VERTEX
  8
TOPLAYER
 10
6.48
 20
8.61
 30
0.00
 42
0.473828
  0
VERTEX
  8
TOPLAYER
 10
6.505
 20
8.58
 30
0.00
 42
0.00
  0
SEQEND
  0
POLYLINE
  8
TOPLAYER
 66
1
 10
0.00
 20
0.00
 30
0.00
 40
0.20
 41
0.20
  0
VERTEX
  8
TOPLAYER
 10
6.505
 20
8.58
 30
0.00
  0
VERTEX
  8
TOPLAYER
 10
70.005
 20
8.58
 30
0.00
  0
SEQEND
  0
POLYLINE
  8
TOPLAYER
 66
1
 10
0.00
 20
0.00
 30
0.00
 40
0.20
 41
0.20
  0
VERTEX
  8
TOPLAYER
 10
70.005
 20
8.58
 30
0.00
 42
0.4738232
  0
VERTEX
  8
TOPLAYER
 10
70.03
 20
8.61
 30
0.00
 42
0.00
  0
SEQEND
  0
POLYLINE
  8
TOPLAYER
 66
1
 10
0.00
 20
0.00
 30
0.00
 40
0.20
 41
0.20
  0
VERTEX
  8
TOPLAYER
 10
70.03
 20
8.625
 30
0.00
 42
0.0372436
  0
VERTEX
  8
TOPLAYER
 10
70.031104
 20
8.610164
 30
0.00
 42
0.00
  0
SEQEND
  0
POLYLINE
  8
TOPLAYER
 66
1
 10
0.00
 20
0.00
 30
0.00
 40
0.20
 41
0.20
  0
VERTEX
  8
TOPLAYER
 10
70.03
 20
8.625
 30
0.00
  0
VERTEX
  8
TOPLAYER
 10
70.03
 20
21.405
 30
0.00
  0
SEQEND
  0
POLYLINE
  8
TOPLAYER
 66
1
 10
0.00
 20
0.00
 30
0.00
 40
0.20
 41
0.20
  0
VERTEX
  8
TOPLAYER
 10
70.03
 20
21.405
 30
0.00
 42
0.4142136
  0
VERTEX
  8
TOPLAYER
 10
70.005
 20
21.43
 30
0.00
 42
0.00
  0
SEQEND
  0
ENDSEC
  0
EOF
