*
*
G04 PADS 9.3 Build Number: 433611 generated Gerber (RS-274-X) file*
G04 PC Version=2.1*
*
%IN "MMSP_R.pcb"*%
*
%MOIN*%
*
%FSLAX35Y35*%
*
*
*
*
G04 PC Standard Apertures*
*
*
G04 Thermal Relief Aperture macro.*
%AMTER*
1,1,$1,0,0*
1,0,$1-$2,0,0*
21,0,$3,$4,0,0,45*
21,0,$3,$4,0,0,135*
%
*
*
G04 Annular Aperture macro.*
%AMANN*
1,1,$1,0,0*
1,0,$2,0,0*
%
*
*
G04 Odd Aperture macro.*
%AMODD*
1,1,$1,0,0*
1,0,$1-0.005,0,0*
%
*
*
G04 PC Custom Aperture Macros*
*
*
*
*
*
*
G04 PC Aperture Table*
*
%ADD010C,0.001*%
%ADD013C,0.01*%
%ADD014C,0.00591*%
%ADD015C,0.00787*%
%ADD042C,0.006*%
*
*
*
*
G04 PC Circuitry*
G04 Layer Name MMSP_R.pcb - circuitry*
%LPD*%
*
*
G04 PC Custom Flashes*
G04 Layer Name MMSP_R.pcb - flashes*
%LPD*%
*
*
G04 PC Circuitry*
G04 Layer Name MMSP_R.pcb - circuitry*
%LPD*%
*
G54D10*
G01X1084338Y879416D02*
G75*
G03X1091450Y870727I6795J-1694D01*
G01X1084337Y879411D02*
X1084469Y879661D01*
X1084449Y879640*
X1099338Y910590*
X1101338Y925590*
X1099000Y945000*
X1086000Y959000*
X1043000Y982000*
X1010098*
X994098Y996000*
X979772Y1024917*
X985282Y1034748D02*
G03X979774Y1024913I607J-6800D01*
G01X985288Y1034748D02*
X985335Y1034744D01*
X986024Y1034055*
X986021Y1034056D02*
G03X994094Y1034883I3373J6886D01*
G01X994091Y1034881D02*
X994565Y1035356D01*
X1015000Y1037000*
X1057000Y1039000*
X1110433*
G03X1113187Y1034052I5045J-433*
G01X1113191Y1034049D02*
G03X1121065I3937J4610D01*
G01X1121067Y1034051D02*
X1124016Y1037000D01*
X1134000*
X1200197Y1028298*
X1201353*
G03X1209173Y1027455I4431J4416*
G01X1209174D02*
X1209247Y1027530D01*
X1214758Y1026365*
X1215407Y1024033D02*
G03X1214757Y1026366I-2399J589D01*
G01X1215407Y1024032D02*
X1208068Y994095D01*
X1203663Y972687*
X1195353Y936537*
X1196877Y932972*
X1193429Y918301D02*
G03X1196877Y932946I-27976J14316D01*
G01X1193432Y918307D02*
X1191535D01*
X1188000Y905000*
X1178563Y871588*
X1175919Y863986*
X1173588Y862205D02*
G03X1175920Y863988I-330J2848D01*
G01X1173585Y862205D02*
X1158055D01*
X1138351Y864223D02*
G03X1158054Y862204I11040J10587D01*
G01X1138356Y864218D02*
X1132826Y870374D01*
X1118110*
X1116978Y869242*
X1110236*
X1107677Y870727*
X1091453*
G54D13*
X1290583Y936727D02*
X1290129Y937352D01*
X1289447Y937665*
X1288538*
X1287856Y937352*
X1287402Y936727*
Y936102*
X1287629Y935477*
X1287856Y935165*
X1288311Y934852*
X1289674Y934227*
X1290129Y933915*
X1290356Y933602*
X1290583Y932977*
Y932040*
X1290129Y931415*
X1289447Y931102*
X1288538*
X1287856Y931415*
X1287402Y932040*
X1292629Y937665D02*
X1292856Y937352D01*
X1293083Y937665*
X1292856Y937977*
X1292629Y937665*
X1292856Y935477D02*
Y931102D01*
X1295129Y937665D02*
Y931102D01*
X1297174Y937665D02*
Y931102D01*
X1299447Y935477D02*
X1297174Y932352D01*
X1298083Y933602D02*
X1299674Y931102D01*
X1304220Y934540D02*
X1303992Y935165D01*
X1303311Y935477*
X1302629*
X1301947Y935165*
X1301720Y934540*
X1301947Y933915*
X1302402Y933602*
X1303538Y933290*
X1303992Y932977*
X1304220Y932352*
Y932040*
X1303992Y931415*
X1303311Y931102*
X1302629*
X1301947Y931415*
X1301720Y932040*
X1308992Y934540D02*
X1308538Y935165D01*
X1308083Y935477*
X1307402*
X1306947Y935165*
X1306492Y934540*
X1306265Y933602*
Y932977*
X1306492Y932040*
X1306947Y931415*
X1307402Y931102*
X1308083*
X1308538Y931415*
X1308992Y932040*
X1311038Y935477D02*
Y931102D01*
Y933602D02*
X1311265Y934540D01*
X1311720Y935165*
X1312174Y935477*
X1312856*
X1314902Y933602D02*
X1317629D01*
Y934227*
X1317402Y934852*
X1317174Y935165*
X1316720Y935477*
X1316038*
X1315583Y935165*
X1315129Y934540*
X1314902Y933602*
Y932977*
X1315129Y932040*
X1315583Y931415*
X1316038Y931102*
X1316720*
X1317174Y931415*
X1317629Y932040*
X1319674Y933602D02*
X1322402D01*
Y934227*
X1322174Y934852*
X1321947Y935165*
X1321492Y935477*
X1320811*
X1320356Y935165*
X1319902Y934540*
X1319674Y933602*
Y932977*
X1319902Y932040*
X1320356Y931415*
X1320811Y931102*
X1321492*
X1321947Y931415*
X1322402Y932040*
X1324447Y935477D02*
Y931102D01*
Y934227D02*
X1325129Y935165D01*
X1325583Y935477*
X1326265*
X1326720Y935165*
X1326947Y934227*
Y931102*
X1334220Y937665D02*
Y931102D01*
Y937665D02*
X1336265D01*
X1336947Y937352*
X1337174Y937040*
X1337402Y936415*
Y935790*
X1337174Y935165*
X1336947Y934852*
X1336265Y934540*
X1334220D02*
X1336265D01*
X1336947Y934227*
X1337174Y933915*
X1337402Y933290*
Y932352*
X1337174Y931727*
X1336947Y931415*
X1336265Y931102*
X1334220*
X1340583Y935477D02*
X1340129Y935165D01*
X1339674Y934540*
X1339447Y933602*
Y932977*
X1339674Y932040*
X1340129Y931415*
X1340583Y931102*
X1341265*
X1341720Y931415*
X1342174Y932040*
X1342402Y932977*
Y933602*
X1342174Y934540*
X1341720Y935165*
X1341265Y935477*
X1340583*
X1345129Y937665D02*
Y932352D01*
X1345356Y931415*
X1345811Y931102*
X1346265*
X1344447Y935477D02*
X1346038D01*
X1348992Y937665D02*
Y932352D01*
X1349220Y931415*
X1349674Y931102*
X1350129*
X1348311Y935477D02*
X1349902D01*
X1353311D02*
X1352856Y935165D01*
X1352402Y934540*
X1352174Y933602*
Y932977*
X1352402Y932040*
X1352856Y931415*
X1353311Y931102*
X1353992*
X1354447Y931415*
X1354902Y932040*
X1355129Y932977*
Y933602*
X1354902Y934540*
X1354447Y935165*
X1353992Y935477*
X1353311*
X1357174D02*
Y931102D01*
Y934227D02*
X1357856Y935165D01*
X1358311Y935477*
X1358992*
X1359447Y935165*
X1359674Y934227*
Y931102*
Y934227D02*
X1360356Y935165D01*
X1360811Y935477*
X1361492*
X1361947Y935165*
X1362174Y934227*
Y931102*
X1289674Y912665D02*
X1287402Y908290D01*
X1290811*
X1289674Y912665D02*
Y906102D01*
X1298083Y912665D02*
Y906102D01*
X1300811*
X1305583Y910477D02*
Y906102D01*
Y909540D02*
X1305129Y910165D01*
X1304674Y910477*
X1303992*
X1303538Y910165*
X1303083Y909540*
X1302856Y908602*
Y907977*
X1303083Y907040*
X1303538Y906415*
X1303992Y906102*
X1304674*
X1305129Y906415*
X1305583Y907040*
X1307856Y910477D02*
X1309220Y906102D01*
X1310583Y910477D02*
X1309220Y906102D01*
X1308765Y904852*
X1308311Y904227*
X1307856Y903915*
X1307629*
X1312629Y908602D02*
X1315356D01*
Y909227*
X1315129Y909852*
X1314902Y910165*
X1314447Y910477*
X1313765*
X1313311Y910165*
X1312856Y909540*
X1312629Y908602*
Y907977*
X1312856Y907040*
X1313311Y906415*
X1313765Y906102*
X1314447*
X1314902Y906415*
X1315356Y907040*
X1317402Y910477D02*
Y906102D01*
Y908602D02*
X1317629Y909540D01*
X1318083Y910165*
X1318538Y910477*
X1319220*
X1326492Y912665D02*
Y906102D01*
Y912665D02*
X1329447D01*
X1326492Y909540D02*
X1328311D01*
X1331492Y912665D02*
Y906102D01*
X1333538Y908602D02*
X1336265D01*
Y909227*
X1336038Y909852*
X1335811Y910165*
X1335356Y910477*
X1334674*
X1334220Y910165*
X1333765Y909540*
X1333538Y908602*
Y907977*
X1333765Y907040*
X1334220Y906415*
X1334674Y906102*
X1335356*
X1335811Y906415*
X1336265Y907040*
X1338311Y910477D02*
X1340811Y906102D01*
Y910477D02*
X1338311Y906102D01*
X1342856Y912665D02*
X1343083Y912352D01*
X1343311Y912665*
X1343083Y912977*
X1342856Y912665*
X1343083Y910477D02*
Y906102D01*
X1345356Y912665D02*
Y906102D01*
Y909540D02*
X1345811Y910165D01*
X1346265Y910477*
X1346947*
X1347402Y910165*
X1347856Y909540*
X1348083Y908602*
Y907977*
X1347856Y907040*
X1347402Y906415*
X1346947Y906102*
X1346265*
X1345811Y906415*
X1345356Y907040*
X1350129Y912665D02*
Y906102D01*
X1352174Y908602D02*
X1354902D01*
Y909227*
X1354674Y909852*
X1354447Y910165*
X1353992Y910477*
X1353311*
X1352856Y910165*
X1352402Y909540*
X1352174Y908602*
Y907977*
X1352402Y907040*
X1352856Y906415*
X1353311Y906102*
X1353992*
X1354447Y906415*
X1354902Y907040*
X1362174Y912665D02*
Y906102D01*
Y912665D02*
X1364220D01*
X1364902Y912352*
X1365129Y912040*
X1365356Y911415*
Y910477*
X1365129Y909852*
X1364902Y909540*
X1364220Y909227*
X1362174*
X1370811Y911102D02*
X1370583Y911727D01*
X1370129Y912352*
X1369674Y912665*
X1368765*
X1368311Y912352*
X1367856Y911727*
X1367629Y911102*
X1367402Y910165*
Y908602*
X1367629Y907665*
X1367856Y907040*
X1368311Y906415*
X1368765Y906102*
X1369674*
X1370129Y906415*
X1370583Y907040*
X1370811Y907665*
X1372856Y912665D02*
Y906102D01*
Y912665D02*
X1374902D01*
X1375583Y912352*
X1375811Y912040*
X1376038Y911415*
Y910790*
X1375811Y910165*
X1375583Y909852*
X1374902Y909540*
X1372856D02*
X1374902D01*
X1375583Y909227*
X1375811Y908915*
X1376038Y908290*
Y907352*
X1375811Y906727*
X1375583Y906415*
X1374902Y906102*
X1372856*
X1378538Y906415D02*
X1378311Y906102D01*
X1378083Y906415*
X1378311Y906727*
X1378538Y906415*
Y905790*
X1378311Y905165*
X1378083Y904852*
X1392629Y912665D02*
Y906102D01*
X1391038Y912665D02*
X1394220D01*
X1396265D02*
X1396492Y912352D01*
X1396720Y912665*
X1396492Y912977*
X1396265Y912665*
X1396492Y910477D02*
Y906102D01*
X1401492Y909540D02*
X1401038Y910165D01*
X1400583Y910477*
X1399902*
X1399447Y910165*
X1398992Y909540*
X1398765Y908602*
Y907977*
X1398992Y907040*
X1399447Y906415*
X1399902Y906102*
X1400583*
X1401038Y906415*
X1401492Y907040*
X1403538Y912665D02*
Y906102D01*
X1405811Y910477D02*
X1403538Y907352D01*
X1404447Y908602D02*
X1406038Y906102D01*
X1408083Y910477D02*
Y906102D01*
Y909227D02*
X1408765Y910165D01*
X1409220Y910477*
X1409902*
X1410356Y910165*
X1410583Y909227*
Y906102*
X1412629Y908602D02*
X1415356D01*
Y909227*
X1415129Y909852*
X1414902Y910165*
X1414447Y910477*
X1413765*
X1413311Y910165*
X1412856Y909540*
X1412629Y908602*
Y907977*
X1412856Y907040*
X1413311Y906415*
X1413765Y906102*
X1414447*
X1414902Y906415*
X1415356Y907040*
X1419902Y909540D02*
X1419674Y910165D01*
X1418992Y910477*
X1418311*
X1417629Y910165*
X1417402Y909540*
X1417629Y908915*
X1418083Y908602*
X1419220Y908290*
X1419674Y907977*
X1419902Y907352*
Y907040*
X1419674Y906415*
X1418992Y906102*
X1418311*
X1417629Y906415*
X1417402Y907040*
X1424447Y909540D02*
X1424220Y910165D01*
X1423538Y910477*
X1422856*
X1422174Y910165*
X1421947Y909540*
X1422174Y908915*
X1422629Y908602*
X1423765Y908290*
X1424220Y907977*
X1424447Y907352*
Y907040*
X1424220Y906415*
X1423538Y906102*
X1422856*
X1422174Y906415*
X1421947Y907040*
X1433083Y912665D02*
X1432402Y912352D01*
X1431947Y911415*
X1431720Y909852*
Y908915*
X1431947Y907352*
X1432402Y906415*
X1433083Y906102*
X1433538*
X1434220Y906415*
X1434674Y907352*
X1434902Y908915*
Y909852*
X1434674Y911415*
X1434220Y912352*
X1433538Y912665*
X1433083*
X1437174Y906727D02*
X1436947Y906415D01*
X1437174Y906102*
X1437402Y906415*
X1437174Y906727*
X1439674Y911102D02*
Y911415D01*
X1439902Y912040*
X1440129Y912352*
X1440583Y912665*
X1441492*
X1441947Y912352*
X1442174Y912040*
X1442402Y911415*
Y910790*
X1442174Y910165*
X1441720Y909227*
X1439447Y906102*
X1442629*
X1447629Y912665D02*
X1445356D01*
X1445129Y909852*
X1445356Y910165*
X1446038Y910477*
X1446720*
X1447402Y910165*
X1447856Y909540*
X1448083Y908602*
X1447856Y907977*
X1447629Y907040*
X1447174Y906415*
X1446492Y906102*
X1445811*
X1445129Y906415*
X1444902Y906727*
X1444674Y907352*
X1450129Y910477D02*
Y906102D01*
Y909227D02*
X1450811Y910165D01*
X1451265Y910477*
X1451947*
X1452402Y910165*
X1452629Y909227*
Y906102*
Y909227D02*
X1453311Y910165D01*
X1453765Y910477*
X1454447*
X1454902Y910165*
X1455129Y909227*
Y906102*
X1457174Y910477D02*
Y906102D01*
Y909227D02*
X1457856Y910165D01*
X1458311Y910477*
X1458992*
X1459447Y910165*
X1459674Y909227*
Y906102*
Y909227D02*
X1460356Y910165D01*
X1460811Y910477*
X1461492*
X1461947Y910165*
X1462174Y909227*
Y906102*
X1469447Y912665D02*
Y906102D01*
Y912665D02*
X1472402D01*
X1469447Y909540D02*
X1471265D01*
X1474447Y912665D02*
X1474674Y912352D01*
X1474902Y912665*
X1474674Y912977*
X1474447Y912665*
X1474674Y910477D02*
Y906102D01*
X1476947Y910477D02*
Y906102D01*
Y909227D02*
X1477629Y910165D01*
X1478083Y910477*
X1478765*
X1479220Y910165*
X1479447Y909227*
Y906102*
X1481492Y912665D02*
X1481720Y912352D01*
X1481947Y912665*
X1481720Y912977*
X1481492Y912665*
X1481720Y910477D02*
Y906102D01*
X1486492Y909540D02*
X1486265Y910165D01*
X1485583Y910477*
X1484902*
X1484220Y910165*
X1483992Y909540*
X1484220Y908915*
X1484674Y908602*
X1485811Y908290*
X1486265Y907977*
X1486492Y907352*
Y907040*
X1486265Y906415*
X1485583Y906102*
X1484902*
X1484220Y906415*
X1483992Y907040*
X1488538Y912665D02*
Y906102D01*
Y909227D02*
X1489220Y910165D01*
X1489674Y910477*
X1490356*
X1490811Y910165*
X1491038Y909227*
Y906102*
X1493083Y912665D02*
X1493311Y912352D01*
X1493538Y912665*
X1493311Y912977*
X1493083Y912665*
X1493311Y910477D02*
Y906102D01*
X1495583Y910477D02*
Y906102D01*
Y909227D02*
X1496265Y910165D01*
X1496720Y910477*
X1497402*
X1497856Y910165*
X1498083Y909227*
Y906102*
X1502856Y910477D02*
Y905477D01*
X1502629Y904540*
X1502402Y904227*
X1501947Y903915*
X1501265*
X1500811Y904227*
X1502856Y909540D02*
X1502402Y910165D01*
X1501947Y910477*
X1501265*
X1500811Y910165*
X1500356Y909540*
X1500129Y908602*
Y907977*
X1500356Y907040*
X1500811Y906415*
X1501265Y906102*
X1501947*
X1502402Y906415*
X1502856Y907040*
X1513538Y911102D02*
X1513311Y911727D01*
X1512856Y912352*
X1512402Y912665*
X1511492*
X1511038Y912352*
X1510583Y911727*
X1510356Y911102*
X1510129Y910165*
Y908602*
X1510356Y907665*
X1510583Y907040*
X1511038Y906415*
X1511492Y906102*
X1512402*
X1512856Y906415*
X1513311Y907040*
X1513538Y907665*
Y908602*
X1512402D02*
X1513538D01*
X1516947Y912665D02*
X1516492Y912352D01*
X1516038Y911727*
X1515811Y911102*
X1515583Y910165*
Y908602*
X1515811Y907665*
X1516038Y907040*
X1516492Y906415*
X1516947Y906102*
X1517856*
X1518311Y906415*
X1518765Y907040*
X1518992Y907665*
X1519220Y908602*
Y910165*
X1518992Y911102*
X1518765Y911727*
X1518311Y912352*
X1517856Y912665*
X1516947*
X1521265D02*
Y906102D01*
X1523992*
X1526038Y912665D02*
Y906102D01*
Y912665D02*
X1527629D01*
X1528311Y912352*
X1528765Y911727*
X1528992Y911102*
X1529220Y910165*
Y908602*
X1528992Y907665*
X1528765Y907040*
X1528311Y906415*
X1527629Y906102*
X1526038*
G54D14*
X1190039Y1018024D02*
Y1014794D01*
Y1018024D02*
X1189033D01*
X1188697Y1017870*
X1188585Y1017716*
X1188474Y1017409*
Y1016947*
X1188585Y1016640*
X1188697Y1016486*
X1189033Y1016332*
X1190039*
X1187467Y1017409D02*
X1187243Y1017562D01*
X1186908Y1018024*
Y1014794*
X1142795Y886134D02*
Y882904D01*
Y886134D02*
X1141789D01*
X1141453Y885980*
X1141341Y885826*
X1141229Y885519*
Y885057*
X1141341Y884750*
X1141453Y884596*
X1141789Y884442*
X1142795*
X1139664Y886134D02*
X1139999Y885980D01*
X1140111Y885673*
Y885365*
X1139999Y885057*
X1139775Y884904*
X1139328Y884750*
X1138992Y884596*
X1138769Y884289*
X1138657Y883981*
Y883520*
X1138769Y883212*
X1138881Y883058*
X1139216Y882904*
X1139664*
X1139999Y883058*
X1140111Y883212*
X1140223Y883520*
Y883981*
X1140111Y884289*
X1139887Y884596*
X1139552Y884750*
X1139104Y884904*
X1138881Y885057*
X1138769Y885365*
Y885673*
X1138881Y885980*
X1139216Y886134*
X1139664*
X1170354Y1000307D02*
Y997078D01*
Y1000307D02*
X1169348D01*
X1169012Y1000153*
X1168900Y1000000*
X1168788Y999692*
Y999231*
X1168900Y998923*
X1169012Y998769*
X1169348Y998616*
X1170354*
X1167782Y999692D02*
X1167558Y999846D01*
X1167223Y1000307*
Y997078*
X1166216Y999692D02*
X1165992Y999846D01*
X1165657Y1000307*
Y997078*
X1154606Y903851D02*
Y900621D01*
Y903851D02*
X1153600D01*
X1153264Y903697*
X1153152Y903543*
X1153040Y903235*
Y902774*
X1153152Y902466*
X1153264Y902313*
X1153600Y902159*
X1154606*
X1152034Y903235D02*
X1151810Y903389D01*
X1151475Y903851*
Y900621*
X1150356Y903082D02*
Y903235D01*
X1150244Y903543*
X1150132Y903697*
X1149909Y903851*
X1149461*
X1149238Y903697*
X1149126Y903543*
X1149014Y903235*
Y902928*
X1149126Y902620*
X1149349Y902159*
X1149349D02*
X1150468Y900621D01*
X1148902*
X1111299Y1023929D02*
Y1020700D01*
Y1023929D02*
X1110293D01*
X1109957Y1023775*
X1109845Y1023622*
X1109733Y1023314*
Y1022853*
X1109845Y1022545*
X1109957Y1022391*
X1110293Y1022238*
X1111299*
X1108727Y1023314D02*
X1108503Y1023468D01*
X1108168Y1023929*
X1108168D02*
Y1020700D01*
X1106937Y1023929D02*
X1105707D01*
X1106378Y1022699*
X1106042*
X1105819Y1022545*
X1105707Y1022391*
X1105595Y1021930*
Y1021622*
X1105707Y1021161*
X1105931Y1020853*
X1106266Y1020700*
X1106602*
X1106937Y1020853*
X1107049Y1021007*
X1107161Y1021315*
X1134921Y923536D02*
Y920306D01*
Y923536D02*
X1133915D01*
X1133579Y923382*
X1133467Y923228*
X1133355Y922920*
Y922459*
X1133467Y922151*
X1133579Y921998*
X1133915Y921844*
X1134921*
X1132349Y922920D02*
X1132125Y923074D01*
X1131790Y923536*
Y920306*
X1129664Y923536D02*
X1130783Y921383D01*
X1129105*
X1129664Y923536D02*
Y920306D01*
X1111299Y1004244D02*
Y1001015D01*
Y1004244D02*
X1110293D01*
X1109957Y1004090*
X1109845Y1003937*
X1109733Y1003629*
Y1003168*
X1109845Y1002860*
X1109957Y1002706*
X1110293Y1002553*
X1111299*
X1108727Y1003629D02*
X1108503Y1003783D01*
X1108168Y1004244*
X1108168D02*
Y1001015D01*
X1105707Y1004244D02*
X1106825D01*
X1106937Y1002860*
X1106825Y1003014*
X1106490Y1003168*
X1106154*
X1105819Y1003014*
X1105595Y1002706*
X1105483Y1002245*
X1105595Y1001937*
X1105707Y1001476*
X1105931Y1001168*
X1106266Y1001015*
X1106602*
X1106937Y1001168*
X1107049Y1001322*
X1107161Y1001630*
X1174291Y897945D02*
Y894715D01*
Y897945D02*
X1173285D01*
X1172949Y897791*
X1172837Y897637*
X1172725Y897330*
Y896868*
X1172837Y896561*
X1172949Y896407*
X1173285Y896253*
X1174291*
X1171719Y897330D02*
X1171495Y897484D01*
X1171160Y897945*
Y894715*
X1169594Y897945D02*
X1169929Y897791D01*
X1170041Y897484*
Y897176*
X1169929Y896868*
X1169706Y896715*
X1169258Y896561*
X1168923Y896407*
X1168699Y896100*
X1168587Y895792*
Y895331*
X1168699Y895023*
X1168811Y894869*
X1169146Y894715*
X1169594*
X1169929Y894869*
X1170041Y895023*
X1170153Y895331*
Y895792*
X1170041Y896100*
X1169817Y896407*
X1169482Y896561*
X1169035Y896715*
X1168811Y896868*
X1168699Y897176*
Y897484*
X1168811Y897791*
X1169146Y897945*
X1169594*
X1130984Y1004244D02*
Y1001015D01*
Y1004244D02*
X1129978D01*
X1129642Y1004090*
X1129530Y1003937*
X1129418Y1003629*
Y1003168*
X1129530Y1002860*
X1129642Y1002706*
X1129978Y1002553*
X1130984*
X1128412Y1003629D02*
X1128188Y1003783D01*
X1127853Y1004244*
Y1001015*
X1125280Y1004244D02*
X1126399Y1001015D01*
X1126846Y1004244D02*
X1125280D01*
X1154606Y923536D02*
Y920306D01*
Y923536D02*
X1153600D01*
X1153264Y923382*
X1153152Y923228*
X1153040Y922920*
Y922459*
X1153152Y922151*
X1153264Y921998*
X1153600Y921844*
X1154606*
X1151922Y922767D02*
Y922920D01*
X1151810Y923228*
X1151698Y923382*
X1151475Y923536*
X1151027*
X1150804Y923382*
X1150692Y923228*
X1150580Y922920*
Y922613*
X1150692Y922305*
X1150915Y921844*
X1152034Y920306*
X1150468*
X1148790Y923536D02*
X1149126Y923382D01*
X1149349Y922920*
X1149349D02*
X1149461Y922151D01*
Y921690*
X1149349Y920921*
X1149349D02*
X1149126Y920460D01*
X1148790Y920306*
X1148567*
X1148231Y920460*
X1148007Y920921*
X1147895Y921690*
Y922151*
X1148007Y922920*
X1148231Y923382*
X1148567Y923536*
X1148790*
X1111299Y986528D02*
Y983298D01*
Y986528D02*
X1110293D01*
X1109957Y986374*
X1109845Y986220*
X1109733Y985913*
Y985451*
X1109845Y985144*
X1109957Y984990*
X1110293Y984836*
X1111299*
X1108727Y985913D02*
X1108503Y986066D01*
X1108168Y986528*
X1108168D02*
Y983298D01*
X1105707Y985451D02*
X1105819Y984990D01*
X1106042Y984682*
X1106378Y984528*
X1106490*
X1106825Y984682*
X1107049Y984990*
X1107161Y985451*
Y985605*
X1107049Y986066*
X1106825Y986374*
X1106490Y986528*
X1106378*
X1106042Y986374*
X1105819Y986066*
X1105707Y985451*
Y984682*
X1105819Y983913*
X1106042Y983452*
X1106378Y983298*
X1106602*
X1106937Y983452*
X1107049Y983759*
X1115236Y923536D02*
Y920306D01*
Y923536D02*
X1114230D01*
X1113894Y923382*
X1113782Y923228*
X1113670Y922920*
Y922459*
X1113782Y922151*
X1113894Y921998*
X1114230Y921844*
X1115236*
X1112552Y922767D02*
Y922920D01*
X1112440Y923228*
X1112328Y923382*
X1112105Y923536*
X1111657*
X1111433Y923382*
X1111322Y923228*
X1111210Y922920*
Y922613*
X1111322Y922305*
X1111545Y921844*
X1112664Y920306*
X1111098*
X1134921Y943221D02*
Y939991D01*
Y943221D02*
X1133915D01*
X1133579Y943067*
X1133467Y942913*
X1133355Y942605*
Y942144*
X1133467Y941836*
X1133579Y941683*
X1133915Y941529*
X1134921*
X1132237Y942452D02*
Y942605D01*
X1132125Y942913*
X1132013Y943067*
X1131790Y943221*
X1131342*
X1131118Y943067*
X1131007Y942913*
X1130895Y942605*
Y942298*
X1131007Y941990*
X1131230Y941529*
X1132349Y939991*
X1130783*
X1129664Y942452D02*
Y942605D01*
X1129553Y942913*
X1129441Y943067*
X1129217Y943221*
X1128770*
X1128546Y943067*
X1128434Y942913*
X1128322Y942605*
Y942298*
X1128434Y941990*
X1128658Y941529*
X1129776Y939991*
X1128210*
X1130984Y986528D02*
Y983298D01*
Y986528D02*
X1129978D01*
X1129642Y986374*
X1129530Y986220*
X1129418Y985913*
Y985451*
X1129530Y985144*
X1129642Y984990*
X1129978Y984836*
X1130984*
X1128300Y985759D02*
Y985913D01*
X1128188Y986220*
X1128076Y986374*
X1127853Y986528*
X1127405*
X1127181Y986374*
X1127070Y986220*
X1126958Y985913*
Y985605*
X1127070Y985297*
X1127293Y984836*
X1128412Y983298*
X1126846*
X1125839Y985913D02*
X1125616Y986066D01*
X1125280Y986528*
Y983298*
X1115236Y943221D02*
Y939991D01*
Y943221D02*
X1114230D01*
X1113894Y943067*
X1113782Y942913*
X1113670Y942605*
Y942144*
X1113782Y941836*
X1113894Y941683*
X1114230Y941529*
X1115236*
X1112552Y942452D02*
Y942605D01*
X1112440Y942913*
X1112328Y943067*
X1112105Y943221*
X1111657*
X1111433Y943067*
X1111322Y942913*
X1111210Y942605*
Y942298*
X1111322Y941990*
X1111545Y941529*
X1112664Y939991*
X1111098*
X1108973Y943221D02*
X1110091Y941068D01*
X1108414*
X1108973Y943221D02*
Y939991D01*
X1069961Y1023929D02*
Y1020700D01*
Y1023929D02*
X1068954D01*
X1068618Y1023775*
X1068507Y1023622*
X1068395Y1023314*
Y1022853*
X1068507Y1022545*
X1068618Y1022391*
X1068954Y1022238*
X1069961*
X1067276Y1023160D02*
Y1023314D01*
X1067164Y1023622*
X1067053Y1023775*
X1066829Y1023929*
X1066382*
X1066158Y1023775*
X1066046Y1023622*
X1065934Y1023314*
Y1023007*
X1066046Y1022699*
X1066270Y1022238*
X1067388Y1020700*
X1065822*
X1063362Y1023929D02*
X1064480D01*
X1064592Y1022545*
X1064480Y1022699*
X1064145Y1022853*
X1063809*
X1063474Y1022699*
X1063250Y1022391*
X1063138Y1021930*
X1063250Y1021622*
X1063362Y1021161*
X1063585Y1020853*
X1063921Y1020700*
X1064256*
X1064592Y1020853*
X1064704Y1021007*
X1064816Y1021315*
X1192008Y929441D02*
Y926211D01*
Y929441D02*
X1191001D01*
X1190666Y929287*
X1190554Y929133*
X1190442Y928826*
Y928365*
X1190554Y928057*
X1190666Y927903*
X1191001Y927749*
X1192008*
X1189324Y928672D02*
Y928826D01*
X1189212Y929133*
X1189100Y929287*
X1188876Y929441*
X1188429*
X1188205Y929287*
X1188093Y929133*
X1187981Y928826*
Y928518*
X1188093Y928211*
X1188317Y927749*
X1189435Y926211*
X1187870*
X1185521Y928980D02*
X1185633Y929287D01*
X1185968Y929441*
X1186192*
X1186527Y929287*
X1186751Y928826*
X1186863Y928057*
Y927288*
X1186751Y926673*
X1186527Y926365*
X1186192Y926211*
X1186080*
X1185744Y926365*
X1185521Y926673*
X1185409Y927134*
Y927288*
X1185521Y927749*
X1185744Y928057*
X1186080Y928211*
X1186192*
X1186527Y928057*
X1186751Y927749*
X1186863Y927288*
X1190039Y949126D02*
Y945897D01*
Y949126D02*
X1189033D01*
X1188697Y948972*
X1188585Y948819*
X1188474Y948511*
Y948050*
X1188585Y947742*
X1188697Y947588*
X1189033Y947434*
X1190039*
X1187355Y948357D02*
Y948511D01*
X1187243Y948819*
X1187131Y948972*
X1186908Y949126*
X1186460*
X1186237Y948972*
X1186125Y948819*
X1186013Y948511*
Y948203*
X1186125Y947896*
X1186348Y947434*
X1187467Y945897*
X1185901*
X1183329Y949126D02*
X1184447Y945897D01*
X1184894Y949126D02*
X1183329D01*
X1050276Y1023929D02*
Y1020700D01*
Y1023929D02*
X1049269D01*
X1048933Y1023775*
X1048822Y1023622*
X1048710Y1023314*
Y1022853*
X1048822Y1022545*
X1048933Y1022391*
X1049269Y1022238*
X1050276*
X1047591Y1023160D02*
Y1023314D01*
X1047479Y1023622*
X1047368Y1023775*
X1047144Y1023929*
X1046696*
X1046473Y1023775*
X1046361Y1023622*
X1046249Y1023314*
Y1023007*
X1046361Y1022699*
X1046585Y1022238*
X1047703Y1020700*
X1046137*
X1044571Y1023929D02*
X1044907Y1023775D01*
X1045019Y1023468*
Y1023160*
X1044907Y1022853*
X1044683Y1022699*
X1044236Y1022545*
X1043900Y1022391*
X1043677Y1022084*
X1043565Y1021776*
Y1021315*
X1043677Y1021007*
X1043788Y1020853*
X1044124Y1020700*
X1044571*
X1044907Y1020853*
X1045019Y1021007*
X1045131Y1021315*
Y1021776*
X1045019Y1022084*
X1044795Y1022391*
X1044460Y1022545*
X1044012Y1022699*
X1043788Y1022853*
X1043677Y1023160*
Y1023468*
X1043788Y1023775*
X1044124Y1023929*
X1044571*
X1188071Y968811D02*
Y965582D01*
Y968811D02*
X1187064D01*
X1186729Y968657*
X1186617Y968504*
X1186505Y968196*
Y967735*
X1186617Y967427*
X1186729Y967273*
X1187064Y967119*
X1188071*
X1185387Y968042D02*
Y968196D01*
X1185275Y968504*
X1185163Y968657*
X1184939Y968811*
X1184492*
X1184268Y968657*
X1184156Y968504*
X1184044Y968196*
Y967888*
X1184156Y967581*
X1184380Y967119*
X1185498Y965582*
X1183933*
X1181472Y967735D02*
X1181584Y967273D01*
X1181807Y966966*
X1182143Y966812*
X1182255*
X1182590Y966966*
X1182814Y967273*
X1182926Y967735*
Y967888*
X1182814Y968350*
X1182590Y968657*
X1182255Y968811*
X1182143*
X1181807Y968657*
X1181584Y968350*
X1181472Y967735*
Y966966*
X1181584Y966197*
X1181807Y965735*
X1182143Y965582*
X1182367*
X1182702Y965735*
X1182814Y966043*
X1170354Y1021961D02*
Y1018731D01*
Y1021961D02*
X1169348D01*
X1169012Y1021807*
X1168900Y1021653*
X1168788Y1021346*
Y1020884*
X1168900Y1020577*
X1169012Y1020423*
X1169348Y1020269*
X1170354*
X1167558Y1021961D02*
X1166328D01*
X1166999Y1020730*
X1166663*
X1166440Y1020577*
X1166328Y1020423*
X1166216Y1019961*
Y1019654*
X1166328Y1019193*
X1166552Y1018885*
X1166887Y1018731*
X1167223*
X1167558Y1018885*
X1167670Y1019039*
X1167782Y1019346*
X1030591Y1023929D02*
Y1020700D01*
Y1023929D02*
X1029584D01*
X1029248Y1023775*
X1029137Y1023622*
X1029025Y1023314*
Y1022853*
X1029137Y1022545*
X1029248Y1022391*
X1029584Y1022238*
X1030591*
X1027794Y1023929D02*
X1026564D01*
X1027235Y1022699*
X1026900*
X1026676Y1022545*
X1026564Y1022391*
X1026452Y1021930*
Y1021622*
X1026564Y1021161*
X1026788Y1020853*
X1027123Y1020700*
X1027459*
X1027794Y1020853*
X1027906Y1021007*
X1028018Y1021315*
X1024775Y1023929D02*
X1025110Y1023775D01*
X1025334Y1023314*
X1025446Y1022545*
Y1022084*
X1025334Y1021315*
X1025110Y1020853*
X1024775Y1020700*
X1024551*
X1024215Y1020853*
X1023992Y1021315*
X1023880Y1022084*
Y1022545*
X1023992Y1023314*
X1024215Y1023775*
X1024551Y1023929*
X1024775*
X1010906Y1025898D02*
Y1022668D01*
Y1025898D02*
X1009899D01*
X1009563Y1025744*
X1009452Y1025590*
X1009340Y1025283*
Y1024821*
X1009452Y1024514*
X1009563Y1024360*
X1009899Y1024206*
X1010906*
X1008109Y1025898D02*
X1006879D01*
X1007550Y1024667*
X1007215*
X1006991Y1024514*
X1006879Y1024360*
X1006767Y1023898*
X1006767D02*
Y1023591D01*
X1006879Y1023130*
X1007103Y1022822*
X1007438Y1022668*
X1007774*
X1008109Y1022822*
X1008221Y1022976*
X1008333Y1023283*
X1005761Y1025283D02*
X1005537Y1025436D01*
X1005201Y1025898*
Y1022668*
X1170354Y978654D02*
Y975424D01*
Y978654D02*
X1169348D01*
X1169012Y978500*
X1168900Y978346*
X1168788Y978039*
Y977577*
X1168900Y977270*
X1169012Y977116*
X1169348Y976962*
X1170354*
X1167558Y978654D02*
X1166328D01*
X1166999Y977423*
X1166663*
X1166440Y977270*
X1166328Y977116*
X1166216Y976654*
Y976347*
X1166328Y975885*
X1166552Y975578*
X1166887Y975424*
X1167223*
X1167558Y975578*
X1167670Y975732*
X1167782Y976039*
X1165098Y977885D02*
Y978039D01*
X1164986Y978346*
X1164874Y978500*
X1164650Y978654*
X1164203*
X1163979Y978500*
X1163867Y978346*
X1163755Y978039*
Y977731*
X1163867Y977423*
X1164091Y976962*
X1165209Y975424*
X1163644*
X1152638Y982591D02*
Y979361D01*
Y982591D02*
X1151631D01*
X1151296Y982437*
X1151184Y982283*
X1151072Y981976*
Y981514*
X1151184Y981207*
X1151296Y981053*
X1151631Y980899*
X1152638*
X1149842Y982591D02*
X1148611D01*
X1149282Y981360*
X1148947*
X1148723Y981207*
X1148611Y981053*
X1148499Y980591*
Y980284*
X1148611Y979822*
X1148835Y979515*
X1149171Y979361*
X1149506*
X1149842Y979515*
X1149953Y979669*
X1150065Y979976*
X1147269Y982591D02*
X1146039D01*
X1146710Y981360*
X1146374*
X1146151Y981207*
X1146039Y981053*
X1145927Y980591*
Y980284*
X1146039Y979822*
X1146263Y979515*
X1146598Y979361*
X1146934*
X1147269Y979515*
X1147381Y979669*
X1147493Y979976*
X1050276Y1004244D02*
Y1001015D01*
Y1004244D02*
X1049269D01*
X1048933Y1004090*
X1048822Y1003937*
X1048710Y1003629*
Y1003168*
X1048822Y1002860*
X1048933Y1002706*
X1049269Y1002553*
X1050276*
X1047479Y1004244D02*
X1046249D01*
X1046920Y1003014*
X1046585*
X1046361Y1002860*
X1046249Y1002706*
X1046137Y1002245*
Y1001937*
X1046249Y1001476*
X1046473Y1001168*
X1046808Y1001015*
X1047144*
X1047479Y1001168*
X1047591Y1001322*
X1047703Y1001630*
X1044012Y1004244D02*
X1045131Y1002091D01*
X1043453*
X1044012Y1004244D02*
Y1001015D01*
X1030591Y1004244D02*
Y1001015D01*
Y1004244D02*
X1029584D01*
X1029248Y1004090*
X1029137Y1003937*
X1029025Y1003629*
Y1003168*
X1029137Y1002860*
X1029248Y1002706*
X1029584Y1002553*
X1030591*
X1027794Y1004244D02*
X1026564D01*
X1027235Y1003014*
X1026900*
X1026676Y1002860*
X1026564Y1002706*
X1026452Y1002245*
Y1001937*
X1026564Y1001476*
X1026788Y1001168*
X1027123Y1001015*
X1027459*
X1027794Y1001168*
X1027906Y1001322*
X1028018Y1001630*
X1023992Y1004244D02*
X1025110D01*
X1025222Y1002860*
X1025110Y1003014*
X1024775Y1003168*
X1024439*
X1024103Y1003014*
X1023880Y1002706*
X1023768Y1002245*
X1023880Y1001937*
X1023992Y1001476*
X1024215Y1001168*
X1024551Y1001015*
X1024886*
X1025222Y1001168*
X1025334Y1001322*
X1025446Y1001630*
X1062087Y986528D02*
Y983298D01*
Y986528D02*
X1061080D01*
X1060744Y986374*
X1060633Y986220*
X1060521Y985913*
Y985451*
X1060633Y985144*
X1060744Y984990*
X1061080Y984836*
X1062087*
X1059290Y986528D02*
X1058060D01*
X1058731Y985297*
X1058396*
X1058172Y985144*
X1058060Y984990*
X1057948Y984528*
Y984221*
X1058060Y983759*
X1058284Y983452*
X1058619Y983298*
X1058955*
X1059290Y983452*
X1059402Y983606*
X1059514Y983913*
X1055599Y986066D02*
X1055711Y986374D01*
X1056047Y986528*
X1056271*
X1056606Y986374*
X1056830Y985913*
X1056942Y985144*
Y984375*
X1056830Y983759*
X1056606Y983452*
X1056271Y983298*
X1056159*
X1055823Y983452*
X1055599Y983759*
X1055599D02*
X1055488Y984221D01*
Y984375*
X1055599Y984836*
X1055599D02*
X1055823Y985144D01*
X1056159Y985297*
X1056271*
X1056606Y985144*
X1056830Y984836*
X1056942Y984375*
X1150669Y964874D02*
Y961645D01*
Y964874D02*
X1149663D01*
X1149327Y964720*
X1149215Y964567*
X1149103Y964259*
Y963798*
X1149215Y963490*
X1149327Y963336*
X1149663Y963182*
X1150669*
X1147873Y964874D02*
X1146643D01*
X1147314Y963644*
X1146978*
X1146755Y963490*
X1146643Y963336*
X1146531Y962875*
Y962567*
X1146643Y962106*
X1146866Y961798*
X1146866D02*
X1147202Y961645D01*
X1147538*
X1147873Y961798*
X1147985Y961952*
X1148097Y962260*
X1143958Y964874D02*
X1145077Y961645D01*
X1145524Y964874D02*
X1143958D01*
X1174291Y937315D02*
Y934086D01*
Y937315D02*
X1173285D01*
X1172949Y937161*
X1172837Y937008*
X1172725Y936700*
Y936239*
X1172837Y935931*
X1172949Y935777*
X1173285Y935623*
X1174291*
X1171495Y937315D02*
X1170265D01*
X1170936Y936085*
X1170600*
X1170377Y935931*
X1170265Y935777*
X1170153Y935316*
Y935008*
X1170265Y934547*
X1170489Y934239*
X1170824Y934086*
X1171160*
X1171495Y934239*
X1171607Y934393*
X1171719Y934701*
X1168587Y937315D02*
X1168923Y937161D01*
X1169035Y936854*
Y936546*
X1168923Y936239*
X1168699Y936085*
X1168252Y935931*
X1167916Y935777*
X1167692Y935470*
X1167581Y935162*
Y934701*
X1167692Y934393*
X1167804Y934239*
X1168140Y934086*
X1168587*
X1168923Y934239*
X1169035Y934393*
X1169146Y934701*
Y935162*
X1169035Y935470*
X1168811Y935777*
X1168475Y935931*
X1168028Y936085*
X1167804Y936239*
X1167692Y936546*
Y936854*
X1167804Y937161*
X1168140Y937315*
X1168587*
X1170354Y958969D02*
Y955739D01*
Y958969D02*
X1169348D01*
X1169012Y958815*
X1168900Y958661*
X1168788Y958353*
Y957892*
X1168900Y957585*
X1169012Y957431*
X1169348Y957277*
X1170354*
X1167558Y958969D02*
X1166328D01*
X1166999Y957738*
X1166663*
X1166440Y957585*
X1166328Y957431*
X1166216Y956969*
Y956662*
X1166328Y956200*
X1166552Y955893*
X1166887Y955739*
X1167223*
X1167558Y955893*
X1167670Y956047*
X1167782Y956354*
X1163755Y957892D02*
X1163867Y957431D01*
X1164091Y957123*
X1164426Y956969*
X1164538*
X1164874Y957123*
X1165098Y957431*
X1165209Y957892*
Y958046*
X1165098Y958507*
X1164874Y958815*
X1164538Y958969*
X1164426*
X1164091Y958815*
X1163867Y958507*
X1163755Y957892*
Y957123*
X1163867Y956354*
X1164091Y955893*
X1164426Y955739*
X1164650*
X1164986Y955893*
X1165098Y956200*
X1134921Y903851D02*
Y900621D01*
Y903851D02*
X1133915D01*
X1133579Y903697*
X1133467Y903543*
X1133355Y903235*
Y902774*
X1133467Y902466*
X1133579Y902313*
X1133915Y902159*
X1134921*
X1131007Y903389D02*
X1131118Y903697D01*
X1131454Y903851*
X1131678*
X1132013Y903697*
X1132237Y903235*
X1132349Y902466*
Y901697*
X1132237Y901082*
X1132013Y900775*
X1131678Y900621*
X1131566*
X1131230Y900775*
X1131007Y901082*
X1130895Y901544*
Y901697*
X1131007Y902159*
X1131230Y902466*
X1131566Y902620*
X1131678*
X1132013Y902466*
X1132237Y902159*
X1132349Y901697*
X1089646Y1023929D02*
Y1020700D01*
Y1023929D02*
X1088639D01*
X1088304Y1023775*
X1088192Y1023622*
X1088080Y1023314*
Y1022853*
X1088192Y1022545*
X1088304Y1022391*
X1088639Y1022238*
X1089646*
X1085955Y1023929D02*
X1087073Y1021776D01*
X1085395*
X1085955Y1023929D02*
Y1020700D01*
X1083718Y1023929D02*
X1084053Y1023775D01*
X1084277Y1023314*
X1084389Y1022545*
Y1022084*
X1084277Y1021315*
X1084053Y1020853*
X1083718Y1020700*
X1083494*
X1083159Y1020853*
X1082935Y1021315*
X1082823Y1022084*
Y1022545*
X1082935Y1023314*
X1083159Y1023775*
X1083494Y1023929*
X1083718*
X1069961Y1004244D02*
Y1001015D01*
Y1004244D02*
X1068954D01*
X1068618Y1004090*
X1068507Y1003937*
X1068395Y1003629*
Y1003168*
X1068507Y1002860*
X1068618Y1002706*
X1068954Y1002553*
X1069961*
X1066270Y1004244D02*
X1067388Y1002091D01*
X1065710*
X1066270Y1004244D02*
Y1001015D01*
X1064704Y1003629D02*
X1064480Y1003783D01*
X1064145Y1004244*
Y1001015*
X1089646Y1004244D02*
Y1001015D01*
Y1004244D02*
X1088639D01*
X1088304Y1004090*
X1088192Y1003937*
X1088080Y1003629*
Y1003168*
X1088192Y1002860*
X1088304Y1002706*
X1088639Y1002553*
X1089646*
X1085955Y1004244D02*
X1087073Y1002091D01*
X1085395*
X1085955Y1004244D02*
Y1001015D01*
X1084277Y1003475D02*
Y1003629D01*
X1084165Y1003937*
X1084053Y1004090*
X1083830Y1004244*
X1083382*
X1083159Y1004090*
X1083047Y1003937*
X1082935Y1003629*
Y1003321*
X1083047Y1003014*
X1083270Y1002553*
X1084389Y1001015*
X1082823*
X1111299Y964874D02*
Y961645D01*
Y964874D02*
X1110293D01*
X1109957Y964720*
X1109845Y964567*
X1109733Y964259*
Y963798*
X1109845Y963490*
X1109957Y963336*
X1110293Y963182*
X1111299*
X1107608Y964874D02*
X1108727Y962721D01*
X1107049*
X1107608Y964874D02*
Y961645D01*
X1105819Y964874D02*
X1104588D01*
X1105259Y963644*
X1104924*
X1104700Y963490*
X1104588Y963336*
X1104477Y962875*
Y962567*
X1104588Y962106*
X1104812Y961798*
X1105148Y961645*
X1105483*
X1105819Y961798*
X1105931Y961952*
X1106042Y962260*
X1130984Y964874D02*
Y961645D01*
Y964874D02*
X1129978D01*
X1129642Y964720*
X1129530Y964567*
X1129418Y964259*
Y963798*
X1129530Y963490*
X1129642Y963336*
X1129978Y963182*
X1130984*
X1127293Y964874D02*
X1128412Y962721D01*
X1126734*
X1127293Y964874D02*
Y961645D01*
X1124609Y964874D02*
X1125727Y962721D01*
X1124050*
X1124609Y964874D02*
Y961645D01*
X1154606Y945189D02*
Y941960D01*
Y945189D02*
X1153600D01*
X1153264Y945035*
X1153152Y944882*
X1153040Y944574*
Y944113*
X1153152Y943805*
X1153264Y943651*
X1153600Y943497*
X1154606*
X1150915Y945189D02*
X1152034Y943036D01*
X1150356*
X1150915Y945189D02*
Y941960D01*
X1147895Y945189D02*
X1149014D01*
X1149126Y943805*
X1149014Y943959*
X1148678Y944113*
X1148343*
X1148007Y943959*
X1147784Y943651*
X1147672Y943190*
X1147784Y942882*
X1147895Y942421*
X1148119Y942113*
X1148455Y941960*
X1148790*
X1149126Y942113*
X1149238Y942267*
X1149349Y942575*
X1089646Y984559D02*
Y981330D01*
Y984559D02*
X1088639D01*
X1088304Y984405*
X1088192Y984252*
X1088080Y983944*
Y983483*
X1088192Y983175*
X1088304Y983021*
X1088639Y982867*
X1089646*
X1085955Y984559D02*
X1087073Y982406D01*
X1085395*
X1085955Y984559D02*
Y981330D01*
X1083047Y984098D02*
X1083159Y984405D01*
X1083494Y984559*
X1083718*
X1084053Y984405*
X1084277Y983944*
X1084389Y983175*
Y982406*
X1084277Y981791*
X1084053Y981483*
X1083718Y981330*
X1083606*
X1083270Y981483*
X1083047Y981791*
X1082935Y982252*
Y982406*
X1083047Y982867*
X1083270Y983175*
X1083606Y983329*
X1083718*
X1084053Y983175*
X1084277Y982867*
X1084389Y982406*
X1150669Y1023929D02*
Y1020700D01*
Y1023929D02*
X1149663D01*
X1149327Y1023775*
X1149215Y1023622*
X1149103Y1023314*
Y1022853*
X1149215Y1022545*
X1149327Y1022391*
X1149663Y1022238*
X1150669*
X1146643Y1023929D02*
X1147761D01*
X1147873Y1022545*
X1147761Y1022699*
X1147426Y1022853*
X1147090*
X1146755Y1022699*
X1146531Y1022391*
X1146419Y1021930*
X1146531Y1021622*
X1146643Y1021161*
X1146866Y1020853*
X1146866D02*
X1147202Y1020700D01*
X1147538*
X1147873Y1020853*
X1147985Y1021007*
X1148097Y1021315*
X1162480Y884165D02*
Y880936D01*
Y884165D02*
X1161474D01*
X1161138Y884012*
X1161026Y883858*
X1160914Y883550*
Y883089*
X1161026Y882781*
X1161138Y882628*
X1161474Y882474*
X1162480*
X1159908Y883550D02*
X1159684Y883704D01*
X1159349Y884165*
Y880936*
X1157671Y884165D02*
X1158006Y884012D01*
X1158230Y883550*
X1158342Y882781*
Y882320*
X1158230Y881551*
X1158006Y881090*
X1157671Y880936*
X1157447*
X1157112Y881090*
X1156888Y881551*
X1156776Y882320*
Y882781*
X1156888Y883550*
X1157112Y884012*
X1157447Y884165*
X1157671*
X1130984Y1023929D02*
Y1020700D01*
Y1023929D02*
X1129978D01*
X1129642Y1023775*
X1129530Y1023622*
X1129418Y1023314*
Y1022853*
X1129530Y1022545*
X1129642Y1022391*
X1129978Y1022238*
X1130984*
X1126846Y1023929D02*
X1127964Y1020700D01*
X1128412Y1023929D02*
X1126846D01*
X1115236Y903851D02*
Y900621D01*
Y903851D02*
X1114230D01*
X1113894Y903697*
X1113782Y903543*
X1113670Y903235*
Y902774*
X1113782Y902466*
X1113894Y902313*
X1114230Y902159*
X1115236*
X1111545Y903851D02*
X1112664Y901697D01*
X1110986*
X1111545Y903851D02*
Y900621D01*
X1150669Y1004244D02*
Y1001015D01*
Y1004244D02*
X1149663D01*
X1149327Y1004090*
X1149215Y1003937*
X1149103Y1003629*
Y1003168*
X1149215Y1002860*
X1149327Y1002706*
X1149663Y1002553*
X1150669*
X1146643Y1003168D02*
X1146755Y1002706D01*
X1146978Y1002399*
X1147314Y1002245*
X1147426*
X1147761Y1002399*
X1147985Y1002706*
X1148097Y1003168*
Y1003321*
X1147985Y1003783*
X1147761Y1004090*
X1147426Y1004244*
X1147314*
X1146978Y1004090*
X1146755Y1003783*
X1146643Y1003168*
Y1002399*
X1146755Y1001630*
X1146978Y1001168*
X1147314Y1001015*
X1147538*
X1147873Y1001168*
X1147985Y1001476*
X1148622Y872238D02*
Y868362D01*
Y872238D02*
X1147414D01*
X1147011Y872053*
X1146877Y871869*
X1146743Y871500*
Y870946*
X1146877Y870577*
X1147011Y870392*
X1147414Y870208*
X1148622*
X1145535Y871500D02*
X1145267Y871684D01*
X1144864Y872238*
Y868362*
X1142045Y871684D02*
X1142180Y872053D01*
X1142582Y872238*
X1142851*
X1143253Y872053*
X1143522Y871500*
X1143656Y870577*
Y869654*
X1143522Y868916*
X1143253Y868547*
X1142851Y868362*
X1142717*
X1142314Y868547*
X1142045Y868916*
X1141911Y869470*
Y869654*
X1142045Y870208*
X1142314Y870577*
X1142717Y870762*
X1142851*
X1143253Y870577*
X1143522Y870208*
X1143656Y869654*
X1207283Y1017317D02*
Y1013441D01*
Y1017317D02*
X1206076D01*
X1205673Y1017132*
X1205539Y1016948*
X1205404Y1016578*
Y1016025*
X1205539Y1015656*
X1205673Y1015471*
X1206076Y1015287*
X1207283*
X1204062Y1016394D02*
Y1016578D01*
X1203928Y1016948*
X1203794Y1017132*
X1203525Y1017317*
X1202989*
X1202720Y1017132*
X1202586Y1016948*
X1202452Y1016578*
Y1016209*
X1202586Y1015840*
X1202854Y1015287*
X1204196Y1013441*
X1202317*
X1200841Y1017317D02*
X1199365D01*
X1200170Y1015840*
X1199767*
X1199499Y1015656*
X1199365Y1015471*
X1199230Y1014918*
Y1014548*
X1199365Y1013995*
X1199633Y1013626*
X1200036Y1013441*
X1200438*
X1200841Y1013626*
X1200975Y1013810*
X1201110Y1014179*
X1041142Y992907D02*
Y989032D01*
Y992907D02*
X1039934D01*
X1039531Y992723*
X1039397Y992538*
X1039263Y992169*
Y991615*
X1039397Y991246*
X1039531Y991062*
X1039934Y990877*
X1041142*
X1036713Y992907D02*
X1038055Y990324D01*
X1036042*
X1036713Y992907D02*
Y989032D01*
X1032955Y992907D02*
X1034297Y989032D01*
X1034834Y992907D02*
X1032955D01*
X1166850Y921096D02*
Y917221D01*
Y921096D02*
X1165642D01*
X1165240Y920912*
X1165106Y920727*
X1164971Y920358*
Y919804*
X1165106Y919435*
X1165240Y919251*
X1165642Y919066*
X1166850*
X1162421Y921096D02*
X1163763Y918513D01*
X1161750*
X1162421Y921096D02*
Y917221D01*
X1159871Y921096D02*
X1160274Y920912D01*
X1160408Y920543*
Y920173*
X1160274Y919804*
X1160005Y919620*
X1159469Y919435*
X1159066Y919251*
X1158797Y918882*
X1158663Y918513*
Y917959*
X1158797Y917590*
X1158932Y917405*
X1159334Y917221*
X1159871*
X1160274Y917405*
X1160408Y917590*
X1160542Y917959*
Y918513*
X1160408Y918882*
X1160140Y919251*
X1159737Y919435*
X1159200Y919620*
X1158932Y919804*
X1158797Y920173*
Y920543*
X1158932Y920912*
X1159334Y921096*
X1159871*
G54D15*
X1101425Y900186D02*
X1099212Y901261D01*
X1098748Y901362*
X1098561Y901328*
X1098325Y901194*
X1098227Y900993*
X1098268Y900725*
X1098357Y900557*
X1098723Y900255*
X1099000Y900120*
X1101312Y901360D02*
X1101548Y901494D01*
X1102109Y901595*
X1099204Y903005*
X1106885Y892518D02*
X1107123Y892743D01*
X1107461Y892918*
X1107729Y892955*
X1108129Y892755*
X1108261Y892517*
X1108323Y892142*
X1108285Y891817*
X1108179Y891355*
X1107834Y890667*
X1107528Y890305*
X1107290Y890080*
X1106952Y889905*
X1106683Y889867*
X1106283Y890068*
X1106152Y890305*
X1106090Y890681*
X1106128Y891006*
X1106334Y891418*
X1106834Y891168D02*
X1106334Y891418D01*
X1106329Y893657D02*
X1104883Y890769D01*
X1106329Y893657D02*
X1103483Y891470D01*
X1104929Y894358D02*
X1103483Y891470D01*
X1104029Y894808D02*
X1102583Y891921D01*
X1104029Y894808D02*
X1103329Y895159D01*
X1102960Y895172*
X1102622Y894997*
X1102385Y894772*
X1102078Y894409*
X1101734Y893722*
X1101627Y893259*
X1101590Y892934*
X1101652Y892559*
X1101883Y892271*
X1102583Y891921*
X1103186Y884869D02*
X1103524Y885044D01*
X1103892Y885031*
X1104292Y884831*
X1104524Y884543*
X1104586Y884168*
X1104448Y883893*
X1104210Y883668*
X1104042Y883581*
X1103773Y883543*
X1103035Y883569*
X1102766Y883531*
X1102597Y883444*
X1102360Y883219*
X1102153Y882807*
X1102215Y882431*
X1102446Y882144*
X1102846Y881943*
X1103215Y881931*
X1103553Y882105*
X1102492Y885733D02*
X1101046Y882845D01*
X1102492Y885733D02*
X1101792Y886083D01*
X1101423Y886096*
X1101086Y885921*
X1100848Y885696*
X1100541Y885334*
X1100197Y884646*
X1100090Y884183*
X1100053Y883858*
X1100115Y883483*
X1100346Y883195*
X1101046Y882845*
X1099392Y887285D02*
X1098746Y883997D01*
X1099392Y887285D02*
X1097146Y884798D01*
X1098928Y885109D02*
X1097928Y885610D01*
X1105154Y888609D02*
X1105492Y888784D01*
X1105861Y888772*
X1106261Y888571*
X1106492Y888283*
X1106554Y887908*
X1106417Y887633*
X1106179Y887408*
X1106010Y887321*
X1105741Y887284*
X1105003Y887309*
X1104735Y887272*
X1104566Y887184*
X1104328Y886959*
X1104121Y886547*
X1104184Y886172*
X1104415Y885884*
X1104815Y885683*
X1105184Y885671*
X1105522Y885846*
X1102616Y889536D02*
X1102854Y889761D01*
X1103192Y889936*
X1103461Y889973*
X1103861Y889773*
X1103992Y889535*
X1104054Y889160*
X1104017Y888835*
X1103910Y888373*
X1103566Y887685*
X1103259Y887323*
X1103021Y887098*
X1102684Y886923*
X1102415Y886885*
X1102015Y887086*
X1101884Y887323*
X1101821Y887699*
X1101859Y888024*
X1102061Y890675D02*
X1100615Y887787D01*
X1100661Y891376D02*
X1101097Y888749D01*
X1100941Y889687D02*
X1099214Y888488D01*
X1103415Y880644D02*
X1101168Y878157D01*
X1101814Y881445D02*
X1101168Y878157D01*
X1099070Y881959D02*
X1099308Y882184D01*
X1099645Y882359*
X1099914Y882396*
X1100314Y882196*
X1100445Y881958*
X1100508Y881583*
X1100470Y881258*
X1100363Y880796*
X1100019Y880108*
X1099713Y879746*
X1099475Y879521*
X1099137Y879346*
X1098868Y879308*
X1098468Y879509*
X1098337Y879746*
X1098275Y880122*
X1098312Y880447*
X1096670Y883161D02*
X1096907Y883386D01*
X1097245Y883561*
X1097514Y883598*
X1097914Y883398*
X1098045Y883160*
X1098108Y882785*
X1098070Y882460*
X1097963Y881997*
X1097619Y881310*
X1097312Y880947*
X1097075Y880723*
X1096737Y880548*
X1096468Y880510*
X1096068Y880711*
X1095937Y880948*
X1095875Y881324*
X1095912Y881649*
G54D42*
X1012205Y999803D02*
G03X1012205I-6299J0D01*
G01X1201378Y989567D02*
G03X1201378I-6299J0D01*
G01X1120079Y878543D02*
G03X1120079I-6299J0D01*
G74*
G01X0Y0D02*
M02*
