*
*
G04 PADS 9.4.1 Build Number: 494907 generated Gerber (RS-274-X) file*
G04 PC Version=2.1*
*
%IN "MC4-PLUS_CSHAPE.pcb"*%
*
%MOIN*%
*
%FSLAX35Y35*%
*
*
*
*
G04 PC Standard Apertures*
*
*
G04 Thermal Relief Aperture macro.*
%AMTER*
1,1,$1,0,0*
1,0,$1-$2,0,0*
21,0,$3,$4,0,0,45*
21,0,$3,$4,0,0,135*
%
*
*
G04 Annular Aperture macro.*
%AMANN*
1,1,$1,0,0*
1,0,$2,0,0*
%
*
*
G04 Odd Aperture macro.*
%AMODD*
1,1,$1,0,0*
1,0,$1-0.005,0,0*
%
*
*
G04 PC Custom Aperture Macros*
*
*
*
*
*
*
G04 PC Aperture Table*
*
%ADD010C,0.001*%
%ADD011C,0.00394*%
%ADD012C,0.008*%
%ADD013C,0.004*%
%ADD014C,0.006*%
%ADD015C,0.00913*%
%ADD016C,0.01*%
%ADD017C,0.00591*%
%ADD019C,0.025*%
%ADD021C,0.01575*%
%ADD065C,0.00787*%
%ADD066C,0.01181*%
%ADD067C,0.00984*%
*
*
*
*
G04 PC Circuitry*
G04 Layer Name MC4-PLUS_CSHAPE.pcb - circuitry*
%LPD*%
*
*
G04 PC Custom Flashes*
G04 Layer Name MC4-PLUS_CSHAPE.pcb - flashes*
%LPD*%
*
*
G04 PC Circuitry*
G04 Layer Name MC4-PLUS_CSHAPE.pcb - circuitry*
%LPD*%
*
G54D10*
G54D11*
G01X2190774Y1525644D02*
Y1524817D01*
X2188805Y1525644D02*
Y1524817D01*
X2109915Y1508775D02*
X2109206Y1508350D01*
X2108901Y1510463D02*
X2108192Y1510037D01*
X2084660Y1478097D02*
X2084247Y1478813D01*
X2086365Y1479081D02*
X2085952Y1479797D01*
X2088060Y1480097D02*
X2087647Y1480813D01*
X2089765Y1481081D02*
X2089352Y1481797D01*
X2055809Y1494954D02*
X2056533Y1495355D01*
X2056764Y1493233D02*
X2057487Y1493634D01*
X2065382Y1531256D02*
X2065792Y1530539D01*
X2063673Y1530280D02*
X2064083Y1529562D01*
X2068760Y1533206D02*
X2069170Y1532489D01*
X2067051Y1532230D02*
X2067461Y1531512D01*
X2194274Y1525644D02*
Y1524817D01*
X2192305Y1525644D02*
Y1524817D01*
X2146226Y1440356D02*
Y1441183D01*
X2148195Y1440356D02*
Y1441183D01*
X2167226Y1440356D02*
Y1441183D01*
X2169195Y1440356D02*
Y1441183D01*
X2197774Y1525644D02*
Y1524817D01*
X2195805Y1525644D02*
Y1524817D01*
X2243226Y1521856D02*
Y1522683D01*
X2245195Y1521856D02*
Y1522683D01*
X2217726Y1521856D02*
Y1522683D01*
X2219695Y1521856D02*
Y1522683D01*
X2189226Y1506856D02*
Y1507683D01*
X2191195Y1506856D02*
Y1507683D01*
X2192726Y1506856D02*
Y1507683D01*
X2194695Y1506856D02*
Y1507683D01*
X2196226Y1506856D02*
Y1507683D01*
X2198195Y1506856D02*
Y1507683D01*
X2162226Y1492856D02*
Y1493683D01*
X2164195Y1492856D02*
Y1493683D01*
X2181026Y1520856D02*
Y1521683D01*
X2182995Y1520856D02*
Y1521683D01*
X2174644Y1519226D02*
X2173817D01*
X2174644Y1521195D02*
X2173817D01*
X2174644Y1515726D02*
X2173817D01*
X2174644Y1517695D02*
X2173817D01*
X2174274Y1526644D02*
Y1525817D01*
X2172305Y1526644D02*
Y1525817D01*
X2169726Y1501856D02*
Y1502683D01*
X2171695Y1501856D02*
Y1502683D01*
X2274726Y1583856D02*
Y1584683D01*
X2276695Y1583856D02*
Y1584683D01*
X2139644Y1493726D02*
X2138817D01*
X2139644Y1495695D02*
X2138817D01*
X2256726Y1583856D02*
Y1584683D01*
X2258695Y1583856D02*
Y1584683D01*
X2096774Y1450144D02*
Y1449317D01*
X2094805Y1450144D02*
Y1449317D01*
X2061414Y1538175D02*
X2060705Y1537749D01*
X2060401Y1539863D02*
X2059693Y1539437D01*
X2097615Y1530875D02*
X2096906Y1530450D01*
X2096601Y1532563D02*
X2095892Y1532137D01*
X2057909Y1491454D02*
X2058633Y1491855D01*
X2058864Y1489733D02*
X2059587Y1490134D01*
X2099960Y1487197D02*
X2099547Y1487913D01*
X2101665Y1488181D02*
X2101252Y1488897D01*
X2096760Y1485097D02*
X2096347Y1485813D01*
X2098465Y1486081D02*
X2098052Y1486797D01*
X2053521Y1525417D02*
X2053950Y1524710D01*
X2051838Y1524397D02*
X2052266Y1523690D01*
X2160644Y1498726D02*
X2159817D01*
X2160644Y1500695D02*
X2159817D01*
X2198726Y1451356D02*
Y1452183D01*
X2200695Y1451356D02*
Y1452183D01*
X2054761Y1535896D02*
X2054347Y1536612D01*
X2056465Y1536883D02*
X2056051Y1537598D01*
X2076794Y1536736D02*
X2077508Y1537152D01*
X2077786Y1535035D02*
X2078500Y1535452D01*
X2160644Y1503726D02*
X2159817D01*
X2160644Y1505695D02*
X2159817D01*
X2200774Y1441144D02*
Y1440317D01*
X2198805Y1441144D02*
Y1440317D01*
X2198726Y1432856D02*
Y1433683D01*
X2200695Y1432856D02*
Y1433683D01*
X2156856Y1519274D02*
X2157683D01*
X2156856Y1517305D02*
X2157683D01*
X2051909Y1501954D02*
X2052633Y1502355D01*
X2052864Y1500233D02*
X2053587Y1500634D01*
X2045909Y1512354D02*
X2046633Y1512755D01*
X2046864Y1510633D02*
X2047587Y1511034D01*
X2047909Y1508754D02*
X2048633Y1509155D01*
X2048864Y1507033D02*
X2049587Y1507434D01*
X2042209Y1519026D02*
X2042648Y1518325D01*
X2040540Y1517983D02*
X2040978Y1517282D01*
X2108356Y1526774D02*
X2109183D01*
X2108356Y1524805D02*
X2109183D01*
X2092840Y1483903D02*
X2093253Y1483187D01*
X2091135Y1482919D02*
X2091548Y1482203D01*
X2145144Y1516226D02*
X2144317D01*
X2145144Y1518195D02*
X2144317D01*
X2106140Y1491703D02*
X2106553Y1490987D01*
X2104435Y1490719D02*
X2104848Y1490003D01*
X2069218Y1473079D02*
X2068511Y1472650D01*
X2068196Y1474762D02*
X2067489Y1474333D01*
X2077860Y1474397D02*
X2077447Y1475113D01*
X2079565Y1475381D02*
X2079152Y1476097D01*
X2063609Y1481054D02*
X2064333Y1481455D01*
X2064564Y1479333D02*
X2065287Y1479734D01*
X2065509Y1477554D02*
X2066233Y1477955D01*
X2066464Y1475833D02*
X2067187Y1476234D01*
X2059909Y1487954D02*
X2060633Y1488355D01*
X2060864Y1486233D02*
X2061587Y1486634D01*
X2061809Y1484354D02*
X2062533Y1484755D01*
X2062764Y1482633D02*
X2063487Y1483034D01*
X2049909Y1505354D02*
X2050633Y1505755D01*
X2050864Y1503633D02*
X2051587Y1504034D01*
X2053909Y1498454D02*
X2054633Y1498855D01*
X2054864Y1496733D02*
X2055587Y1497134D01*
X2084075Y1541986D02*
X2083649Y1542695D01*
X2085763Y1542999D02*
X2085337Y1543707D01*
X2088717Y1545721D02*
X2089149Y1545016D01*
X2087039Y1544692D02*
X2087471Y1543987D01*
X2099851Y1518905D02*
X2099446Y1519626D01*
X2101567Y1519870D02*
X2101161Y1520591D01*
X2108356Y1534774D02*
X2109183D01*
X2108356Y1532805D02*
X2109183D01*
X2213774Y1518144D02*
Y1517317D01*
X2211805Y1518144D02*
Y1517317D01*
X2266274Y1584644D02*
Y1583817D01*
X2264305Y1584644D02*
Y1583817D01*
X2269774Y1584644D02*
Y1583817D01*
X2267805Y1584644D02*
Y1583817D01*
X2249726Y1593356D02*
Y1594183D01*
X2251695Y1593356D02*
Y1594183D01*
X2264226Y1593356D02*
Y1594183D01*
X2266195Y1593356D02*
Y1594183D01*
X2251774Y1584644D02*
Y1583817D01*
X2249805Y1584644D02*
Y1583817D01*
X2030274Y1585144D02*
Y1584317D01*
X2028305Y1585144D02*
Y1584317D01*
X2004226Y1594856D02*
Y1595683D01*
X2006195Y1594856D02*
Y1595683D01*
X2026274Y1585144D02*
Y1584317D01*
X2024305Y1585144D02*
Y1584317D01*
X2016226Y1594856D02*
Y1595683D01*
X2018195Y1594856D02*
Y1595683D01*
X2014274Y1585144D02*
Y1584317D01*
X2012305Y1585144D02*
Y1584317D01*
X2020226Y1594856D02*
Y1595683D01*
X2022195Y1594856D02*
Y1595683D01*
X2216726Y1510856D02*
Y1511683D01*
X2218695Y1510856D02*
Y1511683D01*
X2145144Y1521226D02*
X2144317D01*
X2145144Y1523195D02*
X2144317D01*
X2196144Y1499026D02*
X2195317D01*
X2196144Y1500995D02*
X2195317D01*
X2163226Y1440356D02*
Y1441183D01*
X2165195Y1440356D02*
Y1441183D01*
X2150226Y1440356D02*
Y1441183D01*
X2152195Y1440356D02*
Y1441183D01*
X2204726Y1459356D02*
Y1460183D01*
X2206695Y1459356D02*
Y1460183D01*
X2248274Y1584644D02*
Y1583817D01*
X2246305Y1584644D02*
Y1583817D01*
X2271226Y1583856D02*
Y1584683D01*
X2273195Y1583856D02*
Y1584683D01*
X2258774Y1594144D02*
Y1593317D01*
X2256805Y1594144D02*
Y1593317D01*
X2260226Y1583856D02*
Y1584683D01*
X2262195Y1583856D02*
Y1584683D01*
X2176856Y1491774D02*
X2177683D01*
X2176856Y1489805D02*
X2177683D01*
X2269774Y1594144D02*
Y1593317D01*
X2267805Y1594144D02*
Y1593317D01*
X2253226Y1583856D02*
Y1584683D01*
X2255195Y1583856D02*
Y1584683D01*
X2171774Y1493644D02*
Y1492817D01*
X2169805Y1493644D02*
Y1492817D01*
X2274726Y1593356D02*
Y1594183D01*
X2276695Y1593356D02*
Y1594183D01*
X2273274Y1594144D02*
Y1593317D01*
X2271305Y1594144D02*
Y1593317D01*
X2167274Y1493644D02*
Y1492817D01*
X2165305Y1493644D02*
Y1492817D01*
X2031726Y1584356D02*
Y1585183D01*
X2033695Y1584356D02*
Y1585183D01*
X2010274Y1595644D02*
Y1594817D01*
X2008305Y1595644D02*
Y1594817D01*
X2020226Y1584356D02*
Y1585183D01*
X2022195Y1584356D02*
Y1585183D01*
X2014274Y1595644D02*
Y1594817D01*
X2012305Y1595644D02*
Y1594817D01*
X2016226Y1584356D02*
Y1585183D01*
X2018195Y1584356D02*
Y1585183D01*
X2026274Y1595644D02*
Y1594817D01*
X2024305Y1595644D02*
Y1594817D01*
X2028226Y1594856D02*
Y1595683D01*
X2030195Y1594856D02*
Y1595683D01*
X2008226Y1584356D02*
Y1585183D01*
X2010195Y1584356D02*
Y1585183D01*
X2034274Y1595644D02*
Y1594817D01*
X2032305Y1595644D02*
Y1594817D01*
X2159226Y1440356D02*
Y1441183D01*
X2161195Y1440356D02*
Y1441183D01*
X2154226Y1440356D02*
Y1441183D01*
X2156195Y1440356D02*
Y1441183D01*
X2195274Y1478644D02*
Y1477817D01*
X2193305Y1478644D02*
Y1477817D01*
X2195274Y1485644D02*
Y1484817D01*
X2193305Y1485644D02*
Y1484817D01*
X2253226Y1593356D02*
Y1594183D01*
X2255195Y1593356D02*
Y1594183D01*
X2110040Y1494103D02*
X2110453Y1493387D01*
X2108335Y1493119D02*
X2108748Y1492403D01*
X2184856Y1493774D02*
X2185683D01*
X2184856Y1491805D02*
X2185683D01*
X2081160Y1476397D02*
X2080747Y1477113D01*
X2082865Y1477381D02*
X2082452Y1478097D01*
G54D12*
X2212439Y1544907D02*
Y1564593D01*
X2236061*
Y1544907*
X2212439*
X2070061Y1564593D02*
Y1544907D01*
X2046439*
Y1564593*
X2070061*
X2194150Y1424450D02*
G75*
G03X2194150I-800J0D01*
G01X2190750D02*
G03X2190750I-800J0D01*
G01X2194150D02*
G03X2194150I-800J0D01*
G01X2190750D02*
G03X2190750I-800J0D01*
G01X2192650Y1422650D02*
X2194050D01*
Y1416650*
X2192650*
Y1422650*
X2189250D02*
X2190650D01*
Y1416650*
X2189250*
Y1422650*
X2192554Y1424369D02*
X2194146D01*
X2192868Y1425089D02*
X2193832D01*
X2189154Y1424369D02*
X2190746D01*
X2189468Y1425089D02*
X2190432D01*
X2192650Y1422409D02*
X2194050D01*
X2192650Y1421689D02*
X2194050D01*
X2192650Y1420969D02*
X2194050D01*
X2192650Y1420249D02*
X2194050D01*
X2192650Y1419529D02*
X2194050D01*
X2192650Y1418809D02*
X2194050D01*
X2192650Y1418089D02*
X2194050D01*
X2192650Y1417369D02*
X2194050D01*
X2189250Y1422409D02*
X2190650D01*
X2189250Y1421689D02*
X2190650D01*
X2189250Y1420969D02*
X2190650D01*
X2189250Y1420249D02*
X2190650D01*
X2189250Y1419529D02*
X2190650D01*
X2189250Y1418809D02*
X2190650D01*
X2189250Y1418089D02*
X2190650D01*
X2189250Y1417369D02*
X2190650D01*
G54D13*
X2075191Y1532626D02*
X2071733Y1530614D01*
X2067509Y1537874*
X2070967Y1539886*
X2075191Y1532626*
X2168750Y1498050D02*
X2164750D01*
Y1506450*
X2168750*
Y1498050*
X2162450Y1487250D02*
Y1483250D01*
X2154050*
Y1487250*
X2162450*
X2190250Y1512550D02*
X2186250D01*
Y1520950*
X2190250*
Y1512550*
X2201550Y1479750D02*
Y1483750D01*
X2209950*
Y1479750*
X2201550*
X2195250Y1463950D02*
X2199250D01*
Y1455550*
X2195250*
Y1463950*
X2148550Y1459250D02*
Y1463250D01*
X2156950*
Y1459250*
X2148550*
X2190450Y1487250D02*
Y1483250D01*
X2182050*
Y1487250*
X2190450*
X2104550Y1519250D02*
Y1523250D01*
X2112950*
Y1519250*
X2104550*
X2204050Y1509250D02*
Y1513250D01*
X2212450*
Y1509250*
X2204050*
X2096346Y1523565D02*
X2094407Y1527063D01*
X2101754Y1531135*
X2103693Y1527637*
X2096346Y1523565*
X2060512Y1524256D02*
X2057071Y1522217D01*
X2052788Y1529444*
X2056229Y1531483*
X2060512Y1524256*
X2104146Y1509665D02*
X2102207Y1513163D01*
X2109554Y1517235*
X2111493Y1513737*
X2104146Y1509665*
X2209950Y1470250D02*
Y1466250D01*
X2201550*
Y1470250*
X2209950*
X2199750Y1463950D02*
X2203750D01*
Y1455550*
X2199750*
Y1463950*
X2209950Y1479250D02*
Y1475250D01*
X2201550*
Y1479250*
X2209950*
X2201550Y1470750D02*
Y1474750D01*
X2209950*
Y1470750*
X2201550*
X2040474Y1469812D02*
X2037950Y1474265D01*
X2048226Y1480088*
X2050750Y1475635*
X2040474Y1469812*
X2050745Y1475632D02*
X2051615Y1476125D01*
X2049091Y1480578*
X2048221Y1480085*
X2182750Y1426750D02*
Y1426736D01*
X2182693Y1426737*
Y1426723*
X2182628*
Y1426710*
X2182576*
Y1426697*
X2182537*
Y1426684*
X2182511*
Y1426671*
X2182472*
Y1426658*
X2182446*
Y1426645*
X2182420*
Y1426632*
X2182394*
Y1426619*
X2182381*
Y1426606*
X2182355*
Y1426593*
X2182329*
Y1426580*
X2182316*
Y1426567*
X2182303*
Y1426554*
X2182276*
Y1426541*
X2182263*
Y1426528*
X2182250*
Y1426515*
X2182237*
Y1426502*
X2182224*
Y1426489*
X2182211*
Y1426476*
X2182198*
Y1426463*
X2182185*
Y1426450*
X2182172*
Y1426437*
X2182159*
Y1426424*
X2182146*
Y1426398*
X2182133*
Y1426385*
X2182120*
Y1426359*
X2182107*
Y1426346*
X2182094*
Y1426320*
X2182081*
Y1426294*
X2182068*
Y1426268*
X2182055*
Y1426242*
X2182042*
Y1426203*
X2182029*
Y1426164*
X2182016*
Y1426112*
X2182003*
Y1415539*
X2182016*
Y1415487*
X2182029*
Y1415447*
X2182042*
Y1415408*
X2182055*
Y1415382*
X2182068*
Y1415356*
X2182081*
Y1415330*
X2182094*
Y1415304*
X2182107*
Y1415291*
X2182120*
Y1415265*
X2182133*
Y1415252*
X2182146*
Y1415226*
X2182159*
Y1415213*
X2182172*
Y1415200*
X2182185*
Y1415187*
X2182198*
Y1415174*
X2182211*
Y1415161*
X2182224*
Y1415148*
X2182237*
Y1415135*
X2182250*
Y1415122*
X2182263*
Y1415109*
X2182276*
Y1415096*
X2182303*
Y1415083*
X2182316*
Y1415070*
X2182329*
Y1415057*
X2182355*
Y1415044*
X2182381*
Y1415031*
X2182394*
Y1415018*
X2182420*
Y1415005*
X2182446*
Y1414992*
X2182472*
Y1414979*
X2182511*
Y1414966*
X2182537*
Y1414953*
X2182589*
Y1414940*
X2182706*
Y1414927*
X2196157*
Y1426098*
X2196144*
Y1426164*
X2196131*
Y1426203*
X2196118*
Y1426242*
X2196105*
Y1426268*
X2196092*
Y1426294*
X2196079*
Y1426320*
X2196066*
Y1426346*
X2196053*
Y1426359*
X2196039*
Y1426385*
X2196026*
Y1426398*
X2196013*
Y1426411*
X2196000*
Y1426437*
X2195987*
Y1426450*
X2195974*
Y1426463*
X2195961*
Y1426476*
X2195948*
Y1426489*
X2195935*
Y1426502*
X2195922*
Y1426515*
X2195909*
Y1426528*
X2195896*
Y1426541*
X2195883*
Y1426554*
X2195857*
Y1426567*
X2195844*
Y1426580*
X2195818*
Y1426593*
X2195805*
Y1426606*
X2195779*
Y1426619*
X2195766*
Y1426632*
X2195740*
Y1426645*
X2195714*
Y1426658*
X2195688*
Y1426671*
X2195649*
Y1426684*
X2195623*
Y1426697*
X2195571*
Y1426710*
X2195532*
Y1426723*
X2195467*
Y1426737*
X2195411*
Y1426750*
X2182750*
X2185545Y1424901D02*
Y1422765D01*
X2183852*
Y1421763*
X2185545*
Y1418325*
X2185532*
Y1418182*
X2185519*
Y1418091*
X2185506*
Y1418039*
X2185493*
Y1417987*
X2185480*
Y1417934*
X2185467*
Y1417895*
X2185454*
Y1417869*
X2185441*
Y1417843*
X2185428*
Y1417817*
X2185414*
Y1417791*
X2185401*
Y1417765*
X2185388*
Y1417752*
X2185375*
Y1417726*
X2185362*
Y1417713*
X2185349*
Y1417700*
X2185336*
Y1417687*
X2185323*
Y1417674*
X2185310*
Y1417661*
X2185297*
Y1417648*
X2185284*
Y1417635*
X2185258*
Y1417622*
X2185245*
Y1417609*
X2185219*
Y1417596*
X2185193*
Y1417583*
X2185167*
Y1417570*
X2185141*
Y1417557*
X2185102*
Y1417544*
X2185050*
Y1417531*
X2184998*
Y1417518*
X2184907*
Y1417505*
X2184516*
Y1417518*
X2184399*
Y1417531*
X2184308*
Y1417544*
X2184243*
Y1417557*
X2184178*
Y1417570*
X2184112*
Y1417583*
X2184060*
Y1417596*
X2184008*
Y1417609*
X2183969*
Y1417622*
X2183917*
Y1417635*
X2183904*
Y1416606*
X2183930*
Y1416593*
X2183956*
Y1416580*
X2183995*
Y1416567*
X2184034*
Y1416554*
X2184073*
Y1416541*
X2184112*
Y1416528*
X2184164*
Y1416515*
X2184217*
Y1416502*
X2184269*
Y1416489*
X2184334*
Y1416476*
X2184399*
Y1416463*
X2184464*
Y1416450*
X2184542*
Y1416437*
X2184646*
Y1416424*
X2184750*
Y1416411*
X2184881*
Y1416398*
X2185063*
Y1416385*
X2185662*
Y1416398*
X2185779*
Y1416411*
X2185857*
Y1416424*
X2185922*
Y1416437*
X2185974*
Y1416450*
X2186026*
Y1416463*
X2186066*
Y1416476*
X2186105*
Y1416489*
X2186144*
Y1416502*
X2186183*
Y1416515*
X2186209*
Y1416528*
X2186248*
Y1416541*
X2186274*
Y1416554*
X2186300*
Y1416567*
X2186326*
Y1416580*
X2186352*
Y1416593*
X2186378*
Y1416606*
X2186404*
Y1416619*
X2186430*
Y1416632*
X2186443*
Y1416645*
X2186469*
Y1416658*
X2186482*
Y1416671*
X2186508*
Y1416684*
X2186521*
Y1416697*
X2186547*
Y1416710*
X2186560*
Y1416723*
X2186586*
Y1416737*
X2186599*
Y1416750*
X2186612*
Y1416763*
X2186625*
Y1416776*
X2186651*
Y1416789*
X2186664*
Y1416802*
X2186678*
Y1416815*
X2186691*
Y1416828*
X2186704*
Y1416841*
X2186717*
Y1416854*
X2186730*
Y1416867*
X2186743*
Y1416880*
X2186756*
Y1416893*
X2186769*
Y1416906*
X2186782*
Y1416919*
X2186795*
Y1416932*
X2186808*
Y1416945*
X2186821*
Y1416958*
X2186834*
Y1416971*
X2186847*
Y1416984*
X2186860*
Y1416997*
X2186873*
Y1417023*
X2186886*
Y1417036*
X2186899*
Y1417049*
X2186912*
Y1417075*
X2186925*
Y1417088*
X2186938*
Y1417101*
X2186951*
Y1417127*
X2186964*
Y1417140*
X2186977*
Y1417166*
X2186990*
Y1417179*
X2187003*
Y1417205*
X2187016*
Y1417231*
X2187029*
Y1417244*
X2187042*
Y1417270*
X2187055*
Y1417296*
X2187068*
Y1417322*
X2187081*
Y1417348*
X2187094*
Y1417375*
X2187107*
Y1417401*
X2187120*
Y1417440*
X2187133*
Y1417466*
X2187146*
Y1417492*
X2187159*
Y1417531*
X2187172*
Y1417570*
X2187185*
Y1417609*
X2187198*
Y1417648*
X2187211*
Y1417687*
X2187224*
Y1417739*
X2187237*
Y1417791*
X2187250*
Y1417843*
X2187263*
Y1417908*
X2187276*
Y1417973*
X2187289*
Y1418052*
X2187303*
Y1418156*
X2187316*
Y1418299*
X2187329*
Y1421776*
X2188097*
Y1422713*
X2187928*
Y1422726*
X2187693*
Y1422739*
X2187446*
Y1422752*
X2187263*
Y1422778*
X2187250*
Y1422830*
X2187237*
Y1422882*
X2187224*
Y1422921*
X2187211*
Y1422973*
X2187198*
Y1423013*
X2187185*
Y1423065*
X2187172*
Y1423117*
X2187159*
Y1423156*
X2187146*
Y1423208*
X2187133*
Y1423247*
X2187120*
Y1423299*
X2187107*
Y1423351*
X2187094*
Y1423390*
X2187081*
Y1423442*
X2187068*
Y1423481*
X2187055*
Y1423533*
X2187042*
Y1423585*
X2187029*
Y1423625*
X2187016*
Y1423677*
X2187003*
Y1423716*
X2186990*
Y1423768*
X2186977*
Y1423820*
X2186964*
Y1423859*
X2186951*
Y1423911*
X2186938*
Y1423950*
X2186925*
Y1424002*
X2186912*
Y1424054*
X2186899*
Y1424093*
X2186886*
Y1424145*
X2186873*
Y1424184*
X2186860*
Y1424237*
X2186847*
Y1424289*
X2186834*
Y1424328*
X2186821*
Y1424380*
X2186808*
Y1424419*
X2186795*
Y1424471*
X2186782*
Y1424523*
X2186769*
Y1424562*
X2186756*
Y1424614*
X2186743*
Y1424666*
X2186730*
Y1424705*
X2186717*
Y1424757*
X2186704*
Y1424796*
X2186691*
Y1424848*
X2186678*
Y1424901*
X2185545*
X2192472Y1422895D02*
Y1416437D01*
X2194269*
Y1422895*
X2192472*
X2189073D02*
Y1416437D01*
X2190870*
Y1422895*
X2189073*
G54D14*
X2198825Y1526274D02*
Y1514226D01*
X2205675*
Y1526274*
X2198825*
X2224850Y1484231D02*
Y1480950D01*
Y1484231D02*
X2223827D01*
X2223486Y1484075*
X2223373Y1483919*
X2223259Y1483606*
Y1483137*
X2223259D02*
X2223373Y1482825D01*
X2223486Y1482669*
X2223827Y1482512*
X2223827D02*
X2224850D01*
X2222236Y1483606D02*
X2222009Y1483762D01*
X2222009D02*
X2221668Y1484231D01*
Y1480950*
X2219964Y1484231D02*
X2220305Y1484075D01*
X2220532Y1483606*
X2220645Y1482825*
Y1482356*
X2220532Y1481575*
X2220305Y1481106*
X2219964Y1480950*
X2219736*
X2219395Y1481106*
X2219168Y1481575*
X2219055Y1482356*
Y1482825*
X2219168Y1483606*
X2219395Y1484075*
X2219736Y1484231*
X2219964*
X2082750Y1440531D02*
Y1437250D01*
Y1440531D02*
X2081727D01*
X2081386Y1440375*
X2081273Y1440219*
X2081159Y1439906*
Y1439438*
X2081273Y1439125*
X2081386Y1438969*
X2081727Y1438813*
X2082750*
X2080136Y1439906D02*
X2079909Y1440063D01*
X2079568Y1440531*
Y1437250*
X2078318Y1440531D02*
X2077068D01*
X2077750Y1439281*
X2077409*
X2077182Y1439125*
X2077068Y1438969*
X2076955Y1438500*
Y1438188*
X2077068Y1437719*
X2077295Y1437406*
X2077636Y1437250*
X2077977*
X2078318Y1437406*
X2078432Y1437563*
X2078545Y1437875*
X2223250Y1606631D02*
Y1603350D01*
Y1606631D02*
X2222227D01*
X2221886Y1606475*
X2221773Y1606319*
X2221659Y1606006*
Y1605538*
X2221773Y1605225*
X2221886Y1605069*
X2222227Y1604913*
X2223250*
X2220523Y1605850D02*
Y1606006D01*
X2220409Y1606319*
X2220295Y1606475*
X2220068Y1606631*
X2219614*
X2219386Y1606475*
X2219273Y1606319*
X2219159Y1606006*
Y1605694*
X2219273Y1605381*
X2219500Y1604913*
X2220636Y1603350*
X2219045*
X2254550Y1574931D02*
Y1571650D01*
Y1574931D02*
X2253527D01*
X2253186Y1574775*
X2253073Y1574619*
X2252959Y1574306*
Y1573837*
X2253073Y1573525*
X2253186Y1573369*
X2253527Y1573212*
X2254550*
X2251709Y1574931D02*
X2250459D01*
X2251141Y1573681*
X2250800*
X2250573Y1573525*
X2250459Y1573369*
X2250345Y1572900*
Y1572587*
X2250459Y1572119*
X2250686Y1571806*
X2251027Y1571650*
X2251368*
X2251709Y1571806*
X2251823Y1571962*
X2251936Y1572275*
X2037750Y1525031D02*
Y1521750D01*
Y1525031D02*
X2036727D01*
X2036386Y1524875*
X2036273Y1524719*
X2036159Y1524406*
Y1523938*
X2036273Y1523625*
X2036386Y1523469*
X2036727Y1523313*
X2037750*
X2034000Y1525031D02*
X2035136Y1522844D01*
X2033432*
X2034000Y1525031D02*
Y1521750D01*
X2058950Y1606531D02*
Y1603250D01*
Y1606531D02*
X2057927D01*
X2057586Y1606375*
X2057473Y1606219*
X2057359Y1605906*
Y1605438*
X2057359D02*
X2057473Y1605125D01*
X2057586Y1604969*
X2057927Y1604813*
X2057927D02*
X2058950D01*
X2054859Y1606531D02*
X2055995D01*
X2056109Y1605125*
X2055995Y1605281*
X2055655Y1605438*
X2055655D02*
X2055314D01*
X2055314D02*
X2054973Y1605281D01*
X2054745Y1604969*
X2054632Y1604500*
X2054745Y1604188*
X2054745D02*
X2054859Y1603719D01*
X2055086Y1603406*
X2055427Y1603250*
X2055768*
X2056109Y1603406*
X2056223Y1603563*
X2056223D02*
X2056336Y1603875D01*
X2138950Y1435231D02*
Y1431950D01*
Y1435231D02*
X2137927D01*
X2137586Y1435075*
X2137473Y1434919*
X2137359Y1434606*
Y1434138*
X2137359D02*
X2137473Y1433825D01*
X2137586Y1433669*
X2137927Y1433513*
X2137927D02*
X2138950D01*
X2134973Y1434763D02*
X2135086Y1435075D01*
X2135427Y1435231*
X2135655*
X2135995Y1435075*
X2136223Y1434606*
X2136336Y1433825*
Y1433044*
X2136223Y1432419*
X2135995Y1432106*
X2135655Y1431950*
X2135541*
X2135200Y1432106*
X2134973Y1432419*
X2134859Y1432888*
X2134859D02*
Y1433044D01*
X2134973Y1433513*
X2134973D02*
X2135200Y1433825D01*
X2135541Y1433981*
X2135655*
X2135995Y1433825*
X2136223Y1433513*
X2136223D02*
X2136336Y1433044D01*
X2125850Y1435731D02*
Y1432450D01*
Y1435731D02*
X2124827D01*
X2124486Y1435575*
X2124373Y1435419*
X2124259Y1435106*
Y1434638*
X2124259D02*
X2124373Y1434325D01*
X2124486Y1434169*
X2124827Y1434013*
X2124827D02*
X2125850D01*
X2122668Y1435731D02*
X2123009Y1435575D01*
X2123123Y1435263*
X2123123D02*
Y1434950D01*
X2123009Y1434638*
X2123009D02*
X2122782Y1434481D01*
X2122327Y1434325*
X2121986Y1434169*
X2121759Y1433856*
X2121645Y1433544*
Y1433075*
X2121759Y1432763*
X2121759D02*
X2121873Y1432606D01*
X2122214Y1432450*
X2122668*
X2123009Y1432606*
X2123123Y1432763*
X2123123D02*
X2123236Y1433075D01*
Y1433544*
X2123123Y1433856*
X2122895Y1434169*
X2122555Y1434325*
X2122100Y1434481*
X2121873Y1434638*
X2121873D02*
X2121759Y1434950D01*
Y1435263*
X2121759D02*
X2121873Y1435575D01*
X2122214Y1435731*
X2122668*
X2230950Y1503731D02*
Y1500450D01*
Y1503731D02*
X2229927D01*
X2229586Y1503575*
X2229473Y1503419*
X2229359Y1503106*
Y1502794*
X2229473Y1502481*
X2229586Y1502325*
X2229927Y1502169*
X2230950*
X2230155D02*
X2229359Y1500450D01*
X2228336Y1503731D02*
Y1500450D01*
Y1503731D02*
X2227314D01*
X2226973Y1503575*
X2226859Y1503419*
X2226745Y1503106*
Y1502794*
X2226859Y1502481*
X2226973Y1502325*
X2227314Y1502169*
X2228336*
X2227541D02*
X2226745Y1500450D01*
X2224245Y1503731D02*
X2225382D01*
X2225495Y1502325*
X2225382Y1502481*
X2225041Y1502638*
X2225041D02*
X2224700D01*
X2224700D02*
X2224359Y1502481D01*
X2224132Y1502169*
X2224018Y1501700*
X2224132Y1501388*
X2224132D02*
X2224245Y1500919D01*
X2224473Y1500606*
X2224814Y1500450*
X2225155*
X2225495Y1500606*
X2225609Y1500763*
X2225609D02*
X2225723Y1501075D01*
X2157150Y1467631D02*
Y1465288D01*
X2157036Y1464819*
X2156809Y1464506*
X2156468Y1464350*
X2156241*
X2155900Y1464506*
X2155673Y1464819*
X2155559Y1465288*
Y1467631*
X2154536Y1467006D02*
X2154309Y1467163D01*
X2153968Y1467631*
Y1464350*
X2152264Y1467631D02*
X2152605Y1467475D01*
X2152832Y1467006*
X2152945Y1466225*
Y1465756*
X2152832Y1464975*
X2152605Y1464506*
X2152264Y1464350*
X2152036*
X2151695Y1464506*
X2151468Y1464975*
X2151355Y1465756*
Y1466225*
X2151468Y1467006*
X2151695Y1467475*
X2152036Y1467631*
X2152264*
X2109850Y1460431D02*
Y1458088D01*
X2109850D02*
X2109736Y1457619D01*
X2109509Y1457306*
X2109168Y1457150*
X2108941*
X2108600Y1457306*
X2108373Y1457619*
X2108259Y1458088*
X2108259D02*
Y1460431D01*
X2107236Y1459806D02*
X2107009Y1459963D01*
X2107009D02*
X2106668Y1460431D01*
Y1457150*
X2105645Y1459806D02*
X2105418Y1459963D01*
X2105418D02*
X2105077Y1460431D01*
Y1457150*
X2222150Y1535831D02*
Y1533488D01*
X2222150D02*
X2222036Y1533019D01*
X2221809Y1532706*
X2221468Y1532550*
X2221241*
X2220900Y1532706*
X2220673Y1533019*
X2220559Y1533488*
X2220559D02*
Y1535831D01*
X2219536Y1535206D02*
X2219309Y1535363D01*
X2219309D02*
X2218968Y1535831D01*
Y1532550*
X2217832Y1535050D02*
Y1535206D01*
X2217718Y1535519*
X2217605Y1535675*
X2217377Y1535831*
X2216923*
X2216695Y1535675*
X2216582Y1535519*
X2216468Y1535206*
Y1534894*
X2216582Y1534581*
X2216809Y1534113*
X2216809D02*
X2217945Y1532550D01*
X2216355*
X2233350Y1535731D02*
Y1533388D01*
X2233350D02*
X2233236Y1532919D01*
X2233009Y1532606*
X2232668Y1532450*
X2232441*
X2232100Y1532606*
X2231873Y1532919*
X2231759Y1533388*
X2231759D02*
Y1535731D01*
X2230736Y1535106D02*
X2230509Y1535263D01*
X2230509D02*
X2230168Y1535731D01*
Y1532450*
X2227668Y1535731D02*
X2228805D01*
X2228918Y1534325*
X2228805Y1534481*
X2228464Y1534638*
X2228464D02*
X2228123D01*
X2228123D02*
X2227782Y1534481D01*
X2227555Y1534169*
X2227441Y1533700*
X2227555Y1533388*
X2227555D02*
X2227668Y1532919D01*
X2227895Y1532606*
X2228236Y1532450*
X2228577*
X2228918Y1532606*
X2229032Y1532763*
X2229032D02*
X2229145Y1533075D01*
X2056150Y1518731D02*
Y1516387D01*
X2056150D02*
X2056036Y1515919D01*
X2055809Y1515606*
X2055468Y1515450*
X2055241*
X2054900Y1515606*
X2054673Y1515919*
X2054559Y1516387*
X2054559D02*
Y1518731D01*
X2053536Y1518106D02*
X2053309Y1518262D01*
X2053309D02*
X2052968Y1518731D01*
Y1515450*
X2050582Y1518262D02*
X2050695Y1518575D01*
X2051036Y1518731*
X2051264*
X2051605Y1518575*
X2051832Y1518106*
X2051945Y1517325*
Y1516544*
X2051832Y1515919*
X2051605Y1515606*
X2051264Y1515450*
X2051150*
X2050809Y1515606*
X2050582Y1515919*
X2050468Y1516387*
X2050468D02*
Y1516544D01*
X2050582Y1517012*
X2050582D02*
X2050809Y1517325D01*
X2051150Y1517481*
X2051264*
X2051605Y1517325*
X2051832Y1517012*
X2051832D02*
X2051945Y1516544D01*
X2127450Y1497431D02*
Y1495088D01*
X2127450D02*
X2127336Y1494619D01*
X2127109Y1494306*
X2126768Y1494150*
X2126541*
X2126200Y1494306*
X2125973Y1494619*
X2125859Y1495088*
X2125859D02*
Y1497431D01*
X2124723Y1496650D02*
Y1496806D01*
X2124609Y1497119*
X2124495Y1497275*
X2124268Y1497431*
X2123814*
X2123586Y1497275*
X2123473Y1497119*
X2123359Y1496806*
Y1496494*
X2123473Y1496181*
X2123700Y1495713*
X2123700D02*
X2124836Y1494150D01*
X2123245*
X2211650Y1584331D02*
Y1581988D01*
X2211536Y1581519*
X2211309Y1581206*
X2210968Y1581050*
X2210741*
X2210400Y1581206*
X2210173Y1581519*
X2210059Y1581988*
Y1584331*
X2207900D02*
X2209036Y1582144D01*
X2207332*
X2207900Y1584331D02*
Y1581050D01*
X2068650Y1601431D02*
Y1599088D01*
X2068650D02*
X2068536Y1598619D01*
X2068309Y1598306*
X2067968Y1598150*
X2067741*
X2067400Y1598306*
X2067173Y1598619*
X2067059Y1599088*
X2067059D02*
Y1601431D01*
X2064445D02*
X2065582Y1598150D01*
X2066036Y1601431D02*
X2064445D01*
X2045934Y1484406D02*
X2047550Y1481550D01*
X2045934Y1484406D02*
X2045242Y1484014D01*
X2045022Y1483710*
X2044978Y1483326*
X2045033Y1482998*
X2045165Y1482535*
X2045550Y1481855*
X2045880Y1481503*
X2046132Y1481286*
X2046484Y1481126*
X2046858Y1481158*
X2047550Y1481550*
X2043659Y1483119D02*
X2045275Y1480263D01*
X2044088Y1479591*
X2040198Y1481160D02*
X2042803Y1478864D01*
X2041582Y1481944D02*
X2040198Y1481160D01*
X2174750Y1535406D02*
X2174523Y1535563D01*
X2174523D02*
X2174182Y1536031D01*
Y1532750*
X2185650Y1422650D02*
X2183950D01*
Y1421850*
X2185650*
Y1418026*
X2184951Y1417327*
X2184050Y1417491*
Y1416704*
X2185558Y1416453*
G03X2187250Y1418165I-229J1918*
G01Y1421850*
X2187950*
Y1422650*
X2187231*
X2186531Y1424850*
X2185650*
Y1422650*
X2183950Y1422391D02*
X2187950D01*
X2183950Y1421851D02*
X2187950D01*
X2185650Y1421311D02*
X2187250D01*
X2185650Y1420771D02*
X2187250D01*
X2185650Y1420231D02*
X2187250D01*
X2185650Y1419691D02*
X2187250D01*
X2185650Y1419151D02*
X2187250D01*
X2185650Y1418611D02*
X2187250D01*
X2185650Y1418071D02*
X2187238D01*
X2185650Y1422931D02*
X2187141D01*
X2185156Y1417531D02*
X2187069D01*
X2185650Y1423471D02*
X2186969D01*
X2185650Y1424011D02*
X2186797D01*
X2184050Y1416991D02*
X2186681D01*
X2185650Y1424551D02*
X2186626D01*
G54D15*
X2191443Y1459049D02*
X2178057D01*
X2191443Y1446451D02*
X2178057D01*
X2191443Y1446549D02*
X2178057D01*
X2191443Y1433951D02*
X2178057D01*
X2158057Y1446451D02*
X2171443D01*
X2158057Y1459049D02*
X2171443D01*
G54D16*
X2231687Y1489037D02*
Y1487463D01*
X2223813Y1489037D02*
Y1487463D01*
X2218963Y1499187D02*
X2220537D01*
X2218963Y1491313D02*
X2220537D01*
X2136699Y1478281D02*
Y1482219D01*
X2117407Y1478281D02*
Y1482219D01*
X2225408Y1475748D02*
G03X2225408I-548J0D01*
G01X2074973Y1443035D02*
G03X2074973I-549J0D01*
G01X2226853Y1606632D02*
G03X2226853I-548J0D01*
G01X2258946Y1568100D02*
G03X2258946I-548J0D01*
G01X2032493Y1527638D02*
G03X2032493I-549J0D01*
G01X2011853Y1606632D02*
G03X2011853I-548J0D01*
G01X2169301Y1431468D02*
G03X2169301I-549J0D01*
G01X2120122Y1431368D02*
G03X2120122I-548J0D01*
G01X2231687Y1503037D02*
Y1501463D01*
X2223813Y1503037D02*
Y1501463D01*
X2183411Y1482093D02*
Y1462407D01*
X2166089*
Y1482093*
X2183411*
X2222116Y1515951D02*
Y1528549D01*
X2230384Y1515951D02*
Y1528549D01*
X2232616Y1515951D02*
Y1528549D01*
X2240884Y1515951D02*
Y1528549D01*
X2086735Y1531751D02*
X2058776Y1515610D01*
X2057624Y1511307*
X2073765Y1483349*
X2104451Y1501065*
X2086735Y1531751*
X2214470Y1595455D02*
Y1597030D01*
X2216045*
X2242030Y1571045D02*
Y1569470D01*
X2240455*
X2216045D02*
X2214470D01*
Y1571045*
X2240455Y1597030D02*
X2242030Y1595455D01*
X2065030Y1571045D02*
Y1569470D01*
X2063455*
X2037470Y1595455D02*
Y1597030D01*
X2039045*
X2063455D02*
X2065030D01*
Y1595455*
X2039045Y1569470D02*
X2037470Y1571045D01*
X2444068Y1512875D02*
X2444523Y1513500D01*
X2445205Y1513813*
X2445205D02*
X2446114D01*
X2446114D02*
X2446795Y1513500D01*
X2447250Y1512875*
Y1512250*
X2447023Y1511625*
X2446795Y1511313*
X2446795D02*
X2446341Y1511000D01*
X2444977Y1510375*
X2444523Y1510063*
X2444523D02*
X2444295Y1509750D01*
X2444068Y1509125*
Y1508188*
X2444068D02*
X2444523Y1507563D01*
X2444523D02*
X2445205Y1507250D01*
X2446114*
X2446795Y1507563*
X2446795D02*
X2447250Y1508188D01*
X2442023Y1513813D02*
Y1507250D01*
Y1513813D02*
X2439068D01*
X2442023Y1510688D02*
X2440205D01*
X2442023Y1507250D02*
X2439068D01*
X2437023Y1513813D02*
Y1507250D01*
Y1513813D02*
X2434977D01*
X2434977D02*
X2434295Y1513500D01*
X2434068Y1513188*
X2434068D02*
X2433841Y1512563D01*
X2433841D02*
Y1511938D01*
X2433841D02*
X2434068Y1511313D01*
X2434068D02*
X2434295Y1511000D01*
X2434977Y1510688*
X2434977D02*
X2437023D01*
X2435432D02*
X2433841Y1507250D01*
X2431795Y1513813D02*
Y1507250D01*
X2426341Y1512250D02*
X2426568Y1512875D01*
X2427023Y1513500*
X2427477Y1513813*
X2427477D02*
X2428386D01*
X2428386D02*
X2428841Y1513500D01*
X2429295Y1512875*
X2429523Y1512250*
X2429750Y1511313*
X2429750D02*
Y1509750D01*
X2429523Y1508813*
X2429523D02*
X2429295Y1508188D01*
X2429295D02*
X2428841Y1507563D01*
X2428841D02*
X2428386Y1507250D01*
X2427477*
X2427023Y1507563*
X2427023D02*
X2426568Y1508188D01*
X2426568D02*
X2426341Y1508813D01*
X2426341D02*
Y1509750D01*
X2427477D02*
X2426341D01*
X2424295Y1513813D02*
Y1507250D01*
Y1513813D02*
X2422250D01*
X2422250D02*
X2421568Y1513500D01*
X2421341Y1513188*
X2421341D02*
X2421114Y1512563D01*
X2421114D02*
Y1511938D01*
X2421114D02*
X2421341Y1511313D01*
X2421341D02*
X2421568Y1511000D01*
X2422250Y1510688*
X2422250D02*
X2424295D01*
X2422705D02*
X2421114Y1507250D01*
X2417250Y1513813D02*
X2419068Y1507250D01*
X2417250Y1513813D02*
X2415432Y1507250D01*
X2418386Y1509438D02*
X2416114D01*
X2413386Y1513813D02*
Y1507250D01*
Y1513813D02*
X2410432D01*
X2413386Y1510688D02*
X2411568D01*
X2408386Y1513813D02*
Y1507250D01*
X2404523Y1513813D02*
X2406341Y1507250D01*
X2404523Y1513813D02*
X2402705Y1507250D01*
X2405659Y1509438D02*
X2403386D01*
X2395432Y1513813D02*
Y1507250D01*
X2392705*
X2388841Y1513813D02*
X2390659Y1507250D01*
X2388841Y1513813D02*
X2387023Y1507250D01*
X2389977Y1509438D02*
X2387705D01*
X2383386Y1513813D02*
Y1507250D01*
X2384977Y1513813D02*
X2381795D01*
X2378386D02*
X2378841Y1513500D01*
X2379295Y1512875*
X2379523Y1512250*
X2379750Y1511313*
X2379750D02*
Y1509750D01*
X2379523Y1508813*
X2379523D02*
X2379295Y1508188D01*
X2379295D02*
X2378841Y1507563D01*
X2378841D02*
X2378386Y1507250D01*
X2377477*
X2377023Y1507563*
X2377023D02*
X2376568Y1508188D01*
X2376568D02*
X2376341Y1508813D01*
X2376341D02*
X2376114Y1509750D01*
Y1511313*
X2376114D02*
X2376341Y1512250D01*
X2376568Y1512875*
X2377023Y1513500*
X2377477Y1513813*
X2377477D02*
X2378386D01*
X2365659Y1512875D02*
X2366114Y1513500D01*
X2366795Y1513813*
X2366795D02*
X2367705D01*
X2367705D02*
X2368386Y1513500D01*
X2368841Y1512875*
Y1512250*
X2368614Y1511625*
X2368386Y1511313*
X2368386D02*
X2367932Y1511000D01*
X2366568Y1510375*
X2366114Y1510063*
X2366114D02*
X2365886Y1509750D01*
X2365659Y1509125*
Y1508188*
X2365659D02*
X2366114Y1507563D01*
X2366114D02*
X2366795Y1507250D01*
X2367705*
X2368386Y1507563*
X2368386D02*
X2368841Y1508188D01*
X2361795Y1513813D02*
X2363614Y1507250D01*
X2361795Y1513813D02*
X2359977Y1507250D01*
X2362932Y1509438D02*
X2360659D01*
X2357932Y1513813D02*
Y1507250D01*
X2355205*
X2353159Y1513813D02*
Y1507250D01*
Y1513813D02*
X2351568D01*
X2351568D02*
X2350886Y1513500D01*
X2350432Y1512875*
X2350205Y1512250*
X2349977Y1511313*
X2349977D02*
Y1509750D01*
X2350205Y1508813*
X2350205D02*
X2350432Y1508188D01*
X2350432D02*
X2350886Y1507563D01*
X2350886D02*
X2351568Y1507250D01*
X2353159*
X2346114Y1513813D02*
X2347932Y1507250D01*
X2346114Y1513813D02*
X2344295Y1507250D01*
X2347250Y1509438D02*
X2344977D01*
X2340659Y1513813D02*
Y1507250D01*
X2342250Y1513813D02*
X2339068D01*
X2337023D02*
Y1509125D01*
X2336795Y1508188*
X2336795D02*
X2336341Y1507563D01*
X2336341D02*
X2335659Y1507250D01*
X2335205*
X2334523Y1507563*
X2334523D02*
X2334068Y1508188D01*
X2334068D02*
X2333841Y1509125D01*
Y1513813*
X2331795D02*
Y1507250D01*
Y1513813D02*
X2329750D01*
X2329750D02*
X2329068Y1513500D01*
X2328841Y1513188*
X2328841D02*
X2328614Y1512563D01*
X2328614D02*
Y1511938D01*
X2328614D02*
X2328841Y1511313D01*
X2328841D02*
X2329068Y1511000D01*
X2329750Y1510688*
X2329750D02*
X2331795D01*
X2330205D02*
X2328614Y1507250D01*
X2326568Y1513813D02*
Y1507250D01*
Y1513813D02*
X2323614D01*
X2326568Y1510688D02*
X2324750D01*
X2326568Y1507250D02*
X2323614D01*
X2030290Y1474698D02*
G03X2025501Y1478883I-8524J-4921D01*
G01X2030290Y1474698D02*
X2063787Y1416679D01*
G03X2074016Y1410774I10229J5906*
G01X2205484*
G03X2215713Y1416679I0J11811*
G01X2249210Y1474698*
X2253999Y1478883D02*
G03X2249210Y1474698I3735J-9106D01*
G01X2253993Y1478881D02*
G03X2262995Y1498317I-5975J14570D01*
G01X2262843Y1503923D02*
G03X2262990Y1498334I9507J-2547D01*
G01X2262843Y1503923D02*
X2278554Y1562558D01*
G03X2283451Y1599750I-138804J37192*
G01Y1622585*
G03X2279514Y1626522I-3937J-0*
G01X2210382*
G03X2206474Y1623065I0J-3937*
G01X2202663Y1592025*
X2076837D02*
G03X2202663I62913J7725D01*
G01X2076837D02*
X2073025Y1623064D01*
G03X2069118Y1626522I-3907J-479*
G01X1999986*
G03X1996049Y1622585I0J-3937*
G01Y1599750*
G03X2000946Y1562558I143701J0*
G01Y1562557D02*
X2016657Y1503923D01*
X2016510Y1498334D02*
G03X2016657Y1503923I-9360J3041D01*
G01X2016505Y1498317D02*
G03X2025507Y1478881I14977J-4866D01*
G01X1529750Y1379750D02*
Y1359750D01*
X1549750*
X2470250Y1820250D02*
Y1840250D01*
X2450250*
X1549750Y1839750D02*
X1529750D01*
Y1819750*
X2450250Y1360250D02*
X2470250D01*
Y1380250*
X1988175Y1634396D02*
X2080695D01*
X2084632Y1593057*
X2084628Y1593092D02*
G03X2194861Y1592996I55122J6671D01*
G01X2194868Y1593057D02*
X2198805Y1634396D01*
X2291325*
Y1599750*
X2286635Y1561683D02*
G03X2291322Y1599858I-123867J34584D01*
G01X2286600Y1561561D02*
X2270459Y1501325D01*
X2255879Y1470611D02*
G03X2270460Y1501320I-8609J22904D01*
G01X2255892Y1470616D02*
X2222427Y1412348D01*
X2206694Y1402901D02*
G03X2222433Y1412357I-1214J19845D01*
G01X2206679Y1402900D02*
X2074002D01*
X2057070Y1412353D02*
G03X2073985Y1402900I16847J10284D01*
G01X2057073Y1412348D02*
X2023608Y1470616D01*
X2009043Y1501723D02*
G03X2023616Y1470613I23793J-7823D01*
G01X2009041Y1501719D02*
X1992900Y1560774D01*
X1988179Y1598656D02*
G03X1992895Y1560788I116728J-4688D01*
G01X1988175Y1598569D02*
Y1634396D01*
X1966522Y1662742D02*
X2312978D01*
Y1375341*
X1966522*
Y1662742*
X2021640Y1626522D02*
G03Y1634396I-0J3937D01*
G01X2037388D02*
G03Y1626522I-0J-3937D01*
G01X2252152Y1634396D02*
G03Y1626522I-0J-3937D01*
G01X2236404D02*
G03Y1634396I-0J3937D01*
G01X2105498Y1410774D02*
G03Y1402900I0J-3937D01*
G01X2089750D02*
G03Y1410774I0J3937D01*
G01X2181089D02*
G03Y1402900I-0J-3937D01*
G01X2165341D02*
G03Y1410774I-0J3937D01*
G01X2283451Y1612152D02*
G03X2291325I3937J-0D01*
G01Y1596404D02*
G03X2283451I-3937J-0D01*
G01X1988175Y1613726D02*
G03X1996049I3937J0D01*
G01Y1597978D02*
G03X1988175I-3937J0D01*
G01X2147624Y1544632D02*
G03Y1536758I0J-3937D01*
G01X2131876D02*
G03Y1544632I-0J3937D01*
G01X2235366Y1450429D02*
G03X2242199Y1446516I3416J-1956D01*
G01X2234379Y1432846D02*
G03X2227546Y1436760I-3416J1957D01*
G01X2278530Y1531248D02*
G03X2270910Y1533233I-3810J992D01*
G01X2274887Y1548470D02*
G03X2282507Y1546486I3810J-992D01*
G01X2052047Y1437210D02*
G03X2045262Y1433214I-3392J-1998D01*
G01X2037273Y1446785D02*
G03X2044058Y1450781I3393J1998D01*
G01X2007971Y1536094D02*
G03X2000380Y1534003I-3796J-1045D01*
G01X1996193Y1549184D02*
G03X2003785Y1551275I3796J1046D01*
G54D17*
G01X2232675Y1481646D02*
X2230970Y1482631D01*
X2203470Y1434999*
X2205175Y1434015*
X2243586Y1475347D02*
X2245290Y1474363D01*
X2217790Y1426731*
X2216086Y1427716*
X2075645Y1433283D02*
X2077349Y1434267D01*
X2054751Y1473409*
X2053046Y1472425*
X2064695Y1427052D02*
X2062990Y1426068D01*
X2040451Y1465107*
X2042155Y1466091*
X2217289Y1610451D02*
Y1608482D01*
X2277211*
Y1610451*
X2217289Y1623049D02*
Y1625018D01*
X2277211*
Y1623049*
X2264420Y1575820D02*
X2262518Y1576330D01*
X2247010Y1518450*
X2248911Y1517941*
X2276589Y1572559D02*
X2278490Y1572050D01*
X2262982Y1514170*
X2261080Y1514680*
X2030589Y1517941D02*
X2032490Y1518450D01*
X2016982Y1576330*
X2015080Y1575820*
X2018420Y1514680D02*
X2016518Y1514170D01*
X2001010Y1572050*
X2002911Y1572559*
X2002289Y1610451D02*
Y1608482D01*
X2062211*
Y1610451*
X2002289Y1623049D02*
Y1625018D01*
X2062211*
Y1623049*
X2177729Y1427649D02*
Y1429618D01*
X2137571*
Y1427649*
X2177729Y1415051D02*
Y1413082D01*
X2137571*
Y1415051*
X2128629Y1427549D02*
Y1429518D01*
X2078471*
Y1427549*
X2128550Y1414951D02*
Y1412982D01*
X2078432*
Y1414951*
X2146722Y1498077D02*
Y1497289D01*
X2128612*
Y1498077*
Y1508707D02*
Y1509888D01*
X2146722*
Y1509100*
X2139344Y1491045D02*
Y1471951D01*
X2141510*
X2151156Y1491242D02*
Y1471951D01*
X2148990*
X2110719Y1531325D02*
X2106781D01*
Y1528175*
X2110719*
G54D19*
X2170750Y1482093D02*
X2178750D01*
X2222062Y1519750D02*
Y1524750D01*
X2232562Y1519750D02*
Y1524750D01*
G54D21*
X2139738Y1491045D02*
X2141025D01*
X2149581D02*
X2150762D01*
G54D65*
X2110919Y1443683D02*
X2104177D01*
X2111116Y1455494D02*
X2104030D01*
G54D66*
X2108951Y1443683D02*
X2106392D01*
X2141667Y1497207D02*
X2133667D01*
G54D67*
X2110719Y1531325D02*
Y1528175D01*
G74*
X0Y0D02*
M02*
