*
*
G04 PADS Layout (Build Number 2007.21.1) generated Gerber (RS-274-X) file*
G04 PC Version=2.1*
*
%IN "2FOC-001.pcb"*%
*
%MOIN*%
*
%FSLAX35Y35*%
*
*
*
*
G04 PC Standard Apertures*
*
*
G04 Thermal Relief Aperture macro.*
%AMTER*
1,1,$1,0,0*
1,0,$1-$2,0,0*
21,0,$3,$4,0,0,45*
21,0,$3,$4,0,0,135*
%
*
*
G04 Annular Aperture macro.*
%AMANN*
1,1,$1,0,0*
1,0,$2,0,0*
%
*
*
G04 Odd Aperture macro.*
%AMODD*
1,1,$1,0,0*
1,0,$1-0.005,0,0*
%
*
*
G04 PC Custom Aperture Macros*
*
*
*
*
*
*
G04 PC Aperture Table*
*
%ADD010C,0.01*%
%ADD016R,0.035X0.024*%
%ADD019R,0.024X0.035*%
%ADD027R,0.06X0.052*%
%ADD037C,0.05*%
%ADD043R,0.025X0.025*%
%ADD048R,0.16X0.076*%
%ADD070C,0.001*%
%ADD072R,0.02756X0.02756*%
%ADD073R,0.08268X0.08268*%
%ADD076R,0.01575X0.01575*%
%ADD077R,0.10236X0.10236*%
%ADD079R,0.07992X0.07992*%
%ADD080R,0.02992X0.02992*%
%ADD093R,0.02362X0.02362*%
%ADD094R,0.01378X0.01378*%
%ADD095R,0.14567X0.14567*%
%ADD096R,0.05906X0.05906*%
%ADD097R,0.017X0.017*%
%ADD098R,0.021X0.021*%
*
*
*
*
G04 PC Circuitry*
G04 Layer Name 2FOC-001.pcb - circuitry*
%LPD*%
*
*
G04 PC Custom Flashes*
G04 Layer Name 2FOC-001.pcb - flashes*
%LPD*%
*
*
G04 PC Circuitry*
G04 Layer Name 2FOC-001.pcb - circuitry*
%LPD*%
*
G54D10*
G01X343862Y393092D02*
Y386529D01*
Y393092D02*
X341816D01*
X341135Y392779*
X340907Y392467*
X340680Y391842*
Y390904*
X340907Y390279*
X341135Y389967*
X341816Y389654*
X343862*
X336816Y393092D02*
X338635Y386529D01*
X336816Y393092D02*
X334998Y386529D01*
X337953Y388717D02*
X335680D01*
X329771Y392154D02*
X330225Y392779D01*
X330907Y393092*
X331816*
X332498Y392779*
X332953Y392154*
Y391529*
X332725Y390904*
X332498Y390592*
X332044Y390279*
X330680Y389654*
X330225Y389342*
X329998Y389029*
X329771Y388404*
Y387467*
X330225Y386842*
X330907Y386529*
X331816*
X332498Y386842*
X332953Y387467*
X326135Y393092D02*
Y386529D01*
X327725Y393092D02*
X324544D01*
X322498D02*
Y386529D01*
Y393092D02*
X319544D01*
X322498Y389967D02*
X320680D01*
X322498Y386529D02*
X319544D01*
X312271Y393092D02*
Y386529D01*
Y393092D02*
X310453Y386529D01*
X308635Y393092D02*
X310453Y386529D01*
X308635Y393092D02*
Y386529D01*
X304771Y393092D02*
X306589Y386529D01*
X304771Y393092D02*
X302953Y386529D01*
X305907Y388717D02*
X303635D01*
X297725Y392154D02*
X298180Y392779D01*
X298862Y393092*
X299771*
X300453Y392779*
X300907Y392154*
Y391529*
X300680Y390904*
X300453Y390592*
X299998Y390279*
X298635Y389654*
X298180Y389342*
X297953Y389029*
X297725Y388404*
Y387467*
X298180Y386842*
X298862Y386529*
X299771*
X300453Y386842*
X300907Y387467*
X295680Y393092D02*
Y386529D01*
X292498Y393092D02*
X295680Y388717D01*
X294544Y390279D02*
X292498Y386529D01*
X285225Y393092D02*
Y386529D01*
Y393092D02*
X283180D01*
X282498Y392779*
X282271Y392467*
X282044Y391842*
Y391217*
X282271Y390592*
X282498Y390279*
X283180Y389967*
X285225D02*
X283180D01*
X282498Y389654*
X282271Y389342*
X282044Y388717*
Y387779*
X282271Y387154*
X282498Y386842*
X283180Y386529*
X285225*
X278635Y393092D02*
X279089Y392779D01*
X279544Y392154*
X279771Y391529*
X279998Y390592*
Y389029*
X279771Y388092*
X279544Y387467*
X279089Y386842*
X278635Y386529*
X277725*
X277271Y386842*
X276816Y387467*
X276589Y388092*
X276362Y389029*
Y390592*
X276589Y391529*
X276816Y392154*
X277271Y392779*
X277725Y393092*
X278635*
X272725D02*
Y386529D01*
X274316Y393092D02*
X271135D01*
X267498D02*
Y386529D01*
X269089Y393092D02*
X265907D01*
X262498D02*
X262953Y392779D01*
X263407Y392154*
X263635Y391529*
X263862Y390592*
Y389029*
X263635Y388092*
X263407Y387467*
X262953Y386842*
X262498Y386529*
X261589*
X261135Y386842*
X260680Y387467*
X260453Y388092*
X260225Y389029*
Y390592*
X260453Y391529*
X260680Y392154*
X261135Y392779*
X261589Y393092*
X262498*
X258180D02*
Y386529D01*
Y393092D02*
X256362Y386529D01*
X254544Y393092D02*
X256362Y386529D01*
X254544Y393092D02*
Y386529D01*
X172602Y378722D02*
Y372159D01*
Y378722D02*
X174647D01*
X175329Y378409*
X175557Y378097*
X175784Y377472*
Y376847*
X175557Y376222*
X175329Y375909*
X174647Y375597*
X172602D02*
X174647D01*
X175329Y375284*
X175557Y374972*
X175784Y374347*
Y373409*
X175557Y372784*
X175329Y372472*
X174647Y372159*
X172602*
X179193Y378722D02*
X178738Y378409D01*
X178284Y377784*
X178057Y377159*
X177829Y376222*
Y374659*
X178057Y373722*
X178284Y373097*
X178738Y372472*
X179193Y372159*
X180102*
X180557Y372472*
X181011Y373097*
X181238Y373722*
X181466Y374659*
Y376222*
X181238Y377159*
X181011Y377784*
X180557Y378409*
X180102Y378722*
X179193*
X185329D02*
X183511Y372159D01*
X185329Y378722D02*
X187147Y372159D01*
X184193Y374347D02*
X186466D01*
X189193Y378722D02*
Y372159D01*
Y378722D02*
X191238D01*
X191920Y378409*
X192147Y378097*
X192375Y377472*
Y376847*
X192147Y376222*
X191920Y375909*
X191238Y375597*
X189193*
X190784D02*
X192375Y372159D01*
X194420Y378722D02*
Y372159D01*
Y378722D02*
X196011D01*
X196693Y378409*
X197147Y377784*
X197375Y377159*
X197602Y376222*
Y374659*
X197375Y373722*
X197147Y373097*
X196693Y372472*
X196011Y372159*
X194420*
X206466Y378722D02*
Y372159D01*
X204875Y378722D02*
X208057D01*
X210102D02*
Y372159D01*
X213284Y378722D02*
Y372159D01*
X210102Y375597D02*
X213284D01*
X215329Y378722D02*
Y372159D01*
X220784Y377159D02*
X220557Y377784D01*
X220102Y378409*
X219647Y378722*
X218738*
X218284Y378409*
X217829Y377784*
X217602Y377159*
X217375Y376222*
Y374659*
X217602Y373722*
X217829Y373097*
X218284Y372472*
X218738Y372159*
X219647*
X220102Y372472*
X220557Y373097*
X220784Y373722*
X222829Y378722D02*
Y372159D01*
X226011Y378722D02*
X222829Y374347D01*
X223966Y375909D02*
X226011Y372159D01*
X228057Y378722D02*
Y372159D01*
Y378722D02*
X231238Y372159D01*
Y378722D02*
Y372159D01*
X233284Y378722D02*
Y372159D01*
Y378722D02*
X236238D01*
X233284Y375597D02*
X235102D01*
X233284Y372159D02*
X236238D01*
X241466Y377784D02*
X241011Y378409D01*
X240329Y378722*
X239420*
X238738Y378409*
X238284Y377784*
Y377159*
X238511Y376534*
X238738Y376222*
X239193Y375909*
X240557Y375284*
X241011Y374972*
X241238Y374659*
X241466Y374034*
Y373097*
X241011Y372472*
X240329Y372159*
X239420*
X238738Y372472*
X238284Y373097*
X246693Y377784D02*
X246238Y378409D01*
X245557Y378722*
X244647*
X243966Y378409*
X243511Y377784*
Y377159*
X243738Y376534*
X243966Y376222*
X244420Y375909*
X245784Y375284*
X246238Y374972*
X246466Y374659*
X246693Y374034*
Y373097*
X246238Y372472*
X245557Y372159*
X244647*
X243966Y372472*
X243511Y373097*
X253966Y377472D02*
X254420Y377784D01*
X255102Y378722*
Y372159*
X257375Y372784D02*
X257147Y372472D01*
X257375Y372159*
X257602Y372472*
X257375Y372784*
X262375Y377784D02*
X262147Y378409D01*
X261466Y378722*
X261011*
X260329Y378409*
X259875Y377472*
X259647Y375909*
Y374347*
X259875Y373097*
X260329Y372472*
X261011Y372159*
X261238*
X261920Y372472*
X262375Y373097*
X262602Y374034*
Y374347*
X262375Y375284*
X261920Y375909*
X261238Y376222*
X261011*
X260329Y375909*
X259875Y375284*
X259647Y374347*
X264647Y376534D02*
Y372159D01*
Y375284D02*
X265329Y376222D01*
X265784Y376534*
X266466*
X266920Y376222*
X267147Y375284*
Y372159*
Y375284D02*
X267829Y376222D01*
X268284Y376534*
X268966*
X269420Y376222*
X269647Y375284*
Y372159*
X271693Y376534D02*
Y372159D01*
Y375284D02*
X272375Y376222D01*
X272829Y376534*
X273511*
X273966Y376222*
X274193Y375284*
Y372159*
Y375284D02*
X274875Y376222D01*
X275329Y376534*
X276011*
X276466Y376222*
X276693Y375284*
Y372159*
X279193Y372472D02*
X278966Y372159D01*
X278738Y372472*
X278966Y372784*
X279193Y372472*
Y371847*
X278966Y371222*
X278738Y370909*
X289875Y377159D02*
X289647Y377784D01*
X289193Y378409*
X288738Y378722*
X287829*
X287375Y378409*
X286920Y377784*
X286693Y377159*
X286466Y376222*
Y374659*
X286693Y373722*
X286920Y373097*
X287375Y372472*
X287829Y372159*
X288738*
X289193Y372472*
X289647Y373097*
X289875Y373722*
X293284Y378722D02*
X292829Y378409D01*
X292375Y377784*
X292147Y377159*
X291920Y376222*
Y374659*
X292147Y373722*
X292375Y373097*
X292829Y372472*
X293284Y372159*
X294193*
X294647Y372472*
X295102Y373097*
X295329Y373722*
X295557Y374659*
Y376222*
X295329Y377159*
X295102Y377784*
X294647Y378409*
X294193Y378722*
X293284*
X297602D02*
Y372159D01*
Y378722D02*
X299647D01*
X300329Y378409*
X300557Y378097*
X300784Y377472*
Y376534*
X300557Y375909*
X300329Y375597*
X299647Y375284*
X297602*
X302829Y378722D02*
Y372159D01*
Y378722D02*
X304875D01*
X305557Y378409*
X305784Y378097*
X306011Y377472*
Y376534*
X305784Y375909*
X305557Y375597*
X304875Y375284*
X302829*
X308057Y378722D02*
Y372159D01*
Y378722D02*
X311011D01*
X308057Y375597D02*
X309875D01*
X308057Y372159D02*
X311011D01*
X313057Y378722D02*
Y372159D01*
Y378722D02*
X315102D01*
X315784Y378409*
X316011Y378097*
X316238Y377472*
Y376847*
X316011Y376222*
X315784Y375909*
X315102Y375597*
X313057*
X314647D02*
X316238Y372159D01*
X325102Y378722D02*
Y372159D01*
X323511Y378722D02*
X326693D01*
X328738D02*
Y372159D01*
X334193Y377159D02*
X333966Y377784D01*
X333511Y378409*
X333057Y378722*
X332147*
X331693Y378409*
X331238Y377784*
X331011Y377159*
X330784Y376222*
Y374659*
X331011Y373722*
X331238Y373097*
X331693Y372472*
X332147Y372159*
X333057*
X333511Y372472*
X333966Y373097*
X334193Y373722*
X336238Y378722D02*
Y372159D01*
X339420Y378722D02*
X336238Y374347D01*
X337375Y375909D02*
X339420Y372159D01*
X341466Y378722D02*
Y372159D01*
Y378722D02*
X344647Y372159D01*
Y378722D02*
Y372159D01*
X346693Y378722D02*
Y372159D01*
Y378722D02*
X349647D01*
X346693Y375597D02*
X348511D01*
X346693Y372159D02*
X349647D01*
X354875Y377784D02*
X354420Y378409D01*
X353738Y378722*
X352829*
X352147Y378409*
X351693Y377784*
Y377159*
X351920Y376534*
X352147Y376222*
X352602Y375909*
X353966Y375284*
X354420Y374972*
X354647Y374659*
X354875Y374034*
Y373097*
X354420Y372472*
X353738Y372159*
X352829*
X352147Y372472*
X351693Y373097*
X360102Y377784D02*
X359647Y378409D01*
X358966Y378722*
X358057*
X357375Y378409*
X356920Y377784*
Y377159*
X357147Y376534*
X357375Y376222*
X357829Y375909*
X359193Y375284*
X359647Y374972*
X359875Y374659*
X360102Y374034*
Y373097*
X359647Y372472*
X358966Y372159*
X358057*
X357375Y372472*
X356920Y373097*
X367829Y378722D02*
X370329D01*
X368966Y376222*
X369647*
X370102Y375909*
X370329Y375597*
X370557Y374659*
Y374034*
X370329Y373097*
X369875Y372472*
X369193Y372159*
X368511*
X367829Y372472*
X367602Y372784*
X367375Y373409*
X375557Y378722D02*
X373284D01*
X373057Y375909*
X373284Y376222*
X373966Y376534*
X374647*
X375329Y376222*
X375784Y375597*
X376011Y374659*
X375784Y374034*
X375557Y373097*
X375102Y372472*
X374420Y372159*
X373738*
X373057Y372472*
X372829Y372784*
X372602Y373409*
X378057Y376534D02*
Y373409D01*
X378284Y372472*
X378738Y372159*
X379420*
X379875Y372472*
X380557Y373409*
Y376534D02*
Y372159D01*
X382602Y376534D02*
Y372159D01*
Y375284D02*
X383284Y376222D01*
X383738Y376534*
X384420*
X384875Y376222*
X385102Y375284*
Y372159*
Y375284D02*
X385784Y376222D01*
X386238Y376534*
X386920*
X387375Y376222*
X387602Y375284*
Y372159*
X390102Y372472D02*
X389875Y372159D01*
X389647Y372472*
X389875Y372784*
X390102Y372472*
Y371847*
X389875Y371222*
X389647Y370909*
X400784Y377159D02*
X400557Y377784D01*
X400102Y378409*
X399647Y378722*
X398738*
X398284Y378409*
X397829Y377784*
X397602Y377159*
X397375Y376222*
Y374659*
X397602Y373722*
X397829Y373097*
X398284Y372472*
X398738Y372159*
X399647*
X400102Y372472*
X400557Y373097*
X400784Y373722*
X402829Y378722D02*
Y372159D01*
X406011Y378722D02*
Y372159D01*
X402829Y375597D02*
X406011D01*
X408057Y378722D02*
Y372159D01*
Y378722D02*
X411011D01*
X408057Y375597D02*
X409875D01*
X408057Y372159D02*
X411011D01*
X413057Y378722D02*
Y372159D01*
Y378722D02*
X414875Y372159D01*
X416693Y378722D02*
X414875Y372159D01*
X416693Y378722D02*
Y372159D01*
X418738Y378722D02*
Y372159D01*
X424193Y377159D02*
X423966Y377784D01*
X423511Y378409*
X423057Y378722*
X422147*
X421693Y378409*
X421238Y377784*
X421011Y377159*
X420784Y376222*
Y374659*
X421011Y373722*
X421238Y373097*
X421693Y372472*
X422147Y372159*
X423057*
X423511Y372472*
X423966Y373097*
X424193Y373722*
X428057Y378722D02*
X426238Y372159D01*
X428057Y378722D02*
X429875Y372159D01*
X426920Y374347D02*
X429193D01*
X431920Y378722D02*
Y372159D01*
X434647*
X441920Y378722D02*
Y372159D01*
Y378722D02*
X445102Y372159D01*
Y378722D02*
Y372159D01*
X447147Y378722D02*
X447375Y378409D01*
X447602Y378722*
X447375Y379034*
X447147Y378722*
X447375Y376534D02*
Y372159D01*
X449647Y374972D02*
X453738D01*
X457602Y378722D02*
X455784Y372159D01*
X457602Y378722D02*
X459420Y372159D01*
X456466Y374347D02*
X458738D01*
X461466Y376534D02*
Y373409D01*
X461693Y372472*
X462147Y372159*
X462829*
X463284Y372472*
X463966Y373409*
Y376534D02*
Y372159D01*
X471238Y378722D02*
Y372159D01*
Y378722D02*
X474193D01*
X471238Y375597D02*
X473057D01*
X476238Y378722D02*
Y372159D01*
X478284Y378722D02*
Y372159D01*
Y378722D02*
X481466Y372159D01*
Y378722D02*
Y372159D01*
X483511Y378722D02*
Y372159D01*
X488738Y377784D02*
X488284Y378409D01*
X487602Y378722*
X486693*
X486011Y378409*
X485557Y377784*
Y377159*
X485784Y376534*
X486011Y376222*
X486466Y375909*
X487829Y375284*
X488284Y374972*
X488511Y374659*
X488738Y374034*
Y373097*
X488284Y372472*
X487602Y372159*
X486693*
X486011Y372472*
X485557Y373097*
X490784Y378722D02*
Y372159D01*
X493966Y378722D02*
Y372159D01*
X490784Y375597D02*
X493966D01*
X496011Y378722D02*
Y372159D01*
X498057Y378722D02*
Y372159D01*
Y378722D02*
X501238Y372159D01*
Y378722D02*
Y372159D01*
X506693Y377159D02*
X506466Y377784D01*
X506011Y378409*
X505557Y378722*
X504647*
X504193Y378409*
X503738Y377784*
X503511Y377159*
X503284Y376222*
Y374659*
X503511Y373722*
X503738Y373097*
X504193Y372472*
X504647Y372159*
X505557*
X506011Y372472*
X506466Y373097*
X506693Y373722*
Y374659*
X505557D02*
X506693D01*
X224988Y457218D02*
X454098D01*
Y623931*
X224988*
Y457218*
X180870Y812710D02*
X160870D01*
Y792710*
X160791Y376490D02*
Y356490D01*
X180791*
X645437Y356805D02*
X665437D01*
Y376805*
X665909Y792631D02*
Y812631D01*
X645909*
G54D16*
X327523Y520622D03*
Y515822D03*
X371421Y510780D03*
Y505980D03*
X400358Y510583D03*
Y505783D03*
X430082Y511173D03*
Y506373D03*
X270043Y510386D03*
Y505586D03*
X299374Y510189D03*
Y505389D03*
X328901Y510976D03*
Y506176D03*
X379295Y462672D03*
Y467472D03*
X266696Y462476D03*
Y467276D03*
X328114Y462672D03*
Y467472D03*
X328311Y606767D03*
Y611567D03*
X342878Y587354D03*
Y582554D03*
X336972Y587354D03*
Y582554D03*
X349767Y580586D03*
Y585386D03*
X342878Y560189D03*
Y555389D03*
X286775Y539050D03*
Y543850D03*
X281854Y539247D03*
Y544047D03*
X276736Y553814D03*
Y558614D03*
X275358Y573302D03*
Y578102D03*
X294846Y602830D03*
Y607630D03*
X294649Y612279D03*
Y617079D03*
X289531Y602830D03*
Y607630D03*
Y612279D03*
Y617079D03*
X351736Y603420D03*
Y608220D03*
X351933Y613854D03*
Y618654D03*
X357248Y603420D03*
Y608220D03*
Y613854D03*
Y618654D03*
X396618Y549090D03*
Y553890D03*
X392287Y568775D03*
Y573575D03*
X361972Y553102D03*
Y548302D03*
Y563929D03*
Y559129D03*
X340319Y545350D03*
Y550150D03*
X337366Y555586D03*
Y560386D03*
X340515Y535507D03*
Y540307D03*
X335397Y535507D03*
Y540307D03*
X392287Y558539D03*
Y563339D03*
X275555Y563657D03*
Y568457D03*
X261185Y580586D03*
Y585386D03*
X417090Y566488D03*
Y561688D03*
G54D19*
X272061Y515395D03*
X267261D03*
X402955Y515466D03*
X398155D03*
X432679Y516254D03*
X427879D03*
X374061Y515395D03*
X369261D03*
X301561D03*
X296761D03*
X296186Y464679D03*
X300986D03*
X345399D03*
X350199D03*
X406619D03*
X411419D03*
X438706Y478852D03*
X443506D03*
X278076Y614482D03*
X282876D03*
X272837D03*
X268037D03*
X398745Y616450D03*
X403545D03*
X394096Y616647D03*
X389296D03*
X277435Y597076D03*
X272635D03*
X398561Y598151D03*
X393761D03*
X329136Y588498D03*
X324336D03*
X285359Y584757D03*
X290159D03*
X342325Y592238D03*
X337525D03*
X342522Y577671D03*
X337722D03*
X314569Y566057D03*
X309769D03*
X380907Y569797D03*
X376107D03*
X394884Y588301D03*
X390084D03*
X256104Y566450D03*
X251304D03*
X256104Y561726D03*
X251304D03*
X256301Y556805D03*
X251501D03*
X256104Y551687D03*
X251304D03*
X256301Y581214D03*
X251501D03*
X256301Y586135D03*
X251501D03*
X256301Y591057D03*
X251501D03*
X256301Y595978D03*
X251501D03*
X422367Y595387D03*
X427167D03*
X422367Y581017D03*
X427167D03*
X422367Y585742D03*
X427167D03*
X422367Y566057D03*
X427167D03*
X422367Y561135D03*
X427167D03*
X422367Y556214D03*
X427167D03*
X422367Y551293D03*
X427167D03*
X422367Y590466D03*
X427167D03*
X285950Y591450D03*
X290750D03*
X349533Y590663D03*
X354333D03*
X401501Y543616D03*
X406301D03*
X357285Y543025D03*
X352485D03*
X282013Y548931D03*
X286813D03*
Y553655D03*
X282013D03*
X286813Y558380D03*
X282013D03*
X401698Y538498D03*
X406498D03*
X406301Y548931D03*
X401501D03*
X406301Y554443D03*
X401501D03*
X392249Y538498D03*
X397049D03*
X251501Y601096D03*
X256301D03*
X427364Y546372D03*
X422564D03*
X251304Y546962D03*
X256104D03*
X427364Y600309D03*
X422564D03*
X272958Y548931D03*
X277758D03*
X392052Y543616D03*
X396852D03*
G54D27*
X322208Y550839D03*
Y558439D03*
G54D37*
X353114Y595978D03*
X369452Y608576D03*
X365515Y615466D03*
X272208Y588498D03*
X307248Y617041D03*
X300161Y609954D03*
X321815Y611726D03*
X265712Y593616D03*
X331854Y573931D03*
X346421Y541844D03*
X296618Y563891D03*
X363350Y538694D03*
X376539Y608970D03*
G54D43*
X266303Y544821D03*
Y541671D03*
Y538521D03*
Y535371D03*
X260303D03*
Y538521D03*
Y541671D03*
Y544821D03*
X313004Y549128D03*
Y545978D03*
Y542828D03*
Y539678D03*
X307004D03*
Y542828D03*
Y545978D03*
Y549128D03*
X368618Y545977D03*
Y549127D03*
Y552277D03*
Y555427D03*
X374618D03*
Y552277D03*
Y549127D03*
Y545977D03*
G54D48*
X257641Y574128D03*
X421618Y573143D03*
G54D70*
G54D72*
X243271Y546864D02*
X246815D01*
X243271Y551785D02*
X246815D01*
X243271Y556706D02*
X246815D01*
X243271Y561628D02*
X246815D01*
X243271Y566549D02*
X246815D01*
X243271Y571470D02*
X246815D01*
X243271Y576391D02*
X246815D01*
X243271Y581313D02*
X246815D01*
X243271Y586234D02*
X246815D01*
X243271Y591155D02*
X246815D01*
X243271Y596076D02*
X246815D01*
X243271Y600998D02*
X246815D01*
X435200Y600210D02*
X431657D01*
X435200Y595289D02*
X431657D01*
X435200Y590368D02*
X431657D01*
X435200Y585446D02*
X431657D01*
X435200Y580525D02*
X431657D01*
X435200Y575604D02*
X431657D01*
X435200Y570683D02*
X431657D01*
X435200Y565761D02*
X431657D01*
X435200Y560840D02*
X431657D01*
X435200Y555919D02*
X431657D01*
X435200Y550998D02*
X431657D01*
X435200Y546076D02*
X431657D01*
G54D73*
X231854Y611037D02*
X235397D01*
X231854Y536824D02*
X235397D01*
X446618Y536037D02*
X443074D01*
X446618Y610250D02*
X443074D01*
G54D76*
X263744Y514876D02*
X262956D01*
X263744Y511726D02*
X262956D01*
X263744Y508576D02*
X262956D01*
X263744Y505427D02*
X262956D01*
X263744Y502277D02*
X262956D01*
X247996D02*
X247208D01*
X247996Y505427D02*
X247208D01*
X247996Y508576D02*
X247208D01*
X247996Y511726D02*
X247208D01*
X247996Y514876D02*
X247208D01*
X293055Y514895D02*
X292267D01*
X293055Y511746D02*
X292267D01*
X293055Y508596D02*
X292267D01*
X293055Y505446D02*
X292267D01*
X293055Y502297D02*
X292267D01*
X277307D02*
X276519D01*
X277307Y505446D02*
X276519D01*
X277307Y508596D02*
X276519D01*
X277307Y511746D02*
X276519D01*
X277307Y514895D02*
X276519D01*
X323055D02*
X322267D01*
X323055Y511746D02*
X322267D01*
X323055Y508596D02*
X322267D01*
X323055Y505446D02*
X322267D01*
X323055Y502297D02*
X322267D01*
X307307D02*
X306519D01*
X307307Y505446D02*
X306519D01*
X307307Y508596D02*
X306519D01*
X307307Y511746D02*
X306519D01*
X307307Y514895D02*
X306519D01*
X365555D02*
X364767D01*
X365555Y511746D02*
X364767D01*
X365555Y508596D02*
X364767D01*
X365555Y505446D02*
X364767D01*
X365555Y502297D02*
X364767D01*
X349807D02*
X349019D01*
X349807Y505446D02*
X349019D01*
X349807Y508596D02*
X349019D01*
X349807Y511746D02*
X349019D01*
X349807Y514895D02*
X349019D01*
X394555D02*
X393767D01*
X394555Y511746D02*
X393767D01*
X394555Y508596D02*
X393767D01*
X394555Y505446D02*
X393767D01*
X394555Y502297D02*
X393767D01*
X378807D02*
X378019D01*
X378807Y505446D02*
X378019D01*
X378807Y508596D02*
X378019D01*
X378807Y511746D02*
X378019D01*
X378807Y514895D02*
X378019D01*
X423555Y515395D02*
X422767D01*
X423555Y512246D02*
X422767D01*
X423555Y509096D02*
X422767D01*
X423555Y505946D02*
X422767D01*
X423555Y502797D02*
X422767D01*
X407807D02*
X407019D01*
X407807Y505946D02*
X407019D01*
X407807Y509096D02*
X407019D01*
X407807Y512246D02*
X407019D01*
X407807Y515395D02*
X407019D01*
G54D77*
X255476Y509364D02*
Y507789D01*
X284787Y509383D02*
Y507809D01*
X314787Y509383D02*
Y507809D01*
X357287Y509383D02*
Y507809D01*
X386287Y509383D02*
Y507809D01*
X415287Y509883D02*
Y508309D01*
G54D79*
X342397Y494446D02*
Y498974D01*
X337193Y513844D02*
Y518372D01*
G54D80*
X334700Y491927D02*
Y494446D01*
X344893Y518368D02*
Y520887D01*
G54D93*
X307228Y486490D02*
Y482946D01*
X312228Y486490D02*
Y482946D01*
X317228Y486490D02*
Y482946D01*
X322228Y486490D02*
Y482946D01*
Y466490D02*
Y462946D01*
X317228Y466490D02*
Y462946D01*
X312228Y466490D02*
Y462946D01*
X307228Y466490D02*
Y462946D01*
X417661Y486490D02*
Y482946D01*
X422661Y486490D02*
Y482946D01*
X427661Y486490D02*
Y482946D01*
X432661Y486490D02*
Y482946D01*
Y466490D02*
Y462946D01*
X427661Y466490D02*
Y462946D01*
X422661Y466490D02*
Y462946D01*
X417661Y466490D02*
Y462946D01*
X245417Y485899D02*
Y482356D01*
X250417Y485899D02*
Y482356D01*
X255417Y485899D02*
Y482356D01*
X260417Y485899D02*
Y482356D01*
Y465899D02*
Y462356D01*
X255417Y465899D02*
Y462356D01*
X250417Y465899D02*
Y462356D01*
X245417Y465899D02*
Y462356D01*
X357819Y486490D02*
Y482946D01*
X362819Y486490D02*
Y482946D01*
X367819Y486490D02*
Y482946D01*
X372819Y486490D02*
Y482946D01*
Y466490D02*
Y462946D01*
X367819Y466490D02*
Y462946D01*
X362819Y466490D02*
Y462946D01*
X357819Y466490D02*
Y462946D01*
G54D94*
X299767Y598439D02*
Y597061D01*
X302326Y598439D02*
Y597061D01*
X304885Y598439D02*
Y597061D01*
X307444Y598439D02*
Y597061D01*
X310004Y598439D02*
Y597061D01*
X312563Y598439D02*
Y597061D01*
X315122Y598439D02*
Y597061D01*
X320141Y593222D02*
X318763D01*
X320141Y590860D02*
X318763D01*
X320141Y588498D02*
X318763D01*
X320141Y586135D02*
X318763D01*
X320141Y583773D02*
X318763D01*
X320141Y581214D02*
X318763D01*
X320141Y578655D02*
X318763D01*
X314925Y575210D02*
Y573832D01*
X312563Y575210D02*
Y573832D01*
X309807Y575210D02*
Y573832D01*
X307444Y575210D02*
Y573832D01*
X305082Y575210D02*
Y573832D01*
X302326Y575210D02*
Y573832D01*
X299570Y575210D02*
Y573832D01*
X296913Y578655D02*
X295535D01*
X296913Y581017D02*
X295535D01*
X296913Y583773D02*
X295535D01*
X296913Y586135D02*
X295535D01*
X296913Y588498D02*
X295535D01*
X296913Y590860D02*
X295535D01*
X296913Y593222D02*
X295535D01*
X365515Y598242D02*
Y596864D01*
X368074Y598242D02*
Y596864D01*
X370633Y598242D02*
Y596864D01*
X373193Y598242D02*
Y596864D01*
X375752Y598242D02*
Y596864D01*
X378311Y598242D02*
Y596864D01*
X380870Y598242D02*
Y596864D01*
X385889Y593025D02*
X384511D01*
X385889Y590663D02*
X384511D01*
X385889Y588301D02*
X384511D01*
X385889Y585939D02*
X384511D01*
X385889Y583576D02*
X384511D01*
X385889Y581017D02*
X384511D01*
X385889Y578458D02*
X384511D01*
X380673Y575013D02*
Y573635D01*
X378311Y575013D02*
Y573635D01*
X375555Y575013D02*
Y573635D01*
X373193Y575013D02*
Y573635D01*
X370830Y575013D02*
Y573635D01*
X368074Y575013D02*
Y573635D01*
X365319Y575013D02*
Y573635D01*
X362661Y578458D02*
X361283D01*
X362661Y580820D02*
X361283D01*
X362661Y583576D02*
X361283D01*
X362661Y585939D02*
X361283D01*
X362661Y588301D02*
X361283D01*
X362661Y590663D02*
X361283D01*
X362661Y593025D02*
X361283D01*
G54D95*
X307838Y585939D03*
X373586Y585742D03*
G54D96*
X345043Y611135D02*
X344649D01*
X345043Y601135D02*
X344649D01*
X335043D02*
X334649D01*
X335200Y611135D02*
X334807D01*
G54D97*
X279094Y601395D02*
Y603829D01*
X276535Y601395D02*
Y603829D01*
X273976Y601395D02*
Y603829D01*
X271417Y601395D02*
Y603829D01*
Y608324D02*
Y610758D01*
X273976Y608324D02*
Y610758D01*
X276535Y608324D02*
Y610758D01*
X279094Y608324D02*
Y610758D01*
X400220Y602470D02*
Y604904D01*
X397661Y602470D02*
Y604904D01*
X395102Y602470D02*
Y604904D01*
X392543Y602470D02*
Y604904D01*
Y609399D02*
Y611833D01*
X395102Y609399D02*
Y611833D01*
X397661Y609399D02*
Y611833D01*
X400220Y609399D02*
Y611833D01*
G54D98*
X356126Y547118D02*
Y550018D01*
X352326Y547118D02*
Y550018D01*
X348526Y547118D02*
Y550018D01*
Y555818D02*
Y558718D01*
X356126Y555818D02*
Y558718D01*
X288410Y562866D02*
Y565766D01*
X284610Y562866D02*
Y565766D01*
X280810Y562866D02*
Y565766D01*
Y571566D02*
Y574466D01*
X288410Y571566D02*
Y574466D01*
X405339Y558535D02*
Y561435D01*
X401539Y558535D02*
Y561435D01*
X397739Y558535D02*
Y561435D01*
Y567235D02*
Y570135D01*
X405339Y567235D02*
Y570135D01*
X0Y0D02*
M02*
