*
*
G04 PADS Layout (Build Number 2007.21.1) generated Gerber (RS-274-X) file*
G04 PC Version=2.1*
*
%IN "2FOC-001.pcb"*%
*
%MOIN*%
*
%FSLAX35Y35*%
*
*
*
*
G04 PC Standard Apertures*
*
*
G04 Thermal Relief Aperture macro.*
%AMTER*
1,1,$1,0,0*
1,0,$1-$2,0,0*
21,0,$3,$4,0,0,45*
21,0,$3,$4,0,0,135*
%
*
*
G04 Annular Aperture macro.*
%AMANN*
1,1,$1,0,0*
1,0,$2,0,0*
%
*
*
G04 Odd Aperture macro.*
%AMODD*
1,1,$1,0,0*
1,0,$1-0.005,0,0*
%
*
*
G04 PC Custom Aperture Macros*
*
*
*
*
*
*
G04 PC Aperture Table*
*
%ADD010C,0.01*%
%ADD015C,0.008*%
%ADD028R,0.075X0.084*%
%ADD029C,0.085*%
%ADD070C,0.001*%
%ADD083C,0.00787*%
%ADD084C,0.05906*%
%ADD085C,0.03937*%
%ADD087C,0.01969*%
%ADD088C,0.13*%
*
*
*
*
G04 PC Circuitry*
G04 Layer Name 2FOC-001.pcb - circuitry*
%LPD*%
*
*
G04 PC Custom Flashes*
G04 Layer Name 2FOC-001.pcb - flashes*
%LPD*%
*
*
G04 PC Circuitry*
G04 Layer Name 2FOC-001.pcb - circuitry*
%LPD*%
*
G54D10*
G01X231460Y420060D02*
Y413498D01*
X233506Y420060D02*
Y413498D01*
Y420060D02*
X236688Y413498D01*
Y420060D02*
Y413498D01*
X240324Y420060D02*
Y413498D01*
X238733Y420060D02*
X241915D01*
X243960D02*
Y413498D01*
Y420060D02*
X246915D01*
X243960Y416935D02*
X245778D01*
X243960Y413498D02*
X246915D01*
X248960Y420060D02*
Y413498D01*
Y420060D02*
X251006D01*
X251688Y419748*
X251915Y419435*
X252142Y418810*
Y418185*
X251915Y417560*
X251688Y417248*
X251006Y416935*
X248960*
X250551D02*
X252142Y413498D01*
X254188Y420060D02*
Y413498D01*
Y420060D02*
X257369Y413498D01*
Y420060D02*
Y413498D01*
X261233Y420060D02*
X259415Y413498D01*
X261233Y420060D02*
X263051Y413498D01*
X260097Y415685D02*
X262369D01*
X265097Y420060D02*
Y413498D01*
X267824*
X275097Y420060D02*
Y413498D01*
X277824*
X281688Y420060D02*
X279869Y413498D01*
X281688Y420060D02*
X283506Y413498D01*
X280551Y415685D02*
X282824D01*
X285551Y420060D02*
X287369Y416935D01*
Y413498*
X289188Y420060D02*
X287369Y416935D01*
X291233Y420060D02*
Y413498D01*
Y420060D02*
X294188D01*
X291233Y416935D02*
X293051D01*
X291233Y413498D02*
X294188D01*
X296233Y420060D02*
Y413498D01*
Y420060D02*
X298278D01*
X298960Y419748*
X299188Y419435*
X299415Y418810*
Y418185*
X299188Y417560*
X298960Y417248*
X298278Y416935*
X296233*
X297824D02*
X299415Y413498D01*
X306688Y418810D02*
X307142Y419123D01*
X307824Y420060*
Y413498*
X172602Y378722D02*
Y372159D01*
Y378722D02*
X174647D01*
X175329Y378409*
X175557Y378097*
X175784Y377472*
Y376847*
X175557Y376222*
X175329Y375909*
X174647Y375597*
X172602D02*
X174647D01*
X175329Y375284*
X175557Y374972*
X175784Y374347*
Y373409*
X175557Y372784*
X175329Y372472*
X174647Y372159*
X172602*
X179193Y378722D02*
X178738Y378409D01*
X178284Y377784*
X178057Y377159*
X177829Y376222*
Y374659*
X178057Y373722*
X178284Y373097*
X178738Y372472*
X179193Y372159*
X180102*
X180557Y372472*
X181011Y373097*
X181238Y373722*
X181466Y374659*
Y376222*
X181238Y377159*
X181011Y377784*
X180557Y378409*
X180102Y378722*
X179193*
X185329D02*
X183511Y372159D01*
X185329Y378722D02*
X187147Y372159D01*
X184193Y374347D02*
X186466D01*
X189193Y378722D02*
Y372159D01*
Y378722D02*
X191238D01*
X191920Y378409*
X192147Y378097*
X192375Y377472*
Y376847*
X192147Y376222*
X191920Y375909*
X191238Y375597*
X189193*
X190784D02*
X192375Y372159D01*
X194420Y378722D02*
Y372159D01*
Y378722D02*
X196011D01*
X196693Y378409*
X197147Y377784*
X197375Y377159*
X197602Y376222*
Y374659*
X197375Y373722*
X197147Y373097*
X196693Y372472*
X196011Y372159*
X194420*
X206466Y378722D02*
Y372159D01*
X204875Y378722D02*
X208057D01*
X210102D02*
Y372159D01*
X213284Y378722D02*
Y372159D01*
X210102Y375597D02*
X213284D01*
X215329Y378722D02*
Y372159D01*
X220784Y377159D02*
X220557Y377784D01*
X220102Y378409*
X219647Y378722*
X218738*
X218284Y378409*
X217829Y377784*
X217602Y377159*
X217375Y376222*
Y374659*
X217602Y373722*
X217829Y373097*
X218284Y372472*
X218738Y372159*
X219647*
X220102Y372472*
X220557Y373097*
X220784Y373722*
X222829Y378722D02*
Y372159D01*
X226011Y378722D02*
X222829Y374347D01*
X223966Y375909D02*
X226011Y372159D01*
X228057Y378722D02*
Y372159D01*
Y378722D02*
X231238Y372159D01*
Y378722D02*
Y372159D01*
X233284Y378722D02*
Y372159D01*
Y378722D02*
X236238D01*
X233284Y375597D02*
X235102D01*
X233284Y372159D02*
X236238D01*
X241466Y377784D02*
X241011Y378409D01*
X240329Y378722*
X239420*
X238738Y378409*
X238284Y377784*
Y377159*
X238511Y376534*
X238738Y376222*
X239193Y375909*
X240557Y375284*
X241011Y374972*
X241238Y374659*
X241466Y374034*
Y373097*
X241011Y372472*
X240329Y372159*
X239420*
X238738Y372472*
X238284Y373097*
X246693Y377784D02*
X246238Y378409D01*
X245557Y378722*
X244647*
X243966Y378409*
X243511Y377784*
Y377159*
X243738Y376534*
X243966Y376222*
X244420Y375909*
X245784Y375284*
X246238Y374972*
X246466Y374659*
X246693Y374034*
Y373097*
X246238Y372472*
X245557Y372159*
X244647*
X243966Y372472*
X243511Y373097*
X253966Y377472D02*
X254420Y377784D01*
X255102Y378722*
Y372159*
X257375Y372784D02*
X257147Y372472D01*
X257375Y372159*
X257602Y372472*
X257375Y372784*
X262375Y377784D02*
X262147Y378409D01*
X261466Y378722*
X261011*
X260329Y378409*
X259875Y377472*
X259647Y375909*
Y374347*
X259875Y373097*
X260329Y372472*
X261011Y372159*
X261238*
X261920Y372472*
X262375Y373097*
X262602Y374034*
Y374347*
X262375Y375284*
X261920Y375909*
X261238Y376222*
X261011*
X260329Y375909*
X259875Y375284*
X259647Y374347*
X264647Y376534D02*
Y372159D01*
Y375284D02*
X265329Y376222D01*
X265784Y376534*
X266466*
X266920Y376222*
X267147Y375284*
Y372159*
Y375284D02*
X267829Y376222D01*
X268284Y376534*
X268966*
X269420Y376222*
X269647Y375284*
Y372159*
X271693Y376534D02*
Y372159D01*
Y375284D02*
X272375Y376222D01*
X272829Y376534*
X273511*
X273966Y376222*
X274193Y375284*
Y372159*
Y375284D02*
X274875Y376222D01*
X275329Y376534*
X276011*
X276466Y376222*
X276693Y375284*
Y372159*
X279193Y372472D02*
X278966Y372159D01*
X278738Y372472*
X278966Y372784*
X279193Y372472*
Y371847*
X278966Y371222*
X278738Y370909*
X289875Y377159D02*
X289647Y377784D01*
X289193Y378409*
X288738Y378722*
X287829*
X287375Y378409*
X286920Y377784*
X286693Y377159*
X286466Y376222*
Y374659*
X286693Y373722*
X286920Y373097*
X287375Y372472*
X287829Y372159*
X288738*
X289193Y372472*
X289647Y373097*
X289875Y373722*
X293284Y378722D02*
X292829Y378409D01*
X292375Y377784*
X292147Y377159*
X291920Y376222*
Y374659*
X292147Y373722*
X292375Y373097*
X292829Y372472*
X293284Y372159*
X294193*
X294647Y372472*
X295102Y373097*
X295329Y373722*
X295557Y374659*
Y376222*
X295329Y377159*
X295102Y377784*
X294647Y378409*
X294193Y378722*
X293284*
X297602D02*
Y372159D01*
Y378722D02*
X299647D01*
X300329Y378409*
X300557Y378097*
X300784Y377472*
Y376534*
X300557Y375909*
X300329Y375597*
X299647Y375284*
X297602*
X302829Y378722D02*
Y372159D01*
Y378722D02*
X304875D01*
X305557Y378409*
X305784Y378097*
X306011Y377472*
Y376534*
X305784Y375909*
X305557Y375597*
X304875Y375284*
X302829*
X308057Y378722D02*
Y372159D01*
Y378722D02*
X311011D01*
X308057Y375597D02*
X309875D01*
X308057Y372159D02*
X311011D01*
X313057Y378722D02*
Y372159D01*
Y378722D02*
X315102D01*
X315784Y378409*
X316011Y378097*
X316238Y377472*
Y376847*
X316011Y376222*
X315784Y375909*
X315102Y375597*
X313057*
X314647D02*
X316238Y372159D01*
X325102Y378722D02*
Y372159D01*
X323511Y378722D02*
X326693D01*
X328738D02*
Y372159D01*
X334193Y377159D02*
X333966Y377784D01*
X333511Y378409*
X333057Y378722*
X332147*
X331693Y378409*
X331238Y377784*
X331011Y377159*
X330784Y376222*
Y374659*
X331011Y373722*
X331238Y373097*
X331693Y372472*
X332147Y372159*
X333057*
X333511Y372472*
X333966Y373097*
X334193Y373722*
X336238Y378722D02*
Y372159D01*
X339420Y378722D02*
X336238Y374347D01*
X337375Y375909D02*
X339420Y372159D01*
X341466Y378722D02*
Y372159D01*
Y378722D02*
X344647Y372159D01*
Y378722D02*
Y372159D01*
X346693Y378722D02*
Y372159D01*
Y378722D02*
X349647D01*
X346693Y375597D02*
X348511D01*
X346693Y372159D02*
X349647D01*
X354875Y377784D02*
X354420Y378409D01*
X353738Y378722*
X352829*
X352147Y378409*
X351693Y377784*
Y377159*
X351920Y376534*
X352147Y376222*
X352602Y375909*
X353966Y375284*
X354420Y374972*
X354647Y374659*
X354875Y374034*
Y373097*
X354420Y372472*
X353738Y372159*
X352829*
X352147Y372472*
X351693Y373097*
X360102Y377784D02*
X359647Y378409D01*
X358966Y378722*
X358057*
X357375Y378409*
X356920Y377784*
Y377159*
X357147Y376534*
X357375Y376222*
X357829Y375909*
X359193Y375284*
X359647Y374972*
X359875Y374659*
X360102Y374034*
Y373097*
X359647Y372472*
X358966Y372159*
X358057*
X357375Y372472*
X356920Y373097*
X367829Y378722D02*
X370329D01*
X368966Y376222*
X369647*
X370102Y375909*
X370329Y375597*
X370557Y374659*
Y374034*
X370329Y373097*
X369875Y372472*
X369193Y372159*
X368511*
X367829Y372472*
X367602Y372784*
X367375Y373409*
X375557Y378722D02*
X373284D01*
X373057Y375909*
X373284Y376222*
X373966Y376534*
X374647*
X375329Y376222*
X375784Y375597*
X376011Y374659*
X375784Y374034*
X375557Y373097*
X375102Y372472*
X374420Y372159*
X373738*
X373057Y372472*
X372829Y372784*
X372602Y373409*
X378057Y376534D02*
Y373409D01*
X378284Y372472*
X378738Y372159*
X379420*
X379875Y372472*
X380557Y373409*
Y376534D02*
Y372159D01*
X382602Y376534D02*
Y372159D01*
Y375284D02*
X383284Y376222D01*
X383738Y376534*
X384420*
X384875Y376222*
X385102Y375284*
Y372159*
Y375284D02*
X385784Y376222D01*
X386238Y376534*
X386920*
X387375Y376222*
X387602Y375284*
Y372159*
X390102Y372472D02*
X389875Y372159D01*
X389647Y372472*
X389875Y372784*
X390102Y372472*
Y371847*
X389875Y371222*
X389647Y370909*
X400784Y377159D02*
X400557Y377784D01*
X400102Y378409*
X399647Y378722*
X398738*
X398284Y378409*
X397829Y377784*
X397602Y377159*
X397375Y376222*
Y374659*
X397602Y373722*
X397829Y373097*
X398284Y372472*
X398738Y372159*
X399647*
X400102Y372472*
X400557Y373097*
X400784Y373722*
X402829Y378722D02*
Y372159D01*
X406011Y378722D02*
Y372159D01*
X402829Y375597D02*
X406011D01*
X408057Y378722D02*
Y372159D01*
Y378722D02*
X411011D01*
X408057Y375597D02*
X409875D01*
X408057Y372159D02*
X411011D01*
X413057Y378722D02*
Y372159D01*
Y378722D02*
X414875Y372159D01*
X416693Y378722D02*
X414875Y372159D01*
X416693Y378722D02*
Y372159D01*
X418738Y378722D02*
Y372159D01*
X424193Y377159D02*
X423966Y377784D01*
X423511Y378409*
X423057Y378722*
X422147*
X421693Y378409*
X421238Y377784*
X421011Y377159*
X420784Y376222*
Y374659*
X421011Y373722*
X421238Y373097*
X421693Y372472*
X422147Y372159*
X423057*
X423511Y372472*
X423966Y373097*
X424193Y373722*
X428057Y378722D02*
X426238Y372159D01*
X428057Y378722D02*
X429875Y372159D01*
X426920Y374347D02*
X429193D01*
X431920Y378722D02*
Y372159D01*
X434647*
X441920Y378722D02*
Y372159D01*
Y378722D02*
X445102Y372159D01*
Y378722D02*
Y372159D01*
X447147Y378722D02*
X447375Y378409D01*
X447602Y378722*
X447375Y379034*
X447147Y378722*
X447375Y376534D02*
Y372159D01*
X449647Y374972D02*
X453738D01*
X457602Y378722D02*
X455784Y372159D01*
X457602Y378722D02*
X459420Y372159D01*
X456466Y374347D02*
X458738D01*
X461466Y376534D02*
Y373409D01*
X461693Y372472*
X462147Y372159*
X462829*
X463284Y372472*
X463966Y373409*
Y376534D02*
Y372159D01*
X471238Y378722D02*
Y372159D01*
Y378722D02*
X474193D01*
X471238Y375597D02*
X473057D01*
X476238Y378722D02*
Y372159D01*
X478284Y378722D02*
Y372159D01*
Y378722D02*
X481466Y372159D01*
Y378722D02*
Y372159D01*
X483511Y378722D02*
Y372159D01*
X488738Y377784D02*
X488284Y378409D01*
X487602Y378722*
X486693*
X486011Y378409*
X485557Y377784*
Y377159*
X485784Y376534*
X486011Y376222*
X486466Y375909*
X487829Y375284*
X488284Y374972*
X488511Y374659*
X488738Y374034*
Y373097*
X488284Y372472*
X487602Y372159*
X486693*
X486011Y372472*
X485557Y373097*
X490784Y378722D02*
Y372159D01*
X493966Y378722D02*
Y372159D01*
X490784Y375597D02*
X493966D01*
X496011Y378722D02*
Y372159D01*
X498057Y378722D02*
Y372159D01*
Y378722D02*
X501238Y372159D01*
Y378722D02*
Y372159D01*
X506693Y377159D02*
X506466Y377784D01*
X506011Y378409*
X505557Y378722*
X504647*
X504193Y378409*
X503738Y377784*
X503511Y377159*
X503284Y376222*
Y374659*
X503511Y373722*
X503738Y373097*
X504193Y372472*
X504647Y372159*
X505557*
X506011Y372472*
X506466Y373097*
X506693Y373722*
Y374659*
X505557D02*
X506693D01*
X224988Y457218D02*
X454098D01*
Y623931*
X224988*
Y457218*
X180870Y812710D02*
X160870D01*
Y792710*
X160791Y376490D02*
Y356490D01*
X180791*
X645437Y356805D02*
X665437D01*
Y376805*
X665909Y792631D02*
Y812631D01*
X645909*
X216893Y624718D02*
Y457198D01*
X176933*
Y624521*
X216696*
X454107Y617296D02*
G75*
G03X462107I4000J0D01*
G01X462141Y604588D02*
G03X454141I-4000J-0D01*
G01X217014Y618422D02*
G03X225014I4000J0D01*
G01X225027Y606151D02*
G03X217027I-4000J0D01*
G01X217014Y474524D02*
G03X225014I4000J0D01*
G01X224962Y462256D02*
G03X216962I-4000J-0D01*
G01X454022Y474721D02*
G03X462022I4000J0D01*
G01X502917Y457198D02*
X462078D01*
Y623931*
X502326*
Y456805*
X462155Y462660D02*
G03X454155I-4000J-0D01*
G54D15*
G01X449652Y468395D02*
G03X449652I-6491J0D01*
G01X428120Y470191D02*
G03X428120I-1975J0D01*
G01X444852Y543025D02*
G03X444852I-1974J0D01*
G01X440522Y546569D02*
G03X440522I-1975J0D01*
G01X441112Y551490D02*
G03X441112I-1975J0D01*
G01Y556214D02*
G03X441112I-1975J0D01*
G01Y560939D02*
G03X441112I-1975J0D01*
G01Y566057D02*
G03X441112I-1975J0D01*
G01X440719Y585742D02*
G03X440719I-1975J0D01*
G01Y590466D02*
G03X440719I-1975J0D01*
G01Y595387D02*
G03X440719I-1975J0D01*
G01X444656Y604246D02*
G03X444656I-1975J0D01*
G01X440128Y600506D02*
G03X440128I-1975J0D01*
G01X421624Y546372D02*
G03X421624I-1975J0D01*
G01Y566647D02*
G03X421624I-1975J0D01*
G01X415915Y554836D02*
G03X415915I-1974J0D01*
G01X417096Y558773D02*
G03X417096I-1974J0D01*
G01X420443Y581214D02*
G03X420443I-1975J0D01*
G01X420049Y585939D02*
G03X420049I-1975J0D01*
G01X420246Y590663D02*
G03X420246I-1975J0D01*
G01X420837Y595584D02*
G03X420837I-1975J0D01*
G01X421624Y600309D02*
G03X421624I-1975J0D01*
G01X432439Y611395D02*
G03X432439I-6491J0D01*
G01X416112Y594600D02*
G03X416112I-1975J0D01*
G01X410600Y593616D02*
G03X410600I-1974J0D01*
G01X405482Y613104D02*
G03X405482I-1975J0D01*
G01X393868Y547356D02*
G03X393868I-1975J0D01*
G01X390915Y563891D02*
G03X390915I-1974J0D01*
G01X388947Y575506D02*
G03X388947I-1975J0D01*
G01X397018Y584954D02*
G03X397018I-1975J0D01*
G01X392096Y591844D02*
G03X392096I-1974J0D01*
G01X390719Y597356D02*
G03X390719I-1975J0D01*
G01X384222Y577277D02*
G03X384222I-1974J0D01*
G01X382451Y594600D02*
G03X382451I-1975J0D01*
G01X381270Y603655D02*
G03X381270I-1975J0D01*
G01X368081Y602868D02*
G03X368081I-1975J0D01*
G01X337689Y474395D02*
G03X337689I-6028J0D01*
G01X355285Y537120D02*
G03X355285I-1974J0D01*
G01X349970Y496962D02*
G03X349970I-1974J0D01*
G01X350561Y536923D02*
G03X350561I-1975J0D01*
G01X353711Y570387D02*
G03X353711I-1975J0D01*
G01X363947Y606805D02*
G03X363947I-1975J0D01*
G01X339537Y504836D02*
G03X339537I-1974J0D01*
G01X342293Y507986D02*
G03X342293I-1974J0D01*
G01X344262Y528852D02*
G03X344262I-1975J0D01*
G01X348199Y564876D02*
G03X348199I-1975J0D01*
G01X350364Y606017D02*
G03X350364I-1975J0D01*
G01X344262Y574324D02*
G03X344262I-1975J0D01*
G01X341703Y595387D02*
G03X341703I-1975J0D01*
G01X342293Y617828D02*
G03X342293I-1974J0D01*
G01X332845Y541844D02*
G03X332845I-1975J0D01*
G01X323789Y573340D02*
G03X323789I-1974J0D01*
G01X314341Y608380D02*
G03X314341I-1975J0D01*
G01X310600Y609954D02*
G03X310600I-1974J0D01*
G01X314144Y612907D02*
G03X314144I-1975J0D01*
G01X303514Y562907D02*
G03X303514I-1975J0D01*
G01X305679Y569600D02*
G03X305679I-1975J0D01*
G01X309222Y617041D02*
G03X309222I-1974J0D01*
G01X298002Y553458D02*
G03X298002I-1975J0D01*
G01X302136Y605624D02*
G03X302136I-1975J0D01*
G01X293474Y540663D02*
G03X293474I-1974J0D01*
G01X295246Y585742D02*
G03X295246I-1975J0D01*
G01X295640Y595191D02*
G03X295640I-1975J0D01*
G01X291112Y580033D02*
G03X291112I-1975J0D01*
G01Y588104D02*
G03X291112I-1975J0D01*
G01X286585Y570978D02*
G03X286585I-1975J0D01*
G01X286388Y580427D02*
G03X286388I-1975J0D01*
G01X283435Y588498D02*
G03X283435I-1975J0D01*
G01X284813Y592631D02*
G03X284813I-1975J0D01*
G01X287766Y609167D02*
G03X287766I-1975J0D01*
G01X274774Y554639D02*
G03X274774I-1975J0D01*
G01X278120Y584364D02*
G03X278120I-2762J0D01*
G01X275758Y593025D02*
G03X275758I-1975J0D01*
G01X269852Y589876D02*
G03X269852I-1974J0D01*
G01X254695Y540269D02*
G03X254695I-1975J0D01*
G01X246230Y542631D02*
G03X246230I-1974J0D01*
G01X258423Y611395D02*
G03X258423I-6490J0D01*
G01X240522Y546372D02*
G03X240522I-1975J0D01*
G01Y551490D02*
G03X240522I-1975J0D01*
G01X240325Y556608D02*
G03X240325I-1975J0D01*
G01X240522Y561332D02*
G03X240522I-1975J0D01*
G01Y566254D02*
G03X240522I-1975J0D01*
G01X240719Y580624D02*
G03X240719I-1975J0D01*
G01Y585545D02*
G03X240719I-1975J0D01*
G01Y590860D02*
G03X240719I-1975J0D01*
G01Y595978D02*
G03X240719I-1975J0D01*
G01X241506Y601096D02*
G03X241506I-1975J0D01*
G01X234813Y524324D02*
G03X234813I-1975J0D01*
G01X235600Y543025D02*
G03X235600I-1974J0D01*
G01X233041Y604246D02*
G03X233041I-1974J0D01*
G01X249970Y468419D02*
G03X249970I-1974J0D01*
G01X244459Y463104D02*
G03X244459I-1975J0D01*
G01X241652Y468395D02*
G03X241652I-6491J0D01*
G01X261191Y556805D02*
G03X261191I-1975J0D01*
G01Y561923D02*
G03X261191I-1975J0D01*
G01Y566647D02*
G03X261191I-1975J0D01*
G01X262372Y601096D02*
G03X262372I-1975J0D01*
G01X305876Y508773D02*
G03X305876I-1975J0D01*
G01X289189Y474395D02*
G03X289189I-6028J0D01*
G01X275955Y509364D02*
G03X275955I-1975J0D01*
G01X268474Y508576D02*
G03X268474I-1974J0D01*
G01X274189Y474395D02*
G03X274189I-6028J0D01*
G01X297411Y508576D02*
G03X297411I-1974J0D01*
G01X304189Y474395D02*
G03X304189I-6028J0D01*
G01X326939Y508773D02*
G03X326939I-1975J0D01*
G01X356270Y585545D02*
G03X356270I-1975J0D01*
G01X356073Y464876D02*
G03X356073I-1975J0D01*
G01X369656Y508576D02*
G03X369656I-1975J0D01*
G01X386189Y474395D02*
G03X386189I-6028J0D01*
G01X401189D02*
G03X401189I-6028J0D01*
G01X412569Y516647D02*
G03X412569I-1975J0D01*
G01X416703Y464876D02*
G03X416703I-1975J0D01*
G01X415795Y474395D02*
G03X415795I-5634J0D01*
G01X452714Y458602D02*
Y582400D01*
X450352Y580038*
X449374Y579633D02*
G03X450352Y580038I-0J1384D01*
G01X449374Y579633D02*
X440349D01*
Y582402D02*
G03Y579633I-1408J-1385D01*
G01Y582402D02*
X448800D01*
X450548Y584150*
Y615663*
Y617649*
X447422Y620775*
X426089*
X422658D02*
G03X426089I1716J-978D01*
G01X422658D02*
X350079D01*
X346694Y618904D02*
G03X350079Y620775I1499J1287D01*
G01X343259D02*
G03X346694Y618904I1587J-1175D01*
G01X343259Y620775D02*
X335118D01*
X331345D02*
G03X335118I1887J-584D01*
G01X331345D02*
X317313D01*
X316867D02*
G03X317313I223J-1962D01*
G01X316867D02*
X313983D01*
X311142D02*
G03X313983I1421J-1372D01*
G01X311142D02*
X231640D01*
X228908Y618042*
X228908D02*
Y574945D01*
X226372Y571932D02*
G03X228907Y574945I1151J1605D01*
G01X226372Y571932D02*
Y458602D01*
X261033*
X260470Y459043D02*
G03X261033Y458602I2093J2092D01*
G01X260470Y459043D02*
X233069Y486445D01*
X232202Y488537D02*
G03X233069Y486445I2959J0D01*
G01X232202Y488537D02*
Y502014D01*
X238120D02*
G03X232202I-2959J6881D01*
G01X238120D02*
Y489763D01*
X238420Y489462*
Y498186*
X238820Y498586D02*
G03X238420Y498186I0J-400D01*
G01X238820Y498586D02*
X246633D01*
Y498973*
X247033Y499373D02*
G03X246633Y498973I0J-400D01*
G01X247033Y499373D02*
X257289D01*
X257328Y499371D02*
G03X257289Y499373I-39J-398D01*
G01X257411D02*
G03X257328Y499371I0J-1778D01*
G01X257411Y499373D02*
X257415D01*
Y502914*
X249512Y510817*
X248415Y513466D02*
G03X249512Y510817I3746J0D01*
G01X248415Y513466D02*
Y518417D01*
X248411*
X246934Y519205D02*
G03X248411Y518417I1477J990D01*
G01X246911Y519205D02*
G03X246934I0J990D01*
G01X246911D02*
X246007D01*
X245654D02*
G03X246007I176J-1967D01*
G01X245654D02*
X239411D01*
X238420Y520195D02*
G03X239411Y519205I991J0D01*
G01X238420Y520195D02*
Y528595D01*
X239218Y529567D02*
G03X238420Y528595I193J-972D01*
G01X239218Y529567D02*
Y532198D01*
X240373Y534987D02*
G03X239218Y532198I2788J-2789D01*
G01X240373Y534987D02*
X241554Y536168D01*
X243523Y537237D02*
G03X241554Y536168I819J-3857D01*
G01X246630Y537323D02*
G03X243523Y537237I-1587J1175D01*
G01X246630Y537323D02*
X268756D01*
X269373Y537940*
X274949D02*
G03X269373I-2788J-2789D01*
G01X274949D02*
X274976Y537913D01*
X276717*
X279117D02*
G03X276717I-1200J1569D01*
G01X279117D02*
X292090D01*
X294879Y536758D02*
G03X292090Y537913I-2789J-2788D01*
G01X294879Y536758D02*
X295298Y536339D01*
X300964*
X303753Y535184D02*
G03X300964Y536339I-2789J-2789D01*
G01X303753Y535184D02*
X303949Y534987D01*
X305104Y532198D02*
G03X303949Y534987I-3943J0D01*
G01X305104Y532198D02*
Y529801D01*
X306411Y530373D02*
G03X305104Y529801I0J-1778D01*
G01X306411Y530373D02*
X313911D01*
X315387Y529586D02*
G03X313911Y530373I-1476J-991D01*
G01X315387Y529586D02*
X323502D01*
X323902Y529186D02*
G03X323502Y529586I-400J-0D01*
G01X323902Y529186D02*
Y519605D01*
X323502Y519205D02*
G03X323902Y519605I-0J400D01*
G01X323502Y519205D02*
X322779D01*
X322425D02*
G03X322779I177J-1967D01*
G01X322425D02*
X315387D01*
X313911Y518417D02*
G03X315387Y519205I0J1778D01*
G01X313911Y518417D02*
X313908D01*
X313908D02*
Y515089D01*
X313908D02*
X321810Y507186D01*
X322908Y504537D02*
G03X321810Y507186I-3747J0D01*
G01X322908Y504537D02*
Y499373D01*
X322908D02*
X322911D01*
X324689Y497595D02*
G03X322911Y499373I-1778J0D01*
G01X324689Y497595D02*
Y489195D01*
X322911Y487417D02*
G03X324689Y489195I0J1778D01*
G01X322911Y487417D02*
X315411D01*
X315328Y487419D02*
G03X315411Y487417I83J1776D01*
G01X315289D02*
G03X315328Y487419I-0J400D01*
G01X315289Y487417D02*
X305033D01*
X304633Y487817D02*
G03X305033Y487417I400J0D01*
G01X304633Y487817D02*
Y488205D01*
X296820*
X296420Y488605D02*
G03X296820Y488205I400J-0D01*
G01X296420Y488605D02*
Y498186D01*
X296820Y498586D02*
G03X296420Y498186I0J-400D01*
G01X296820Y498586D02*
X304028D01*
X306110Y499373D02*
G03X304028Y498586I-1618J1133D01*
G01X306110Y499373D02*
X315289D01*
X315328Y499371D02*
G03X315289Y499373I-39J-398D01*
G01X315411D02*
G03X315328Y499371I0J-1778D01*
G01X315411Y499373D02*
X315415D01*
Y502985*
X307512Y510888*
X306415Y513537D02*
G03X307512Y510888I3746J0D01*
G01X306415Y513537D02*
Y518417D01*
X306411*
X306175Y518433D02*
G03X306411Y518417I236J1762D01*
G01X302879Y519205D02*
G03X306175Y518433I1416J-1377D01*
G01X302879Y519205D02*
X297569D01*
X293698D02*
G03X297569I1935J-392D01*
G01X293698D02*
X286387D01*
X284911Y518417D02*
G03X286387Y519205I0J1778D01*
G01X284911Y518417D02*
X284908D01*
X284908D02*
Y515298D01*
X284908D02*
X292810Y507395D01*
X293908Y504746D02*
G03X292810Y507395I-3747J-0D01*
G01X293908Y504746D02*
Y499373D01*
X293908D02*
X293911D01*
X295689Y497595D02*
G03X293911Y499373I-1778J0D01*
G01X295689Y497595D02*
Y489195D01*
X293911Y487417D02*
G03X295689Y489195I0J1778D01*
G01X293911Y487417D02*
X286411D01*
X286328Y487419D02*
G03X286411Y487417I83J1776D01*
G01X286289D02*
G03X286328Y487419I-0J400D01*
G01X286289Y487417D02*
X276033D01*
X275633Y487817D02*
G03X276033Y487417I400J0D01*
G01X275633Y487817D02*
Y488205D01*
X267820*
X267420Y488605D02*
G03X267820Y488205I400J-0D01*
G01X267420Y488605D02*
Y498186D01*
X267820Y498586D02*
G03X267420Y498186I0J-400D01*
G01X267820Y498586D02*
X273897D01*
X277257Y499373D02*
G03X273897Y498586I-1899J542D01*
G01X277257Y499373D02*
X286289D01*
X286328Y499371D02*
G03X286289Y499373I-39J-398D01*
G01X286411D02*
G03X286328Y499371I0J-1778D01*
G01X286411Y499373D02*
X286415D01*
Y503194*
X278512Y511097*
X277415Y513746D02*
G03X278512Y511097I3746J-0D01*
G01X277415Y513746D02*
Y516771D01*
X274679Y519205D02*
G03X277415Y516771I876J-1770D01*
G01X274679Y519205D02*
X268662D01*
X264731D02*
G03X268662I1965J-196D01*
G01X264731D02*
X257387D01*
X255911Y518417D02*
G03X257387Y519205I0J1778D01*
G01X255911Y518417D02*
X255908D01*
X255908D02*
Y515018D01*
X255908D02*
X263810Y507115D01*
X264908Y504466D02*
G03X263810Y507115I-3747J0D01*
G01X264908Y504466D02*
Y499373D01*
X264908D02*
X264911D01*
X266689Y497595D02*
G03X264911Y499373I-1778J0D01*
G01X266689Y497595D02*
Y489195D01*
X264911Y487417D02*
G03X266689Y489195I0J1778D01*
G01X264911Y487417D02*
X257411D01*
X257328Y487419D02*
G03X257411Y487417I83J1776D01*
G01X257289D02*
G03X257328Y487419I-0J400D01*
G01X257289Y487417D02*
X247033D01*
X246633Y487817D02*
G03X247033Y487417I400J0D01*
G01X246633Y487817D02*
Y488205D01*
X239678*
X263788Y464095*
X302481*
X306234Y464504D02*
G03X302481Y464095I-1939J372D01*
G01X306234Y464504D02*
X307124Y465393D01*
X309216Y466260D02*
G03X307124Y465393I0J-2959D01*
G01X309216Y466260D02*
X325752D01*
X327844Y465393D02*
G03X325752Y466260I-2092J-2092D01*
G01X327844Y465393D02*
X329339Y463898D01*
X342046*
X343702Y465554*
Y470070*
X349620D02*
G03X343702I-2959J4325D01*
G01X349620D02*
Y464328D01*
X348753Y462236D02*
G03X349620Y464328I-2092J2092D01*
G01X348753Y462236D02*
X345364Y458846D01*
X345087Y458602D02*
G03X345364Y458846I-1816J2337D01*
G01X345087Y458602D02*
X360926D01*
X363805D02*
G03X360926I-1439J1352D01*
G01X363805D02*
X452714D01*
X449652Y468395D02*
G03X449652I-6491J0D01*
G01X428120Y470191D02*
G03X428120I-1975J0D01*
G01X439897Y501602D02*
G03X435297Y507479I3264J7293D01*
G01X439907Y501317D02*
G03X439897Y501602I-3746J-0D01*
G01X439908Y501317D02*
Y499373D01*
X439908D02*
X439911D01*
X441689Y497595D02*
G03X439911Y499373I-1778J0D01*
G01X441689Y497595D02*
Y489195D01*
X439911Y487417D02*
G03X441689Y489195I0J1778D01*
G01X439911Y487417D02*
X432411D01*
X432328Y487419D02*
G03X432411Y487417I83J1776D01*
G01X432289D02*
G03X432328Y487419I-0J400D01*
G01X432289Y487417D02*
X422033D01*
X421633Y487817D02*
G03X422033Y487417I400J0D01*
G01X421633Y487817D02*
Y488205D01*
X413820*
X413420Y488605D02*
G03X413820Y488205I400J-0D01*
G01X413420Y488605D02*
Y498186D01*
X413820Y498586D02*
G03X413420Y498186I0J-400D01*
G01X413820Y498586D02*
X421633D01*
Y498973*
X422033Y499373D02*
G03X421633Y498973I0J-400D01*
G01X422033Y499373D02*
X432289D01*
X432328Y499371D02*
G03X432289Y499373I-39J-398D01*
G01X432411D02*
G03X432328Y499371I0J-1778D01*
G01X432411Y499373D02*
X432415D01*
Y499765*
X428614Y503565*
X427517Y506214D02*
G03X428614Y503565I3746J0D01*
G01X427517Y506214D02*
Y508282D01*
X425971Y511130D02*
G03X427517Y508282I-219J-1963D01*
G01X425971Y511130D02*
X424512Y512589D01*
X423415Y515238D02*
G03X424512Y512589I3746J-0D01*
G01X423415Y515238D02*
Y518417D01*
X423411*
X421934Y519205D02*
G03X423411Y518417I1477J990D01*
G01X421911Y519205D02*
G03X421934I0J990D01*
G01X421911D02*
X414411D01*
X413420Y520195D02*
G03X414411Y519205I991J0D01*
G01X413420Y520195D02*
Y528595D01*
X414218Y529567D02*
G03X413420Y528595I193J-972D01*
G01X414218Y529567D02*
Y530079D01*
X411901Y533189D02*
G03X414218Y530079I858J-1778D01*
G01X411901Y533189D02*
X410142Y534948D01*
X399292*
X396410Y532658D02*
G03X399292Y534948I995J1706D01*
G01X392648Y531593D02*
G03X396410Y532658I1804J802D01*
G01X392648Y531593D02*
X392604Y531549D01*
Y529801*
X393911Y530373D02*
G03X392604Y529801I0J-1778D01*
G01X393911Y530373D02*
X401411D01*
X402887Y529586D02*
G03X401411Y530373I-1476J-991D01*
G01X402887Y529586D02*
X411002D01*
X411402Y529186D02*
G03X411002Y529586I-400J-0D01*
G01X411402Y529186D02*
Y519605D01*
X411002Y519205D02*
G03X411402Y519605I-0J400D01*
G01X411002Y519205D02*
X402887D01*
X401411Y518417D02*
G03X402887Y519205I0J1778D01*
G01X401411Y518417D02*
X401408D01*
X401408D02*
Y516706D01*
X400310Y514057D02*
G03X401408Y516706I-2649J2649D01*
G01X400310Y514057D02*
X396804Y510551D01*
X398690Y507959D02*
G03X396804Y510551I-1875J617D01*
G01X400842Y506895D02*
G03X398690Y507959I-2649J-2649D01*
G01X400842Y506895D02*
X402500Y505236D01*
X402802*
X403497Y507395D02*
G03X402802Y505236I1192J-1575D01*
G01X405880Y507395D02*
G03X403497I-1191J1575D01*
G01X406223Y504578D02*
G03X405880Y507395I-1534J1242D01*
G01X406751Y504139D02*
G03X406223Y504578I-2649J-2649D01*
G01X406751Y504139D02*
X409310Y501580D01*
X410381Y499373D02*
G03X409310Y501580I-3720J-442D01*
G01X410381Y499373D02*
X410411D01*
X412189Y497595D02*
G03X410411Y499373I-1778J0D01*
G01X412189Y497595D02*
Y489195D01*
X410411Y487417D02*
G03X412189Y489195I0J1778D01*
G01X410411Y487417D02*
X402911D01*
X402828Y487419D02*
G03X402911Y487417I83J1776D01*
G01X402789D02*
G03X402828Y487419I-0J400D01*
G01X402789Y487417D02*
X392533D01*
X392133Y487817D02*
G03X392533Y487417I400J0D01*
G01X392133Y487817D02*
Y488205D01*
X384320*
X383920Y488605D02*
G03X384320Y488205I400J-0D01*
G01X383920Y488605D02*
Y498186D01*
X384320Y498586D02*
G03X383920Y498186I0J-400D01*
G01X384320Y498586D02*
X392133D01*
Y498973*
X392533Y499373D02*
G03X392133Y498973I0J-400D01*
G01X392533Y499373D02*
X397767D01*
X396641Y500499*
X394059*
X391410Y501597D02*
G03X394059Y500499I2649J2649D01*
G01X391410Y501597D02*
X388654Y504352D01*
X387556Y507002D02*
G03X388654Y504352I3747J-0D01*
G01X387556Y507002D02*
Y510348D01*
X388654Y512997D02*
G03X387556Y510348I2649J-2649D01*
G01X388654Y512997D02*
X393915Y518258D01*
Y518417*
X393911*
X392434Y519205D02*
G03X393911Y518417I1477J990D01*
G01X392411Y519205D02*
G03X392434I0J990D01*
G01X392411D02*
X384911D01*
X384753Y519217D02*
G03X384911Y519205I158J978D01*
G01X383048Y518216D02*
G03X384753Y519217I-13J1975D01*
G01X381450Y515066D02*
G03X383048Y518216I10J1975D01*
G01X381450Y515066D02*
X382928Y513588D01*
X384026Y510939D02*
G03X382928Y513588I-3747J-0D01*
G01X384026Y510939D02*
Y502474D01*
X382928Y499825D02*
G03X384026Y502474I-2649J2649D01*
G01X382928Y499825D02*
X382058Y498954D01*
X382689Y497595D02*
G03X382058Y498954I-1778J0D01*
G01X382689Y497595D02*
Y489195D01*
X380911Y487417D02*
G03X382689Y489195I0J1778D01*
G01X380911Y487417D02*
X373411D01*
X373328Y487419D02*
G03X373411Y487417I83J1776D01*
G01X373289D02*
G03X373328Y487419I-0J400D01*
G01X373289Y487417D02*
X363033D01*
X362633Y487817D02*
G03X363033Y487417I400J0D01*
G01X362633Y487817D02*
Y488205D01*
X354820*
X354420Y488605D02*
G03X354820Y488205I400J-0D01*
G01X354420Y488605D02*
Y498186D01*
X354820Y498586D02*
G03X354420Y498186I0J-400D01*
G01X354820Y498586D02*
X362633D01*
Y498973*
X363033Y499373D02*
G03X362633Y498973I0J-400D01*
G01X363033Y499373D02*
X373194D01*
X374284Y501777D02*
G03X373194Y499373I2649J-2649D01*
G01X374284Y501777D02*
X375971Y503464D01*
X374560Y507002D02*
G03X375971Y503464I1192J-1575D01*
G01X375400Y510520D02*
G03X374560Y507002I352J-1944D01*
G01X375400Y510520D02*
X374200Y511720D01*
X370917*
X368268Y512817D02*
G03X370917Y511720I2649J2649D01*
G01X368268Y512817D02*
X365512Y515573D01*
X364498Y517436D02*
G03X365512Y515573I3663J786D01*
G01X361146Y519205D02*
G03X364498Y517436I1417J-1377D01*
G01X361146Y519205D02*
X355411D01*
X354420Y520195D02*
G03X355411Y519205I991J0D01*
G01X354420Y520195D02*
Y528595D01*
X355218Y529567D02*
G03X354420Y528595I193J-972D01*
G01X355218Y529567D02*
Y532139D01*
X358931Y536075D02*
G03X355218Y532139I230J-3936D01*
G01X361381Y536929D02*
G03X358931Y536075I0J-3943D01*
G01X361381Y536929D02*
X366290D01*
X369465D02*
G03X366290I-1587J1175D01*
G01X369465D02*
X377720D01*
X379796Y536339D02*
G03X377720Y536929I-2076J-3353D01*
G01X379796Y536339D02*
X386240D01*
X391581Y541680*
X394370Y542835D02*
G03X391581Y541680I-0J-3944D01*
G01X394370Y542835D02*
X411775D01*
X414564Y541680D02*
G03X411775Y542835I-2789J-2789D01*
G01X414564Y541680D02*
X420512Y535731D01*
X421384Y534411D02*
G03X420512Y535731I-3660J-1468D01*
G01X422104Y532139D02*
G03X421384Y534411I-3943J-0D01*
G01X422104Y532139D02*
Y529801D01*
X423411Y530373D02*
G03X422104Y529801I0J-1778D01*
G01X423411Y530373D02*
X430911D01*
X432387Y529586D02*
G03X430911Y530373I-1476J-991D01*
G01X432387Y529586D02*
X440502D01*
X440902Y529186D02*
G03X440502Y529586I-400J-0D01*
G01X440902Y529186D02*
Y519605D01*
X440502Y519205D02*
G03X440902Y519605I-0J400D01*
G01X440502Y519205D02*
X432387D01*
X430911Y518417D02*
G03X432387Y519205I0J1778D01*
G01X430911Y518417D02*
X430908D01*
X430908D02*
Y516790D01*
X430908D02*
X433913Y513785D01*
X435010Y511135D02*
G03X433913Y513785I-3747J0D01*
G01X435010Y511135D02*
Y507766D01*
X435297Y507479*
X444852Y543025D02*
G03X444852I-1974J0D01*
G01X440522Y546569D02*
G03X440522I-1975J0D01*
G01X441112Y551490D02*
G03X441112I-1975J0D01*
G01Y556214D02*
G03X441112I-1975J0D01*
G01Y560939D02*
G03X441112I-1975J0D01*
G01Y566057D02*
G03X441112I-1975J0D01*
G01X440719Y585742D02*
G03X440719I-1975J0D01*
G01Y590466D02*
G03X440719I-1975J0D01*
G01Y595387D02*
G03X440719I-1975J0D01*
G01X444656Y604246D02*
G03X444656I-1975J0D01*
G01X440128Y600506D02*
G03X440128I-1975J0D01*
G01X421624Y546372D02*
G03X421624I-1975J0D01*
G01X420422Y556659D02*
G03X418089Y556950I-970J1721D01*
X420422Y556659I970J-1720*
G01X421624Y566647D02*
G03X421624I-1975J0D01*
G01X415915Y554836D02*
G03X415915I-1974J0D01*
G01X417096Y558773D02*
G03X417096I-1974J0D01*
G01X420443Y581214D02*
G03X420443I-1975J0D01*
G01X420049Y585939D02*
G03X420049I-1975J0D01*
G01X420246Y590663D02*
G03X420246I-1975J0D01*
G01X420837Y595584D02*
G03X420837I-1975J0D01*
G01X421624Y600309D02*
G03X421624I-1975J0D01*
G01X432439Y611395D02*
G03X432439I-6491J0D01*
G01X409600Y565466D02*
G03X409226I-187J2756D01*
G01X411532Y560939D02*
G03X409600Y565466I-2119J1771D01*
G01X407294Y560939D02*
G03X411532I2119J-1772D01*
G01X409226Y565466D02*
G03X407294Y560939I187J-2756D01*
G01X416112Y594600D02*
G03X416112I-1975J0D01*
G01X411049Y582100D02*
G03X407384I-1833J2067D01*
G01X411049Y577966D02*
G03Y582100I-1833J2067D01*
G01X407384Y577966D02*
G03X411049I1832J-2067D01*
G01X407384Y582100D02*
G03Y577966I1832J-2067D01*
G01X410600Y593616D02*
G03X410600I-1974J0D01*
G01X405482Y613104D02*
G03X405482I-1975J0D01*
G01X393868Y547356D02*
G03X393868I-1975J0D01*
G01X386599Y549867D02*
G03X388330Y549963I964J-1724D01*
X386599Y549867I-964J1724*
G01X390915Y563891D02*
G03X390915I-1974J0D01*
G01X388947Y575506D02*
G03X388947I-1975J0D01*
G01X391442Y579930D02*
G03X390573Y582105I1042J1678D01*
X391442Y579930I-1042J-1678*
G01X397018Y584954D02*
G03X397018I-1975J0D01*
G01X392096Y591844D02*
G03X392096I-1974J0D01*
G01X390719Y597356D02*
G03X390719I-1975J0D01*
G01X381545Y554049D02*
G03X379800I-872J1771D01*
X381545I873J-1772*
G01X384222Y577277D02*
G03X384222I-1974J0D01*
G01X389594Y611540D02*
G03X388484Y611715I-260J1958D01*
G01X386769Y609745D02*
G03X389594Y611540I1975J12D01*
G01X387569Y611345D02*
G03X386769Y609745I-1975J-13D01*
G01X388484Y611715D02*
G03X387569Y611345I260J-1958D01*
G01X382451Y594600D02*
G03X382451I-1975J0D01*
G01X381270Y603655D02*
G03X381270I-1975J0D01*
G01X371263Y602634D02*
G03X374138Y603298I1733J-947D01*
X371263Y602634I-1733J948*
G01X368081Y602868D02*
G03X368081I-1975J0D01*
G01X337689Y474395D02*
G03X337689I-6028J0D01*
G01X347700Y481346D02*
G03Y483444I1674J1049D01*
G01X344256Y481523D02*
G03X347700Y481346I1771J872D01*
G01X340811D02*
G03X344256Y481523I1673J1049D01*
G01X337563Y481204D02*
G03X340811Y481346I1574J1191D01*
G01X337563Y483587D02*
G03Y481204I-1575J-1192D01*
G01X340811Y483444D02*
G03X337563Y483587I-1674J-1049D01*
G01X344256Y483268D02*
G03X340811Y483444I-1772J-873D01*
G01X347700D02*
G03X344256Y483268I-1673J-1049D01*
G01X347700Y485480D02*
G03Y487578I1674J1049D01*
G01X344207Y485762D02*
G03X347700Y485480I1820J767D01*
G01X340811Y485677D02*
G03X344207Y485762I1673J1049D01*
G01X337563Y485534D02*
G03X340811Y485677I1574J1192D01*
G01X337563Y487918D02*
G03Y485534I-1575J-1192D01*
G01X340811Y487775D02*
G03X337563Y487918I-1674J-1049D01*
G01X344304Y487493D02*
G03X340811Y487775I-1820J-767D01*
G01X347700Y487578D02*
G03X344304Y487493I-1673J-1049D01*
G01X355285Y537120D02*
G03X355285I-1974J0D01*
G01X349970Y496962D02*
G03X349970I-1974J0D01*
G01X344850Y504744D02*
G03X344646Y505519I1768J880D01*
X344850Y504744I-1768J-880*
G01X350561Y536923D02*
G03X350561I-1975J0D01*
G01X353711Y570387D02*
G03X353711I-1975J0D01*
G01X352987Y572993D02*
G03X353634Y575065I1898J544D01*
X352987Y572993I-1898J-544*
G01X357392Y592025D02*
G03X359662Y592451I1430J-1362D01*
X357392Y592025I-1430J1362*
G01X363947Y606805D02*
G03X363947I-1975J0D01*
G01X339537Y504836D02*
G03X339537I-1974J0D01*
G01X342293Y507986D02*
G03X342293I-1974J0D01*
G01X344262Y528852D02*
G03X344262I-1975J0D01*
G01X348199Y564876D02*
G03X348199I-1975J0D01*
G01X350364Y606017D02*
G03X350364I-1975J0D01*
G01X344262Y574324D02*
G03X344262I-1975J0D01*
G01X341703Y595387D02*
G03X341703I-1975J0D01*
G01X342293Y617828D02*
G03X342293I-1974J0D01*
G01X332845Y541844D02*
G03X332845I-1975J0D01*
G01X333760Y553655D02*
G03X328766I-2497J1181D01*
G01X333760Y551293D02*
G03Y553655I-2497J1181D01*
G01X328766Y551293D02*
G03X333760I2497J-1181D01*
G01X328766Y553655D02*
G03Y551293I2497J-1181D01*
G01X327366Y564446D02*
G03X330240Y565109I1732J-948D01*
G01X327343Y564462D02*
G03X327366Y564446I1164J1595D01*
G01X324380Y564660D02*
G03X327343Y564462I1568J1200D01*
G01X323974Y565879D02*
G03X324380Y564660I-1569J-1200D01*
G01X327113Y567455D02*
G03X323974Y565879I-1165J-1595D01*
G01X330240Y565109D02*
G03X327113Y567455I-1733J948D01*
G01X323789Y573340D02*
G03X323789I-1974J0D01*
G01X325845Y577598D02*
G03X327136Y581210I1088J1648D01*
G01X323342Y580445D02*
G03X325845Y577598I835J-1790D01*
G01X327136Y581214D02*
G03X323342Y580445I-1975J0D01*
G01X327136Y581214D02*
Y581210D01*
X324312Y591133D02*
G03X324042Y592752I1636J1105D01*
G01X320901Y592927D02*
G03X324312Y591133I1504J-1280D01*
G01X323909Y592927D02*
G03X320901I-1504J1279D01*
G01X324042Y592752D02*
G03X323909Y592927I-1637J-1105D01*
G01X314341Y608380D02*
G03X314341I-1975J0D01*
G01X310600Y609954D02*
G03X310600I-1974J0D01*
G01X314144Y612907D02*
G03X314144I-1975J0D01*
G01X300977Y542016D02*
G03X301117Y542459I1940J-369D01*
G01X297782Y541430D02*
G03X300977Y542016I1395J1398D01*
G01X298012Y544423D02*
G03X297782Y541430I-1394J-1398D01*
G01X301117Y542459D02*
G03X298012Y544423I-1940J369D01*
G01X303514Y562907D02*
G03X303514I-1975J0D01*
G01X305679Y569600D02*
G03X305679I-1975J0D01*
G01X309222Y617041D02*
G03X309222I-1974J0D01*
G01X298002Y553458D02*
G03X298002I-1975J0D01*
G01X296068Y569833D02*
G03X298939Y571138I1928J-430D01*
X296068Y569833I-1928J431*
G01X302136Y605624D02*
G03X302136I-1975J0D01*
G01X293474Y540663D02*
G03X293474I-1974J0D01*
G01X291550Y562361D02*
G03X292237Y562666I1131J-1619D01*
X291550Y562361I-1131J1619*
G01X295246Y585742D02*
G03X295246I-1975J0D01*
G01X295640Y595191D02*
G03X295640I-1975J0D01*
G01X291112Y580033D02*
G03X291112I-1975J0D01*
G01Y588104D02*
G03X291112I-1975J0D01*
G01X286585Y570978D02*
G03X286585I-1975J0D01*
G01X286388Y580427D02*
G03X286388I-1975J0D01*
G01X290126Y596257D02*
G03X288739Y598061I586J1886D01*
X290126Y596257I-586J-1886*
G01X283435Y588498D02*
G03X283435I-1975J0D01*
G01X284813Y592631D02*
G03X284813I-1975J0D01*
G01X287766Y609167D02*
G03X287766I-1975J0D01*
G01X274774Y554639D02*
G03X274774I-1975J0D01*
G01X278120Y584364D02*
G03X278120I-2762J0D01*
G01X275758Y593025D02*
G03X275758I-1975J0D01*
G01X263816Y558152D02*
G03X268199Y558410I2290J-1544D01*
G01X264194Y562120D02*
G03X263816Y558152I1715J-2166D01*
G01X263697Y565939D02*
G03X264194Y562120I2212J-1654D01*
G01X267924Y566174D02*
G03X263697Y565939I-2212J1654D01*
G01X267624Y562120D02*
G03X267924Y566174I-1715J2165D01*
G01X268199Y558410D02*
G03X267624Y562120I-2290J1544D01*
G01X268537Y581738D02*
G03X265249Y583053I-856J2626D01*
X268537Y581738I857J-2626*
G01X269852Y589876D02*
G03X269852I-1974J0D01*
G01X267794Y605032D02*
G03X266780Y606215I871J1773D01*
G01X267218Y602964D02*
G03X267794Y605032I-1309J1479D01*
G01X264403Y603165D02*
G03X267218Y602964I1309J-1478D01*
G01X264203Y603449D02*
G03X264403Y603165I1706J994D01*
G01X265056Y606224D02*
G03X264203Y603449I-1706J-994D01*
G01X266780Y606215D02*
G03X265056Y606224I-871J-1772D01*
G01X254695Y540269D02*
G03X254695I-1975J0D01*
G01X246230Y542631D02*
G03X246230I-1974J0D01*
G01X258423Y611395D02*
G03X258423I-6490J0D01*
G01X240522Y546372D02*
G03X240522I-1975J0D01*
G01Y551490D02*
G03X240522I-1975J0D01*
G01X240325Y556608D02*
G03X240325I-1975J0D01*
G01X240522Y561332D02*
G03X240522I-1975J0D01*
G01Y566254D02*
G03X240522I-1975J0D01*
G01X240719Y580624D02*
G03X240719I-1975J0D01*
G01Y585545D02*
G03X240719I-1975J0D01*
G01Y590860D02*
G03X240719I-1975J0D01*
G01Y595978D02*
G03X240719I-1975J0D01*
G01X241506Y601096D02*
G03X241506I-1975J0D01*
G01X234813Y524324D02*
G03X234813I-1975J0D01*
G01X235600Y543025D02*
G03X235600I-1974J0D01*
G01X233041Y604246D02*
G03X233041I-1974J0D01*
G01X249970Y468419D02*
G03X249970I-1974J0D01*
G01X244459Y463104D02*
G03X244459I-1975J0D01*
G01X241652Y468395D02*
G03X241652I-6491J0D01*
G01X259692Y550617D02*
G03X260512Y551181I1493J-1293D01*
X259692Y550617I-1493J1293*
G01X261191Y556805D02*
G03X261191I-1975J0D01*
G01Y561923D02*
G03X261191I-1975J0D01*
G01Y566647D02*
G03X261191I-1975J0D01*
G01X260531Y590728D02*
G03X260948Y594366I-527J1903D01*
G01X259279Y590794D02*
G03X260531Y590728I528J-1903D01*
G01X258863Y594243D02*
G03X259279Y590794I1141J-1612D01*
G01X260948Y594366D02*
G03X258863Y594243I-1141J1612D01*
G01X262372Y601096D02*
G03X262372I-1975J0D01*
G01X305876Y508773D02*
G03X305876I-1975J0D01*
G01X289189Y474395D02*
G03X289189I-6028J0D01*
G01X275955Y509364D02*
G03X275955I-1975J0D01*
G01X268474Y508576D02*
G03X268474I-1974J0D01*
G01X274189Y474395D02*
G03X274189I-6028J0D01*
G01X297411Y508576D02*
G03X297411I-1974J0D01*
G01X304189Y474395D02*
G03X304189I-6028J0D01*
G01X326939Y508773D02*
G03X326939I-1975J0D01*
G01X356270Y585545D02*
G03X356270I-1975J0D01*
G01X356073Y464876D02*
G03X356073I-1975J0D01*
G01X369656Y508576D02*
G03X369656I-1975J0D01*
G01X386189Y474395D02*
G03X386189I-6028J0D01*
G01X401189D02*
G03X401189I-6028J0D01*
G01X412569Y516647D02*
G03X412569I-1975J0D01*
G01X416703Y464876D02*
G03X416703I-1975J0D01*
G01X415795Y474395D02*
G03X415795I-5634J0D01*
G01X452568Y582254D02*
X452714D01*
X451848Y581534D02*
X452714D01*
X451128Y580814D02*
X452714D01*
X450408Y580094D02*
X452714D01*
X440036Y579374D02*
X452714D01*
X411610Y578654D02*
X452714D01*
X411084Y577934D02*
X452714D01*
X411645Y577214D02*
X452714D01*
X411913Y576494D02*
X452714D01*
X411976Y575774D02*
X452714D01*
X411846Y575054D02*
X452714D01*
X411492Y574334D02*
X452714D01*
X410768Y573614D02*
X452714D01*
X356753Y572894D02*
X452714D01*
X356315Y572174D02*
X452714D01*
X353398Y571454D02*
X452714D01*
X410561Y570734D02*
X452714D01*
X411515Y570014D02*
X452714D01*
X411959Y569294D02*
X452714D01*
X420080Y568574D02*
X452714D01*
X439955Y567854D02*
X452714D01*
X440792Y567134D02*
X452714D01*
X441080Y566414D02*
X452714D01*
X441079Y565694D02*
X452714D01*
X440789Y564974D02*
X452714D01*
X439945Y564254D02*
X452714D01*
X412049Y563534D02*
X452714D01*
X439755Y562814D02*
X452714D01*
X440739Y562094D02*
X452714D01*
X441064Y561374D02*
X452714D01*
X441092Y560654D02*
X452714D01*
X440838Y559934D02*
X452714D01*
X440100Y559214D02*
X452714D01*
X421424Y558494D02*
X452714D01*
X440348Y557774D02*
X452714D01*
X440925Y557054D02*
X452714D01*
X441109Y556334D02*
X452714D01*
X441019Y555614D02*
X452714D01*
X440606Y554894D02*
X452714D01*
X420728Y554174D02*
X452714D01*
X439337Y553454D02*
X452714D01*
X440671Y552734D02*
X452714D01*
X441041Y552014D02*
X452714D01*
X441103Y551294D02*
X452714D01*
X440887Y550574D02*
X452714D01*
X440244Y549854D02*
X452714D01*
X392752Y549134D02*
X452714D01*
X439249Y548414D02*
X452714D01*
X440169Y547694D02*
X452714D01*
X440480Y546974D02*
X452714D01*
X440497Y546254D02*
X452714D01*
X440229Y545534D02*
X452714D01*
X443713Y544814D02*
X452714D01*
X444538Y544094D02*
X452714D01*
X444821Y543374D02*
X452714D01*
X444817Y542654D02*
X452714D01*
X444524Y541934D02*
X452714D01*
X443666Y541214D02*
X452714D01*
X415749Y540494D02*
X452714D01*
X416469Y539774D02*
X452714D01*
X417189Y539054D02*
X452714D01*
X417909Y538334D02*
X452714D01*
X418629Y537614D02*
X452714D01*
X419349Y536894D02*
X452714D01*
X420069Y536174D02*
X452714D01*
X420764Y535454D02*
X452714D01*
X421237Y534734D02*
X452714D01*
X421630Y534014D02*
X452714D01*
X421931Y533294D02*
X452714D01*
X422080Y532574D02*
X452714D01*
X422104Y531854D02*
X452714D01*
X422104Y531134D02*
X452714D01*
X422104Y530414D02*
X452714D01*
X432309Y529694D02*
X452714D01*
X440902Y528974D02*
X452714D01*
X440902Y528254D02*
X452714D01*
X440902Y527534D02*
X452714D01*
X440902Y526814D02*
X452714D01*
X440902Y526094D02*
X452714D01*
X440902Y525374D02*
X452714D01*
X440902Y524654D02*
X452714D01*
X440902Y523934D02*
X452714D01*
X440902Y523214D02*
X452714D01*
X440902Y522494D02*
X452714D01*
X440902Y521774D02*
X452714D01*
X440902Y521054D02*
X452714D01*
X440902Y520334D02*
X452714D01*
X440902Y519614D02*
X452714D01*
X432123Y518894D02*
X452714D01*
X430908Y518174D02*
X452714D01*
X430908Y517454D02*
X452714D01*
X444709Y516734D02*
X452714D01*
X446790Y516014D02*
X452714D01*
X447946Y515294D02*
X452714D01*
X448782Y514574D02*
X452714D01*
X449426Y513854D02*
X452714D01*
X449934Y513134D02*
X452714D01*
X450335Y512414D02*
X452714D01*
X450645Y511694D02*
X452714D01*
X450876Y510974D02*
X452714D01*
X451035Y510254D02*
X452714D01*
X451126Y509534D02*
X452714D01*
X451151Y508814D02*
X452714D01*
X451111Y508094D02*
X452714D01*
X451006Y507374D02*
X452714D01*
X450831Y506654D02*
X452714D01*
X450583Y505934D02*
X452714D01*
X450253Y505214D02*
X452714D01*
X449830Y504494D02*
X452714D01*
X449295Y503774D02*
X452714D01*
X448614Y503054D02*
X452714D01*
X447722Y502334D02*
X452714D01*
X446453Y501614D02*
X452714D01*
X439908Y500894D02*
X452714D01*
X439908Y500174D02*
X452714D01*
X439908Y499454D02*
X452714D01*
X441276Y498734D02*
X452714D01*
X441639Y498014D02*
X452714D01*
X441689Y497294D02*
X452714D01*
X441689Y496574D02*
X452714D01*
X441689Y495854D02*
X452714D01*
X441689Y495134D02*
X452714D01*
X441689Y494414D02*
X452714D01*
X441689Y493694D02*
X452714D01*
X441689Y492974D02*
X452714D01*
X441689Y492254D02*
X452714D01*
X441689Y491534D02*
X452714D01*
X441689Y490814D02*
X452714D01*
X441689Y490094D02*
X452714D01*
X441689Y489374D02*
X452714D01*
X441605Y488654D02*
X452714D01*
X441165Y487934D02*
X452714D01*
X351226Y487214D02*
X452714D01*
X351348Y486494D02*
X452714D01*
X351199Y485774D02*
X452714D01*
X350687Y485054D02*
X452714D01*
X349747Y484334D02*
X452714D01*
X350927Y483614D02*
X452714D01*
X351284Y482894D02*
X452714D01*
X351336Y482174D02*
X452714D01*
X351110Y481454D02*
X452714D01*
X350442Y480734D02*
X452714D01*
X410573Y480014D02*
X452714D01*
X412944Y479294D02*
X452714D01*
X413940Y478574D02*
X452714D01*
X414608Y477854D02*
X452714D01*
X415085Y477134D02*
X452714D01*
X415421Y476414D02*
X452714D01*
X415643Y475694D02*
X452714D01*
X415765Y474974D02*
X452714D01*
X445953Y474254D02*
X452714D01*
X447125Y473534D02*
X452714D01*
X447915Y472814D02*
X452714D01*
X448494Y472094D02*
X452714D01*
X448927Y471374D02*
X452714D01*
X449246Y470654D02*
X452714D01*
X449466Y469934D02*
X452714D01*
X449600Y469214D02*
X452714D01*
X449651Y468494D02*
X452714D01*
X449622Y467774D02*
X452714D01*
X449512Y467054D02*
X452714D01*
X449316Y466334D02*
X452714D01*
X449026Y465614D02*
X452714D01*
X448627Y464894D02*
X452714D01*
X448092Y464174D02*
X452714D01*
X447370Y463454D02*
X452714D01*
X446336Y462734D02*
X452714D01*
X444349Y462014D02*
X452714D01*
X363816Y461294D02*
X452714D01*
X364241Y460574D02*
X452714D01*
X364338Y459854D02*
X452714D01*
X364162Y459134D02*
X452714D01*
X428055Y617534D02*
X450548D01*
X429521Y616814D02*
X450548D01*
X430426Y616094D02*
X450548D01*
X431076Y615374D02*
X450548D01*
X431561Y614654D02*
X450548D01*
X431922Y613934D02*
X450548D01*
X432179Y613214D02*
X450548D01*
X432345Y612494D02*
X450548D01*
X432428Y611774D02*
X450548D01*
X432430Y611054D02*
X450548D01*
X432352Y610334D02*
X450548D01*
X432190Y609614D02*
X450548D01*
X431938Y608894D02*
X450548D01*
X431583Y608174D02*
X450548D01*
X431106Y607454D02*
X450548D01*
X430466Y606734D02*
X450548D01*
X443559Y606014D02*
X450548D01*
X444354Y605294D02*
X450548D01*
X444628Y604574D02*
X450548D01*
X444616Y603854D02*
X450548D01*
X444313Y603134D02*
X450548D01*
X443420Y602414D02*
X450548D01*
X439730Y601694D02*
X450548D01*
X440071Y600974D02*
X450548D01*
X440112Y600254D02*
X450548D01*
X439873Y599534D02*
X450548D01*
X439173Y598814D02*
X450548D01*
X390575Y598094D02*
X450548D01*
X419696Y597374D02*
X450548D01*
X440258Y596654D02*
X450548D01*
X440641Y595934D02*
X450548D01*
X440711Y595214D02*
X450548D01*
X440505Y594494D02*
X450548D01*
X439883Y593774D02*
X450548D01*
X415367Y593054D02*
X450548D01*
X439384Y592334D02*
X450548D01*
X440350Y591614D02*
X450548D01*
X440672Y590894D02*
X450548D01*
X440697Y590174D02*
X450548D01*
X440440Y589454D02*
X450548D01*
X439693Y588734D02*
X450548D01*
X291110Y588014D02*
X450548D01*
X439964Y587294D02*
X450548D01*
X440534Y586574D02*
X450548D01*
X440715Y585854D02*
X450548D01*
X440623Y585134D02*
X450548D01*
X440206Y584414D02*
X450548D01*
X411938Y583694D02*
X450093D01*
X425607Y618254D02*
X449943D01*
X439204Y582974D02*
X449373D01*
X426169Y618974D02*
X449223D01*
X426346Y619694D02*
X448503D01*
X426249Y620414D02*
X447783D01*
X415029Y541214D02*
X442089D01*
X439454Y544814D02*
X442042D01*
X348532Y462014D02*
X441973D01*
X438659Y602414D02*
X441941D01*
X429578Y606014D02*
X441802D01*
X430963Y516734D02*
X441613D01*
X414283Y541934D02*
X441231D01*
X300692Y544094D02*
X441217D01*
X381200Y603134D02*
X441048D01*
X428164Y605294D02*
X441007D01*
X412954Y542654D02*
X440938D01*
X332118Y543374D02*
X440934D01*
X381260Y603854D02*
X440745D01*
X381043Y604574D02*
X440733D01*
X415794Y474254D02*
X440369D01*
X349154Y462734D02*
X439986D01*
X431683Y516014D02*
X439532D01*
X415729Y473534D02*
X439197D01*
X416099Y463454D02*
X438952D01*
X419923Y553454D02*
X438937D01*
X419363Y582974D02*
X438677D01*
X412173Y562814D02*
X438520D01*
X415569Y472814D02*
X438407D01*
X432403Y515294D02*
X438376D01*
X411703Y564254D02*
X438330D01*
X421212Y567854D02*
X438320D01*
X416574Y464174D02*
X438230D01*
X421242Y559214D02*
X438174D01*
X419323Y592334D02*
X438104D01*
X388548Y549854D02*
X438030D01*
X421332Y557774D02*
X437927D01*
X393560Y548414D02*
X437845D01*
X419186Y579374D02*
X437845D01*
X426670Y472094D02*
X437828D01*
X418696Y588734D02*
X437794D01*
X416703Y464894D02*
X437696D01*
X421005Y554894D02*
X437668D01*
X380831Y602414D02*
X437647D01*
X420864Y544814D02*
X437640D01*
X419652Y593774D02*
X437604D01*
X389040Y552734D02*
X437604D01*
X433123Y514574D02*
X437540D01*
X412106Y562094D02*
X437536D01*
X419510Y587294D02*
X437523D01*
X420699Y564974D02*
X437486D01*
X421563Y567134D02*
X437483D01*
X420670Y559934D02*
X437437D01*
X420147Y582254D02*
X437401D01*
X427726Y471374D02*
X437395D01*
X388998Y550574D02*
X437388D01*
X420917Y557054D02*
X437350D01*
X416559Y465614D02*
X437296D01*
X419330Y584414D02*
X437281D01*
X420996Y555614D02*
X437256D01*
X389313Y552014D02*
X437234D01*
X420522Y596654D02*
X437229D01*
X411831Y561374D02*
X437211D01*
X421379Y565694D02*
X437196D01*
X421610Y566414D02*
X437195D01*
X420095Y580094D02*
X437195D01*
X415722Y560654D02*
X437183D01*
X389301Y551294D02*
X437172D01*
X420696Y556334D02*
X437166D01*
X420002Y591614D02*
X437137D01*
X420940Y598814D02*
X437133D01*
X428065Y470654D02*
X437076D01*
X419833Y589454D02*
X437048D01*
X420417Y581534D02*
X437035D01*
X416059Y466334D02*
X437006D01*
X420509Y594494D02*
X436982D01*
X420402Y580814D02*
X436976D01*
X419944Y586574D02*
X436953D01*
X421116Y547694D02*
X436924D01*
X433843Y513854D02*
X436896D01*
X419878Y585134D02*
X436865D01*
X421438Y545534D02*
X436864D01*
X428103Y469934D02*
X436856D01*
X420805Y595934D02*
X436846D01*
X420232Y590894D02*
X436816D01*
X349620Y467054D02*
X436810D01*
X420185Y590174D02*
X436791D01*
X420802Y595214D02*
X436776D01*
X420047Y585854D02*
X436772D01*
X427862Y469214D02*
X436722D01*
X349620Y467774D02*
X436700D01*
X427157Y468494D02*
X436671D01*
X421530Y546974D02*
X436614D01*
X421621Y546254D02*
X436597D01*
X421056Y601694D02*
X436576D01*
X421466Y599534D02*
X436434D01*
X434432Y513134D02*
X436388D01*
X421508Y600974D02*
X436235D01*
X421623Y600254D02*
X436194D01*
X434785Y512414D02*
X435987D01*
X434968Y511694D02*
X435677D01*
X435010Y510974D02*
X435446D01*
X435010Y510254D02*
X435287D01*
X435010Y508094D02*
X435211D01*
X435010Y509534D02*
X435196D01*
X435010Y508814D02*
X435171D01*
X410371Y499454D02*
X432415D01*
X410195Y500174D02*
X432005D01*
X409852Y500894D02*
X431285D01*
X409276Y501614D02*
X430565D01*
X408556Y502334D02*
X429845D01*
X407836Y503054D02*
X429125D01*
X407116Y503774D02*
X428420D01*
X406340Y504494D02*
X427935D01*
X406568Y505214D02*
X427653D01*
X406660Y505934D02*
X427527D01*
X427410Y508094D02*
X427517D01*
X426580Y507374D02*
X427517D01*
X406479Y506654D02*
X427517D01*
X415304Y472094D02*
X425621D01*
X397947Y511694D02*
X425406D01*
X396393Y468494D02*
X425134D01*
X397227Y510974D02*
X424956D01*
X405907Y507374D02*
X424923D01*
X398667Y512414D02*
X424686D01*
X414917Y471374D02*
X424565D01*
X412376Y469214D02*
X424429D01*
X414374Y470654D02*
X424226D01*
X413603Y469934D02*
X424187D01*
X406189Y510254D02*
X424103D01*
X406459Y508094D02*
X424093D01*
X399387Y513134D02*
X424061D01*
X342271Y617534D02*
X423842D01*
X406581Y509534D02*
X423811D01*
X406657Y508814D02*
X423808D01*
X380396Y605294D02*
X423733D01*
X400107Y513854D02*
X423679D01*
X400742Y514574D02*
X423474D01*
X411846Y518174D02*
X423415D01*
X412396Y517454D02*
X423415D01*
X412567Y516734D02*
X423415D01*
X412465Y516014D02*
X423415D01*
X412033Y515294D02*
X423415D01*
X348582Y618254D02*
X423140D01*
X349748Y618974D02*
X422578D01*
X350155Y620414D02*
X422498D01*
X350104Y619694D02*
X422401D01*
X342013Y616814D02*
X422376D01*
X373283Y606014D02*
X422319D01*
X402623Y518894D02*
X422199D01*
X411776Y498734D02*
X421633D01*
X411665Y487934D02*
X421633D01*
X341264Y616094D02*
X421471D01*
X363946Y606734D02*
X421431D01*
X389949Y615374D02*
X420821D01*
X363837Y607454D02*
X420791D01*
X404731Y614654D02*
X420335D01*
X389924Y608174D02*
X420313D01*
X405299Y613934D02*
X419975D01*
X390520Y608894D02*
X419959D01*
X405479Y613214D02*
X419718D01*
X390713Y609614D02*
X419707D01*
X405386Y612494D02*
X419552D01*
X390632Y610334D02*
X419545D01*
X404968Y611774D02*
X419469D01*
X390233Y611054D02*
X419467D01*
X412153Y568574D02*
X419218D01*
X410995Y564974D02*
X418600D01*
X297454Y544814D02*
X418435D01*
X390075Y598814D02*
X418358D01*
X379531Y601694D02*
X418242D01*
X416719Y559934D02*
X418235D01*
X415351Y553454D02*
X418194D01*
X393839Y547694D02*
X418183D01*
X412151Y567854D02*
X418086D01*
X415931Y593774D02*
X418072D01*
X390718Y597374D02*
X418028D01*
X416094Y557054D02*
X417988D01*
X410527Y565694D02*
X417919D01*
X392656Y545534D02*
X417861D01*
X359247Y588734D02*
X417846D01*
X292114Y599534D02*
X417832D01*
X374838Y600974D02*
X417790D01*
X393831Y546974D02*
X417769D01*
X411899Y579374D02*
X417750D01*
X411952Y567134D02*
X417735D01*
X411502Y566414D02*
X417688D01*
X393532Y546254D02*
X417678D01*
X374355Y600254D02*
X417675D01*
X417047Y559214D02*
X417663D01*
X411708Y582974D02*
X417573D01*
X416825Y557774D02*
X417573D01*
X417077Y558494D02*
X417481D01*
X415227Y556334D02*
X417422D01*
X415801Y554174D02*
X417390D01*
X410128Y592334D02*
X417219D01*
X416109Y594494D02*
X417215D01*
X390590Y596654D02*
X417202D01*
X415756Y555614D02*
X417122D01*
X415915Y554894D02*
X417113D01*
X416014Y595214D02*
X416922D01*
X415593Y595934D02*
X416918D01*
X411978Y580094D02*
X416841D01*
X411967Y584414D02*
X416819D01*
X411209Y582254D02*
X416789D01*
X360384Y589454D02*
X416709D01*
X355211Y587294D02*
X416639D01*
X392083Y591614D02*
X416541D01*
X411866Y580814D02*
X416534D01*
X411535Y581534D02*
X416519D01*
X391176Y590174D02*
X416358D01*
X391853Y590894D02*
X416310D01*
X411803Y585134D02*
X416271D01*
X410570Y586574D02*
X416205D01*
X411403Y585854D02*
X416101D01*
X411740Y560654D02*
X414521D01*
X413736Y529694D02*
X414218D01*
X411193Y557054D02*
X414149D01*
X411402Y519614D02*
X413609D01*
X412066Y559934D02*
X413524D01*
X411402Y528974D02*
X413496D01*
X411402Y528254D02*
X413420D01*
X411402Y527534D02*
X413420D01*
X411402Y526814D02*
X413420D01*
X411402Y526094D02*
X413420D01*
X411402Y525374D02*
X413420D01*
X411402Y524654D02*
X413420D01*
X411402Y523934D02*
X413420D01*
X411402Y523214D02*
X413420D01*
X411402Y522494D02*
X413420D01*
X411402Y521774D02*
X413420D01*
X411402Y521054D02*
X413420D01*
X411402Y520334D02*
X413420D01*
X412139Y498014D02*
X413420D01*
X412189Y497294D02*
X413420D01*
X412189Y496574D02*
X413420D01*
X412189Y495854D02*
X413420D01*
X412189Y495134D02*
X413420D01*
X412189Y494414D02*
X413420D01*
X412189Y493694D02*
X413420D01*
X412189Y492974D02*
X413420D01*
X412189Y492254D02*
X413420D01*
X412189Y491534D02*
X413420D01*
X412189Y490814D02*
X413420D01*
X412189Y490094D02*
X413420D01*
X412189Y489374D02*
X413420D01*
X412105Y488654D02*
X413420D01*
X411799Y557774D02*
X413418D01*
X355429Y466334D02*
X413397D01*
X355469Y463454D02*
X413357D01*
X412175Y559214D02*
X413197D01*
X412092Y558494D02*
X413167D01*
X410519Y593054D02*
X412908D01*
X355929Y465614D02*
X412897D01*
X355944Y464174D02*
X412882D01*
X356073Y464894D02*
X412753D01*
X390115Y595934D02*
X412682D01*
X382580Y556334D02*
X412654D01*
X388246Y553454D02*
X412530D01*
X410594Y593774D02*
X412343D01*
X409785Y595214D02*
X412261D01*
X410394Y594494D02*
X412165D01*
X382637Y555614D02*
X412126D01*
X381764Y554174D02*
X412080D01*
X382417Y554894D02*
X411967D01*
X399065Y533294D02*
X411795D01*
X402809Y529694D02*
X411783D01*
X398241Y532574D02*
X411164D01*
X399349Y534014D02*
X411075D01*
X392604Y530414D02*
X411055D01*
X396352Y531854D02*
X410835D01*
X395972Y531134D02*
X410804D01*
X399345Y534734D02*
X410355D01*
X397343Y480014D02*
X409749D01*
X401408Y518174D02*
X409342D01*
X401131Y515294D02*
X409155D01*
X401408Y517454D02*
X408792D01*
X401343Y516014D02*
X408723D01*
X401408Y516734D02*
X408621D01*
X389746Y565694D02*
X408299D01*
X353680Y570734D02*
X408265D01*
X398242Y469214D02*
X407947D01*
X396172Y586574D02*
X407862D01*
X390592Y564974D02*
X407831D01*
X387541Y573614D02*
X407664D01*
X382215Y557054D02*
X407633D01*
X382353Y595214D02*
X407466D01*
X398673Y479294D02*
X407378D01*
X384110Y577934D02*
X407349D01*
X347462Y566414D02*
X407324D01*
X353675Y570014D02*
X407311D01*
X394350Y582254D02*
X407223D01*
X392035Y592334D02*
X407123D01*
X390882Y564254D02*
X407123D01*
X294654Y560654D02*
X407086D01*
X396801Y585854D02*
X407029D01*
X380959Y557774D02*
X407027D01*
X302784Y561374D02*
X406995D01*
X388562Y574334D02*
X406940D01*
X394457Y581534D02*
X406898D01*
X330162Y567134D02*
X406874D01*
X353381Y569294D02*
X406867D01*
X382448Y594494D02*
X406857D01*
X390402Y578654D02*
X406823D01*
X387962Y577214D02*
X406787D01*
X390883Y563534D02*
X406777D01*
X294483Y559934D02*
X406760D01*
X268254Y558494D02*
X406734D01*
X391682Y593054D02*
X406732D01*
X393909Y582974D02*
X406725D01*
X389760Y562094D02*
X406720D01*
X399215Y469934D02*
X406719D01*
X329325Y567854D02*
X406675D01*
X352519Y568574D02*
X406673D01*
X390538Y593774D02*
X406657D01*
X390596Y562814D02*
X406653D01*
X293933Y559214D02*
X406651D01*
X397010Y585134D02*
X406629D01*
X388895Y575054D02*
X406586D01*
X394292Y580814D02*
X406567D01*
X391202Y579374D02*
X406534D01*
X388681Y576494D02*
X406519D01*
X396564Y583694D02*
X406495D01*
X396943Y584414D02*
X406465D01*
X388928Y575774D02*
X406457D01*
X393752Y580094D02*
X406455D01*
X399505Y478574D02*
X406382D01*
X399888Y470654D02*
X405948D01*
X400098Y477854D02*
X405714D01*
X400377Y471374D02*
X405405D01*
X400531Y477134D02*
X405237D01*
X400733Y472094D02*
X405018D01*
X400841Y476414D02*
X404901D01*
X400978Y472814D02*
X404753D01*
X401047Y475694D02*
X404679D01*
X401127Y473534D02*
X404593D01*
X401161Y474974D02*
X404557D01*
X401187Y474254D02*
X404529D01*
X400253Y507374D02*
X403470D01*
X397856Y510254D02*
X403188D01*
X398730Y508094D02*
X402919D01*
X401082Y506654D02*
X402898D01*
X398541Y509534D02*
X402796D01*
X398775Y508814D02*
X402720D01*
X401802Y505934D02*
X402717D01*
X390935Y614654D02*
X402284D01*
X390299Y611774D02*
X402047D01*
X391260Y613934D02*
X401716D01*
X391035Y612494D02*
X401629D01*
X391289Y613214D02*
X401536D01*
X382558Y499454D02*
X397685D01*
X383237Y500174D02*
X396965D01*
X396419Y532574D02*
X396570D01*
X381393Y468494D02*
X393930D01*
X355980Y586574D02*
X393914D01*
X383077Y518174D02*
X393831D01*
X354985Y583694D02*
X393522D01*
X356245Y585854D02*
X393285D01*
X332671Y542654D02*
X393191D01*
X355914Y584414D02*
X393143D01*
X383391Y517454D02*
X393111D01*
X356227Y585134D02*
X393076D01*
X382343Y480014D02*
X392979D01*
X392604Y531134D02*
X392932D01*
X384525Y518894D02*
X392699D01*
X383411Y516734D02*
X392391D01*
X383676Y500894D02*
X392384D01*
X382276Y498734D02*
X392133D01*
X382165Y487934D02*
X392133D01*
X383242Y469214D02*
X392080D01*
X332842Y541934D02*
X391862D01*
X383147Y516014D02*
X391671D01*
X383673Y479294D02*
X391649D01*
X383926Y501614D02*
X391392D01*
X240335Y545534D02*
X391130D01*
X332741Y541214D02*
X391116D01*
X384215Y469934D02*
X391107D01*
X326056Y582974D02*
X391058D01*
X389271Y549134D02*
X391035D01*
X382382Y515294D02*
X390951D01*
X384505Y478574D02*
X390817D01*
X384023Y502334D02*
X390672D01*
X390279Y582254D02*
X390618D01*
X384888Y470654D02*
X390434D01*
X332311Y540494D02*
X390396D01*
X388139Y546254D02*
X390254D01*
X381942Y514574D02*
X390231D01*
X389519Y548414D02*
X390226D01*
X385098Y477854D02*
X390224D01*
X389154Y546974D02*
X389956D01*
X384026Y503054D02*
X389952D01*
X389486Y547694D02*
X389948D01*
X385377Y471374D02*
X389945D01*
X385531Y477134D02*
X389791D01*
X382270Y593774D02*
X389705D01*
X368931Y539774D02*
X389676D01*
X385733Y472094D02*
X389589D01*
X382662Y513854D02*
X389511D01*
X385841Y476414D02*
X389481D01*
X385978Y472814D02*
X389344D01*
X386047Y475694D02*
X389275D01*
X384026Y503774D02*
X389232D01*
X386127Y473534D02*
X389195D01*
X386161Y474974D02*
X389161D01*
X386187Y474254D02*
X389135D01*
X360736Y590174D02*
X389067D01*
X369609Y539054D02*
X388956D01*
X383315Y513134D02*
X388791D01*
X326840Y582254D02*
X388783D01*
X308307Y615374D02*
X388720D01*
X383663Y578654D02*
X388660D01*
X381705Y593054D02*
X388561D01*
X384026Y504494D02*
X388519D01*
X360784Y590894D02*
X388390D01*
X387519Y611774D02*
X388370D01*
X369839Y538334D02*
X388236D01*
X359874Y592334D02*
X388209D01*
X383723Y512414D02*
X388178D01*
X360553Y591614D02*
X388160D01*
X348021Y565694D02*
X388135D01*
X330488Y562094D02*
X388121D01*
X384026Y505214D02*
X388010D01*
X327110Y581534D02*
X387896D01*
X328903Y579374D02*
X387860D01*
X383949Y511694D02*
X387807D01*
X313089Y614654D02*
X387734D01*
X384026Y505934D02*
X387711D01*
X387191Y612494D02*
X387633D01*
X384025Y510974D02*
X387609D01*
X328132Y580814D02*
X387595D01*
X328716Y580094D02*
X387584D01*
X384026Y506654D02*
X387572D01*
X363395Y608174D02*
X387563D01*
X384026Y510254D02*
X387556D01*
X384026Y509534D02*
X387556D01*
X384026Y508814D02*
X387556D01*
X384026Y508094D02*
X387556D01*
X384026Y507374D02*
X387556D01*
X369791Y537614D02*
X387516D01*
X292569Y598814D02*
X387412D01*
X313855Y613934D02*
X387408D01*
X386192Y613214D02*
X387380D01*
X381932Y595934D02*
X387373D01*
X348196Y564974D02*
X387289D01*
X330951Y562814D02*
X387285D01*
X348099Y564254D02*
X386999D01*
X347674Y563534D02*
X386998D01*
X240518Y546254D02*
X386986D01*
X314272Y608894D02*
X386967D01*
X292686Y598094D02*
X386912D01*
X341243Y596654D02*
X386898D01*
X378242Y536894D02*
X386796D01*
X386568Y609614D02*
X386774D01*
X292531Y597374D02*
X386769D01*
X334014Y549854D02*
X386577D01*
X382258Y553454D02*
X386486D01*
X356859Y573614D02*
X386403D01*
X384221Y577214D02*
X385982D01*
X240427Y546974D02*
X385971D01*
X333847Y549134D02*
X385855D01*
X381673Y550574D02*
X385734D01*
X382594Y552734D02*
X385692D01*
X332600Y547694D02*
X385639D01*
X333443Y548414D02*
X385606D01*
X382386Y551294D02*
X385430D01*
X382630Y552014D02*
X385418D01*
X356692Y574334D02*
X385382D01*
X384061Y576494D02*
X385263D01*
X356149Y575054D02*
X385049D01*
X383529Y575774D02*
X385016D01*
X314120Y613214D02*
X384996D01*
X313907Y609614D02*
X384620D01*
X314100Y612494D02*
X383997D01*
X382639Y498014D02*
X383920D01*
X382689Y497294D02*
X383920D01*
X382689Y496574D02*
X383920D01*
X382689Y495854D02*
X383920D01*
X382689Y495134D02*
X383920D01*
X382689Y494414D02*
X383920D01*
X382689Y493694D02*
X383920D01*
X382689Y492974D02*
X383920D01*
X382689Y492254D02*
X383920D01*
X382689Y491534D02*
X383920D01*
X382689Y490814D02*
X383920D01*
X382689Y490094D02*
X383920D01*
X382689Y489374D02*
X383920D01*
X382605Y488654D02*
X383920D01*
X312646Y610334D02*
X383890D01*
X313787Y611774D02*
X383669D01*
X312853Y611054D02*
X383639D01*
X353262Y575774D02*
X380966D01*
X328817Y578654D02*
X380832D01*
X351816Y576494D02*
X380435D01*
X268610Y557774D02*
X380387D01*
X328409Y577934D02*
X380385D01*
X325527Y577214D02*
X380274D01*
X333987Y550574D02*
X379673D01*
X333945Y554174D02*
X379582D01*
X360055Y593054D02*
X379247D01*
X332909Y557054D02*
X379131D01*
X333846Y553454D02*
X379087D01*
X374970Y601694D02*
X379059D01*
X341625Y595934D02*
X379020D01*
X333761Y551294D02*
X378960D01*
X349620Y468494D02*
X378930D01*
X334025Y554894D02*
X378929D01*
X333584Y556334D02*
X378766D01*
X334013Y552734D02*
X378752D01*
X333987Y552014D02*
X378716D01*
X333914Y555614D02*
X378709D01*
X360206Y593774D02*
X378682D01*
X359623Y595214D02*
X378599D01*
X360085Y594494D02*
X378504D01*
X374078Y605294D02*
X378194D01*
X333843Y480014D02*
X377979D01*
X374831Y602414D02*
X377758D01*
X374352Y604574D02*
X377547D01*
X374339Y603134D02*
X377390D01*
X374341Y603854D02*
X377330D01*
X349620Y469214D02*
X377080D01*
X348522Y479294D02*
X376649D01*
X349620Y469934D02*
X376107D01*
X349823Y478574D02*
X375817D01*
X344056Y503054D02*
X375561D01*
X350331Y470654D02*
X375434D01*
X350598Y477854D02*
X375224D01*
X318022Y510974D02*
X374945D01*
X350943Y471374D02*
X374945D01*
X322908Y502334D02*
X374841D01*
X351129Y477134D02*
X374791D01*
X368722Y510254D02*
X374710D01*
X347311Y503774D02*
X374670D01*
X351369Y472094D02*
X374589D01*
X351497Y476414D02*
X374481D01*
X351657Y472814D02*
X374344D01*
X351738Y475694D02*
X374275D01*
X317302Y511694D02*
X374225D01*
X368135Y506654D02*
X374205D01*
X351830Y473534D02*
X374195D01*
X369248Y507374D02*
X374185D01*
X351869Y474974D02*
X374161D01*
X351900Y474254D02*
X374135D01*
X322908Y501614D02*
X374131D01*
X369408Y509534D02*
X374025D01*
X348238Y504494D02*
X374011D01*
X348568Y505934D02*
X373843D01*
X369596Y508094D02*
X373836D01*
X369641Y508814D02*
X373791D01*
X348550Y505214D02*
X373788D01*
X322908Y500894D02*
X373629D01*
X322908Y500174D02*
X373335D01*
X322908Y499454D02*
X373200D01*
X267072Y600254D02*
X371636D01*
X363782Y606014D02*
X371527D01*
X368028Y602414D02*
X371160D01*
X366668Y600974D02*
X371154D01*
X367694Y601694D02*
X371021D01*
X368063Y603134D02*
X370773D01*
X363244Y605294D02*
X370732D01*
X367817Y603854D02*
X370469D01*
X367099Y604574D02*
X370458D01*
X316582Y512414D02*
X368744D01*
X315862Y513134D02*
X367950D01*
X315142Y513854D02*
X367230D01*
X348302Y506654D02*
X367227D01*
X303543Y539774D02*
X366824D01*
X326270Y510254D02*
X366640D01*
X314422Y514574D02*
X366510D01*
X353706Y539054D02*
X366147D01*
X347531Y507374D02*
X366114D01*
X355222Y537614D02*
X365964D01*
X341544Y509534D02*
X365954D01*
X354868Y538334D02*
X365916D01*
X322953Y515294D02*
X365790D01*
X342290Y508094D02*
X365766D01*
X342111Y508814D02*
X365720D01*
X267554Y600974D02*
X365544D01*
X363343Y516014D02*
X365134D01*
X349738Y604574D02*
X365112D01*
X364207Y516734D02*
X364723D01*
X267687Y601694D02*
X364517D01*
X301038Y603854D02*
X364395D01*
X267548Y602414D02*
X364184D01*
X267389Y603134D02*
X364149D01*
X348867Y498734D02*
X362633D01*
X350761Y487934D02*
X362633D01*
X324152Y516014D02*
X361782D01*
X324512Y516734D02*
X360918D01*
X347812Y461294D02*
X360915D01*
X323677Y518894D02*
X360900D01*
X355273Y536894D02*
X360859D01*
X350227Y605294D02*
X360700D01*
X324565Y517454D02*
X360623D01*
X324341Y518174D02*
X360618D01*
X345652Y459134D02*
X360569D01*
X314330Y608174D02*
X360549D01*
X347092Y460574D02*
X360491D01*
X346372Y459854D02*
X360393D01*
X350364Y606014D02*
X360162D01*
X349744Y607454D02*
X360107D01*
X350229Y606734D02*
X359998D01*
X355045Y536174D02*
X359061D01*
X291009Y588734D02*
X358397D01*
X290578Y589454D02*
X357261D01*
X327822Y591614D02*
X357092D01*
X354372Y535454D02*
X357027D01*
X327921Y592334D02*
X356922D01*
X323721Y590174D02*
X356909D01*
X327396Y590894D02*
X356861D01*
X341695Y595214D02*
X356841D01*
X327746Y593054D02*
X356408D01*
X341489Y594494D02*
X356379D01*
X340867Y593774D02*
X356257D01*
X304181Y534734D02*
X356193D01*
X304661Y534014D02*
X355692D01*
X304949Y533294D02*
X355391D01*
X305086Y532574D02*
X355242D01*
X305104Y531854D02*
X355218D01*
X305104Y531134D02*
X355218D01*
X343495Y530414D02*
X355218D01*
X344073Y529694D02*
X355218D01*
X323902Y519614D02*
X354609D01*
X344258Y528974D02*
X354496D01*
X344169Y528254D02*
X354420D01*
X343758Y527534D02*
X354420D01*
X323902Y526814D02*
X354420D01*
X323902Y526094D02*
X354420D01*
X323902Y525374D02*
X354420D01*
X323902Y524654D02*
X354420D01*
X323902Y523934D02*
X354420D01*
X323902Y523214D02*
X354420D01*
X323902Y522494D02*
X354420D01*
X323902Y521774D02*
X354420D01*
X323902Y521054D02*
X354420D01*
X323902Y520334D02*
X354420D01*
X349667Y498014D02*
X354420D01*
X349942Y497294D02*
X354420D01*
X349932Y496574D02*
X354420D01*
X349631Y495854D02*
X354420D01*
X348743Y495134D02*
X354420D01*
X324689Y494414D02*
X354420D01*
X324689Y493694D02*
X354420D01*
X324689Y492974D02*
X354420D01*
X324689Y492254D02*
X354420D01*
X324689Y491534D02*
X354420D01*
X324689Y490814D02*
X354420D01*
X324689Y490094D02*
X354420D01*
X324689Y489374D02*
X354420D01*
X342909Y488654D02*
X354420D01*
X278038Y583694D02*
X353605D01*
X352576Y572174D02*
X353456D01*
X294492Y587294D02*
X353379D01*
X352855Y572894D02*
X353018D01*
X292645Y539054D02*
X352915D01*
X349620Y466334D02*
X352767D01*
X349488Y463454D02*
X352727D01*
X294734Y584414D02*
X352676D01*
X295062Y586574D02*
X352610D01*
X295150Y585134D02*
X352363D01*
X295243Y585854D02*
X352344D01*
X349620Y465614D02*
X352267D01*
X349616Y464174D02*
X352252D01*
X349907Y535454D02*
X352249D01*
X349620Y464894D02*
X352123D01*
X349967Y538334D02*
X351754D01*
X228908Y576494D02*
X351655D01*
X350414Y536174D02*
X351577D01*
X350436Y537614D02*
X351399D01*
X350561Y536894D02*
X351349D01*
X305392Y568574D02*
X350953D01*
X323409Y572174D02*
X350895D01*
X343649Y572894D02*
X350616D01*
X343628Y575774D02*
X350210D01*
X305655Y569294D02*
X350091D01*
X322401Y571454D02*
X350074D01*
X344130Y573614D02*
X349982D01*
X344122Y575054D02*
X349834D01*
X305635Y570014D02*
X349797D01*
X305321Y570734D02*
X349792D01*
X344262Y574334D02*
X349770D01*
X346401Y484334D02*
X349000D01*
X347096Y480734D02*
X348305D01*
X347341Y485054D02*
X348060D01*
X347415Y487934D02*
X347986D01*
X347581Y483614D02*
X347820D01*
X346292Y618254D02*
X347803D01*
X303452Y535454D02*
X347266D01*
X324689Y495134D02*
X347248D01*
X279524Y538334D02*
X347205D01*
X324276Y498734D02*
X347124D01*
X301834Y604574D02*
X347041D01*
X314110Y607454D02*
X347035D01*
X302090Y536174D02*
X346759D01*
X293596Y537614D02*
X346736D01*
X294736Y536894D02*
X346612D01*
X302108Y605294D02*
X346552D01*
X313458Y606734D02*
X346549D01*
X302097Y606014D02*
X346415D01*
X324689Y495854D02*
X346361D01*
X324639Y498014D02*
X346325D01*
X324689Y496574D02*
X346059D01*
X324689Y497294D02*
X346049D01*
X344653Y503774D02*
X345925D01*
X342196Y507374D02*
X345704D01*
X342857Y484334D02*
X345654D01*
X344847Y504494D02*
X344998D01*
X330450Y566414D02*
X344986D01*
X343552Y480734D02*
X344959D01*
X341777Y506654D02*
X344933D01*
X335173Y479294D02*
X344800D01*
X331073Y563534D02*
X344774D01*
X343535Y485054D02*
X344714D01*
X344368Y505934D02*
X344668D01*
X344046Y487934D02*
X344640D01*
X344037Y483614D02*
X344474D01*
X330449Y565694D02*
X344427D01*
X330922Y564254D02*
X344349D01*
X344220Y481454D02*
X344291D01*
X330409Y564974D02*
X344252D01*
X335715Y469934D02*
X343702D01*
X334742Y469214D02*
X343702D01*
X332893Y468494D02*
X343702D01*
X260108Y467774D02*
X343702D01*
X260828Y467054D02*
X343702D01*
X305626Y466334D02*
X343702D01*
X327596Y465614D02*
X343702D01*
X336005Y478574D02*
X343499D01*
X342247Y618254D02*
X343401D01*
X335194Y620414D02*
X343047D01*
X328343Y464894D02*
X343042D01*
X336388Y470654D02*
X342991D01*
X341927Y618974D02*
X342973D01*
X340965Y619694D02*
X342873D01*
X336598Y477854D02*
X342724D01*
X336877Y471374D02*
X342379D01*
X329063Y464174D02*
X342322D01*
X337031Y477134D02*
X342193D01*
X339511Y484334D02*
X342110D01*
X339563Y488654D02*
X342058D01*
X337233Y472094D02*
X341953D01*
X337341Y476414D02*
X341825D01*
X338414Y503054D02*
X341699D01*
X337478Y472814D02*
X341665D01*
X337547Y475694D02*
X341584D01*
X337627Y473534D02*
X341492D01*
X337661Y474974D02*
X341453D01*
X340189Y485054D02*
X341432D01*
X337687Y474254D02*
X341422D01*
X340206Y480734D02*
X341415D01*
X339204Y505934D02*
X341387D01*
X339228Y503774D02*
X341102D01*
X305104Y530414D02*
X341079D01*
X339501Y505214D02*
X340988D01*
X228908Y575774D02*
X340946D01*
X340691Y483614D02*
X340930D01*
X323738Y572894D02*
X340925D01*
X340699Y487934D02*
X340922D01*
X339508Y504494D02*
X340908D01*
X323902Y527534D02*
X340816D01*
X315309Y529694D02*
X340501D01*
X322795Y575054D02*
X340452D01*
X323770Y573614D02*
X340444D01*
X323902Y528254D02*
X340405D01*
X323902Y528974D02*
X340316D01*
X323521Y574334D02*
X340312D01*
X335143Y619694D02*
X339672D01*
X308981Y616094D02*
X339373D01*
X326786Y509534D02*
X339093D01*
X338333Y506654D02*
X338860D01*
X336361Y484334D02*
X338764D01*
X336413Y488654D02*
X338712D01*
X334788Y618974D02*
X338710D01*
X309209Y616814D02*
X338624D01*
X327189Y593774D02*
X338589D01*
X326939Y508814D02*
X338526D01*
X326358Y507374D02*
X338441D01*
X333621Y618254D02*
X338390D01*
X318596Y617534D02*
X338366D01*
X326819Y508094D02*
X338347D01*
X294990Y596654D02*
X338213D01*
X337039Y485054D02*
X338086D01*
X337056Y480734D02*
X338069D01*
X324359Y594494D02*
X337967D01*
X323361Y595934D02*
X337830D01*
X324103Y595214D02*
X337761D01*
X337541Y483614D02*
X337584D01*
X337550Y487934D02*
X337575D01*
X322252Y506654D02*
X336792D01*
X322908Y503054D02*
X336711D01*
X322637Y505934D02*
X335921D01*
X322908Y503774D02*
X335898D01*
X322846Y505214D02*
X335624D01*
X322908Y504494D02*
X335618D01*
X243548Y484334D02*
X335614D01*
X324605Y488654D02*
X335562D01*
X242828Y485054D02*
X334936D01*
X247148Y480734D02*
X334919D01*
X244268Y483614D02*
X334434D01*
X324165Y487934D02*
X334426D01*
X242108Y485774D02*
X334257D01*
X246428Y481454D02*
X334251D01*
X244988Y482894D02*
X334077D01*
X240668Y487214D02*
X334074D01*
X241388Y486494D02*
X334027D01*
X245708Y482174D02*
X334025D01*
X318984Y618254D02*
X332843D01*
X319058Y618974D02*
X331676D01*
X318857Y619694D02*
X331320D01*
X318245Y620414D02*
X331270D01*
X299393Y468494D02*
X330430D01*
X262300Y547694D02*
X329927D01*
X303874Y543374D02*
X329621D01*
X268832Y557054D02*
X329617D01*
X300343Y480014D02*
X329479D01*
X304520Y540494D02*
X329428D01*
X262937Y548414D02*
X329084D01*
X304616Y542654D02*
X329069D01*
X304844Y541214D02*
X328998D01*
X273812Y556334D02*
X328943D01*
X304871Y541934D02*
X328897D01*
X261322Y551294D02*
X328766D01*
X298002Y553454D02*
X328681D01*
X263150Y549134D02*
X328680D01*
X274516Y555614D02*
X328613D01*
X297868Y554174D02*
X328582D01*
X301242Y469214D02*
X328580D01*
X262713Y550574D02*
X328540D01*
X297374Y552014D02*
X328540D01*
X297865Y552734D02*
X328513D01*
X263087Y549854D02*
X328513D01*
X297383Y554894D02*
X328502D01*
X301673Y479294D02*
X328149D01*
X303339Y562094D02*
X327708D01*
X304628Y567854D02*
X327690D01*
X302215Y469934D02*
X327607D01*
X302505Y478574D02*
X327317D01*
X327098Y564254D02*
X327274D01*
X323057Y562814D02*
X327245D01*
X324015Y563534D02*
X327124D01*
X302888Y470654D02*
X326934D01*
X303098Y477854D02*
X326724D01*
X303377Y471374D02*
X326445D01*
X303531Y477134D02*
X326291D01*
X303733Y472094D02*
X326089D01*
X303841Y476414D02*
X325981D01*
X303978Y472814D02*
X325844D01*
X304047Y475694D02*
X325775D01*
X304127Y473534D02*
X325695D01*
X304161Y474974D02*
X325661D01*
X304187Y474254D02*
X325635D01*
X324334Y564254D02*
X324798D01*
X324332Y593774D02*
X324708D01*
X324231Y590894D02*
X324501D01*
X268386Y567134D02*
X324440D01*
X277745Y582974D02*
X324266D01*
X324009Y593054D02*
X324150D01*
X323347Y566414D02*
X324053D01*
X318742Y510254D02*
X323658D01*
X321622Y507374D02*
X323570D01*
X285161Y582254D02*
X323482D01*
X290951Y580814D02*
X323227D01*
X290420Y581534D02*
X323212D01*
X319462Y509534D02*
X323142D01*
X320902Y508094D02*
X323110D01*
X320182Y508814D02*
X322990D01*
X228908Y577214D02*
X322826D01*
X291111Y580094D02*
X322825D01*
X267297Y577934D02*
X322338D01*
X290999Y579374D02*
X322338D01*
X313908Y515294D02*
X322251D01*
X290551Y578654D02*
X322202D01*
X303512Y562814D02*
X321754D01*
X315123Y518894D02*
X321527D01*
X268085Y566414D02*
X321463D01*
X295494Y595934D02*
X321449D01*
X304383Y571454D02*
X321228D01*
X282503Y590174D02*
X321090D01*
X313908Y516014D02*
X321052D01*
X313908Y518174D02*
X320863D01*
X228908Y575054D02*
X320834D01*
X284767Y593054D02*
X320801D01*
X303412Y563534D02*
X320796D01*
X292489Y565694D02*
X320712D01*
X295640Y595214D02*
X320707D01*
X313908Y516734D02*
X320692D01*
X313908Y517454D02*
X320639D01*
X283778Y590894D02*
X320579D01*
X284791Y592334D02*
X320554D01*
X295041Y593774D02*
X320478D01*
X302983Y564254D02*
X320476D01*
X292956Y564974D02*
X320453D01*
X295513Y594494D02*
X320451D01*
X284531Y591614D02*
X320431D01*
X298891Y572174D02*
X320221D01*
X229330Y574334D02*
X320108D01*
X298475Y572894D02*
X319891D01*
X229497Y573614D02*
X319859D01*
X314259Y620414D02*
X315935D01*
X313201Y617534D02*
X315585D01*
X305237Y502334D02*
X315415D01*
X306126Y501614D02*
X315415D01*
X306428Y500894D02*
X315415D01*
X306439Y500174D02*
X315415D01*
X306164Y499454D02*
X315415D01*
X293908Y503054D02*
X315345D01*
X314516Y619694D02*
X315323D01*
X314169Y618254D02*
X315196D01*
X314490Y618974D02*
X315122D01*
X293908Y503774D02*
X314625D01*
X293908Y504494D02*
X313905D01*
X293878Y505214D02*
X313185D01*
X293714Y505934D02*
X312465D01*
X310563Y610334D02*
X312086D01*
X309160Y617534D02*
X311924D01*
X295891Y506654D02*
X311745D01*
X310266Y611054D02*
X311485D01*
X301794Y606734D02*
X311273D01*
X257546Y614654D02*
X311249D01*
X305295Y507374D02*
X311025D01*
X308806Y618254D02*
X310956D01*
X231280Y620414D02*
X310866D01*
X310571Y609614D02*
X310825D01*
X307650Y618974D02*
X310635D01*
X300901Y607454D02*
X310621D01*
X230560Y619694D02*
X310609D01*
X309392Y611774D02*
X310551D01*
X257906Y613934D02*
X310482D01*
X310292Y608894D02*
X310459D01*
X309481Y608174D02*
X310402D01*
X305756Y508094D02*
X310305D01*
X258330Y612494D02*
X310238D01*
X258163Y613214D02*
X310218D01*
X305876Y508814D02*
X309585D01*
X305723Y509534D02*
X308865D01*
X305207Y510254D02*
X308145D01*
X258412Y611774D02*
X307859D01*
X287498Y608174D02*
X307770D01*
X289231Y510974D02*
X307428D01*
X306126Y465614D02*
X307371D01*
X286372Y611054D02*
X306986D01*
X287747Y608894D02*
X306959D01*
X288511Y511694D02*
X306899D01*
X229840Y618974D02*
X306846D01*
X287384Y610334D02*
X306688D01*
X287714Y609614D02*
X306680D01*
X306270Y464894D02*
X306625D01*
X287791Y512414D02*
X306587D01*
X287071Y513134D02*
X306436D01*
X306239Y518174D02*
X306415D01*
X306234Y517454D02*
X306415D01*
X305939Y516734D02*
X306415D01*
X305076Y516014D02*
X306415D01*
X284911Y515294D02*
X306415D01*
X285631Y514574D02*
X306415D01*
X286351Y513854D02*
X306415D01*
X257060Y615374D02*
X306188D01*
X229120Y618254D02*
X305690D01*
X256410Y616094D02*
X305514D01*
X254039Y617534D02*
X305335D01*
X255505Y616814D02*
X305286D01*
X295165Y487934D02*
X304633D01*
X293908Y502334D02*
X303747D01*
X295276Y498734D02*
X303618D01*
X284908Y516014D02*
X303514D01*
X298983Y571454D02*
X303025D01*
X261548Y466334D02*
X302964D01*
X293908Y501614D02*
X302858D01*
X293908Y499454D02*
X302820D01*
X299221Y567854D02*
X302781D01*
X284908Y516734D02*
X302651D01*
X297607Y518894D02*
X302633D01*
X296478Y510254D02*
X302595D01*
X293908Y500894D02*
X302556D01*
X293908Y500174D02*
X302545D01*
X297004Y507374D02*
X302507D01*
X262268Y465614D02*
X302463D01*
X263708Y464174D02*
X302449D01*
X297067Y517454D02*
X302356D01*
X297502Y518174D02*
X302351D01*
X262988Y464894D02*
X302320D01*
X293263Y539774D02*
X302290D01*
X299454Y570734D02*
X302088D01*
X297163Y509534D02*
X302079D01*
X297352Y508094D02*
X302047D01*
X299788Y568574D02*
X302017D01*
X301075Y543374D02*
X301959D01*
X297397Y508814D02*
X301927D01*
X299874Y570014D02*
X301773D01*
X299967Y569294D02*
X301753D01*
X293467Y540494D02*
X301314D01*
X301144Y542654D02*
X301218D01*
X300315Y541214D02*
X300990D01*
X300938Y541934D02*
X300963D01*
X294551Y561374D02*
X300294D01*
X293080Y564254D02*
X300095D01*
X294120Y562094D02*
X299739D01*
X292933Y563534D02*
X299666D01*
X292424Y562814D02*
X299566D01*
X286774Y607454D02*
X299421D01*
X267794Y603854D02*
X299284D01*
X270639Y606734D02*
X298528D01*
X267879Y604574D02*
X298488D01*
X270475Y606014D02*
X298225D01*
X269937Y605294D02*
X298214D01*
X297406Y541214D02*
X298039D01*
X284393Y468494D02*
X296930D01*
X268474Y567854D02*
X296770D01*
X295639Y498014D02*
X296420D01*
X295689Y497294D02*
X296420D01*
X295689Y496574D02*
X296420D01*
X295689Y495854D02*
X296420D01*
X295689Y495134D02*
X296420D01*
X295689Y494414D02*
X296420D01*
X295689Y493694D02*
X296420D01*
X295689Y492974D02*
X296420D01*
X295689Y492254D02*
X296420D01*
X295689Y491534D02*
X296420D01*
X295689Y490814D02*
X296420D01*
X295689Y490094D02*
X296420D01*
X295689Y489374D02*
X296420D01*
X295605Y488654D02*
X296420D01*
X268372Y568574D02*
X296203D01*
X285642Y569294D02*
X296024D01*
X285343Y480014D02*
X295979D01*
X293396Y541214D02*
X295830D01*
X286334Y570014D02*
X295793D01*
X239761Y544814D02*
X295782D01*
X285086Y572894D02*
X295548D01*
X286570Y570734D02*
X295221D01*
X286181Y572174D02*
X295132D01*
X286242Y469214D02*
X295080D01*
X286526Y571454D02*
X295040D01*
X293385Y506654D02*
X294983D01*
X293011Y541934D02*
X294971D01*
X245582Y544094D02*
X294957D01*
X260940Y552014D02*
X294680D01*
X246230Y542654D02*
X294678D01*
X246085Y543374D02*
X294674D01*
X274757Y554894D02*
X294672D01*
X286673Y479294D02*
X294649D01*
X289951Y510254D02*
X294395D01*
X284908Y517454D02*
X294200D01*
X273320Y552734D02*
X294190D01*
X274718Y554174D02*
X294187D01*
X287215Y469934D02*
X294107D01*
X274379Y553454D02*
X294052D01*
X292830Y507374D02*
X293870D01*
X287505Y478574D02*
X293817D01*
X284908Y518174D02*
X293765D01*
X290671Y509534D02*
X293710D01*
X286123Y518894D02*
X293660D01*
X292111Y508094D02*
X293522D01*
X291391Y508814D02*
X293476D01*
X287888Y470654D02*
X293434D01*
X288098Y477854D02*
X293224D01*
X288377Y471374D02*
X292945D01*
X288531Y477134D02*
X292791D01*
X288733Y472094D02*
X292589D01*
X288841Y476414D02*
X292481D01*
X288978Y472814D02*
X292344D01*
X292010Y596654D02*
X292339D01*
X284449Y593774D02*
X292289D01*
X289047Y475694D02*
X292275D01*
X289127Y473534D02*
X292195D01*
X289161Y474974D02*
X292161D01*
X289187Y474254D02*
X292135D01*
X290939Y587294D02*
X292051D01*
X290113Y595934D02*
X291836D01*
X289191Y594494D02*
X291817D01*
X278120Y584414D02*
X291809D01*
X289879Y595214D02*
X291690D01*
X290387Y586574D02*
X291481D01*
X268570Y559214D02*
X291429D01*
X278010Y585134D02*
X291392D01*
X277683Y585854D02*
X291300D01*
X267655Y562094D02*
X291242D01*
X268671Y559934D02*
X290878D01*
X268278Y561374D02*
X290810D01*
X268581Y560654D02*
X290708D01*
X279845Y539054D02*
X290354D01*
X253782Y541934D02*
X289989D01*
X268247Y562814D02*
X289788D01*
X279870Y539774D02*
X289736D01*
X268285Y565694D02*
X289723D01*
X278865Y541214D02*
X289603D01*
X279612Y540494D02*
X289532D01*
X261606Y599534D02*
X289311D01*
X268567Y563534D02*
X289279D01*
X268584Y564974D02*
X289255D01*
X268671Y564254D02*
X289131D01*
X228908Y598814D02*
X288855D01*
X288617Y598094D02*
X288738D01*
X281909Y586574D02*
X287888D01*
X286048Y581534D02*
X287855D01*
X285284Y578654D02*
X287723D01*
X283188Y589454D02*
X287697D01*
X228908Y598094D02*
X287690D01*
X283026Y587294D02*
X287336D01*
X286349Y580814D02*
X287324D01*
X286084Y579374D02*
X287276D01*
X283421Y588734D02*
X287266D01*
X283375Y588014D02*
X287165D01*
X286360Y580094D02*
X287164D01*
X283493Y594494D02*
X287116D01*
X261203Y597374D02*
X286584D01*
X261628Y595214D02*
X286428D01*
X264908Y503054D02*
X286415D01*
X264908Y502334D02*
X286415D01*
X276364Y501614D02*
X286415D01*
X277073Y500894D02*
X286415D01*
X277316Y500174D02*
X286415D01*
X277278Y499454D02*
X286415D01*
X261662Y596654D02*
X286237D01*
X261781Y595934D02*
X286193D01*
X264908Y503774D02*
X285834D01*
X258414Y611054D02*
X285210D01*
X264907Y504494D02*
X285114D01*
X270530Y607454D02*
X284807D01*
X264832Y505214D02*
X284394D01*
X258336Y610334D02*
X284198D01*
X229391Y572894D02*
X284133D01*
X270088Y608174D02*
X284084D01*
X258174Y609614D02*
X283867D01*
X257922Y608894D02*
X283835D01*
X264608Y505934D02*
X283674D01*
X277141Y582254D02*
X283665D01*
X268053Y569294D02*
X283578D01*
X268225Y578654D02*
X283542D01*
X228953Y572174D02*
X283039D01*
X266954Y506654D02*
X282954D01*
X267401Y570014D02*
X282886D01*
X268636Y581534D02*
X282778D01*
X268660Y579374D02*
X282742D01*
X226372Y571454D02*
X282693D01*
X226372Y570734D02*
X282650D01*
X268841Y580814D02*
X282477D01*
X268848Y580094D02*
X282466D01*
X268067Y507374D02*
X282234D01*
X275103Y594494D02*
X282183D01*
X269393Y468494D02*
X281930D01*
X269569Y590894D02*
X281899D01*
X275493Y508094D02*
X281514D01*
X275610Y593774D02*
X281228D01*
X275165Y591614D02*
X281145D01*
X277014Y586574D02*
X281012D01*
X270343Y480014D02*
X280979D01*
X275758Y593054D02*
X280909D01*
X275633Y592334D02*
X280886D01*
X275877Y508814D02*
X280794D01*
X269830Y590174D02*
X280417D01*
X271242Y469214D02*
X280080D01*
X275947Y509534D02*
X280074D01*
X260969Y587294D02*
X279894D01*
X269807Y589454D02*
X279733D01*
X271673Y479294D02*
X279649D01*
X268538Y588014D02*
X279545D01*
X269489Y588734D02*
X279500D01*
X275742Y510254D02*
X279354D01*
X272215Y469934D02*
X279107D01*
X272505Y478574D02*
X278817D01*
X275123Y510974D02*
X278634D01*
X272888Y470654D02*
X278434D01*
X273098Y477854D02*
X278224D01*
X259231Y511694D02*
X278026D01*
X273377Y471374D02*
X277945D01*
X273531Y477134D02*
X277791D01*
X258511Y512414D02*
X277659D01*
X273733Y472094D02*
X277589D01*
X273841Y476414D02*
X277481D01*
X257791Y513134D02*
X277465D01*
X277401Y516734D02*
X277415D01*
X276927Y516014D02*
X277415D01*
X255908Y515294D02*
X277415D01*
X256351Y514574D02*
X277415D01*
X257071Y513854D02*
X277415D01*
X273978Y472814D02*
X277344D01*
X274047Y475694D02*
X277275D01*
X274127Y473534D02*
X277195D01*
X274161Y474974D02*
X277161D01*
X274187Y474254D02*
X277135D01*
X254454Y541214D02*
X276969D01*
X274488Y538334D02*
X276310D01*
X254682Y540494D02*
X276221D01*
X272722Y539054D02*
X275989D01*
X254632Y539774D02*
X275964D01*
X266165Y487934D02*
X275633D01*
X264908Y501614D02*
X274352D01*
X268668Y518894D02*
X274225D01*
X255908Y516014D02*
X274183D01*
X266276Y498734D02*
X273775D01*
X268486Y518174D02*
X273724D01*
X255908Y516734D02*
X273708D01*
X269337Y586574D02*
X273702D01*
X264908Y500894D02*
X273643D01*
X267914Y517454D02*
X273580D01*
X269464Y582254D02*
X273574D01*
X264908Y499454D02*
X273437D01*
X264908Y500174D02*
X273400D01*
X270006Y585854D02*
X273032D01*
X270068Y582974D02*
X272970D01*
X259951Y510974D02*
X272837D01*
X270333Y585134D02*
X272705D01*
X270361Y583694D02*
X272678D01*
X270442Y584414D02*
X272596D01*
X268415Y508094D02*
X272467D01*
X261110Y594494D02*
X272463D01*
X268814Y591614D02*
X272401D01*
X260977Y552734D02*
X272278D01*
X267541Y510254D02*
X272217D01*
X268460Y508814D02*
X272083D01*
X268226Y509534D02*
X272012D01*
X261614Y593774D02*
X271956D01*
X261956Y592334D02*
X271933D01*
X261933Y593054D02*
X271808D01*
X268855Y556334D02*
X271786D01*
X254277Y539054D02*
X271600D01*
X260734Y553454D02*
X271219D01*
X268683Y555614D02*
X271082D01*
X267413Y554174D02*
X270880D01*
X268272Y554894D02*
X270841D01*
X253115Y538334D02*
X269834D01*
X246809Y537614D02*
X269048D01*
X266639Y498014D02*
X267420D01*
X266689Y497294D02*
X267420D01*
X266689Y496574D02*
X267420D01*
X266689Y495854D02*
X267420D01*
X266689Y495134D02*
X267420D01*
X266689Y494414D02*
X267420D01*
X266689Y493694D02*
X267420D01*
X266689Y492974D02*
X267420D01*
X266689Y492254D02*
X267420D01*
X266689Y491534D02*
X267420D01*
X266689Y490814D02*
X267420D01*
X266689Y490094D02*
X267420D01*
X266689Y489374D02*
X267420D01*
X266605Y488654D02*
X267420D01*
X257568Y608174D02*
X267242D01*
X261576Y588014D02*
X267217D01*
X261696Y591614D02*
X266941D01*
X259388Y468494D02*
X266930D01*
X257090Y607454D02*
X266800D01*
X264629Y606734D02*
X266691D01*
X261775Y588734D02*
X266266D01*
X260943Y590894D02*
X266186D01*
X264202Y506654D02*
X266046D01*
X240429Y586574D02*
X266025D01*
X247868Y480014D02*
X265979D01*
X261700Y589454D02*
X265948D01*
X261308Y590174D02*
X265925D01*
X255908Y517454D02*
X265479D01*
X260671Y510254D02*
X265458D01*
X240694Y585854D02*
X265355D01*
X258668Y469214D02*
X265080D01*
X228908Y582974D02*
X265039D01*
X240675Y585134D02*
X265028D01*
X239433Y583694D02*
X265001D01*
X263551Y507374D02*
X264933D01*
X240363Y584414D02*
X264919D01*
X228908Y577934D02*
X264915D01*
X255908Y518174D02*
X264907D01*
X260024Y554174D02*
X264799D01*
X261391Y509534D02*
X264773D01*
X257123Y518894D02*
X264725D01*
X248588Y479294D02*
X264649D01*
X262831Y508094D02*
X264584D01*
X262111Y508814D02*
X264539D01*
X232699Y603134D02*
X264369D01*
X262184Y600254D02*
X264353D01*
X261183Y562094D02*
X264163D01*
X257948Y469934D02*
X264107D01*
X239857Y582254D02*
X264035D01*
X226372Y570014D02*
X264024D01*
X238893Y578654D02*
X263987D01*
X259717Y554894D02*
X263939D01*
X261868Y602414D02*
X263876D01*
X262368Y600974D02*
X263870D01*
X249308Y478574D02*
X263817D01*
X262279Y601694D02*
X263737D01*
X260936Y557774D02*
X263602D01*
X240496Y581534D02*
X263575D01*
X260978Y562814D02*
X263571D01*
X260238Y558494D02*
X263564D01*
X240273Y579374D02*
X263552D01*
X261113Y561374D02*
X263540D01*
X260946Y565694D02*
X263533D01*
X260792Y555614D02*
X263529D01*
X257228Y470654D02*
X263434D01*
X261175Y557054D02*
X263380D01*
X226372Y569294D02*
X263371D01*
X240709Y580814D02*
X263371D01*
X240646Y580094D02*
X263364D01*
X261134Y556334D02*
X263357D01*
X261177Y566414D02*
X263339D01*
X260357Y563534D02*
X263251D01*
X226372Y559214D02*
X263248D01*
X260730Y560654D02*
X263237D01*
X260266Y564974D02*
X263234D01*
X250028Y477854D02*
X263224D01*
X226372Y564254D02*
X263147D01*
X239942Y559934D02*
X263147D01*
X259647Y568574D02*
X263053D01*
X261130Y567134D02*
X263039D01*
X260779Y567854D02*
X262950D01*
X256508Y471374D02*
X262945D01*
X250748Y477134D02*
X262791D01*
X255788Y472094D02*
X262589D01*
X251468Y476414D02*
X262481D01*
X255068Y472814D02*
X262344D01*
X252188Y475694D02*
X262275D01*
X254348Y473534D02*
X262195D01*
X252908Y474974D02*
X262161D01*
X253628Y474254D02*
X262135D01*
X256450Y606734D02*
X262071D01*
X233002Y603854D02*
X261933D01*
X255562Y606014D02*
X261538D01*
X233014Y604574D02*
X261487D01*
X254148Y605294D02*
X261376D01*
X260603Y551294D02*
X261047D01*
X226372Y459134D02*
X260379D01*
X240013Y547694D02*
X260070D01*
X226372Y459854D02*
X259659D01*
X259559Y550574D02*
X259656D01*
X226372Y548414D02*
X259432D01*
X239654Y549854D02*
X259282D01*
X226372Y549134D02*
X259219D01*
X240740Y599534D02*
X259188D01*
X240718Y590894D02*
X259064D01*
X226372Y460574D02*
X258939D01*
X241001Y602414D02*
X258927D01*
X226372Y568574D02*
X258785D01*
X239332Y554894D02*
X258715D01*
X239660Y587294D02*
X258645D01*
X241318Y600254D02*
X258611D01*
X241413Y601694D02*
X258515D01*
X240047Y594494D02*
X258503D01*
X240297Y550574D02*
X258479D01*
X241502Y600974D02*
X258426D01*
X240140Y597374D02*
X258410D01*
X228908Y593774D02*
X258393D01*
X240569Y591614D02*
X258311D01*
X240596Y590174D02*
X258305D01*
X243275Y461294D02*
X258219D01*
X238934Y558494D02*
X258194D01*
X240051Y564974D02*
X258167D01*
X226372Y563534D02*
X258075D01*
X228908Y593054D02*
X258075D01*
X240057Y592334D02*
X258051D01*
X228908Y588014D02*
X258037D01*
X226372Y554174D02*
X258015D01*
X240565Y595214D02*
X257985D01*
X240599Y596654D02*
X257951D01*
X240131Y589454D02*
X257914D01*
X228908Y588734D02*
X257838D01*
X240718Y595934D02*
X257832D01*
X240402Y560654D02*
X257703D01*
X239703Y567854D02*
X257653D01*
X240057Y555614D02*
X257640D01*
X244131Y462014D02*
X257499D01*
X239943Y557774D02*
X257496D01*
X240441Y565694D02*
X257486D01*
X239852Y562814D02*
X257454D01*
X240512Y551294D02*
X257435D01*
X238775Y502334D02*
X257415D01*
X238120Y501614D02*
X257415D01*
X238120Y500894D02*
X257415D01*
X238120Y500174D02*
X257415D01*
X238120Y499454D02*
X257415D01*
X240521Y561374D02*
X257319D01*
X238747Y553454D02*
X257305D01*
X240314Y567134D02*
X257302D01*
X240306Y556334D02*
X257298D01*
X239851Y503054D02*
X257274D01*
X240274Y557054D02*
X257257D01*
X240515Y566414D02*
X257255D01*
X240369Y562094D02*
X257249D01*
X240451Y552014D02*
X257099D01*
X240080Y552734D02*
X257062D01*
X244424Y462734D02*
X256779D01*
X240628Y503774D02*
X256554D01*
X244427Y463454D02*
X256059D01*
X241222Y504494D02*
X255834D01*
X244143Y464174D02*
X255339D01*
X241685Y505214D02*
X255114D01*
X243317Y464894D02*
X254619D01*
X242042Y505934D02*
X254394D01*
X241026Y465614D02*
X253899D01*
X242309Y506654D02*
X253674D01*
X241316Y466334D02*
X253179D01*
X242496Y507374D02*
X252954D01*
X249423Y467054D02*
X252459D01*
X247011Y538334D02*
X252325D01*
X242609Y508094D02*
X252234D01*
X249862Y467774D02*
X251739D01*
X246103Y541934D02*
X251658D01*
X242651Y508814D02*
X251514D01*
X246938Y539054D02*
X251163D01*
X249969Y468494D02*
X251019D01*
X245631Y541214D02*
X250986D01*
X246549Y539774D02*
X250808D01*
X242624Y509534D02*
X250794D01*
X226372Y540494D02*
X250758D01*
X249803Y469214D02*
X250299D01*
X242527Y510254D02*
X250074D01*
X228908Y617534D02*
X249826D01*
X232740Y605294D02*
X249717D01*
X249262Y469934D02*
X249579D01*
X242357Y510974D02*
X249363D01*
X242109Y511694D02*
X248860D01*
X241246Y470654D02*
X248859D01*
X241773Y512414D02*
X248565D01*
X241337Y513134D02*
X248429D01*
X247569Y518174D02*
X248415D01*
X247793Y517454D02*
X248415D01*
X247740Y516734D02*
X248415D01*
X247381Y516014D02*
X248415D01*
X246181Y515294D02*
X248415D01*
X240045Y514574D02*
X248415D01*
X240775Y513854D02*
X248415D01*
X228908Y616814D02*
X248361D01*
X231945Y606014D02*
X248303D01*
X240927Y471374D02*
X248139D01*
X228908Y616094D02*
X247455D01*
X240494Y472094D02*
X247419D01*
X228908Y606734D02*
X247416D01*
X246905Y518894D02*
X247199D01*
X228908Y615374D02*
X246805D01*
X228908Y607454D02*
X246775D01*
X241466Y469934D02*
X246730D01*
X239915Y472814D02*
X246699D01*
X238120Y498734D02*
X246633D01*
X239948Y487934D02*
X246633D01*
X241512Y467054D02*
X246568D01*
X228908Y614654D02*
X246320D01*
X228908Y608174D02*
X246298D01*
X241600Y469214D02*
X246188D01*
X241622Y467774D02*
X246129D01*
X241651Y468494D02*
X246022D01*
X239125Y473534D02*
X245979D01*
X228908Y613934D02*
X245959D01*
X228908Y608894D02*
X245943D01*
X228908Y613214D02*
X245702D01*
X228908Y609614D02*
X245691D01*
X228908Y612494D02*
X245536D01*
X228908Y610334D02*
X245529D01*
X239055Y515294D02*
X245479D01*
X228908Y611774D02*
X245453D01*
X228908Y611054D02*
X245451D01*
X237953Y474254D02*
X245259D01*
X226372Y518894D02*
X244755D01*
X226372Y474974D02*
X244539D01*
X237490Y516014D02*
X244280D01*
X226372Y518174D02*
X244092D01*
X226372Y516734D02*
X243921D01*
X226372Y517454D02*
X243867D01*
X226372Y475694D02*
X243819D01*
X226372Y539774D02*
X243536D01*
X226372Y537614D02*
X243277D01*
X226372Y539054D02*
X243148D01*
X226372Y476414D02*
X243099D01*
X226372Y538334D02*
X243075D01*
X235286Y544094D02*
X242929D01*
X234414Y541214D02*
X242880D01*
X226372Y536894D02*
X242555D01*
X235569Y543374D02*
X242426D01*
X235272Y541934D02*
X242408D01*
X226372Y477134D02*
X242379D01*
X235565Y542654D02*
X242281D01*
X226372Y461294D02*
X241693D01*
X226372Y477854D02*
X241659D01*
X240627Y464894D02*
X241651D01*
X226372Y536174D02*
X241560D01*
X226372Y478574D02*
X240939D01*
X226372Y535454D02*
X240840D01*
X236349Y462014D02*
X240837D01*
X240092Y464174D02*
X240824D01*
X238336Y462734D02*
X240544D01*
X239370Y463454D02*
X240540D01*
X226372Y479294D02*
X240219D01*
X226372Y534734D02*
X240141D01*
X226372Y534014D02*
X239661D01*
X226372Y480014D02*
X239499D01*
X226372Y533294D02*
X239373D01*
X226372Y532574D02*
X239236D01*
X226372Y531854D02*
X239218D01*
X226372Y531134D02*
X239218D01*
X226372Y530414D02*
X239218D01*
X226372Y529694D02*
X239218D01*
X226372Y480734D02*
X238779D01*
X226372Y519614D02*
X238609D01*
X228908Y578654D02*
X238595D01*
X226372Y528974D02*
X238496D01*
X226372Y528254D02*
X238420D01*
X226372Y527534D02*
X238420D01*
X226372Y526814D02*
X238420D01*
X233714Y526094D02*
X238420D01*
X234511Y525374D02*
X238420D01*
X234785Y524654D02*
X238420D01*
X234774Y523934D02*
X238420D01*
X234472Y523214D02*
X238420D01*
X233581Y522494D02*
X238420D01*
X226372Y521774D02*
X238420D01*
X226372Y521054D02*
X238420D01*
X226372Y520334D02*
X238420D01*
X238120Y498014D02*
X238420D01*
X238120Y497294D02*
X238420D01*
X238120Y496574D02*
X238420D01*
X238120Y495854D02*
X238420D01*
X238120Y495134D02*
X238420D01*
X238120Y494414D02*
X238420D01*
X238120Y493694D02*
X238420D01*
X238120Y492974D02*
X238420D01*
X238120Y492254D02*
X238420D01*
X238120Y491534D02*
X238420D01*
X238120Y490814D02*
X238420D01*
X238120Y490094D02*
X238420D01*
X226372Y553454D02*
X238347D01*
X228908Y599534D02*
X238322D01*
X231806Y602414D02*
X238061D01*
X226372Y481454D02*
X238059D01*
X228908Y583694D02*
X238054D01*
X228908Y587294D02*
X237828D01*
X226372Y558494D02*
X237766D01*
X228908Y600254D02*
X237745D01*
X228908Y601694D02*
X237649D01*
X228908Y582254D02*
X237630D01*
X228908Y600974D02*
X237560D01*
X228908Y594494D02*
X237440D01*
X226372Y549854D02*
X237440D01*
X228908Y592334D02*
X237430D01*
X226372Y567854D02*
X237391D01*
X226372Y554894D02*
X237368D01*
X228908Y589454D02*
X237356D01*
X228908Y597374D02*
X237347D01*
X226372Y482174D02*
X237339D01*
X234461Y544814D02*
X237332D01*
X226372Y562814D02*
X237242D01*
X228908Y579374D02*
X237214D01*
X226372Y559934D02*
X237152D01*
X228908Y584414D02*
X237124D01*
X226372Y547694D02*
X237081D01*
X228908Y586574D02*
X237058D01*
X226372Y564974D02*
X237042D01*
X226372Y552734D02*
X237014D01*
X228908Y581534D02*
X236991D01*
X228908Y595214D02*
X236922D01*
X228908Y591614D02*
X236919D01*
X228908Y590174D02*
X236892D01*
X228908Y596654D02*
X236888D01*
X228908Y580094D02*
X236841D01*
X228908Y585134D02*
X236812D01*
X226372Y550574D02*
X236797D01*
X228908Y585854D02*
X236793D01*
X226372Y567134D02*
X236779D01*
X228908Y580814D02*
X236778D01*
X228908Y595934D02*
X236769D01*
X228908Y590894D02*
X236769D01*
X226372Y545534D02*
X236758D01*
X226372Y557774D02*
X236757D01*
X226372Y562094D02*
X236725D01*
X226372Y560654D02*
X236692D01*
X226372Y546974D02*
X236666D01*
X226372Y565694D02*
X236653D01*
X226372Y555614D02*
X236643D01*
X226372Y552014D02*
X236643D01*
X226372Y482894D02*
X236619D01*
X226372Y551294D02*
X236582D01*
X226372Y566414D02*
X236579D01*
X226372Y546254D02*
X236576D01*
X226372Y561374D02*
X236572D01*
X226372Y557054D02*
X236426D01*
X226372Y556334D02*
X236394D01*
X226372Y483614D02*
X235899D01*
X226372Y484334D02*
X235179D01*
X226372Y485054D02*
X234459D01*
X226372Y462014D02*
X233973D01*
X226372Y485774D02*
X233739D01*
X226372Y486494D02*
X233020D01*
X226372Y541214D02*
X232838D01*
X226372Y516014D02*
X232832D01*
X226372Y544814D02*
X232790D01*
X226372Y487214D02*
X232514D01*
X226372Y474254D02*
X232369D01*
X226372Y487934D02*
X232264D01*
X226372Y501614D02*
X232202D01*
X226372Y500894D02*
X232202D01*
X226372Y500174D02*
X232202D01*
X226372Y499454D02*
X232202D01*
X226372Y498734D02*
X232202D01*
X226372Y498014D02*
X232202D01*
X226372Y497294D02*
X232202D01*
X226372Y496574D02*
X232202D01*
X226372Y495854D02*
X232202D01*
X226372Y495134D02*
X232202D01*
X226372Y494414D02*
X232202D01*
X226372Y493694D02*
X232202D01*
X226372Y492974D02*
X232202D01*
X226372Y492254D02*
X232202D01*
X226372Y491534D02*
X232202D01*
X226372Y490814D02*
X232202D01*
X226372Y490094D02*
X232202D01*
X226372Y489374D02*
X232202D01*
X226372Y488654D02*
X232202D01*
X226372Y522494D02*
X232096D01*
X226372Y462734D02*
X231986D01*
X226372Y541934D02*
X231979D01*
X226372Y544094D02*
X231965D01*
X226372Y526094D02*
X231962D01*
X226372Y542654D02*
X231686D01*
X226372Y543374D02*
X231682D01*
X226372Y502334D02*
X231547D01*
X226372Y515294D02*
X231268D01*
X226372Y523214D02*
X231205D01*
X226372Y473534D02*
X231197D01*
X226372Y525374D02*
X231166D01*
X226372Y463454D02*
X230952D01*
X226372Y523934D02*
X230902D01*
X226372Y524654D02*
X230891D01*
X226372Y503054D02*
X230471D01*
X226372Y472814D02*
X230407D01*
X228908Y602414D02*
X230327D01*
X226372Y514574D02*
X230277D01*
X226372Y464174D02*
X230230D01*
X228908Y606014D02*
X230188D01*
X226372Y472094D02*
X229828D01*
X226372Y464894D02*
X229696D01*
X226372Y503774D02*
X229694D01*
X226372Y513854D02*
X229547D01*
X228908Y603134D02*
X229434D01*
X226372Y471374D02*
X229395D01*
X228908Y605294D02*
X229393D01*
X226372Y465614D02*
X229296D01*
X228908Y603854D02*
X229131D01*
X228908Y604574D02*
X229119D01*
X226372Y504494D02*
X229100D01*
X226372Y470654D02*
X229076D01*
X226372Y466334D02*
X229006D01*
X226372Y513134D02*
X228985D01*
X226372Y469934D02*
X228856D01*
X226372Y467054D02*
X228810D01*
X226372Y469214D02*
X228722D01*
X226372Y467774D02*
X228700D01*
X226372Y468494D02*
X228671D01*
X226372Y505214D02*
X228637D01*
X226372Y512414D02*
X228549D01*
X226372Y505934D02*
X228280D01*
X226372Y511694D02*
X228213D01*
X226372Y506654D02*
X228013D01*
X226372Y510974D02*
X227965D01*
X226372Y507374D02*
X227826D01*
X226372Y510254D02*
X227795D01*
X226372Y508094D02*
X227713D01*
X226372Y509534D02*
X227698D01*
X226372Y508814D02*
X227671D01*
G54D28*
X261161Y493395D03*
X290161D03*
X319161D03*
X252161Y524395D03*
X243161D03*
X281161D03*
X272161D03*
X310161D03*
X301161D03*
X377161Y493395D03*
X406661D03*
X436161D03*
X368161Y524395D03*
X359161D03*
X397661D03*
X388661D03*
X427161D03*
X418161D03*
G54D29*
X346661Y474395D03*
G54D70*
G54D83*
X227523Y573537D02*
Y618616D01*
X231067Y622159*
X447996*
X451933Y618222*
Y615663*
X438941Y581017D02*
X449374D01*
X451933Y583576*
Y615663*
G54D84*
X243161Y524395D02*
Y532198D01*
X244342Y533380*
X270389*
X272161Y535151*
X273342Y533970*
X292090*
X293665Y532395*
X300964*
X301161Y532198*
Y524395*
X272161Y535151D02*
Y524395D01*
X359161D02*
Y532139D01*
X360534*
X361381Y532986*
X377720*
X378311Y532395*
X387874*
X388661Y533183*
X394370Y538891*
X411775*
X417724Y532943*
Y532576*
X418161Y532139*
X418161*
Y524395*
X388661Y533183D02*
Y524395D01*
G54D85*
X235161Y508895D02*
Y488537D01*
X262563Y461135*
X307051*
X309216Y463301*
X325752*
X328114Y460939*
X343271*
X346661Y464328*
Y474395*
X376933Y499128D02*
X377161Y498899D01*
Y493395*
X376933Y499128D02*
X380279Y502474D01*
Y510939*
X391303Y510348D02*
Y507002D01*
X394059Y504246*
X398193*
X400948Y501490*
X404102*
X406661Y498931*
Y493395*
X391303Y510348D02*
X397661Y516706D01*
Y524395*
X252161D02*
Y513466D01*
X261161Y504466*
Y493395*
X281161Y524395D02*
Y513746D01*
X290161Y504746*
Y493395*
X310161Y524395D02*
Y513537D01*
X319161Y504537*
Y493395*
X368161Y524395D02*
Y518222D01*
X370917Y515466*
X375752*
X380279Y510939*
X427161Y524395D02*
Y515238D01*
X431263Y511135*
Y506214*
X436161Y501317*
Y493395*
G54D87*
X263350Y467041D03*
X270633Y467238D03*
X292878Y464679D03*
X331657Y467238D03*
X341696Y464482D03*
X382838Y467435D03*
X402917Y464679D03*
X433035Y470584D03*
X443665Y485151D03*
X254689Y501096D03*
X284807D03*
X313744D03*
X352720Y500112D03*
X385397Y500506D03*
X412169Y501490D03*
X435594Y517041D03*
X232838Y530820D03*
X301933Y537120D03*
X346421Y530820D03*
X263350Y544009D03*
X335988Y546765D03*
X358822Y557198D03*
X360594Y543025D03*
X368862Y542435D03*
X227523Y573537D03*
X239925Y576490D03*
Y571569D03*
X272799Y561135D03*
X279098Y578261D03*
X288350Y577474D03*
X313153Y571569D03*
X365909Y563891D03*
X380870Y566057D03*
X368862Y559167D03*
X397208Y574521D03*
X389137Y558576D03*
X392287Y577277D03*
X439137Y570781D03*
Y575506D03*
X277523Y593813D03*
X270043Y594206D03*
X330082Y580820D03*
X339925Y584954D03*
X398193Y588301D03*
X398586Y593025D03*
X438941Y581017D03*
X243074Y616450D03*
X281854Y609561D03*
X312366Y604049D03*
X308626Y606214D03*
X323586Y604049D03*
X320043D03*
X316303Y604246D03*
X336775Y617828D03*
X328311Y603852D03*
X344846Y605624D03*
X361972Y603852D03*
X375752Y601096D03*
X402720Y610545D03*
X436381Y608183D03*
X431657Y603458D03*
X285988Y619600D03*
X361972Y618813D03*
G54D88*
X235161Y508895D03*
G74*
X0Y0D02*
M02*
