*
%LPD*%
%LN2FOC-SMT*%
%FSLAX24Y24*%
%MOIN*%
%SRX1Y1I0.0J0.0*%
%AD*%
%ADD11C,0.010000*%
%ADD18C,0.009130*%
%ADD81C,0.087000*%
%ADD82R,0.104360X0.096490*%
%ADD84C,0.104360*%
%ADD85R,0.026000X0.037000*%
%ADD86R,0.037000X0.026000*%
%ADD87C,0.042000*%
%ADD88C,0.139800*%
%ADD89C,0.108300*%
%ADD90R,0.023650X0.023650*%
%ADD91R,0.054000X0.062000*%
%ADD92R,0.062000X0.054000*%
%ADD93R,0.162000X0.078000*%
%ADD94R,0.034000X0.034000*%
%ADD95R,0.081920X0.127200*%
%ADD96R,0.031920X0.057120*%
%ADD97R,0.077000X0.086000*%
%ADD98R,0.033500X0.013810*%
%ADD99R,0.031530X0.049240*%
%ADD100R,0.108000X0.065000*%
%ADD101R,0.021690X0.021690*%
%ADD102R,0.050030X0.037830*%
%ADD103R,0.037830X0.050030*%
%ADD104R,0.053180X0.037430*%
%ADD105R,0.017750X0.025620*%
%ADD106R,0.120110X0.104360*%
%ADD107R,0.022870X0.043340*%
%ADD108C,0.052000*%
%ADD109R,0.064990X0.029560*%
%ADD110R,0.120110X0.084680*%
%ADD111R,0.029560X0.064990*%
%ADD112R,0.084680X0.120110*%
%ADD113C,0.022000*%
G54D11*
G1X9385Y26153D2*
G1X9785Y26150D1*
G1X9785Y25753D1*
G1X9385Y25753D1*
G1X9385Y26153D1*
G1X29307Y12727D2*
G1X29707Y12725D1*
G1X29707Y12328D1*
G1X29307Y12328D1*
G1X29307Y12727D1*
G1X7456Y12747D2*
G1X7856Y12745D1*
G1X7856Y12347D1*
G1X7456Y12347D1*
G1X7456Y12747D1*
G1X9404Y25753D2*
G1X9785Y26134D1*
G1X9531Y25753D2*
G1X9785Y26007D1*
G1X9658Y25753D2*
G1X9785Y25880D1*
G1X9385Y25862D2*
G1X9674Y26151D1*
G1X9385Y25989D2*
G1X9548Y26152D1*
G1X9385Y26116D2*
G1X9421Y26152D1*
G1X29325Y12328D2*
G1X29707Y12709D1*
G1X29452Y12328D2*
G1X29707Y12582D1*
G1X29580Y12328D2*
G1X29707Y12455D1*
G1X29307Y12437D2*
G1X29596Y12726D1*
G1X29307Y12564D2*
G1X29469Y12726D1*
G1X29307Y12691D2*
G1X29343Y12727D1*
G1X7475Y12347D2*
G1X7856Y12729D1*
G1X7602Y12347D2*
G1X7856Y12602D1*
G1X7729Y12347D2*
G1X7856Y12474D1*
G1X7456Y12456D2*
G1X7745Y12745D1*
G1X7456Y12584D2*
G1X7619Y12746D1*
G1X7456Y12711D2*
G1X7492Y12747D1*
G1X7125Y10087D2*
G1X29959Y10087D1*
G1X29959Y26622D1*
G1X7125Y26622D1*
G1X7125Y10087D1*
G1X13104Y26617D2*
G75*
G3X13105Y27417I17J400D1*
G74*
G1X14995Y27417D2*
G75*
G3X14994Y26617I-17J-400D1*
G74*
G1X22154Y26617D2*
G75*
G3X22155Y27417I17J400D1*
G74*
G1X24045Y27417D2*
G75*
G3X24044Y26617I-17J-400D1*
G74*
G1X13094Y9311D2*
G75*
G3X13095Y10087I16J388D1*
G74*
G1X14975Y10086D2*
G75*
G3X14974Y9307I-16J-390D1*
G74*
G1X22154Y9311D2*
G75*
G3X22155Y10087I16J388D1*
G74*
G1X24035Y10086D2*
G75*
G3X24034Y9307I-16J-390D1*
G74*
G1X30741Y12456D2*
G75*
G3X29965Y12457I-388J16D1*
G74*
G1X29966Y14337D2*
G75*
G3X30745Y14337I390J-16D1*
G74*
G1X7118Y29383D2*
G1X53575Y29383D1*
G1X53575Y27415D1*
G1X7118Y27415D1*
G1X7118Y29383D1*
G1X30740Y10092D2*
G1X53575Y10092D1*
G1X53575Y26627D1*
G1X30740Y26627D1*
G1X30740Y10092D1*
G1X7118Y9304D2*
G1X53575Y9304D1*
G1X53575Y7336D1*
G1X7118Y7336D1*
G1X7118Y9304D1*
G1X30741Y22346D2*
G75*
G3X29965Y22347I-388J16D1*
G74*
G1X29966Y24227D2*
G75*
G3X30745Y24227I390J-16D1*
G74*
G1X38605Y27417D2*
G75*
G3X38604Y26617I-17J-400D1*
G74*
G1X36714Y26617D2*
G75*
G3X36715Y27417I17J400D1*
G74*
G1X45764Y26617D2*
G75*
G3X45765Y27417I17J400D1*
G74*
G1X47655Y27417D2*
G75*
G3X47654Y26617I-17J-400D1*
G74*
G1X47645Y10086D2*
G75*
G3X47644Y9307I-16J-390D1*
G74*
G1X45764Y9311D2*
G75*
G3X45765Y10087I16J388D1*
G74*
G1X38585Y10086D2*
G75*
G3X38584Y9307I-16J-390D1*
G74*
G1X36704Y9311D2*
G75*
G3X36705Y10087I16J388D1*
G74*
G1X14050Y21028D2*
G54D18*
G1X16065Y21028D1*
G1X16065Y21744D1*
G1X15743Y21744D1*
G1X15743Y21740D1*
G1X15739Y21724D1*
G1X15700Y21649D1*
G1X15593Y21520D1*
G1X15459Y21417D1*
G1X15307Y21345D1*
G1X15142Y21309D1*
G1X14973Y21309D1*
G1X14809Y21345D1*
G1X14656Y21417D1*
G1X14523Y21520D1*
G1X14415Y21649D1*
G1X14376Y21724D1*
G1X14372Y21740D1*
G1X14372Y21744D1*
G1X14050Y21744D1*
G1X14050Y21028D1*
G1X14053Y21028D2*
G1X14053Y21744D1*
G1X14099Y21028D2*
G1X14099Y21744D1*
G1X14144Y21028D2*
G1X14144Y21744D1*
G1X14190Y21028D2*
G1X14190Y21744D1*
G1X14236Y21028D2*
G1X14236Y21744D1*
G1X14281Y21028D2*
G1X14281Y21744D1*
G1X14327Y21028D2*
G1X14327Y21744D1*
G1X14373Y21028D2*
G1X14373Y21739D1*
G1X14418Y21028D2*
G1X14418Y21645D1*
G1X14464Y21028D2*
G1X14464Y21590D1*
G1X14510Y21028D2*
G1X14510Y21535D1*
G1X14555Y21028D2*
G1X14555Y21495D1*
G1X14601Y21028D2*
G1X14601Y21459D1*
G1X14647Y21028D2*
G1X14647Y21424D1*
G1X14692Y21028D2*
G1X14692Y21400D1*
G1X14738Y21028D2*
G1X14738Y21378D1*
G1X14784Y21028D2*
G1X14784Y21357D1*
G1X14829Y21028D2*
G1X14829Y21341D1*
G1X14875Y21028D2*
G1X14875Y21330D1*
G1X14921Y21028D2*
G1X14921Y21320D1*
G1X14966Y21028D2*
G1X14966Y21310D1*
G1X15012Y21028D2*
G1X15012Y21309D1*
G1X15058Y21028D2*
G1X15058Y21309D1*
G1X15103Y21028D2*
G1X15103Y21309D1*
G1X15149Y21028D2*
G1X15149Y21310D1*
G1X15195Y21028D2*
G1X15195Y21320D1*
G1X15240Y21028D2*
G1X15240Y21330D1*
G1X15286Y21028D2*
G1X15286Y21341D1*
G1X15332Y21028D2*
G1X15332Y21357D1*
G1X15377Y21028D2*
G1X15377Y21378D1*
G1X15423Y21028D2*
G1X15423Y21400D1*
G1X15469Y21028D2*
G1X15469Y21424D1*
G1X15514Y21028D2*
G1X15514Y21459D1*
G1X15560Y21028D2*
G1X15560Y21495D1*
G1X15606Y21028D2*
G1X15606Y21535D1*
G1X15651Y21028D2*
G1X15651Y21590D1*
G1X15697Y21028D2*
G1X15697Y21645D1*
G1X15743Y21028D2*
G1X15743Y21739D1*
G1X15788Y21028D2*
G1X15788Y21744D1*
G1X15834Y21028D2*
G1X15834Y21744D1*
G1X15880Y21028D2*
G1X15880Y21744D1*
G1X15925Y21028D2*
G1X15925Y21744D1*
G1X15971Y21028D2*
G1X15971Y21744D1*
G1X16017Y21028D2*
G1X16017Y21744D1*
G1X16062Y21028D2*
G1X16062Y21744D1*
G1X14050Y22406D2*
G1X14372Y22406D1*
G1X14372Y22410D1*
G1X14376Y22426D1*
G1X14415Y22501D1*
G1X14523Y22630D1*
G1X14656Y22733D1*
G1X14809Y22805D1*
G1X14973Y22841D1*
G1X15142Y22841D1*
G1X15307Y22805D1*
G1X15459Y22733D1*
G1X15593Y22630D1*
G1X15700Y22501D1*
G1X15739Y22426D1*
G1X15743Y22410D1*
G1X15743Y22406D1*
G1X16065Y22406D1*
G1X16065Y23122D1*
G1X14050Y23122D1*
G1X14050Y22406D1*
G1X14053Y22406D2*
G1X14053Y23122D1*
G1X14099Y22406D2*
G1X14099Y23122D1*
G1X14144Y22406D2*
G1X14144Y23122D1*
G1X14190Y22406D2*
G1X14190Y23122D1*
G1X14236Y22406D2*
G1X14236Y23122D1*
G1X14281Y22406D2*
G1X14281Y23122D1*
G1X14327Y22406D2*
G1X14327Y23122D1*
G1X14373Y22411D2*
G1X14373Y23122D1*
G1X14418Y22505D2*
G1X14418Y23122D1*
G1X14464Y22560D2*
G1X14464Y23122D1*
G1X14510Y22614D2*
G1X14510Y23122D1*
G1X14555Y22655D2*
G1X14555Y23122D1*
G1X14601Y22691D2*
G1X14601Y23122D1*
G1X14647Y22726D2*
G1X14647Y23122D1*
G1X14692Y22750D2*
G1X14692Y23122D1*
G1X14738Y22772D2*
G1X14738Y23122D1*
G1X14784Y22793D2*
G1X14784Y23122D1*
G1X14829Y22809D2*
G1X14829Y23122D1*
G1X14875Y22819D2*
G1X14875Y23122D1*
G1X14921Y22830D2*
G1X14921Y23122D1*
G1X14966Y22840D2*
G1X14966Y23122D1*
G1X15012Y22841D2*
G1X15012Y23122D1*
G1X15058Y22841D2*
G1X15058Y23122D1*
G1X15103Y22841D2*
G1X15103Y23122D1*
G1X15149Y22840D2*
G1X15149Y23122D1*
G1X15195Y22830D2*
G1X15195Y23122D1*
G1X15240Y22819D2*
G1X15240Y23122D1*
G1X15286Y22809D2*
G1X15286Y23122D1*
G1X15332Y22793D2*
G1X15332Y23122D1*
G1X15377Y22772D2*
G1X15377Y23122D1*
G1X15423Y22750D2*
G1X15423Y23122D1*
G1X15469Y22726D2*
G1X15469Y23122D1*
G1X15514Y22691D2*
G1X15514Y23122D1*
G1X15560Y22655D2*
G1X15560Y23122D1*
G1X15606Y22614D2*
G1X15606Y23122D1*
G1X15651Y22560D2*
G1X15651Y23122D1*
G1X15697Y22505D2*
G1X15697Y23122D1*
G1X15743Y22411D2*
G1X15743Y23122D1*
G1X15788Y22406D2*
G1X15788Y23122D1*
G1X15834Y22406D2*
G1X15834Y23122D1*
G1X15880Y22406D2*
G1X15880Y23122D1*
G1X15925Y22406D2*
G1X15925Y23122D1*
G1X15971Y22406D2*
G1X15971Y23122D1*
G1X16017Y22406D2*
G1X16017Y23122D1*
G1X16062Y22406D2*
G1X16062Y23122D1*
G54D81*
G1X17792Y11804D3*
G1X19292Y11804D3*
G1X11442Y11804D3*
G1X12942Y11804D3*
G1X14442Y11804D3*
G1X22642Y11804D3*
G1X24142Y11804D3*
G1X25642Y11804D3*
G54D82*
G1X16790Y21799D3*
G1X19310Y21799D3*
G54D84*
G1X8142Y11204D3*
G1X28942Y11204D3*
G1X8142Y25504D3*
G1X28942Y25504D3*
G54D85*
G1X10294Y23236D3*
G1X9979Y23236D3*
G1X9904Y14654D3*
G1X9424Y14654D3*
G1X12876Y14673D3*
G1X12396Y14673D3*
G1X16774Y15087D3*
G1X16294Y15087D3*
G1X10290Y15402D3*
G1X10770Y15402D3*
G1X13263Y15815D3*
G1X13743Y15815D3*
G1X15389Y15874D3*
G1X15869Y15874D3*
G1X15389Y15421D3*
G1X15869Y15421D3*
G1X9904Y15106D3*
G1X9424Y15106D3*
G1X12876Y15146D3*
G1X12396Y15146D3*
G1X16774Y14634D3*
G1X16294Y14634D3*
G1X10290Y15854D3*
G1X10770Y15854D3*
G1X13263Y15362D3*
G1X13743Y15362D3*
G1X21932Y14732D3*
G1X21452Y14732D3*
G1X24727Y14831D3*
G1X24247Y14831D3*
G1X27365Y14693D3*
G1X26885Y14693D3*
G1X20526Y15638D3*
G1X21006Y15638D3*
G1X23085Y15776D3*
G1X23565Y15776D3*
G1X25881Y15717D3*
G1X26361Y15717D3*
G1X20526Y15126D3*
G1X21006Y15126D3*
G1X21932Y15480D3*
G1X21452Y15480D3*
G1X24727Y15461D3*
G1X24247Y15461D3*
G1X23085Y15264D3*
G1X23565Y15264D3*
G1X27365Y15166D3*
G1X26885Y15166D3*
G1X25881Y15205D3*
G1X26361Y15205D3*
G1X24432Y23984D3*
G1X23952Y23984D3*
G1X15258Y23866D3*
G1X14778Y23866D3*
G54D86*
G1X7617Y17055D3*
G1X7617Y17370D3*
G1X9329Y19500D3*
G1X9329Y19020D3*
G1X27755Y19618D3*
G1X27755Y19138D3*
G1X10609Y26150D3*
G1X10609Y25835D3*
G54D87*
G1X9585Y25953D3*
G1X29507Y12528D3*
G1X7656Y12547D3*
G54D88*
G1X7945Y15254D3*
G54D89*
G1X29205Y15254D3*
G54D90*
G1X10786Y22587D3*
G1X10432Y22587D3*
G1X10786Y21622D3*
G1X10432Y21622D3*
G1X10825Y21130D3*
G1X10471Y21130D3*
G1X10766Y20087D3*
G1X10412Y20087D3*
G1X9979Y22114D3*
G1X9625Y22114D3*
G1X9979Y21622D3*
G1X9625Y21622D3*
G1X9959Y21130D3*
G1X9605Y21130D3*
G1X9959Y20618D3*
G1X9605Y20618D3*
G1X10727Y20658D3*
G1X10373Y20658D3*
G1X10786Y22114D3*
G1X10432Y22114D3*
G1X9625Y22587D3*
G1X9979Y22587D3*
G1X9605Y20067D3*
G1X9959Y20067D3*
G1X27479Y20087D3*
G1X27125Y20087D3*
G1X26337Y20618D3*
G1X26692Y20618D3*
G1X26337Y22114D3*
G1X26692Y22114D3*
G1X27479Y22587D3*
G1X27125Y22587D3*
G1X11140Y21622D3*
G1X11495Y21622D3*
G1X27125Y22114D3*
G1X27479Y22114D3*
G1X27125Y21622D3*
G1X27479Y21622D3*
G1X27125Y21110D3*
G1X27479Y21110D3*
G1X27125Y20618D3*
G1X27479Y20618D3*
G1X26711Y20087D3*
G1X26357Y20087D3*
G1X26692Y21110D3*
G1X26337Y21110D3*
G1X26692Y21622D3*
G1X26337Y21622D3*
G1X26003Y22114D3*
G1X25648Y22114D3*
G1X11140Y21130D3*
G1X11495Y21130D3*
G1X25648Y21622D3*
G1X26003Y21622D3*
G1X25648Y21110D3*
G1X26003Y21110D3*
G1X27125Y23020D3*
G1X26770Y23020D3*
G1X18503Y23866D3*
G1X18503Y24221D3*
G1X18818Y25402D3*
G1X18818Y25047D3*
G1X20373Y25756D3*
G1X20373Y25402D3*
G1X17203Y24949D3*
G1X17203Y24595D3*
G1X18050Y24831D3*
G1X17696Y24831D3*
G1X14231Y24083D3*
G1X13877Y24083D3*
G1X23385Y24063D3*
G1X23030Y24063D3*
G1X15924Y11130D3*
G1X15924Y10776D3*
G1X9979Y10854D3*
G1X9979Y11209D3*
G1X16357Y10776D3*
G1X16357Y11130D3*
G1X25235Y22095D3*
G1X25235Y21740D3*
G1X22203Y19260D3*
G1X22203Y19614D3*
G1X27046Y11288D3*
G1X27046Y10933D3*
G1X20944Y11130D3*
G1X20944Y10776D3*
G1X27499Y10933D3*
G1X27499Y11288D3*
G1X21318Y10776D3*
G1X21318Y11130D3*
G1X20570Y23866D3*
G1X20570Y24221D3*
G1X13562Y23433D3*
G1X13562Y23079D3*
G1X11554Y23236D3*
G1X11554Y23591D3*
G1X12715Y18669D3*
G1X12715Y19024D3*
G1X13680Y21445D3*
G1X13325Y21445D3*
G1X13345Y19142D3*
G1X13345Y18788D3*
G1X12381Y18650D3*
G1X12381Y19004D3*
G1X11574Y19516D3*
G1X11574Y19162D3*
G1X11948Y19516D3*
G1X11948Y19162D3*
G1X13778Y19162D3*
G1X13778Y18807D3*
G1X23188Y21209D3*
G1X23188Y21563D3*
G1X9546Y11209D3*
G1X9546Y10854D3*
G1X21967Y22528D3*
G1X22322Y22528D3*
G1X21554Y22154D3*
G1X21554Y22508D3*
G1X21967Y22134D3*
G1X22322Y22134D3*
G54D91*
G1X9855Y24122D3*
G1X10615Y24122D3*
G1X9855Y24969D3*
G1X10615Y24969D3*
G54D92*
G1X26731Y24797D3*
G1X26731Y24037D3*
G1X27636Y24797D3*
G1X27636Y24037D3*
G1X17794Y23467D3*
G1X17794Y24227D3*
G1X21160Y23309D3*
G1X21160Y24069D3*
G1X21574Y18978D3*
G1X21574Y19738D3*
G1X24605Y22297D3*
G1X24605Y21537D3*
G54D93*
G1X26140Y19221D3*
G54D94*
G1X19881Y25997D3*
G1X19881Y25397D3*
G1X19310Y25397D3*
G1X19310Y25997D3*
G1X17932Y26036D3*
G1X17932Y25436D3*
G1X17361Y25436D3*
G1X17361Y26036D3*
G54D95*
G1X18807Y14018D3*
G1X19327Y15958D3*
G54D96*
G1X19576Y13666D3*
G1X18557Y16310D3*
G54D97*
G1X8942Y13704D3*
G1X9842Y13704D3*
G1X10742Y13704D3*
G1X22342Y16804D3*
G1X21442Y16804D3*
G1X20542Y16804D3*
G1X25292Y16804D3*
G1X24392Y16804D3*
G1X23492Y16804D3*
G1X28242Y16804D3*
G1X27342Y16804D3*
G1X26442Y16804D3*
G1X11842Y13704D3*
G1X12742Y13704D3*
G1X13642Y13704D3*
G1X14742Y13704D3*
G1X15642Y13704D3*
G1X16542Y13704D3*
G1X10742Y16804D3*
G1X9842Y16804D3*
G1X8942Y16804D3*
G1X13642Y16804D3*
G1X12742Y16804D3*
G1X11842Y16804D3*
G1X16542Y16804D3*
G1X15642Y16804D3*
G1X14742Y16804D3*
G1X20542Y13704D3*
G1X21442Y13704D3*
G1X22342Y13704D3*
G1X23492Y13704D3*
G1X24392Y13704D3*
G1X25292Y13704D3*
G1X26442Y13704D3*
G1X27342Y13704D3*
G1X28242Y13704D3*
G54D98*
G1X19014Y24221D3*
G1X19014Y23965D3*
G1X19014Y23709D3*
G1X19920Y23709D3*
G1X19920Y23965D3*
G1X19920Y24221D3*
G1X12007Y23591D3*
G1X12007Y23335D3*
G1X12007Y23079D3*
G1X12912Y23079D3*
G1X12912Y23335D3*
G1X12912Y23591D3*
G54D99*
G1X19467Y23965D3*
G1X12459Y23335D3*
G54D100*
G1X14743Y20341D3*
G1X14743Y19241D3*
G1X18936Y19241D3*
G1X18936Y20341D3*
G1X17558Y19241D3*
G1X17558Y20341D3*
G1X20314Y19261D3*
G1X20314Y20361D3*
G1X16140Y19241D3*
G1X16140Y20341D3*
G54D101*
G1X15058Y21169D3*
G1X15058Y22980D3*
G54D102*
G1X22794Y18984D3*
G1X22794Y20272D3*
G1X23778Y21347D3*
G1X23778Y22634D3*
G54D103*
G1X12361Y22075D3*
G1X13648Y22075D3*
G54D104*
G1X24034Y19437D3*
G1X24034Y20854D3*
G54D105*
G1X13654Y21099D3*
G1X13339Y21099D3*
G1X13024Y21099D3*
G1X12710Y21099D3*
G1X12395Y21099D3*
G1X12395Y19524D3*
G1X12710Y19524D3*
G1X13024Y19524D3*
G1X13339Y19524D3*
G1X13654Y19524D3*
G54D106*
G1X13024Y20311D3*
G54D107*
G1X22696Y21573D3*
G1X22322Y21573D3*
G1X21948Y21573D3*
G1X21948Y20608D3*
G1X22322Y20608D3*
G1X22696Y20608D3*
G54D108*
G1X25963Y24043D3*
G54D109*
G1X27991Y20136D3*
G1X27991Y20628D3*
G1X27991Y21120D3*
G1X27991Y21612D3*
G1X27991Y22104D3*
G1X27991Y22597D3*
G1X27991Y23089D3*
G1X9093Y23089D3*
G1X9093Y22597D3*
G1X9093Y22104D3*
G1X9093Y21612D3*
G1X9093Y21120D3*
G1X9093Y20628D3*
G1X9093Y20136D3*
G54D110*
G1X29133Y24093D3*
G1X29133Y19132D3*
G1X7951Y19132D3*
G1X7951Y24093D3*
G54D111*
G1X15264Y24654D3*
G1X14772Y24654D3*
G1X14280Y24654D3*
G1X13788Y24654D3*
G1X13296Y24654D3*
G1X12804Y24654D3*
G1X24438Y24654D3*
G1X23946Y24654D3*
G1X23453Y24654D3*
G1X22961Y24654D3*
G1X22469Y24654D3*
G1X21977Y24654D3*
G54D112*
G1X16268Y25795D3*
G1X11800Y25795D3*
G1X25442Y25795D3*
G1X20973Y25795D3*
G54D113*
G1X13784Y26631D3*
G1X14257Y27419D3*
G1X13784Y27419D3*
G1X14257Y26631D3*
G1X23312Y27419D3*
G1X22839Y27419D3*
G1X22839Y26631D3*
G1X23312Y26631D3*
G1X14257Y10096D3*
G1X13784Y10096D3*
G1X13784Y9308D3*
G1X14257Y9308D3*
G1X23312Y10096D3*
G1X22839Y10096D3*
G1X22839Y9308D3*
G1X23312Y9308D3*
G1X29965Y13157D3*
G1X29965Y13629D3*
G1X30752Y13157D3*
G1X30752Y13629D3*
G1X29965Y23057D3*
G1X29965Y23529D3*
G1X30752Y23057D3*
G1X30752Y23529D3*
G1X37384Y27419D3*
G1X37857Y27419D3*
G1X37384Y26631D3*
G1X37857Y26631D3*
G1X46439Y27419D3*
G1X46912Y27419D3*
G1X46439Y26631D3*
G1X46912Y26631D3*
G1X37384Y10096D3*
G1X37857Y10096D3*
G1X37857Y9308D3*
G1X37384Y9308D3*
G1X46439Y10096D3*
G1X46912Y10096D3*
G1X46439Y9308D3*
G1X46912Y9308D3*
G1X33001Y26158D2*
G54D11*
G1X33401Y26155D1*
G1X33401Y25758D1*
G1X33001Y25758D1*
G1X33001Y26158D1*
G1X52922Y12733D2*
G1X53322Y12730D1*
G1X53322Y12333D1*
G1X52922Y12333D1*
G1X52922Y12733D1*
G1X31072Y12752D2*
G1X31472Y12750D1*
G1X31472Y12353D1*
G1X31072Y12353D1*
G1X31072Y12752D1*
G1X33019Y25758D2*
G1X33401Y26140D1*
G1X33147Y25758D2*
G1X33401Y26012D1*
G1X33274Y25758D2*
G1X33401Y25885D1*
G1X33001Y25867D2*
G1X33290Y26156D1*
G1X33001Y25994D2*
G1X33163Y26157D1*
G1X33001Y26121D2*
G1X33037Y26157D1*
G1X52941Y12333D2*
G1X53322Y12714D1*
G1X53068Y12333D2*
G1X53322Y12587D1*
G1X53195Y12333D2*
G1X53322Y12460D1*
G1X52922Y12442D2*
G1X53211Y12731D1*
G1X52922Y12569D2*
G1X53085Y12732D1*
G1X52922Y12696D2*
G1X52958Y12732D1*
G1X31090Y12353D2*
G1X31472Y12734D1*
G1X31217Y12353D2*
G1X31472Y12607D1*
G1X31345Y12353D2*
G1X31472Y12480D1*
G1X31072Y12461D2*
G1X31361Y12750D1*
G1X31072Y12589D2*
G1X31234Y12751D1*
G1X31072Y12716D2*
G1X31108Y12752D1*
G1X30740Y10092D2*
G1X53575Y10092D1*
G1X53575Y26627D1*
G1X30740Y26627D1*
G1X30740Y10092D1*
G1X37666Y21033D2*
G54D18*
G1X39681Y21033D1*
G1X39681Y21749D1*
G1X39359Y21749D1*
G1X39359Y21745D1*
G1X39355Y21729D1*
G1X39316Y21654D1*
G1X39208Y21525D1*
G1X39075Y21422D1*
G1X38922Y21350D1*
G1X38758Y21314D1*
G1X38589Y21314D1*
G1X38424Y21350D1*
G1X38272Y21422D1*
G1X38138Y21525D1*
G1X38031Y21654D1*
G1X37992Y21729D1*
G1X37988Y21745D1*
G1X37988Y21749D1*
G1X37666Y21749D1*
G1X37666Y21033D1*
G1X37669Y21033D2*
G1X37669Y21749D1*
G1X37714Y21033D2*
G1X37714Y21749D1*
G1X37760Y21033D2*
G1X37760Y21749D1*
G1X37806Y21033D2*
G1X37806Y21749D1*
G1X37851Y21033D2*
G1X37851Y21749D1*
G1X37897Y21033D2*
G1X37897Y21749D1*
G1X37943Y21033D2*
G1X37943Y21749D1*
G1X37988Y21033D2*
G1X37988Y21744D1*
G1X38034Y21033D2*
G1X38034Y21650D1*
G1X38080Y21033D2*
G1X38080Y21595D1*
G1X38125Y21033D2*
G1X38125Y21541D1*
G1X38171Y21033D2*
G1X38171Y21500D1*
G1X38217Y21033D2*
G1X38217Y21464D1*
G1X38262Y21033D2*
G1X38262Y21429D1*
G1X38308Y21033D2*
G1X38308Y21405D1*
G1X38354Y21033D2*
G1X38354Y21383D1*
G1X38399Y21033D2*
G1X38399Y21362D1*
G1X38445Y21033D2*
G1X38445Y21346D1*
G1X38491Y21033D2*
G1X38491Y21336D1*
G1X38536Y21033D2*
G1X38536Y21325D1*
G1X38582Y21033D2*
G1X38582Y21315D1*
G1X38628Y21033D2*
G1X38628Y21314D1*
G1X38673Y21033D2*
G1X38673Y21314D1*
G1X38719Y21033D2*
G1X38719Y21314D1*
G1X38765Y21033D2*
G1X38765Y21315D1*
G1X38810Y21033D2*
G1X38810Y21325D1*
G1X38856Y21033D2*
G1X38856Y21336D1*
G1X38902Y21033D2*
G1X38902Y21346D1*
G1X38947Y21033D2*
G1X38947Y21362D1*
G1X38993Y21033D2*
G1X38993Y21383D1*
G1X39039Y21033D2*
G1X39039Y21405D1*
G1X39084Y21033D2*
G1X39084Y21429D1*
G1X39130Y21033D2*
G1X39130Y21464D1*
G1X39176Y21033D2*
G1X39176Y21500D1*
G1X39221Y21033D2*
G1X39221Y21541D1*
G1X39267Y21033D2*
G1X39267Y21595D1*
G1X39313Y21033D2*
G1X39313Y21650D1*
G1X39358Y21033D2*
G1X39358Y21744D1*
G1X39404Y21033D2*
G1X39404Y21749D1*
G1X39450Y21033D2*
G1X39450Y21749D1*
G1X39495Y21033D2*
G1X39495Y21749D1*
G1X39541Y21033D2*
G1X39541Y21749D1*
G1X39587Y21033D2*
G1X39587Y21749D1*
G1X39632Y21033D2*
G1X39632Y21749D1*
G1X39678Y21033D2*
G1X39678Y21749D1*
G1X37666Y22411D2*
G1X37988Y22411D1*
G1X37988Y22415D1*
G1X37992Y22431D1*
G1X38031Y22506D1*
G1X38138Y22635D1*
G1X38272Y22738D1*
G1X38424Y22810D1*
G1X38589Y22846D1*
G1X38758Y22846D1*
G1X38922Y22810D1*
G1X39075Y22738D1*
G1X39208Y22635D1*
G1X39316Y22506D1*
G1X39355Y22431D1*
G1X39359Y22415D1*
G1X39359Y22411D1*
G1X39681Y22411D1*
G1X39681Y23127D1*
G1X37666Y23127D1*
G1X37666Y22411D1*
G1X37669Y22411D2*
G1X37669Y23127D1*
G1X37714Y22411D2*
G1X37714Y23127D1*
G1X37760Y22411D2*
G1X37760Y23127D1*
G1X37806Y22411D2*
G1X37806Y23127D1*
G1X37851Y22411D2*
G1X37851Y23127D1*
G1X37897Y22411D2*
G1X37897Y23127D1*
G1X37943Y22411D2*
G1X37943Y23127D1*
G1X37988Y22416D2*
G1X37988Y23127D1*
G1X38034Y22510D2*
G1X38034Y23127D1*
G1X38080Y22565D2*
G1X38080Y23127D1*
G1X38125Y22620D2*
G1X38125Y23127D1*
G1X38171Y22660D2*
G1X38171Y23127D1*
G1X38217Y22696D2*
G1X38217Y23127D1*
G1X38262Y22731D2*
G1X38262Y23127D1*
G1X38308Y22755D2*
G1X38308Y23127D1*
G1X38354Y22777D2*
G1X38354Y23127D1*
G1X38399Y22798D2*
G1X38399Y23127D1*
G1X38445Y22814D2*
G1X38445Y23127D1*
G1X38491Y22825D2*
G1X38491Y23127D1*
G1X38536Y22835D2*
G1X38536Y23127D1*
G1X38582Y22845D2*
G1X38582Y23127D1*
G1X38628Y22846D2*
G1X38628Y23127D1*
G1X38673Y22846D2*
G1X38673Y23127D1*
G1X38719Y22846D2*
G1X38719Y23127D1*
G1X38765Y22845D2*
G1X38765Y23127D1*
G1X38810Y22835D2*
G1X38810Y23127D1*
G1X38856Y22825D2*
G1X38856Y23127D1*
G1X38902Y22814D2*
G1X38902Y23127D1*
G1X38947Y22798D2*
G1X38947Y23127D1*
G1X38993Y22777D2*
G1X38993Y23127D1*
G1X39039Y22755D2*
G1X39039Y23127D1*
G1X39084Y22731D2*
G1X39084Y23127D1*
G1X39130Y22696D2*
G1X39130Y23127D1*
G1X39176Y22660D2*
G1X39176Y23127D1*
G1X39221Y22620D2*
G1X39221Y23127D1*
G1X39267Y22565D2*
G1X39267Y23127D1*
G1X39313Y22510D2*
G1X39313Y23127D1*
G1X39358Y22416D2*
G1X39358Y23127D1*
G1X39404Y22411D2*
G1X39404Y23127D1*
G1X39450Y22411D2*
G1X39450Y23127D1*
G1X39495Y22411D2*
G1X39495Y23127D1*
G1X39541Y22411D2*
G1X39541Y23127D1*
G1X39587Y22411D2*
G1X39587Y23127D1*
G1X39632Y22411D2*
G1X39632Y23127D1*
G1X39678Y22411D2*
G1X39678Y23127D1*
G54D81*
G1X41408Y11810D3*
G1X42908Y11810D3*
G1X35058Y11810D3*
G1X36558Y11810D3*
G1X38058Y11810D3*
G1X46258Y11810D3*
G1X47758Y11810D3*
G1X49258Y11810D3*
G54D82*
G1X40406Y21804D3*
G1X42925Y21804D3*
G54D84*
G1X31758Y11210D3*
G1X52558Y11210D3*
G1X31758Y25510D3*
G1X52558Y25510D3*
G54D85*
G1X33909Y23241D3*
G1X33595Y23241D3*
G1X33520Y14659D3*
G1X33040Y14659D3*
G1X36492Y14678D3*
G1X36012Y14678D3*
G1X40390Y15092D3*
G1X39910Y15092D3*
G1X33906Y15407D3*
G1X34386Y15407D3*
G1X36878Y15820D3*
G1X37358Y15820D3*
G1X39004Y15879D3*
G1X39484Y15879D3*
G1X39004Y15427D3*
G1X39484Y15427D3*
G1X33520Y15112D3*
G1X33040Y15112D3*
G1X36492Y15151D3*
G1X36012Y15151D3*
G1X40390Y14639D3*
G1X39910Y14639D3*
G1X33906Y15860D3*
G1X34386Y15860D3*
G1X36878Y15367D3*
G1X37358Y15367D3*
G1X45547Y14738D3*
G1X45067Y14738D3*
G1X48342Y14836D3*
G1X47862Y14836D3*
G1X50980Y14698D3*
G1X50500Y14698D3*
G1X44142Y15643D3*
G1X44622Y15643D3*
G1X46701Y15781D3*
G1X47181Y15781D3*
G1X49496Y15722D3*
G1X49976Y15722D3*
G1X44142Y15131D3*
G1X44622Y15131D3*
G1X45547Y15486D3*
G1X45067Y15486D3*
G1X48342Y15466D3*
G1X47862Y15466D3*
G1X46701Y15269D3*
G1X47181Y15269D3*
G1X50980Y15171D3*
G1X50500Y15171D3*
G1X49496Y15210D3*
G1X49976Y15210D3*
G1X48047Y23990D3*
G1X47567Y23990D3*
G1X38874Y23871D3*
G1X38394Y23871D3*
G54D86*
G1X31232Y17060D3*
G1X31232Y17375D3*
G1X32945Y19505D3*
G1X32945Y19025D3*
G1X51370Y19623D3*
G1X51370Y19143D3*
G1X34224Y26155D3*
G1X34224Y25840D3*
G54D87*
G1X33201Y25958D3*
G1X53122Y12533D3*
G1X31272Y12553D3*
G54D88*
G1X31561Y15260D3*
G54D89*
G1X52821Y15260D3*
G54D90*
G1X34402Y22592D3*
G1X34047Y22592D3*
G1X34402Y21627D3*
G1X34047Y21627D3*
G1X34441Y21135D3*
G1X34087Y21135D3*
G1X34382Y20092D3*
G1X34028Y20092D3*
G1X33595Y22119D3*
G1X33240Y22119D3*
G1X33595Y21627D3*
G1X33240Y21627D3*
G1X33575Y21135D3*
G1X33221Y21135D3*
G1X33575Y20623D3*
G1X33221Y20623D3*
G1X34343Y20663D3*
G1X33988Y20663D3*
G1X34402Y22119D3*
G1X34047Y22119D3*
G1X33240Y22592D3*
G1X33595Y22592D3*
G1X33221Y20072D3*
G1X33575Y20072D3*
G1X51095Y20092D3*
G1X50740Y20092D3*
G1X49953Y20623D3*
G1X50307Y20623D3*
G1X49953Y22119D3*
G1X50307Y22119D3*
G1X51095Y22592D3*
G1X50740Y22592D3*
G1X34756Y21627D3*
G1X35110Y21627D3*
G1X50740Y22119D3*
G1X51095Y22119D3*
G1X50740Y21627D3*
G1X51095Y21627D3*
G1X50740Y21115D3*
G1X51095Y21115D3*
G1X50740Y20623D3*
G1X51095Y20623D3*
G1X50327Y20092D3*
G1X49972Y20092D3*
G1X50307Y21115D3*
G1X49953Y21115D3*
G1X50307Y21627D3*
G1X49953Y21627D3*
G1X49618Y22119D3*
G1X49264Y22119D3*
G1X34756Y21135D3*
G1X35110Y21135D3*
G1X49264Y21627D3*
G1X49618Y21627D3*
G1X49264Y21115D3*
G1X49618Y21115D3*
G1X50740Y23025D3*
G1X50386Y23025D3*
G1X42118Y23871D3*
G1X42118Y24226D3*
G1X42433Y25407D3*
G1X42433Y25053D3*
G1X43988Y25761D3*
G1X43988Y25407D3*
G1X40819Y24954D3*
G1X40819Y24600D3*
G1X41665Y24836D3*
G1X41311Y24836D3*
G1X37846Y24088D3*
G1X37492Y24088D3*
G1X47000Y24068D3*
G1X46646Y24068D3*
G1X39539Y11135D3*
G1X39539Y10781D3*
G1X33595Y10860D3*
G1X33595Y11214D3*
G1X39972Y10781D3*
G1X39972Y11135D3*
G1X48850Y22100D3*
G1X48850Y21745D3*
G1X45819Y19265D3*
G1X45819Y19619D3*
G1X50661Y11293D3*
G1X50661Y10938D3*
G1X44559Y11135D3*
G1X44559Y10781D3*
G1X51114Y10938D3*
G1X51114Y11293D3*
G1X44933Y10781D3*
G1X44933Y11135D3*
G1X44185Y23871D3*
G1X44185Y24226D3*
G1X37177Y23438D3*
G1X37177Y23084D3*
G1X35169Y23241D3*
G1X35169Y23596D3*
G1X36331Y18675D3*
G1X36331Y19029D3*
G1X37295Y21450D3*
G1X36941Y21450D3*
G1X36961Y19147D3*
G1X36961Y18793D3*
G1X35996Y18655D3*
G1X35996Y19009D3*
G1X35189Y19521D3*
G1X35189Y19167D3*
G1X35563Y19521D3*
G1X35563Y19167D3*
G1X37394Y19167D3*
G1X37394Y18812D3*
G1X46803Y21214D3*
G1X46803Y21568D3*
G1X33161Y11214D3*
G1X33161Y10860D3*
G1X45583Y22533D3*
G1X45937Y22533D3*
G1X45169Y22159D3*
G1X45169Y22513D3*
G1X45583Y22139D3*
G1X45937Y22139D3*
G54D91*
G1X33470Y24127D3*
G1X34230Y24127D3*
G1X33470Y24974D3*
G1X34230Y24974D3*
G54D92*
G1X50346Y24803D3*
G1X50346Y24043D3*
G1X51252Y24803D3*
G1X51252Y24043D3*
G1X41409Y23472D3*
G1X41409Y24232D3*
G1X44776Y23314D3*
G1X44776Y24074D3*
G1X45189Y18984D3*
G1X45189Y19744D3*
G1X48221Y22303D3*
G1X48221Y21543D3*
G54D93*
G1X49756Y19226D3*
G54D94*
G1X43496Y26002D3*
G1X43496Y25402D3*
G1X42925Y25402D3*
G1X42925Y26002D3*
G1X41547Y26041D3*
G1X41547Y25441D3*
G1X40976Y25441D3*
G1X40976Y26041D3*
G54D95*
G1X42422Y14023D3*
G1X42943Y15963D3*
G54D96*
G1X43192Y13671D3*
G1X42172Y16315D3*
G54D97*
G1X32558Y13710D3*
G1X33458Y13710D3*
G1X34358Y13710D3*
G1X45958Y16810D3*
G1X45058Y16810D3*
G1X44158Y16810D3*
G1X48908Y16810D3*
G1X48008Y16810D3*
G1X47108Y16810D3*
G1X51858Y16810D3*
G1X50958Y16810D3*
G1X50058Y16810D3*
G1X35458Y13710D3*
G1X36358Y13710D3*
G1X37258Y13710D3*
G1X38358Y13710D3*
G1X39258Y13710D3*
G1X40158Y13710D3*
G1X34358Y16810D3*
G1X33458Y16810D3*
G1X32558Y16810D3*
G1X37258Y16810D3*
G1X36358Y16810D3*
G1X35458Y16810D3*
G1X40158Y16810D3*
G1X39258Y16810D3*
G1X38358Y16810D3*
G1X44158Y13710D3*
G1X45058Y13710D3*
G1X45958Y13710D3*
G1X47108Y13710D3*
G1X48008Y13710D3*
G1X48908Y13710D3*
G1X50058Y13710D3*
G1X50958Y13710D3*
G1X51858Y13710D3*
G54D98*
G1X42630Y24226D3*
G1X42630Y23970D3*
G1X42630Y23714D3*
G1X43535Y23714D3*
G1X43535Y23970D3*
G1X43535Y24226D3*
G1X35622Y23596D3*
G1X35622Y23340D3*
G1X35622Y23084D3*
G1X36528Y23084D3*
G1X36528Y23340D3*
G1X36528Y23596D3*
G54D99*
G1X43083Y23970D3*
G1X36075Y23340D3*
G54D100*
G1X38358Y20347D3*
G1X38358Y19247D3*
G1X42551Y19247D3*
G1X42551Y20347D3*
G1X41173Y19247D3*
G1X41173Y20347D3*
G1X43929Y19266D3*
G1X43929Y20366D3*
G1X39756Y19247D3*
G1X39756Y20347D3*
G54D101*
G1X38673Y21175D3*
G1X38673Y22986D3*
G54D102*
G1X46409Y18990D3*
G1X46409Y20277D3*
G1X47394Y21352D3*
G1X47394Y22639D3*
G54D103*
G1X35976Y22080D3*
G1X37264Y22080D3*
G54D104*
G1X47650Y19442D3*
G1X47650Y20860D3*
G54D105*
G1X37270Y21104D3*
G1X36955Y21104D3*
G1X36640Y21104D3*
G1X36325Y21104D3*
G1X36010Y21104D3*
G1X36010Y19529D3*
G1X36325Y19529D3*
G1X36640Y19529D3*
G1X36955Y19529D3*
G1X37270Y19529D3*
G54D106*
G1X36640Y20317D3*
G54D107*
G1X46311Y21578D3*
G1X45937Y21578D3*
G1X45563Y21578D3*
G1X45563Y20614D3*
G1X45937Y20614D3*
G1X46311Y20614D3*
G54D108*
G1X49579Y24049D3*
G54D109*
G1X51606Y20141D3*
G1X51606Y20633D3*
G1X51606Y21125D3*
G1X51606Y21617D3*
G1X51606Y22110D3*
G1X51606Y22602D3*
G1X51606Y23094D3*
G1X32709Y23094D3*
G1X32709Y22602D3*
G1X32709Y22110D3*
G1X32709Y21617D3*
G1X32709Y21125D3*
G1X32709Y20633D3*
G1X32709Y20141D3*
G54D110*
G1X52748Y24098D3*
G1X52748Y19137D3*
G1X31567Y19137D3*
G1X31567Y24098D3*
G54D111*
G1X38880Y24659D3*
G1X38388Y24659D3*
G1X37896Y24659D3*
G1X37404Y24659D3*
G1X36911Y24659D3*
G1X36419Y24659D3*
G1X48053Y24659D3*
G1X47561Y24659D3*
G1X47069Y24659D3*
G1X46577Y24659D3*
G1X46085Y24659D3*
G1X45593Y24659D3*
G54D112*
G1X39884Y25801D3*
G1X35415Y25801D3*
G1X49057Y25801D3*
G1X44589Y25801D3*
G1X35005Y34714D2*
G54D11*
G1X34959Y34777D1*
G1X34891Y34808D1*
G1X34800Y34808D1*
G1X34732Y34777D1*
G1X34687Y34714D1*
G1X34687Y34652D1*
G1X34709Y34589D1*
G1X34732Y34558D1*
G1X34778Y34527D1*
G1X34914Y34464D1*
G1X34959Y34433D1*
G1X34982Y34402D1*
G1X35005Y34339D1*
G1X35005Y34246D1*
G1X34959Y34183D1*
G1X34891Y34152D1*
G1X34800Y34152D1*
G1X34732Y34183D1*
G1X34687Y34246D1*
G1X35346Y34808D2*
G1X35300Y34777D1*
G1X35255Y34714D1*
G1X35232Y34652D1*
G1X35209Y34558D1*
G1X35209Y34402D1*
G1X35232Y34308D1*
G1X35255Y34246D1*
G1X35300Y34183D1*
G1X35346Y34152D1*
G1X35437Y34152D1*
G1X35482Y34183D1*
G1X35528Y34246D1*
G1X35550Y34308D1*
G1X35573Y34402D1*
G1X35573Y34558D1*
G1X35550Y34652D1*
G1X35528Y34714D1*
G1X35482Y34777D1*
G1X35437Y34808D1*
G1X35346Y34808D1*
G1X35778Y34808D2*
G1X35778Y34152D1*
G1X36050Y34152D1*
G1X36255Y34808D2*
G1X36255Y34152D1*
G1X36255Y34808D2*
G1X36414Y34808D1*
G1X36482Y34777D1*
G1X36528Y34714D1*
G1X36550Y34652D1*
G1X36573Y34558D1*
G1X36573Y34402D1*
G1X36550Y34308D1*
G1X36528Y34246D1*
G1X36482Y34183D1*
G1X36414Y34152D1*
G1X36255Y34152D1*
G1X36778Y34808D2*
G1X36778Y34152D1*
G1X36778Y34808D2*
G1X37073Y34808D1*
G1X36778Y34496D2*
G1X36959Y34496D1*
G1X36778Y34152D2*
G1X37073Y34152D1*
G1X37278Y34808D2*
G1X37278Y34152D1*
G1X37278Y34808D2*
G1X37482Y34808D1*
G1X37550Y34777D1*
G1X37573Y34746D1*
G1X37596Y34683D1*
G1X37596Y34621D1*
G1X37573Y34558D1*
G1X37550Y34527D1*
G1X37482Y34496D1*
G1X37278Y34496D1*
G1X37437Y34496D2*
G1X37596Y34152D1*
G1X38323Y34808D2*
G1X38323Y34152D1*
G1X38323Y34808D2*
G1X38505Y34152D1*
G1X38687Y34808D1*
G1X38687Y34152D1*
G1X39073Y34808D2*
G1X38891Y34152D1*
G1X39073Y34808D2*
G1X39255Y34152D1*
G1X38959Y34371D2*
G1X39187Y34371D1*
G1X39778Y34714D2*
G1X39732Y34777D1*
G1X39664Y34808D1*
G1X39573Y34808D1*
G1X39505Y34777D1*
G1X39459Y34714D1*
G1X39459Y34652D1*
G1X39482Y34589D1*
G1X39505Y34558D1*
G1X39550Y34527D1*
G1X39687Y34464D1*
G1X39732Y34433D1*
G1X39755Y34402D1*
G1X39778Y34339D1*
G1X39778Y34246D1*
G1X39732Y34183D1*
G1X39664Y34152D1*
G1X39573Y34152D1*
G1X39505Y34183D1*
G1X39459Y34246D1*
G1X39982Y34808D2*
G1X39982Y34152D1*
G1X40300Y34808D2*
G1X39982Y34371D1*
G1X40096Y34527D2*
G1X40300Y34152D1*
G1X41187Y34808D2*
G1X41187Y34152D1*
G1X41028Y34808D2*
G1X41346Y34808D1*
G1X41687Y34808D2*
G1X41641Y34777D1*
G1X41596Y34714D1*
G1X41573Y34652D1*
G1X41550Y34558D1*
G1X41550Y34402D1*
G1X41573Y34308D1*
G1X41596Y34246D1*
G1X41641Y34183D1*
G1X41687Y34152D1*
G1X41778Y34152D1*
G1X41823Y34183D1*
G1X41869Y34246D1*
G1X41891Y34308D1*
G1X41914Y34402D1*
G1X41914Y34558D1*
G1X41891Y34652D1*
G1X41869Y34714D1*
G1X41823Y34777D1*
G1X41778Y34808D1*
G1X41687Y34808D1*
G1X42119Y34808D2*
G1X42119Y34152D1*
G1X42119Y34808D2*
G1X42323Y34808D1*
G1X42391Y34777D1*
G1X42414Y34746D1*
G1X42437Y34683D1*
G1X42437Y34589D1*
G1X42414Y34527D1*
G1X42391Y34496D1*
G1X42323Y34464D1*
G1X42119Y34464D1*
M2*
