*
*
G04 PADS Layout (Build Number 2007.42.1) generated Gerber (RS-274-X) file*
G04 PC Version=2.1*
*
%IN "RBCS_RC_MAIS_001__blz.p"*%
*
%MOIN*%
*
%FSLAX35Y35*%
*
*
*
*
G04 PC Standard Apertures*
*
*
G04 Thermal Relief Aperture macro.*
%AMTER*
1,1,$1,0,0*
1,0,$1-$2,0,0*
21,0,$3,$4,0,0,45*
21,0,$3,$4,0,0,135*
%
*
*
G04 Annular Aperture macro.*
%AMANN*
1,1,$1,0,0*
1,0,$2,0,0*
%
*
*
G04 Odd Aperture macro.*
%AMODD*
1,1,$1,0,0*
1,0,$1-0.005,0,0*
%
*
*
G04 PC Custom Aperture Macros*
*
*
*
*
*
*
G04 PC Aperture Table*
*
%ADD010C,0.01*%
%ADD011C,0.001*%
%ADD012R,0.032X0.032*%
%ADD020C,0.04*%
%ADD228R,0.01181X0.01181*%
%ADD229R,0.03583X0.03583*%
%ADD230R,0.024X0.024*%
%ADD231R,0.052X0.052*%
%ADD232R,0.025X0.025*%
*
*
*
*
G04 PC Copper Outlines (0)*
G04 Layer Name RBCS_RC_MAIS_001__blz.p - dark (0)*
%LPD*%
*
*
G04 PC Area=Custom_Thermal*
*
G04 PC Custom Flashes*
G04 Layer Name RBCS_RC_MAIS_001__blz.p - flashes*
%LPD*%
*
*
G04 PC Circuitry*
G04 Layer Name RBCS_RC_MAIS_001__blz.p - circuitry*
%LPD*%
*
G54D10*
G01X2121705Y1672205D02*
Y1665643D01*
Y1672205D02*
X2123750D01*
X2124432Y1671893*
X2124659Y1671580*
X2124887Y1670955*
Y1670018*
X2124659Y1669393*
X2124432Y1669080*
X2123750Y1668768*
X2121705*
X2126932Y1672205D02*
Y1665643D01*
Y1672205D02*
X2128750Y1665643D01*
X2130568Y1672205D02*
X2128750Y1665643D01*
X2130568Y1672205D02*
Y1665643D01*
X2134205Y1672205D02*
Y1665643D01*
X2132614Y1672205D02*
X2135796D01*
X2143068Y1668455D02*
X2147159D01*
X2154432Y1672205D02*
Y1665643D01*
Y1672205D02*
X2156477D01*
X2157159Y1671893*
X2157387Y1671580*
X2157614Y1670955*
Y1670018*
X2157387Y1669393*
X2157159Y1669080*
X2156477Y1668768*
X2154432*
X2162387Y1670018D02*
Y1665643D01*
Y1669080D02*
X2161932Y1669705D01*
X2161477Y1670018*
X2160796*
X2160341Y1669705*
X2159887Y1669080*
X2159659Y1668143*
Y1667518*
X2159887Y1666580*
X2160341Y1665955*
X2160796Y1665643*
X2161477*
X2161932Y1665955*
X2162387Y1666580*
X2166932Y1669080D02*
X2166705Y1669705D01*
X2166023Y1670018*
X2165341*
X2164659Y1669705*
X2164432Y1669080*
X2164659Y1668455*
X2165114Y1668143*
X2166250Y1667830*
X2166705Y1667518*
X2166932Y1666893*
Y1666580*
X2166705Y1665955*
X2166023Y1665643*
X2165341*
X2164659Y1665955*
X2164432Y1666580*
X2169659Y1672205D02*
Y1666893D01*
X2169887Y1665955*
X2170341Y1665643*
X2170796*
X2168977Y1670018D02*
X2170568D01*
X2175568D02*
Y1665643D01*
Y1669080D02*
X2175114Y1669705D01*
X2174659Y1670018*
X2173977*
X2173523Y1669705*
X2173068Y1669080*
X2172841Y1668143*
Y1667518*
X2173068Y1666580*
X2173523Y1665955*
X2173977Y1665643*
X2174659*
X2175114Y1665955*
X2175568Y1666580*
X2182841Y1672205D02*
Y1665643D01*
X2187614Y1670018D02*
Y1665643D01*
Y1669080D02*
X2187159Y1669705D01*
X2186705Y1670018*
X2186023*
X2185568Y1669705*
X2185114Y1669080*
X2184887Y1668143*
Y1667518*
X2185114Y1666580*
X2185568Y1665955*
X2186023Y1665643*
X2186705*
X2187159Y1665955*
X2187614Y1666580*
X2190341Y1672205D02*
Y1666893D01*
X2190568Y1665955*
X2191023Y1665643*
X2191477*
X2189659Y1670018D02*
X2191250D01*
X2194659D02*
X2194205Y1669705D01*
X2193750Y1669080*
X2193523Y1668143*
Y1667518*
X2193750Y1666580*
X2194205Y1665955*
X2194659Y1665643*
X2195341*
X2195796Y1665955*
X2196250Y1666580*
X2196477Y1667518*
Y1668143*
X2196250Y1669080*
X2195796Y1669705*
X2195341Y1670018*
X2194659*
X2206477Y1669080D02*
X2206023Y1669705D01*
X2205568Y1670018*
X2204887*
X2204432Y1669705*
X2203977Y1669080*
X2203750Y1668143*
Y1667518*
X2203977Y1666580*
X2204432Y1665955*
X2204887Y1665643*
X2205568*
X2206023Y1665955*
X2206477Y1666580*
X2209659Y1670018D02*
X2209205Y1669705D01*
X2208750Y1669080*
X2208523Y1668143*
Y1667518*
X2208750Y1666580*
X2209205Y1665955*
X2209659Y1665643*
X2210341*
X2210796Y1665955*
X2211250Y1666580*
X2211477Y1667518*
Y1668143*
X2211250Y1669080*
X2210796Y1669705*
X2210341Y1670018*
X2209659*
X2213523D02*
Y1665643D01*
Y1668768D02*
X2214205Y1669705D01*
X2214659Y1670018*
X2215341*
X2215796Y1669705*
X2216023Y1668768*
Y1665643*
Y1668768D02*
X2216705Y1669705D01*
X2217159Y1670018*
X2217841*
X2218296Y1669705*
X2218523Y1668768*
Y1665643*
X2220568Y1670018D02*
Y1663455D01*
Y1669080D02*
X2221023Y1669705D01*
X2221477Y1670018*
X2222159*
X2222614Y1669705*
X2223068Y1669080*
X2223296Y1668143*
Y1667518*
X2223068Y1666580*
X2222614Y1665955*
X2222159Y1665643*
X2221477*
X2221023Y1665955*
X2220568Y1666580*
X2226477Y1670018D02*
X2226023Y1669705D01*
X2225568Y1669080*
X2225341Y1668143*
Y1667518*
X2225568Y1666580*
X2226023Y1665955*
X2226477Y1665643*
X2227159*
X2227614Y1665955*
X2228068Y1666580*
X2228296Y1667518*
Y1668143*
X2228068Y1669080*
X2227614Y1669705*
X2227159Y1670018*
X2226477*
X2230341D02*
Y1665643D01*
Y1668768D02*
X2231023Y1669705D01*
X2231477Y1670018*
X2232159*
X2232614Y1669705*
X2232841Y1668768*
Y1665643*
X2234887Y1668143D02*
X2237614D01*
Y1668768*
X2237387Y1669393*
X2237159Y1669705*
X2236705Y1670018*
X2236023*
X2235568Y1669705*
X2235114Y1669080*
X2234887Y1668143*
Y1667518*
X2235114Y1666580*
X2235568Y1665955*
X2236023Y1665643*
X2236705*
X2237159Y1665955*
X2237614Y1666580*
X2239659Y1670018D02*
Y1665643D01*
Y1668768D02*
X2240341Y1669705D01*
X2240796Y1670018*
X2241477*
X2241932Y1669705*
X2242159Y1668768*
Y1665643*
X2244887Y1672205D02*
Y1666893D01*
X2245114Y1665955*
X2245568Y1665643*
X2246023*
X2244205Y1670018D02*
X2245796D01*
X2248068Y1672205D02*
X2248296Y1671893D01*
X2248523Y1672205*
X2248296Y1672518*
X2248068Y1672205*
X2248296Y1670018D02*
Y1665643D01*
G54D11*
X1687106Y1439764D02*
Y1399606D01*
X1724114*
X2272736Y1400197D02*
X2312894D01*
Y1437205*
Y1758858D02*
Y1799016D01*
X2275886*
X1727657Y1800394D02*
X1687500D01*
Y1763386*
G54D12*
X1892272Y1583071D03*
X1886272D03*
X2024555Y1590157D03*
X2018555D03*
X2024555Y1582677D03*
X2018555D03*
G54D20*
X2072331Y1600409D03*
X1865460Y1581198D03*
X1847191Y1634132D03*
G54D228*
X1961594Y1612598D02*
X1964350D01*
X1946161D02*
X1948917D01*
X1961594Y1610630D02*
X1964350D01*
X1946161D02*
X1948917D01*
X1961594Y1608661D02*
X1964350D01*
X1946161D02*
X1948917D01*
X1961594Y1606693D02*
X1964350D01*
X1946161D02*
X1948917D01*
X1961594Y1604724D02*
X1964350D01*
X1946161D02*
X1948917D01*
X1961594Y1602756D02*
X1964350D01*
X1946161D02*
X1948917D01*
X1961594Y1600787D02*
X1964350D01*
X1946161D02*
X1948917D01*
X1961594Y1598819D02*
X1964350D01*
X1946161D02*
X1948917D01*
X1961594Y1596850D02*
X1964350D01*
X1946161D02*
X1948917D01*
X1961594Y1594882D02*
X1964350D01*
X1946161D02*
X1948917D01*
X2005689Y1612598D02*
X2008445D01*
X1990256D02*
X1993012D01*
X2005689Y1610630D02*
X2008445D01*
X1990256D02*
X1993012D01*
X2005689Y1608661D02*
X2008445D01*
X1990256D02*
X1993012D01*
X2005689Y1606693D02*
X2008445D01*
X1990256D02*
X1993012D01*
X2005689Y1604724D02*
X2008445D01*
X1990256D02*
X1993012D01*
X2005689Y1602756D02*
X2008445D01*
X1990256D02*
X1993012D01*
X2005689Y1600787D02*
X2008445D01*
X1990256D02*
X1993012D01*
X2005689Y1598819D02*
X2008445D01*
X1990256D02*
X1993012D01*
X2005689Y1596850D02*
X2008445D01*
X1990256D02*
X1993012D01*
X2005689Y1594882D02*
X2008445D01*
X1990256D02*
X1993012D01*
X2050177Y1612598D02*
X2052933D01*
X2034744D02*
X2037500D01*
X2050177Y1610630D02*
X2052933D01*
X2034744D02*
X2037500D01*
X2050177Y1608661D02*
X2052933D01*
X2034744D02*
X2037500D01*
X2050177Y1606693D02*
X2052933D01*
X2034744D02*
X2037500D01*
X2050177Y1604724D02*
X2052933D01*
X2034744D02*
X2037500D01*
X2050177Y1602756D02*
X2052933D01*
X2034744D02*
X2037500D01*
X2050177Y1600787D02*
X2052933D01*
X2034744D02*
X2037500D01*
X2050177Y1598819D02*
X2052933D01*
X2034744D02*
X2037500D01*
X2050177Y1596850D02*
X2052933D01*
X2034744D02*
X2037500D01*
X2050177Y1594882D02*
X2052933D01*
X2034744D02*
X2037500D01*
X1917500Y1612598D02*
X1920256D01*
X1902067D02*
X1904823D01*
X1917500Y1610630D02*
X1920256D01*
X1902067D02*
X1904823D01*
X1917500Y1608661D02*
X1920256D01*
X1902067D02*
X1904823D01*
X1917500Y1606693D02*
X1920256D01*
X1902067D02*
X1904823D01*
X1917500Y1604724D02*
X1920256D01*
X1902067D02*
X1904823D01*
X1917500Y1602756D02*
X1920256D01*
X1902067D02*
X1904823D01*
X1917500Y1600787D02*
X1920256D01*
X1902067D02*
X1904823D01*
X1917500Y1598819D02*
X1920256D01*
X1902067D02*
X1904823D01*
X1917500Y1596850D02*
X1920256D01*
X1902067D02*
X1904823D01*
X1917500Y1594882D02*
X1920256D01*
X1902067D02*
X1904823D01*
X1873406Y1612598D02*
X1876161D01*
X1857972D02*
X1860728D01*
X1873406Y1610630D02*
X1876161D01*
X1857972D02*
X1860728D01*
X1873406Y1608661D02*
X1876161D01*
X1857972D02*
X1860728D01*
X1873406Y1606693D02*
X1876161D01*
X1857972D02*
X1860728D01*
X1873406Y1604724D02*
X1876161D01*
X1857972D02*
X1860728D01*
X1873406Y1602756D02*
X1876161D01*
X1857972D02*
X1860728D01*
X1873406Y1600787D02*
X1876161D01*
X1857972D02*
X1860728D01*
X1873406Y1598819D02*
X1876161D01*
X1857972D02*
X1860728D01*
X1873406Y1596850D02*
X1876161D01*
X1857972D02*
X1860728D01*
X1873406Y1594882D02*
X1876161D01*
X1857972D02*
X1860728D01*
G54D229*
X1848311Y1607932D02*
X1847091D01*
X1848311Y1620806D02*
X1847091D01*
G54D230*
X1875530Y1582127D02*
Y1583227D01*
X1870730Y1582127D02*
Y1583227D01*
X2010963Y1587245D02*
Y1588345D01*
X2006163Y1587245D02*
Y1588345D01*
X2010963Y1581733D02*
Y1582833D01*
X2006163Y1581733D02*
Y1582833D01*
X2001287Y1580498D02*
Y1581598D01*
X1996487Y1580498D02*
Y1581598D01*
X1977836Y1596056D02*
Y1597156D01*
X1973036Y1596056D02*
Y1597156D01*
X1976632Y1600657D02*
Y1601757D01*
X1971832Y1600657D02*
Y1601757D01*
X2000279Y1618948D02*
Y1620048D01*
X1995479Y1618948D02*
Y1620048D01*
X1976257Y1592201D02*
Y1591101D01*
X1981057Y1592201D02*
Y1591101D01*
X1924155Y1610592D02*
X1925255D01*
X1924155Y1615392D02*
X1925255D01*
X1971318Y1613030D02*
X1970218D01*
X1971318Y1608230D02*
X1970218D01*
X2066437Y1595038D02*
Y1593938D01*
X2069587Y1595038D02*
Y1593938D01*
G54D231*
X1983100Y1582539D02*
Y1581739D01*
X1990700Y1582539D02*
Y1581739D01*
X1849895Y1589901D02*
X1850695D01*
X1849895Y1597501D02*
X1850695D01*
G54D232*
X1867009Y1635318D03*
Y1632168D03*
Y1629018D03*
Y1625868D03*
X1873009D03*
Y1629018D03*
Y1632168D03*
Y1635318D03*
X1861405Y1633037D03*
X1858255D03*
X1855105D03*
X1851955D03*
Y1627037D03*
X1855105D03*
X1858255D03*
X1861405D03*
X1883240Y1635248D03*
Y1632098D03*
Y1628948D03*
Y1625798D03*
X1889240D03*
Y1628948D03*
Y1632098D03*
Y1635248D03*
X1953068Y1634672D03*
Y1631522D03*
Y1628372D03*
Y1625222D03*
X1959068D03*
Y1628372D03*
Y1631522D03*
Y1634672D03*
X1976446Y1630467D03*
X1979596D03*
X1982746D03*
X1985896D03*
Y1636467D03*
X1982746D03*
X1979596D03*
X1976446D03*
X1925058Y1637045D03*
X1921908D03*
X1918758D03*
X1915608D03*
Y1631045D03*
X1918758D03*
X1921908D03*
X1925058D03*
X1906177Y1626936D03*
X1903027D03*
X1899877D03*
X1896727D03*
Y1620936D03*
X1899877D03*
X1903027D03*
X1906177D03*
X1896658Y1630735D03*
X1899808D03*
X1902958D03*
X1906108D03*
Y1636735D03*
X1902958D03*
X1899808D03*
X1896658D03*
X1945040Y1621443D03*
X1941890D03*
X1938740D03*
X1935590D03*
Y1615443D03*
X1938740D03*
X1941890D03*
X1945040D03*
X1935590Y1630263D03*
X1938740D03*
X1941890D03*
X1945040D03*
Y1636263D03*
X1941890D03*
X1938740D03*
X1935590D03*
X1987242Y1620472D03*
X1984092D03*
X1980942D03*
X1977792D03*
Y1614472D03*
X1980942D03*
X1984092D03*
X1987242D03*
X2023713Y1610903D03*
Y1607753D03*
Y1604603D03*
Y1601453D03*
X2029713D03*
Y1604603D03*
Y1607753D03*
Y1610903D03*
X0Y0D02*
M02*
