*
*
G04 PADS Layout (Build Number 2007.42.1) generated Gerber (RS-274-X) file*
G04 PC Version=2.1*
*
%IN "RBCS_RC_MAIS_001__blz.p"*%
*
%MOIN*%
*
%FSLAX35Y35*%
*
*
*
*
G04 PC Standard Apertures*
*
*
G04 Thermal Relief Aperture macro.*
%AMTER*
1,1,$1,0,0*
1,0,$1-$2,0,0*
21,0,$3,$4,0,0,45*
21,0,$3,$4,0,0,135*
%
*
*
G04 Annular Aperture macro.*
%AMANN*
1,1,$1,0,0*
1,0,$2,0,0*
%
*
*
G04 Odd Aperture macro.*
%AMODD*
1,1,$1,0,0*
1,0,$1-0.005,0,0*
%
*
*
G04 PC Custom Aperture Macros*
*
*
*
*
*
*
G04 PC Aperture Table*
*
%ADD010C,0.01*%
%ADD011C,0.001*%
%ADD025C,0.008*%
%ADD093C,0.006*%
%ADD262C,0.003*%
%ADD263C,0.004*%
*
*
*
*
G04 PC Copper Outlines (0)*
G04 Layer Name RBCS_RC_MAIS_001__blz.p - dark (0)*
%LPD*%
*
*
G04 PC Area=Custom_Thermal*
*
G04 PC Custom Flashes*
G04 Layer Name RBCS_RC_MAIS_001__blz.p - flashes*
%LPD*%
*
*
G04 PC Circuitry*
G04 Layer Name RBCS_RC_MAIS_001__blz.p - circuitry*
%LPD*%
*
G54D10*
G01X1882972Y1580271D02*
Y1585871D01*
X1844158Y1620137D02*
X1844551D01*
X1850851D02*
X1851244D01*
X2015255Y1587357D02*
Y1592957D01*
Y1579877D02*
Y1585477D01*
X1866859Y1637286D02*
X1873159D01*
X1866859Y1623900D02*
X1873159D01*
X1863373Y1633187D02*
Y1626888D01*
X1849987Y1633187D02*
Y1626888D01*
X1883091Y1637216D02*
X1889390D01*
X1883091Y1623830D02*
X1889390D01*
X1952918Y1636639D02*
X1959217D01*
X1952918Y1623254D02*
X1959217D01*
X1974478Y1630317D02*
Y1636616D01*
X1987863Y1630317D02*
Y1636616D01*
X1927026Y1637195D02*
Y1630895D01*
X1913640Y1637195D02*
Y1630895D01*
X1908145Y1627085D02*
Y1620786D01*
X1894759Y1627085D02*
Y1620786D01*
X1894690Y1630586D02*
Y1636885D01*
X1908076Y1630586D02*
Y1636885D01*
X1947008Y1621593D02*
Y1615293D01*
X1933622Y1621593D02*
Y1615293D01*
Y1630113D02*
Y1636412D01*
X1947008Y1630113D02*
Y1636412D01*
X1989210Y1620622D02*
Y1614323D01*
X1975824Y1620622D02*
Y1614323D01*
X2023563Y1612871D02*
X2029862D01*
X2023563Y1599486D02*
X2029862D01*
X2130487Y1661868D02*
X2130032Y1662493D01*
X2129350Y1662805*
X2128441*
X2127759Y1662493*
X2127305Y1661868*
Y1661243*
X2127532Y1660618*
X2127759Y1660305*
X2128214Y1659993*
X2129577Y1659368*
X2130032Y1659055*
X2130259Y1658743*
X2130487Y1658118*
Y1657180*
X2130032Y1656555*
X2129350Y1656243*
X2128441*
X2127759Y1656555*
X2127305Y1657180*
X2135941Y1661243D02*
X2135714Y1661868D01*
X2135259Y1662493*
X2134805Y1662805*
X2133896*
X2133441Y1662493*
X2132987Y1661868*
X2132759Y1661243*
X2132532Y1660305*
Y1658743*
X2132759Y1657805*
X2132987Y1657180*
X2133441Y1656555*
X2133896Y1656243*
X2134805*
X2135259Y1656555*
X2135714Y1657180*
X2135941Y1657805*
X2143214Y1659055D02*
X2147305D01*
X2157759Y1661868D02*
X2157305Y1662493D01*
X2156623Y1662805*
X2155714*
X2155032Y1662493*
X2154577Y1661868*
Y1661243*
X2154805Y1660618*
X2155032Y1660305*
X2155487Y1659993*
X2156850Y1659368*
X2157305Y1659055*
X2157532Y1658743*
X2157759Y1658118*
Y1657180*
X2157305Y1656555*
X2156623Y1656243*
X2155714*
X2155032Y1656555*
X2154577Y1657180*
X2159805Y1658743D02*
X2162532D01*
Y1659368*
X2162305Y1659993*
X2162077Y1660305*
X2161623Y1660618*
X2160941*
X2160487Y1660305*
X2160032Y1659680*
X2159805Y1658743*
Y1658118*
X2160032Y1657180*
X2160487Y1656555*
X2160941Y1656243*
X2161623*
X2162077Y1656555*
X2162532Y1657180*
X2164577Y1660618D02*
Y1656243D01*
Y1658743D02*
X2164805Y1659680D01*
X2165259Y1660305*
X2165714Y1660618*
X2166396*
X2168441Y1662805D02*
X2168668Y1662493D01*
X2168896Y1662805*
X2168668Y1663118*
X2168441Y1662805*
X2168668Y1660618D02*
Y1656243D01*
X2173668Y1660618D02*
Y1655618D01*
X2173441Y1654680*
X2173214Y1654368*
X2172759Y1654055*
X2172077*
X2171623Y1654368*
X2173668Y1659680D02*
X2173214Y1660305D01*
X2172759Y1660618*
X2172077*
X2171623Y1660305*
X2171168Y1659680*
X2170941Y1658743*
Y1658118*
X2171168Y1657180*
X2171623Y1656555*
X2172077Y1656243*
X2172759*
X2173214Y1656555*
X2173668Y1657180*
X2175714Y1660618D02*
Y1656243D01*
Y1658743D02*
X2175941Y1659680D01*
X2176396Y1660305*
X2176850Y1660618*
X2177532*
X2182305D02*
Y1656243D01*
Y1659680D02*
X2181850Y1660305D01*
X2181396Y1660618*
X2180714*
X2180259Y1660305*
X2179805Y1659680*
X2179577Y1658743*
Y1658118*
X2179805Y1657180*
X2180259Y1656555*
X2180714Y1656243*
X2181396*
X2181850Y1656555*
X2182305Y1657180*
X2186168Y1662805D02*
X2185714D01*
X2185259Y1662493*
X2185032Y1661555*
Y1656243*
X2184350Y1660618D02*
X2185941D01*
X2188214Y1662805D02*
X2188441Y1662493D01*
X2188668Y1662805*
X2188441Y1663118*
X2188214Y1662805*
X2188441Y1660618D02*
Y1656243D01*
X2193441Y1660618D02*
Y1656243D01*
Y1659680D02*
X2192987Y1660305D01*
X2192532Y1660618*
X2191850*
X2191396Y1660305*
X2190941Y1659680*
X2190714Y1658743*
Y1658118*
X2190941Y1657180*
X2191396Y1656555*
X2191850Y1656243*
X2192532*
X2192987Y1656555*
X2193441Y1657180*
X2200714Y1662805D02*
Y1656243D01*
X2205487Y1660618D02*
Y1656243D01*
Y1659680D02*
X2205032Y1660305D01*
X2204577Y1660618*
X2203896*
X2203441Y1660305*
X2202987Y1659680*
X2202759Y1658743*
Y1658118*
X2202987Y1657180*
X2203441Y1656555*
X2203896Y1656243*
X2204577*
X2205032Y1656555*
X2205487Y1657180*
X2208214Y1662805D02*
Y1657493D01*
X2208441Y1656555*
X2208896Y1656243*
X2209350*
X2207532Y1660618D02*
X2209123D01*
X2212532D02*
X2212077Y1660305D01*
X2211623Y1659680*
X2211396Y1658743*
Y1658118*
X2211623Y1657180*
X2212077Y1656555*
X2212532Y1656243*
X2213214*
X2213668Y1656555*
X2214123Y1657180*
X2214350Y1658118*
Y1658743*
X2214123Y1659680*
X2213668Y1660305*
X2213214Y1660618*
X2212532*
X2224350Y1659680D02*
X2223896Y1660305D01*
X2223441Y1660618*
X2222759*
X2222305Y1660305*
X2221850Y1659680*
X2221623Y1658743*
Y1658118*
X2221850Y1657180*
X2222305Y1656555*
X2222759Y1656243*
X2223441*
X2223896Y1656555*
X2224350Y1657180*
X2227532Y1660618D02*
X2227077Y1660305D01*
X2226623Y1659680*
X2226396Y1658743*
Y1658118*
X2226623Y1657180*
X2227077Y1656555*
X2227532Y1656243*
X2228214*
X2228668Y1656555*
X2229123Y1657180*
X2229350Y1658118*
Y1658743*
X2229123Y1659680*
X2228668Y1660305*
X2228214Y1660618*
X2227532*
X2231396D02*
Y1656243D01*
Y1659368D02*
X2232077Y1660305D01*
X2232532Y1660618*
X2233214*
X2233668Y1660305*
X2233896Y1659368*
Y1656243*
Y1659368D02*
X2234577Y1660305D01*
X2235032Y1660618*
X2235714*
X2236168Y1660305*
X2236396Y1659368*
Y1656243*
X2238441Y1660618D02*
Y1654055D01*
Y1659680D02*
X2238896Y1660305D01*
X2239350Y1660618*
X2240032*
X2240487Y1660305*
X2240941Y1659680*
X2241168Y1658743*
Y1658118*
X2240941Y1657180*
X2240487Y1656555*
X2240032Y1656243*
X2239350*
X2238896Y1656555*
X2238441Y1657180*
X2244350Y1660618D02*
X2243896Y1660305D01*
X2243441Y1659680*
X2243214Y1658743*
Y1658118*
X2243441Y1657180*
X2243896Y1656555*
X2244350Y1656243*
X2245032*
X2245487Y1656555*
X2245941Y1657180*
X2246168Y1658118*
Y1658743*
X2245941Y1659680*
X2245487Y1660305*
X2245032Y1660618*
X2244350*
X2248214D02*
Y1656243D01*
Y1659368D02*
X2248896Y1660305D01*
X2249350Y1660618*
X2250032*
X2250487Y1660305*
X2250714Y1659368*
Y1656243*
X2252759Y1658743D02*
X2255487D01*
Y1659368*
X2255259Y1659993*
X2255032Y1660305*
X2254577Y1660618*
X2253896*
X2253441Y1660305*
X2252987Y1659680*
X2252759Y1658743*
Y1658118*
X2252987Y1657180*
X2253441Y1656555*
X2253896Y1656243*
X2254577*
X2255032Y1656555*
X2255487Y1657180*
X2257532Y1660618D02*
Y1656243D01*
Y1659368D02*
X2258214Y1660305D01*
X2258668Y1660618*
X2259350*
X2259805Y1660305*
X2260032Y1659368*
Y1656243*
X2262759Y1662805D02*
Y1657493D01*
X2262987Y1656555*
X2263441Y1656243*
X2263896*
X2262077Y1660618D02*
X2263668D01*
X2265941Y1662805D02*
X2266168Y1662493D01*
X2266396Y1662805*
X2266168Y1663118*
X2265941Y1662805*
X2266168Y1660618D02*
Y1656243D01*
G54D11*
X1843209Y1577559D02*
Y1642126D01*
X2000295*
X2002657Y1624016*
X2076673*
Y1577559*
X1843209*
X1687106Y1439764D02*
Y1399606D01*
X1724114*
X2272736Y1400197D02*
X2312894D01*
Y1437205*
Y1758858D02*
Y1799016D01*
X2275886*
X1727657Y1800394D02*
X1687500D01*
Y1763386*
G54D25*
X2076083Y1584646D02*
G75*
G03X2076083I-6496J0D01*
G54D93*
G01X1895072Y1580271D02*
Y1585871D01*
X1883472*
Y1580271*
X1895072*
X1844158Y1608719D02*
Y1620137D01*
X1844551*
X1850851D02*
X1851244D01*
Y1608719*
X2027355Y1587357D02*
Y1592957D01*
X2015755*
Y1587357*
X2027355*
Y1579877D02*
Y1585477D01*
X2015755*
Y1579877*
X2027355*
X1979900Y1585639D02*
Y1578639D01*
X1993900*
Y1585639*
X1979900*
X1846795Y1586701D02*
X1853795D01*
Y1600701*
X1846795*
Y1586701*
X2058825Y1601181D02*
X2062106D01*
X2058825D02*
Y1602204D01*
X2058981Y1602545*
X2059138Y1602658*
X2059450Y1602772*
X2059763*
X2060075Y1602658*
X2060231Y1602545*
X2060388Y1602204*
Y1601181*
Y1601977D02*
X2062106Y1602772D01*
X2059919Y1604363D02*
X2060075Y1604136D01*
X2060388Y1603908*
X2060856Y1603795*
X2061169*
X2061638Y1603908*
X2061950Y1604136*
X2062106Y1604363*
Y1604704*
X2061950Y1604931*
X2061638Y1605158*
X2061169Y1605272*
X2060856*
X2060388Y1605158*
X2060075Y1604931*
X2059919Y1604704*
Y1604363*
X2058825Y1606295D02*
X2062106D01*
X2060388D02*
X2060075Y1606522D01*
X2059919Y1606749*
Y1607090*
X2060075Y1607317*
X2060388Y1607545*
X2060856Y1607658*
X2061169*
X2061638Y1607545*
X2061950Y1607317*
X2062106Y1607090*
Y1606749*
X2061950Y1606522*
X2061638Y1606295*
X2059919Y1609249D02*
X2060075Y1609022D01*
X2060388Y1608795*
X2060856Y1608681*
X2061169*
X2061638Y1608795*
X2061950Y1609022*
X2062106Y1609249*
Y1609590*
X2061950Y1609817*
X2061638Y1610045*
X2061169Y1610158*
X2060856*
X2060388Y1610045*
X2060075Y1609817*
X2059919Y1609590*
Y1609249*
X2058825Y1611522D02*
X2061481D01*
X2061950Y1611636*
X2062106Y1611863*
Y1612090*
X2059919Y1611181D02*
Y1611977D01*
X2059606Y1614817D02*
X2059294Y1614704D01*
X2058981Y1614477*
X2058825Y1614249*
Y1613795*
X2058981Y1613567*
X2059294Y1613340*
X2059606Y1613227*
X2060075Y1613113*
X2060856*
X2061325Y1613227*
X2061638Y1613340*
X2061950Y1613567*
X2062106Y1613795*
Y1614249*
X2061950Y1614477*
X2061638Y1614704*
X2061325Y1614817*
X2059919Y1615840D02*
X2061481D01*
X2061950Y1615954*
X2062106Y1616181*
Y1616522*
X2061950Y1616749*
X2061481Y1617090*
X2059919D02*
X2062106D01*
X2058825Y1618113D02*
X2062106D01*
X2060388D02*
X2060075Y1618340D01*
X2059919Y1618567*
Y1618908*
X2060075Y1619136*
X2060388Y1619363*
X2060856Y1619477*
X2061169*
X2061638Y1619363*
X2061950Y1619136*
X2062106Y1618908*
Y1618567*
X2061950Y1618340*
X2061638Y1618113*
X1844783Y1641470D02*
Y1638189D01*
Y1641470D02*
X1845693Y1638189D01*
X1846602Y1641470D02*
X1845693Y1638189D01*
X1846602Y1641470D02*
Y1638189D01*
X1848533Y1641470D02*
X1847624Y1638189D01*
X1848533Y1641470D02*
X1849443Y1638189D01*
X1847965Y1639283D02*
X1849102D01*
X1850465Y1641470D02*
Y1638189D01*
X1853079Y1641001D02*
X1852852Y1641314D01*
X1852511Y1641470*
X1852056*
X1851715Y1641314*
X1851488Y1641001*
Y1640689*
X1851602Y1640376*
X1851715Y1640220*
X1851943Y1640064*
X1852624Y1639751*
X1852852Y1639595*
X1852965Y1639439*
X1853079Y1639126*
Y1638658*
X1852852Y1638345*
X1852511Y1638189*
X1852056*
X1851715Y1638345*
X1851488Y1638658*
X1854102Y1639595D02*
X1856147D01*
X1857852Y1641470D02*
X1857511Y1641314D01*
X1857283Y1640845*
X1857170Y1640064*
Y1639595*
X1857283Y1638814*
X1857511Y1638345*
X1857852Y1638189*
X1858079*
X1858420Y1638345*
X1858647Y1638814*
X1858761Y1639595*
Y1640064*
X1858647Y1640845*
X1858420Y1641314*
X1858079Y1641470*
X1857852*
X1860465D02*
X1860124Y1641314D01*
X1859897Y1640845*
X1859783Y1640064*
Y1639595*
X1859897Y1638814*
X1860124Y1638345*
X1860465Y1638189*
X1860693*
X1861033Y1638345*
X1861261Y1638814*
X1861374Y1639595*
Y1640064*
X1861261Y1640845*
X1861033Y1641314*
X1860693Y1641470*
X1860465*
X1863079D02*
X1862738Y1641314D01*
X1862511Y1640845*
X1862397Y1640064*
Y1639595*
X1862511Y1638814*
X1862738Y1638345*
X1863079Y1638189*
X1863306*
X1863647Y1638345*
X1863874Y1638814*
X1863988Y1639595*
Y1640064*
X1863874Y1640845*
X1863647Y1641314*
X1863306Y1641470*
X1863079*
G54D262*
X1960054Y1613150D02*
X1957506Y1616811D01*
X1951161*
X1951156Y1590748*
X1960054*
Y1613150*
X2004148D02*
X2001601Y1616811D01*
X1995256*
X1995251Y1590748*
X2004148*
Y1613150*
X2048636D02*
X2046089Y1616811D01*
X2039744*
X2039739Y1590748*
X2048636*
Y1613150*
X1915959D02*
X1913412Y1616811D01*
X1907067*
X1907062Y1590748*
X1915959*
Y1613150*
X1871865D02*
X1869317Y1616811D01*
X1862972*
X1862967Y1590748*
X1871865*
Y1613150*
G54D263*
X1877330Y1580677D02*
Y1584677D01*
X1868930*
Y1580677*
X1877330*
X2012763Y1585795D02*
Y1589795D01*
X2004363*
Y1585795*
X2012763*
Y1580283D02*
Y1584283D01*
X2004363*
Y1580283*
X2012763*
X2003087Y1579048D02*
Y1583048D01*
X1994687*
Y1579048*
X2003087*
X1979636Y1594606D02*
Y1598606D01*
X1971236*
Y1594606*
X1979636*
X1978432Y1599207D02*
Y1603207D01*
X1970032*
Y1599207*
X1978432*
X2002079Y1617498D02*
Y1621498D01*
X1993679*
Y1617498*
X2002079*
X1974457Y1593651D02*
Y1589651D01*
X1982857*
Y1593651*
X1974457*
X1922705Y1608792D02*
X1926705D01*
Y1617192*
X1922705*
Y1608792*
X1972768Y1614830D02*
X1968768D01*
Y1606430*
X1972768*
Y1614830*
X2064599Y1596488D02*
Y1592488D01*
X2071292*
Y1596488*
X2064599*
X2066491Y1606216D02*
X2066540Y1605786D01*
X2066599Y1605352*
X2066708Y1605086*
X2066841Y1604894*
X2066998Y1604760*
X2067194Y1604652*
X2067275Y1604624*
X2067835*
X2068048Y1604652*
X2068265Y1604736*
X2068510Y1604866*
X2068699Y1605026*
X2068807Y1605159*
X2068916Y1605383*
X2068975Y1605604*
X2068996Y1605736*
Y1606486*
X2068940Y1606730*
X2068940D02*
X2068860Y1606965D01*
X2068780Y1607105*
X2068724Y1607185*
X2068647*
X2068619Y1606996*
X2068566Y1606779*
X2068486Y1606542*
X2068377Y1606374*
X2068216Y1606244*
X2068059*
X2067999Y1606321*
X2068052Y1606405*
X2068240Y1606570*
X2068317Y1606730*
X2068373Y1606975*
X2068401Y1607350*
X2068345Y1607427*
X2068188Y1607455*
X2067597*
X2067159Y1607350*
X2066785Y1607081*
X2066518Y1606650*
X2066490Y1606486*
X2066491Y1606216*
X2069946Y1605820D02*
X2070022Y1605687D01*
X2070183Y1605479*
X2070391Y1605232*
X2070619Y1604995*
X2070846Y1604786*
X2071017Y1604654*
X2071178Y1604606*
X2071263*
X2071371Y1604625*
X2071450Y1604681*
X2071586Y1604787*
X2071801Y1604979*
X2071969Y1605139*
X2072125Y1605322*
X2072235Y1605510*
X2072289Y1605651*
Y1605705*
X2072235Y1605838*
X2072118Y1606014*
X2071969Y1606229*
X2071738Y1606526*
X2071555Y1606725*
X2071399Y1606862*
X2071266*
X2071054Y1606780*
X2070863Y1606667*
X2070543Y1606456*
X2070301Y1606272*
X2070097Y1606084*
X2069945Y1605916*
X2069946Y1605820*
X2069431Y1602708D02*
Y1602814D01*
X2069485Y1602950*
X2069540Y1603087*
X2069644Y1603326*
X2069755Y1603543*
X2069862Y1603729*
X2069969Y1603868*
X2070094Y1603985*
X2070325Y1604185*
X2070454Y1604275*
X2070586*
X2070693Y1604218*
X2070871Y1604114*
X2071022Y1604058*
X2071237*
X2071401Y1604216*
X2071642Y1604380*
X2071859Y1604463*
X2071966*
X2072098Y1604438*
X2072258Y1604303*
X2072419Y1604140*
X2072559Y1604025*
X2072667Y1604001*
X2072799*
X2073020Y1604106*
X2073291Y1604186*
X2073426Y1604218*
X2073607*
X2073717Y1603947*
X2073742Y1603757*
X2073794Y1603521*
X2073860Y1603415*
X2073976Y1603329*
X2074072Y1603303*
X2074138Y1603324*
X2074183Y1603410*
X2074123Y1604979*
X2074077Y1605050*
X2074011Y1605100*
X2073976*
X2073688Y1605080*
X2073576Y1605030*
X2073490Y1604954*
X2073364Y1604827*
X2073278Y1604756*
X2073121Y1604731*
X2072990Y1604701*
X2072909Y1604660*
X2072731*
X2072650Y1604701*
X2072528Y1604807*
X2072457Y1604918*
X2072437Y1604979*
Y1605035*
X2072498Y1605151*
X2072569Y1605272*
X2072650Y1605434*
X2072675Y1605515*
X2072700Y1605621*
Y1605712*
X2072700D02*
X2072665Y1605829D01*
X2072614Y1605936*
X2072533Y1606068*
X2072477Y1606199*
X2072452Y1606275*
Y1606331*
X2072508Y1606432*
X2072538Y1606487*
X2072659Y1606594*
X2072827Y1606705*
X2072949Y1606751*
X2073151*
X2073282Y1606710*
X2073358*
X2073419Y1606675*
X2073525Y1606574*
X2073576Y1606483*
X2073662Y1606432*
X2073779Y1606402*
X2073920*
X2073966Y1606452*
X2074042Y1606543*
X2074072Y1606665*
X2074117Y1606832*
X2074153Y1607045*
X2074178Y1607232*
X2074203Y1607429*
X2074234Y1607591*
X2074269Y1607723*
X2074294Y1607870*
X2074294D02*
Y1607971D01*
X2074294D02*
X2074244Y1608062D01*
X2074158Y1608107*
X2074052*
X2073971Y1608047*
X2073880Y1607950*
X2073804Y1607814*
X2073753Y1607672*
X2073723Y1607475*
X2073688Y1607379*
X2073627Y1607298*
X2073541Y1607242*
X2073450*
X2073354Y1607298*
X2073167Y1607414*
X2072867Y1607566*
X2072751Y1607591*
X2072589*
X2072458Y1607515*
X2072321Y1607374*
X2072240Y1607207*
X2072154Y1607060*
X2072043Y1606944*
X2071917*
X2071794Y1607019*
X2071642Y1607181*
X2071440Y1607363*
X2071394Y1607399*
X2071324*
X2071192Y1607318*
X2071096Y1607211*
X2070939Y1607110*
X2070671*
X2070564Y1607171*
X2070402Y1607353*
X2070291Y1607601*
X2069972Y1608462*
X2069759Y1608912*
X2069562Y1609297*
X2069532Y1609423*
Y1609514*
X2069582Y1609794*
X2069617Y1609869*
Y1610041*
X2069567Y1610117*
X2069491Y1610208*
X2069425*
X2069349Y1610143*
X2069314Y1610087*
Y1609890*
X2069273Y1609703*
X2069182Y1609556*
X2069127Y1609505*
X2069061*
X2068999Y1609541*
X2068817Y1609713*
X2068600Y1609905*
X2068468*
X2068408Y1609844*
X2068382Y1609779*
X2068403Y1609672*
X2068453Y1609596*
X2068554Y1609475*
X2068656Y1609354*
X2068782Y1609156*
Y1609055*
X2068746Y1608913*
X2068691Y1608796*
X2068645Y1608700*
X2068584Y1608639*
X2068549Y1608563*
Y1608437*
X2068574Y1608316*
X2068640Y1608230*
X2068675Y1608164*
X2068721Y1608144*
X2068772Y1608169*
X2068807Y1608224*
X2068847Y1608316*
X2068888Y1608422*
X2068938Y1608528*
X2069004Y1608660*
X2069106Y1608761*
X2069218Y1608812*
X2069263*
X2069304Y1608776*
X2069374Y1608716*
X2069425Y1608579*
X2069450Y1608457*
X2069450D02*
X2069496Y1608280D01*
X2069546Y1608108*
X2069602Y1607936*
X2069663Y1607729*
X2069749Y1607566*
X2069850Y1607313*
X2069916Y1607176*
X2069972Y1607019*
Y1606564*
X2069941Y1606447*
X2069865Y1606270*
X2069739Y1606159*
X2069663Y1606139*
X2069562*
X2069430Y1606194*
X2069339Y1606250*
X2069284Y1606321*
X2069238Y1606391*
X2069238D02*
X2069183Y1606543D01*
X2069107Y1606736*
X2069056Y1606999*
X2068934Y1607283*
X2068787Y1607460*
X2068569Y1607606*
X2068296Y1607652*
X2068129*
X2068054Y1607718*
Y1607966*
X2067946Y1608072*
X2067764*
X2067693Y1607961*
X2067597Y1607784*
X2067461Y1607647*
X2067299*
X2067107Y1607602*
X2066807Y1607490*
X2066600Y1607374*
X2066509Y1607161*
X2066463Y1607050*
X2066322Y1606913*
X2066251Y1606893*
X2065922*
X2065815Y1606918*
X2065694Y1606953*
X2065613Y1606994*
X2065512*
X2065436Y1606933*
X2065411Y1606822*
X2065441Y1606721*
X2065583Y1606640*
X2065785Y1606584*
X2066002Y1606508*
X2066088Y1606453*
X2066189Y1606346*
X2066240Y1606215*
Y1606139*
X2066200Y1606048*
X2066098Y1605967*
X2066012Y1605916*
X2065770Y1605871*
X2065603Y1605840*
X2065481Y1605809*
X2065395Y1605784*
X2065294Y1605673*
Y1605521*
X2065385Y1605445*
X2065552Y1605404*
X2065664Y1605379*
X2066104*
X2066205*
X2066261Y1605334*
X2066296Y1605207*
Y1605101*
X2066261Y1605005*
X2066149Y1604883*
X2065952Y1604706*
X2065805Y1604580*
X2065805D02*
X2065740Y1604499D01*
Y1604367*
X2065790Y1604317*
X2065841Y1604296*
X2065942*
X2066099Y1604387*
X2066271Y1604478*
X2066438Y1604564*
X2066579Y1604625*
X2066696*
X2066737Y1604574*
Y1604432*
X2066701Y1604301*
X2066641Y1604164*
X2066595Y1604058*
X2066570Y1603972*
X2066595Y1603866*
X2066656Y1603810*
X2066711*
X2066792Y1603876*
X2066848Y1603972*
X2066929Y1604109*
X2067065Y1604190*
X2067248Y1604301*
X2067395Y1604357*
X2067613Y1604377*
X2067911*
X2068039Y1604402*
X2068210Y1604448*
X2068408Y1604493*
X2068671Y1604635*
X2068843Y1604782*
X2068989Y1604933*
X2069096Y1605136*
X2069197Y1605298*
X2069333Y1605495*
X2069448Y1605542*
X2069573*
X2069739Y1605485*
X2069881Y1605348*
X2069954Y1605153*
Y1604963*
Y1604704*
X2069925Y1604574*
X2069832Y1604453*
X2069694Y1604249*
X2069557Y1604043*
X2069383Y1603747*
X2069261Y1603484*
X2069144Y1603225*
X2069103Y1603030*
X2069079Y1602775*
X2068985Y1602524*
X2068892Y1602370*
X2068722Y1601997*
X2068666Y1601888*
X2068609Y1601762*
X2068556Y1601600*
X2068536Y1601394*
X2068621Y1601313*
X2068690Y1601329*
X2068751Y1601366*
X2068811Y1601386*
X2068844Y1601349*
X2068815Y1601183*
Y1601069*
Y1600976*
X2068876Y1600936*
X2068965Y1600989*
X2069002Y1601029*
X2069062Y1601053*
X2069078Y1601013*
Y1600948*
Y1600875*
Y1600806*
X2069119*
X2069220Y1600867*
X2069383Y1601078*
X2069484Y1601248*
X2069524Y1601422*
Y1601673*
X2069476Y1601815*
X2069423Y1601948*
X2069387Y1602094*
Y1602272*
X2069403Y1602341*
X2069492Y1602374*
X2069694*
X2069828*
X2069978Y1602475*
X2070075Y1602588*
X2070115Y1602730*
X2070091Y1602876*
X2070038Y1602937*
X2069925Y1602953*
X2069804Y1602909*
X2069703Y1602844*
X2069593Y1602775*
X2069528Y1602718*
X2069431Y1602708*
X2067268Y1606762D02*
Y1606919D01*
X2067327Y1607025*
X2067387Y1607085*
X2067461Y1607108*
X2067595*
X2067644Y1607057*
X2067671Y1606999*
Y1606924*
X2067629Y1606824*
X2067561Y1606712*
X2067501Y1606651*
X2067435Y1606614*
X2067349*
X2067288Y1606707*
X2067268Y1606762*
X2068080Y1608736D02*
X2068003Y1608791D01*
X2067889Y1608906*
X2067779Y1609064*
X2067687Y1609228*
X2067594Y1609392*
X2067523Y1609572*
X2067485Y1609747*
X2067463Y1609927*
X2067430Y1610009*
X2067294Y1610140*
X2067145Y1610288*
X2067009Y1610457*
X2066905Y1610642*
X2066801Y1610866*
X2066752Y1611063*
X2066719Y1611281*
Y1611588*
X2066697Y1611850*
X2066637Y1612057*
X2066534Y1612188*
X2066408Y1612227*
X2066233Y1612259*
X2066059Y1612281*
X2065879Y1612363*
X2065720Y1612467*
X2065533Y1612648*
X2065397Y1612800*
X2065304Y1612975*
X2065233Y1613177*
X2065184Y1613390*
Y1613625*
X2065233Y1613800*
X2065343Y1613986*
X2065457Y1614128*
X2065550Y1614243*
X2065654Y1614374*
X2065763Y1614581*
X2065823Y1614762*
Y1614996*
X2065790Y1615149*
X2065725Y1615357*
X2065665Y1615515*
X2065599Y1615696*
X2065566Y1615871*
Y1616084*
X2065626Y1616231*
X2065708Y1616378*
X2065828Y1616553*
X2065955Y1616701*
X2066070Y1616816*
X2066168Y1616870*
X2066337Y1616920*
X2066577*
X2066927*
Y1617007*
X2066889Y1617160*
X2066845Y1617313*
X2066813Y1617471*
X2066758Y1617646*
X2066714Y1617815*
X2066632Y1618023*
X2066539Y1618187*
X2066435Y1618362*
X2066271Y1618651*
X2066135Y1618848*
X2066075Y1618870*
X2066037Y1618799*
X2065977Y1618684*
X2065906Y1618504*
X2065813Y1618417*
X2065682Y1618367*
X2065502Y1618400*
X2065392Y1618515*
X2065359Y1618641*
X2065397Y1618739*
X2065463Y1618799*
X2065561Y1618881*
X2065692Y1618985*
X2065768Y1619078*
X2065812Y1619187*
X2065779Y1619312*
X2065730Y1619411*
X2065566Y1619558*
X2065403Y1619645*
X2065228Y1619766*
X2065124Y1619831*
X2065015Y1619913*
X2064933Y1620044*
X2064879Y1620148*
Y1620306*
X2064955Y1620421*
X2065053Y1620454*
X2065228Y1620383*
X2065430Y1620262*
X2065648Y1620104*
X2065801Y1619957*
X2065927Y1619831*
X2066075Y1619646*
X2066140Y1619454*
X2066179Y1619296*
X2066288Y1619192*
X2066479Y1619007*
X2066682Y1618749*
X2066840Y1618476*
X2066993Y1618176*
X2067091Y1617919*
X2067173Y1617636*
X2067249Y1617401*
X2067347Y1617188*
X2067555Y1616915*
X2068424*
X2068713Y1616882*
X2068949Y1616805*
X2069102Y1616701*
X2069211Y1616564*
X2069265Y1616335*
Y1615893*
Y1615494*
X2069347Y1615210*
X2069451Y1615090*
X2069620Y1614959*
X2069828Y1614866*
X2069991*
X2070151*
X2070254Y1614898*
X2070440Y1614969*
X2070647Y1615079*
X2070822Y1615199*
X2071051Y1615341*
X2071391Y1615576*
X2071626Y1615767*
X2071904Y1615974*
X2072133Y1616182*
X2072445Y1616466*
X2072614Y1616625*
X2072794Y1616810*
X2072865Y1616947*
X2072838Y1617056*
X2072658Y1617138*
X2072439Y1617182*
X2072298Y1617280*
X2072238Y1617373*
Y1617455*
X2072336Y1617564*
X2072543Y1617678*
X2072543D02*
X2072811Y1617728D01*
X2073040*
X2073285Y1617678*
X2073285D02*
X2073549Y1617569D01*
X2073669Y1617449*
X2073822Y1617111*
X2073822D02*
Y1616870D01*
X2073822D02*
Y1616456D01*
X2073822D02*
X2073691Y1616248D01*
X2073565Y1616204*
X2073385Y1616297*
X2073292Y1616368*
X2073205Y1616521*
X2073117Y1616570*
X2072986Y1616494*
X2072734Y1616313*
X2072505Y1616106*
X2072276Y1615893*
X2072008Y1615625*
X2071751Y1615341*
X2071516Y1615051*
X2071429Y1614893*
X2071325Y1614669*
Y1614516*
X2071445Y1614331*
X2071603Y1614090*
X2071745Y1613965*
X2071954Y1613724*
X2072079Y1613598*
X2072314Y1613385*
X2072499Y1613156*
X2072712Y1612992*
X2072909Y1612812*
X2073040Y1612703*
X2073248Y1612544*
X2073363Y1612489*
X2073439*
X2073526Y1612571*
X2073548Y1612724*
Y1612909*
X2073608Y1613111*
X2073712Y1613199*
X2073843Y1613231*
X2073947Y1613166*
X2074023Y1612953*
Y1612582*
X2073996Y1612292*
X2073898Y1612047*
X2073685Y1611779*
X2073455Y1611643*
X2073144Y1611555*
X2072904Y1611533*
X2072604Y1611560*
X2072413Y1611626*
X2072298Y1611713*
X2072276Y1611784*
X2072304Y1611877*
X2072407Y1611942*
X2072571Y1611964*
X2072735*
X2072849*
X2072926Y1611992*
X2072975Y1612046*
Y1612177*
X2072948Y1612265*
X2072728Y1612511*
X2072521Y1612735*
X2072281Y1612959*
X2071970Y1613227*
X2071478Y1613636*
X2071074Y1613898*
X2070631Y1614139*
X2070385Y1614237*
X2070200Y1614286*
X2069987*
X2069817Y1614204*
X2069566Y1614035*
X2069424Y1613893*
X2069222Y1613620*
X2069129Y1613385*
X2069107Y1613101*
X2069085Y1612686*
X2069014Y1612451*
X2068877Y1612276*
X2068719Y1612156*
X2068462Y1612124*
X2068090*
X2067157Y1612151*
X2067130Y1612096*
Y1611566*
X2067151Y1611254*
X2067195Y1611069*
X2067266Y1610839*
X2067364Y1610654*
X2067468Y1610490*
X2067588Y1610343*
X2067692Y1610288*
X2067757Y1610332*
X2067812Y1610452*
X2067910Y1610599*
X2068041Y1610703*
X2068221Y1610736*
X2068330Y1610676*
X2068429Y1610555*
X2068468Y1610418*
X2068424Y1610320*
X2068255Y1610238*
X2068053Y1610129*
X2067933Y1610014*
X2067889Y1609922*
Y1609752*
X2067949Y1609659*
X2068031Y1609501*
X2068151Y1609365*
X2068238Y1609261*
X2068277Y1609157*
X2068238Y1608944*
X2068200Y1608808*
X2068134Y1608725*
X2068080Y1608736*
X2065781Y1613176D02*
Y1613444D01*
X2065840Y1613732*
X2065934Y1614000*
X2066004Y1614277*
X2066068Y1614580*
X2066103Y1614988*
Y1615241*
X2066063Y1615430*
X2066038Y1615702*
X2066058Y1615931*
X2066118Y1616149*
X2066222Y1616377*
X2066341Y1616521*
X2066535Y1616656*
X2066694Y1616676*
X2067080Y1616646*
X2067547Y1616601*
X2067969*
X2068306Y1616581*
X2068525Y1616532*
X2068784Y1616417*
X2068883Y1616248*
X2068908Y1616025*
X2068863Y1615588*
X2068818Y1615236*
X2068798Y1614939*
Y1614631*
X2068773Y1614332*
X2068743Y1614019*
X2068724Y1613612*
X2068699Y1613211*
X2068679Y1613042*
X2068634Y1612814*
X2068575Y1612709*
X2068466Y1612595*
X2068347Y1612541*
X2068143*
X2067785*
X2067423Y1612600*
X2067051*
X2066654Y1612630*
X2066376*
X2066222Y1612694*
X2066068Y1612808*
X2065900Y1612972*
X2065781Y1613176*
X2066377Y1613785D02*
X2066444Y1613645D01*
X2066507Y1613541*
X2066591Y1613467*
X2066693Y1613447*
X2066827*
X2066896Y1613473*
X2066993Y1613584*
X2067051Y1613681*
X2067069Y1613821*
Y1613953*
X2067015Y1614050*
X2066962Y1614118*
X2066868Y1614179*
X2066743Y1614202*
X2066611Y1614154*
X2066469Y1614070*
X2066400Y1613956*
X2066375Y1613851*
X2066377Y1613785*
X2066848Y1615249D02*
X2066992Y1615257D01*
X2067051Y1615302*
X2067051D02*
X2067135Y1615426D01*
X2067153Y1615554*
X2067161Y1615743*
X2067106Y1615839*
X2067011Y1615916*
X2066899Y1615959*
X2066716*
X2066626Y1615910*
X2066565Y1615827*
X2066508Y1615727*
X2066485Y1615607*
X2066530Y1615485*
X2066589Y1615389*
X2066671Y1615340*
X2066774Y1615287*
X2066848Y1615249*
X2067632Y1613716D02*
X2067698Y1613650D01*
X2067787Y1613611*
X2067929Y1613635*
X2068063Y1613676*
X2068155Y1613722*
X2068281Y1613822*
X2068342Y1613938*
X2068385Y1614101*
X2068407Y1614258*
X2068434Y1614514*
Y1614675*
Y1614919*
X2068401Y1615028*
X2068325Y1615154*
X2068216Y1615294*
X2068118Y1615372*
X2068007Y1615431*
X2067863Y1615477*
X2067783Y1615470*
X2067746Y1615426*
X2067754Y1615359*
X2067822Y1615313*
X2067922Y1615250*
X2067992Y1615202*
X2068076Y1615111*
X2068138Y1614976*
X2068222Y1614788*
X2068249Y1614562*
Y1614360*
X2068220Y1614227*
X2068172Y1614114*
X2068113Y1614034*
X2067991Y1613903*
X2067909Y1613861*
X2067796Y1613838*
X2067707Y1613805*
X2067641Y1613761*
X2067632Y1613716*
X2067288Y1606707D02*
X2067268Y1606762D01*
Y1606919*
X2067268*
X2067288Y1606707*
X2067268Y1606919D02*
X2067327Y1607025D01*
X2067288Y1606707*
X2067288*
X2067268Y1606919*
X2067349Y1606614D02*
X2067288Y1606707D01*
X2067327Y1607025*
X2067327*
X2067349Y1606614*
X2067327Y1607025D02*
X2067387Y1607085D01*
X2067349Y1606614*
X2067349*
X2067327Y1607025*
X2067435Y1606614D02*
X2067349D01*
X2067387Y1607085*
X2067387*
X2067435Y1606614*
X2067387Y1607085D02*
X2067461Y1607108D01*
X2067435Y1606614*
X2067435*
X2067387Y1607085*
X2067501Y1606651D02*
X2067435Y1606614D01*
X2067461Y1607108*
X2067461*
X2067501Y1606651*
X2067461Y1607108*
X2067561Y1606712*
X2067561*
X2067501Y1606651*
X2067461Y1607108D02*
X2067595D01*
X2067561Y1606712*
X2067561*
X2067461Y1607108*
X2067629Y1606824D02*
X2067561Y1606712D01*
X2067595Y1607108*
X2067595*
X2067629Y1606824*
X2067595Y1607108D02*
X2067644Y1607057D01*
X2067629Y1606824*
X2067629*
X2067595Y1607108*
X2067671Y1606924D02*
X2067629Y1606824D01*
X2067644Y1607057*
X2067644*
X2067671Y1606924*
X2067644Y1607057D02*
X2067671Y1606999D01*
Y1606924*
X2067671*
X2067644Y1607057*
X2065385Y1605445D02*
X2065294Y1605521D01*
Y1605673*
X2065294*
X2065385Y1605445*
X2065294Y1605673D02*
X2065395Y1605784D01*
X2065385Y1605445*
X2065385*
X2065294Y1605673*
X2065441Y1606721D02*
X2065411Y1606822D01*
X2065436Y1606933*
X2065436*
X2065441Y1606721*
X2065436Y1606933D02*
X2065512Y1606994D01*
X2065441Y1606721*
X2065441*
X2065436Y1606933*
X2065481Y1605809D02*
X2065552Y1605404D01*
X2065395Y1605784*
X2065395*
X2065481Y1605809*
X2065552Y1605404D02*
X2065385Y1605445D01*
X2065395Y1605784*
X2065395*
X2065552Y1605404*
X2065583Y1606640D02*
X2065441Y1606721D01*
X2065512Y1606994*
X2065512*
X2065583Y1606640*
X2065481Y1605809D02*
X2065603Y1605840D01*
X2065552Y1605404*
X2065552*
X2065481Y1605809*
X2065512Y1606994D02*
X2065613D01*
X2065583Y1606640*
X2065583*
X2065512Y1606994*
X2065664Y1605379D02*
X2065552Y1605404D01*
X2065603Y1605840*
X2065603*
X2065664Y1605379*
X2065603Y1605840D02*
X2065770Y1605871D01*
X2065664Y1605379*
X2065664*
X2065603Y1605840*
X2065694Y1606953D02*
X2065785Y1606584D01*
X2065613Y1606994*
X2065613*
X2065694Y1606953*
X2065785Y1606584D02*
X2065583Y1606640D01*
X2065613Y1606994*
X2065613*
X2065785Y1606584*
X2065790Y1604317D02*
X2065740Y1604367D01*
Y1604499*
X2065740*
X2065790Y1604317*
X2065740Y1604499D02*
X2065805Y1604580D01*
X2065805D02*
X2065790Y1604317D01*
X2065790*
X2065740Y1604499*
X2065694Y1606953D02*
X2065815Y1606918D01*
X2065785Y1606584*
X2065785*
X2065694Y1606953*
X2065841Y1604296D02*
X2065790Y1604317D01*
X2065805Y1604580*
X2065805D02*
X2065805D01*
X2065805D02*
X2065841Y1604296D01*
X2065805Y1604580*
X2065805D02*
X2065942Y1604296D01*
X2065942*
X2065841*
X2065805Y1604580D02*
X2065952Y1604706D01*
X2065942Y1604296*
X2065942*
X2065805Y1604580*
X2065922Y1606893D02*
X2066002Y1606508D01*
X2065815Y1606918*
X2065815*
X2065922Y1606893*
X2066002Y1606508D02*
X2065785Y1606584D01*
X2065815Y1606918*
X2065815*
X2066002Y1606508*
X2066099Y1604387D02*
X2065942Y1604296D01*
X2065952Y1604706*
X2065952*
X2066099Y1604387*
X2066098Y1605967D02*
X2066104Y1605379D01*
X2066012Y1605916*
X2066012*
X2066098Y1605967*
X2066012Y1605916D02*
X2066104Y1605379D01*
X2065770Y1605871*
X2065770*
X2066012Y1605916*
X2066104Y1605379D02*
X2065664D01*
X2065770Y1605871*
X2065770*
X2066104Y1605379*
X2065952Y1604706D02*
X2066149Y1604883D01*
X2066099Y1604387*
X2066099*
X2065952Y1604706*
X2066098Y1605967D02*
X2066200Y1606048D01*
X2066104Y1605379*
X2066104*
X2066098Y1605967*
X2066205Y1605379D02*
X2066104D01*
X2066200Y1606048*
X2066200*
X2066205Y1605379*
X2066200Y1606048D02*
X2066240Y1606139D01*
X2066205Y1605379*
X2066205*
X2066200Y1606048*
X2066002Y1606508D02*
X2065922Y1606893D01*
X2066088Y1606453*
X2066088*
X2066002Y1606508*
X2066088Y1606453D02*
X2065922Y1606893D01*
X2066189Y1606346*
X2066189*
X2066088Y1606453*
X2066240Y1606215D02*
X2066189Y1606346D01*
X2066251Y1606893*
X2066251*
X2066240Y1606215*
X2065922Y1606893D02*
X2066251D01*
X2066189Y1606346*
X2066189*
X2065922Y1606893*
X2066251D02*
X2066261Y1605334D01*
X2066240Y1606215*
X2066240*
X2066251Y1606893*
X2066240Y1606215D02*
X2066261Y1605334D01*
X2066240Y1606139*
X2066240*
Y1606215*
X2066261Y1605334D02*
X2066205Y1605379D01*
X2066240Y1606139*
X2066240*
X2066261Y1605334*
Y1605005D02*
X2066271Y1604478D01*
X2066149Y1604883*
X2066149*
X2066261Y1605005*
X2066271Y1604478D02*
X2066099Y1604387D01*
X2066149Y1604883*
X2066149*
X2066271Y1604478*
X2066261Y1605005D02*
X2066296Y1605101D01*
X2066271Y1604478*
X2066271*
X2066261Y1605005*
Y1605334D02*
X2066251Y1606893D01*
X2066296Y1605207*
X2066296*
X2066261Y1605334*
X2066251Y1606893D02*
X2066322Y1606913D01*
X2066296Y1605207*
X2066296*
X2066251Y1606893*
X2066322Y1606913D02*
X2066438Y1604564D01*
X2066296Y1605207*
X2066296*
X2066322Y1606913*
X2066296Y1605207D02*
X2066438Y1604564D01*
X2066296Y1605101*
X2066296*
Y1605207*
X2066438Y1604564D02*
X2066271Y1604478D01*
X2066296Y1605101*
X2066296*
X2066438Y1604564*
X2066322Y1606913D02*
X2066463Y1607050D01*
X2066438Y1604564*
X2066438*
X2066322Y1606913*
X2066463Y1607050D02*
X2066509Y1607161D01*
X2066490Y1606486*
X2066490*
X2066463Y1607050*
X2066518Y1606650D02*
X2066490Y1606486D01*
X2066509Y1607161*
X2066509*
X2066518Y1606650*
X2066540Y1605786D02*
X2066579Y1604625D01*
X2066491Y1606216*
X2066491*
X2066540Y1605786*
X2066490Y1606486D02*
X2066491Y1606216D01*
X2066463Y1607050*
X2066463*
X2066490Y1606486*
X2066463Y1607050D02*
X2066491Y1606216D01*
X2066438Y1604564*
X2066438*
X2066463Y1607050*
X2066579Y1604625D02*
X2066438Y1604564D01*
X2066491Y1606216*
X2066491*
X2066579Y1604625*
X2066570Y1603972D02*
X2066595Y1604058D01*
Y1603866*
X2066595*
X2066570Y1603972*
X2066540Y1605786D02*
X2066599Y1605352D01*
X2066579Y1604625*
X2066579*
X2066540Y1605786*
X2066509Y1607161D02*
X2066600Y1607374D01*
X2066518Y1606650*
X2066518*
X2066509Y1607161*
X2066641Y1604164D02*
X2066656Y1603810D01*
X2066595Y1604058*
X2066595*
X2066641Y1604164*
X2066656Y1603810D02*
X2066595Y1603866D01*
Y1604058*
X2066595*
X2066656Y1603810*
X2066696Y1604625D02*
X2066579D01*
X2066599Y1605352*
X2066599*
X2066696Y1604625*
X2066641Y1604164D02*
X2066701Y1604301D01*
X2066656Y1603810*
X2066656*
X2066641Y1604164*
X2066599Y1605352D02*
X2066708Y1605086D01*
X2066696Y1604625*
X2066696*
X2066599Y1605352*
X2066711Y1603810D02*
X2066656D01*
X2066701Y1604301*
X2066701*
X2066711Y1603810*
X2066701Y1604301D02*
X2066737Y1604432D01*
X2066711Y1603810*
X2066711*
X2066701Y1604301*
X2066737Y1604574D02*
X2066696Y1604625D01*
X2066708Y1605086*
X2066708*
X2066737Y1604574*
X2066785Y1607081D02*
X2066518Y1606650D01*
X2066600Y1607374*
X2066600*
X2066785Y1607081*
X2066737Y1604574D02*
X2066792Y1603876D01*
X2066737Y1604432*
X2066737*
Y1604574*
X2066792Y1603876D02*
X2066711Y1603810D01*
X2066737Y1604432*
X2066737*
X2066792Y1603876*
X2066600Y1607374D02*
X2066807Y1607490D01*
X2066785Y1607081*
X2066785*
X2066600Y1607374*
X2066737Y1604574D02*
X2066708Y1605086D01*
X2066792Y1603876*
X2066792*
X2066737Y1604574*
X2066708Y1605086D02*
X2066841Y1604894D01*
X2066792Y1603876*
X2066792*
X2066708Y1605086*
X2066848Y1603972D02*
X2066792Y1603876D01*
X2066841Y1604894*
X2066841*
X2066848Y1603972*
X2066841Y1604894*
X2066929Y1604109*
X2066929*
X2066848Y1603972*
X2066841Y1604894D02*
X2066998Y1604760D01*
X2066929Y1604109*
X2066929*
X2066841Y1604894*
X2067065Y1604190D02*
X2066929Y1604109D01*
X2066998Y1604760*
X2066998*
X2067065Y1604190*
X2067107Y1607602D02*
X2067159Y1607350D01*
X2066807Y1607490*
X2066807*
X2067107Y1607602*
X2067159Y1607350D02*
X2066785Y1607081D01*
X2066807Y1607490*
X2066807*
X2067159Y1607350*
X2066998Y1604760D02*
X2067194Y1604652D01*
X2067065Y1604190*
X2067065*
X2066998Y1604760*
X2067248Y1604301D02*
X2067065Y1604190D01*
X2067194Y1604652*
X2067194*
X2067248Y1604301*
X2067194Y1604652D02*
X2067275Y1604624D01*
X2067248Y1604301*
X2067248*
X2067194Y1604652*
X2067107Y1607602D02*
X2067299Y1607647D01*
X2067159Y1607350*
X2067159*
X2067107Y1607602*
X2067395Y1604357D02*
X2067248Y1604301D01*
X2067275Y1604624*
X2067275*
X2067395Y1604357*
X2067461Y1607647D02*
X2067597Y1607455D01*
X2067299Y1607647*
X2067299*
X2067461*
X2067597Y1607455D02*
X2067159Y1607350D01*
X2067299Y1607647*
X2067299*
X2067597Y1607455*
X2067461Y1607647D02*
X2067597Y1607784D01*
Y1607455*
X2067597*
X2067461Y1607647*
X2067395Y1604357D02*
X2067275Y1604624D01*
X2067613Y1604377*
X2067613*
X2067395Y1604357*
X2067275Y1604624D02*
X2067835D01*
X2067613Y1604377*
X2067613*
X2067275Y1604624*
X2067911Y1604377D02*
X2067613D01*
X2067835Y1604624*
X2067835*
X2067911Y1604377*
X2067835Y1604624*
X2068039Y1604402*
X2068039*
X2067911Y1604377*
X2067835Y1604624D02*
X2068048Y1604652D01*
X2068039Y1604402*
X2068039*
X2067835Y1604624*
X2067946Y1608072D02*
X2068054Y1607966D01*
Y1607718*
X2068054*
X2067946Y1608072*
X2068059Y1606244D02*
X2067999Y1606321D01*
X2068052Y1606405*
X2068052*
X2068059Y1606244*
X2068129Y1607652D02*
X2068188Y1607455D01*
X2068054Y1607718*
X2068054*
X2068129Y1607652*
X2067946Y1608072D02*
X2068054Y1607718D01*
X2067764Y1608072*
X2067764*
X2067946*
X2068054Y1607718D02*
X2068188Y1607455D01*
X2067764Y1608072*
X2067764*
X2068054Y1607718*
X2067764Y1608072D02*
X2068188Y1607455D01*
X2067693Y1607961*
X2067693*
X2067764Y1608072*
X2067693Y1607961D02*
X2068188Y1607455D01*
X2067597Y1607784*
X2067597*
X2067693Y1607961*
X2068188Y1607455D02*
X2067597D01*
Y1607784*
X2067597*
X2068188Y1607455*
X2068210Y1604448D02*
X2068039Y1604402D01*
X2068048Y1604652*
X2068048*
X2068210Y1604448*
X2068059Y1606244D02*
X2068052Y1606405D01*
X2068216Y1606244*
X2068216*
X2068059*
X2068052Y1606405D02*
X2068240Y1606570D01*
X2068216Y1606244*
X2068216*
X2068052Y1606405*
X2068048Y1604652D02*
X2068265Y1604736D01*
X2068210Y1604448*
X2068210*
X2068048Y1604652*
X2068129Y1607652D02*
X2068296D01*
X2068188Y1607455*
X2068188*
X2068129Y1607652*
X2068345Y1607427D02*
X2068188Y1607455D01*
X2068296Y1607652*
X2068296*
X2068345Y1607427*
X2068373Y1606975D02*
X2068377Y1606374D01*
X2068317Y1606730*
X2068317*
X2068373Y1606975*
X2068317Y1606730D02*
X2068377Y1606374D01*
X2068240Y1606570*
X2068240*
X2068317Y1606730*
X2068377Y1606374D02*
X2068216Y1606244D01*
X2068240Y1606570*
X2068240*
X2068377Y1606374*
X2068373Y1606975D02*
X2068401Y1607350D01*
X2068377Y1606374*
X2068377*
X2068373Y1606975*
X2068408Y1604493D02*
X2068210Y1604448D01*
X2068265Y1604736*
X2068265*
X2068408Y1604493*
X2068382Y1609779D02*
X2068408Y1609844D01*
X2068403Y1609672*
X2068403*
X2068382Y1609779*
X2068453Y1609596D02*
X2068403Y1609672D01*
X2068408Y1609844*
X2068408*
X2068453Y1609596*
X2068408Y1609844D02*
X2068468Y1609905D01*
X2068453Y1609596*
X2068453*
X2068408Y1609844*
X2068486Y1606542D02*
X2068377Y1606374D01*
X2068401Y1607350*
X2068401*
X2068486Y1606542*
X2068265Y1604736D02*
X2068510Y1604866D01*
X2068408Y1604493*
X2068408*
X2068265Y1604736*
X2068554Y1609475D02*
X2068453Y1609596D01*
X2068468Y1609905*
X2068468*
X2068554Y1609475*
X2068345Y1607427D02*
X2068296Y1607652D01*
X2068401Y1607350*
X2068401*
X2068345Y1607427*
X2068486Y1606542D02*
X2068401Y1607350D01*
X2068566Y1606779*
X2068566*
X2068486Y1606542*
X2068566Y1606779D02*
X2068401Y1607350D01*
X2068569Y1607606*
X2068569*
X2068566Y1606779*
X2068296Y1607652D02*
X2068569Y1607606D01*
X2068401Y1607350*
X2068401*
X2068296Y1607652*
X2068574Y1608316D02*
X2068549Y1608437D01*
Y1608563*
X2068549*
X2068574Y1608316*
X2068549Y1608563D02*
X2068584Y1608639D01*
X2068574Y1608316*
X2068574*
X2068549Y1608563*
X2068468Y1609905D02*
X2068600D01*
X2068554Y1609475*
X2068554*
X2068468Y1609905*
X2068619Y1606996D02*
X2068566Y1606779D01*
X2068569Y1607606*
X2068569*
X2068619Y1606996*
X2068609Y1601762D02*
X2068621Y1601313D01*
X2068556Y1601600*
X2068556*
X2068609Y1601762*
X2068621Y1601313D02*
X2068536Y1601394D01*
X2068556Y1601600*
X2068556*
X2068621Y1601313*
X2068640Y1608230D02*
X2068574Y1608316D01*
X2068584Y1608639*
X2068584*
X2068640Y1608230*
X2068584Y1608639D02*
X2068645Y1608700D01*
X2068640Y1608230*
X2068640*
X2068584Y1608639*
X2068656Y1609354D02*
X2068554Y1609475D01*
X2068600Y1609905*
X2068600*
X2068656Y1609354*
X2068609Y1601762D02*
X2068666Y1601888D01*
X2068621Y1601313*
X2068621*
X2068609Y1601762*
X2068671Y1604635D02*
X2068408Y1604493D01*
X2068510Y1604866*
X2068510*
X2068671Y1604635*
X2068675Y1608164D02*
X2068640Y1608230D01*
X2068645Y1608700*
X2068645*
X2068675Y1608164*
X2068690Y1601329D02*
X2068621Y1601313D01*
X2068666Y1601888*
X2068666*
X2068690Y1601329*
X2068645Y1608700D02*
X2068691Y1608796D01*
X2068675Y1608164*
X2068675*
X2068645Y1608700*
X2068510Y1604866D02*
X2068699Y1605026D01*
X2068671Y1604635*
X2068671*
X2068510Y1604866*
X2068721Y1608144D02*
X2068675Y1608164D01*
X2068691Y1608796*
X2068691*
X2068721Y1608144*
X2068666Y1601888D02*
X2068722Y1601997D01*
X2068690Y1601329*
X2068690*
X2068666Y1601888*
X2068691Y1608796D02*
X2068746Y1608913D01*
X2068721Y1608144*
X2068721*
X2068691Y1608796*
X2068751Y1601366D02*
X2068690Y1601329D01*
X2068722Y1601997*
X2068722*
X2068751Y1601366*
X2068772Y1608169D02*
X2068721Y1608144D01*
X2068746Y1608913*
X2068746*
X2068772Y1608169*
X2068746Y1608913D02*
X2068782Y1609055D01*
X2068772Y1608169*
X2068772*
X2068746Y1608913*
X2068619Y1606996D02*
X2068569Y1607606D01*
X2068647Y1607185*
X2068647*
X2068619Y1606996*
X2068647Y1607185D02*
X2068569Y1607606D01*
X2068724Y1607185*
X2068724*
X2068647*
X2068724D02*
X2068569Y1607606D01*
X2068780Y1607105*
X2068780*
X2068724Y1607185*
X2068569Y1607606D02*
X2068787Y1607460D01*
X2068780Y1607105*
X2068780*
X2068569Y1607606*
X2068782Y1609156D02*
X2068807Y1608224D01*
X2068782Y1609055*
X2068782*
Y1609156*
X2068807Y1608224D02*
X2068772Y1608169D01*
X2068782Y1609055*
X2068782*
X2068807Y1608224*
X2068656Y1609354D02*
X2068600Y1609905D01*
X2068782Y1609156*
X2068782*
X2068656Y1609354*
X2068807Y1608224D02*
X2068782Y1609156D01*
X2068817Y1609713*
X2068817*
X2068807Y1608224*
X2068600Y1609905D02*
X2068817Y1609713D01*
X2068782Y1609156*
X2068782*
X2068600Y1609905*
X2068807Y1605159D02*
X2068843Y1604782D01*
X2068699Y1605026*
X2068699*
X2068807Y1605159*
X2068843Y1604782D02*
X2068671Y1604635D01*
X2068699Y1605026*
X2068699*
X2068843Y1604782*
X2068847Y1608316D02*
X2068807Y1608224D01*
X2068817Y1609713*
X2068817*
X2068847Y1608316*
X2068860Y1606965D02*
X2068780Y1607105D01*
X2068787Y1607460*
X2068787*
X2068860Y1606965*
X2068844Y1601349D02*
X2068876Y1600936D01*
X2068815Y1601183*
X2068815*
X2068844Y1601349*
X2068815Y1601183D02*
X2068876Y1600936D01*
X2068815Y1601069*
X2068815*
Y1601183*
X2068876Y1600936D02*
X2068815Y1600976D01*
Y1601069*
X2068815*
X2068876Y1600936*
X2068751Y1601366D02*
X2068722Y1601997D01*
X2068811Y1601386*
X2068811*
X2068751Y1601366*
X2068811Y1601386D02*
X2068722Y1601997D01*
X2068844Y1601349*
X2068844*
X2068811Y1601386*
X2068876Y1600936D02*
X2068844Y1601349D01*
X2068892Y1602370*
X2068892*
X2068876Y1600936*
X2068722Y1601997D02*
X2068892Y1602370D01*
X2068844Y1601349*
X2068844*
X2068722Y1601997*
X2068807Y1605159D02*
X2068916Y1605383D01*
X2068843Y1604782*
X2068843*
X2068807Y1605159*
X2068787Y1607460D02*
X2068934Y1607283D01*
X2068860Y1606965*
X2068860*
X2068787Y1607460*
X2068940Y1606730D02*
X2068860Y1606965D01*
X2068934Y1607283*
X2068934*
X2068940Y1606730*
X2068965Y1600989D02*
X2068876Y1600936D01*
X2068892Y1602370*
X2068892*
X2068965Y1600989*
X2068892Y1602370D02*
X2068985Y1602524D01*
X2068965Y1600989*
X2068965*
X2068892Y1602370*
X2068975Y1605604D02*
X2068989Y1604933D01*
X2068916Y1605383*
X2068916*
X2068975Y1605604*
X2068989Y1604933D02*
X2068843Y1604782D01*
X2068916Y1605383*
X2068916*
X2068989Y1604933*
X2068975Y1605604D02*
X2068996Y1605736D01*
X2068989Y1604933*
X2068989*
X2068975Y1605604*
X2068847Y1608316D02*
X2068817Y1609713D01*
X2068888Y1608422*
X2068888*
X2068847Y1608316*
X2068888Y1608422D02*
X2068817Y1609713D01*
X2068938Y1608528*
X2068938*
X2068888Y1608422*
X2068817Y1609713D02*
X2068999Y1609541D01*
X2068938Y1608528*
X2068938*
X2068817Y1609713*
X2069002Y1601029D02*
X2068965Y1600989D01*
X2068985Y1602524*
X2068985*
X2069002Y1601029*
X2069004Y1608660D02*
X2068938Y1608528D01*
X2068999Y1609541*
X2068999*
X2069004Y1608660*
X2068940Y1606730D02*
X2068934Y1607283D01*
X2068996Y1606486*
X2068996*
X2068940Y1606730*
X2068934Y1607283D02*
X2069056Y1606999D01*
X2068996Y1606486*
X2068996*
X2068934Y1607283*
X2068999Y1609541D02*
X2069061Y1609505D01*
X2069004Y1608660*
X2069004*
X2068999Y1609541*
X2069002Y1601029D02*
X2068985Y1602524D01*
X2069062Y1601053*
X2069062*
X2069002Y1601029*
X2069062Y1601053D02*
X2068985Y1602524D01*
X2069078Y1601013*
X2069078*
X2069062Y1601053*
X2068985Y1602524D02*
X2069079Y1602775D01*
X2069078Y1601013*
X2069078*
X2068985Y1602524*
X2069056Y1606999D02*
X2069096Y1605136D01*
X2068996Y1606486*
X2068996*
X2069056Y1606999*
X2068996Y1606486D02*
X2069096Y1605136D01*
X2068996Y1605736*
X2068996*
Y1606486*
X2069096Y1605136D02*
X2068989Y1604933D01*
X2068996Y1605736*
X2068996*
X2069096Y1605136*
X2069106Y1608761D02*
X2069004Y1608660D01*
X2069061Y1609505*
X2069061*
X2069106Y1608761*
X2069056Y1606999D02*
X2069107Y1606736D01*
X2069096Y1605136*
X2069096*
X2069056Y1606999*
X2069103Y1603030D02*
X2069119Y1600806D01*
X2069079Y1602775*
X2069079*
X2069103Y1603030*
X2069079Y1602775D02*
X2069119Y1600806D01*
X2069078Y1601013*
X2069078*
X2069079Y1602775*
X2069078Y1601013D02*
X2069119Y1600806D01*
X2069078Y1600948*
X2069078*
Y1601013*
Y1600948D02*
X2069119Y1600806D01*
X2069078Y1600875*
X2069078*
Y1600948*
X2069119Y1600806D02*
X2069078D01*
Y1600875*
X2069078*
X2069119Y1600806*
X2069061Y1609505D02*
X2069127D01*
X2069106Y1608761*
X2069106*
X2069061Y1609505*
X2069103Y1603030D02*
X2069144Y1603225D01*
X2069119Y1600806*
X2069119*
X2069103Y1603030*
X2069183Y1606543D02*
X2069197Y1605298D01*
X2069107Y1606736*
X2069107*
X2069183Y1606543*
X2069197Y1605298D02*
X2069096Y1605136D01*
X2069107Y1606736*
X2069107*
X2069197Y1605298*
X2069182Y1609556D02*
X2069218Y1608812D01*
X2069127Y1609505*
X2069127*
X2069182Y1609556*
X2069218Y1608812D02*
X2069106Y1608761D01*
X2069127Y1609505*
X2069127*
X2069218Y1608812*
X2069220Y1600867D02*
X2069119Y1600806D01*
X2069144Y1603225*
X2069144*
X2069220Y1600867*
X2069183Y1606543D02*
X2069238Y1606391D01*
X2069238D02*
X2069197Y1605298D01*
X2069197*
X2069183Y1606543*
X2069144Y1603225D02*
X2069261Y1603484D01*
X2069220Y1600867*
X2069220*
X2069144Y1603225*
X2069218Y1608812D02*
X2069182Y1609556D01*
X2069263Y1608812*
X2069263*
X2069218*
X2069182Y1609556D02*
X2069273Y1609703D01*
X2069263Y1608812*
X2069263*
X2069182Y1609556*
X2069304Y1608776D02*
X2069263Y1608812D01*
X2069273Y1609703*
X2069273*
X2069304Y1608776*
X2069273Y1609703D02*
X2069314Y1609890D01*
X2069304Y1608776*
X2069304*
X2069273Y1609703*
X2069284Y1606321D02*
X2069333Y1605495D01*
X2069238Y1606391*
X2069238D02*
X2069238D01*
X2069238D02*
X2069284Y1606321D01*
X2069333Y1605495D02*
X2069197Y1605298D01*
X2069238Y1606391*
X2069238D02*
X2069238D01*
X2069238D02*
X2069333Y1605495D01*
X2069284Y1606321D02*
X2069339Y1606250D01*
X2069333Y1605495*
X2069333*
X2069284Y1606321*
X2069349Y1610143D02*
X2069374Y1608716D01*
X2069314Y1610087*
X2069314*
X2069349Y1610143*
X2069314Y1610087D02*
X2069374Y1608716D01*
X2069314Y1609890*
X2069314*
Y1610087*
X2069374Y1608716D02*
X2069304Y1608776D01*
X2069314Y1609890*
X2069314*
X2069374Y1608716*
X2069383Y1603747D02*
Y1601078D01*
X2069261Y1603484*
X2069261*
X2069383Y1603747*
Y1601078D02*
X2069220Y1600867D01*
X2069261Y1603484*
X2069261*
X2069383Y1601078*
X2069374Y1608716D02*
X2069349Y1610143D01*
X2069425Y1608579*
X2069425*
X2069374Y1608716*
X2069349Y1610143D02*
X2069425Y1610208D01*
Y1608579*
X2069425*
X2069349Y1610143*
X2069430Y1606194D02*
X2069448Y1605542D01*
X2069339Y1606250*
X2069339*
X2069430Y1606194*
X2069448Y1605542D02*
X2069333Y1605495D01*
X2069339Y1606250*
X2069339*
X2069448Y1605542*
X2069450Y1608457D02*
X2069425Y1608579D01*
Y1610208*
X2069425*
X2069450Y1608457*
X2069476Y1601815D02*
X2069484Y1601248D01*
X2069423Y1601948*
X2069423*
X2069476Y1601815*
X2069423Y1601948D02*
X2069484Y1601248D01*
X2069387Y1602094*
X2069387*
X2069423Y1601948*
X2069484Y1601248D02*
X2069383Y1601078D01*
X2069387Y1602094*
X2069387*
X2069484Y1601248*
X2069425Y1610208D02*
X2069491D01*
X2069450Y1608457*
X2069450D02*
X2069450D01*
X2069450D02*
X2069425Y1610208D01*
X2069492Y1602374D02*
X2069403Y1602341D01*
X2069431Y1602708*
X2069431*
X2069492Y1602374*
X2069496Y1608280D02*
X2069450Y1608457D01*
X2069450D02*
X2069491Y1610208D01*
X2069491*
X2069496Y1608280*
X2069484Y1601248D02*
X2069476Y1601815D01*
X2069524Y1601422*
X2069524*
X2069484Y1601248*
X2069476Y1601815D02*
X2069524Y1601673D01*
Y1601422*
X2069524*
X2069476Y1601815*
X2069431Y1602708D02*
X2069528Y1602718D01*
X2069492Y1602374*
X2069492*
X2069431Y1602708*
X2069546Y1608108D02*
X2069496Y1608280D01*
X2069532Y1609423*
X2069532*
X2069546Y1608108*
X2069383Y1601078D02*
Y1603747D01*
X2069387Y1602094*
X2069387*
X2069383Y1601078*
X2069387Y1602094D02*
X2069383Y1603747D01*
X2069387Y1602272*
X2069387*
Y1602094*
Y1602272D02*
X2069383Y1603747D01*
X2069403Y1602341*
X2069403*
X2069387Y1602272*
X2069403Y1602341D02*
X2069383Y1603747D01*
X2069431Y1602708*
X2069431*
X2069403Y1602341*
X2069431Y1602708D02*
X2069383Y1603747D01*
X2069431Y1602814*
X2069431*
Y1602708*
Y1602814D02*
X2069383Y1603747D01*
X2069485Y1602950*
X2069485*
X2069431Y1602814*
X2069485Y1602950D02*
X2069383Y1603747D01*
X2069540Y1603087*
X2069540*
X2069485Y1602950*
X2069383Y1603747D02*
X2069557Y1604043D01*
X2069540Y1603087*
X2069540*
X2069383Y1603747*
X2069430Y1606194D02*
X2069562Y1606139D01*
X2069448Y1605542*
X2069448*
X2069430Y1606194*
X2069532Y1609423D02*
X2069562Y1609297D01*
X2069546Y1608108*
X2069546*
X2069532Y1609423*
X2069496Y1608280D02*
X2069491Y1610208D01*
X2069532Y1609423*
X2069532*
X2069496Y1608280*
X2069532Y1609423D02*
X2069491Y1610208D01*
X2069532Y1609514*
X2069532*
Y1609423*
X2069491Y1610208D02*
X2069567Y1610117D01*
X2069532Y1609514*
X2069532*
X2069491Y1610208*
X2069573Y1605542D02*
X2069448D01*
X2069562Y1606139*
X2069562*
X2069573Y1605542*
X2069582Y1609794D02*
X2069532Y1609514D01*
X2069567Y1610117*
X2069567*
X2069582Y1609794*
X2069602Y1607936D02*
X2069546Y1608108D01*
X2069562Y1609297*
X2069562*
X2069602Y1607936*
X2069582Y1609794D02*
X2069567Y1610117D01*
X2069617Y1609869*
X2069617*
X2069582Y1609794*
X2069567Y1610117D02*
X2069617Y1610041D01*
Y1609869*
X2069617*
X2069567Y1610117*
X2069644Y1603326D02*
X2069540Y1603087D01*
X2069557Y1604043*
X2069557*
X2069644Y1603326*
X2069562Y1606139D02*
X2069663D01*
X2069573Y1605542*
X2069573*
X2069562Y1606139*
X2069557Y1604043D02*
X2069694Y1604249D01*
X2069644Y1603326*
X2069644*
X2069557Y1604043*
X2069593Y1602775D02*
X2069694Y1602374D01*
X2069528Y1602718*
X2069528*
X2069593Y1602775*
X2069694Y1602374D02*
X2069492D01*
X2069528Y1602718*
X2069528*
X2069694Y1602374*
X2069593Y1602775D02*
X2069703Y1602844D01*
X2069694Y1602374*
X2069694*
X2069593Y1602775*
X2069739Y1606159D02*
Y1605485D01*
X2069663Y1606139*
X2069663*
X2069739Y1606159*
Y1605485D02*
X2069573Y1605542D01*
X2069663Y1606139*
X2069663*
X2069739Y1605485*
X2069755Y1603543D02*
X2069644Y1603326D01*
X2069694Y1604249*
X2069694*
X2069755Y1603543*
X2069602Y1607936D02*
X2069562Y1609297D01*
X2069663Y1607729*
X2069663*
X2069602Y1607936*
X2069663Y1607729D02*
X2069562Y1609297D01*
X2069749Y1607566*
X2069749*
X2069663Y1607729*
X2069562Y1609297D02*
X2069759Y1608912D01*
X2069749Y1607566*
X2069749*
X2069562Y1609297*
X2069804Y1602909D02*
X2069828Y1602374D01*
X2069703Y1602844*
X2069703*
X2069804Y1602909*
X2069828Y1602374D02*
X2069694D01*
X2069703Y1602844*
X2069703*
X2069828Y1602374*
X2069694Y1604249D02*
X2069832Y1604453D01*
X2069755Y1603543*
X2069755*
X2069694Y1604249*
X2069850Y1607313D02*
X2069749Y1607566D01*
X2069759Y1608912*
X2069759*
X2069850Y1607313*
X2069862Y1603729D02*
X2069755Y1603543D01*
X2069832Y1604453*
X2069832*
X2069862Y1603729*
X2069739Y1606159D02*
X2069865Y1606270D01*
X2069739Y1605485*
X2069739*
Y1606159*
X2069881Y1605348D02*
X2069739Y1605485D01*
X2069865Y1606270*
X2069865*
X2069881Y1605348*
X2069804Y1602909D02*
X2069925Y1602953D01*
X2069828Y1602374*
X2069828*
X2069804Y1602909*
X2069832Y1604453D02*
X2069925Y1604574D01*
X2069862Y1603729*
X2069862*
X2069832Y1604453*
X2069865Y1606270D02*
X2069941Y1606447D01*
X2069881Y1605348*
X2069881*
X2069865Y1606270*
X2069946Y1605820D02*
X2069954Y1605153D01*
X2069945Y1605916*
X2069945*
X2069946Y1605820*
X2069941Y1606447D02*
X2069945Y1605916D01*
X2069881Y1605348*
X2069881*
X2069941Y1606447*
X2069954Y1605153D02*
X2069881Y1605348D01*
X2069945Y1605916*
X2069945*
X2069954Y1605153*
X2069969Y1603868*
X2069954Y1604963*
X2069954*
Y1605153*
Y1604963D02*
X2069969Y1603868D01*
X2069954Y1604704*
X2069954*
Y1604963*
Y1604704D02*
X2069969Y1603868D01*
X2069925Y1604574*
X2069925*
X2069954Y1604704*
X2069969Y1603868D02*
X2069862Y1603729D01*
X2069925Y1604574*
X2069925*
X2069969Y1603868*
X2069941Y1606447D02*
X2069972Y1606564D01*
X2069945Y1605916*
X2069945*
X2069941Y1606447*
X2069850Y1607313D02*
X2069759Y1608912D01*
X2069916Y1607176*
X2069916*
X2069850Y1607313*
X2069916Y1607176D02*
X2069759Y1608912D01*
X2069972Y1607019*
X2069972*
X2069916Y1607176*
X2069759Y1608912D02*
X2069972Y1608462D01*
Y1607019*
X2069972*
X2069759Y1608912*
X2069978Y1602475D02*
X2069828Y1602374D01*
X2069925Y1602953*
X2069925*
X2069978Y1602475*
X2069954Y1605153D02*
X2069946Y1605820D01*
X2069969Y1603868*
X2069969*
X2069954Y1605153*
X2069946Y1605820D02*
X2070022Y1605687D01*
X2069969Y1603868*
X2069969*
X2069946Y1605820*
X2069925Y1602953D02*
X2070038Y1602937D01*
X2069978Y1602475*
X2069978*
X2069925Y1602953*
X2070075Y1602588D02*
X2069978Y1602475D01*
X2070038Y1602937*
X2070038*
X2070075Y1602588*
X2070038Y1602937D02*
X2070091Y1602876D01*
X2070075Y1602588*
X2070075*
X2070038Y1602937*
X2070094Y1603985D02*
X2069969Y1603868D01*
X2070022Y1605687*
X2070022*
X2070094Y1603985*
X2069972Y1608462D02*
X2070097Y1606084D01*
X2069972Y1607019*
X2069972*
Y1608462*
Y1607019D02*
X2070097Y1606084D01*
X2069972Y1606564*
X2069972*
Y1607019*
X2070097Y1606084D02*
X2069945Y1605916D01*
X2069972Y1606564*
X2069972*
X2070097Y1606084*
X2070115Y1602730D02*
X2070075Y1602588D01*
X2070091Y1602876*
X2070091*
X2070115Y1602730*
X2070022Y1605687D02*
X2070183Y1605479D01*
X2070094Y1603985*
X2070094*
X2070022Y1605687*
X2069972Y1608462D02*
X2070291Y1607601D01*
X2070097Y1606084*
X2070097*
X2069972Y1608462*
X2070301Y1606272D02*
X2070097Y1606084D01*
X2070291Y1607601*
X2070291*
X2070301Y1606272*
X2070325Y1604185D02*
X2070094Y1603985D01*
X2070183Y1605479*
X2070183*
X2070325Y1604185*
X2070183Y1605479D02*
X2070391Y1605232D01*
X2070325Y1604185*
X2070325*
X2070183Y1605479*
X2070291Y1607601D02*
X2070402Y1607353D01*
X2070301Y1606272*
X2070301*
X2070291Y1607601*
X2070454Y1604275D02*
X2070325Y1604185D01*
X2070391Y1605232*
X2070391*
X2070454Y1604275*
X2070543Y1606456D02*
X2070301Y1606272D01*
X2070402Y1607353*
X2070402*
X2070543Y1606456*
X2070402Y1607353D02*
X2070564Y1607171D01*
X2070543Y1606456*
X2070543*
X2070402Y1607353*
X2070454Y1604275D02*
X2070391Y1605232D01*
X2070586Y1604275*
X2070586*
X2070454*
X2070391Y1605232D02*
X2070619Y1604995D01*
X2070586Y1604275*
X2070586*
X2070391Y1605232*
X2070693Y1604218D02*
X2070586Y1604275D01*
X2070619Y1604995*
X2070619*
X2070693Y1604218*
X2070619Y1604995D02*
X2070846Y1604786D01*
X2070693Y1604218*
X2070693*
X2070619Y1604995*
X2070671Y1607110D02*
X2070863Y1606667D01*
X2070564Y1607171*
X2070564*
X2070671Y1607110*
X2070863Y1606667D02*
X2070543Y1606456D01*
X2070564Y1607171*
X2070564*
X2070863Y1606667*
X2070871Y1604114D02*
X2070693Y1604218D01*
X2070846Y1604786*
X2070846*
X2070871Y1604114*
X2070671Y1607110D02*
X2070939D01*
X2070863Y1606667*
X2070863*
X2070671Y1607110*
X2070846Y1604786D02*
X2071017Y1604654D01*
X2070871Y1604114*
X2070871*
X2070846Y1604786*
X2071022Y1604058D02*
X2070871Y1604114D01*
X2071017Y1604654*
X2071017*
X2071022Y1604058*
X2071054Y1606780D02*
X2070863Y1606667D01*
X2070939Y1607110*
X2070939*
X2071054Y1606780*
X2070939Y1607110D02*
X2071096Y1607211D01*
X2071054Y1606780*
X2071054*
X2070939Y1607110*
X2071017Y1604654D02*
X2071178Y1604606D01*
X2071022Y1604058*
X2071022*
X2071017Y1604654*
X2071237Y1604058D02*
X2071022D01*
X2071178Y1604606*
X2071178*
X2071237Y1604058*
X2071178Y1604606D02*
X2071263D01*
X2071237Y1604058*
X2071237*
X2071178Y1604606*
X2071192Y1607318D02*
X2071266Y1606862D01*
X2071096Y1607211*
X2071096*
X2071192Y1607318*
X2071266Y1606862D02*
X2071054Y1606780D01*
X2071096Y1607211*
X2071096*
X2071266Y1606862*
X2071192Y1607318D02*
X2071324Y1607399D01*
X2071266Y1606862*
X2071266*
X2071192Y1607318*
X2071394Y1607399D02*
X2071399Y1606862D01*
X2071324Y1607399*
X2071324*
X2071394*
X2071399Y1606862D02*
X2071266D01*
X2071324Y1607399*
X2071324*
X2071399Y1606862*
X2071371Y1604625D02*
X2071401Y1604216D01*
X2071263Y1604606*
X2071263*
X2071371Y1604625*
X2071401Y1604216D02*
X2071237Y1604058D01*
X2071263Y1604606*
X2071263*
X2071401Y1604216*
X2071394Y1607399D02*
X2071440Y1607363D01*
X2071399Y1606862*
X2071399*
X2071394Y1607399*
X2071371Y1604625D02*
X2071450Y1604681D01*
X2071401Y1604216*
X2071401*
X2071371Y1604625*
X2071555Y1606725D02*
X2071399Y1606862D01*
X2071440Y1607363*
X2071440*
X2071555Y1606725*
X2071440Y1607363D02*
X2071642Y1607181D01*
X2071555Y1606725*
X2071555*
X2071440Y1607363*
X2071586Y1604787D02*
X2071642Y1604380D01*
X2071450Y1604681*
X2071450*
X2071586Y1604787*
X2071642Y1604380D02*
X2071401Y1604216D01*
X2071450Y1604681*
X2071450*
X2071642Y1604380*
X2071738Y1606526D02*
X2071555Y1606725D01*
X2071642Y1607181*
X2071642*
X2071738Y1606526*
X2071642Y1607181D02*
X2071794Y1607019D01*
X2071738Y1606526*
X2071738*
X2071642Y1607181*
X2071586Y1604787D02*
X2071801Y1604979D01*
X2071642Y1604380*
X2071642*
X2071586Y1604787*
X2071859Y1604463D02*
X2071642Y1604380D01*
X2071801Y1604979*
X2071801*
X2071859Y1604463*
X2071801Y1604979*
X2071966Y1604463*
X2071966*
X2071859*
X2071801Y1604979D02*
X2071969Y1605139D01*
X2071966Y1604463*
X2071966*
X2071801Y1604979*
X2071917Y1606944D02*
X2071969Y1606229D01*
X2071794Y1607019*
X2071794*
X2071917Y1606944*
X2071969Y1606229D02*
X2071738Y1606526D01*
X2071794Y1607019*
X2071794*
X2071969Y1606229*
X2071917Y1606944D02*
X2072043D01*
X2071969Y1606229*
X2071969*
X2071917Y1606944*
X2072098Y1604438D02*
X2071966Y1604463D01*
X2071969Y1605139*
X2071969*
X2072098Y1604438*
X2072118Y1606014D02*
X2071969Y1606229D01*
X2072043Y1606944*
X2072043*
X2072118Y1606014*
X2071969Y1605139D02*
X2072125Y1605322D01*
X2072098Y1604438*
X2072098*
X2071969Y1605139*
X2072043Y1606944D02*
X2072154Y1607060D01*
X2072118Y1606014*
X2072118*
X2072043Y1606944*
X2072235Y1605838D02*
X2072118Y1606014D01*
X2072154Y1607060*
X2072154*
X2072235Y1605838*
X2072154Y1607060D02*
X2072240Y1607207D01*
X2072235Y1605838*
X2072235*
X2072154Y1607060*
X2072235Y1605510D02*
X2072258Y1604303D01*
X2072125Y1605322*
X2072125*
X2072235Y1605510*
X2072258Y1604303D02*
X2072098Y1604438D01*
X2072125Y1605322*
X2072125*
X2072258Y1604303*
X2072235Y1605510D02*
X2072289Y1605651D01*
X2072258Y1604303*
X2072258*
X2072235Y1605510*
X2072289Y1605705D02*
X2072235Y1605838D01*
X2072240Y1607207*
X2072240*
X2072289Y1605705*
X2072240Y1607207D02*
X2072321Y1607374D01*
X2072289Y1605705*
X2072289*
X2072240Y1607207*
X2072321Y1607374D02*
X2072419Y1604140D01*
X2072289Y1605705*
X2072289*
X2072321Y1607374*
X2072289Y1605705D02*
X2072419Y1604140D01*
X2072289Y1605651*
X2072289*
Y1605705*
X2072419Y1604140D02*
X2072258Y1604303D01*
X2072289Y1605651*
X2072289*
X2072419Y1604140*
X2072321Y1607374*
X2072437Y1604979*
X2072437*
X2072419Y1604140*
X2072437Y1604979D02*
X2072321Y1607374D01*
X2072437Y1605035*
X2072437*
Y1604979*
Y1605035D02*
X2072321Y1607374D01*
X2072452Y1606275*
X2072452*
X2072437Y1605035*
X2072452Y1606275D02*
X2072321Y1607374D01*
X2072452Y1606331*
X2072452*
Y1606275*
X2072321Y1607374D02*
X2072458Y1607515D01*
X2072452Y1606331*
X2072452*
X2072321Y1607374*
X2072477Y1606199D02*
X2072498Y1605151D01*
X2072452Y1606275*
X2072452*
X2072477Y1606199*
X2072498Y1605151D02*
X2072437Y1605035D01*
X2072452Y1606275*
X2072452*
X2072498Y1605151*
X2072508Y1606432D02*
X2072452Y1606331D01*
X2072458Y1607515*
X2072458*
X2072508Y1606432*
X2072477Y1606199D02*
X2072533Y1606068D01*
X2072498Y1605151*
X2072498*
X2072477Y1606199*
X2072528Y1604807D02*
X2072559Y1604025D01*
X2072457Y1604918*
X2072457*
X2072528Y1604807*
X2072457Y1604918D02*
X2072559Y1604025D01*
X2072437Y1604979*
X2072437*
X2072457Y1604918*
X2072559Y1604025D02*
X2072419Y1604140D01*
X2072437Y1604979*
X2072437*
X2072559Y1604025*
X2072569Y1605272D02*
X2072498Y1605151D01*
X2072533Y1606068*
X2072533*
X2072569Y1605272*
X2072508Y1606432D02*
X2072458Y1607515D01*
X2072538Y1606487*
X2072538*
X2072508Y1606432*
X2072458Y1607515D02*
X2072589Y1607591D01*
X2072538Y1606487*
X2072538*
X2072458Y1607515*
X2072533Y1606068D02*
X2072614Y1605936D01*
X2072569Y1605272*
X2072569*
X2072533Y1606068*
X2072528Y1604807D02*
X2072650Y1604701D01*
X2072559Y1604025*
X2072559*
X2072528Y1604807*
X2072650Y1605434D02*
X2072569Y1605272D01*
X2072614Y1605936*
X2072614*
X2072650Y1605434*
X2072659Y1606594D02*
X2072538Y1606487D01*
X2072589Y1607591*
X2072589*
X2072659Y1606594*
X2072614Y1605936D02*
X2072665Y1605829D01*
X2072650Y1605434*
X2072650*
X2072614Y1605936*
X2072667Y1604001D02*
X2072559Y1604025D01*
X2072650Y1604701*
X2072650*
X2072667Y1604001*
X2072675Y1605515D02*
X2072650Y1605434D01*
X2072665Y1605829*
X2072665*
X2072675Y1605515*
X2072665Y1605829*
X2072700Y1605621*
X2072700*
X2072675Y1605515*
X2072665Y1605829D02*
X2072700Y1605712D01*
X2072700D02*
Y1605621D01*
X2072700*
X2072665Y1605829*
X2072650Y1604701D02*
X2072731Y1604660D01*
X2072667Y1604001*
X2072667*
X2072650Y1604701*
X2072589Y1607591D02*
X2072751D01*
X2072659Y1606594*
X2072659*
X2072589Y1607591*
X2072799Y1604001D02*
X2072667D01*
X2072731Y1604660*
X2072731*
X2072799Y1604001*
X2072827Y1606705D02*
X2072659Y1606594D01*
X2072751Y1607591*
X2072751*
X2072827Y1606705*
X2072751Y1607591D02*
X2072867Y1607566D01*
X2072827Y1606705*
X2072827*
X2072751Y1607591*
X2072731Y1604660D02*
X2072909D01*
X2072799Y1604001*
X2072799*
X2072731Y1604660*
X2072949Y1606751D02*
X2072827Y1606705D01*
X2072867Y1607566*
X2072867*
X2072949Y1606751*
X2072990Y1604701D02*
X2073020Y1604106D01*
X2072909Y1604660*
X2072909*
X2072990Y1604701*
X2073020Y1604106D02*
X2072799Y1604001D01*
X2072909Y1604660*
X2072909*
X2073020Y1604106*
X2072990Y1604701D02*
X2073121Y1604731D01*
X2073020Y1604106*
X2073020*
X2072990Y1604701*
X2072949Y1606751D02*
X2072867Y1607566D01*
X2073151Y1606751*
X2073151*
X2072949*
X2072867Y1607566D02*
X2073167Y1607414D01*
X2073151Y1606751*
X2073151*
X2072867Y1607566*
X2073282Y1606710D02*
X2073151Y1606751D01*
X2073167Y1607414*
X2073167*
X2073282Y1606710*
X2073278Y1604756D02*
X2073291Y1604186D01*
X2073121Y1604731*
X2073121*
X2073278Y1604756*
X2073291Y1604186D02*
X2073020Y1604106D01*
X2073121Y1604731*
X2073121*
X2073291Y1604186*
X2073167Y1607414D02*
X2073354Y1607298D01*
X2073282Y1606710*
X2073282*
X2073167Y1607414*
X2073358Y1606710D02*
X2073282D01*
X2073354Y1607298*
X2073354*
X2073358Y1606710*
X2073278Y1604756D02*
X2073364Y1604827D01*
X2073291Y1604186*
X2073291*
X2073278Y1604756*
X2073426Y1604218D02*
X2073291Y1604186D01*
X2073364Y1604827*
X2073364*
X2073426Y1604218*
X2073358Y1606710D02*
X2073354Y1607298D01*
X2073419Y1606675*
X2073419*
X2073358Y1606710*
X2073354Y1607298D02*
X2073450Y1607242D01*
X2073419Y1606675*
X2073419*
X2073354Y1607298*
X2073364Y1604827D02*
X2073490Y1604954D01*
X2073426Y1604218*
X2073426*
X2073364Y1604827*
X2073525Y1606574D02*
X2073419Y1606675D01*
X2073450Y1607242*
X2073450*
X2073525Y1606574*
X2073450Y1607242D02*
X2073541D01*
X2073525Y1606574*
X2073525*
X2073450Y1607242*
X2073576Y1606483D02*
X2073525Y1606574D01*
X2073541Y1607242*
X2073541*
X2073576Y1606483*
Y1605030D02*
X2073607Y1604218D01*
X2073490Y1604954*
X2073490*
X2073576Y1605030*
X2073607Y1604218D02*
X2073426D01*
X2073490Y1604954*
X2073490*
X2073607Y1604218*
X2073541Y1607242D02*
X2073627Y1607298D01*
X2073576Y1606483*
X2073576*
X2073541Y1607242*
X2073662Y1606432D02*
X2073576Y1606483D01*
X2073627Y1607298*
X2073627*
X2073662Y1606432*
X2073627Y1607298D02*
X2073688Y1607379D01*
X2073662Y1606432*
X2073662*
X2073627Y1607298*
X2073576Y1605030D02*
X2073688Y1605080D01*
X2073607Y1604218*
X2073607*
X2073576Y1605030*
X2073717Y1603947D02*
X2073607Y1604218D01*
X2073688Y1605080*
X2073688*
X2073717Y1603947*
X2073753Y1607672D02*
X2073779Y1606402D01*
X2073723Y1607475*
X2073723*
X2073753Y1607672*
X2073723Y1607475D02*
X2073779Y1606402D01*
X2073688Y1607379*
X2073688*
X2073723Y1607475*
X2073779Y1606402D02*
X2073662Y1606432D01*
X2073688Y1607379*
X2073688*
X2073779Y1606402*
X2073753Y1607672D02*
X2073804Y1607814D01*
X2073779Y1606402*
X2073779*
X2073753Y1607672*
X2073880Y1607950D02*
X2073920Y1606402D01*
X2073804Y1607814*
X2073804*
X2073880Y1607950*
X2073920Y1606402D02*
X2073779D01*
X2073804Y1607814*
X2073804*
X2073920Y1606402*
X2073880Y1607950*
X2073966Y1606452*
X2073966*
X2073920Y1606402*
X2073880Y1607950D02*
X2073971Y1608047D01*
X2073966Y1606452*
X2073966*
X2073880Y1607950*
X2073717Y1603947D02*
X2073688Y1605080D01*
X2073742Y1603757*
X2073742*
X2073717Y1603947*
X2073742Y1603757D02*
X2073688Y1605080D01*
X2073794Y1603521*
X2073794*
X2073742Y1603757*
X2073794Y1603521D02*
X2073688Y1605080D01*
X2073860Y1603415*
X2073860*
X2073794Y1603521*
X2073688Y1605080D02*
X2073976Y1605100D01*
X2073860Y1603415*
X2073860*
X2073688Y1605080*
X2073976Y1603329D02*
X2073860Y1603415D01*
X2073976Y1605100*
X2073976*
Y1603329*
Y1605100D02*
X2074011D01*
X2073976Y1603329*
X2073976*
Y1605100*
X2074042Y1606543D02*
X2073966Y1606452D01*
X2073971Y1608047*
X2073971*
X2074042Y1606543*
X2073971Y1608047D02*
X2074052Y1608107D01*
X2074042Y1606543*
X2074042*
X2073971Y1608047*
X2074072Y1606665D02*
X2074042Y1606543D01*
X2074052Y1608107*
X2074052*
X2074072Y1606665*
Y1603303D02*
X2073976Y1603329D01*
X2074011Y1605100*
X2074011*
X2074072Y1603303*
X2074011Y1605100D02*
X2074077Y1605050D01*
X2074072Y1603303*
X2074072*
X2074011Y1605100*
X2074123Y1604979D02*
X2074138Y1603324D01*
X2074077Y1605050*
X2074077*
X2074123Y1604979*
X2074138Y1603324D02*
X2074072Y1603303D01*
X2074077Y1605050*
X2074077*
X2074138Y1603324*
X2074072Y1606665D02*
X2074052Y1608107D01*
X2074117Y1606832*
X2074117*
X2074072Y1606665*
X2074117Y1606832D02*
X2074052Y1608107D01*
X2074153Y1607045*
X2074153*
X2074117Y1606832*
X2074052Y1608107D02*
X2074158D01*
X2074153Y1607045*
X2074153*
X2074052Y1608107*
X2074178Y1607232D02*
X2074153Y1607045D01*
X2074158Y1608107*
X2074158*
X2074178Y1607232*
X2074123Y1604979D02*
X2074183Y1603410D01*
X2074138Y1603324*
X2074138*
X2074123Y1604979*
X2074178Y1607232D02*
X2074158Y1608107D01*
X2074203Y1607429*
X2074203*
X2074178Y1607232*
X2074203Y1607429D02*
X2074158Y1608107D01*
X2074234Y1607591*
X2074234*
X2074203Y1607429*
X2074158Y1608107D02*
X2074244Y1608062D01*
X2074234Y1607591*
X2074234*
X2074158Y1608107*
X2074269Y1607723D02*
X2074234Y1607591D01*
X2074244Y1608062*
X2074244*
X2074269Y1607723*
X2074244Y1608062*
X2074294Y1607870*
X2074294D02*
X2074294D01*
X2074294D02*
X2074269Y1607723D01*
X2074244Y1608062D02*
X2074294Y1607971D01*
X2074294D02*
Y1607870D01*
X2074294D02*
X2074294D01*
X2074294D02*
X2074244Y1608062D01*
X2066375Y1613851D02*
X2066400Y1613956D01*
X2066377Y1613785*
X2066377*
X2066375Y1613851*
X2066444Y1613645D02*
X2066377Y1613785D01*
X2066400Y1613956*
X2066400*
X2066444Y1613645*
X2066400Y1613956D02*
X2066469Y1614070D01*
X2066444Y1613645*
X2066444*
X2066400Y1613956*
X2066507Y1613541D02*
X2066444Y1613645D01*
X2066469Y1614070*
X2066469*
X2066507Y1613541*
X2066530Y1615485D02*
X2066485Y1615607D01*
X2066508Y1615727*
X2066508*
X2066530Y1615485*
X2066508Y1615727D02*
X2066565Y1615827D01*
X2066530Y1615485*
X2066530*
X2066508Y1615727*
X2066589Y1615389D02*
X2066530Y1615485D01*
X2066565Y1615827*
X2066565*
X2066589Y1615389*
X2066507Y1613541D02*
X2066469Y1614070D01*
X2066591Y1613467*
X2066591*
X2066507Y1613541*
X2066469Y1614070D02*
X2066611Y1614154D01*
X2066591Y1613467*
X2066591*
X2066469Y1614070*
X2066565Y1615827D02*
X2066626Y1615910D01*
X2066589Y1615389*
X2066589*
X2066565Y1615827*
X2066671Y1615340D02*
X2066589Y1615389D01*
X2066626Y1615910*
X2066626*
X2066671Y1615340*
X2066693Y1613447D02*
X2066591Y1613467D01*
X2066611Y1614154*
X2066611*
X2066693Y1613447*
X2066626Y1615910D02*
X2066716Y1615959D01*
X2066671Y1615340*
X2066671*
X2066626Y1615910*
X2066611Y1614154D02*
X2066743Y1614202D01*
X2066693Y1613447*
X2066693*
X2066611Y1614154*
X2066774Y1615287D02*
X2066671Y1615340D01*
X2066716Y1615959*
X2066716*
X2066774Y1615287*
X2066827Y1613447D02*
X2066693D01*
X2066743Y1614202*
X2066743*
X2066827Y1613447*
X2066743Y1614202D02*
X2066868Y1614179D01*
X2066827Y1613447*
X2066827*
X2066743Y1614202*
X2066896Y1613473D02*
X2066827Y1613447D01*
X2066868Y1614179*
X2066868*
X2066896Y1613473*
X2066774Y1615287D02*
X2066716Y1615959D01*
X2066848Y1615249*
X2066848*
X2066774Y1615287*
X2066716Y1615959D02*
X2066899D01*
X2066848Y1615249*
X2066848*
X2066716Y1615959*
X2066868Y1614179D02*
X2066962Y1614118D01*
X2066896Y1613473*
X2066896*
X2066868Y1614179*
X2066992Y1615257D02*
X2066848Y1615249D01*
X2066899Y1615959*
X2066899*
X2066992Y1615257*
X2066993Y1613584D02*
X2066896Y1613473D01*
X2066962Y1614118*
X2066962*
X2066993Y1613584*
X2066899Y1615959D02*
X2067011Y1615916D01*
X2066992Y1615257*
X2066992*
X2066899Y1615959*
X2066962Y1614118D02*
X2067015Y1614050D01*
X2066993Y1613584*
X2066993*
X2066962Y1614118*
X2067051Y1613681D02*
X2066993Y1613584D01*
X2067015Y1614050*
X2067015*
X2067051Y1613681*
Y1615302D02*
X2066992Y1615257D01*
X2067011Y1615916*
X2067011*
X2067051Y1615302*
Y1613681D02*
X2067015Y1614050D01*
X2067069Y1613821*
X2067069*
X2067051Y1613681*
X2067015Y1614050D02*
X2067069Y1613953D01*
Y1613821*
X2067069*
X2067015Y1614050*
X2067011Y1615916D02*
X2067106Y1615839D01*
X2067051Y1615302*
X2067051D02*
X2067051D01*
X2067051D02*
X2067011Y1615916D01*
X2067135Y1615426D02*
X2067051Y1615302D01*
X2067051D02*
X2067106Y1615839D01*
X2067106*
X2067135Y1615426*
X2067106Y1615839*
X2067153Y1615554*
X2067153*
X2067135Y1615426*
X2067106Y1615839D02*
X2067161Y1615743D01*
X2067153Y1615554*
X2067153*
X2067106Y1615839*
X2067698Y1613650D02*
X2067632Y1613716D01*
X2067641Y1613761*
X2067641*
X2067698Y1613650*
X2067641Y1613761D02*
X2067707Y1613805D01*
X2067698Y1613650*
X2067698*
X2067641Y1613761*
X2067746Y1615426D02*
X2067783Y1615470D01*
X2067754Y1615359*
X2067754*
X2067746Y1615426*
X2067787Y1613611D02*
X2067698Y1613650D01*
X2067707Y1613805*
X2067707*
X2067787Y1613611*
X2067707Y1613805D02*
X2067796Y1613838D01*
X2067787Y1613611*
X2067787*
X2067707Y1613805*
X2067822Y1615313D02*
X2067754Y1615359D01*
X2067783Y1615470*
X2067783*
X2067822Y1615313*
X2067783Y1615470D02*
X2067863Y1615477D01*
X2067822Y1615313*
X2067822*
X2067783Y1615470*
X2067922Y1615250D02*
X2067822Y1615313D01*
X2067863Y1615477*
X2067863*
X2067922Y1615250*
X2067909Y1613861D02*
X2067929Y1613635D01*
X2067796Y1613838*
X2067796*
X2067909Y1613861*
X2067929Y1613635D02*
X2067787Y1613611D01*
X2067796Y1613838*
X2067796*
X2067929Y1613635*
X2067909Y1613861D02*
X2067991Y1613903D01*
X2067929Y1613635*
X2067929*
X2067909Y1613861*
X2067922Y1615250D02*
X2067863Y1615477D01*
X2067992Y1615202*
X2067992*
X2067922Y1615250*
X2067863Y1615477D02*
X2068007Y1615431D01*
X2067992Y1615202*
X2067992*
X2067863Y1615477*
X2068063Y1613676D02*
X2067929Y1613635D01*
X2067991Y1613903*
X2067991*
X2068063Y1613676*
X2068076Y1615111D02*
X2067992Y1615202D01*
X2068007Y1615431*
X2068007*
X2068076Y1615111*
X2067991Y1613903D02*
X2068113Y1614034D01*
X2068063Y1613676*
X2068063*
X2067991Y1613903*
X2068007Y1615431D02*
X2068118Y1615372D01*
X2068076Y1615111*
X2068076*
X2068007Y1615431*
X2068138Y1614976D02*
X2068076Y1615111D01*
X2068118Y1615372*
X2068118*
X2068138Y1614976*
X2068155Y1613722D02*
X2068063Y1613676D01*
X2068113Y1614034*
X2068113*
X2068155Y1613722*
X2068113Y1614034D02*
X2068172Y1614114D01*
X2068155Y1613722*
X2068155*
X2068113Y1614034*
X2068118Y1615372D02*
X2068216Y1615294D01*
X2068138Y1614976*
X2068138*
X2068118Y1615372*
X2068222Y1614788D02*
X2068138Y1614976D01*
X2068216Y1615294*
X2068216*
X2068222Y1614788*
X2068249Y1614562D02*
X2068281Y1613822D01*
X2068249Y1614360*
X2068249*
Y1614562*
Y1614360D02*
X2068281Y1613822D01*
X2068220Y1614227*
X2068220*
X2068249Y1614360*
X2068220Y1614227D02*
X2068281Y1613822D01*
X2068172Y1614114*
X2068172*
X2068220Y1614227*
X2068281Y1613822D02*
X2068155Y1613722D01*
X2068172Y1614114*
X2068172*
X2068281Y1613822*
X2068222Y1614788D02*
X2068216Y1615294D01*
X2068249Y1614562*
X2068249*
X2068222Y1614788*
X2068281Y1613822D02*
X2068249Y1614562D01*
X2068325Y1615154*
X2068325*
X2068281Y1613822*
X2068216Y1615294D02*
X2068325Y1615154D01*
X2068249Y1614562*
X2068249*
X2068216Y1615294*
X2068342Y1613938D02*
X2068281Y1613822D01*
X2068325Y1615154*
X2068325*
X2068342Y1613938*
X2068325Y1615154*
X2068385Y1614101*
X2068385*
X2068342Y1613938*
X2068325Y1615154D02*
X2068401Y1615028D01*
X2068385Y1614101*
X2068385*
X2068325Y1615154*
X2068407Y1614258D02*
X2068385Y1614101D01*
X2068401Y1615028*
X2068401*
X2068407Y1614258*
X2068401Y1615028*
X2068434Y1614514*
X2068434*
X2068407Y1614258*
X2068434Y1614514D02*
X2068401Y1615028D01*
X2068434Y1614675*
X2068434*
Y1614514*
X2068401Y1615028D02*
X2068434Y1614919D01*
Y1614675*
X2068434*
X2068401Y1615028*
X2064933Y1620044D02*
X2064879Y1620148D01*
Y1620306*
X2064879*
X2064933Y1620044*
X2064879Y1620306D02*
X2064955Y1620421D01*
X2064933Y1620044*
X2064933*
X2064879Y1620306*
X2065015Y1619913D02*
X2064933Y1620044D01*
X2064955Y1620421*
X2064955*
X2065015Y1619913*
X2064955Y1620421D02*
X2065053Y1620454D01*
X2065015Y1619913*
X2065015*
X2064955Y1620421*
X2065124Y1619831D02*
X2065015Y1619913D01*
X2065053Y1620454*
X2065053*
X2065124Y1619831*
X2065053Y1620454*
X2065228Y1619766*
X2065228*
X2065124Y1619831*
X2065053Y1620454D02*
X2065228Y1620383D01*
Y1619766*
X2065228*
X2065053Y1620454*
X2065233Y1613177D02*
X2065184Y1613390D01*
Y1613625*
X2065184*
X2065233Y1613177*
X2065184Y1613625D02*
X2065233Y1613800D01*
Y1613177*
X2065233*
X2065184Y1613625*
X2065304Y1612975D02*
X2065233Y1613177D01*
Y1613800*
X2065233*
X2065304Y1612975*
X2065233Y1613800D02*
X2065343Y1613986D01*
X2065304Y1612975*
X2065304*
X2065233Y1613800*
X2065397Y1612800D02*
X2065304Y1612975D01*
X2065343Y1613986*
X2065343*
X2065397Y1612800*
X2065359Y1618641D02*
X2065397Y1618739D01*
X2065392Y1618515*
X2065392*
X2065359Y1618641*
X2065403Y1619645D02*
X2065228Y1619766D01*
Y1620383*
X2065228*
X2065403Y1619645*
X2065228Y1620383D02*
X2065430Y1620262D01*
X2065403Y1619645*
X2065403*
X2065228Y1620383*
X2065343Y1613986D02*
X2065457Y1614128D01*
X2065397Y1612800*
X2065397*
X2065343Y1613986*
X2065463Y1618799D02*
X2065502Y1618400D01*
X2065397Y1618739*
X2065397*
X2065463Y1618799*
X2065502Y1618400D02*
X2065392Y1618515D01*
X2065397Y1618739*
X2065397*
X2065502Y1618400*
X2065533Y1612648D02*
X2065397Y1612800D01*
X2065457Y1614128*
X2065457*
X2065533Y1612648*
X2065457Y1614128D02*
X2065550Y1614243D01*
X2065533Y1612648*
X2065533*
X2065457Y1614128*
X2065463Y1618799D02*
X2065561Y1618881D01*
X2065502Y1618400*
X2065502*
X2065463Y1618799*
X2065566Y1619558D02*
X2065403Y1619645D01*
X2065430Y1620262*
X2065430*
X2065566Y1619558*
X2065599Y1615696D02*
X2065566Y1615871D01*
Y1616084*
X2065566*
X2065599Y1615696*
X2065566Y1616084D02*
X2065626Y1616231D01*
X2065599Y1615696*
X2065599*
X2065566Y1616084*
X2065430Y1620262D02*
X2065648Y1620104D01*
X2065566Y1619558*
X2065566*
X2065430Y1620262*
X2065665Y1615515D02*
X2065599Y1615696D01*
X2065626Y1616231*
X2065626*
X2065665Y1615515*
X2065682Y1618367D02*
X2065502Y1618400D01*
X2065561Y1618881*
X2065561*
X2065682Y1618367*
X2065561Y1618881D02*
X2065692Y1618985D01*
X2065682Y1618367*
X2065682*
X2065561Y1618881*
X2065626Y1616231D02*
X2065708Y1616378D01*
X2065665Y1615515*
X2065665*
X2065626Y1616231*
X2065654Y1614374D02*
X2065720Y1612467D01*
X2065550Y1614243*
X2065550*
X2065654Y1614374*
X2065720Y1612467D02*
X2065533Y1612648D01*
X2065550Y1614243*
X2065550*
X2065720Y1612467*
X2065725Y1615357D02*
X2065665Y1615515D01*
X2065708Y1616378*
X2065708*
X2065725Y1615357*
X2065730Y1619411D02*
X2065566Y1619558D01*
X2065648Y1620104*
X2065648*
X2065730Y1619411*
X2065654Y1614374D02*
X2065763Y1614581D01*
X2065720Y1612467*
X2065720*
X2065654Y1614374*
X2065730Y1619411D02*
X2065648Y1620104D01*
X2065779Y1619312*
X2065779*
X2065730Y1619411*
X2065648Y1620104D02*
X2065801Y1619957D01*
X2065779Y1619312*
X2065779*
X2065648Y1620104*
X2065812Y1619187D02*
X2065779Y1619312D01*
X2065801Y1619957*
X2065801*
X2065812Y1619187*
X2065813Y1618417*
X2065768Y1619078*
X2065768*
X2065812Y1619187*
X2065768Y1619078D02*
X2065813Y1618417D01*
X2065692Y1618985*
X2065692*
X2065768Y1619078*
X2065813Y1618417D02*
X2065682Y1618367D01*
X2065692Y1618985*
X2065692*
X2065813Y1618417*
X2065781Y1613176D02*
X2065763Y1614581D01*
X2065781Y1613444*
X2065781*
Y1613176*
X2065763Y1614581D02*
X2065823Y1614762D01*
X2065781Y1613444*
X2065781*
X2065763Y1614581*
X2065725Y1615357D02*
X2065708Y1616378D01*
X2065790Y1615149*
X2065790*
X2065725Y1615357*
X2065790Y1615149D02*
X2065708Y1616378D01*
X2065823Y1614996*
X2065823*
X2065790Y1615149*
X2065708Y1616378D02*
X2065828Y1616553D01*
X2065823Y1614996*
X2065823*
X2065708Y1616378*
X2065828Y1616553D02*
X2065840Y1613732D01*
X2065823Y1614996*
X2065823*
X2065828Y1616553*
X2065823Y1614996D02*
X2065840Y1613732D01*
X2065823Y1614762*
X2065823*
Y1614996*
X2065840Y1613732D02*
X2065781Y1613444D01*
X2065823Y1614762*
X2065823*
X2065840Y1613732*
X2065763Y1614581D02*
X2065781Y1613176D01*
X2065720Y1612467*
X2065720*
X2065763Y1614581*
X2065879Y1612363D02*
X2065720Y1612467D01*
X2065781Y1613176*
X2065781*
X2065879Y1612363*
X2065781Y1613176D02*
X2065900Y1612972D01*
X2065879Y1612363*
X2065879*
X2065781Y1613176*
X2065813Y1618417D02*
X2065812Y1619187D01*
X2065906Y1618504*
X2065906*
X2065813Y1618417*
X2065812Y1619187D02*
X2065801Y1619957D01*
X2065906Y1618504*
X2065906*
X2065812Y1619187*
X2065801Y1619957D02*
X2065927Y1619831D01*
X2065906Y1618504*
X2065906*
X2065801Y1619957*
X2065840Y1613732D02*
X2065828Y1616553D01*
X2065934Y1614000*
X2065934*
X2065840Y1613732*
X2065828Y1616553D02*
X2065955Y1616701D01*
X2065934Y1614000*
X2065934*
X2065828Y1616553*
X2065977Y1618684D02*
X2065906Y1618504D01*
X2065927Y1619831*
X2065927*
X2065977Y1618684*
X2066004Y1614277D02*
X2065934Y1614000D01*
X2065955Y1616701*
X2065955*
X2066004Y1614277*
X2066059Y1612281D02*
X2065879Y1612363D01*
X2065900Y1612972*
X2065900*
X2066059Y1612281*
X2066063Y1615430D02*
X2066068Y1614580D01*
X2066038Y1615702*
X2066038*
X2066063Y1615430*
X2066068Y1614580D02*
X2066004Y1614277D01*
X2066038Y1615702*
X2066038*
X2066068Y1614580*
X2065900Y1612972D02*
X2066068Y1612808D01*
X2066059Y1612281*
X2066059*
X2065900Y1612972*
X2066004Y1614277D02*
X2065955Y1616701D01*
X2066038Y1615702*
X2066038*
X2066004Y1614277*
X2066038Y1615702D02*
X2065955Y1616701D01*
X2066058Y1615931*
X2066058*
X2066038Y1615702*
X2065955Y1616701D02*
X2066070Y1616816D01*
X2066058Y1615931*
X2066058*
X2065955Y1616701*
X2065977Y1618684D02*
X2065927Y1619831D01*
X2066037Y1618799*
X2066037*
X2065977Y1618684*
X2065927Y1619831D02*
X2066075Y1619646D01*
X2066037Y1618799*
X2066037*
X2065927Y1619831*
X2066075Y1618870D02*
X2066037Y1618799D01*
X2066075Y1619646*
X2066075*
Y1618870*
X2066068Y1614580D02*
X2066063Y1615430D01*
X2066103Y1614988*
X2066103*
X2066068Y1614580*
X2066063Y1615430D02*
X2066103Y1615241D01*
Y1614988*
X2066103*
X2066063Y1615430*
X2066118Y1616149D02*
X2066058Y1615931D01*
X2066070Y1616816*
X2066070*
X2066118Y1616149*
X2066075Y1618870D02*
Y1619646D01*
X2066135Y1618848*
X2066135*
X2066075Y1618870*
Y1619646D02*
X2066140Y1619454D01*
X2066135Y1618848*
X2066135*
X2066075Y1619646*
X2066070Y1616816D02*
X2066168Y1616870D01*
X2066118Y1616149*
X2066118*
X2066070Y1616816*
X2066222Y1616377D02*
X2066118Y1616149D01*
X2066168Y1616870*
X2066168*
X2066222Y1616377*
Y1612694D02*
X2066233Y1612259D01*
X2066068Y1612808*
X2066068*
X2066222Y1612694*
X2066233Y1612259D02*
X2066059Y1612281D01*
X2066068Y1612808*
X2066068*
X2066233Y1612259*
X2066179Y1619296D02*
X2066271Y1618651D01*
X2066140Y1619454*
X2066140*
X2066179Y1619296*
X2066271Y1618651D02*
X2066135Y1618848D01*
X2066140Y1619454*
X2066140*
X2066271Y1618651*
X2066179Y1619296D02*
X2066288Y1619192D01*
X2066271Y1618651*
X2066271*
X2066179Y1619296*
X2066168Y1616870D02*
X2066337Y1616920D01*
X2066222Y1616377*
X2066222*
X2066168Y1616870*
X2066341Y1616521D02*
X2066222Y1616377D01*
X2066337Y1616920*
X2066337*
X2066341Y1616521*
X2066222Y1612694D02*
X2066376Y1612630D01*
X2066233Y1612259*
X2066233*
X2066222Y1612694*
X2066408Y1612227D02*
X2066233Y1612259D01*
X2066376Y1612630*
X2066376*
X2066408Y1612227*
X2066435Y1618362D02*
X2066271Y1618651D01*
X2066288Y1619192*
X2066288*
X2066435Y1618362*
X2066288Y1619192D02*
X2066479Y1619007D01*
X2066435Y1618362*
X2066435*
X2066288Y1619192*
X2066539Y1618187D02*
X2066435Y1618362D01*
X2066479Y1619007*
X2066479*
X2066539Y1618187*
X2066341Y1616521D02*
X2066337Y1616920D01*
X2066535Y1616656*
X2066535*
X2066341Y1616521*
X2066337Y1616920D02*
X2066577D01*
X2066535Y1616656*
X2066535*
X2066337Y1616920*
X2066408Y1612227D02*
X2066376Y1612630D01*
X2066534Y1612188*
X2066534*
X2066408Y1612227*
X2066534Y1612188D02*
X2066376Y1612630D01*
X2066637Y1612057*
X2066637*
X2066534Y1612188*
X2066376Y1612630D02*
X2066654D01*
X2066637Y1612057*
X2066637*
X2066376Y1612630*
X2066539Y1618187D02*
X2066479Y1619007D01*
X2066632Y1618023*
X2066632*
X2066539Y1618187*
X2066479Y1619007D02*
X2066682Y1618749D01*
X2066632Y1618023*
X2066632*
X2066479Y1619007*
X2066694Y1616676D02*
X2066535Y1616656D01*
X2066577Y1616920*
X2066577*
X2066694Y1616676*
X2066697Y1611850D02*
X2066637Y1612057D01*
X2066654Y1612630*
X2066654*
X2066697Y1611850*
X2066714Y1617815D02*
X2066632Y1618023D01*
X2066682Y1618749*
X2066682*
X2066714Y1617815*
X2066752Y1611063D02*
X2066719Y1611281D01*
Y1611588*
X2066719*
X2066752Y1611063*
X2066714Y1617815D02*
X2066682Y1618749D01*
X2066758Y1617646*
X2066758*
X2066714Y1617815*
X2066758Y1617646D02*
X2066682Y1618749D01*
X2066813Y1617471*
X2066813*
X2066758Y1617646*
X2066682Y1618749D02*
X2066840Y1618476D01*
X2066813Y1617471*
X2066813*
X2066682Y1618749*
X2066845Y1617313D02*
X2066813Y1617471D01*
X2066840Y1618476*
X2066840*
X2066845Y1617313*
X2066577Y1616920D02*
X2066927D01*
X2066694Y1616676*
X2066694*
X2066577Y1616920*
X2066845Y1617313D02*
X2066840Y1618476D01*
X2066889Y1617160*
X2066889*
X2066845Y1617313*
X2066889Y1617160D02*
X2066840Y1618476D01*
X2066927Y1617007*
X2066927*
X2066889Y1617160*
X2066840Y1618476D02*
X2066993Y1618176D01*
X2066927Y1617007*
X2066927*
X2066840Y1618476*
X2066697Y1611850D02*
X2066654Y1612630D01*
X2066719Y1611588*
X2066719*
X2066697Y1611850*
X2066752Y1611063D02*
X2066719Y1611588D01*
X2066801Y1610866*
X2066801*
X2066752Y1611063*
X2066719Y1611588D02*
X2066654Y1612630D01*
X2066801Y1610866*
X2066801*
X2066719Y1611588*
X2066801Y1610866D02*
X2066654Y1612630D01*
X2066905Y1610642*
X2066905*
X2066801Y1610866*
X2066905Y1610642D02*
X2066654Y1612630D01*
X2067009Y1610457*
X2067009*
X2066905Y1610642*
X2066654Y1612630D02*
X2067051Y1612600D01*
X2067009Y1610457*
X2067009*
X2066654Y1612630*
X2066993Y1618176D02*
X2067080Y1616646D01*
X2066927Y1617007*
X2066927*
X2066993Y1618176*
X2066927Y1617007D02*
X2067080Y1616646D01*
X2066927Y1616920*
X2066927*
Y1617007*
X2067080Y1616646D02*
X2066694Y1616676D01*
X2066927Y1616920*
X2066927*
X2067080Y1616646*
X2066993Y1618176D02*
X2067091Y1617919D01*
X2067080Y1616646*
X2067080*
X2066993Y1618176*
X2067130Y1611566D02*
X2067145Y1610288D01*
X2067051Y1612600*
X2067051*
X2067130Y1611566*
X2067145Y1610288D02*
X2067009Y1610457D01*
X2067051Y1612600*
X2067051*
X2067145Y1610288*
X2067130Y1611566D02*
X2067151Y1611254D01*
X2067145Y1610288*
X2067145*
X2067130Y1611566*
X2067266Y1610839D02*
X2067294Y1610140D01*
X2067195Y1611069*
X2067195*
X2067266Y1610839*
X2067195Y1611069D02*
X2067294Y1610140D01*
X2067151Y1611254*
X2067151*
X2067195Y1611069*
X2067294Y1610140D02*
X2067145Y1610288D01*
X2067151Y1611254*
X2067151*
X2067294Y1610140*
X2067266Y1610839D02*
X2067364Y1610654D01*
X2067294Y1610140*
X2067294*
X2067266Y1610839*
X2067130Y1611566D02*
X2067051Y1612600D01*
X2067130Y1612096*
X2067130*
Y1611566*
Y1612096D02*
X2067051Y1612600D01*
X2067157Y1612151*
X2067157*
X2067130Y1612096*
X2067051Y1612600D02*
X2067423D01*
X2067157Y1612151*
X2067157*
X2067051Y1612600*
X2067430Y1610009D02*
X2067294Y1610140D01*
X2067364Y1610654*
X2067364*
X2067430Y1610009*
X2067364Y1610654*
X2067463Y1609927*
X2067463*
X2067430Y1610009*
X2067364Y1610654D02*
X2067468Y1610490D01*
X2067463Y1609927*
X2067463*
X2067364Y1610654*
X2067485Y1609747D02*
X2067463Y1609927D01*
X2067468Y1610490*
X2067468*
X2067485Y1609747*
X2067347Y1617188D02*
X2067547Y1616601D01*
X2067249Y1617401*
X2067249*
X2067347Y1617188*
X2067091Y1617919D02*
X2067173Y1617636D01*
X2067080Y1616646*
X2067080*
X2067091Y1617919*
X2067173Y1617636D02*
X2067249Y1617401D01*
X2067080Y1616646*
X2067080*
X2067173Y1617636*
X2067547Y1616601D02*
X2067080Y1616646D01*
X2067249Y1617401*
X2067249*
X2067547Y1616601*
X2067347Y1617188D02*
X2067555Y1616915D01*
X2067547Y1616601*
X2067547*
X2067347Y1617188*
X2067485Y1609747D02*
X2067468Y1610490D01*
X2067523Y1609572*
X2067523*
X2067485Y1609747*
X2067468Y1610490D02*
X2067588Y1610343D01*
X2067523Y1609572*
X2067523*
X2067468Y1610490*
X2067594Y1609392D02*
X2067523Y1609572D01*
X2067588Y1610343*
X2067588*
X2067594Y1609392*
X2067588Y1610343*
X2067687Y1609228*
X2067687*
X2067594Y1609392*
X2067588Y1610343D02*
X2067692Y1610288D01*
X2067687Y1609228*
X2067687*
X2067588Y1610343*
X2067757Y1610332D02*
X2067779Y1609064D01*
X2067692Y1610288*
X2067692*
X2067757Y1610332*
X2067779Y1609064D02*
X2067687Y1609228D01*
X2067692Y1610288*
X2067692*
X2067779Y1609064*
X2067757Y1610332D02*
X2067812Y1610452D01*
X2067779Y1609064*
X2067779*
X2067757Y1610332*
X2067889Y1608906D02*
X2067779Y1609064D01*
X2067812Y1610452*
X2067812*
X2067889Y1608906*
X2067812Y1610452*
X2067889Y1609752*
X2067889*
Y1608906*
Y1609752D02*
X2067812Y1610452D01*
X2067889Y1609922*
X2067889*
Y1609752*
X2067812Y1610452D02*
X2067910Y1610599D01*
X2067889Y1609922*
X2067889*
X2067812Y1610452*
X2067933Y1610014D02*
X2067889Y1609922D01*
X2067910Y1610599*
X2067910*
X2067933Y1610014*
X2067969Y1616601D02*
X2067547D01*
X2067555Y1616915*
X2067555*
X2067969Y1616601*
X2067949Y1609659D02*
X2068003Y1608791D01*
X2067889Y1609752*
X2067889*
X2067949Y1609659*
X2068003Y1608791D02*
X2067889Y1608906D01*
Y1609752*
X2067889*
X2068003Y1608791*
X2067949Y1609659D02*
X2068031Y1609501D01*
X2068003Y1608791*
X2068003*
X2067949Y1609659*
X2067910Y1610599D02*
X2068041Y1610703D01*
X2067933Y1610014*
X2067933*
X2067910Y1610599*
X2068053Y1610129D02*
X2067933Y1610014D01*
X2068041Y1610703*
X2068041*
X2068053Y1610129*
X2068080Y1608736D02*
X2068003Y1608791D01*
X2068031Y1609501*
X2068031*
X2068080Y1608736*
X2067785Y1612541D02*
X2068090Y1612124D01*
X2067423Y1612600*
X2067423*
X2067785Y1612541*
X2068090Y1612124D02*
X2067157Y1612151D01*
X2067423Y1612600*
X2067423*
X2068090Y1612124*
X2067785Y1612541D02*
X2068143D01*
X2068090Y1612124*
X2068090*
X2067785Y1612541*
X2068080Y1608736D02*
X2068031Y1609501D01*
X2068134Y1608725*
X2068134*
X2068080Y1608736*
X2068031Y1609501D02*
X2068151Y1609365D01*
X2068134Y1608725*
X2068134*
X2068031Y1609501*
X2068200Y1608808D02*
X2068134Y1608725D01*
X2068151Y1609365*
X2068151*
X2068200Y1608808*
X2068041Y1610703D02*
X2068221Y1610736D01*
X2068053Y1610129*
X2068053*
X2068041Y1610703*
X2068200Y1608808D02*
X2068151Y1609365D01*
X2068238Y1608944*
X2068238*
X2068200Y1608808*
X2068151Y1609365D02*
X2068238Y1609261D01*
Y1608944*
X2068238*
X2068151Y1609365*
X2068255Y1610238D02*
X2068053Y1610129D01*
X2068221Y1610736*
X2068221*
X2068255Y1610238*
X2068277Y1609157D02*
X2068238Y1608944D01*
Y1609261*
X2068238*
X2068277Y1609157*
X2068221Y1610736D02*
X2068330Y1610676D01*
X2068255Y1610238*
X2068255*
X2068221Y1610736*
X2067969Y1616601D02*
X2067555Y1616915D01*
X2068306Y1616581*
X2068306*
X2067969Y1616601*
X2067555Y1616915D02*
X2068424D01*
X2068306Y1616581*
X2068306*
X2067555Y1616915*
X2068424Y1610320D02*
X2068255Y1610238D01*
X2068330Y1610676*
X2068330*
X2068424Y1610320*
X2068330Y1610676D02*
X2068429Y1610555D01*
X2068424Y1610320*
X2068424*
X2068330Y1610676*
X2068347Y1612541D02*
X2068462Y1612124D01*
X2068143Y1612541*
X2068143*
X2068347*
X2068462Y1612124D02*
X2068090D01*
X2068143Y1612541*
X2068143*
X2068462Y1612124*
X2068347Y1612541D02*
X2068466Y1612595D01*
X2068462Y1612124*
X2068462*
X2068347Y1612541*
X2068468Y1610418D02*
X2068424Y1610320D01*
X2068429Y1610555*
X2068429*
X2068468Y1610418*
X2068525Y1616532D02*
X2068306Y1616581D01*
X2068424Y1616915*
X2068424*
X2068525Y1616532*
X2068424Y1616915D02*
X2068713Y1616882D01*
X2068525Y1616532*
X2068525*
X2068424Y1616915*
X2068699Y1613211D02*
X2068719Y1612156D01*
X2068679Y1613042*
X2068679*
X2068699Y1613211*
X2068679Y1613042D02*
X2068719Y1612156D01*
X2068634Y1612814*
X2068634*
X2068679Y1613042*
X2068634Y1612814D02*
X2068719Y1612156D01*
X2068575Y1612709*
X2068575*
X2068634Y1612814*
X2068575Y1612709D02*
X2068719Y1612156D01*
X2068466Y1612595*
X2068466*
X2068575Y1612709*
X2068719Y1612156D02*
X2068462Y1612124D01*
X2068466Y1612595*
X2068466*
X2068719Y1612156*
X2068699Y1613211D02*
X2068724Y1613612D01*
X2068719Y1612156*
X2068719*
X2068699Y1613211*
X2068784Y1616417D02*
X2068525Y1616532D01*
X2068713Y1616882*
X2068713*
X2068784Y1616417*
X2068863Y1615588D02*
X2068877Y1612276D01*
X2068818Y1615236*
X2068818*
X2068863Y1615588*
X2068818Y1615236D02*
X2068877Y1612276D01*
X2068798Y1614939*
X2068798*
X2068818Y1615236*
X2068798Y1614939D02*
X2068877Y1612276D01*
X2068798Y1614631*
X2068798*
Y1614939*
Y1614631D02*
X2068877Y1612276D01*
X2068773Y1614332*
X2068773*
X2068798Y1614631*
X2068773Y1614332D02*
X2068877Y1612276D01*
X2068743Y1614019*
X2068743*
X2068773Y1614332*
X2068743Y1614019D02*
X2068877Y1612276D01*
X2068724Y1613612*
X2068724*
X2068743Y1614019*
X2068877Y1612276D02*
X2068719Y1612156D01*
X2068724Y1613612*
X2068724*
X2068877Y1612276*
X2068863Y1615588D02*
X2068908Y1616025D01*
X2068877Y1612276*
X2068877*
X2068863Y1615588*
X2068784Y1616417D02*
X2068713Y1616882D01*
X2068883Y1616248*
X2068883*
X2068784Y1616417*
X2068908Y1616025D02*
X2068883Y1616248D01*
X2068949Y1616805*
X2068949*
X2068908Y1616025*
X2068713Y1616882D02*
X2068949Y1616805D01*
X2068883Y1616248*
X2068883*
X2068713Y1616882*
X2068949Y1616805D02*
X2069014Y1612451D01*
X2068908Y1616025*
X2068908*
X2068949Y1616805*
X2069014Y1612451D02*
X2068877Y1612276D01*
X2068908Y1616025*
X2068908*
X2069014Y1612451*
X2068949Y1616805*
X2069085Y1612686*
X2069085*
X2069014Y1612451*
X2068949Y1616805D02*
X2069102Y1616701D01*
X2069085Y1612686*
X2069085*
X2068949Y1616805*
X2069107Y1613101D02*
X2069085Y1612686D01*
X2069102Y1616701*
X2069102*
X2069107Y1613101*
X2069102Y1616701*
X2069129Y1613385*
X2069129*
X2069107Y1613101*
X2069102Y1616701D02*
X2069211Y1616564D01*
X2069129Y1613385*
X2069129*
X2069102Y1616701*
X2069222Y1613620D02*
X2069129Y1613385D01*
X2069211Y1616564*
X2069211*
X2069222Y1613620*
X2069211Y1616564*
X2069265Y1615494*
X2069265*
X2069222Y1613620*
X2069265Y1615494D02*
X2069211Y1616564D01*
X2069265Y1615893*
X2069265*
Y1615494*
X2069211Y1616564D02*
X2069265Y1616335D01*
Y1615893*
X2069265*
X2069211Y1616564*
X2069347Y1615210D02*
X2069424Y1613893D01*
X2069265Y1615494*
X2069265*
X2069347Y1615210*
X2069424Y1613893D02*
X2069222Y1613620D01*
X2069265Y1615494*
X2069265*
X2069424Y1613893*
X2069347Y1615210D02*
X2069451Y1615090D01*
X2069424Y1613893*
X2069424*
X2069347Y1615210*
X2069566Y1614035D02*
X2069424Y1613893D01*
X2069451Y1615090*
X2069451*
X2069566Y1614035*
X2069451Y1615090D02*
X2069620Y1614959D01*
X2069566Y1614035*
X2069566*
X2069451Y1615090*
X2069817Y1614204D02*
X2069566Y1614035D01*
X2069620Y1614959*
X2069620*
X2069817Y1614204*
X2069620Y1614959D02*
X2069828Y1614866D01*
X2069817Y1614204*
X2069817*
X2069620Y1614959*
X2069987Y1614286D02*
X2069817Y1614204D01*
X2069828Y1614866*
X2069828*
X2069987Y1614286*
X2069828Y1614866D02*
X2069991D01*
X2069987Y1614286*
X2069987*
X2069828Y1614866*
X2070151D02*
X2070200Y1614286D01*
X2069991Y1614866*
X2069991*
X2070151*
X2070200Y1614286D02*
X2069987D01*
X2069991Y1614866*
X2069991*
X2070200Y1614286*
X2070151Y1614866D02*
X2070254Y1614898D01*
X2070200Y1614286*
X2070200*
X2070151Y1614866*
X2070385Y1614237D02*
X2070200Y1614286D01*
X2070254Y1614898*
X2070254*
X2070385Y1614237*
X2070254Y1614898D02*
X2070440Y1614969D01*
X2070385Y1614237*
X2070385*
X2070254Y1614898*
X2070631Y1614139D02*
X2070385Y1614237D01*
X2070440Y1614969*
X2070440*
X2070631Y1614139*
X2070440Y1614969D02*
X2070647Y1615079D01*
X2070631Y1614139*
X2070631*
X2070440Y1614969*
X2071051Y1615341D02*
X2071074Y1613898D01*
X2070822Y1615199*
X2070822*
X2071051Y1615341*
X2070822Y1615199D02*
X2071074Y1613898D01*
X2070647Y1615079*
X2070647*
X2070822Y1615199*
X2071074Y1613898D02*
X2070631Y1614139D01*
X2070647Y1615079*
X2070647*
X2071074Y1613898*
X2071051Y1615341*
X2071325Y1614516*
X2071325*
X2071074Y1613898*
X2071325Y1614516D02*
X2071051Y1615341D01*
X2071325Y1614669*
X2071325*
Y1614516*
X2071051Y1615341D02*
X2071391Y1615576D01*
X2071325Y1614669*
X2071325*
X2071051Y1615341*
X2071429Y1614893D02*
X2071325Y1614669D01*
X2071391Y1615576*
X2071391*
X2071429Y1614893*
X2071445Y1614331D02*
X2071478Y1613636D01*
X2071325Y1614516*
X2071325*
X2071445Y1614331*
X2071478Y1613636D02*
X2071074Y1613898D01*
X2071325Y1614516*
X2071325*
X2071478Y1613636*
X2071445Y1614331D02*
X2071603Y1614090D01*
X2071478Y1613636*
X2071478*
X2071445Y1614331*
X2071429Y1614893D02*
X2071391Y1615576D01*
X2071516Y1615051*
X2071516*
X2071429Y1614893*
X2071391Y1615576D02*
X2071626Y1615767D01*
X2071516Y1615051*
X2071516*
X2071391Y1615576*
X2071751Y1615341D02*
X2071516Y1615051D01*
X2071626Y1615767*
X2071626*
X2071751Y1615341*
X2071626Y1615767D02*
X2071904Y1615974D01*
X2071751Y1615341*
X2071751*
X2071626Y1615767*
X2071954Y1613724D02*
X2071970Y1613227D01*
X2071745Y1613965*
X2071745*
X2071954Y1613724*
X2071745Y1613965D02*
X2071970Y1613227D01*
X2071603Y1614090*
X2071603*
X2071745Y1613965*
X2071970Y1613227D02*
X2071478Y1613636D01*
X2071603Y1614090*
X2071603*
X2071970Y1613227*
X2072008Y1615625D02*
X2071751Y1615341D01*
X2071904Y1615974*
X2071904*
X2072008Y1615625*
X2071954Y1613724D02*
X2072079Y1613598D01*
X2071970Y1613227*
X2071970*
X2071954Y1613724*
X2071904Y1615974D02*
X2072133Y1616182D01*
X2072008Y1615625*
X2072008*
X2071904Y1615974*
X2072276Y1615893D02*
X2072008Y1615625D01*
X2072133Y1616182*
X2072133*
X2072276Y1615893*
X2072281Y1612959D02*
X2071970Y1613227D01*
X2072079Y1613598*
X2072079*
X2072281Y1612959*
X2072298Y1617280D02*
X2072238Y1617373D01*
Y1617455*
X2072238*
X2072298Y1617280*
X2072276Y1611784D02*
X2072304Y1611877D01*
X2072298Y1611713*
X2072298*
X2072276Y1611784*
X2072079Y1613598D02*
X2072314Y1613385D01*
X2072281Y1612959*
X2072281*
X2072079Y1613598*
X2072238Y1617455D02*
X2072336Y1617564D01*
X2072298Y1617280*
X2072298*
X2072238Y1617455*
X2072407Y1611942D02*
X2072413Y1611626D01*
X2072304Y1611877*
X2072304*
X2072407Y1611942*
X2072413Y1611626D02*
X2072298Y1611713D01*
X2072304Y1611877*
X2072304*
X2072413Y1611626*
X2072439Y1617182D02*
X2072298Y1617280D01*
X2072336Y1617564*
X2072336*
X2072439Y1617182*
X2072133Y1616182D02*
X2072445Y1616466D01*
X2072276Y1615893*
X2072276*
X2072133Y1616182*
X2072505Y1616106D02*
X2072276Y1615893D01*
X2072445Y1616466*
X2072445*
X2072505Y1616106*
X2072499Y1613156D02*
X2072521Y1612735D01*
X2072314Y1613385*
X2072314*
X2072499Y1613156*
X2072521Y1612735D02*
X2072281Y1612959D01*
X2072314Y1613385*
X2072314*
X2072521Y1612735*
X2072336Y1617564D02*
X2072543Y1617678D01*
X2072543D02*
X2072439Y1617182D01*
X2072439*
X2072336Y1617564*
X2072407Y1611942D02*
X2072571Y1611964D01*
X2072413Y1611626*
X2072413*
X2072407Y1611942*
X2072604Y1611560D02*
X2072413Y1611626D01*
X2072571Y1611964*
X2072571*
X2072604Y1611560*
X2072445Y1616466D02*
X2072614Y1616625D01*
X2072505Y1616106*
X2072505*
X2072445Y1616466*
X2072658Y1617138D02*
X2072439Y1617182D01*
X2072543Y1617678*
X2072543D02*
X2072543D01*
X2072543D02*
X2072658Y1617138D01*
X2072499Y1613156D02*
X2072712Y1612992D01*
X2072521Y1612735*
X2072521*
X2072499Y1613156*
X2072728Y1612511D02*
X2072521Y1612735D01*
X2072712Y1612992*
X2072712*
X2072728Y1612511*
X2072734Y1616313D02*
X2072505Y1616106D01*
X2072614Y1616625*
X2072614*
X2072734Y1616313*
X2072571Y1611964D02*
X2072735D01*
X2072604Y1611560*
X2072604*
X2072571Y1611964*
X2072614Y1616625D02*
X2072794Y1616810D01*
X2072734Y1616313*
X2072734*
X2072614Y1616625*
X2072543Y1617678D02*
X2072811Y1617728D01*
X2072658Y1617138*
X2072658*
X2072543Y1617678*
X2072838Y1617056D02*
X2072658Y1617138D01*
X2072811Y1617728*
X2072811*
X2072838Y1617056*
X2072849Y1611964D02*
X2072904Y1611533D01*
X2072735Y1611964*
X2072735*
X2072849*
X2072904Y1611533D02*
X2072604Y1611560D01*
X2072735Y1611964*
X2072735*
X2072904Y1611533*
X2072712Y1612992D02*
X2072909Y1612812D01*
X2072728Y1612511*
X2072728*
X2072712Y1612992*
X2072849Y1611964D02*
X2072926Y1611992D01*
X2072904Y1611533*
X2072904*
X2072849Y1611964*
X2072948Y1612265D02*
X2072728Y1612511D01*
X2072909Y1612812*
X2072909*
X2072948Y1612265*
X2072865Y1616947D02*
X2072986Y1616494D01*
X2072794Y1616810*
X2072794*
X2072865Y1616947*
X2072986Y1616494D02*
X2072734Y1616313D01*
X2072794Y1616810*
X2072794*
X2072986Y1616494*
X2072948Y1612265D02*
X2072909Y1612812D01*
X2072975Y1612177*
X2072975*
X2072948Y1612265*
X2072909Y1612812D02*
X2073040Y1612703D01*
X2072975Y1612177*
X2072975*
X2072909Y1612812*
X2072838Y1617056D02*
X2072811Y1617728D01*
X2072865Y1616947*
X2072865*
X2072838Y1617056*
X2072865Y1616947D02*
X2072811Y1617728D01*
X2072986Y1616494*
X2072986*
X2072865Y1616947*
X2072811Y1617728D02*
X2073040D01*
X2072986Y1616494*
X2072986*
X2072811Y1617728*
X2073117Y1616570D02*
X2072986Y1616494D01*
X2073040Y1617728*
X2073040*
X2073117Y1616570*
X2073040Y1612703D02*
X2073144Y1611555D01*
X2072975Y1612177*
X2072975*
X2073040Y1612703*
X2072975Y1612177D02*
X2073144Y1611555D01*
X2072975Y1612046*
X2072975*
Y1612177*
Y1612046D02*
X2073144Y1611555D01*
X2072926Y1611992*
X2072926*
X2072975Y1612046*
X2073144Y1611555D02*
X2072904Y1611533D01*
X2072926Y1611992*
X2072926*
X2073144Y1611555*
X2073040Y1612703D02*
X2073248Y1612544D01*
X2073144Y1611555*
X2073144*
X2073040Y1612703*
X2073117Y1616570D02*
X2073040Y1617728D01*
X2073205Y1616521*
X2073205*
X2073117Y1616570*
X2073040Y1617728D02*
X2073285Y1617678D01*
X2073285D02*
X2073205Y1616521D01*
X2073205*
X2073040Y1617728*
X2073292Y1616368D02*
X2073205Y1616521D01*
X2073285Y1617678*
X2073285D02*
X2073285D01*
X2073285D02*
X2073292Y1616368D01*
X2073439Y1612489D02*
X2073455Y1611643D01*
X2073363Y1612489*
X2073363*
X2073439*
X2073363D02*
X2073455Y1611643D01*
X2073248Y1612544*
X2073248*
X2073363Y1612489*
X2073455Y1611643D02*
X2073144Y1611555D01*
X2073248Y1612544*
X2073248*
X2073455Y1611643*
X2073439Y1612489D02*
X2073526Y1612571D01*
X2073455Y1611643*
X2073455*
X2073439Y1612489*
X2073292Y1616368D02*
X2073285Y1617678D01*
X2073285D02*
X2073385Y1616297D01*
X2073385*
X2073292Y1616368*
X2073285Y1617678D02*
X2073549Y1617569D01*
X2073385Y1616297*
X2073385*
X2073285Y1617678*
X2073565Y1616204D02*
X2073385Y1616297D01*
X2073549Y1617569*
X2073549*
X2073565Y1616204*
X2073549Y1617569D02*
X2073669Y1617449D01*
X2073565Y1616204*
X2073565*
X2073549Y1617569*
X2073608Y1613111D02*
X2073685Y1611779D01*
X2073548Y1612909*
X2073548*
X2073608Y1613111*
X2073548Y1612909D02*
X2073685Y1611779D01*
X2073548Y1612724*
X2073548*
Y1612909*
Y1612724D02*
X2073685Y1611779D01*
X2073526Y1612571*
X2073526*
X2073548Y1612724*
X2073685Y1611779D02*
X2073455Y1611643D01*
X2073526Y1612571*
X2073526*
X2073685Y1611779*
X2073691Y1616248D02*
X2073565Y1616204D01*
X2073669Y1617449*
X2073669*
X2073691Y1616248*
X2073608Y1613111D02*
X2073712Y1613199D01*
X2073685Y1611779*
X2073685*
X2073608Y1613111*
X2073691Y1616248D02*
X2073669Y1617449D01*
X2073822Y1616456*
X2073822D02*
X2073822D01*
X2073822D02*
X2073691Y1616248D01*
X2073822Y1616456D02*
X2073669Y1617449D01*
X2073822Y1616870*
X2073822D02*
X2073822D01*
X2073822D02*
Y1616456D01*
X2073669Y1617449D02*
X2073822Y1617111D01*
X2073822D02*
Y1616870D01*
X2073822D02*
X2073822D01*
X2073822D02*
X2073669Y1617449D01*
X2073843Y1613231D02*
X2073898Y1612047D01*
X2073712Y1613199*
X2073712*
X2073843Y1613231*
X2073898Y1612047D02*
X2073685Y1611779D01*
X2073712Y1613199*
X2073712*
X2073898Y1612047*
X2073843Y1613231D02*
X2073947Y1613166D01*
X2073898Y1612047*
X2073898*
X2073843Y1613231*
X2073996Y1612292D02*
X2073898Y1612047D01*
X2073947Y1613166*
X2073947*
X2073996Y1612292*
X2073947Y1613166*
X2074023Y1612582*
X2074023*
X2073996Y1612292*
X2073947Y1613166D02*
X2074023Y1612953D01*
Y1612582*
X2074023*
X2073947Y1613166*
G74*
X0Y0D02*
M02*
