*
*
G04 PADS Layout (Build Number 2007.42.1) generated Gerber (RS-274-X) file*
G04 PC Version=2.1*
*
%IN "RBCS_RC_MAIS_001__blz.p"*%
*
%MOIN*%
*
%FSLAX35Y35*%
*
*
*
*
G04 PC Standard Apertures*
*
*
G04 Thermal Relief Aperture macro.*
%AMTER*
1,1,$1,0,0*
1,0,$1-$2,0,0*
21,0,$3,$4,0,0,45*
21,0,$3,$4,0,0,135*
%
*
*
G04 Annular Aperture macro.*
%AMANN*
1,1,$1,0,0*
1,0,$2,0,0*
%
*
*
G04 Odd Aperture macro.*
%AMODD*
1,1,$1,0,0*
1,0,$1-0.005,0,0*
%
*
*
G04 PC Custom Aperture Macros*
*
*
*
*
*
*
G04 PC Aperture Table*
*
%ADD010C,0.01*%
%ADD011C,0.001*%
%ADD014R,0.08X0.08*%
%ADD017R,0.05X0.05*%
%ADD022C,0.06*%
%ADD030R,0.034X0.034*%
%ADD143R,0.035X0.035*%
%ADD248R,0.04583X0.04583*%
%ADD249R,0.062X0.062*%
%ADD250C,0.06906*%
%ADD251C,0.12811*%
%ADD252R,0.03756X0.03756*%
%ADD253R,0.09268X0.09268*%
%ADD254R,0.0285X0.0285*%
%ADD255R,0.06906X0.06906*%
%ADD256R,0.03087X0.03087*%
%ADD257R,0.086X0.086*%
%ADD258R,0.02378X0.02378*%
%ADD259R,0.25606X0.25606*%
%ADD260R,0.06118X0.06118*%
%ADD261C,0.023*%
*
*
*
*
G04 PC Copper Outlines (0)*
G04 Layer Name RBCS_RC_MAIS_001__blz.p - dark (0)*
%LPD*%
*
*
G04 PC Area=Custom_Thermal*
*
G04 PC Custom Flashes*
G04 Layer Name RBCS_RC_MAIS_001__blz.p - flashes*
%LPD*%
*
*
G04 PC Circuitry*
G04 Layer Name RBCS_RC_MAIS_001__blz.p - circuitry*
%LPD*%
*
G54D10*
G01X2126087Y1603268D02*
X2125632Y1603893D01*
X2124950Y1604205*
X2124041*
X2123359Y1603893*
X2122905Y1603268*
Y1602643*
X2123132Y1602018*
X2123359Y1601705*
X2123814Y1601393*
X2125177Y1600768*
X2125632Y1600455*
X2125859Y1600143*
X2126087Y1599518*
Y1598580*
X2125632Y1597955*
X2124950Y1597643*
X2124041*
X2123359Y1597955*
X2122905Y1598580*
X2128132Y1604205D02*
Y1597643D01*
Y1604205D02*
X2129950Y1597643D01*
X2131768Y1604205D02*
X2129950Y1597643D01*
X2131768Y1604205D02*
Y1597643D01*
X2133814Y1604205D02*
Y1597643D01*
Y1604205D02*
X2135859D01*
X2136541Y1603893*
X2136768Y1603580*
X2136996Y1602955*
Y1602330*
X2136768Y1601705*
X2136541Y1601393*
X2135859Y1601080*
X2133814D02*
X2135859D01*
X2136541Y1600768*
X2136768Y1600455*
X2136996Y1599830*
Y1598893*
X2136768Y1598268*
X2136541Y1597955*
X2135859Y1597643*
X2133814*
X2144268Y1600455D02*
X2148359D01*
X2158814Y1603268D02*
X2158359Y1603893D01*
X2157677Y1604205*
X2156768*
X2156087Y1603893*
X2155632Y1603268*
Y1602643*
X2155859Y1602018*
X2156087Y1601705*
X2156541Y1601393*
X2157905Y1600768*
X2158359Y1600455*
X2158587Y1600143*
X2158814Y1599518*
Y1598580*
X2158359Y1597955*
X2157677Y1597643*
X2156768*
X2156087Y1597955*
X2155632Y1598580*
X2161996Y1602018D02*
X2161541Y1601705D01*
X2161087Y1601080*
X2160859Y1600143*
Y1599518*
X2161087Y1598580*
X2161541Y1597955*
X2161996Y1597643*
X2162677*
X2163132Y1597955*
X2163587Y1598580*
X2163814Y1599518*
Y1600143*
X2163587Y1601080*
X2163132Y1601705*
X2162677Y1602018*
X2161996*
X2165859Y1604205D02*
Y1597643D01*
X2170632Y1604205D02*
Y1597643D01*
Y1601080D02*
X2170177Y1601705D01*
X2169723Y1602018*
X2169041*
X2168587Y1601705*
X2168132Y1601080*
X2167905Y1600143*
Y1599518*
X2168132Y1598580*
X2168587Y1597955*
X2169041Y1597643*
X2169723*
X2170177Y1597955*
X2170632Y1598580*
X2172677Y1600143D02*
X2175405D01*
Y1600768*
X2175177Y1601393*
X2174950Y1601705*
X2174496Y1602018*
X2173814*
X2173359Y1601705*
X2172905Y1601080*
X2172677Y1600143*
Y1599518*
X2172905Y1598580*
X2173359Y1597955*
X2173814Y1597643*
X2174496*
X2174950Y1597955*
X2175405Y1598580*
X2177450Y1602018D02*
Y1597643D01*
Y1600143D02*
X2177677Y1601080D01*
X2178132Y1601705*
X2178587Y1602018*
X2179268*
X2186541Y1604205D02*
Y1597643D01*
X2191314Y1602018D02*
Y1597643D01*
Y1601080D02*
X2190859Y1601705D01*
X2190405Y1602018*
X2189723*
X2189268Y1601705*
X2188814Y1601080*
X2188587Y1600143*
Y1599518*
X2188814Y1598580*
X2189268Y1597955*
X2189723Y1597643*
X2190405*
X2190859Y1597955*
X2191314Y1598580*
X2194041Y1604205D02*
Y1598893D01*
X2194268Y1597955*
X2194723Y1597643*
X2195177*
X2193359Y1602018D02*
X2194950D01*
X2198359D02*
X2197905Y1601705D01*
X2197450Y1601080*
X2197223Y1600143*
Y1599518*
X2197450Y1598580*
X2197905Y1597955*
X2198359Y1597643*
X2199041*
X2199496Y1597955*
X2199950Y1598580*
X2200177Y1599518*
Y1600143*
X2199950Y1601080*
X2199496Y1601705*
X2199041Y1602018*
X2198359*
X2209950Y1601080D02*
X2209723Y1601705D01*
X2209041Y1602018*
X2208359*
X2207677Y1601705*
X2207450Y1601080*
X2207677Y1600455*
X2208132Y1600143*
X2209268Y1599830*
X2209723Y1599518*
X2209950Y1598893*
Y1598580*
X2209723Y1597955*
X2209041Y1597643*
X2208359*
X2207677Y1597955*
X2207450Y1598580*
X2214723Y1602018D02*
Y1597643D01*
Y1601080D02*
X2214268Y1601705D01*
X2213814Y1602018*
X2213132*
X2212677Y1601705*
X2212223Y1601080*
X2211996Y1600143*
Y1599518*
X2212223Y1598580*
X2212677Y1597955*
X2213132Y1597643*
X2213814*
X2214268Y1597955*
X2214723Y1598580*
X2216768Y1604205D02*
Y1597643D01*
X2221541Y1604205D02*
Y1597643D01*
Y1601080D02*
X2221087Y1601705D01*
X2220632Y1602018*
X2219950*
X2219496Y1601705*
X2219041Y1601080*
X2218814Y1600143*
Y1599518*
X2219041Y1598580*
X2219496Y1597955*
X2219950Y1597643*
X2220632*
X2221087Y1597955*
X2221541Y1598580*
X2226314Y1602018D02*
Y1597643D01*
Y1601080D02*
X2225859Y1601705D01*
X2225405Y1602018*
X2224723*
X2224268Y1601705*
X2223814Y1601080*
X2223587Y1600143*
Y1599518*
X2223814Y1598580*
X2224268Y1597955*
X2224723Y1597643*
X2225405*
X2225859Y1597955*
X2226314Y1598580*
X2229041Y1604205D02*
Y1598893D01*
X2229268Y1597955*
X2229723Y1597643*
X2230177*
X2228359Y1602018D02*
X2229950D01*
X2232223D02*
Y1598893D01*
X2232450Y1597955*
X2232905Y1597643*
X2233587*
X2234041Y1597955*
X2234723Y1598893*
Y1602018D02*
Y1597643D01*
X2236768Y1602018D02*
Y1597643D01*
Y1600143D02*
X2236996Y1601080D01*
X2237450Y1601705*
X2237905Y1602018*
X2238587*
X2240632Y1600143D02*
X2243359D01*
Y1600768*
X2243132Y1601393*
X2242905Y1601705*
X2242450Y1602018*
X2241768*
X2241314Y1601705*
X2240859Y1601080*
X2240632Y1600143*
Y1599518*
X2240859Y1598580*
X2241314Y1597955*
X2241768Y1597643*
X2242450*
X2242905Y1597955*
X2243359Y1598580*
G54D11*
X1687106Y1439764D02*
Y1399606D01*
X1724114*
X2272736Y1400197D02*
X2312894D01*
Y1437205*
Y1758858D02*
Y1799016D01*
X2275886*
X1727657Y1800394D02*
X1687500D01*
Y1763386*
G54D14*
X1865616Y1581042D03*
X2072331Y1600446D03*
X1847191Y1634288D03*
G54D17*
X1921130Y1583602D02*
X1922630D01*
X1921130Y1591202D02*
X1922630D01*
X1929930Y1587402D02*
X1931430D01*
G54D22*
X2007237Y1597776D03*
X1886909Y1622047D03*
X1907382Y1619685D03*
X1888252Y1594926D03*
X1869539Y1587919D03*
X1883760Y1589764D03*
X1962538Y1603338D03*
X1997109Y1638467D03*
X2060138Y1608661D03*
G54D30*
X2007932Y1603112D02*
X2006832D01*
X2007932Y1607912D02*
X2006832D01*
X1862856Y1595907D02*
Y1597007D01*
X1867656Y1595907D02*
Y1597007D01*
X1873917Y1615904D02*
Y1614804D01*
X1870768Y1615904D02*
Y1614804D01*
X1900452Y1623978D02*
X1899352D01*
X1900452Y1628778D02*
X1899352D01*
X1911869Y1605868D02*
X1910769D01*
X1911869Y1610668D02*
X1910769D01*
X1875848Y1595907D02*
Y1597007D01*
X1880648Y1595907D02*
Y1597007D01*
X1950333Y1598581D02*
Y1597481D01*
X1945533Y1598581D02*
Y1597481D01*
X1891084Y1610668D02*
X1892184D01*
X1891084Y1605868D02*
X1892184D01*
X1891202Y1599056D02*
Y1600156D01*
X1896002Y1599056D02*
Y1600156D01*
X1945533Y1591970D02*
Y1593070D01*
X1950333Y1591970D02*
Y1593070D01*
X1936458Y1587141D02*
Y1588241D01*
X1941258Y1587141D02*
Y1588241D01*
X2024942Y1595313D02*
X2026042D01*
X2024942Y1590513D02*
X2026042D01*
X1934903Y1591970D02*
Y1593070D01*
X1939703Y1591970D02*
Y1593070D01*
X1959782Y1598581D02*
Y1597481D01*
X1954982Y1598581D02*
Y1597481D01*
X1960176Y1593070D02*
Y1591970D01*
X1955376Y1593070D02*
Y1591970D01*
X1934585Y1598581D02*
Y1597481D01*
X1929785Y1598581D02*
Y1597481D01*
X1882617Y1615904D02*
Y1614804D01*
X1877817Y1615904D02*
Y1614804D01*
X1869037Y1610668D02*
X1870137D01*
X1869037Y1605868D02*
X1870137D01*
G54D143*
X2014897Y1609306D03*
Y1612456D03*
Y1615606D03*
Y1618756D03*
X2020897D03*
Y1615606D03*
Y1612456D03*
Y1609306D03*
X1976412Y1637815D03*
X1979562D03*
X1982712D03*
X1985862D03*
Y1631815D03*
X1982712D03*
X1979562D03*
X1976412D03*
X2041420Y1609306D03*
Y1612456D03*
Y1615606D03*
Y1618756D03*
X2047420D03*
Y1615606D03*
Y1612456D03*
Y1609306D03*
G54D248*
X1911929Y1628346D02*
X1910709D01*
X1911929Y1615472D02*
X1910709D01*
X1915170Y1598280D02*
Y1599500D01*
X1902296Y1598280D02*
Y1599500D01*
G54D249*
X1894396Y1622578D02*
X1893596D01*
X1894396Y1630178D02*
X1893596D01*
X1948549Y1620818D02*
Y1621618D01*
X1956149Y1620818D02*
Y1621618D01*
X1939610Y1629630D02*
X1938810D01*
X1939610Y1637230D02*
X1938810D01*
G54D250*
X1945571Y1581890D03*
X1965571D03*
X1955571D03*
X1935571D03*
X1975571D03*
G54D251*
X2069587Y1584646D03*
G54D252*
X1861122Y1601673D02*
X1864665D01*
X1861122Y1606594D02*
X1864665D01*
X1861122Y1611516D02*
X1864665D01*
X1861122Y1616437D02*
X1864665D01*
G54D253*
X1849705Y1591634D02*
X1853248D01*
X1849705Y1626476D02*
X1853248D01*
G54D254*
X1881201Y1600906D02*
Y1603189D01*
X1878642Y1600906D02*
Y1603189D01*
X1876083Y1600906D02*
Y1603189D01*
X1873524Y1600906D02*
Y1603189D01*
Y1607835D02*
Y1610118D01*
X1876083Y1607835D02*
Y1610118D01*
X1878642Y1607835D02*
Y1610118D01*
X1881201Y1607835D02*
Y1610118D01*
G54D255*
X1919312Y1614508D02*
Y1610965D01*
X1941753Y1614508D02*
Y1610965D01*
G54D256*
X1904429Y1604783D02*
Y1606831D01*
X1900689Y1604783D02*
Y1606831D01*
X1896949Y1604783D02*
Y1606831D01*
Y1614429D02*
Y1616476D01*
X1900689Y1614429D02*
Y1616476D01*
X1904429Y1614429D02*
Y1616476D01*
G54D257*
X1907645Y1583858D02*
X1899245D01*
X2020243Y1582283D02*
X2011843D01*
X2068799Y1617980D02*
Y1609580D01*
G54D258*
X1999606Y1592028D02*
Y1593406D01*
X1997047Y1592028D02*
Y1593406D01*
X1994488Y1592028D02*
Y1593406D01*
X1991929Y1592028D02*
Y1593406D01*
X1989370Y1592028D02*
Y1593406D01*
X1986811Y1592028D02*
Y1593406D01*
X1984252Y1592028D02*
Y1593406D01*
X1981693Y1592028D02*
Y1593406D01*
X1979134Y1592028D02*
Y1593406D01*
X1976575Y1592028D02*
Y1593406D01*
X1974016Y1592028D02*
Y1593406D01*
X1970866Y1595177D02*
X1972244D01*
X1970866Y1597736D02*
X1972244D01*
X1970866Y1600295D02*
X1972244D01*
X1970866Y1602854D02*
X1972244D01*
X1970866Y1605413D02*
X1972244D01*
X1970866Y1607972D02*
X1972244D01*
X1970866Y1610531D02*
X1972244D01*
X1970866Y1613091D02*
X1972244D01*
X1970866Y1615650D02*
X1972244D01*
X1970866Y1618209D02*
X1972244D01*
X1970866Y1620768D02*
X1972244D01*
X1974016Y1622539D02*
Y1623917D01*
X1976575Y1622539D02*
Y1623917D01*
X1979134Y1622539D02*
Y1623917D01*
X1981693Y1622539D02*
Y1623917D01*
X1984252Y1622539D02*
Y1623917D01*
X1986811Y1622539D02*
Y1623917D01*
X1989370Y1622539D02*
Y1623917D01*
X1991929Y1622539D02*
Y1623917D01*
X1994488Y1622539D02*
Y1623917D01*
X1997047Y1622539D02*
Y1623917D01*
X1999606Y1622539D02*
Y1623917D01*
X2001378Y1620768D02*
X2002756D01*
X2001378Y1618209D02*
X2002756D01*
X2001378Y1615650D02*
X2002756D01*
X2001378Y1613091D02*
X2002756D01*
X2001378Y1610531D02*
X2002756D01*
X2001378Y1607972D02*
X2002756D01*
X2001378Y1605413D02*
X2002756D01*
X2001378Y1602854D02*
X2002756D01*
X2001378Y1600295D02*
X2002756D01*
X2001378Y1597736D02*
X2002756D01*
X2001378Y1595177D02*
X2002756D01*
G54D259*
X1986811Y1607972D03*
G54D260*
X1948133Y1638114D02*
Y1637720D01*
X1957976Y1638114D02*
Y1637720D01*
Y1629453D02*
Y1629059D01*
X1948133Y1629453D02*
Y1629059D01*
G54D261*
X2030079Y1582283D02*
X2033504D01*
X2030079Y1584843D02*
X2033504D01*
X2030079Y1587402D02*
X2033504D01*
X2030079Y1589961D02*
X2033504D01*
X2030079Y1592520D02*
X2033504D01*
X2030079Y1595079D02*
X2033504D01*
X2030079Y1597638D02*
X2033504D01*
X2030079Y1600197D02*
X2033504D01*
X2052520D02*
X2055944D01*
X2052520Y1597638D02*
X2055944D01*
X2052520Y1595079D02*
X2055944D01*
X2052520Y1592520D02*
X2055944D01*
X2052520Y1589961D02*
X2055944D01*
X2052520Y1587402D02*
X2055944D01*
X2052520Y1584843D02*
X2055944D01*
X2052520Y1582283D02*
X2055944D01*
X0Y0D02*
M02*
