*
*
G04 PADS 9.5 Build Number: 522968 generated Gerber (RS-274-X) file*
G04 PC Version=2.1*
*
%IN "LCORE_4.pcb"*%
*
%MOIN*%
*
%FSLAX35Y35*%
*
*
*
*
G04 PC Standard Apertures*
*
*
G04 Thermal Relief Aperture macro.*
%AMTER*
1,1,$1,0,0*
1,0,$1-$2,0,0*
21,0,$3,$4,0,0,45*
21,0,$3,$4,0,0,135*
%
*
*
G04 Annular Aperture macro.*
%AMANN*
1,1,$1,0,0*
1,0,$2,0,0*
%
*
*
G04 Odd Aperture macro.*
%AMODD*
1,1,$1,0,0*
1,0,$1-0.005,0,0*
%
*
*
G04 PC Custom Aperture Macros*
*
*
*
*
*
*
G04 PC Aperture Table*
*
%ADD010C,0.001*%
%ADD012C,0.01*%
%ADD013C,0.00591*%
%ADD018R,0.02165X0.02165*%
%ADD020C,0.01181*%
%ADD021C,0.02362*%
%ADD022C,0.00709*%
%ADD023C,0.01969*%
%ADD024R,0.01181X0.0315*%
%ADD027C,0.00039*%
%ADD033C,0.01575*%
%ADD034R,0.04724X0.02953*%
*
*
*
*
G04 PC Circuitry*
G04 Layer Name LCORE_4.pcb - circuitry*
%LPD*%
*
*
G04 PC Custom Flashes*
G04 Layer Name LCORE_4.pcb - flashes*
%LPD*%
*
*
G04 PC Circuitry*
G04 Layer Name LCORE_4.pcb - circuitry*
%LPD*%
*
G54D10*
G54D12*
G01X2110953Y1587003D02*
Y1580441D01*
Y1587003D02*
X2108908D01*
X2108226Y1586691*
X2107999Y1586378*
X2107772Y1585753*
Y1585128*
X2107999Y1584503*
X2108226Y1584191*
X2108908Y1583878*
X2110953D02*
X2108908D01*
X2108226Y1583566*
X2107999Y1583253*
X2107772Y1582628*
Y1581691*
X2107999Y1581066*
X2108226Y1580753*
X2108908Y1580441*
X2110953*
X2104363Y1587003D02*
X2104817Y1586691D01*
X2105272Y1586066*
X2105499Y1585441*
X2105726Y1584503*
Y1582941*
X2105499Y1582003*
X2105272Y1581378*
X2104817Y1580753*
X2104363Y1580441*
X2103453*
X2102999Y1580753*
X2102544Y1581378*
X2102317Y1582003*
X2102090Y1582941*
Y1584503*
X2102317Y1585441*
X2102544Y1586066*
X2102999Y1586691*
X2103453Y1587003*
X2104363*
X2098453D02*
Y1580441D01*
X2100044Y1587003D02*
X2096863D01*
X2093226D02*
Y1580441D01*
X2094817Y1587003D02*
X2091635D01*
X2088226D02*
X2088681Y1586691D01*
X2089135Y1586066*
X2089363Y1585441*
X2089590Y1584503*
Y1582941*
X2089363Y1582003*
X2089135Y1581378*
X2088681Y1580753*
X2088226Y1580441*
X2087317*
X2086863Y1580753*
X2086408Y1581378*
X2086181Y1582003*
X2085953Y1582941*
Y1584503*
X2086181Y1585441*
X2086408Y1586066*
X2086863Y1586691*
X2087317Y1587003*
X2088226*
X2083908D02*
Y1580441D01*
Y1587003D02*
X2082090Y1580441D01*
X2080272Y1587003D02*
X2082090Y1580441D01*
X2080272Y1587003D02*
Y1580441D01*
X2069590Y1585441D02*
X2069817Y1586066D01*
X2070272Y1586691*
X2070726Y1587003*
X2071635*
X2072090Y1586691*
X2072544Y1586066*
X2072772Y1585441*
X2072999Y1584503*
Y1582941*
X2072772Y1582003*
X2072544Y1581378*
X2072090Y1580753*
X2071635Y1580441*
X2070726*
X2070272Y1580753*
X2069817Y1581378*
X2069590Y1582003*
X2066181Y1587003D02*
X2066635Y1586691D01*
X2067090Y1586066*
X2067317Y1585441*
X2067544Y1584503*
Y1582941*
X2067317Y1582003*
X2067090Y1581378*
X2066635Y1580753*
X2066181Y1580441*
X2065272*
X2064817Y1580753*
X2064363Y1581378*
X2064135Y1582003*
X2063908Y1582941*
Y1584503*
X2064135Y1585441*
X2064363Y1586066*
X2064817Y1586691*
X2065272Y1587003*
X2066181*
X2061863D02*
Y1580441D01*
Y1587003D02*
X2059817D01*
X2059135Y1586691*
X2058908Y1586378*
X2058681Y1585753*
Y1584816*
X2058908Y1584191*
X2059135Y1583878*
X2059817Y1583566*
X2061863*
X2056635Y1587003D02*
Y1580441D01*
Y1587003D02*
X2054590D01*
X2053908Y1586691*
X2053681Y1586378*
X2053453Y1585753*
Y1584816*
X2053681Y1584191*
X2053908Y1583878*
X2054590Y1583566*
X2056635*
X2051408Y1587003D02*
Y1580441D01*
Y1587003D02*
X2048453D01*
X2051408Y1583878D02*
X2049590D01*
X2051408Y1580441D02*
X2048453D01*
X2046408Y1587003D02*
Y1580441D01*
Y1587003D02*
X2044363D01*
X2043681Y1586691*
X2043453Y1586378*
X2043226Y1585753*
Y1585128*
X2043453Y1584503*
X2043681Y1584191*
X2044363Y1583878*
X2046408*
X2044817D02*
X2043226Y1580441D01*
X1900788Y1561558D02*
G75*
G03X1921809Y1551031I48934J71466D01*
G01X1921827Y1551025D02*
G03X1926389Y1552091I1471J3999D01*
G01X1932249Y1554225D02*
G03X1926391Y1552092I-1336J-5442D01*
G01X1932289Y1554216D02*
G03X1960292Y1552993I17468J78795D01*
G01X1965815Y1550567D02*
G03X1960269Y1552990I-4781J-3386D01*
G01X1965819Y1550561D02*
G03X1970341Y1548880I3345J2074D01*
G01X1970380Y1548889D02*
G03X1985922Y1554286I-20514J84150D01*
G01X1985913Y1554281D02*
G03X1988944Y1564993I-3840J6872D01*
G01X1988940Y1564999D02*
X1969016Y1599606D01*
X1969018Y1599603D02*
G03X1959686Y1603148I-6910J-4135D01*
G01X1934880Y1605240D02*
G03X1959709Y1603156I14835J27784D01*
G01X1924884Y1603377D02*
G03X1934851Y1605260I3644J8033D01*
G01X1924879Y1603379D02*
X1899587Y1573281D01*
X1899585Y1573278D02*
G03X1900763Y1561574I5923J-5315D01*
G01X1837791Y1744944D02*
X1817791D01*
Y1724944*
X1823603Y1475056D02*
Y1455056D01*
X1843603*
X2162209Y1460312D02*
X2182209D01*
Y1480312*
X2176373Y1719944D02*
Y1739944D01*
X2156373*
G54D13*
X1939064Y1588709D02*
X1938119D01*
X1937528Y1586189D02*
Y1587134D01*
Y1591228D02*
Y1590283D01*
X1935560Y1586189D02*
Y1587134D01*
Y1591228D02*
Y1590283D01*
X1963316Y1593098D02*
Y1592154D01*
X1965343Y1591071D02*
X1964398D01*
X1963316Y1589043D02*
Y1589988D01*
X1925461Y1578866D02*
X1926406D01*
X1927489Y1580894D02*
Y1579949D01*
X1929516Y1578866D02*
X1928572D01*
X1929516Y1585165D02*
X1928572D01*
X1927489Y1583138D02*
Y1584083D01*
X1925461Y1585165D02*
X1926406D01*
X1965638Y1582016D02*
X1964694D01*
X1959024D02*
X1959969D01*
X1966426Y1586543D02*
X1965481D01*
X1964890Y1589063D02*
Y1588118D01*
X1939241Y1578866D02*
X1940186D01*
X1941268Y1580894D02*
Y1579949D01*
X1943296Y1578866D02*
X1942351D01*
X1943493Y1585165D02*
X1942548D01*
X1941465Y1583138D02*
Y1584083D01*
X1939438Y1585165D02*
X1940383D01*
X1953217Y1578866D02*
X1954162D01*
X1955245Y1580894D02*
Y1579949D01*
X1957272Y1578866D02*
X1956327D01*
X1952646Y1588709D02*
X1951701D01*
X1951111Y1586189D02*
Y1587134D01*
G54D18*
X1955245Y1575323D03*
Y1578866D03*
X1941465Y1588709D03*
Y1585165D03*
X1941268Y1575323D03*
Y1578866D03*
X1927489Y1588709D03*
Y1585165D03*
Y1575323D03*
Y1578866D03*
X1959772Y1591071D03*
X1963316D03*
X1941465Y1596976D03*
Y1593433D03*
X1959772Y1569220D03*
Y1572764D03*
X1956229Y1595598D03*
X1959772D03*
G54D20*
X1940481Y1572764D02*
X1941873Y1571372D01*
X1942630*
X1943170Y1571912*
Y1573684*
X1941859Y1567843D02*
X1941957Y1567941D01*
X1937528Y1575323D02*
Y1572567D01*
X1941957Y1568138*
Y1567941*
X1959772Y1577488D02*
Y1572764D01*
X1964890*
Y1577488*
X1946386Y1564102D02*
Y1568039D01*
X1947174Y1568827*
Y1575323*
X1955245D02*
Y1572764D01*
X1957410*
X1959772*
X1941268Y1581819D02*
X1941465Y1582016D01*
X1937460D02*
X1937528Y1585953D01*
Y1588709*
X1935560Y1582016D02*
Y1588709D01*
X1929851Y1575323D02*
X1931623D01*
X1939300Y1593433D02*
X1941465D01*
X1941957*
X1933591Y1575323D02*
Y1572567D01*
X1939890Y1566268*
X1940087*
X1933591Y1588709D02*
Y1591661D01*
X1931623Y1588709D02*
Y1594417D01*
X1937363*
X1938347Y1593433*
X1939300*
X1927489Y1575323D02*
X1929851D01*
X1927489Y1588709D02*
X1931623D01*
X1941268Y1575323D02*
Y1574831D01*
X1941760*
X1941760D02*
X1943170Y1573684D01*
X1941465Y1588709D02*
X1941957D01*
Y1593433*
X1941465Y1588709D02*
Y1589201D01*
X1945205*
Y1588709*
X1943170Y1573684D02*
X1945205D01*
Y1575323*
X1951111Y1582016D02*
Y1588709D01*
X1959772Y1586543D02*
Y1591071D01*
X1949142Y1575323D02*
Y1567055D01*
X1951505Y1564693*
X1951111Y1575323D02*
Y1572764D01*
X1955245*
X1949142Y1588709D02*
Y1591465D01*
X1951308Y1592843*
X1947174Y1588709D02*
Y1592280D01*
X1947485Y1592758*
Y1592763*
X1948552Y1594417*
X1964890Y1582016D02*
Y1586543D01*
X1963316Y1591071D02*
X1963808D01*
X1964890Y1589737*
Y1586543*
X1932607Y1596976D02*
X1941465D01*
X1954321*
X1956229Y1595598*
X1959772D02*
X1959280D01*
Y1591071*
X1959772*
G54D21*
X1927489Y1585165D02*
Y1582016D01*
X1935560*
X1951111D02*
X1941465D01*
X1937460*
X1935560D02*
X1937460D01*
X1922371Y1580638D02*
X1923749Y1582016D01*
X1927489*
X1922371Y1580638D02*
Y1571976D01*
X1924339Y1570008*
X1929064*
X1931623Y1567449*
X1934575*
X1927489Y1578866D02*
Y1582016D01*
X1962331D02*
X1955245D01*
X1951111*
X1967056D02*
X1964890D01*
X1962331*
G54D22*
X1983938Y1571792D02*
Y1571793*
X1968202Y1599128D01*
X1968202*
G03X1959975Y1602248I-6094J-3660*
G01X1959975*
X1935011Y1604106D02*
G03X1959975Y1602248I14704J28918D01*
G01X1935011Y1604106D02*
X1925159Y1602244*
G03X1935011Y1604106I3369J9166D01*
G01X1925159Y1602244D02*
X1925158Y1602243*
X1905374Y1578699D01*
Y1578698D02*
G03X1938029Y1563867I44359J54302D01*
G01X1938030D02*
Y1565956D01*
Y1565957D02*
X1932505Y1571481D01*
X1932056Y1572567D02*
G03X1932505Y1571481I1535J-0D01*
G01X1932056Y1572567D02*
Y1572802D01*
X1932055Y1572803D02*
X1931032D01*
X1930098Y1573607D02*
G03X1931032Y1572803I934J141D01*
G01X1930098Y1573607D02*
X1929327Y1573672*
G03X1930097Y1573608I524J1651D01*
G01X1929327Y1573672D02*
X1928572Y1573295*
G03X1929326Y1573671I-0J945D01*
G01X1928572Y1573295D02*
X1926406D01*
X1925461Y1574240D02*
G03X1926406Y1573295I945J0D01*
G01X1925461Y1574240D02*
Y1576406D01*
X1925759Y1577094D02*
G03X1925461Y1576406I647J-688D01*
G01X1925759Y1577094D02*
X1925461Y1577783*
G03X1925759Y1577095I945J0D01*
G01X1925461Y1577783D02*
Y1579949D01*
X1926406Y1580894D02*
G03X1925461Y1579949I0J-945D01*
G01X1926406Y1580894D02*
X1928572D01*
X1929516Y1579949D02*
G03X1928572Y1580894I-944J-0D01*
G01X1929516Y1579949D02*
Y1577783D01*
X1929219Y1577095D02*
G03X1929516Y1577783I-647J688D01*
G01X1929219Y1577095D02*
X1929326Y1576974*
G03X1929219Y1577094I-754J-568D01*
G01X1929326Y1576974D02*
X1930097Y1577038*
G03X1929327Y1576974I-246J-1715D01*
G01X1930097Y1577038D02*
X1931032Y1577843*
G03X1930098Y1577038I0J-945D01*
G01X1931032Y1577843D02*
X1932213D01*
X1932607Y1577757D02*
G03X1932213Y1577843I-394J-859D01*
G01X1932607Y1577757D02*
X1933001Y1577843*
G03X1932607Y1577757I-0J-945D01*
G01X1933001Y1577843D02*
X1934182D01*
X1934575Y1577757D02*
G03X1934182Y1577843I-393J-859D01*
G01X1934575Y1577757D02*
X1934969Y1577843*
G03X1934576Y1577757I0J-945D01*
G01X1934969Y1577843D02*
X1936150D01*
X1936544Y1577757D02*
G03X1936150Y1577843I-394J-859D01*
G01X1936544Y1577757D02*
X1936938Y1577843*
G03X1936544Y1577757I-0J-945D01*
G01X1936938Y1577843D02*
X1938119D01*
X1939064Y1576898D02*
G03X1938119Y1577843I-945J-0D01*
G01X1939064Y1576898D02*
Y1575323D01*
Y1573762*
X1939271Y1574003D02*
G03X1939065Y1573762I1210J-1239D01*
G01X1939271Y1574003D02*
X1939241Y1574240*
G03X1939271Y1574004I945J0D01*
G01X1939241Y1574240D02*
Y1576406D01*
X1939538Y1577094D02*
G03X1939241Y1576406I648J-688D01*
G01X1939538Y1577094D02*
X1939241Y1577783*
G03X1939539Y1577095I945J0D01*
G01X1939241Y1577783D02*
Y1579949D01*
X1940186Y1580894D02*
G03X1939241Y1579949I-0J-945D01*
G01X1940186Y1580894D02*
X1942351D01*
X1943296Y1579949D02*
G03X1942351Y1580894I-945J-0D01*
G01X1943296Y1579949D02*
Y1577783D01*
X1942998Y1577095D02*
G03X1943296Y1577783I-647J688D01*
G01X1942998Y1577095D02*
X1943296Y1576406*
G03X1942998Y1577094I-945J-0D01*
G01X1943296Y1576406D02*
Y1575561D01*
X1943669Y1575257*
X1943670Y1575258D02*
Y1576898D01*
X1944615Y1577843D02*
G03X1943670Y1576898I-0J-945D01*
G01X1944615Y1577843D02*
X1945796D01*
X1946189Y1577757D02*
G03X1945796Y1577843I-393J-859D01*
G01X1946189Y1577757D02*
X1946583Y1577843*
G03X1946190Y1577757I0J-945D01*
G01X1946583Y1577843D02*
X1947764D01*
X1948158Y1577757D02*
G03X1947764Y1577843I-394J-859D01*
G01X1948158Y1577757D02*
X1948552Y1577843*
G03X1948158Y1577757I-0J-945D01*
G01X1948552Y1577843D02*
X1949733D01*
X1950126Y1577757D02*
G03X1949733Y1577843I-393J-859D01*
G01X1950126Y1577757D02*
X1950520Y1577843*
G03X1950127Y1577757I0J-945D01*
G01X1950520Y1577843D02*
X1951701D01*
X1952646Y1576898D02*
G03X1951701Y1577843I-945J-0D01*
G01X1952646Y1576898D02*
Y1575323D01*
Y1574300*
X1952647Y1574299D02*
X1953216D01*
X1953217Y1574300D02*
Y1576406D01*
X1953515Y1577094D02*
G03X1953217Y1576406I647J-688D01*
G01X1953515Y1577094D02*
X1953217Y1577783*
G03X1953515Y1577095I945J0D01*
G01X1953217Y1577783D02*
Y1579949D01*
X1954162Y1580894D02*
G03X1953217Y1579949I0J-945D01*
G01X1954162Y1580894D02*
X1956327D01*
X1957272Y1579949D02*
G03X1956327Y1580894I-945J-0D01*
G01X1957272Y1579949D02*
Y1577783D01*
X1956975Y1577095D02*
G03X1957272Y1577783I-648J688D01*
G01X1956975Y1577095D02*
X1957272Y1576406*
G03X1956975Y1577094I-945J-0D01*
G01X1957272Y1576406D02*
Y1574491D01*
X1957934Y1574415D02*
G03X1957273Y1574491I-524J-1651D01*
G01X1957934Y1574415D02*
X1958236Y1574676*
G03X1957935Y1574415I454J-830D01*
G01X1958236Y1574676D02*
X1958237*
Y1575913D01*
Y1579063*
X1959182Y1580008D02*
G03X1958237Y1579063I-0J-945D01*
G01X1959182Y1580008D02*
X1959187D01*
X1959024Y1580539D02*
G03X1959187Y1580009I945J0D01*
G01X1959024Y1580539D02*
Y1583492D01*
X1959187Y1584022D02*
G03X1959024Y1583492I782J-530D01*
G01X1959187Y1584022D02*
Y1584024*
X1959182D01*
X1958237Y1584969D02*
G03X1959182Y1584024I945J-0D01*
G01X1958237Y1584969D02*
Y1586543D01*
Y1589158*
X1957745Y1589988D02*
G03X1958236Y1589159I945J0D01*
G01X1957745Y1589988D02*
Y1591071D01*
Y1593675*
X1957312Y1593571D02*
G03X1957744Y1593675I-0J945D01*
G01X1957312Y1593571D02*
X1955146D01*
X1954201Y1594516D02*
G03X1955146Y1593571I945J-0D01*
G01X1954201Y1594516D02*
Y1595168D01*
Y1595169D02*
X1953825Y1595441D01*
X1953824D02*
X1949951D01*
X1950274Y1594234D02*
G03X1949950Y1595440I-1722J183D01*
G01X1950274Y1594234D02*
X1950274D01*
X1951889Y1591211D02*
G03X1950276Y1594234I-581J1632D01*
G01X1951889Y1591211D02*
X1952646Y1590283*
G03X1951890Y1591209I-945J0D01*
G01X1952646Y1590283D02*
Y1587134D01*
X1951701Y1586189D02*
G03X1952646Y1587134I0J945D01*
G01X1951701Y1586189D02*
X1950520D01*
X1950127Y1586275D02*
G03X1950520Y1586189I393J859D01*
G01X1950127Y1586275D02*
X1949733Y1586189*
G03X1950126Y1586275I-0J945D01*
G01X1949733Y1586189D02*
X1948552D01*
X1948158Y1586275D02*
G03X1948552Y1586189I394J859D01*
G01X1948158Y1586275D02*
X1947764Y1586189*
G03X1948158Y1586275I0J945D01*
G01X1947764Y1586189D02*
X1946583D01*
X1946190Y1586275D02*
G03X1946583Y1586189I393J859D01*
G01X1946190Y1586275D02*
X1945796Y1586189*
G03X1946189Y1586275I-0J945D01*
G01X1945796Y1586189D02*
X1944615D01*
X1943670Y1587134D02*
G03X1944615Y1586189I945J-0D01*
G01X1943670Y1587134D02*
Y1587665D01*
X1943669D02*
X1943494D01*
X1943493D02*
Y1587626D01*
X1943195Y1586938D02*
G03X1943493Y1587626I-647J688D01*
G01X1943195Y1586938D02*
X1943493Y1586248*
G03X1943195Y1586936I-945J0D01*
G01X1943493Y1586248D02*
Y1584083D01*
X1942548Y1583138D02*
G03X1943493Y1584083I-0J945D01*
G01X1942548Y1583138D02*
X1940383D01*
X1939438Y1584083D02*
G03X1940383Y1583138I945J-0D01*
G01X1939438Y1584083D02*
Y1586248D01*
X1939735Y1586936D02*
G03X1939438Y1586248I648J-688D01*
G01X1939735Y1586936D02*
X1939438Y1587626*
G03X1939735Y1586938I945J-0D01*
G01X1939438Y1587626D02*
Y1589791D01*
X1940383Y1590736D02*
G03X1939438Y1589791I-0J-945D01*
G01X1940383Y1590736D02*
X1940421D01*
X1940422Y1590737D02*
Y1591405D01*
X1940421D02*
X1940383D01*
X1939662Y1591739D02*
G03X1940383Y1591405I721J611D01*
G01X1939662Y1591739D02*
X1938498Y1591898*
G03X1939662Y1591739I802J1535D01*
G01X1938498Y1591898D02*
X1938347D01*
X1937262Y1592347D02*
G03X1938347Y1591898I1085J1086D01*
G01X1937262Y1592347D02*
X1936727Y1592882D01*
X1934822*
X1935269Y1591229D02*
G03X1934822Y1592881I-1678J432D01*
G01X1935269Y1591229D02*
Y1591228*
X1936150D01*
X1936544Y1591143D02*
G03X1936150Y1591228I-394J-860D01*
G01X1936544Y1591143D02*
X1936938Y1591228*
G03X1936544Y1591143I-0J-945D01*
G01X1936938Y1591228D02*
X1938119D01*
X1939064Y1590283D02*
G03X1938119Y1591228I-945J0D01*
G01X1939064Y1590283D02*
Y1587134D01*
X1938119Y1586189D02*
G03X1939064Y1587134I-0J945D01*
G01X1938119Y1586189D02*
X1936938D01*
X1936544Y1586275D02*
G03X1936938Y1586189I394J859D01*
G01X1936544Y1586275D02*
X1936150Y1586189*
G03X1936544Y1586275I0J945D01*
G01X1936150Y1586189D02*
X1934969D01*
X1934576Y1586275D02*
G03X1934969Y1586189I393J859D01*
G01X1934576Y1586275D02*
X1934182Y1586189*
G03X1934575Y1586275I-0J945D01*
G01X1934182Y1586189D02*
X1933001D01*
X1932607Y1586275D02*
G03X1933001Y1586189I394J859D01*
G01X1932607Y1586275D02*
X1932213Y1586189*
G03X1932607Y1586275I0J945D01*
G01X1932213Y1586189D02*
X1931032D01*
X1930087Y1587134D02*
G03X1931032Y1586189I945J-0D01*
G01X1930087Y1587134D02*
Y1587172D01*
X1930087D02*
Y1587173*
X1929401D01*
X1929219Y1586938D02*
G03X1929401Y1587173I-647J688D01*
G01X1929219Y1586938D02*
X1929516Y1586248*
G03X1929219Y1586936I-944J0D01*
G01X1929516Y1586248D02*
Y1584083D01*
X1928572Y1583138D02*
G03X1929516Y1584083I-0J945D01*
G01X1928572Y1583138D02*
X1926406D01*
X1925461Y1584083D02*
G03X1926406Y1583138I945J-0D01*
G01X1925461Y1584083D02*
Y1586248D01*
X1925759Y1586936D02*
G03X1925461Y1586248I647J-688D01*
G01X1925759Y1586936D02*
X1925461Y1587626*
G03X1925759Y1586938I945J-0D01*
G01X1925461Y1587626D02*
Y1589791D01*
X1926406Y1590736D02*
G03X1925461Y1589791I0J-945D01*
G01X1926406Y1590736D02*
X1928572D01*
X1929401Y1590244D02*
G03X1928572Y1590736I-829J-453D01*
G01X1929401Y1590244D02*
X1930087D01*
Y1590245D02*
Y1594417D01*
X1931244Y1595905D02*
G03X1930087Y1594417I379J-1488D01*
G01X1931244Y1595905D02*
X1933409Y1598512*
G03X1931245Y1595907I-802J-1536D01*
G01X1933409Y1598512D02*
X1939553D01*
X1940383Y1599004D02*
G03X1939553Y1598512I-0J-945D01*
G01X1940383Y1599004D02*
X1942548D01*
X1943377Y1598512D02*
G03X1942548Y1599004I-829J-453D01*
G01X1943377Y1598512D02*
X1943378*
X1954321D01*
X1955220Y1598221D02*
G03X1954321Y1598512I-899J-1245D01*
G01X1955220Y1598221D02*
X1956044Y1597626D01*
X1957312*
X1958000Y1597328D02*
G03X1957312Y1597626I-688J-647D01*
G01X1958000Y1597328D02*
X1958690Y1597626*
G03X1958001Y1597328I-0J-945D01*
G01X1958690Y1597626D02*
X1960855D01*
X1961800Y1596681D02*
G03X1960855Y1597626I-945J0D01*
G01X1961800Y1596681D02*
Y1594516D01*
X1960855Y1593571D02*
G03X1961800Y1594516I-0J945D01*
G01X1960855Y1593571D02*
X1960816D01*
Y1593570D02*
Y1593099D01*
Y1593098D02*
X1960855D01*
X1961543Y1592801D02*
G03X1960855Y1593098I-688J-647D01*
G01X1961543Y1592801D02*
X1962233Y1593098*
G03X1961544Y1592801I-0J-944D01*
G01X1962233Y1593098D02*
X1964398D01*
X1965343Y1592154D02*
G03X1964398Y1593098I-945J-0D01*
G01X1965343Y1592154D02*
Y1589988D01*
X1964597Y1589064D02*
G03X1965343Y1589988I-199J924D01*
G01X1964597Y1589064D02*
Y1589063*
X1965481D01*
X1966426Y1588118D02*
G03X1965481Y1589063I-945J0D01*
G01X1966426Y1588118D02*
Y1584969D01*
X1965481Y1584024D02*
G03X1966426Y1584969I-0J945D01*
G01X1965481Y1584024D02*
X1965476D01*
X1965638Y1583492D02*
G03X1965476Y1584022I-944J0D01*
G01X1965638Y1583492D02*
Y1580539D01*
X1965476Y1580009D02*
G03X1965638Y1580539I-782J530D01*
G01X1965476Y1580009D02*
Y1580008*
X1965481D01*
X1966426Y1579063D02*
G03X1965481Y1580008I-945J-0D01*
G01X1966426Y1579063D02*
Y1577488D01*
Y1575913*
Y1572764*
X1964890Y1571228D02*
G03X1966426Y1572764I0J1536D01*
G01X1964890Y1571228D02*
X1961685D01*
X1961502Y1570993D02*
G03X1961684Y1571228I-647J688D01*
G01X1961502Y1570993D02*
X1961800Y1570303*
G03X1961502Y1570992I-945J0D01*
G01X1961800Y1570303D02*
Y1568138D01*
X1961702Y1567718D02*
G03X1961800Y1568138I-847J420D01*
G01X1961702Y1567718D02*
X1961701*
Y1566661D01*
X1961214Y1565380D02*
G03X1961701Y1566661I-1442J1281D01*
G01X1961214Y1565380D02*
X1960206Y1564246D01*
Y1564245D02*
X1960206D01*
X1960266Y1563679*
X1960267D02*
G03X1983938Y1571792I-10534J69321D01*
G01X1964101Y1589042D02*
Y1589043*
X1963121D01*
X1963610Y1588765D02*
G03X1963121Y1589042I-688J-647D01*
G01X1963610Y1588765D02*
X1964101Y1589042*
G03X1963611Y1588765I199J-924D01*
G01X1963824Y1588935D02*
X1963933Y1589043D01*
X1983323Y1571453D02*
X1983838Y1571967D01*
X1981420Y1570452D02*
X1983509Y1572540D01*
X1979655Y1569588D02*
X1983179Y1573112D01*
X1977997Y1568832D02*
X1982849Y1573685D01*
X1976425Y1568162D02*
X1982520Y1574257D01*
X1974926Y1567565D02*
X1982190Y1574829D01*
X1973489Y1567030D02*
X1981861Y1575402D01*
X1972105Y1566548D02*
X1981531Y1575974D01*
X1970767Y1566112D02*
X1981202Y1576547D01*
X1969472Y1565719D02*
X1980872Y1577119D01*
X1968213Y1565362D02*
X1980543Y1577692D01*
X1966988Y1565039D02*
X1980213Y1578264D01*
X1965794Y1564747D02*
X1979883Y1578836D01*
X1964629Y1564483D02*
X1979554Y1579409D01*
X1963489Y1564246D02*
X1979224Y1579981D01*
X1962373Y1564032D02*
X1978895Y1580554D01*
X1961279Y1563840D02*
X1978565Y1581126D01*
X1960261Y1563724D02*
X1978236Y1581699D01*
X1961552Y1565917D02*
X1977906Y1582271D01*
X1961701Y1566968D02*
X1977577Y1582843D01*
X1966415Y1572584D02*
X1977247Y1583416D01*
X1966426Y1573497D02*
X1976918Y1583988D01*
X1966426Y1574399D02*
X1976588Y1584561D01*
X1966426Y1575301D02*
X1976258Y1585133D01*
X1966426Y1576203D02*
X1975929Y1585706D01*
X1966426Y1577105D02*
X1975599Y1586278D01*
X1966426Y1578006D02*
X1975270Y1586850D01*
X1966426Y1578908D02*
X1974940Y1587423D01*
X1966241Y1579625D02*
X1974611Y1587995D01*
X1965696Y1579983D02*
X1974281Y1588568D01*
X1965638Y1580827D02*
X1973952Y1589140D01*
X1965638Y1581729D02*
X1973622Y1589713D01*
X1965638Y1582631D02*
X1973292Y1590285D01*
X1965638Y1583532D02*
X1972963Y1590857D01*
X1966426Y1585222D02*
X1972633Y1591430D01*
X1966426Y1586124D02*
X1972304Y1592002D01*
X1966426Y1587026D02*
X1971974Y1592575D01*
X1966426Y1587928D02*
X1971645Y1593147D01*
X1966255Y1588660D02*
X1971315Y1593720D01*
X1965725Y1589031D02*
X1970986Y1594292D01*
X1964855Y1589063D02*
X1970656Y1594864D01*
X1965343Y1590453D02*
X1970327Y1595437D01*
X1965343Y1591355D02*
X1969997Y1596009D01*
X1965338Y1592252D02*
X1969667Y1596582D01*
X1965035Y1592851D02*
X1969338Y1597154D01*
X1964380Y1593098D02*
X1969008Y1597726D01*
X1963478Y1593098D02*
X1968679Y1598299D01*
X1962576Y1593098D02*
X1968349Y1598871D01*
X1961457Y1592882D02*
X1968008Y1599432D01*
X1961555Y1593881D02*
X1967624Y1599951D01*
X1961800Y1595028D02*
X1967200Y1600428D01*
X1961800Y1595930D02*
X1966734Y1600864D01*
X1961789Y1596821D02*
X1966228Y1601260D01*
X1961467Y1597401D02*
X1965680Y1601614D01*
X1960790Y1597626D02*
X1965086Y1601922D01*
X1961781Y1567950D02*
X1965070Y1571239D01*
X1959888Y1597626D02*
X1964443Y1602181D01*
X1961800Y1568871D02*
X1964158Y1571228D01*
X1958986Y1597626D02*
X1963745Y1602385D01*
X1961800Y1569773D02*
X1963256Y1571228D01*
X1957888Y1597430D02*
X1962980Y1602522D01*
X1961745Y1570620D02*
X1962354Y1571228D01*
X1957182Y1597626D02*
X1962132Y1602576D01*
X1960816Y1593142D02*
X1961490Y1593816D01*
X1956280Y1597626D02*
X1961168Y1602513D01*
X1955657Y1597905D02*
X1960012Y1602260D01*
X1957272Y1578775D02*
X1959024Y1580527D01*
X1956634Y1580843D02*
X1959024Y1583233D01*
X1957134Y1580441D02*
X1959024Y1582331D01*
X1957272Y1579677D02*
X1959024Y1581429D01*
X1955783Y1580894D02*
X1958944Y1584054D01*
X1955131Y1598281D02*
X1958703Y1601853D01*
X1954881Y1580894D02*
X1958410Y1584423D01*
X1947320Y1577843D02*
X1958237Y1588759D01*
X1948143Y1577763D02*
X1958237Y1587857D01*
X1949124Y1577843D02*
X1958237Y1586955D01*
X1949991Y1577807D02*
X1958237Y1586053D01*
X1953957Y1580871D02*
X1958237Y1585151D01*
X1957272Y1577873D02*
X1958237Y1578837D01*
X1957158Y1576856D02*
X1958237Y1577935D01*
X1957272Y1576069D02*
X1958237Y1577033D01*
X1957272Y1575167D02*
X1958237Y1576131D01*
X1957501Y1574494D02*
X1958237Y1575229D01*
X1946401Y1577825D02*
X1957962Y1589386D01*
X1952646Y1587678D02*
X1957745Y1592777D01*
X1952502Y1586632D02*
X1957745Y1591875D01*
X1944614Y1577843D02*
X1957745Y1590973D01*
X1945516Y1577843D02*
X1957745Y1590071D01*
X1952646Y1588580D02*
X1957739Y1593673D01*
X1954454Y1598506D02*
X1957472Y1601524D01*
X1952646Y1589482D02*
X1956735Y1593571D01*
X1953558Y1598512D02*
X1956306Y1601260D01*
X1952641Y1590379D02*
X1955833Y1593571D01*
X1952656Y1598512D02*
X1955193Y1601049D01*
X1952340Y1590980D02*
X1954951Y1593591D01*
X1953017Y1592558D02*
X1954398Y1593939D01*
X1952950Y1593394D02*
X1954201Y1594645D01*
X1951754Y1598512D02*
X1954127Y1600884D01*
X1952623Y1593969D02*
X1953982Y1595327D01*
X1952646Y1576855D02*
X1953268Y1577477D01*
X1950928Y1577843D02*
X1953240Y1580154D01*
X1952646Y1575953D02*
X1953226Y1576532D01*
X1951823Y1577835D02*
X1953217Y1579229D01*
X1952411Y1577521D02*
X1953217Y1578327D01*
X1952646Y1575051D02*
X1953217Y1575622D01*
X1952797Y1574299D02*
X1953217Y1574720D01*
X1952123Y1594371D02*
X1953193Y1595441D01*
X1950852Y1598512D02*
X1953100Y1600760D01*
X1951421Y1594571D02*
X1952291Y1595441D01*
X1943152Y1577282D02*
X1952203Y1586333D01*
X1949950Y1598512D02*
X1952110Y1600672D01*
X1950282Y1594334D02*
X1951389Y1595441D01*
X1943296Y1578328D02*
X1951157Y1586189D01*
X1949048Y1598512D02*
X1951151Y1600615D01*
X1950145Y1595098D02*
X1950487Y1595441D01*
X1943296Y1579230D02*
X1950285Y1586219D01*
X1948146Y1598512D02*
X1950221Y1600587D01*
X1943281Y1580117D02*
X1949353Y1586189D01*
X1947244Y1598512D02*
X1949318Y1600585D01*
X1942945Y1580683D02*
X1948456Y1586194D01*
X1946342Y1598512D02*
X1948439Y1600608D01*
X1945440Y1598512D02*
X1947582Y1600653D01*
X1942254Y1580894D02*
X1947549Y1586189D01*
X1944538Y1598512D02*
X1946746Y1600719D01*
X1941352Y1580894D02*
X1946647Y1586189D01*
X1943636Y1598512D02*
X1945929Y1600805D01*
X1943479Y1583923D02*
X1945745Y1586189D01*
X1943069Y1598847D02*
X1945131Y1600908D01*
X1943493Y1584839D02*
X1944843Y1586189D01*
X1942325Y1599004D02*
X1944350Y1601030D01*
X1943493Y1585741D02*
X1944096Y1586344D01*
X1943432Y1586582D02*
X1943710Y1586860D01*
X1943289Y1576517D02*
X1943670Y1576898D01*
X1943296Y1575622D02*
X1943670Y1575996D01*
X1943489Y1587541D02*
X1943614Y1587665D01*
X1941423Y1599004D02*
X1943586Y1601167D01*
X1940521Y1599004D02*
X1942837Y1601320D01*
X1940450Y1580894D02*
X1942707Y1583151D01*
X1939126Y1598512D02*
X1942103Y1601489D01*
X1936448Y1577794D02*
X1941792Y1583138D01*
X1938224Y1598512D02*
X1941384Y1601671D01*
X1935595Y1577843D02*
X1940890Y1583138D01*
X1937323Y1598512D02*
X1940678Y1601867D01*
X1940371Y1590736D02*
X1940422Y1590788D01*
X1939063Y1590330D02*
X1940164Y1591431D01*
X1934630Y1577779D02*
X1940049Y1583199D01*
X1936421Y1598512D02*
X1939985Y1602076D01*
X1933791Y1577843D02*
X1939562Y1583614D01*
X1938784Y1590954D02*
X1939549Y1591719D01*
X1929321Y1576981D02*
X1939540Y1587199D01*
X1939064Y1576802D02*
X1939451Y1577189D01*
X1939064Y1589429D02*
X1939438Y1589803D01*
X1939064Y1588527D02*
X1939438Y1588901D01*
X1939064Y1587625D02*
X1939438Y1587999D01*
X1931085Y1577843D02*
X1939438Y1586195D01*
X1931987Y1577843D02*
X1939438Y1585293D01*
X1932881Y1577835D02*
X1939438Y1584391D01*
X1935519Y1598512D02*
X1939305Y1602298D01*
X1937399Y1577843D02*
X1939241Y1579685D01*
X1938286Y1577828D02*
X1939241Y1578783D01*
X1938853Y1577493D02*
X1939241Y1577881D01*
X1939064Y1575900D02*
X1939241Y1576077D01*
X1939064Y1574998D02*
X1939241Y1575175D01*
X1939064Y1574096D02*
X1939241Y1574273D01*
X1938156Y1591228D02*
X1938727Y1591798D01*
X1934617Y1598512D02*
X1938638Y1602533D01*
X1936355Y1564171D02*
X1938030Y1565846D01*
X1937114Y1564028D02*
X1938030Y1564944D01*
X1937880Y1563892D02*
X1938030Y1564042D01*
X1933715Y1598512D02*
X1937982Y1602779D01*
X1937255Y1591228D02*
X1937971Y1591944D01*
X1935603Y1564321D02*
X1937634Y1566352D01*
X1929516Y1578078D02*
X1937627Y1586189D01*
X1936335Y1591210D02*
X1937372Y1592247D01*
X1932971Y1598670D02*
X1937338Y1603037D01*
X1934859Y1564479D02*
X1937183Y1566803D01*
X1935451Y1591228D02*
X1936916Y1592693D01*
X1929516Y1578980D02*
X1936745Y1586209D01*
X1934121Y1564643D02*
X1936732Y1567254D01*
X1931996Y1598597D02*
X1936705Y1603306D01*
X1933390Y1564814D02*
X1936281Y1567705D01*
X1935295Y1591974D02*
X1936202Y1592882D01*
X1908665Y1576168D02*
X1936083Y1603586D01*
X1932666Y1564992D02*
X1935830Y1568156D01*
X1929516Y1579882D02*
X1935823Y1586189D01*
X1908144Y1576549D02*
X1935472Y1603877D01*
X1931948Y1565176D02*
X1935379Y1568607D01*
X1935036Y1592617D02*
X1935300Y1592882D01*
X1931237Y1565367D02*
X1934928Y1569058D01*
X1929292Y1580560D02*
X1934923Y1586190D01*
X1930531Y1565563D02*
X1934477Y1569509D01*
X1907626Y1576934D02*
X1934045Y1603352D01*
X1929832Y1565766D02*
X1934026Y1569960D01*
X1928713Y1580883D02*
X1934019Y1586189D01*
X1929139Y1565975D02*
X1933575Y1570411D01*
X1928452Y1566190D02*
X1933124Y1570862D01*
X1927822Y1580894D02*
X1933117Y1586189D01*
X1927771Y1566411D02*
X1932673Y1571313D01*
X1927096Y1566638D02*
X1932260Y1571802D01*
X1926920Y1580894D02*
X1932215Y1586189D01*
X1907113Y1577323D02*
X1932120Y1602329D01*
X1926426Y1566870D02*
X1932057Y1572501D01*
X1925762Y1567108D02*
X1931457Y1572803D01*
X1929516Y1584392D02*
X1931313Y1586189D01*
X1931041Y1595838D02*
X1931187Y1595984D01*
X1909191Y1575792D02*
X1930986Y1597587D01*
X1909721Y1575420D02*
X1930913Y1596613D01*
X1906605Y1577716D02*
X1930801Y1601913D01*
X1925103Y1567351D02*
X1930640Y1572888D01*
X1929516Y1585294D02*
X1930546Y1586324D01*
X1910255Y1575053D02*
X1930202Y1594999D01*
X1924450Y1567600D02*
X1930183Y1573333D01*
X1929516Y1586196D02*
X1930141Y1586820D01*
X1926841Y1590736D02*
X1930087Y1593983D01*
X1927743Y1590736D02*
X1930087Y1593081D01*
X1928642Y1590734D02*
X1930087Y1592179D01*
X1929255Y1590444D02*
X1930087Y1591277D01*
X1929957Y1590244D02*
X1930087Y1590375D01*
X1906100Y1578113D02*
X1929702Y1601715D01*
X1929286Y1586867D02*
X1929592Y1587173D01*
X1923802Y1567854D02*
X1929563Y1573615D01*
X1905600Y1578515D02*
X1928731Y1601646D01*
X1923160Y1568113D02*
X1928341Y1573295D01*
X1925788Y1580663D02*
X1928262Y1583138D01*
X1907964Y1581781D02*
X1927851Y1601668D01*
X1922522Y1568378D02*
X1927440Y1573295D01*
X1915841Y1571618D02*
X1927360Y1583138D01*
X1912710Y1587429D02*
X1927039Y1601758D01*
X1921890Y1568648D02*
X1926538Y1573295D01*
X1915262Y1571941D02*
X1926458Y1583138D01*
X1917455Y1593076D02*
X1926284Y1601905D01*
X1921263Y1568923D02*
X1925831Y1573491D01*
X1914688Y1572269D02*
X1925787Y1583369D01*
X1912436Y1573625D02*
X1925753Y1586943D01*
X1916424Y1571300D02*
X1925692Y1580567D01*
X1922201Y1598724D02*
X1925578Y1602100D01*
X1918805Y1570073D02*
X1925562Y1576829D01*
X1920641Y1569203D02*
X1925482Y1574044D01*
X1918203Y1570372D02*
X1925472Y1577642D01*
X1914118Y1572602D02*
X1925470Y1583954D01*
X1911884Y1573976D02*
X1925464Y1587555D01*
X1910794Y1574689D02*
X1925461Y1589357D01*
X1911337Y1574330D02*
X1925461Y1588455D01*
X1912992Y1573280D02*
X1925461Y1585749D01*
X1913553Y1572938D02*
X1925461Y1584847D01*
X1917012Y1570986D02*
X1925461Y1579435D01*
X1917605Y1570677D02*
X1925461Y1578533D01*
X1919412Y1569778D02*
X1925461Y1575827D01*
X1920024Y1569488D02*
X1925461Y1574925D01*
G54D23*
X1939322Y1558925D02*
X1939531Y1560410D01*
X1939959Y1563455*
Y1566139*
X1940087Y1566268*
X1932906Y1560114D02*
X1934575Y1567449D01*
X1951505Y1564693D02*
X1951758Y1560239D01*
X1951828Y1558224*
X1952344Y1558242*
X1958198Y1564890D02*
X1959772Y1566661D01*
Y1569220*
X1958198Y1564890D02*
X1958849Y1558754D01*
X1945818Y1558299D02*
X1946057Y1562868D01*
Y1563773*
X1946386Y1564102*
X1941465Y1582016D02*
Y1585165D01*
X1941268Y1578866D02*
Y1581819D01*
X1955245Y1578866D02*
Y1582016D01*
G54D24*
X1945205Y1588709D03*
X1947174D03*
X1949142D03*
X1951111D03*
Y1575323D03*
X1949142D03*
X1947174D03*
X1945205D03*
X1959772Y1586543D03*
X1962331D03*
X1964890D03*
Y1577488D03*
X1962331D03*
X1959772D03*
X1931623Y1588709D03*
X1933591D03*
X1935560D03*
X1937528D03*
Y1575323D03*
X1935560D03*
X1933591D03*
X1931623D03*
G54D27*
X1944496Y1561353D02*
X1944184Y1555401D01*
X1947140Y1555246*
X1947452Y1561198*
X1944496Y1561353*
X1947140Y1555246D02*
X1947140D01*
X1946389Y1555285D02*
X1947142D01*
X1945638Y1555324D02*
X1947144D01*
X1944887Y1555364D02*
X1947147D01*
X1944184Y1555403D02*
X1947149D01*
X1944186Y1555443D02*
X1947151D01*
X1944188Y1555482D02*
X1947153D01*
X1944190Y1555521D02*
X1947155D01*
X1944192Y1555561D02*
X1947157D01*
X1944194Y1555600D02*
X1947159D01*
X1944196Y1555639D02*
X1947161D01*
X1944198Y1555679D02*
X1947163D01*
X1944200Y1555718D02*
X1947165D01*
X1944202Y1555757D02*
X1947167D01*
X1944205Y1555797D02*
X1947169D01*
X1944207Y1555836D02*
X1947171D01*
X1944209Y1555876D02*
X1947173D01*
X1944211Y1555915D02*
X1947175D01*
X1944213Y1555954D02*
X1947177D01*
X1944215Y1555994D02*
X1947180D01*
X1944217Y1556033D02*
X1947182D01*
X1944219Y1556072D02*
X1947184D01*
X1944221Y1556112D02*
X1947186D01*
X1944223Y1556151D02*
X1947188D01*
X1944225Y1556191D02*
X1947190D01*
X1944227Y1556230D02*
X1947192D01*
X1944229Y1556269D02*
X1947194D01*
X1944231Y1556309D02*
X1947196D01*
X1944233Y1556348D02*
X1947198D01*
X1944235Y1556387D02*
X1947200D01*
X1944238Y1556427D02*
X1947202D01*
X1944240Y1556466D02*
X1947204D01*
X1944242Y1556506D02*
X1947206D01*
X1944244Y1556545D02*
X1947208D01*
X1944246Y1556584D02*
X1947211D01*
X1944248Y1556624D02*
X1947213D01*
X1944250Y1556663D02*
X1947215D01*
X1944252Y1556702D02*
X1947217D01*
X1944254Y1556742D02*
X1947219D01*
X1944256Y1556781D02*
X1947221D01*
X1944258Y1556820D02*
X1947223D01*
X1944260Y1556860D02*
X1947225D01*
X1944262Y1556899D02*
X1947227D01*
X1944264Y1556939D02*
X1947229D01*
X1944266Y1556978D02*
X1947231D01*
X1944269Y1557017D02*
X1947233D01*
X1944271Y1557057D02*
X1947235D01*
X1944273Y1557096D02*
X1947237D01*
X1944275Y1557135D02*
X1947239D01*
X1944277Y1557175D02*
X1947241D01*
X1944279Y1557214D02*
X1947244D01*
X1944281Y1557254D02*
X1947246D01*
X1944283Y1557293D02*
X1947248D01*
X1944285Y1557332D02*
X1947250D01*
X1944287Y1557372D02*
X1947252D01*
X1944289Y1557411D02*
X1947254D01*
X1944291Y1557450D02*
X1947256D01*
X1944293Y1557490D02*
X1947258D01*
X1944295Y1557529D02*
X1947260D01*
X1944297Y1557568D02*
X1947262D01*
X1944299Y1557608D02*
X1947264D01*
X1944302Y1557647D02*
X1947266D01*
X1944304Y1557687D02*
X1947268D01*
X1944306Y1557726D02*
X1947270D01*
X1944308Y1557765D02*
X1947272D01*
X1944310Y1557805D02*
X1947274D01*
X1944312Y1557844D02*
X1947277D01*
X1944314Y1557883D02*
X1947279D01*
X1944316Y1557923D02*
X1947281D01*
X1944318Y1557962D02*
X1947283D01*
X1944320Y1558002D02*
X1947285D01*
X1944322Y1558041D02*
X1947287D01*
X1944324Y1558080D02*
X1947289D01*
X1944326Y1558120D02*
X1947291D01*
X1944328Y1558159D02*
X1947293D01*
X1944330Y1558198D02*
X1947295D01*
X1944332Y1558238D02*
X1947297D01*
X1944335Y1558277D02*
X1947299D01*
X1944337Y1558317D02*
X1947301D01*
X1944339Y1558356D02*
X1947303D01*
X1944341Y1558395D02*
X1947305D01*
X1944343Y1558435D02*
X1947307D01*
X1944345Y1558474D02*
X1947310D01*
X1944347Y1558513D02*
X1947312D01*
X1944349Y1558553D02*
X1947314D01*
X1944351Y1558592D02*
X1947316D01*
X1944353Y1558631D02*
X1947318D01*
X1944355Y1558671D02*
X1947320D01*
X1944357Y1558710D02*
X1947322D01*
X1944359Y1558750D02*
X1947324D01*
X1944361Y1558789D02*
X1947326D01*
X1944363Y1558828D02*
X1947328D01*
X1944365Y1558868D02*
X1947330D01*
X1944368Y1558907D02*
X1947332D01*
X1944370Y1558946D02*
X1947334D01*
X1944372Y1558986D02*
X1947336D01*
X1944374Y1559025D02*
X1947338D01*
X1944376Y1559065D02*
X1947340D01*
X1944378Y1559104D02*
X1947343D01*
X1944380Y1559143D02*
X1947345D01*
X1944382Y1559183D02*
X1947347D01*
X1944384Y1559222D02*
X1947349D01*
X1944386Y1559261D02*
X1947351D01*
X1944388Y1559301D02*
X1947353D01*
X1944390Y1559340D02*
X1947355D01*
X1944392Y1559380D02*
X1947357D01*
X1944394Y1559419D02*
X1947359D01*
X1944396Y1559458D02*
X1947361D01*
X1944398Y1559498D02*
X1947363D01*
X1944401Y1559537D02*
X1947365D01*
X1944403Y1559576D02*
X1947367D01*
X1944405Y1559616D02*
X1947369D01*
X1944407Y1559655D02*
X1947371D01*
X1944409Y1559694D02*
X1947374D01*
X1944411Y1559734D02*
X1947376D01*
X1944413Y1559773D02*
X1947378D01*
X1944415Y1559813D02*
X1947380D01*
X1944417Y1559852D02*
X1947382D01*
X1944419Y1559891D02*
X1947384D01*
X1944421Y1559931D02*
X1947386D01*
X1944423Y1559970D02*
X1947388D01*
X1944425Y1560009D02*
X1947390D01*
X1944427Y1560049D02*
X1947392D01*
X1944429Y1560088D02*
X1947394D01*
X1944432Y1560128D02*
X1947396D01*
X1944434Y1560167D02*
X1947398D01*
X1944436Y1560206D02*
X1947400D01*
X1944438Y1560246D02*
X1947402D01*
X1944440Y1560285D02*
X1947404D01*
X1944442Y1560324D02*
X1947407D01*
X1944444Y1560364D02*
X1947409D01*
X1944446Y1560403D02*
X1947411D01*
X1944448Y1560443D02*
X1947413D01*
X1944450Y1560482D02*
X1947415D01*
X1944452Y1560521D02*
X1947417D01*
X1944454Y1560561D02*
X1947419D01*
X1944456Y1560600D02*
X1947421D01*
X1944458Y1560639D02*
X1947423D01*
X1944460Y1560679D02*
X1947425D01*
X1944462Y1560718D02*
X1947427D01*
X1944465Y1560757D02*
X1947429D01*
X1944467Y1560797D02*
X1947431D01*
X1944469Y1560836D02*
X1947433D01*
X1944471Y1560876D02*
X1947435D01*
X1944473Y1560915D02*
X1947437D01*
X1944475Y1560954D02*
X1947440D01*
X1944477Y1560994D02*
X1947442D01*
X1944479Y1561033D02*
X1947444D01*
X1944481Y1561072D02*
X1947446D01*
X1944483Y1561112D02*
X1947448D01*
X1944485Y1561151D02*
X1947450D01*
X1944487Y1561191D02*
X1947452D01*
X1944489Y1561230D02*
X1946846D01*
X1944491Y1561269D02*
X1946094D01*
X1944493Y1561309D02*
X1945343D01*
X1944495Y1561348D02*
X1944592D01*
X1944184Y1555401D02*
X1944184D01*
X1944223Y1555399D02*
Y1556152D01*
X1944263Y1555396D02*
Y1556903D01*
X1944302Y1555394D02*
Y1557654D01*
X1944341Y1555392D02*
Y1558406D01*
X1944381Y1555390D02*
Y1559157D01*
X1944420Y1555388D02*
Y1559908D01*
X1944459Y1555386D02*
Y1560659D01*
X1944499Y1555384D02*
Y1561353D01*
X1944538Y1555382D02*
Y1561351D01*
X1944577Y1555380D02*
Y1561349D01*
X1944617Y1555378D02*
Y1561347D01*
X1944656Y1555376D02*
Y1561345D01*
X1944696Y1555374D02*
Y1561343D01*
X1944735Y1555372D02*
Y1561341D01*
X1944774Y1555370D02*
Y1561338D01*
X1944814Y1555368D02*
Y1561336D01*
X1944853Y1555366D02*
Y1561334D01*
X1944892Y1555363D02*
Y1561332D01*
X1944932Y1555361D02*
Y1561330D01*
X1944971Y1555359D02*
Y1561328D01*
X1945011Y1555357D02*
Y1561326D01*
X1945050Y1555355D02*
Y1561324D01*
X1945089Y1555353D02*
Y1561322D01*
X1945129Y1555351D02*
Y1561320D01*
X1945168Y1555349D02*
Y1561318D01*
X1945207Y1555347D02*
Y1561316D01*
X1945247Y1555345D02*
Y1561314D01*
X1945286Y1555343D02*
Y1561312D01*
X1945326Y1555341D02*
Y1561310D01*
X1945365Y1555339D02*
Y1561308D01*
X1945404Y1555337D02*
Y1561305D01*
X1945444Y1555335D02*
Y1561303D01*
X1945483Y1555333D02*
Y1561301D01*
X1945522Y1555330D02*
Y1561299D01*
X1945562Y1555328D02*
Y1561297D01*
X1945601Y1555326D02*
Y1561295D01*
X1945640Y1555324D02*
Y1561293D01*
X1945680Y1555322D02*
Y1561291D01*
X1945719Y1555320D02*
Y1561289D01*
X1945759Y1555318D02*
Y1561287D01*
X1945798Y1555316D02*
Y1561285D01*
X1945837Y1555314D02*
Y1561283D01*
X1945877Y1555312D02*
Y1561281D01*
X1945916Y1555310D02*
Y1561279D01*
X1945955Y1555308D02*
Y1561277D01*
X1945995Y1555306D02*
Y1561275D01*
X1946034Y1555304D02*
Y1561272D01*
X1946074Y1555302D02*
Y1561270D01*
X1946113Y1555300D02*
Y1561268D01*
X1946152Y1555297D02*
Y1561266D01*
X1946192Y1555295D02*
Y1561264D01*
X1946231Y1555293D02*
Y1561262D01*
X1946270Y1555291D02*
Y1561260D01*
X1946310Y1555289D02*
Y1561258D01*
X1946349Y1555287D02*
Y1561256D01*
X1946389Y1555285D02*
Y1561254D01*
X1946428Y1555283D02*
Y1561252D01*
X1946467Y1555281D02*
Y1561250D01*
X1946507Y1555279D02*
Y1561248D01*
X1946546Y1555277D02*
Y1561246D01*
X1946585Y1555275D02*
Y1561244D01*
X1946625Y1555273D02*
Y1561241D01*
X1946664Y1555271D02*
Y1561239D01*
X1946703Y1555269D02*
Y1561237D01*
X1946743Y1555266D02*
Y1561235D01*
X1946782Y1555264D02*
Y1561233D01*
X1946822Y1555262D02*
Y1561231D01*
X1946861Y1555260D02*
Y1561229D01*
X1946900Y1555258D02*
Y1561227D01*
X1946940Y1555256D02*
Y1561225D01*
X1946979Y1555254D02*
Y1561223D01*
X1947018Y1555252D02*
Y1561221D01*
X1947058Y1555250D02*
Y1561219D01*
X1947097Y1555248D02*
Y1561217D01*
X1947137Y1555246D02*
Y1561215D01*
X1947176Y1555924D02*
Y1561213D01*
X1947215Y1556675D02*
Y1561211D01*
X1947255Y1557427D02*
Y1561208D01*
X1947294Y1558178D02*
Y1561206D01*
X1947333Y1558929D02*
Y1561204D01*
X1947373Y1559680D02*
Y1561202D01*
X1947412Y1560431D02*
Y1561200D01*
X1947451Y1561183D02*
Y1561198D01*
X1950760Y1561169D02*
X1950968Y1555212D01*
X1953927Y1555316*
X1953719Y1561273*
X1950760Y1561169*
X1950968Y1555212D02*
X1950968D01*
X1950967Y1555252D02*
X1952096D01*
X1950965Y1555291D02*
X1953223D01*
X1950964Y1555330D02*
X1953926D01*
X1950963Y1555370D02*
X1953925D01*
X1950961Y1555409D02*
X1953924D01*
X1950960Y1555448D02*
X1953922D01*
X1950959Y1555488D02*
X1953921D01*
X1950957Y1555527D02*
X1953920D01*
X1950956Y1555567D02*
X1953918D01*
X1950954Y1555606D02*
X1953917D01*
X1950953Y1555645D02*
X1953915D01*
X1950952Y1555685D02*
X1953914D01*
X1950950Y1555724D02*
X1953913D01*
X1950949Y1555763D02*
X1953911D01*
X1950948Y1555803D02*
X1953910D01*
X1950946Y1555842D02*
X1953909D01*
X1950945Y1555882D02*
X1953907D01*
X1950943Y1555921D02*
X1953906D01*
X1950942Y1555960D02*
X1953904D01*
X1950941Y1556000D02*
X1953903D01*
X1950939Y1556039D02*
X1953902D01*
X1950938Y1556078D02*
X1953900D01*
X1950937Y1556118D02*
X1953899D01*
X1950935Y1556157D02*
X1953898D01*
X1950934Y1556197D02*
X1953896D01*
X1950932Y1556236D02*
X1953895D01*
X1950931Y1556275D02*
X1953893D01*
X1950930Y1556315D02*
X1953892D01*
X1950928Y1556354D02*
X1953891D01*
X1950927Y1556393D02*
X1953889D01*
X1950926Y1556433D02*
X1953888D01*
X1950924Y1556472D02*
X1953887D01*
X1950923Y1556511D02*
X1953885D01*
X1950921Y1556551D02*
X1953884D01*
X1950920Y1556590D02*
X1953882D01*
X1950919Y1556630D02*
X1953881D01*
X1950917Y1556669D02*
X1953880D01*
X1950916Y1556708D02*
X1953878D01*
X1950915Y1556748D02*
X1953877D01*
X1950913Y1556787D02*
X1953876D01*
X1950912Y1556826D02*
X1953874D01*
X1950910Y1556866D02*
X1953873D01*
X1950909Y1556905D02*
X1953871D01*
X1950908Y1556945D02*
X1953870D01*
X1950906Y1556984D02*
X1953869D01*
X1950905Y1557023D02*
X1953867D01*
X1950904Y1557063D02*
X1953866D01*
X1950902Y1557102D02*
X1953865D01*
X1950901Y1557141D02*
X1953863D01*
X1950899Y1557181D02*
X1953862D01*
X1950898Y1557220D02*
X1953860D01*
X1950897Y1557260D02*
X1953859D01*
X1950895Y1557299D02*
X1953858D01*
X1950894Y1557338D02*
X1953856D01*
X1950893Y1557378D02*
X1953855D01*
X1950891Y1557417D02*
X1953854D01*
X1950890Y1557456D02*
X1953852D01*
X1950888Y1557496D02*
X1953851D01*
X1950887Y1557535D02*
X1953849D01*
X1950886Y1557574D02*
X1953848D01*
X1950884Y1557614D02*
X1953847D01*
X1950883Y1557653D02*
X1953845D01*
X1950882Y1557693D02*
X1953844D01*
X1950880Y1557732D02*
X1953843D01*
X1950879Y1557771D02*
X1953841D01*
X1950877Y1557811D02*
X1953840D01*
X1950876Y1557850D02*
X1953838D01*
X1950875Y1557889D02*
X1953837D01*
X1950873Y1557929D02*
X1953836D01*
X1950872Y1557968D02*
X1953834D01*
X1950871Y1558008D02*
X1953833D01*
X1950869Y1558047D02*
X1953832D01*
X1950868Y1558086D02*
X1953830D01*
X1950866Y1558126D02*
X1953829D01*
X1950865Y1558165D02*
X1953827D01*
X1950864Y1558204D02*
X1953826D01*
X1950862Y1558244D02*
X1953825D01*
X1950861Y1558283D02*
X1953823D01*
X1950860Y1558322D02*
X1953822D01*
X1950858Y1558362D02*
X1953821D01*
X1950857Y1558401D02*
X1953819D01*
X1950855Y1558441D02*
X1953818D01*
X1950854Y1558480D02*
X1953816D01*
X1950853Y1558519D02*
X1953815D01*
X1950851Y1558559D02*
X1953814D01*
X1950850Y1558598D02*
X1953812D01*
X1950849Y1558637D02*
X1953811D01*
X1950847Y1558677D02*
X1953810D01*
X1950846Y1558716D02*
X1953808D01*
X1950844Y1558756D02*
X1953807D01*
X1950843Y1558795D02*
X1953805D01*
X1950842Y1558834D02*
X1953804D01*
X1950840Y1558874D02*
X1953803D01*
X1950839Y1558913D02*
X1953801D01*
X1950838Y1558952D02*
X1953800D01*
X1950836Y1558992D02*
X1953799D01*
X1950835Y1559031D02*
X1953797D01*
X1950833Y1559071D02*
X1953796D01*
X1950832Y1559110D02*
X1953794D01*
X1950831Y1559149D02*
X1953793D01*
X1950829Y1559189D02*
X1953792D01*
X1950828Y1559228D02*
X1953790D01*
X1950827Y1559267D02*
X1953789D01*
X1950825Y1559307D02*
X1953788D01*
X1950824Y1559346D02*
X1953786D01*
X1950822Y1559385D02*
X1953785D01*
X1950821Y1559425D02*
X1953783D01*
X1950820Y1559464D02*
X1953782D01*
X1950818Y1559504D02*
X1953781D01*
X1950817Y1559543D02*
X1953779D01*
X1950816Y1559582D02*
X1953778D01*
X1950814Y1559622D02*
X1953777D01*
X1950813Y1559661D02*
X1953775D01*
X1950811Y1559700D02*
X1953774D01*
X1950810Y1559740D02*
X1953772D01*
X1950809Y1559779D02*
X1953771D01*
X1950807Y1559819D02*
X1953770D01*
X1950806Y1559858D02*
X1953768D01*
X1950805Y1559897D02*
X1953767D01*
X1950803Y1559937D02*
X1953766D01*
X1950802Y1559976D02*
X1953764D01*
X1950800Y1560015D02*
X1953763D01*
X1950799Y1560055D02*
X1953761D01*
X1950798Y1560094D02*
X1953760D01*
X1950796Y1560134D02*
X1953759D01*
X1950795Y1560173D02*
X1953757D01*
X1950794Y1560212D02*
X1953756D01*
X1950792Y1560252D02*
X1953755D01*
X1950791Y1560291D02*
X1953753D01*
X1950789Y1560330D02*
X1953752D01*
X1950788Y1560370D02*
X1953750D01*
X1950787Y1560409D02*
X1953749D01*
X1950785Y1560448D02*
X1953748D01*
X1950784Y1560488D02*
X1953746D01*
X1950783Y1560527D02*
X1953745D01*
X1950781Y1560567D02*
X1953744D01*
X1950780Y1560606D02*
X1953742D01*
X1950778Y1560645D02*
X1953741D01*
X1950777Y1560685D02*
X1953739D01*
X1950776Y1560724D02*
X1953738D01*
X1950774Y1560763D02*
X1953737D01*
X1950773Y1560803D02*
X1953735D01*
X1950772Y1560842D02*
X1953734D01*
X1950770Y1560882D02*
X1953733D01*
X1950769Y1560921D02*
X1953731D01*
X1950767Y1560960D02*
X1953730D01*
X1950766Y1561000D02*
X1953728D01*
X1950765Y1561039D02*
X1953727D01*
X1950763Y1561078D02*
X1953726D01*
X1950762Y1561118D02*
X1953724D01*
X1950761Y1561157D02*
X1953723D01*
X1951541Y1561197D02*
X1953722D01*
X1952668Y1561236D02*
X1953720D01*
X1950796Y1560143D02*
Y1561171D01*
X1950835Y1559016D02*
Y1561172D01*
X1950875Y1557889D02*
Y1561173D01*
X1950914Y1556761D02*
Y1561175D01*
X1950953Y1555634D02*
Y1561176D01*
X1950993Y1555213D02*
Y1561177D01*
X1951032Y1555214D02*
Y1561179D01*
X1951072Y1555216D02*
Y1561180D01*
X1951111Y1555217D02*
Y1561182D01*
X1951150Y1555219D02*
Y1561183D01*
X1951190Y1555220D02*
Y1561184D01*
X1951229Y1555221D02*
Y1561186D01*
X1951268Y1555223D02*
Y1561187D01*
X1951308Y1555224D02*
Y1561188D01*
X1951347Y1555225D02*
Y1561190D01*
X1951386Y1555227D02*
Y1561191D01*
X1951426Y1555228D02*
Y1561193D01*
X1951465Y1555230D02*
Y1561194D01*
X1951505Y1555231D02*
Y1561195D01*
X1951544Y1555232D02*
Y1561197D01*
X1951583Y1555234D02*
Y1561198D01*
X1951623Y1555235D02*
Y1561199D01*
X1951662Y1555236D02*
Y1561201D01*
X1951701Y1555238D02*
Y1561202D01*
X1951741Y1555239D02*
Y1561204D01*
X1951780Y1555241D02*
Y1561205D01*
X1951820Y1555242D02*
Y1561206D01*
X1951859Y1555243D02*
Y1561208D01*
X1951898Y1555245D02*
Y1561209D01*
X1951938Y1555246D02*
Y1561210D01*
X1951977Y1555247D02*
Y1561212D01*
X1952016Y1555249D02*
Y1561213D01*
X1952056Y1555250D02*
Y1561214D01*
X1952095Y1555252D02*
Y1561216D01*
X1952135Y1555253D02*
Y1561217D01*
X1952174Y1555254D02*
Y1561219D01*
X1952213Y1555256D02*
Y1561220D01*
X1952253Y1555257D02*
Y1561221D01*
X1952292Y1555258D02*
Y1561223D01*
X1952331Y1555260D02*
Y1561224D01*
X1952371Y1555261D02*
Y1561225D01*
X1952410Y1555263D02*
Y1561227D01*
X1952449Y1555264D02*
Y1561228D01*
X1952489Y1555265D02*
Y1561230D01*
X1952528Y1555267D02*
Y1561231D01*
X1952568Y1555268D02*
Y1561232D01*
X1952607Y1555269D02*
Y1561234D01*
X1952646Y1555271D02*
Y1561235D01*
X1952686Y1555272D02*
Y1561236D01*
X1952725Y1555274D02*
Y1561238D01*
X1952764Y1555275D02*
Y1561239D01*
X1952804Y1555276D02*
Y1561241D01*
X1952843Y1555278D02*
Y1561242D01*
X1952883Y1555279D02*
Y1561243D01*
X1952922Y1555280D02*
Y1561245D01*
X1952961Y1555282D02*
Y1561246D01*
X1953001Y1555283D02*
Y1561247D01*
X1953040Y1555285D02*
Y1561249D01*
X1953079Y1555286D02*
Y1561250D01*
X1953119Y1555287D02*
Y1561252D01*
X1953158Y1555289D02*
Y1561253D01*
X1953198Y1555290D02*
Y1561254D01*
X1953237Y1555291D02*
Y1561256D01*
X1953276Y1555293D02*
Y1561257D01*
X1953316Y1555294D02*
Y1561258D01*
X1953355Y1555296D02*
Y1561260D01*
X1953394Y1555297D02*
Y1561261D01*
X1953434Y1555298D02*
Y1561263D01*
X1953473Y1555300D02*
Y1561264D01*
X1953512Y1555301D02*
Y1561265D01*
X1953552Y1555302D02*
Y1561267D01*
X1953591Y1555304D02*
Y1561268D01*
X1953631Y1555305D02*
Y1561269D01*
X1953670Y1555307D02*
Y1561271D01*
X1953709Y1555308D02*
Y1561272D01*
X1953749Y1555309D02*
Y1560421D01*
X1953788Y1555311D02*
Y1559293D01*
X1953827Y1555312D02*
Y1558166D01*
X1953867Y1555313D02*
Y1557038D01*
X1953906Y1555315D02*
Y1555911D01*
X1932134Y1563351D02*
X1930793Y1557543D01*
X1933678Y1556877*
X1935019Y1562685*
X1932134Y1563351*
X1933678Y1556877D02*
X1933678D01*
X1933507Y1556916D02*
X1933687D01*
X1933337Y1556956D02*
X1933696D01*
X1933166Y1556995D02*
X1933705D01*
X1932996Y1557035D02*
X1933714D01*
X1932825Y1557074D02*
X1933723D01*
X1932655Y1557113D02*
X1933732D01*
X1932484Y1557153D02*
X1933741D01*
X1932314Y1557192D02*
X1933751D01*
X1932143Y1557231D02*
X1933760D01*
X1931973Y1557271D02*
X1933769D01*
X1931802Y1557310D02*
X1933778D01*
X1931631Y1557350D02*
X1933787D01*
X1931461Y1557389D02*
X1933796D01*
X1931290Y1557428D02*
X1933805D01*
X1931120Y1557468D02*
X1933814D01*
X1930949Y1557507D02*
X1933823D01*
X1930794Y1557546D02*
X1933832D01*
X1930803Y1557586D02*
X1933841D01*
X1930812Y1557625D02*
X1933851D01*
X1930821Y1557665D02*
X1933860D01*
X1930830Y1557704D02*
X1933869D01*
X1930839Y1557743D02*
X1933878D01*
X1930848Y1557783D02*
X1933887D01*
X1930857Y1557822D02*
X1933896D01*
X1930867Y1557861D02*
X1933905D01*
X1930876Y1557901D02*
X1933914D01*
X1930885Y1557940D02*
X1933923D01*
X1930894Y1557979D02*
X1933932D01*
X1930903Y1558019D02*
X1933941D01*
X1930912Y1558058D02*
X1933951D01*
X1930921Y1558098D02*
X1933960D01*
X1930930Y1558137D02*
X1933969D01*
X1930939Y1558176D02*
X1933978D01*
X1930948Y1558216D02*
X1933987D01*
X1930957Y1558255D02*
X1933996D01*
X1930967Y1558294D02*
X1934005D01*
X1930976Y1558334D02*
X1934014D01*
X1930985Y1558373D02*
X1934023D01*
X1930994Y1558413D02*
X1934032D01*
X1931003Y1558452D02*
X1934041D01*
X1931012Y1558491D02*
X1934051D01*
X1931021Y1558531D02*
X1934060D01*
X1931030Y1558570D02*
X1934069D01*
X1931039Y1558609D02*
X1934078D01*
X1931048Y1558649D02*
X1934087D01*
X1931057Y1558688D02*
X1934096D01*
X1931067Y1558728D02*
X1934105D01*
X1931076Y1558767D02*
X1934114D01*
X1931085Y1558806D02*
X1934123D01*
X1931094Y1558846D02*
X1934132D01*
X1931103Y1558885D02*
X1934141D01*
X1931112Y1558924D02*
X1934150D01*
X1931121Y1558964D02*
X1934160D01*
X1931130Y1559003D02*
X1934169D01*
X1931139Y1559042D02*
X1934178D01*
X1931148Y1559082D02*
X1934187D01*
X1931157Y1559121D02*
X1934196D01*
X1931167Y1559161D02*
X1934205D01*
X1931176Y1559200D02*
X1934214D01*
X1931185Y1559239D02*
X1934223D01*
X1931194Y1559279D02*
X1934232D01*
X1931203Y1559318D02*
X1934241D01*
X1931212Y1559357D02*
X1934250D01*
X1931221Y1559397D02*
X1934260D01*
X1931230Y1559436D02*
X1934269D01*
X1931239Y1559476D02*
X1934278D01*
X1931248Y1559515D02*
X1934287D01*
X1931257Y1559554D02*
X1934296D01*
X1931267Y1559594D02*
X1934305D01*
X1931276Y1559633D02*
X1934314D01*
X1931285Y1559672D02*
X1934323D01*
X1931294Y1559712D02*
X1934332D01*
X1931303Y1559751D02*
X1934341D01*
X1931312Y1559791D02*
X1934350D01*
X1931321Y1559830D02*
X1934360D01*
X1931330Y1559869D02*
X1934369D01*
X1931339Y1559909D02*
X1934378D01*
X1931348Y1559948D02*
X1934387D01*
X1931357Y1559987D02*
X1934396D01*
X1931366Y1560027D02*
X1934405D01*
X1931376Y1560066D02*
X1934414D01*
X1931385Y1560105D02*
X1934423D01*
X1931394Y1560145D02*
X1934432D01*
X1931403Y1560184D02*
X1934441D01*
X1931412Y1560224D02*
X1934450D01*
X1931421Y1560263D02*
X1934460D01*
X1931430Y1560302D02*
X1934469D01*
X1931439Y1560342D02*
X1934478D01*
X1931448Y1560381D02*
X1934487D01*
X1931457Y1560420D02*
X1934496D01*
X1931466Y1560460D02*
X1934505D01*
X1931476Y1560499D02*
X1934514D01*
X1931485Y1560539D02*
X1934523D01*
X1931494Y1560578D02*
X1934532D01*
X1931503Y1560617D02*
X1934541D01*
X1931512Y1560657D02*
X1934550D01*
X1931521Y1560696D02*
X1934560D01*
X1931530Y1560735D02*
X1934569D01*
X1931539Y1560775D02*
X1934578D01*
X1931548Y1560814D02*
X1934587D01*
X1931557Y1560854D02*
X1934596D01*
X1931566Y1560893D02*
X1934605D01*
X1931576Y1560932D02*
X1934614D01*
X1931585Y1560972D02*
X1934623D01*
X1931594Y1561011D02*
X1934632D01*
X1931603Y1561050D02*
X1934641D01*
X1931612Y1561090D02*
X1934650D01*
X1931621Y1561129D02*
X1934659D01*
X1931630Y1561168D02*
X1934669D01*
X1931639Y1561208D02*
X1934678D01*
X1931648Y1561247D02*
X1934687D01*
X1931657Y1561287D02*
X1934696D01*
X1931666Y1561326D02*
X1934705D01*
X1931676Y1561365D02*
X1934714D01*
X1931685Y1561405D02*
X1934723D01*
X1931694Y1561444D02*
X1934732D01*
X1931703Y1561483D02*
X1934741D01*
X1931712Y1561523D02*
X1934750D01*
X1931721Y1561562D02*
X1934759D01*
X1931730Y1561602D02*
X1934769D01*
X1931739Y1561641D02*
X1934778D01*
X1931748Y1561680D02*
X1934787D01*
X1931757Y1561720D02*
X1934796D01*
X1931766Y1561759D02*
X1934805D01*
X1931776Y1561798D02*
X1934814D01*
X1931785Y1561838D02*
X1934823D01*
X1931794Y1561877D02*
X1934832D01*
X1931803Y1561916D02*
X1934841D01*
X1931812Y1561956D02*
X1934850D01*
X1931821Y1561995D02*
X1934859D01*
X1931830Y1562035D02*
X1934869D01*
X1931839Y1562074D02*
X1934878D01*
X1931848Y1562113D02*
X1934887D01*
X1931857Y1562153D02*
X1934896D01*
X1931866Y1562192D02*
X1934905D01*
X1931875Y1562231D02*
X1934914D01*
X1931885Y1562271D02*
X1934923D01*
X1931894Y1562310D02*
X1934932D01*
X1931903Y1562350D02*
X1934941D01*
X1931912Y1562389D02*
X1934950D01*
X1931921Y1562428D02*
X1934959D01*
X1931930Y1562468D02*
X1934969D01*
X1931939Y1562507D02*
X1934978D01*
X1931948Y1562546D02*
X1934987D01*
X1931957Y1562586D02*
X1934996D01*
X1931966Y1562625D02*
X1935005D01*
X1931975Y1562665D02*
X1935014D01*
X1931985Y1562704D02*
X1934937D01*
X1931994Y1562743D02*
X1934766D01*
X1932003Y1562783D02*
X1934596D01*
X1932012Y1562822D02*
X1934425D01*
X1932021Y1562861D02*
X1934255D01*
X1932030Y1562901D02*
X1934084D01*
X1932039Y1562940D02*
X1933914D01*
X1932048Y1562979D02*
X1933743D01*
X1932057Y1563019D02*
X1933573D01*
X1932066Y1563058D02*
X1933402D01*
X1932075Y1563098D02*
X1933231D01*
X1932085Y1563137D02*
X1933061D01*
X1932094Y1563176D02*
X1932890D01*
X1932103Y1563216D02*
X1932720D01*
X1932112Y1563255D02*
X1932549D01*
X1932121Y1563294D02*
X1932379D01*
X1932130Y1563334D02*
X1932208D01*
X1930793Y1557543D02*
X1930793D01*
X1930832Y1557534D02*
Y1557714D01*
X1930872Y1557525D02*
Y1557884D01*
X1930911Y1557516D02*
Y1558055D01*
X1930951Y1557507D02*
Y1558225D01*
X1930990Y1557498D02*
Y1558396D01*
X1931029Y1557489D02*
Y1558566D01*
X1931069Y1557479D02*
Y1558737D01*
X1931108Y1557470D02*
Y1558907D01*
X1931147Y1557461D02*
Y1559078D01*
X1931187Y1557452D02*
Y1559248D01*
X1931226Y1557443D02*
Y1559419D01*
X1931266Y1557434D02*
Y1559589D01*
X1931305Y1557425D02*
Y1559760D01*
X1931344Y1557416D02*
Y1559931D01*
X1931384Y1557407D02*
Y1560101D01*
X1931423Y1557398D02*
Y1560272D01*
X1931462Y1557389D02*
Y1560442D01*
X1931502Y1557380D02*
Y1560613D01*
X1931541Y1557370D02*
Y1560783D01*
X1931580Y1557361D02*
Y1560954D01*
X1931620Y1557352D02*
Y1561124D01*
X1931659Y1557343D02*
Y1561295D01*
X1931699Y1557334D02*
Y1561465D01*
X1931738Y1557325D02*
Y1561636D01*
X1931777Y1557316D02*
Y1561806D01*
X1931817Y1557307D02*
Y1561977D01*
X1931856Y1557298D02*
Y1562147D01*
X1931895Y1557289D02*
Y1562318D01*
X1931935Y1557280D02*
Y1562489D01*
X1931974Y1557270D02*
Y1562659D01*
X1932014Y1557261D02*
Y1562830D01*
X1932053Y1557252D02*
Y1563000D01*
X1932092Y1557243D02*
Y1563171D01*
X1932132Y1557234D02*
Y1563341D01*
X1932171Y1557225D02*
Y1563342D01*
X1932210Y1557216D02*
Y1563333D01*
X1932250Y1557207D02*
Y1563324D01*
X1932289Y1557198D02*
Y1563315D01*
X1932329Y1557189D02*
Y1563306D01*
X1932368Y1557180D02*
Y1563297D01*
X1932407Y1557170D02*
Y1563288D01*
X1932447Y1557161D02*
Y1563279D01*
X1932486Y1557152D02*
Y1563270D01*
X1932525Y1557143D02*
Y1563261D01*
X1932565Y1557134D02*
Y1563252D01*
X1932604Y1557125D02*
Y1563242D01*
X1932643Y1557116D02*
Y1563233D01*
X1932683Y1557107D02*
Y1563224D01*
X1932722Y1557098D02*
Y1563215D01*
X1932762Y1557089D02*
Y1563206D01*
X1932801Y1557080D02*
Y1563197D01*
X1932840Y1557070D02*
Y1563188D01*
X1932880Y1557061D02*
Y1563179D01*
X1932919Y1557052D02*
Y1563170D01*
X1932958Y1557043D02*
Y1563161D01*
X1932998Y1557034D02*
Y1563152D01*
X1933037Y1557025D02*
Y1563142D01*
X1933077Y1557016D02*
Y1563133D01*
X1933116Y1557007D02*
Y1563124D01*
X1933155Y1556998D02*
Y1563115D01*
X1933195Y1556989D02*
Y1563106D01*
X1933234Y1556980D02*
Y1563097D01*
X1933273Y1556970D02*
Y1563088D01*
X1933313Y1556961D02*
Y1563079D01*
X1933352Y1556952D02*
Y1563070D01*
X1933392Y1556943D02*
Y1563061D01*
X1933431Y1556934D02*
Y1563052D01*
X1933470Y1556925D02*
Y1563042D01*
X1933510Y1556916D02*
Y1563033D01*
X1933549Y1556907D02*
Y1563024D01*
X1933588Y1556898D02*
Y1563015D01*
X1933628Y1556889D02*
Y1563006D01*
X1933667Y1556880D02*
Y1562997D01*
X1933706Y1557001D02*
Y1562988D01*
X1933746Y1557172D02*
Y1562979D01*
X1933785Y1557342D02*
Y1562970D01*
X1933825Y1557513D02*
Y1562961D01*
X1933864Y1557683D02*
Y1562952D01*
X1933903Y1557854D02*
Y1562942D01*
X1933943Y1558024D02*
Y1562933D01*
X1933982Y1558195D02*
Y1562924D01*
X1934021Y1558365D02*
Y1562915D01*
X1934061Y1558536D02*
Y1562906D01*
X1934100Y1558706D02*
Y1562897D01*
X1934140Y1558877D02*
Y1562888D01*
X1934179Y1559048D02*
Y1562879D01*
X1934218Y1559218D02*
Y1562870D01*
X1934258Y1559389D02*
Y1562861D01*
X1934297Y1559559D02*
Y1562852D01*
X1934336Y1559730D02*
Y1562842D01*
X1934376Y1559900D02*
Y1562833D01*
X1934415Y1560071D02*
Y1562824D01*
X1934455Y1560241D02*
Y1562815D01*
X1934494Y1560412D02*
Y1562806D01*
X1934533Y1560582D02*
Y1562797D01*
X1934573Y1560753D02*
Y1562788D01*
X1934612Y1560923D02*
Y1562779D01*
X1934651Y1561094D02*
Y1562770D01*
X1934691Y1561264D02*
Y1562761D01*
X1934730Y1561435D02*
Y1562752D01*
X1934769Y1561605D02*
Y1562743D01*
X1934809Y1561776D02*
Y1562733D01*
X1934848Y1561947D02*
Y1562724D01*
X1934888Y1562117D02*
Y1562715D01*
X1934927Y1562288D02*
Y1562706D01*
X1934966Y1562458D02*
Y1562697D01*
X1935006Y1562629D02*
Y1562688D01*
X1957017Y1561532D02*
X1957743Y1555616D01*
X1960682Y1555977*
X1959955Y1561893*
X1957017Y1561532*
X1957743Y1555616D02*
X1957743D01*
X1957738Y1555655D02*
X1958064D01*
X1957733Y1555695D02*
X1958384D01*
X1957729Y1555734D02*
X1958705D01*
X1957724Y1555773D02*
X1959026D01*
X1957719Y1555813D02*
X1959346D01*
X1957714Y1555852D02*
X1959667D01*
X1957709Y1555892D02*
X1959988D01*
X1957704Y1555931D02*
X1960308D01*
X1957700Y1555970D02*
X1960629D01*
X1957695Y1556010D02*
X1960678D01*
X1957690Y1556049D02*
X1960673D01*
X1957685Y1556088D02*
X1960668D01*
X1957680Y1556128D02*
X1960663D01*
X1957675Y1556167D02*
X1960658D01*
X1957671Y1556206D02*
X1960653D01*
X1957666Y1556246D02*
X1960649D01*
X1957661Y1556285D02*
X1960644D01*
X1957656Y1556325D02*
X1960639D01*
X1957651Y1556364D02*
X1960634D01*
X1957646Y1556403D02*
X1960629D01*
X1957642Y1556443D02*
X1960624D01*
X1957637Y1556482D02*
X1960620D01*
X1957632Y1556521D02*
X1960615D01*
X1957627Y1556561D02*
X1960610D01*
X1957622Y1556600D02*
X1960605D01*
X1957617Y1556640D02*
X1960600D01*
X1957613Y1556679D02*
X1960595D01*
X1957608Y1556718D02*
X1960591D01*
X1957603Y1556758D02*
X1960586D01*
X1957598Y1556797D02*
X1960581D01*
X1957593Y1556836D02*
X1960576D01*
X1957588Y1556876D02*
X1960571D01*
X1957584Y1556915D02*
X1960566D01*
X1957579Y1556955D02*
X1960562D01*
X1957574Y1556994D02*
X1960557D01*
X1957569Y1557033D02*
X1960552D01*
X1957564Y1557073D02*
X1960547D01*
X1957559Y1557112D02*
X1960542D01*
X1957555Y1557151D02*
X1960537D01*
X1957550Y1557191D02*
X1960533D01*
X1957545Y1557230D02*
X1960528D01*
X1957540Y1557269D02*
X1960523D01*
X1957535Y1557309D02*
X1960518D01*
X1957530Y1557348D02*
X1960513D01*
X1957526Y1557388D02*
X1960508D01*
X1957521Y1557427D02*
X1960504D01*
X1957516Y1557466D02*
X1960499D01*
X1957511Y1557506D02*
X1960494D01*
X1957506Y1557545D02*
X1960489D01*
X1957501Y1557584D02*
X1960484D01*
X1957497Y1557624D02*
X1960479D01*
X1957492Y1557663D02*
X1960475D01*
X1957487Y1557703D02*
X1960470D01*
X1957482Y1557742D02*
X1960465D01*
X1957477Y1557781D02*
X1960460D01*
X1957472Y1557821D02*
X1960455D01*
X1957468Y1557860D02*
X1960450D01*
X1957463Y1557899D02*
X1960446D01*
X1957458Y1557939D02*
X1960441D01*
X1957453Y1557978D02*
X1960436D01*
X1957448Y1558017D02*
X1960431D01*
X1957443Y1558057D02*
X1960426D01*
X1957439Y1558096D02*
X1960421D01*
X1957434Y1558136D02*
X1960417D01*
X1957429Y1558175D02*
X1960412D01*
X1957424Y1558214D02*
X1960407D01*
X1957419Y1558254D02*
X1960402D01*
X1957414Y1558293D02*
X1960397D01*
X1957410Y1558332D02*
X1960392D01*
X1957405Y1558372D02*
X1960388D01*
X1957400Y1558411D02*
X1960383D01*
X1957395Y1558451D02*
X1960378D01*
X1957390Y1558490D02*
X1960373D01*
X1957385Y1558529D02*
X1960368D01*
X1957381Y1558569D02*
X1960363D01*
X1957376Y1558608D02*
X1960359D01*
X1957371Y1558647D02*
X1960354D01*
X1957366Y1558687D02*
X1960349D01*
X1957361Y1558726D02*
X1960344D01*
X1957356Y1558766D02*
X1960339D01*
X1957352Y1558805D02*
X1960334D01*
X1957347Y1558844D02*
X1960330D01*
X1957342Y1558884D02*
X1960325D01*
X1957337Y1558923D02*
X1960320D01*
X1957332Y1558962D02*
X1960315D01*
X1957327Y1559002D02*
X1960310D01*
X1957323Y1559041D02*
X1960305D01*
X1957318Y1559080D02*
X1960301D01*
X1957313Y1559120D02*
X1960296D01*
X1957308Y1559159D02*
X1960291D01*
X1957303Y1559199D02*
X1960286D01*
X1957298Y1559238D02*
X1960281D01*
X1957294Y1559277D02*
X1960276D01*
X1957289Y1559317D02*
X1960272D01*
X1957284Y1559356D02*
X1960267D01*
X1957279Y1559395D02*
X1960262D01*
X1957274Y1559435D02*
X1960257D01*
X1957269Y1559474D02*
X1960252D01*
X1957265Y1559514D02*
X1960247D01*
X1957260Y1559553D02*
X1960243D01*
X1957255Y1559592D02*
X1960238D01*
X1957250Y1559632D02*
X1960233D01*
X1957245Y1559671D02*
X1960228D01*
X1957240Y1559710D02*
X1960223D01*
X1957236Y1559750D02*
X1960218D01*
X1957231Y1559789D02*
X1960214D01*
X1957226Y1559829D02*
X1960209D01*
X1957221Y1559868D02*
X1960204D01*
X1957216Y1559907D02*
X1960199D01*
X1957211Y1559947D02*
X1960194D01*
X1957206Y1559986D02*
X1960189D01*
X1957202Y1560025D02*
X1960185D01*
X1957197Y1560065D02*
X1960180D01*
X1957192Y1560104D02*
X1960175D01*
X1957187Y1560143D02*
X1960170D01*
X1957182Y1560183D02*
X1960165D01*
X1957177Y1560222D02*
X1960160D01*
X1957173Y1560262D02*
X1960156D01*
X1957168Y1560301D02*
X1960151D01*
X1957163Y1560340D02*
X1960146D01*
X1957158Y1560380D02*
X1960141D01*
X1957153Y1560419D02*
X1960136D01*
X1957148Y1560458D02*
X1960131D01*
X1957144Y1560498D02*
X1960127D01*
X1957139Y1560537D02*
X1960122D01*
X1957134Y1560577D02*
X1960117D01*
X1957129Y1560616D02*
X1960112D01*
X1957124Y1560655D02*
X1960107D01*
X1957119Y1560695D02*
X1960102D01*
X1957115Y1560734D02*
X1960098D01*
X1957110Y1560773D02*
X1960093D01*
X1957105Y1560813D02*
X1960088D01*
X1957100Y1560852D02*
X1960083D01*
X1957095Y1560892D02*
X1960078D01*
X1957090Y1560931D02*
X1960073D01*
X1957086Y1560970D02*
X1960069D01*
X1957081Y1561010D02*
X1960064D01*
X1957076Y1561049D02*
X1960059D01*
X1957071Y1561088D02*
X1960054D01*
X1957066Y1561128D02*
X1960049D01*
X1957061Y1561167D02*
X1960044D01*
X1957057Y1561206D02*
X1960040D01*
X1957052Y1561246D02*
X1960035D01*
X1957047Y1561285D02*
X1960030D01*
X1957042Y1561325D02*
X1960025D01*
X1957037Y1561364D02*
X1960020D01*
X1957032Y1561403D02*
X1960015D01*
X1957028Y1561443D02*
X1960011D01*
X1957023Y1561482D02*
X1960006D01*
X1957018Y1561521D02*
X1960001D01*
X1957250Y1561561D02*
X1959996D01*
X1957571Y1561600D02*
X1959991D01*
X1957892Y1561640D02*
X1959986D01*
X1958212Y1561679D02*
X1959981D01*
X1958533Y1561718D02*
X1959977D01*
X1958853Y1561758D02*
X1959972D01*
X1959174Y1561797D02*
X1959967D01*
X1959495Y1561836D02*
X1959962D01*
X1959815Y1561876D02*
X1959957D01*
X1957056Y1561214D02*
Y1561537D01*
X1957095Y1560893D02*
Y1561542D01*
X1957135Y1560572D02*
Y1561547D01*
X1957174Y1560252D02*
Y1561551D01*
X1957213Y1559931D02*
Y1561556D01*
X1957253Y1559610D02*
Y1561561D01*
X1957292Y1559290D02*
Y1561566D01*
X1957331Y1558969D02*
Y1561571D01*
X1957371Y1558648D02*
Y1561576D01*
X1957410Y1558328D02*
Y1561580D01*
X1957449Y1558007D02*
Y1561585D01*
X1957489Y1557686D02*
Y1561590D01*
X1957528Y1557366D02*
Y1561595D01*
X1957568Y1557045D02*
Y1561600D01*
X1957607Y1556725D02*
Y1561605D01*
X1957646Y1556404D02*
Y1561609D01*
X1957686Y1556083D02*
Y1561614D01*
X1957725Y1555763D02*
Y1561619D01*
X1957764Y1555619D02*
Y1561624D01*
X1957804Y1555623D02*
Y1561629D01*
X1957843Y1555628D02*
Y1561634D01*
X1957883Y1555633D02*
Y1561638D01*
X1957922Y1555638D02*
Y1561643D01*
X1957961Y1555643D02*
Y1561648D01*
X1958001Y1555648D02*
Y1561653D01*
X1958040Y1555652D02*
Y1561658D01*
X1958079Y1555657D02*
Y1561663D01*
X1958119Y1555662D02*
Y1561667D01*
X1958158Y1555667D02*
Y1561672D01*
X1958198Y1555672D02*
Y1561677D01*
X1958237Y1555677D02*
Y1561682D01*
X1958276Y1555681D02*
Y1561687D01*
X1958316Y1555686D02*
Y1561692D01*
X1958355Y1555691D02*
Y1561696D01*
X1958394Y1555696D02*
Y1561701D01*
X1958434Y1555701D02*
Y1561706D01*
X1958473Y1555706D02*
Y1561711D01*
X1958512Y1555710D02*
Y1561716D01*
X1958552Y1555715D02*
Y1561721D01*
X1958591Y1555720D02*
Y1561725D01*
X1958631Y1555725D02*
Y1561730D01*
X1958670Y1555730D02*
Y1561735D01*
X1958709Y1555735D02*
Y1561740D01*
X1958749Y1555739D02*
Y1561745D01*
X1958788Y1555744D02*
Y1561750D01*
X1958827Y1555749D02*
Y1561754D01*
X1958867Y1555754D02*
Y1561759D01*
X1958906Y1555759D02*
Y1561764D01*
X1958946Y1555764D02*
Y1561769D01*
X1958985Y1555768D02*
Y1561774D01*
X1959024Y1555773D02*
Y1561779D01*
X1959064Y1555778D02*
Y1561783D01*
X1959103Y1555783D02*
Y1561788D01*
X1959142Y1555788D02*
Y1561793D01*
X1959182Y1555793D02*
Y1561798D01*
X1959221Y1555797D02*
Y1561803D01*
X1959260Y1555802D02*
Y1561808D01*
X1959300Y1555807D02*
Y1561812D01*
X1959339Y1555812D02*
Y1561817D01*
X1959379Y1555817D02*
Y1561822D01*
X1959418Y1555822D02*
Y1561827D01*
X1959457Y1555826D02*
Y1561832D01*
X1959497Y1555831D02*
Y1561837D01*
X1959536Y1555836D02*
Y1561841D01*
X1959575Y1555841D02*
Y1561846D01*
X1959615Y1555846D02*
Y1561851D01*
X1959654Y1555851D02*
Y1561856D01*
X1959694Y1555855D02*
Y1561861D01*
X1959733Y1555860D02*
Y1561866D01*
X1959772Y1555865D02*
Y1561870D01*
X1959812Y1555870D02*
Y1561875D01*
X1959851Y1555875D02*
Y1561880D01*
X1959890Y1555880D02*
Y1561885D01*
X1959930Y1555884D02*
Y1561890D01*
X1959969Y1555889D02*
Y1561779D01*
X1960009Y1555894D02*
Y1561459D01*
X1960048Y1555899D02*
Y1561138D01*
X1960087Y1555904D02*
Y1560817D01*
X1960127Y1555909D02*
Y1560497D01*
X1960166Y1555913D02*
Y1560176D01*
X1960205Y1555918D02*
Y1559856D01*
X1960245Y1555923D02*
Y1559535D01*
X1960284Y1555928D02*
Y1559214D01*
X1960323Y1555933D02*
Y1558894D01*
X1960363Y1555938D02*
Y1558573D01*
X1960402Y1555942D02*
Y1558252D01*
X1960442Y1555947D02*
Y1557932D01*
X1960481Y1555952D02*
Y1557611D01*
X1960520Y1555957D02*
Y1557290D01*
X1960560Y1555962D02*
Y1556970D01*
X1960599Y1555967D02*
Y1556649D01*
X1960638Y1555971D02*
Y1556328D01*
X1960678Y1555976D02*
Y1556008D01*
X1938271Y1562082D02*
X1937442Y1556180D01*
X1940373Y1555767*
X1940373D02*
X1941203Y1561670D01*
X1938271Y1562082*
X1940373Y1555767D02*
X1940373D01*
X1940093Y1555807D02*
X1940379D01*
X1939813Y1555846D02*
X1940385D01*
X1939533Y1555886D02*
X1940390D01*
X1939253Y1555925D02*
X1940396D01*
X1938973Y1555964D02*
X1940401D01*
X1938693Y1556004D02*
X1940407D01*
X1938413Y1556043D02*
X1940412D01*
X1938132Y1556082D02*
X1940418D01*
X1937852Y1556122D02*
X1940423D01*
X1937572Y1556161D02*
X1940429D01*
X1937445Y1556201D02*
X1940434D01*
X1937450Y1556240D02*
X1940440D01*
X1937456Y1556279D02*
X1940445D01*
X1937461Y1556319D02*
X1940451D01*
X1937467Y1556358D02*
X1940456D01*
X1937472Y1556397D02*
X1940462D01*
X1937478Y1556437D02*
X1940468D01*
X1937483Y1556476D02*
X1940473D01*
X1937489Y1556516D02*
X1940479D01*
X1937494Y1556555D02*
X1940484D01*
X1937500Y1556594D02*
X1940490D01*
X1937505Y1556634D02*
X1940495D01*
X1937511Y1556673D02*
X1940501D01*
X1937517Y1556712D02*
X1940506D01*
X1937522Y1556752D02*
X1940512D01*
X1937528Y1556791D02*
X1940517D01*
X1937533Y1556830D02*
X1940523D01*
X1937539Y1556870D02*
X1940528D01*
X1937544Y1556909D02*
X1940534D01*
X1937550Y1556949D02*
X1940539D01*
X1937555Y1556988D02*
X1940545D01*
X1937561Y1557027D02*
X1940551D01*
X1937566Y1557067D02*
X1940556D01*
X1937572Y1557106D02*
X1940562D01*
X1937577Y1557145D02*
X1940567D01*
X1937583Y1557185D02*
X1940573D01*
X1937588Y1557224D02*
X1940578D01*
X1937594Y1557264D02*
X1940584D01*
X1937600Y1557303D02*
X1940589D01*
X1937605Y1557342D02*
X1940595D01*
X1937611Y1557382D02*
X1940600D01*
X1937616Y1557421D02*
X1940606D01*
X1937622Y1557460D02*
X1940611D01*
X1937627Y1557500D02*
X1940617D01*
X1937633Y1557539D02*
X1940622D01*
X1937638Y1557579D02*
X1940628D01*
X1937644Y1557618D02*
X1940634D01*
X1937649Y1557657D02*
X1940639D01*
X1937655Y1557697D02*
X1940645D01*
X1937660Y1557736D02*
X1940650D01*
X1937666Y1557775D02*
X1940656D01*
X1937671Y1557815D02*
X1940661D01*
X1937677Y1557854D02*
X1940667D01*
X1937683Y1557893D02*
X1940672D01*
X1937688Y1557933D02*
X1940678D01*
X1937694Y1557972D02*
X1940683D01*
X1937699Y1558012D02*
X1940689D01*
X1937705Y1558051D02*
X1940694D01*
X1937710Y1558090D02*
X1940700D01*
X1937716Y1558130D02*
X1940705D01*
X1937721Y1558169D02*
X1940711D01*
X1937727Y1558208D02*
X1940717D01*
X1937732Y1558248D02*
X1940722D01*
X1937738Y1558287D02*
X1940728D01*
X1937743Y1558327D02*
X1940733D01*
X1937749Y1558366D02*
X1940739D01*
X1937754Y1558405D02*
X1940744D01*
X1937760Y1558445D02*
X1940750D01*
X1937766Y1558484D02*
X1940755D01*
X1937771Y1558523D02*
X1940761D01*
X1937777Y1558563D02*
X1940766D01*
X1937782Y1558602D02*
X1940772D01*
X1937788Y1558642D02*
X1940777D01*
X1937793Y1558681D02*
X1940783D01*
X1937799Y1558720D02*
X1940788D01*
X1937804Y1558760D02*
X1940794D01*
X1937810Y1558799D02*
X1940800D01*
X1937815Y1558838D02*
X1940805D01*
X1937821Y1558878D02*
X1940811D01*
X1937826Y1558917D02*
X1940816D01*
X1937832Y1558956D02*
X1940822D01*
X1937837Y1558996D02*
X1940827D01*
X1937843Y1559035D02*
X1940833D01*
X1937849Y1559075D02*
X1940838D01*
X1937854Y1559114D02*
X1940844D01*
X1937860Y1559153D02*
X1940849D01*
X1937865Y1559193D02*
X1940855D01*
X1937871Y1559232D02*
X1940860D01*
X1937876Y1559271D02*
X1940866D01*
X1937882Y1559311D02*
X1940871D01*
X1937887Y1559350D02*
X1940877D01*
X1937893Y1559390D02*
X1940883D01*
X1937898Y1559429D02*
X1940888D01*
X1937904Y1559468D02*
X1940894D01*
X1937909Y1559508D02*
X1940899D01*
X1937915Y1559547D02*
X1940905D01*
X1937920Y1559586D02*
X1940910D01*
X1937926Y1559626D02*
X1940916D01*
X1937932Y1559665D02*
X1940921D01*
X1937937Y1559705D02*
X1940927D01*
X1937943Y1559744D02*
X1940932D01*
X1937948Y1559783D02*
X1940938D01*
X1937954Y1559823D02*
X1940943D01*
X1937959Y1559862D02*
X1940949D01*
X1937965Y1559901D02*
X1940954D01*
X1937970Y1559941D02*
X1940960D01*
X1937976Y1559980D02*
X1940966D01*
X1937981Y1560019D02*
X1940971D01*
X1937987Y1560059D02*
X1940977D01*
X1937992Y1560098D02*
X1940982D01*
X1937998Y1560138D02*
X1940988D01*
X1938003Y1560177D02*
X1940993D01*
X1938009Y1560216D02*
X1940999D01*
X1938015Y1560256D02*
X1941004D01*
X1938020Y1560295D02*
X1941010D01*
X1938026Y1560334D02*
X1941015D01*
X1938031Y1560374D02*
X1941021D01*
X1938037Y1560413D02*
X1941026D01*
X1938042Y1560453D02*
X1941032D01*
X1938048Y1560492D02*
X1941037D01*
X1938053Y1560531D02*
X1941043D01*
X1938059Y1560571D02*
X1941049D01*
X1938064Y1560610D02*
X1941054D01*
X1938070Y1560649D02*
X1941060D01*
X1938075Y1560689D02*
X1941065D01*
X1938081Y1560728D02*
X1941071D01*
X1938086Y1560767D02*
X1941076D01*
X1938092Y1560807D02*
X1941082D01*
X1938098Y1560846D02*
X1941087D01*
X1938103Y1560886D02*
X1941093D01*
X1938109Y1560925D02*
X1941098D01*
X1938114Y1560964D02*
X1941104D01*
X1938120Y1561004D02*
X1941109D01*
X1938125Y1561043D02*
X1941115D01*
X1938131Y1561082D02*
X1941120D01*
X1938136Y1561122D02*
X1941126D01*
X1938142Y1561161D02*
X1941132D01*
X1938147Y1561201D02*
X1941137D01*
X1938153Y1561240D02*
X1941143D01*
X1938158Y1561279D02*
X1941148D01*
X1938164Y1561319D02*
X1941154D01*
X1938169Y1561358D02*
X1941159D01*
X1938175Y1561397D02*
X1941165D01*
X1938181Y1561437D02*
X1941170D01*
X1938186Y1561476D02*
X1941176D01*
X1938192Y1561516D02*
X1941181D01*
X1938197Y1561555D02*
X1941187D01*
X1938203Y1561594D02*
X1941192D01*
X1938208Y1561634D02*
X1941198D01*
X1938214Y1561673D02*
X1941182D01*
X1938219Y1561712D02*
X1940902D01*
X1938225Y1561752D02*
X1940622D01*
X1938230Y1561791D02*
X1940342D01*
X1938236Y1561830D02*
X1940062D01*
X1938241Y1561870D02*
X1939782D01*
X1938247Y1561909D02*
X1939502D01*
X1938252Y1561949D02*
X1939222D01*
X1938258Y1561988D02*
X1938941D01*
X1938264Y1562027D02*
X1938661D01*
X1938269Y1562067D02*
X1938381D01*
X1937442Y1556180D02*
X1937442D01*
X1937481Y1556174D02*
Y1556460D01*
X1937520Y1556168D02*
Y1556740D01*
X1937560Y1556163D02*
Y1557020D01*
X1937599Y1556157D02*
Y1557300D01*
X1937639Y1556152D02*
Y1557580D01*
X1937678Y1556146D02*
Y1557860D01*
X1937717Y1556141D02*
Y1558140D01*
X1937757Y1556135D02*
Y1558421D01*
X1937796Y1556130D02*
Y1558701D01*
X1937835Y1556124D02*
Y1558981D01*
X1937875Y1556119D02*
Y1559261D01*
X1937914Y1556113D02*
Y1559541D01*
X1937953Y1556108D02*
Y1559821D01*
X1937993Y1556102D02*
Y1560101D01*
X1938032Y1556097D02*
Y1560382D01*
X1938072Y1556091D02*
Y1560662D01*
X1938111Y1556085D02*
Y1560942D01*
X1938150Y1556080D02*
Y1561222D01*
X1938190Y1556074D02*
Y1561502D01*
X1938229Y1556069D02*
Y1561782D01*
X1938268Y1556063D02*
Y1562062D01*
X1938308Y1556058D02*
Y1562077D01*
X1938347Y1556052D02*
Y1562071D01*
X1938387Y1556047D02*
Y1562066D01*
X1938426Y1556041D02*
Y1562060D01*
X1938465Y1556036D02*
Y1562055D01*
X1938505Y1556030D02*
Y1562049D01*
X1938544Y1556025D02*
Y1562044D01*
X1938583Y1556019D02*
Y1562038D01*
X1938623Y1556014D02*
Y1562033D01*
X1938662Y1556008D02*
Y1562027D01*
X1938702Y1556002D02*
Y1562022D01*
X1938741Y1555997D02*
Y1562016D01*
X1938780Y1555991D02*
Y1562011D01*
X1938820Y1555986D02*
Y1562005D01*
X1938859Y1555980D02*
Y1562000D01*
X1938898Y1555975D02*
Y1561994D01*
X1938938Y1555969D02*
Y1561988D01*
X1938977Y1555964D02*
Y1561983D01*
X1939016Y1555958D02*
Y1561977D01*
X1939056Y1555953D02*
Y1561972D01*
X1939095Y1555947D02*
Y1561966D01*
X1939135Y1555942D02*
Y1561961D01*
X1939174Y1555936D02*
Y1561955D01*
X1939213Y1555931D02*
Y1561950D01*
X1939253Y1555925D02*
Y1561944D01*
X1939292Y1555919D02*
Y1561939D01*
X1939331Y1555914D02*
Y1561933D01*
X1939371Y1555908D02*
Y1561928D01*
X1939410Y1555903D02*
Y1561922D01*
X1939450Y1555897D02*
Y1561917D01*
X1939489Y1555892D02*
Y1561911D01*
X1939528Y1555886D02*
Y1561905D01*
X1939568Y1555881D02*
Y1561900D01*
X1939607Y1555875D02*
Y1561894D01*
X1939646Y1555870D02*
Y1561889D01*
X1939686Y1555864D02*
Y1561883D01*
X1939725Y1555859D02*
Y1561878D01*
X1939765Y1555853D02*
Y1561872D01*
X1939804Y1555848D02*
Y1561867D01*
X1939843Y1555842D02*
Y1561861D01*
X1939883Y1555836D02*
Y1561856D01*
X1939922Y1555831D02*
Y1561850D01*
X1939961Y1555825D02*
Y1561845D01*
X1940001Y1555820D02*
Y1561839D01*
X1940040Y1555814D02*
Y1561834D01*
X1940079Y1555809D02*
Y1561828D01*
X1940119Y1555803D02*
Y1561822D01*
X1940158Y1555798D02*
Y1561817D01*
X1940198Y1555792D02*
Y1561811D01*
X1940237Y1555787D02*
Y1561806D01*
X1940276Y1555781D02*
Y1561800D01*
X1940316Y1555776D02*
Y1561795D01*
X1940355Y1555770D02*
Y1561789D01*
X1940394Y1555916D02*
Y1561784D01*
X1940434Y1556197D02*
Y1561778D01*
X1940473Y1556477D02*
Y1561773D01*
X1940513Y1556757D02*
Y1561767D01*
X1940552Y1557037D02*
Y1561762D01*
X1940591Y1557317D02*
Y1561756D01*
X1940631Y1557597D02*
Y1561751D01*
X1940670Y1557877D02*
Y1561745D01*
X1940709Y1558158D02*
Y1561739D01*
X1940749Y1558438D02*
Y1561734D01*
X1940788Y1558718D02*
Y1561728D01*
X1940827Y1558998D02*
Y1561723D01*
X1940867Y1559278D02*
Y1561717D01*
X1940906Y1559558D02*
Y1561712D01*
X1940946Y1559838D02*
Y1561706D01*
X1940985Y1560118D02*
Y1561701D01*
X1941024Y1560399D02*
Y1561695D01*
X1941064Y1560679D02*
Y1561690D01*
X1941103Y1560959D02*
Y1561684D01*
X1941142Y1561239D02*
Y1561679D01*
X1941182Y1561519D02*
Y1561673D01*
G54D33*
X1940481Y1572764D03*
X1941859Y1567843D03*
X1937528Y1572567D03*
X1931623Y1567449D03*
X1934575D03*
X1957410Y1572764D03*
X1913316Y1574142D03*
X1933591Y1591661D03*
X1929851Y1575323D03*
X1939300Y1593433D03*
X1922764Y1590283D03*
X1951308Y1592843D03*
X1967056Y1582016D03*
X1970205D03*
X1932607Y1596976D03*
X1948552Y1594417D03*
G54D34*
X1962331Y1582016D03*
G74*
X0Y0D02*
M02*
