*
*
G04 PADS 9.5 Build Number: 522968 generated Gerber (RS-274-X) file*
G04 PC Version=2.1*
*
%IN "LCORE_4.pcb"*%
*
%MOIN*%
*
%FSLAX35Y35*%
*
*
*
*
G04 PC Standard Apertures*
*
*
G04 Thermal Relief Aperture macro.*
%AMTER*
1,1,$1,0,0*
1,0,$1-$2,0,0*
21,0,$3,$4,0,0,45*
21,0,$3,$4,0,0,135*
%
*
*
G04 Annular Aperture macro.*
%AMANN*
1,1,$1,0,0*
1,0,$2,0,0*
%
*
*
G04 Odd Aperture macro.*
%AMODD*
1,1,$1,0,0*
1,0,$1-0.005,0,0*
%
*
*
G04 PC Custom Aperture Macros*
*
*
*
*
*
*
G04 PC Aperture Table*
*
%ADD010C,0.001*%
%ADD012C,0.01*%
%ADD013C,0.00591*%
%ADD018R,0.02165X0.02165*%
%ADD019R,0.035X0.024*%
%ADD020C,0.01181*%
%ADD021C,0.02362*%
%ADD022C,0.00709*%
%ADD027C,0.00039*%
%ADD031R,0.0315X0.01378*%
%ADD032R,0.01378X0.0315*%
%ADD033C,0.01575*%
*
*
*
*
G04 PC Circuitry*
G04 Layer Name LCORE_4.pcb - circuitry*
%LPD*%
*
*
G04 PC Custom Flashes*
G04 Layer Name LCORE_4.pcb - flashes*
%LPD*%
*
*
G04 PC Circuitry*
G04 Layer Name LCORE_4.pcb - circuitry*
%LPD*%
*
G54D10*
G54D12*
G01X2044631Y1596059D02*
Y1589496D01*
X2043040Y1596059D02*
X2046222D01*
X2049631D02*
X2049176Y1595746D01*
X2048722Y1595121*
X2048495Y1594496*
X2048267Y1593559*
Y1591996*
X2048495Y1591059*
X2048722Y1590434*
X2049176Y1589809*
X2049631Y1589496*
X2050540*
X2050995Y1589809*
X2051449Y1590434*
X2051676Y1591059*
X2051904Y1591996*
Y1593559*
X2051676Y1594496*
X2051449Y1595121*
X2050995Y1595746*
X2050540Y1596059*
X2049631*
X2053949D02*
Y1589496D01*
Y1596059D02*
X2055995D01*
X2056676Y1595746*
X2056904Y1595434*
X2057131Y1594809*
Y1593871*
X2056904Y1593246*
X2056676Y1592934*
X2055995Y1592621*
X2053949*
X2067813Y1594496D02*
X2067585Y1595121D01*
X2067131Y1595746*
X2066676Y1596059*
X2065767*
X2065313Y1595746*
X2064858Y1595121*
X2064631Y1594496*
X2064404Y1593559*
Y1591996*
X2064631Y1591059*
X2064858Y1590434*
X2065313Y1589809*
X2065767Y1589496*
X2066676*
X2067131Y1589809*
X2067585Y1590434*
X2067813Y1591059*
X2071222Y1596059D02*
X2070767Y1595746D01*
X2070313Y1595121*
X2070085Y1594496*
X2069858Y1593559*
Y1591996*
X2070085Y1591059*
X2070313Y1590434*
X2070767Y1589809*
X2071222Y1589496*
X2072131*
X2072585Y1589809*
X2073040Y1590434*
X2073267Y1591059*
X2073495Y1591996*
Y1593559*
X2073267Y1594496*
X2073040Y1595121*
X2072585Y1595746*
X2072131Y1596059*
X2071222*
X2075540D02*
Y1589496D01*
Y1596059D02*
X2077585D01*
X2078267Y1595746*
X2078495Y1595434*
X2078722Y1594809*
Y1593871*
X2078495Y1593246*
X2078267Y1592934*
X2077585Y1592621*
X2075540*
X2080767Y1596059D02*
Y1589496D01*
Y1596059D02*
X2082813D01*
X2083495Y1595746*
X2083722Y1595434*
X2083949Y1594809*
Y1593871*
X2083722Y1593246*
X2083495Y1592934*
X2082813Y1592621*
X2080767*
X2085995Y1596059D02*
Y1589496D01*
Y1596059D02*
X2088949D01*
X2085995Y1592934D02*
X2087813D01*
X2085995Y1589496D02*
X2088949D01*
X2090995Y1596059D02*
Y1589496D01*
Y1596059D02*
X2093040D01*
X2093722Y1595746*
X2093949Y1595434*
X2094176Y1594809*
Y1594184*
X2093949Y1593559*
X2093722Y1593246*
X2093040Y1592934*
X2090995*
X2092585D02*
X2094176Y1589496D01*
X1837997Y1476324D02*
Y1469761D01*
Y1476324D02*
X1840042D01*
X1840724Y1476011*
X1840951Y1475699*
X1841179Y1475074*
Y1474449*
X1840951Y1473824*
X1840724Y1473511*
X1840042Y1473199*
X1837997D02*
X1840042D01*
X1840724Y1472886*
X1840951Y1472574*
X1841179Y1471949*
Y1471011*
X1840951Y1470386*
X1840724Y1470074*
X1840042Y1469761*
X1837997*
X1844588Y1476324D02*
X1844133Y1476011D01*
X1843679Y1475386*
X1843451Y1474761*
X1843224Y1473824*
Y1472261*
X1843451Y1471324*
X1843679Y1470699*
X1844133Y1470074*
X1844588Y1469761*
X1845497*
X1845951Y1470074*
X1846406Y1470699*
X1846633Y1471324*
X1846860Y1472261*
Y1473824*
X1846633Y1474761*
X1846406Y1475386*
X1845951Y1476011*
X1845497Y1476324*
X1844588*
X1850724D02*
X1848906Y1469761D01*
X1850724Y1476324D02*
X1852542Y1469761D01*
X1849588Y1471949D02*
X1851860D01*
X1854588Y1476324D02*
Y1469761D01*
Y1476324D02*
X1856633D01*
X1857315Y1476011*
X1857542Y1475699*
X1857769Y1475074*
Y1474449*
X1857542Y1473824*
X1857315Y1473511*
X1856633Y1473199*
X1854588*
X1856179D02*
X1857769Y1469761D01*
X1859815Y1476324D02*
Y1469761D01*
Y1476324D02*
X1861406D01*
X1862088Y1476011*
X1862542Y1475386*
X1862769Y1474761*
X1862997Y1473824*
Y1472261*
X1862769Y1471324*
X1862542Y1470699*
X1862088Y1470074*
X1861406Y1469761*
X1859815*
X1871860Y1476324D02*
Y1469761D01*
X1870269Y1476324D02*
X1873451D01*
X1875497D02*
Y1469761D01*
X1878679Y1476324D02*
Y1469761D01*
X1875497Y1473199D02*
X1878679D01*
X1880724Y1476324D02*
Y1469761D01*
X1886179Y1474761D02*
X1885951Y1475386D01*
X1885497Y1476011*
X1885042Y1476324*
X1884133*
X1883679Y1476011*
X1883224Y1475386*
X1882997Y1474761*
X1882769Y1473824*
Y1472261*
X1882997Y1471324*
X1883224Y1470699*
X1883679Y1470074*
X1884133Y1469761*
X1885042*
X1885497Y1470074*
X1885951Y1470699*
X1886179Y1471324*
X1888224Y1476324D02*
Y1469761D01*
X1891406Y1476324D02*
X1888224Y1471949D01*
X1889360Y1473511D02*
X1891406Y1469761D01*
X1893451Y1476324D02*
Y1469761D01*
Y1476324D02*
X1896633Y1469761D01*
Y1476324D02*
Y1469761D01*
X1898679Y1476324D02*
Y1469761D01*
Y1476324D02*
X1901633D01*
X1898679Y1473199D02*
X1900497D01*
X1898679Y1469761D02*
X1901633D01*
X1906860Y1475386D02*
X1906406Y1476011D01*
X1905724Y1476324*
X1904815*
X1904133Y1476011*
X1903679Y1475386*
Y1474761*
X1903906Y1474136*
X1904133Y1473824*
X1904588Y1473511*
X1905951Y1472886*
X1906406Y1472574*
X1906633Y1472261*
X1906860Y1471636*
Y1470699*
X1906406Y1470074*
X1905724Y1469761*
X1904815*
X1904133Y1470074*
X1903679Y1470699*
X1912088Y1475386D02*
X1911633Y1476011D01*
X1910951Y1476324*
X1910042*
X1909360Y1476011*
X1908906Y1475386*
Y1474761*
X1909133Y1474136*
X1909360Y1473824*
X1909815Y1473511*
X1911179Y1472886*
X1911633Y1472574*
X1911860Y1472261*
X1912088Y1471636*
Y1470699*
X1911633Y1470074*
X1910951Y1469761*
X1910042*
X1909360Y1470074*
X1908906Y1470699*
X1920724Y1476324D02*
X1920042Y1476011D01*
X1919588Y1475074*
X1919360Y1473511*
Y1472574*
X1919588Y1471011*
X1920042Y1470074*
X1920724Y1469761*
X1921179*
X1921860Y1470074*
X1922315Y1471011*
X1922542Y1472574*
Y1473511*
X1922315Y1475074*
X1921860Y1476011*
X1921179Y1476324*
X1920724*
X1924815Y1470386D02*
X1924588Y1470074D01*
X1924815Y1469761*
X1925042Y1470074*
X1924815Y1470386*
X1928224Y1476324D02*
X1927542Y1476011D01*
X1927315Y1475386*
Y1474761*
X1927542Y1474136*
X1927997Y1473824*
X1928906Y1473511*
X1929588Y1473199*
X1930042Y1472574*
X1930269Y1471949*
Y1471011*
X1930042Y1470386*
X1929815Y1470074*
X1929133Y1469761*
X1928224*
X1927542Y1470074*
X1927315Y1470386*
X1927088Y1471011*
Y1471949*
X1927315Y1472574*
X1927769Y1473199*
X1928451Y1473511*
X1929360Y1473824*
X1929815Y1474136*
X1930042Y1474761*
Y1475386*
X1929815Y1476011*
X1929133Y1476324*
X1928224*
X1932315Y1474136D02*
Y1469761D01*
Y1472886D02*
X1932997Y1473824D01*
X1933451Y1474136*
X1934133*
X1934588Y1473824*
X1934815Y1472886*
Y1469761*
Y1472886D02*
X1935497Y1473824D01*
X1935951Y1474136*
X1936633*
X1937088Y1473824*
X1937315Y1472886*
Y1469761*
X1939360Y1474136D02*
Y1469761D01*
Y1472886D02*
X1940042Y1473824D01*
X1940497Y1474136*
X1941179*
X1941633Y1473824*
X1941860Y1472886*
Y1469761*
Y1472886D02*
X1942542Y1473824D01*
X1942997Y1474136*
X1943679*
X1944133Y1473824*
X1944360Y1472886*
Y1469761*
X1946860Y1470074D02*
X1946633Y1469761D01*
X1946406Y1470074*
X1946633Y1470386*
X1946860Y1470074*
Y1469449*
X1946633Y1468824*
X1946406Y1468511*
X1954133Y1476324D02*
Y1469761D01*
Y1476324D02*
X1956179D01*
X1956860Y1476011*
X1957088Y1475699*
X1957315Y1475074*
Y1474449*
X1957088Y1473824*
X1956860Y1473511*
X1956179Y1473199*
X1954133*
X1955724D02*
X1957315Y1469761D01*
X1959360Y1476324D02*
Y1469761D01*
X1962542Y1476324D02*
Y1469761D01*
X1959360Y1473199D02*
X1962542D01*
X1965951Y1476324D02*
X1965497Y1476011D01*
X1965042Y1475386*
X1964815Y1474761*
X1964588Y1473824*
Y1472261*
X1964815Y1471324*
X1965042Y1470699*
X1965497Y1470074*
X1965951Y1469761*
X1966860*
X1967315Y1470074*
X1967769Y1470699*
X1967997Y1471324*
X1968224Y1472261*
Y1473824*
X1967997Y1474761*
X1967769Y1475386*
X1967315Y1476011*
X1966860Y1476324*
X1965951*
X1973451Y1475386D02*
X1972997Y1476011D01*
X1972315Y1476324*
X1971406*
X1970724Y1476011*
X1970269Y1475386*
Y1474761*
X1970497Y1474136*
X1970724Y1473824*
X1971179Y1473511*
X1972542Y1472886*
X1972997Y1472574*
X1973224Y1472261*
X1973451Y1471636*
Y1470699*
X1972997Y1470074*
X1972315Y1469761*
X1971406*
X1970724Y1470074*
X1970269Y1470699*
X1982542Y1476324D02*
X1982088D01*
X1981633Y1476011*
X1981406Y1475074*
Y1469761*
X1980724Y1474136D02*
X1982315D01*
X1984588Y1476324D02*
X1984815Y1476011D01*
X1985042Y1476324*
X1984815Y1476636*
X1984588Y1476324*
X1984815Y1474136D02*
Y1469761D01*
X1987088Y1474136D02*
Y1469761D01*
Y1472886D02*
X1987769Y1473824D01*
X1988224Y1474136*
X1988906*
X1989360Y1473824*
X1989588Y1472886*
Y1469761*
X1991633Y1476324D02*
X1991860Y1476011D01*
X1992088Y1476324*
X1991860Y1476636*
X1991633Y1476324*
X1991860Y1474136D02*
Y1469761D01*
X1996633Y1473199D02*
X1996406Y1473824D01*
X1995724Y1474136*
X1995042*
X1994360Y1473824*
X1994133Y1473199*
X1994360Y1472574*
X1994815Y1472261*
X1995951Y1471949*
X1996406Y1471636*
X1996633Y1471011*
Y1470699*
X1996406Y1470074*
X1995724Y1469761*
X1995042*
X1994360Y1470074*
X1994133Y1470699*
X1998679Y1476324D02*
Y1469761D01*
Y1472886D02*
X1999360Y1473824D01*
X1999815Y1474136*
X2000497*
X2000951Y1473824*
X2001179Y1472886*
Y1469761*
X2003224Y1476324D02*
X2003451Y1476011D01*
X2003679Y1476324*
X2003451Y1476636*
X2003224Y1476324*
X2003451Y1474136D02*
Y1469761D01*
X2005724Y1474136D02*
Y1469761D01*
Y1472886D02*
X2006406Y1473824D01*
X2006860Y1474136*
X2007542*
X2007997Y1473824*
X2008224Y1472886*
Y1469761*
X2012997Y1474136D02*
Y1469136D01*
X2012769Y1468199*
X2012542Y1467886*
X2012088Y1467574*
X2011406*
X2010951Y1467886*
X2012997Y1473199D02*
X2012542Y1473824D01*
X2012088Y1474136*
X2011406*
X2010951Y1473824*
X2010497Y1473199*
X2010269Y1472261*
Y1471636*
X2010497Y1470699*
X2010951Y1470074*
X2011406Y1469761*
X2012088*
X2012542Y1470074*
X2012997Y1470699*
X1900788Y1561558D02*
G75*
G03X1921809Y1551031I48934J71466D01*
G01X1921827Y1551025D02*
G03X1926389Y1552091I1471J3999D01*
G01X1932249Y1554225D02*
G03X1926391Y1552092I-1336J-5442D01*
G01X1932289Y1554216D02*
G03X1960292Y1552993I17468J78795D01*
G01X1965815Y1550567D02*
G03X1960269Y1552990I-4781J-3386D01*
G01X1965819Y1550561D02*
G03X1970341Y1548880I3345J2074D01*
G01X1970380Y1548889D02*
G03X1985922Y1554286I-20514J84150D01*
G01X1985913Y1554281D02*
G03X1988944Y1564993I-3840J6872D01*
G01X1988940Y1564999D02*
X1969016Y1599606D01*
X1969018Y1599603D02*
G03X1959686Y1603148I-6910J-4135D01*
G01X1934880Y1605240D02*
G03X1959709Y1603156I14835J27784D01*
G01X1924884Y1603377D02*
G03X1934851Y1605260I3644J8033D01*
G01X1924879Y1603379D02*
X1899587Y1573281D01*
X1899585Y1573278D02*
G03X1900763Y1561574I5923J-5315D01*
G01X1837791Y1744944D02*
X1817791D01*
Y1724944*
X1823603Y1475056D02*
Y1455056D01*
X1843603*
X2162209Y1460312D02*
X2182209D01*
Y1480312*
X2176373Y1719944D02*
Y1739944D01*
X2156373*
G54D13*
X1964162Y1583197D02*
X1963217D01*
X1932745Y1586937D02*
X1933690D01*
X1936800D02*
X1935855D01*
X1934772Y1588965D02*
Y1588020D01*
X1914016Y1584924D02*
X1914817Y1584423D01*
X1913300Y1574824D02*
X1913801Y1575625D01*
X1922064Y1579895D02*
X1921263Y1580396D01*
X1922780Y1589995D02*
X1922279Y1589194D01*
X1955501Y1569614D02*
X1954556D01*
X1953473Y1571642D02*
Y1570697D01*
X1951446Y1569614D02*
X1952390D01*
X1951839Y1580941D02*
X1952784D01*
X1953473Y1578421D02*
Y1579366D01*
X1955107Y1580941D02*
X1954162D01*
X1953473Y1583461D02*
Y1582516D01*
G54D18*
X1962135Y1586740D03*
Y1590283D03*
X1953473Y1566071D03*
Y1569614D03*
X1934772Y1579654D03*
Y1576110D03*
Y1586937D03*
Y1583394D03*
X1962135Y1583197D03*
Y1579654D03*
Y1576110D03*
Y1572567D03*
G54D19*
X1945993Y1565639D03*
Y1570439D03*
G54D20*
X1941859Y1567843D02*
Y1567214D01*
X1943434Y1565639*
X1945993*
X1957410Y1572764D02*
X1961938D01*
X1962135Y1572567*
X1945993Y1570439D02*
Y1580941D01*
Y1565639D02*
Y1566071D01*
X1953473*
X1959969*
X1962135Y1568236*
Y1572567*
X1963019*
Y1572319*
X1963903*
X1973599Y1582016*
X1962135Y1572567D02*
X1962382D01*
Y1572319*
X1913316Y1574142D02*
X1918040Y1582409D01*
X1922764Y1590283*
X1918040Y1582409D02*
X1925127Y1578912D01*
X1934689Y1581524D02*
X1934689D01*
G03X1934772Y1579654I21054J-0*
G01X1925127Y1578912D02*
Y1593630D01*
X1931032Y1599535*
X1933788*
X1935166Y1598157*
Y1596976*
X1925127Y1578912D02*
Y1573945D01*
X1931623Y1567449*
X1934772Y1583394D02*
G03X1934689Y1581524I20971J-1870D01*
G01X1931032Y1591661D02*
Y1592843D01*
X1932607Y1594417*
X1933788*
X1935166Y1595795*
Y1596976*
X1931032Y1591661D02*
Y1588315D01*
X1932410Y1586937*
X1934772*
X1928670Y1592843D02*
Y1576898D01*
X1929851Y1575717*
Y1575323*
X1928670Y1592843D02*
Y1593827D01*
X1931820Y1596976*
X1932607*
X1933591Y1591661D02*
X1936924D01*
X1937121Y1591465*
X1940178*
X1940579Y1591866*
X1943335*
Y1591965*
X1929851Y1575323D02*
Y1572764D01*
X1932213Y1570402*
X1938484*
X1940481Y1572764*
X1939300Y1593433D02*
X1944615Y1598748D01*
X1955442*
X1956032Y1598157*
Y1596976*
X1934772Y1586937D02*
X1937036D01*
X1945399Y1586748*
X1950914Y1583197*
X1953375Y1586056*
X1934772Y1576110D02*
X1935264D01*
Y1575618*
X1937528Y1572567*
X1934772Y1579654D02*
X1937225D01*
X1942449Y1584878*
X1943335*
X1954067Y1586748D02*
X1954256Y1586937D01*
X1958054*
X1961794Y1583197*
X1962135*
X1954067Y1586748D02*
X1958195D01*
X1958886Y1586056*
X1959969Y1584867*
X1961887Y1582949*
Y1583197*
X1962135*
X1953375Y1586056D02*
X1954067Y1586748D01*
X1951277Y1592888D02*
X1951505Y1593039D01*
X1951949Y1593492*
X1953473Y1595016*
Y1595902*
X1951277Y1592888D02*
X1951308Y1592843D01*
X1956252Y1592128D02*
X1961887Y1586493D01*
Y1586740*
X1962135*
X1956252Y1592128D02*
X1956329Y1591965D01*
X1951603Y1578877D02*
X1953369Y1575809D01*
X1953473Y1575520*
X1951603Y1578877D02*
Y1584285D01*
X1953375Y1586056*
X1962135Y1579654D02*
X1961642D01*
Y1576110*
X1962135*
X1956131Y1591965D02*
X1956329D01*
X1956131Y1584878D02*
X1957016D01*
X1959182Y1582713*
Y1582111*
X1961887Y1579406*
Y1579654*
X1962135*
Y1583197D02*
Y1582724D01*
X1964497Y1582630*
X1965142Y1582475*
X1965142*
X1967056Y1582016*
X1962135Y1590283D02*
X1962382D01*
Y1590531*
X1970205Y1582708*
Y1582016*
X1956032Y1596976D02*
X1959277D01*
X1968999Y1587255*
Y1586616*
X1973599Y1582016*
X1956032Y1596976D02*
X1956131Y1596878D01*
Y1591965*
X1945993Y1595902D02*
X1947371Y1595992D01*
X1948552Y1594417*
G54D21*
X1931623Y1567449D02*
X1934575D01*
X1967056Y1582016D02*
X1970205D01*
G54D22*
X1984281Y1571197D02*
Y1571198*
X1968202Y1599128D01*
X1968202*
G03X1959975Y1602248I-6094J-3660*
G01X1959975*
X1935011Y1604106D02*
G03X1959975Y1602248I14704J28918D01*
G01X1935011Y1604106D02*
X1925159Y1602244*
G03X1935011Y1604106I3369J9166D01*
G01X1925159Y1602244D02*
X1925158Y1602243*
X1904983Y1578233D01*
Y1578232D02*
G03X1984281Y1571197I44750J53981D01*
G01X1971427Y1582015D02*
Y1582016*
X1967913Y1585530D01*
X1967463Y1586616D02*
G03X1967913Y1585530I1536J0D01*
G01X1967463Y1586616D02*
Y1586619D01*
X1964163Y1589919*
X1964162Y1589918D02*
Y1589201D01*
X1963864Y1588512D02*
G03X1964162Y1589201I-647J689D01*
G01X1963864Y1588512D02*
X1964162Y1587823*
G03X1963864Y1588511I-945J-0D01*
G01X1964162Y1587823D02*
Y1585657D01*
X1963864Y1584969D02*
G03X1964162Y1585657I-647J688D01*
G01X1963864Y1584969D02*
X1964162Y1584280*
G03X1963864Y1584968I-945J-0D01*
G01X1964162Y1584280D02*
Y1582114D01*
X1963864Y1581426D02*
G03X1964162Y1582114I-647J688D01*
G01X1963864Y1581426D02*
X1964162Y1580736*
G03X1963864Y1581425I-945J0D01*
G01X1964162Y1580736D02*
Y1578571D01*
X1963864Y1577882D02*
G03X1964162Y1578571I-647J689D01*
G01X1963864Y1577882D02*
X1964162Y1577193*
G03X1963864Y1577881I-945J-0D01*
G01X1964162Y1577193D02*
Y1575028D01*
X1964100Y1574690D02*
G03X1964162Y1575028I-883J338D01*
G01X1964100Y1574690D02*
X1964101Y1574689*
X1971427Y1582015D01*
X1974685Y1580930D02*
G03Y1583101I-1086J1086D01*
G01Y1580930D02*
X1964988Y1571234D01*
X1963903Y1570784D02*
G03X1964988Y1571234I-0J1535D01*
G01X1963903Y1570784D02*
X1963852D01*
X1963670Y1570655D02*
G03X1963851Y1570784I-453J829D01*
G01X1963670Y1570655D02*
Y1570654*
Y1568236D01*
X1963220Y1567150D02*
G03X1963670Y1568236I-1085J1086D01*
G01X1963220Y1567150D02*
X1961055Y1564985D01*
X1959969Y1564535D02*
G03X1961055Y1564985I0J1536D01*
G01X1959969Y1564535D02*
X1955386D01*
X1954556Y1564043D02*
G03X1955385Y1564535I-0J945D01*
G01X1954556Y1564043D02*
X1952390D01*
X1951561Y1564535D02*
G03X1952390Y1564043I829J453D01*
G01X1951561Y1564535D02*
X1948688D01*
Y1564439*
X1947743Y1563494D02*
G03X1948688Y1564439I-0J945D01*
G01X1947743Y1563494D02*
X1944243D01*
X1943359Y1564105D02*
G03X1944243Y1563494I884J334D01*
G01X1943359Y1564105D02*
X1942348Y1564554*
G03X1943358Y1564106I1086J1085D01*
G01X1942348Y1564554D02*
X1940773Y1566128D01*
X1940336Y1567016D02*
G03X1940773Y1566128I1523J198D01*
G01X1940336Y1567016D02*
X1943582Y1567663*
G03X1940336Y1567017I-1723J180D01*
G01X1943582Y1567663D02*
X1943582D01*
Y1567662D02*
X1943660Y1567584D01*
X1944243Y1567784D02*
G03X1943661Y1567584I-0J-945D01*
G01X1944243Y1567784D02*
X1947743D01*
X1948295Y1567606D02*
G03X1947743Y1567784I-552J-767D01*
G01X1948295Y1567606D02*
X1951561D01*
X1951743Y1567842D02*
G03X1951561Y1567607I647J-688D01*
G01X1951743Y1567842D02*
X1951446Y1568531*
G03X1951743Y1567843I944J0D01*
G01X1951446Y1568531D02*
Y1570697D01*
X1952390Y1571642D02*
G03X1951446Y1570697I0J-945D01*
G01X1952390Y1571642D02*
X1954556D01*
X1955501Y1570697D02*
G03X1954556Y1571642I-945J-0D01*
G01X1955501Y1570697D02*
Y1568531D01*
X1955203Y1567843D02*
G03X1955501Y1568531I-647J688D01*
G01X1955203Y1567843D02*
X1955385Y1567607*
G03X1955203Y1567842I-829J-453D01*
G01X1955385Y1567607D02*
X1955386Y1567606*
X1959333D01*
Y1567607D02*
X1960599Y1568872D01*
Y1568873D02*
Y1570654D01*
X1960142Y1571228D02*
G03X1960599Y1570655I910J256D01*
G01X1960142Y1571228D02*
X1958212D01*
Y1574299D02*
G03Y1571228I-802J-1535D01*
G01Y1574299D02*
X1960365D01*
X1960405Y1574338D02*
G03X1960366Y1574299I647J-688D01*
G01X1960405Y1574338D02*
X1960107Y1575028*
G03X1960405Y1574339I945J-0D01*
G01X1960107Y1575028D02*
Y1576110D01*
Y1579014*
Y1579015D02*
X1958096Y1581026D01*
X1957647Y1582076D02*
G03X1958096Y1581026I1535J35D01*
G01X1957647Y1582076D02*
X1956479Y1583244D01*
X1954766*
X1955107Y1582516D02*
G03X1954766Y1583243I-945J-0D01*
G01X1955107Y1582516D02*
Y1579366D01*
X1954162Y1578421D02*
G03X1955107Y1579366I0J945D01*
G01X1954162Y1578421D02*
X1952784D01*
X1951839Y1579366D02*
G03X1952784Y1578421I945J0D01*
G01X1951839Y1579366D02*
Y1582516D01*
X1952784Y1583461D02*
G03X1951839Y1582516I0J-945D01*
G01X1952784Y1583461D02*
X1953952D01*
X1953611Y1584189D02*
G03X1953952Y1583462I945J-0D01*
G01X1953611Y1584189D02*
Y1585567D01*
X1954556Y1586512D02*
G03X1953611Y1585567I-0J-945D01*
G01X1954556Y1586512D02*
X1957705D01*
X1958650Y1585567D02*
G03X1957705Y1586512I-945J-0D01*
G01X1958650Y1585567D02*
Y1585416D01*
Y1585415D02*
X1960106Y1583960D01*
X1960107Y1583961D02*
Y1584280D01*
X1960405Y1584968D02*
G03X1960107Y1584280I647J-688D01*
G01X1960405Y1584968D02*
X1960107Y1585657*
G03X1960405Y1584969I945J0D01*
G01X1960107Y1585657D02*
Y1586101D01*
X1955878Y1590330*
X1955877Y1590331D02*
X1954556D01*
X1953611Y1591276D02*
G03X1954556Y1590331I945J-0D01*
G01X1953611Y1591276D02*
Y1592654D01*
X1953714Y1593084D02*
G03X1953611Y1592654I842J-430D01*
G01X1953714Y1593084D02*
X1953713Y1593085*
X1953039Y1592411D01*
X1952964Y1592334*
X1949585Y1593025D02*
G03X1952963Y1592333I1723J-182D01*
G01X1949585Y1593025D02*
Y1593026D01*
X1947097Y1593477D02*
G03X1949584Y1593026I1455J940D01*
G01X1947097Y1593477D02*
X1946682Y1593382*
G03X1947096Y1593477I-0J945D01*
G01X1946682Y1593382D02*
X1945514D01*
X1945855Y1592654D02*
G03X1945514Y1593381I-945J-0D01*
G01X1945855Y1592654D02*
Y1591276D01*
X1944910Y1590331D02*
G03X1945855Y1591276I0J945D01*
G01X1944910Y1590331D02*
X1941760D01*
X1941760D02*
X1941213D01*
X1940178Y1589929D02*
G03X1941213Y1590331I-0J1536D01*
G01X1940178Y1589929D02*
X1937121D01*
X1936369Y1590126D02*
G03X1937121Y1589929I752J1339D01*
G01X1936369Y1590126D02*
X1936368*
X1934393D01*
Y1593197D02*
G03Y1590126I-802J-1536D01*
G01Y1593197D02*
X1936924D01*
X1937613Y1593033D02*
G03X1936924Y1593197I-689J-1372D01*
G01X1937613Y1593033D02*
X1938781Y1595086*
G03X1937614Y1593034I519J-1653D01*
G01X1938781Y1595086D02*
X1943529Y1599834D01*
X1944615Y1600283D02*
G03X1943529Y1599834I-0J-1535D01*
G01X1944615Y1600283D02*
X1955442D01*
X1956527Y1599834D02*
G03X1955442Y1600283I-1085J-1086D01*
G01X1956527Y1599834D02*
X1957118Y1599243D01*
X1957526Y1598512D02*
G03X1957118Y1599243I-1494J-355D01*
G01X1957526Y1598512D02*
X1957527*
X1959277D01*
X1960363Y1598062D02*
G03X1959277Y1598512I-1086J-1086D01*
G01X1960363Y1598062D02*
X1970084Y1588341D01*
X1970534Y1587255D02*
G03X1970084Y1588341I-1535J0D01*
G01X1970534Y1587255D02*
Y1587252D01*
X1974685Y1583101*
X1926303Y1586679D02*
G03X1926003Y1587981I-801J501D01*
G01X1926303Y1586679D02*
X1917825Y1573111D01*
X1916523Y1572810D02*
G03X1917825Y1573111I500J801D01*
G01X1916523Y1572810D02*
X1910077Y1576837D01*
X1909777Y1578139D02*
G03X1910077Y1576837I801J-500D01*
G01X1909777Y1578139D02*
X1918255Y1591708D01*
X1919558Y1592009D02*
G03X1918255Y1591708I-501J-801D01*
G01X1919558Y1592009D02*
X1926003Y1587981D01*
X1948688Y1571639D02*
Y1569239D01*
X1947743Y1568294D02*
G03X1948688Y1569239I-0J945D01*
G01X1947743Y1568294D02*
X1944243D01*
X1943298Y1569239D02*
G03X1944243Y1568294I945J0D01*
G01X1943298Y1569239D02*
Y1571639D01*
X1944243Y1572584D02*
G03X1943298Y1571639I-0J-945D01*
G01X1944243Y1572584D02*
X1944457D01*
Y1572585D02*
Y1578946D01*
X1944359Y1579366D02*
G03X1944457Y1578946I945J0D01*
G01X1944359Y1579366D02*
Y1582516D01*
X1944700Y1583243D02*
G03X1944359Y1582516I604J-727D01*
G01X1944700Y1583243D02*
Y1583244*
X1942987D01*
X1938311Y1578568*
X1937225Y1578118D02*
G03X1938311Y1578568I0J1536D01*
G01X1937225Y1578118D02*
X1936685D01*
X1936502Y1577882D02*
G03X1936684Y1578118I-647J689D01*
G01X1936502Y1577882D02*
X1936800Y1577193*
G03X1936502Y1577881I-945J-0D01*
G01X1936800Y1577193D02*
Y1576126D01*
Y1576125D02*
X1938283Y1574126D01*
X1938944Y1573565D02*
G03X1938284Y1574126I-1416J-998D01*
G01X1938944Y1573565D02*
X1941136Y1571160*
G03X1938945Y1573565I-655J1604D01*
G01X1941136Y1571160D02*
X1939657Y1569410D01*
X1938484Y1568866D02*
G03X1939657Y1569410I0J1536D01*
G01X1938484Y1568866D02*
X1932213D01*
X1931128Y1569316D02*
G03X1932213Y1568866I1085J1086D01*
G01X1931128Y1569316D02*
X1928765Y1571678D01*
X1928316Y1572764D02*
G03X1928765Y1571678I1535J-0D01*
G01X1928316Y1572764D02*
Y1574521D01*
X1928119Y1575276D02*
G03X1928316Y1574521I1732J47D01*
G01X1928119Y1575276D02*
Y1575277*
X1927584Y1575812D01*
X1927134Y1576898D02*
G03X1927584Y1575812I1536J-0D01*
G01X1927134Y1576898D02*
Y1592843D01*
Y1593827*
X1927584Y1594913D02*
G03X1927134Y1593827I1086J-1086D01*
G01X1927584Y1594913D02*
X1930734Y1598062D01*
X1931805Y1598512D02*
G03X1930734Y1598062I15J-1536D01*
G01X1931805Y1598512D02*
X1932289Y1595274*
G03X1931805Y1598512I318J1702D01*
G01X1932289Y1595274D02*
X1932288Y1595273*
X1930206Y1593191D01*
X1930205Y1593190D02*
Y1592843D01*
Y1577534*
X1930206Y1577533D02*
X1930937Y1576802D01*
X1931256Y1576337D02*
G03X1930937Y1576802I-1405J-620D01*
G01X1931256Y1576337D02*
X1931387Y1574521*
G03X1931256Y1576337I-1536J802D01*
G01X1931387Y1574521D02*
Y1573400D01*
X1932849Y1571937*
X1932850D02*
X1935913D01*
X1935817Y1572296D02*
G03X1935914Y1571938I1711J271D01*
G01X1935817Y1572296D02*
X1934492Y1574082D01*
X1934491Y1574083D02*
X1933690D01*
X1932745Y1575028D02*
G03X1933690Y1574083I945J-0D01*
G01X1932745Y1575028D02*
Y1577193D01*
X1933042Y1577881D02*
G03X1932745Y1577193I648J-688D01*
G01X1933042Y1577881D02*
X1932745Y1578571*
G03X1933042Y1577882I945J-0D01*
G01X1932745Y1578571D02*
Y1580736D01*
X1933153Y1581514D02*
G03X1932745Y1580736I537J-778D01*
G01X1933153Y1581514D02*
X1933154Y1581515*
Y1581524D01*
X1933154*
Y1581532*
X1932745Y1582311D02*
G03X1933153Y1581533I945J0D01*
G01X1932745Y1582311D02*
Y1584476D01*
X1933042Y1585165D02*
G03X1932745Y1584476I648J-689D01*
G01X1933042Y1585165D02*
X1932745Y1585854*
G03X1933042Y1585166I945J0D01*
G01X1932745Y1585854D02*
Y1588020D01*
X1933690Y1588965D02*
G03X1932745Y1588020I-0J-945D01*
G01X1933690Y1588965D02*
X1935855D01*
X1936800Y1588020D02*
G03X1935855Y1588965I-945J-0D01*
G01X1936800Y1588020D02*
Y1585854D01*
X1936502Y1585166D02*
G03X1936800Y1585854I-647J688D01*
G01X1936502Y1585166D02*
X1936800Y1584476*
G03X1936502Y1585165I-945J0D01*
G01X1936800Y1584476D02*
Y1582311D01*
X1936378Y1581524D02*
G03X1936800Y1582311I-523J787D01*
G01X1936378Y1581524D02*
X1936648Y1581249*
G03X1936378Y1581523I-793J-513D01*
G01X1936648Y1581249D02*
X1936649*
X1940815Y1585415D01*
X1940816Y1585416D02*
Y1585567D01*
X1941760Y1586512D02*
G03X1940816Y1585567I0J-945D01*
G01X1941760Y1586512D02*
X1944910D01*
X1945855Y1585567D02*
G03X1944910Y1586512I-945J-0D01*
G01X1945855Y1585567D02*
Y1584189D01*
X1945514Y1583462D02*
G03X1945855Y1584189I-604J727D01*
G01X1945514Y1583462D02*
Y1583461*
X1946682D01*
X1947627Y1582516D02*
G03X1946682Y1583461I-945J-0D01*
G01X1947627Y1582516D02*
Y1579366D01*
X1947528Y1578946D02*
G03X1947627Y1579366I-846J420D01*
G01X1947528Y1578946D02*
Y1572585D01*
X1947529Y1572584D02*
X1947743D01*
X1948688Y1571639D02*
G03X1947743Y1572584I-945J0D01*
G01X1964159Y1574952D02*
X1971325Y1582118D01*
X1964162Y1575857D02*
X1970874Y1582569D01*
X1964162Y1576759D02*
X1970423Y1583020D01*
X1964080Y1577579D02*
X1969972Y1583471D01*
X1964162Y1578563D02*
X1969521Y1583922D01*
X1964162Y1579465D02*
X1969070Y1584373D01*
X1964162Y1580367D02*
X1968619Y1584824D01*
X1964059Y1581166D02*
X1968168Y1585275D01*
X1964162Y1582171D02*
X1967735Y1585744D01*
X1964162Y1583073D02*
X1967480Y1586391D01*
X1964162Y1583975D02*
X1967135Y1586948D01*
X1964036Y1584751D02*
X1966684Y1587399D01*
X1964162Y1585779D02*
X1966233Y1587850D01*
X1964162Y1586681D02*
X1965782Y1588301D01*
X1964162Y1587583D02*
X1965331Y1588752D01*
X1964012Y1588334D02*
X1964880Y1589203D01*
X1964162Y1589387D02*
X1964429Y1589654D01*
X1983323Y1570665D02*
X1984126Y1571468D01*
X1981420Y1569664D02*
X1983796Y1572040D01*
X1979655Y1568801D02*
X1983467Y1572612D01*
X1977997Y1568044D02*
X1983137Y1573185D01*
X1976425Y1567375D02*
X1982808Y1573757D01*
X1974926Y1566778D02*
X1982478Y1574330D01*
X1973489Y1566243D02*
X1982148Y1574902D01*
X1972105Y1565760D02*
X1981819Y1575475D01*
X1970767Y1565325D02*
X1981489Y1576047D01*
X1969472Y1564931D02*
X1981160Y1576619D01*
X1968213Y1564575D02*
X1980830Y1577192D01*
X1966988Y1564252D02*
X1980501Y1577764D01*
X1965794Y1563960D02*
X1980171Y1578337D01*
X1964629Y1563696D02*
X1979842Y1578909D01*
X1963489Y1563458D02*
X1979512Y1579482D01*
X1962373Y1563244D02*
X1979183Y1580054D01*
X1961279Y1563053D02*
X1978853Y1580626D01*
X1960207Y1562882D02*
X1978523Y1581199D01*
X1959154Y1562731D02*
X1978194Y1581771D01*
X1963667Y1568147D02*
X1977864Y1582344D01*
X1963670Y1569051D02*
X1977535Y1582916D01*
X1974868Y1581151D02*
X1977205Y1583489D01*
X1975109Y1582294D02*
X1976876Y1584061D01*
X1974837Y1582924D02*
X1976546Y1584633D01*
X1974398Y1583388D02*
X1976217Y1585206D01*
X1973947Y1583839D02*
X1975887Y1585778D01*
X1973496Y1584290D02*
X1975557Y1586351D01*
X1973045Y1584741D02*
X1975228Y1586923D01*
X1972594Y1585192D02*
X1974898Y1587496D01*
X1972143Y1585643D02*
X1974569Y1588068D01*
X1971692Y1586094D02*
X1974239Y1588640D01*
X1971241Y1586545D02*
X1973910Y1589213D01*
X1970790Y1586996D02*
X1973580Y1589785D01*
X1970494Y1587601D02*
X1973251Y1590358D01*
X1970201Y1588210D02*
X1972921Y1590930D01*
X1969757Y1588668D02*
X1972592Y1591503D01*
X1969306Y1589119D02*
X1972262Y1592075D01*
X1968855Y1589570D02*
X1971932Y1592647D01*
X1968404Y1590021D02*
X1971603Y1593220D01*
X1967953Y1590472D02*
X1971273Y1593792D01*
X1967502Y1590923D02*
X1970944Y1594365D01*
X1967051Y1591374D02*
X1970614Y1594937D01*
X1966600Y1591825D02*
X1970285Y1595510D01*
X1966149Y1592276D02*
X1969955Y1596082D01*
X1965698Y1592727D02*
X1969626Y1596654D01*
X1965247Y1593178D02*
X1969296Y1597227D01*
X1964796Y1593629D02*
X1968966Y1597799D01*
X1964345Y1594080D02*
X1968637Y1598372D01*
X1963894Y1594531D02*
X1968307Y1598944D01*
X1963443Y1594982D02*
X1967962Y1599500D01*
X1962992Y1595433D02*
X1967573Y1600013D01*
X1962541Y1595884D02*
X1967143Y1600485D01*
X1962090Y1596335D02*
X1966672Y1600917D01*
X1961639Y1596786D02*
X1966161Y1601307D01*
X1961188Y1597237D02*
X1965607Y1601655D01*
X1960737Y1597688D02*
X1965007Y1601958D01*
X1963670Y1569953D02*
X1964767Y1571051D01*
X1960284Y1598136D02*
X1964358Y1602210D01*
X1959698Y1598453D02*
X1963652Y1602406D01*
X1958855Y1598512D02*
X1962878Y1602534D01*
X1957953Y1598512D02*
X1962017Y1602575D01*
X1957398Y1598859D02*
X1961034Y1602494D01*
X1957715Y1567606D02*
X1960599Y1570490D01*
X1958617Y1567606D02*
X1960599Y1569588D01*
X1956813Y1567606D02*
X1960228Y1571021D01*
X1959898Y1574299D02*
X1960206Y1574607D01*
X1959420Y1584645D02*
X1960150Y1585375D01*
X1959871Y1584194D02*
X1960121Y1584444D01*
X1953633Y1571642D02*
X1960107Y1578116D01*
X1957389Y1574496D02*
X1960107Y1577214D01*
X1958133Y1574338D02*
X1960107Y1576312D01*
X1958996Y1574299D02*
X1960107Y1575410D01*
X1952731Y1571642D02*
X1960105Y1579016D01*
X1958120Y1562599D02*
X1960059Y1564538D01*
X1958969Y1585096D02*
X1960041Y1586168D01*
X1956999Y1599362D02*
X1959842Y1602204D01*
X1947949Y1567762D02*
X1959654Y1579467D01*
X1958644Y1585673D02*
X1959590Y1586618D01*
X1955911Y1567606D02*
X1959533Y1571228D01*
X1948688Y1569403D02*
X1959203Y1579918D01*
X1957103Y1562484D02*
X1959154Y1564535D01*
X1958338Y1586269D02*
X1959139Y1587069D01*
X1948688Y1570305D02*
X1958752Y1580369D01*
X1957679Y1586512D02*
X1958688Y1587520D01*
X1955224Y1567821D02*
X1958631Y1571228D01*
X1956548Y1599813D02*
X1958543Y1601807D01*
X1948688Y1571207D02*
X1958301Y1580820D01*
X1956102Y1562385D02*
X1958252Y1564535D01*
X1956777Y1586512D02*
X1958237Y1587971D01*
X1948605Y1572026D02*
X1957879Y1581299D01*
X1955875Y1586512D02*
X1957786Y1588422D01*
X1955107Y1579430D02*
X1957652Y1581975D01*
X1955501Y1569000D02*
X1957537Y1571036D01*
X1955117Y1562303D02*
X1957350Y1564535D01*
X1954973Y1586512D02*
X1957335Y1588873D01*
X1956009Y1600175D02*
X1957321Y1601487D01*
X1955107Y1580332D02*
X1957249Y1582474D01*
X1947627Y1580067D02*
X1956884Y1589324D01*
X1955107Y1581234D02*
X1956798Y1582925D01*
X1955501Y1569902D02*
X1956758Y1571159D01*
X1954147Y1562235D02*
X1956448Y1564535D01*
X1947627Y1580969D02*
X1956433Y1589775D01*
X1955107Y1582136D02*
X1956215Y1583244D01*
X1955495Y1570798D02*
X1956211Y1571514D01*
X1955215Y1600283D02*
X1956162Y1601230D01*
X1947627Y1581871D02*
X1955982Y1590226D01*
X1955191Y1571396D02*
X1955836Y1572041D01*
X1954535Y1571642D02*
X1955678Y1572785D01*
X1953192Y1562181D02*
X1955546Y1564535D01*
X1955007Y1582938D02*
X1955313Y1583244D01*
X1947598Y1582745D02*
X1955184Y1590331D01*
X1954313Y1600283D02*
X1955055Y1601026D01*
X1947234Y1583283D02*
X1954314Y1590362D01*
X1952250Y1562141D02*
X1954152Y1564043D01*
X1948163Y1572486D02*
X1954098Y1578421D01*
X1953411Y1600283D02*
X1953994Y1600867D01*
X1953726Y1583461D02*
X1953839Y1583574D01*
X1946510Y1583461D02*
X1953782Y1590733D01*
X1945855Y1584610D02*
X1953611Y1592365D01*
X1945608Y1583461D02*
X1953611Y1591463D01*
X1947599Y1579137D02*
X1953611Y1585150D01*
X1952824Y1583461D02*
X1953611Y1584248D01*
X1951320Y1562114D02*
X1953250Y1564043D01*
X1947528Y1572753D02*
X1953196Y1578421D01*
X1952509Y1600283D02*
X1952973Y1600747D01*
X1947528Y1573655D02*
X1952384Y1578510D01*
X1950404Y1562099D02*
X1952349Y1564044D01*
X1951607Y1600283D02*
X1951986Y1600663D01*
X1947528Y1574557D02*
X1951931Y1578960D01*
X1947528Y1578165D02*
X1951839Y1582476D01*
X1947528Y1577263D02*
X1951839Y1581574D01*
X1947528Y1576361D02*
X1951839Y1580672D01*
X1947528Y1575459D02*
X1951839Y1579770D01*
X1949499Y1562096D02*
X1951723Y1564320D01*
X1951401Y1567606D02*
X1951691Y1567896D01*
X1945855Y1585511D02*
X1951460Y1591117D01*
X1948695Y1567606D02*
X1951446Y1570357D01*
X1949597Y1567606D02*
X1951446Y1569455D01*
X1950499Y1567606D02*
X1951446Y1568553D01*
X1948606Y1562105D02*
X1951036Y1564535D01*
X1950705Y1600283D02*
X1951032Y1600610D01*
X1945626Y1586184D02*
X1950672Y1591231D01*
X1947723Y1562124D02*
X1950134Y1564535D01*
X1945042Y1586503D02*
X1950121Y1591581D01*
X1949803Y1600283D02*
X1950105Y1600585D01*
X1944149Y1586512D02*
X1949741Y1592103D01*
X1943247Y1586512D02*
X1949575Y1592840D01*
X1946852Y1562155D02*
X1949232Y1564535D01*
X1948901Y1600283D02*
X1949205Y1600587D01*
X1942345Y1586512D02*
X1948519Y1592685D01*
X1947999Y1600283D02*
X1948328Y1600613D01*
X1945719Y1590788D02*
X1947792Y1592860D01*
X1947069Y1567784D02*
X1947580Y1568294D01*
X1947097Y1600283D02*
X1947474Y1600660D01*
X1945990Y1562196D02*
X1947289Y1563494D01*
X1945855Y1591825D02*
X1947276Y1593246D01*
X1946167Y1567784D02*
X1946678Y1568294D01*
X1946195Y1600283D02*
X1946641Y1600729D01*
X1945852Y1592725D02*
X1946510Y1593382D01*
X1945139Y1562246D02*
X1946387Y1563494D01*
X1945293Y1600283D02*
X1945827Y1600817D01*
X1945265Y1567784D02*
X1945776Y1568294D01*
X1945563Y1593337D02*
X1945608Y1593382D01*
X1944298Y1562307D02*
X1945485Y1563494D01*
X1941349Y1586418D02*
X1945398Y1590466D01*
X1944372Y1600264D02*
X1945031Y1600923D01*
X1944363Y1567784D02*
X1944874Y1568294D01*
X1943465Y1562376D02*
X1944583Y1563494D01*
X1937043Y1575798D02*
X1944490Y1583244D01*
X1940234Y1574478D02*
X1944457Y1578702D01*
X1941055Y1574398D02*
X1944457Y1577800D01*
X1941624Y1574065D02*
X1944457Y1576898D01*
X1942020Y1573559D02*
X1944457Y1575996D01*
X1942211Y1572848D02*
X1944457Y1575094D01*
X1934121Y1563856D02*
X1944457Y1574192D01*
X1934859Y1563691D02*
X1944457Y1573290D01*
X1936800Y1582770D02*
X1944360Y1590331D01*
X1937427Y1575280D02*
X1944359Y1582211D01*
X1937811Y1574762D02*
X1944359Y1581309D01*
X1938196Y1574244D02*
X1944359Y1580407D01*
X1938698Y1573845D02*
X1944359Y1579505D01*
X1936403Y1593197D02*
X1944252Y1601046D01*
X1943590Y1567913D02*
X1944003Y1568325D01*
X1942642Y1562455D02*
X1943795Y1563608D01*
X1936800Y1576456D02*
X1943588Y1583244D01*
X1935501Y1593197D02*
X1943490Y1601186D01*
X1943403Y1568628D02*
X1943470Y1568695D01*
X1936800Y1583672D02*
X1943458Y1590331D01*
X1941828Y1562543D02*
X1943368Y1564083D01*
X1941629Y1569559D02*
X1943298Y1571229D01*
X1942444Y1569473D02*
X1943298Y1570327D01*
X1943010Y1569137D02*
X1943298Y1569425D01*
X1934599Y1593197D02*
X1942743Y1601341D01*
X1941022Y1562639D02*
X1942683Y1564300D01*
X1936795Y1584570D02*
X1942556Y1590331D01*
X1940224Y1562743D02*
X1942191Y1564710D01*
X1933871Y1593371D02*
X1942011Y1601511D01*
X1939435Y1562856D02*
X1941740Y1565161D01*
X1936610Y1585286D02*
X1941654Y1590331D01*
X1932801Y1593203D02*
X1941293Y1601695D01*
X1938654Y1562976D02*
X1941289Y1565612D01*
X1936423Y1581491D02*
X1940910Y1585978D01*
X1937880Y1563105D02*
X1940838Y1566063D01*
X1930205Y1591509D02*
X1940589Y1601893D01*
X1937114Y1563241D02*
X1940458Y1566585D01*
X1936800Y1586378D02*
X1940362Y1589940D01*
X1936355Y1563384D02*
X1940228Y1567257D01*
X1935603Y1563534D02*
X1940142Y1568073D01*
X1934263Y1596469D02*
X1939898Y1602104D01*
X1936800Y1587280D02*
X1939449Y1589929D01*
X1934288Y1597396D02*
X1939220Y1602328D01*
X1933998Y1598008D02*
X1938554Y1602563D01*
X1936788Y1588170D02*
X1938547Y1589929D01*
X1933390Y1564027D02*
X1938229Y1568866D01*
X1933530Y1598442D02*
X1937899Y1602811D01*
X1936461Y1588745D02*
X1937645Y1589929D01*
X1936787Y1577346D02*
X1937608Y1578167D01*
X1937266Y1593158D02*
X1937568Y1593460D01*
X1932666Y1564204D02*
X1937327Y1568866D01*
X1932874Y1598688D02*
X1937257Y1603070D01*
X1935778Y1588965D02*
X1936781Y1589967D01*
X1931796Y1598512D02*
X1936625Y1603341D01*
X1931948Y1564389D02*
X1936425Y1568866D01*
X1934876Y1588965D02*
X1936038Y1590126D01*
X1922532Y1590150D02*
X1936005Y1603622D01*
X1935888Y1571937D02*
X1935907Y1571956D01*
X1934986Y1571937D02*
X1935616Y1572567D01*
X1931237Y1564579D02*
X1935523Y1568866D01*
X1921977Y1590497D02*
X1935395Y1603915D01*
X1934085Y1571937D02*
X1935232Y1573085D01*
X1933975Y1588965D02*
X1935136Y1590126D01*
X1933183Y1571937D02*
X1934848Y1573602D01*
X1930531Y1564776D02*
X1934622Y1568866D01*
X1932565Y1572221D02*
X1934426Y1574083D01*
X1930205Y1586097D02*
X1934120Y1590012D01*
X1929832Y1564979D02*
X1933720Y1568866D01*
X1921422Y1590844D02*
X1933712Y1603134D01*
X1932114Y1572672D02*
X1933537Y1574095D01*
X1930205Y1586999D02*
X1933184Y1589978D01*
X1930205Y1592411D02*
X1933114Y1595320D01*
X1930205Y1578882D02*
X1932995Y1581671D01*
X1930205Y1582490D02*
X1932964Y1585249D01*
X1931663Y1573123D02*
X1932963Y1574423D01*
X1931261Y1576329D02*
X1932935Y1578003D01*
X1929139Y1565188D02*
X1932818Y1568866D01*
X1930205Y1585195D02*
X1932745Y1587735D01*
X1930205Y1584293D02*
X1932745Y1586833D01*
X1930205Y1583392D02*
X1932745Y1585931D01*
X1930205Y1581588D02*
X1932745Y1584127D01*
X1930205Y1580686D02*
X1932745Y1583225D01*
X1930205Y1579784D02*
X1932745Y1582323D01*
X1930205Y1577980D02*
X1932745Y1580519D01*
X1930433Y1577306D02*
X1932745Y1579617D01*
X1930884Y1576855D02*
X1932745Y1578715D01*
X1931540Y1575707D02*
X1932745Y1576911D01*
X1931486Y1574750D02*
X1932745Y1576009D01*
X1931387Y1573749D02*
X1932745Y1575107D01*
X1930205Y1587901D02*
X1932568Y1590264D01*
X1930205Y1588803D02*
X1932131Y1590729D01*
X1930205Y1590607D02*
X1932050Y1592451D01*
X1928452Y1565403D02*
X1931940Y1568891D01*
X1920867Y1591191D02*
X1931934Y1602257D01*
X1930205Y1589705D02*
X1931882Y1591382D01*
X1927771Y1565624D02*
X1931308Y1569161D01*
X1927096Y1565850D02*
X1930844Y1569599D01*
X1920312Y1591537D02*
X1930652Y1601878D01*
X1926426Y1566083D02*
X1930393Y1570050D01*
X1925762Y1566320D02*
X1929942Y1570501D01*
X1919757Y1591884D02*
X1929573Y1601700D01*
X1925103Y1566564D02*
X1929491Y1570952D01*
X1924450Y1566813D02*
X1929040Y1571403D01*
X1919121Y1592150D02*
X1928615Y1601645D01*
X1923802Y1567067D02*
X1928604Y1571868D01*
X1923160Y1567326D02*
X1928338Y1572504D01*
X1921890Y1567861D02*
X1928316Y1574286D01*
X1922522Y1567591D02*
X1928316Y1573384D01*
X1921263Y1568136D02*
X1928146Y1575018D01*
X1920641Y1568416D02*
X1927811Y1575585D01*
X1908567Y1582499D02*
X1927744Y1601676D01*
X1920024Y1568700D02*
X1927383Y1576060D01*
X1919412Y1568990D02*
X1927144Y1576723D01*
X1923087Y1589803D02*
X1927135Y1593850D01*
X1923642Y1589456D02*
X1927134Y1592948D01*
X1924198Y1589109D02*
X1927134Y1592046D01*
X1924753Y1588763D02*
X1927134Y1591144D01*
X1925308Y1588416D02*
X1927134Y1590242D01*
X1925863Y1588069D02*
X1927134Y1589340D01*
X1926331Y1587634D02*
X1927134Y1588438D01*
X1926338Y1586740D02*
X1927134Y1587536D01*
X1924844Y1584344D02*
X1927134Y1586634D01*
X1923341Y1581939D02*
X1927134Y1585732D01*
X1921839Y1579535D02*
X1927134Y1584830D01*
X1920336Y1577130D02*
X1927134Y1583929D01*
X1918834Y1574726D02*
X1927134Y1583027D01*
X1915841Y1570831D02*
X1927134Y1582125D01*
X1916424Y1570512D02*
X1927134Y1581223D01*
X1917012Y1570198D02*
X1927134Y1580321D01*
X1917605Y1569889D02*
X1927134Y1579419D01*
X1918203Y1569585D02*
X1927134Y1578517D01*
X1918805Y1569285D02*
X1927134Y1577615D01*
X1913313Y1588146D02*
X1926940Y1601774D01*
X1918058Y1593794D02*
X1926192Y1601928D01*
X1922804Y1599441D02*
X1925491Y1602128D01*
X1905103Y1578133D02*
X1917551Y1590580D01*
X1915262Y1571154D02*
X1916801Y1572693D01*
X1914688Y1571482D02*
X1916211Y1573005D01*
X1905600Y1577727D02*
X1916048Y1588176D01*
X1914118Y1571814D02*
X1915656Y1573352D01*
X1913553Y1572151D02*
X1915101Y1573699D01*
X1906100Y1577326D02*
X1914546Y1585771D01*
X1912992Y1572492D02*
X1914545Y1574045D01*
X1912436Y1572838D02*
X1913990Y1574392D01*
X1911884Y1573188D02*
X1913435Y1574739D01*
X1906605Y1576928D02*
X1913043Y1583367D01*
X1911337Y1573543D02*
X1912880Y1575086D01*
X1910794Y1573902D02*
X1912325Y1575433D01*
X1910255Y1574265D02*
X1911770Y1575780D01*
X1907113Y1576535D02*
X1911541Y1580962D01*
X1909721Y1574633D02*
X1911215Y1576127D01*
X1909191Y1575005D02*
X1910660Y1576474D01*
X1908665Y1575381D02*
X1910105Y1576820D01*
X1907626Y1576146D02*
X1910038Y1578558D01*
X1908144Y1575761D02*
X1909692Y1577310D01*
G54D27*
X1917017Y1573638D02*
X1925475Y1587174D01*
X1919063Y1591180*
X1910605Y1577645*
X1917017Y1573638*
X1917017D02*
X1917017D01*
X1916954Y1573678D02*
X1917042D01*
X1916891Y1573717D02*
X1917066D01*
X1916828Y1573757D02*
X1917091D01*
X1916765Y1573796D02*
X1917115D01*
X1916702Y1573835D02*
X1917140D01*
X1916639Y1573875D02*
X1917165D01*
X1916576Y1573914D02*
X1917189D01*
X1916513Y1573953D02*
X1917214D01*
X1916450Y1573993D02*
X1917238D01*
X1916387Y1574032D02*
X1917263D01*
X1916324Y1574072D02*
X1917288D01*
X1916261Y1574111D02*
X1917312D01*
X1916198Y1574150D02*
X1917337D01*
X1916135Y1574190D02*
X1917361D01*
X1916072Y1574229D02*
X1917386D01*
X1916009Y1574268D02*
X1917411D01*
X1915946Y1574308D02*
X1917435D01*
X1915883Y1574347D02*
X1917460D01*
X1915820Y1574387D02*
X1917484D01*
X1915757Y1574426D02*
X1917509D01*
X1915694Y1574465D02*
X1917534D01*
X1915631Y1574505D02*
X1917558D01*
X1915568Y1574544D02*
X1917583D01*
X1915505Y1574583D02*
X1917607D01*
X1915442Y1574623D02*
X1917632D01*
X1915379Y1574662D02*
X1917657D01*
X1915316Y1574701D02*
X1917681D01*
X1915253Y1574741D02*
X1917706D01*
X1915190Y1574780D02*
X1917730D01*
X1915127Y1574820D02*
X1917755D01*
X1915064Y1574859D02*
X1917780D01*
X1915001Y1574898D02*
X1917804D01*
X1914938Y1574938D02*
X1917829D01*
X1914875Y1574977D02*
X1917853D01*
X1914812Y1575016D02*
X1917878D01*
X1914749Y1575056D02*
X1917903D01*
X1914686Y1575095D02*
X1917927D01*
X1914623Y1575135D02*
X1917952D01*
X1914560Y1575174D02*
X1917976D01*
X1914497Y1575213D02*
X1918001D01*
X1914434Y1575253D02*
X1918026D01*
X1914371Y1575292D02*
X1918050D01*
X1914308Y1575331D02*
X1918075D01*
X1914245Y1575371D02*
X1918099D01*
X1914182Y1575410D02*
X1918124D01*
X1914119Y1575450D02*
X1918149D01*
X1914056Y1575489D02*
X1918173D01*
X1913993Y1575528D02*
X1918198D01*
X1913930Y1575568D02*
X1918222D01*
X1913867Y1575607D02*
X1918247D01*
X1913804Y1575646D02*
X1918272D01*
X1913741Y1575686D02*
X1918296D01*
X1913678Y1575725D02*
X1918321D01*
X1913615Y1575764D02*
X1918345D01*
X1913552Y1575804D02*
X1918370D01*
X1913489Y1575843D02*
X1918395D01*
X1913426Y1575883D02*
X1918419D01*
X1913363Y1575922D02*
X1918444D01*
X1913300Y1575961D02*
X1918468D01*
X1913237Y1576001D02*
X1918493D01*
X1913174Y1576040D02*
X1918518D01*
X1913111Y1576079D02*
X1918542D01*
X1913048Y1576119D02*
X1918567D01*
X1912985Y1576158D02*
X1918591D01*
X1912922Y1576198D02*
X1918616D01*
X1912859Y1576237D02*
X1918641D01*
X1912796Y1576276D02*
X1918665D01*
X1912733Y1576316D02*
X1918690D01*
X1912670Y1576355D02*
X1918714D01*
X1912607Y1576394D02*
X1918739D01*
X1912544Y1576434D02*
X1918764D01*
X1912481Y1576473D02*
X1918788D01*
X1912418Y1576513D02*
X1918813D01*
X1912355Y1576552D02*
X1918837D01*
X1912292Y1576591D02*
X1918862D01*
X1912229Y1576631D02*
X1918887D01*
X1912166Y1576670D02*
X1918911D01*
X1912103Y1576709D02*
X1918936D01*
X1912040Y1576749D02*
X1918960D01*
X1911977Y1576788D02*
X1918985D01*
X1911914Y1576827D02*
X1919010D01*
X1911851Y1576867D02*
X1919034D01*
X1911788Y1576906D02*
X1919059D01*
X1911725Y1576946D02*
X1919083D01*
X1911662Y1576985D02*
X1919108D01*
X1911599Y1577024D02*
X1919133D01*
X1911536Y1577064D02*
X1919157D01*
X1911473Y1577103D02*
X1919182D01*
X1911410Y1577142D02*
X1919206D01*
X1911347Y1577182D02*
X1919231D01*
X1911284Y1577221D02*
X1919256D01*
X1911220Y1577261D02*
X1919280D01*
X1911157Y1577300D02*
X1919305D01*
X1911094Y1577339D02*
X1919330D01*
X1911031Y1577379D02*
X1919354D01*
X1910968Y1577418D02*
X1919379D01*
X1910905Y1577457D02*
X1919403D01*
X1910842Y1577497D02*
X1919428D01*
X1910779Y1577536D02*
X1919453D01*
X1910716Y1577576D02*
X1919477D01*
X1910653Y1577615D02*
X1919502D01*
X1910611Y1577654D02*
X1919526D01*
X1910636Y1577694D02*
X1919551D01*
X1910660Y1577733D02*
X1919576D01*
X1910685Y1577772D02*
X1919600D01*
X1910709Y1577812D02*
X1919625D01*
X1910734Y1577851D02*
X1919649D01*
X1910759Y1577890D02*
X1919674D01*
X1910783Y1577930D02*
X1919699D01*
X1910808Y1577969D02*
X1919723D01*
X1910832Y1578009D02*
X1919748D01*
X1910857Y1578048D02*
X1919772D01*
X1910882Y1578087D02*
X1919797D01*
X1910906Y1578127D02*
X1919822D01*
X1910931Y1578166D02*
X1919846D01*
X1910955Y1578205D02*
X1919871D01*
X1910980Y1578245D02*
X1919895D01*
X1911005Y1578284D02*
X1919920D01*
X1911029Y1578324D02*
X1919945D01*
X1911054Y1578363D02*
X1919969D01*
X1911078Y1578402D02*
X1919994D01*
X1911103Y1578442D02*
X1920018D01*
X1911128Y1578481D02*
X1920043D01*
X1911152Y1578520D02*
X1920068D01*
X1911177Y1578560D02*
X1920092D01*
X1911201Y1578599D02*
X1920117D01*
X1911226Y1578638D02*
X1920141D01*
X1911251Y1578678D02*
X1920166D01*
X1911275Y1578717D02*
X1920191D01*
X1911300Y1578757D02*
X1920215D01*
X1911324Y1578796D02*
X1920240D01*
X1911349Y1578835D02*
X1920264D01*
X1911374Y1578875D02*
X1920289D01*
X1911398Y1578914D02*
X1920314D01*
X1911423Y1578953D02*
X1920338D01*
X1911447Y1578993D02*
X1920363D01*
X1911472Y1579032D02*
X1920387D01*
X1911497Y1579072D02*
X1920412D01*
X1911521Y1579111D02*
X1920437D01*
X1911546Y1579150D02*
X1920461D01*
X1911570Y1579190D02*
X1920486D01*
X1911595Y1579229D02*
X1920510D01*
X1911620Y1579268D02*
X1920535D01*
X1911644Y1579308D02*
X1920560D01*
X1911669Y1579347D02*
X1920584D01*
X1911693Y1579387D02*
X1920609D01*
X1911718Y1579426D02*
X1920633D01*
X1911743Y1579465D02*
X1920658D01*
X1911767Y1579505D02*
X1920683D01*
X1911792Y1579544D02*
X1920707D01*
X1911816Y1579583D02*
X1920732D01*
X1911841Y1579623D02*
X1920756D01*
X1911866Y1579662D02*
X1920781D01*
X1911890Y1579701D02*
X1920806D01*
X1911915Y1579741D02*
X1920830D01*
X1911939Y1579780D02*
X1920855D01*
X1911964Y1579820D02*
X1920879D01*
X1911989Y1579859D02*
X1920904D01*
X1912013Y1579898D02*
X1920929D01*
X1912038Y1579938D02*
X1920953D01*
X1912062Y1579977D02*
X1920978D01*
X1912087Y1580016D02*
X1921002D01*
X1912112Y1580056D02*
X1921027D01*
X1912136Y1580095D02*
X1921052D01*
X1912161Y1580135D02*
X1921076D01*
X1912185Y1580174D02*
X1921101D01*
X1912210Y1580213D02*
X1921125D01*
X1912235Y1580253D02*
X1921150D01*
X1912259Y1580292D02*
X1921175D01*
X1912284Y1580331D02*
X1921199D01*
X1912308Y1580371D02*
X1921224D01*
X1912333Y1580410D02*
X1921248D01*
X1912358Y1580450D02*
X1921273D01*
X1912382Y1580489D02*
X1921298D01*
X1912407Y1580528D02*
X1921322D01*
X1912431Y1580568D02*
X1921347D01*
X1912456Y1580607D02*
X1921371D01*
X1912481Y1580646D02*
X1921396D01*
X1912505Y1580686D02*
X1921421D01*
X1912530Y1580725D02*
X1921445D01*
X1912554Y1580764D02*
X1921470D01*
X1912579Y1580804D02*
X1921494D01*
X1912604Y1580843D02*
X1921519D01*
X1912628Y1580883D02*
X1921544D01*
X1912653Y1580922D02*
X1921568D01*
X1912677Y1580961D02*
X1921593D01*
X1912702Y1581001D02*
X1921617D01*
X1912727Y1581040D02*
X1921642D01*
X1912751Y1581079D02*
X1921667D01*
X1912776Y1581119D02*
X1921691D01*
X1912800Y1581158D02*
X1921716D01*
X1912825Y1581198D02*
X1921740D01*
X1912850Y1581237D02*
X1921765D01*
X1912874Y1581276D02*
X1921790D01*
X1912899Y1581316D02*
X1921814D01*
X1912923Y1581355D02*
X1921839D01*
X1912948Y1581394D02*
X1921863D01*
X1912973Y1581434D02*
X1921888D01*
X1912997Y1581473D02*
X1921913D01*
X1913022Y1581513D02*
X1921937D01*
X1913046Y1581552D02*
X1921962D01*
X1913071Y1581591D02*
X1921986D01*
X1913096Y1581631D02*
X1922011D01*
X1913120Y1581670D02*
X1922036D01*
X1913145Y1581709D02*
X1922060D01*
X1913170Y1581749D02*
X1922085D01*
X1913194Y1581788D02*
X1922109D01*
X1913219Y1581827D02*
X1922134D01*
X1913243Y1581867D02*
X1922159D01*
X1913268Y1581906D02*
X1922183D01*
X1913293Y1581946D02*
X1922208D01*
X1913317Y1581985D02*
X1922232D01*
X1913342Y1582024D02*
X1922257D01*
X1913366Y1582064D02*
X1922282D01*
X1913391Y1582103D02*
X1922306D01*
X1913416Y1582142D02*
X1922331D01*
X1913440Y1582182D02*
X1922355D01*
X1913465Y1582221D02*
X1922380D01*
X1913489Y1582261D02*
X1922405D01*
X1913514Y1582300D02*
X1922429D01*
X1913539Y1582339D02*
X1922454D01*
X1913563Y1582379D02*
X1922478D01*
X1913588Y1582418D02*
X1922503D01*
X1913612Y1582457D02*
X1922528D01*
X1913637Y1582497D02*
X1922552D01*
X1913662Y1582536D02*
X1922577D01*
X1913686Y1582576D02*
X1922601D01*
X1913711Y1582615D02*
X1922626D01*
X1913735Y1582654D02*
X1922651D01*
X1913760Y1582694D02*
X1922675D01*
X1913785Y1582733D02*
X1922700D01*
X1913809Y1582772D02*
X1922724D01*
X1913834Y1582812D02*
X1922749D01*
X1913858Y1582851D02*
X1922774D01*
X1913883Y1582890D02*
X1922798D01*
X1913908Y1582930D02*
X1922823D01*
X1913932Y1582969D02*
X1922847D01*
X1913957Y1583009D02*
X1922872D01*
X1913981Y1583048D02*
X1922897D01*
X1914006Y1583087D02*
X1922921D01*
X1914031Y1583127D02*
X1922946D01*
X1914055Y1583166D02*
X1922970D01*
X1914080Y1583205D02*
X1922995D01*
X1914104Y1583245D02*
X1923020D01*
X1914129Y1583284D02*
X1923044D01*
X1914154Y1583324D02*
X1923069D01*
X1914178Y1583363D02*
X1923093D01*
X1914203Y1583402D02*
X1923118D01*
X1914227Y1583442D02*
X1923143D01*
X1914252Y1583481D02*
X1923167D01*
X1914277Y1583520D02*
X1923192D01*
X1914301Y1583560D02*
X1923216D01*
X1914326Y1583599D02*
X1923241D01*
X1914350Y1583638D02*
X1923266D01*
X1914375Y1583678D02*
X1923290D01*
X1914400Y1583717D02*
X1923315D01*
X1914424Y1583757D02*
X1923339D01*
X1914449Y1583796D02*
X1923364D01*
X1914473Y1583835D02*
X1923389D01*
X1914498Y1583875D02*
X1923413D01*
X1914523Y1583914D02*
X1923438D01*
X1914547Y1583953D02*
X1923462D01*
X1914572Y1583993D02*
X1923487D01*
X1914596Y1584032D02*
X1923512D01*
X1914621Y1584072D02*
X1923536D01*
X1914646Y1584111D02*
X1923561D01*
X1914670Y1584150D02*
X1923586D01*
X1914695Y1584190D02*
X1923610D01*
X1914719Y1584229D02*
X1923635D01*
X1914744Y1584268D02*
X1923659D01*
X1914769Y1584308D02*
X1923684D01*
X1914793Y1584347D02*
X1923709D01*
X1914818Y1584387D02*
X1923733D01*
X1914842Y1584426D02*
X1923758D01*
X1914867Y1584465D02*
X1923782D01*
X1914892Y1584505D02*
X1923807D01*
X1914916Y1584544D02*
X1923832D01*
X1914941Y1584583D02*
X1923856D01*
X1914965Y1584623D02*
X1923881D01*
X1914990Y1584662D02*
X1923905D01*
X1915015Y1584701D02*
X1923930D01*
X1915039Y1584741D02*
X1923955D01*
X1915064Y1584780D02*
X1923979D01*
X1915088Y1584820D02*
X1924004D01*
X1915113Y1584859D02*
X1924028D01*
X1915138Y1584898D02*
X1924053D01*
X1915162Y1584938D02*
X1924078D01*
X1915187Y1584977D02*
X1924102D01*
X1915211Y1585016D02*
X1924127D01*
X1915236Y1585056D02*
X1924151D01*
X1915261Y1585095D02*
X1924176D01*
X1915285Y1585135D02*
X1924201D01*
X1915310Y1585174D02*
X1924225D01*
X1915334Y1585213D02*
X1924250D01*
X1915359Y1585253D02*
X1924274D01*
X1915384Y1585292D02*
X1924299D01*
X1915408Y1585331D02*
X1924324D01*
X1915433Y1585371D02*
X1924348D01*
X1915457Y1585410D02*
X1924373D01*
X1915482Y1585450D02*
X1924397D01*
X1915507Y1585489D02*
X1924422D01*
X1915531Y1585528D02*
X1924447D01*
X1915556Y1585568D02*
X1924471D01*
X1915580Y1585607D02*
X1924496D01*
X1915605Y1585646D02*
X1924520D01*
X1915630Y1585686D02*
X1924545D01*
X1915654Y1585725D02*
X1924570D01*
X1915679Y1585764D02*
X1924594D01*
X1915703Y1585804D02*
X1924619D01*
X1915728Y1585843D02*
X1924643D01*
X1915753Y1585883D02*
X1924668D01*
X1915777Y1585922D02*
X1924693D01*
X1915802Y1585961D02*
X1924717D01*
X1915826Y1586001D02*
X1924742D01*
X1915851Y1586040D02*
X1924766D01*
X1915876Y1586079D02*
X1924791D01*
X1915900Y1586119D02*
X1924816D01*
X1915925Y1586158D02*
X1924840D01*
X1915949Y1586198D02*
X1924865D01*
X1915974Y1586237D02*
X1924889D01*
X1915999Y1586276D02*
X1924914D01*
X1916023Y1586316D02*
X1924939D01*
X1916048Y1586355D02*
X1924963D01*
X1916072Y1586394D02*
X1924988D01*
X1916097Y1586434D02*
X1925012D01*
X1916122Y1586473D02*
X1925037D01*
X1916146Y1586513D02*
X1925062D01*
X1916171Y1586552D02*
X1925086D01*
X1916195Y1586591D02*
X1925111D01*
X1916220Y1586631D02*
X1925135D01*
X1916245Y1586670D02*
X1925160D01*
X1916269Y1586709D02*
X1925185D01*
X1916294Y1586749D02*
X1925209D01*
X1916318Y1586788D02*
X1925234D01*
X1916343Y1586827D02*
X1925258D01*
X1916368Y1586867D02*
X1925283D01*
X1916392Y1586906D02*
X1925308D01*
X1916417Y1586946D02*
X1925332D01*
X1916441Y1586985D02*
X1925357D01*
X1916466Y1587024D02*
X1925381D01*
X1916491Y1587064D02*
X1925406D01*
X1916515Y1587103D02*
X1925431D01*
X1916540Y1587142D02*
X1925455D01*
X1916564Y1587182D02*
X1925462D01*
X1916589Y1587221D02*
X1925399D01*
X1916614Y1587261D02*
X1925336D01*
X1916638Y1587300D02*
X1925273D01*
X1916663Y1587339D02*
X1925210D01*
X1916687Y1587379D02*
X1925147D01*
X1916712Y1587418D02*
X1925084D01*
X1916737Y1587457D02*
X1925021D01*
X1916761Y1587497D02*
X1924958D01*
X1916786Y1587536D02*
X1924895D01*
X1916810Y1587576D02*
X1924832D01*
X1916835Y1587615D02*
X1924769D01*
X1916860Y1587654D02*
X1924706D01*
X1916884Y1587694D02*
X1924643D01*
X1916909Y1587733D02*
X1924580D01*
X1916933Y1587772D02*
X1924517D01*
X1916958Y1587812D02*
X1924454D01*
X1916983Y1587851D02*
X1924391D01*
X1917007Y1587890D02*
X1924328D01*
X1917032Y1587930D02*
X1924265D01*
X1917056Y1587969D02*
X1924202D01*
X1917081Y1588009D02*
X1924139D01*
X1917106Y1588048D02*
X1924076D01*
X1917130Y1588087D02*
X1924013D01*
X1917155Y1588127D02*
X1923950D01*
X1917179Y1588166D02*
X1923887D01*
X1917204Y1588205D02*
X1923824D01*
X1917229Y1588245D02*
X1923761D01*
X1917253Y1588284D02*
X1923698D01*
X1917278Y1588324D02*
X1923635D01*
X1917302Y1588363D02*
X1923572D01*
X1917327Y1588402D02*
X1923509D01*
X1917352Y1588442D02*
X1923446D01*
X1917376Y1588481D02*
X1923383D01*
X1917401Y1588520D02*
X1923320D01*
X1917426Y1588560D02*
X1923257D01*
X1917450Y1588599D02*
X1923194D01*
X1917475Y1588638D02*
X1923131D01*
X1917499Y1588678D02*
X1923068D01*
X1917524Y1588717D02*
X1923005D01*
X1917549Y1588757D02*
X1922942D01*
X1917573Y1588796D02*
X1922879D01*
X1917598Y1588835D02*
X1922816D01*
X1917622Y1588875D02*
X1922753D01*
X1917647Y1588914D02*
X1922690D01*
X1917672Y1588953D02*
X1922627D01*
X1917696Y1588993D02*
X1922564D01*
X1917721Y1589032D02*
X1922501D01*
X1917745Y1589072D02*
X1922438D01*
X1917770Y1589111D02*
X1922375D01*
X1917795Y1589150D02*
X1922312D01*
X1917819Y1589190D02*
X1922249D01*
X1917844Y1589229D02*
X1922186D01*
X1917868Y1589268D02*
X1922123D01*
X1917893Y1589308D02*
X1922060D01*
X1917918Y1589347D02*
X1921997D01*
X1917942Y1589387D02*
X1921934D01*
X1917967Y1589426D02*
X1921871D01*
X1917991Y1589465D02*
X1921808D01*
X1918016Y1589505D02*
X1921745D01*
X1918041Y1589544D02*
X1921682D01*
X1918065Y1589583D02*
X1921619D01*
X1918090Y1589623D02*
X1921556D01*
X1918114Y1589662D02*
X1921493D01*
X1918139Y1589701D02*
X1921430D01*
X1918164Y1589741D02*
X1921367D01*
X1918188Y1589780D02*
X1921304D01*
X1918213Y1589820D02*
X1921241D01*
X1918237Y1589859D02*
X1921178D01*
X1918262Y1589898D02*
X1921115D01*
X1918287Y1589938D02*
X1921052D01*
X1918311Y1589977D02*
X1920989D01*
X1918336Y1590016D02*
X1920926D01*
X1918360Y1590056D02*
X1920863D01*
X1918385Y1590095D02*
X1920800D01*
X1918410Y1590135D02*
X1920737D01*
X1918434Y1590174D02*
X1920674D01*
X1918459Y1590213D02*
X1920611D01*
X1918483Y1590253D02*
X1920548D01*
X1918508Y1590292D02*
X1920485D01*
X1918533Y1590331D02*
X1920422D01*
X1918557Y1590371D02*
X1920359D01*
X1918582Y1590410D02*
X1920296D01*
X1918606Y1590450D02*
X1920233D01*
X1918631Y1590489D02*
X1920170D01*
X1918656Y1590528D02*
X1920107D01*
X1918680Y1590568D02*
X1920044D01*
X1918705Y1590607D02*
X1919981D01*
X1918729Y1590646D02*
X1919918D01*
X1918754Y1590686D02*
X1919855D01*
X1918779Y1590725D02*
X1919792D01*
X1918803Y1590764D02*
X1919729D01*
X1918828Y1590804D02*
X1919666D01*
X1918852Y1590843D02*
X1919603D01*
X1918877Y1590883D02*
X1919540D01*
X1918902Y1590922D02*
X1919477D01*
X1918926Y1590961D02*
X1919414D01*
X1918951Y1591001D02*
X1919351D01*
X1918975Y1591040D02*
X1919288D01*
X1919000Y1591079D02*
X1919225D01*
X1919025Y1591119D02*
X1919162D01*
X1919049Y1591158D02*
X1919099D01*
X1910605Y1577645D02*
X1910605D01*
X1910645Y1577620D02*
Y1577708D01*
X1910684Y1577596D02*
Y1577771D01*
X1910723Y1577571D02*
Y1577834D01*
X1910763Y1577547D02*
Y1577897D01*
X1910802Y1577522D02*
Y1577960D01*
X1910841Y1577497D02*
Y1578023D01*
X1910881Y1577473D02*
Y1578086D01*
X1910920Y1577448D02*
Y1578149D01*
X1910960Y1577424D02*
Y1578212D01*
X1910999Y1577399D02*
Y1578275D01*
X1911038Y1577374D02*
Y1578338D01*
X1911078Y1577350D02*
Y1578401D01*
X1911117Y1577325D02*
Y1578464D01*
X1911156Y1577301D02*
Y1578527D01*
X1911196Y1577276D02*
Y1578590D01*
X1911235Y1577251D02*
Y1578653D01*
X1911275Y1577227D02*
Y1578716D01*
X1911314Y1577202D02*
Y1578779D01*
X1911353Y1577178D02*
Y1578842D01*
X1911393Y1577153D02*
Y1578905D01*
X1911432Y1577128D02*
Y1578968D01*
X1911471Y1577104D02*
Y1579031D01*
X1911511Y1577079D02*
Y1579094D01*
X1911550Y1577055D02*
Y1579157D01*
X1911589Y1577030D02*
Y1579220D01*
X1911629Y1577005D02*
Y1579283D01*
X1911668Y1576981D02*
Y1579346D01*
X1911708Y1576956D02*
Y1579409D01*
X1911747Y1576932D02*
Y1579472D01*
X1911786Y1576907D02*
Y1579535D01*
X1911826Y1576882D02*
Y1579598D01*
X1911865Y1576858D02*
Y1579661D01*
X1911904Y1576833D02*
Y1579724D01*
X1911944Y1576809D02*
Y1579787D01*
X1911983Y1576784D02*
Y1579850D01*
X1912023Y1576759D02*
Y1579913D01*
X1912062Y1576735D02*
Y1579976D01*
X1912101Y1576710D02*
Y1580039D01*
X1912141Y1576686D02*
Y1580102D01*
X1912180Y1576661D02*
Y1580165D01*
X1912219Y1576636D02*
Y1580228D01*
X1912259Y1576612D02*
Y1580291D01*
X1912298Y1576587D02*
Y1580354D01*
X1912337Y1576563D02*
Y1580417D01*
X1912377Y1576538D02*
Y1580480D01*
X1912416Y1576513D02*
Y1580543D01*
X1912456Y1576489D02*
Y1580606D01*
X1912495Y1576464D02*
Y1580669D01*
X1912534Y1576440D02*
Y1580732D01*
X1912574Y1576415D02*
Y1580795D01*
X1912613Y1576390D02*
Y1580858D01*
X1912652Y1576366D02*
Y1580921D01*
X1912692Y1576341D02*
Y1580984D01*
X1912731Y1576317D02*
Y1581047D01*
X1912771Y1576292D02*
Y1581110D01*
X1912810Y1576267D02*
Y1581173D01*
X1912849Y1576243D02*
Y1581236D01*
X1912889Y1576218D02*
Y1581299D01*
X1912928Y1576194D02*
Y1581362D01*
X1912967Y1576169D02*
Y1581425D01*
X1913007Y1576144D02*
Y1581488D01*
X1913046Y1576120D02*
Y1581551D01*
X1913086Y1576095D02*
Y1581614D01*
X1913125Y1576071D02*
Y1581677D01*
X1913164Y1576046D02*
Y1581740D01*
X1913204Y1576021D02*
Y1581803D01*
X1913243Y1575997D02*
Y1581866D01*
X1913282Y1575972D02*
Y1581929D01*
X1913322Y1575948D02*
Y1581992D01*
X1913361Y1575923D02*
Y1582055D01*
X1913400Y1575898D02*
Y1582118D01*
X1913440Y1575874D02*
Y1582181D01*
X1913479Y1575849D02*
Y1582244D01*
X1913519Y1575825D02*
Y1582307D01*
X1913558Y1575800D02*
Y1582370D01*
X1913597Y1575775D02*
Y1582433D01*
X1913637Y1575751D02*
Y1582496D01*
X1913676Y1575726D02*
Y1582559D01*
X1913715Y1575702D02*
Y1582622D01*
X1913755Y1575677D02*
Y1582685D01*
X1913794Y1575652D02*
Y1582748D01*
X1913834Y1575628D02*
Y1582811D01*
X1913873Y1575603D02*
Y1582874D01*
X1913912Y1575579D02*
Y1582937D01*
X1913952Y1575554D02*
Y1583000D01*
X1913991Y1575529D02*
Y1583063D01*
X1914030Y1575505D02*
Y1583126D01*
X1914070Y1575480D02*
Y1583189D01*
X1914109Y1575456D02*
Y1583252D01*
X1914149Y1575431D02*
Y1583316D01*
X1914188Y1575406D02*
Y1583379D01*
X1914227Y1575382D02*
Y1583442D01*
X1914267Y1575357D02*
Y1583505D01*
X1914306Y1575333D02*
Y1583568D01*
X1914345Y1575308D02*
Y1583631D01*
X1914385Y1575283D02*
Y1583694D01*
X1914424Y1575259D02*
Y1583757D01*
X1914463Y1575234D02*
Y1583820D01*
X1914503Y1575210D02*
Y1583883D01*
X1914542Y1575185D02*
Y1583946D01*
X1914582Y1575160D02*
Y1584009D01*
X1914621Y1575136D02*
Y1584072D01*
X1914660Y1575111D02*
Y1584135D01*
X1914700Y1575087D02*
Y1584198D01*
X1914739Y1575062D02*
Y1584261D01*
X1914778Y1575037D02*
Y1584324D01*
X1914818Y1575013D02*
Y1584387D01*
X1914857Y1574988D02*
Y1584450D01*
X1914897Y1574963D02*
Y1584513D01*
X1914936Y1574939D02*
Y1584576D01*
X1914975Y1574914D02*
Y1584639D01*
X1915015Y1574890D02*
Y1584702D01*
X1915054Y1574865D02*
Y1584765D01*
X1915093Y1574840D02*
Y1584828D01*
X1915133Y1574816D02*
Y1584891D01*
X1915172Y1574791D02*
Y1584954D01*
X1915212Y1574767D02*
Y1585017D01*
X1915251Y1574742D02*
Y1585080D01*
X1915290Y1574717D02*
Y1585143D01*
X1915330Y1574693D02*
Y1585206D01*
X1915369Y1574668D02*
Y1585269D01*
X1915408Y1574644D02*
Y1585332D01*
X1915448Y1574619D02*
Y1585395D01*
X1915487Y1574594D02*
Y1585458D01*
X1915526Y1574570D02*
Y1585521D01*
X1915566Y1574545D02*
Y1585584D01*
X1915605Y1574521D02*
Y1585647D01*
X1915645Y1574496D02*
Y1585710D01*
X1915684Y1574471D02*
Y1585773D01*
X1915723Y1574447D02*
Y1585836D01*
X1915763Y1574422D02*
Y1585899D01*
X1915802Y1574398D02*
Y1585962D01*
X1915841Y1574373D02*
Y1586025D01*
X1915881Y1574348D02*
Y1586088D01*
X1915920Y1574324D02*
Y1586151D01*
X1915960Y1574299D02*
Y1586214D01*
X1915999Y1574275D02*
Y1586277D01*
X1916038Y1574250D02*
Y1586340D01*
X1916078Y1574225D02*
Y1586403D01*
X1916117Y1574201D02*
Y1586466D01*
X1916156Y1574176D02*
Y1586529D01*
X1916196Y1574152D02*
Y1586592D01*
X1916235Y1574127D02*
Y1586655D01*
X1916275Y1574102D02*
Y1586718D01*
X1916314Y1574078D02*
Y1586781D01*
X1916353Y1574053D02*
Y1586844D01*
X1916393Y1574029D02*
Y1586907D01*
X1916432Y1574004D02*
Y1586970D01*
X1916471Y1573979D02*
Y1587033D01*
X1916511Y1573955D02*
Y1587096D01*
X1916550Y1573930D02*
Y1587159D01*
X1916589Y1573906D02*
Y1587222D01*
X1916629Y1573881D02*
Y1587285D01*
X1916668Y1573856D02*
Y1587348D01*
X1916708Y1573832D02*
Y1587411D01*
X1916747Y1573807D02*
Y1587474D01*
X1916786Y1573783D02*
Y1587537D01*
X1916826Y1573758D02*
Y1587600D01*
X1916865Y1573733D02*
Y1587663D01*
X1916904Y1573709D02*
Y1587726D01*
X1916944Y1573684D02*
Y1587789D01*
X1916983Y1573660D02*
Y1587852D01*
X1917023Y1573647D02*
Y1587915D01*
X1917062Y1573710D02*
Y1587978D01*
X1917101Y1573773D02*
Y1588041D01*
X1917141Y1573836D02*
Y1588104D01*
X1917180Y1573899D02*
Y1588167D01*
X1917219Y1573962D02*
Y1588230D01*
X1917259Y1574025D02*
Y1588293D01*
X1917298Y1574088D02*
Y1588356D01*
X1917337Y1574151D02*
Y1588419D01*
X1917377Y1574214D02*
Y1588482D01*
X1917416Y1574277D02*
Y1588545D01*
X1917456Y1574340D02*
Y1588608D01*
X1917495Y1574403D02*
Y1588671D01*
X1917534Y1574466D02*
Y1588734D01*
X1917574Y1574529D02*
Y1588797D01*
X1917613Y1574592D02*
Y1588860D01*
X1917652Y1574655D02*
Y1588923D01*
X1917692Y1574718D02*
Y1588986D01*
X1917731Y1574781D02*
Y1589049D01*
X1917771Y1574844D02*
Y1589112D01*
X1917810Y1574907D02*
Y1589175D01*
X1917849Y1574970D02*
Y1589238D01*
X1917889Y1575033D02*
Y1589301D01*
X1917928Y1575096D02*
Y1589364D01*
X1917967Y1575159D02*
Y1589427D01*
X1918007Y1575222D02*
Y1589490D01*
X1918046Y1575286D02*
Y1589553D01*
X1918086Y1575349D02*
Y1589616D01*
X1918125Y1575412D02*
Y1589679D01*
X1918164Y1575475D02*
Y1589742D01*
X1918204Y1575538D02*
Y1589805D01*
X1918243Y1575601D02*
Y1589868D01*
X1918282Y1575664D02*
Y1589931D01*
X1918322Y1575727D02*
Y1589994D01*
X1918361Y1575790D02*
Y1590057D01*
X1918400Y1575853D02*
Y1590120D01*
X1918440Y1575916D02*
Y1590183D01*
X1918479Y1575979D02*
Y1590246D01*
X1918519Y1576042D02*
Y1590309D01*
X1918558Y1576105D02*
Y1590372D01*
X1918597Y1576168D02*
Y1590435D01*
X1918637Y1576231D02*
Y1590498D01*
X1918676Y1576294D02*
Y1590561D01*
X1918715Y1576357D02*
Y1590624D01*
X1918755Y1576420D02*
Y1590687D01*
X1918794Y1576483D02*
Y1590750D01*
X1918834Y1576546D02*
Y1590813D01*
X1918873Y1576609D02*
Y1590876D01*
X1918912Y1576672D02*
Y1590939D01*
X1918952Y1576735D02*
Y1591002D01*
X1918991Y1576798D02*
Y1591065D01*
X1919030Y1576861D02*
Y1591128D01*
X1919070Y1576924D02*
Y1591176D01*
X1919109Y1576987D02*
Y1591152D01*
X1919149Y1577050D02*
Y1591127D01*
X1919188Y1577113D02*
Y1591102D01*
X1919227Y1577176D02*
Y1591078D01*
X1919267Y1577239D02*
Y1591053D01*
X1919306Y1577302D02*
Y1591029D01*
X1919345Y1577365D02*
Y1591004D01*
X1919385Y1577428D02*
Y1590979D01*
X1919424Y1577491D02*
Y1590955D01*
X1919463Y1577554D02*
Y1590930D01*
X1919503Y1577617D02*
Y1590906D01*
X1919542Y1577680D02*
Y1590881D01*
X1919582Y1577743D02*
Y1590856D01*
X1919621Y1577806D02*
Y1590832D01*
X1919660Y1577869D02*
Y1590807D01*
X1919700Y1577932D02*
Y1590783D01*
X1919739Y1577995D02*
Y1590758D01*
X1919778Y1578058D02*
Y1590733D01*
X1919818Y1578121D02*
Y1590709D01*
X1919857Y1578184D02*
Y1590684D01*
X1919897Y1578247D02*
Y1590660D01*
X1919936Y1578310D02*
Y1590635D01*
X1919975Y1578373D02*
Y1590610D01*
X1920015Y1578436D02*
Y1590586D01*
X1920054Y1578499D02*
Y1590561D01*
X1920093Y1578562D02*
Y1590537D01*
X1920133Y1578625D02*
Y1590512D01*
X1920172Y1578688D02*
Y1590487D01*
X1920212Y1578751D02*
Y1590463D01*
X1920251Y1578814D02*
Y1590438D01*
X1920290Y1578877D02*
Y1590414D01*
X1920330Y1578940D02*
Y1590389D01*
X1920369Y1579003D02*
Y1590364D01*
X1920408Y1579066D02*
Y1590340D01*
X1920448Y1579129D02*
Y1590315D01*
X1920487Y1579192D02*
Y1590291D01*
X1920526Y1579255D02*
Y1590266D01*
X1920566Y1579318D02*
Y1590241D01*
X1920605Y1579381D02*
Y1590217D01*
X1920645Y1579444D02*
Y1590192D01*
X1920684Y1579507D02*
Y1590168D01*
X1920723Y1579570D02*
Y1590143D01*
X1920763Y1579633D02*
Y1590118D01*
X1920802Y1579696D02*
Y1590094D01*
X1920841Y1579759D02*
Y1590069D01*
X1920881Y1579822D02*
Y1590045D01*
X1920920Y1579885D02*
Y1590020D01*
X1920960Y1579948D02*
Y1589995D01*
X1920999Y1580011D02*
Y1589971D01*
X1921038Y1580074D02*
Y1589946D01*
X1921078Y1580137D02*
Y1589922D01*
X1921117Y1580200D02*
Y1589897D01*
X1921156Y1580263D02*
Y1589872D01*
X1921196Y1580326D02*
Y1589848D01*
X1921235Y1580389D02*
Y1589823D01*
X1921275Y1580452D02*
Y1589799D01*
X1921314Y1580515D02*
Y1589774D01*
X1921353Y1580578D02*
Y1589749D01*
X1921393Y1580641D02*
Y1589725D01*
X1921432Y1580704D02*
Y1589700D01*
X1921471Y1580767D02*
Y1589676D01*
X1921511Y1580830D02*
Y1589651D01*
X1921550Y1580893D02*
Y1589626D01*
X1921589Y1580956D02*
Y1589602D01*
X1921629Y1581019D02*
Y1589577D01*
X1921668Y1581082D02*
Y1589553D01*
X1921708Y1581145D02*
Y1589528D01*
X1921747Y1581208D02*
Y1589503D01*
X1921786Y1581271D02*
Y1589479D01*
X1921826Y1581334D02*
Y1589454D01*
X1921865Y1581397D02*
Y1589430D01*
X1921904Y1581460D02*
Y1589405D01*
X1921944Y1581523D02*
Y1589380D01*
X1921983Y1581586D02*
Y1589356D01*
X1922023Y1581649D02*
Y1589331D01*
X1922062Y1581712D02*
Y1589307D01*
X1922101Y1581775D02*
Y1589282D01*
X1922141Y1581838D02*
Y1589257D01*
X1922180Y1581901D02*
Y1589233D01*
X1922219Y1581964D02*
Y1589208D01*
X1922259Y1582027D02*
Y1589184D01*
X1922298Y1582090D02*
Y1589159D01*
X1922337Y1582153D02*
Y1589134D01*
X1922377Y1582216D02*
Y1589110D01*
X1922416Y1582279D02*
Y1589085D01*
X1922456Y1582342D02*
Y1589060D01*
X1922495Y1582405D02*
Y1589036D01*
X1922534Y1582468D02*
Y1589011D01*
X1922574Y1582531D02*
Y1588987D01*
X1922613Y1582594D02*
Y1588962D01*
X1922652Y1582657D02*
Y1588937D01*
X1922692Y1582720D02*
Y1588913D01*
X1922731Y1582783D02*
Y1588888D01*
X1922771Y1582846D02*
Y1588864D01*
X1922810Y1582909D02*
Y1588839D01*
X1922849Y1582972D02*
Y1588814D01*
X1922889Y1583035D02*
Y1588790D01*
X1922928Y1583098D02*
Y1588765D01*
X1922967Y1583161D02*
Y1588741D01*
X1923007Y1583224D02*
Y1588716D01*
X1923046Y1583287D02*
Y1588691D01*
X1923086Y1583350D02*
Y1588667D01*
X1923125Y1583413D02*
Y1588642D01*
X1923164Y1583476D02*
Y1588618D01*
X1923204Y1583539D02*
Y1588593D01*
X1923243Y1583602D02*
Y1588568D01*
X1923282Y1583665D02*
Y1588544D01*
X1923322Y1583728D02*
Y1588519D01*
X1923361Y1583791D02*
Y1588495D01*
X1923400Y1583854D02*
Y1588470D01*
X1923440Y1583917D02*
Y1588445D01*
X1923479Y1583980D02*
Y1588421D01*
X1923519Y1584043D02*
Y1588396D01*
X1923558Y1584106D02*
Y1588372D01*
X1923597Y1584169D02*
Y1588347D01*
X1923637Y1584232D02*
Y1588322D01*
X1923676Y1584295D02*
Y1588298D01*
X1923715Y1584358D02*
Y1588273D01*
X1923755Y1584421D02*
Y1588249D01*
X1923794Y1584484D02*
Y1588224D01*
X1923834Y1584547D02*
Y1588199D01*
X1923873Y1584610D02*
Y1588175D01*
X1923912Y1584673D02*
Y1588150D01*
X1923952Y1584736D02*
Y1588126D01*
X1923991Y1584799D02*
Y1588101D01*
X1924030Y1584862D02*
Y1588076D01*
X1924070Y1584925D02*
Y1588052D01*
X1924109Y1584988D02*
Y1588027D01*
X1924149Y1585051D02*
Y1588003D01*
X1924188Y1585114D02*
Y1587978D01*
X1924227Y1585177D02*
Y1587953D01*
X1924267Y1585240D02*
Y1587929D01*
X1924306Y1585303D02*
Y1587904D01*
X1924345Y1585366D02*
Y1587880D01*
X1924385Y1585429D02*
Y1587855D01*
X1924424Y1585492D02*
Y1587830D01*
X1924463Y1585555D02*
Y1587806D01*
X1924503Y1585618D02*
Y1587781D01*
X1924542Y1585681D02*
Y1587757D01*
X1924582Y1585744D02*
Y1587732D01*
X1924621Y1585807D02*
Y1587707D01*
X1924660Y1585870D02*
Y1587683D01*
X1924700Y1585933D02*
Y1587658D01*
X1924739Y1585996D02*
Y1587634D01*
X1924778Y1586059D02*
Y1587609D01*
X1924818Y1586122D02*
Y1587584D01*
X1924857Y1586185D02*
Y1587560D01*
X1924897Y1586248D02*
Y1587535D01*
X1924936Y1586311D02*
Y1587511D01*
X1924975Y1586374D02*
Y1587486D01*
X1925015Y1586437D02*
Y1587461D01*
X1925054Y1586500D02*
Y1587437D01*
X1925093Y1586563D02*
Y1587412D01*
X1925133Y1586626D02*
Y1587388D01*
X1925172Y1586689D02*
Y1587363D01*
X1925212Y1586752D02*
Y1587338D01*
X1925251Y1586815D02*
Y1587314D01*
X1925290Y1586878D02*
Y1587289D01*
X1925330Y1586941D02*
Y1587265D01*
X1925369Y1587004D02*
Y1587240D01*
X1925408Y1587067D02*
Y1587215D01*
X1925448Y1587131D02*
Y1587191D01*
G54D31*
X1956131Y1584878D03*
Y1591965D03*
X1943335D03*
Y1584878D03*
G54D32*
X1953473Y1595902D03*
X1945993D03*
Y1580941D03*
X1953473D03*
G54D33*
X1940481Y1572764D03*
X1941859Y1567843D03*
X1937528Y1572567D03*
X1931623Y1567449D03*
X1934575D03*
X1957410Y1572764D03*
X1913316Y1574142D03*
X1933591Y1591661D03*
X1929851Y1575323D03*
X1939300Y1593433D03*
X1922764Y1590283D03*
X1951308Y1592843D03*
X1967056Y1582016D03*
X1970205D03*
X1932607Y1596976D03*
X1948552Y1594417D03*
G74*
X0Y0D02*
M02*
