0
SECTION
2
HEADER
999
*** POWERPCB  HEADER ***
9
$EXTMIN
10
-4.7127
20
-47.0127
9
$EXTMAX
10
91.4127
20
22.0127
9
$FILLMODE
70
0
9
$GRIDMODE
70
1
9
$GRIDUNIT
10
1
20
1
9
$INSBASE
10
-26.3
20
133.1
9
$LIMCHECK
70
0
9
$PLINEWID
40
0.127
9
$SNAPMODE
70
1
9
$SNAPUNIT
10
0.1
20
0.1
9
$TEXTSIZE
40
2.54
9
$TEXTSTYLE
7
W0$254
9
$USERI1
70
101
9
$USERI2
70
0
9
$USERI5
70
150
9
$VIEWCTR
10
26.998858
20
8.2328466667
0
ENDSEC
0
SECTION
2
TABLES
999
*** POWERPCB  LAYER ***
0
TABLE
2
LAYER
70
25
0
LAYER
2
DBLAYERS
70
1
62
-254
6
CONTINUOUS
0
LAYER
2
BOARD_OUTLINE_00
70
0
62
254
6
CONTINUOUS
0
LAYER
2
2D_LINE_00
70
0
62
1
6
CONTINUOUS
0
LAYER
2
TEXT_29
70
0
62
2
6
CONTINUOUS
0
LAYER
2
TEXT_02
70
0
62
5
6
CONTINUOUS
0
LAYER
2
LABEL_INFO
70
1
62
-254
6
CONTINUOUS
0
LAYER
2
LABEL_ATTRIBUTE
70
1
62
-254
6
CONTINUOUS
0
LAYER
2
PART_NAME_02
70
0
62
253
6
CONTINUOUS
0
LAYER
2
PART_TYPE_02
70
1
62
-250
6
CONTINUOUS
0
LAYER
2
PART_INFO
70
1
62
-254
6
CONTINUOUS
0
LAYER
2
PART_PTS
70
1
62
-254
6
CONTINUOUS
0
LAYER
2
SYM_NAME
70
1
62
-254
6
CONTINUOUS
0
LAYER
2
SYM_PART_NAME_01
70
1
62
-254
6
CONTINUOUS
0
LAYER
2
SYM_PART_TYPE_01
70
1
62
-254
6
CONTINUOUS
0
LAYER
2
SYM_TERMINAL
70
1
62
-254
6
CONTINUOUS
0
LAYER
2
PKG_INFO
70
1
62
-254
6
CONTINUOUS
0
LAYER
2
PART_BOT_2DLINE_01
70
1
62
-250
6
CONTINUOUS
0
LAYER
2
PART_BOT_2DLINE_18
70
1
62
-250
6
CONTINUOUS
0
LAYER
2
DRIL_NPLTE_THRU_01
70
0
62
16
6
CONTINUOUS
0
LAYER
2
DRIL_NPLTE_THRU_02
70
0
62
176
6
CONTINUOUS
0
LAYER
2
PADS_INNER
70
0
62
1
6
CONTINUOUS
0
LAYER
2
PADS_BOT
70
0
62
5
6
CONTINUOUS
0
LAYER
2
PADS_TOP
70
0
62
1
6
CONTINUOUS
0
LAYER
2
PCB_PARAMS
70
1
62
-254
6
CONTINUOUS
0
LAYER
2
DRIL_SYMBOL
70
0
62
254
6
CONTINUOUS
0
ENDTAB
999
*** POWERPCB  TEXT STYLE ***
0
TABLE
2
STYLE
70
4
0
STYLE
2
W0$254
70
64
40
0
41
0.75
42
0
50
0
71
0
3
simplex
0
STYLE
2
W0$15
70
64
40
0
41
0.75
42
0
50
0
71
0
3
simplex
0
STYLE
2
W0$12
70
64
40
0
41
0.75
42
0
50
0
71
0
3
simplex
0
STYLE
2
W0$12R0
70
64
40
0
41
0.75
42
0
50
0
71
0
3
simplex
0
ENDTAB
0
ENDSEC
0
SECTION
2
BLOCKS
999
*** POWERPCB  DBLAYER ***
0
BLOCK
2
DBLAYERS
8
0
10
0
20
0
3
DBLAYERS
70
64
0
TEXT
8
DBLAYERS
10
0
20
-3.048
40
1.778
1
__It__Is__Job__Name__:=FTC_000_1.pcb
999
 *  1.Number             2.Type                  3.RouteColor
999
 *  4.ViaColor           5.PadColor              6.CopperColor
999
 *  7.2DLineColor        8.TextColor             9.ErrorColor
999
 * 10.TopComponentColor 11.BottomComponentColor 12.RoutingDirection
999
 * 13.LayerThickness    14.CopperThickness      15.Dielectric
999
 * 16.IsRouteable       17.IsVisible            18.IsSelectable
999
 * 19.IsPrepreg         20.AssSilkScreen        21.AssPasteMask
999
 * 22.AssSolderMask     23.AssAssembly
0
TEXT
8
DBLAYERS
10
0
20
-6.096
40
1.778
1
Bottom:=2 1 9 9 9 9 9 9 13 0 7 1 304800 38100 3.7999999523 1 1 1 0 29 22 28 30 0 1 1 7 0 0 0 
0
TEXT
8
DBLAYERS
10
0
20
-9.144
40
1.778
1
Silkscreen Bottom:=29 3 0 0 0 0 13 14 0 0 0 2 0 0 3.2999999523 0 1 1 0 -1 -1 -1 -1 0 0 0 0 0 0 0 
0
ENDBLK
999
*** POWERPCB  BOARD ***
0
BLOCK
2
BOARD_5
8
0
10
0
20
0
3
BOARD_5
70
64
0
POLYLINE
8
BOARD_OUTLINE_00
66
1
40
0.254
41
0.254
70
1
0
VERTEX
8
BOARD_OUTLINE_00
10
6.291
20
0
0
VERTEX
8
BOARD_OUTLINE_00
10
5.291
20
1
0
VERTEX
8
BOARD_OUTLINE_00
10
5.291
20
13.923
0
VERTEX
8
BOARD_OUTLINE_00
10
6.291
20
14.923
0
VERTEX
8
BOARD_OUTLINE_00
10
53.291
20
14.923
0
VERTEX
8
BOARD_OUTLINE_00
10
54.291
20
13.923
0
VERTEX
8
BOARD_OUTLINE_00
10
54.291
20
1
0
VERTEX
8
BOARD_OUTLINE_00
10
53.291
20
0
0
SEQEND
0
INSERT
2
SMOOTH_0$254
8
BOARD_OUTLINE_00
10
6.291
20
0
0
INSERT
2
SMOOTH_0$254
8
BOARD_OUTLINE_00
10
5.291
20
1
0
INSERT
2
SMOOTH_0$254
8
BOARD_OUTLINE_00
10
5.291
20
13.923
0
INSERT
2
SMOOTH_0$254
8
BOARD_OUTLINE_00
10
6.291
20
14.923
0
INSERT
2
SMOOTH_0$254
8
BOARD_OUTLINE_00
10
53.291
20
14.923
0
INSERT
2
SMOOTH_0$254
8
BOARD_OUTLINE_00
10
54.291
20
13.923
0
INSERT
2
SMOOTH_0$254
8
BOARD_OUTLINE_00
10
54.291
20
1
0
INSERT
2
SMOOTH_0$254
8
BOARD_OUTLINE_00
10
53.291
20
0
0
ENDBLK
999
*** POWERPCB  2DLINE ***
0
BLOCK
2
DRAWING_1
8
0
10
0
20
0
3
DRAWING_1
70
64
0
POLYLINE
8
2D_LINE_00
66
1
40
0.0254
41
0.0254
0
VERTEX
8
2D_LINE_00
10
0
20
0
0
VERTEX
8
2D_LINE_00
10
10.2
20
0
0
VERTEX
8
2D_LINE_00
10
10.2
20
9.4
0
SEQEND
0
INSERT
2
SMOOTH_0$0254
8
2D_LINE_00
10
0
20
0
0
INSERT
2
SMOOTH_0$0254
8
2D_LINE_00
10
10.2
20
0
0
INSERT
2
SMOOTH_0$0254
8
2D_LINE_00
10
10.2
20
9.4
0
ENDBLK
0
BLOCK
2
DRAWING_2
8
0
10
0
20
0
3
DRAWING_2
70
64
0
POLYLINE
8
2D_LINE_00
66
1
40
0.0254
41
0.0254
0
VERTEX
8
2D_LINE_00
10
0
20
0
0
VERTEX
8
2D_LINE_00
10
0
20
10.2
0
VERTEX
8
2D_LINE_00
10
-9.4
20
10.2
0
SEQEND
0
INSERT
2
SMOOTH_0$0254
8
2D_LINE_00
10
0
20
0
0
INSERT
2
SMOOTH_0$0254
8
2D_LINE_00
10
0
20
10.2
0
INSERT
2
SMOOTH_0$0254
8
2D_LINE_00
10
-9.4
20
10.2
0
ENDBLK
0
BLOCK
2
DRAWING_3
8
0
10
0
20
0
3
DRAWING_3
70
64
0
POLYLINE
8
2D_LINE_00
66
1
40
0.0254
41
0.0254
0
VERTEX
8
2D_LINE_00
10
0
20
0
0
VERTEX
8
2D_LINE_00
10
0
20
-10.2
0
VERTEX
8
2D_LINE_00
10
9.4
20
-10.2
0
SEQEND
0
INSERT
2
SMOOTH_0$0254
8
2D_LINE_00
10
0
20
0
0
INSERT
2
SMOOTH_0$0254
8
2D_LINE_00
10
0
20
-10.2
0
INSERT
2
SMOOTH_0$0254
8
2D_LINE_00
10
9.4
20
-10.2
0
ENDBLK
0
BLOCK
2
DRAWING_4
8
0
10
0
20
0
3
DRAWING_4
70
64
0
POLYLINE
8
2D_LINE_00
66
1
40
0.0254
41
0.0254
0
VERTEX
8
2D_LINE_00
10
0
20
0
0
VERTEX
8
2D_LINE_00
10
-10.2
20
0
0
VERTEX
8
2D_LINE_00
10
-10.2
20
-9.4
0
SEQEND
0
INSERT
2
SMOOTH_0$0254
8
2D_LINE_00
10
0
20
0
0
INSERT
2
SMOOTH_0$0254
8
2D_LINE_00
10
-10.2
20
0
0
INSERT
2
SMOOTH_0$0254
8
2D_LINE_00
10
-10.2
20
-9.4
0
ENDBLK
0
BLOCK
2
DRAWING_15
8
0
10
0
20
0
3
DRAWING_15
70
64
0
ENDBLK
999
*** POWERPCB  COMPONENT ***
0
BLOCK
2
PART_BOT_0
8
0
10
0
20
0
3
PART_BOT_0
70
64
0
INSERT
2
SYM_BOT_5
8
0
10
0
20
0
0
INSERT
2
PKG_3
8
0
10
0
20
0
41
-1
0
TEXT
8
LABEL_INFO
10
-0.1
20
3.9
40
1.05
1
0 486000000 1 1 0 1
72
1
73
1
11
-0.1
21
3.9
50
270
41
0.75
7
W0$15
0
TEXT
8
LABEL_ATTRIBUTE
10
-0.1
20
3.9
40
1.05
1
Ref.Des.
72
1
73
1
11
-0.1
21
3.9
50
270
41
0.75
7
W0$15
0
TEXT
8
PART_NAME_02
10
-0.1
20
3.9
40
1.05
1
J3_GND
72
1
73
2
11
-0.1
21
3.9
50
270
41
0.75
7
W0$15
0
TEXT
8
LABEL_INFO
10
0.582
20
2.703
40
0.84
1
0 0 1 1 0 1
72
1
73
1
11
0.582
21
2.703
41
0.75
7
W0$12
0
TEXT
8
LABEL_ATTRIBUTE
10
0.582
20
2.703
40
0.84
1
PartType
72
1
73
1
11
0.582
21
2.703
41
0.75
7
W0$12
0
TEXT
8
PART_TYPE_02
10
0.582
20
2.703
40
0.84
1
SOLDERPAD
72
1
73
2
11
0.582
21
2.703
41
0.75
7
W0$12
0
TEXT
8
PART_INFO
10
0.582
20
1.503
40
0.84
1
000000
71
2
72
1
73
2
11
0.582
21
1.503
41
0.75
7
W0$12
0
TEXT
8
PART_PTS
10
0.582
20
0.303
40
0.84
1
1 
71
2
72
1
73
2
11
0.582
21
0.303
41
0.75
7
W0$12
0
ENDBLK
0
BLOCK
2
PART_BOT_1
8
0
10
0
20
0
3
PART_BOT_1
70
64
0
INSERT
2
SYM_BOT_5
8
0
10
0
20
0
0
INSERT
2
PKG_3
8
0
10
0
20
0
41
-1
0
TEXT
8
LABEL_INFO
10
-0.1
20
3.9
40
1.05
1
0 486000000 1 1 0 1
72
1
73
1
11
-0.1
21
3.9
50
270
41
0.75
7
W0$15
0
TEXT
8
LABEL_ATTRIBUTE
10
-0.1
20
3.9
40
1.05
1
Ref.Des.
72
1
73
1
11
-0.1
21
3.9
50
270
41
0.75
7
W0$15
0
TEXT
8
PART_NAME_02
10
-0.1
20
3.9
40
1.05
1
J3_SCK
72
1
73
2
11
-0.1
21
3.9
50
270
41
0.75
7
W0$15
0
TEXT
8
LABEL_INFO
10
0.582
20
2.703
40
0.84
1
0 0 1 1 0 1
72
1
73
1
11
0.582
21
2.703
41
0.75
7
W0$12
0
TEXT
8
LABEL_ATTRIBUTE
10
0.582
20
2.703
40
0.84
1
PartType
72
1
73
1
11
0.582
21
2.703
41
0.75
7
W0$12
0
TEXT
8
PART_TYPE_02
10
0.582
20
2.703
40
0.84
1
SOLDERPAD
72
1
73
2
11
0.582
21
2.703
41
0.75
7
W0$12
0
TEXT
8
PART_INFO
10
0.582
20
1.503
40
0.84
1
000000
71
2
72
1
73
2
11
0.582
21
1.503
41
0.75
7
W0$12
0
TEXT
8
PART_PTS
10
0.582
20
0.303
40
0.84
1
1 
71
2
72
1
73
2
11
0.582
21
0.303
41
0.75
7
W0$12
0
ENDBLK
0
BLOCK
2
PART_BOT_2
8
0
10
0
20
0
3
PART_BOT_2
70
64
0
INSERT
2
SYM_BOT_5
8
0
10
0
20
0
0
INSERT
2
PKG_3
8
0
10
0
20
0
41
-1
0
TEXT
8
LABEL_INFO
10
0.082
20
4.003
40
1.05
1
0 486000000 1 1 0 1
72
1
73
1
11
0.082
21
4.003
50
270
41
0.75
7
W0$15
0
TEXT
8
LABEL_ATTRIBUTE
10
0.082
20
4.003
40
1.05
1
Ref.Des.
72
1
73
1
11
0.082
21
4.003
50
270
41
0.75
7
W0$15
0
TEXT
8
PART_NAME_02
10
0.082
20
4.003
40
1.05
1
J4_SCK
72
1
73
2
11
0.082
21
4.003
50
270
41
0.75
7
W0$15
0
TEXT
8
LABEL_INFO
10
0.582
20
2.703
40
0.84
1
0 0 1 1 0 1
72
1
73
1
11
0.582
21
2.703
41
0.75
7
W0$12
0
TEXT
8
LABEL_ATTRIBUTE
10
0.582
20
2.703
40
0.84
1
PartType
72
1
73
1
11
0.582
21
2.703
41
0.75
7
W0$12
0
TEXT
8
PART_TYPE_02
10
0.582
20
2.703
40
0.84
1
SOLDERPAD
72
1
73
2
11
0.582
21
2.703
41
0.75
7
W0$12
0
TEXT
8
PART_INFO
10
0.582
20
1.503
40
0.84
1
000000
71
2
72
1
73
2
11
0.582
21
1.503
41
0.75
7
W0$12
0
TEXT
8
PART_PTS
10
0.582
20
0.303
40
0.84
1
1 
71
2
72
1
73
2
11
0.582
21
0.303
41
0.75
7
W0$12
0
ENDBLK
0
BLOCK
2
PART_BOT_3
8
0
10
0
20
0
3
PART_BOT_3
70
64
0
INSERT
2
SYM_BOT_5
8
0
10
0
20
0
0
INSERT
2
PKG_3
8
0
10
0
20
0
41
-1
0
TEXT
8
LABEL_INFO
10
0.082
20
4.003
40
1.05
1
0 486000000 1 1 0 1
72
1
73
1
11
0.082
21
4.003
50
270
41
0.75
7
W0$15
0
TEXT
8
LABEL_ATTRIBUTE
10
0.082
20
4.003
40
1.05
1
Ref.Des.
72
1
73
1
11
0.082
21
4.003
50
270
41
0.75
7
W0$15
0
TEXT
8
PART_NAME_02
10
0.082
20
4.003
40
1.05
1
J4_GND
72
1
73
2
11
0.082
21
4.003
50
270
41
0.75
7
W0$15
0
TEXT
8
LABEL_INFO
10
0.582
20
2.703
40
0.84
1
0 0 1 1 0 1
72
1
73
1
11
0.582
21
2.703
41
0.75
7
W0$12
0
TEXT
8
LABEL_ATTRIBUTE
10
0.582
20
2.703
40
0.84
1
PartType
72
1
73
1
11
0.582
21
2.703
41
0.75
7
W0$12
0
TEXT
8
PART_TYPE_02
10
0.582
20
2.703
40
0.84
1
SOLDERPAD
72
1
73
2
11
0.582
21
2.703
41
0.75
7
W0$12
0
TEXT
8
PART_INFO
10
0.582
20
1.503
40
0.84
1
000000
71
2
72
1
73
2
11
0.582
21
1.503
41
0.75
7
W0$12
0
TEXT
8
PART_PTS
10
0.582
20
0.303
40
0.84
1
1 
71
2
72
1
73
2
11
0.582
21
0.303
41
0.75
7
W0$12
0
ENDBLK
0
BLOCK
2
PART_BOT_11
8
0
10
0
20
0
3
PART_BOT_11
70
64
0
INSERT
2
SYM_BOT_5
8
0
10
0
20
0
0
INSERT
2
PKG_3
8
0
10
0
20
0
41
-1
0
TEXT
8
LABEL_INFO
10
0.175
20
3.8
40
1.05
1
0 486000000 1 1 0 1
72
1
73
1
11
0.175
21
3.8
50
270
41
0.75
7
W0$15
0
TEXT
8
LABEL_ATTRIBUTE
10
0.175
20
3.8
40
1.05
1
Ref.Des.
72
1
73
1
11
0.175
21
3.8
50
270
41
0.75
7
W0$15
0
TEXT
8
PART_NAME_02
10
0.175
20
3.8
40
1.05
1
J2_3V3
72
1
73
2
11
0.175
21
3.8
50
270
41
0.75
7
W0$15
0
TEXT
8
LABEL_INFO
10
0.582
20
2.703
40
0.84
1
0 0 1 1 0 1
72
1
73
1
11
0.582
21
2.703
41
0.75
7
W0$12
0
TEXT
8
LABEL_ATTRIBUTE
10
0.582
20
2.703
40
0.84
1
PartType
72
1
73
1
11
0.582
21
2.703
41
0.75
7
W0$12
0
TEXT
8
PART_TYPE_02
10
0.582
20
2.703
40
0.84
1
SOLDERPAD
72
1
73
2
11
0.582
21
2.703
41
0.75
7
W0$12
0
TEXT
8
PART_INFO
10
0.582
20
1.503
40
0.84
1
000000
71
2
72
1
73
2
11
0.582
21
1.503
41
0.75
7
W0$12
0
TEXT
8
PART_PTS
10
0.582
20
0.303
40
0.84
1
1 
71
2
72
1
73
2
11
0.582
21
0.303
41
0.75
7
W0$12
0
ENDBLK
0
BLOCK
2
PART_BOT_12
8
0
10
0
20
0
3
PART_BOT_12
70
64
0
INSERT
2
SYM_BOT_5
8
0
10
0
20
0
0
INSERT
2
PKG_3
8
0
10
0
20
0
41
-1
0
TEXT
8
LABEL_INFO
10
0.175
20
3.8
40
1.05
1
0 486000000 1 1 0 1
72
1
73
1
11
0.175
21
3.8
50
270
41
0.75
7
W0$15
0
TEXT
8
LABEL_ATTRIBUTE
10
0.175
20
3.8
40
1.05
1
Ref.Des.
72
1
73
1
11
0.175
21
3.8
50
270
41
0.75
7
W0$15
0
TEXT
8
PART_NAME_02
10
0.175
20
3.8
40
1.05
1
J2_GND
72
1
73
2
11
0.175
21
3.8
50
270
41
0.75
7
W0$15
0
TEXT
8
LABEL_INFO
10
0.582
20
2.703
40
0.84
1
0 0 1 1 0 1
72
1
73
1
11
0.582
21
2.703
41
0.75
7
W0$12
0
TEXT
8
LABEL_ATTRIBUTE
10
0.582
20
2.703
40
0.84
1
PartType
72
1
73
1
11
0.582
21
2.703
41
0.75
7
W0$12
0
TEXT
8
PART_TYPE_02
10
0.582
20
2.703
40
0.84
1
SOLDERPAD
72
1
73
2
11
0.582
21
2.703
41
0.75
7
W0$12
0
TEXT
8
PART_INFO
10
0.582
20
1.503
40
0.84
1
000000
71
2
72
1
73
2
11
0.582
21
1.503
41
0.75
7
W0$12
0
TEXT
8
PART_PTS
10
0.582
20
0.303
40
0.84
1
1 
71
2
72
1
73
2
11
0.582
21
0.303
41
0.75
7
W0$12
0
ENDBLK
0
BLOCK
2
PART_BOT_13
8
0
10
0
20
0
3
PART_BOT_13
70
64
0
INSERT
2
SYM_BOT_5
8
0
10
0
20
0
0
INSERT
2
PKG_3
8
0
10
0
20
0
41
-1
0
TEXT
8
LABEL_INFO
10
0.175
20
3.8
40
1.05
1
0 486000000 1 1 0 1
72
1
73
1
11
0.175
21
3.8
50
270
41
0.75
7
W0$15
0
TEXT
8
LABEL_ATTRIBUTE
10
0.175
20
3.8
40
1.05
1
Ref.Des.
72
1
73
1
11
0.175
21
3.8
50
270
41
0.75
7
W0$15
0
TEXT
8
PART_NAME_02
10
0.175
20
3.8
40
1.05
1
J2_SCK
72
1
73
2
11
0.175
21
3.8
50
270
41
0.75
7
W0$15
0
TEXT
8
LABEL_INFO
10
0.582
20
2.703
40
0.84
1
0 0 1 1 0 1
72
1
73
1
11
0.582
21
2.703
41
0.75
7
W0$12
0
TEXT
8
LABEL_ATTRIBUTE
10
0.582
20
2.703
40
0.84
1
PartType
72
1
73
1
11
0.582
21
2.703
41
0.75
7
W0$12
0
TEXT
8
PART_TYPE_02
10
0.582
20
2.703
40
0.84
1
SOLDERPAD
72
1
73
2
11
0.582
21
2.703
41
0.75
7
W0$12
0
TEXT
8
PART_INFO
10
0.582
20
1.503
40
0.84
1
000000
71
2
72
1
73
2
11
0.582
21
1.503
41
0.75
7
W0$12
0
TEXT
8
PART_PTS
10
0.582
20
0.303
40
0.84
1
1 
71
2
72
1
73
2
11
0.582
21
0.303
41
0.75
7
W0$12
0
ENDBLK
0
BLOCK
2
PART_BOT_14
8
0
10
0
20
0
3
PART_BOT_14
70
64
0
INSERT
2
SYM_BOT_5
8
0
10
0
20
0
0
INSERT
2
PKG_3
8
0
10
0
20
0
41
-1
0
TEXT
8
LABEL_INFO
10
0.175
20
3.8
40
1.05
1
0 486000000 1 1 0 1
72
1
73
1
11
0.175
21
3.8
50
270
41
0.75
7
W0$15
0
TEXT
8
LABEL_ATTRIBUTE
10
0.175
20
3.8
40
1.05
1
Ref.Des.
72
1
73
1
11
0.175
21
3.8
50
270
41
0.75
7
W0$15
0
TEXT
8
PART_NAME_02
10
0.175
20
3.8
40
1.05
1
J2_SDA2
72
1
73
2
11
0.175
21
3.8
50
270
41
0.75
7
W0$15
0
TEXT
8
LABEL_INFO
10
0.582
20
2.703
40
0.84
1
0 0 1 1 0 1
72
1
73
1
11
0.582
21
2.703
41
0.75
7
W0$12
0
TEXT
8
LABEL_ATTRIBUTE
10
0.582
20
2.703
40
0.84
1
PartType
72
1
73
1
11
0.582
21
2.703
41
0.75
7
W0$12
0
TEXT
8
PART_TYPE_02
10
0.582
20
2.703
40
0.84
1
SOLDERPAD
72
1
73
2
11
0.582
21
2.703
41
0.75
7
W0$12
0
TEXT
8
PART_INFO
10
0.582
20
1.503
40
0.84
1
000000
71
2
72
1
73
2
11
0.582
21
1.503
41
0.75
7
W0$12
0
TEXT
8
PART_PTS
10
0.582
20
0.303
40
0.84
1
1 
71
2
72
1
73
2
11
0.582
21
0.303
41
0.75
7
W0$12
0
ENDBLK
0
BLOCK
2
PART_BOT_15
8
0
10
0
20
0
3
PART_BOT_15
70
64
0
INSERT
2
SYM_BOT_5
8
0
10
0
20
0
0
INSERT
2
PKG_3
8
0
10
0
20
0
41
-1
0
TEXT
8
LABEL_INFO
10
-0.1
20
3.9
40
1.05
1
0 486000000 1 1 0 1
72
1
73
1
11
-0.1
21
3.9
50
270
41
0.75
7
W0$15
0
TEXT
8
LABEL_ATTRIBUTE
10
-0.1
20
3.9
40
1.05
1
Ref.Des.
72
1
73
1
11
-0.1
21
3.9
50
270
41
0.75
7
W0$15
0
TEXT
8
PART_NAME_02
10
-0.1
20
3.9
40
1.05
1
J3_3V3
72
1
73
2
11
-0.1
21
3.9
50
270
41
0.75
7
W0$15
0
TEXT
8
LABEL_INFO
10
0.582
20
2.703
40
0.84
1
0 0 1 1 0 1
72
1
73
1
11
0.582
21
2.703
41
0.75
7
W0$12
0
TEXT
8
LABEL_ATTRIBUTE
10
0.582
20
2.703
40
0.84
1
PartType
72
1
73
1
11
0.582
21
2.703
41
0.75
7
W0$12
0
TEXT
8
PART_TYPE_02
10
0.582
20
2.703
40
0.84
1
SOLDERPAD
72
1
73
2
11
0.582
21
2.703
41
0.75
7
W0$12
0
TEXT
8
PART_INFO
10
0.582
20
1.503
40
0.84
1
000000
71
2
72
1
73
2
11
0.582
21
1.503
41
0.75
7
W0$12
0
TEXT
8
PART_PTS
10
0.582
20
0.303
40
0.84
1
1 
71
2
72
1
73
2
11
0.582
21
0.303
41
0.75
7
W0$12
0
ENDBLK
0
BLOCK
2
PART_BOT_16
8
0
10
0
20
0
3
PART_BOT_16
70
64
0
INSERT
2
SYM_BOT_5
8
0
10
0
20
0
0
INSERT
2
PKG_3
8
0
10
0
20
0
41
-1
0
TEXT
8
LABEL_INFO
10
-0.1
20
3.9
40
1.05
1
0 486000000 1 1 0 1
72
1
73
1
11
-0.1
21
3.9
50
270
41
0.75
7
W0$15
0
TEXT
8
LABEL_ATTRIBUTE
10
-0.1
20
3.9
40
1.05
1
Ref.Des.
72
1
73
1
11
-0.1
21
3.9
50
270
41
0.75
7
W0$15
0
TEXT
8
PART_NAME_02
10
-0.1
20
3.9
40
1.05
1
J3_SDA1
72
1
73
2
11
-0.1
21
3.9
50
270
41
0.75
7
W0$15
0
TEXT
8
LABEL_INFO
10
0.582
20
2.703
40
0.84
1
0 0 1 1 0 1
72
1
73
1
11
0.582
21
2.703
41
0.75
7
W0$12
0
TEXT
8
LABEL_ATTRIBUTE
10
0.582
20
2.703
40
0.84
1
PartType
72
1
73
1
11
0.582
21
2.703
41
0.75
7
W0$12
0
TEXT
8
PART_TYPE_02
10
0.582
20
2.703
40
0.84
1
SOLDERPAD
72
1
73
2
11
0.582
21
2.703
41
0.75
7
W0$12
0
TEXT
8
PART_INFO
10
0.582
20
1.503
40
0.84
1
000000
71
2
72
1
73
2
11
0.582
21
1.503
41
0.75
7
W0$12
0
TEXT
8
PART_PTS
10
0.582
20
0.303
40
0.84
1
1 
71
2
72
1
73
2
11
0.582
21
0.303
41
0.75
7
W0$12
0
ENDBLK
0
BLOCK
2
PART_BOT_17
8
0
10
0
20
0
3
PART_BOT_17
70
64
0
INSERT
2
SYM_BOT_5
8
0
10
0
20
0
0
INSERT
2
PKG_3
8
0
10
0
20
0
41
-1
0
TEXT
8
LABEL_INFO
10
0.082
20
4.003
40
1.05
1
0 486000000 1 1 0 1
72
1
73
1
11
0.082
21
4.003
50
270
41
0.75
7
W0$15
0
TEXT
8
LABEL_ATTRIBUTE
10
0.082
20
4.003
40
1.05
1
Ref.Des.
72
1
73
1
11
0.082
21
4.003
50
270
41
0.75
7
W0$15
0
TEXT
8
PART_NAME_02
10
0.082
20
4.003
40
1.05
1
J4_3V3
72
1
73
2
11
0.082
21
4.003
50
270
41
0.75
7
W0$15
0
TEXT
8
LABEL_INFO
10
0.582
20
2.703
40
0.84
1
0 0 1 1 0 1
72
1
73
1
11
0.582
21
2.703
41
0.75
7
W0$12
0
TEXT
8
LABEL_ATTRIBUTE
10
0.582
20
2.703
40
0.84
1
PartType
72
1
73
1
11
0.582
21
2.703
41
0.75
7
W0$12
0
TEXT
8
PART_TYPE_02
10
0.582
20
2.703
40
0.84
1
SOLDERPAD
72
1
73
2
11
0.582
21
2.703
41
0.75
7
W0$12
0
TEXT
8
PART_INFO
10
0.582
20
1.503
40
0.84
1
000000
71
2
72
1
73
2
11
0.582
21
1.503
41
0.75
7
W0$12
0
TEXT
8
PART_PTS
10
0.582
20
0.303
40
0.84
1
1 
71
2
72
1
73
2
11
0.582
21
0.303
41
0.75
7
W0$12
0
ENDBLK
0
BLOCK
2
PART_BOT_18
8
0
10
0
20
0
3
PART_BOT_18
70
64
0
INSERT
2
SYM_BOT_5
8
0
10
0
20
0
0
INSERT
2
PKG_3
8
0
10
0
20
0
41
-1
0
TEXT
8
LABEL_INFO
10
0.082
20
4.003
40
1.05
1
0 486000000 1 1 0 1
72
1
73
1
11
0.082
21
4.003
50
270
41
0.75
7
W0$15
0
TEXT
8
LABEL_ATTRIBUTE
10
0.082
20
4.003
40
1.05
1
Ref.Des.
72
1
73
1
11
0.082
21
4.003
50
270
41
0.75
7
W0$15
0
TEXT
8
PART_NAME_02
10
0.082
20
4.003
40
1.05
1
J4_SDA1
72
1
73
2
11
0.082
21
4.003
50
270
41
0.75
7
W0$15
0
TEXT
8
LABEL_INFO
10
0.582
20
2.703
40
0.84
1
0 0 1 1 0 1
72
1
73
1
11
0.582
21
2.703
41
0.75
7
W0$12
0
TEXT
8
LABEL_ATTRIBUTE
10
0.582
20
2.703
40
0.84
1
PartType
72
1
73
1
11
0.582
21
2.703
41
0.75
7
W0$12
0
TEXT
8
PART_TYPE_02
10
0.582
20
2.703
40
0.84
1
SOLDERPAD
72
1
73
2
11
0.582
21
2.703
41
0.75
7
W0$12
0
TEXT
8
PART_INFO
10
0.582
20
1.503
40
0.84
1
000000
71
2
72
1
73
2
11
0.582
21
1.503
41
0.75
7
W0$12
0
TEXT
8
PART_PTS
10
0.582
20
0.303
40
0.84
1
1 
71
2
72
1
73
2
11
0.582
21
0.303
41
0.75
7
W0$12
0
ENDBLK
0
BLOCK
2
PART_BOT_19
8
0
10
0
20
0
3
PART_BOT_19
70
64
0
INSERT
2
SYM_BOT_5
8
0
10
0
20
0
0
INSERT
2
PKG_3
8
0
10
0
20
0
41
-1
0
TEXT
8
LABEL_INFO
10
0.275
20
3.9
40
1.05
1
0 486000000 1 1 0 1
72
1
73
1
11
0.275
21
3.9
50
270
41
0.75
7
W0$15
0
TEXT
8
LABEL_ATTRIBUTE
10
0.275
20
3.9
40
1.05
1
Ref.Des.
72
1
73
1
11
0.275
21
3.9
50
270
41
0.75
7
W0$15
0
TEXT
8
PART_NAME_02
10
0.275
20
3.9
40
1.05
1
J5_3V3
72
1
73
2
11
0.275
21
3.9
50
270
41
0.75
7
W0$15
0
TEXT
8
LABEL_INFO
10
0.582
20
2.703
40
0.84
1
0 0 1 1 0 1
72
1
73
1
11
0.582
21
2.703
41
0.75
7
W0$12
0
TEXT
8
LABEL_ATTRIBUTE
10
0.582
20
2.703
40
0.84
1
PartType
72
1
73
1
11
0.582
21
2.703
41
0.75
7
W0$12
0
TEXT
8
PART_TYPE_02
10
0.582
20
2.703
40
0.84
1
SOLDERPAD
72
1
73
2
11
0.582
21
2.703
41
0.75
7
W0$12
0
TEXT
8
PART_INFO
10
0.582
20
1.503
40
0.84
1
000000
71
2
72
1
73
2
11
0.582
21
1.503
41
0.75
7
W0$12
0
TEXT
8
PART_PTS
10
0.582
20
0.303
40
0.84
1
1 
71
2
72
1
73
2
11
0.582
21
0.303
41
0.75
7
W0$12
0
ENDBLK
0
BLOCK
2
PART_BOT_20
8
0
10
0
20
0
3
PART_BOT_20
70
64
0
INSERT
2
SYM_BOT_5
8
0
10
0
20
0
0
INSERT
2
PKG_3
8
0
10
0
20
0
41
-1
0
TEXT
8
LABEL_INFO
10
0.275
20
3.9
40
1.05
1
0 486000000 1 1 0 1
72
1
73
1
11
0.275
21
3.9
50
270
41
0.75
7
W0$15
0
TEXT
8
LABEL_ATTRIBUTE
10
0.275
20
3.9
40
1.05
1
Ref.Des.
72
1
73
1
11
0.275
21
3.9
50
270
41
0.75
7
W0$15
0
TEXT
8
PART_NAME_02
10
0.275
20
3.9
40
1.05
1
J5_GND
72
1
73
2
11
0.275
21
3.9
50
270
41
0.75
7
W0$15
0
TEXT
8
LABEL_INFO
10
0.582
20
2.703
40
0.84
1
0 0 1 1 0 1
72
1
73
1
11
0.582
21
2.703
41
0.75
7
W0$12
0
TEXT
8
LABEL_ATTRIBUTE
10
0.582
20
2.703
40
0.84
1
PartType
72
1
73
1
11
0.582
21
2.703
41
0.75
7
W0$12
0
TEXT
8
PART_TYPE_02
10
0.582
20
2.703
40
0.84
1
SOLDERPAD
72
1
73
2
11
0.582
21
2.703
41
0.75
7
W0$12
0
TEXT
8
PART_INFO
10
0.582
20
1.503
40
0.84
1
000000
71
2
72
1
73
2
11
0.582
21
1.503
41
0.75
7
W0$12
0
TEXT
8
PART_PTS
10
0.582
20
0.303
40
0.84
1
1 
71
2
72
1
73
2
11
0.582
21
0.303
41
0.75
7
W0$12
0
ENDBLK
0
BLOCK
2
PART_BOT_21
8
0
10
0
20
0
3
PART_BOT_21
70
64
0
INSERT
2
SYM_BOT_5
8
0
10
0
20
0
0
INSERT
2
PKG_3
8
0
10
0
20
0
41
-1
0
TEXT
8
LABEL_INFO
10
0.275
20
3.9
40
1.05
1
0 486000000 1 1 0 1
72
1
73
1
11
0.275
21
3.9
50
270
41
0.75
7
W0$15
0
TEXT
8
LABEL_ATTRIBUTE
10
0.275
20
3.9
40
1.05
1
Ref.Des.
72
1
73
1
11
0.275
21
3.9
50
270
41
0.75
7
W0$15
0
TEXT
8
PART_NAME_02
10
0.275
20
3.9
40
1.05
1
J5_SCK
72
1
73
2
11
0.275
21
3.9
50
270
41
0.75
7
W0$15
0
TEXT
8
LABEL_INFO
10
0.582
20
2.703
40
0.84
1
0 0 1 1 0 1
72
1
73
1
11
0.582
21
2.703
41
0.75
7
W0$12
0
TEXT
8
LABEL_ATTRIBUTE
10
0.582
20
2.703
40
0.84
1
PartType
72
1
73
1
11
0.582
21
2.703
41
0.75
7
W0$12
0
TEXT
8
PART_TYPE_02
10
0.582
20
2.703
40
0.84
1
SOLDERPAD
72
1
73
2
11
0.582
21
2.703
41
0.75
7
W0$12
0
TEXT
8
PART_INFO
10
0.582
20
1.503
40
0.84
1
000000
71
2
72
1
73
2
11
0.582
21
1.503
41
0.75
7
W0$12
0
TEXT
8
PART_PTS
10
0.582
20
0.303
40
0.84
1
1 
71
2
72
1
73
2
11
0.582
21
0.303
41
0.75
7
W0$12
0
ENDBLK
0
BLOCK
2
PART_BOT_22
8
0
10
0
20
0
3
PART_BOT_22
70
64
0
INSERT
2
SYM_BOT_5
8
0
10
0
20
0
0
INSERT
2
PKG_3
8
0
10
0
20
0
41
-1
0
TEXT
8
LABEL_INFO
10
0.275
20
3.9
40
1.05
1
0 486000000 1 1 0 1
72
1
73
1
11
0.275
21
3.9
50
270
41
0.75
7
W0$15
0
TEXT
8
LABEL_ATTRIBUTE
10
0.275
20
3.9
40
1.05
1
Ref.Des.
72
1
73
1
11
0.275
21
3.9
50
270
41
0.75
7
W0$15
0
TEXT
8
PART_NAME_02
10
0.275
20
3.9
40
1.05
1
J5_SDA1
72
1
73
2
11
0.275
21
3.9
50
270
41
0.75
7
W0$15
0
TEXT
8
LABEL_INFO
10
0.582
20
2.703
40
0.84
1
0 0 1 1 0 1
72
1
73
1
11
0.582
21
2.703
41
0.75
7
W0$12
0
TEXT
8
LABEL_ATTRIBUTE
10
0.582
20
2.703
40
0.84
1
PartType
72
1
73
1
11
0.582
21
2.703
41
0.75
7
W0$12
0
TEXT
8
PART_TYPE_02
10
0.582
20
2.703
40
0.84
1
SOLDERPAD
72
1
73
2
11
0.582
21
2.703
41
0.75
7
W0$12
0
TEXT
8
PART_INFO
10
0.582
20
1.503
40
0.84
1
000000
71
2
72
1
73
2
11
0.582
21
1.503
41
0.75
7
W0$12
0
TEXT
8
PART_PTS
10
0.582
20
0.303
40
0.84
1
1 
71
2
72
1
73
2
11
0.582
21
0.303
41
0.75
7
W0$12
0
ENDBLK
0
BLOCK
2
PART_BOT_23
8
0
10
0
20
0
3
PART_BOT_23
70
64
0
INSERT
2
SYM_BOT_5
8
0
10
0
20
0
0
INSERT
2
PKG_3
8
0
10
0
20
0
41
-1
0
TEXT
8
LABEL_INFO
10
0.275
20
4
40
1.05
1
0 486000000 1 1 0 1
72
1
73
1
11
0.275
21
4
50
270
41
0.75
7
W0$15
0
TEXT
8
LABEL_ATTRIBUTE
10
0.275
20
4
40
1.05
1
Ref.Des.
72
1
73
1
11
0.275
21
4
50
270
41
0.75
7
W0$15
0
TEXT
8
PART_NAME_02
10
0.275
20
4
40
1.05
1
J6_3V3
72
1
73
2
11
0.275
21
4
50
270
41
0.75
7
W0$15
0
TEXT
8
LABEL_INFO
10
0.582
20
2.703
40
0.84
1
0 0 1 1 0 1
72
1
73
1
11
0.582
21
2.703
41
0.75
7
W0$12
0
TEXT
8
LABEL_ATTRIBUTE
10
0.582
20
2.703
40
0.84
1
PartType
72
1
73
1
11
0.582
21
2.703
41
0.75
7
W0$12
0
TEXT
8
PART_TYPE_02
10
0.582
20
2.703
40
0.84
1
SOLDERPAD
72
1
73
2
11
0.582
21
2.703
41
0.75
7
W0$12
0
TEXT
8
PART_INFO
10
0.582
20
1.503
40
0.84
1
000000
71
2
72
1
73
2
11
0.582
21
1.503
41
0.75
7
W0$12
0
TEXT
8
PART_PTS
10
0.582
20
0.303
40
0.84
1
1 
71
2
72
1
73
2
11
0.582
21
0.303
41
0.75
7
W0$12
0
ENDBLK
0
BLOCK
2
PART_BOT_24
8
0
10
0
20
0
3
PART_BOT_24
70
64
0
INSERT
2
SYM_BOT_5
8
0
10
0
20
0
0
INSERT
2
PKG_3
8
0
10
0
20
0
41
-1
0
TEXT
8
LABEL_INFO
10
0.282
20
4.003
40
1.05
1
0 486000000 1 1 0 1
72
1
73
1
11
0.282
21
4.003
50
270
41
0.75
7
W0$15
0
TEXT
8
LABEL_ATTRIBUTE
10
0.282
20
4.003
40
1.05
1
Ref.Des.
72
1
73
1
11
0.282
21
4.003
50
270
41
0.75
7
W0$15
0
TEXT
8
PART_NAME_02
10
0.282
20
4.003
40
1.05
1
J6_GND
72
1
73
2
11
0.282
21
4.003
50
270
41
0.75
7
W0$15
0
TEXT
8
LABEL_INFO
10
0.582
20
2.703
40
0.84
1
0 0 1 1 0 1
72
1
73
1
11
0.582
21
2.703
41
0.75
7
W0$12
0
TEXT
8
LABEL_ATTRIBUTE
10
0.582
20
2.703
40
0.84
1
PartType
72
1
73
1
11
0.582
21
2.703
41
0.75
7
W0$12
0
TEXT
8
PART_TYPE_02
10
0.582
20
2.703
40
0.84
1
SOLDERPAD
72
1
73
2
11
0.582
21
2.703
41
0.75
7
W0$12
0
TEXT
8
PART_INFO
10
0.582
20
1.503
40
0.84
1
000000
71
2
72
1
73
2
11
0.582
21
1.503
41
0.75
7
W0$12
0
TEXT
8
PART_PTS
10
0.582
20
0.303
40
0.84
1
1 
71
2
72
1
73
2
11
0.582
21
0.303
41
0.75
7
W0$12
0
ENDBLK
0
BLOCK
2
PART_BOT_25
8
0
10
0
20
0
3
PART_BOT_25
70
64
0
INSERT
2
SYM_BOT_5
8
0
10
0
20
0
0
INSERT
2
PKG_3
8
0
10
0
20
0
41
-1
0
TEXT
8
LABEL_INFO
10
0.282
20
4.003
40
1.05
1
0 486000000 1 1 0 1
72
1
73
1
11
0.282
21
4.003
50
270
41
0.75
7
W0$15
0
TEXT
8
LABEL_ATTRIBUTE
10
0.282
20
4.003
40
1.05
1
Ref.Des.
72
1
73
1
11
0.282
21
4.003
50
270
41
0.75
7
W0$15
0
TEXT
8
PART_NAME_02
10
0.282
20
4.003
40
1.05
1
J6_SCK
72
1
73
2
11
0.282
21
4.003
50
270
41
0.75
7
W0$15
0
TEXT
8
LABEL_INFO
10
0.582
20
2.703
40
0.84
1
0 0 1 1 0 1
72
1
73
1
11
0.582
21
2.703
41
0.75
7
W0$12
0
TEXT
8
LABEL_ATTRIBUTE
10
0.582
20
2.703
40
0.84
1
PartType
72
1
73
1
11
0.582
21
2.703
41
0.75
7
W0$12
0
TEXT
8
PART_TYPE_02
10
0.582
20
2.703
40
0.84
1
SOLDERPAD
72
1
73
2
11
0.582
21
2.703
41
0.75
7
W0$12
0
TEXT
8
PART_INFO
10
0.582
20
1.503
40
0.84
1
000000
71
2
72
1
73
2
11
0.582
21
1.503
41
0.75
7
W0$12
0
TEXT
8
PART_PTS
10
0.582
20
0.303
40
0.84
1
1 
71
2
72
1
73
2
11
0.582
21
0.303
41
0.75
7
W0$12
0
ENDBLK
0
BLOCK
2
PART_BOT_26
8
0
10
0
20
0
3
PART_BOT_26
70
64
0
INSERT
2
SYM_BOT_5
8
0
10
0
20
0
0
INSERT
2
PKG_3
8
0
10
0
20
0
41
-1
0
TEXT
8
LABEL_INFO
10
0.275
20
6.5
40
1.05
1
0 486000000 0 1 0 1
73
1
11
0.275
21
6.5
50
270
41
0.75
7
W0$15
0
TEXT
8
LABEL_ATTRIBUTE
10
0.275
20
6.5
40
1.05
1
Ref.Des.
73
1
11
0.275
21
6.5
50
270
41
0.75
7
W0$15
0
TEXT
8
PART_NAME_02
10
0.275
20
6.5
40
1.05
1
J6_SDA1
73
2
11
0.275
21
6.5
50
270
41
0.75
7
W0$15
0
TEXT
8
LABEL_INFO
10
0.582
20
2.703
40
0.84
1
0 0 1 1 0 1
72
1
73
1
11
0.582
21
2.703
41
0.75
7
W0$12
0
TEXT
8
LABEL_ATTRIBUTE
10
0.582
20
2.703
40
0.84
1
PartType
72
1
73
1
11
0.582
21
2.703
41
0.75
7
W0$12
0
TEXT
8
PART_TYPE_02
10
0.582
20
2.703
40
0.84
1
SOLDERPAD
72
1
73
2
11
0.582
21
2.703
41
0.75
7
W0$12
0
TEXT
8
PART_INFO
10
0.582
20
1.503
40
0.84
1
000000
71
2
72
1
73
2
11
0.582
21
1.503
41
0.75
7
W0$12
0
TEXT
8
PART_PTS
10
0.582
20
0.303
40
0.84
1
1 
71
2
72
1
73
2
11
0.582
21
0.303
41
0.75
7
W0$12
0
ENDBLK
0
BLOCK
2
PART_BOT_27
8
0
10
0
20
0
3
PART_BOT_27
70
64
0
INSERT
2
SYM_BOT_5
8
0
10
0
20
0
0
INSERT
2
PKG_3
8
0
10
0
20
0
41
-1
0
TEXT
8
LABEL_INFO
10
0.582
20
2.703
40
0.84
1
0 0 1 1 0 1
72
1
73
1
11
0.582
21
2.703
41
0.75
7
W0$12
0
TEXT
8
LABEL_ATTRIBUTE
10
0.582
20
2.703
40
0.84
1
PartType
72
1
73
1
11
0.582
21
2.703
41
0.75
7
W0$12
0
TEXT
8
PART_TYPE_02
10
0.582
20
2.703
40
0.84
1
SOLDERPAD
72
1
73
2
11
0.582
21
2.703
41
0.75
7
W0$12
0
TEXT
8
LABEL_INFO
10
0.175
20
3.8
40
1.05
1
0 486000000 1 1 0 1
72
1
73
1
11
0.175
21
3.8
50
270
41
0.75
7
W0$15
0
TEXT
8
LABEL_ATTRIBUTE
10
0.175
20
3.8
40
1.05
1
Ref.Des.
72
1
73
1
11
0.175
21
3.8
50
270
41
0.75
7
W0$15
0
TEXT
8
PART_NAME_02
10
0.175
20
3.8
40
1.05
1
J2_SDA1
72
1
73
2
11
0.175
21
3.8
50
270
41
0.75
7
W0$15
0
TEXT
8
PART_INFO
10
0.175
20
2.3
40
1.05
1
000000
71
2
72
1
73
2
11
0.175
21
2.3
50
270
41
0.75
7
W0$15
0
TEXT
8
PART_PTS
10
0.175
20
0.8
40
1.05
1
1 
71
2
72
1
73
2
11
0.175
21
0.8
50
270
41
0.75
7
W0$15
0
ENDBLK
0
BLOCK
2
PART_BOT_28
8
0
10
0
20
0
3
PART_BOT_28
70
64
0
INSERT
2
SYM_BOT_5
8
0
10
0
20
0
0
INSERT
2
PKG_3
8
0
10
0
20
0
41
-1
0
TEXT
8
LABEL_INFO
10
0.582
20
2.703
40
0.84
1
0 0 1 1 0 1
72
1
73
1
11
0.582
21
2.703
41
0.75
7
W0$12
0
TEXT
8
LABEL_ATTRIBUTE
10
0.582
20
2.703
40
0.84
1
PartType
72
1
73
1
11
0.582
21
2.703
41
0.75
7
W0$12
0
TEXT
8
PART_TYPE_02
10
0.582
20
2.703
40
0.84
1
SOLDERPAD
72
1
73
2
11
0.582
21
2.703
41
0.75
7
W0$12
0
TEXT
8
LABEL_INFO
10
0.275
20
6.5
40
1.05
1
0 486000000 0 1 0 1
73
1
11
0.275
21
6.5
50
270
41
0.75
7
W0$15
0
TEXT
8
LABEL_ATTRIBUTE
10
0.275
20
6.5
40
1.05
1
Ref.Des.
73
1
11
0.275
21
6.5
50
270
41
0.75
7
W0$15
0
TEXT
8
PART_NAME_02
10
0.275
20
6.5
40
1.05
1
J6_SDA2
73
2
11
0.275
21
6.5
50
270
41
0.75
7
W0$15
0
TEXT
8
PART_INFO
10
0.275
20
5
40
1.05
1
000000
71
2
73
2
11
0.275
21
5
50
270
41
0.75
7
W0$15
0
TEXT
8
PART_PTS
10
0.275
20
3.5
40
1.05
1
1 
71
2
73
2
11
0.275
21
3.5
50
270
41
0.75
7
W0$15
0
ENDBLK
0
BLOCK
2
SYM_BOT_5
8
0
10
0
20
0
3
SYM_BOT_5
70
64
0
TEXT
8
SYM_NAME
10
0
20
0
40
1.778
1
SOLDERPAD
41
0.75
0
TEXT
8
SYM_PART_NAME_01
10
0.682
20
1.603
40
0.84
1
 
72
1
73
1
11
0.682
21
1.603
41
0.75
7
W0$12R0
0
TEXT
8
SYM_PART_TYPE_01
10
0.582
20
2.703
40
0.84
1
 
72
1
73
1
11
0.582
21
2.703
41
0.75
7
W0$12R0
0
INSERT
2
PART_BODY_BOT_9
8
0
10
0
20
0
0
INSERT
2
STK_BOT_143
8
0
10
0
20
0
0
TEXT
8
SYM_TERMINAL
10
0
20
-3.048
40
1.778
1
1
0
ENDBLK
0
BLOCK
2
PKG_3
8
0
10
0
20
0
3
PKG_3
70
64
0
TEXT
8
PKG_INFO
10
0
20
0
40
1.778
1
*SYM:= 5
0
TEXT
8
PKG_INFO
10
0
20
-3.048
40
1.778
1
*PKG:= 0 SOLDERPAD UND
0
TEXT
8
PKG_INFO
10
0
20
-6.096
40
1.778
1
*GATE:=0
0
TEXT
8
PKG_INFO
10
0
20
-9.144
40
1.778
1
*GATEPIN:= 0 9 1 <>
0
ENDBLK
0
BLOCK
2
PART_BODY_BOT_9
8
0
10
0
20
0
3
PART_BODY_BOT_9
70
64
0
POLYLINE
8
PART_BOT_2DLINE_01
66
1
40
0.127
41
0.127
39
-0.01
70
1
0
VERTEX
8
PART_BOT_2DLINE_01
10
-0.6
20
0.95
0
VERTEX
8
PART_BOT_2DLINE_01
10
0.6
20
0.95
0
VERTEX
8
PART_BOT_2DLINE_01
10
0.6
20
-0.95
0
VERTEX
8
PART_BOT_2DLINE_01
10
-0.6
20
-0.95
0
SEQEND
0
INSERT
2
SMOOTH_0$127
8
PART_BOT_2DLINE_01
10
-0.6
20
0.95
0
INSERT
2
SMOOTH_0$127
8
PART_BOT_2DLINE_01
10
0.6
20
0.95
0
INSERT
2
SMOOTH_0$127
8
PART_BOT_2DLINE_01
10
0.6
20
-0.95
0
INSERT
2
SMOOTH_0$127
8
PART_BOT_2DLINE_01
10
-0.6
20
-0.95
0
POLYLINE
8
PART_BOT_2DLINE_18
66
1
40
0.1
41
0.1
39
-0.01
70
1
0
VERTEX
8
PART_BOT_2DLINE_18
10
-0.6
20
0.943
0
VERTEX
8
PART_BOT_2DLINE_18
10
0.6
20
0.943
0
VERTEX
8
PART_BOT_2DLINE_18
10
0.6
20
-0.947
0
VERTEX
8
PART_BOT_2DLINE_18
10
-0.6
20
-0.947
0
SEQEND
0
INSERT
2
SMOOTH_0$1
8
PART_BOT_2DLINE_18
10
-0.6
20
0.943
0
INSERT
2
SMOOTH_0$1
8
PART_BOT_2DLINE_18
10
0.6
20
0.943
0
INSERT
2
SMOOTH_0$1
8
PART_BOT_2DLINE_18
10
0.6
20
-0.947
0
INSERT
2
SMOOTH_0$1
8
PART_BOT_2DLINE_18
10
-0.6
20
-0.947
0
ENDBLK
0
BLOCK
2
STK_BOT_143
8
0
10
0
20
0
3
STK_BOT_143
70
64
0
INSERT
2
DRIL_HOLE_0
8
DRIL_NPLTE_THRU_01
10
0
20
0
0
INSERT
2
DRIL_HOLE_0
8
DRIL_NPLTE_THRU_02
10
0
20
0
0
INSERT
2
PAD_0
8
PADS_INNER
10
0
20
0
0
INSERT
2
PAD_1
8
PADS_BOT
10
0
20
0
50
90
0
INSERT
2
PAD_0
8
PADS_TOP
10
0
20
0
0
ENDBLK
999
*** POWERPCB  PCB PARAMETER ***
0
BLOCK
2
PCB_PARAMS
8
0
10
0
20
0
3
PCB_PARAMS
70
64
999
 *  1.Job name           2.Backupfile name       3.CursorType
999
 *  4.TearDropFlag       5.HighlighNetsFlag      6.HatchDisplayFlag
999
 *  7.PadsFlag           8.TracksFlag            9.ViasFlag
999
 * 10.CopperFlag        11.LinesFlag            12.TextFlag
999
 * 13.TopComponentFlag  14.BottomComponentFlag  16.ObjectSnapFlags
0
TEXT
8
PCB_PARAMS
10
0
20
-3.048
40
1.778
1
A:=FTC_000_1.pcb <> 3 0 1 1 1 1 1 1 1 1 1 1 0 502 0
999
 *  1.RefDesHeight       2.RefDesWidth           3.DefaultWidth
999
 *  4.VGX                5.VGY                   6.OVR
999
 *  7.HatchGrid          8.ObjectSnapRadius
0
TEXT
8
PCB_PARAMS
10
0
20
-6.096
40
1.778
1
B:=2.54 0.254 0.254 0.1 0.1 0.0762 0.254 0.1
999
 *  1.ScaleFactor        2.NetAttributeFlags     3.BackupInterval
999
 *  4.WorkingLevel       5.HatchMode             6.HatchDirection
999
 *  7.ConnectionColor    8.BackgroundColor       9.ForegroundColor
999
 * 10.BoardOutlineColor
0
TEXT
8
PCB_PARAMS
10
0
20
-9.144
40
1.778
1
C:=21.9586429596 10002 20 1 0 0 8 0 8 8
999
 * MitreAngle0 - MitreAngle6
0
TEXT
8
PCB_PARAMS
10
0
20
-12.192
40
1.778
1
D:=324000000 324000000 324000000 324000000 324000000 324000000 162000000
999
 * Hatch & Keepout Parameters
0
TEXT
8
PCB_PARAMS
10
0
20
-15.24
40
1.778
1
E:=0.5 0 0 2.5 0 1
999
 * Fanout Parameters
0
TEXT
8
PCB_PARAMS
10
0
20
-18.288
40
1.778
1
F:=0.1 0.1 6.35 1 2 0 1 1 0 0 1 1 1 1
999
 * Pad Entry Parameters
0
TEXT
8
PCB_PARAMS
10
0
20
-21.336
40
1.778
1
P:= 1 1 1 1
999
 * DFF Parameters
0
TEXT
8
PCB_PARAMS
10
0
20
-24.384
40
1.778
1
Q:=89.9999 3967 114300 114300 114300 5 4 114300 114300 114300 114300 1 114300 1 114300 1 114300 0
0
ENDBLK
0
BLOCK
2
DRIL_SYMBOL_0
8
0
10
0
20
0
3
DRIL_SYMBOL_0
70
64
0
ENDBLK
999
*** POWERPCB  SMOOTH CIRCLE ***
0
BLOCK
2
SMOOTH_0$254
8
0
10
0
20
0
3
SMOOTH_0$254
70
64
0
POLYLINE
8
0
66
1
40
0.127
41
0.127
70
1
0
VERTEX
8
0
10
-0.0635
20
0
42
1
0
VERTEX
8
0
10
0.0635
20
0
42
1
0
SEQEND
0
ENDBLK
0
BLOCK
2
SMOOTH_0$0254
8
0
10
0
20
0
3
SMOOTH_0$0254
70
64
0
POLYLINE
8
0
66
1
40
0.0127
41
0.0127
70
1
0
VERTEX
8
0
10
-0.00635
20
0
42
1
0
VERTEX
8
0
10
0.00635
20
0
42
1
0
SEQEND
0
ENDBLK
0
BLOCK
2
SMOOTH_0$127
8
0
10
0
20
0
3
SMOOTH_0$127
70
64
0
POLYLINE
8
0
66
1
40
0.0635
41
0.0635
70
1
0
VERTEX
8
0
10
-0.03175
20
0
42
1
0
VERTEX
8
0
10
0.03175
20
0
42
1
0
SEQEND
0
ENDBLK
0
BLOCK
2
SMOOTH_0$1
8
0
10
0
20
0
3
SMOOTH_0$1
70
64
0
POLYLINE
8
0
66
1
40
0.05
41
0.05
70
1
0
VERTEX
8
0
10
-0.025
20
0
42
1
0
VERTEX
8
0
10
0.025
20
0
42
1
0
SEQEND
0
ENDBLK
0
BLOCK
2
PAD_0
8
0
10
0
20
0
3
PAD_0
70
64
0
POLYLINE
8
0
70
1
66
1
0
VERTEX
8
0
10
0
20
0
42
1
0
VERTEX
8
0
10
0
20
0
42
1
0
SEQEND
0
ENDBLK
0
BLOCK
2
PAD_1
8
0
10
0
20
0
3
PAD_1
70
64
0
POLYLINE
8
0
66
1
40
0.762
41
0.762
0
VERTEX
8
0
10
-0.762
20
0
0
VERTEX
8
0
10
0.762
20
0
0
SEQEND
0
ENDBLK
999
*** POWERPCB  DRILL HOLE ***
0
BLOCK
2
DRIL_HOLE_0
8
0
10
0
20
0
3
DRIL_HOLE_0
70
64
0
POLYLINE
8
0
66
1
70
1
0
VERTEX
8
0
10
0
20
0
42
1
0
VERTEX
8
0
10
0
20
0
42
1
0
SEQEND
0
INSERT
2
DRIL_SYMBOL_0
8
0
10
0
20
0
0
ENDBLK
0
ENDSEC
0
SECTION
2
ENTITIES
999
*** POWERPCB  DBLAYER ***
0
INSERT
2
DBLAYERS
8
0
10
0
20
0
999
*** POWERPCB  BOARD ***
0
INSERT
2
BOARD_5
8
0
10
-0.291
20
-0.023
999
*** POWERPCB  2DLINE ***
0
INSERT
2
DRAWING_1
8
0
10
81.2
20
-47
0
INSERT
2
DRAWING_2
8
0
10
86
20
11.8
0
INSERT
2
DRAWING_3
8
0
10
-4.7
20
-35.2
0
INSERT
2
DRAWING_4
8
0
10
9.2
20
22
0
INSERT
2
DRAWING_15
8
0
10
50.9458
20
5.5272
999
*** POWERPCB  FREE TEXT ***
0
TEXT
8
TEXT_29
10
44.8
20
-21.8
40
1.778
1
SB - serigrafia lato componenti
41
0.75
7
W0$254
0
TEXT
8
TEXT_02
10
44.9
20
-13.8
40
1.778
1
LS - Lato saldature
41
0.75
7
W0$254
999
*** POWERPCB  COMPONENT ***
0
INSERT
2
PART_BOT_0
8
0
10
22.2
20
2.2
41
-1
0
INSERT
2
PART_BOT_1
8
0
10
20.7
20
2.2
41
-1
0
INSERT
2
PART_BOT_2
8
0
10
30.3846426667
20
2.2774833333
41
-1
0
INSERT
2
PART_BOT_3
8
0
10
31.7998633333
20
2.2774833333
41
-1
0
INSERT
2
PART_BOT_11
8
0
10
8
20
2.2
41
-1
0
INSERT
2
PART_BOT_12
8
0
10
12.5
20
2.2
41
-1
0
INSERT
2
PART_BOT_13
8
0
10
11
20
2.2
41
-1
0
INSERT
2
PART_BOT_14
8
0
10
9.5
20
2.2
41
-1
0
INSERT
2
PART_BOT_15
8
0
10
17.7
20
2.2
41
-1
0
INSERT
2
PART_BOT_16
8
0
10
19.2
20
2.2
41
-1
0
INSERT
2
PART_BOT_17
8
0
10
27.5
20
2.3
41
-1
0
INSERT
2
PART_BOT_18
8
0
10
28.9
20
2.3
41
-1
0
INSERT
2
PART_BOT_19
8
0
10
36.5
20
2.3
41
-1
0
INSERT
2
PART_BOT_20
8
0
10
40.7
20
2.3
41
-1
0
INSERT
2
PART_BOT_21
8
0
10
39.3
20
2.3
41
-1
0
INSERT
2
PART_BOT_22
8
0
10
37.9
20
2.3
41
-1
0
INSERT
2
PART_BOT_23
8
0
10
46.7
20
2.3
41
-1
0
INSERT
2
PART_BOT_24
8
0
10
50.9
20
2.3
41
-1
0
INSERT
2
PART_BOT_25
8
0
10
49.5
20
2.3
41
-1
0
INSERT
2
PART_BOT_26
8
0
10
48.1
20
2.3
41
-1
0
INSERT
2
PART_BOT_27
8
0
10
14
20
2.2
41
-1
0
INSERT
2
PART_BOT_28
8
0
10
52.4
20
2.3
41
-1
999
*** POWERPCB  PCB PARAMETER ***
0
INSERT
2
PCB_PARAMS
8
0
10
0
20
0
0
ENDSEC
0
EOF
