%
T1C.01181F095S3
X105492Y100177
X102559Y100394
X104528Y100394
X105492Y100472
X105512Y100866
X105059Y102008
X102559Y102362
X100906Y102972
X108071Y102303
X106594Y101732
X106969Y101319
X107283Y101319
X105866Y10126
X107756Y101024
X107579Y098957
X107067Y098898
X10565Y09874
X10687Y098307
X107933Y098051
X112795Y087598
X110059Y089094
X113071Y08937
X110236Y089409
X11122Y090925
X113071Y090965
X112362Y09122
X111929Y091358
X112367Y091523
X11187Y091732
X111594Y091969
X111535Y093189
X112008Y093307
X111102Y09374
X112323Y094331
X113071Y096063
X111201Y09624
X111142Y098937
X112972Y099094
X11124Y100413
X108091Y101358
X108799Y101378
X11124Y102087
X113169Y103169
X113248Y102421
X115571Y102224
X115433Y10185
X114606Y101811
X113819Y101713
X113484Y101614
X115453Y101496
X113209Y101358
X113543Y101083
X113504Y100768
X113563Y100374
X113169Y100118
X113642Y099823
X115236Y099311
X115039Y097835
X115276Y097382
X113465Y097067
X114882Y095906
X114075Y093563
X113583Y093484
X113858Y09313
X114961Y092323
X113996Y091909
X113642Y091555
X113957Y091555
X115453Y091339
X113524Y09126
X114193Y090984
X113957Y090551
X114311Y090531
X114035Y09002
X115335Y08939
X113268Y088937
X115197Y08874
X11498Y087717
X115177Y086693
X114783Y086673
X117244Y087303
X116299Y087579
X117087Y088543
X117264Y088799
X117815Y089134
X115925Y090236
X117913Y09061
X115925Y090669
X116575Y090728
X118051Y091004
X116083Y093189
X116654Y093563
X115906Y09378
X115846Y094094
X11628Y094449
X115886Y094803
X116181Y094882
X115787Y095236
X117087Y096142
X11748Y096161
X117972Y096319
X117126Y096654
X116929Y097362
X11622Y099587
X117933Y101811
X119094Y095689
X118622Y095453
X119311Y095413
X118228Y093858
X118169Y09313
T2C.015F095S3
X109207Y088524
X109393Y088878
X109578Y089232
X109764Y089587
T3C.16142F035S1033
X111378Y087854
X100591Y09998
X119508Y098957
M30
